<?xml version="1.0" encoding="UTF-8" standalone="no"?>
<svg id="LAPASVG" width="598.42731" height="716.66663" viewBox="0 0 17.952819 21.499999" version="1.1" xml:space="preserve" xmlns:xlink="http://www.w3.org/1999/xlink" xmlns="http://www.w3.org/2000/svg" xmlns:svg="http://www.w3.org/2000/svg">
   <defs id="LAPADEFS" />
	 <path id="LAPA1" style="fill:none;stroke:#000000;stroke-width:1.5" d="m 5.2028164,13.3214 -1.82284,-1.736 c -0.64194,-0.6114 -1.66387,-0.5649 -2.24763,0.1023 v 0 c -0.52756997,0.6029 -0.51203997,1.5076 0.03591,2.0921 l 5.94195,6.3381 c 0.37811,0.4033 0.90531,0.6321 1.45811,0.6321 1.085,0 2.8687996,0 4.6344996,0 2.4,0 4,-2 4,-4 0,0 0,0 0,0 0,0 0,-6.8571 0,-8.57141" />
	 <path id="LAPA2" style="fill:none;stroke:#000000;stroke-width:1.5" d="m 14.202816,8.74995 c 0,0 0,-0.12512 0,-0.57143 0,-2.28572 3,-2.28572 3,0" />
  	 <path id="LAPA3" style="fill:none;stroke:#000000;stroke-width:1.5" d="m 11.202816,8.74998 c 0,0 0,-0.82166 0,-1.71428 0,-2.28572 3,-2.28572 3,0 0,0.22315 0,0.9197 0,1.14285 0,0.44632 0,0.57143 0,0.57143" />
	 <path id="LAPA4" style="fill:none;stroke:#000000;stroke-width:1.5" d="m 8.2028164,8.7501 c 0,0 0,-1.38426 0,-2.50005 0,-2.28571 2.9999996,-2.28571 2.9999996,0 0,0 0,0 0,0 0,0 0,0.56256 0,0.78572 0,0.89262 0,1.71433 0,1.71433" />
	 <path id="LAPA5" style="fill:none;stroke:#000000;stroke-width:1.5" d="M 5.2028164,13.3214 V 2.25 c 0,-0.82843 0.67157,-1.49999999 1.5,-1.49999999 v 0 c 0.8284,0 1.5,0.67055999 1.5,1.49898999 0,1.19069 0,2.84257 0,4.00101 0,1.11578 0,2.5 0,2.5" />
</svg>
