<?xml version="1.0" encoding="UTF-8" standalone="no"?>
<svg id="FACEBOOKSVG" width="1500.5759" height="268.07327" viewBox="102.28 102.2 1500.5759 268.07327" version="1.1" xml:space="preserve" xmlns:xlink="http://www.w3.org/1999/xlink" xmlns="http://www.w3.org/2000/svg" xmlns:svg="http://www.w3.org/2000/svg">
   <defs id="FACEBOOKDEFS" />
	 <path id="FACEBOOK1" style="fill:#000000;stroke:#000000;stroke-width:1.69331" d="m 1422.0032,365.82153 h 49.9187 v -80.76419 l 69.6579,80.76419 h 61.0811 l -81.0926,-93.07965 69.2716,-80.70831 h -55.583 l -63.335,74.38718 V 102.2 l -49.9187,6.54295 z m -115.125,-178.23968 c -55.4186,0 -93.9025,37.27487 -93.9025,91.3186 0,54.04374 38.4839,91.31861 93.9025,91.31861 55.4171,0 93.9026,-37.27487 93.9026,-91.31861 0,-54.04373 -38.4855,-91.3186 -93.9026,-91.3186 z m 0,140.08429 c -25.6757,0 -43.2675,-19.84731 -43.2675,-48.76569 0,-28.91837 17.5918,-48.76568 43.2675,-48.76568 25.6741,0 43.2676,19.84731 43.2676,48.76568 0,28.91838 -17.5935,48.76569 -43.2676,48.76569 z M 1104.0076,187.58185 c -55.4169,0 -93.9025,37.27487 -93.9025,91.3186 0,54.04374 38.4856,91.31861 93.9025,91.31861 55.4188,0 93.9026,-37.27487 93.9026,-91.31861 0,-54.04373 -38.4838,-91.3186 -93.9026,-91.3186 z m 0,140.08429 c -25.674,0 -43.2675,-19.84731 -43.2675,-48.76569 0,-28.91837 17.5935,-48.76568 43.2675,-48.76568 25.6758,0 43.2676,19.84731 43.2676,48.76568 0,28.91838 -17.5918,48.76569 -43.2676,48.76569 z M 912.95805,187.58185 c -23.08999,0 -42.22273,9.07107 -54.20799,25.674 V 102.2 l -49.97471,6.48707 v 257.07858 h 44.31227 l 0.87884,-26.82883 c 11.821,20.01156 32.9874,31.28224 58.99159,31.28224 47.3924,0 82.08328,-38.48558 82.08328,-91.31861 0,-52.8347 -34.52663,-91.3186 -82.08328,-91.3186 z m -11.81931,140.08429 c -25.67569,0 -43.26751,-19.84731 -43.26751,-48.76569 0,-28.91837 17.59182,-48.76568 43.26751,-48.76568 25.67398,0 43.2675,19.84731 43.2675,48.76568 0,28.91838 -17.59352,48.76569 -43.2675,48.76569 z m -192.42456,2.2538 c -26.49864,0 -45.5213,-12.31545 -52.00837,-33.53604 h 122.98522 c 1.21071,-6.48707 2.03536,-14.18487 2.03536,-19.35286 0,-55.91315 -31.28394,-89.44919 -83.84263,-89.44919 -53.05316,0 -89.7794,37.27487 -89.7794,91.3186 0,54.75832 38.48559,91.31861 95.60777,91.31861 29.57708,0 58.3312,-9.89571 76.3091,-26.33438 l -17.9779,-31.66661 c -17.42756,12.03943 -34.52662,17.70187 -53.32915,17.70187 z m -11.16063,-103.524 c 23.0917,0 37.82521,14.01893 37.82521,35.73564 v 0.16596 h -79.71773 c 4.78361,-23.03582 19.68136,-35.9016 41.89252,-35.9016 z M 529.92586,370.27325 c 25.83993,0 51.12954,-9.89571 68.94149,-27.04897 l -19.51711,-32.82145 c -13.85468,10.77623 -29.57708,16.60292 -44.47652,16.60292 -27.70936,0 -46.1817,-19.35285 -46.1817,-48.05111 0,-28.69824 18.47234,-48.0511 46.1817,-48.0511 13.68872,0 28.58817,4.94785 40.68349,13.69043 l 19.84732,-33.53774 c -16.05429,-14.51337 -40.90364,-23.42019 -65.53456,-23.42019 -54.20799,0 -92.52763,37.82519 -92.52763,91.3186 0.0542,53.32916 38.37383,91.31861 92.58352,91.31861 z m -158.72258,-178.23968 -0.87883,27.05065 c -11.821,-20.1775 -32.9874,-31.44818 -58.9916,-31.44818 -47.55665,0 -82.08328,38.48558 -82.08328,91.3186 0,52.83471 34.74676,91.31861 82.08328,91.31861 26.0042,0 47.22478,-11.27068 58.9916,-31.28224 l 0.87883,26.82883 h 44.31228 V 192.03357 Z m -48.0511,135.63257 c -25.67399,0 -43.26751,-19.84731 -43.26751,-48.76569 0,-28.91837 17.59352,-48.76568 43.26751,-48.76568 25.67568,0 43.2675,19.84731 43.2675,48.76568 0,28.91838 -17.6477,48.76569 -43.2675,48.76569 z M 225.51074,192.36038 h -44.91678 v -14.84527 c 0,-22.21117 8.68668,-30.73191 31.22805,-30.73191 6.98153,0 12.64396,0.16425 15.88835,0.49445 v -38.09952 c -6.15859,-1.70516 -21.1664,-3.40863 -29.85309,-3.40863 -45.90737,0 -67.07377,21.66084 -67.07377,68.44704 v 18.08796 h -28.36806 v 42.00429 h 28.36806 v 131.45348 h 49.86464 v -131.3993 h 37.1665 z" />
	 <path id="FACEBOOK2" style="fill:#000000;stroke:#000000;stroke-width:0.85528" d="m 130.9915,299.55012 v -65.79071 h -14.14192 -14.14194 v -20.59803 -20.59803 h 14.06371 14.0637 l 0.32679,-15.83282 c 0.3514,-17.02665 1.1232,-23.42888 3.88557,-32.23228 1.76937,-5.63882 4.84927,-12.17126 7.59182,-16.10223 2.64661,-3.79339 9.04918,-9.78795 13.47298,-12.61438 14.32377,-9.1516 38.59541,-11.97735 64.95723,-7.56243 l 6.14867,1.02974 0.16221,18.75342 0.16222,18.75343 h -12.76698 c -11.45945,0 -13.20777,0.13902 -17.07103,1.3579 -13.51728,4.26457 -17.52369,12.32855 -17.52369,35.27114 v 9.17851 h 22.44263 c 12.34343,0 22.44261,0.11718 22.44261,0.26032 0,0.14325 -1.66014,9.31804 -3.68918,20.38859 -2.02907,11.07056 -3.6892,20.36088 -3.6892,20.64516 0,0.28428 -8.43905,0.51685 -18.75344,0.51685 h -18.75342 v 65.48327 65.48327 h -24.59466 -24.59466 z" />
	 <path id="FACEBOOK3" style="fill:#000000;stroke:#000000;stroke-width:0.85528" d="m 304.53258,369.58334 c -37.20156,-2.82381 -66.12391,-31.04819 -73.38393,-71.61302 -1.85929,-10.38858 -1.85929,-27.6479 0,-38.03648 3.57625,-19.98196 12.48755,-37.42188 25.6065,-50.11326 11.41898,-11.0468 24.84651,-17.85613 40.76005,-20.67011 6.90812,-1.22156 20.94276,-1.22821 27.7741,-0.0135 10.25923,1.82471 21.46215,6.55875 28.70642,12.13056 4.24568,3.26549 11.74576,11.18282 14.03244,14.81304 1.01143,1.60574 2.04648,2.92002 2.30011,2.92064 0.25363,5.9e-4 0.46217,-2.00492 0.4634,-4.45671 10e-4,-2.45177 0.18262,-8.40059 0.40308,-13.2196 l 0.40082,-8.76185 h 21.73212 21.73211 v 86.38872 86.38872 h -21.73211 -21.73212 l -0.40082,-8.76183 c -0.22046,-4.81901 -0.40183,-10.76785 -0.40308,-13.21963 -0.001,-2.45177 -0.20977,-4.44902 -0.4634,-4.4383 -0.25363,0.0102 -1.68265,1.83133 -3.1756,4.04582 -12.58437,18.66647 -36.03572,28.6344 -62.62009,26.61648 z m 28.44254,-42.68104 c 15.24611,-3.22458 26.87095,-14.9164 31.78062,-31.96367 1.25665,-4.36329 1.41373,-6.20391 1.39062,-16.29398 -0.0242,-10.59104 -0.14088,-11.74779 -1.69373,-16.78376 -6.34539,-20.57961 -20.91537,-31.79068 -41.31535,-31.79068 -20.40236,0 -35.01214,11.24477 -41.30403,31.79068 -1.54191,5.03507 -1.65695,6.19458 -1.6653,16.78376 -0.008,9.83985 0.17289,12.0288 1.3383,16.21904 2.68194,9.64284 7.68528,17.79472 14.52423,23.66409 3.9132,3.35843 11.75587,7.21364 16.97732,8.3455 5.27801,1.14412 14.63075,1.15772 19.96732,0.0289 z" />
	 <path id="FACEBOOK4" style="fill:#000000;stroke:#000000;stroke-width:0.85528" d="m 522.35401,369.59696 c -17.21284,-1.10137 -33.30891,-6.45256 -47.01738,-15.63116 -6.34364,-4.24742 -16.29337,-13.97796 -20.89416,-20.43384 -6.94303,-9.74257 -12.05426,-21.67688 -14.93174,-34.86439 -1.16203,-5.32564 -1.35029,-8.07436 -1.35029,-19.71548 0,-14.84979 0.81429,-20.49816 4.5824,-31.78614 11.32519,-33.9265 41.805,-56.46732 79.50628,-58.7975 19.88031,-1.22872 37.14185,2.15902 54.21315,10.63983 7.16817,3.56109 17.51231,10.42977 18.02547,11.96925 0.1082,0.3248 -4.13194,7.9127 -9.42267,16.86201 l -9.6195,16.27147 -2.25857,-1.54612 c -1.24219,-0.85037 -4.6104,-2.72873 -7.4849,-4.17412 -28.72492,-14.4439 -59.33932,-8.01459 -71.23019,14.95902 -3.23324,6.24671 -4.79995,11.58703 -5.67142,19.33165 -2.18288,19.39923 5.23973,37.63479 19.0582,46.82129 17.91293,11.90849 43.67855,9.95858 66.3359,-5.02021 2.81091,-1.8583 5.19286,-3.28057 5.29324,-3.16062 0.10042,0.11989 4.39196,7.32549 9.53686,16.01232 l 9.35434,15.79418 -2.57385,2.34437 c -3.97716,3.62254 -12.63984,9.66226 -17.7757,12.39342 -16.83605,8.95311 -35.9954,12.98996 -55.67547,11.73077 z" />
	 <path id="FACEBOOK5" style="fill:#000000;stroke:#000000;stroke-width:0.85528" d="m 686.40109,368.68789 c -31.12264,-4.53894 -55.39216,-20.99089 -67.97648,-46.08029 -5.68802,-11.34019 -8.78426,-23.00284 -9.63095,-36.27711 -2.31701,-36.32511 11.78217,-67.12323 38.68567,-84.5047 15.94238,-10.29988 37.80535,-15.34972 58.76526,-13.57347 22.44251,1.90191 39.17952,9.22243 52.26009,22.85784 5.81977,6.06663 8.90499,10.44374 12.71396,18.03775 8.64186,17.22938 12.114,41.1199 9.00966,61.99199 l -0.70217,4.72102 h -61.48875 -61.48877 l 0.36262,1.81308 c 0.56469,2.82341 3.89028,9.24034 6.87999,13.27528 9.73072,13.13273 28.63022,20.38322 49.78626,19.09969 15.39815,-0.93421 28.50545,-5.18829 43.23252,-14.03153 2.81095,-1.68789 5.20083,-2.97077 5.31088,-2.85088 0.11008,0.1199 4.08636,7.06784 8.83625,15.43981 l 8.63617,15.22176 -2.67831,2.23876 c -13.98734,11.69196 -35.58416,20.22264 -58.09502,22.94737 -7.12922,0.86291 -25.53464,0.67761 -32.41888,-0.32637 z m 49.00415,-109.31318 c 0,-4.54762 -2.05891,-12.1552 -4.41183,-16.30172 -4.40611,-7.76471 -12.654,-13.53478 -22.45623,-15.70996 -5.68961,-1.26256 -17.0054,-1.27477 -22.31193,-0.024 -8.18166,1.92831 -16.06369,6.79735 -21.07787,13.02066 -3.9749,4.93337 -9.67479,17.56532 -9.67479,21.44098 0,0.72468 6.19219,0.85753 39.96632,0.85753 h 39.96633 z" />
	 <path id="FACEBOOK6" style="fill:#000000;stroke:#000000;stroke-width:0.85528" d="m 899.10412,368.72416 c -10.11073,-1.83277 -19.18042,-5.47135 -26.84435,-10.76942 -5.16055,-3.56748 -13.26635,-11.71864 -16.0417,-16.13144 -1.00989,-1.60576 -2.0437,-2.92002 -2.29732,-2.92063 -0.25364,-6.1e-4 -0.46227,2.41993 -0.46364,5.37898 -9.9e-4,2.95903 -0.18243,8.90788 -0.40231,13.21963 l -0.39985,7.83953 H 830.92209 809.18921 V 237.19522 109.04961 l 2.30575,-0.36584 c 4.11869,-0.6535 44.95812,-5.89093 45.93506,-5.89093 0.84774,0 0.94851,5.88282 0.94851,55.37736 v 55.37733 l 5.99494,-6.09778 c 6.60205,-6.71529 9.22251,-8.67265 16.48464,-12.31331 9.98584,-5.0061 19.69397,-7.11062 32.55097,-7.05635 41.69113,0.176 73.57241,30.02835 80.30339,75.19292 1.24397,8.34683 0.94469,25.99859 -0.58565,34.54177 -6.79182,37.91605 -32.00259,64.87811 -66.26842,70.87182 -6.65751,1.16452 -21.42701,1.1845 -27.75428,0.0376 z M 910.86,326.9197 c 15.18475,-3.21722 26.44181,-14.20321 31.53352,-30.77424 1.58068,-5.14438 1.69547,-6.26744 1.72609,-16.88593 0.026,-9.0464 -0.18904,-12.17796 -1.05082,-15.29726 -2.67021,-9.66507 -6.30435,-16.27036 -12.1898,-22.15582 -4.70976,-4.70976 -9.11097,-7.49133 -15.41938,-9.74515 -4.11555,-1.47035 -5.34351,-1.61301 -14.04043,-1.6312 -8.76404,-0.0182 -9.92985,0.11429 -14.49758,1.64812 -14.69364,4.93432 -24.46898,16.86187 -28.06065,34.2388 -0.9953,4.81531 -1.16074,7.47534 -0.91977,14.7871 0.34685,10.52491 1.63726,16.14912 5.50191,23.9798 3.72717,7.55211 11.07878,14.93829 18.33284,18.41905 2.87405,1.37907 7.01692,2.89571 9.20636,3.37031 5.2485,1.13773 14.62356,1.15962 19.87771,0.0463 z" />
	 <path id="FACEBOOK7" style="fill:#000000;stroke:#000000;stroke-width:0.85528" d="m 1087.2064,368.67615 c -19.8758,-2.89511 -37.6859,-11.48282 -50.82,-24.50447 -7.1596,-7.09851 -11.0516,-12.39821 -15.6105,-21.25664 -14.3609,-27.90564 -13.6771,-65.1625 1.6784,-91.45497 14.9544,-25.60535 40.4111,-40.57516 73.4916,-43.21664 35.5728,-2.84051 68.8231,11.85836 86.4557,38.21914 13.7154,20.50479 18.5048,48.10628 12.8647,74.13883 -8.0065,36.95396 -36.2345,62.60075 -74.9585,68.10401 -7.9849,1.13478 -25.2144,1.11956 -33.1014,-0.0293 z m 26.6491,-41.77385 c 15.2532,-3.22608 27.1,-15.16435 31.7932,-32.03861 1.1653,-4.19024 1.346,-6.37919 1.3383,-16.21904 -0.01,-10.58918 -0.1234,-11.74869 -1.6653,-16.78376 -5.1146,-16.7013 -15.1495,-26.77424 -30.5211,-30.63688 -7.2049,-1.81045 -18.4845,-1.42234 -25.0678,0.86254 -13.437,4.66362 -22.2972,14.42329 -27.0304,29.77434 -1.5529,5.03597 -1.6696,6.19272 -1.6938,16.78376 -0.03,12.95773 0.7805,17.0446 5.1802,26.13182 5.379,11.10981 15.9927,19.55392 27.7998,22.1173 5.1853,1.12572 14.5657,1.12976 19.8669,0.008 z" />
	 <path id="FACEBOOK8" style="fill:#000000;stroke:#000000;stroke-width:0.85528" d="m 1422.2111,237.14117 c 0,-70.50982 0.2076,-128.2013 0.4611,-128.2033 0.2538,-0.002 10.9452,-1.38547 23.7591,-3.07434 12.8139,-1.68888 23.674,-3.07069 24.1335,-3.07069 0.7001,0 0.8356,13.26947 0.8356,81.77725 0,45.97873 0.2342,81.77724 0.5351,81.77724 0.2943,0 14.6131,-16.58249 31.8193,-36.84997 l 31.2843,-36.84997 27.2079,-0.042 c 14.9643,-0.023 27.2078,0.0814 27.2078,0.23246 0,0.15087 -15.3668,18.17157 -34.1485,40.0458 -30.2101,35.18468 -34.0507,39.88625 -33.3026,40.76787 2.815,3.3161 72.6783,83.57634 75.9315,87.23153 l 3.9676,4.45777 h -30.1344 -30.1344 l -34.5816,-40.12002 c -19.0199,-22.066 -34.8224,-40.21225 -35.1168,-40.32498 -0.3004,-0.11498 -0.5352,17.49054 -0.5352,40.12002 v 40.32498 h -24.5947 -24.5946 z" />
	 <path id="FACEBOOK9" style="fill:#000000;stroke:#000000;stroke-width:0.85528" d="m 1290.0189,368.69689 c -39.8375,-6.02234 -67.9195,-32.78292 -75.142,-71.60623 -1.7245,-9.27062 -1.8639,-26.29743 -0.2864,-35.04739 6.0732,-33.69109 26.1408,-57.58017 57.5543,-68.51446 25.495,-8.87425 57.5014,-7.01701 80.8418,4.691 11.6628,5.85027 24.0263,16.32936 31.0489,26.3166 21.2406,30.20697 21.899,75.48178 1.5474,106.37366 -12.6144,19.14739 -32.3946,31.91104 -57.2622,36.94985 -8.6064,1.74386 -29.3102,2.19629 -38.3018,0.83697 z m 26.7426,-41.78481 c 2.3673,-0.49531 6.6559,-2.05112 9.5304,-3.45738 4.2138,-2.06145 6.2429,-3.58246 10.4737,-7.85062 5.972,-6.02484 9.4482,-12.15536 11.718,-20.66545 1.8676,-7.00185 2.2919,-20.19455 0.8894,-27.65387 -3.3952,-18.05916 -13.8115,-30.70225 -29.2298,-35.47855 -3.997,-1.23824 -5.8403,-1.42289 -13.8344,-1.38596 -8.3172,0.0384 -9.6659,0.20024 -13.733,1.64749 -11.661,4.14949 -20.2884,12.53048 -25.0603,24.34471 -3.1856,7.88675 -3.6346,10.73649 -3.5997,22.84708 0.031,10.61849 0.1455,11.74155 1.7261,16.88593 2.9605,9.63484 7.6811,17.09701 14.3006,22.6059 3.8537,3.20689 11.7625,7.01875 16.8516,8.12192 5.2612,1.14048 14.6151,1.15864 19.9674,0.0388 z" />
</svg>
