<?xml version="1.0" encoding="UTF-8" standalone="no"?>
<svg id="GITHUBSVG" width="357.93671" height="348.68442" viewBox="0 0 357.9367 348.68442" version="1.1" xml:space="preserve" xmlns:xlink="http://www.w3.org/1999/xlink" xmlns="http://www.w3.org/2000/svg" xmlns:svg="http://www.w3.org/2000/svg">
   <defs id="GITHUBDEFS" />
      <g id="GITHUBG" transform="matrix(0.15589629,0,0,-0.15589629,-8.1066132,361.46611)">
         <path id="GITHUB1" style="fill:#000000;stroke:none" d="M 970,2301 C 665,2233 415,2064 243,1808 -58,1357 2,752 386,366 501,250 676,138 808,95 c 49,-16 55,-16 77,-1 24,16 25,20 25,135 v 118 l -88,-5 c -103,-5 -183,13 -231,54 -17,14 -50,62 -73,106 -38,74 -66,108 -144,177 -26,23 -27,24 -9,37 43,32 130,1 185,-65 96,-117 133,-148 188,-160 49,-10 94,-6 162,14 9,3 21,24 27,48 6,23 22,58 35,77 l 24,35 -81,16 c -170,35 -275,96 -344,200 -64,96 -85,179 -86,334 0,146 16,206 79,288 28,36 31,47 23,68 -15,36 -11,188 5,234 13,34 20,40 47,43 45,5 129,-24 214,-72 l 73,-42 64,15 c 91,21 364,20 446,0 l 62,-16 58,35 c 77,46 175,82 224,82 39,0 39,-1 55,-52 17,-59 20,-166 5,-217 -8,-30 -6,-39 16,-68 109,-144 121,-383 29,-579 -62,-129 -193,-219 -369,-252 l -84,-16 31,-55 32,-56 3,-223 4,-223 25,-16 c 23,-15 28,-15 76,2 80,27 217,101 292,158 446,334 590,933 343,1431 -145,293 -419,518 -733,602 -137,36 -395,44 -525,15 z" />
      </g>
</svg>
