<?xml version="1.0" encoding="UTF-8" standalone="no"?>
<svg id="HASLA" width="523.53009" height="465.22607" viewBox="0 0 523.53009 465.22608" version="1.1" xml:space="preserve" xmlns:xlink="http://www.w3.org/1999/xlink" xmlns="http://www.w3.org/2000/svg" xmlns:svg="http://www.w3.org/2000/svg">
   <defs id="HASLADEFS" />
	 <polygon id="HASLAP" style="fill:#000000;stroke:#000000" points="256,193.98999 309.70001,287 202.29999,287 " transform="matrix(1.4226361,0,0,1.4226361,-102.4298,-131.57899)" />
	 <path id="HASLA1" style="fill:#000000;stroke:#000000;stroke-width:1.42264" d="m 523.53008,232.61585 v 0 c 0,24.35696 -19.74476,44.10172 -44.10172,44.10172 H 327.2063 L 261.76504,144.39819 332.40035,22.058591 C 344.57811,0.9651705 371.54845,-6.2618195 392.64187,5.9145205 v 0 c 21.09485,12.1777605 28.32326,39.1495225 16.1455,60.2443705 L 338.15206,188.50844 h 141.26777 c 24.35695,0 44.10172,19.74477 44.10172,44.10172 z" />
	 <path id="HASLA2" style="fill:#000000;stroke:#000000;stroke-width:1.42264" d="m 392.65041,459.31149 v 0 c -21.09343,12.17634 -48.06376,4.94935 -60.24153,-16.14407 l -70.6353,-122.33817 -70.63531,122.33959 c -12.17776,21.092 -39.1481,28.31899 -60.24152,16.14265 v 0 c -21.09343,-12.17776 -28.32184,-39.15094 -16.14408,-60.24437 l 70.63388,-122.34955 76.39556,-2.84527 76.39556,2.84527 70.63388,122.34955 c 12.17919,21.09343 4.95078,48.06661 -16.14407,60.24437 z" />
	 <path id="HASLA3" style="fill:#000000;stroke:#000000;stroke-width:1.42264" d="m 261.76504,144.39819 -19.9169,54.0744 -56.47866,-9.95846 L 114.7356,66.164581 C 102.55784,45.069733 109.78625,18.097971 130.87968,5.9202105 v 0 c 21.09342,-12.17634 48.06376,-4.94935 60.24294,16.1440705 z" />
	 <path id="HASLA4" style="fill:#000000;stroke:#000000;stroke-width:1.42264" d="m 250.38395,188.51413 -51.2149,88.20344 H 44.10172 C 19.744768,276.71757 0,256.97281 0,232.61585 v 0 C 0,208.2589 19.744768,188.51413 44.10172,188.51413 Z" />
</svg>
