<?xml version="1.0" encoding="UTF-8" standalone="no"?>
<svg id="SEXLIKEREALSVG" width="1500.0033" height="190.48199" viewBox="0 0 1500.0033 190.48199" version="1.1" xml:space="preserve" xmlns:xlink="http://www.w3.org/1999/xlink" xmlns="http://www.w3.org/2000/svg" xmlns:svg="http://www.w3.org/2000/svg">
   <defs id="SEXLIKEREALDEFS" />
         <path id="SEXLIKEREAL1" style="fill:#000000;stroke:#000000;stroke-width:9.92094" d="m 1434.5091,137.90104 h 59.5257 l -7.9368,42.66002 H 1381.9282 L 1412.683,6.9446563 h 44.6443 z m -112.1066,43.65211 -2.9763,-24.80234 h -57.5414 l -11.9051,24.80234 h -48.6126 L 1288.6714,7.9367544 h 53.573 l 26.7865,173.6163956 z m -41.6678,-63.494 h 34.7232 l -5.9526,-59.525623 z m -68.4546,-69.446553 h -65.4781 l -3.9684,23.810248 h 59.5256 l -6.9447,40.675835 h -59.5256 l -4.9604,25.79444 h 66.4702 l -6.9446,41.66794 h -111.1146 l 30.755,-173.6164037 h 110.1224 z m -135.9169,21.82606 c -1.9841,10.913031 -5.9525,20.833969 -12.8971,28.770718 -5.9526,7.936745 -14.8814,14.881405 -24.8025,18.849775 l 23.8104,62.50191 h -44.6442 l -19.84194,-55.55725 h -18.84975 l -9.92093,55.55725 H 924.57295 L 955.32787,6.9446563 h 67.46233 c 16.8656,0 30.7549,5.9525587 41.668,17.8576857 11.905,13.889313 15.8734,27.778627 11.905,45.636315 z m -83.33578,-21.82606 -6.94466,38.691654 h 25.79444 c 4.9605,0 9.9209,-1.984188 13.8893,-4.96047 3.9684,-3.968374 5.9526,-7.936749 7.9367,-13.889312 0.9921,-5.95256 0,-10.91303 -2.9763,-13.889315 -2.9762,-3.968371 -6.9446,-4.960469 -12.8971,-4.960469 h -24.80238 z" />
         <path id="SEXLIKEREAL2" style="fill:#000000;stroke:#000000;stroke-width:9.92094" d="m 925.56505,48.612597 h -65.47819 l -4.96047,23.810248 h 59.52562 l -6.94466,41.667935 h -59.52563 l -4.96046,25.79444 h 66.47029 l -6.94466,41.66793 H 791.63238 L 822.3873,7.9367544 H 932.50971 Z M 808.49799,7.9367544 735.08305,94.248908 778.73518,181.55315 h -45.63632 l -39.68375,-79.36749 -13.88932,79.36749 H 634.88158 L 665.63648,7.9367544 h 44.64423 L 698.37558,78.375407 757.9012,7.9367544 Z m -209.33179,0 h 44.64423 L 613.05551,181.55315 H 568.4113 Z M 495.98845,137.90104 h 59.52563 l -7.93675,42.66002 H 444.39958 L 475.15448,6.9446563 H 519.7987 Z M 460.27308,7.9367544 394.79488,94.248908 431.50235,180.56106 H 382.88976 L 363.04788,134.92475 328.3246,180.56106 H 276.73573 L 344.19811,90.280532 308.48273,6.9446563 h 47.6205 L 373.96092,49.604685 406.70001,6.9446563 h 53.57307 z M 284.67248,48.612597 h -65.47819 l -4.96047,24.802341 h 59.52563 l -6.94466,40.675842 h -59.52562 l -3.96838,25.79444 h 66.47028 l -6.94465,41.66793 H 151.73192 L 182.48682,7.9367544 H 292.60923 Z M 73.356507,185.52153 c -18.849782,0 -33.731188,-3.96838 -44.644219,-10.91302 A 57.541438,57.541438 0 0 1 5.8941308,142.8615 L 45.577882,123.01962 c 3.968375,13.88931 14.881406,20.83397 31.746999,20.83397 13.889313,0 20.833969,-3.96837 22.818159,-11.90513 0.99209,-4.96047 -2.976283,-9.92094 -10.913033,-13.88931 A 79.3675,79.3675 0 0 0 71.372319,112.10659 C 54.506725,107.14612 43.593695,100.20147 35.656944,91.272626 27.720194,82.343781 25.736007,70.438657 27.720194,55.557253 30.696475,39.683753 37.641132,27.778627 50.53835,18.849784 62.443475,8.9288425 77.324881,4.9604702 94.190476,4.9604702 c 14.881404,0 26.786534,2.9762842 37.699564,9.9209408 10.91303,6.944647 17.85768,16.865588 22.81815,29.762813 L 117.00864,64.486096 C 112.04817,52.580969 103.11932,46.62841 91.214194,46.62841 c -9.920937,0 -15.8735,3.968373 -17.857687,10.913029 -0.992094,3.968372 0,7.936745 3.968374,9.920941 3.968376,2.976277 10.913033,5.952558 21.826063,9.920932 7.936756,2.976282 13.889306,4.960469 18.849776,6.944657 4.96047,1.984188 9.92095,5.952563 14.88142,9.920939 4.96047,3.968373 8.92885,9.920932 10.91303,16.865592 1.98418,6.94465 1.98418,14.88141 0,23.81025 -2.97629,15.87349 -10.91303,28.77071 -22.81816,37.69956 -11.90513,8.92884 -28.770723,12.89722 -47.620503,12.89722 z" />
</svg>