<?xml version="1.0" encoding="UTF-8" standalone="no"?>
<svg id="SEXLIKEREALSVG" width="1499.9485" height="181.99374" viewBox="0 0 1499.9485 181.99374" version="1.1" xml:space="preserve" xmlns:xlink="http://www.w3.org/1999/xlink" xmlns="http://www.w3.org/2000/svg" xmlns:svg="http://www.w3.org/2000/svg">
   <defs id="SEXLIKEREALDEFS" />
         <path id="SEXLIKEREAL1" style="fill:#000000;stroke:#000000;stroke-width:9.99966" d="m 1439.9505,133.99541 h 59.998 l -7.9997,42.99852 H 1386.9524 L 1417.9513,1.9999404 h 44.9985 z m -112.9961,43.99848 -2.9999,-24.99914 h -57.998 l -11.9996,24.99914 h -48.9983 l 87.997,-174.9939796 h 53.9981 l 26.9991,174.9939796 z m -41.9985,-63.9978 h 34.9988 l -5.9998,-59.997939 z m -68.9977,-69.997589 h -65.9977 l -3.9999,23.999174 h 59.998 l -6.9998,40.998585 h -59.9979 l -4.9998,25.99911 h 66.9976 l -6.9997,41.99856 h -111.9962 l 30.999,-174.9939896 h 110.9962 z m -136.9953,21.999242 c -1.9999,10.999623 -5.9998,20.99928 -12.9995,28.999005 -5.9998,7.999722 -14.9995,14.999482 -24.9992,18.999342 l 23.9992,62.99784 h -44.9984 l -19.99936,-55.99808 h -18.99932 l -9.99965,55.99808 H 925.96821 L 956.96715,1.9999404 h 67.99765 c 16.9994,0 30.9989,5.99979 41.9986,17.9993806 11.9995,13.99952 15.9994,27.99904 11.9995,45.998422 z M 994.96584,43.998501 987.96608,82.99716 h 25.99912 c 4.9998,0 9.9996,-1.999932 13.9995,-4.999829 3.9999,-3.999862 5.9998,-7.999725 7.9997,-13.999519 1,-5.999791 0,-10.999621 -2.9999,-13.999521 -2.9999,-3.99986 -6.9997,-4.99983 -12.9995,-4.99983 h -24.99916 z" />
         <path id="SEXLIKEREAL2" style="fill:#000000;stroke:#000000;stroke-width:9.99966" d="m 926.96818,43.998501 h -65.99774 l -4.99983,23.999174 h 59.99794 l -6.99976,41.998555 h -59.99794 l -4.99982,25.99911 h 66.9977 l -6.99976,41.99855 H 791.97281 L 822.97175,2.9999104 H 933.96794 Z M 808.97223,2.9999104 734.97477,89.99692 778.97326,177.99389 H 732.97484 L 692.97621,97.996645 678.97669,177.99389 H 633.97824 L 664.97717,2.9999104 h 44.99846 L 697.97604,73.997469 757.97398,2.9999104 Z m -210.99276,0 h 44.99846 L 611.97899,177.99389 H 566.98054 Z M 493.98304,133.99541 h 59.99794 l -7.99972,42.99852 H 441.98483 L 472.98376,1.9999404 h 44.99846 z M 457.98428,2.9999104 391.98654,89.99692 l 36.99873,86.99701 h -48.99831 l -19.99932,-45.99842 -34.9988,45.99842 H 272.99063 L 340.9883,85.997057 304.98953,1.9999404 h 47.99835 L 370.98727,44.998461 403.98613,1.9999404 h 53.99815 z M 280.99036,43.998501 h -65.99774 l -4.99983,24.999139 h 59.99794 l -6.99976,40.99859 h -59.99794 l -3.99986,25.99911 h 66.9977 l -6.99976,41.99855 H 146.99496 L 177.99389,2.9999104 H 288.99008 Z M 67.997666,181.99376 c -18.999348,0 -33.998833,-3.99987 -44.998455,-10.99962 A 57.998009,57.998009 0 0 1 0,138.99523 l 39.998627,-19.99931 c 3.999863,13.99952 14.999485,20.99928 31.998901,20.99928 13.99952,0 20.999279,-3.99986 22.999211,-11.99959 0.999965,-4.99983 -2.999897,-9.99966 -10.999623,-13.99952 A 79.997253,79.997253 0 0 0 65.997734,107.9963 C 48.998318,102.99647 37.998696,95.996714 29.99897,86.997023 21.999245,77.997331 19.999314,65.997743 21.999245,50.998261 24.999142,34.998811 31.998902,22.999221 44.998455,13.999531 56.998043,3.9998704 71.997528,1.0455065e-5 88.996945,1.0455065e-5 c 14.999485,0 26.999075,2.999899944935 37.998695,9.999659944935 10.99962,6.9997506 17.99938,16.9994106 22.99921,29.9989706 l -37.99869,19.99931 c -4.99983,-11.99959 -13.999524,-17.99938 -25.999112,-17.99938 -9.999657,0 -15.999451,3.99986 -17.999382,10.99962 -0.999966,3.99986 0,7.99972 3.999862,9.99966 3.999863,2.999892 10.999623,5.999789 21.999245,9.999652 7.999727,2.999897 13.999517,4.999828 18.999347,6.99976 4.99983,1.999931 9.99966,5.999794 14.99949,9.999657 4.99983,3.999862 8.99969,9.999655 10.99962,16.99941 1.99993,6.99976 1.99993,14.99949 0,23.99918 -2.9999,15.99945 -10.99962,28.999 -22.99921,37.99869 -11.99959,8.99969 -28.999007,12.99956 -47.998354,12.99956 z" />
</svg>
