<svg id="1MINUTE" width="500" height="130" viewBox="0 0 500 130" version="1.1" xml:space="preserve" xmlns:xlink="http://www.w3.org/1999/xlink" xmlns="http://www.w3.org/2000/svg" xmlns:svg="http://www.w3.org/2000/svg">
	<path id="000000013420" style="fill:#000000;stroke:#000000;stroke-width:0" d="M 0,64.999991 V 0 H 2.4999998 4.9999996 V 64.999991 130 H 2.4999998 0 Z m 9.9999992,0 V 0 h 2.9166538 2.916653 V 64.999991 130 H 12.916653 9.9999992 Z m 21.6666908,0 V 0 h 5 5 V 64.999991 130 h -5 -5 z m 15.833346,0 V 0 h 2.499999 2.5 V 64.999991 130 h -2.5 -2.499999 z m 20.833305,0 V 0 h 5.416693 5.416653 V 64.999991 130 h -5.416653 -5.416693 z m 15.833345,0 V 0 h 2.5 2.5 V 64.999991 130 h -2.5 -2.5 z m 20.833344,0 V 0 h 5.41665 5.41666 V 64.999991 130 h -5.41666 -5.41665 z m 15.83331,0 V 0 h 2.91669 2.91665 V 64.999991 130 h -2.91665 -2.91669 z m 20.83334,0 V 0 h 5.41665 5.4167 V 64.999991 130 h -5.4167 -5.41665 z m 15.83335,0 V 0 h 2.91665 2.91665 V 64.999991 130 h -2.91665 -2.91665 z m 21.66665,0 V 0 h 5 5 V 64.999991 130 h -5 -5 z m 15,0 V 0 h 2.91665 2.91669 V 64.999991 130 h -2.91669 -2.91665 z m 21.66665,0 V 0 h 5 5 V 64.999991 130 h -5 -5 z m 15.83334,0 V 0 h 2.5 2.5 V 64.999991 130 h -2.5 -2.5 z m 10,0 V 0 h 2.9167 2.91665 V 64.999991 130 h -2.91665 -2.9167 z m 10.83335,0 V 0 h 2.5 2.5 V 64.999991 130 h -2.5 -2.5 z m 10.83335,0 V 0 h 7.91665 7.91665 V 64.999991 130 h -7.91665 -7.91665 z m 25.8333,0 V 0 h 2.91669 2.91666 V 64.999991 130 h -2.91666 -2.91669 z m 10.83335,0 V 0 h 5.41665 5.41669 V 64.999991 130 h -5.41669 -5.41665 z m 20.83334,0 V 0 h 5.41665 5.41666 V 64.999991 130 h -5.41666 -5.41665 z m 15.83331,0 V 0 h 2.5 2.5 V 64.999991 130 h -2.5 -2.5 z m 26.66669,0 V 0 h 2.5 2.5 V 64.999991 130 h -2.5 -2.5 z m 10,0 V 0 h 2.91665 2.91665 V 64.999991 130 h -2.91665 -2.91665 z m 10.8333,0 V 0 h 7.91669 7.91666 V 64.999991 130 h -7.91666 -7.91669 z m 25.83335,0 V 0 h 5.41665 5.41669 V 64.999991 130 h -5.41669 -5.41665 z m 15.83334,0 V 0 h 5.41666 5.41665 V 64.999991 130 h -5.41665 -5.41666 z m 21.66665,0 V 0 h 7.91666 7.91669 V 64.999991 130 H 455.41666 447.5 Z m 25.83335,0 V 0 h 2.91665 2.91666 V 64.999991 130 H 476.25 473.33335 Z m 10.8333,0 V 0 h 2.5 2.5 V 64.999991 130 h -2.5 -2.5 z m 10,0 V 0 h 2.9167 H 500 V 64.999991 130 h -2.91665 -2.9167 z" />
</svg>