<svg id="50STYLE" width="500" height="130" viewBox="0 0 500 130" version="1.1" xml:space="preserve" xmlns:xlink="http://www.w3.org/1999/xlink" xmlns="http://www.w3.org/2000/svg" xmlns:svg="http://www.w3.org/2000/svg">
	<path id="534868907925680" style="fill:#000000;stroke:#000000;stroke-width:0" d="m 490.09906,0 h 9.901 v 130 h -9.901 z m -9.901,0 h 4.9505 v 130 h -4.9505 z m -19.802,0 h 14.8515 v 130 h -14.8515 z m -24.7524,0 h 9.9009 v 130 h -9.9009 z m -19.802,0 h 9.9009 v 130 h -9.9009 z m -19.8021,0 h 4.9505 v 130 h -4.9505 z m -14.8516,0 h 4.9505 v 130 h -4.9505 z m -9.9009,0 h 4.9505 v 130 h -4.9505 z m -19.802,0 h 4.9505 v 130 h -4.9505 z m -24.7525,0 h 9.901 v 130 h -9.901 z m -14.8514,0 h 9.901 v 130 h -9.901 z m -19.802,0 h 4.9505 v 130 h -4.9505 z m -19.802,0 h 4.95049 v 130 h -4.95049 z m -14.85144,0 h 9.90099 v 130 h -9.90099 z m -19.802,0 h 4.95049 v 130 h -4.95049 z m -19.80195,0 h 14.85149 v 130 h -14.85149 z m -19.802,0 h 14.85149 v 130 h -14.85149 z m -9.901,0 h 4.9505 v 130 h -4.9505 z m -24.75244,0 h 9.90099 v 130 h -9.90099 z m -9.901,0 h 4.95049 v 130 h -4.95049 z m -29.703,0 h 14.85148 v 130 h -14.85148 z m -14.85144,0 h 9.90098 v 130 h -9.90098 z M 94.05938,0 h 9.90099 v 130 h -9.90099 z m -19.802,0 h 4.9505 v 130 h -4.9505 z M 54.45544,0 h 4.9505 v 130 h -4.9505 z m -24.7525,0 h 4.95049 V 130 H 29.70294 Z M 14.8515,0 h 4.95049 V 130 H 14.8515 Z M 0,0 H 9.90099 V 130 H 0 Z" />
</svg>