<svg id="ACTION" width="500" height="500" viewBox="0 0 500 500" version="1.1" xml:space="preserve" xmlns:xlink="http://www.w3.org/1999/xlink" xmlns="http://www.w3.org/2000/svg" xmlns:svg="http://www.w3.org/2000/svg">
	<path id="L2164848293272" style="fill:#000000;stroke:#000000;stroke-width:0" d="M 0,417.33467 V 334.66933 H 85.5 171 V 417.33467 500 H 85.5 0 Z m 143,2.50501 V 362.72546 H 86 29 v 57.11422 57.11423 h 57 57 z m -95,0.501 v -38.57716 h 38 38 v 38.57716 38.57715 H 86 48 Z m 142,32.56513 v -47.09419 h 24 24 v -12.02404 -12.02406 h 11.5 11.5 v -12.02404 -12.02405 h 24 24 v -23.5471 -23.54709 h 12 12 v -9.51904 -9.51903 H 312.00001 291 v 12.02404 12.02406 H 267.5 244 v 23.54709 23.5471 H 229 214 V 351.2024 339.67936 H 202 190 V 327.65531 315.63127 H 166.5 143 V 303.60721 291.58317 H 131 119 V 279.55912 267.53507 H 97.5 76 v 12.02405 12.02405 H 64.5 53 v 12.02404 12.02406 H 26.5 0 V 288.57716 261.52304 H 14.5 29 v 12.52506 12.52504 H 38.5 48 V 265.53107 244.48898 H 35.5 23 V 232.46493 220.44088 H 11.5 0 v -15.03005 -15.03005 h 50 50 v 24.54908 24.5491 h 47.5 47.5 v 14.02805 14.02806 H 171.5 148 v 9.51904 9.51903 h 33 33 V 274.0481 261.52304 h 12 12 v -8.51703 -8.51703 h -12 -12 v -12.02405 -12.02405 h -12 -12 v -15.03005 -15.03005 h 12 12 v -9.01805 -9.01803 h -12 -12 v -14.52906 -14.52905 h 14.5 14.5 v 11.52304 11.52305 h 9.5 9.5 v -11.52305 -11.52304 h 14 14 v 38.57714 38.57715 h -11 -11 v 9.51904 9.51904 h 11 11 v 14.02805 14.02806 h -11 -11 v 9.51904 9.51903 H 264.5 285 V 250.501 214.42886 h 12 12 v -12.02404 -12.02404 h 15 15 v 15.03005 15.03005 h -12 -12 v 9.51904 9.51904 h 23.5 23.50001 V 250.501 261.52304 H 374 386 v 24.5491 24.5491 h 12 12 v 26.0521 26.05212 h -12 -12 v 12.02404 12.02404 H 362.5 339 v 12.52506 12.52504 H 324 309 V 399.2986 386.77354 h -9 -9 v 12.52506 12.52504 H 267.5 244 v 12.02406 12.02404 H 231.5 219 v 8.51704 8.51703 h 21 21 v -11.52304 -11.52305 h 15 15 v 11.52305 11.52304 h 12 12 v 12.02405 12.02405 h 9 9 v -12.02405 -12.02405 h 23.5 23.5 v -11.52304 -11.52305 h 12 12 v -24.0481 -24.0481 h 12 12 v -23.54709 -23.5471 h 11.5 11.5 v -12.02404 -12.02405 h 12 12 V 277.55511 244.48898 H 454.5 434 v 23.54709 23.5471 h -15 -15 v -26.0521 -26.05211 h 12 12 v -9.51904 -9.51904 h -24 -24 v -15.03005 -15.03005 h 38.5 38.5 v 12.02404 12.02404 h 9 9 v -12.02404 -12.02404 h 12.5 12.5 v 62.62523 62.62526 h -9.5 -9.5 v 21.04207 21.04209 h 9.5 9.5 v 27.05411 27.0541 h -9.5 -9.5 v 12.02406 12.02404 H 457.5 434 v 23.54709 23.5471 H 422 410 V 491.48297 500 h -27 -27 v -8.51703 -8.51704 H 347.5 339 V 491.48297 500 h -39 -39 v -8.51703 -8.51704 H 240 219 V 491.48297 500 H 204.5 190 Z m 214,15.03006 v -9.01804 h -9 -9 v 9.01804 9.01804 h 9 9 z M 356,348.6974 v -9.01804 h -8.5 -8.5 v 9.01804 9.01803 h 8.5 8.5 z m 24,-23.5471 v -9.51903 h -9 -8.99999 v 9.51903 9.51903 H 371 380 Z M 238,301.1022 v -9.51903 h -9.5 -9.5 v 9.51903 9.51904 h 9.5 9.5 z m 118,-24.04809 v -9.51904 h -8.5 -8.5 v 9.51904 9.51903 h 8.5 8.5 z M 70,229.95992 v -9.51904 H 61.5 53 v 9.51904 9.51904 h 8.5 8.5 z m 168,-24.54909 v -9.01803 h -9.5 -9.5 v 9.01803 9.01803 h 9.5 9.5 z m 213,283.06613 v -11.52305 h 15 15 V 488.47696 500 H 466 451 Z M 143,205.41083 v -15.03005 h 14 14 v 15.03005 15.03005 H 157 143 Z M 0,86.172348 V 0 H 85.5 171 V 86.172348 172.3447 H 85.5 0 Z m 143,0.501003 V 30.060124 H 86 29 v 56.613227 56.613239 h 57 57 z m -95,0 V 48.096196 h 38 38 V 86.673351 125.25051 H 86 48 Z m 237,71.142289 v -14.52905 h 15 15 v 14.52905 14.52906 H 300 285 Z M 333,86.172348 V 0 H 416.5 500 V 86.172348 172.3447 H 416.5 333 Z m 142,0.501003 V 30.060124 H 418.5 362.00001 V 86.673351 143.28659 H 418.5 475 Z m -95,0 V 48.096196 H 418.5 457 V 86.673351 125.25051 H 418.5 380 Z m -190,0 V 48.096196 h 12 12 V 39.078161 30.060124 H 202 190 V 15.030064 0 h 27 27 v 24.048101 24.048095 h 11 11 v 11.523047 11.523045 h 9.5 9.5 V 35.571146 0 h 15 15 V 38.577158 77.154313 H 303 291 V 89.178361 101.20241 H 278.5 266 v 12.02406 12.02404 h -38 -38 z m 71,-0.501003 V 77.154313 H 249.5 238 V 65.631266 54.108221 h -9.5 -9.5 v 20.541082 20.541081 h 21 21 z" />
</svg>