<svg id="AKPOLBABY" width="500" height="130" viewBox="0 0 500 130" version="1.1" xml:space="preserve" xmlns:xlink="http://www.w3.org/1999/xlink" xmlns="http://www.w3.org/2000/svg" xmlns:svg="http://www.w3.org/2000/svg">
	<path id="01345285" style="fill:#000000;stroke:#000000;stroke-width:0" d="M 492.53731,0 H 500 v 130 h -7.46269 z m -14.92537,0 h 7.46269 v 130 h -7.46269 z m -29.85075,0 h 22.38806 v 130 h -22.38806 z m -22.38806,0 h 7.46269 v 130 h -7.46269 z m -29.85074,0 h 7.46268 v 130 h -7.46268 z m -22.38806,0 h 7.46268 v 130 h -7.46268 z m -29.85075,0 h 14.92538 v 130 h -14.92538 z m -22.38806,0 h 14.92538 v 130 h -14.92538 z m -29.85074,0 h 22.38806 v 130 h -22.38806 z m -22.38806,0 h 7.46268 v 130 h -7.46268 z m -14.92538,0 h 7.46269 v 130 h -7.46269 z m -14.92537,0 h 7.46269 v 130 h -7.46269 z m -22.38806,0 h 14.92537 v 130 h -14.92537 z m -29.85075,0 h 7.46269 v 130 h -7.46269 z m -14.92537,0 h 7.46269 v 130 h -7.46269 z m -37.31343,0 h 29.85074 v 130 h -29.85074 z m -14.92537,0 h 7.46268 v 130 h -7.46268 z M 89.552239,0 H 104.47761 V 130 H 89.552239 Z m -22.38806,0 h 7.462687 V 130 H 67.164179 Z M 44.776119,0 H 59.701493 V 130 H 44.776119 Z M 14.925373,0 H 22.38806 V 130 H 14.925373 Z M 0,0 H 7.4626866 V 130 H 0 Z" />
</svg>