<svg id="AMIC" width="500" height="130" viewBox="0 0 500 130" version="1.1" xml:space="preserve" xmlns:xlink="http://www.w3.org/1999/xlink" xmlns="http://www.w3.org/2000/svg" xmlns:svg="http://www.w3.org/2000/svg">
	<path id="7083374001111468521" style="fill:#000000;stroke:#000000;stroke-width:0" d="m 493.58975,0 h 6.41026 v 130 h -6.41026 z m -6.41028,0 h 3.20513 v 130 h -3.20513 z m -12.82049,0 h 9.61538 v 130 h -9.61538 z m -16.02564,0 h 6.41026 v 130 h -6.41026 z m -16.02566,0 h 6.41025 v 130 h -6.41025 z m -9.61536,0 h 3.20513 v 130 h -3.20513 z m -9.61539,0 h 3.20513 v 130 h -3.20513 z m -9.61538,0 h 6.41025 v 130 h -6.41025 z m -16.02567,0 h 9.61539 v 130 h -9.61539 z m -9.61535,0 h 3.20512 v 130 h -3.20512 z m -16.02567,0 h 12.82051 v 130 h -12.82051 z m -6.41025,0 h 3.20513 v 130 h -3.20513 z m -12.82049,0 h 9.61538 v 130 h -9.61538 z m -6.41028,0 h 3.20513 v 130 h -3.20513 z m -19.23077,0 h 9.61538 v 130 h -9.61538 z m -9.61539,0 h 6.41025 v 130 h -6.41025 z m -9.61536,0 h 6.41026 v 130 h -6.41026 z m -9.61539,0 h 3.20513 v 130 h -3.20513 z m -16.02566,0 h 3.20513 v 130 h -3.20513 z m -12.8205,0 h 9.61539 v 130 h -9.61539 z m -12.82051,0 h 6.41026 v 130 h -6.41026 z m -9.61538,0 H 250 v 130 h -3.20512 z m -9.61539,0 h 3.20513 v 130 h -3.20513 z m -9.61539,0 h 3.20513 v 130 h -3.20513 z m -16.02563,0 h 6.41025 v 130 h -6.41025 z m -12.82053,0 h 6.41026 v 130 h -6.41026 z m -9.61537,0 h 6.41026 v 130 h -6.41026 z m -12.82051,0 h 6.41026 v 130 h -6.41026 z m -12.82053,0 h 3.20513 v 130 h -3.20513 z m -6.41025,0 h 3.20513 v 130 h -3.20513 z m -16.02565,0 h 6.41026 v 130 h -6.41026 z m -12.8205,0 h 3.20513 v 130 h -3.20513 z m -9.61539,0 h 6.41025 v 130 h -6.41025 z m -12.82051,0 h 3.20513 v 130 h -3.20513 z m -9.615383,0 h 3.205128 V 130 H 96.153847 Z M 76.92308,0 H 89.743593 V 130 H 76.92308 Z m -6.410259,0 h 3.205128 v 130 h -3.205128 z m -9.615387,0 h 3.205128 V 130 H 60.897434 Z M 41.666666,0 h 6.410256 v 130 h -6.410256 z m -6.410255,0 h 3.205128 V 130 H 35.256411 Z M 19.230769,0 h 9.615385 V 130 H 19.230769 Z M 9.6153846,0 H 12.820513 V 130 H 9.6153846 Z M 0,0 H 6.4102564 V 130 H 0 Z" />
</svg>