<svg id="APART" width="500" height="130" viewBox="0 0 500 130" version="1.1" xml:space="preserve" xmlns:xlink="http://www.w3.org/1999/xlink" xmlns="http://www.w3.org/2000/svg" xmlns:svg="http://www.w3.org/2000/svg">
	<path id="5200001085043" style="fill:#000000;stroke:#000000;stroke-width:0" d="M 494.73684,0 H 500 v 130 h -5.26316 z m -10.52631,0 h 5.26315 v 130 h -5.26315 z m -10.52632,0 h 5.26316 v 130 h -5.26316 z m -26.31579,0 h 5.26316 v 130 h -5.26316 z m -26.31579,0 h 15.78948 v 130 h -15.78948 z m -10.52631,0 h 5.26315 v 130 h -5.26315 z M 400,0 h 5.26316 V 130 H 400 Z m -26.31579,0 h 15.78947 v 130 h -15.78947 z m -21.05263,0 h 15.78947 v 130 h -15.78947 z m -15.78947,0 h 5.26315 v 130 h -5.26315 z m -21.05264,0 h 5.26316 v 130 h -5.26316 z M 300,0 h 5.26316 V 130 H 300 Z m -10.52632,0 h 5.26316 v 130 h -5.26316 z m -26.31579,0 h 15.78948 v 130 h -15.78948 z m -10.52631,0 h 5.26316 v 130 h -5.26316 z m -10.52632,0 h 5.26316 v 130 h -5.26316 z m -15.78947,0 h 10.52632 v 130 h -10.52632 z m -21.05263,0 h 10.52631 V 130 H 205.26316 Z M 194.73684,0 H 200 v 130 h -5.26316 z m -15.78947,0 h 10.52631 v 130 h -10.52631 z m -21.05263,0 h 5.26315 v 130 h -5.26315 z m -15.78948,0 h 10.52632 v 130 h -10.52632 z m -31.57894,0 h 15.78947 V 130 H 110.52632 Z M 94.73684,0 H 100 V 130 H 94.73684 Z M 73.68421,0 H 89.47368 V 130 H 73.68421 Z M 57.89474,0 h 5.26315 V 130 H 57.89474 Z M 42.10526,0 H 52.63158 V 130 H 42.10526 Z M 26.31579,0 h 5.26316 V 130 H 26.31579 Z M 10.52632,0 h 5.26315 V 130 H 10.52632 Z M 0,0 H 5.26316 V 130 H 0 Z" />
</svg>