<svg id="AUCHAN" width="500" height="130" viewBox="0 0 500 130" version="1.1" xml:space="preserve" xmlns:xlink="http://www.w3.org/1999/xlink" xmlns="http://www.w3.org/2000/svg" xmlns:svg="http://www.w3.org/2000/svg">
	<path id="0410050249890" style="fill:#000000;stroke:#000000;stroke-width:0" d="M 495.2848,0 H 500 v 130 h -4.7152 z m -9.43041,0 h 4.7152 v 130 h -4.7152 z m -10.56206,0 h 5.28102 v 129.99995 h -5.28102 z m -26.40514,0 h 15.84309 v 129.99995 h -15.84309 z m -15.84307,0 h 5.28103 v 129.99995 h -5.28103 z m -21.1241,0 h 15.84307 v 129.99995 h -15.84307 z m -21.12411,0 h 5.28103 v 129.99995 h -5.28103 z m -15.84307,0 h 5.28102 v 129.99995 h -5.28102 z m -15.84309,0 h 5.28103 v 129.99995 h -5.28103 z m -21.1241,0 h 15.84309 v 129.99995 h -15.84309 z m -26.40513,0 h 15.84308 v 129.99995 h -15.84308 z m -10.56205,0 h 5.28103 v 129.99995 h -5.28103 z m -21.1241,0 h 10.56205 v 129.99995 h -10.56205 z m -15.84308,0 h 10.56205 v 129.99995 h -10.56205 z m -11.69368,0 h 4.71521 v 130 h -4.71521 z m -9.4304,0 h 4.7152 v 130 h -4.7152 z m -10.56207,0 h 5.28103 v 129.99995 h -5.28103 z m -15.84309,0 h 10.56206 v 129.99995 h -10.56206 z m -21.1241,0 h 5.28103 v 129.99995 h -5.28103 z m -26.40512,0 h 10.56204 v 129.99995 h -10.56204 z m -10.56206,0 h 5.28103 v 129.99995 h -5.28103 z M 142.5877,0 h 10.56204 V 129.99995 H 142.5877 Z m -21.12411,0 h 5.28102 v 129.99995 h -5.28102 z m -15.84308,0 h 10.56206 V 129.99995 H 105.62051 Z M 84.496413,0 h 5.281016 V 129.99995 H 84.496413 Z M 63.372301,0 H 73.934357 V 129.99995 H 63.372301 Z m -21.1241,0 H 52.810257 V 129.99995 H 42.248201 Z M 21.1241,0 h 5.281017 V 129.99995 H 21.1241 Z M 9.4304072,0 H 14.145611 V 130 H 9.4304072 Z M 0,0 H 4.7152036 V 130 H 0 Z" />
</svg>