<svg id="BAFRAKEBAB" width="500" height="500" viewBox="0 0 500 500" version="1.1" xml:space="preserve" xmlns:xlink="http://www.w3.org/1999/xlink" xmlns="http://www.w3.org/2000/svg" xmlns:svg="http://www.w3.org/2000/svg">
	<path id="D95816813284" style="fill:#000000;stroke:#000000;stroke-width:0" d="M 0,416.66669 V 333.33337 H 83.333274 166.66661 V 416.66669 500 H 83.333274 0 Z m 142.85708,0 V 357.14333 H 83.333274 23.809473 v 59.52383 59.52383 h 59.523801 59.523806 z m -95.238075,0 V 380.9524 h 35.714269 35.714266 v 35.71429 35.71428 H 83.333274 47.619005 Z m 142.857075,59.52383 v -23.80955 h 23.80953 23.80954 V 416.66669 380.9524 h -11.90474 -11.9048 v -11.90474 -11.9048 h -11.90473 -11.9048 v -23.80949 -23.80954 h -23.80947 -23.80953 v -11.90474 -11.9048 H 119.04754 95.23807 v 11.9048 11.90474 H 83.333274 71.428538 v -11.90474 -11.9048 H 59.523801 47.619005 v 11.9048 11.90474 H 35.714269 23.809532 V 285.71429 261.9048 H 11.904737 0 v -35.71428 -35.71429 h 23.809532 23.809473 v 11.90474 11.90474 H 59.523801 71.428538 V 202.38097 190.47623 H 83.333274 95.23807 v 11.90474 11.90474 h 11.90474 11.90473 v 11.90481 11.90474 h 23.80954 23.80953 v -11.90474 -11.90481 h -11.9048 -11.90473 v -11.90474 -11.90474 h 23.80953 23.80947 V 142.85714 95.238115 h 11.9048 11.90473 V 83.333373 71.428571 h -11.90473 -11.9048 V 47.619087 23.809544 h 11.9048 11.90473 V 11.904801 0 h 11.9048 11.90474 v 47.619087 47.619028 h -11.90474 -11.9048 v 35.714285 35.71429 h 11.9048 11.90474 v -11.90475 -11.9048 h 11.90479 11.90474 V 130.9524 119.04766 h 11.90473 11.9048 v -11.9048 -11.904745 h -11.9048 -11.90473 V 83.333373 71.428571 h 11.90473 11.9048 V 59.523829 47.619087 h -11.9048 -11.90473 V 23.809544 0 h 23.80953 23.80947 v 11.904801 11.904743 h -11.90473 -11.90474 v 11.904742 11.904801 h 11.90474 11.90473 v 11.904742 11.904742 h -11.90473 -11.90474 v 11.904802 11.904742 h 11.90474 11.90473 v 47.619025 47.61909 h -23.80947 -23.80953 v 11.90474 11.90474 h -11.90474 -11.90479 v 11.90481 11.90474 h 11.90479 11.90474 V 250 261.9048 h 11.90473 11.9048 V 250 238.09526 h 11.90474 11.90473 V 250 261.9048 h 11.9048 11.90473 v -35.71428 -35.71429 h 35.71427 35.71427 v 11.90474 11.90474 h 11.90474 11.90479 v -11.90474 -11.90474 h 23.80948 23.80953 v 11.90474 11.90474 h 11.90474 11.90479 v 59.52383 59.52383 h -11.90479 -11.90474 v -11.9048 -11.90474 h -23.80953 -23.80948 v 35.71428 35.71429 h 11.90474 11.90474 v -11.90474 -11.9048 h 23.80953 23.80953 v 59.52383 59.52383 H 488.09503 476.19029 V 452.38097 428.57143 H 464.28555 452.38076 V 464.28571 500 h -23.80948 -23.80953 v -11.90474 -11.90474 h 11.90474 11.90479 v -23.80955 -23.80954 h -11.90479 -11.90474 v 11.9048 11.90474 h -23.80953 -23.80947 v 11.90474 11.90481 H 333.33321 309.52368 V 488.09526 500 H 285.71421 261.90468 V 488.09526 476.19052 H 238.09515 214.28561 V 488.09526 500 h -11.90473 -11.9048 z m 119.0476,-11.90481 v -11.90474 h 23.80953 23.80954 v -23.80954 -23.80949 h 11.90473 11.90474 v 11.90475 11.90474 h 11.9048 11.90473 v -11.90474 -11.90475 h 11.90474 11.90479 v -11.9048 -11.90474 h -11.90479 -11.90474 v -23.80954 -23.80949 h -23.80953 -23.80947 v -11.9048 -11.90474 h 23.80947 23.80953 V 273.80954 238.09526 H 380.95222 357.14275 V 250 261.9048 h -11.9048 -11.90474 v 11.90474 11.90475 h -11.90473 -11.9048 V 273.80954 261.9048 h -11.90473 -11.90474 v 11.90474 11.90475 h -11.9048 -11.90473 v 11.9048 11.90474 h 11.90473 11.9048 v 11.90474 11.9048 h -23.80953 -23.80953 v -23.80954 -23.80954 h -11.90474 -11.9048 V 273.80954 261.9048 h 11.9048 11.90474 V 250 238.09526 h -11.90474 -11.9048 v -23.80955 -23.80948 h -11.90473 -11.9048 v 23.80948 23.80955 H 178.57134 166.66661 V 250 261.9048 h -11.9048 -11.90473 v 11.90474 11.90475 h 23.80953 23.80947 v 11.9048 11.90474 h 11.9048 11.90473 v 11.90474 11.9048 h 11.9048 11.90474 v 11.90474 11.90475 h 47.61906 47.619 v 11.9048 11.90474 h 11.90474 11.9048 v 11.90474 11.9048 h -23.80954 -23.80953 v -11.9048 -11.90474 h -11.90473 -11.90474 v 23.80954 23.80949 h -11.9048 -11.90473 v 23.80954 23.80955 h 23.80953 23.80947 z m -23.80947,-23.80948 v -11.9048 h 11.90474 11.90473 v 11.9048 11.90474 h -11.90473 -11.90474 z m 95.23801,-47.61909 V 380.9524 h -11.90474 -11.90473 v -11.90474 -11.9048 h 11.90473 11.90474 v 11.9048 11.90474 h 11.9048 11.90473 v 11.90474 11.9048 h -11.90473 -11.9048 z m -95.23801,-95.23805 v -11.9048 h 11.90474 11.90473 v 11.9048 11.90474 h -11.90473 -11.90474 z m 47.619,0 v -11.9048 h 11.90474 11.9048 v 11.9048 11.90474 h -11.9048 -11.90474 z M 190.47608,250 v -11.90474 h 11.9048 11.90473 V 250 261.9048 h -11.90473 -11.9048 z M 476.19029,392.85714 V 380.9524 h -11.90474 -11.90479 v 11.90474 11.9048 h 11.90479 11.90474 z M 95.238011,273.81002 V 261.90527 H 83.333274 71.428538 v -11.9048 -11.90474 H 59.523742 47.619005 v -11.90474 -11.9048 H 35.714269 23.809473 v 23.80954 23.80954 h 23.809532 23.809533 v 11.90475 11.90474 h 11.904736 11.904737 z m 380.952219,0 V 261.90527 H 464.28549 452.3807 v 11.90475 11.90474 h 11.90479 11.90474 z M 452.3807,226.19099 v -11.9048 h -11.90474 -11.90473 v 11.9048 11.90474 h 11.90473 11.90474 z M 285.71415,154.76242 v -11.9048 h -11.9048 -11.90473 v 11.9048 11.90474 h 11.90473 11.9048 z m -95.23807,261.90474 v -11.90474 h 11.9048 11.90473 v 11.90474 11.90474 h -11.90473 -11.9048 z M 2.3681239e-4,83.333846 V 4.7362501e-4 H 83.333511 166.66679 V 83.333846 166.66716 H 83.333511 2.3681239e-4 Z m 142.85707318761,0 V 23.810017 H 83.333511 23.80971 v 59.523829 59.523774 h 59.523801 59.523799 z m -95.238068,0 V 47.619561 H 83.333511 119.04778 V 83.333846 119.04813 H 83.333511 47.619242 Z m 285.714148,0 V 4.7362501e-4 H 416.66667 500 V 83.333846 166.66716 h -83.33333 -83.33328 z m 142.85708,0 V 23.810017 h -59.5238 -59.52375 v 59.523829 59.523774 h 59.52375 59.5238 z m -95.23807,0 V 47.619561 h 35.71427 35.71427 V 83.333846 119.04813 H 416.66667 380.9524 Z" />
</svg>