<svg id="BENGAL" width="500" height="130" viewBox="0 0 500 130" version="1.1" xml:space="preserve" xmlns:xlink="http://www.w3.org/1999/xlink" xmlns="http://www.w3.org/2000/svg" xmlns:svg="http://www.w3.org/2000/svg">
	<path id="7777070159" style="fill:#000000;stroke:#000000;stroke-width:0" d="M 488.88889,0 H 500 v 130 h -11.11111 z m -11.11111,0 h 5.55555 v 130 h -5.55555 z m -22.22223,0 h 16.66667 v 130 h -16.66667 z m -27.77777,0 h 11.11111 v 130 h -11.11111 z m -11.11112,0 h 5.55556 v 130 h -5.55556 z M 388.88889,0 H 400 v 130 h -11.11111 z m -22.22223,0 h 5.55556 v 130 h -5.55556 z m -11.11111,0 h 5.55556 v 130 h -5.55556 z M 338.88888,0 H 350 v 130 h -11.11112 z m -33.33333,0 h 16.66667 v 130 h -16.66667 z m -22.22222,0 h 11.11111 v 130 h -11.11111 z m -16.66667,0 h 11.11111 v 130 h -11.11111 z m -22.22222,0 h 11.11111 v 130 h -11.11111 z m -16.66667,0 h 5.55556 v 130 h -5.55556 z m -27.77778,0 h 11.11111 v 130 h -11.11111 z m -16.66667,0 h 5.55556 v 130 h -5.55556 z m -11.11111,0 h 5.55556 v 130 h -5.55556 z m -22.22222,0 h 16.66667 v 130 h -16.66667 z m -27.77778,0 h 22.22222 V 130 H 122.22221 Z M 111.1111,0 h 5.55556 V 130 H 111.1111 Z M 88.888877,0 H 105.55554 V 130 H 88.888877 Z M 61.111099,0 H 83.333322 V 130 H 61.111099 Z M 33.33332,0 H 49.999987 V 130 H 33.33332 Z M 16.666667,0 h 5.555556 V 130 H 16.666667 Z M 0,0 H 11.111111 V 130 H 0 Z" />
</svg>
