<svg id="BIEDRONKA-SEBASTIANPL" width="500" height="130" viewBox="0 0 500 130" version="1.1" xml:space="preserve" xmlns:xlink="http://www.w3.org/1999/xlink" xmlns="http://www.w3.org/2000/svg" xmlns:svg="http://www.w3.org/2000/svg">
	<path id="9956428594335" style="fill:#000000;stroke:#000000;stroke-width:0" d="M 0,64.999992 V 0 H 16.669984 33.339983 V 64.999992 129.99997 H 16.669984 0 Z m 37.49998,0 V 0 h 2.080003 2.079998 V 64.999992 129.99997 H 39.579983 37.49998 Z m 8.34,0 V 0 h 2.079999 2.079998 V 64.999992 129.99997 H 47.919979 45.83998 Z m 8.319998,0 V 0 h 2.09 2.089999 v 64.999992 64.999978 h -2.089999 -2.09 z m 16.679996,0 V 0 H 81.249972 91.65997 v 8.1229113 8.1229037 h 2.089999 2.090003 V 8.1229113 0 h 2.079999 2.079999 v 8.1229113 8.1229037 h 2.08 2.08 V 8.1229113 0 h 2.09 2.09 v 8.1229113 8.1229037 h 2.08 2.08 V 8.1229113 0 h 10.42 10.41999 v 8.1229113 8.1229037 h 2.08 2.08 v 8.128486 8.128479 h -6.25 -6.25 v -8.128479 -8.128486 h -6.24999 -6.25 v 8.128486 8.128479 h 2.08 2.08 v 8.122911 8.122911 h 10.42 10.41999 v 8.122908 8.122903 h -2.08 -2.08 v 16.251368 16.25142 h 2.08 2.08 v 8.128439 8.12848 h -6.25 -6.25 v 8.12288 8.12293 h -4.16999 -4.17 V 113.7486 97.497201 h -2.08 -2.08 v 16.251359 16.25141 h -2.08 -2.08 v -8.12289 -8.12292 h -4.17 -4.17 v 8.12292 8.12289 h -2.079999 -2.079999 v -8.12289 -8.12292 h 2.079999 2.079999 v -8.12848 -8.128479 H 97.919971 95.839972 V 81.245784 64.994421 H 93.749969 91.65997 v 32.50278 32.502769 H 81.249972 70.839974 Z m 16.659999,40.625688 v -8.128479 h -2.079999 -2.080003 v 8.128479 8.12844 h 2.080003 2.079999 z M 104.15997,89.374316 v -8.122911 h -2.08 -2.08 v 8.122911 8.122885 h 2.08 2.08 z m 20.83999,-8.128513 V 64.99444 h -4.16999 -4.17 v -8.122908 -8.122907 h -4.16 -4.16 v 16.25139 16.251367 h 6.25 6.25 v 8.122896 8.122923 h 2.08 2.07999 z M 87.499973,73.122896 V 64.99444 h 2.079998 2.079999 v -8.122908 -8.122907 h 4.170002 4.169998 v -16.25142 -16.25139 h -2.079999 -2.079999 v 8.128486 8.128479 H 93.749969 91.65997 v 8.122911 8.122911 H 89.579971 87.499973 V 40.625691 32.50278 h -2.079999 -2.080003 v 8.122911 8.122911 H 81.249972 79.159973 V 40.625691 32.50278 h -2.079999 -2.079999 v 8.122911 8.122911 h 2.079999 2.079999 v 8.122908 8.122903 h 2.089999 2.089999 v 8.12846 8.12846 h 2.080003 2.079999 z M 83.339971,56.871532 v -8.122907 h 2.080003 2.079999 v 8.122907 8.122908 H 85.419974 83.339971 Z M 108.33997,24.374301 v -8.128486 h -2.09 -2.09 v 8.128486 8.128479 h 2.09 2.09 z m 33.31999,40.625691 V 0 h 6.25 6.25 v 16.25139 16.25139 h 2.09 2.09 V 16.25139 0 h 2.08 2.08 v 8.1229113 8.1229037 h 2.08 2.08 V 8.1229113 0 h 4.17 4.17 v 32.497205 32.497216 h -2.08 -2.08 v 8.128456 8.12846 h 6.25 6.25 v 8.122903 8.122923 h -6.25 -6.25 v 8.128437 8.12848 h 4.16 4.15999 v 8.12289 8.12292 h -4.15999 -4.16 v -8.12292 -8.12289 h -2.09 -2.09 v -8.12848 -8.128437 h -2.08 -2.08 v 8.128437 8.12848 h -2.08 -2.08 v -8.12848 -8.128437 h 2.08 2.08 V 89.37424 81.251337 h 2.08 2.08 v -8.12846 -8.128456 h 2.09 2.09 V 56.87151 48.748602 h -2.09 -2.09 V 40.625691 32.50278 h -2.08 -2.08 v 16.245822 16.245819 h -2.08 -2.08 v 8.128456 8.12846 h -4.17 -4.17 v 8.122903 8.122923 h -2.08 -2.08 v 8.128437 8.12848 h 2.08 2.08 v 8.12289 8.12292 h -4.17 -4.17 z m 12.5,-8.128509 v -8.122881 h -2.08 -2.08 V 32.497205 16.245815 h -2.08 -2.08 v 16.25139 16.251397 h 2.08 2.08 v 8.122908 8.122903 h 2.08 2.08 z m 29.18,65.005557 v -8.12292 h 2.08 2.07999 v -8.12844 -8.128442 h 2.08 2.08 v -8.122922 -8.122908 h -2.08 -2.08 v -8.128456 -8.128459 h -2.07999 -2.08 v -8.122908 -8.122903 h 2.08 2.07999 V 40.625691 32.50278 h -2.07999 -2.08 V 16.25139 0 h 8.32999 8.33 v 8.1229113 8.1229037 h -6.25 -6.25 v 8.128486 8.128479 h 6.25 6.25 v 8.122911 8.122911 h -6.25 -6.25 v 8.122908 8.122903 h 2.08 2.08 v 8.12846 8.12846 h 2.09 2.09 v 8.122907 8.122885 h -2.09 -2.09 v 8.128475 8.12844 h 4.17 4.17 v 8.12293 8.12292 h -8.33 -8.32999 z m 20.81999,0 v -8.12292 h 2.09 2.09 v 8.12292 8.12293 h -2.09 -2.09 z m 8.33998,-56.877048 V 0 h 2.08002 2.07999 v 32.497205 32.497216 h 6.25002 6.24998 v 8.128456 8.12846 h 2.09004 2.09 V 56.877081 32.50278 h -4.17003 -4.16999 v 8.122911 8.122911 h -2.08002 -2.07999 V 32.497205 16.245815 h 8.33 8.33004 V 8.1229113 0 h 2.07999 2.07999 v 8.1229113 8.1229037 h 2.09 2.09 v 8.128486 8.128479 h -2.09 -2.09 v 16.245822 16.245819 h 4.17002 4.16999 v 8.128456 8.12846 h -4.16999 -4.17002 v 8.122903 8.122923 h -2.07999 -2.07999 v 8.128437 8.12848 h 2.07999 2.07999 v 8.12289 8.12292 h -2.07999 -2.07999 v -8.12292 -8.12289 H 233.33 229.15994 V 97.502681 81.251287 h -6.24998 -6.25002 v 8.122915 8.122885 h 2.09 2.09001 v 8.128483 8.12844 h 2.07999 2.08002 v 8.12292 8.12288 h -6.25002 -6.25001 z m 29.16004,8.122904 V 64.99444 h -2.07999 -2.07999 v 8.128456 8.128459 h 2.07999 2.07999 z m 4.18,48.754184 v -8.12288 h 2.08003 2.07998 v -8.12848 -8.128444 h 4.17 4.16999 V 89.374278 81.251382 H 256.24996 254.16 V 56.877081 32.50278 h -2.08003 -2.07999 v -8.128479 -8.128486 h 2.07999 2.08003 v 8.128486 8.128479 h 4.16999 4.17003 v -8.128479 -8.128486 h -2.08003 -2.08002 V 8.1229113 0 h 2.08002 2.08003 v 8.1229113 8.1229037 h 4.16999 4.16999 v 8.128486 8.128479 h 2.08002 2.07999 V 48.748602 64.994421 H 272.92002 270.84 v -8.122907 -8.122908 h -4.16999 -4.16999 v 24.374297 24.374335 h -2.08003 -2.08002 v 8.128442 8.12844 H 256.24996 254.16 v 8.12292 8.12293 h -4.16002 -4.16001 z m 16.66005,0 v -8.12288 h 2.07998 2.08003 V 97.502832 81.251405 h 4.16999 4.16999 V 97.502832 113.7542 h -4.16999 -4.16999 V 121.87708 130 H 264.58 262.50002 Z M 283.34003,64.999992 V 0 h 4.15997 4.16002 v 16.25139 16.25139 h 2.09 2.09 V 16.25139 0 H 297.92001 300 v 16.25139 16.25139 h 2.08002 2.07999 v -8.128479 -8.128486 h 2.09 2.09 V 8.1229113 0 h 4.15998 4.16001 v 32.497205 32.497216 h 2.09001 2.09 V 48.748602 32.50278 h 2.07999 2.08002 V 24.374301 16.245815 H 322.92 320.84001 V 8.1229113 0 h 6.25001 6.24998 v 8.1229113 8.1229037 h -2.09 -2.09 v 8.128486 8.128479 h 2.09 2.09 v 8.122911 8.122911 h -2.09 -2.09 v 24.374294 24.374305 h 2.09 2.09 v 8.128479 8.12844 h 2.07999 2.08002 v 8.12292 8.12289 H 331.25 325.00002 v -8.12289 -8.12292 H 320.82999 316.66 v 8.12292 8.12289 h -4.16001 -4.15998 v -8.12289 -8.12292 H 302.09 295.84002 v 8.12292 8.12289 h -6.25001 -6.24998 z m 8.31999,40.625688 V 97.497201 H 289.58003 287.5 v 8.128479 8.12844 h 2.08003 2.07999 z m 24.99998,0 v -8.128479 h 2.09001 2.09 v -8.122923 -8.122896 h -2.09 -2.09001 v -8.128486 -8.128475 h -2.07999 -2.08002 v 8.128456 8.12846 H 310.42 308.34001 v -8.12846 -8.128456 h -2.09 -2.09 v -8.122907 -8.122908 h 4.16999 4.16999 V 40.625691 32.50278 H 308.33 304.16001 v 8.122911 8.122911 h -6.25002 -6.24997 v 8.122908 8.122903 h 6.24997 6.25002 v 8.12846 8.12846 h 2.09 2.09 v 16.251424 16.251363 h 4.15998 4.16001 z m -4.16001,-16.251364 v -8.122911 h 2.08002 2.07999 v 8.122911 8.122885 h -2.07999 -2.08002 z m 29.16,32.502764 v -8.12288 h 2.09 2.09001 V 97.502832 81.251405 H 339.59002 333.34 v -8.12846 -8.128456 h 2.07999 2.08002 V 48.748602 32.50278 h 2.07999 2.07999 v 16.245822 16.245819 h 4.17003 4.16999 V 89.374278 113.75416 H 347.92002 345.84 v 8.12292 8.12289 h -2.09001 -2.09 z M 354.15998,64.999992 V 0 h 10.42001 10.42 v 8.1229113 8.1229037 h 2.07999 2.08002 V 8.1229113 0 h 2.09001 2.09 v 8.1229113 8.1229037 h 2.07999 2.07998 V 8.1229113 0 h 2.08003 2.07999 v 8.1229113 8.1229037 h -2.07999 -2.08003 v 8.128486 8.128479 H 385.42 383.34001 v 8.122911 8.122911 h 4.15997 4.16002 v 8.122908 8.122903 h 2.09 2.09 v 8.12846 8.12846 h 2.07999 2.08003 v 8.122907 8.122885 h 2.07998 2.07999 V 81.245731 64.994364 H 402.08 400.00002 V 56.87151 48.748602 H 397.91999 395.84 V 24.374301 0 h 10.40999 10.41003 v 8.1229113 8.1229037 h -8.33 -8.33 v 8.128486 8.128479 h 10.42 10.41997 v 16.245822 16.245819 h -2.09 -2.08997 v 8.128456 8.12846 H 412.50001 408.34 v 8.122903 8.122923 h 6.25001 6.24998 v 8.128437 8.12848 H 416.67 412.50001 v 8.12289 8.12292 h -6.25002 -6.24997 V 113.74845 97.497087 H 397.91999 395.84 v 16.251363 16.25144 H 383.34001 370.83998 V 105.62557 81.251238 h -2.08996 -2.09001 v 24.374332 24.37432 H 364.57999 362.5 v -8.12292 -8.12289 h -2.07999 -2.08002 v 8.12289 8.12292 h -2.09 -2.09001 z m 29.18003,40.625688 v -8.128479 h -2.09 -2.09001 v -8.122885 -8.122911 h 2.09001 2.09 v -8.12846 -8.128456 h -2.09 -2.09001 v 8.128456 8.12846 h -2.08002 -2.07999 V 64.999992 48.748602 h 2.07999 2.08002 V 40.625691 32.50278 h 2.09001 2.09 v -8.128479 -8.128486 h -2.09 -2.09001 v 8.128486 8.128479 h -2.08002 -2.07999 v -8.128479 -8.128486 h -2.07998 -2.08003 v 8.128486 8.128479 h -2.08996 -2.09001 v 8.122911 8.122911 H 364.57999 362.5 v 8.122908 8.122903 h 2.07999 2.08002 V 56.87151 48.748602 h 2.09001 2.08996 v 16.25139 16.251363 h 2.08003 2.07998 v 16.251402 16.251363 h 4.16999 4.17003 z M 370.83998,40.625691 V 32.50278 h 2.08003 2.07998 v 8.122911 8.122911 h -2.07998 -2.08003 z M 425,64.999992 V 0 H 439.57998 454.16 V 64.999992 129.99997 H 439.57998 425 Z m 33.34001,0 V 0 h 2.07998 2.07999 v 64.999992 64.999978 h -2.07999 -2.07998 z m 16.65997,0 V 0 h 2.08002 2.07999 V 64.999992 129.99997 H 477.08 474.99998 Z m 8.34001,0 V 0 h 2.07999 2.08003 v 64.999992 64.999978 h -2.08003 -2.07999 z m 12.5,0 V 0 H 497.91997 500 v 64.999992 64.999978 h -2.08003 -2.07998 z M 204.15995,81.245803 V 64.99444 h 2.09 2.09 v 16.251363 16.251398 h -2.09 -2.09 z M 275.00001,8.1229113 V 0 h 2.07999 2.08002 V 8.1229113 16.245815 H 277.08 275.00001 Z" />
</svg>