<svg id="BIEDRONKA-SEBASTIANPL" width="500" height="130" viewBox="0 0 500 130" version="1.1" xml:space="preserve" xmlns:xlink="http://www.w3.org/1999/xlink" xmlns="http://www.w3.org/2000/svg" xmlns:svg="http://www.w3.org/2000/svg">
	<path id="9956428594335" style="fill:#000000;stroke:#000000;stroke-width:0" d="M 16.600278,129.99975 H 0 V 65.033428 0.06705638 H 16.600278 33.200496 V 65.033428 129.99977 Z m 22.908326,0 H 37.184561 V 65.033428 0.06705638 h 2.324043 2.324028 V 65.033428 129.99977 Z m 8.300109,0 H 45.816697 V 65.033428 0.06705638 h 1.992016 1.992038 V 65.033428 129.99977 Z m 8.292587,0 H 53.769671 L 53.943152,65.165995 54.116632,0.33222048 56.274667,0.16611024 58.43274,0 v 64.999968 64.999962 z m 25.245057,0 H 71.049108 V 65.033428 0.06705638 H 81.341293 91.63344 V 8.3440366 16.621009 l 0.996019,-0.305272 0.996019,-0.305235 0.996019,0.305235 0.996019,0.305272 v 7.898313 7.898344 H 93.625478 91.63344 v 8.245527 8.245557 l 4.150073,-0.157833 4.150035,-0.157833 0.175752,-16.042719 0.17574,-16.042723 -0.839693,-0.07842 -0.839774,-0.07843 -1.328013,-0.05412 -1.32805,-0.05412 -0.183307,-8.0876558 -0.183308,-8.08763351 h 2.341343 2.341342 V 8.2547566 16.44226 l 1.826,-0.09997 1.82604,-0.09997 0.18331,8.08763 0.18331,8.08766 h 1.99204 1.99204 l -0.18331,-8.08766 -0.18331,-8.08763 -1.826,0.15258 -1.82601,0.152579 V 8.3071635 0.0668674 h 1.992 1.99204 v 8.0932461 8.0932955 l 1.99204,0.06489 1.99204,0.06489 V 8.2248832 0.06659906 h 10.62414 10.62418 V 8.3435717 16.620548 l 0.99602,-0.305234 0.99602,-0.305273 0.99602,0.305273 0.99601,0.305234 v 7.89834 7.898313 h -6.3081 -6.30811 v -7.9161 -7.916107 l -5.81008,-0.182664 -5.81008,-0.182892 -0.49803,0.175144 -0.49799,0.175143 v 7.890172 7.890172 l 2.158,0.16611 2.15807,0.16611 0.18331,8.08766 0.1833,8.087634 h 10.27488 10.27487 v 8.220249 8.220227 h -1.99204 -1.99203 v 16.175282 16.175286 h 1.99203 1.99204 v 8.147143 8.14715 l -5.47808,0.0325 -5.47809,0.0325 -0.83002,0.0404 -0.83002,0.0404 v 7.95506 7.95506 h -3.98408 -3.98404 v -16.1752 -16.175296 h -2.32403 -2.32403 v 16.175296 16.17529 h -1.97477 -1.97473 l -0.1833,-8.08764 -0.18331,-8.08765 -2.24988,-0.17163 -2.24995,-0.17163 -1.56813,0.31434 -1.56812,0.31435 v 7.94496 7.94496 h -2.341347 -2.341342 l 0.183307,-8.08765 0.183307,-8.08765 2.158073,-0.16618 2.158032,-0.16619 V 105.56987 97.6484 H 97.941624 95.617592 V 81.473084 65.297802 l -1.162016,-0.06289 -1.162016,-0.06289 -0.830023,0.08617 -0.829984,0.08617 v -8.243475 -8.243478 h -1.992038 -1.992038 v 7.923768 7.923772 L 86.947732,65.051347 86.245987,65.39774 84.6237,65.07255 83.001375,64.747359 v -7.944967 -7.944968 h -1.992001 -1.992038 v 7.88877 7.888766 l 1.992038,0.318198 1.992001,0.318199 v 7.968344 7.968287 h 2.306759 2.306722 l 0.183307,-8.073441 0.183307,-8.073479 1.660045,5.02e-4 1.660044,5.26e-4 0.170835,32.468459 0.170835,32.468505 z m 3.978974,-16.44047 h 2.324032 v -7.95505 -7.955066 h -2.324032 -2.324032 v 7.955066 7.95505 z M 102.25762,97.649164 h 1.99204 V 89.42891 81.208687 h -1.99204 -1.99204 v 8.220223 8.220254 z m 20.58433,0 h 1.992 V 81.159678 64.670227 l -3.81804,0.181644 -3.81804,0.181682 -0.18331,-8.087656 -0.18331,-8.087634 h -4.29876 -4.29876 v 16.17529 16.175282 h 6.30807 6.30811 v 8.220227 8.220249 z M 77.025185,48.858112 h 1.992038 v -8.220223 -8.220223 h -1.992038 -1.992039 v 8.220223 8.220249 z m 8.282836,0 h 2.341342 v -8.253819 -8.253827 l -2.158035,0.16611 -2.157997,0.16611 -0.183307,8.08763 -0.183307,8.08766 z m 60.442289,81.141638 h -4.31607 V 65.033428 0.06705638 h 6.30811 6.30815 V 16.242372 32.417666 h 1.99204 1.992 V 16.242372 0.06705638 h 2.32403 2.32407 V 8.3054476 16.543812 l 1.82604,-0.194683 1.82604,-0.194683 0.18331,-8.0436365 0.18331,-8.04363596 h 4.29875 4.29876 V 32.361026 64.654908 l -0.92454,0.283352 -0.92455,0.283351 -1.23345,-0.144038 -1.23353,-0.144076 -0.1833,-8.037645 -0.18331,-8.037676 h -1.97473 -1.97473 V 40.637927 32.4177 h -1.98243 -1.98244 l -0.17575,16.307887 -0.17575,16.307879 -2.15807,0.16611 -2.15804,0.16611 v 7.921467 7.921455 h -3.98403 -3.98412 v 8.220227 8.220227 h -1.99204 -1.99204 v 8.251538 8.25153 l 0.66996,-0.33071 0.66996,-0.33071 1.32208,0.33513 1.32208,0.33513 v 7.91933 7.91933 z m 6.75077,-64.701184 h 1.54942 v -8.220227 -8.220227 h -1.99208 -1.99204 V 32.682822 16.507533 h -1.99203 -1.992 v 16.175289 16.175316 h 1.992 1.99203 v 7.866671 7.866668 l 0.4427,0.353537 0.44266,0.353537 z m 22.48302,64.701184 h -4.33335 v -8.28043 -8.28042 l -1.992,0.23353 -1.99204,0.23354 v -8.1284 -8.128365 h -1.97472 -1.97477 l -0.18331,8.061675 -0.1833,8.0617 h -1.99208 -1.99204 l -0.1833,-8.0617 -0.18331,-8.061675 h 2.34134 2.34134 v -8.220226 -8.22025 h 1.97473 1.97477 l 0.1833,-8.087626 0.18331,-8.087656 1.826,-0.05363 1.82601,-0.05359 v 8.141178 8.14114 h 6.30811 6.30807 v 8.220253 8.220223 h -6.30807 -6.30811 v 7.929769 7.92975 l 4.15007,0.15791 4.15007,0.15791 0.18331,8.08765 0.18331,8.08764 z m 16.60029,0 h -8.31746 v -8.22023 -8.22024 h 1.99204 1.99204 v -7.95505 -7.955066 h 2.32403 2.32407 V 89.42891 81.208687 h -2.32407 -2.32403 v -7.916171 -7.916179 l 1.16205,-0.198917 1.16198,-0.198916 1.16202,0.222009 1.16205,0.22201 v 7.893226 7.893199 h 1.99204 1.992 v 8.220223 8.220227 h -1.992 -1.99204 l -0.001,8.087652 -0.001,8.08765 h 3.81929 3.81925 l 0.18331,8.08765 0.18331,8.08765 z m 14.59094,0 h -2.35865 l 0.18331,-8.08765 0.18331,-8.08765 h 1.99203 1.99204 l 0.18331,8.08765 0.18331,8.08765 z m 12.63349,0 H 212.4834 V 65.033428 0.06705638 h 1.99204 1.99204 V 32.360912 64.654769 l 0.83002,0.223521 0.83002,0.223483 5.47809,-0.08368 5.47809,-0.08368 v 8.137141 8.137085 h 1.99204 1.99203 V 56.813133 32.417594 h -3.98407 -3.98408 v 8.22025 8.220223 h -1.99204 -1.99204 V 32.699089 16.540109 l 8.13415,-0.1488 8.13412,-0.1488 0.1833,-8.0876604 0.18331,-8.08765616 h 1.97473 1.97476 V 8.287442 16.507669 h 1.99204 1.992 v 7.955063 7.955062 h -1.9824 -1.98244 l -0.17574,16.307362 -0.17575,16.307354 -0.99602,0.05238 -0.99602,0.05238 -0.83002,0.08069 -0.82999,0.08069 v 7.95507 7.955055 h 1.99204 1.992 v -8.253316 -8.253298 l 4.15007,0.165619 4.15008,0.165619 v 7.955063 7.955059 l -4.15008,0.157833 -4.15007,0.157833 v 8.194923 8.194915 h -1.992 -1.99204 v 8.220255 8.22023 l -2.82206,-0.007 -2.82206,-0.007 -1.49401,-0.31978 -1.49401,-0.31979 V 97.322133 81.208703 h -6.30811 -6.3081 v 8.186626 8.186623 l 2.15803,0.166111 2.15804,0.16611 0.18368,7.788597 0.18369,7.78862 1.80854,0.16648 1.80854,0.16649 0.18331,8.08765 0.1833,8.08765 z m 20.88175,0 h -2.00932 l 0.18331,-8.08765 0.18331,-8.08765 1.82604,-0.16781 1.82604,-0.16781 v 8.25546 8.25545 z m 10.29218,0 h -4.2988 v -7.9399 -7.93991 l 2.15804,-0.44846 2.15803,-0.44846 v -7.78736 -7.787377 l 4.15008,4.27e-4 4.15007,4.54e-4 V 89.42891 81.208687 h -1.99204 -1.99204 V 56.813179 32.417639 l -2.15803,-0.0015 -2.15804,-0.0015 -0.0189,-7.914225 -0.0189,-7.914221 1.37174,-0.209462 1.37178,-0.209461 0.80493,0.214224 0.80496,0.214223 v 7.910865 7.910869 h 3.98404 3.98407 v -7.955067 -7.955062 h -1.99203 -1.99204 V 8.2870867 0.06685984 h 1.97476 1.97473 l 0.18331,8.08763346 0.18331,8.0876557 4.15003,0.157834 4.15007,0.157833 v 7.929758 7.929759 h 1.99204 1.99204 V 48.85781 65.29826 h -1.99204 -1.99204 V 57.078033 48.85781 h -4.31607 -4.31607 v 24.395516 24.395528 h -1.99203 -1.99204 v 8.108556 8.10855 l -1.82601,-0.0208 -1.82604,-0.0208 -0.1833,8.08764 -0.18331,8.08765 z m 14.62553,0 h -2.32407 v -7.94496 -7.94496 l 1.62232,-0.32519 1.62229,-0.32519 0.70171,0.34639 0.70178,0.34639 v 7.92377 7.92376 z m 25.21512,0 h -6.29084 V 65.033428 0.06705638 h 3.98408 3.98408 V 16.242372 32.417666 h 2.32403 2.32403 V 16.242372 0.06705638 h 1.992 1.99204 V 16.242372 32.417666 h 1.99204 1.99204 v -7.955067 -7.955066 l 1.49401,-0.06289 1.49404,-0.06289 0.49799,0.06289 0.49803,0.06289 V 8.2872832 0.06705638 h 4.31101 4.31093 l 0.17083,32.48319862 0.17084,32.483173 h 1.66004 1.66005 l 0.17574,-16.307883 0.17575,-16.307879 h 1.98244 1.98244 V 24.497828 16.577987 L 322.875,16.4101 321.04896,16.242214 320.86565,8.1545538 320.68234,0.06689764 h 6.32535 6.32541 V 8.2871509 16.507374 h -1.99203 -1.99204 v 7.955063 7.955066 h 1.99204 1.99203 v 8.220223 8.220254 h -1.99203 -1.99204 v 24.395512 24.395536 h 1.99204 1.99203 v 7.955062 7.95506 h 1.99204 1.99204 v 8.22023 8.22024 h -6.30815 -6.30807 l -8.7e-4,-8.08765 -9e-4,-8.08765 -3.98317,-0.13228 -3.98321,-0.13229 v 8.21991 8.21991 h -4.31599 -4.31615 v -7.95507 -7.95506 l -0.49799,-0.034 -0.49803,-0.034 -5.31205,-0.0984 -5.31209,-0.0984 -0.18331,8.08765 -0.1833,8.08764 z m -0.31483,-16.32734 1.99203,-0.23354 V 105.544 97.649145 h -1.99203 -1.99204 v 8.128375 8.12838 z m 22.9084,-0.11312 h 4.31603 v -7.95506 -7.955062 h 1.99204 1.99204 v -8.22025 -8.220223 h -1.99204 -1.99204 v -7.955059 -7.955067 l -0.83002,-0.04059 -0.83002,-0.04059 -1.16198,-0.177638 -1.16202,-0.177637 v 8.173319 8.173289 h -2.30676 -2.30676 l -0.1833,-8.087626 -0.18331,-8.087656 -1.66005,-0.0098 -1.66,-0.0098 -0.18331,-8.078188 -0.18331,-8.078185 h 4.35066 4.35069 l -0.18331,-8.087633 -0.18331,-8.087657 -4.15011,-0.157833 -4.15007,-0.157833 v 8.245535 8.245553 h -6.32538 -6.32542 l 0.18331,8.08763 0.1833,8.08766 3.31926,-0.172876 3.31926,-0.173102 2.82285,0.338079 2.82282,0.338116 v 7.92257 7.922559 h 1.99204 1.99203 v 16.17529 16.175295 z m 2.32399,-15.910122 h -1.992 v -8.22025 -8.220223 h 1.992 1.99204 v 8.220223 8.22025 z m 29.21647,32.350592 h -1.99203 v -8.25357 -8.25357 l 1.16201,0.0944 1.16206,0.0944 0.82998,-0.0611 0.83002,-0.0611 V 97.383981 81.208691 h -6.32538 -6.32542 l 0.18331,-8.087475 0.18331,-8.087505 0.99598,-0.05186 0.99602,-0.05185 0.83002,-0.08069 0.83002,-0.08069 V 48.559677 32.350787 l 2.15804,0.16611 2.15803,0.166111 0.33184,16.175289 0.33222,16.175286 h 3.65205 3.65204 l 0.17235,24.195595 0.17235,24.195592 -1.99865,0.31926 -1.99869,0.31925 v 7.96832 7.96832 z m 12.28423,0 h -2.32407 V 65.033436 0.06706394 h 10.62418 10.62417 V 8.0221305 15.977197 h 1.99204 1.99206 V 8.0221305 0.06706394 h 1.99203 1.992 V 8.3252524 16.583433 l -1.82604,-0.170608 -1.826,-0.170608 -0.18331,8.087657 -0.1833,8.08766 h 1.99203 1.99204 l 0.18331,-8.08766 0.18331,-8.087657 h 1.992 1.99203 l 0.18331,-8.087633 0.18331,-8.0876599 h 1.99204 1.992 l -0.18331,8.0876599 -0.18331,8.087633 -1.82604,0.167887 -1.82604,0.167887 v 7.91986 7.919838 h -2.32403 -2.32403 v 8.220223 8.220226 h 4.29879 4.29876 l 0.18331,8.087657 0.18331,8.087656 1.826,-0.107717 1.82604,-0.107754 v 8.16167 8.161664 l 2.04722,0.16611 2.04726,0.16611 0.11074,7.955063 0.11074,7.955066 2.158,0.166111 2.15807,0.16611 V 81.616661 65.517446 l -2.15807,-0.507443 -2.158,-0.507421 -0.18369,-7.822473 -0.18368,-7.822473 h -1.97427 -1.97432 V 24.462097 0.06655748 h 10.64149 10.64145 l -0.1833,8.08765612 -0.18331,8.0876334 -8.48376,0.148573 -8.48375,0.148574 0.18368,7.806534 0.18369,7.806539 10.46774,0.146079 10.46774,0.146079 -0.17574,16.294378 -0.17575,16.294379 -0.99602,0.07139 -0.99602,0.07143 -0.83002,0.06112 -0.82999,0.06112 v 7.955071 7.955028 h -4.3161 -4.31607 v 8.22025 8.220227 h 6.32541 6.32538 l -0.1833,8.076902 -0.18331,8.07689 -3.98408,0.011 -3.98407,0.011 -0.18331,8.08765 -0.18331,8.08765 h -6.31839 -6.31835 l 0.19352,-16.17567 0.19351,-16.175641 -2.15804,3.48e-4 -2.15803,3.74e-4 v 16.175289 16.1753 h -12.28419 -12.28424 v -24.3956 -24.395544 h -2.32403 -2.32403 v 24.395544 24.39552 h -1.99204 -1.99204 v -7.89838 -7.89832 l -1.05029,-0.3219 -1.05033,-0.32191 h -0.94171 -0.9417 v 8.22024 8.22023 z m 25.3984,-16.36971 1.49401,-0.19442 v -7.89322 -7.893254 h -1.992 -1.99203 V 89.428929 81.20868 h 1.99203 1.992 v -8.13831 -8.13832 l -1.82604,0.07744 -1.826,0.07744 -0.18331,8.060972 -0.1833,8.060966 h -1.97471 -1.97477 V 65.033591 48.858301 h 1.99204 1.99206 v -8.220227 -8.220227 h -1.99206 -1.99204 v -7.955063 -7.955062 h -1.99203 -1.99204 v 7.955062 7.955063 h 1.99204 1.99203 v 8.220227 8.22025 h -1.97472 -1.97477 l -0.18331,-8.087657 -0.1833,-8.087656 -2.15804,-0.16611 -2.15803,-0.16611 v 8.253849 8.253827 h -1.99204 -1.99204 v 8.220223 8.22025 h 1.99204 1.99204 v -8.22025 -8.220223 h 2.32403 2.32403 v 16.175286 16.175286 h 1.99204 1.99204 v 16.143292 16.143289 l 2.49003,0.16456 2.49008,0.16459 z m 57.93496,16.36971 H 424.96676 V 65.033436 0.06706394 h 14.60826 14.60821 V 65.033436 129.99978 Z m 20.91632,0 h -2.32403 V 65.033436 0.06706394 h 2.32403 2.32404 V 65.033436 129.99978 Z m 16.59761,0 h -2.32664 L 474.93088,65.166003 475.09982,0.33222803 477.25786,0.1661178 479.4159,7.5590552e-6 V 64.999975 129.99993 Z m 8.3028,0 h -1.99204 V 65.033436 0.06706394 h 1.99204 1.99203 V 65.033436 129.99978 Z m 12.61621,0 h -1.99204 V 65.033436 0.06706394 H 498.00796 500 V 65.033436 129.99978 Z M 270.91623,114.08963 H 266.9322 V 97.649168 81.208695 h 3.98403 3.98408 V 97.649168 114.08963 Z M 206.49599,97.649168 h -2.02246 l -0.32164,-0.669052 -0.32126,-0.669026 0.17612,-15.638854 0.17613,-15.638823 1.992,0.0257 1.99204,0.0257 0.17575,16.282345 0.17574,16.282379 z m -20.40711,-32.392464 -1.16202,-0.04184 -0.83002,-0.267477 -0.83002,-0.267477 v -7.910869 -7.910865 h 1.99204 1.99204 v -8.220227 -8.220223 h -1.99204 -1.99204 V 16.242433 0.06712063 h 8.30015 8.30014 V 8.2873437 16.507597 h -6.30811 -6.3081 v 7.955063 7.955066 h 6.3081 6.30811 v 8.220223 8.22025 h -6.30811 -6.3081 v 8.220227 8.220227 z m 91.24613,-48.74919 h -1.54934 l -0.4427,-0.353537 -0.44266,-0.353537 V 7.9337689 0.06709795 h 1.99204 1.99204 V 8.2873248 16.507574 Z" />
</svg>