<svg id="BP" width="500" height="130" viewBox="0 0 500 130" version="1.1" xml:space="preserve" xmlns:xlink="http://www.w3.org/1999/xlink" xmlns="http://www.w3.org/2000/svg" xmlns:svg="http://www.w3.org/2000/svg">
	<path id="2480027384228" style="fill:#000000;stroke:#000000;stroke-width:0" d="M 0.09585343,0 C 0.05631219,41.681349 0.02299755,86.762793 0,130 H 500 C 499.8712,88.376408 499.73466,42.583372 499.613,0 Z M 7.9367915,0 h 4.3709895 c -0.04818,41.743785 -0.08944,86.811574 -0.118942,130 H 7.8516187 C 7.885706,86.822109 7.9152028,41.739688 7.9367915,0 Z m 7.9856955,0 h 8.638989 c -0.07367,41.792174 -0.138894,86.863865 -0.189071,130 h -8.39047 c -0.0045,-16.7123 -0.01182,-33.988495 -0.02045,-51.641065 z m 20.445232,0 h 8.344294 c -0.01182,41.720372 -0.01136,86.793231 0,130 h -8.330068 c 0.01318,-33.684308 0.01318,-69.815179 -0.0045,-105.29807 z m 20.072455,0 h 4.609782 v 32.018795 c 0,33.352415 -0.01409,66.764534 -0.03363,97.981205 h -4.632871 l 0.02136,-48.226526 z m 8.25553,0 h 8.184492 c -0.0045,23.969853 -0.0045,51.258441 -0.0045,82.329944 V 130 h -8.187174 c 0.0045,-16.12305 0.0064,-32.778187 0.0064,-49.804238 z m 16.313945,0 h 8.377108 L 89.350397,80.797891 89.328127,130 h -8.286572 c 0,-43.050285 -0.0091,-88.165485 -0.03182,-130 z m 11.716616,0 h 4.841439 L 97.531344,80.916131 97.509074,130 h -4.72427 l -0.02227,-49.202109 z m 8.101955,0 h 8.544 l -0.0373,70.554281 c -0.0109,20.37015 -0.0186,40.288609 -0.0232,59.445719 h -8.48364 V 80.3101 Z m 24.38481,0 h 8.5316 c 0.0145,41.924854 0.0364,86.964545 0.063,130 h -8.44019 c -0.0168,-17.11366 -0.0368,-34.829447 -0.0594,-52.94815 z m 16.06543,0 h 8.48273 l 0.0932,78.595223 c 0.0209,17.582131 0.0427,34.777547 0.0657,51.404777 h -8.64163 V 80.3101 Z m 16.34144,0 h 8.42865 v 78.03114 c 0,17.784468 0.005,35.1709 0.007,51.96886 h -8.28393 c -0.0164,-15.21537 -0.0355,-31.531003 -0.0559,-49.022992 C 157.6828,52.734887 157.65026,25.492151 157.62008,0 Z m 16.20746,0 h 4.35499 c 0.051,39.954764 0.0904,86.179787 0.10922,130 h -4.42162 c -0.0118,-30.899021 -0.0232,-63.941202 -0.0327,-97.005623 z m 8.19958,0 h 16.47288 l -0.0104,42.262405 c -0.008,30.045971 -0.01,59.753025 -0.005,87.737595 h -16.3983 c -0.006,-17.48321 -0.0132,-35.604252 -0.0223,-54.140895 z m 24.11321,0 h 4.26445 c 0.0227,41.94573 0.0565,87.028542 0.0968,130 h -4.17746 l -0.0657,-50.177691 C 206.2205,50.860404 206.18114,24.23287 206.14015,0 Z m 8.07086,0 h 8.53691 l 0.0497,77.383355 c 0.0114,18.011779 0.0241,35.614785 0.0382,52.616645 H 214.314 L 214.2804,80.3101 C 214.26083,51.196005 214.23765,24.397353 214.21111,0 Z m 12.18443,0 h 8.32298 l 0.0781,76.335384 c 0.0186,18.378404 0.0391,36.334576 0.0612,53.664616 h -8.33184 l -0.005,-7.73988 C 226.49093,79.881235 226.44694,37.690632 226.39531,0 Z m 24.28097,0 h 4.13665 l 0.0746,67.139743 c 0.0255,22.850667 0.0495,43.748997 0.0728,62.860257 h -4.19164 c -0.0219,-46.446871 -0.0537,-90.523662 -0.0924,-130 z m 8.08595,0 h 8.27771 l 0.0985,75.893251 c 0.025,19.136624 0.0496,37.170059 0.0755,54.106749 h -8.33989 l -0.007,-11.6422 C 258.84285,77.259845 258.8064,36.563836 258.76218,0 Z m 16.05657,0 h 8.44101 c 0.0543,44.705456 0.12103,89.000584 0.19443,130 h -8.42774 C 274.96418,96.861432 274.90519,61.116892 274.85619,25.677512 274.84438,16.986442 274.83165,8.4161503 274.81893,0 Z m 20.32365,0 h 4.22273 c 0.0771,41.000001 0.17907,86.326318 0.29029,130 h -4.41362 l -0.0104,-20.42244 C 295.21062,71.385673 295.18021,33.974642 295.14276,0 Z m 8.09482,0 h 8.36384 l 0.0559,39.114592 c 0.0481,33.516702 0.0953,63.742378 0.14294,90.885408 h -8.35761 C 303.39061,87.510675 303.31939,42.336159 303.2374,0 Z m 12.13471,0 h 4.32572 c 0.06,38.714213 0.14658,82.48155 0.25834,130 h -4.25114 C 315.60854,87.05059 315.49314,41.995096 315.37211,0 Z m 20.4595,0 h 4.29018 c 0.0685,46.129221 0.14994,90.064749 0.2388,130 h -4.26623 c -0.0286,-15.47663 -0.06,-32.060941 -0.095,-49.819458 C 335.94437,52.264072 335.88788,25.293328 335.83161,0 Z m 16.32372,0 h 4.30704 c 0.0673,43.546662 0.15985,88.15807 0.26543,130 h -4.32304 c -0.091,-42.033142 -0.18053,-88.208411 -0.24943,-130 z m 16.2749,0 h 4.42335 c 0.0794,41.847003 0.1878,86.929814 0.30801,130 h -4.3958 C 368.64144,84.879725 368.52372,39.048448 368.43023,0 Z m 8.2049,0 h 8.51119 c 0.0866,41.599789 0.20039,86.751478 0.32487,130 h -8.49787 C 376.84834,85.244203 376.7303,39.618576 376.63513,0 Z m 16.47198,0 h 8.40728 c 0.13799,50.477196 0.2582,93.448846 0.36487,130 h -8.50495 c -0.0734,-42.62571 -0.16667,-88.040807 -0.2672,-130 z m 12.18974,0 h 16.78176 c 0.0327,12.139361 0.0686,24.922606 0.10745,38.360078 0.0995,34.457943 0.18661,64.843422 0.26451,91.639922 h -16.79953 c -0.0273,-9.32461 -0.0567,-19.07243 -0.087,-29.25595 C 405.46652,67.956307 405.37348,32.635751 405.29685,0 Z m 24.69819,0 h 8.53959 c 0.0971,42.013241 0.22003,87.051762 0.35419,130 h -8.53604 C 430.29019,106.30097 430.2232,81.378752 430.15394,55.92055 430.09949,35.904536 430.04645,17.279702 429.99504,0 Z m 12.25811,0 h 4.51833 c 0.1174,43.243645 0.2398,90.540247 0.33024,128.11361 0,0.63023 0.005,1.25968 0.005,1.88639 h -4.48103 C 442.48912,87.197123 442.35545,40.523527 442.25328,0 Z m 12.3016,0 h 12.74369 c 0.11885,41.529548 0.25815,88.334262 0.38791,130 H 454.9782 C 454.8364,86.647285 454.68591,40.430068 454.55475,0 Z m 24.63606,0 h 4.38785 c 0.11199,41.503987 0.24729,87.074395 0.38523,130 h -4.34522 C 479.50764,92.364977 479.36497,49.132452 479.19081,0 Z m 8.16763,0 h 4.40562 c 0.10867,39.831449 0.24388,83.966191 0.40032,130 h -4.37363 C 487.6774,92.819012 487.53374,49.703753 487.35844,0 Z" />
</svg>