<svg id="BRICOMARCHE" width="500" height="130" viewBox="0 0 500 130" version="1.1" xml:space="preserve" xmlns:xlink="http://www.w3.org/1999/xlink" xmlns="http://www.w3.org/2000/svg" xmlns:svg="http://www.w3.org/2000/svg">
	<path id="3250390229123859242" style="fill:#000000;stroke:#000000;stroke-width:0" d="m 493.58973,0 h 6.41026 v 130 h -6.41026 z m -6.41025,0 h 3.20513 v 130 h -3.20513 z m -12.82049,0 h 9.61538 v 130 h -9.61538 z m -16.02567,0 h 6.41026 v 130 h -6.41026 z m -19.23077,0 h 6.41025 v 130 h -6.41025 z m -9.61536,0 h 3.20513 v 130 h -3.20513 z m -6.41028,0 h 3.20513 v 130 h -3.20513 z m -6.41025,0 h 3.20513 v 130 h -3.20513 z m -16.02563,0 h 9.61539 v 130 h -9.61539 z m -12.8205,0 h 6.41026 v 130 h -6.41026 z M 371.7949,0 h 12.82051 V 130 H 371.7949 Z m -6.41028,0 h 3.20513 v 130 h -3.20513 z m -12.82049,0 h 9.61538 v 130 h -9.61538 z M 339.7436,0 h 6.41026 v 130 h -6.41026 z m -9.61539,0 h 3.20513 v 130 h -3.20513 z m -12.82049,0 h 9.61538 v 130 h -9.61538 z m -6.41025,0 h 3.20513 v 130 h -3.20513 z m -9.61539,0 h 6.41026 v 130 h -6.41026 z m -19.23077,0 h 9.61538 v 130 h -9.61538 z m -6.41028,0 h 3.20513 v 130 h -3.20513 z M 259.6154,0 h 6.41025 v 130 h -6.41025 z m -12.8205,0 h 3.20513 v 130 h -3.20513 z m -16.02565,0 h 9.61538 v 130 h -9.61538 z m -12.82051,0 h 6.41026 v 130 h -6.41026 z m -6.41026,0 h 3.20512 v 130 h -3.20512 z m -6.41027,0 h 3.20513 v 130 h -3.20513 z M 192.3077,0 h 6.41026 v 130 h -6.41026 z m -16.02563,0 h 9.61538 v 130 h -9.61538 z m -9.61539,0 h 6.41026 v 130 h -6.41026 z m -12.82051,0 h 6.41026 v 130 h -6.41026 z m -12.82051,0 h 6.41026 v 130 h -6.41026 z m -12.82053,0 h 3.20513 v 130 h -3.20513 z m -12.82051,0 h 3.20513 v 130 h -3.20513 z m -9.61538,0 h 6.41026 v 130 h -6.41026 z M 92.948729,0 h 9.615391 v 130 h -9.615391 z m -6.41026,0 h 3.20513 v 130 h -3.20513 z M 70.512825,0 h 6.410257 v 130 h -6.410257 z m -9.615387,0 h 6.410257 v 130 h -6.410257 z m -9.615387,0 h 6.410257 V 130 H 51.282051 Z M 35.256412,0 h 6.410257 V 130 H 35.256412 Z M 19.23077,0 h 9.615385 V 130 H 19.23077 Z M 9.615385,0 h 3.205128 V 130 H 9.615385 Z M 0,0 H 6.410257 V 130 H 0 Z" />
</svg>