<svg id="BYTOM" width="500" height="500" viewBox="0 0 500 500" version="1.1" xml:space="preserve" xmlns:xlink="http://www.w3.org/1999/xlink" xmlns="http://www.w3.org/2000/svg" xmlns:svg="http://www.w3.org/2000/svg">
	<path id="9550192265882" style="fill:#000000;stroke:#000000;stroke-width:0" d="m 119.06009,428.55442 v -23.80725 -18.76012 c 0,-2.78545 -2.26169,-5.07095 -5.07095,-5.07095 H 52.685459 c -2.785449,0 -5.070946,2.26169 -5.070946,5.07095 v 18.76012 23.80725 18.76012 c 0,2.78545 2.261689,5.07095 5.070946,5.07095 h 61.303681 c 2.78545,0 5.07095,-2.26169 5.07095,-5.07095 z M 5.0709456,333.30159 C 2.2854966,333.30159 0,335.58709 0,338.37254 v 18.76011 23.80726 23.80726 23.80725 23.80726 23.80726 18.76011 C 0,497.7145 2.2616894,500 5.0709456,500 H 161.62746 c 2.78545,0 5.07095,-2.26169 5.07095,-5.07095 v -18.76011 -23.80726 -23.80726 -23.80725 -23.80726 -23.80726 -18.76011 c 0,-2.78545 -2.26169,-5.07095 -5.07095,-5.07095 H 5.0709456 Z M 142.86735,380.93991 v 23.80726 23.80725 23.80726 20.90277 c 0,1.61889 -1.3094,2.90449 -2.90449,2.90449 H 26.735549 c -1.618893,0 -2.904485,-1.3094 -2.904485,-2.90449 v -20.90277 -23.80726 -23.80725 -23.80726 -20.90277 c 0,-1.61889 1.309399,-2.90449 2.904485,-2.90449 H 139.96286 c 1.61889,0 2.90449,1.3094 2.90449,2.90449 z M 452.36168,95.252833 V 71.445577 52.685459 c 0,-2.785449 -2.26169,-5.070946 -5.07095,-5.070946 h -61.30368 c -2.78545,0 -5.07095,2.261689 -5.07095,5.070946 v 18.760118 23.807256 18.760117 c 0,2.78545 2.26169,5.07095 5.07095,5.07095 h 61.30368 c 2.78545,0 5.07095,-2.26169 5.07095,-5.07095 z M 338.37254,0 c -2.78545,0 -5.07095,2.2854966 -5.07095,5.0709456 v 18.7601184 23.807256 23.807257 23.807256 23.807257 23.80726 18.76011 c 0,2.78545 2.26169,5.07095 5.07095,5.07095 h 156.55651 c 2.78545,0 5.07095,-2.26169 5.07095,-5.07095 V 142.86735 119.06009 95.252833 71.445577 47.63832 23.831064 5.0709456 C 500,2.2854966 497.73831,0 494.92905,0 Z m 137.7964,47.63832 v 23.807257 23.807256 23.807257 20.90277 c 0,1.61889 -1.3094,2.90449 -2.90449,2.90449 H 360.03714 c -1.61889,0 -2.90449,-1.3094 -2.90449,-2.90449 V 119.06009 95.252833 71.445577 47.63832 26.735549 c 0,-1.618893 1.3094,-2.904485 2.90449,-2.904485 h 113.22731 c 1.61889,0 2.90449,1.309399 2.90449,2.904485 z M 119.06009,95.252833 V 71.445577 52.685459 c 0,-2.785449 -2.26169,-5.070946 -5.07095,-5.070946 H 52.685459 c -2.785449,0 -5.070946,2.261689 -5.070946,5.070946 v 18.760118 23.807256 18.760117 c 0,2.78545 2.261689,5.07095 5.070946,5.07095 h 61.303681 c 2.78545,0 5.07095,-2.26169 5.07095,-5.07095 z M 5.0709456,0 C 2.2854966,0 0,2.2854966 0,5.0709456 v 18.7601184 23.807256 23.807257 23.807256 23.807257 23.80726 18.76011 c 0,2.78545 2.2616894,5.07095 5.0709456,5.07095 H 161.62746 c 2.78545,0 5.07095,-2.26169 5.07095,-5.07095 V 142.86735 119.06009 95.252833 71.445577 47.63832 23.831064 5.0709456 C 166.69841,2.2854966 164.43672,0 161.62746,0 Z M 142.86735,47.63832 v 23.807257 23.807256 23.807257 20.90277 c 0,1.61889 -1.3094,2.90449 -2.90449,2.90449 H 26.735549 c -1.618893,0 -2.904485,-1.3094 -2.904485,-2.90449 V 119.06009 95.252833 71.445577 47.63832 26.735549 c 0,-1.618893 1.309399,-2.904485 2.904485,-2.904485 H 139.96286 c 1.61889,0 2.90449,1.309399 2.90449,2.904485 z m 285.68707,428.53062 h 23.80726 v 23.80725 h -23.80726 z m -23.80725,0 h 23.80725 v 23.80725 h -23.80725 z m -47.61452,0 h 23.80726 v 23.80725 h -23.80726 z m -47.61451,0 h 23.80726 v 23.80725 h -23.80726 z m -47.61451,0 h 23.80725 v 23.80725 h -23.80725 z m -47.61451,0 h 23.80725 v 23.80725 h -23.80725 z m -23.80726,0 h 23.80726 v 23.80725 h -23.80726 z m 261.87982,-23.80726 h 23.80726 v 23.80726 h -23.80726 z m -71.42177,0 h 23.80726 v 23.80726 h -23.80726 z m -142.84354,0 h 23.80726 v 23.80726 h -23.80726 z m -47.61451,0 h 23.80726 v 23.80726 h -23.80726 z m 166.65079,-23.80726 h 23.80726 v 23.80726 h -23.80726 z m -47.61451,0 h 23.80726 v 23.80726 h -23.80726 z m -47.61451,0 h 23.80725 v 23.80726 h -23.80725 z m -23.80726,0 h 23.80726 v 23.80726 h -23.80726 z m -23.80725,0 h 23.80725 v 23.80726 h -23.80725 z m -23.80726,0 h 23.80726 v 23.80726 h -23.80726 z m 238.07256,-23.80725 h 23.80726 v 23.80725 h -23.80726 z m -71.42177,0 h 23.80726 v 23.80725 h -23.80726 z m -71.42177,0 h 23.80726 v 23.80725 h -23.80726 z m -47.61451,0 h 23.80726 v 23.80725 h -23.80726 z m -47.61451,0 h 23.80726 v 23.80725 h -23.80726 z m 190.45805,-23.80726 h 23.80726 v 23.80726 h -23.80726 z m -23.80726,0 h 23.80726 v 23.80726 h -23.80726 z m -71.42177,0 h 23.80726 v 23.80726 h -23.80726 z m -95.22902,0 h 23.80726 v 23.80726 h -23.80726 z m 285.68708,-23.80726 h 23.80725 v 23.80726 h -23.80725 z m -23.80726,0 h 23.80726 v 23.80726 h -23.80726 z m -47.61451,0 h 23.80725 v 23.80726 h -23.80725 z m -47.61452,0 h 23.80726 v 23.80726 h -23.80726 z m -23.80725,0 h 23.80725 v 23.80726 H 333.3254 Z m -23.80726,0 h 23.80726 v 23.80726 h -23.80726 z m -23.80726,0 h 23.80726 v 23.80726 h -23.80726 z m -23.80725,0 h 23.80725 v 23.80726 h -23.80725 z m -47.61451,0 h 23.80725 v 23.80726 H 214.28912 Z M 452.36168,333.3254 h 23.80726 v 23.80725 h -23.80726 z m -23.80726,0 h 23.80726 v 23.80725 h -23.80726 z m -71.42177,0 h 23.80726 v 23.80725 h -23.80726 z m -23.80725,0 h 23.80725 v 23.80725 H 333.3254 Z m -47.61452,0 h 23.80726 v 23.80725 h -23.80726 z m -47.61451,0 h 23.80726 v 23.80725 h -23.80726 z m -23.80725,0 h 23.80725 v 23.80725 h -23.80725 z m -23.80726,0 h 23.80726 v 23.80725 h -23.80726 z m 285.68708,-23.80726 h 23.80725 v 23.80726 h -23.80725 z m -23.80726,0 h 23.80726 v 23.80726 h -23.80726 z m -47.61451,0 h 23.80725 v 23.80726 h -23.80725 z m -47.61452,0 h 23.80726 v 23.80726 h -23.80726 z m -23.80725,0 h 23.80725 V 333.3254 H 333.3254 Z m -23.80726,0 h 23.80726 v 23.80726 h -23.80726 z m -23.80726,0 h 23.80726 v 23.80726 h -23.80726 z m -23.80725,0 h 23.80725 v 23.80726 h -23.80725 z m -71.42177,0 h 23.80726 v 23.80726 h -23.80726 z m 285.68708,-23.80726 h 23.80725 v 23.80726 h -23.80725 z m -47.61452,0 h 23.80726 v 23.80726 h -23.80726 z m -47.61451,0 h 23.80726 v 23.80726 h -23.80726 z m -71.42177,0 h 23.80726 v 23.80726 h -23.80726 z m -47.61451,0 h 23.80725 v 23.80726 h -23.80725 z m -47.61451,0 h 23.80725 v 23.80726 h -23.80725 z m -23.80726,0 h 23.80726 v 23.80726 h -23.80726 z m -47.61451,0 h 23.80725 v 23.80726 h -23.80725 z m -23.80726,0 h 23.80726 v 23.80726 h -23.80726 z m -71.42177,0 h 23.807257 v 23.80726 H 47.63832 Z m -23.807256,0 H 47.63832 v 23.80726 H 23.831064 Z M 476.16894,261.90363 h 23.80725 v 23.80725 h -23.80725 z m -23.80726,0 h 23.80726 v 23.80725 h -23.80726 z m -23.80726,0 h 23.80726 v 23.80725 h -23.80726 z m -23.80725,0 h 23.80725 v 23.80725 h -23.80725 z m -23.80726,0 h 23.80726 v 23.80725 h -23.80726 z m -23.80726,0 h 23.80726 v 23.80725 h -23.80726 z m -119.03628,0 h 23.80726 v 23.80725 h -23.80726 z m -23.80725,0 h 23.80725 v 23.80725 h -23.80725 z m -23.80726,0 h 23.80726 v 23.80725 h -23.80726 z m -23.80726,0 h 23.80726 v 23.80725 H 166.6746 Z m -47.61451,0 h 23.80726 v 23.80725 h -23.80726 z m -47.614513,0 h 23.807256 v 23.80725 H 71.445577 Z m -23.807257,0 h 23.807257 v 23.80725 H 47.63832 Z m -23.807256,0 H 47.63832 v 23.80725 H 23.831064 Z m -23.80725674,0 H 23.831064 v 23.80725 H 0.02380726 Z M 476.16894,238.09637 h 23.80725 v 23.80726 h -23.80725 z m -47.61452,0 h 23.80726 v 23.80726 h -23.80726 z m -47.61451,0 h 23.80726 v 23.80726 h -23.80726 z m -71.42177,0 h 23.80726 v 23.80726 h -23.80726 z m -47.61451,0 h 23.80725 v 23.80726 h -23.80725 z m -23.80726,0 h 23.80726 v 23.80726 h -23.80726 z m -23.80725,0 h 23.80725 v 23.80726 h -23.80725 z m -47.61452,0 h 23.80726 v 23.80726 H 166.6746 Z m -23.80725,0 h 23.80725 v 23.80726 h -23.80725 z m -47.614517,0 h 23.807257 v 23.80726 H 95.252833 Z m -47.614513,0 h 23.807257 v 23.80726 H 47.63832 Z m -47.61451274,0 H 23.831064 v 23.80726 H 0.02380726 Z M 476.16894,214.28912 h 23.80725 v 23.80725 h -23.80725 z m -23.80726,0 h 23.80726 v 23.80725 h -23.80726 z m -23.80726,0 h 23.80726 v 23.80725 h -23.80726 z m -71.42177,0 h 23.80726 v 23.80725 h -23.80726 z m -71.42177,0 h 23.80726 v 23.80725 h -23.80726 z m -71.42176,0 h 23.80725 v 23.80725 h -23.80725 z m -47.61452,0 h 23.80726 v 23.80725 H 166.6746 Z m -119.03628,0 h 23.807257 v 23.80725 H 47.63832 Z m -47.61451274,0 H 23.831064 v 23.80725 H 0.02380726 Z M 452.36168,190.48186 h 23.80726 v 23.80726 h -23.80726 z m -47.61451,0 h 23.80725 v 23.80726 h -23.80725 z m -47.61452,0 h 23.80726 v 23.80726 h -23.80726 z m -47.61451,0 h 23.80726 v 23.80726 h -23.80726 z m -23.80726,0 h 23.80726 v 23.80726 h -23.80726 z m -71.42176,0 h 23.80725 v 23.80726 h -23.80725 z m -23.80726,0 h 23.80726 v 23.80726 h -23.80726 z m -23.80726,0 h 23.80726 v 23.80726 H 166.6746 Z m -23.80725,0 h 23.80725 v 23.80726 h -23.80725 z m -47.614517,0 h 23.807257 v 23.80726 H 95.252833 Z m -23.807256,0 h 23.807256 v 23.80726 H 71.445577 Z m -23.807257,0 h 23.807257 v 23.80726 H 47.63832 Z m -23.807256,0 H 47.63832 v 23.80726 H 23.831064 Z m -23.80725674,0 H 23.831064 v 23.80726 H 0.02380726 Z M 285.71088,166.6746 h 23.80726 v 23.80726 h -23.80726 z m -23.80725,0 h 23.80725 v 23.80726 h -23.80725 z m -23.80726,0 h 23.80726 v 23.80726 h -23.80726 z m 47.61451,-23.80725 h 23.80726 v 23.80725 h -23.80726 z m -47.61451,0 h 23.80726 v 23.80725 h -23.80726 z m -47.61451,0 h 23.80726 v 23.80725 h -23.80726 z m 95.22902,-23.80726 h 23.80726 v 23.80726 h -23.80726 z m -47.61451,0 h 23.80726 v 23.80726 h -23.80726 z m -23.80725,0 h 23.80725 v 23.80726 h -23.80725 z m -23.80726,0 h 23.80726 v 23.80726 h -23.80726 z m 95.22902,-23.807257 h 23.80726 v 23.807257 h -23.80726 z m -23.80725,0 h 23.80725 v 23.807257 h -23.80725 z m -23.80726,0 h 23.80726 v 23.807257 h -23.80726 z m 23.80726,-23.807256 h 23.80725 v 23.807256 h -23.80725 z m -71.42177,0 h 23.80726 V 95.252833 H 190.48186 Z M 214.28912,47.63832 h 23.80725 v 23.807257 h -23.80725 z m 47.61451,-23.807256 h 23.80725 V 47.63832 h -23.80725 z m -71.42177,0 h 23.80726 V 47.63832 H 190.48186 Z M 214.28912,0.02380726 h 23.80725 V 23.831064 h -23.80725 z m 71.42176,0 h 23.80726 V 23.831064 h -23.80726 z" />
</svg>