<svg id="CARREFOUR" width="500" height="500" viewBox="0 0 500 500" version="1.1" xml:space="preserve" xmlns:xlink="http://www.w3.org/1999/xlink" xmlns="http://www.w3.org/2000/svg" xmlns:svg="http://www.w3.org/2000/svg">
	<path id="0400136056597" style="fill:#000000;stroke:#000000;stroke-width:0" d="m 1.4899857,498.98546 -1.38079569,-0.88282 0.28475354,-51.43646 0.28475347,-51.43638 52.30528598,-0.2846 52.305337,-0.28498 0.29616,47.9568 0.29666,47.9568 -0.54792,4.38361 -0.54797,4.38368 -50.957935,0.26344 -50.9579365,0.26343 z m 86.6641633,-14.36492 2.93415,-1.11561 v -36.6229 -36.62294 l -1.733424,-0.6652 -1.733425,-0.66519 H 52.159906 16.698463 l -0.588197,0.95176 -0.588197,0.95172 -0.0787,35.85736 -0.07869,35.85736 1.197777,1.44329 1.197777,1.44328 33.730036,0.15119 33.730037,0.15118 z m -56.585598,-16.12479 -0.753096,-0.75307 v -21.07041 -21.07038 l 1.733424,-0.66523 1.733476,-0.6652 h 19.501838 19.501834 l 1.254728,1.51192 1.254675,1.51189 -0.298734,20.68033 -0.298734,20.68029 -21.438265,0.29669 -21.438314,0.29669 z m 90.719729,30.06089 -0.55367,-1.44299 0.29303,-28.47575 0.29302,-28.47572 5.99406,-0.33978 5.99406,-0.33978 1.3807,-1.14591 1.38074,-1.14596 -0.12272,-5.43824 -0.12268,-5.43822 1.04587,-1.04594 1.04593,-1.04591 21.29029,0.2982 21.29035,0.29821 0.33445,5.84247 0.33445,5.84251 -1.23904,1.49291 -1.23899,1.49299 -13.0283,-0.0265 -13.02836,-0.0265 -1.13518,0.70164 -1.13523,0.70163 v 6.51076 6.51077 h -6.44108 -6.44102 l -1.20575,1.45289 -1.20569,1.45285 -0.29821,21.28735 -0.2982,21.28728 -6.31455,0.3292 -6.31448,0.3289 z m 30.29306,-0.16101 -1.26954,-1.52984 0.29874,-20.68029 0.29873,-20.68037 13.62867,-0.30916 13.62871,-0.30917 1.38753,-1.15158 1.38753,-1.15158 0.32617,-6.21049 0.32617,-6.21044 h 14.24632 14.24633 v 6.57547 6.57547 l -6.35187,0.56512 -6.35181,0.56515 -1.02854,1.62667 -1.02847,1.62671 v 12.05503 12.05503 l 0.91261,1.43917 0.91266,1.43924 5.88813,0.50173 5.88813,0.50174 0.91624,0.91627 0.91623,0.91627 -0.33653,5.91001 -0.33653,5.91004 -28.61752,0.29216 -28.61757,0.29216 z m 28.0943,-14.20713 1.36982,-0.86695 v -5.74363 -5.74368 l -1.31505,-1.31508 -1.31504,-1.31509 h -5.04102 -5.04097 l -1.31504,1.31509 -1.31504,1.31508 v 5.58921 5.58912 l 1.11556,1.11561 1.11551,1.11552 5.18572,-0.0941 5.18568,-0.0941 z m 62.96712,14.39542 -1.32446,-1.32453 v -5.8083 -5.80834 l 0.8219,-0.14514 0.8219,-0.14513 5.80478,-0.23547 5.80478,-0.23546 1.01988,-1.01994 1.01989,-1.01987 0.29873,-21.34001 0.29873,-21.34 6.8154,-0.32504 6.81539,-0.32504 0.56666,2.5172 0.56672,2.5172 0.2889,4.93165 0.28891,4.93156 6.57522,0.54796 6.57522,0.54791 0.32617,6.84949 0.32617,6.84945 h -6.00131 -6.00126 l -1.84365,1.84373 -1.84364,1.84373 0.67999,4.96142 0.68004,4.96146 1.11188,1.11194 1.11194,1.11197 5.49756,0.0189 5.49755,0.0189 1.03433,-1.63608 1.03433,-1.63616 0.0155,-5.75354 0.0155,-5.75353 h 7.12313 7.12314 l 0.0155,5.75353 0.0155,5.75354 0.96552,1.52481 0.96552,1.52482 9.70244,0.46235 9.70238,0.46238 4.38349,-0.93464 4.3835,-0.93456 0.54791,-6.53189 0.54792,-6.53193 6.47359,-0.33411 6.47358,-0.33411 0.90677,1.42972 0.90675,1.42972 0.0155,5.14095 0.0155,5.14087 1.36987,0.8866 1.36982,0.8866 1.6438,0.11188 1.6438,0.11187 4.16181,0.16214 4.1618,0.16215 -0.32617,6.84945 -0.32618,6.84948 -58.67439,0.28309 -58.67444,0.28308 z m 136.43764,0.62291 -0.77844,-0.77843 v -5.62568 -5.62567 l -1.31501,-1.31509 -1.31506,-1.31512 h -6.35606 -6.35601 v -14.79481 -14.79481 h 6.35601 6.35606 l 1.31506,-1.31509 1.31501,-1.31512 v -5.6911 -5.69103 l -1.73341,-0.66519 -1.73342,-0.66524 h -5.17055 -5.17056 l -1.31504,1.31509 -1.31504,1.31509 v 5.84016 5.84012 l -14.52026,-0.30614 -14.5203,-0.30614 -0.33653,-6.02755 -0.33653,-6.02748 -0.79612,-0.80413 -0.79607,-0.8041 -5.44236,-0.17045 -5.44242,-0.17046 -1.19332,-0.93086 -1.19333,-0.93086 -0.2428,-12.97413 -0.24283,-12.97425 1.46923,-1.21935 1.46922,-1.21939 5.99406,-0.33978 5.99406,-0.33978 0.33392,-6.47384 0.33392,-6.4738 -1.42966,-0.90682 -1.42967,-0.90683 -4.98619,-0.0151 -4.98619,-0.0151 -1.31505,-1.31513 -1.31504,-1.31508 v -4.07482 -4.0749 l 0.66518,-1.73348 0.66519,-1.73348 h 14.10814 14.10819 l 0.57256,2.4658 0.57251,2.4658 0.27027,12.05499 0.27028,12.05507 h 7.12313 7.12314 l 0.54797,-21.91827 0.54792,-21.91821 21.91738,-0.54794 21.91741,-0.54799 v -7.12341 -7.12341 l -6.5752,-0.54799 -6.57525,-0.54794 -0.30614,-14.52082 -0.30614,-14.52087 0.85368,-0.10874 0.85372,-0.10873 4.89899,-0.41472 4.89898,-0.41472 1.45489,-0.55835 1.45493,-0.55834 -0.32655,-6.86366 -0.32655,-6.8636 -5.99407,-0.33963 -5.99406,-0.33963 -1.12914,-0.9332 -1.12906,-0.93319 0.54792,-13.52202 0.54796,-13.52202 h 6.57524 6.57521 l 0.32617,6.2104 0.32618,6.21046 1.35107,1.12135 1.35106,1.12134 5.99407,0.33967 5.99407,0.33963 0.54792,21.91823 0.54795,21.91827 h 7.12317 7.12312 l 0.54796,-14.13918 0.54792,-14.13918 1.85484,-0.65563 1.85484,-0.65563 12.39149,0.54794 12.39141,0.54793 v 6.57548 6.57547 l -5.99403,0.33966 -5.99407,0.33963 -1.40307,1.16448 -1.40304,1.16449 v 20.46892 20.46898 l 1.31501,1.3151 1.31505,1.31509 h 5.67394 5.67398 l 1.19467,-1.43956 1.19468,-1.43956 0.30954,-13.62925 0.30954,-13.62925 12.995,-0.30961 12.99501,-0.30962 1.52526,1.2659 1.52523,1.26591 v 5.21119 5.2112 l -1.40307,1.16448 -1.40304,1.16447 -5.99407,0.33963 -5.99406,0.33963 -0.30841,13.5448 -0.30841,13.5448 1.22158,1.47203 1.22165,1.47197 6.21015,0.32618 6.21022,0.32617 v 6.57547 6.57547 h -14.24633 -14.24625 l -0.33978,-5.99429 -0.33978,-5.99429 -1.16444,-1.40311 -1.16443,-1.40312 H 455.00267 442.2056 l -1.31505,1.31509 -1.31505,1.31512 v 5.67413 5.67421 l 1.58794,1.31792 1.58796,1.31788 4.16539,-0.19427 4.16534,-0.19426 1.36985,0.1062 1.36982,0.10621 v 5.38998 5.38991 l 0.66515,1.73348 0.6652,1.73348 h 13.362 13.36191 l 1.31505,1.31509 1.31505,1.31508 v 5.69114 5.69106 l -1.73344,0.6652 -1.73341,0.66519 h -4.62266 -4.62255 l -1.31505,1.31513 -1.31505,1.31509 v 5.73445 5.73452 l -1.91781,0.48306 -1.91777,0.48254 -3.69041,0.16629 -3.69044,0.1663 -1.51495,-1.25737 -1.51495,-1.2573 v -4.70781 -4.70778 l -0.6652,-1.73348 -0.66516,-1.73352 h -6.3933 -6.3933 l -0.79751,1.29048 -0.79752,1.29044 0.21241,12.13444 0.21241,12.13451 -0.95071,1.42972 -0.9507,1.42972 -6.47361,-0.33411 -6.47354,-0.33411 -0.54796,-6.57547 -0.54792,-6.57547 h -14.79424 -14.79425 l -0.33449,5.84247 -0.33449,5.84258 1.24729,1.50293 1.24728,1.50286 6.21022,0.32617 6.21018,0.32617 v 14.24686 14.24689 l -6.21018,0.32617 -6.21022,0.32617 -1.12127,1.35118 -1.12131,1.35111 -0.33978,5.99429 -0.33978,5.99433 -6.0708,0.32202 -6.07079,0.32201 z m 43.90239,-96.71206 0.29821,-21.22889 -1.25416,-1.51128 -1.25416,-1.51125 h -20.64885 -20.64874 l -1.13442,2.11979 -1.13447,2.11975 v 19.57931 19.57924 l 1.33743,1.33746 1.33738,1.3375 21.40192,-0.29632 21.40189,-0.29631 z m -28.58767,5.664 -0.53832,-0.87375 -0.21732,-3.83566 -0.21732,-3.83573 0.11111,-2.51811 0.11074,-2.51811 6.84923,0.32618 6.84918,0.32617 v 6.57547 6.57547 l -6.20454,0.3258 -6.20459,0.32579 z m 43.00998,-45.71717 1.2904,-1.55492 -0.33448,-5.84249 -0.33449,-5.84249 h -7.12313 -7.12316 l -0.33449,5.84249 -0.33449,5.84249 1.29041,1.55492 1.2904,1.55491 h 5.21099 5.21099 z m 2.39089,135.95516 -1.29279,-1.55781 0.30955,-12.99549 0.30954,-12.99552 5.90975,-0.33638 5.90986,-0.33676 1.15974,1.15983 1.15983,1.15986 -0.29405,4.77864 -0.29405,4.77865 1.74512,1.7452 1.74513,1.74519 4.62958,-0.46911 4.62958,-0.46908 1.42965,0.89488 1.42968,0.89499 -0.33411,6.4738 -0.33411,6.47381 -13.26331,0.30651 -13.26324,0.30652 z m -212.36434,-15.21981 -0.8655,-1.36993 -0.21332,-11.45768 -0.21331,-11.45767 1.08097,-2.01993 1.08103,-2.01993 6.2345,0.32655 6.23449,0.32655 0.306,14.52083 0.30599,14.52083 h -6.54239 -6.54235 z m 257.64011,0.14853 -0.75474,-1.22128 -0.24264,-4.73129 -0.24303,-4.73128 0.76056,-1.23073 0.76063,-1.23069 6.47357,0.33411 6.47354,0.33411 0.35037,4.27922 0.34998,4.27914 -0.64505,2.57023 -0.64509,2.57027 h -5.94172 -5.94172 z m -182.44867,-14.55069 -0.52193,-0.52195 0.56687,-6.37383 0.56687,-6.37395 h 6.57521 6.57522 v 6.57551 6.57543 l -6.62016,0.3205 -6.6202,0.32051 z m 181.56626,-16.59828 -0.68391,-1.78228 v -3.27016 -3.27016 l 1.13447,-2.11975 1.13442,-2.11978 5.16681,0.0151 5.16684,0.0151 1.43297,0.90887 1.43305,0.90886 -0.33714,5.9238 -0.33713,5.92381 -6.71328,0.32239 -6.71316,0.3224 z m -241.53431,-13.91577 -1.2055,-1.45259 -0.33962,-5.99429 -0.33963,-5.99429 -6.35731,-0.33033 -6.35725,-0.33033 -0.6396,-1.66681 -0.63961,-1.66681 -0.0937,-5.67421 -0.0937,-5.67428 12.56995,-0.31786 12.56995,-0.31785 2.49734,0.62082 2.49729,0.62083 -0.30546,14.49207 -0.30546,14.49199 -6.12603,0.32353 -6.12603,0.32352 z m 29.97424,0.51908 -0.62662,-0.62665 v -13.38206 -13.38209 l -1.40305,-1.16448 -1.40306,-1.16447 -5.99406,-0.33978 -5.99406,-0.33978 -0.32618,-6.21044 -0.32617,-6.21048 -1.38758,-1.15159 -1.38752,-1.15158 -13.62867,-0.30954 -13.62872,-0.30955 0.16048,-5.47952 0.16048,-5.47956 0.11338,-1.36993 0.11339,-1.36985 h 5.38971 5.38976 l 1.73343,-0.66523 1.73342,-0.6652 v -13.36245 -13.3625 l 1.31504,-1.3151 1.31505,-1.31509 h 5.12597 5.12598 l 1.16444,1.40311 1.16443,1.40311 0.33963,5.9943 0.33963,5.99429 6.54886,0.336 6.54892,0.33604 0.74098,1.19896 0.74098,1.19902 0.14495,13.21858 0.14547,13.21855 1.33182,0.84639 1.33182,0.84631 4.5792,0.0151 4.57914,0.0151 1.72209,-1.72211 1.72209,-1.72214 v -13.0998 -13.0998 l -2.96584,-1.12767 -2.96589,-1.12767 -2.78743,0.17499 -2.78747,0.175 -1.97008,-0.116 -1.97009,-0.11599 0.32618,-6.84947 0.32617,-6.84942 h 21.91737 21.91738 l 0.33445,5.8425 0.33445,5.84248 -1.15341,1.38986 -1.15341,1.38981 -4.1123,-0.21022 -4.11236,-0.21022 -2.19172,0.77317 -2.19173,0.77321 -0.54796,21.79416 -0.54792,21.79423 -5.99406,0.33977 -5.99407,0.33978 -1.40305,1.16448 -1.40306,1.16447 v 5.12621 5.12614 l 1.31504,1.31508 1.31505,1.31516 h 4.62263 4.62259 l 1.73342,0.6652 1.73343,0.6652 v 5.7761 5.7761 l -1.51583,1.25805 -1.51582,1.25806 -12.6518,-0.13191 -12.65176,-0.13191 z m -90.82208,-15.20769 -0.76174,-0.76176 v -14.06423 -14.06418 h 7.12313 7.12319 v 5.89334 5.8933 l 1.40306,1.16447 1.40305,1.16448 5.99406,0.33978 5.99407,0.33977 v 7.12351 7.12339 l -13.75857,0.305 -13.75856,0.30501 z m -45.19028,-15.81339 -0.72312,-1.17006 -0.0704,-5.40726 -0.0704,-5.40722 0.48615,-0.4862 0.48615,-0.48616 13.11901,-0.12056 13.11901,-0.12057 1.36982,0.0605 1.36982,0.0605 v 5.80838 5.8083 l -1.31505,1.31509 -1.31504,1.31512 h -12.86656 -12.86662 z m 75.1129,-5.79961 v -7.07433 l 6.13603,-0.3753 6.13602,-0.37531 1.04696,0.64962 1.04696,0.64963 -0.33392,6.4738 -0.33392,6.47384 -6.8492,0.32617 -6.84915,0.32618 z m -90.22658,-9.10367 -0.73063,-0.73058 v -5.08747 -5.08744 l -1.36982,-1.83193 -1.36982,-1.83186 -13.69835,-0.29556 -13.698403,-0.29564 v -6.57547 -6.57548 l 5.99406,-0.33962 5.994063,-0.33963 1.4525,-1.20554 1.45256,-1.20554 -0.32357,-6.12622 -0.3236,-6.12626 -5.994062,-0.33967 -5.994064,-0.33967 -1.452553,-1.20553 -1.452503,-1.20554 0.323603,-6.12627 0.323566,-6.12627 21.286513,-0.29824 21.28647,-0.29824 1.45281,-1.20575 1.45281,-1.20579 v -5.12618 -5.12617 l -1.31504,-1.3151 -1.31505,-1.31509 h -21.7505 -21.750515 l 0.326174,-6.84947 0.326173,-6.84948 13.885718,-0.54793 13.88572,-0.54794 0.90236,-0.9071 0.90241,-0.90716 0.55408,-6.21631 0.55408,-6.21631 14.49747,-0.30546 14.49747,-0.30546 0.29666,22.22386 0.29665,22.22391 5.99407,0.33966 5.99406,0.33963 1.40306,1.16448 1.40306,1.16448 v 5.87247 5.87242 l -2.46571,0.55378 -2.46571,0.55385 -4.93141,0.28891 -4.93142,0.2889 -0.54796,14.24683 -0.54792,14.24687 -5.99406,0.33967 -5.99406,0.33978 -1.40306,1.16447 -1.40306,1.16451 v 6.4413 6.44126 h -6.39265 -6.39257 z m 44.45116,-21.41103 0.29665,-22.24281 21.28652,-0.29824 21.28646,-0.29821 1.40084,-1.16267 1.40083,-1.16261 0.32617,-6.21046 0.32617,-6.21045 h 6.57522 6.57522 l 0.30648,13.91706 0.30648,13.91701 -1.95009,1.02888 -1.9501,1.02894 -19.6133,0.0652 -19.61331,0.0652 -0.86446,0.87945 -0.86446,0.87951 -0.34378,13.69889 -0.34379,13.6989 -7.42,0.32466 -7.41995,0.32466 z m 30.6549,15.29216 0.32618,-6.84944 h 6.57522 6.57521 l 0.32618,6.84944 0.32617,6.84949 h -7.22772 -7.22777 z m -196.74758411,-9.22386 -0.73057396,-0.7306 0.015532,-5.02294 0.015532,-5.02293 0.90675867,-1.42968 0.9067587,-1.42972 6.4735865,0.33396 6.4735342,0.33396 0.08698,5.47955 0.08698,5.47959 -0.477868,1.36987 -0.477868,1.36987 H 7.865772 1.590426 Z m 30.73215211,0.0466 -0.778413,-0.77845 v -6.39281 -6.39281 h 7.175478 7.175428 l -0.326173,6.84942 -0.326174,6.84947 -6.070788,0.32209 -6.07079,0.32164 z m 29.461635,-1.73158 -0.512039,-2.51727 v -2.19181 -2.1918 l 0.499094,-2.46581 0.499094,-2.4658 h 6.53349 6.533437 l 0.645094,2.57024 0.645044,2.57028 -0.349984,4.27919 -0.350514,4.27918 -6.815393,0.32515 -6.815394,0.32504 z m -43.714377,-12.67358 -1.96775,-0.43491 0.324102,-6.75944 0.324103,-6.75948 h 6.575215 6.575217 l 0.326174,6.84942 0.326173,6.84947 -1.97008,0.0699 -1.970028,0.0699 -3.287609,0.27493 -3.287609,0.27492 z m 29.18413,-0.87749 -0.492366,-1.28248 0.336,-5.8969 0.336,-5.89685 h 6.575215 6.57522 v 7.12341 7.12341 l -6.419329,0.0559 -6.419276,0.0559 z m 290.037814,0.63844 -2.73969,-0.66096 -0.29719,-21.569 -0.29718,-21.56895 2.50526,-0.62882 2.50531,-0.6288 4.16952,0.45924 4.16957,0.45925 0.95656,0.96457 0.95652,0.96458 0.33652,6.02753 0.33653,6.02754 14.24627,0.54793 14.24632,0.54794 v 7.12347 7.12341 l -14.24632,0.54794 -14.24627,0.54799 -0.55408,6.21631 -0.55407,6.2163 -0.86933,0.86937 -0.86928,0.8693 -3.50806,0.10201 -3.508,0.10201 z m -274.844094,-15.57776 -1.315041,-1.3151 0.0155,-4.98638 0.0155,-4.98638 0.906758,-1.42973 0.906811,-1.42972 6.473535,0.33396 6.473584,0.33396 0.334451,5.84254 0.33445,5.84249 -1.290399,1.55491 -1.290452,1.55487 h -5.125986 -5.125974 z m -60.2411053,-15.311 -1.34672877,-1.34684 v -5.12617 -5.12618 l 1.36981967,-1.13668 1.3698198,-1.13662 13.1504346,0.1807 13.150435,0.1807 v 7.12341 7.12346 l -13.173526,0.30546 -13.1734737,0.30546 z m 45.4581523,0.60054 -0.77836,-0.77839 v -5.62571 -5.62565 l -1.315041,-1.3151 -1.315046,-1.31509 h -6.35606 -6.356061 v -7.12347 -7.12341 h 5.949019 5.949018 l 1.722086,-1.72215 1.722085,-1.72215 v -13.6729 -13.67294 l 6.849152,0.32617 6.849202,0.32618 v 29.58963 29.58963 l -6.070789,0.32205 -6.070792,0.32205 z m 29.540694,-0.0466 -0.730576,-0.7306 v -5.62571 -5.62565 l 1.315046,-1.3151 1.315041,-1.31509 3.890303,0.0155 3.890356,0.0155 2.465704,0.66081 2.465708,0.66081 v 5.26208 5.26214 l -0.665186,1.7335 -0.665182,1.73349 h -6.275348 -6.275291 z m 151.539603,-0.63927 -0.0559,-1.36993 -0.59834,-4.69147 -0.59829,-4.69147 1.2789,-1.54109 1.27891,-1.54104 13.33371,0.0155 13.33377,0.0155 0.81879,1.28739 0.81885,1.2874 0.0155,4.98643 0.0155,4.98638 -1.31504,1.3151 -1.31505,1.31509 h -13.47919 -13.4792 z m 61.05908,0.63927 -0.73058,-0.7306 v -5.62571 -5.62565 l -1.31504,-1.31509 -1.31505,-1.3151 h -14.02711 -14.02716 v -14.84488 -14.84488 l 7.39712,0.32409 7.39712,0.32414 0.336,6.54916 0.336,6.54918 1.30774,0.83146 1.30774,0.83146 4.18158,0.0155 4.18153,0.0155 2.11971,-1.13445 2.1197,-1.13451 v -6.53689 -6.5369 h 6.51056 6.5105 l 0.87507,-1.36993 0.87502,-1.36987 0.55947,-6.02754 0.55946,-6.02748 6.3573,-0.33033 6.35725,-0.33033 0.52395,-1.36536 0.52389,-1.36537 0.24178,-20.40639 0.24178,-20.40633 0.65746,-0.65631 0.65748,-0.6563 35.9393,-0.0414 35.93936,-0.0414 0.87394,0.88194 0.87397,0.882 0.33638,6.02753 0.33638,6.02749 7.12313,0.54798 7.1232,0.54794 v 7.12341 7.12347 l -21.28653,0.29824 -21.28645,0.29821 -1.45281,1.20574 -1.45281,1.2058 v 5.89333 5.89333 l -0.82191,0.13565 -0.8219,0.13565 -4.3835,0.33498 -4.38344,0.33498 -1.91779,-0.54437 -1.91778,-0.54442 -0.0155,-13.35106 -0.0155,-13.35111 -0.90675,-1.42972 -0.90677,-1.42967 -6.47358,0.33395 -6.47359,0.33396 -0.30803,14.16108 -0.30807,14.16109 1.40399,0.89095 1.40399,0.8909 5.63605,0.0155 5.6361,0.0155 0.66518,1.73355 0.66514,1.73349 -0.0155,11.6914 -0.0155,11.69145 -0.90675,1.42972 -0.90677,1.42973 -6.47358,-0.33396 -6.47359,-0.33396 -0.33963,-5.99429 -0.33962,-5.9943 -1.16444,-1.40311 -1.16443,-1.40311 h -5.12598 -5.12598 l -1.31504,1.31509 -1.31505,1.31509 v 5.58915 5.58916 l 1.31505,1.31509 1.31504,1.3151 h 6.40835 6.4083 l -0.32617,6.84947 -0.32617,6.84941 -5.99406,0.33963 -5.99406,0.33967 -1.40306,1.16448 -1.40306,1.16448 v 5.77606 5.77606 l -1.73343,0.66521 -1.73347,0.66521 h -12.33019 -12.33024 z m -91.18667,-15.98291 -0.55123,-1.4365 0.29926,-20.7886 0.29926,-20.78858 5.99406,-0.33963 5.99407,-0.33967 1.40305,-1.16448 1.40306,-1.16448 -7.7e-4,-21.51007 -7.8e-4,-21.51009 21.5752,0.25992 21.57521,0.25992 0.82811,0.83612 0.82812,0.83611 0.33653,6.02754 0.33653,6.02748 21.91737,0.60665 21.91738,0.60666 0.27386,0.21539 0.2739,0.2154 v 6.45825 6.4582 l -1.73342,0.66521 -1.73342,0.66521 h -4.62259 -4.62264 l -1.31504,1.3151 -1.31504,1.31509 v 13.47972 13.47972 h -7.12318 -7.12313 v -6.53692 -6.5369 l -2.11971,-1.13451 -2.1197,-1.13445 h -4.32137 -4.32132 l -1.16443,1.40312 -1.16444,1.40311 -0.33962,5.99429 -0.33963,5.9943 -13.86465,0.30599 -13.8647,0.30599 -1.16816,1.40762 -1.16817,1.40761 -0.30909,13.62925 -0.30909,13.6292 -13.99408,0.30701 -13.99408,0.30701 z m 166.56915,-0.0102 -0.57126,-1.48875 0.31063,-13.08715 0.31064,-13.08716 h 6.57522 6.57522 v 14.24687 14.24682 l -6.31449,0.32931 -6.31454,0.32931 z M 16.203872,301.89226 15.473299,301.16165 v -6.4451 -6.4451 l 6.849202,0.32617 6.84915,0.32617 0.326173,6.84947 0.326174,6.84942 h -6.444855 -6.444852 z m 150.947418,-0.7785 -0.57908,-1.50914 0.33963,-5.34033 0.33963,-5.34032 6.84914,-0.32617 6.84921,-0.32617 0.12272,0.87423 0.12272,0.87423 0.45457,3.83567 0.45457,3.83567 -0.59773,2.46581 -0.59772,2.4658 h -6.58875 -6.58873 z M 0.90805306,286.59584 0.13114193,285.8189 v -5.7276 -5.72765 L 1.864566,273.69844 3.59799,273.03323 h 4.8689228 4.8688712 l 1.122291,2.95187 1.122239,2.95187 -0.327209,3.8976 -0.327209,3.8976 -6.6202084,0.3205 -6.6201566,0.3205 z m 75.56866394,-0.0466 -0.730576,-0.7306 v -5.16273 -5.16273 l 1.525244,-1.26591 1.525244,-1.2659 12.99501,0.30962 12.995011,0.30961 0.32618,6.84942 0.32617,6.84947 H 91.323041 77.207088 Z m 75.615003,0 -0.73063,-0.7306 v -5.7802 -5.7802 l -1.36982,-0.85922 -1.36982,-0.85926 -2.06643,0.34069 -2.06643,0.34068 -3.68689,-0.69166 -3.68688,-0.69167 v -12.62544 -12.62537 l -1.13446,-2.11973 -1.1344,-2.11979 h -5.85453 -5.85454 l -1.16443,1.40311 -1.16444,1.40311 -0.33962,5.9943 -0.33963,5.99429 -12.99501,0.30962 -12.995015,0.30962 -1.574737,-1.30697 -1.574741,-1.30691 0.323604,-6.12627 0.323565,-6.12627 7.123187,-0.54794 7.123137,-0.54799 0.3236,-6.12622 0.3236,-6.12627 -1.6043,-1.33151 -1.6043,-1.3315 -5.842264,0.33448 -5.842259,0.33449 -0.547971,7.12341 -0.547919,7.12341 -7.123134,0.54799 -7.123186,0.54795 -0.339629,5.99429 -0.339628,5.99429 -1.164432,1.40311 -1.164435,1.40312 H 59.743209 46.199918 l -0.553818,2.4658 -0.553769,2.46581 -0.288907,4.75064 -0.288907,4.75065 -5.675756,0.38677 -5.67576,0.38676 -1.208131,-1.45572 -1.20808,-1.45577 0.308568,-13.5448 0.308568,-13.5448 5.994062,-0.33963 5.994059,-0.33966 1.40306,-1.16448 1.403055,-1.16448 v -5.89338 -5.89333 l 0.821904,-0.0885 0.821904,-0.0885 5.113653,-0.33808 5.113706,-0.33808 1.187528,-0.73397 1.187577,-0.73402 0.0155,-11.71635 0.0155,-11.7164 0.660782,-2.4658 0.660787,-2.46581 h 5.765323 5.765278 l 1.264717,-1.52396 1.264774,-1.524 -0.308561,-13.54481 -0.308561,-13.5448 -7.123186,-0.54793 -7.123134,-0.548 -0.547919,-7.12341 -0.547967,-7.12341 -13.544277,-0.3086 -13.544272,-0.30856 -1.523897,1.26482 -1.523949,1.26477 v 5.21119 5.2112 l 1.439506,1.19471 1.439507,1.19472 13.628715,0.30962 13.628667,0.30909 0.305991,14.52082 0.30599,14.52087 H 37.972606 15.475473 v -13.06135 -13.06133 l -0.665184,-1.73349 -0.665184,-1.73349 H 8.4542801 2.7634034 l -1.3150435,-1.31509 -1.31504349,-1.3151 v -5.12623 -5.12617 l 1.40305819,-1.16448 1.4030582,-1.16448 5.9940613,-0.33967 5.9940619,-0.33963 0.334454,-5.84249 0.334454,-5.84249 -1.247272,-1.50293 -1.247272,-1.50294 -6.2102153,-0.32617 -6.21016351,-0.32617 v -6.57549 -6.57547 H 30.270023 59.8585 l 0.336529,6.02747 0.336529,6.02754 1.029669,1.03768 1.029668,1.03773 12.168967,-0.19468 12.168967,-0.19521 2.02636,1.08454 2.026357,1.08448 0.328252,6.29206 0.328252,6.29205 13.54428,0.3086 13.54427,0.3086 1.49102,-1.23753 1.49107,-1.23754 0.30701,-13.31797 0.30702,-13.31802 h 6.57521 6.57522 l 0.54792,14.24682 0.54797,14.24687 h 7.12313 7.12314 l 0.2894,-36.07113 0.2894,-36.071125 1.17173,-1.411914 1.17174,-1.411862 6.21016,-0.326173 6.21022,-0.326173 0.336,-6.549169 0.336,-6.549169 1.14481,-0.707566 1.14481,-0.707565 5.57237,-0.12582 5.57237,-0.125292 0.82905,-0.837055 0.82904,-0.837049 0.33653,-6.027533 0.33653,-6.027485 6.8492,-0.326173 6.8492,-0.326173 v 14.79482 14.794813 l -6.8492,0.326173 -6.8492,0.326173 -0.33963,5.994293 -0.33963,5.994297 -1.00077,1.2059 -1.00078,1.205899 -5.71645,0.260939 -5.71646,0.260939 -0.88822,0.549025 -0.88823,0.548973 v 13.415052 13.415 l 1.31505,1.3151 1.31504,1.31509 h 5.04097 5.04101 l 1.31505,-1.31509 1.31504,-1.3151 V 105.13838 91.110725 h 7.12314 7.12318 l 0.0155,13.424885 0.0155,13.42495 1.02847,1.62673 1.02853,1.62668 6.35182,0.56512 6.35186,0.56513 0.32826,6.29206 0.32825,6.29205 2.0919,1.11959 2.0919,1.11959 5.01508,-0.41783 5.01508,-0.41782 0.62537,-0.6254 0.62537,-0.62534 -0.12219,-12.94395 -0.12167,-12.94395 0.85442,-1.30784 0.85447,-1.3078 6.54891,-0.33603 6.54892,-0.33604 v -7.123467 -7.123407 l -7.08663,-0.547941 -7.08659,-0.54799 0.0637,-4.383617 0.0637,-4.383662 0.17344,-2.961449 0.17345,-2.961498 6.8492,-0.326173 6.8492,-0.326173 0.54792,-7.123412 0.54792,-7.12346 h 7.12318 7.12314 l 0.54791,7.12346 0.54798,7.123412 5.99406,0.339628 5.99406,0.339629 1.19379,0.990825 1.19384,0.990822 -0.0875,6.340985 -0.0875,6.340933 -7.10025,0.547986 -7.1002,0.54794 v 7.123412 7.123467 l 6.12598,0.3236 6.12603,0.3236 1.20549,-1.45261 1.20549,-1.45256 0.33963,-5.994295 0.33963,-5.994288 6.8492,-0.326174 6.84915,-0.326173 v 5.603909 5.603861 l 1.13446,2.11978 1.13441,2.11979 h 6.53664 6.53665 v 6.44127 6.44132 l 1.4395,1.19472 1.43951,1.19472 13.62872,0.30909 13.62871,0.30962 0.54792,14.24682 0.54792,14.24688 h 7.12319 7.12313 l 0.32617,-6.21046 0.32618,-6.21041 1.55941,-1.29428 1.55947,-1.29428 5.51174,0.7581 5.51174,0.75809 0.10613,1.26705 0.10613,1.26705 -0.19416,4.16553 -0.19415,4.16554 1.31789,1.588 1.31789,1.588 h 12.3787 12.37867 l 1.73348,0.66521 1.7334,0.66521 v 21.80101 21.80101 l -5.75331,0.0155 -5.75331,0.0155 -1.62667,1.02857 -1.6266,1.02852 -0.56511,6.35206 -0.56512,6.35212 h -6.57522 -6.57522 l -0.31839,-6.02754 -0.31838,-6.02753 -1.80891,-1.36988 -1.80896,-1.36987 h -5.78604 -5.78604 l -0.30599,-14.52087 -0.30599,-14.52082 -14.50736,-0.30546 -14.50731,-0.30546 -0.56532,-2.43407 -0.56531,-2.43406 -0.26975,-12.60301 -0.26974,-12.603 -6.12598,-0.32361 -6.12604,-0.3236 -1.20548,1.45261 -1.2055,1.45256 -0.33962,5.99429 -0.33963,5.9943 -14.24627,0.54793 -14.24632,0.54799 -0.55947,6.02748 -0.55946,6.02754 -0.87507,1.36987 -0.87502,1.36993 h -12.86662 -12.86656 l -1.31504,-1.31504 -1.31505,-1.3151 v -5.78745 -5.78745 l 2.46571,-0.55384 2.46571,-0.55379 4.93141,-0.28891 4.93142,-0.28891 0.33445,-5.84248 0.33445,-5.8425 -1.2904,-1.55491 -1.29045,-1.55492 h -5.21094 -5.21099 l -1.16443,1.40311 -1.16444,1.40311 -0.33963,5.9943 -0.33963,5.99429 -13.62872,0.30962 -13.62871,0.30909 -1.43951,1.19472 -1.43951,1.19471 v 5.89334 5.89333 l -0.27386,0.2154 -0.2739,0.21539 -21.91738,0.60666 -21.91742,0.60665 -0.54792,14.24688 -0.54791,14.24682 -14.52031,0.30599 -14.52026,0.30599 v -13.5965 -13.59652 l -1.51121,-1.25426 -1.51116,-1.25421 -21.22812,0.29825 -21.228111,0.2982 v 7.12342 7.12346 l 14.246321,0.54794 14.24632,0.54794 0.32617,6.84946 0.32618,6.84947 H 107.24793 93.716443 l -1.315045,1.3151 -1.315042,1.31509 v 5.67412 5.67417 l 1.438058,1.19352 1.438057,1.19358 13.082199,0.31064 13.0822,0.31064 0.33033,6.34999 0.33033,6.34994 2.78111,1.05741 2.78111,1.05741 3.464,-0.20142 3.464,-0.20141 1.91779,-1.62232 1.91779,-1.62239 v -5.90995 -5.90995 l 6.84915,0.32617 6.8492,0.32618 0.54791,14.24687 0.54798,14.24682 6.54891,0.33604 6.54886,0.33604 0.83144,1.30779 0.83142,1.3078 0.0155,21.09634 0.0155,21.0963 h -6.94048 -6.94053 z m 29.74012,-141.55295 0.33445,-5.84249 -1.33146,-1.60436 -1.33145,-1.60441 -6.12603,0.3236 -6.12598,0.3236 -0.336,5.89691 -0.336,5.8969 0.59596,1.55316 0.59601,1.55321 6.86334,-0.3267 6.86339,-0.3267 z m 258.49602,141.57543 -0.75304,-0.75308 v -6.39281 -6.39286 h 6.44104 6.441 l 1.16443,-1.40311 1.16444,-1.40311 0.33978,-5.9943 0.33978,-5.99429 5.99406,-0.33963 5.99407,-0.33967 1.40308,-1.16447 1.40303,-1.16448 v -5.2112 -5.21114 l -1.5239,-1.26482 -1.52395,-1.26477 -13.54424,0.3086 -13.54428,0.30856 -0.30614,14.52082 -0.30615,14.52087 -1.33802,0.10976 -1.33803,0.10976 -11.50663,0.43957 -11.50662,0.43957 -2.52061,-0.58402 -2.52064,-0.58398 0.24076,-5.9552 0.24075,-5.95516 0.66218,-1.07154 0.66217,-1.07149 6.54894,-0.33603 6.5489,-0.33604 v -7.12346 -7.12341 l -6.5489,-0.33604 -6.54894,-0.336 -0.83142,-1.30785 -0.83142,-1.30779 -0.0151,-13.30767 -0.0151,-13.30767 -1.73344,-0.66521 -1.73341,-0.66521 h -4.77713 -4.77706 l -0.51621,-0.8354 -0.51617,-0.83539 -0.37001,-6.01407 -0.37002,-6.01403 14.16053,-0.30806 14.16054,-0.30807 0.89094,1.40404 0.89084,1.40405 0.0151,12.81228 0.0151,12.81228 1.28289,0.79289 1.28285,0.79289 5.16699,0.35724 5.167,0.35724 1.15562,-1.39255 1.15563,-1.3925 0.33978,-5.9943 0.33978,-5.99429 5.99407,-0.33963 5.99407,-0.33963 1.40303,-1.16448 1.40308,-1.16448 v -14.16496 -14.16497 l 6.84918,0.32617 6.84915,0.32617 0.29859,21.34005 0.29858,21.34 0.98819,0.98824 0.98816,0.98818 6.38446,0.68592 6.38441,0.68592 v 29.04169 29.04169 l -21.43831,0.29666 -21.43832,0.29669 z M 1.4461854,256.37513 0.13114193,255.06003 v -5.12618 -5.12617 l 1.51198937,-1.25493 1.5119894,-1.25489 5.6111455,0.19881 5.6111458,0.1988 0.151177,1.744 0.151178,1.74405 0.201917,3.83568 0.201918,3.83573 -0.939739,1.91781 -0.939738,1.91787 H 7.9825209 2.7608665 Z m 181.7689846,-0.23974 -1.2904,-1.55486 0.33445,-5.84254 0.33445,-5.84249 h 6.57522 6.57522 l 0.33392,6.47384 0.33392,6.47378 -1.42967,0.90685 -1.42967,0.90679 -4.52328,0.0155 -4.52324,0.0155 z m -167.520178,-20.63052 0.326174,-6.84263 3.287608,-0.57113 3.287609,-0.57114 3.561542,0.41006 3.561593,0.41006 v 7.0035 7.00355 h -7.175427 -7.175478 z m 151.344728,-15.30092 0.21124,-22.24084 6.21016,-0.32617 6.21022,-0.32617 1.1213,-1.35113 1.12131,-1.35119 0.33963,-5.99429 0.33963,-5.99429 h 6.57521 6.57522 l 0.30599,14.52086 0.30599,14.52082 -5.78515,0.0155 -5.78511,0.0155 -1.33539,0.84854 -1.33534,0.84855 -0.30856,14.20349 -0.30856,14.20344 -7.33468,0.32254 -7.33468,0.32255 z m 31.07852,6.0702 -0.73063,-0.7306 v -6.39281 -6.39281 h 7.12319 7.12313 v 7.12341 7.12341 h -6.39261 -6.39261 z m 75.64611,0.031 -0.76169,-0.76177 v -5.71067 -5.71067 l -1.40305,-1.16448 -1.40306,-1.16448 -5.99406,-0.33963 -5.99406,-0.33963 -0.32671,-6.8723 -0.3267,-6.87235 22.24427,0.29666 22.24422,0.29665 v 14.24683 14.24687 l -13.75851,0.30497 -13.75857,0.30497 z M 0.57913687,210.15276 0,208.64366 l 0.33963328,-5.34032 0.33963328,-5.34032 6.75947884,-0.32409 6.7594786,-0.32413 0.706965,2.22748 0.706914,2.22743 -0.741654,4.94594 -0.741653,4.94595 H 7.6436124 1.1584291 Z M 212.97176,197.17308 l 0.30599,-14.55286 h 6.57522 6.57521 l 0.33963,5.99429 0.33963,5.9943 1.16444,1.40311 1.16443,1.40311 h 6.49336 6.49332 l -0.32618,6.84947 -0.32617,6.84947 -14.5523,0.30599 -14.55235,0.30599 z m 106.00824,14.21483 -0.0466,-0.2739 -0.57142,-5.55907 -0.57142,-5.55907 1.59658,-1.32509 1.59654,-1.32509 13.54428,0.3086 13.54427,0.3086 0.35051,4.27918 0.34999,4.27919 -0.64505,2.57023 -0.6451,2.57028 h -14.2254 -14.22545 z m 167.37269,-0.496 -0.53794,-0.87377 -0.7474,-4.9944 -0.7474,-4.99441 1.64761,-1.36744 1.64761,-1.36745 5.84228,0.33449 5.84224,0.33449 v 6.57547 6.57548 l -6.20455,0.32568 -6.20455,0.32568 z m -243.25748,-15.25692 -0.77691,-0.77694 v -5.07776 -5.07772 l 1.31504,-1.31509 1.31505,-1.3151 h 5.12597 5.12598 l 1.29361,1.55875 1.29356,1.5587 -0.33755,5.29072 -0.33755,5.29072 -6.62021,0.3205 -6.62021,0.32051 z m 46.55963,-14.50295 -1.42967,-0.90685 0.33392,-6.47379 0.33396,-6.47383 h 14.24632 14.24628 l 0.33445,5.84249 0.33445,5.84254 -1.2904,1.55487 -1.2904,1.55491 -12.19434,-0.0155 -12.19439,-0.0155 z m 120.60543,-0.31635 -1.36981,-1.37344 v -13.45886 -13.4588 l 2.46569,-0.57331 2.46572,-0.57326 12.6025,-0.26974 12.6025,-0.26975 0.33449,-5.84249 0.33448,-5.84249 -1.2904,-1.55491 -1.29041,-1.55492 h -5.87221 -5.87222 l -0.64509,-2.57029 -0.64505,-2.57023 0.34998,-4.27918 0.34999,-4.27919 h 21.91737 21.91737 v 6.57548 6.57547 l -6.02725,0.33653 -6.02729,0.33652 -1.09591,1.0849 -1.09584,1.0849 -0.54795,21.59251 -0.54792,21.59251 -20.82154,0.33241 -20.8215,0.33241 z m 60.7295,-14.81661 -0.73062,-0.73061 v -6.27558 -6.27559 l 1.73345,-0.66521 1.73344,-0.66522 h 11.74575 11.74572 l 1.31505,1.3151 1.31505,1.31509 v 5.04122 5.04121 l -1.31505,1.3151 -1.31505,1.31509 h -12.74854 -12.74865 z m -76.12295,-21.80541 0.32504,-7.30048 4.93141,-0.2708 4.93142,-0.27081 1.97046,1.00916 1.97049,1.0091 -0.32655,6.23474 -0.32655,6.23474 -6.90051,0.32772 -6.90048,0.32773 z m -303.556878,-14.99902 0.326173,-6.84941 h 6.575216 6.575219 l 0.68268,4.93161 0.68269,4.9316 -0.99519,1.91781 -0.99519,1.91787 h -6.588988 -6.588939 z m 288.440048,5.34032 -0.5791,-1.50909 0.33978,-5.34032 0.33978,-5.34032 h 6.57521 6.57524 l 0.32618,6.84941 0.32617,6.84948 h -6.66191 -6.66191 z m 105.85197,-0.13409 -1.44567,-1.74199 0.99647,-5.15693 0.99651,-5.15688 h 6.57521 6.57521 v 6.57548 6.57547 l -6.12601,0.3236 -6.12601,0.32361 z m -361.96152,-28.84091 -1.9677,-0.38158 0.3241,-6.759487 0.32409,-6.759481 h 6.57522 6.57522 v 6.575474 6.575474 l -4.93141,0.56549 -4.93142,0.56549 z m 91.55509,-0.004 -2.46571,-0.34998 v -7.099496 -7.099491 l 6.84915,0.326173 6.8492,0.326173 0.32618,6.849464 0.32617,6.849417 -0.87419,0.0792 -0.8742,0.0792 -3.83558,0.19468 -3.83552,0.19469 z m 89.65847,0.0102 -1.16702,-0.38884 v -7.032129 -7.032079 h 7.17548 7.17542 l -0.32617,6.849418 -0.32617,6.84946 -5.68213,0.57166 -5.68218,0.5717 z m 30.96519,-0.26922 -1.99581,-0.69395 -0.54792,-6.471193 -0.54792,-6.471145 -6.56197,-0.547941 -6.56196,-0.54799 -0.77199,-4.383613 -0.77205,-4.383666 0.0466,-7.671405 0.0466,-7.671348 0.762,-2.739644 0.76205,-2.739586 5.34513,-0.22938 5.34519,-0.229379 1.3983,-0.536599 1.39829,-0.536655 0.33033,-6.357498 0.33033,-6.357498 h 7.12319 7.12313 v 29.04164 29.04168 l -5.12732,0.58968 -5.12737,0.58967 z m 108.95037,0.32568 -50.14663,-0.28475 0.28459,-52.318759 0.2846,-52.31872884 50.83232,-0.28502324 50.83235,-0.28502347 1.50618,1.25005955 1.50614,1.2500647 -0.28459,50.9654303 -0.2846,50.96545 -2.19175,0.67329 -2.19175,0.67334 z m 39.22837,-15.671059 0.71773,-1.161324 -0.0627,-35.809352 -0.0627,-35.809351 -1.96025,-1.438528 -1.96025,-1.438527 -34.51987,0.326185 -34.51991,0.326184 -1.36986,0.886653 -1.36981,0.886602 V 53.277379 89.83442 l 1.36981,0.552756 1.36986,0.552805 35.82505,0.08648 35.82506,0.08648 z m -58.45026,-15.496576 -1.31505,-1.315098 0.0151,-19.781197 0.0151,-19.781196 0.88479,-1.394259 0.88486,-1.394208 21.28974,0.298224 21.28971,0.298223 0.2982,21.290603 0.29821,21.290551 -1.39416,0.884844 -1.39423,0.884893 -19.78042,0.0155 -19.78047,0.0155 z M 0.86171589,104.62946 0.13114193,103.89887 V 53.25581 2.612715 L 1.6265638,1.3715712 3.1219857,0.13042737 53.954317,0.41545084 104.78665,0.70047407 105.0714,53.030278 105.35615,105.36007 H 53.476089 1.594309 Z M 89.354875,90.448034 91.088299,89.782822 V 53.15987 16.536921 l -3.013623,-1.150086 -3.013679,-1.150087 -33.424004,0.355178 -33.424003,0.355177 -1.369872,0.886601 -1.369819,0.886602 v 36.46576 36.465762 l 0.730573,0.730605 0.730575,0.730598 H 52.277948 87.62145 Z m -57.193933,-15.596038 -1.394154,-0.884841 0.298217,-21.290554 0.298216,-21.290605 21.289725,-0.298224 21.289725,-0.298227 0.88486,1.394207 0.884859,1.39426 0.0155,19.781194 0.0155,19.781197 -1.315045,1.315097 -1.315042,1.315095 -19.78048,-0.0155 -19.780429,-0.0155 z M 364.6904,104.62946 363.95982,103.89887 V 83.39338 62.887894 l 1.51494,-1.257313 1.51489,-1.257362 3.69046,0.166186 3.69046,0.166186 1.91779,0.483069 1.91773,0.483061 v 21.844395 21.844394 h -6.39256 -6.39256 z m -166.8303,-14.961683 -0.59695,-1.555589 0.336,-5.896906 0.336,-5.896852 h 6.57521 6.57522 v 7.123411 7.123412 l -6.31448,0.32931 -6.31454,0.32931 z m 90.95716,0 -0.59695,-1.555589 0.336,-5.896906 0.336,-5.896852 4.27901,-0.350514 4.27902,-0.350022 2.6216,0.657959 2.62159,0.658016 -0.32515,6.815656 -0.32564,6.815663 -6.31449,0.329273 -6.31454,0.32931 z m -166.55617,-15.300971 -0.53859,-1.403629 0.29926,-20.788592 0.29926,-20.788589 6.29181,-0.328256 6.29181,-0.328256 1.12012,-2.09302 1.12011,-2.093019 -0.14445,-0.866306 -0.14445,-0.866357 0.12994,-4.605317 0.12994,-4.605316 6.84915,-0.326184 6.8492,-0.326185 0.55947,-6.0275339 0.55946,-6.0275136 0.87507,-1.3698936 0.87502,-1.36988853 h 5.19551 5.19551 l 1.31504,1.31509463 1.31505,1.3150946 v 5.6910814 5.691077 l 1.73342,0.66521 1.73342,0.66521 h 4.62264 4.62259 l 1.31504,-1.315095 1.31504,-1.315094 V 7.1753581 1.4842707 l 1.73343,-0.66520492 1.73342,-0.66520488 h 27.08798 27.08793 l 1.31504,1.3150946 1.31505,1.3150946 v 5.8083329 5.808338 l -1.91779,0.06058 -1.91774,0.0611 -12.23819,0.213313 -12.23813,0.213313 -0.90614,0.907104 -0.90614,0.907105 -0.55408,6.216359 -0.55408,6.216307 -20.73922,0.298741 -20.73921,0.298742 -1.4202,1.178718 -1.42019,1.178666 -0.306,13.865237 -0.30599,13.865189 -13.62871,0.309619 -13.62872,0.30909 -1.43951,1.194769 -1.4395,1.194716 v 5.776063 5.776112 l -1.73343,0.665155 -1.73342,0.665212 h -4.87614 -4.87617 z m 90.71051,-13.064065 0.30599,-14.573941 14.57343,-0.30599 14.57338,-0.305991 -0.3272,6.881669 -0.32719,6.881624 -5.99411,0.339628 -5.99406,0.339666 -1.35108,1.121352 -1.35108,1.121348 -0.32617,6.210406 -0.32618,6.210456 -6.88135,0.327231 -6.88135,0.327232 z m 45.41943,-1.605657 -0.73057,-0.730601 v -6.39281 -6.392863 h 7.00592 7.00592 l 0.66518,1.733545 0.66518,1.733488 v 4.074829 4.074826 l -1.31504,1.315094 -1.31504,1.315094 h -5.62549 -5.62548 z m 30.42291,-0.723458 -0.60021,-1.564184 0.33963,-5.340325 0.33963,-5.340317 6.90289,-0.327723 6.90284,-0.327723 -0.32772,6.903107 -0.32773,6.903163 -6.31448,0.329273 -6.31454,0.32931 z m -45.99851,-15.269748 -0.57034,-1.486318 0.31064,-13.087158 0.31064,-13.087159 h 7.12319 7.12313 v 14.246875 14.246824 l -6.86339,0.326703 -6.86334,0.326702 z M 303.93808,22.945574 304.23474,0.70046908 308.51376,0.35020863 312.79277,0 l 2.57019,0.6450953 2.57019,0.6450953 v 5.7874572 5.7874672 l 1.31504,1.315094 1.31504,1.315095 h 12.71207 12.71207 l 1.31504,-1.315095 1.31505,-1.315094 V 7.7389124 2.6127202 l 1.55869,-1.2936234 1.55863,-1.29362331 5.29057,0.33747192 5.29051,0.33752367 0.33963,5.99429412 0.33963,5.9943158 1.12131,1.35113 1.1213,1.35113 6.21017,0.326185 6.21021,0.326184 v 14.246874 14.246825 l -14.52025,0.305991 -14.52031,0.30599 v -6.388093 -6.388098 l -1.31504,-1.315094 -1.31505,-1.315095 h -12.79703 -12.79708 l -1.16443,1.403113 -1.16444,1.403112 -0.33962,5.994294 -0.33963,5.994296 -6.87204,0.326702 -6.87203,0.326703 z m -30.15706,6.113792 -0.77836,-0.778443 V 22.50072 16.720568 l -1.36987,-0.854863 -1.36981,-0.854811 -6.02731,-0.03107 -6.02724,-0.03107 -0.32361,-6.1262694 -0.3236,-6.1262545 1.57469,-1.3069555 1.57474,-1.30695547 12.99501,0.30977208 12.99501,0.30977234 V 14.948711 29.195587 l -6.07079,0.322042 -6.07079,0.322042 z m -149.59779,-14.67775 -2.52084,-1.048297 0.32927,-6.316435 0.32927,-6.31641492 h 6.57522 6.57522 l 0.32617,6.84945262 0.32617,6.8494533 -0.32617,0.05592 -0.32617,0.05592 -4.3835,0.459765 -4.38349,0.459765 z" />
</svg>