<svg id="CCC-SEBASTIAN" width="500" height="130" viewBox="0 0 500 130" version="1.1" xml:space="preserve" xmlns:xlink="http://www.w3.org/1999/xlink" xmlns="http://www.w3.org/2000/svg" xmlns:svg="http://www.w3.org/2000/svg">
	<path id="2940035888496" style="fill:#000000;stroke:#000000;stroke-width:0" d="M 494.73684,0 H 500 v 130 h -5.26316 z m -10.52631,0 h 5.26315 v 130 h -5.26315 z m -26.31579,0 h 5.26315 v 130 h -5.26315 z m -10.52632,0 h 5.26316 v 130 h -5.26316 z m -15.78947,0 h 5.26316 v 130 h -5.26316 z m -21.05263,0 h 15.78947 V 130 H 410.52632 Z M 384.21053,0 H 400 v 130 h -15.78947 z m -10.52632,0 h 5.26316 v 130 h -5.26316 z m -21.05263,0 h 5.26316 v 130 h -5.26316 z m -15.78947,0 h 5.26315 v 130 h -5.26315 z m -21.05264,0 h 5.26316 v 130 h -5.26316 z M 300,0 h 5.26316 V 130 H 300 Z m -21.05263,0 h 5.26316 v 130 h -5.26316 z m -15.78948,0 h 5.26316 v 130 h -5.26316 z m -10.52631,0 h 5.26316 v 130 h -5.26316 z m -10.52632,0 h 5.26316 v 130 h -5.26316 z m -10.52631,0 h 5.26316 v 130 h -5.26316 z m -26.31579,0 h 15.78947 V 130 H 205.26316 Z M 194.73684,0 H 200 v 130 h -5.26316 z m -26.31579,0 h 21.05263 v 130 h -21.05263 z m -21.05263,0 h 15.78947 v 130 h -15.78947 z m -15.78947,0 h 5.26316 v 130 h -5.26316 z m -21.05263,0 h 15.78947 V 130 H 110.52632 Z M 94.736842,0 H 100 V 130 H 94.736842 Z M 78.947368,0 H 89.473684 V 130 H 78.947368 Z M 57.894737,0 h 5.263158 V 130 H 57.894737 Z M 42.105263,0 H 52.631579 V 130 H 42.105263 Z M 31.578947,0 h 5.263158 V 130 H 31.578947 Z M 10.526316,0 h 5.263158 V 130 H 10.526316 Z M 0,0 H 5.2631579 V 130 H 0 Z" />
</svg>