<svg id="CCC-MACIEJ" width="500" height="130" viewBox="0 0 500 130" version="1.1" xml:space="preserve" xmlns:xlink="http://www.w3.org/1999/xlink" xmlns="http://www.w3.org/2000/svg" xmlns:svg="http://www.w3.org/2000/svg">
	<path id="2940008975208" style="fill:#000000;stroke:#000000;stroke-width:0" d="M 494.73684,1.7999987e-6 H 500 V 129.99999 h -5.26316 z m -10.52631,0 h 5.26315 V 129.99999 h -5.26315 z M 463.15791,-1.12e-5 h 5.26316 V 129.99998 h -5.26316 z m -15.78948,0 h 5.26316 V 129.99998 h -5.26316 z m -10.52632,0 h 5.26315 V 129.99998 h -5.26315 z m -26.31579,0 h 15.78947 V 129.99998 h -15.78947 z m -21.05264,0 H 400 V 129.99998 h -10.52632 z m -15.78947,0 h 10.52632 V 129.99998 h -10.52632 z m -21.05263,0 h 15.78947 V 129.99998 h -15.78947 z m -15.78947,0 h 5.26315 V 129.99998 h -5.26315 z m -15.78948,0 h 5.26316 V 129.99998 h -5.26316 z m -21.05263,0 h 5.26316 V 129.99998 H 300 Z m -15.78947,0 h 5.26315 V 129.99998 h -5.26315 z m -21.05264,0 h 15.78948 V 129.99998 H 263.15789 Z M 252.63158,1.7999987e-6 h 5.26316 V 129.99999 h -5.26316 z m -10.52632,0 h 5.26316 V 129.99999 h -5.26316 z m -10.52631,0 h 5.26316 V 129.99999 h -5.26316 z m -15.78948,0 h 5.26316 V 129.99999 h -5.26316 z m -21.05263,0 H 200 V 129.99999 h -5.26316 z m -15.78947,0 h 10.52631 V 129.99999 h -10.52631 z m -31.57895,0 h 15.78947 V 129.99999 h -15.78947 z m -15.78947,0 h 5.26316 V 129.99999 h -5.26316 z m -21.05263,0 h 15.78947 V 129.99999 h -15.78947 z m -15.789478,0 H 100 V 129.99999 h -5.263158 z m -15.789474,0 H 89.473684 V 129.99999 H 78.947368 Z m -21.052631,0 h 5.263158 V 129.99999 h -5.263158 z m -15.789474,0 H 52.631579 V 129.99999 H 42.105263 Z m -10.526316,0 h 5.263158 V 129.99999 h -5.263158 z m -21.052631,0 h 5.263158 V 129.99999 h -5.263158 z m -10.526316,0 H 5.2631579 V 129.99999 H 0 Z" />
</svg>