<svg id="CEL-SEBASTIAN" width="500" height="130" viewBox="0 0 500 130" version="1.1" xml:space="preserve" xmlns:xlink="http://www.w3.org/1999/xlink" xmlns="http://www.w3.org/2000/svg" xmlns:svg="http://www.w3.org/2000/svg">
	<path id="300000046764" style="fill:#000000;stroke:#000000;stroke-width:0" d="m 490.099,0 h 9.90099 V 130 H 490.099 Z m -9.90097,0 h 4.9505 v 130 h -4.9505 z m -19.802,0 h 14.85149 v 130 h -14.85149 z m -24.75247,0 h 9.90099 v 130 h -9.90099 z m -14.85147,0 h 9.90099 v 130 h -9.90099 z m -29.70297,0 h 14.85148 v 130 h -14.85148 z m -9.90101,0 h 4.9505 v 130 h -4.9505 z m -19.80197,0 h 9.90099 v 130 h -9.90099 z m -24.75247,0 h 4.9505 v 130 h -4.9505 z m -9.901,0 h 4.95049 v 130 h -4.95049 z M 306.9307,0 h 9.90099 v 130 h -9.90099 z m -9.901,0 h 4.95049 v 130 h -4.95049 z m -24.75247,0 h 4.95049 v 130 h -4.95049 z m -19.80198,0 h 9.90099 v 130 h -9.90099 z m -19.80198,0 h 4.95049 v 130 h -4.95049 z m -14.85149,0 h 4.9505 v 130 h -4.9505 z m -19.80197,0 h 9.90099 v 130 h -9.90099 z m -19.802,0 h 9.90099 v 130 h -9.90099 z m -14.85147,0 h 9.90099 v 130 h -9.90099 z m -19.80199,0 h 9.90099 v 130 h -9.90099 z m -19.80198,0 h 9.90099 v 130 h -9.90099 z m -14.85148,0 h 9.90099 v 130 h -9.90099 z M 84.158411,0 h 9.90099 v 130 h -9.90099 z M 69.306929,0 h 9.900989 V 130 H 69.306929 Z M 54.455444,0 h 9.90099 v 130 h -9.90099 z M 29.70297,0 H 44.554455 V 130 H 29.70297 Z M 14.851485,0 H 19.80198 V 130 H 14.851485 Z M 0,0 H 9.90099 V 130 H 0 Z" />
</svg>