<svg id="CHATAPOLSKA" width="500" height="130" viewBox="0 0 500 130" version="1.1" xml:space="preserve" xmlns:xlink="http://www.w3.org/1999/xlink" xmlns="http://www.w3.org/2000/svg" xmlns:svg="http://www.w3.org/2000/svg">
	<path id="2040018259166" style="fill:#000000;stroke:#000000;stroke-width:0" d="M 494.73684,1.1607141e-5 H 500 V 129.99999 h -5.26316 z m -10.52631,0 h 5.26315 V 129.99999 h -5.26315 z m -26.31581,0 h 5.26316 V 129.99994 h -5.26316 z m -10.5263,0 h 5.26316 V 129.99994 h -5.26316 z m -26.3158,0 h 5.26316 V 129.99994 h -5.26316 z m -10.5263,0 h 5.26315 V 129.99994 h -5.26315 z m -15.78948,0 h 10.52632 V 129.99994 h -10.52632 z m -21.05264,0 h 10.52633 V 129.99994 H 373.6842 Z m -15.78946,0 h 5.26315 V 129.99994 h -5.26315 z m -21.05263,0 h 15.78946 V 129.99994 h -15.78946 z m -21.05265,0 h 15.78947 V 129.99994 h -15.78947 z m -15.78946,0 h 5.26314 V 129.99994 H 300 Z m -21.05264,0 h 10.52631 V 129.99994 h -10.52631 z m -15.78947,0 h 10.52632 V 129.99994 h -10.52632 z m -10.52631,0 h 5.26316 V 129.99999 h -5.26316 z m -10.52632,0 h 5.26316 V 129.99999 h -5.26316 z M 231.57895,0 h 5.26316 v 129.99993 h -5.26316 z m -15.78948,0 h 5.26316 v 129.99993 h -5.26316 z M 194.73684,0 H 200 v 129.99993 h -5.26316 z m -21.05262,0 h 10.52632 v 129.99993 h -10.52632 z m -26.3158,0 h 15.78949 v 129.99993 h -15.78949 z m -15.78947,0 h 5.26316 v 129.99993 h -5.26316 z m -21.05263,0 h 15.78947 V 129.99993 H 110.52632 Z M 94.736842,0 H 100 V 129.99993 H 94.736842 Z M 78.947368,0 H 89.473684 V 129.99993 H 78.947368 Z M 57.894737,0 h 5.263158 V 129.99993 H 57.894737 Z M 47.368421,0 h 5.263158 V 129.99993 H 47.368421 Z M 31.578947,0 H 42.105263 V 129.99993 H 31.578947 Z M 10.526316,1.1607141e-5 h 5.263158 V 130 h -5.263158 z m -10.526316,0 H 5.2631579 V 130 H 0 Z" />
</svg>