<svg id="CHM1MARKI" width="500" height="130" viewBox="0 0 500 130" version="1.1" xml:space="preserve" xmlns:xlink="http://www.w3.org/1999/xlink" xmlns="http://www.w3.org/2000/svg" xmlns:svg="http://www.w3.org/2000/svg">
	<path id="1701000126200" style="fill:#000000;stroke:#000000;stroke-width:0" d="M 494.73684,0 H 500 v 130 h -5.26316 z m -10.52631,0 h 5.26315 v 130 h -5.26315 z m -10.52632,0 h 5.26316 v 130 h -5.26316 z m -26.31579,0 h 15.78948 v 130 h -15.78948 z m -10.52631,0 h 5.26315 v 130 h -5.26315 z m -26.31579,0 h 15.78947 V 130 H 410.52632 Z M 389.47368,0 H 400 v 130 h -10.52632 z m -15.78947,0 h 10.52632 v 130 h -10.52632 z m -26.31579,0 h 5.26316 v 130 h -5.26316 z m -10.52631,0 h 5.26315 v 130 h -5.26315 z m -21.05264,0 h 10.52632 V 130 H 315.78947 Z M 300,0 h 10.52632 V 130 H 300 Z m -15.78947,0 h 10.52631 v 130 h -10.52631 z m -21.05264,0 h 10.52632 v 130 h -10.52632 z m -10.52631,0 h 5.26316 v 130 h -5.26316 z m -10.52632,0 h 5.26316 v 130 h -5.26316 z m -21.05263,0 h 15.78948 v 130 h -15.78948 z m -15.78947,0 h 5.26316 v 130 h -5.26316 z M 184.21053,0 H 200 v 130 h -15.78947 z m -15.78948,0 h 5.26316 v 130 h -5.26316 z m -10.52631,0 h 5.26315 v 130 h -5.26315 z m -15.78948,0 h 10.52632 v 130 h -10.52632 z m -26.31579,0 h 10.52632 V 130 H 115.78947 Z M 94.73684,0 h 10.52632 V 130 H 94.73684 Z M 84.21053,0 h 5.26315 V 130 H 84.21053 Z M 68.42105,0 H 78.94737 V 130 H 68.42105 Z M 42.10526,0 H 52.63158 V 130 H 42.10526 Z M 21.05263,0 H 36.84211 V 130 H 21.05263 Z M 10.52632,0 h 5.26315 V 130 H 10.52632 Z M 0,0 H 5.26316 V 130 H 0 Z" />
</svg>