<svg id="CHM1KRAKOW" width="500" height="130" viewBox="0 0 500 130" version="1.1" xml:space="preserve" xmlns:xlink="http://www.w3.org/1999/xlink" xmlns="http://www.w3.org/2000/svg" xmlns:svg="http://www.w3.org/2000/svg">
	<path id="1701700147086" style="fill:#000000;stroke:#000000;stroke-width:0" d="M 494.73684,1.7999987e-6 H 500 V 129.99999 h -5.26316 z m -10.52631,0 h 5.26315 V 129.99999 h -5.26315 z M 457.89474,-1.12e-5 h 5.26316 V 129.99998 h -5.26316 z m -10.52632,0 h 5.26316 V 129.99998 h -5.26316 z m -21.05263,0 h 5.26316 V 129.99998 h -5.26316 z m -15.78947,0 h 5.26315 V 129.99998 h -5.26315 z m -10.52632,0 h 5.26316 V 129.99998 H 400 Z m -26.31579,0 h 15.78947 V 129.99998 h -15.78947 z m -15.78947,0 h 5.26315 V 129.99998 h -5.26315 z m -21.05263,0 h 5.26315 V 129.99998 h -5.26315 z m -26.31579,0 h 15.78947 V 129.99998 h -15.78947 z m -10.52632,0 h 5.26316 V 129.99998 H 300 Z m -15.78947,0 h 10.52631 V 129.99998 h -10.52631 z m -21.05264,0 h 10.52632 V 129.99998 H 263.15789 Z M 252.63158,1.7999987e-6 h 5.26316 V 129.99999 h -5.26316 z m -10.52632,0 h 5.26316 V 129.99999 h -5.26316 z m -21.05263,0 h 15.78948 V 129.99999 h -15.78948 z m -15.78947,0 h 5.26316 V 129.99999 h -5.26316 z m -21.05263,0 H 200 V 129.99999 h -15.78947 z m -15.78948,0 h 5.26316 V 129.99999 h -5.26316 z m -15.78947,0 h 10.52631 V 129.99999 h -10.52631 z m -21.05263,0 h 15.78947 V 129.99999 h -15.78947 z m -15.78948,0 h 10.52632 V 129.99999 h -10.52632 z m -21.05263,0 h 10.52632 V 129.99999 H 94.73684 Z m -10.52631,0 h 5.26315 V 129.99999 h -5.26315 z m -15.78948,0 H 78.94737 V 129.99999 H 68.42105 Z m -26.31579,0 H 52.63158 V 129.99999 H 42.10526 Z m -21.05263,0 H 36.84211 V 129.99999 H 21.05263 Z m -10.52631,0 h 5.26315 V 129.99999 h -5.26315 z m -10.52632,0 H 5.26316 V 129.99999 H 0 Z" />
</svg>