<svg id="CHM1CZESTOCHOWA" width="500" height="130" viewBox="0 0 500 130" version="1.1" xml:space="preserve" xmlns:xlink="http://www.w3.org/1999/xlink" xmlns="http://www.w3.org/2000/svg" xmlns:svg="http://www.w3.org/2000/svg">
	<path id="1701500136495" style="fill:#000000;stroke:#000000;stroke-width:0" d="M 494.73684,0 H 500 v 129.99998 h -5.26316 z m -10.52631,0 h 5.26315 v 129.99998 h -5.26315 z M 463.1579,1.976377e-5 h 15.78947 V 130 H 463.1579 Z m -15.78947,0 h 5.26315 V 130 h -5.26315 z m -15.78948,0 h 5.26316 V 130 h -5.26316 z m -21.05263,0 h 15.78947 V 130 h -15.78947 z m -26.31579,0 H 400 V 130 h -15.78947 z m -10.52632,0 h 5.26316 V 130 h -5.26316 z m -26.31579,0 h 5.26316 V 130 h -5.26316 z m -10.52632,0 h 5.26316 V 130 h -5.26316 z m -10.52632,0 h 5.26316 V 130 h -5.26316 z m -26.31578,0 h 5.26315 V 130 H 300 Z m -15.78948,0 h 10.52632 V 130 h -10.52632 z m -21.05263,0 h 10.52632 V 130 H 263.15789 Z M 252.63157,0 h 5.26316 v 129.99998 h -5.26316 z m -10.52631,0 h 5.26315 v 129.99998 h -5.26315 z m -21.05264,0 h 15.78948 v 129.99998 h -15.78948 z m -15.78947,0 h 5.26316 v 129.99998 h -5.26316 z m -21.05263,0 h 15.78947 v 129.99998 h -15.78947 z m -15.78948,0 h 5.26316 v 129.99998 h -5.26316 z m -10.52631,0 h 5.26316 v 129.99998 h -5.26316 z m -26.31579,0 h 10.52631 v 129.99998 h -10.52631 z m -15.78948,0 h 10.52632 V 129.99998 H 115.78946 Z M 94.73683,0 h 10.52632 V 129.99998 H 94.73683 Z M 84.21052,0 h 5.26315 V 129.99998 H 84.21052 Z M 68.42104,0 H 78.94736 V 129.99998 H 68.42104 Z M 42.10525,0 H 52.63157 V 129.99998 H 42.10525 Z M 21.05262,0 H 36.84209 V 129.99998 H 21.05262 Z m -10.5263,0 h 5.26315 V 129.99998 H 10.52632 Z M 0,0 H 5.26316 V 129.99998 H 0 Z" />
</svg>