<svg id="CHWILENSKA" width="500" height="130" viewBox="0 0 500 130" version="1.1" xml:space="preserve" xmlns:xlink="http://www.w3.org/1999/xlink" xmlns="http://www.w3.org/2000/svg" xmlns:svg="http://www.w3.org/2000/svg">
	<path id="148312436886" style="fill:#000000;stroke:#000000;stroke-width:0" d="M 0,64.98979 V 0 H 2.5 5 v 64.98979 64.98979 H 2.5 0 Z m 10,0 V 0 h 2.916667 2.916666 v 64.98979 64.98979 H 12.916667 10 Z m 15.833333,0 V 0 H 31.25 36.666667 v 64.98979 64.98979 H 31.25 25.833333 Z m 21.666667,0 V 0 h 2.5 2.5 v 64.98979 64.98979 H 50 47.5 Z m 10,0 V 0 h 2.916667 2.916666 v 64.98979 64.98979 H 60.416667 57.5 Z m 21.666667,0 V 0 h 5 5 v 64.98979 64.98979 h -5 -5 z m 15,0 V 0 H 99.583333 105 v 64.98979 64.98979 H 99.583333 94.166667 Z M 110,65.000011 V 0 h 8.33854 8.33854 L 126.46354,64.919302 126.25,129.8386 118.125,129.9193 110,130 Z m 21.66667,-0.01022 V 0 H 142.08333 152.5 v 64.98979 64.98979 h -10.41667 -10.41666 z m 25.83333,0 V 0 h 2.91667 2.91666 v 64.98979 64.98979 H 160.41667 157.5 Z m 15.83333,0 V 0 h 5.41667 5.41667 v 64.98979 64.98979 H 178.75 173.33333 Z m 20.83334,0 V 0 H 197.08333 200 v 64.98979 64.98979 h -2.91667 -2.91666 z m 15.83333,0 V 0 h 2.91667 2.91666 v 64.98979 64.98979 H 212.91667 210 Z m 15.83333,0 V 0 h 5.41667 5.41667 v 64.98979 64.98979 H 231.25 225.83333 Z m 15.83334,0 V 0 h 2.91666 2.91667 v 64.98979 64.98979 h -2.91667 -2.91666 z m 10.83333,0 V 0 h 2.5 2.5 v 64.98979 64.98979 h -2.5 -2.5 z m 10.83333,0 V 0 h 2.5 2.5 v 64.98979 64.98979 h -2.5 -2.5 z m 10,0 V 0 h 7.91667 7.91667 v 64.98979 64.98979 H 281.25 273.33333 Z m 26.66667,0 V 0 h 2.5 2.5 v 64.98979 64.98979 h -2.5 -2.5 z m 25.83333,0 V 0 h 2.91667 2.91667 v 64.98979 64.98979 H 328.75 325.83333 Z m 10.83334,0 V 0 h 2.5 2.5 v 64.98979 64.98979 h -2.5 -2.5 z m 10.83333,0 V 0 h 2.5 2.5 v 64.98979 64.98979 h -2.5 -2.5 z m 25.83333,0 V 0 h 2.91667 2.91667 v 64.98979 64.98979 H 376.25 373.33333 Z m 15.83334,0 V 0 H 392.08333 395 v 64.98979 64.98979 h -2.91667 -2.91666 z m 20.83333,0 V 0 h 2.91667 2.91666 v 64.98979 64.98979 H 412.91667 410 Z m 15.83333,0 V 0 h 2.91667 2.91667 v 64.98979 64.98979 H 428.75 425.83333 Z m 21.66667,0 V 0 h 2.5 2.5 v 64.98979 64.98979 h -2.5 -2.5 z m 10,0 V 0 h 2.91667 2.91666 v 64.98979 64.98979 H 460.41667 457.5 Z m 26.66667,0 V 0 h 2.5 2.5 v 64.98979 64.98979 h -2.5 -2.5 z m 10,0 V 0 H 497.08333 500 v 64.98979 64.98979 h -2.91667 -2.91666 z" />
</svg>