<svg id="CIRCLE-SEBASTIAN" width="500" height="130" viewBox="0 0 500 130" version="1.1" xml:space="preserve" xmlns:xlink="http://www.w3.org/1999/xlink" xmlns="http://www.w3.org/2000/svg" xmlns:svg="http://www.w3.org/2000/svg">
	<path id="70330330012339383" style="fill:#000000;stroke:#000000;stroke-width:0" d="m 493.10345,0 h 6.89656 v 130 h -6.89656 z m -6.89654,0 h 3.44827 v 130 h -3.44827 z m -13.79312,0 h 10.34483 v 130 h -10.34483 z m -17.24137,0 h 6.89656 v 130 h -6.89656 z m -10.34484,0 h 6.89655 v 130 h -6.89655 z m -10.34482,0 h 3.44827 v 130 h -3.44827 z m -17.24137,0 h 10.34483 V 130 H 417.24139 Z M 400,0 h 10.34483 V 130 H 400 Z m -6.89655,0 h 3.44828 v 130 h -3.44828 z m -13.79312,0 h 6.89655 v 130 h -6.89655 z m -17.24136,0 h 13.7931 v 130 h -13.7931 z m -6.89655,0 h 3.44828 v 130 h -3.44828 z M 341.3793,0 h 10.34483 V 130 H 341.3793 Z m -6.89654,0 h 3.44827 v 130 h -3.44827 z m -17.24137,0 h 6.89656 v 130 h -6.89656 z m -13.79312,0 h 3.44828 v 130 h -3.44828 z m -13.79309,0 h 3.44828 v 130 h -3.44828 z m -13.79312,0 h 3.44828 v 130 h -3.44828 z m -10.34482,0 h 6.89655 v 130 h -6.89655 z m -13.7931,0 h 10.34482 V 130 H 251.72414 Z M 241.3793,0 h 6.89655 v 130 h -6.89655 z m -13.79309,0 h 10.34483 v 130 h -10.34483 z m -13.7931,0 h 6.89655 v 130 h -6.89655 z m -10.34484,0 h 6.89655 v 130 h -6.89655 z m -13.7931,0 h 6.89655 v 130 h -6.89655 z m -17.24138,0 h 6.89655 v 130 h -6.89655 z m -10.34482,0 h 6.89655 v 130 h -6.89655 z m -10.34483,0 h 6.89655 v 130 h -6.89655 z m -17.24138,0 h 6.89655 v 130 h -6.89655 z m -10.34483,0 h 3.44828 v 130 h -3.44828 z m -10.34482,0 h 3.44828 v 130 h -3.44828 z M 96.551727,0 h 6.896553 V 130 H 96.551727 Z M 82.758621,0 h 3.448276 v 130 h -3.448276 z m -6.896553,0 h 3.448276 V 130 H 75.862068 Z M 65.517242,0 h 3.448276 V 130 H 65.517242 Z M 44.827587,0 h 6.896552 V 130 H 44.827587 Z M 37.931034,0 H 41.37931 V 130 H 37.931034 Z M 20.689655,0 H 31.034483 V 130 H 20.689655 Z M 10.344827,0 h 3.448276 V 130 H 10.344827 Z M 0,0 H 6.8965516 V 130 H 0 Z" />
</svg>