<svg id="CROPP" width="500" height="130" viewBox="0 0 500 130" version="1.1" xml:space="preserve" xmlns:xlink="http://www.w3.org/1999/xlink" xmlns="http://www.w3.org/2000/svg" xmlns:svg="http://www.w3.org/2000/svg">
	<path id="ECCR19949119" style="fill:#000000;stroke:#000000;stroke-width:0" d="M 492.53731,0 H 500 v 130 h -7.46269 z m -7.46268,0 h 3.73134 v 130 h -3.73134 z m -14.92538,0 h 11.19403 v 130 h -11.19403 z m -18.65671,0 h 7.46268 v 130 h -7.46268 z m -14.92538,0 h 7.46269 v 130 h -7.46269 z m -14.92537,0 h 3.73134 v 130 h -3.73134 z m -11.19403,0 h 3.73134 v 130 h -3.73134 z m -18.65672,0 h 11.19403 v 130 h -11.19403 z m -7.46268,0 h 3.73134 v 130 h -3.73134 z m -14.92537,0 h 7.46268 v 130 h -7.46268 z m -11.19403,0 h 7.46268 v 130 h -7.46268 z m -11.19403,0 h 7.46268 v 130 h -7.46268 z m -18.65672,0 h 14.92537 v 130 h -14.92537 z m -18.65672,0 h 14.92538 v 130 h -14.92538 z m -7.46268,0 h 3.73134 v 130 h -3.73134 z m -14.92538,0 h 3.73135 v 130 h -3.73135 z m -18.65671,0 h 11.19403 v 130 h -11.19403 z m -7.46269,0 h 3.73134 v 130 h -3.73134 z m -14.92537,0 h 7.46268 v 130 h -7.46268 z m -18.65672,0 h 14.92537 v 130 h -14.92537 z m -14.92537,0 h 11.19403 v 130 h -11.19403 z m -7.46269,0 h 3.73134 v 130 h -3.73134 z m -14.92537,0 h 11.19403 v 130 h -11.19403 z m -7.46269,0 h 3.73134 v 130 h -3.73134 z M 164.1791,0 h 7.46269 v 130 h -7.46269 z m -11.19403,0 h 7.46269 v 130 h -7.46269 z M 138.0597,0 h 3.73134 v 130 h -3.73134 z m -14.92537,0 h 3.73134 v 130 h -3.73134 z M 111.9403,0 h 7.46269 V 130 H 111.9403 Z M 97.014925,0 h 3.731345 V 130 H 97.014925 Z M 82.089552,0 h 3.731344 V 130 H 82.089552 Z M 67.164179,0 h 3.731343 v 130 h -3.731343 z m -11.19403,0 h 7.462687 V 130 H 55.970149 Z M 41.044776,0 h 3.731343 V 130 H 41.044776 Z M 22.38806,0 h 3.731343 V 130 H 22.38806 Z M 11.19403,0 h 3.731343 V 130 H 11.19403 Z M 0,0 H 7.4626866 V 130 H 0 Z" />
</svg>