<svg id="DEICHMANN" width="500" height="500" viewBox="0 0 500 500" version="1.1" xml:space="preserve" xmlns:xlink="http://www.w3.org/1999/xlink" xmlns="http://www.w3.org/2000/svg" xmlns:svg="http://www.w3.org/2000/svg">
	<path id="405461300024469495" style="fill:#000000;stroke:#000000;stroke-width:0" d="m 0,416.66616 v -83.33322 h 83.333306 83.333304 v 83.33322 83.33316 H 83.333306 0 Z m 142.80647,57.9426 c 0.26328,-1.07422 0.36827,-27.92968 0.23334,-59.67877 l -0.24483,-57.72558 H 83.333222 23.871465 l -0.244834,57.72558 c -0.134513,31.74909 -0.02872,58.60455 0.23376,59.67877 l 0.47847,1.95311 h 58.99469 58.994689 z M 47.743052,416.66616 V 381.0759 h 35.590254 35.590254 v 35.59026 35.59018 H 83.333306 47.743052 Z m 190.104108,71.18039 v -12.15273 h -23.29285 c -12.81102,0 -23.45554,-0.16176 -23.65448,-0.35867 -0.19892,-0.19729 -0.24238,-5.47072 -0.0964,-11.71873 l 0.26533,-11.36005 h 11.67047 11.67048 v -11.71872 -11.71873 h -11.71875 -11.71875 v -34.72221 c 0,-19.09715 -0.002,-35.0151 -0.004,-35.37317 -0.003,-0.35803 5.17319,-0.84637 11.50176,-1.08509 l 11.50647,-0.43401 0.24155,-11.93576 0.24155,-11.93572 h -11.74326 c -6.45879,0 -11.7546,-0.2928 -11.76846,-0.65104 -0.0125,-0.35803 -0.11153,-5.72915 -0.21694,-11.93576 l -0.19205,-11.28471 -23.87155,-0.43402 -23.87151,-0.43401 V 297.3087 286.02399 L 130.86,285.78244 118.92427,285.54089 v 11.74325 11.74321 H 83.334012 47.743721 v -11.74321 -11.74325 l -11.935733,0.24155 -11.935774,0.24155 v 11.50256 11.50257 L 11.93644,309.02811 7.073882e-4,309.02725 V 261.74296 214.4585 L 11.93644,214.21695 23.872214,213.9754 24.0137,202.69068 l 0.141487,-11.28471 11.79441,-0.24155 11.794411,-0.24155 v 11.74325 11.74322 H 59.462755 71.181501 V 202.6906 190.97187 h 47.743009 47.74305 v 11.71873 11.71874 h 12.17044 12.17044 l -0.055,-35.26364 c -0.0287,-19.39499 0.0714,-35.38979 0.22556,-35.54403 0.15421,-0.15421 5.34675,-0.34571 11.53896,-0.42585 l 11.25857,-0.14559 0.23089,23.99373 0.23089,23.99368 11.70497,-0.0993 11.70496,-0.0997 v -23.79499 -23.79499 h 12.15276 12.15281 v 11.71873 11.71874 h 11.71874 11.71875 v -11.71872 -11.71873 h 11.71874 c 6.44529,0 11.72917,0.2928 11.74188,0.65104 0.0525,1.47481 0.0791,20.7003 0.0287,21.70136 -0.041,0.81185 -3.00393,1.08506 -11.77185,1.08506 h -11.71875 v 11.71873 c 0,11.5624 -0.0246,11.71926 -1.95312,11.75818 -1.07423,0.0204 -6.25,0.11936 -11.50176,0.21695 l -9.5486,0.17756 -0.26041,4.9913 -0.26041,4.9913 H 231.2931 200.52047 v 6.90111 6.90111 l -4.99135,0.26041 -4.9913,0.26041 -0.27231,11.50174 -0.27232,11.50171 h 5.26345 5.26349 v 31.24995 31.24994 h 18.65132 18.65132 l 0.22886,28.4288 0.22885,28.42876 11.93577,0.24155 11.93577,0.24155 v 11.69425 11.69418 h 11.71875 11.71874 v 11.71877 11.71872 h 11.71875 11.71875 v 12.15277 12.15276 h -35.5903 -35.59025 v 11.69424 11.69419 l 11.93578,0.24152 11.93573,0.24151 0.43405,12.1528 c 0.23868,6.68402 0.727,12.05511 1.08506,11.93571 0.35803,-0.11943 5.53383,-0.21694 11.50172,-0.21694 h 10.85071 v 11.71872 11.71873 h -23.87154 -23.87151 z m 24.30556,-95.05192 V 381.0759 h -23.87155 -23.8715 v 11.71873 11.71872 h 23.8715 23.87155 z m -71.23206,-118.92341 -0.11728,-11.71873 h -23.7148 c -14.75352,0 -23.8241,-0.32236 -24.00413,-0.8529 -0.15912,-0.46908 -0.16978,-5.93782 -0.0246,-12.15274 l 0.26532,-11.29989 h 11.67048 11.67052 V 226.12823 214.4095 h -23.87155 -23.87151 v 23.84699 23.84699 l 11.84203,0.24155 11.84198,0.24155 -0.0906,11.5017 -0.0906,11.50174 h 24.30585 24.30581 z M 95.486066,238.28097 V 214.4095 H 83.333306 71.180545 v 11.71873 11.71873 H 47.309 23.437492 V 249.421 c 0,6.36577 0.260417,11.83451 0.578699,12.15279 0.31824,0.31823 16.529237,0.5787 36.024306,0.5787 H 95.486066 Z M 381.07626,476.10334 v -23.89599 l -11.93576,0.24152 -11.93573,0.24151 v 11.50253 11.50262 l -23.87155,6e-4 -23.8715,6e-4 0.26411,-11.72016 0.26412,-11.72023 h 11.67179 11.67174 V 440.5621 428.86791 l 11.93577,-0.24152 11.93578,-0.24151 v -11.71872 -11.71877 l -11.93578,-0.24151 -11.93577,-0.24151 v -11.68029 -11.68029 l -23.65448,-0.23092 -23.65452,-0.23093 -0.24155,-11.93578 -0.24155,-11.93572 H 273.84712 262.1529 V 328.55867 300.3469 h 19.09719 19.09723 v -19.0972 -19.09717 h 4.34026 4.3403 v 11.71873 11.71873 h 24.24696 24.24696 l 0.008,-11.71873 0.008,-11.71873 h -12.10289 -12.1029 V 249.99975 237.847 h -11.69352 -11.69356 l -0.24239,-11.5017 -0.24238,-11.50174 -4.55729,-0.26246 -4.55729,-0.26245 v -6.89905 -6.89911 h -7.37848 -7.37844 v -4.75491 -4.75495 l 34.75733,-0.23622 c 19.11654,-0.13002 35.22981,-0.041 35.80728,0.19766 0.74512,0.308 1.04995,3.71034 1.04995,11.71874 v 11.28471 l 11.91108,0.24114 11.91114,0.24155 0.24151,-11.74556 c 0.13304,-6.46004 0.53465,-11.74444 0.89272,-11.74309 0.35792,0.001 11.00262,0.002 23.65451,0.002 h 23.00348 v 11.71874 11.71873 h 11.71876 11.71873 v -11.74322 -11.74325 l 11.79439,0.24155 11.79439,0.24155 0.14135,11.28471 0.14135,11.28472 11.93575,0.24155 11.93578,0.24155 v 23.84699 23.84699 h -12.10185 -12.10182 l -0.0737,23.4152 -0.0737,23.41523 2.07628,0.52108 c 1.14198,0.28667 2.61702,0.44566 3.27795,0.3535 0.66096,-0.0923 5.20565,-0.1214 10.09931,-0.0648 l 8.89753,0.10296 v 47.30894 47.30894 H 476.12784 452.25636 V 392.795 381.07624 H 440.53822 428.8195 v 11.71876 11.71873 h -12.1528 -12.15277 v 12.15277 12.15276 H 452.25699 500 v 23.43745 23.43745 l -11.93578,8.7e-4 -11.93575,8.7e-4 v -11.50261 -11.50257 l -11.96042,-0.24151 -11.96042,-0.24152 0.24151,11.96043 0.24151,11.96035 11.54796,0.43404 11.54793,0.43404 0.004,10.41664 c 0.003,5.72916 -0.0151,10.90492 -0.0465,11.50171 -0.0412,0.84 -5.34519,1.0851 -23.489,1.0851 H 428.81756 V 476.12847 452.25698 H 416.66475 404.51199 V 476.12847 500 h -11.71714 -11.71876 z m 0,-83.3332 v -11.74322 l -11.93576,0.24151 -11.93573,0.24151 -0.27231,11.50171 -0.27232,11.5017 h 12.20788 12.20794 z m -23.4928,-23.19596 -0.14067,-11.5017 11.59973,-0.43405 11.59977,-0.43402 0.24152,-11.93575 0.24151,-11.93572 h 11.69423 11.69427 v -11.71873 -11.71873 h 23.87149 23.87156 v 11.74321 11.74321 l 11.93575,-0.24155 11.93574,-0.24155 v -11.71872 -11.71874 l -11.93574,-0.24155 -11.93575,-0.24155 v -11.69421 -11.69425 h -23.87156 -23.87149 v -11.71873 -11.71873 h 23.87149 23.87156 V 249.99954 237.8468 h -23.87156 -23.87149 v -11.71874 -11.71873 h -11.71887 -11.71877 v 11.71873 11.71874 h 11.71877 11.71876 v 12.15274 12.15278 h -11.71876 -11.71877 v 11.69421 11.69425 l -11.93576,0.24155 -11.93573,0.24155 v 11.28471 11.28472 l -35.59029,0.43401 -35.59026,0.43402 -0.24155,11.92612 -0.24155,11.92608 35.71382,0.22677 35.71377,0.22677 -0.14517,11.25855 c -0.08,6.19221 -0.28993,11.40336 -0.46711,11.5804 -0.17714,0.17715 -5.42966,0.27602 -11.67253,0.22024 l -11.35075,-0.10129 v 12.1755 12.1755 h 12.19549 12.19549 z m -0.11361,-47.6013 c -0.146,-6.24806 -0.10254,-11.52146 0.0964,-11.71872 0.19891,-0.19726 5.57,-0.35883 11.93577,-0.35883 h 11.57407 v 11.71873 11.71873 H 369.4056 357.73508 Z m 32.93787,-12.75785 -9.33161,-0.24646 V 297.2792 285.58983 h 11.71876 11.71872 v 11.62018 11.62023 l -2.38711,0.31536 c -1.31297,0.17348 -6.58643,0.20466 -11.71876,0.0693 z m 38.21891,59.92514 -0.24151,-11.93576 h -11.71876 -11.71873 l -0.24151,11.93576 -0.24151,11.93573 h 12.20179 12.20178 z m 47.53646,9.93534 c 0.27591,-1.10018 0.3814,-6.47127 0.23396,-11.9357 l -0.26873,-9.9354 h -11.71876 -11.71872 l -0.24151,11.93576 -0.24152,11.93573 h 11.7267 c 11.51913,0 11.73558,-0.0378 12.22874,-2.00039 z M 357.58816,226.12823 357.46268,214.4095 h -12.06487 -12.06492 v 11.71873 11.71873 h 12.1902 12.19025 z M 0,83.333314 V 1.2303129e-4 H 83.333306 166.66661 V 83.333314 166.66651 H 83.333306 0 Z m 142.80647,57.942606 c 0.26328,-1.07418 0.36827,-27.92961 0.23334,-59.678701 L 142.79498,23.871614 H 83.333185 23.871424 L 23.62659,81.597219 c -0.134513,31.749091 -0.02872,58.604521 0.23376,59.678701 l 0.478469,1.95313 H 83.33351 142.3282 Z M 47.743052,83.333314 V 47.743101 H 83.333306 118.92356 V 83.333314 118.92356 H 83.333306 47.743052 Z m 285.590168,0 V 1.2303129e-4 h 83.33333 83.3333 V 83.333314 166.66651 h -83.3333 -83.33333 z M 476.1397,141.27592 c 0.26343,-1.07418 0.36813,-27.92961 0.23395,-59.678701 L 476.12821,23.871614 H 416.6664 357.20465 l -0.24484,57.725605 c -0.13451,31.749091 -0.0287,58.604521 0.23377,59.678701 l 0.47847,1.95313 h 58.99469 58.9947 z M 381.07626,83.333314 V 47.743101 h 35.59029 35.59028 v 35.590213 35.590246 h -35.59028 -35.59029 z m -116.5364,59.187026 -2.38714,-0.27477 v -11.66106 -11.66107 h -12.1528 -12.15276 V 107.20471 95.485975 h 12.15276 12.1528 V 83.33319 71.180442 h -12.1528 -12.15276 V 59.461709 47.742976 h -23.43749 -23.4375 V 36.892303 c 0,-5.967875 -0.002,-11.143646 -0.004,-11.50172 -0.003,-0.358061 5.17314,-0.846353 11.50172,-1.085066 L 213.97627,23.871491 214.21782,11.935746 214.45937,0 h 35.54125 35.54128 l 0.24155,11.935746 0.24155,11.935745 11.50648,0.434026 c 6.32853,0.238722 11.50434,0.726996 11.50172,1.085066 -0.003,0.358061 -0.004,10.807274 -0.004,23.220452 V 71.180442 H 297.31051 285.59177 V 83.33319 95.485975 h -11.71875 -11.71875 v 11.718735 11.71873 h 11.71875 11.71875 v 11.66455 11.6646 l -9.33177,0.27106 c -5.13238,0.14929 -10.4058,0.14763 -11.71875,-0.004 z M 285.59021,59.46183 V 47.743101 h -11.69426 -11.69426 l -0.24155,-11.935745 -0.24155,-11.935742 h -11.71875 -11.71875 l -0.24154,11.935742 -0.24155,11.935745 h 12.17728 12.17728 V 59.46183 71.180567 h 11.71875 11.71874 z M 190.97217,95.052044 V 71.180567 h 11.71875 11.71875 v 23.871477 23.871516 h -11.71875 -11.71875 z" />
</svg>