<svg id="DIAGNOSTRYKA" width="500" height="130" viewBox="0 0 500 130" version="1.1" xml:space="preserve" xmlns:xlink="http://www.w3.org/1999/xlink" xmlns="http://www.w3.org/2000/svg" xmlns:svg="http://www.w3.org/2000/svg">
	<path id="00109078" style="fill:#000000;stroke:#000000;stroke-width:0" d="M 487.34177,0 H 500 v 130 h -12.65823 z m -12.65823,0 h 6.32912 v 130 h -6.32912 z m -25.31645,0 h 18.98734 v 130 h -18.98734 z m -31.64557,0 h 12.65823 v 130 h -12.65823 z m -31.64557,0 h 25.31646 v 130 h -25.31646 z m -18.98734,0 h 12.65823 v 130 h -12.65823 z m -18.98734,0 h 12.65822 v 130 h -12.65822 z m -18.98735,0 h 6.32912 v 130 h -6.32912 z M 316.4557,0 h 6.32911 v 130 h -6.32911 z m -37.97469,0 h 12.65823 V 130 H 278.48101 Z M 259.49367,0 H 272.1519 V 130 H 259.49367 Z M 227.8481,0 h 25.31646 V 130 H 227.8481 Z m -18.98734,0 h 12.65823 v 130 h -12.65823 z m -18.98734,0 h 6.32911 v 130 h -6.32911 z m -25.31646,0 h 6.32912 v 130 h -6.32912 z m -25.31645,0 h 12.65822 v 130 h -12.65822 z m -25.31646,0 h 12.65823 V 130 H 113.92405 Z M 88.607595,0 H 101.26582 V 130 H 88.607595 Z M 69.620253,0 H 82.278481 V 130 H 69.620253 Z M 37.974684,0 H 56.962025 V 130 H 37.974684 Z M 18.987342,0 h 6.329114 V 130 H 18.987342 Z M 0,0 H 12.658228 V 130 H 0 Z" />
</svg>