<svg id="DOZ" width="500" height="500" viewBox="0 0 500 500" version="1.1" xml:space="preserve" xmlns:xlink="http://www.w3.org/1999/xlink" xmlns="http://www.w3.org/2000/svg" xmlns:svg="http://www.w3.org/2000/svg">
	<path id="38KHWII7" style="fill:#000000;stroke:#000000;stroke-width:0" d="m 0,430.00826 v -69.99165 l 70.094963,0.19128 70.095057,0.19128 0.18475,69.80033 0.18485,69.80041 H 70.279809 9.1507785e-5 Z M 120.05831,430.191 V 380.11866 H 69.912039 19.765773 v 50.07234 50.07236 h 50.146266 50.146271 z m -79.945049,29.77076 c -0.118686,-0.2923 -0.126189,-13.93949 -0.01647,-30.32722 l 0.199212,-29.79571 29.815341,0.19093 29.815432,0.19094 0.191064,30.13624 0.19116,30.13624 H 70.319157 c -16.494461,0 -30.087027,-0.23912 -30.205713,-0.53142 z m 139.974149,10.06783 v -29.97031 h -9.88284 -9.88284 v -9.86828 -9.86827 h 9.88284 9.88284 v 9.86827 9.86828 h 40.28466 40.28465 l -0.20424,-9.68553 -0.20425,-9.68553 -19.9487,-0.19453 -19.94869,-0.19444 V 410.07722 399.8552 h -20.13172 -20.13171 v -9.86827 -9.86827 h 10.24887 10.24888 v -9.86828 -9.86827 h 9.88284 9.88284 V 350.14834 339.91457 H 210.468 c -5.43557,0 -9.89254,-0.2467 -9.90426,-0.54823 -0.0476,-1.22116 -0.0705,-15.96386 -0.0265,-16.81262 0.0357,-0.68351 2.53796,-0.91373 9.93069,-0.91373 h 9.88285 v 9.13729 9.13729 h 9.88284 9.88284 v -9.13729 -9.13729 h 20.13171 20.13171 v 9.13729 9.13729 h -9.5029 c -11.25912,0 -10.42914,-0.96028 -10.10923,11.69574 l 0.21248,8.4063 9.69983,0.20397 9.69982,0.20396 v 9.82643 9.82643 l 10.03978,0.20337 10.03987,0.20338 -0.22118,9.68553 -0.22108,9.68552 h 10.31302 10.31302 v -19.73654 -19.73655 h -10.24887 -10.24888 v -10.23377 -10.23377 h 10.24888 10.24887 v -9.86827 -9.86828 c 9.89117,0.0533 9.89565,0.13182 -9e-5,10e-6 h 9.88284 9.88284 V 309.94427 299.7105 h 20.13171 20.13171 v -9.86828 -9.86828 h 20.13172 20.13171 v -9.86827 -9.86828 H 410.68688 400.438 v -10.23376 -10.23377 h 10.24888 10.24887 v 10.23377 10.23376 h 9.88284 9.88284 V 249.983 239.72861 l 10.0212,0.20337 10.0212,0.20338 -0.0888,9.50278 c -0.0485,5.22653 -0.11091,9.74949 -0.13836,10.05102 -0.0274,0.30153 -4.49715,0.54823 -9.93271,0.54823 h -9.88284 v 9.86828 9.86827 h 20.13171 20.13171 v -9.86827 -9.86828 h 9.51681 9.51681 v 59.94064 59.94063 h -9.51681 -9.51681 v 29.97031 29.97031 h 9.51681 9.51681 v 10.23376 10.23377 h -9.51681 -9.51681 V 450.29304 440.05928 H 461.7113 c -13.99868,0 -19.49299,0.23939 -20.13171,0.87718 -0.5916,0.59063 -0.87847,3.92638 -0.87847,10.21257 v 9.33538 l -9.69983,0.20395 -9.69983,0.20394 -0.20424,9.68553 -0.20434,9.68553 H 410.66534 400.4377 v -9.86828 c 0,-7.39508 -0.22932,-9.87393 -0.91508,-9.89111 -0.50329,-0.0128 -9.39785,0 -19.76568,0.0219 -10.36783,0.0247 -18.86424,-0.21171 -18.88089,-0.5254 -0.0165,-0.31368 -0.032,-7.1492 -0.0348,-15.19001 0,-8.04082 -0.18685,-16.84003 -0.41004,-19.55381 l -0.40566,-4.93413 h -8.93006 c -5.9696,0 -9.22133,0.29084 -9.80853,0.87718 -0.63882,0.63778 -0.87848,6.12883 -0.87848,20.12387 v 19.24661 l -19.21663,-0.0439 c -10.56915,-0.0247 -19.62989,-0.0338 -20.13501,-0.0219 -0.71394,0.0174 -0.90227,4.21138 -0.84608,18.8453 0.0394,10.35255 0.0412,19.234 0,19.73655 -0.0512,0.68247 -2.57045,0.91373 -9.95184,0.91373 h -9.88284 v -9.86827 -9.86828 h -9.88284 -9.88284 V 490.13173 500 h -20.13171 -20.13172 v -9.88947 -9.88948 l -9.69982,0.20395 -9.69983,0.20394 -0.20433,9.68553 L 200.53876,500 h -10.22764 -10.22755 z m 80.52685,0.36549 v -9.86827 h -9.09093 c -4.99999,0 -9.61198,0.19965 -10.24887,0.44371 -0.96852,0.37106 -1.15794,1.90567 -1.15794,9.38098 0,4.91541 0.21962,9.15648 0.48801,9.42457 0.26839,0.26799 4.88038,0.48729 10.24887,0.48729 h 9.76086 z m 39.53137,-30.3358 v -19.73655 h -8.72491 c -4.79866,0 -9.24594,0.19965 -9.88284,0.44371 -1.01546,0.38906 -1.15794,2.8183 -1.15794,19.73654 v 19.29285 h 9.88284 9.88285 z m 100.29253,-9.88948 v -9.88947 l -9.69983,0.20395 -9.69982,0.20394 -0.20434,9.68553 -0.20425,9.68553 h 9.90408 9.90416 z m 40.26342,-29.9491 v -20.10204 h 20.13172 20.13171 v -9.84766 -9.84764 l -10.06586,-0.20338 -10.06585,-0.20337 -0.2037,-10.05102 -0.2037,-10.05102 h 10.26956 10.26955 V 320.17802 300.44148 H 460.8333 440.70158 V 290.2077 279.97393 h -9.86225 -9.86216 l -0.20369,10.05102 -0.20361,10.05103 -19.9487,0.1945 -19.94869,0.1945 v 9.85652 9.85652 h 30.01455 30.01455 v 9.86828 9.86827 h -9.43857 c -7.93134,0 -9.5094,0.18463 -9.88284,1.15626 -0.24432,0.63594 -0.44427,5.04148 -0.44427,9.79007 0,7.19858 0.19244,8.70757 1.15794,9.07751 0.6369,0.24403 5.08417,0.4437 9.88284,0.4437 h 8.7249 v 9.86827 9.86828 h -9.43857 c -7.93134,0 -9.5094,0.18462 -9.88284,1.15626 -0.60734,1.58051 -0.56616,37.95152 0.0439,38.56052 0.26848,0.26799 4.71576,0.48729 9.88284,0.48729 h 9.39483 z M 260.61426,380.11866 v -19.73655 h -20.13171 -20.13171 v 19.73655 19.73654 h 20.13171 20.13171 z m 139.8239,-10.23377 v -29.97032 h -28.9688 c -24.13015,0 -29.1434,0.17443 -30.01456,1.04427 -0.87115,0.86983 -1.04575,5.87571 -1.04575,29.9703 v 28.92606 h 30.01455 30.01456 z m -39.53137,1.52175 c 0,-4.79161 -0.20003,-9.23234 -0.44436,-9.86827 -0.39229,-1.02069 0.76656,-1.15626 9.88284,-1.15626 h 10.32721 v 9.86827 9.86828 h -9.88284 -9.88285 z m -40.26342,118.72499 v -9.86827 h 30.01455 30.01456 v 9.86827 9.86828 h -30.01456 -30.01455 z m 120.05821,0 v -9.86827 h 29.64853 29.64852 v 9.86827 9.86828 H 470.35011 440.70158 Z M 160.32173,350.14834 v -10.23377 h -20.13171 -20.13171 v -9.86827 -9.86828 h 20.13171 20.13171 v 9.86828 9.86827 h 9.88284 9.88284 v 10.23377 10.23377 h -9.88284 -9.88284 z M 9.1507785e-5,330.0463 v -9.86828 H 9.8829323 19.765773 v -9.86827 -9.86827 H 9.8829323 9.1507785e-5 V 290.2077 279.97393 H 9.8829323 19.765773 v -9.86827 -9.86828 h 10.248872 10.248872 v 9.86828 9.86827 h 9.882841 9.88284 v -9.86827 -9.86828 h 9.882841 9.882841 V 220.0333 179.82923 h -9.882841 -9.882841 v -9.86827 -9.86828 h 9.882841 9.882841 v 9.86828 9.86827 h 20.131712 20.131718 v -9.86827 -9.86828 l 10.06585,-2.8e-4 10.06586,-2.9e-4 -0.14285,9.32032 c -0.0787,5.12618 -0.16096,9.56703 -0.18301,9.86856 -0.022,0.30153 -4.48745,0.54824 -9.92301,0.54824 h -9.88284 v 9.78301 c 0,9.52745 0.043,9.79455 1.64714,10.2238 0.90592,0.24242 9.96519,0.44525 20.13171,0.45074 l 18.48457,0.01 V 190.06297 179.8292 h 9.88284 9.88284 V 160.09265 140.3561 h -9.88284 -9.88284 V 100.15203 59.94795 h 9.88284 9.88284 v -9.868275 -9.868274 h -9.88284 -9.88284 V 20.109387 0.00734638 h 9.87104 9.87103 l 0.19482,19.91929462 0.19482,19.919295 h 9.88284 9.88284 l 0.13196,-19.005565 c 0.0723,-10.453062 0.15492,-19.4167445 0.18301,-19.91929549 0.0384,-0.68334146 2.54282,-0.91372913 9.93391,-0.91372913 h 9.88284 V 20.109387 40.211428 h -9.76086 c -5.36849,0 -9.89813,0.135917 -10.06586,0.302042 -0.16773,0.166116 -0.20434,4.60684 -0.0814,9.868266 l 0.22373,9.566241 h 19.72497 19.72505 V 29.977662 0.00734638 h 50.14626 50.14627 l 8.2e-4,40.02133562 8.3e-4,40.021336 -8.36555,-0.237341 c -11.83873,-0.335878 -11.40178,-0.752072 -11.40178,10.862312 v 9.477071 H 310.39441 300.14553 V 80.050018 59.947977 h -9.89464 -9.89465 l 0.19482,19.919295 0.19482,19.919295 9.81495,0.365493 9.81503,0.36549 -0.11027,19.14818 c -0.0622,10.76154 0.17972,19.32715 0.55179,19.55679 1.09261,0.67427 15.81127,1.38089 17.89353,0.85904 l 1.93237,-0.48427 v -9.85434 -9.85435 h 9.88284 9.88284 v 10.23377 10.23376 h -9.88284 -9.88284 v 9.86828 9.86827 h 9.88284 9.88284 v 9.86828 9.86827 h 10.24887 10.24887 v 10.23377 10.23377 h -10.24887 -10.24887 v 9.8889 9.8889 l 10.06586,-0.20338 10.06585,-0.20338 0.11164,-9.37066 c 0.0613,-5.15386 0.26537,-9.5241 0.45324,-9.71163 0.18777,-0.18753 9.11445,-0.34097 19.83697,-0.34097 h 19.49555 v -10.20767 -10.20765 h -9.88284 -9.88285 v -9.86827 -9.86828 h 30.01456 30.01455 v 9.86828 9.86827 h 9.88284 9.88284 v -9.86827 -9.86828 h 19.76568 19.76569 v 9.86828 9.86827 h -9.13687 c -10.83526,0 -10.06229,-0.92786 -9.7432,11.69573 l 0.21248,8.40632 9.33379,0.20458 9.3338,0.20459 v 9.84643 9.84642 H 460.4884 420.97827 l -0.20425,-9.68552 -0.20424,-9.68552 -10.06586,-0.20337 -10.06585,-0.20338 v 9.8889 9.88889 H 380.67238 360.9067 v 9.86828 9.86827 h 9.88284 9.88284 v 10.23377 10.23376 h -9.88284 c -8.89959,0 -9.88933,-0.12726 -9.94744,-1.27922 -0.0357,-0.70357 -0.0494,-4.88022 -0.0302,-9.28146 0.0201,-4.71286 -0.29099,-8.3937 -0.75713,-8.95454 -0.57531,-0.69219 -3.36639,-0.95231 -10.21868,-0.95231 h -9.42713 v -9.86827 -9.86828 h -9.15078 -9.15078 v -9.86826 -9.86827 h 9.15078 9.15078 V 190.063 179.82923 h -9.88284 -9.88284 c 0,0 -2.28065,4.33303 0.009,0 v -9.86827 -9.86828 h -10.24887 -10.24888 v -9.86827 -9.86828 H 290.27184 280.389 V 130.12237 119.8886 h -9.43848 c -7.93134,0 -9.50948,0.18463 -9.88284,1.15626 -0.24441,0.63595 -0.44436,5.03555 -0.44436,9.7769 v 8.62064 l 2.01317,0.40095 c 1.10725,0.22052 5.47217,0.35253 9.69983,0.29337 l 7.68665,-0.10757 0.20352,10.01128 0.20351,10.01127 9.893,0.20323 9.8929,0.20325 0.0339,8.04081 c 0.0183,4.42246 0.009,8.45199 -0.0311,8.95455 -0.0485,0.68268 -2.56359,0.91373 -9.94736,0.91373 h -9.88284 v -9.1373 -9.13729 h -9.88284 -9.88284 v 9.13729 9.13729 H 250.3739 240.12503 v -9.13729 -9.13729 h -9.88284 -9.88284 v 9.06217 9.06216 l -11.89601,0.44898 c -6.54281,0.24693 -15.60208,0.63877 -20.13172,0.87077 l -8.2357,0.42183 v 6.45839 c 0,3.55213 -0.38607,8.12822 -0.85779,10.16909 l -0.8578,3.7107 h -9.02504 -9.02505 v 9.86827 9.86827 h -18.97377 c -10.43555,0 -19.49482,0.19966 -20.13172,0.44371 -0.97291,0.37276 -1.15793,1.94679 -1.15793,9.84763 v 9.40396 l 10.06585,0.20337 10.06586,0.20336 v 9.86828 9.86827 l -10.04509,0.20324 -10.04508,0.20324 -0.20379,-10.07151 -0.20379,-10.07152 -9.09303,-0.20623 c -6.78274,-0.15386 -9.24439,0.0319 -9.68866,0.73097 -0.32751,0.51549 -0.60057,5.13125 -0.60679,10.25727 l -0.011,9.32003 H 90.052445 79.803573 v 9.86828 9.86827 h -9.882841 -9.88284 v 9.86828 9.86828 h 9.88284 9.882841 l 0.05582,10.41651 c 0.0302,5.72909 0.11292,14.77439 0.183015,20.10068 l 0.127471,9.68417 -10.065857,9.1e-4 -10.065856,9.2e-4 v -19.73655 -19.73655 h -9.882841 -9.88284 v 19.73655 19.73655 H 20.140772 0.00905927 Z M 39.600177,299.30257 c 0.495332,-0.30569 0.6864,-3.78221 0.534222,-9.71954 l -0.236913,-9.2436 -10.065857,-0.20337 -10.065856,-0.20338 v 9.82799 c 0,5.84402 0.294198,9.92677 0.725748,10.07165 1.291084,0.43346 18.312538,-0.0385 19.108656,-0.52975 z M 220.35084,150.22441 v -9.86828 h -9.88284 -9.88284 v 9.86828 9.86827 h 9.88284 9.88284 z m 40.26342,0 v -9.86828 h -10.24887 -10.24887 v 9.86828 9.86827 h 10.24887 10.24887 z m -62.77434,-10.48921 2.74524,-0.11005 v -8.71202 c 0,-4.7916 -0.20004,-9.23232 -0.44437,-9.86827 -0.62106,-1.61598 -17.4024,-1.71486 -19.00763,-0.112 -0.79017,0.78898 -1.04575,3.1883 -1.04575,9.81468 0,7.74784 0.14934,8.8064 1.28111,9.07914 1.13186,0.27277 8.3909,0.23245 16.4714,-0.0915 z m 40.62946,0.10382 c 1.60752,-0.36342 1.64714,-0.60745 1.64714,-10.16139 v -9.78903 h -9.00437 c -6.02734,0 -9.29481,0.29003 -9.88284,0.87718 -1.25741,1.2555 -1.2241,18.61401 0.0366,19.06464 1.2747,0.45567 15.19495,0.46263 17.20346,0.008 z m -18.28097,-49.737981 -0.2036,-10.051021 -18.30156,-0.139362 c -12.20128,-0.0929 -18.8506,0.131011 -19.9487,0.671765 -1.57338,0.774778 -1.64714,1.20943 -1.64714,9.703054 0,4.890561 0.21962,9.111232 0.48801,9.379265 0.2684,0.268024 9.337,0.48732 20.1524,0.48732 h 19.66429 z m 40.42585,-20.284787 v -9.868275 h 9.88284 9.88284 l -2.7e-4,-10.05102 -2.8e-4,-10.051021 h 19.94898 19.94897 v -9.868274 -9.868275 l -29.23409,-0.191252 c -22.90119,-0.149825 -29.361,0.0082 -29.82028,0.730983 -0.32247,0.507229 -0.59141,9.556976 -0.59754,20.110548 l -0.011,19.188311 H 250.36557 240.1167 v 9.868275 9.868275 h 10.24887 10.24888 z M 120.05831,290.21945 v -10.24552 h 20.13171 20.13171 v -9.86827 -9.86828 h 9.15078 9.15078 v 9.86828 9.86827 h -9.13019 -9.1301 l -0.2037,10.05102 -0.2036,10.05103 -19.9487,0.1945 -19.94869,0.1945 z m 202.04918,-20.11379 v -9.86828 h 9.15078 9.15078 v 9.86828 9.86827 h -9.15078 -9.15078 z m -281.99185,-40.02252 -0.218154,-10.0522 10.065856,9.1e-4 10.065856,9.1e-4 v 9.82872 9.82872 l -9.847701,0.2223 -9.847702,0.2223 z M 2.7452335e-4,210.16502 v -9.86827 H 9.8831153 19.765956 V 190.06298 179.82921 H 30.014828 40.2637 v 10.23377 10.23377 H 30.014828 19.765956 v 9.86827 9.86826 H 9.8831153 2.7452335e-4 Z m 0,-139.983295 V 0 L 70.095238,0.18641902 140.1902,0.37283803 140.117,70.181744 140.0438,139.99065 70.022407,140.17707 0.00101659,140.36349 Z M 120.05849,69.816234 V 19.743896 H 69.912222 19.765956 V 69.816252 119.8886 H 69.912222 120.05849 Z M 40.096607,70.120323 C 39.987163,53.602878 39.952299,40.034 40.018825,39.967261 c 0.0668,-0.0667 13.655707,-0.03189 30.197569,0.07739 l 30.076046,0.1987 V 70.197716 100.15208 H 70.29381 40.29527 Z M 360.90789,139.80788 c 4.6e-4,-0.30153 -0.009,-31.30435 -0.0137,-68.895171 -0.009,-37.590817 -0.009,-68.9225887 0,-69.6261601 0.0128,-1.20922914 3.81898,-1.27922079 69.55991,-1.27922079 H 500 V 70.181744 140.35613 h -69.54592 c -38.25025,0 -69.54555,-0.24671 -69.545,-0.54824 z M 480.96501,69.816252 V 19.743896 H 430.81874 380.67248 V 69.816252 119.8886 h 50.14626 50.14627 z m -80.52685,0.365492 V 40.211428 h 29.64852 30.17716 c 0.29081,0 0.49213,0.657885 0.44738,1.461967 -0.0448,0.804081 -0.11795,14.290723 -0.1627,29.970315 l -0.0814,28.50835 h -30.01455 -30.01456 z" />
</svg>