<svg id="DRMAX" width="500" height="130" viewBox="0 0 500 130" version="1.1" xml:space="preserve" xmlns:xlink="http://www.w3.org/1999/xlink" xmlns="http://www.w3.org/2000/svg" xmlns:svg="http://www.w3.org/2000/svg">
	<path id="0000368332" style="fill:#000000;stroke:#000000;stroke-width:0" d="M 488.88889,0 H 500 v 130 h -11.11111 z m -11.11111,0 h 5.55555 v 130 h -5.55555 z m -22.22222,0 h 16.66666 v 130 h -16.66666 z m -27.77778,0 h 11.11111 v 130 h -11.11111 z m -16.66667,0 h 5.55556 v 130 h -5.55556 z M 400,0 h 5.55556 V 130 H 400 Z m -33.33333,0 h 22.22222 V 130 H 366.66667 Z M 350,0 h 11.11111 V 130 H 350 Z m -16.66667,0 h 11.11111 v 130 h -11.11111 z m -27.77777,0 h 11.11111 v 130 h -11.11111 z m -16.66667,0 h 5.55555 v 130 h -5.55555 z m -33.33333,0 h 22.22222 V 130 H 255.55556 Z M 244.44444,0 H 250 v 130 h -5.55556 z m -22.22222,0 h 5.55556 v 130 h -5.55556 z m -27.77778,0 h 11.11112 v 130 h -11.11112 z m -11.11111,0 h 5.55556 v 130 h -5.55556 z m -22.22222,0 h 11.11111 V 130 H 161.11111 Z M 138.88889,0 H 150 v 130 h -11.11111 z m -16.66667,0 h 11.11111 V 130 H 122.22222 Z M 100,0 h 11.11111 V 130 H 100 Z M 77.777778,0 H 88.888889 V 130 H 77.777778 Z M 61.111111,0 H 72.222222 V 130 H 61.111111 Z M 33.333333,0 H 50 V 130 H 33.333333 Z M 16.666667,0 h 5.555555 V 130 H 16.666667 Z M 0,0 H 11.111111 V 130 H 0 Z" />
</svg>