<svg id="EMBARGO" width="500" height="500" viewBox="0 0 500 500" version="1.1" xml:space="preserve" xmlns:xlink="http://www.w3.org/1999/xlink" xmlns="http://www.w3.org/2000/svg" xmlns:svg="http://www.w3.org/2000/svg">
	<path id="283445" style="fill:#000000;stroke:#000000;stroke-width:0" d="m 0,416.66667 v -83.33334 h 83.33333 83.33333 V 416.66667 500 H 83.33333 0 Z m 142.85714,0 V 357.14286 H 83.33333 23.809523 v 59.52381 59.52381 h 59.523807 59.52381 z m -95.238094,0 v -35.71429 h 35.714284 35.71428 v 35.71429 35.71428 H 83.33333 47.619046 Z M 190.47618,452.38095 V 404.7619 h 11.90478 11.90476 V 369.04762 333.33333 H 202.38096 190.47618 V 321.42857 309.52381 H 95.238092 0 V 297.61905 285.71429 H 11.904761 23.809523 V 273.80952 261.90476 H 11.904761 0 v -35.71428 -35.71429 h 47.619046 47.619046 v 11.90476 11.90476 h 11.904758 11.90476 v 11.90477 11.90476 h 23.80953 23.80952 V 226.19048 214.28571 H 154.7619 142.85714 v -11.90476 -11.90476 h 11.90476 11.90476 v 11.90476 11.90476 h 11.90476 11.90476 v -11.90476 -11.90476 h 11.90478 11.90476 V 178.57143 166.66667 H 202.38096 190.47618 V 154.7619 142.85714 h 11.90478 11.90476 v 11.90476 11.90477 h 11.90477 11.90476 V 154.7619 142.85714 h 11.90476 11.90476 v 23.80953 23.80952 h 11.90476 11.90476 v 35.71429 35.71428 h -23.80952 -23.80952 v 11.90476 11.90477 h -11.90476 -11.90477 v 23.80952 23.80952 h 23.80953 23.80952 v 23.80953 23.80952 h -11.90476 -11.90476 v 11.90476 11.90476 h -11.90476 -11.90477 v 35.71429 35.71429 h 11.90477 11.90476 v -11.90477 -11.90476 h 11.90476 11.90476 v 11.90476 11.90477 H 250.00001 238.09525 V 488.09524 500 H 214.28572 190.47618 Z M 95.238092,261.90476 V 238.09524 H 83.33333 71.428569 V 226.19048 214.28571 H 47.619046 23.809523 v 23.80953 23.80952 h 11.904761 11.904762 v 11.90476 11.90477 H 71.428569 95.238092 Z M 47.619046,250 V 238.09524 H 59.523807 71.428569 V 250 261.90476 H 59.523807 47.619046 Z m 142.857134,23.80952 v -11.90476 h -23.80952 -23.80952 v 11.90476 11.90477 h 23.80952 23.80952 z m 47.61907,-47.61904 v -35.71429 h -11.90476 -11.90477 v 35.71429 35.71428 h 11.90477 11.90476 z m 95.23809,250 v -23.80953 h 11.90476 11.90476 V 476.19048 500 H 345.2381 333.33334 Z m 47.61905,0 v -23.80953 h 11.90476 11.90476 v -11.90476 -11.90476 h 23.80952 23.80952 V 416.66667 404.7619 h -23.80952 -23.80952 v -11.90476 -11.90476 h -11.90476 -11.90476 v 11.90476 11.90476 h -11.90477 -11.90476 v 11.90477 11.90476 h -23.80952 -23.80952 v 23.80952 23.80953 H 297.61906 285.71429 V 452.38095 428.57143 H 273.80953 261.90477 V 416.66667 404.7619 h 23.80952 23.80953 v -11.90476 -11.90476 h -11.90476 -11.90477 v -11.90476 -11.90476 h 11.90477 11.90476 V 345.2381 333.33333 h -11.90476 -11.90477 v -11.90476 -11.90476 h -11.90476 -11.90476 v -11.90476 -11.90476 h 23.80952 23.80953 v -47.61905 -47.61905 h 11.90476 11.90476 v 11.90476 11.90476 h 11.90476 11.90476 v 11.90477 11.90476 h 11.90476 11.90477 v 23.80952 23.80953 h 11.90476 11.90476 v -11.90477 -11.90476 h 11.90476 11.90476 v 11.90476 11.90477 h -11.90476 -11.90476 v 11.90476 11.90476 h 11.90476 11.90476 v 11.90476 11.90476 h 11.90476 11.90476 v 23.80953 23.80952 h 11.90477 11.90476 V 369.04762 357.14286 H 488.09524 500 v 11.90476 11.90476 h -11.90476 -11.90476 v 23.80952 23.80953 h -11.90476 -11.90477 v 11.90476 11.90476 h -23.80952 -23.80952 v 11.90476 11.90477 h 23.80952 23.80952 V 488.09524 500 h -35.71428 -35.71428 z m -23.80953,-83.33334 v -11.90476 h 11.90476 11.90477 V 369.04762 357.14286 H 345.2381 309.52382 v 11.90476 11.90476 h 11.90476 11.90476 v 11.90476 11.90476 h 11.90476 11.90476 z m 71.42857,-47.61904 v -11.90477 h -11.90476 -11.90476 v 11.90477 11.90476 h 11.90476 11.90476 z m -95.23809,-23.80953 v -11.90476 h -11.90476 -11.90476 v 11.90476 11.90476 h 11.90476 11.90476 z m 47.61905,-11.90476 V 285.71429 H 369.04762 357.14286 V 261.90476 238.09524 H 345.2381 333.33334 v 23.80952 23.80953 h 11.90476 11.90476 v 23.80952 23.80952 h 11.90476 11.90477 z m 95.23809,154.7619 V 452.38095 H 488.09524 500 v 11.90476 11.90477 h -11.90476 -11.90476 z m 0,-142.85714 v -11.90476 h -11.90476 -11.90477 v -11.90476 -11.90476 h 11.90477 11.90476 v 11.90476 11.90476 H 488.09524 500 v 11.90476 11.90476 H 488.09524 476.19048 Z M 452.38095,250 v -11.90476 h 11.90477 11.90476 V 214.28571 190.47619 H 488.09524 500 v 35.71429 35.71428 h -23.80952 -23.80953 z m -47.61904,-23.80952 v -11.90477 h -11.90476 -11.90476 v -11.90476 -11.90476 h 35.71428 35.71428 v 11.90476 11.90476 h -11.90476 -11.90476 v 11.90477 11.90476 H 416.66667 404.76191 Z M 0,83.333333 V 0 h 83.33333 83.33333 V 83.333333 166.66667 H 83.33333 0 Z m 142.85714,0 V 23.809524 H 83.33333 23.809523 v 59.523809 59.523807 h 59.523807 59.52381 z m -95.238094,0 V 47.619048 H 83.33333 119.04761 V 83.333333 119.04762 H 83.33333 47.619046 Z M 285.71429,154.7619 v -11.90476 h 11.90477 11.90476 v 11.90476 11.90477 H 297.61906 285.71429 Z M 333.33334,83.333333 V 0 H 416.66667 500 v 83.333333 83.333337 h -83.33333 -83.33333 z m 142.85714,0 V 23.809524 h -59.52381 -59.52381 v 59.523809 59.523807 h 59.52381 59.52381 z m -95.23809,0 V 47.619048 h 35.71428 35.71428 v 35.714285 35.714287 h -35.71428 -35.71428 z m -190.47621,0 V 47.619048 h 11.90478 11.90476 V 35.714286 23.809524 H 202.38096 190.47618 V 11.904762 0 h 23.80954 23.80953 v 23.809524 23.809524 h 11.90476 11.90476 V 59.52381 71.428571 h 11.90476 11.90476 V 35.714286 0 h 11.90477 11.90476 v 35.714286 35.714285 h -11.90476 -11.90477 v 23.809524 23.809525 h -47.61904 -47.61907 z m 71.42859,0 V 71.428571 H 250.00001 238.09525 V 59.52381 47.619048 h -11.90476 -11.90477 v 23.809523 23.809524 h 23.80953 23.80952 z" />
</svg>