<svg id="H&M" width="500" height="500" viewBox="0 0 500 500" version="1.1" xml:space="preserve" xmlns:xlink="http://www.w3.org/1999/xlink" xmlns="http://www.w3.org/2000/svg" xmlns:svg="http://www.w3.org/2000/svg">
	<path id="100710137456810" style="fill:#000000;stroke:#000000;stroke-width:0" d="m 0.2422,461.04867 c 0.1334,-21.42324 0.2559,-40.37491 0.2722,-42.11486 l 0.03,-3.16353 42.0182,-0.0953 42.0182,-0.0953 -0.2235,41.67614 c -0.1229,22.92186 -0.3067,41.75112 -0.4085,41.84278 -0.1017,0.0917 -19.0318,0.33198 -42.0669,0.53404 L 0,500 Z m 73.0779,27.02536 c 0.7418,-0.61383 0.8304,-3.82603 0.8426,-30.55174 0.013,-27.23024 -0.062,-29.92857 -0.8487,-30.57741 -0.7161,-0.59099 -5.9697,-0.68018 -30.983,-0.52589 -16.5663,0.10213 -30.5079,0.38991 -30.9813,0.6395 -0.7857,0.41418 -0.8667,3.07443 -0.9291,30.49598 -0.053,23.37393 0.076,30.21522 0.5805,30.82173 0.5683,0.68273 4.4278,0.75497 31.0695,0.58165 24.2861,-0.15797 30.5877,-0.33621 31.2495,-0.88382 z M 24.8907,472.12281 c -0.1436,-18.66133 0.1349,-31.42307 0.6936,-31.77711 0.3441,-0.21807 8.1535,-0.40004 17.3542,-0.40438 l 16.7286,-0.008 -0.1365,17.44832 -0.1366,17.44832 -17.2401,0.13622 -17.2402,0.13621 z m 73.9426,26.86639 c -0.1683,-0.16781 -0.296,-13.49895 -0.2838,-29.62473 l 0.022,-29.31962 4.003,-0.20954 c 2.2017,-0.11527 4.5281,-0.11322 5.1697,0.005 l 1.1666,0.21407 v 11.30155 11.30151 l 1.2973,0.84748 c 1.0463,0.68359 2.2984,0.8074 6.4733,0.6402 3.226,-0.12919 5.4233,-0.45373 5.8322,-0.86144 0.8965,-0.89394 0.9463,-23.52577 0.054,-24.41563 -0.3503,-0.34928 -2.8215,-0.67944 -5.9075,-0.78929 -2.9179,-0.10387 -5.4177,-0.30096 -5.5552,-0.43799 -0.1374,-0.13703 -0.2076,-2.70154 -0.156,-5.69889 0.052,-2.99732 -0.094,-5.47932 -0.3239,-5.5155 -0.2297,-0.0361 -2.9843,-0.21066 -6.1212,-0.38774 l -5.7035,-0.32194 0.01,-11.11524 0.01,-11.11524 5.0116,-0.1475 5.0115,-0.14753 0.031,5.2851 c 0.017,2.98195 0.2701,5.52444 0.5796,5.83437 0.3016,0.30212 3.0461,0.66563 6.0988,0.80778 l 5.5504,0.2585 0.1478,5.29906 c 0.1348,4.83423 0.2497,5.36563 1.3098,6.05825 0.9565,0.62488 3.8662,0.75737 16.4443,0.74888 8.4052,-0.006 16.0988,0 17.097,0.0163 l 1.8147,0.0267 v 17.31905 17.31905 l -5.0554,8e-5 -5.0554,8e-5 v -11.56952 -11.56948 l -1.5497,-0.64008 c -1.6659,-0.68801 -11.1489,-0.5549 -12.3202,0.17293 -0.4981,0.30949 -0.6481,4.51388 -0.6481,18.16122 v 17.75848 l -5.4196,0.17631 c -3.1953,0.10395 -5.6664,0.42302 -6.0212,0.77742 -0.4864,0.48599 -0.744,4.32288 -0.744,11.08274 0,0.0299 -2.6122,0.21179 -5.805,0.40415 -3.1927,0.19231 -5.9545,0.49882 -6.1374,0.68114 -0.1828,0.18228 -0.3451,2.79278 -0.3606,5.8011 l -0.028,5.46966 -1.3526,0.0766 c -5.0951,0.28852 -8.3159,0.30453 -8.5785,0.0427 z m 48.9653,-5.56373 v -5.46501 l -1.9001,-0.79161 c -1.1731,-0.48871 -3.2065,-0.75338 -5.3146,-0.69173 -5.735,0.16766 -5.2294,0.66897 -5.2294,-5.18475 v -5.16986 h 11.1478 c 8.5439,0 11.1603,0.15095 11.2014,0.64621 0.03,0.35544 0.01,2.45878 -0.046,4.6741 -0.1512,6.13277 0.2233,6.49752 6.8623,6.68154 l 5.3145,0.14734 v 5.16986 5.1699 l -11.0181,0.13951 -11.0181,0.13955 z m 36.7876,5.12702 c -0.014,-0.25192 -0.072,-2.66816 -0.1296,-5.36939 l -0.1037,-4.9114 5.0554,-0.14796 5.0554,-0.14796 v 5.18859 5.18859 h -2.5202 c -1.386,0 -3.6026,0.14792 -4.9257,0.32876 -1.3231,0.1808 -2.4173,0.12264 -2.4316,-0.12923 z m 24.3091,-0.70472 c -0.095,-0.27786 -0.098,-2.6043 -0.01,-5.16986 l 0.1664,-4.66471 h 4.8026 c 2.6414,0 4.8998,0.0959 5.0186,0.21314 0.1188,0.11725 0.1417,2.44369 0.051,5.1699 l -0.1652,4.95672 h -4.847 c -2.6922,0 -4.9238,-0.22458 -5.0198,-0.50519 z m 85.4586,-3.50145 c -0.1818,-1.91932 -0.3322,-4.32277 -0.3342,-5.34101 -0.01,-2.48635 -1.1738,-3.01786 -7.0035,-3.18486 l -4.6665,-0.1337 -0.1484,-5.04062 -0.1484,-5.04063 2.4817,-0.0306 c 1.3649,-0.0167 6.3898,-0.10911 11.1665,-0.20519 l 8.6849,-0.17476 v 5.11659 c 0,6.87917 0.2948,7.18719 6.8702,7.1775 7.4014,-0.0109 6.9476,0.37657 7.4649,-6.37244 l 0.4422,-5.76969 2.074,-0.17042 c 1.1407,-0.0937 3.299,-0.019 4.7962,0.16646 l 2.7221,0.33683 v 4.77538 c 0,6.56448 0.167,6.74738 6.3095,6.91244 2.6611,0.0715 5.0917,0.22407 5.4014,0.339 0.3411,0.1266 0.604,2.16472 0.6668,5.16912 l 0.1037,4.96014 h -23.2763 -23.2763 z m 73.2239,1.56965 c -0.056,-1.68167 -0.028,-7.36133 0.042,-8.5567 0.027,-0.45284 8.5632,-0.35183 9.3129,0.1102 0.2719,0.1675 0.5434,2.51035 0.6034,5.20627 l 0.1091,4.90173 -5.001,0.14797 -5.0011,0.14796 z m 49.0249,1.16008 c -0.3782,-1.13073 -0.5677,-9.01939 -0.2298,-9.56459 0.2304,-0.37165 1.9912,-0.52171 4.9791,-0.42434 l 4.6226,0.15059 v 5.11977 5.11973 l -4.5969,0.0657 c -2.752,0.0394 -4.6684,-0.148 -4.775,-0.46684 z m 24.0516,-3.76372 c -0.349,-6.62951 -0.587,-6.33308 5.0838,-6.33308 h 4.8654 v 5.16986 5.16986 h -4.8691 -4.8691 z m -268.5691,-7.4963 c -0.1066,-0.35545 -0.1145,-2.68189 -0.017,-5.1699 l 0.1765,-4.52362 h 4.8877 c 5.6094,0 5.0915,-0.63942 5.1267,6.33033 l 0.02,4.00393 -4.9999,0.004 c -3.5529,0.004 -5.056,-0.18429 -5.1938,-0.64349 z m 266.5927,0.12923 c -0.4277,-0.27565 -2.9442,-0.50472 -5.592,-0.50907 l -4.8143,-0.008 0.1478,-5.28335 0.1477,-5.28335 4.6666,0.16005 c 2.5665,0.088 4.7831,0.27476 4.9257,0.41496 0.1426,0.14021 0.2762,2.15487 0.2969,4.47705 0.021,2.32218 0.3206,4.7456 0.6664,5.38537 0.7036,1.30172 0.6633,1.36023 -0.4448,0.64624 z M 233.3513,480.7754 v -5.1699 h 4.9258 4.9257 v 5.1699 5.16986 h -4.9257 -4.9258 z m 24.3696,0.0186 v -5.18859 h 5.0825 5.0826 l -0.1081,5.04063 -0.1082,5.04063 -4.9744,0.14796 -4.9744,0.148 z m 102.2744,4.76599 -4.7961,-0.17061 v -5.326 c 0,-5.20557 -0.03,-5.33953 -1.3207,-5.92591 -0.8679,-0.39434 -5.0445,-0.59999 -12.1848,-0.59999 H 330.8296 V 456.25007 438.9627 l 2.3364,-0.34935 c 1.2851,-0.19217 3.6183,-0.18965 5.185,0.005 l 2.8486,0.3549 v 10.97918 c 0,8.68395 0.1544,11.18903 0.7383,11.98277 0.6955,0.94531 1.4173,1.00002 12.4379,0.94267 8.5505,-0.0444 11.9108,-0.23559 12.4842,-0.71014 0.6623,-0.548 0.7715,-2.43424 0.6996,-12.08836 l -0.085,-11.43904 h 4.8806 4.8806 l 0.13,4.39438 c 0.072,2.41694 0.2409,4.87797 0.3765,5.469 0.3823,1.66709 2.4873,2.28581 7.7769,2.28581 3.8104,0 5.0479,-0.18305 5.7118,-0.84504 0.7366,-0.73446 0.8386,-2.30737 0.7788,-12.01996 -0.038,-6.14619 -0.053,-19.49194 -0.033,-29.65718 l 0.036,-18.48231 11.2774,-0.008 c 6.2026,-0.004 11.6274,-0.22814 12.0551,-0.49735 0.5902,-0.37142 0.8202,-1.7943 0.9536,-5.90074 l 0.1757,-5.41132 4.3732,-0.16593 c 2.4052,-0.0913 4.601,-0.0884 4.8796,0.006 0.2839,0.0966 0.5065,2.42046 0.5065,5.28721 0,6.67123 0.2288,6.86072 7.9766,6.60799 2.9813,-0.0972 5.6144,-0.37009 5.8513,-0.60631 0.237,-0.23621 0.5098,-2.96791 0.6063,-6.0704 l 0.1754,-5.64091 4.6325,0.0642 c 2.5479,0.0353 4.756,0.26337 4.9069,0.50679 0.1509,0.24342 0.2565,8.08928 0.2346,17.43525 -0.036,15.29373 0.047,17.0647 0.829,17.71284 0.5791,0.48006 2.6142,0.77812 6.1052,0.89409 l 5.2365,0.17398 0.09,5.23206 c 0.1116,6.52532 0.1567,6.56917 6.7663,6.56917 3.4138,0 4.9066,0.19073 5.0585,0.64625 0.1185,0.35544 0.2862,2.78642 0.3726,5.4022 l 0.1571,4.75598 -5.6206,-0.0306 c -3.4638,-0.019 -5.8411,0.18926 -6.1954,0.54249 -0.3649,0.36385 -0.5292,2.55032 -0.4496,5.98563 l 0.1253,5.41243 -6.1147,0.14583 -6.1146,0.14586 v 6.08497 6.08501 l -11.1478,-0.13963 -11.1478,-0.13966 -0.1481,-5.33322 -0.1481,-5.33321 -1.7829,-0.74276 c -1.8552,-0.77284 -10.4368,-0.97749 -11.5752,-0.27599 -0.3655,0.22524 -0.611,1.96545 -0.6315,4.47588 -0.018,2.25905 -0.1625,4.86347 -0.3202,5.78761 l -0.2867,1.68019 h -17.4676 c -12.8946,0 -17.6305,0.16243 -18.0898,0.62039 -0.407,0.40569 -0.6223,2.54672 -0.6223,6.1869 v 5.56656 l -5.8331,0.14618 -5.8331,0.14618 v 6.07515 c 0,3.77741 -0.1961,6.03441 -0.5186,5.96733 -0.2851,-0.0593 -2.6767,-0.18464 -5.3146,-0.27847 z m 79.7166,-47.69305 c 0.9126,-0.48697 0.9674,-1.49548 0.9925,-18.2713 l 0.026,-17.75592 -1.3639,-0.72798 c -1.0956,-0.58476 -4.8084,-0.72799 -18.8714,-0.72799 -9.6291,0 -17.7019,0.1936 -17.9397,0.43024 -0.2378,0.2366 -0.4994,8.31223 -0.5815,17.94579 -0.1451,17.03666 -0.1203,17.54441 0.9074,18.56909 1.0211,1.01813 1.6405,1.05345 18.4604,1.05345 10.5753,0 17.7829,-0.2022 18.3698,-0.51538 z m -21.3491,-13.2788 -1.9083,-0.2226 -0.1657,-4.63563 c -0.091,-2.54959 -0.088,-4.86293 0.01,-5.14078 0.096,-0.28065 2.3279,-0.50519 5.0209,-0.50519 h 4.8482 l 0.164,5.17099 0.1641,5.17098 -1.2963,0.005 c -0.7129,0.004 -2.1129,0.0891 -3.111,0.19239 -0.9981,0.10334 -2.6735,0.0877 -3.7231,-0.0349 z m -9.2395,60.87034 -4.9257,-0.28879 -0.1484,-5.04063 -0.1484,-5.04062 h 5.2391 5.2392 l -0.1232,4.26514 c -0.068,2.34583 0.049,4.7886 0.2588,5.42837 0.2101,0.63977 0.1913,1.11867 -0.042,1.06427 -0.2331,-0.0544 -2.6404,-0.22892 -5.3496,-0.38774 z M 160.3101,473.8571 c -0.3973,-0.49437 -0.4238,-2.44451 -0.122,-8.99857 0.053,-1.15434 0.1692,-1.17904 4.8506,-1.03394 l 4.7961,0.14862 0.1478,5.29583 0.1477,5.2958 -4.6778,-0.0648 c -2.7479,-0.038 -4.8696,-0.30333 -5.1424,-0.64291 z m 24.2418,-0.0349 c -0.1773,-0.17673 -0.1523,-18.87676 0.044,-33.2425 0.016,-1.12356 0.1839,-1.16322 4.9417,-1.16322 h 4.9258 v 11.3618 11.36181 l 1.2611,0.82391 c 1.0786,0.70464 2.9139,0.7999 12.6784,0.65815 7.2316,-0.105 11.6212,-0.36948 11.9736,-0.72143 0.3566,-0.3563 0.5893,-4.66425 0.6483,-12.0048 0.06,-7.42946 0.2827,-11.51787 0.6352,-11.64493 0.4162,-0.15006 6.5014,-0.0588 9.216,0.13815 0.2073,0.0151 0.3645,7.58172 0.3493,16.81487 -0.015,9.23315 0.1207,17.02673 0.3019,17.31909 0.3247,0.52372 -46.4516,0.82154 -46.9756,0.2991 z m 61.1757,-0.25133 c -0.2102,-0.90468 -0.1488,-9.85873 0.068,-9.88238 0.1427,-0.0155 2.4176,-0.0892 5.0554,-0.16359 l 4.7962,-0.13528 v 5.36741 5.36742 l -4.9258,-0.1309 c -2.7092,-0.0721 -4.9562,-0.26223 -4.9935,-0.42268 z m 28.8446,0.0947 -4.6665,-0.16312 0.1582,-4.50605 c 0.087,-2.47832 0.2546,-4.79685 0.3726,-5.15229 0.2379,-0.71697 8.8101,-0.95303 9.243,-0.25455 0.4928,0.79494 0.5438,10.13588 0.056,10.1871 -0.2731,0.0287 -2.5964,-0.0213 -5.163,-0.11109 z m 32.1084,-0.81739 c -0.1459,-0.37921 -0.1969,-2.64749 -0.1133,-5.04063 l 0.152,-4.35118 4.6226,-0.15064 c 3.3485,-0.10907 4.7398,0.0333 5.0475,0.51701 0.2336,0.36719 0.4283,2.70325 0.4327,5.19123 l 0.01,4.52365 h -4.9419 c -3.6405,0 -5.0119,-0.18158 -5.2074,-0.68944 z m 145.9537,-0.0407 c -0.1189,-0.11726 -0.1417,-2.4437 -0.051,-5.1699 l 0.1652,-4.95672 h 11.1122 11.1122 v 4.35211 c 0,2.39364 0.1416,4.72008 0.3148,5.16986 0.2811,0.73039 -0.9009,0.81779 -11.0614,0.81779 -6.2569,0 -11.4733,-0.0959 -11.5921,-0.21314 z M 257.7209,444.6168 c 0,-9.36653 0.189,-17.14654 0.42,-17.28892 0.2311,-0.14234 10.7307,-0.37126 23.3326,-0.50864 l 22.9125,-0.24982 v 17.02173 c 0,9.36196 0.058,17.19625 0.1296,17.40951 0.071,0.21326 -2.0325,0.45466 -4.6752,0.53648 -3.5575,0.11016 -4.8677,-0.024 -5.0467,-0.51698 -0.133,-0.36618 -0.3041,-5.54469 -0.3802,-11.50782 l -0.1382,-10.84208 -1.2963,-0.65327 c -1.9559,-0.98571 -23.5062,-0.93856 -24.5013,0.0536 -0.5883,0.58661 -0.6885,2.86699 -0.5341,12.14919 l 0.1901,11.42706 h -5.2064 -5.2064 z m 219.6899,16.18646 c -0.2001,-0.19949 -0.3637,-5.32577 -0.3637,-11.39174 v -11.02908 h 4.8653 4.8654 l 0.2461,3.23119 c 0.1354,1.77714 0.2209,6.83715 0.19,11.24448 l -0.056,8.01328 -4.6916,0.14726 c -2.5804,0.081 -4.8554,-0.0159 -5.0554,-0.21539 z M 172.5004,435.48532 c -0.5353,-3.89392 -0.3884,-7.26959 0.3427,-7.87455 0.7339,-0.60731 7.7158,-0.66567 8.6783,-0.0725 0.3655,0.22516 0.6238,2.22233 0.6748,5.21681 l 0.083,4.85192 -4.7231,0.14769 -4.7231,0.14769 z m 60.8509,-3.51599 c 0,-3.76551 -0.1975,-5.54403 -0.6481,-5.8348 -0.3565,-0.23005 -5.7813,-0.53458 -12.0552,-0.67676 l -11.407,-0.25851 -0.1502,-4.86816 c -0.1095,-3.54872 0.031,-4.98095 0.5185,-5.28424 0.3678,-0.22885 8.0768,-0.41427 17.1311,-0.41202 l 16.4624,0.004 0.05,4.76324 c 0.027,2.61973 0.044,7.67125 0.038,11.22551 l -0.011,6.46236 -4.9642,0.14796 -4.9641,0.14796 z m 85.8246,4.96086 c -0.1495,-0.14908 -0.2718,-2.5587 -0.2718,-5.35473 v -5.08371 h 4.9257 4.9258 v 4.91136 5.28765 c 0,0.42729 -9.1633,0.65629 -9.5814,0.23943 z m -157.706,-11.47677 -1.478,-0.26281 v -5.03628 -5.03628 l 5.021,-4e-5 h 5.0209 l 0.1641,5.13469 0.1641,5.13469 -3.7028,0.16444 c -2.0365,0.0904 -4.3678,0.0461 -5.1807,-0.0984 z m 145.3085,-0.93418 c -0.1436,-0.23183 -0.2157,-2.50011 -0.1602,-5.04063 l 0.1011,-4.61907 h 4.9257 4.9258 l 0.089,5.04063 0.089,5.04062 h -4.8541 c -2.6697,0 -4.9716,-0.18968 -5.1154,-0.42155 z m 24.2718,-0.26789 c -0.1459,-0.37921 -0.1969,-2.64749 -0.1133,-5.04063 l 0.1519,-4.35118 5.1851,-0.31659 c 2.8517,-0.17414 5.5933,-0.48983 6.0923,-0.70154 0.7853,-0.33319 0.9075,-1.14535 0.9075,-6.03526 v -5.65035 l 5.001,0.148 5.001,0.14797 -0.1058,4.75168 c -0.1475,6.62264 0.1385,6.88053 7.6291,6.88053 3.6641,0 5.8149,-0.21446 6.222,-0.62038 0.4468,-0.44548 0.6222,-3.87295 0.6222,-12.15497 V 389.7741 l 4.7962,0.2326 4.7961,0.23261 0.1365,17.35073 0.1365,17.35072 H 354.412 c -18.7709,0 -23.1461,-0.12911 -23.3618,-0.68944 z m 158.2013,-4.86847 0.02,-5.04035 h 4.9061 4.9061 l 0.1632,5.04062 0.1631,5.04063 -5.0889,-2.7e-4 -5.0889,-3.1e-4 z M 123.328,402.11897 c 0.1075,-7.77703 -0.023,-11.62993 -0.4072,-12.0129 -0.3126,-0.31167 -3.1079,-0.65059 -6.2507,-0.75784 l -5.6852,-0.19403 v -15.90478 c 0,-8.74764 0.14,-16.60276 0.3111,-17.45583 l 0.3112,-1.55103 3.9665,-0.0519 c 5.9684,-0.0781 5.7341,-0.29361 5.7341,5.27503 0,2.62927 0.1442,5.15503 0.3204,5.61282 0.4462,1.15946 2.3212,1.52213 7.1986,1.39235 l 4.1945,-0.11161 0.1497,5.10304 c 0.2163,7.3702 -0.5754,6.94958 13.0808,6.94958 h 11.2551 l 0.342,3.32883 c 0.1881,1.83085 0.1972,4.23177 0.02,5.33536 -0.483,3.01199 0.9397,3.7435 7.281,3.7435 h 4.944 v 5.12279 5.12283 l -5.4196,0.1763 c -3.4008,0.11062 -5.6585,0.415 -6.061,0.81713 -0.424,0.42353 -0.6521,2.48898 -0.6729,6.09167 l -0.032,5.4509 -4.9257,-0.14634 -4.9258,-0.14633 -0.1392,-11.69875 -0.1392,-11.69875 -1.6107,-0.32121 c -2.5302,-0.50456 -10.7808,-0.37541 -11.8314,0.18519 -0.8715,0.46513 -0.9542,1.41913 -1.0134,11.69863 -0.035,6.15573 -0.1902,11.395 -0.3438,11.6428 -0.1536,0.24781 -2.4238,0.45083 -5.0448,0.4511 h -4.7655 z m 49.0609,10.75914 c -0.145,-0.377 -0.1958,-2.76083 -0.1126,-5.29739 l 0.1511,-4.61198 5.1664,-0.14932 c 6.0326,-0.17433 7.0872,-0.73446 6.9382,-3.68501 -0.051,-1.0189 -0.055,-3.37245 -0.01,-5.23015 l 0.087,-3.37765 10.2403,0.1081 c 5.6323,0.0594 10.6488,0.12536 11.1478,0.14645 0.8352,0.0353 0.9074,0.9338 0.9074,11.29717 v 11.25875 l -17.1275,0.11322 c -13.8257,0.0914 -17.1783,-0.019 -17.3913,-0.57219 z m 73.3733,-0.0326 c -0.1244,-0.12346 -0.1589,-5.25071 -0.077,-11.39395 l 0.1493,-11.16949 10.9985,0.13947 10.9985,0.13947 v 11.11524 11.11521 l -10.9218,0.13927 c -6.0069,0.0766 -11.0234,0.0384 -11.1477,-0.0852 z m 73.4285,-0.19911 c -0.1576,-0.15715 -0.2866,-2.57343 -0.2866,-5.36947 v -5.0837 h 4.9257 4.9258 l 0.078,4.65288 c 0.043,2.55909 0.1011,4.93234 0.1296,5.2739 0.037,0.43582 -1.3703,0.6495 -4.7169,0.71658 -2.6229,0.0526 -4.8978,-0.033 -5.0554,-0.19019 z M 0.4392,393.79217 c -0.085,-4.62055 -0.038,-15.26402 0.1049,-23.65214 l 0.2593,-15.25112 11.5119,-0.2585 c 7.9603,-0.17874 11.7038,-0.4501 12.1336,-0.87957 0.3815,-0.38105 0.6769,-2.67874 0.7646,-5.94535 l 0.1428,-5.32428 h 4.8341 4.8341 l 0.1497,5.15133 c 0.2017,6.93849 0.2627,6.99787 7.1896,6.99787 h 5.3639 v 5.16988 5.16987 l -2.2036,0.06 c -6.6405,0.18073 -9.4234,0.49097 -9.8068,1.09326 -0.2298,0.36092 -0.4213,3.04083 -0.4257,5.95535 l -0.01,5.29912 h -5.2522 -5.2522 l 0.2678,-5.1914 c 0.3577,-6.93514 0.4728,-6.83271 -7.4294,-6.61157 -3.3559,0.0939 -6.2624,0.33174 -6.459,0.5285 -0.1965,0.19676 -0.3903,8.26913 -0.4306,17.9386 -0.084,20.25279 0.6333,18.1322 -6.1409,18.14418 l -3.9936,0.007 z m 49.107,7.23784 c -0.1941,-0.56265 -0.1477,-2.78429 0.1726,-8.27179 0.082,-1.41141 0.1102,-1.4218 3.8421,-1.43406 3.4693,-0.0112 7.3875,-0.58971 7.9769,-1.17737 0.1358,-0.1354 0.2496,-5.3902 0.2529,-11.67741 0,-8.40155 0.1686,-11.45471 0.6194,-11.5197 1.65,-0.23785 3.4163,-0.28754 12.6316,-0.35537 8.2808,-0.0609 10.0804,-0.20907 10.7589,-0.88559 0.6362,-0.63434 0.8147,-1.99021 0.8147,-6.18566 0,-4.78326 -0.11,-5.43202 -1.0029,-5.90843 -0.6341,-0.33842 -7.4014,-0.53518 -18.4068,-0.53518 H 49.8018 v -5.42837 -5.42836 h 17.4038 c 11.0054,0 17.7727,-0.19676 18.4068,-0.53518 0.8969,-0.4786 1.0029,-1.12779 1.0029,-6.14054 0,-4.51905 -0.1615,-5.73907 -0.8336,-6.29526 -0.658,-0.54451 -4.5519,-0.69404 -18.4772,-0.70954 l -17.6435,-0.0197 0.1032,-5.15949 c 0.057,-2.83771 0.1568,-5.21294 0.2223,-5.27827 0.065,-0.0653 13.5721,-0.18632 30.0147,-0.26888 19.8317,-0.0996 30.0773,-0.33131 30.4351,-0.68841 0.2968,-0.29607 0.5999,-2.97148 0.6737,-5.94535 l 0.1342,-5.40704 5.5503,-0.2585 c 3.0527,-0.14217 5.7856,-0.49402 6.0729,-0.78189 0.2875,-0.28786 0.5897,-2.96327 0.6717,-5.94535 l 0.1491,-5.42196 4.6069,0.11283 c 2.5337,0.0621 4.7031,0.20888 4.8209,0.32628 0.3707,0.36968 0.2894,21.58063 -0.084,21.95331 -0.3261,0.32534 -1.8293,0.42344 -8.64,0.56387 -1.7812,0.0367 -2.4998,0.28496 -2.7626,0.95437 -0.5759,1.46672 -0.3214,11.08192 0.3135,11.84469 0.4498,0.54033 3.1037,0.69226 12.0926,0.69226 6.334,0 11.6136,0.0959 11.7325,0.21319 0.1188,0.11727 0.1431,2.51675 0.054,5.3322 l -0.162,5.119 -23.9188,0.1157 c -16.2517,0.0786 -24.1358,0.29529 -24.5958,0.67593 -0.5374,0.4447 -0.6504,4.17114 -0.5481,18.06958 0.1046,14.19433 0,17.55932 -0.5615,17.77329 -0.3798,0.14517 -5.47,0.26394 -11.3115,0.26394 -6.3297,0 -11.0262,0.21623 -11.6239,0.53518 -0.8929,0.47646 -1.0011,1.11455 -0.9864,5.81611 0.022,7.07189 0.014,7.0636 6.6058,7.15375 6.0964,0.0834 5.8034,-0.24552 5.8147,6.52823 l 0.01,4.26514 H 67.1584 c -13.4443,0 -17.4366,-0.14652 -17.609,-0.64624 z m 172.2227,-0.25851 c -0.2952,-0.48409 -0.4899,-8.2821 -0.4064,-16.28509 l 0.063,-6.07458 h 11.0181 11.0182 v 5.16987 5.16984 h -5.0895 c -7.1799,0 -7.0953,-0.0766 -7.0953,6.42025 0,5.111 -0.052,5.36381 -1.1666,5.66163 -1.6706,0.44637 -8.0606,0.39895 -8.3418,-0.0619 z m 85.1166,-0.51697 c -0.051,-0.21326 -0.1096,-2.54738 -0.1297,-5.18696 l -0.036,-4.79922 4.9257,0.14633 4.9258,0.14633 0.1484,5.04063 0.1484,5.04063 h -4.9445 c -2.7195,0 -4.9865,-0.17449 -5.0376,-0.38774 z m 24.2898,0.0431 c -0.1901,-0.18956 -0.3457,-2.51601 -0.3457,-5.16986 v -4.82523 h 5.1506 5.1506 l 0.164,5.17102 0.1641,5.17099 h -4.969 c -2.7329,0 -5.1245,-0.15623 -5.3146,-0.34579 z m 145.9913,-11.41678 0.1397,-11.24447 h 4.6665 4.6665 l 0.5185,5.3375 c 0.4149,4.27095 0.7062,5.44179 1.4575,5.85943 0.5164,0.28704 3.1432,0.65303 5.8373,0.81329 l 4.8983,0.29138 -0.052,5.09367 -0.052,5.09367 h -11.1099 -11.11 z m -304.5448,-1.47518 c -0.036,-0.96579 -0.094,-3.39222 -0.1296,-5.39206 l -0.065,-3.63608 4.9257,0.14642 4.9258,0.14641 0.09,5.30809 0.09,5.30809 -4.8863,-0.0625 -4.8863,-0.0624 z m 97.5431,-3.82394 c 0,-2.84343 0.175,-5.18017 0.3889,-5.19275 0.2139,-0.0126 7.8553,-0.0657 16.9809,-0.11802 l 16.5921,-0.0951 0.1477,5.2879 0.1478,5.28785 h -17.1287 -17.1287 z m 53.2761,4.77935 -4.5369,-0.16673 v -4.83592 c 0,-5.66218 -0.2089,-5.46356 5.7459,-5.46356 h 4.1056 l 0.078,4.65289 c 0.043,2.55907 0.1011,4.92429 0.1296,5.25602 0.065,0.75261 -0.01,0.75993 -5.522,0.5573 z m 61.572,-0.12648 -5.185,-0.25851 -0.021,-5.05801 -0.021,-5.05804 4.9469,0.14666 4.947,0.14667 0.2674,5.16987 c 0.1472,2.84344 0.2638,5.16987 0.2593,5.16987 0,0 -2.3415,-0.11633 -5.1932,-0.25851 z m -29.3429,-0.12923 c -0.026,-0.0711 -0.1363,-2.43752 -0.2448,-5.25877 -0.1083,-2.82124 -0.448,-5.38033 -0.7548,-5.68686 -0.3485,-0.34829 -4.8674,-0.65429 -12.0481,-0.81583 l -11.4904,-0.25849 v -16.93085 c 0,-10.22709 0.2027,-17.12914 0.5061,-17.43164 0.2979,-0.29706 2.3441,-0.37117 5.0299,-0.18218 l 4.5278,0.31859 v 10.95831 c 0,10.47491 0.048,11.00164 1.0885,11.94062 1.0077,0.90919 1.9199,0.97376 12.2572,0.86754 6.1427,-0.0631 11.5983,-0.25075 12.1235,-0.41697 0.8852,-0.28011 0.9652,-1.16024 1.0943,-12.0319 l 0.1393,-11.72967 4.7961,-0.16299 4.7962,-0.16299 0.01,16.44809 c 0,9.04645 0.1477,16.97154 0.3197,17.61131 0.3101,1.15373 0.2666,1.16328 -5.3217,1.17114 -3.099,0.004 -5.9418,0.20224 -6.3174,0.43975 -0.513,0.32432 -0.6421,1.80277 -0.5185,5.93853 l 0.1645,5.50666 h -5.0554 c -2.7805,0 -5.0768,-0.0593 -5.103,-0.13032 z M 160.2426,371.76583 v -5.09511 l 3.3925,-0.31588 c 1.866,-0.17373 4.0825,-0.17829 4.9258,-0.0101 l 1.5332,0.30575 v 4.28748 c 0,2.35812 0.1416,4.65548 0.3147,5.10525 0.2742,0.71245 -0.3601,0.81776 -4.9257,0.81776 h -5.2405 z m 24.4923,-12.34622 0.1365,-17.45531 h 4.6665 4.6665 l 0.1403,11.08621 c 0.1189,9.40246 0.2689,11.22802 0.9877,12.01995 0.7665,0.84447 1.8997,0.93375 11.8514,0.93375 8.2063,0 11.1237,0.16431 11.475,0.64624 0.2591,0.35543 0.4568,2.74003 0.4394,5.29912 l -0.031,4.65288 -17.2341,0.13623 -17.2341,0.13622 z m 61.1711,12.21785 0.1486,-5.37475 4.7961,-0.14865 4.7962,-0.14865 v 5.18928 5.18927 h -1.7387 c -0.9563,0 -3.1814,0.15035 -4.9448,0.33412 l -3.206,0.33412 z m 61.007,3.80177 c -0.036,-0.4976 -0.1245,-2.82404 -0.1966,-5.16987 l -0.131,-4.26515 h 5.1223 5.1224 v 5.16988 5.16987 h -4.9258 c -4.3206,0 -4.9338,-0.11116 -4.9913,-0.90473 z m 85.2867,0.12779 c -0.1264,-0.32855 -0.1619,-2.67275 -0.079,-5.20933 l 0.1511,-4.61197 5.5331,-0.25849 c 3.0433,-0.14217 5.6611,-0.38715 5.8175,-0.5444 0.2277,-0.22897 0.8342,-16.5242 0.8342,-22.41268 v -1.38013 l 4.7961,0.14865 4.7962,0.14865 0.1365,17.46355 0.1366,17.46356 -10.9463,-0.10503 c -7.7148,-0.074 -11.0141,-0.28138 -11.1762,-0.70238 z m 36.6521,0.25995 c -0.2222,-0.14217 -0.3772,-2.46861 -0.3443,-5.16987 l 0.06,-4.91138 h 4.9258 4.9258 l 0.1465,5.18268 0.1464,5.18268 -4.7279,-0.0128 c -2.6004,-0.007 -4.9097,-0.12913 -5.1319,-0.27131 z m 24.3463,0.0862 c -0.3019,-0.0999 -0.5206,-2.32616 -0.5206,-5.29912 v -5.12679 h 11.1478 11.1477 l 0.01,4.26514 c 0,2.34583 0.1326,4.73044 0.286,5.29912 0.2725,1.01003 0.026,1.03398 -10.6342,1.03398 -6.0022,0 -11.1474,-0.0775 -11.4337,-0.17233 z M 147.8089,359.67115 c 0.031,-2.91452 0,-5.64809 -0.059,-6.0746 -0.063,-0.42652 -0.078,-3.16009 -0.033,-6.0746 l 0.082,-5.29912 5.0554,3.9e-4 5.0554,3.8e-4 0.1502,11.37322 0.1501,11.37322 h -5.2281 -5.2282 z m 73.5912,4.58515 c -0.1285,-0.12755 -0.1664,-5.25359 -0.084,-11.39119 l 0.1492,-11.15927 h 4.9062 4.9061 v 10.85674 c 0,5.9712 0,11.03121 0,11.24447 0,0.41185 -9.4831,0.84319 -9.8799,0.44925 z m 36.5273,-16.78027 c 0.094,-9.35784 0.3291,-17.27028 0.5231,-17.58319 0.5237,-0.845 45.935,-0.7619 45.9369,0.0841 0,0.33754 0.059,8.23291 0.1296,17.54525 l 0.1283,16.93154 -4.2352,-2e-4 c -2.3294,-1.1e-4 -4.6043,-0.14142 -5.0554,-0.31401 -0.7133,-0.27291 -0.8202,-1.78662 -0.8202,-11.61403 0,-10.64308 -0.058,-11.33134 -1.0029,-11.8354 -1.5409,-0.82223 -24.8881,-0.71929 -25.1885,0.11106 -0.1287,0.35543 -0.2963,5.76441 -0.3726,12.01996 l -0.1388,11.37372 -5.0373,0.14775 -5.0373,0.14775 z m 183.1702,16.11561 c -0.1901,-0.18956 -0.3457,-8.07544 -0.3457,-17.52416 v -17.1795 l 4.5369,0.1377 c 2.4953,0.0757 4.7119,0.16802 4.9258,0.20508 0.2139,0.0371 0.3889,2.36707 0.3889,5.1778 0,7.2665 -1.393,6.78029 19.4255,6.78029 9.2783,0 16.9017,0.17448 16.941,0.38774 0.039,0.21326 0.1343,2.5397 0.211,5.16988 l 0.1396,4.78213 -16.1549,0.0298 c -8.8852,0.0164 -17.0883,0.19528 -18.229,0.39754 l -2.074,0.36775 v 5.80692 5.80692 l -4.7097,-7.8e-4 c -2.5904,-3.3e-4 -4.8653,-0.1557 -5.0554,-0.34527 z M 13.2146,340.61809 c -0.1068,-0.17174 -0.2375,-5.28991 -0.2905,-11.37372 l -0.096,-11.06148 5.501,-0.2585 c 3.1429,-0.14768 5.7582,-0.51599 6.1011,-0.85918 0.3614,-0.36183 0.6285,-2.6137 0.6716,-5.6632 l 0.072,-5.0625 2.0391,-0.42295 c 1.1215,-0.23263 6.138,-0.35959 11.1478,-0.28216 l 9.1087,0.14079 0.1477,5.29912 0.1478,5.29912 h -4.9101 c -2.7006,0 -5.5087,0.22689 -6.2402,0.50419 -1.3167,0.49914 -1.33,0.56134 -1.33,6.20385 v 5.69966 h -5.4072 c -7.1402,0 -7.1604,0.02 -6.9752,6.9261 l 0.1401,5.2231 h -4.8164 c -2.649,0 -4.9037,-0.14051 -5.0104,-0.31224 z m 163.5848,-0.33541 -4.4425,-0.16534 0.1018,-5.02187 0.1019,-5.02187 h 4.8591 4.8592 v 5.12752 c 0,3.03389 -0.2117,5.15189 -0.5185,5.18721 -0.2852,0.0328 -2.5176,-0.0147 -4.961,-0.10565 z m 56.5519,-5.31643 v -5.18859 l 5.0554,0.14797 5.0554,0.14797 0.052,5.04062 0.052,5.04063 h -5.1072 -5.1072 z m 87.4788,4.80375 -1.9628,-0.19674 0.148,-5.00833 0.148,-5.00832 4.7308,-0.14779 c 5.4946,-0.17164 5.1207,-0.61647 5.1207,6.09314 v 4.39439 l -3.111,0.0352 c -1.711,0.0194 -3.9942,-0.0533 -5.0737,-0.16155 z m 59.1631,-5.08887 c -0.091,-2.7262 -0.068,-5.05264 0.051,-5.16987 0.1189,-0.11723 2.3938,-0.21314 5.0554,-0.21314 h 4.8394 v 5.16987 5.16987 h -4.8902 -4.8902 z m 36.6182,4.2891 c -0.1496,-0.38867 -0.204,-2.78206 -0.1209,-5.31864 l 0.1511,-4.61197 4.6545,0.16029 c 2.5599,0.0882 4.7339,0.23958 4.8311,0.33648 0.097,0.0969 0.1863,2.35121 0.198,5.00958 l 0.021,4.8334 -4.7315,0.14876 c -3.6279,0.11406 -4.795,-0.016 -5.0035,-0.5579 z m 73.1598,0.18423 c -0.1648,-0.26587 -0.3118,-2.72067 -0.3267,-5.45512 -0.026,-4.85373 -0.059,-4.9837 -1.3604,-5.47718 -0.7427,-0.28154 -7.7897,-0.52527 -15.9071,-0.55016 -8.0156,-0.0246 -15.6237,-0.19221 -16.907,-0.37251 l -2.3333,-0.32782 v -4.91138 -4.91138 l 23.2029,-0.13457 23.203,-0.13456 v 11.37904 11.37904 h -4.6359 c -2.5497,0 -4.7707,-0.21753 -4.9355,-0.4834 z m -341.8347,-22.1348 0.1213,-11.24447 4.9258,-0.1464 4.9257,-0.14641 0.087,5.42671 c 0.048,2.9847 0.2368,5.66783 0.4195,5.96252 0.1909,0.30799 2.3954,0.53579 5.1848,0.53579 2.6691,0 5.2219,0.14122 5.673,0.31381 0.6714,0.25689 0.8201,1.24147 0.8201,5.42837 v 5.11456 h -11.1395 -11.1394 z m 36.6143,10.85674 c -0.034,-0.21326 -0.011,-0.62039 0.051,-0.90473 0.062,-0.28434 0.083,-2.53187 0.047,-4.99451 l -0.065,-4.47753 5.6756,-0.17536 c 3.1216,-0.0965 5.8695,-0.37013 6.1064,-0.60819 0.2369,-0.23806 0.4547,-2.21554 0.4841,-4.3944 0.03,-2.17885 0.088,-4.60132 0.1297,-5.38327 l 0.076,-1.42171 h 4.9258 4.9257 v 5.41018 c 0,4.81977 0.1095,5.46858 1.0029,5.94535 1.4568,0.77735 11.5546,0.68858 12.633,-0.11106 0.7627,-0.56556 0.8884,-2.06615 1.0065,-12.01995 l 0.1349,-11.37372 4.7826,-0.14847 4.7826,-0.14847 0.1432,17.38186 c 0.079,9.56003 0.046,17.47858 -0.073,17.59679 -0.395,0.39296 -46.7072,0.22183 -46.7697,-0.17281 z m 61.4629,-0.0862 c -0.1201,-0.11848 -0.2184,-5.14806 -0.2184,-11.17683 v -10.96143 l 1.9444,-0.32044 c 1.0694,-0.17625 3.5894,-0.32301 5.5998,-0.32614 2.1444,-0.003 3.9127,-0.26214 4.2777,-0.62607 0.4037,-0.40251 0.6222,-2.49734 0.6222,-5.96476 v -5.34437 l 4.7961,0.14865 4.7962,0.14865 0.1404,10.81956 c 0.1078,8.31051 -0.012,10.91627 -0.5185,11.23656 -0.3624,0.22934 -2.7159,0.42055 -5.2299,0.42491 -6.7334,0.0117 -6.7098,-0.0125 -6.4976,6.64345 l 0.1758,5.51367 h -4.8349 c -2.6591,0 -4.9331,-0.0969 -5.0533,-0.21541 z m 60.8633,-4.82522 c -0.096,-2.63017 -0.099,-4.95662 -0.01,-5.16987 0.093,-0.21326 2.3562,-0.38775 5.0296,-0.38775 h 4.8608 l 0.164,5.17101 0.1641,5.171 -5.0186,-10e-4 -5.0186,-0.001 z m 24.4711,-0.32744 c 0,-4.44894 0.1173,-5.13424 0.9074,-5.30034 0.4991,-0.10491 10.9201,-0.19021 23.1579,-0.18954 l 22.2506,0.001 0.086,5.29912 0.086,5.29912 h -23.2437 -23.2437 z m 60.8862,4.42242 c -0.1455,-0.37793 -0.1965,-2.76254 -0.1134,-5.29912 l 0.1511,-4.61197 11.0182,-0.13952 11.0181,-0.13953 v 5.43864 5.43865 h -10.9047 c -8.5919,0 -10.961,-0.14574 -11.1693,-0.68715 z m 37.6291,0.31051 c -1.2818,-0.18354 -1.2961,-0.24171 -1.2851,-5.20361 l 0.011,-5.01799 h 4.9146 4.9145 l 0.1472,5.24842 0.1472,5.24843 -3.7767,-0.0448 c -2.0772,-0.0247 -4.36,-0.12833 -5.073,-0.23043 z m -257.2261,-11.219 c -0.2503,-0.18555 -0.1931,-9.72681 0.061,-10.13645 0.2048,-0.33052 2.1345,-0.48249 4.958,-0.39049 l 4.6227,0.15062 0.2592,4.84917 c 0.1611,3.01203 0.063,4.90824 -0.2592,5.00508 -0.4445,0.13365 -9.5038,0.62419 -9.6416,0.52207 z m 243.8566,-6.11117 0.1477,-5.29912 4.6665,0.1864 c 2.5666,0.10253 4.6952,0.21885 4.7301,0.25849 0.035,0.0397 0.1775,2.34038 0.3167,5.11272 l 0.253,5.04063 h -5.1309 -5.1309 z m 24.6037,4.95446 c -0.665,-0.66305 -0.3899,-9.86823 0.3025,-10.12225 0.7977,-0.29269 8.5837,-0.15226 8.8745,0.16006 0.1155,0.12408 0.3059,2.49388 0.4231,5.26622 l 0.2129,5.04063 h -4.7336 c -2.6036,0 -4.8893,-0.1551 -5.0794,-0.34466 z M 49.9913,303.71267 c -0.1279,-0.33236 -0.1645,-2.67967 -0.081,-5.21626 l 0.1511,-4.61197 5.3565,-0.25849 c 4.3133,-0.20815 5.4863,-0.43545 6.0228,-1.1671 0.8931,-1.21802 0.9734,-47.99619 0.083,-48.58502 -0.9964,-0.65917 -12.4838,-0.46321 -13.1738,0.22473 -0.4658,0.46446 -0.6222,6.57149 -0.6222,24.29841 v 23.67802 H 30.3924 13.057 l -0.1641,-5.16546 c -0.1252,-3.94277 0,-5.22768 0.5265,-5.42836 0.3798,-0.1446 5.5267,-0.26291 11.4376,-0.26291 7.7886,0 10.9862,-0.1779 11.6158,-0.64624 0.7923,-0.58932 0.8809,-3.26439 1.0065,-30.37301 l 0.1377,-29.72677 10.9706,-0.13939 10.9707,-0.13939 0.1771,5.41387 c 0.1157,3.53703 0.4104,5.64644 0.85,6.08474 0.4394,0.43814 2.553,0.73205 6.0924,0.84719 l 5.4195,0.1763 v 5.04269 c 0,6.5588 0.107,6.66336 7.0184,6.86309 l 5.1664,0.14931 0.1473,5.25291 0.1472,5.25291 -5.7409,0.17546 c -4.398,0.13441 -5.8557,0.35684 -6.2317,0.95093 -0.2699,0.42652 -0.4944,2.92744 -0.4987,5.55762 -0.01,4.09922 0.1401,4.92979 1.029,5.8161 1.1235,1.12016 1.2582,1.13817 7.7456,1.03496 5.5699,-0.0886 5.6973,-0.23985 5.719,-6.79243 l 0.016,-4.98199 5.431,-0.20045 c 2.987,-0.11025 5.6804,-0.44922 5.9853,-0.75326 0.8172,-0.81484 1.252,-11.88905 0.4853,-12.3615 -0.3332,-0.20532 -3.1474,-0.49342 -6.2537,-0.64023 l -5.6479,-0.26691 v -5.61365 c 0,-3.08751 -0.058,-5.64425 -0.1296,-5.68166 -0.071,-0.0374 -2.8129,-0.2119 -6.0924,-0.38774 l -5.9628,-0.31973 0.014,-5.16987 0.014,-5.16988 11.4984,-0.25849 c 8.4323,-0.18956 11.6778,-0.43707 12.1712,-0.92818 0.4235,-0.42151 0.7689,-2.62471 0.9321,-5.94535 l 0.2593,-5.27567 h 4.6665 4.6665 l 0.2593,5.51694 c 0.1425,3.03432 0.4534,5.70973 0.6906,5.94535 0.2373,0.23563 2.9206,0.54474 5.9628,0.68691 l 5.5313,0.25849 0.092,11.31057 c 0.061,7.52628 0.2861,11.50466 0.6717,11.89071 0.3187,0.31908 3.0379,0.69646 6.0428,0.83863 l 5.4633,0.2585 0.087,17.4484 0.087,17.44841 -5.2723,-9e-5 c -2.8997,-4e-5 -5.6413,0.14113 -6.0924,0.31373 -0.6803,0.26031 -0.8201,1.30117 -0.8201,6.10575 v 5.79194 l -4.1778,0.12352 c -6.4381,0.19035 -6.1922,0.4254 -6.1922,-5.92031 v -5.40633 l -1.4259,-0.55045 c -1.9229,-0.7423 -11.3201,-0.36369 -12.1769,0.49061 -0.4415,0.44023 -0.656,2.34351 -0.656,5.82073 0,6.01806 0.2548,5.78178 -5.9689,5.53431 l -3.8827,-0.15438 -0.1469,-5.53809 -0.147,-5.53808 -1.9271,-0.53363 c -2.4426,-0.67641 -9.4766,-0.69847 -11.2263,-0.0352 -1.3092,0.49632 -1.33,0.58757 -1.33,5.84654 0,7.07852 0.076,7.17089 5.9977,7.32727 2.5474,0.0673 5.0399,0.15793 5.539,0.20148 0.7984,0.0697 0.9074,0.70018 0.9074,5.24905 v 5.16987 l -15.9439,0.0431 c -8.7692,0.0237 -16.4906,0.10274 -17.1587,0.17564 -0.6682,0.0729 -1.3195,-0.13938 -1.4474,-0.47174 z m 134.8423,-0.43412 c -0.1454,-0.37794 -0.1964,-2.76254 -0.1133,-5.29913 l 0.1511,-4.61196 h 4.6665 4.6665 l 0.2774,4.91137 c 0.1525,2.70126 0.1971,5.08587 0.099,5.29913 -0.098,0.21325 -2.2718,0.38774 -4.8305,0.38774 -3.3912,0 -4.7239,-0.18626 -4.9167,-0.68715 z m 122.0463,-4.60668 c -0.095,-2.63308 -0.053,-4.95012 0.093,-5.14896 0.3403,-0.4639 40.3853,-0.89764 43.8037,-0.47446 l 2.5768,0.31901 v 4.91137 4.91139 l -23.1491,0.13454 -23.1492,0.13454 z m 61.1271,4.4502 c -0.2001,-0.19947 -0.3638,-2.50913 -0.3638,-5.13258 0,-3.87261 0.1543,-4.82894 0.8202,-5.08371 1.154,-0.44153 8.1333,-0.37685 8.8329,0.0818 0.3734,0.24479 0.5391,2.12592 0.4661,5.2912 l -0.1133,4.91139 -4.6392,0.14726 c -2.5515,0.081 -4.8029,-0.0159 -5.0029,-0.21541 z m 36.7955,-0.018 c -0.1901,-0.18956 -0.3457,-2.63232 -0.3457,-5.42836 V 292.592 h 4.6828 c 3.2856,0 4.7471,0.19281 4.8983,0.64623 0.1185,0.35543 0.2862,2.79831 0.3726,5.42863 l 0.1571,4.78239 -4.7097,-2.6e-4 c -2.5904,-1.4e-4 -4.8653,-0.15535 -5.0554,-0.34492 z m 72.2446,-5.36092 v -5.1886 l 5.0553,0.14797 5.0554,0.14797 0.1484,5.04063 0.1484,5.04062 h -5.2038 -5.2037 z m -340.3208,-6.09378 c -0.7236,-0.14175 -0.8533,-0.94856 -0.8533,-5.3094 v -5.14225 l 10.9095,0.13953 10.9095,0.13953 0.2562,4.79152 c 0.1935,3.6206 0.093,4.84841 -0.4099,5.02433 -0.791,0.27651 -19.5777,0.59853 -20.812,0.35674 z m 72.7501,-1.25456 c -0.1455,-7.10312 -0.4342,-9.85484 -1.0763,-10.26035 -0.7497,-0.47345 -4.7698,-0.53275 -31.7134,-0.46781 l -16.4808,0.0397 0.148,-5.31864 0.1479,-5.31865 11.512,-0.25849 c 7.3858,-0.16585 11.7171,-0.46348 12.0843,-0.8304 0.3761,-0.37578 0.6068,-4.4534 0.6728,-11.89071 l 0.1005,-11.3188 h 4.8561 4.856 l -0.087,10.77621 c -0.073,9.04276 0.044,10.97627 0.7298,12.01995 l 0.8173,1.24375 h 11.8332 c 10.7514,0 11.9107,-0.0854 12.6808,-0.93375 0.7188,-0.79194 0.8687,-2.6175 0.9877,-12.01996 l 0.1402,-11.0862 4.7962,-0.14865 4.7961,-0.14865 v 17.07999 c 0,9.39399 0.058,17.20789 0.1296,17.36422 0.071,0.15634 -2.3672,0.33082 -5.419,0.38774 -3.5605,0.0664 -5.776,0.3305 -6.1834,0.73706 -0.4375,0.43674 -0.5958,2.32394 -0.5094,6.07461 l 0.1253,5.44103 h -4.9601 c -4.791,0 -4.9609,-0.0396 -4.9839,-1.16322 z m 24.2941,0.53556 c -0.1234,-0.36565 -0.21,-2.75078 -0.1922,-5.30031 l 0.032,-4.6355 4.5862,-0.0174 c 2.5224,-0.01 4.8066,0.11838 5.076,0.28431 0.2694,0.16594 0.4222,2.49238 0.3395,5.16988 l -0.1502,4.86817 -4.7335,0.14782 c -3.5018,0.10936 -4.792,-0.0252 -4.9581,-0.51698 z m 36.7506,0.29348 c -0.1959,-0.19533 -0.3562,-2.4974 -0.3562,-5.11573 v -4.76059 l 1.6203,-0.32311 c 0.8912,-0.17772 8.591,-0.32312 17.1106,-0.32312 12.0047,0 15.5079,0.14541 15.5686,0.64623 0.043,0.35543 0.1023,2.78717 0.1316,5.40386 l 0.053,4.75762 -16.886,0.035 c -9.2873,0.0192 -17.0463,-0.12482 -17.2422,-0.32015 z m 110.7328,-0.0721 c -1.1193,-0.17524 -1.1667,-0.3913 -1.1667,-5.31658 v -5.13391 h 4.9258 4.9258 v 5.16987 5.16987 l -1.6852,0.0837 c -3.8545,0.19155 -5.8985,0.19943 -6.9997,0.027 z m 35.1285,-5.22392 v -5.1506 l 4.5368,-0.1745 c 2.4953,-0.096 4.8395,0.0408 5.2093,0.30387 0.4877,0.34698 0.6289,1.76891 0.5143,5.17714 l -0.1582,4.69877 -5.0511,0.14797 -5.0511,0.14796 z m 24.481,-0.18595 0.1478,-5.29912 4.5681,-0.0903 c 3.1097,-0.0615 4.6322,0.1036 4.7687,0.51699 0.1103,0.334 0.2712,2.75936 0.3576,5.38967 l 0.1571,4.78239 -5.0735,-2.6e-4 -5.0736,-2.6e-4 z m 48.9914,4.97249 c -0.2,-0.19948 -0.3637,-2.63662 -0.3637,-5.41588 0,-3.47483 -0.2025,-5.18384 -0.6482,-5.47145 -0.3564,-0.23004 -8.5566,-0.53457 -18.2225,-0.67675 l -17.5745,-0.25849 0.041,-5.16987 0.042,-5.16988 23.1069,-0.13457 23.1069,-0.13456 0.078,10.60356 c 0.043,5.83196 0.1011,10.89437 0.1296,11.24979 0.037,0.46334 -1.276,0.68792 -4.6398,0.79351 -2.5804,0.081 -4.8553,-0.0159 -5.0554,-0.21541 z M 246.9437,279.30901 c -1.1491,-0.22829 -1.1805,-0.38686 -1.0371,-5.23769 l 0.148,-5.00228 4.7601,-0.14817 4.7601,-0.14817 0.1657,4.98123 c 0.091,2.73969 0.049,5.04459 -0.094,5.122 -0.5617,0.30496 -7.5882,0.6546 -8.7032,0.43308 z m 60.1463,-5.40948 0.1478,-5.25076 11.1478,-0.11658 c 6.1312,-0.0641 11.5561,-0.28526 12.0551,-0.49141 0.826,-0.3412 0.9074,-1.41356 0.9074,-11.95173 0,-10.64942 0.073,-11.58354 0.9074,-11.65973 2.7538,-0.25135 7.0823,-0.28205 7.9478,-0.0564 0.9422,0.24567 0.9963,0.83999 0.9963,10.94118 0,8.83078 0.1399,10.88048 0.8072,11.83041 0.7941,1.13038 0.9979,1.14888 12.5737,1.1411 6.4715,-0.004 12.0412,-0.18218 12.3771,-0.39516 0.43,-0.27269 0.6601,-3.78601 0.7778,-11.87642 0.1052,-7.23879 0.3643,-11.56489 0.7002,-11.69381 0.2932,-0.11255 2.5098,-0.17358 4.9258,-0.13562 l 4.3926,0.069 0.1339,17.44832 0.1339,17.44832 H 342.482 306.9422 Z m 85.4575,4.49481 c -0.4749,-0.57064 -0.5482,-2.01241 -0.2762,-5.43863 l 0.3701,-4.66215 h 5.0309 c 3.2141,0 5.3455,-0.23335 5.9024,-0.64623 0.7627,-0.56556 0.8883,-2.06616 1.0064,-12.01996 l 0.135,-11.37372 4.7961,-0.14865 4.7961,-0.14865 v 17.07999 c 0,9.39399 0.058,17.25446 0.1297,17.46772 0.071,0.21326 -4.6795,0.45053 -10.5573,0.52726 -8.9923,0.11739 -10.7893,0.0164 -11.3332,-0.63698 z m 36.2789,-4.67241 v -5.42837 h 4.9257 4.9258 l 0.01,4.26514 c 0,2.34583 0.1478,4.7886 0.3198,5.42837 0.3091,1.1502 0.2539,1.16322 -4.9329,1.16322 h -5.2455 z m -428.161,-11.24447 0.138,-5.29913 h 4.9257 4.9258 l 0.024,5.29913 0.024,5.29911 H 5.6146 0.5262 Z m 147.5971,4.65288 c -0.03,-0.0711 -0.1578,-2.39753 -0.284,-5.16987 l -0.2296,-5.04063 h 4.9506 c 3.6063,0 4.9549,0.17548 4.9666,0.64623 0.01,0.35543 0.1551,2.68188 0.3252,5.16988 l 0.3092,4.52364 h -4.9918 c -2.7454,0 -5.0162,-0.0582 -5.0462,-0.12925 z m 110.2362,-0.26641 c -0.333,-0.24388 -0.465,-6.53227 -0.3688,-17.56965 l 0.1497,-17.18983 h 23.0532 23.0532 l 0.085,2.97267 c 0.047,1.63498 0.1187,9.41456 0.1596,17.28797 0.073,14.06126 0.056,14.31929 -0.9925,14.54077 -1.7407,0.36784 -6.0174,0.4305 -7.4824,0.10962 l -1.3622,-0.29834 -0.066,-11.42084 c -0.053,-9.05921 -0.2136,-11.51373 -0.7777,-11.87006 -1.0323,-0.65199 -25.2,-0.59242 -25.6063,0.0631 -0.18,0.2905 -0.3026,5.61213 -0.2723,11.82584 l 0.055,11.29767 -1.1841,0.3163 c -1.6547,0.44199 -7.8157,0.39438 -8.4431,-0.0652 z m 182.366,-17.49644 0.1465,-17.37511 4.49,-0.13259 c 2.4696,-0.0729 4.6862,0.0105 4.9258,0.18528 0.2396,0.17483 0.4357,8.05329 0.4357,17.50769 v 17.18981 l -5.0723,2e-5 -5.0723,10e-6 z m 37.8675,5.12963 c -1.1158,-0.22392 -1.1667,-0.45802 -1.1667,-5.36805 v -5.13391 h 4.9439 4.9439 l -0.1477,5.29912 -0.1478,5.29912 -3.6295,0.0689 c -1.9962,0.0379 -4.1545,-0.0364 -4.7961,-0.16521 z M 13.2278,242.83809 c -0.1438,-0.37351 -0.1982,-5.55863 -0.1209,-11.52248 l 0.1405,-10.84338 h 4.8535 4.8534 l 0.072,11.37372 0.072,11.37373 -4.8049,0.14876 c -3.5988,0.11142 -4.8705,-0.0217 -5.0662,-0.53035 z m 122.3859,-4.80824 c 0,-5.82342 0.07,-5.90617 5.013,-5.91749 5.2468,-0.012 5.0978,-0.17955 5.0978,5.73426 v 5.11456 l -5.0554,-0.002 -5.0554,-0.002 z m 36.8113,4.41052 c -0.5316,-0.8576 0.3188,-9.50994 0.977,-9.94027 0.7036,-0.46002 6.3371,-0.50595 7.9875,-0.0651 1.1435,0.30543 1.1795,0.48928 1.037,5.29206 l -0.1476,4.97564 -4.7539,0.14809 c -3.0016,0.0935 -4.8814,-0.0578 -5.1,-0.41041 z m 61.3043,0.13307 c -0.1109,-0.21326 -0.066,-2.59786 0.099,-5.29912 l 0.3008,-4.91138 3.6186,-0.15556 c 6.0517,-0.26017 5.9737,-0.32516 5.9737,4.97339 0,2.84152 -0.2328,4.77171 -0.6222,5.16003 -0.6843,0.68221 -9.0283,0.88938 -9.3699,0.23264 z m 85.8678,-0.38559 c -0.6723,-0.49019 -0.7274,-1.29668 -0.3555,-5.20251 l 0.4402,-4.6224 h 4.6665 4.6665 l 0.1476,5.28086 0.1476,5.28085 -4.4586,-0.0783 c -2.4523,-0.0431 -4.8167,-0.33939 -5.2543,-0.65846 z m 62.1753,0.40945 -1.6852,-0.21861 v -5.13712 -5.13712 h 4.8914 4.8913 l 0.1641,5.171 0.164,5.171 -2.3332,0.006 c -1.2833,0.003 -2.7999,0.0864 -3.3703,0.18473 -0.5703,0.0984 -1.7953,0.0804 -2.7221,-0.0398 z m 35.0683,-0.28235 c -0.2991,-0.64274 -0.2697,-9.08318 0.033,-9.62523 0.2859,-0.51113 1.5632,-0.70068 4.6072,-0.68368 2.3164,0.013 4.45,0.17043 4.7413,0.34998 0.3001,0.18494 0.5297,2.442 0.5297,5.2073 v 4.88087 h -4.9257 c -2.7092,0 -4.9528,-0.0582 -4.9859,-0.12924 z m 72.7619,-5.16987 0.1477,-5.29913 h 4.6665 4.6665 l 0.1478,5.29913 0.1478,5.29911 h -4.9621 -4.962 z m -341.1737,-6.46824 c -0.4383,-0.14569 -0.6303,-1.7714 -0.6303,-5.33631 v -5.12679 h 11.1121 11.1122 l 0.1653,5.04063 c 0.091,2.77234 0.1501,5.0944 0.1317,5.16013 -0.062,0.22052 -21.2527,0.47446 -21.891,0.26234 z m 37.3316,-0.0325 c -1.153,-0.16308 -1.181,-0.3024 -1.037,-5.16987 l 0.1479,-5.00228 5.2702,-0.2877 c 3.196,-0.17447 5.5939,-0.55547 6.0925,-0.96803 1.2246,-1.01335 1.1959,-10.9742 -0.035,-11.99339 -0.6802,-0.56347 -4.4695,-0.7414 -18.4067,-0.86433 l -17.5503,-0.1548 v -5.14432 -5.14432 l 3.4999,-0.004 c 11.1334,-0.0126 41.9698,-0.0187 42.5171,-0.008 0.4984,0.009 0.6482,2.62557 0.6482,11.3227 0,9.88268 0.108,11.39998 0.8561,12.01995 0.6539,0.54197 3.5233,0.74661 12.1498,0.8665 l 11.2938,0.15696 0.1646,5.01292 c 0.09,2.75709 0.1546,5.06151 0.1426,5.12092 -0.037,0.18435 -44.499,0.41891 -45.7542,0.24138 z m 60.3805,-0.43555 c -0.1901,-0.18956 -0.3457,-2.74422 -0.3457,-5.67701 0,-6.22522 0.5072,-5.79064 -6.9997,-5.99839 l -4.6665,-0.12915 -0.1478,-5.29912 -0.1478,-5.29912 4.8143,-0.008 c 2.8365,-0.004 5.3468,-0.27618 6.1105,-0.66135 1.243,-0.62688 1.2989,-0.86251 1.3593,-5.73696 0.046,-3.70159 0.2574,-5.2059 0.7778,-5.53458 0.3931,-0.24824 2.8263,-0.45491 5.4071,-0.45927 2.9484,-0.005 4.9237,-0.2385 5.3147,-0.6283 0.4034,-0.40221 0.6222,-2.49302 0.6222,-5.94535 v -5.32497 h 4.9258 4.9257 v 5.36506 c 0,6.58584 0.083,6.68266 5.8778,6.84395 2.3282,0.0648 4.7364,0.13602 5.3517,0.15825 1.0665,0.0385 1.1212,0.28648 1.1727,5.31974 0.03,2.90361 0.296,5.52086 0.5917,5.81611 0.6328,0.63159 9.0901,1.04693 11.6329,0.57129 2.2836,-0.42715 2.4993,-1.22265 2.0491,-7.55478 -0.4236,-5.95736 -0.01,-5.59341 -6.7136,-5.88131 -2.2814,-0.098 -4.4481,-0.20521 -4.8149,-0.23833 -0.505,-0.0456 -0.6308,-1.28414 -0.5185,-5.10086 l 0.1484,-5.04063 h 10.8885 10.8886 v 17.20917 17.20916 l -23.7698,0.18392 c -17.0718,0.13208 -23.9387,0.35229 -24.3695,0.78148 -0.3777,0.37618 -0.5999,2.59906 -0.5999,6.00002 v 5.40245 l -4.7097,3.9e-4 c -2.5903,3.2e-4 -4.8653,-0.15452 -5.0554,-0.34408 z M 307.2,229.8663 c -0.1454,-0.37794 -0.1964,-2.76254 -0.1133,-5.29912 l 0.1511,-4.61198 h 4.6665 4.6665 l 0.1478,5.29913 0.1478,5.29912 h -4.701 c -3.4317,0 -4.7723,-0.18553 -4.9654,-0.68715 z m 24.1481,-10.91456 c 0,-8.71419 -0.1613,-11.70554 -0.6481,-12.01892 -0.3565,-0.22948 -3.0506,-0.53401 -5.9869,-0.67675 l -5.3387,-0.25952 -0.156,-9.56427 c -0.086,-5.26034 -0.047,-10.30294 0.086,-11.20577 l 0.2417,-1.64151 3.9568,-0.17523 c 6.1314,-0.27154 5.7716,-0.61795 5.7716,5.55598 0,3.70232 0.1986,5.4657 0.6481,5.75581 0.3565,0.23004 11.2645,0.53458 24.24,0.67675 l 23.5918,0.25849 0.1478,5.29912 0.1477,5.29912 H 360.207 c -14.8739,0 -17.9458,0.12353 -18.4609,0.74235 -0.8206,0.9859 -0.588,10.37628 0.2866,11.56984 0.5699,0.77772 2.5166,0.89867 18.1799,1.12948 l 17.5418,0.25849 0.2592,5.08596 c 0.1426,2.79727 0.1621,5.18187 0.043,5.29912 -0.1188,0.11724 -10.6767,0.21317 -23.4621,0.21317 h -23.2462 z m 61.0613,11.30779 c -0.1622,-0.16165 -0.1685,-2.57888 -0.014,-5.37161 0.2735,-4.95062 0.2497,-5.09419 -0.9533,-5.73609 -0.6785,-0.36211 -3.511,-0.76772 -6.2942,-0.90135 l -5.0605,-0.24297 v -5.03435 -5.03434 l 5.5991,-0.23002 c 3.0794,-0.12651 5.8794,-0.40277 6.222,-0.6139 0.4235,-0.261 0.6229,-2.19468 0.6229,-6.04024 v -5.65635 l 11.2774,-0.008 c 6.2026,-0.004 11.6274,-0.22832 12.0552,-0.49769 0.6005,-0.37817 0.8032,-1.76059 0.8893,-6.06669 l 0.1115,-5.57691 3.7711,-0.15438 c 6.2999,-0.25791 6.1166,-0.42464 6.1166,5.56328 0,6.52729 0.2238,6.7403 7.0814,6.7403 2.6272,0 5.3882,-0.23181 6.1356,-0.51514 1.3587,-0.5151 1.3588,-0.51549 1.2631,-6.0746 l -0.096,-5.55946 h 4.863 4.863 l 0.1511,17.27174 c 0.083,9.49946 -0.033,17.4182 -0.2592,17.5972 -0.2258,0.179 -2.5104,0.2003 -5.0769,0.0473 l -4.6666,-0.27812 v -5.08113 c 0,-4.44798 -0.1265,-5.17351 -1.0154,-5.8226 -0.8449,-0.61699 -4.0657,-0.71868 -19.1845,-0.60573 l -18.1692,0.13574 -0.1478,5.62606 c -0.1952,7.4254 -0.1533,7.4732 6.7221,7.66899 l 5.1488,0.14662 0.1012,5.29961 0.1013,5.2996 -10.9318,-3.8e-4 c -6.0124,-2.7e-4 -11.0644,-0.13275 -11.2265,-0.29441 z m 36.7627,-0.0507 c -0.1901,-0.18956 -0.3457,-2.63233 -0.3457,-5.42837 v -5.08371 h 4.9257 4.9258 l 0.01,4.26515 c 0,2.34583 0.1478,4.78859 0.3198,5.42837 0.308,1.14623 0.241,1.16322 -4.5872,1.16322 -2.6949,0 -5.0554,-0.1551 -5.2455,-0.34466 z m 24.3798,0.0102 c -0.1958,-0.19517 -0.3559,-2.64715 -0.3559,-5.44885 v -5.09399 l 10.9223,0.13953 10.9223,0.13953 0.041,5.16987 0.041,5.16988 -10.6077,0.13944 c -5.8342,0.0767 -10.7678,-0.0202 -10.9635,-0.21541 z M 62.2458,213.54822 c 0,-5.97838 -0.2364,-5.74218 5.7459,-5.74218 h 4.1056 v 5.42837 5.42837 h -4.9258 -4.9257 z m -12.1301,-7.15241 c -0.1727,-0.17218 -0.3139,-8.07629 -0.3139,-17.56469 v -17.25163 l 4.9555,0.14797 4.9555,0.14796 0.1,5.08306 c 0.1269,6.46069 0.2241,6.54916 7.1987,6.54916 h 5.0859 v 4.91138 c 0,2.70126 0.058,5.08586 0.1296,5.29912 0.071,0.21326 -2.504,0.50406 -5.7229,0.64623 -4.4077,0.19468 -5.9817,0.44994 -6.3756,1.03398 -0.2948,0.43693 -0.4483,2.97057 -0.3517,5.80357 0.1255,3.68082 0,5.09466 -0.4778,5.27652 -0.9389,0.35925 -8.811,0.28841 -9.1832,-0.0826 z m 24.7564,0.006 c -0.3515,-0.11671 -0.4431,-4.40737 -0.21,-9.84043 0.021,-0.49609 2.6177,-0.64623 11.1755,-0.64623 h 11.1478 v 5.1382 5.13819 l -2.2037,0.26497 c -2.2129,0.26609 -19.0829,0.21974 -19.9096,-0.0547 z m 36.436,-5.52871 c 0.187,-4.06764 0.083,-5.48784 -0.4267,-5.8161 -0.3708,-0.23887 -3.2002,-0.55064 -6.2874,-0.69281 l -5.6132,-0.2585 0.056,-11.69955 c 0.05,-10.32611 -0.042,-11.73716 -0.7808,-12.01995 -0.4606,-0.17622 -2.9766,-0.32397 -5.5912,-0.32832 -2.6145,-0.004 -5.0366,-0.1872 -5.3824,-0.40632 -0.4099,-0.2597 -0.6807,-2.27408 -0.7778,-5.78592 -0.1452,-5.25205 -0.1816,-5.39653 -1.4453,-5.746 -0.7129,-0.19716 -8.9376,-0.38167 -18.2771,-0.41001 l -16.9809,-0.0515 v -4.80798 c 0,-3.05023 0.2274,-5.03479 0.6222,-5.42837 0.4585,-0.45715 5.0708,-0.62038 17.5299,-0.62038 12.7196,0 17.1218,-0.16008 17.772,-0.64624 0.6867,-0.51352 0.8934,-1.70791 1.0065,-5.81611 l 0.1422,-5.16987 9.5923,-0.30144 c 5.2757,-0.16579 10.2339,-0.19487 11.0181,-0.0646 l 1.4259,0.23682 v 5.04495 c 0,5.9289 0.319,5.66426 -6.8395,5.67547 -2.4785,0.004 -4.6389,0.221 -4.801,0.48248 -0.4578,0.73865 -0.8009,10.58649 -0.3907,11.21671 0.82,1.25999 2.8712,1.74954 7.3306,1.74954 h 4.7006 v 5.32497 c 0,3.45233 0.2188,5.54314 0.6222,5.94535 0.4101,0.40886 2.6073,0.62039 6.4443,0.62039 7.2063,0 7.4163,-0.14859 7.5403,-5.33605 0.049,-2.04118 0.1406,-4.06019 0.2041,-4.48671 0.063,-0.42651 0.1403,-1.06629 0.1706,-1.42172 0.04,-0.46855 1.4309,-0.64623 5.059,-0.64623 h 5.004 l -0.3348,5.04063 c -0.1841,2.77234 -0.336,7.89051 -0.3374,11.37372 v 6.33309 h -5.0859 c -7.4823,0 -7.011,-0.87688 -6.9046,12.84456 l 0.089,11.45385 h -5.159 -5.1591 z m 110.4633,5.03714 c -0.1901,-0.18956 -0.3456,-2.49556 -0.3456,-5.12443 v -4.77978 l 2.0458,-0.34463 c 1.1253,-0.18956 3.3419,-0.1832 4.9258,0.0141 l 2.8799,0.35877 v 5.1103 5.1103 h -4.5801 c -2.519,0 -4.7356,-0.15509 -4.9258,-0.34465 z m 256.1398,0 c -0.1901,-0.18956 -0.3457,-2.63233 -0.3457,-5.42837 v -5.08372 h 4.9258 4.9258 v 5.42836 5.42837 h -4.5801 c -2.5191,0 -4.7357,-0.1551 -4.9258,-0.34466 z M 0.5911,189.4551 c 0.016,-5.91569 0.1668,-6.06141 6.0353,-5.83979 l 3.9954,0.15087 0.1741,5.29912 0.1742,5.29912 H 5.7739 0.5777 Z m 24.7583,2.2059 c -0.1006,-1.48688 -0.065,-3.87148 0.08,-5.29912 l 0.2624,-2.5957 4.7613,-0.14819 4.7613,-0.14818 0.1645,5.23411 c 0.091,2.87876 0.067,5.33004 -0.052,5.44731 -0.1188,0.11726 -2.3712,0.21319 -5.0053,0.21319 h -4.7893 z m 122.8022,2.33452 c -0.5439,-0.88427 -0.078,-46.12415 0.4808,-46.68118 0.3371,-0.33608 2.2886,-0.49708 4.9179,-0.40572 l 4.359,0.15147 0.1668,11.11522 c 0.1388,9.25278 0.3043,11.26683 0.9877,12.01996 0.7349,0.80987 2.0273,0.90472 12.3266,0.90472 11.0388,0 11.5456,-0.0442 12.4933,-1.08837 0.9057,-0.99805 0.9877,-1.99566 0.9877,-12.01996 v -10.93157 h 4.9104 4.9104 l 0.015,11.52083 c 0.013,9.66616 0.1405,11.59991 0.7931,12.01204 1.2271,0.77498 23.9841,0.64841 25.027,-0.1392 0.7423,-0.56055 0.8675,-2.08578 0.9445,-11.50297 0.049,-5.9712 0.2,-11.14754 0.3359,-11.50296 0.1707,-0.44636 1.5982,-0.64624 4.6152,-0.64624 3.0163,0 4.4449,0.19999 4.6165,0.64624 0.1366,0.35542 0.3043,8.24683 0.3725,17.53646 l 0.1242,16.89023 -5.7913,0.17035 c -3.1852,0.0937 -5.9545,0.33371 -6.154,0.53337 -0.1995,0.19965 -0.3933,2.87506 -0.4307,5.94535 l -0.068,5.58234 -5.0554,0.14797 -5.0554,0.14796 v -5.71837 c 0,-5.71798 -1e-4,-5.71842 -1.3815,-6.24208 -1.6752,-0.63509 -48.6129,-0.44035 -49.2592,0.20436 -0.2375,0.2368 -0.4642,2.91221 -0.504,5.94536 l -0.072,5.5148 -4.6815,0.14809 c -2.5748,0.0814 -4.794,-0.0349 -4.9316,-0.2585 z m 85.7182,-5.05946 v -5.42837 h 4.9258 4.9258 v 5.10957 c 0,5.94352 0.2285,5.72823 -6.0925,5.7401 l -3.7591,0.007 z m 147.6433,5.00629 -1.4259,-0.16359 v -5.08022 c 0,-5.84396 -0.1122,-5.71171 4.8386,-5.70078 5.4912,0.0121 5.2829,-0.21986 5.2009,5.79339 l -0.071,5.23079 -3.5582,0.042 c -1.957,0.0231 -4.1998,-0.0316 -4.9841,-0.12158 z m 108.1114,-5.39403 0.2373,-5.29913 4.3033,-0.15146 c 2.6369,-0.0928 4.5228,0.0684 4.8701,0.41629 0.3297,0.33034 0.5667,2.60894 0.5667,5.44888 v 4.88111 l -5.1074,0.002 -5.1073,0.002 z M 74.6321,181.56899 c -0.032,-0.21326 -0.09,-2.54211 -0.1297,-5.17522 -0.082,-5.49999 -0.5153,-5.11072 5.6317,-5.06568 l 4.148,0.0304 0.1478,5.29912 0.1477,5.29912 h -4.9439 c -2.7191,0 -4.9699,-0.17448 -5.0016,-0.38774 z m 171.4139,-0.2585 c -0.4375,-1.20132 0,-9.43205 0.5271,-9.81484 0.9398,-0.68845 9.0681,-0.46528 9.1263,0.25058 0.029,0.35543 0.087,2.79818 0.1296,5.42835 l 0.077,4.78211 -4.8124,2e-5 c -3.3787,1e-5 -4.8825,-0.1925 -5.0477,-0.64622 z m 24.5834,0.2585 c -0.051,-0.36722 -0.045,-2.42848 0.024,-8.01331 l 0.03,-2.45569 4.2777,0.008 c 2.3527,0.004 4.5109,0.17884 4.7961,0.38774 0.2852,0.20891 0.5236,2.64811 0.5298,5.42045 l 0.011,5.04063 h -4.8075 c -2.6441,0 -4.8317,-0.17448 -4.8615,-0.38774 z m 36.5285,-0.40894 c -0.3439,-0.89349 0.1945,-8.89154 0.6478,-9.62276 0.3446,-0.55602 8.3575,-0.57784 8.701,-0.0237 0.141,0.22747 0.3054,2.61208 0.3652,5.29912 l 0.1089,4.88552 -4.7507,0.14877 c -3.9864,0.12483 -4.8023,0.0143 -5.0722,-0.68695 z m 24.53,0.40894 c -0.3854,-0.62307 -0.4047,-24.74531 -0.024,-30.00371 l 0.3476,-4.80058 4.6662,0.14769 4.6662,0.1477 -0.079,10.97925 c -0.075,10.37017 -0.021,11.037 0.9649,12.01996 0.9839,0.98107 1.7101,1.04069 12.673,1.04069 9.993,0 11.7466,-0.11696 12.463,-0.83134 0.7249,-0.72272 0.8144,-2.31006 0.6852,-12.14966 l -0.1486,-11.31833 4.8124,3.9e-4 c 3.3788,3.2e-4 4.8822,0.19297 5.0469,0.6467 0.1289,0.35542 0.2966,8.26548 0.3726,17.57789 l 0.1381,16.93166 -23.1723,-3.2e-4 c -12.7448,-1.8e-4 -23.2803,-0.17481 -23.4123,-0.38807 z m 60.8434,-4.98344 v -5.37117 l 5.6673,-0.19342 c 3.117,-0.10637 5.7929,-0.3186 5.9463,-0.47162 0.1535,-0.15301 0.3151,-5.56694 0.3592,-12.03094 l 0.08,-11.75272 4.955,0.1472 4.9551,0.14721 0.037,17.44818 0.037,17.44819 -11.0182,1.3e-4 -11.0182,1.4e-4 z m 36.6408,5.02652 c -0.1901,-0.18956 -0.3457,-2.64075 -0.3457,-5.44709 v -5.10243 l 4.9445,0.14797 4.9445,0.14797 0.1109,5.2994 0.1109,5.29939 -4.7097,-2.7e-4 c -2.5904,-1.6e-4 -4.8653,-0.15538 -5.0554,-0.34494 z m 24.3695,0 c -0.1901,-0.18956 -0.3456,-2.63233 -0.3456,-5.42837 v -5.08371 h 16.8675 c 13.0372,0 16.915,0.14676 17.0761,0.64624 0.1147,0.35543 0.2959,2.79819 0.4027,5.42837 l 0.1941,4.78213 h -16.9245 c -9.3085,0 -17.0802,-0.1551 -17.2703,-0.34466 z M 0.5581,152.80271 c -0.024,-11.69236 0.1424,-17.4102 0.5148,-17.63966 0.4361,-0.26874 5.8355,-0.43408 9.1226,-0.27936 0.3177,0.015 0.5601,0.78328 0.5386,1.7074 -0.021,0.92412 0.01,3.59952 0.07,5.94535 l 0.1095,4.26515 h 6.2561 c 3.4409,0 6.7205,-0.24779 7.288,-0.55064 0.9366,-0.49976 1.0229,-1.03372 0.9345,-5.77944 -0.1184,-6.35168 -0.4922,-6.10302 8.472,-5.63537 l 1.4328,0.0747 -0.1365,17.44832 -0.1365,17.44833 h -4.8504 -4.8503 l -0.011,-5.56418 c -0.011,-5.55951 -0.013,-5.5645 -1.3717,-5.94536 -2.1823,-0.61152 -11.8622,-0.4565 -12.5211,0.20053 -0.3441,0.3431 -0.6206,2.78182 -0.6741,5.94536 l -0.091,5.36365 -5.0303,0.14766 -5.0303,0.14767 z m 257.6813,-0.51245 v -17.25878 l 1.1666,-0.31174 c 0.6417,-0.17145 5.7557,-0.3149 11.3646,-0.31879 5.6089,-0.004 10.5671,-0.14827 11.0182,-0.32086 0.6787,-0.25966 0.8202,-1.28868 0.8202,-5.96408 v -5.65027 l 4.9703,0.14797 4.9703,0.14797 0.1259,5.2052 c 0.069,2.86286 0.2962,5.48011 0.5045,5.81611 0.2437,0.39311 1.9852,0.61342 4.885,0.61796 2.4784,0.004 5.0196,0.14429 5.6469,0.31202 l 1.1407,0.30497 0.037,16.05725 c 0.021,8.8315 0.1742,16.60099 0.3414,17.26555 0.3038,1.20671 0.2973,1.20829 -4.937,1.20829 h -5.2413 v -11.6017 c 0,-8.65574 -0.1627,-11.70202 -0.6411,-11.99676 -0.937,-0.5774 -21.55,-0.86046 -23.9877,-0.32939 l -2.074,0.45184 v 11.73824 11.73824 l -5.0554,-2.3e-4 -5.0554,-2.4e-4 z m 183.0179,16.87103 c -0.01,-0.21326 0,-8.1059 0.013,-17.53921 0.02,-13.35306 -0.1205,-17.24561 -0.635,-17.57654 -0.3634,-0.23379 -3.1108,-0.54186 -6.1051,-0.68459 l -5.4443,-0.25952 -0.065,-17.46627 -0.065,-17.466261 4.9905,0.14719 4.9905,0.147187 0.051,11.269664 c 0.037,8.02497 0.2306,11.44848 0.6743,11.89071 0.4615,0.45998 5.3788,0.62104 18.9608,0.62104 10.0857,0 18.4649,-0.12707 18.6206,-0.28237 0.1557,-0.1553 0.3135,-5.53926 0.3508,-11.96435 l 0.068,-11.681977 3.6935,-0.208093 c 2.0314,-0.114449 4.2845,-0.121646 5.0068,-0.01597 l 1.3134,0.192106 v 17.531084 17.5311 l -18.1476,0.1361 -18.1475,0.13611 v 17.96543 17.96542 l -5.0554,-1.1e-4 c -2.7805,-7e-5 -5.0613,-0.17461 -5.0685,-0.38786 z M 110.9849,156.18536 c 0,-0.81012 0.1516,-3.26116 0.3369,-5.44674 l 0.3369,-3.97378 4.7185,0.14762 4.7185,0.14763 0.1478,5.29911 0.1478,5.29912 h -5.2032 -5.2032 z m 366.9263,1.12831 c -0.1901,-0.18957 -0.3457,-2.64076 -0.3457,-5.44709 v -5.10243 l 5.0011,0.14797 5.001,0.14797 -0.1087,4.88552 c -0.06,2.68704 -0.2241,5.07164 -0.3652,5.29912 -0.3083,0.49739 -8.6897,0.56031 -9.1825,0.0689 z M 123.8675,145.33236 c -0.044,-0.18712 -0.1023,-16.27636 -0.1296,-35.75386 -0.032,-23.06907 0.131,-35.546029 0.4688,-35.793454 0.675,-0.494431 8.1396,-0.494431 8.8146,0 0.2851,0.208903 0.5422,2.640835 0.5711,5.404292 0.072,6.812912 -0.016,6.734627 7.2804,6.520575 3.4121,-0.100103 6.0821,-0.413584 6.4228,-0.754109 0.3392,-0.339048 0.6206,-2.71748 0.6726,-5.686862 0.049,-2.807238 0.3229,-5.274993 0.6081,-5.483896 0.616,-0.451248 7.6087,-0.526986 8.7387,-0.09465 0.6685,0.255777 0.7938,2.02131 0.8338,11.749192 0.026,6.296499 0.2201,11.620781 0.4317,11.831736 0.2116,0.210958 2.947,0.539269 6.0788,0.729584 l 5.6941,0.346027 v 5.228045 5.22804 l -18.0374,0.2585 c -14.3628,0.20583 -18.1253,0.40057 -18.4691,0.95591 -0.345,0.55718 -0.4277,16.69035 -0.1176,22.93782 l 0.07,1.40478 5.8332,0.14618 5.8331,0.14618 0.2826,5.16987 c 0.182,3.3268 0.09,5.30294 -0.2592,5.54313 -0.6758,0.46548 -21.5115,0.43366 -21.6212,-0.033 z m 49.9858,0.0188 c -1.1189,-0.16539 -1.1667,-0.38029 -1.1667,-5.2461 0,-5.8421 -0.3985,-5.47706 5.9628,-5.46154 l 3.6295,0.009 0.1473,5.57421 0.1474,5.57422 -3.7769,-0.1386 c -2.0772,-0.0762 -4.3018,-0.21621 -4.9434,-0.31105 z m 316.934,0.0944 c -0.9608,-0.21536 -1.031,-0.62012 -0.9556,-5.5128 l 0.081,-5.28038 h 4.8171 4.8171 l 0.027,5.29909 0.027,5.29909 -1.6128,3e-5 c -0.887,2e-5 -2.6369,0.0962 -3.8888,0.21372 -1.2518,0.11752 -2.7426,0.10909 -3.313,-0.0187 z m -257.0087,-5.2276 c 0.1043,-3.12368 0.3996,-5.18174 0.7778,-5.42161 0.7453,-0.47267 5.3304,-0.52089 7.5446,-0.0794 l 1.6204,0.32312 v 5.10525 5.10525 l -5.0554,10e-4 -5.0554,0.001 z m 85.7554,-0.26646 0.1478,-5.29912 h 4.6665 4.6665 l 0.2593,5.3003 0.2592,5.30029 -5.0735,-0.001 -5.0735,-0.001 z m 60.752,0.25849 c 0.02,-2.80318 0.2715,-5.20922 0.5667,-5.42045 0.7002,-0.50103 9.076,-0.5083 9.1208,-0.008 0.019,0.21326 0.082,2.65602 0.1406,5.42837 l 0.1059,5.04063 h -4.9849 -4.985 z m 36.6149,-0.40714 v -5.44777 l 4.7961,0.14865 4.7962,0.14865 0.1477,5.29912 0.1478,5.29912 h -4.9439 -4.9439 z M 62.2134,133.10142 c -0.018,-0.14218 -0.047,-2.52678 -0.065,-5.29912 l -0.033,-5.04063 10.8106,-0.14009 c 5.9459,-0.077 11.05,-0.0491 11.3426,0.0622 0.3305,0.12567 0.4698,2.18533 0.3678,5.43921 l -0.164,5.23695 H 73.359 c -6.1123,0 -11.1279,-0.11632 -11.1458,-0.25849 z m 98.2885,-1.91976 c -0.1806,-1.21888 -0.2545,-3.61201 -0.1642,-5.31807 l 0.1641,-3.10192 4.9258,-0.14668 4.9258,-0.14667 -0.08,5.31655 -0.08,5.31655 -4.6813,0.14819 -4.6814,0.14819 z m 24.5641,1.79583 c -0.035,-0.21618 -0.094,-2.8246 -0.1297,-5.79648 -0.077,-6.37854 0.267,-6.09443 -7.4717,-6.17726 l -4.8143,-0.0515 0.1478,-5.29913 0.1478,-5.29912 5.4442,-0.25849 c 2.9944,-0.14217 5.6991,-0.424 6.0105,-0.62628 0.3569,-0.23177 0.5366,-2.29795 0.486,-5.58697 -0.044,-2.87055 0.075,-5.314964 0.2653,-5.432035 0.3705,-0.228356 12.4061,-0.436576 18.3856,-0.318083 l 3.6295,0.07193 -0.1461,11.591948 c -0.1132,8.98721 0,11.6882 0.5185,12.02032 0.3655,0.2356 5.8639,0.54469 12.2186,0.68687 l 11.554,0.25849 0.1123,5.16987 0.1122,5.16988 -23.2029,0.13457 c -12.7616,0.074 -23.2321,-0.0423 -23.2676,-0.2585 z m 61.4157,-0.0202 c -0.9239,-0.58588 -0.5096,-21.81065 0.4373,-22.4092 0.3801,-0.24022 2.7136,-0.44034 5.1856,-0.4447 2.472,-0.004 4.8636,-0.14912 5.3146,-0.32171 0.678,-0.25942 0.8202,-1.28404 0.8202,-5.91132 v -5.597502 l 8.9441,-0.163289 c 4.9193,-0.08981 9.9281,-0.08232 11.1306,0.01663 l 2.1865,0.179943 -0.1125,11.288738 -0.1124,11.28874 -11.4582,0.16353 c -8.275,0.11811 -11.6776,0.34536 -12.2479,0.818 -0.6286,0.52103 -0.7684,1.75963 -0.6853,6.07461 l 0.1043,5.42013 -4.4485,-0.008 c -2.4467,-0.004 -4.723,-0.18197 -5.0584,-0.3947 z m 60.8906,0.0337 c -0.1152,-0.22362 -0.1925,-2.6167 -0.172,-5.31796 l 0.037,-4.91138 4.7961,-0.14865 4.7962,-0.14864 0.052,3.76756 c 0.029,2.07215 0.087,4.46549 0.1296,5.31852 l 0.077,1.55096 -4.7538,0.14809 c -2.6147,0.0815 -4.8481,-0.0349 -4.9633,-0.2585 z m 24.3215,0.0242 c -0.4322,-0.43088 -0.4582,-8.58424 -0.031,-9.69431 0.2804,-0.7287 2.8216,-0.81776 23.3325,-0.81776 h 23.0179 v 5.42836 5.42837 h -22.9869 c -12.6428,0 -23.1425,-0.1551 -23.3326,-0.34466 z m 60.8375,-5.05045 v -5.39511 l 5.496,-0.16251 c 3.0229,-0.0894 7.9811,-0.0908 11.0182,-0.003 l 5.5221,0.15941 0.026,5.3982 0.027,5.3982 H 403.576 392.5315 Z M 1.0925,120.95215 C 0.8786,120.80997 0.6522,115.63794 0.5893,109.45873 L 0.475,98.223816 26.0457,98.085013 c 14.0639,-0.07634 27.4374,-0.0646 29.7188,0.02609 l 4.148,0.164894 -0.049,11.085403 c -0.027,6.09697 -0.169,11.20497 -0.3155,11.3511 -0.3454,0.34435 -57.9429,0.58048 -58.4555,0.23965 z m 85.5228,-5.63156 c 0,-4.65831 -0.1417,-5.68578 -0.8201,-5.94535 -0.4511,-0.17259 -3.1343,-0.3138 -5.9628,-0.3138 -4.5371,0 -5.1472,-0.10652 -5.1817,-0.90473 -0.021,-0.4976 -0.039,-2.88221 -0.038,-5.29912 v -4.394394 l 9.2416,-0.258495 c 5.083,-0.142169 12.7778,-0.184278 17.0996,-0.09357 l 7.8577,0.164922 0.179,2.166547 c 0.098,1.1916 0.1014,6.29372 0.01,11.33804 l -0.1725,9.17151 H 97.7231 86.6182 Z m 208.3477,0.59093 c 0.1261,-2.92685 0.4623,-5.20449 0.8017,-5.43137 0.3215,-0.21491 2.4512,-0.33123 4.7326,-0.25849 l 4.148,0.13224 0.1477,5.29912 0.1478,5.29913 h -5.0975 -5.0975 z m 24.571,-0.2585 0.1478,-5.29912 3.6187,-0.15556 c 6.1352,-0.26376 5.9736,-0.41512 5.9736,5.59378 v 5.16003 h -4.9439 -4.9439 z m 12.1622,-6.97933 c -0.1274,-0.21325 -0.2668,-2.63458 -0.3099,-5.38073 l -0.078,-4.992991 5.4278,-0.17688 c 2.9852,-0.09728 7.9872,-0.09876 11.1155,-0.0031 l 5.6878,0.173599 0.2006,1.377359 c 0.1103,0.757543 0.1084,3.180353 0,5.384013 l -0.205,4.00665 h -10.8013 c -5.9407,0 -10.9054,-0.17448 -11.0328,-0.38774 z m 36.8292,0.0611 c -0.2,-0.19947 -0.3637,-2.65035 -0.3637,-5.44639 v -5.083709 l 1.4259,-0.05008 c 3.5999,-0.126438 8.0243,-0.0054 8.2562,0.22584 0.1407,0.140284 0.2564,2.542729 0.257,5.338769 v 5.08371 l -4.6063,0.14727 c -2.5336,0.081 -4.7701,-0.0159 -4.9702,-0.21541 z m 24.2282,-0.35838 c -0.145,-0.37676 -0.196,-2.86149 -0.1134,-5.52162 l 0.1503,-4.836599 9.0738,0.07295 c 4.9906,0.04012 9.9008,0.08209 10.9117,0.09325 l 1.8379,0.02028 -0.023,5.426649 -0.023,5.42664 -10.7752,0.002 c -8.4684,10e-4 -10.8316,-0.14493 -11.0388,-0.6833 z m 60.8833,0.31667 c -0.043,-0.22392 -0.1011,-2.65927 -0.1297,-5.41189 -0.06,-5.799383 -0.3623,-5.528934 5.7812,-5.175862 l 3.7591,0.216046 v 4.853036 c 0,2.66917 0.058,5.02752 0.1296,5.24078 0.071,0.21326 -2.0286,0.45463 -4.6665,0.53639 -2.6379,0.0818 -4.8311,-0.0346 -4.8737,-0.2585 z M 305.66,96.777674 l -22.8364,-0.134546 0.063,-5.293817 0.063,-5.293822 5.1976,-0.258495 c 3.2425,-0.161257 5.5124,-0.519913 6.0344,-0.953465 0.6488,-0.538859 0.8699,-1.874384 0.984,-5.945353 l 0.1472,-5.250383 3.6187,-0.155565 c 6.1633,-0.264963 5.9736,-0.45021 5.9736,5.834087 0,4.810033 0.1096,5.458824 1.0029,5.935504 1.4571,0.777533 11.556,0.688705 12.6263,-0.111056 0.6933,-0.518138 0.8929,-1.722254 1.0065,-6.074603 l 0.1416,-5.428367 4.148,-0.132247 c 2.2814,-0.07274 4.4275,0.04978 4.769,0.272252 0.7364,0.479713 1.0727,23.074097 0.3439,23.105306 -0.2455,0.01051 -10.7227,-0.04143 -23.2827,-0.11543 z m 50.4063,0.04738 c -0.05,-0.04794 -0.065,-2.49071 -0.033,-5.428367 l 0.058,-5.3412 h 4.869 4.8689 v 5.461585 5.461585 l -4.8353,-0.03323 c -2.6595,-0.01826 -4.8765,-0.07245 -4.9268,-0.120386 z m 24.2941,-0.14892 c -0.1115,-0.179884 -0.1177,-2.643118 -0.014,-5.473853 l 0.189,-5.146794 h 4.7673 4.7673 l 0.1782,5.299122 c 0.1588,4.722164 0.081,5.304298 -0.7138,5.346686 -4.7494,0.253237 -9.009,0.241554 -9.1743,-0.02517 z M 172.6866,85.289947 V 73.926075 l 1.1775,-0.294663 c 0.6476,-0.162064 2.8059,-0.224657 4.7961,-0.139094 l 3.6187,0.155565 0.1396,11.50297 0.1395,11.502966 h -4.9357 -4.9357 z m 36.6675,8.132702 c 0.099,-1.777143 0.2988,-4.193262 0.4448,-5.369151 l 0.2656,-2.137986 5.1542,-0.206414 c 2.8348,-0.11353 5.4127,-0.464113 5.7286,-0.779075 0.5875,-0.585826 0.7413,-11.449656 0.1701,-12.021728 -0.5689,-0.569893 -11.3597,-0.631265 -12.8241,-0.07294 l -1.4662,0.558994 0.1397,5.555135 0.1396,5.555131 -4.7146,0.14797 -4.7146,0.147973 -0.3616,-2.621188 c -0.1988,-1.441654 -0.2802,-4.055296 -0.1809,-5.808093 0.1716,-3.025392 0.1151,-3.205296 -1.1155,-3.549849 -0.713,-0.199621 -3.5129,-0.386116 -6.222,-0.414433 l -4.9258,-0.05148 V 54.80445 c 0,-20.130009 -0.6171,-18.101515 5.5104,-18.114101 2.1417,-0.0044 3.641,0.238728 3.9794,0.645282 0.3458,0.415464 0.5212,4.728701 0.4831,11.878252 -0.033,6.174252 0.1205,11.406 0.3411,11.626109 0.2206,0.220108 5.9697,0.400194 12.7759,0.400194 9.237,0 12.5399,-0.164576 13.0262,-0.649062 0.4823,-0.480627 0.6574,-3.63338 0.6744,-12.149201 l 0.023,-11.50014 3.3702,-0.137873 c 1.8537,-0.07583 4.073,-0.01752 4.9319,0.129572 l 1.5616,0.267444 -0.014,23.99916 -0.014,23.999161 1.499,0.29892 c 0.8244,0.164406 3.5697,0.298917 6.1006,0.298917 h 4.6017 v 5.428368 5.428367 H 226.4486 209.1754 Z M 1.237,84.360533 C 0.7852,84.076893 0.655,73.467719 0.7185,42.10874 L 0.8035,0.23568311 41.5058,0.09850052 C 63.8921,0.02305009 82.7332,0.08562753 83.3748,0.23759855 l 1.1667,0.27627674 V 42.324688 c 0,36.933443 -0.092,41.845992 -0.7882,42.112369 -1.1594,0.443607 -81.8067,0.368815 -82.5162,-0.07652 z M 73.6528,72.883569 c 0.6742,-0.424735 0.7966,-4.516475 0.9194,-30.72716 l 0.1416,-30.237173 -1.6971,-0.306855 c -2.498,-0.451667 -61.4282,-0.07274 -61.9001,0.398022 -0.221,0.22055 -0.3576,13.932503 -0.3034,30.47101 0.077,23.435017 0.2418,30.160714 0.7479,30.481077 0.9416,0.596143 61.1417,0.519626 62.0917,-0.07892 z M 27.1173,60.044212 25.4322,59.882207 25.4032,47.636516 c -0.016,-6.73513 -0.074,-14.630364 -0.1296,-17.544961 l -0.1006,-5.299266 17.3713,1.46e-4 17.3713,1.46e-4 -0.075,17.349175 c -0.041,9.542046 -0.2153,17.489191 -0.3869,17.660316 -0.3192,0.318273 -29.2881,0.535195 -32.3364,0.24214 z m 72.2878,24.374242 c -0.1902,-0.189563 -0.3457,-5.399171 -0.3457,-11.576905 0,-8.524172 0.1563,-11.285117 0.6481,-11.451551 0.3565,-0.120619 2.5731,-0.120874 4.9258,-3.88e-4 l 4.2776,0.218736 v 11.258682 c 0,11.238651 0,11.25924 -1.1666,11.570417 -1.5854,0.423618 -7.9098,0.409353 -8.3392,-0.01881 z m 146.8425,-0.04308 c -0.036,-0.213258 -0.095,-5.447153 -0.1296,-11.630874 l -0.063,-11.243133 5.0554,-0.0012 5.0554,-0.0012 V 73.131183 84.763398 H 251.24 c -2.7092,0 -4.9556,-0.174483 -4.992,-0.387741 z m 24.6691,-0.101119 c -0.2809,-0.278851 -0.3812,-2.666317 -0.2333,-5.557613 l 0.2593,-5.068757 h 4.6665 4.6665 l 0.1472,5.557613 0.1471,5.557616 h -4.5803 c -2.5192,0 -4.802,-0.219988 -5.073,-0.488859 z m 73.2211,0.144201 c -0.1901,-0.189563 -0.3457,-2.73492 -0.3457,-5.656351 0,-3.426897 -0.2103,-5.441299 -0.5927,-5.676944 -0.326,-0.200892 -3.0244,-0.505428 -5.9965,-0.676747 l -5.4037,-0.311491 0.038,-17.649902 c 0.034,-15.677512 -0.054,-17.685151 -0.7864,-17.965309 -0.4534,-0.173475 -3.0028,-0.315408 -5.6653,-0.315408 -4.8516,0 -6.6802,-0.294795 -6.2395,-1.005869 0.1297,-0.209295 0.283,-2.6322 0.3405,-5.384232 l 0.1046,-5.003694 10.9339,0.139284 10.934,0.139284 0.1324,17.577571 c 0.119,15.790445 0.2213,17.643271 1.0065,18.2238 1.2447,0.920228 23.4572,0.920228 24.643,0 0.708,-0.549378 0.8636,-2.350863 1.0381,-12.019952 l 0.2054,-11.373725 h 4.785 4.785 l 0.1091,23.669264 0.1092,23.669259 -4.9258,-0.146338 -4.9258,-0.146337 -0.2593,-5.665218 -0.2592,-5.665219 -2.074,-0.447681 c -2.3443,-0.506029 -10.5703,-0.271003 -11.5454,0.32987 -0.4438,0.273532 -0.6394,2.123946 -0.6394,6.050392 v 5.656351 h -4.5801 c -2.519,0 -4.7356,-0.155096 -4.9257,-0.344658 z M 392.5313,73.149619 V 61.498681 h 4.6359 c 2.5498,0 4.7636,0.205968 4.9196,0.457709 0.1561,0.251736 0.3088,5.428072 0.3394,11.502966 l 0.056,11.045261 -4.9752,0.14797 -4.9753,0.147965 z m 24.4536,-30.38862 0.1752,-42.00832396 h 41.3074 c 22.7191,0 41.3851,0.11632216 41.4801,0.25849106 0.095,0.1421728 0.056,18.9863599 -0.087,41.8759729 l -0.2592,41.61748 -41.3962,0.132352 -41.3961,0.132351 z m 72.3765,30.468634 c 0.5064,-0.326726 0.6482,-7.016568 0.6482,-30.571199 V 12.50548 l -1.1667,-0.311732 c -1.9823,-0.529695 -59.3157,-0.369353 -60.7381,0.169863 l -1.3077,0.495714 -0.028,29.995401 -0.028,29.995396 1.1718,0.257119 c 0.6445,0.141417 1.8718,0.349699 2.7273,0.46285 2.9803,0.394165 58.0769,0.07472 58.7203,-0.34046 z m -48.091,-30.307656 c 0,-16.257276 0.066,-17.563008 0.9074,-17.819474 0.4991,-0.15221 8.1405,-0.200884 16.9809,-0.108164 l 16.0736,0.168581 0.1364,17.650893 0.1365,17.650894 h -17.1174 -17.1174 z m -305.4936,24.006163 0.1629,-5.429457 h 5.2072 c 4.5352,0 5.1665,0.105524 4.8924,0.817765 -0.1731,0.449771 -0.3148,2.892536 -0.3148,5.428367 v 4.610603 l -5.0554,0.0012 -5.0554,0.0012 z m 24.5074,-0.01981 -0.044,-5.447099 5.048,0.147981 5.0479,0.147981 0.01,5.299118 0.01,5.299118 h -5.0127 l -5.0126,3e-6 z m 146.8827,2.991414 c 0.1414,-1.350632 0.2735,-3.802125 0.2936,-5.44777 l 0.037,-2.992077 4.7962,0.148648 4.7961,0.148648 0.1506,5.299118 0.1507,5.299121 h -5.2404 -5.2404 z M 125.1141,60.099858 c -1.3454,-0.258378 -1.2855,0.34084 -1.3705,-13.709636 l -0.055,-9.163111 1.37,-0.300732 c 1.4209,-0.311941 7.0259,-0.230651 8.0002,0.116032 0.3703,0.131777 0.57,3.967784 0.5989,11.504036 0.043,11.157873 0.029,11.310259 -1.0741,11.605241 -1.2328,0.329765 -5.6414,0.299172 -7.4691,-0.05183 z m 23.0866,-4.764652 c 0.1007,-2.723462 0.2774,-5.24255 0.3927,-5.597981 0.1472,-0.453858 1.6036,-0.646235 4.8924,-0.646235 h 4.6828 v 5.428367 c 0,6.212735 0.7274,5.549722 -6.2421,5.689309 l -3.9089,0.07829 z M 258.3451,42.829322 c 0.1075,-16.145638 0.1928,-17.663259 1.0097,-17.965309 0.4908,-0.181456 8.2109,-0.265482 17.156,-0.186724 l 16.2637,0.143195 -0.027,5.285171 c -0.015,2.906844 -0.2607,5.456091 -0.5458,5.664994 -0.2852,0.208903 -5.535,0.386949 -11.6663,0.395658 -6.1313,0.0087 -11.4478,0.205642 -11.8145,0.437635 -0.5181,0.327715 -0.6337,2.976998 -0.5185,11.877555 0.1186,9.167298 0.01,11.508437 -0.5423,11.719484 -0.3798,0.145054 -2.6574,0.263729 -5.0613,0.263729 h -4.3707 z m 38.1338,17.275457 -1.4259,-0.225735 V 48.595705 37.31237 l 1.3578,-0.339796 c 0.7468,-0.186887 2.9678,-0.181618 4.9355,0.01171 l 3.5777,0.351507 -0.1394,11.435212 -0.1393,11.435212 -3.3703,0.06215 c -1.8536,0.0342 -4.0119,-0.03943 -4.7961,-0.163586 z M 99.1026,42.677823 c -0.01,-4.390003 0.1367,-5.435766 0.793,-5.686859 1.0187,-0.389784 5.0892,-0.388035 7.4598,0.0031 l 1.8148,0.299491 v 4.993939 c 0,2.746665 -0.2334,5.164859 -0.5185,5.373762 -0.2852,0.208903 -2.5479,0.383386 -5.0282,0.38774 l -4.5097,0.0079 z m 135.4153,-6.853911 c -0.4596,-0.184921 -0.6481,-1.809504 -0.6481,-5.585819 v -5.325058 l 3.4427,-0.218576 c 1.8935,-0.120217 4.0952,-0.123106 4.8925,-0.0064 l 1.4498,0.212158 0.1629,5.245312 c 0.096,3.095959 -0.05,5.400951 -0.3556,5.625135 -0.575,0.421218 -7.9209,0.464962 -8.9442,0.05327 z m 146.318,-0.322375 c -0.1493,-0.387898 -0.2038,-2.897937 -0.1212,-5.577865 l 0.1503,-4.872597 h 4.6665 4.6665 v 5.428367 5.428365 l -4.5453,0.149501 c -3.467,0.114027 -4.6098,-0.01784 -4.8168,-0.555771 z M 111.3908,29.833208 111.2442,24.0171 105.2814,23.758607 99.3186,23.500113 99.1692,18.372966 c -0.1094,-3.753495 0.03,-5.240355 0.5185,-5.549697 0.3674,-0.232403 2.7249,-0.426113 5.2389,-0.430467 6.6069,-0.01144 6.5768,0.01792 6.5768,-6.4218435 V 0.62738633 l 2.5921,-0.34284404 c 3.046,-0.40288566 28.7586,-0.36791146 30.4624,0.0414378 1.1163,0.26820786 1.1666,0.51033631 1.1666,5.61707191 v 5.336784 l -11.5366,0.164784 c -6.3452,0.09063 -11.8283,0.352998 -12.1848,0.583036 -0.4868,0.314135 -0.6481,3.306318 -0.6481,12.019956 v 11.601704 h -4.9088 -4.9088 z m 37.0377,0.516987 0.1478,-5.29912 4.7961,-0.148647 4.7962,-0.148647 v 5.447767 5.447768 h -4.9439 -4.9439 z m 24.4152,0 0.1377,-5.29912 h 4.7784 c 2.6281,0 4.7783,0.174483 4.7783,0.387741 v 5.29912 4.91138 h -4.916 -4.9161 z M 160.5018,18.476612 c 0,-2.946289 0.2312,-5.485569 0.5185,-5.696069 0.5872,-0.430135 7.5854,-0.536173 8.6425,-0.130953 0.5134,0.196808 0.6889,1.622335 0.684,5.557614 l -0.01,5.292909 -4.9192,0.146372 -4.9192,0.146372 z m 36.8455,4.816373 c -0.4984,-0.803946 -0.068,-10.106367 0.4866,-10.512442 0.2852,-0.208904 5.3754,-0.383387 11.3115,-0.387741 6.3073,-0.0046 11.2025,-0.226423 11.7782,-0.533653 0.8831,-0.471231 0.9737,-1.083905 0.8733,-5.9095729 l -0.1119,-5.38383664 3.8888,-0.16592192 c 2.1388,-0.0912547 4.4122,-0.0805259 5.052,0.023846 l 1.1632,0.18976797 -0.1262,11.44334149 -0.1263,11.443342 -16.9459,0.136266 c -10.0198,0.08057 -17.0675,-0.05978 -17.2433,-0.343396 z m 48.874,-4.824696 c 0.1049,-3.330598 0.3932,-5.436218 0.7777,-5.68007 0.7881,-0.499718 7.7053,-0.50604 8.3983,-0.0077 0.2905,0.208903 0.5788,2.764428 0.6407,5.678944 l 0.1126,5.29912 -5.048,0.0011 -5.048,0.0011 z m 49.3058,5.161071 c -0.024,-0.07109 -0.1537,-2.45569 -0.2872,-5.29912 -0.1335,-2.84343 -0.3395,-5.460679 -0.4578,-5.816108 -0.1656,-0.497585 -3.767,-0.647267 -15.6568,-0.650727 -8.4929,-0.0025 -16.6083,-0.144639 -18.0342,-0.315926 l -2.5924,-0.311433 V 5.9943586 0.75267304 l 4.4072,-0.25849497 c 2.424,-0.14217281 12.9145,-0.14217281 23.3123,0 l 18.9051,0.25849497 -0.1517,4.75887686 c -0.228,7.1486771 -0.4613,6.8718621 5.801,6.8812521 2.9038,0.0044 5.513,0.178837 5.7982,0.387741 0.2872,0.210364 0.5185,2.744152 0.5185,5.679185 v 5.299361 l -10.7589,-2.41e-4 c -5.9174,-1.33e-4 -10.7789,-0.0584 -10.8033,-0.129488 z m 48.1524,-5.68686 -0.1466,-5.816108 -11.9255,-0.2926 c -6.5591,-0.160931 -11.9921,-0.335414 -12.0734,-0.387741 -0.081,-0.05233 -0.081,-2.4797439 0,-5.3942599 l 0.1478,-5.29911806 16.7352,-0.1364265 c 13.1161,-0.1069272 16.7858,0.004886 16.9693,0.51698606 0.1288,0.3593769 0.2977,2.9635887 0.3754,5.7871368 0.1372,4.9884016 0.1779,5.1434676 1.4375,5.4779296 0.7129,0.189313 6.0794,0.395005 11.9255,0.457093 5.8461,0.06209 10.7475,0.27243 10.8921,0.467426 0.1445,0.194995 0.1869,2.622818 0.094,5.395162 l -0.1688,5.040627 h -17.058 -17.058 z m 48.9551,1.809455 c -0.068,-2.203658 0.017,-4.646424 0.1874,-5.428367 0.3102,-1.421601 0.3106,-1.421715 4.9355,-1.421715 h 4.6253 v 5.428367 5.428367 h -4.8127 -4.8128 z m -209.6011,-8.282372 -10.134,-0.139821 -0.053,-5.3999017 c -0.045,-4.6052584 0.073,-5.43331701 0.8009,-5.626974 0.7156,-0.19030693 19.9418,-0.074578 20.8579,0.12554649 0.1655,0.0361762 0.3317,2.48365401 0.3695,5.43887681 0.06,4.6891934 -0.045,5.3966144 -0.8195,5.5576144 -0.4884,0.101464 -5.4483,0.121561 -11.0219,0.04466 z m 197.4575,0.01057 c -0.097,-0.213258 -0.052,-2.7141838 0.099,-5.5576141 l 0.275,-5.16987374 4.7962,-0.14864808 4.7961,-0.1486442 V 6.1616365 11.867897 h -4.8952 c -2.6923,0 -4.9743,-0.174483 -5.0711,-0.38774 z" />
</svg>