<svg id="IKEA" width="500" height="500" viewBox="0 0 500 500" version="1.1" xml:space="preserve" xmlns:xlink="http://www.w3.org/1999/xlink" xmlns="http://www.w3.org/2000/svg" xmlns:svg="http://www.w3.org/2000/svg">
	<path id="6275980433203553283" style="fill:#000000;stroke:#000000;stroke-width:0" d="m 0,416.85266 v -83.14731 h 83.1473 83.1473 V 416.85266 500 H 83.1473 0 Z m 142.8571,0 V 357.14285 H 83.1473 23.4375 v 59.70981 59.70984 h 59.7098 59.7098 z m -94.866,-0.5737 V 380.549 l 35.4352,0.2947 35.4353,0.29468 0.2946,35.43527 0.2948,35.43526 H 83.721 47.9911 Z m 142.8571,48.00674 v -35.71429 h 11.7188 11.7187 V 416.85266 405.13392 H 202.567 190.8482 v -47.99107 -47.99107 h -23.9955 -23.9956 v -11.71875 -11.71875 h 23.9956 23.9955 v -11.71875 -11.71875 h 11.7188 11.7187 V 249.99999 237.7232 h -23.9955 -23.9956 v 12.27679 12.27679 h -23.3997 -23.3998 l -0.3167,-11.99777 -0.3168,-11.99777 -11.9978,-0.31677 -11.9977,-0.31678 v -23.38776 -23.38776 l 47.712,-0.291 47.7121,-0.291 0.3012,-23.71652 0.3012,-23.71651 h 11.6965 11.6966 v 11.71875 11.71875 h 11.7188 11.7187 V 154.57589 142.85714 H 250 262.2768 v 11.71875 11.71875 h 11.7187 11.7188 V 130.58035 94.866068 H 273.9955 262.2768 V 71.428569 47.99107 H 250 237.7232 V 71.428569 94.866068 H 226.0045 214.2857 V 83.147318 71.428569 H 202.567 190.8482 V 59.709819 47.99107 h 11.7188 11.7187 V 23.995535 0 h 11.7188 11.7187 V 11.71875 23.437499 H 250 262.2768 V 11.71875 0 h 23.4375 23.4375 V 11.71875 23.437499 H 297.433 285.7143 V 35.714284 47.99107 h 11.7187 11.7188 v 11.718749 11.71875 H 297.433 285.7143 v 11.718749 11.71875 h 11.7187 11.7188 v 47.991072 47.99106 h 23.9955 23.9956 v 11.71875 11.71875 h 35.7142 35.7143 V 202.56695 190.8482 h 11.7188 11.7187 v 35.72997 35.72997 l -35.4352,-0.2947 -35.4353,-0.2947 -0.3168,-11.99777 -0.3167,-11.99777 h -11.6811 -11.6809 v 23.99554 23.99554 h 59.7098 59.7098 V 249.99999 214.2857 H 488.2812 500 v 59.70983 59.70982 h -11.7188 -11.7187 v 23.4375 23.43749 H 488.2812 500 v 12.27679 12.27679 h -11.7188 -11.7187 v 11.71874 11.71875 H 488.2812 500 v 11.71875 11.71875 H 488.2812 476.5625 V 440.29016 428.57141 H 452.567 428.5714 v 11.71875 11.71875 h -23.9955 -23.9955 v 12.27679 12.2768 h 35.7142 35.7143 V 488.28125 500 H 416.2946 380.5804 V 488.28125 476.5625 H 368.8616 357.1429 V 488.28125 500 h -11.7188 -11.7187 v -23.99554 -23.99555 h 23.4375 23.4375 v -11.71875 -11.71875 h 12.2767 12.2768 v -11.71875 -11.71874 h 23.4375 23.4375 v -23.99554 -23.99553 h -11.7187 -11.7188 v 11.71874 11.71875 h -11.6809 -11.6811 l -0.3167,11.99777 -0.3168,11.99777 -23.7165,0.30121 -23.7165,0.30122 v 11.69655 11.69655 h -11.7188 -11.7187 v -23.99553 -23.99554 h -23.9956 -23.9955 v 12.27679 12.27679 h -11.7188 -11.7187 v 23.43749 23.4375 H 238.2813 214.2857 V 476.00446 500 H 202.567 190.8482 Z m 47.1162,-71.14955 0.3168,-11.99777 11.9978,-0.31677 11.9978,-0.31678 V 357.10509 333.70535 H 250 237.7232 v 11.71875 11.71875 h -11.7187 -11.7188 v 23.99553 23.99554 h 11.681 11.681 z m 119.1785,-24.27456 v -11.71874 h 11.7187 11.7188 V 333.14731 309.15178 H 357.1429 333.7054 V 273.43749 237.7232 h 11.7187 11.7188 V 226.00445 214.2857 h -11.7188 -11.7187 v 11.71875 11.71875 H 321.4286 309.1518 V 214.2857 190.8482 H 297.433 285.7143 v 11.71875 11.71875 h -11.6966 -11.6966 l -0.3012,23.71652 -0.3012,23.71652 -11.9977,0.31678 -11.9978,0.31677 v 11.681 11.68099 h -23.4375 -23.4375 v 11.71875 11.71875 h 23.4375 23.4375 V 297.43303 285.71428 H 250 262.2768 v 11.71875 11.71875 h 11.7187 11.7188 v 23.99553 23.99554 h 23.9955 23.9956 v 11.71874 11.71875 h 11.7187 11.7188 z M 333.7054,345.4241 v -11.71875 h 11.7187 11.7188 v 11.71875 11.71875 h -11.7188 -11.7187 z m -24.06,-13.1583 c -0.3205,-0.83494 -0.437,-6.25161 -0.2591,-12.03703 l 0.3235,-10.51896 h 11.7188 11.7187 v 11.71875 11.71875 l -11.4597,0.31829 c -8.8578,0.24601 -11.5919,-0.0264 -12.0422,-1.1998 z m -23.9311,-34.83277 v -11.71875 h 11.7187 11.7188 v 11.71875 11.71875 H 297.433 285.7143 Z m 0,-47.43304 V 237.7232 h 11.7187 11.7188 v 12.27679 12.27679 H 297.433 285.7143 Z m 142.8571,95.42411 v -11.71875 h -11.7187 -11.7188 v 11.71875 11.71875 h 11.7188 11.7187 z M 166.2946,226.00445 V 214.2857 h -11.7187 -11.7188 v 11.71875 11.71875 h 11.7188 11.7187 z m 71.4286,0 V 214.2857 h -11.7187 -11.7188 v 11.71875 11.71875 h 11.7188 11.7187 z m 24.3124,-47.71205 0.3167,-11.99777 h -12.3145 -12.3146 v 12.31455 12.31454 l 11.9978,-0.31677 11.9977,-0.31678 z M 237.7232,488.28125 V 476.5625 H 250 262.2768 V 488.28125 500 H 250 237.7232 Z m 47.9911,0 V 476.5625 h 11.7187 11.7188 V 488.28125 500 H 297.433 285.7143 Z m 190.8482,0 V 476.5625 H 488.2812 500 V 488.28125 500 H 488.2812 476.5625 Z M 285.7143,440.29016 v -11.71875 h 11.7187 11.7188 v 11.71875 11.71875 H 297.433 285.7143 Z M 0,285.71428 v -23.4375 h 47.433 47.4331 v 11.71875 11.71875 h 12.2768 12.2767 v 11.71875 11.71875 H 107.1429 94.8661 V 297.43303 285.71428 H 71.4286 47.9911 v 11.71875 11.71875 H 23.9955 0 Z M 47.9911,226.00445 V 214.2857 H 23.9955 0 V 202.56695 190.8482 h 35.7143 35.7143 v 23.4375 23.4375 H 59.7098 47.9911 Z M 0,83.147318 V 0 h 83.1473 83.1473 V 83.147318 166.29464 H 83.1473 0 Z m 142.8571,0 V 23.437499 H 83.1473 23.4375 v 59.709819 59.709822 h 59.7098 59.7098 z m -94.866,0.573714 V 47.99107 h 35.7299 35.73 l -0.2948,35.435266 -0.2946,35.435264 -35.4353,0.2947 -35.4352,0.2947 z M 333.7054,83.147318 V 0 H 416.8527 500 v 83.147318 83.147322 h -83.1473 -83.1473 z m 142.5878,0.279018 -0.2887,-59.430801 -59.4308,-0.288798 -59.4308,-0.288797 v 59.719597 59.719603 h 59.7195 59.7196 z m -94.9688,35.249254 c -0.4092,-0.40922 -0.744,-16.48065 -0.744,-35.714283 V 47.99107 h 35.7142 35.7143 v 35.714284 35.714286 h -34.9703 c -19.2335,0 -35.3049,-0.33482 -35.7142,-0.74405 z m -143.1076,-0.6955 c -0.3205,-0.83494 -0.4369,-6.25161 -0.2591,-12.03703 l 0.3235,-10.518956 H 250 261.7187 v 11.718746 11.71875 l -11.4596,0.31829 c -8.8579,0.24601 -11.592,-0.0264 -12.0423,-1.1998 z" />
</svg>