<svg id="INTERMARCHE" width="500" height="130" viewBox="0 0 500 130" version="1.1" xml:space="preserve" xmlns:xlink="http://www.w3.org/1999/xlink" xmlns="http://www.w3.org/2000/svg" xmlns:svg="http://www.w3.org/2000/svg">
	<path id="3250390229060079531" style="fill:#000000;stroke:#000000;stroke-width:0" d="m 493.58975,0 h 6.41026 v 130 h -6.41026 z m -6.41027,0 h 3.20512 v 130 h -3.20512 z m -12.8205,0 h 9.61539 v 130 h -9.61539 z m -16.02563,0 h 6.41025 v 130 h -6.41025 z m -19.23078,0 h 6.41026 v 130 h -6.41026 z m -9.61538,0 h 3.20512 v 130 h -3.20512 z m -6.41028,0 h 3.20513 v 130 h -3.20513 z m -6.41025,0 h 3.20513 v 130 h -3.20513 z m -16.02564,0 h 9.61539 v 130 h -9.61539 z M 387.8205,0 h 6.41026 v 130 h -6.41026 z m -16.02564,0 h 12.82052 v 130 h -12.82052 z m -6.41024,0 h 3.20512 v 130 h -3.20512 z m -12.8205,0 h 9.61539 v 130 h -9.61539 z m -12.82053,0 h 6.41026 v 130 h -6.41026 z m -9.61535,0 h 3.20513 v 130 h -3.20513 z m -12.82053,0 h 9.61539 v 130 h -9.61539 z m -6.41025,0 h 3.20513 v 130 h -3.20513 z m -9.61538,0 h 6.41025 v 130 h -6.41025 z M 282.0513,0 h 9.61539 v 130 h -9.61539 z m -6.41025,0 h 3.20513 v 130 h -3.20513 z m -16.02566,0 h 6.41026 v 130 h -6.41026 z m -12.8205,0 h 3.20513 v 130 h -3.20513 z m -16.02563,0 h 9.61538 v 130 h -9.61538 z m -12.82053,0 h 6.41026 v 130 h -6.41026 z m -6.41024,0 h 3.20512 v 130 h -3.20512 z m -6.41028,0 h 3.20513 v 130 h -3.20513 z m -12.8205,0 h 6.41026 v 130 h -6.41026 z m -16.02565,0 h 9.61539 v 130 h -9.61539 z m -9.61539,0 h 6.41026 v 130 h -6.41026 z m -12.82051,0 h 6.41026 v 130 h -6.41026 z m -12.82051,0 h 6.41026 v 130 h -6.41026 z m -12.82051,0 h 3.20513 v 130 h -3.20513 z m -12.82051,0 h 3.20513 v 130 h -3.20513 z m -9.61539,0 h 6.41026 v 130 h -6.41026 z M 92.948717,0 h 9.615383 v 130 h -9.615383 z m -6.41025,0 h 3.20513 v 130 h -3.20513 z m -16.02565,0 h 6.41026 v 130 h -6.41026 z m -9.61537,0 h 6.41026 v 130 h -6.41026 z m -9.6154,0 h 6.41026 v 130 h -6.41026 z m -16.02564,0 h 6.41026 v 130 h -6.41026 z M 19.230773,0 h 9.615386 V 130 H 19.230773 Z M 9.615387,0 h 3.205128 V 130 H 9.615387 Z M 0,0 H 6.410256 V 130 H 0 Z" />
</svg>