<svg id="JULA" width="500" height="500" viewBox="0 0 500 500" version="1.1" xml:space="preserve" xmlns:xlink="http://www.w3.org/1999/xlink" xmlns="http://www.w3.org/2000/svg" xmlns:svg="http://www.w3.org/2000/svg">
	<path id="3050010904137298" style="fill:#000000;stroke:#000000;stroke-width:0" d="m 0,416.66667 v -83.33333 h 83.3333 83.3333 V 416.66667 500 H 83.3333 0 Z m 142.8571,0 V 357.14286 H 83.3333 23.8095 v 59.52381 59.52381 h 59.5238 59.5238 z m -95.2381,0 v -35.71429 h 35.7143 35.7143 v 35.71429 35.71428 H 83.3333 47.619 Z m 142.8571,47.61905 v -35.71429 h 23.8096 23.8095 v -11.90476 -11.90476 h -23.8095 -23.8096 v -47.61905 -47.61905 h -47.619 -47.619 v -59.5238 -59.52382 h 47.619 47.619 v -23.80953 -23.80952 h 11.9048 11.9048 V 119.04762 95.23809 h 11.9047 11.9048 v 11.90476 11.90477 h 11.9047 11.9048 V 107.14285 95.23809 h 11.9048 11.9047 V 83.33333 71.42857 h 11.9048 11.9047 v 23.80952 23.80953 H 297.619 285.7142 v 11.90476 11.90476 h 11.9048 11.9047 v 11.90476 11.90476 H 297.619 285.7142 V 154.7619 142.85714 h -11.9047 -11.9048 v 35.71428 35.71429 h 11.9048 11.9047 v -11.90476 -11.90476 h 35.7143 35.7143 v 11.90476 11.90476 h 11.9047 11.9048 v 23.80953 23.80953 h 23.8095 23.8095 v -11.90476 -11.90477 h -11.9047 -11.9048 v -11.90476 -11.90477 h 11.9048 11.9047 v -11.90476 -11.90476 h 11.9048 11.9048 v 11.90476 11.90476 H 476.1905 500 v 23.80953 23.80953 h -11.9048 -11.9047 v -11.90476 -11.90477 h -11.9048 -11.9048 v 11.90477 11.90476 h -11.9048 -11.9048 v 23.80952 23.80952 h 11.9048 11.9048 v 11.90477 11.90476 H 476.1905 500 v 35.71428 35.71429 h -11.9048 -11.9047 v 11.90476 11.90476 H 488.0952 500 v 11.90476 11.90476 h -11.9048 -11.9047 v -11.90476 -11.90476 h -11.9048 -11.9048 v 11.90476 11.90476 h -11.9048 -11.9048 v 11.90477 11.90476 h 11.9048 11.9048 V 488.09524 500 H 440.4761 428.5713 V 488.09524 476.19048 H 404.7618 380.9523 V 488.09524 500 H 345.238 309.5237 V 488.09524 476.19048 H 297.619 285.7142 V 488.09524 500 h -11.9047 -11.9048 v -23.80952 -23.80953 h -11.9048 -11.9047 v 11.90477 11.90476 H 226.1904 214.2857 V 488.09524 500 h -11.9048 -11.9048 z m 166.6667,0 V 452.38095 H 345.238 333.3333 v 11.90477 11.90476 h 11.9047 11.9048 z m -47.6191,-35.71429 v -23.80952 h 11.9048 11.9048 v 11.90476 11.90476 h 11.9047 11.9048 v -11.90476 -11.90476 h 11.9047 11.9048 v 23.80952 23.80952 h 11.9048 11.9047 v -11.90476 -11.90476 h 11.9048 11.9047 v -23.80952 -23.80953 h 11.9048 11.9048 v 11.90477 11.90476 h 11.9048 11.9048 V 392.85715 380.95238 H 464.2857 452.3809 V 369.04762 357.14286 H 440.4761 428.5713 V 345.2381 333.33334 h -11.9047 -11.9048 v -23.80953 -23.80952 h -11.9047 -11.9048 v 11.90476 11.90476 h -11.9048 -11.9047 v 11.90477 11.90476 H 345.238 333.3333 V 321.42858 309.52381 H 321.4285 309.5237 V 297.61905 285.71429 H 297.619 285.7142 v 11.90476 11.90476 h -11.9047 -11.9048 v -11.90476 -11.90476 h -11.9048 -11.9047 v -11.90476 -11.90476 h 11.9047 11.9048 v -11.90476 -11.90477 h -11.9048 -11.9047 v -47.61905 -47.61905 h -11.9048 -11.9047 v 47.61905 47.61905 h 11.9047 11.9048 v 11.90477 11.90476 h -23.8095 -23.8096 v 23.80952 23.80952 h 35.7143 35.7143 v 11.90477 11.90476 h -23.8095 -23.8095 v 23.80952 23.80952 h 11.9047 11.9048 v -11.90476 -11.90476 h 11.9047 11.9048 v 23.80952 23.80953 h 11.9048 11.9047 v 23.80952 23.80952 h 11.9048 11.9047 z m -23.8095,-35.71428 v -11.90477 h 11.9048 11.9047 v 11.90477 11.90476 H 297.619 285.7142 Z m 47.6191,-11.90477 v -23.80952 h 11.9047 11.9048 v 23.80952 23.80953 H 345.238 333.3333 Z m 47.619,11.90477 v -11.90477 h 11.9048 11.9047 v 11.90477 11.90476 H 392.8571 380.9523 Z M 285.7142,345.2381 v -11.90476 h 11.9048 11.9047 v 11.90476 11.90476 H 297.619 285.7142 Z m 95.2381,0 v -11.90476 h 11.9048 11.9047 v 11.90476 11.90476 H 392.8571 380.9523 Z M 166.6666,273.80953 v -11.90476 h -11.9047 -11.9048 v -11.90476 -11.90477 h 23.8095 23.8095 v -11.90476 -11.90477 h -35.7142 -35.7143 v 35.7143 35.71428 h 23.8095 23.8095 z m 190.4762,0 V 261.90477 H 345.238 333.3333 v 11.90476 11.90476 h 11.9047 11.9048 z M 309.5237,238.09524 V 214.28571 H 297.619 285.7142 v 23.80953 23.80953 h 11.9048 11.9047 z m 47.6191,-11.90476 V 214.28571 H 345.238 333.3333 v 11.90477 11.90476 h 11.9047 11.9048 z m 95.2381,0 v -11.90477 h -11.9048 -11.9048 v 11.90477 11.90476 h 11.9048 11.9048 z m 23.8096,261.90476 V 476.19048 H 488.0952 500 V 488.09524 500 H 488.0952 476.1905 Z M 23.8095,297.61905 V 285.71429 H 11.9048 0 V 273.80953 261.90477 H 11.9048 23.8095 V 250.00001 238.09524 H 11.9048 0 v -23.80953 -23.80952 h 35.7143 35.7143 v 35.71429 35.71429 H 59.5238 47.619 v 23.80952 23.80952 H 35.7143 23.8095 Z m 452.381,0 V 285.71429 H 488.0952 500 v 11.90476 11.90476 H 488.0952 476.1905 Z M 0,83.33333 V 0 h 83.3333 83.3333 v 83.33333 83.33333 H 83.3333 0 Z m 142.8571,0 V 23.80952 H 83.3333 23.8095 v 59.52381 59.52381 h 59.5238 59.5238 z m -95.2381,0 V 47.61905 h 35.7143 35.7143 v 35.71428 35.71429 H 83.3333 47.619 Z m 285.7143,0 V 0 H 416.6666 500 v 83.33333 83.33333 h -83.3334 -83.3333 z m 142.8572,0 V 23.80952 h -59.5239 -59.5238 v 59.52381 59.52381 h 59.5238 59.5239 z m -95.2382,0 V 47.61905 h 35.7143 35.7143 v 35.71428 35.71429 H 416.6666 380.9523 Z M 190.4761,59.52381 V 47.61905 h 11.9048 11.9048 v 11.90476 11.90476 h -11.9048 -11.9048 z m 47.6191,0 V 47.61905 h 11.9047 11.9048 v 11.90476 11.90476 h -11.9048 -11.9047 z m 47.619,-35.71429 V 0 h 11.9048 11.9047 V 23.80952 47.61905 H 297.619 285.7142 Z M 238.0952,11.904762 V 0 h 11.9047 11.9048 V 11.904762 23.80952 h -11.9048 -11.9047 z" />
</svg>