<svg id="KAMELEON" width="500" height="500" viewBox="0 0 500 500" version="1.1" xml:space="preserve" xmlns:xlink="http://www.w3.org/1999/xlink" xmlns="http://www.w3.org/2000/svg" xmlns:svg="http://www.w3.org/2000/svg">
	<path id="LPC236806780645350" style="fill:#000000;stroke:#000000;stroke-width:0" d="m 169.91656,499.78441 -10.40043,-0.36634 v -39.68185 -39.68185 h 10.08527 10.08526 V 409.96349 399.8726 h 30.25581 30.25581 v -8.09567 c 0,-12.06317 -0.0207,-12.08609 -10.85048,-12.08609 h -9.32006 v -9.43616 c 0,-8.87039 -0.17882,-9.48108 -2.98228,-10.18511 -1.64026,-0.41189 -3.76762,-0.63927 -4.72747,-0.50525 -0.95986,0.13402 -4.1562,0.1764 -7.10299,0.0943 l -5.3578,-0.14948 v -9.51326 -9.51325 l -9.7701,0.36839 -9.77011,0.3684 -0.36834,9.04345 -0.36835,9.04345 -9.08659,0.46366 c -4.99763,0.25501 -9.51207,0.26715 -10.03209,0.027 -0.52002,-0.24018 -0.94549,-9.20118 -0.94549,-19.91333 v -19.47664 h -10.08527 -10.08527 v 10.09088 10.09089 H 109.72011 80.094636 V 320.40696 300.22519 H 49.83883 19.583023 v 10.09089 10.09088 h -9.320064 c -6.327955,0 -9.49320086,-0.50617 -9.85939067,-1.5767 -0.29664872,-0.86719 -0.42533045,-5.26618 -0.2859804,-9.77554 l 0.25336086,-8.19885 9.60602941,-0.36839 9.6060448,-0.3684 v -30.21959 -30.2196 H 9.7915195 0 L 0.0748516,209.0919 C 0.11598059,192.26851 0.26752751,174.38874 0.41143169,169.35907 L 0.67308138,160.2142 H 40.383827 80.094573 v 10.03783 10.03783 l -9.770104,0.36839 -9.770104,0.36838 -0.350117,18.82436 c -0.263966,14.19208 0.04617,19.0899 1.260659,19.90349 0.885928,0.59352 5.865497,1.00373 11.065714,0.91157 5.200217,-0.0922 13.567838,-0.10879 18.594714,-0.0371 l 9.139775,0.13055 v 9.37643 9.37644 l 12.87517,0.39911 c 7.08134,0.2195 15.87443,0.20467 19.54021,-0.033 l 6.66504,-0.43208 v -9.2904 -9.2904 l -9.66141,-0.36841 -9.66139,-0.36839 0.28877,-9.77555 0.28877,-9.77554 H 110.4327 100.26511 v -10.03783 -10.03781 l 9.7701,-0.3684 9.77011,-0.36839 0.36819,-9.77555 0.36819,-9.77554 h 9.40191 9.40192 v 10.09088 10.09089 h -10.08527 -10.08527 v 8.09566 c 0,12.05564 0.0273,12.08609 10.79745,12.08609 h 9.26703 l 0.36819,9.77554 0.3682,9.77555 9.7701,0.36839 9.7701,0.36841 v -30.3258 -30.32569 h 10.08527 10.08527 v -10.09088 -10.09089 h -10.08527 -10.08527 v -10.09088 -10.09088 h 10.08527 10.08527 v -10.0908 -10.090882 h -10.08527 -10.08527 v -29.64197 -29.64197 h 10.08527 10.08527 v 10.090883 10.090884 h 10.08527 10.08527 v 10.143941 10.143942 l 9.7701,-0.368399 9.77011,-0.368398 0.34717,-19.866426 0.34718,-19.866427 h 29.59346 29.59347 V 20.203126 0.02135956 h 10.08527 10.08527 V 20.203126 40.384895 H 289.3639 279.27863 v 10.05803 10.058029 l -19.22504,0.348194 -19.22505,0.348194 -0.34745,19.920066 -0.34745,19.920072 9.80239,-0.36899 9.80239,-0.36897 0.19529,-9.460208 0.19531,-9.460203 19.66007,-0.347369 19.66008,-0.347371 V 70.625515 60.566662 h 20.17054 20.17053 v 10.037824 10.037826 l -9.7701,0.368399 -9.77011,0.368398 -0.3601,9.460203 -0.36011,9.460208 -7.40355,-0.421555 c -12.66242,-0.720985 -12.6771,-0.696318 -12.6771,21.278375 v 18.87603 h 10.03222 10.03225 l 0.36819,-9.77554 0.3682,-9.77555 9.77011,-0.3684 9.7701,-0.36839 v 10.14394 10.14394 h -10.08527 -10.08526 v 10.09088 10.09089 h -8.09118 c -12.06097,0 -12.07936,0.0166 -12.07936,10.88855 v 9.35728 l -19.85537,-0.34737 -19.85538,-0.34737 0.18738,-18.2044 c 0.10306,-10.01241 -0.0994,-18.95231 -0.45004,-19.86643 -0.44786,-1.16775 -3.40918,-1.66203 -9.95748,-1.66203 h -9.32007 v 10.09088 10.09089 h -10.08526 -10.08527 v -10.09089 -10.09088 h -10.08527 -10.08527 v 10.09088 10.09089 H 189.77187 179.6866 v 10.09088 10.09089 h 10.08527 10.08527 v 10.03781 10.03782 l -9.77011,0.3684 -9.7701,0.3684 -0.36819,9.77554 -0.36821,9.77554 h -10.03222 -10.03225 v 19.55109 19.55109 h 10.08527 10.08527 v -10.09089 -10.09088 h 10.08527 10.08527 v 10.09088 10.09089 h 10.08527 10.08527 v -19.55109 -19.55109 l 10.40043,-0.0585 c 5.72024,-0.0322 19.0517,-0.008 29.62548,0.0555 l 19.22504,0.11399 v -10.14638 -10.14638 h 10.08527 10.08527 v 19.55108 19.55109 l -9.13978,0.10233 c -5.02687,0.0563 -17.89643,0.0516 -28.599,-0.011 -14.36561,-0.0834 -19.72286,0.30248 -20.4664,1.47434 -0.55395,0.87305 -1.01587,9.95964 -1.02647,20.19243 l -0.0192,18.60547 h 9.80501 9.80499 l 0.0303,-9.77554 0.0303,-9.77554 9.70488,-0.3684 9.70489,-0.36839 v 10.14393 10.14394 h 10.08527 10.08527 v -19.46608 c 0,-18.0419 0.17588,-19.52194 2.40409,-20.22954 1.32224,-0.41989 10.25716,-0.60005 19.85538,-0.40034 l 17.4514,0.36311 0.36819,-9.77554 0.36819,-9.77555 h -10.13829 -10.1383 v -10.09088 -10.09088 h 10.08527 10.08527 v -20.18175 -20.18177 h 10.08527 10.08527 v 20.18177 20.18175 H 349.8757 339.79043 v 10.19791 10.19791 l 10.40043,-0.23326 c 5.72024,-0.12834 14.65516,-0.17711 19.85538,-0.10848 l 9.45494,0.12488 -0.2334,9.46162 -0.23338,9.46162 7.79733,0.10596 c 4.28854,0.0583 13.32849,0.072 20.08877,0.0304 l 12.29141,-0.0755 v 20.15134 20.1513 h -10.08526 -10.08526 v 10.09089 10.09088 h -8.67026 c -10.89496,0 -11.87856,1.02252 -11.16035,11.60188 l 0.53966,7.94921 19.73074,0.34738 19.73073,0.34736 v -10.12291 -10.12292 h 10.08527 10.08526 v 10.09088 10.09089 h 10.08527 10.08527 v 19.46608 c 0,17.44429 0.22914,19.53532 2.20615,20.13269 1.21339,0.36663 10.14831,0.60249 19.85538,0.52414 l 17.64922,-0.14253 0.34718,19.74262 0.34717,19.74263 H 479.75554 459.55298 V 389.78164 379.69076 H 449.4676 439.38233 v -19.55109 -19.55108 h -8.09117 c -13.07848,0 -12.07936,-2.51514 -12.07936,30.40761 v 28.8764 h 10.08527 10.08526 v 10.09089 10.09088 h -8.57247 c -4.9866,0 -9.20527,0.63316 -10.08527,1.51363 -1.04033,1.04091 -1.51279,7.34393 -1.51279,20.18177 v 18.66815 h -10.1383 -10.13829 l 0.36819,9.77554 0.3682,9.77555 9.77011,0.36839 9.77009,0.3684 v 9.40715 9.40714 h -10.08526 -10.08526 v -9.4602 -9.4602 h -9.96026 -9.96026 l 0.19015,9.14486 0.19016,9.14486 -9.77011,0.3684 -9.7701,0.3684 v -9.46021 -9.4602 l 9.7701,-0.3684 9.77011,-0.36839 0.36819,-9.77555 0.36819,-9.77554 h -10.1383 -10.13829 v -20.23484 -20.23482 l -9.77011,0.3684 -9.7701,0.36839 -0.36726,9.72344 -0.36726,9.72341 -9.71801,0.36747 -9.71801,0.36745 -0.33807,29.18993 -0.33807,29.18991 -9.11687,0.46059 c -5.01427,0.25333 -14.08071,0.25661 -20.14763,0.008 l -11.03076,-0.45331 v -9.33078 -9.33075 h 10.08527 10.08527 v -20.18177 -20.18238 h -8.57248 c -4.98662,0 -9.20528,0.63315 -10.08527,1.51363 -0.87918,0.87967 -1.51279,5.09634 -1.51279,10.06764 v 8.55401 l -29.31031,0.33858 -29.31032,0.3386 -0.348,19.23575 -0.34801,19.23574 -8.4766,0.0765 c -4.66214,0.0421 -13.58227,0.18397 -19.82253,0.31534 -6.24026,0.13134 -16.02613,0.074 -21.74636,-0.12755 z m 29.94064,-49.45737 v -10.0909 h 20.23613 20.2361 l -0.24307,-10.09088 -0.24307,-10.09089 h -30.07832 -30.07831 v 20.18177 20.18178 h 10.08527 10.08527 z m 199.18406,0 v -10.0909 H 390.371 c -10.53134,0 -11.80952,1.16056 -11.38497,10.33723 0.46259,9.99935 0.29378,9.84455 10.73516,9.84455 h 9.32007 z M 319.61977,389.78172 V 359.50907 H 309.5345 299.44923 v -9.4602 -9.46021 h 10.08527 10.08527 V 330.49778 320.4069 H 309.5345 299.44923 v -10.09089 -10.09088 h 10.08527 10.08527 v -10.09088 -10.09089 h 10.08527 10.08527 v 20.18177 20.18177 h 10.10296 10.10298 l -0.33287,-40.0482 -0.33287,-40.04819 -9.7701,-0.3684 -9.7701,-0.36839 v 10.14394 10.14394 h -8.57248 c -4.98662,0 -9.20528,0.63315 -10.08527,1.51363 -0.88,0.88048 -1.51279,5.10151 -1.51279,10.09088 v 8.57725 H 309.5345 299.44923 v 10.09089 10.09088 h -10.08527 -10.08527 v -10.14394 -10.14394 l -9.7701,0.3684 -9.7701,0.36839 v 9.46021 9.4602 l 9.7701,0.3684 9.7701,0.36841 v 10.00579 10.00579 l -19.74443,0.34738 -19.74442,0.34736 0.28494,9.72103 0.28494,9.72104 -9.85083,0.36985 -9.85082,0.36984 -0.36917,9.82958 -0.36917,9.82958 9.82411,-0.36938 9.82411,-0.36937 0.36819,-9.77554 0.36819,-9.77555 h 19.48718 19.48718 l 6e-4,9.77555 6e-4,9.77554 -8.39274,-0.20746 c -5.51844,-0.13639 -8.96305,0.36316 -10.05799,1.4587 -1.25379,1.25449 -1.59424,6.13644 -1.37796,19.75855 l 0.28729,18.09238 9.7701,0.36842 9.7701,0.36839 v 10.03783 10.03781 h 20.17054 20.17054 z m 79.42149,-19.57433 v -29.66521 l -29.31031,0.33858 -29.31031,0.33858 -0.33841,29.32663 -0.3384,29.32663 h 29.64871 29.64872 z m -39.08042,0.12283 v -9.36056 l 9.45787,-0.41498 c 5.20183,-0.22825 9.48876,-0.13119 9.5265,0.21567 0.0377,0.34688 0.22853,4.74587 0.42395,9.77555 l 0.35531,9.14486 h -9.88181 -9.88182 z M 139.34559,310.31601 v -10.09088 h 10.08527 10.08527 v 10.09088 10.09089 h 10.08527 10.08526 v -10.09089 -10.09088 h 10.08527 10.08527 v 10.09088 10.09089 h 20.10702 20.107 l 0.0191,-20.18177 0.0191,-20.18177 h -9.27561 c -10.77987,0 -10.806,0.0292 -10.806,12.08609 v 8.09568 H 209.94247 199.8572 v -10.09088 -10.09089 h -8.57248 c -4.98661,0 -9.20528,0.63316 -10.08527,1.51364 -0.87998,0.88047 -1.51279,5.10151 -1.51279,10.09088 v 8.57725 H 169.6014 159.51613 V 290.13425 280.04336 H 149.43086 139.34559 V 269.95248 259.8616 h -18.775 c -21.497937,0 -20.30542,-0.7098 -20.30542,12.08608 v 8.09568 H 90.211909 80.158661 l -0.347185,-19.86642 -0.34717,-19.86643 -9.454939,-0.201 c -5.200217,-0.11052 -14.135134,-0.25246 -19.855373,-0.31534 l -10.400433,-0.11431 v -9.4602 -9.4602 h -8.091175 c -11.962216,0 -12.079363,0.0992 -12.079363,10.22583 0,6.07228 0.475269,8.71858 1.575824,8.7742 0.866702,0.0438 5.263249,0.1857 9.770104,0.31534 l 8.19428,0.23571 0.368192,9.77555 0.368191,9.77554 h 10.032242 10.032242 v 10.09088 10.09089 h 10.085269 10.085269 v 10.09088 10.09088 h 10.085268 10.085266 v 10.09089 10.09088 h 19.54021 19.54021 z m -39.08042,-20.18176 v -10.09089 h 19.54021 19.54021 v 10.09089 10.09088 H 119.80538 100.26517 Z M 399.04126,269.95248 V 259.8616 h -8.28434 c -10.9151,0 -12.13315,1.24983 -11.65688,11.96097 l 0.36552,8.22079 h 9.78785 9.78785 z M 39.753561,190.48677 v -10.09086 h -8.091175 c -11.928304,0 -12.079363,0.12519 -12.079363,10.01559 0,4.66639 0.378198,8.86276 0.840434,9.32526 0.462252,0.46249 5.000623,0.8409 10.085269,0.8409 h 9.244835 z M 199.8572,129.94149 V 119.8506 h 10.08527 10.08527 v 10.09089 10.09088 h 10.0246 10.0246 l 0.009,-19.48215 c 0.009,-17.33032 -0.22967,-19.55829 -2.1605,-20.17145 -3.67104,-1.165794 -34.81934,-0.3974 -36.4935,0.90025 -0.98958,0.76703 -1.57582,4.44878 -1.57582,9.89651 v 8.67507 H 189.7713 179.68603 v 10.09089 10.09088 h 10.08527 10.08527 z m 79.13833,-9.77555 -0.34717,-19.86642 h -9.45494 -9.45493 l -0.28495,19.86642 -0.28494,19.86643 h 10.08705 10.08707 z m 170.78722,379.61847 -10.40043,-0.36634 V 469.8271 440.23614 h 10.08527 10.08527 v -10.09088 -10.09089 h 20.17053 20.17054 v 10.03783 10.03783 l -9.7701,0.36839 -9.77011,0.3684 -0.36724,9.72343 -0.36726,9.72342 -9.71801,0.36747 -9.71802,0.36746 -0.37737,8.7166 c -0.26499,6.12045 0.11047,9.02626 1.26066,9.75623 0.90092,0.57179 10.00564,1.04832 20.23274,1.05894 l 18.59471,0.0192 v 9.4602 9.46021 l -9.13977,0.11257 c -5.02688,0.0618 -13.9618,0.20377 -19.85538,0.31534 -5.89358,0.11147 -15.39579,0.038 -21.11603,-0.16352 z M 0.64181705,498.57407 c -0.0217464,-0.65743 0.004727,-128.52794 0.0291527,-137.80364 8.9822e-4,-0.34687 31.20303325,-0.47928 69.33809825,-0.29424 l 69.336472,0.33643 v 69.35373 69.35374 H 70.00932 c -38.134923,0 -69.35032648,-0.4257 -69.36755023,-0.94602 z M 119.80538,430.14526 V 380.32152 L 69.694202,379.9917 19.583023,379.66191 v 50.48335 50.48336 l 50.111179,-0.32981 50.111178,-0.3298 z m -80.051819,-0.0229 v -30.29548 l 29.940641,0.33817 29.940642,0.33816 0.337983,29.95731 0.337983,29.95732 H 70.032185 39.753561 Z m 200.444719,59.9375 v -9.4602 h 9.45494 9.45494 v 9.4602 9.4602 h -9.45494 -9.45494 z M 179.68666,370.23063 v -9.4602 h 10.08527 10.08527 v 9.4602 9.46021 H 189.77193 179.68666 Z M 39.753561,330.49778 V 320.4069 H 49.83883 59.924098 v 10.09088 10.09088 H 49.83883 39.753561 Z M 479.72339,320.45997 v -20.23484 h -10.08526 -10.08527 v -10.09088 -10.09089 h 10.08527 10.08526 v 10.09089 10.09088 h 10.11729 10.11728 l -0.34717,19.86643 -0.34719,19.86642 -9.7701,0.36842 -9.77011,0.36839 z m -40.34107,-80.0964 v -19.49802 l -9.77011,-0.36841 -9.7701,-0.3684 -0.34717,-19.86642 -0.34717,-19.86641 h -10.10629 -10.10629 l 0.36819,-9.77555 0.36821,-9.77554 29.94062,-0.33817 29.94065,-0.33817 v 10.11371 10.11372 h -8.09118 c -12.05645,0 -12.07936,0.0207 -12.07936,10.85649 v 9.32526 h 10.08527 10.08527 v 29.64197 29.64197 h -10.08527 -10.08527 z m 40.34107,9.35409 v -10.14394 l 9.77011,0.36839 9.7701,0.3684 0.36821,9.77554 L 500,259.8616 h -10.1383 -10.13831 z m 0,-69.32175 v -20.18177 h 10.08527 10.08527 v 20.18177 20.18175 H 489.80866 479.72339 Z M 0.64236859,139.71703 C 0.62550729,139.54359 0.57350509,108.18302 0.52686074,70.026865 L 0.44208145,0.65203978 69.893859,0.3260191 139.34562,0 V 70.016184 140.03237 H 70.009399 c -38.134923,0 -69.35007456,-0.1419 -69.3669989,-0.31534 z M 120.43571,70.026865 V 20.203126 H 70.009367 19.583023 V 70.026865 119.8506 h 50.426344 50.426343 z m -80.683142,0.31534 9.93e-4,-29.95731 H 70.009367 100.26517 V 69.983189 99.581484 L 70.008374,99.940501 39.751559,100.29952 Z M 359.96084,70.026865 V 0.02135956 h 69.96654 69.96655 V 70.026865 140.03237 h -69.96655 -69.96654 z m 119.76255,0 V 20.203126 h -50.47976 -50.47978 l 0.17449,49.823739 0.17449,49.823735 h 50.30529 50.30527 z m -80.15686,29.747084 c -0.2889,-0.289063 -0.52527,-13.769852 -0.52527,-29.957312 V 40.384895 h 30.25579 30.25581 v 29.95731 29.957315 h -29.73052 c -16.3518,0 -29.96692,-0.23651 -30.25581,-0.525571 z M 319.61977,30.29401 V 20.203126 h 10.08527 10.08527 V 30.29401 40.384895 H 329.70504 319.61977 Z M 159.51613,10.112243 V 0.02135956 h 20.17053 20.17054 V 10.112243 20.203126 h -20.17054 -20.17053 z" />
</svg>