<svg id="KAUFLAND-SEBASTIAN" width="500" height="500" viewBox="0 0 500 500" version="1.1" xml:space="preserve" xmlns:xlink="http://www.w3.org/1999/xlink" xmlns="http://www.w3.org/2000/svg" xmlns:svg="http://www.w3.org/2000/svg">
	<path id="6004810437726783" style="fill:#000000;stroke:#000000;stroke-width:0" d="M 0.00258716,333.33335 H 166.66837 V 500 H 0 Z M 142.85899,357.14316 H 23.809381 V 476.19083 H 142.8564 Z M 47.621407,380.95233 H 119.0496 v 71.42861 H 47.621407 Z m 142.856343,47.61906 h 23.80944 v 23.80955 h 23.80938 V 404.76192 H 190.47775 V 285.71427 h 23.80944 v -23.80951 h 23.80938 V 214.2857 h -47.61882 v 47.61906 h -47.61876 v 23.80951 h 23.80938 v 23.80949 H 0 V 238.0952 H 23.809381 V 214.2857 H 0 V 190.47619 H 71.428201 V 214.2857 H 95.23758 v -23.80951 h 95.23758 v -23.80956 -23.8095 h 23.80944 v 23.8095 h 23.80938 v -23.8095 h 23.80944 V 119.04762 H 238.09398 V 95.23812 H 214.2846 V 71.42856 H 190.47516 V 47.619053 H 214.2846 V 0 h 23.80938 V 23.809549 H 285.7128 V 0 h 23.80938 V 23.809549 H 285.7128 v 23.809504 h 23.80938 V 95.23812 H 285.7128 v 47.61901 h 23.80938 v 23.8095 H 285.7128 v 23.80956 h 71.4282 v 23.80951 h 23.80937 v 23.8095 h 23.80939 v -23.8095 h 23.80944 v -23.80951 h 23.8094 v 23.80951 h 47.61879 v 23.8095 h -23.80943 v 23.80956 h -71.4282 v 23.80951 h 23.80944 v 23.80949 h 23.8094 v 23.80959 h -23.8094 v -23.80959 h -47.61883 v 23.80959 23.80947 h 47.61883 v 23.80951 h 23.8094 v -23.80951 h 47.61879 v 23.80951 H 452.3786 v 23.80959 h 23.80936 v 23.80947 h 23.80943 V 500 H 476.18796 V 476.19049 H 452.3786 V 500 H 428.5692 V 476.19049 H 404.75976 V 500 H 380.95037 V 476.19049 H 357.141 V 500 H 309.52218 V 476.19049 H 285.7128 v -23.80955 h 23.80938 v 23.80955 H 357.141 V 452.38094 H 333.33156 V 428.57139 H 357.141 v -47.61906 h -23.80944 v 23.80959 h -71.42814 v 47.61902 H 238.09398 V 500 h -47.61882 z m 214.28458,23.80955 h 23.80944 v 23.80955 h 23.8094 v -23.80955 h 23.80939 v -23.80955 h -23.80939 v -23.80947 h -23.8094 v -23.80959 h -47.6188 v -23.80951 h -23.80938 v 23.80951 h 23.80938 v 47.61906 h -23.80938 v 23.80955 h 23.80938 v 23.80955 h 23.80936 z m -23.80936,-23.80955 h 23.80936 v -23.80947 h 23.80944 v 23.80947 h 23.8094 v 23.80955 h -23.8094 v -23.80955 h -23.80944 v 23.80955 H 380.95297 Z M 261.90601,380.95233 h -23.80944 v 23.80959 h 23.80944 z m 47.61876,-23.80951 h 23.80938 v -23.80947 h 23.80944 v -23.80959 h 23.80938 v -23.80949 h -23.80938 v -23.80951 h 23.80938 V 238.0952 h -23.80938 v -23.8095 h -71.4282 v -23.80951 h -23.80938 v -23.80956 h 23.80938 v -23.8095 h -23.80938 v 23.8095 h -23.80944 v 23.80956 h 23.80944 v 23.80951 h 23.80938 v 71.42857 h -23.80938 v -23.80951 h -23.80944 v 47.619 h -23.80938 v 23.80959 h 23.80938 v 23.80947 h 47.61882 v 23.80951 h 23.80938 z m -23.80938,-23.80947 h -47.61882 v -23.80959 h 47.61882 v -23.80949 h 23.80938 v 23.80949 h 23.80938 v 23.80959 h -23.80938 v 23.80947 H 285.71539 Z M 95.240169,261.90476 H 71.430786 v 23.80951 H 95.240169 Z M 71.430786,214.2857 H 47.621407 v 23.8095 h 23.809379 z m 95.237584,0 h -23.80938 v 23.8095 h 23.80938 z M 261.90601,71.42856 h 23.80938 V 47.619053 H 238.09657 V 71.42856 95.23812 h 23.80944 z m 214.28455,238.0952 H 500 v 23.80959 H 476.19056 Z M 0,3.3637794e-4 H 166.66578 V 166.66697 H 0 Z M 142.8564,23.809885 H 23.809381 V 142.85746 H 142.8564 Z M 47.618762,47.619393 H 119.04696 V 119.04796 H 47.618762 Z M 333.33156,3.3637794e-4 H 499.99739 V 166.66697 H 333.33156 Z M 476.18796,23.809885 H 357.141 V 142.85746 h 119.04696 z m -95.23759,23.809508 h 71.42823 v 71.428567 h -71.42823 z" />
</svg>