<svg id="KAUFLAND-MACIEJ" width="500" height="500" viewBox="0 0 500 500" version="1.1" xml:space="preserve" xmlns:xlink="http://www.w3.org/1999/xlink" xmlns="http://www.w3.org/2000/svg" xmlns:svg="http://www.w3.org/2000/svg">
	<path id="6004810101827811" style="fill:#000000;stroke:#000000;stroke-width:0" d="M 0.57488513,333.51384 166.67475,332.95839 V 500 H 0.02056845 Z M 142.86904,356.83268 H 24.921927 V 476.13844 H 142.86904 Z m -94.682378,24.40346 70.876518,-0.57185 v 71.61313 H 47.61604 Z m 142.294108,94.9023 h 23.80581 v 23.86118 h -23.80581 z m 47.61167,-23.86113 h -23.80586 v -47.72232 h -23.80581 v -23.86114 h 23.80581 v -23.86117 h -23.80581 v -46.5954 l -47.07066,-0.58466 v -23.86117 l 23.26479,-0.61592 v -22.6298 l -23.26479,-0.61592 v -23.86117 l 47.07066,-0.58465 v -22.69194 l -47.07066,-0.58466 v -23.86112 l 47.07066,-0.58466 V 71.582746 h 23.80581 v 23.861117 h 47.61173 v 23.861177 h 23.80581 V 95.443863 h 23.80586 v 23.861177 h -23.80586 v 23.86117 h 23.80586 v 46.61917 l 118.48821,0.56058 0.61447,23.31884 h 46.38316 l 0.61447,-23.31884 h 23.80589 v 71.58345 l -23.26481,0.61591 v 22.6298 l 23.26481,0.61592 v 23.86117 l -23.26481,0.61592 v 22.70317 h -47.61173 v 47.64892 l 23.26485,0.61592 0.61451,23.31885 h 22.57735 l 0.61447,-23.31885 h 23.80585 L 500,428.41613 h -47.65391 v 23.86118 h 23.80585 v 23.86113 h 23.8058 v 23.86118 h -48.69376 v -47.72231 h -22.72377 v 23.86113 H 404.7344 v 23.86118 H 285.70412 v -23.86118 h 23.80586 v -23.86113 h 23.80587 v -23.86118 h 23.80581 v -23.86114 h -23.80581 v -23.86114 h 23.80581 v -23.86117 h 47.61172 v -47.72229 h 23.80581 v -22.77656 h -47.61165 v -23.86117 h -23.80588 v 46.5643 l 23.26484,0.61592 0.61447,23.31883 H 333.3161 v 23.86117 h -23.80586 v 23.86116 h -23.80586 v 23.86114 h 23.80586 v 23.86117 h -23.80586 v 23.86118 h -23.80582 v 47.72232 H 238.0927 Z m 142.8351,0 h 23.80584 v -23.86118 h 46.52958 v -23.86114 h -22.72377 v -23.86114 h -71.41753 v 23.86114 h 47.61172 v 23.86114 h -23.80584 v 23.86118 h -23.80588 v 23.86113 h 23.80588 z M 261.89831,380.69385 h -47.61173 v 23.86114 h 47.61173 z m 23.80581,-95.44463 h 23.80586 v -23.86117 h 23.80587 v -23.86112 h 71.41753 v -22.77655 h -95.2234 v 23.86111 h -23.80586 v 23.86117 h -71.41754 v 22.77656 h 47.61173 v 47.72229 h -23.80587 v 23.86117 h 47.61168 z m -71.41754,1.08461 h -23.80581 v 22.77656 h 23.80581 z m 260.78226,0 h -22.72377 v 22.77656 h 22.72377 z m -46.52965,-47.72234 h -23.80581 v 22.77656 h 23.80581 z m 46.52965,0 h -22.72377 v 22.77656 h 22.72377 z M 261.89831,167.02804 h 23.80581 v -23.86112 h -23.80581 v -23.86117 h -23.80587 v 23.86117 h -23.80586 v 23.86112 h 23.80586 v 23.86117 h -23.80586 v 22.77656 h 23.80586 v 23.86116 h 23.80587 z m -23.80587,-23.86112 h 23.80587 v 23.86112 h -23.80587 z m 71.41754,47.72229 h -23.80586 v 22.77656 h 23.80586 z M 0.52647252,308.83241 c -0.65282893,-15.60914 -0.15285501,0.63943 0.0511223,-46.90203 L 23.842433,261.31447 V 214.82356 L 0.5775946,214.20764 V 190.34652 H 24.383407 l 0.613465,23.24618 23.192349,0.61489 0.583302,47.17999 h 70.293257 v 48.88029 L 95.800945,309.65195 95.186458,286.33312 H 48.8033 l -0.614491,23.31883 c -47.41086702,-0.70215 -0.08893,-0.041 -47.66018937,-0.82006 z M 95.741746,237.22773 c 0.134438,-0.26952 -0.14468,-31.2626 0.05673,-46.8808 l 23.264784,-0.61591 v 48.88027 C 95.849085,237.24136 95.741833,237.22753 95.741833,237.22753 Z M 0.75534604,166.30498 C -0.23764914,166.30172 0.03396245,107.28217 0.03396245,0 H 166.6749 V 167.02804 C 1.190855,166.30786 166.31858,166.8488 0.75534604,166.30498 Z M 142.86904,23.861118 H 24.921927 V 143.16692 H 142.86904 Z M 48.367074,118.58269 c 0,0 -0.721383,-47.250232 -0.721383,-70.8604 h 71.417539 v 71.58346 c -70.448366,-0.88068 -0.14725,0.22179 -70.696156,-0.72306 z M 333.31585,0 h 166.65433 l -0.55415,166.48576 -166.09988,0.55545 z M 475.06884,23.862706 H 357.12166 V 143.16851 h 117.94718 z m -94.1413,23.861735 h 71.44709 l -0.57056,71.041179 -70.8765,0.57185 z m -119.02923,0 H 238.09244 V 23.86327 H 190.48077 V 0.00215212 h 47.61167 V 23.86327 h 23.80587 v 23.861171 h 47.61167 V 71.585615 H 261.89831 Z M 285.70412,0.00215212 h 23.80586 V 23.86327 h -23.80586 z" />
</svg>