<svg id="KDR" width="500" height="500" viewBox="0 0 500 500" version="1.1" xml:space="preserve" xmlns:xlink="http://www.w3.org/1999/xlink" xmlns="http://www.w3.org/2000/svg" xmlns:svg="http://www.w3.org/2000/svg">
	<path id="30210830021002001" style="fill:#000000;stroke:#000000;stroke-width:0" d="M 0.1033421,452.81997 V 405.63989 H 47.702709 95.302078 V 452.81997 500 H 47.702709 0.1033421 Z M 81.238658,452.27768 V 418.65511 H 47.702709 14.166763 v 33.62257 33.62256 h 33.535946 33.535949 z m -54.090245,0.54229 v -20.06506 h 20.554296 20.554297 v 20.06506 20.06509 H 47.702709 27.148413 Z m 81.354157,40.40133 0.32198,-6.77877 6.76124,-0.32277 6.7613,-0.32277 v -6.45585 -6.45585 h 20.01335 20.01342 v -7.10166 -7.10165 l 6.76124,0.32277 6.76129,0.32277 0.32197,6.77873 0.32198,6.77878 h 6.4392 6.43921 v -13.60929 -13.60921 l 6.76129,0.32277 6.76125,0.32277 0.30357,13.28633 0.30357,13.28636 h 6.45755 6.45751 v 6.50759 6.50759 h 6.49082 6.49083 v -20.06509 -20.06506 h -6.49083 -6.49082 v -6.45585 -6.45585 l -6.76125,-0.32277 -6.76129,-0.32278 -0.32198,-6.77877 -0.32197,-6.77873 h -6.43916 -6.4392 v 7.04991 7.04988 h -6.49083 -6.49083 v 6.50759 6.50759 h -13.47092 -13.47095 l -0.32198,6.77874 -0.32198,6.77873 h -20.0133 -20.01336 l -0.2857,-33.89371 -0.28569,-33.89367 H 94.746 81.23885 v -6.50759 -6.50759 h -6.490827 -6.490824 v -6.45586 -6.45583 l -6.761295,-0.32281 -6.761294,-0.32281 -0.321978,-6.77872 -0.321978,-6.77876 h -6.439256 -6.439207 v 7.04987 7.04993 H 27.689656 14.16707 v 13.01518 13.01518 H 7.1164487 0.06582821 l 0.28927617,-26.8438 0.28927613,-26.84382 6.76129349,-0.32281 6.761293,-0.32281 v 7.10168 7.10162 h 6.439155 6.439205 l 0.321986,-6.77876 0.321985,-6.7787 6.761293,-0.32281 6.761241,-0.32281 v -6.45581 -6.45584 H 27.689299 14.166712 v -7.04987 -7.04988 h 6.490825 6.490825 v -6.50759 -6.50759 h 7.031762 7.031708 v 13.55747 13.55746 h 6.490828 6.490824 v 6.5076 6.50759 h 7.031712 7.031761 v -12.96343 -12.96343 l -6.761295,-0.32281 -6.761294,-0.32281 -0.303572,-13.28635 -0.303571,-13.2863 h -6.457504 -6.457553 v -20.60741 -20.6074 H 34.772936 28.33373 l -0.321986,6.77876 -0.321985,6.77876 -6.761294,0.32281 -6.761293,0.32281 v 6.40408 6.40409 l 6.761293,0.32281 6.761294,0.32281 v 6.50759 6.5076 l -6.761294,0.3228 -6.761293,0.32281 v 6.45585 6.45583 H 7.1354612 0.10375097 v -6.50759 -6.50758 H 7.1354612 14.167172 v -7.04989 -7.04987 H 7.1021382 0.03715615 l 0.30358663,-13.28636 0.30358663,-13.2863 6.76124209,-0.32281 6.7612935,-0.32281 v -20.01332 -20.0133 H 7.0835347 1.5332658e-4 l 0.32198582342,-6.77876 0.32198582,-6.77876 6.76129353,-0.32282 6.7612935,-0.32282 v 7.10163 7.10168 h 6.439205 6.439205 l 0.321985,-6.77876 0.321986,-6.77876 6.761293,-0.32281 6.761242,-0.32281 v -13.50572 -13.50576 h 6.490828 6.490824 v -6.50759 -6.50759 h 13.470968 13.470915 l 0.321978,-6.77871 0.321978,-6.77877 13.252118,-0.30437 13.252123,-0.30436 v -6.47424 -6.47418 H 88.321578 68.359839 l -0.321978,6.77871 -0.321977,6.77876 H 47.702505 27.689145 v -6.5076 -6.50759 l 6.761243,-0.32281 6.761293,-0.32281 v -6.45584 -6.45584 H 81.779338 122.347 v -7.04993 -7.049871 h -7.03172 -7.03176 v -6.507595 -6.507591 h 7.03176 7.03172 V 74.29629 67.246363 h -7.03172 -7.03176 v -6.507591 -6.507594 h 13.52259 13.52254 V 47.756994 41.282761 L 122.07653,40.978396 108.82446,40.67403 108.53008,20.337804 108.23569,0.0015788 h 7.05563 7.05558 v 6.5075507 6.5075925 h 6.49082 6.49083 v 7.049874 7.049926 h 6.49082 6.49083 V 13.559004 0.00153723 h 14.11509 14.1151 l -0.32198,6.77875907 -0.32198,6.7787077 -6.76129,0.322817 -6.76129,0.322817 v 12.963431 12.963433 h 20.01341 20.01336 v -6.507593 -6.507592 h 7.03172 7.03175 V 20.608725 14.101133 H 202.94148 189.41894 V 7.0512068 0.00133226 h 13.52254 13.52259 V 6.5089247 13.016517 h 6.49082 6.49082 V 6.5089247 0.00133226 h 7.08333 7.08333 l -0.32198,6.77875914 -0.32197,6.7787076 -6.76124,0.322817 -6.7613,0.322817 v 6.455839 6.455839 h 7.03172 7.03176 v 13.55747 13.557464 h 6.49082 6.49083 v 6.507591 6.507595 h -6.49085 -6.49082 v -6.507595 -6.507591 h -7.03176 -7.03171 v 20.065112 20.065056 h 7.03171 7.03176 v -6.507591 -6.507591 h 6.49082 6.49083 v 6.507591 6.507591 h 7.03171 7.03171 v -6.507591 -6.507591 h 6.49083 6.49083 V 94.9035 108.46102 h -6.49083 -6.49083 v 6.50759 6.50759 h -7.03171 -7.03171 v 6.50759 6.50759 h 20.01336 20.01336 V 121.4762 108.46102 h 7.03176 7.03171 v 6.50759 6.50759 h 6.49083 6.49083 v -6.50759 -6.50759 h 20.5543 20.55423 v -7.04993 -7.049877 h -7.03171 -7.0317 V 80.803748 67.246231 h -6.49082 -6.49083 v 13.557517 13.557465 h -7.03176 -7.03171 v -6.507591 -6.507591 h -6.49083 -6.49083 v 6.507591 6.507591 h -7.06503 -7.06504 l 0.30361,-13.286348 0.30361,-13.286302 6.76129,-0.32281 6.7613,-0.322809 v -6.4041 -6.404089 l -6.7613,-0.322809 -6.76129,-0.322809 -0.32299,-6.183901 -0.323,-6.183856 -6.16792,-0.32383 -6.16797,-0.32383 -0.30361,-13.286352 -0.30357,-13.2863 h -6.42424 -6.42423 l -0.30357,13.286262 -0.30358,13.286353 h -6.4909 -6.49082 L 256.73754,20.337456 256.44315,0.00122978 h 13.54641 13.54645 V 6.5088222 13.016414 h 27.04507 27.04513 v 7.049875 7.049926 h -20.01337 -20.01341 v 6.474183 6.474233 l 13.25212,0.304365 13.25212,0.304365 0.32198,6.778761 0.32198,6.778708 h 12.90616 12.90611 l 0.29439,-20.336226 0.29439,-20.336226 6.7613,-0.322817 6.76129,-0.322817 V 6.456915 0.00107606 h 6.49082 6.49082 V 6.456915 12.912754 l 6.76125,0.322817 6.76131,0.322817 v 13.557518 13.557467 l -6.76131,0.322809 -6.76125,0.32281 v 20.013355 20.013306 h 7.03171 7.03174 v 6.507591 6.507595 h -7.08333 -7.08336 l 0.32198,6.778761 0.32198,6.7787 13.25208,0.30436 13.25212,0.30437 v 6.47418 6.47423 h 7.08332 7.08337 l -0.32202,6.77871 -0.32202,6.77876 H 398.20709 378.1937 l -0.32197,-6.77876 -0.32198,-6.77871 h -26.45257 -26.45261 v 6.47419 6.47423 l 13.25211,0.30437 13.25212,0.30436 0.32198,6.77878 0.32198,6.7787 H 338.2186 324.64439 v 6.50759 6.5076 h 6.49083 6.49083 v 7.04993 7.04987 h 6.4392 6.43921 l 0.32198,-6.77876 0.32197,-6.77871 6.76129,-0.3228 6.76125,-0.32281 v 7.10168 7.10163 h -6.4907 -6.49082 v 6.50759 6.50759 h 20.0134 20.01338 v -6.50759 -6.50759 h -7.03174 -7.03175 V 162.14782 148.5903 h 7.03175 7.03174 v 6.5076 6.50759 h 6.4908 6.49085 v -6.50757 -6.5076 h 13.52251 13.52258 v 6.49217 6.49212 l 33.8064,0.28645 33.80635,0.28645 v 13.55747 13.55747 l -6.76123,0.32281 -6.76131,0.32281 v 12.91168 12.91168 l 6.76131,0.32281 6.76123,0.32281 0.3035,13.28635 0.3035,13.28631 h -13.55581 -13.55588 v 13.55751 13.55747 h -7.03177 -7.0317 V 256.50722 242.94971 H 445.265 431.74242 v 7.04992 7.04988 h 7.03177 7.0317 v 6.50759 6.50759 h -7.08333 -7.08336 l 0.32202,6.77876 0.32201,6.77871 26.77466,0.29 26.77463,0.29 v -13.57642 -13.57643 h 7.03177 7.03174 v 47.18005 47.18004 h -7.03174 -7.03177 v 27.16673 27.16668 l -6.76124,-0.32277 -6.76127,-0.32277 -0.32201,-6.77877 -0.32202,-6.7787 h -6.43918 -6.43922 v 7.04988 7.04987 h -6.49081 -6.49084 v 13.55751 13.55747 h 6.49084 6.49081 v -7.04988 -7.04991 h 13.52255 13.52258 v 7.04991 7.04988 h -13.52258 -13.52255 v 6.50759 6.50759 h -6.49081 -6.49084 v 6.48862 6.48865 l 26.77466,0.28989 26.77466,0.28989 0.29443,20.33621 0.29442,20.33624 h -20.57816 -20.57813 v -7.04988 -7.04988 h 13.52254 13.52255 v -6.50759 -6.50759 h -20.01339 -20.01336 v 13.55747 13.55747 h -13.52258 -13.52254 v -7.04988 -7.04988 h 6.49085 6.4908 v -6.50759 -6.50759 h -6.4908 -6.49085 v -6.50759 -6.50759 h -7.0317 -7.03177 v 6.50759 6.50759 h -6.49081 -6.49085 v -13.55751 -13.55747 h -13.52254 -13.52252 v -6.50759 -6.50759 h -13.52258 -13.52254 v 6.50759 6.50759 h -7.03171 -7.03176 v -6.50759 -6.50759 h -6.49082 -6.49083 v 12.96341 12.96344 l 6.7613,0.32277 6.76129,0.32277 0.32197,6.77873 0.32198,6.77877 h -7.08338 -7.08333 v 6.5076 6.50759 h 20.01336 20.01342 v -6.50759 -6.5076 h 7.03171 7.03171 v -7.04991 -7.04988 h 6.49083 6.49082 v 13.50569 13.5058 l 6.76131,0.32277 6.76127,0.32278 0.32202,6.77877 0.32202,6.77869 h -7.0834 -7.08334 v -6.50759 -6.50759 h -6.49083 -6.49082 v 6.50759 6.50759 H 324.1029 283.53525 v -6.50759 -6.50759 h -6.49083 -6.49082 v -7.04987 -7.04988 h -7.03172 -7.03176 v 7.04988 7.04987 h -13.52254 -13.52252 v 6.50759 6.50759 h -6.49083 -6.49083 v -6.50759 -6.50759 h -6.49082 -6.49083 v 6.50759 6.50759 h -7.03176 -7.03171 v -6.50759 -6.50759 h -6.49083 -6.49083 v 6.50759 6.50759 h -7.03171 -7.03175 v -6.50759 -6.50759 h -20.01352 -20.01336 v 6.50759 6.50759 h -7.08333 -7.08338 z m 148.20717,-27.11501 0.32198,-6.77873 6.7613,-0.32277 6.76129,-0.32278 v -6.45585 -6.45581 h 12.98165 12.98166 v -6.50759 -6.50759 h 7.0317 7.03171 v -7.04988 -7.04991 H 297.0585 283.53596 v -6.50759 -6.50759 h 6.49082 6.49084 v -7.04988 -7.04988 h -6.49084 -6.49082 v -6.50759 -6.50759 h 6.49082 6.49084 v -6.4535 -6.45348 l -6.22041,-0.32538 -6.22036,-0.32538 -0.32198,-6.77871 -0.32198,-6.77876 h -6.38759 -6.38759 l -0.32198,6.77876 -0.32197,6.77871 -6.76129,0.32281 -6.76124,0.32281 v 6.45584 6.45586 h -20.01342 -20.01336 v -6.50761 -6.50759 h -27.04512 -27.04508 v 6.50759 6.50761 h -6.49085 -6.49082 v 6.5076 6.50759 h -7.03176 -7.03171 v 7.04987 7.04988 h -6.49083 -6.49082 v 6.47422 6.47418 l 13.25212,0.30425 13.25207,0.30425 0.32198,6.7787 0.32197,6.77873 h 6.4392 6.43921 v -20.60738 -20.60735 h 20.01341 20.01336 v -6.50759 -6.50759 h 7.03171 7.03176 v 6.50759 6.50759 h -6.4908 -6.49083 v 13.55747 13.55747 h 6.49083 6.49082 v -6.50759 -6.50759 h 6.49082 6.49084 v -7.04988 -7.04988 h 7.0317 7.03171 v 7.04988 7.04988 h 6.49082 6.49083 v 6.47425 6.47418 l -13.25207,0.30426 -13.25211,0.30425 -0.30361,13.28629 -0.30357,13.28636 h 7.06502 7.06504 v 13.55747 13.5575 h 6.4392 6.43921 z M 243.50929,439.2625 v -6.50759 h 6.49082 6.49083 v -7.04988 -7.04992 h 7.03171 7.03171 v 7.04992 7.04988 h -7.03171 -7.03171 v 6.50759 6.50759 h -6.49083 -6.49082 z m 12.98165,-54.22991 V 378.525 h 7.03171 7.03171 v 6.50759 6.50759 h -7.03171 -7.03171 z m 54.09019,81.34488 v -6.50759 h -13.52254 -13.52258 v 6.50759 6.50759 h 13.52258 13.52254 z m 135.22551,0 v -6.50759 h -7.03169 -7.03174 v 6.50759 6.50759 h 7.03174 7.03169 z M 148.3105,439.2625 v -6.50759 h -6.49082 -6.49083 v 6.50759 6.50759 h 6.49083 6.49082 z m 229.34248,-20.06506 v -13.55755 h -20.01337 -20.01335 v 6.5076 6.50762 h 13.52253 13.52253 v 7.04992 7.04988 h 6.49083 6.49083 z m 54.09023,-7.04995 v -20.60731 h -20.01339 -20.01339 v 20.60731 20.60742 h 20.01339 20.01339 z m -27.04512,0 v -6.5076 h 7.03173 7.03174 v 6.5076 6.50762 h -7.03174 -7.03173 z m -80.91646,-13.28629 0.32198,-6.77874 20.28383,-0.29518 20.28382,-0.29518 v -12.99118 -12.99127 h -19.95939 -19.95938 l -0.32455,6.23643 -0.32455,6.23644 -13.25211,0.30425 -13.25212,0.30425 v 6.47418 6.47422 h 6.49083 6.49082 v 7.04988 7.04988 h 6.43921 6.43921 z M 122.3472,385.03259 V 378.525 h 12.98165 12.98165 v -6.50761 -6.5076 H 135.32885 122.3472 v -14.0998 -14.0998 h 6.49083 6.49082 v 7.04993 7.04987 h 6.43921 6.4392 l 0.32197,-6.77876 0.32198,-6.7787 6.76129,-0.32281 6.76124,-0.32281 v 7.10168 7.10163 h -6.49082 -6.49083 v 6.50759 6.50759 h 6.49083 6.49082 v -6.50759 -6.50759 h 27.04513 27.04512 v 6.50759 6.50759 h 20.01336 20.01337 v -6.50759 -6.50759 h -13.52254 -13.52254 v -13.55747 -13.55752 h 7.03171 7.03171 v 6.5076 6.50759 h 6.49083 6.49083 v -6.50759 -6.5076 h -6.49083 -6.49083 v -7.08328 -7.08323 l 13.25212,0.30437 13.25212,0.30436 0.32197,6.77876 0.32198,6.77872 h 13.47091 13.47092 v 13.55751 13.55746 h 6.49083 6.49082 v 6.50759 6.5076 h 6.49083 6.49083 v -6.5076 -6.50759 h -6.49079 -6.49083 v -40.72421 -40.72421 l 6.7613,0.32281 6.76129,0.32281 0.29492,19.79394 0.29488,19.79394 h 12.95722 12.95726 v -6.50759 -6.50759 h -6.49082 -6.49083 v -20.06509 -20.06506 h 6.49083 6.49082 v -7.04988 -7.04992 h -12.93002 -12.93003 l -0.32198,6.77876 -0.32198,6.77876 -6.7613,0.32281 -6.76129,0.32281 v -7.10162 -7.10167 h -7.03172 -7.0317 v -6.5076 -6.50759 h 7.0317 7.03171 v -7.04987 -7.04988 h 13.52259 13.52254 v 7.04988 7.04987 h 6.49082 6.49082 v -7.04987 -7.04988 h -6.49082 -6.49082 v -6.50759 -6.50759 h -7.03172 -7.03176 v -13.55752 -13.55747 h -6.49082 -6.49083 v -13.55746 -13.55752 h 6.49083 6.49082 v -6.5076 -6.5076 h -6.49082 -6.49083 v 6.5076 6.5076 h -6.4392 -6.4392 l -0.32198,6.77876 -0.32198,6.77876 -20.28378,0.29514 -20.28382,0.29515 v 6.48366 6.48367 h -6.49082 -6.49083 v -13.55747 -13.55752 h 6.49083 6.49082 v -6.50759 -6.5076 h -13.52262 -13.52252 v 20.06512 20.06506 h -6.49084 -6.49082 v 13.55746 13.55751 h 6.49082 6.49084 v 6.5076 6.5076 h -12.98166 -12.98165 v 20.6615 20.66145 l 6.22036,-0.32538 6.22041,-0.32538 0.32197,-6.77876 0.32198,-6.77876 h 6.43921 6.4392 V 229.39212 215.83466 H 250 270.55429 v -6.50759 -6.5076 h -13.52252 -13.52259 v -7.04993 -7.04987 h 6.49083 6.49083 v -6.50759 -6.50759 h 13.52259 13.52253 v 6.50759 6.50759 h 13.52254 13.52258 v 7.04987 7.04993 h -6.49083 -6.49082 v 6.45584 6.45584 l -6.76129,0.32281 -6.76129,0.32281 -0.32198,6.77876 -0.32198,6.7787 h -19.96174 -19.96174 v 6.5076 6.50759 h 19.9895 19.98948 l 0.29439,20.33622 0.29439,20.33623 6.79414,0.32383 6.79416,0.32383 -0.30308,13.23372 -0.30357,13.23373 h -6.49083 -6.49082 l -0.32197,-6.77876 -0.32198,-6.77872 h -6.43924 -6.43921 v -6.50758 -6.50759 h -7.03171 -7.03176 v -13.55752 -13.55747 h -13.52254 -13.52254 v 13.55747 13.55752 h -6.43919 -6.43921 l -0.32198,-6.77876 -0.32198,-6.77876 -6.22041,-0.32538 -6.22035,-0.32538 v 7.10404 7.10403 h 6.50973 6.50968 l -0.28928,26.84382 -0.28929,26.84381 h -6.49083 -6.49082 l -0.29438,-20.33622 -0.29439,-20.33622 h -6.4669 -6.46696 v -13.55752 -13.55748 h 6.49082 6.49083 v -6.50758 -6.50759 h -6.49083 -6.49082 v 6.50759 6.50758 h -6.43921 -6.43921 l -0.32198,6.77877 -0.32197,6.77871 -6.76129,0.32281 -6.7613,0.32281 v 6.45583 6.45585 h 13.52259 13.52253 v 7.04988 7.04987 H 162.3747 135.32963 v -7.04987 -7.04988 h 6.49083 6.49082 v -6.5076 -6.50759 h -6.49082 -6.49083 v -7.04992 -7.04987 h 6.49083 6.49082 v -6.50759 -6.50761 h 7.03171 7.03171 v -7.0498 -7.04993 h -7.03171 -7.03171 v -20.06506 -20.06506 h -12.98165 -12.98165 v -7.04992 -7.04988 h 6.49082 6.49083 v -6.50759 -6.50759 h 6.43921 6.4392 l 0.32198,-6.77876 0.32198,-6.77871 h 13.52253 13.52254 l 0.32198,6.77871 0.32198,6.77876 h 6.43921 6.4392 v 13.55747 13.55751 h -7.0317 -7.03171 v -13.55751 -13.55747 h -12.98165 -12.98164 v 6.50759 6.50759 h 6.49082 6.49082 v 20.6074 20.60734 h 6.4392 6.43921 l 0.32198,-6.77871 0.32198,-6.77876 13.25206,-0.30436 13.25212,-0.30437 v -20.03171 -20.0317 h -6.4908 -6.49083 V 162.14692 148.5894 h 6.43921 6.4392 l 0.32198,-6.77871 0.32198,-6.77877 6.76125,-0.32281 6.76129,-0.32281 v -6.45584 -6.45584 h 20.01336 20.01341 v -6.50759 -6.50759 h -20.0134 -20.01336 v 6.50759 6.50759 H 202.94168 189.4191 v -6.50759 -6.50759 h 6.49082 6.49083 v -7.04993 -7.049873 h -6.49083 -6.49082 v -6.507591 -6.507595 h 6.49082 6.49083 V 67.786975 54.229458 h -6.49083 -6.49082 V 67.786975 81.34444 h -6.49083 -6.49083 v 6.507595 6.507591 h 6.49083 6.49083 v 7.049874 7.04993 h -6.49083 -6.49083 v 6.50759 6.50759 h 6.49083 6.49083 v 7.04988 7.04987 h -6.49083 -6.49083 v 6.5076 6.5076 h -7.03171 -7.03171 v -7.04988 -7.04988 h 6.49083 6.49082 v -6.5076 -6.50759 h -6.49082 -6.49083 v -6.50759 -6.50759 h 6.49083 6.49082 v -7.04993 -7.049874 h -6.49082 -6.49083 V 87.852035 81.34444 h 6.49083 6.49082 V 67.786975 54.229458 h -12.98165 -12.98164 v 6.507591 6.507594 h -7.03177 -7.03171 v 7.049923 7.049874 h -6.49082 -6.49083 v 6.507595 6.507591 h 6.49083 6.49082 V 87.852035 81.34444 h 7.03171 7.03177 v 20.06506 20.06511 h -7.03177 -7.03171 v -6.50759 -6.50759 h -6.49082 -6.49083 v 6.50759 6.50759 h 6.49083 6.49082 v 7.04988 7.04987 h -13.52259 -13.52258 v 13.0152 13.01518 h 7.03176 7.03171 v -6.50759 -6.50759 h 6.49083 6.49082 v 7.04992 7.04988 h -6.49082 -6.49083 v 6.50759 6.50759 H 95.302078 68.257006 v 13.55747 13.55752 h -7.031761 -7.031708 v 6.50759 6.50759 h -6.490828 -6.490824 v 13.55747 13.55746 h 13.522536 13.522585 v 7.04993 7.04987 h 6.490828 6.490824 v 6.5076 6.50759 h -6.490824 -6.490828 v 7.04987 7.04993 h 6.490828 6.490824 v 6.50759 6.50759 h -6.490824 -6.490828 v 6.5076 6.50759 h 6.490828 6.490824 v -6.50759 -6.5076 h 7.083329 7.083333 l -0.321978,6.77871 -0.321978,6.77876 -6.761291,0.32281 -6.761242,0.32281 v 6.45583 6.45584 h 7.08333 7.083329 l -0.321978,6.77876 -0.321978,6.77876 -6.761295,0.32281 -6.761241,0.32281 v 6.45584 6.45583 H 74.74814 68.257316 v 6.5076 6.50759 h 6.490824 6.490824 v -6.50759 -6.5076 H 94.7615 108.28403 v 7.04988 7.04993 H 94.7615 81.238964 v 6.50759 6.50758 H 94.7615 108.28403 v 6.50759 6.5076 h 7.03176 7.03172 z m -14.06347,-80.80264 v -20.06506 h 13.52258 13.52254 v 6.50759 6.50759 h -6.49082 -6.49083 v 13.55747 13.55747 h -7.03171 -7.03176 z m 121.16209,-13.55747 v -6.50759 h 7.0317 7.03177 v 6.50759 6.50759 h -7.03177 -7.0317 z M 81.238658,277.11496 v -7.04987 h 7.031712 7.031708 v -6.50759 -6.50759 H 88.27037 81.238658 v -7.04988 -7.04993 h 13.522536 13.522536 v -6.50759 -6.50759 h 7.03176 7.03171 v -7.04987 -7.04988 h -7.03171 -7.03176 v -6.50759 -6.50759 H 94.761194 81.238658 v 6.50759 6.50759 h 7.031712 7.031708 v 7.04988 7.04987 H 88.27037 81.238658 v -7.04987 -7.04988 h -6.490824 -6.490828 v -6.50759 -6.50759 h 6.439207 6.439207 l 0.321978,-6.77876 0.321978,-6.77876 13.252118,-0.30436 13.252066,-0.30437 v 7.08328 7.08328 h 7.03177 7.03171 v 6.5076 6.50759 h 6.49082 6.49082 v 7.04987 7.04988 h -6.49082 -6.49082 v 6.50759 6.50759 h -7.03171 -7.03177 v 13.55751 13.55747 h -6.49082 -6.490828 v 7.04987 7.04993 H 88.270215 81.238506 Z M 122.3472,263.5575 v -6.50759 h 6.49083 6.49082 v 6.50759 6.50759 h -6.49082 -6.49083 z M 458.7883,385.03259 V 378.525 h 6.49081 6.49085 v -13.55754 -13.55747 h -6.49085 -6.49081 v -6.50759 -6.50759 h -13.52254 -13.52255 v 12.96343 12.96343 l 6.76124,0.32281 6.76131,0.32281 0.30349,13.28634 0.3035,13.28636 h 6.45755 6.45751 z m -27.04509,-13.0152 v -6.5076 h -6.49081 -6.49084 v 6.5076 6.50761 h 6.49084 6.49081 z m -27.04512,-14.0998 v -6.5076 h -6.49081 -6.49085 v -6.50759 -6.50759 h -7.03169 -7.03176 v 6.50759 6.50759 h -6.49083 -6.49083 v 6.5076 6.50759 h 20.01342 20.01335 z m -67.07183,-20.06506 v -13.55752 h -6.49083 -6.49082 v 13.55752 13.55746 h 6.49082 6.49083 z m 148.20717,0 v -13.55752 h -6.49085 -6.49081 v 13.55752 13.55746 h 6.49081 6.49085 z M 377.65298,330.8026 v -6.50759 h -6.49083 -6.49083 v -6.50759 -6.5076 h -6.49081 -6.49083 v 6.5076 6.50759 h 6.49083 6.49081 v 6.50759 6.50759 h 6.49083 6.49083 z m 27.04511,0 v -6.50759 h -6.49081 -6.49085 v 6.50759 6.50759 h 6.49085 6.49081 z m 41.10855,-13.55747 v -7.04987 h 12.98166 12.98166 v -6.50759 -6.5076 h -20.01339 -20.01336 v 13.55747 13.55747 h 7.03174 7.03169 z m -27.04508,-33.62257 v -13.55747 h 6.49084 6.49081 v -6.50759 -6.50759 h -6.49081 -6.49084 v 6.50759 6.50759 h -7.03174 -7.03173 V 256.50762 242.9501 h 13.52254 13.52258 v -13.55746 -13.55747 h 7.03174 7.03169 v 7.04988 7.04987 h 6.49081 6.49085 v -7.04987 -7.04988 h 6.49081 6.49085 v -6.50759 -6.50759 h -6.49085 -6.49081 V 189.26247 175.705 h -6.43922 -6.43922 l -0.32201,6.77876 -0.32202,6.77871 h -6.49081 -6.49084 l -0.3035,-13.2863 -0.3035,-13.28635 h -6.45747 -6.45755 v 6.50759 6.50759 h -7.03173 -7.0317 v 13.55747 13.55752 h 7.0317 7.03173 v 6.45584 6.45583 l -6.76127,0.32281 -6.76127,0.32281 -0.32202,6.77876 -0.32201,6.77871 h -6.43918 -6.43922 v -7.04988 -7.04987 h -7.0317 -7.03177 v -6.50759 -6.5076 h -6.49083 -6.49082 v 13.55747 13.55747 h -6.49083 -6.49082 v 6.50759 6.50759 h 6.49082 6.49083 v -6.50759 -6.50759 h 6.49082 6.49083 v 6.50759 6.50759 h 7.03177 7.0317 v 7.04993 7.04987 h -20.01336 -20.01341 v 6.50759 6.5076 h 6.49082 6.49083 v 7.04987 7.04993 h 6.49082 6.49083 v 6.50759 6.50759 h 20.55428 20.55431 z m -41.10858,-6.5076 v -7.04987 h 13.52256 13.52255 v 7.04987 7.04993 h -13.52255 -13.52256 z m 68.15366,-67.78738 v -6.50759 h 6.49081 6.49085 v 6.50759 6.50759 h -6.49085 -6.49081 z M 95.302078,155.09761 v -6.50759 H 88.27037 81.238658 v 6.50759 6.50759 h 7.031712 7.031708 z m 121.162092,0 v -6.50759 h -6.49083 -6.49082 v 6.50759 6.50759 h 6.49082 6.49083 z m 0,-67.245114 v -6.507595 h -6.49083 -6.49082 v 6.507595 6.507591 h 6.49082 6.49083 z m 161.18881,0 v -6.507595 h -6.49083 -6.49083 v 6.507595 6.507591 h 6.49083 6.49083 z M 216.46417,47.722324 v -6.507591 h -6.49083 -6.49082 v 6.507591 6.507595 h 6.49082 6.49083 z m 12.98165,-14.099747 v -6.507592 h -6.49082 -6.49083 v 6.507592 6.507591 h 6.49083 6.49082 z M 377.65298,27.114985 V 14.0998 h -6.49083 -6.49083 v 13.015185 13.015183 h 6.49083 6.49083 z M 41.211885,385.03259 V 378.525 h 6.490824 6.490828 v 6.50759 6.50759 H 47.702709 41.211885 Z M 0.32213915,168.92624 0.64412497,162.14753 7.4054185,161.82472 14.166712,161.5019 v -6.45584 -6.45584 h 7.03171 7.031711 v 13.55752 13.55747 H 14.115092 0 Z M 445.80664,141.54014 v -7.04988 h 12.98166 12.98166 v -6.50759 -6.5076 h -6.49085 -6.49081 v -6.50759 -6.50759 h 20.55428 20.55431 v 6.50759 6.50759 h -7.03177 -7.03169 v 6.45584 6.45584 l 6.76127,0.32281 6.76127,0.32281 0.32201,6.77877 0.32202,6.7787 h -7.08333 -7.08332 v -6.50759 -6.5076 h -6.49085 -6.49081 v 6.5076 6.50759 H 459.32911 445.80657 Z M 0.82453923,134.85176 C 0.42793447,134.45413 0.1033421,128.35324 0.1033421,121.2943 v -12.83441 h 7.0317102 7.0317107 v 13.55747 13.55746 H 7.8562495 c -3.4708025,0 -6.6350544,-0.32538 -7.03171027,-0.72306 z M 431.74321,114.96748 v -6.50759 h 7.03174 7.03169 v 6.50759 6.50759 h -7.03169 -7.03174 z M 0.1033421,47.180045 V 0 H 47.702709 95.302078 V 47.180045 94.360087 H 47.702709 0.1033421 Z M 81.238658,47.722324 V 14.0998 H 47.702709 14.166763 V 47.722324 81.344901 H 47.702709 81.238658 Z M 27.148413,47.180045 v -20.06506 h 20.554296 20.554297 v 20.06506 20.065059 H 47.702709 27.148413 Z m 377.549677,0 V 0 h 47.59936 47.59944 v 47.180045 47.180042 h -47.59944 -47.59936 z m 81.13534,0.542279 V 14.0998 h -33.53598 -33.53589 v 33.622524 33.622577 h 33.53589 33.53598 z m -54.09022,-0.542279 v -20.06506 h 20.55424 20.55432 v 20.06506 20.065059 H 452.29745 431.74321 Z M 270.55436,60.73751 v -6.507591 h 6.49083 6.49082 v 6.507591 6.507594 h -6.49082 -6.49083 z" />
</svg>