<svg id="KOMPUTRONIK" width="500" height="130" viewBox="0 0 500 130" version="1.1" xml:space="preserve" xmlns:xlink="http://www.w3.org/1999/xlink" xmlns="http://www.w3.org/2000/svg" xmlns:svg="http://www.w3.org/2000/svg">
	<path id="3048263599" style="fill:#000000;stroke:#000000;stroke-width:0" d="M 488.88889,0 H 500 v 130 h -11.11111 z m -11.11112,0 h 5.55556 v 130 h -5.55556 z m -22.22223,0 h 16.66667 v 130 h -16.66667 z m -27.77777,0 h 11.11111 v 130 h -11.11111 z m -16.66666,0 h 11.11112 v 130 h -11.11112 z m -27.77777,0 h 16.66667 v 130 h -16.66667 z m -16.66668,0 h 5.55555 v 130 h -5.55555 z m -27.77777,0 h 22.22222 v 130 h -22.22222 z m -22.22223,0 h 16.66666 v 130 h -16.66666 z m -11.11112,0 h 5.55556 v 130 h -5.55556 z M 288.88889,0 H 300 v 130 h -11.11111 z m -22.22223,0 h 5.55555 v 130 h -5.55555 z M 244.44444,0 H 250 v 130 h -5.55556 z m -16.66667,0 h 11.11111 v 130 h -11.11111 z m -16.66666,0 h 5.55556 v 130 h -5.55556 z m -27.77778,0 h 16.66666 v 130 h -16.66666 z m -16.66666,0 h 11.11111 v 130 h -11.11111 z m -22.22223,0 h 16.66667 v 130 h -16.66667 z m -22.22222,0 h 16.66667 V 130 H 122.22222 Z M 94.444443,0 H 105.55555 V 130 H 94.444443 Z M 77.777779,0 h 11.11111 V 130 H 77.777779 Z M 61.111111,0 h 11.11111 V 130 H 61.111111 Z M 33.333334,0 H 50 V 130 H 33.333334 Z M 16.666666,0 h 5.555556 V 130 H 16.666666 Z M 0,0 H 11.111111 V 130 H 0 Z" />
</svg>