<svg id="LEOPARDUS" width="500" height="130" viewBox="0 0 500 130" version="1.1" xml:space="preserve" xmlns:xlink="http://www.w3.org/1999/xlink" xmlns="http://www.w3.org/2000/svg" xmlns:svg="http://www.w3.org/2000/svg">
	<path id="9900393735675" style="fill:#000000;stroke:#000000;stroke-width:0" d="M 491.86992,0 H 500 v 130 h -8.13008 z m -8.13008,0 h 4.06504 v 130 h -4.06504 z m -16.26017,0 h 12.19513 v 130 h -12.19513 z m -20.3252,0 h 8.13008 v 130 h -8.13008 z m -16.26016,0 h 8.13008 v 130 h -8.13008 z m -8.13008,0 h 4.06504 v 130 h -4.06504 z m -20.32521,0 h 4.06505 v 130 h -4.06505 z M 390.2439,0 h 4.06504 v 130 h -4.06504 z m -20.3252,0 h 12.19512 V 130 H 369.9187 Z m -12.19512,0 h 8.13008 v 130 h -8.13008 z m -20.32521,0 h 16.26017 v 130 h -16.26017 z m -8.13008,0 h 4.06504 v 130 h -4.06504 z m -16.26016,0 h 12.19512 v 130 h -12.19512 z m -16.26016,0 h 8.13008 v 130 h -8.13008 z m -8.13008,0 h 4.06504 v 130 h -4.06504 z m -20.3252,0 h 4.06503 v 130 h -4.06503 z m -12.19512,0 h 8.13008 v 130 h -8.13008 z m -16.26016,0 h 4.06504 v 130 h -4.06504 z m -16.26016,0 h 4.06504 v 130 h -4.06504 z m -16.26017,0 h 4.06504 v 130 h -4.06504 z m -12.19512,0 h 8.13008 v 130 h -8.13008 z M 178.8618,0 h 4.06504 v 130 h -4.06504 z m -16.26016,0 h 4.06504 v 130 h -4.06504 z m -16.26017,0 h 4.06504 v 130 h -4.06504 z m -12.19512,0 h 8.13008 v 130 h -8.13008 z m -16.26017,0 h 8.13008 v 130 h -8.13008 z m -16.26017,0 h 8.13008 v 130 h -8.13008 z M 89.430892,0 h 8.130082 V 130 H 89.430892 Z M 69.105689,0 H 85.365852 V 130 H 69.105689 Z M 52.845526,0 H 65.040648 V 130 H 52.845526 Z m -8.130081,0 h 4.065041 V 130 H 44.715445 Z M 24.390244,0 H 36.585366 V 130 H 24.390244 Z M 12.195122,0 h 4.065041 V 130 H 12.195122 Z M 0,0 H 8.1300813 V 130 H 0 Z" />
</svg>