<svg id="LEROYMERLIN-SEBASTIAN" width="500" height="130" viewBox="0 0 500 130" version="1.1" xml:space="preserve" xmlns:xlink="http://www.w3.org/1999/xlink" xmlns="http://www.w3.org/2000/svg" xmlns:svg="http://www.w3.org/2000/svg">
	<path id="93010068010254910" style="fill:#000000;stroke:#000000;stroke-width:0" d="M 493.10345,0 H 500 v 130 h -6.89655 z m -6.89655,0 h 3.44827 v 130 h -3.44827 z m -13.79311,0 h 10.34483 v 130 h -10.34483 z m -17.24138,0 h 6.89656 v 130 h -6.89656 z m -17.24138,0 h 13.79311 v 130 h -13.79311 z m -10.34482,0 h 6.89655 v 130 h -6.89655 z m -10.34483,0 h 6.89655 v 130 h -6.89655 z m -13.7931,0 h 6.89655 v 130 h -6.89655 z M 389.65517,0 H 400 v 130 h -10.34483 z m -10.34483,0 h 3.44828 v 130 h -3.44828 z m -17.24137,0 h 13.7931 v 130 h -13.7931 z m -6.89656,0 h 3.44828 v 130 h -3.44828 z m -13.7931,0 h 10.34483 v 130 h -10.34483 z m -10.34483,0 h 6.89655 v 130 h -6.89655 z m -10.34482,0 h 6.89655 v 130 h -6.89655 z m -17.24138,0 h 13.7931 v 130 h -13.7931 z M 286.2069,0 h 6.89655 v 130 h -6.89655 z m -6.89656,0 h 3.44828 v 130 h -3.44828 z m -13.7931,0 h 10.34483 v 130 h -10.34483 z m -10.34483,0 h 6.89656 v 130 h -6.89656 z m -13.7931,0 h 6.89655 v 130 h -6.89655 z m -13.7931,0 h 6.89655 v 130 h -6.89655 z M 213.7931,0 h 6.89656 v 130 h -6.89656 z m -10.34482,0 h 6.89655 v 130 h -6.89655 z m -13.79311,0 h 6.89655 v 130 h -6.89655 z m -10.34483,0 h 6.89656 v 130 h -6.89656 z m -10.34482,0 h 3.44827 v 130 h -3.44827 z m -17.24138,0 h 3.44827 v 130 h -3.44827 z m -13.79311,0 h 6.89656 v 130 h -6.89656 z m -13.7931,0 h 6.89655 v 130 h -6.89655 z M 113.7931,0 h 6.89656 V 130 H 113.7931 Z M 100,0 h 6.89655 V 130 H 100 Z M 89.655172,0 h 6.896552 V 130 H 89.655172 Z M 75.862069,0 h 6.896552 V 130 H 75.862069 Z M 58.62069,0 H 72.413793 V 130 H 58.62069 Z M 44.827586,0 h 3.448276 V 130 H 44.827586 Z M 37.931034,0 H 41.37931 V 130 H 37.931034 Z M 20.689655,0 H 31.034483 V 130 H 20.689655 Z M 10.34483,0 H 13.7931 V 130 H 10.34483 Z M 0,0 H 6.89655 V 130 H 0 Z" />
</svg>