<svg id="LOTTO" width="500" height="130" viewBox="0 0 500 130" version="1.1" xml:space="preserve" xmlns:xlink="http://www.w3.org/1999/xlink" xmlns="http://www.w3.org/2000/svg" xmlns:svg="http://www.w3.org/2000/svg">
	<path id="1000092418" style="fill:#000000;stroke:#000000;stroke-width:0" d="M 0,0 V 130 H 5.5214899 11.04297 V 0 Z m 16.56641,0 v 130 h 2.75976 2.76172 V 0 Z m 16.566399,0 v 130 h 8.28321 8.28125 V 0 Z m 27.63086,0 -0.0254,130 h 5.52344 5.52539 c 0.005,-43.330499 0.0109,-86.669706 0.0156,-130 z m 22.568359,0 v 130 h 2.76172 2.76172 V 0 Z m 22.089852,0 v 130 h 2.75976 2.76172 V 0 Z m 16.5664,0 v 130 h 5.52149 5.52148 V 0 Z M 139,0 c 0.0127,43.331011 0.0307,86.670219 0.0566,130 h 5.52344 5.52344 L 150.07808,0 Z m 22.14453,0 v 130 h 5.52149 5.52148 V 0 Z m 22.08789,0 v 130 h 5.52149 5.52343 V 0 Z m 22.10938,0 -0.0254,130 h 2.76367 2.76367 V 0 Z m 17.04687,0 v 130 h 2.76172 2.75977 V 0 Z m 22.08789,0 v 130 h 8.2832 8.2832 V 0 Z m 22.08984,0 v 130 h 2.75976 2.76172 V 0 Z m 17.01172,0 c 0.0127,43.331011 0.0308,86.670219 0.0566,130 h 5.52343 5.52344 L 294.65619,0 Z m 22.14453,0 v 130 h 5.52148 5.52149 V 0 Z m 22.08789,0 v 130 h 8.2832 8.2832 V 0 Z m 28.05664,0 c 0.0127,43.331011 0.0307,86.670219 0.0566,130 h 2.50976 2.50977 V 0 Z m 11.09961,0 v 130 h 5.52343 5.52149 V 0 Z m 22.08789,0 v 130 h 2.76172 2.76172 V 0 Z m 11.04492,0 v 130 h 8.2832 8.28321 V 0 Z m 28.06836,0 c 0.0115,43.330499 0.0251,86.670014 0.0449,130 h 5.52344 5.52344 L 439.23434,0 Z m 27.6543,0 v 130 h 8.2832 8.2832 V 0 Z m 22.08789,0 v 130 h 2.76172 2.76172 V 0 Z m 11.04492,0 V 130 H 494.47656 500 V 0 Z" />
</svg>