<svg id="LOTTO" width="500" height="130" viewBox="0 0 500 130" version="1.1" xml:space="preserve" xmlns:xlink="http://www.w3.org/1999/xlink" xmlns="http://www.w3.org/2000/svg" xmlns:svg="http://www.w3.org/2000/svg">
	<path id="1000092418" style="fill:#000000;stroke:#000000;stroke-width:0" d="M 0,65.027676 V 0.05535186 H 5.5220805 11.044161 V 65.027676 130 H 5.5220805 0 Z m 16.566265,0 V 0.05535186 h 2.761029 2.761052 V 65.027676 130 h -2.761052 -2.761029 z m 16.566266,0 V 0.05535186 h 8.283134 8.283133 V 65.027676 130 h -8.283133 -8.283134 z m 27.733943,0.132018 0.127597,-64.84025649 h 5.516058 c 5.195758,0 5.513567,0.0613912 5.473009,1.05645229 -0.02381,0.581045 -0.07756,29.7591712 -0.119547,64.8402582 l -0.07638,63.783802 H 66.263137 60.739066 Z M 83.333319,65.027676 V 0.05535186 h 2.761051 2.761055 V 65.027676 130 H 86.09437 83.333319 Z m 22.088371,0 V 0.05535186 h 2.76103 2.76105 V 65.027676 130 h -2.76105 -2.76103 z m 16.56626,0 V 0.05535186 h 5.52209 5.52207 V 65.027676 130 h -5.52207 -5.52209 z m 17.01248,1.320559 c -0.0306,-35.008441 -0.0809,-64.186567 -0.11147,-64.8402582 -0.0546,-1.16388676 0.0583,-1.18851809 5.45235,-1.18851809 h 5.50816 L 149.97707,65.159717 150.10467,130 h -5.52408 -5.52407 z m 22.14415,-1.320559 V 0.05535186 h 5.52208 5.52208 V 65.027676 130 h -5.52208 -5.52208 z m 22.08835,0 V 0.05535186 h 5.52208 5.5221 V 65.027676 130 h -5.5221 -5.52208 z m 22.21186,0.132018 0.1276,-64.84026027 2.63554,-0.15971687 L 210.84347,0 v 64.999926 64.999924 h -2.76304 -2.76302 z m 16.94476,-0.132018 V 0.05535186 h 2.76106 2.76103 V 65.027676 130 h -2.76103 -2.76106 z m 22.08835,0 V 0.05535186 h 8.28314 8.28313 V 65.027676 130 h -8.28313 -8.28314 z m 22.08835,0 V 0.05535186 h 2.76105 2.76105 V 65.027676 130 h -2.76105 -2.76105 z m 17.0125,1.320559 c -0.0306,-35.008441 -0.0809,-64.186567 -0.11146,-64.8402582 -0.0545,-1.16388676 0.0584,-1.18851809 5.45235,-1.18851809 h 5.50813 L 294.55514,65.159717 294.68274,130 h -5.52407 -5.52408 z m 22.14412,-1.320559 V 0.05535186 h 5.52209 5.5221 V 65.027676 130 h -5.5221 -5.52209 z m 22.08835,0 V 0.05535186 h 8.28313 8.28313 V 65.027676 130 h -8.28313 -8.28313 z m 28.05669,1.320559 c -0.0306,-35.008441 -0.0809,-64.186567 -0.11146,-64.8402582 -0.051,-1.08829575 0.16531,-1.18851809 2.56581,-1.18851809 1.44187,0 2.6216,0.17818413 2.6216,0.39617269 V 65.555891 130 h -2.51003 -2.51006 z m 11.09994,-1.320559 V 0.05535186 h 5.5221 5.5221 V 65.027676 130 h -5.5221 -5.5221 z m 22.08835,0 V 0.05535186 h 2.76106 2.76102 V 65.027676 130 h -2.76102 -2.76106 z m 11.04416,0 V 0.05535186 h 8.28314 8.28314 V 65.027676 130 h -8.28314 -8.28314 z m 28.02282,1.320559 c -0.0491,-35.008441 -0.10583,-64.186567 -0.12548,-64.8402582 -0.034,-1.16278873 0.0839,-1.18851809 5.48621,-1.18851809 h 5.52208 L 439.13336,65.159717 439.26073,130 h -5.52405 -5.52408 z m 27.70008,-1.320559 V 0.05535186 h 8.28313 8.28314 V 65.027676 130 h -8.28314 -8.28313 z m 22.08835,0 V 0.05535186 h 2.76106 2.76106 V 65.027676 130 h -2.76106 -2.76106 z m 11.0442,0 V 0.05535186 H 494.47788 500 V 65.027676 130 h -5.52212 -5.52207 z" />
</svg>