<svg id="LYONESS" width="500" height="130" viewBox="0 0 500 130" version="1.1" xml:space="preserve" xmlns:xlink="http://www.w3.org/1999/xlink" xmlns="http://www.w3.org/2000/svg" xmlns:svg="http://www.w3.org/2000/svg">
	<path id="7770249161826" style="fill:#000000;stroke:#000000;stroke-width:0" d="M 494.73684,0 H 500 v 130 h -5.26316 z m -10.52631,0 h 5.26315 v 130 h -5.26315 z m -26.31578,0 h 5.26316 v 130 h -5.26316 z m -10.52632,0 h 5.26316 v 130 h -5.26316 z M 426.3158,0 h 10.52632 V 130 H 426.3158 Z m -15.78947,0 h 10.52631 v 130 h -10.52631 z m -21.05264,0 h 5.26316 v 130 h -5.26316 z m -15.78947,0 h 5.26316 v 130 h -5.26316 z m -15.78947,0 h 10.52631 V 130 H 357.89475 Z M 336.8421,0 h 10.52632 V 130 H 336.8421 Z m -26.31579,0 h 5.26316 v 130 h -5.26316 z m -10.52632,0 h 5.26316 v 130 h -5.26316 z m -15.78947,0 h 10.52632 v 130 h -10.52632 z m -21.05263,0 h 10.52631 v 130 h -10.52631 z m -10.52632,0 h 5.26316 v 130 h -5.26316 z m -10.52631,0 h 5.26315 v 130 h -5.26315 z m -21.05262,0 h 15.78947 v 130 h -15.78947 z m -10.52632,0 h 5.26316 v 130 h -5.26316 z m -21.05263,0 h 10.52632 v 130 h -10.52632 z m -21.05263,0 h 5.26316 v 130 h -5.26316 z m -15.78948,0 h 10.52632 v 130 h -10.52632 z m -15.78947,0 h 10.52631 v 130 h -10.52631 z m -15.78948,0 h 5.26316 v 130 h -5.26316 z m -15.78947,0 h 10.52632 V 130 H 105.26316 Z M 84.210529,0 h 5.263158 V 130 H 84.210529 Z M 63.157896,0 h 5.263158 V 130 H 63.157896 Z M 42.105264,0 H 52.63158 V 130 H 42.105264 Z M 21.052632,0 H 36.842106 V 130 H 21.052632 Z M 10.526316,0 h 5.263158 V 130 H 10.526316 Z M 0,0 H 5.263158 V 130 H 0 Z" />
</svg>