<svg id="MAKRO" width="500" height="130" viewBox="0 0 500 130" version="1.1" xml:space="preserve" xmlns:xlink="http://www.w3.org/1999/xlink" xmlns="http://www.w3.org/2000/svg" xmlns:svg="http://www.w3.org/2000/svg">
	<path id="700037977041" style="fill:#000000;stroke:#000000;stroke-width:0" d="M 497.58454,0 H 500 v 130 h -2.41546 z m -9.66184,0 h 7.24638 v 130 h -7.24638 z m -9.66183,0 h 7.24638 v 130 h -7.24638 z m -9.66183,0 h 2.41545 v 130 h -2.41545 z m -4.83091,0 h 2.41546 v 130 h -2.41546 z m -4.83093,0 h 2.41546 v 130 h -2.41546 z m -14.49277,0 h 7.24638 v 130 h -7.24638 z m -9.66183,0 h 7.24638 v 130 h -7.24638 z m -4.8309,0 h 2.41546 v 130 h -2.41546 z m -4.83094,0 h 2.41546 v 130 h -2.41546 z m -9.66183,0 h 2.41546 v 130 h -2.41546 z m -14.49274,0 h 7.24638 v 130 h -7.24638 z m -9.66183,0 h 2.41546 v 130 h -2.41546 z m -9.66184,0 h 7.24638 v 130 h -7.24638 z m -14.49276,0 h 7.24637 v 130 h -7.24637 z m -4.83091,0 h 2.41546 v 130 h -2.41546 z m -4.83093,0 h 2.41546 v 130 h -2.41546 z m -14.49274,0 h 7.24638 v 130 h -7.24638 z m -14.49276,0 h 7.24637 v 130 h -7.24637 z m -4.83091,0 h 2.41546 v 130 h -2.41546 z m -4.83093,0 h 2.41546 v 130 h -2.41546 z m -4.8309,0 h 2.41546 v 130 h -2.41546 z m -9.66187,0 h 7.24638 v 130 h -7.24638 z m -14.49273,0 h 7.24637 v 130 h -7.24637 z m -4.83093,0 h 2.41545 v 130 h -2.41545 z m -9.66184,0 h 2.41546 v 130 h -2.41546 z m -4.8309,0 h 2.41546 v 130 h -2.41546 z m -4.83093,0 h 2.41545 v 130 h -2.41545 z m -9.66184,0 h 7.24638 v 130 h -7.24638 z m -9.66183,0 h 7.24637 v 130 h -7.24637 z m -9.66182,0 h 2.41546 v 130 h -2.41546 z m -9.66185,0 h 2.41546 v 130 h -2.41546 z m -4.83092,0 h 2.41546 v 130 h -2.41546 z m -14.49275,0 h 7.24637 v 130 h -7.24637 z m -14.49275,0 h 7.24637 v 130 h -7.24637 z m -4.83092,0 h 2.41546 v 130 h -2.41546 z m -4.83092,0 h 2.41546 v 130 h -2.41546 z m -9.66183,0 h 2.41546 v 130 h -2.41546 z m -14.49276,0 h 7.24638 v 130 h -7.24638 z m -9.66183,0 h 7.24638 v 130 h -7.24638 z m -4.83092,0 h 2.41546 v 130 h -2.41546 z m -4.83092,0 h 2.41546 v 130 h -2.41546 z m -9.66183,0 h 7.24638 v 130 h -7.24638 z m -9.66183,0 h 2.41545 v 130 h -2.41545 z m -9.66185,0 h 2.41546 v 130 h -2.41546 z m -4.83091,0 h 2.41546 v 130 h -2.41546 z m -9.661843,0 h 7.246383 v 130 h -7.246383 z m -4.83092,0 h 2.41546 v 130 h -2.41546 z m -9.661831,0 h 2.415459 V 130 H 82.125606 Z M 67.632854,0 h 7.246377 v 130 h -7.246377 z m -9.661835,0 h 7.246377 v 130 h -7.246377 z m -4.830921,0 h 2.415459 v 130 h -2.415459 z m -9.661835,0 h 2.415459 v 130 h -2.415459 z m -4.830917,0 h 2.415459 v 130 h -2.415459 z m -9.661839,0 h 7.246377 v 130 h -7.246377 z m -9.661836,0 h 7.246376 V 130 H 19.323671 Z M 9.6618359,0 H 12.077295 V 130 H 9.6618359 Z m -4.830918,0 h 2.415459 V 130 H 4.8309179 Z M 0,0 H 2.4154589 V 130 H 0 Z" />
</svg>