<svg id="MAXIZOO" width="500" height="500" viewBox="0 0 500 500" version="1.1" xml:space="preserve" xmlns:xlink="http://www.w3.org/1999/xlink" xmlns="http://www.w3.org/2000/svg" xmlns:svg="http://www.w3.org/2000/svg">
	<path id="14807111809724" style="fill:#000000;stroke:#000000;stroke-width:0" d="M 0,416.66671 V 333.33338 H 83.333289 166.66663 V 416.66671 500 H 83.333289 0 Z m 142.85712,0 V 357.14289 H 83.333289 23.809511 v 59.52382 59.52378 h 59.523778 59.523831 z m -95.238098,0 v -35.71427 h 35.714267 35.714301 v 35.71427 35.71427 H 83.333289 47.619022 Z m 142.857168,47.61902 v -35.7143 h 11.90473 11.90478 V 416.66671 404.76196 H 202.38092 190.47619 V 357.14289 309.5239 h -23.80956 -23.80951 v -11.90479 -11.90476 h 47.61907 47.61901 V 273.8096 261.90484 H 226.19047 214.2857 v -23.80951 -23.80955 h -11.90478 -11.90473 v 11.9048 11.90475 h -11.90478 -11.90478 v 11.90472 11.90479 h -11.90478 -11.90473 v -11.90479 -11.90472 h 11.90473 11.90478 v -11.90475 -11.9048 h -23.80951 -23.80953 v 47.61906 47.61906 H 107.14286 95.238083 V 297.61911 285.71435 H 83.333289 71.428571 V 273.8096 261.90484 H 59.523778 47.619022 v -11.90479 -11.90472 h 11.904756 11.904793 v -11.90475 -11.9048 H 47.619022 23.809511 v 11.9048 11.90475 H 11.904718 0 v -23.80955 -23.80951 h 35.714305 35.714266 v 11.90479 11.90472 h 11.904718 11.904794 v -11.90472 -11.90479 h 47.619037 47.61907 v -23.8095 -23.8095 h 11.90473 11.90478 v 11.90473 11.90477 h 11.90477 11.90473 V 154.762 142.85727 h 11.90478 11.90478 v 11.90473 11.90477 h 11.90473 11.90478 V 130.9525 95.238222 H 273.80949 261.90476 V 107.143 119.04772 H 249.99998 238.0952 V 107.143 95.238222 H 226.19047 214.2857 V 83.333448 71.428723 H 202.38092 190.47619 V 59.523937 47.619177 h 11.90473 11.90478 V 23.809662 1.4740157e-4 h 11.90477 11.90473 V 11.904903 23.809662 h 11.90478 11.90478 V 11.904903 1.4740157e-4 h 23.80951 23.8095 V 11.904903 23.809662 h -11.90472 -11.90478 v 11.90476 11.904755 h 11.90478 11.90472 v 11.90476 11.904786 h -11.90472 -11.90478 v 11.904725 11.904774 h 11.90478 11.90472 v 47.619048 47.619 h 23.80956 23.80951 v 11.90479 11.90472 h 11.90478 11.90471 v 11.9048 11.90475 h 11.90479 11.9048 v -11.90475 -11.9048 h 11.90472 11.90479 v -11.90472 -11.90479 h 11.90475 11.9048 v 11.90479 11.90472 h 11.90472 11.90479 v 11.9048 11.90475 H 488.09524 500 v 11.90472 11.90479 h -35.7143 -35.71427 v 11.90476 11.90475 h 11.90475 11.9048 v 11.90476 11.90479 h 11.90472 11.90479 v 11.90472 11.90476 H 464.2857 452.38098 v 11.90479 11.90472 h -11.9048 -11.90475 V 333.33338 309.5239 h -23.80951 -23.80959 v 11.90472 11.90476 h 11.90479 11.9048 v 11.90479 11.90472 h -11.9048 -11.90479 v 35.71427 35.71427 h 11.90479 11.9048 v 11.90479 11.90476 h 11.90472 11.90479 v 11.90475 11.90476 h 11.90475 11.9048 V 488.09528 500 h -23.80955 -23.80951 v -23.80951 -23.80951 h -11.9048 -11.90479 v 11.90475 11.90476 H 369.04762 357.14284 V 488.09528 500 h -11.90478 -11.90473 v -23.80951 -23.80951 h 11.90473 11.90478 v -11.90476 -11.90479 h -11.90478 -11.90473 v -11.90472 -11.90475 h -11.90477 -11.90479 v -11.9048 -11.90472 h -11.90472 -11.90478 v 11.90472 11.9048 h -11.90478 -11.90473 v 11.90475 11.90472 H 238.0952 214.2857 v 11.90479 11.90476 h 23.8095 23.80956 V 476.19049 500 h -35.71429 -35.71428 z m 71.42857,-95.23805 v -35.7143 H 238.0952 214.2857 v 11.90479 11.90472 h 11.90477 11.90473 v 23.80955 23.80952 h 11.90478 11.90478 z m 95.23808,0 v -11.90479 h 11.90478 11.90471 V 345.23817 333.33338 H 369.04762 357.14284 V 321.42862 309.5239 h 11.90478 11.90471 v -11.90479 -11.90476 h 11.90479 11.9048 V 273.8096 261.90484 h -11.9048 -11.90479 v -11.90479 -11.90472 h -23.80949 -23.80951 v -11.90475 -11.9048 h -11.90477 -11.90479 v -11.90472 -11.90479 h -11.90472 -11.90478 v 11.90479 11.90472 h -11.90478 -11.90473 v 11.9048 11.90475 H 249.99998 238.0952 v 11.90472 11.90479 h 11.90478 11.90478 v 11.90476 11.90475 H 249.99998 238.0952 v 11.90476 11.90479 h 23.80956 23.80951 v 23.80948 23.80951 h 11.90478 11.90472 V 333.33338 309.5239 h 11.90479 11.90477 v 11.90472 11.90476 h 11.90473 11.90478 v 11.90479 11.90472 h -11.90478 -11.90473 v 11.90479 11.90476 h 11.90473 11.90478 z m -71.42857,-71.42857 v -11.90476 h 11.90478 11.90472 v 11.90476 11.90479 h -11.90472 -11.90478 z m 47.61906,-11.90476 v -23.80951 h 23.80951 23.80949 v 11.90476 11.90475 h -11.90471 -11.90478 v 11.90476 11.90479 h -11.90478 -11.90473 z m -47.61906,-35.7143 v -11.90472 h 11.90478 11.90472 v 11.90472 11.90479 h -11.90472 -11.90478 z m 166.66671,-23.80947 v -11.9048 h -11.9048 -11.90475 v 11.9048 11.90475 h 11.90475 11.9048 z M 261.90476,178.57155 V 166.66677 H 249.99998 238.0952 v 11.90478 11.90472 h 11.90478 11.90478 z m 0,-107.142827 V 47.619177 H 249.99998 238.0952 v 23.809546 23.809499 h 11.90478 11.90478 z m 23.80951,416.666557 v -11.90479 h 11.90478 11.90472 V 488.09528 500 h -11.90472 -11.90478 z m 190.47622,0 V 476.19049 H 488.09524 500 V 488.09528 500 H 488.09524 476.19049 Z M 285.71427,440.47622 v -11.90479 h 11.90478 11.90472 v 11.90479 11.90476 h -11.90472 -11.90478 z m 190.47622,0 V 428.57143 H 464.2857 452.38098 v -11.90472 -11.90475 h 11.90472 11.90479 V 380.95244 357.14289 H 488.09524 500 v 23.80955 23.80952 h -11.90476 -11.90475 v 11.90475 11.90472 H 488.09524 500 v 11.90479 11.90476 h -11.90476 -11.90475 z m -71.42857,-47.61906 v -11.90472 h 11.90472 11.90479 v 11.90472 11.9048 H 416.66664 404.76192 Z M 23.809511,297.61911 v -11.90476 h 11.904794 11.904717 v 11.90476 11.90479 H 35.714305 23.809511 Z M 0,83.333448 V 0 H 83.333289 166.66663 V 83.333301 166.66662 H 83.333289 0 Z m 142.85712,0 V 23.809515 H 83.333289 23.809511 v 59.523786 59.523819 h 59.523778 59.523831 z m -95.238098,0 V 47.619177 H 83.333289 119.04759 V 83.333448 119.04772 H 83.333289 47.619022 Z m 285.714308,0 V 0 H 416.66664 500 v 83.333301 83.333319 h -83.33336 -83.33331 z m 142.85716,0 V 23.809515 h -59.52385 -59.5238 v 59.523786 59.523819 h 59.5238 59.52385 z m -95.23812,0 V 47.619177 h 35.71427 35.71434 v 35.714271 35.714272 h -35.71434 -35.71427 z" />
</svg>