<svg id="MCDONALDS" width="500" height="500" viewBox="0 0 500 500" version="1.1" xml:space="preserve" xmlns:xlink="http://www.w3.org/1999/xlink" xmlns="http://www.w3.org/2000/svg" xmlns:svg="http://www.w3.org/2000/svg">
	<path id="M537809" style="fill:#000000;stroke:#000000;stroke-width:0" d="M 0.10269977,416.89644 V 333.79288 H 83.198994 166.29529 V 416.89644 500 H 83.198994 0.10269977 Z m 142.45079023,0 V 357.53675 H 83.198994 23.844498 v 59.35969 59.35969 h 59.354496 59.354496 z m -94.967193,0 v -35.61581 h 35.612697 35.612696 v 35.61581 35.61581 H 83.198994 47.586297 Z m 191.253373,71.23162 v -11.87193 h -24.40129 -24.40129 v -11.87194 -11.87194 h 24.40129 24.40129 v -11.84219 -11.84218 l -24.07154,-0.35953 -24.07155,-0.35953 v -11.21238 -11.21239 l 47.81335,-0.34623 47.81334,-0.34623 v 11.88839 11.8884 h 11.8709 11.8709 v 11.87193 11.87194 h 35.6127 35.61269 v -11.87194 -11.87193 h -11.8709 -11.87089 V 416.89644 405.0245 h -11.8709 -11.8709 v -11.87194 -11.87193 h -11.8709 -11.8709 v -23.74388 -23.74387 h 11.8709 11.8709 v 23.74387 23.74388 h 11.8709 11.8709 V 345.66481 310.049 h -11.8709 -11.8709 v -11.87194 -11.87193 h 11.8709 11.8709 v 11.87193 11.87194 h 11.87089 11.8709 v -11.87194 -11.87193 h 11.8709 11.8709 v 11.87193 11.87194 h 11.8709 11.8709 v -23.74387 -23.74388 h 11.8709 11.8709 v -11.87194 -11.87193 h 11.8709 11.8709 v -24.40343 -24.40343 h 11.8709 11.8709 v 36.36897 36.36899 l -11.87392,-0.4234 -11.87393,-0.42338 0.003,24.07365 0.003,24.07365 H 488.1291 500 v 83.10356 83.10357 h -11.8709 -11.8709 v -23.74388 -23.74387 h -23.74168 -23.7418 V 416.89644 405.0245 h -23.7418 -23.7418 v 11.87194 11.87194 h 11.8709 11.8709 v 11.87193 11.87194 h 11.8709 11.8709 v 11.87194 11.87194 h 11.8709 11.8709 V 488.12806 500 h -47.4836 -47.4836 v -11.87194 -11.87193 h -23.74179 -23.7418 V 488.12806 500 h -35.6127 -35.6127 z m 71.2254,-23.74387 v -11.87194 h -11.8709 -11.8709 v -11.92144 -11.92143 l -11.91434,0.37927 -11.91435,0.37928 -0.2863,23.41485 -0.2863,23.41486 24.07154,-7.6e-4 24.07155,-7.5e-4 z m 142.45079,-71.23163 v -11.87193 h 11.8709 11.8709 v -23.74388 -23.74387 h -11.8709 -11.8709 V 321.92094 310.049 h -11.8709 -11.8709 v 47.48775 47.48775 h 11.8709 11.8709 z m -47.4836,-47.48775 v -11.87193 h -11.8709 -11.8709 v 11.87193 11.87194 h 11.8709 11.8709 z m -214.11584,34.7364 c -0.48364,-0.48366 -0.87933,-16.50328 -0.87933,-35.59914 v -34.71974 l -47.15385,-0.34645 -47.153852,-0.34643 -0.360183,-23.4141 -0.360183,-23.4141 h 11.849998 11.84997 l 0.38111,11.54216 0.38109,11.54216 23.46195,0.36042 23.46195,0.36041 -0.37964,-12.05097 -0.37966,-12.05099 -23.0823,-0.18138 -23.0823,-0.18136 -0.38109,-11.54216 -0.38111,-11.54216 h 23.79316 23.79314 V 226.28589 213.7544 h -23.79314 -23.79316 l 0.38111,-11.54216 c 0.26541,-8.03885 0.88153,-11.59222 2.02982,-11.70705 0.90681,-0.0907 16.78413,-0.23909 35.28295,-0.32978 l 33.63422,-0.16489 v -33.52928 c 0,-18.4411 0.36028,-34.46821 0.80061,-35.61581 0.64206,-1.67332 2.993,-2.08654 11.8709,-2.08654 8.91465,0 11.09057,-0.38529 11.17442,-1.97866 0.0572,-1.08826 0.153,-6.28223 0.21292,-11.54216 l 0.10881,-9.563504 -11.75408,-0.659552 -11.75407,-0.659552 -0.36018,-23.414099 -0.36019,-23.414097 h 11.90134 11.90133 l 0.13207,-4.946641 c 0.0727,-2.720652 0.21446,-7.914626 0.3151,-11.542163 l 0.183,-6.59552 -12.18601,-0.379276 -12.18601,-0.379277 V 11.852195 0 l 23.93884,0.35953338 23.93884,0.35953338 -0.27858,11.54216124 -0.27861,11.542162 h 24.48284 24.48286 V 11.931452 0.05951468 h 11.8709 11.8709 V 23.80339 47.547264 h -48.1431 -48.14309 v 11.871938 11.871937 h 11.8709 11.8709 v 11.871938 11.871937 h 11.79008 11.79009 l 0.83641,5.606196 c 0.46001,3.0834 0.64477,8.27738 0.41055,11.54216 l -0.42584,5.93597 -24.07154,0.35953 -24.07155,0.35953 v 35.58606 35.58606 h 11.84114 11.84116 l 0.35949,24.07365 0.35951,24.07365 h 11.87089 11.8709 l 0.35971,-24.12456 0.35969,-24.12459 11.51121,0.38071 11.51119,0.3807 0.6595,23.74387 0.65949,23.74387 23.46297,0.36042 23.46294,0.36043 -0.38064,11.5115 -0.38066,11.51153 -35.50528,0.65955 -35.5053,0.65955 0.0208,11.21239 0.0208,11.21238 23.99425,0.35972 23.99425,0.35974 -0.38066,11.5122 -0.38067,11.51222 -35.94245,0.35096 -35.94244,0.35098 v 23.72267 23.72269 h -11.8709 -11.8709 v 11.87194 11.87194 h -10.99157 c -6.04537,0 -11.38727,-0.39574 -11.87089,-0.87942 z m 23.08786,-94.09608 -0.16831,-23.08433 -11.89944,-0.37927 -11.89944,-0.37928 v 23.84288 23.84287 l 12.06776,-0.37928 12.06777,-0.37927 z m 24.83539,83.1549 v -11.92328 h 11.8709 11.8709 v -11.87194 -11.87193 h 11.92226 11.92224 l -0.38109,11.54216 -0.3811,11.54216 -11.54116,0.38112 c -7.85611,0.25945 -11.58176,0.89122 -11.66833,1.97866 -0.0699,0.87864 -0.21834,6.04951 -0.32975,11.49081 l -0.20256,9.89328 -11.54115,0.38113 -11.54116,0.38113 z M 0.10269977,298.17706 V 286.30513 H 11.973599 23.844498 v -11.87194 -11.87194 h 11.870899 11.8709 v -23.74387 c 0,-21.67872 0.200766,-23.75646 2.30823,-23.8885 1.269527,-0.0796 6.463045,-0.22796 11.541152,-0.32978 l 9.232922,-0.18515 0.659494,-11.87194 0.659495,-11.87193 11.541152,-0.38114 11.541152,-0.38114 v 11.9233 11.9233 h -11.8709 -11.870899 v 24.18485 24.18485 l -10.222163,0.15071 c -5.62219,0.0829 -10.964095,0.18128 -11.870899,0.21856 -1.255414,0.0516 -1.648736,5.73213 -1.648736,23.81167 v 23.74388 H 23.844498 0.10269977 Z m 0.27840556,-72.10815 0.38108884,-11.42936 11.21140483,0.0252 11.211405,0.0252 0.381105,11.40416 0.381089,11.40417 H 11.973599 0 Z m 333.14737467,-0.11278 -0.38111,-11.54216 -11.54115,-0.38114 -11.54115,-0.38114 v -11.84213 -11.84212 l 35.28295,0.35132 35.28295,0.35133 0.3811,11.54216 0.38111,11.54216 h -11.92226 -11.92225 v 11.87194 11.87194 h -11.81955 -11.81954 z m 71.50378,-12.23215 v -23.77432 l 23.41205,0.36022 23.41205,0.36021 0.38111,11.54216 0.38111,11.54216 h -11.92226 -11.92226 v 11.87194 11.87194 h -11.8709 -11.8709 z M 23.844498,201.88248 v -11.87194 h 11.870899 11.8709 v 11.87194 11.87193 H 35.715397 23.844498 Z M 238.83967,166.31801 v -23.79525 h 11.07029 c 7.64076,0 11.26555,0.51082 11.70059,1.64888 0.34666,0.90689 0.55856,11.44323 0.47086,23.4141 l -0.15943,21.76523 -11.54115,0.38112 -11.54116,0.38114 z M 0.10269977,83.163093 V 0.05953117 H 83.198994 166.29529 V 83.163093 166.26665 H 83.198994 0.10269977 Z m 142.45079023,0 V 23.80339 H 83.198994 23.844498 v 59.359687 59.359683 h 59.354496 59.354496 z m -94.967193,0 V 47.547281 H 83.198994 118.81169 V 83.163093 118.77891 H 83.198994 47.586297 Z M 286.32327,154.39472 v -11.87194 h -11.8709 -11.8709 v -11.92329 -11.9233 l 11.54115,0.38114 11.54116,0.38113 0.38036,11.49154 0.38036,11.49154 11.49054,0.3804 11.49053,0.38039 0.38111,11.54216 0.3811,11.54216 h -11.92225 -11.92226 z m 47.4836,-71.231627 V 0.05953117 h 83.09629 83.0963 V 83.163093 166.26665 h -83.0963 -83.09629 z m 142.45079,0 V 23.80339 h -59.3545 -59.35449 v 59.359687 59.359683 h 59.35449 59.3545 z m -94.9672,0 V 47.547281 h 35.6127 35.6127 v 35.615812 35.615817 h -35.6127 -35.6127 z M 286.32327,106.85561 V 94.932317 l 11.54115,0.381133 11.54115,0.381133 0.38111,11.542157 0.3811,11.54217 h -11.92225 -11.92226 z" />
</svg>