<svg id="MEDIAEXPERT" width="500" height="130" viewBox="0 0 500 130" version="1.1" xml:space="preserve" xmlns:xlink="http://www.w3.org/1999/xlink" xmlns="http://www.w3.org/2000/svg" xmlns:svg="http://www.w3.org/2000/svg">
	<path id="8956996424703371821" style="fill:#000000;stroke:#000000;stroke-width:0" d="M 493.58974,0 H 500 v 130 h -6.41026 z m -6.41025,0 h 3.20512 v 130 h -3.20512 z m -12.82052,0 h 9.61539 v 130 h -9.61539 z m -16.02564,0 h 6.41026 v 130 h -6.41026 z m -16.02564,0 h 9.61539 v 130 h -9.61539 z m -9.61538,0 h 6.41025 v 130 h -6.41025 z m -9.61539,0 h 3.20513 v 130 h -3.20513 z m -9.61538,0 h 6.41025 v 130 h -6.41025 z M 397.4359,0 h 9.61538 v 130 h -9.61538 z m -9.61539,0 h 3.20513 v 130 h -3.20513 z m -16.02564,0 h 12.82051 v 130 h -12.82051 z m -6.41026,0 h 3.20513 v 130 h -3.20513 z M 352.5641,0 h 9.61539 v 130 h -9.61539 z m -16.02564,0 h 12.82051 v 130 h -12.82051 z m -9.61538,0 h 3.20512 v 130 h -3.20512 z m -9.61539,0 h 3.20513 v 130 h -3.20513 z m -16.02564,0 h 3.20513 v 130 h -3.20513 z m -9.61538,0 h 6.41025 v 130 h -6.41025 z m -9.61539,0 h 3.20513 v 130 h -3.20513 z m -16.02564,0 h 6.41026 v 130 h -6.41026 z m -12.82051,0 h 3.20513 v 130 h -3.20513 z m -6.41026,0 H 250 v 130 h -3.20513 z m -9.61538,0 h 3.20512 v 130 h -3.20512 z m -19.23077,0 h 6.41025 v 130 h -6.41025 z m -6.41026,0 h 3.20513 v 130 h -3.20513 z m -12.82051,0 h 6.41025 v 130 h -6.41025 z m -9.61539,0 h 3.20513 v 130 h -3.20513 z m -12.82051,0 h 9.61538 v 130 h -9.61538 z m -12.82051,0 h 6.41025 v 130 h -6.41025 z M 147.4359,0 h 3.20513 v 130 h -3.20513 z m -6.41026,0 h 3.20513 v 130 h -3.20513 z M 125,0 h 12.82051 V 130 H 125 Z m -12.82051,0 h 9.61538 v 130 h -9.61538 z m -6.41026,0 h 3.20513 v 130 h -3.20513 z m -9.615384,0 h 6.410254 v 130 h -6.410254 z m -6.410257,0 h 3.205129 V 130 H 89.743589 Z M 70.51282,0 h 9.615385 V 130 H 70.51282 Z M 54.487179,0 H 67.307692 V 130 H 54.487179 Z m -9.615384,0 h 6.410256 V 130 H 44.871795 Z M 35.25641,0 h 6.410257 V 130 H 35.25641 Z M 19.230769,0 h 9.615385 V 130 H 19.230769 Z M 9.615385,0 h 3.205128 V 130 H 9.615385 Z M 0,0 H 6.410256 V 130 H 0 Z" />
</svg>