<svg id="MEDIAMARKT" width="500" height="500" viewBox="0 0 500 500" version="1.1" xml:space="preserve" xmlns:xlink="http://www.w3.org/1999/xlink" xmlns="http://www.w3.org/2000/svg" xmlns:svg="http://www.w3.org/2000/svg">
	<path id="9802148702580511" style="fill:#000000;stroke:#000000;stroke-width:0" d="M 0,416.67175 V 333.34351 H 83.609268 167.21854 V 416.67175 500 H 83.609268 0 Z m 142.3841,0 V 356.44441 H 82.781454 23.178807 v 60.22734 60.22735 H 82.781454 142.3841 Z m -94.370857,0 v -35.47638 h 35.596025 35.596022 v 35.47638 35.47639 H 83.609268 48.013243 Z m 142.384097,23.92594 v -59.40232 h 11.58941 11.5894 v -12.37548 -12.37548 h -11.5894 -11.58941 v -35.47638 -35.47639 h 11.51687 11.51687 l 0.48644,11.96297 0.48644,11.96297 35.90348,0.4444 35.90345,0.44438 0.10452,-34.83756 c 0.0575,-19.16067 0.45198,-35.39802 0.87678,-36.083 0.42477,-0.68501 5.64091,-0.91067 11.59141,-0.50152 l 10.81908,0.74395 v -12.54467 -12.54468 h -10.58446 c -12.23175,0 -12.59435,0.4205 -12.59435,14.60509 v 9.38497 l -12.41722,-0.62492 -12.41722,-0.62494 v 12.55583 12.55584 h -11.66194 -11.66194 l 0.48645,-11.96208 0.48644,-11.96208 6.22397,0.53936 c 3.42318,0.29666 8.45215,0.0516 11.17549,-0.5445 l 4.95153,-1.08388 v -22.96979 -22.9698 h -11.5894 -11.5894 v 23.1009 23.1009 h -12.41722 -12.41722 v -11.55045 -11.55045 h -8.97055 c -14.82719,0 -14.20826,-1.08591 -14.20826,24.9275 v 22.92437 h -24.00662 -24.00662 v -12.37549 -12.37548 h -11.5894 -11.58941 v 12.37548 12.37549 H 106.68 94.154694 l 0.229242,11.96296 c 0.126035,6.57963 0.174669,17.3463 0.10803,23.92593 l -0.121068,11.96297 H 71.373052 48.375205 l -0.594868,-11.96297 c -0.327173,-6.57963 -0.347475,-17.3463 -0.04512,-23.92593 l 0.549772,-11.96296 H 71.327931 94.370873 V 250.01526 237.63978 H 82.781474 71.192071 V 226.08933 214.53888 H 35.596046 2.0695363e-5 V 202.98843 191.43798 H 59.602667 119.20531 v 11.55045 11.55045 h 11.58941 11.5894 v -11.55045 -11.55045 h 48.01324 48.01325 v -23.92593 -23.92593 h -10.43047 c -5.90507,0 -11.29244,0.85908 -12.41721,1.98007 -1.09272,1.08905 -1.98676,6.28675 -1.98676,11.55045 v 9.57038 h -11.5894 -11.58941 V 142.6799 118.67279 l 21.10927,0.16768 c 11.6101,0.0922 22.41308,0.12871 24.00663,0.0813 2.47518,-0.0738 2.89735,-1.76939 2.89735,-11.63685 V 95.734439 H 214.40399 190.39736 V 84.18399 72.63354 h 11.58941 11.5894 V 60.258058 47.882576 h -11.5894 -11.58941 v -11.55045 -11.55045 h 11.51687 11.51687 l 0.48644,-11.962966 0.48645,-11.96296604 h 11.5894 11.5894 l 0.48645,11.96296604 0.48642,11.962966 h -12.48973 -12.48976 v 11.55045 11.55045 h 12.41722 12.41722 v 23.925932 23.925931 h 24.08226 24.08226 l -0.48955,-11.137933 -0.48954,-11.137934 -11.58941,-0.825032 -11.5894,-0.825032 -0.48645,-11.962966 -0.48644,-11.962966 h 12.48975 12.48976 v -11.55045 -11.55045 h -12.48976 -12.48975 l 0.48644,-11.962966 0.48645,-11.96296604 h 11.5894 11.58941 l 0.48644,11.96296604 0.48642,11.962966 h 11.51689 11.51687 v 35.476382 35.476381 h -11.31348 c -6.22241,0 -11.6239,0.306232 -12.00331,0.680528 -0.3794,0.374276 -0.449,5.776343 -0.15459,12.004573 l 0.53516,11.32403 11.46815,-0.6231 11.46813,-0.62311 v 36.4704 36.47041 h 11.5894 11.58941 l 0.18356,11.96296 c 0.101,6.57963 0.0375,16.90487 -0.14135,22.94499 -0.27887,9.42253 0.10659,11.09512 2.7137,11.77849 2.55849,0.67059 36.70472,0.47006 43.18775,-0.25363 1.43645,-0.16027 2.06954,-3.76436 2.06954,-11.78146 v -11.55045 h -11.58941 -11.5894 v -11.55046 -11.55044 h 11.5894 11.58941 v 11.55044 11.55046 h 12.41722 12.41721 v -11.55046 -11.55044 h 11.58941 11.5894 v 11.55044 11.55046 h -11.5894 -11.58941 v 11.47815 11.47816 l -12.00331,0.48481 -12.00331,0.48481 -0.45937,23.51341 -0.45936,23.51342 h 24.05207 24.05209 v -23.1009 -23.1009 l 7.86424,-0.27047 c 4.32533,-0.14871 9.52684,-0.2553 11.55894,-0.23676 4.68357,0.0427 5.40604,-4.02743 5.03566,-28.36889 l -0.27618,-18.15071 11.91529,-0.48481 11.91527,-0.48481 v 11.62274 11.62275 H 488.4106 500 v 11.55045 11.55045 l -10.34768,0.23792 c -5.69123,0.13076 -16.30795,0.3165 -23.5927,0.41251 l -13.24503,0.1747 -0.48644,11.96297 -0.48645,11.96296 h 12.48976 12.48973 v 11.55045 11.55045 H 488.4106 500 v 23.92594 23.92593 h -21.64143 c -26.21565,0 -26.82403,0.35336 -26.33055,15.29391 0.18688,5.65514 0.25394,15.29415 0.14922,21.42002 l -0.1904,11.13793 h -11.5894 -11.58941 v 11.55045 11.55045 h 24.00662 24.00661 v 12.37548 12.37549 h -24.00661 -24.00662 v -12.37549 -12.37548 h -11.51688 -11.51687 l -0.48644,11.96297 -0.48643,11.96296 -12.00331,0.48479 -12.00331,0.48481 v 11.47816 11.47817 H 357.0892 333.38362 l -0.27413,-11.55044 -0.27414,-11.55045 h 23.97972 23.97972 v -12.37549 -12.37548 h 12.41722 12.41722 v -11.55045 -11.55045 h 11.5894 11.5894 V 345.64389 310.0921 l -11.17549,0.48791 -11.1755,0.48792 -0.48957,11.13793 -0.48955,11.13794 h -12.34155 -12.34158 v 23.92593 23.92593 h -11.5894 -11.58941 v 11.55045 11.55045 h -24.00662 -24.00662 v -11.55045 -11.55045 h -11.5894 -11.58941 l -0.12107,-11.96296 c -0.0666,-6.57964 -0.0186,-17.34631 0.10803,-23.92594 l 0.22925,-11.96296 h -10.53858 c -5.98915,0 -11.39623,0.85477 -12.52531,1.98007 -1.09271,1.08905 -1.98675,6.28675 -1.98675,11.55045 v 9.57038 h -9.60265 c -5.28146,0 -10.49669,0.89103 -11.58941,1.98007 -1.12477,1.121 -1.98675,6.49024 -1.98675,12.37549 v 10.3954 h -12.41722 -12.41722 v 11.55045 11.55045 h 12.41722 12.41722 v 12.37548 12.37549 h -10.43046 c -5.90507,0 -11.29245,0.85906 -12.41722,1.98007 -1.09272,1.08904 -1.98676,6.28675 -1.98676,11.55045 v 9.57037 h 12.41722 12.41722 V 476.07405 500 h -24.00662 -24.00662 z m 167.21854,-83.32825 v -23.92593 h 11.5894 11.58941 v -11.55045 -11.55045 h -47.18543 -47.18543 v 11.55045 11.55045 h 11.5894 11.58941 v 23.92593 23.92593 h 24.00662 24.00662 z m 119.20527,-59.40231 v -12.37549 h -24.0066 -24.00662 v 12.37549 12.37548 h 24.00662 24.0066 z M 357.61588,273.89588 v -11.59574 l -23.59272,0.45781 -23.59271,0.45783 -0.48955,11.13793 -0.48957,11.13793 h 24.08229 24.08226 z m -238.75196,-47.39403 0.48645,-11.96297 h -10.503 c -5.96149,0 -11.362068,0.85618 -12.489758,1.98008 -2.689901,2.68086 -2.621627,20.58224 0.08278,21.70501 1.138245,0.47255 6.539738,0.72006 12.003308,0.55002 l 9.93378,-0.30918 z m 48.04385,3.822 c 0.95042,-14.96472 0.27668,-15.78497 -12.96581,-15.78497 H 142.3841 v 11.27545 c 0,6.20148 0.52719,11.80087 1.17156,12.44305 0.64435,0.6422 6.04584,0.95159 12.00332,0.68752 l 10.83174,-0.48009 z m 119.1476,-87.15025 -0.45936,-23.51342 -9.55447,-0.49588 c -14.02518,-0.72793 -14.45215,0.0388 -14.45215,25.95402 v 21.5687 h 12.46267 12.46268 z m -24.46598,332.90045 v -23.92591 h 12.41722 12.41722 v -11.55045 -11.55045 h -12.41722 -12.41722 v -12.44778 -12.44777 l 12.00331,0.4848 12.00331,0.48481 0.48645,11.96297 0.48642,11.96297 h 11.51689 11.51687 v 22.96978 22.9698 l 4.55298,0.92616 c 2.50414,0.5094 13.86589,0.87808 25.24834,0.8193 11.38245,-0.0588 25.35182,-0.0454 31.04304,0.0299 l 10.34769,0.13675 v 11.55045 11.55044 h -59.60265 -59.60265 z m 144.03973,12.37548 V 476.8991 h 11.58941 11.5894 v -12.37548 -12.37548 h 11.5894 11.58941 v 11.37389 c 0,13.15815 0.24604,13.37707 15.03607,13.37707 h 9.79834 V 488.44953 500 l -12.00329,-8e-5 -12.00331,-6e-5 v -11.96291 -11.9629 l -8.27814,-0.35739 c -15.35712,-0.66299 -15.72848,-0.36161 -15.72848,12.76432 V 500 h -11.5894 -11.58941 z M 0,297.86713 v -12.37549 h 11.589403 11.589404 v 12.37549 12.37548 H 11.589403 0 Z m 142.3841,0 v -12.52007 l 12.00331,0.48481 12.00331,0.48481 v 11.55045 11.55045 l -12.00331,0.48479 -12.00331,0.48481 z M 0,83.343509 V 0 l 83.195361,0.42777916 83.195359,0.42777916 0.45547,82.91572968 0.45548,82.915732 H 83.650824 0 Z m 142.3841,0.840295 V 24.78149 H 82.781454 23.178807 V 84.183804 143.58612 H 82.781454 142.3841 Z M 48.013243,83.358772 V 47.88239 H 83.609268 119.20529 V 83.358772 118.83515 H 83.609268 48.013243 Z M 333.15377,83.771288 333.60926,0.85555832 416.80462,0.42777916 499.99996,0 v 83.343509 83.343511 h -83.65083 -83.65082 z m 143.66738,0.412516 V 24.78149 h -59.60262 -59.60265 v 59.402314 59.402316 h 59.60265 59.60262 z M 380.79469,83.358772 V 47.88239 h 35.59602 35.59603 v 35.476382 35.476378 h -35.59603 -35.59602 z" />
</svg>