<svg id="MOL" width="500" height="130" viewBox="0 0 500 130" version="1.1" xml:space="preserve" xmlns:xlink="http://www.w3.org/1999/xlink" xmlns="http://www.w3.org/2000/svg" xmlns:svg="http://www.w3.org/2000/svg">
	<path id="2030002204482711" style="fill:#000000;stroke:#000000;stroke-width:0" d="M 491.86992,0 H 500 v 130 h -8.13008 z m -8.13008,0 h 4.06504 v 130 h -4.06504 z m -16.26016,0 h 12.19512 v 130 h -12.19512 z m -20.32521,0 h 8.13008 v 130 h -8.13008 z m -20.3252,0 h 8.13008 v 130 h -8.13008 z m -8.13008,0 h 4.06504 v 130 h -4.06504 z m -16.26016,0 h 4.06504 v 130 h -4.06504 z M 390.2439,0 h 4.06505 v 130 h -4.06505 z m -12.19512,0 h 4.06504 v 130 h -4.06504 z m -20.3252,0 h 8.13008 v 130 h -8.13008 z m -12.19512,0 h 4.06504 v 130 h -4.06504 z M 329.2683,0 h 8.13008 v 130 h -8.13008 z m -16.26017,0 h 12.19513 v 130 h -12.19513 z m -12.19512,0 h 8.13008 v 130 h -8.13008 z m -16.26016,0 h 12.19512 v 130 h -12.19512 z m -16.26016,0 h 12.19512 v 130 h -12.19512 z m -16.26017,0 h 8.13008 v 130 h -8.13008 z m -16.26017,0 h 4.06504 v 130 h -4.06504 z m -12.19512,0 h 4.06504 v 130 h -4.06504 z m -12.19512,0 h 4.06504 v 130 h -4.06504 z m -16.26016,0 h 12.19512 v 130 h -12.19512 z m -16.26017,0 h 8.13009 v 130 h -8.13009 z m -16.26016,0 h 8.13008 v 130 h -8.13008 z m -16.26016,0 h 8.13008 v 130 h -8.13008 z m -12.19512,0 h 8.13008 v 130 h -8.13008 z m -20.32519,0 h 8.13008 v 130 h -8.13008 z m -12.19513,0 h 8.13008 v 130 h -8.13008 z M 89.430896,0 h 8.130081 V 130 H 89.430896 Z M 73.170733,0 H 85.365855 V 130 H 73.170733 Z M 60.975609,0 h 4.06504 v 130 h -4.06504 z M 44.715446,0 h 8.130081 V 130 H 44.715446 Z M 24.390243,0 H 36.585365 V 130 H 24.390243 Z M 12.195122,0 h 4.06504 v 130 h -4.06504 z M 0,0 H 8.1300811 V 130 H 0 Z" />
</svg>