<svg id="MYWORLD" width="500" height="130" viewBox="0 0 500 130" version="1.1" xml:space="preserve" xmlns:xlink="http://www.w3.org/1999/xlink" xmlns="http://www.w3.org/2000/svg" xmlns:svg="http://www.w3.org/2000/svg">
	<path id="7710050031796" style="fill:#000000;stroke:#000000;stroke-width:0" d="M 495.2848,0 H 500 v 130 h -4.7152 z m -9.43041,0 h 4.71521 v 130 h -4.71521 z m -26.40513,0 h 5.28103 v 130 h -5.28103 z m -10.56205,0 h 5.28103 v 130 h -5.28103 z m -15.84308,0 h 5.28103 v 130 h -5.28103 z m -21.1241,0 h 15.84308 v 130 h -15.84308 z m -15.84308,0 h 5.28103 v 130 h -5.28103 z m -21.1241,0 h 5.28102 v 130 h -5.28102 z m -15.84308,0 h 10.56205 v 130 h -10.56205 z m -21.1241,0 h 10.56205 v 130 h -10.56205 z m -10.56206,0 h 5.28103 v 130 h -5.28103 z m -26.40513,0 h 5.28103 v 130 h -5.28103 z m -10.56205,0 h 5.28103 v 130 h -5.28103 z M 264.0513,0 h 15.84308 V 130 H 264.0513 Z m -11.6937,0 h 4.7152 v 130 h -4.7152 z m -9.4304,0 h 4.7152 v 130 h -4.7152 z m -21.12411,0 h 15.84308 v 130 h -15.84308 z m -15.84307,0 h 5.28102 v 130 h -5.28102 z m -10.56206,0 h 5.28103 v 130 h -5.28103 z m -26.40513,0 h 10.56205 v 130 h -10.56205 z m -21.1241,0 h 15.84308 v 130 h -15.84308 z m -15.84308,0 h 5.28103 v 130 h -5.28103 z M 121.4636,0 h 5.28102 v 130 h -5.28102 z m -15.84308,0 h 10.56205 V 130 H 105.62052 Z M 79.21539,0 H 89.777442 V 130 H 79.21539 Z M 58.091286,0 H 68.653338 V 130 H 58.091286 Z M 42.248208,0 H 52.81026 V 130 H 42.248208 Z M 21.124104,0 H 36.967182 V 130 H 21.124104 Z M 9.4304036,0 H 14.145605 V 130 H 9.4304036 Z M 0,0 H 4.7152018 V 130 H 0 Z" />
</svg>