<svg id="OBI" width="500" height="130" viewBox="0 0 500 130" version="1.1" xml:space="preserve" xmlns:xlink="http://www.w3.org/1999/xlink" xmlns="http://www.w3.org/2000/svg" xmlns:svg="http://www.w3.org/2000/svg">
	<path id="302020015776897944" style="fill:#000000;stroke:#000000;stroke-width:0" d="M 497.07602,0 H 500 v 130 h -2.92398 z m -11.6959,0 h 8.77193 v 130 h -8.77193 z m -17.54386,0 h 8.77193 v 130 h -8.77193 z m -5.84796,0 h 2.92398 v 130 h -2.92398 z m -17.54386,0 h 8.77193 v 130 h -8.77193 z m -5.84795,0 h 2.92398 v 130 h -2.92398 z m -5.84795,0 h 2.92397 v 130 h -2.92397 z m -11.69591,0 h 8.77193 v 130 h -8.77193 z m -17.54386,0 h 8.77193 v 130 h -8.77193 z m -5.84795,0 h 2.92398 v 130 h -2.92398 z m -11.69591,0 h 2.92398 v 130 h -2.92398 z m -5.84795,0 h 2.92398 v 130 h -2.92398 z m -5.84795,0 h 2.92397 v 130 h -2.92397 z m -17.54386,0 h 8.77193 v 130 h -8.77193 z m -5.84796,0 h 2.92398 v 130 h -2.92398 z m -11.6959,0 h 2.92397 v 130 h -2.92397 z m -11.69591,0 h 8.77193 v 130 h -8.77193 z m -11.69591,0 h 8.77193 v 130 h -8.77193 z m -11.6959,0 h 8.77193 v 130 h -8.77193 z m -11.69591,0 h 2.92398 v 130 h -2.92398 z m -11.69591,0 h 2.92398 v 130 h -2.92398 z m -5.84795,0 h 2.92398 v 130 h -2.92398 z m -11.69591,0 h 2.92398 v 130 h -2.92398 z m -11.6959,0 h 2.92397 v 130 h -2.92397 z m -11.69591,0 h 8.77193 v 130 h -8.77193 z m -5.84795,0 h 2.92398 v 130 h -2.92398 z m -11.69591,0 h 8.77193 v 130 h -8.77193 z m -11.6959,0 h 2.92397 v 130 h -2.92397 z m -11.69591,0 h 8.77193 v 130 h -8.77193 z M 187.1345,0 h 8.77193 v 130 h -8.77193 z m -5.84795,0 h 2.92398 v 130 h -2.92398 z m -11.69591,0 h 2.92398 v 130 h -2.92398 z m -11.6959,0 h 8.77193 v 130 h -8.77193 z m -11.69591,0 h 2.92398 v 130 h -2.92398 z m -11.69591,0 h 2.92398 v 130 h -2.92398 z m -11.6959,0 h 8.77193 v 130 h -8.77193 z m -5.84796,0 h 2.92398 v 130 h -2.92398 z m -11.6959,0 h 8.77193 v 130 h -8.77193 z M 93.567251,0 h 2.923977 V 130 H 93.567251 Z M 81.871345,0 h 2.923977 V 130 H 81.871345 Z M 70.175439,0 h 8.771929 v 130 h -8.771929 z m -5.847954,0 h 2.923977 v 130 h -2.923977 z m -5.847953,0 h 2.923977 V 130 H 58.479532 Z M 46.783626,0 h 2.923976 V 130 H 46.783626 Z M 35.087719,0 h 2.923977 V 130 H 35.087719 Z M 23.391813,0 h 8.77193 v 130 h -8.77193 z M 11.695906,0 h 8.77193 v 130 h -8.77193 z M 5.8479532,0 H 8.7719298 V 130 H 5.8479532 Z M 0,0 H 2.9239766 V 130 H 0 Z" />
</svg>