<svg id="OLIMP" width="500" height="130" viewBox="0 0 500 130" version="1.1" xml:space="preserve" xmlns:xlink="http://www.w3.org/1999/xlink" xmlns="http://www.w3.org/2000/svg" xmlns:svg="http://www.w3.org/2000/svg">
	<path id="12099677" style="fill:#000000;stroke:#000000;stroke-width:0" d="m 487.34176,0 h 12.65823 v 130 h -12.65823 z m -12.65822,0 h 6.32912 v 130 h -6.32912 z m -25.31645,0 h 18.98734 v 130 h -18.98734 z m -31.64558,0 h 12.65823 v 130 h -12.65823 z m -18.98734,0 h 6.32912 v 130 h -6.32912 z m -25.31645,0 h 6.32912 v 130 h -6.32912 z m -25.31646,0 h 12.65823 v 130 h -12.65823 z m -12.65823,0 h 6.32911 v 130 h -6.32911 z m -25.31645,0 h 18.98734 v 130 h -18.98734 z m -31.64557,0 h 25.31646 v 130 h -25.31646 z m -12.65823,0 h 6.32911 v 130 h -6.32911 z m -44.3038,0 h 25.31646 v 130 h -25.31646 z m -12.65823,0 h 6.32912 v 130 h -6.32912 z M 183.5443,0 h 6.32911 v 130 h -6.32911 z m -18.98734,0 h 6.32911 v 130 h -6.32911 z m -25.31645,0 h 12.65822 v 130 h -12.65822 z m -31.64557,0 h 18.98734 V 130 H 107.59494 Z M 82.27849,0 H 94.93671 V 130 H 82.27849 Z M 69.62025,0 h 6.32912 V 130 H 69.62025 Z M 37.97468,0 H 56.96202 V 130 H 37.97468 Z M 18.98733,0 h 6.32912 V 130 H 18.98733 Z M 0,0 H 12.65822 V 130 H 0 Z" />
</svg>