<svg id="ORLENBIZNESTANK" width="500" height="500" viewBox="0 0 500 500" version="1.1" xml:space="preserve" xmlns:xlink="http://www.w3.org/1999/xlink" xmlns="http://www.w3.org/2000/svg" xmlns:svg="http://www.w3.org/2000/svg">
	<path id="78971531038255514" style="fill:#000000;stroke:#000000;stroke-width:0" d="M 0.00162607,447.0921 V 394.18538 H 52.908416 105.81521 v 52.90672 52.90671 H 52.908416 0.00162607 Z m 90.69736593,0 V 409.30157 H 52.908416 15.117839 v 37.79053 37.79052 h 37.790577 37.790576 z m -60.46494,0 v -22.67429 h 22.674364 22.674319 v 22.67429 22.67433 H 52.908416 30.234052 Z m 90.697368,37.79052 v -15.11619 h 7.55815 7.55811 v 7.5581 7.55809 h 7.5581 7.55811 v -7.55809 -7.5581 h 7.5581 7.55811 V 454.65019 439.534 h -7.55811 -7.5581 v 7.5581 7.55809 H 136.04768 120.93142 V 439.534 424.41781 h 7.55815 7.55811 v -15.06073 -15.06073 l -7.26744,-0.34631 -7.26739,-0.34631 -0.34543,-7.2331 -0.34543,-7.23306 -14.77096,-0.32521 -14.770915,-0.32521 -0.346309,-7.26738 -0.346309,-7.26743 h 15.171673 15.17172 v -7.52333 -7.52338 l -14.8255,-0.32521 -14.825539,-0.32522 -0.346309,-7.26742 -0.346309,-7.26738 h 15.171677 15.17172 v 7.55809 7.5581 h 7.55815 7.5581 v 22.69362 22.69358 l 30.52315,-0.30983 30.52314,-0.30983 0.34543,-7.24264 0.34543,-7.24264 -23.01988,-0.31554 -23.01989,-0.31555 -0.32521,-14.77089 -0.32521,-14.77094 -7.23312,-0.34543 -7.23306,-0.34543 -0.34456,-7.21332 -0.34499,-7.21333 -7.21333,-0.34499 -7.21334,-0.34499 -0.34631,-7.26738 -0.34631,-7.26743 H 90.64186 60.464896 v 7.5581 7.55814 h 7.558107 7.558106 v 22.67429 22.67433 H 37.790577 0 v -52.90676 -52.90672 h 15.116213 15.116213 v -8.13948 -8.13948 H 15.116213 0 v -6.97671 -6.97671 h 7.5581065 7.5581065 v -8.13952 -8.13949 H 7.5581065 0 v -6.97671 -6.97671 h 15.116213 15.116213 v 15.11619 15.11624 h 7.558151 7.558106 v -7.55814 -7.5581 h 7.558107 7.558106 v 29.65105 29.651 H 52.90679 45.348683 v 7.52337 7.52338 l -14.825542,0.32521 -14.825542,0.32522 -0.309832,30.52309 -0.309833,30.5231 h 7.577444 7.5774 v -15.11619 -15.11619 h 7.55815 7.558107 V 318.60319 303.487 h 7.558106 7.558107 v -7.55809 -7.5581 h 7.558106 7.558107 v 7.5581 7.55809 h 15.116257 15.116212 v -8.13948 -8.13952 h -7.558106 -7.558106 v -6.97672 -6.97671 h 15.116212 15.11621 v 22.67434 22.67428 h 7.55815 7.55811 v -7.55809 -7.5581 h 7.55811 7.5581 v 7.5581 7.55809 h 7.55811 7.55811 v 7.5581 7.55814 h 7.55815 7.5581 v 7.61123 7.61123 l 7.84878,-0.34367 7.84882,-0.34368 0.34499,-7.21306 0.34455,-7.21306 -7.90287,-0.34499 -7.90288,-0.34499 -0.34499,-7.21333 -0.34455,-7.21332 -7.21334,-0.34499 -7.21333,-0.34499 -0.34368,-7.84881 -0.34367,-7.84877 h -7.50501 -7.50498 v -22.09295 -22.0929 h 7.55811 7.5581 v -7.55809 -7.5581 h 7.55816 7.5581 v -7.52439 -7.52434 l 15.40693,-0.32434 15.40693,-0.32433 0.34631,-7.26743 0.34631,-7.26738 h 14.47932 14.47936 v 6.92121 6.92125 l -7.26743,0.3463 -7.2674,0.34631 -0.34543,7.23306 -0.34543,7.2331 -14.77091,0.32522 -14.77096,0.32477 -0.34455,7.21333 -0.34499,7.21332 -7.21334,0.34499 -7.21333,0.34499 -0.34499,7.21333 -0.34455,7.21332 -7.21334,0.34499 -7.21334,0.34499 -0.34367,7.84881 -0.34367,7.84881 h 7.61124 7.61124 v 15.16933 15.16932 l 7.84878,-0.34367 7.84882,-0.34367 V 302.9072 287.79096 l -7.84882,-0.34367 -7.84878,-0.34367 v -6.92358 -6.92358 h 22.67432 22.67436 v 6.92125 6.92121 l -7.26743,0.34631 -7.26739,0.3463 -0.30412,45.69278 -0.30412,45.69273 7.86235,-0.34411 7.86236,-0.34411 0.34631,-7.26738 0.34631,-7.26743 h 6.92126 6.92121 v 22.67433 22.67429 h -6.97672 -6.97672 v -7.5581 -7.55809 h -8.13949 -8.13954 v 7.55809 7.5581 h -15.11621 -15.11621 v 7.6136 7.6136 l -7.26744,-0.34631 -7.26739,-0.3463 -0.34631,-7.26738 -0.34631,-7.26743 h -7.5026 -7.50264 v 7.5581 7.55814 h 7.5581 7.55811 v 7.58266 7.5827 l 22.96503,-0.3151 22.96508,-0.31511 0.34631,-7.26742 0.34631,-7.26738 h 15.06075 15.06071 v -7.55814 -7.5581 h 6.97672 6.97672 v 15.11624 15.11619 h 7.55815 7.55811 v 15.11619 15.11624 h -6.97672 -6.97672 v -7.55814 -7.5581 h -8.13954 -8.13949 v 7.5581 7.55814 h -6.97672 -6.97672 v -7.55814 -7.5581 h -23.25575 -23.25571 v 7.5581 7.55814 h 7.55811 7.5581 v 7.55809 7.5581 h 8.1395 8.13953 v -7.5581 -7.55809 h 6.97672 6.97672 v 7.55809 7.5581 h 7.55811 7.55811 V 492.4419 500 H 211.6287 181.39627 v -15.11619 -15.11619 h -7.55811 -7.55815 v 7.55809 7.5581 h -7.5581 -7.55811 V 492.4419 500 H 136.04759 120.93133 Z M 166.2801,341.27867 v -7.5581 h -7.55811 -7.5581 v 7.5581 7.55809 h 7.5581 7.55811 z m 91.86018,151.16205 v -7.5581 h 15.11622 15.11621 V 462.20829 439.534 h 6.92126 6.92121 l 0.34631,7.26738 0.34631,7.26743 7.90288,0.34499 7.90288,0.34499 -0.34456,7.21306 -0.34455,7.21302 -7.84882,0.34367 -7.84882,0.34367 v 7.50501 7.50496 h 15.69764 15.6976 v 7.5581 7.55809 h -37.79053 -37.79058 z m 105.81358,0 v -7.5581 h -7.5581 -7.55811 v -7.55809 -7.5581 h -7.55811 -7.55815 V 454.65019 439.534 h -15.11621 -15.11621 v -15.11619 -15.11624 h 7.5581 7.55811 v 7.5581 7.55814 h 7.55811 7.5581 v -15.11624 -15.11619 h 7.55815 7.55811 v -7.55809 -7.5581 h -7.50264 -7.50265 l -0.34631,7.26738 -0.34631,7.26743 -14.82554,0.32521 -14.8255,0.32521 v -7.59285 -7.59282 h 7.55811 7.55811 v -7.55814 -7.55809 h 15.11621 15.11626 V 341.27823 318.6039 h 15.14078 15.14082 l -0.31511,-22.96501 -0.3151,-22.965 -7.26739,-0.34631 -7.26744,-0.3463 v -6.92125 -6.92121 h 15.11621 15.11626 v -7.55809 -7.5581 h 15.11621 15.11622 v 7.5581 7.55809 h 7.55815 7.5581 v 7.5581 7.55809 h 7.55811 7.55811 v -8.13948 -8.13948 h -7.55811 -7.55811 v -7.55814 -7.55809 h -7.5581 -7.55815 V 227.32501 212.7902 h 22.67436 22.67432 v 7.5581 7.55809 H 484.88379 500 v 14.53481 14.53485 h -7.55811 -7.5581 v -7.55814 -7.55809 h -7.55811 -7.55815 v 23.25571 23.25572 h 7.55815 7.55811 v 15.11619 15.11619 h 7.5581 H 500 v 15.11624 15.11619 h -15.11621 -15.11626 v 7.5581 7.55809 H 454.65132 439.5351 v 30.23243 30.23243 h 7.55811 7.55811 v -22.67433 -22.67429 h 7.5581 7.55811 v 22.67429 22.67433 H 484.88379 500 v 30.23238 30.23243 h -15.11621 -15.11626 v 7.55809 7.5581 H 447.09321 424.41885 V 469.76573 439.5333 h -22.67432 -22.67437 v 15.11619 15.11624 h -7.5581 -7.55811 v 7.55809 7.5581 h 7.55811 7.5581 v 7.55809 7.5581 h -7.5581 -7.55811 z M 469.76744,454.65019 V 439.534 h -7.5581 -7.55811 v 15.11619 15.11624 h 7.55811 7.5581 z M 363.95386,447.0921 v -7.5581 h -7.5581 -7.55811 v 7.5581 7.55809 h 7.55811 7.5581 z m 0,-30.23243 v -7.5581 h -7.5581 -7.55811 v 7.5581 7.55814 h 7.55811 7.5581 z m 60.4649,-15.11619 v -22.67429 h -22.67432 -22.67436 v 22.67429 22.67433 h 22.67436 22.67432 z m -30.23243,0 v -7.5581 h 7.55811 7.55811 v 7.5581 7.55809 h -7.55811 -7.55811 z m -15.11625,-45.34862 v -7.5581 h 7.55815 7.5581 v 7.5581 7.5581 h 22.67432 22.67437 v -15.1162 -15.11619 h 7.5581 7.55811 v -7.55814 -7.55809 h 7.61124 7.61124 l -0.34367,-7.84881 -0.34368,-7.84877 -7.26739,-0.34631 -7.26743,-0.34631 v -7.50263 -7.50264 h -15.11622 -15.11625 v 7.5581 7.55814 h -15.08246 -15.08247 l -0.32433,15.40686 -0.32434,15.40691 -14.82554,0.32521 -14.82554,0.32566 v 15.08142 15.08148 h 7.55811 7.5581 z m 30.23247,-30.19767 v -7.59285 h 7.5581 7.55811 v -7.5581 -7.5581 h 7.59287 7.59287 l -0.32522,14.82553 -0.32565,14.82547 -14.82554,0.32522 -14.82554,0.32565 z m -0.23776,-45.67405 -0.34367,-7.84881 -7.26744,-0.34631 -7.26739,-0.34631 v 8.19499 8.19499 h 7.61124 7.61124 z m -14.87863,204.35948 v -15.11619 h 7.5581 7.55811 v 15.11619 15.11619 h -7.55811 -7.5581 z m -151.16231,-7.55809 v -7.5581 h 6.97672 6.97672 v 7.5581 7.55809 h -6.97672 -6.97672 z m 30.23247,-45.34862 v -7.5581 h 6.97672 6.97672 v 7.5581 7.55809 h -6.97672 -6.97672 z m 15.11621,-30.23243 v -7.5581 h 6.97672 6.97672 v 7.5581 7.55809 h -6.97672 -6.97672 z m 196.51099,-22.67429 v -15.11623 h 7.55811 7.55811 v 15.11623 15.11619 h -7.55811 -7.55811 z m -211.6272,-7.55814 v -7.55809 h -7.55811 -7.5581 v -7.50259 -7.50264 l 7.26739,-0.34631 7.26743,-0.34631 0.34631,-7.26742 0.34631,-7.26738 h 6.86576 6.86575 l 0.34631,7.26738 0.34631,7.26742 15.40692,0.32434 15.40693,0.32433 v -7.59184 -7.59185 h -15.11621 -15.11626 v -7.55814 -7.5581 h 7.61124 7.61124 l -0.34367,-7.84881 -0.34367,-7.84876 h -7.55815 -7.55811 l -0.34367,7.84876 -0.34368,7.84881 h -15.06308 -15.06312 v 7.5581 7.55814 h -6.94297 -6.94297 l -0.32433,-15.40691 -0.32434,-15.4069 -7.26739,-0.34631 -7.26743,-0.34631 v -6.86574 -6.86575 l 7.26743,-0.3463 7.26739,-0.34631 0.34543,-7.24247 0.34543,-7.2425 22.3288,-0.31555 22.32881,-0.31554 v -7.5581 -7.5581 l -7.26739,-0.3463 -7.26744,-0.34631 v -6.92125 -6.92121 h 14.50011 14.50006 l 0.32566,14.82548 0.32565,14.82552 7.84878,0.34367 7.84882,0.34368 v 15.06306 15.0631 h 7.5832 7.58324 l -0.31598,22.38362 -0.31599,22.38361 -7.21333,0.34499 -7.21334,0.34499 -0.34455,7.21333 -0.34455,7.21332 -7.84882,0.34368 -7.84882,0.34367 v 7.50496 7.50501 H 287.79273 273.2579 Z m -0.58139,-76.16239 v -7.55814 h -7.5581 -7.55811 l -0.35685,6.25672 c -0.5298,9.29175 -0.24875,9.60769 8.19051,9.20609 l 7.28247,-0.34675 z m -44.76729,45.93001 v -7.5581 h 6.97672 6.97672 v 7.5581 7.55809 h -6.97672 -6.97672 z m 105.81358,-45.93001 v -6.97671 h 7.55815 7.5581 v 6.97671 6.97671 h -7.5581 -7.55815 z m 15.11625,-15.11623 v -6.97671 h 7.55811 7.55811 v 6.97671 6.97671 h -7.55811 -7.55811 z m 136.04605,0 v -6.97671 h 7.55811 7.55811 v 6.97671 6.97671 h -7.55811 -7.55811 z M 120.93124,264.53485 v -7.5581 H 98.256923 75.582559 V 242.4419 227.9071 h 7.558151 7.558106 v 7.55809 7.55814 h 15.116214 15.11621 v -8.13952 -8.13948 H 105.81503 90.698816 v -6.97671 -6.97671 h 15.116214 15.11621 v -8.13949 -8.13952 H 98.256923 75.582559 v -15.11619 -15.11619 h -7.558106 -7.558107 v 22.67428 22.67434 H 45.350133 30.233876 v -6.97672 -6.97671 h 7.558151 7.558106 v -8.13952 -8.13948 H 30.233876 15.117663 v 7.55809 7.5581 H 7.5595568 0.00145028 V 173.83761 151.16328 H 15.117663 30.233876 v 7.5581 7.55814 h 15.060751 15.060751 l 0.346309,-7.26743 0.346309,-7.26742 22.383649,-0.31599 22.383645,-0.31598 v -7.53301 -7.533 h -7.613609 -7.613569 l 0.346309,-7.26742 0.346309,-7.26738 7.267391,-0.34631 7.267439,-0.34631 v 7.61356 7.6136 h 7.5581 7.55811 v 7.5581 7.55809 h -7.55811 -7.5581 v 7.5581 7.55814 h -7.55811 -7.558106 v 7.55809 7.5581 h 37.790576 37.79053 v 30.19766 30.19767 l -14.8255,0.32521 -14.82554,0.32522 -0.32521,14.82552 -0.32522,14.82552 h -7.52338 -7.52339 z m 106.9764,-14.53481 v -6.97671 h 6.97672 6.97672 v 6.97671 6.97671 h -6.97672 -6.97672 z m 120.92983,0 v -6.97671 h 7.55811 7.55811 v 6.97671 6.97671 h -7.55811 -7.55811 z M 243.02385,234.88381 v -6.97671 h 6.97672 6.97672 v 6.97671 6.97671 h -6.97672 -6.97672 z m 60.22973,-0.2905 -0.34631,-7.26742 -22.38365,-0.31599 -22.38364,-0.31598 v -6.92648 -6.92648 l 22.38364,-0.31598 22.38365,-0.31599 0.34631,-7.26742 0.34631,-7.26738 h 7.5026 7.50265 v 7.55809 7.5581 h 7.5581 7.55811 v 6.97671 6.97671 h -7.55811 -7.5581 v 7.5581 7.55809 h -7.50265 -7.5026 z m 60.70011,-7.84881 v -15.11619 h -15.11622 -15.11625 v -15.11623 -15.1162 h 7.55815 7.5581 v -22.67433 -22.67429 h -7.5581 -7.55815 v -7.6136 -7.61356 l 7.26743,0.34631 7.26744,0.34631 0.34543,7.23306 0.34543,7.23306 14.77096,0.32521 14.77091,0.32521 0.34631,7.26743 0.34631,7.26738 h -7.61357 -7.61361 v 23.25572 23.25572 h 7.5581 7.55811 v 15.11619 15.11619 h 7.55815 7.55811 v 6.97671 6.97671 H 379.07047 363.95426 Z M 181.39618,204.6516 v -6.97671 h 7.55811 7.55811 v 6.97671 6.97671 h -7.55811 -7.55811 z m 227.90619,0 v -6.97671 h 7.55811 7.5581 v 6.97671 6.97671 h -7.5581 -7.55811 z m 60.4649,0 v -6.97671 h 15.11625 15.11622 v 6.97671 6.97671 h -15.11622 -15.11625 z m -272.0921,-15.69762 v -7.5581 h 7.58324 7.5832 l -0.31598,-22.38361 -0.31555,-22.38362 -15.43193,-0.32477 -15.43194,-0.32478 0.31555,-22.34969 0.31554,-22.349687 7.2674,-0.346309 7.26743,-0.346309 v 15.171695 15.1717 h 8.17426 8.17425 l -0.32521,-14.82552 -0.32522,-14.825521 -7.21333,-0.34499 -7.21334,-0.34499 -0.34499,-7.213326 -0.34499,-7.213325 -7.84882,-0.343672 -7.84878,-0.343672 v 7.611229 7.611229 h -7.5581 -7.55815 v 7.558096 7.558092 h -7.55811 -7.55811 v 15.11624 15.11619 h -7.5581 -7.55811 v -7.55809 -7.5581 h -7.59287 -7.59287 l 0.32522,-14.82552 0.32565,-14.825523 7.21333,-0.34499 7.21334,-0.34499 0.34499,-7.213326 0.34455,-7.213325 7.26739,-0.346309 7.26744,-0.346308 v -15.06073 -15.06073 h -7.55811 -7.5581 v -7.558096 -7.558095 h 7.5581 7.55811 v 7.558095 7.558096 h 7.55811 7.5581 V 30.232428 15.116192 H 143.60534 120.93098 V 7.5580959 0 h 30.23247 30.23247 v 7.5580959 7.5580961 h 8.13949 8.13949 V 7.5580959 0 h 22.09298 22.09294 v 15.116192 15.116236 h -7.55811 -7.55811 v 7.558095 7.558096 h 7.55811 7.55811 v 15.116192 15.116236 h -6.97673 -6.97672 v -7.55814 -7.558096 h -7.5581 -7.55811 v -7.558096 -7.558096 h -7.50264 -7.50265 l -0.34631,-7.267425 -0.34631,-7.267381 -7.84882,-0.343672 -7.84877,-0.343672 v 15.169325 15.169325 h 15.11621 15.11621 v 7.558096 7.558139 h 7.55815 7.55811 v 22.674288 22.674328 h 30.81385 30.81382 v -7.55814 -7.55809 h 7.55815 7.5581 V 90.697546 75.581354 h -7.5581 -7.55815 v -7.558139 -7.558096 h 15.11625 15.11622 V 52.907023 45.348927 H 303.48826 288.37201 V 37.790831 30.232735 H 273.25579 258.13958 V 15.116499 3.0763449e-4 h 6.97672 6.97672 V 7.5584035 15.116499 h 15.11621 15.11622 v 7.558096 7.55814 h 8.13953 8.1395 v -7.55814 -7.558096 h -7.55811 -7.55811 V 7.5584035 3.0763449e-4 h 15.11622 15.11621 V 7.5584035 15.116499 h 7.55815 7.55811 v 7.558096 7.55814 h -7.55811 -7.55815 v 7.558096 7.558096 h 7.55815 7.55811 v 15.116192 15.116235 h 7.5581 7.55811 v -7.558139 -7.558096 h 7.55811 7.5581 v 30.232427 30.232424 h -15.11621 -15.11621 v -7.55814 -7.55809 h -7.55811 -7.55815 v -7.558098 -7.558096 h -7.55811 -7.5581 v 22.618824 22.61883 l 7.26743,0.34631 7.26739,0.3463 0.32566,14.82553 0.32521,14.82552 h -7.59282 -7.59287 v -7.55814 -7.5581 h -15.11622 -15.11625 v -7.55809 -7.5581 h -30.81382 -30.81385 v 15.11619 15.11624 h 7.5581 7.55811 v 7.50259 7.50263 l -7.26743,0.34631 -7.2674,0.34631 -0.3463,7.26742 -0.34631,7.26738 h -14.47937 -14.47936 z m -46.27625,-90.406525 0.34631,-7.267425 7.26744,-0.346308 7.26739,-0.346309 v -7.502634 -7.50259 h -7.55811 -7.55811 v 7.558096 7.558096 h -7.5581 -7.55811 v 7.558096 7.558093 h 7.5026 7.50265 z m 212.55477,-0.290494 v -7.558096 h -7.55811 -7.55811 v 7.558096 7.558099 h 7.55811 7.55811 z m -90.93258,90.987949 -0.34631,-7.26742 -7.26743,-0.34631 -7.26739,-0.34631 v -15.06073 -15.06073 h 14.53482 14.53483 v 7.52435 7.52438 l 15.40693,0.32434 15.40693,0.32433 0.34455,7.21302 0.34455,7.21306 -7.90288,0.34499 -7.90288,0.34499 -0.34631,7.26743 -0.3463,7.26738 H 287.79036 273.3665 Z M 379.0699,188.9197 v -7.59286 l 14.82554,0.32522 14.82554,0.32521 0.34631,7.26742 0.34631,7.26739 h -15.17172 -15.17172 z m 45.34868,0.0352 v -7.5581 h 15.11626 15.11621 v -7.55809 -7.5581 h 7.55811 7.55811 v -7.55814 -7.55809 h -7.55811 -7.55811 v -7.5581 -7.5581 h 15.11622 15.11625 v -7.55809 -7.5581 h 7.55811 7.55811 v 30.23239 30.23242 h -7.55811 -7.55811 v -7.55809 -7.5581 h -7.5581 -7.55815 v 15.11619 15.11619 h -22.67432 -22.67437 z m -288.13587,-29.94171 0.34631,-7.26743 7.21333,-0.34499 7.21334,-0.34499 0.34455,-7.21333 0.34499,-7.21332 7.26744,-0.34631 7.26739,-0.34631 v 7.6136 7.61356 h -7.55811 -7.55811 v 7.5581 7.55814 h -7.61361 -7.61357 z m 45.34868,0 0.34631,-7.26743 7.26739,-0.34631 7.26744,-0.34631 v 7.61361 7.6136 h -7.61362 -7.61356 z m 212.55477,-0.34631 v -7.6136 l 7.26739,0.3463 7.26743,0.34631 0.34631,7.26743 0.34631,7.26742 h -7.61361 -7.61357 z m 30.23242,-15.06073 v -7.5581 h 7.55815 7.55811 v 7.5581 7.55809 h -7.55811 -7.55815 z M 0.00145028,128.48992 v -7.5581 H 15.117663 30.233876 v 7.5581 7.55809 H 15.117663 0.00145028 Z m 45.34868272,0 v -7.5581 h 15.116213 15.116213 v 7.5581 7.55809 H 60.466346 45.350133 Z m 348.836027,-0.0554 v -7.61356 l 7.26739,0.34631 7.26743,0.34631 0.34631,7.26738 0.34631,7.26743 h -7.61361 -7.61357 z M 0.00145028,52.909 V 0.00228528 H 52.90824 105.81503 V 52.909 105.81572 H 52.90824 0.00145028 Z m 90.69736572,0 V 15.118477 H 52.90824 15.117663 V 52.909 90.699524 H 52.90824 90.698816 Z m -60.46494,0 V 30.234713 H 52.90824 75.582559 V 52.909 75.583332 H 52.90824 30.233876 Z M 243.02385,98.25762 v -7.558096 h 6.97672 6.97672 v 7.558096 7.5581 h -6.97672 -6.97672 z m 30.23247,0 v -7.558096 h -7.55811 -7.5581 V 68.025192 45.350905 h 14.53482 14.53483 V 52.909 60.467096 h -7.5581 -7.55811 v 7.558096 7.55814 h 7.55811 7.5581 v 15.116192 15.116196 h -6.97672 -6.97672 z M 394.18616,52.909 V 0.00228528 h 52.90679 52.90679 V 52.909 105.81572 h -52.90662 -52.90679 z m 90.69736,0 V 15.118477 H 447.09295 409.30237 V 52.909 90.699524 h 37.79058 37.79057 z m -60.46494,0 V 30.234713 h 22.67437 22.67432 V 52.909 75.583332 H 447.09295 424.41858 Z M 363.95369,37.792809 v -7.558096 h 7.5581 7.55811 v 7.558096 7.558096 h -7.55811 -7.5581 z m 1.7e-4,-30.2311973 V 0.00351582 h 7.55811 7.55811 V 7.5616117 15.119708 h -7.55811 -7.55811 z" />
</svg>