<svg id="ORLENKDR" width="500" height="500" viewBox="0 0 500 500" version="1.1" xml:space="preserve" xmlns:xlink="http://www.w3.org/1999/xlink" xmlns="http://www.w3.org/2000/svg" xmlns:svg="http://www.w3.org/2000/svg">
	<path id="000" style="fill:#000000;stroke:#000000;stroke-width:0" d="M 0,447.09228 V 394.1858 h 52.906762 52.906758 v 52.90691 52.90694 H 52.906762 0 Z m 90.697318,0 V 409.30161 H 52.906762 15.116205 v 37.79067 37.79067 h 37.790557 37.790556 z m -60.464908,0 v -22.67437 h 22.674352 22.674307 v 22.67437 22.67438 H 52.906762 30.23241 Z m 90.69732,37.79067 v -15.11629 h 7.55814 7.55811 V 454.6504 439.53415 h -7.55811 -7.55814 v -15.1158 -15.1163 h 7.55814 7.55811 v -7.50266 -7.50262 l -7.26743,-0.34631 -7.26739,-0.34631 -0.34631,-7.26746 -0.34631,-7.26745 H 98.199695 75.58085 v -7.55786 -7.55813 h -7.558103 -7.558102 v -7.55814 -7.55814 H 45.348439 30.23219 v -7.55813 -7.55813 h 15.116249 15.116206 v -7.50265 -7.50265 l -7.267432,-0.34618 -7.267388,-0.34618 -0.315985,-22.3837 -0.315985,-22.38371 h 7.583241 7.583197 V 258.13937 243.0231 h 45.293197 45.29315 l 0.34631,7.26744 0.34631,7.26744 7.21333,0.34477 7.21333,0.34477 0.34499,7.21336 0.345,7.21335 7.26738,0.34618 7.26743,0.34618 v -7.61362 -7.61362 h 7.5026 7.50264 l 0.34631,7.26744 0.34631,7.26743 22.32879,0.31564 22.32879,0.31563 0.34543,7.24252 0.34543,7.24252 14.77095,0.32504 14.77091,0.32504 0.34543,7.2331 0.34543,7.23311 h 7.5581 7.5581 l 0.34631,-7.26744 0.34631,-7.26744 h 6.92125 6.92121 v 15.11627 15.11627 H 272.72713 243.1292 l -0.34367,-7.84883 -0.34368,-7.84883 -7.21333,-0.34477 -7.21333,-0.34477 -0.34499,-7.21336 -0.34455,-7.21335 h -7.5581 -7.55811 v 15.11627 15.11626 l 14.77091,0.32504 14.77095,0.32504 0.34543,7.23311 0.34543,7.2331 14.77095,0.32504 14.77091,0.32504 0.34543,7.2331 0.34543,7.23311 7.21333,0.34477 7.21333,0.34477 0.34455,7.21336 0.34499,7.21335 15.40692,0.32443 15.40692,0.32446 v -15.15001 -15.15002 h -7.5581 -7.5581 v -7.55822 -7.55813 h 15.1162 15.11621 v -7.55814 -7.55813 h 7.55815 7.5581 v 7.55813 7.55814 h 15.1162 15.11621 v -7.55814 -7.55813 h 22.70907 22.70907 l -0.32522,14.82557 -0.32521,14.82557 -7.21333,0.34477 -7.21333,0.34477 -0.34455,7.21336 -0.34499,7.21335 -7.26744,0.34618 -7.26738,0.34618 v 7.50265 7.50265 h 7.5581 7.5581 v -7.55814 -7.55813 h 7.5581 7.55811 v -7.55813 -7.55814 h 15.11625 15.1162 v -7.55811 -7.55813 h 7.5581 7.55811 v -7.55814 -7.55813 h 7.55814 7.5581 v -7.55813 -7.55814 H 492.4419 500 v 22.6744 22.67441 h -7.5581 -7.55811 v 7.55813 7.55813 h -7.5581 -7.55814 v -7.55813 -7.55813 h -7.55811 -7.5581 v 22.6744 22.67439 h 7.5581 7.55811 v 7.55813 7.55817 h 7.55814 7.5581 V 379.0695 363.95325 H 492.4419 500 v 15.11625 15.1163 h -7.5581 -7.55811 v 7.55813 7.55812 H 492.4419 500 v 15.1163 15.11624 h -7.5581 -7.55811 v -7.55816 -7.55808 h -7.5581 -7.55814 v 7.55808 7.55816 h -7.55811 -7.5581 v -7.55816 -7.55808 h -7.5581 -7.5581 v 7.55808 7.55816 h -15.11625 -15.11621 v 15.11625 15.11626 h 7.5581 7.55811 v -7.55813 -7.55813 h 22.67435 22.67431 v 7.55813 7.55813 h -22.67431 -22.67435 v 15.11629 15.11626 h -7.55811 -7.5581 V 484.88339 469.7671 h -7.5581 -7.5581 v 7.55812 7.55817 h -7.55811 -7.55814 v 7.55813 7.55813 h -7.5581 -7.55811 V 484.88339 469.7671 h -15.1162 -15.11625 v 7.55812 7.55817 h 7.55814 7.55811 v 7.55813 7.55813 h -7.55811 -7.55814 v -7.55813 -7.55813 h -7.5581 -7.55811 v 7.55813 7.55813 H 280.81481 243.02425 V 484.88339 469.7671 h -7.5581 -7.55811 v -7.55813 -7.55813 h -15.1162 -15.11625 v -7.50499 -7.50504 l -7.84877,-0.34367 -7.84882,-0.34368 -0.34455,-7.21335 -0.34499,-7.21331 -7.21333,-0.34456 -7.21334,-0.34499 -0.32565,-14.82558 -0.32521,-14.82558 h 7.59286 7.59287 v -7.55813 -7.55813 H 166.28041 151.1642 v 22.67439 22.67442 h 7.55811 7.5581 v 15.1163 15.11625 h -7.5581 -7.55811 v 15.11626 15.1163 h 15.11621 15.11625 V 492.44187 500 H 166.28041 151.1642 v -7.55813 -7.55812 h -7.5581 -7.5581 V 492.44187 500 h -7.5581 -7.55815 z m 182.55745,-7.55817 v -7.55812 h 15.11621 15.1162 v -7.55813 -7.55813 h 7.55815 7.5581 v -7.55812 -7.55813 h 7.5581 7.5581 v -7.55816 -7.55808 h -7.5581 -7.5581 v 7.55808 7.55816 h -7.5581 -7.55815 v -7.55816 -7.55808 h -7.5581 -7.5581 v -7.55773 -7.55813 h 7.5581 7.5581 v -7.55812 -7.55813 h 7.55815 7.5581 v 7.55813 7.55812 h 7.5581 7.5581 v -7.55812 -7.55813 h -7.5581 -7.5581 v -7.55817 -7.55813 h 7.5581 7.5581 v -7.55812 -7.55813 h -7.5581 -7.5581 v -7.55814 -7.55814 h -7.50264 -7.50264 l -0.34631,7.26744 -0.34631,7.26744 -7.26739,0.34618 -7.26743,0.34618 v 7.50265 7.50264 h 7.61361 7.61357 l -0.34631,7.26746 -0.34631,7.26741 -14.82554,0.32521 -14.82549,0.32522 v -7.59285 -7.59289 H 273.2542 243.02175 v -7.55768 -7.55813 h -8.13949 -8.13949 v 7.55813 7.55812 h -14.53482 -14.53486 v -7.50263 -7.50266 l 7.26743,-0.34617 7.26743,-0.34618 0.34499,-7.21336 0.34455,-7.21335 7.21333,-0.34477 7.21333,-0.34478 0.34631,-7.26743 0.34631,-7.26744 h -15.17171 -15.17171 v -7.50503 -7.50501 l -7.84877,-0.3438 -7.84882,-0.34385 -0.34455,-7.21308 -0.34499,-7.21307 7.90287,-0.34508 7.90287,-0.34504 v -7.55813 -7.55814 h -7.5581 -7.5581 l -0.34455,7.21335 -0.34499,7.21336 -7.21333,0.34477 -7.21334,0.34477 -0.34367,7.84883 -0.34367,7.84884 h -7.50501 -7.50497 v 7.61362 7.61361 l -7.26744,-0.34617 -7.26738,-0.34618 -0.32522,-14.82557 -0.32521,-14.82558 h 7.59282 7.59287 v -15.75314 -15.75315 l -7.26744,0.34618 -7.26738,0.34617 -0.34631,7.26744 -0.34631,7.26744 H 113.31638 90.697538 v -6.97674 -6.97674 h 7.558103 7.558099 v -8.13953 -8.13953 H 90.697538 75.581289 v 30.81393 30.81394 h 7.558147 7.558102 v 7.55813 7.55813 h 7.558103 7.558099 v 7.55814 7.55813 H 90.697538 75.581289 v 7.55814 7.55813 h 22.674352 22.674309 v 7.55814 7.55814 h 7.55814 7.55811 v -7.55812 -7.55813 h 7.5581 7.5581 v -7.55814 -7.55814 h 7.5581 7.55811 v 7.55814 7.55814 h 7.55814 7.55811 v 7.55813 7.55812 h 7.5581 7.5581 v 7.59188 7.59192 l 15.40692,-0.32433 15.40692,-0.32434 0.34631,-7.26745 0.34631,-7.26746 h 6.92125 6.92121 v 7.55817 7.55813 h 15.11621 15.11625 v 15.11625 15.1163 h 8.13949 8.13949 v -7.55817 -7.55813 h 6.97671 6.97672 v 22.67438 22.67441 h -6.97672 -6.97671 v -7.55813 -7.55812 h -22.67431 -22.67435 v -7.55816 -7.55808 h -7.55811 -7.5581 v -7.55817 -7.55813 h -8.13949 -8.13953 v 15.1163 15.11624 h 15.11625 15.1162 v 7.55812 7.55813 h 15.11621 15.11625 v 15.11626 15.11629 h 15.69759 15.69763 z m 15.11621,-30.2325 v -7.55813 h 7.5581 7.5581 v 7.55813 7.55812 h -7.5581 -7.5581 z M 182.16983,363.17761 c -0.42629,-0.42634 -0.77519,-3.82751 -0.77519,-7.55813 v -6.78295 h 7.5581 7.5581 v 7.55814 7.55814 h -6.78291 c -3.73059,0 -7.13176,-0.34882 -7.5581,-0.7752 z m -60.46491,-15.11627 c -0.42629,-0.42634 -0.77519,-3.82752 -0.77519,-7.55813 v -6.78294 h 7.55814 7.55811 v 7.55813 7.55813 h -6.78295 c -3.7306,0 -7.13172,-0.34881 -7.55811,-0.77519 z M 91.472514,317.82881 c -0.426294,-0.42634 -0.775196,-3.82752 -0.775196,-7.55814 v -6.78294 h 7.558103 7.558099 v 7.55813 7.55814 h -6.782903 c -3.730599,0 -7.131765,-0.34886 -7.558103,-0.77519 z M 379.06825,462.20853 v -7.55813 h -7.5581 -7.55811 v 7.55813 7.55813 h 7.55811 7.5581 z m -181.62985,-45.63946 0.34631,-7.26746 h -8.19495 -8.19499 v 7.61126 7.61126 l 7.84877,-0.34367 7.84882,-0.34367 z M 424.41691,401.74349 V 379.06906 H 401.7426 379.06825 v 22.67443 22.67442 h 22.67435 22.67431 z m -30.23241,0 v -7.55813 h 7.5581 7.5581 v 7.55813 7.55812 h -7.5581 -7.5581 z m 75.58107,7.55812 v -15.11625 h -7.5581 -7.55811 v -7.55817 -7.55813 h -7.5581 -7.5581 v 7.55813 7.55817 h 7.5581 7.5581 v 15.11625 15.1163 h 7.55811 7.5581 z m -30.23241,-52.90694 v -7.55814 h -7.5581 -7.55815 v 7.55814 7.55814 h 7.55815 7.5581 z M 394.1845,341.2784 v -7.55813 h 7.5581 7.5581 v -7.5577 -7.55813 h -15.1162 -15.11625 v 15.11627 15.11626 h 7.55815 7.5581 z m 90.69732,-15.11627 v -7.55769 h -7.55811 -7.55814 v 7.55813 7.55814 h 7.55814 7.55811 z M 197.67361,492.44108 v -7.55813 h 7.55815 7.5581 v -7.55817 -7.55812 h 6.97672 6.97672 v 15.11629 15.11626 h -14.53482 -14.53487 z m 241.85955,0 v -7.55813 h 15.1162 15.11621 v 7.55813 7.55813 h -15.11621 -15.1162 z m 45.34866,0 v -7.55813 h 7.5581 7.5581 v 7.55813 7.55813 h -7.5581 -7.5581 z m -302.71199,-8.33332 c -0.42629,-0.4263 -0.77519,-3.82752 -0.77519,-7.55813 v -6.78297 h 7.5581 7.5581 v 7.55812 7.55817 h -6.78291 c -3.73059,0 -7.13176,-0.34894 -7.5581,-0.77519 z M 0,371.51138 v -7.55813 H 15.116205 30.23241 v 7.55813 7.55812 H 15.116205 0 Z m 0,-45.34881 v -7.55813 h 7.5581025 7.5581025 v -8.13953 -8.13953 H 7.5581025 0 v -6.97674 -6.97674 H 15.116205 30.23241 v 15.11627 15.11627 h -7.558102 -7.558103 v 7.55813 7.55814 H 7.5581025 0 Z m 318.60339,-30.81393 v -6.97674 h 7.5581 7.5581 v 6.97674 6.97674 h -7.5581 -7.5581 z m 29.9765,-7.84883 -0.32522,-14.82557 -7.26743,-0.34618 -7.26743,-0.34618 v -6.92126 -6.92125 h 22.67435 22.67431 v 22.09301 22.09301 h -15.08144 -15.08149 z m 75.60181,7.55813 -0.34631,-7.26744 -14.82553,-0.32543 -14.82549,-0.32544 v -6.942 -6.942 h 7.5581 7.5581 v -7.55813 -7.55814 h 7.5581 7.55811 v 7.55814 7.55813 h 7.55814 7.55811 v -7.55813 -7.55814 h 7.5581 7.5581 v -7.55813 -7.55814 h 7.5581 7.55811 v -22.6744 -22.6744 h 15.11625 15.1162 v 6.97674 6.97674 h -7.5581 -7.5581 v 15.69766 15.69766 h 7.5581 7.5581 v 14.53488 14.53487 h -7.5581 -7.5581 v 7.55814 7.55813 h -7.55811 -7.55814 v -7.55813 -7.55814 h -7.55811 -7.5581 v 15.11627 15.11627 h -15.06074 -15.06074 z m -120.69452,-22.3837 v -14.53488 h 7.5581 7.55811 v 14.53488 14.53487 h -7.55811 -7.5581 z M 0,257.55797 v -14.53488 h 7.5581025 7.5581025 v -15.11626 -15.11628 h 45.348659 45.348656 v 6.97674 6.97674 H 83.139216 60.464864 v 7.55814 7.55814 h -7.558102 -7.558103 v -7.55814 -7.55814 H 37.790557 30.23241 v 8.13954 8.13952 h 7.558147 7.558102 v 14.53488 14.53487 H 22.674308 0 Z m 166.27839,-7.55814 v -6.97674 h 7.55814 7.55811 v 6.97674 6.97674 h -7.55811 -7.55814 z m 31.39522,0.0555 v -6.92126 l 7.26743,-0.34618 7.26744,-0.34618 0.34631,-7.26743 0.3463,-7.26744 h 6.86575 6.86575 l 0.34631,7.26744 0.34631,7.26743 7.26739,0.34618 7.26743,0.34618 v 6.92126 6.92125 h -22.09292 -22.09297 z m 60.20896,-7.90432 -0.32521,-14.82557 -7.26744,-0.34618 -7.26743,-0.34618 V 212.15369 197.6743 h 6.92126 6.92121 l 0.34631,7.26744 0.34631,7.26744 7.23306,0.3453 7.23306,0.3453 0.32522,14.77097 0.32521,14.77098 14.82554,0.32544 14.82549,0.32543 v 6.942 6.942 H 280.267 258.20879 Z m 60.72082,-7.26744 v -22.09301 h 7.5581 7.5581 v 22.09301 22.09301 h -7.5581 -7.5581 z m 60.46486,0 v -22.09301 h 7.55815 7.5581 v 7.55814 7.55813 h 15.1162 15.11621 v -7.55813 -7.55814 h 7.55815 7.5581 v 14.53488 14.53487 H 424.41691 409.3007 v 7.55813 7.55814 h -15.1162 -15.11625 z m -227.90607,0 v -6.97674 h 7.55811 7.5581 v 6.97674 6.97674 h -7.5581 -7.55811 z m 30.23246,0 v -6.97674 h 7.5581 7.5581 v 6.97674 6.97674 h -7.5581 -7.5581 z m 167.4412,-8.13953 v -15.11627 h -7.5581 -7.55815 v -6.97674 -6.97674 h 22.67435 22.67431 v 6.97674 6.97674 h -7.5581 -7.55811 v 15.11627 15.11627 h -7.5581 -7.5581 z M 120.92973,219.7673 v -6.97674 h 15.11625 15.1162 v 6.97674 6.97674 h -15.1162 -15.11625 z M 0,204.651 v -6.97674 h 7.5581025 7.5581025 v 6.97674 6.97674 H 7.5581025 0 Z m 197.4384,-0.29071 -0.3463,-7.26744 -7.90288,-0.34508 -7.90287,-0.34503 0.34499,-7.21308 0.34455,-7.21308 7.90287,-0.34508 7.90288,-0.34503 -0.34455,-7.21308 -0.34499,-7.21307 -7.84882,-0.34385 -7.84878,-0.34381 v 7.61127 7.61126 h -7.5581 -7.55814 v 7.55813 7.55814 h -7.59283 -7.59286 l 0.32521,-14.82557 0.32522,-14.82557 7.21333,-0.34478 7.21333,-0.34477 0.34499,-7.21335 0.34499,-7.21336 7.21333,-0.34477 7.21334,-0.34477 0.34499,-7.21336 0.34455,-7.21335 7.26738,-0.34618 7.26744,-0.34618 v 7.61362 7.61362 h 22.67435 22.67431 v 7.55813 7.55814 h 8.13948 8.13954 v -7.55814 -7.55813 h 6.97671 6.97672 v 15.11627 15.11627 h 8.13949 8.13949 v -7.55813 -7.55814 h 6.97671 6.97672 v 15.11627 15.11627 h -22.03742 -22.03746 l -0.3463,-7.26744 -0.34631,-7.26744 -14.77095,-0.32504 -14.77091,-0.32504 -0.34543,-7.2331 -0.34543,-7.2331 h -7.5581 -7.55811 v 15.11627 15.11626 l 7.26739,0.34618 7.26743,0.34618 v 6.92125 6.92126 h -14.47935 -14.47936 z m 106.04878,0.29071 v -6.97674 h 7.5581 7.55811 v 6.97674 6.97674 h -7.55811 -7.5581 z m 105.81352,-0.58139 v -7.55811 h -15.1162 -15.11625 v -7.55814 -7.55813 h -15.11621 -15.1162 v -7.55813 -7.55814 h -7.5581 -7.55815 v 15.11627 15.11627 h -7.5581 -7.5581 v -22.6744 -22.67441 h -7.55811 -7.5581 v -7.55813 -7.55814 h 7.5581 7.55811 v -15.11627 -15.11626 h -7.55811 -7.5581 v -7.613625 -7.61362 l 7.26739,0.346178 7.26743,0.346178 0.34631,7.267438 0.34631,7.267441 h 7.50264 7.50259 v -7.55814 -7.558135 h -7.5581 -7.5581 v -7.558132 -7.558136 h -7.5581 -7.55811 V 60.409581 45.237829 l 7.26739,0.346178 7.26743,0.346178 0.32522,14.770978 0.32477,14.770977 7.23311,0.345299 7.23306,0.345299 0.345,7.213355 0.34499,7.213356 7.21333,0.344771 7.21333,0.344772 0.32521,14.825578 0.32522,14.82556 h -7.59287 -7.59286 v 7.53851 7.5385 l 29.94174,0.31032 29.94178,0.31032 0.34631,7.26743 0.34631,7.26744 h -7.61361 -7.61361 v 15.11627 15.11627 h 15.11625 15.1162 v -7.61362 -7.61362 l 7.26744,0.34618 7.26738,0.34618 0.31599,22.3837 0.31598,22.38371 h -7.58319 -7.58324 z M 15.116205,188.95334 V 181.3952 H 7.5581025 0 V 151.16269 120.93015 H 15.116205 30.23241 v 7.55814 7.55813 h -7.558102 -7.558103 v 15.11627 15.11627 h 7.558103 7.558102 v -7.55814 -7.55813 h 7.558147 7.558102 v 7.55813 7.55814 H 37.790557 30.23241 v 15.11627 15.11627 h -7.558102 -7.558103 z m 30.467663,0.29072 0.346309,-7.26744 7.213332,-0.34477 7.213331,-0.34477 0.344551,-7.21336 0.344991,-7.21336 7.267431,-0.34617 7.267388,-0.34618 v 7.61361 7.61362 h 22.618846 22.618843 l 0.34631,-7.26743 0.34631,-7.26744 7.26739,-0.34617 7.26743,-0.34618 v 7.61361 7.61362 h -7.5581 -7.55815 v 7.55814 7.55813 H 83.084061 45.238043 Z m 409.065492,-0.34618 v -7.61362 l 7.26743,0.34618 7.26739,0.34617 0.34631,7.26744 0.34631,7.26744 h -7.61356 -7.61361 z m 30.23246,-15.06078 v -7.55814 h -15.11625 -15.11621 v -15.11627 -15.11627 h -7.5581 -7.5581 v -7.55813 -7.55814 h 30.23241 30.23245 v 15.11627 15.11627 h -7.5581 -7.5581 v 7.55813 7.55814 h 7.5581 7.5581 v 7.55814 7.55813 h -7.5581 -7.5581 z m 0,-30.23254 v -7.55814 h -7.55811 -7.55814 v 7.55814 7.55813 h 7.55814 7.55811 z m -393.949293,15.40696 0.346309,-7.26744 7.267388,-0.34617 7.267436,-0.34618 v -7.50265 -7.50265 H 98.255553 90.69745 v 7.55813 7.55814 h -7.558102 -7.558147 v -7.55814 -7.55813 h -7.558102 -7.558103 v -7.55813 -7.55814 h 22.674352 22.674312 v 7.55814 7.55813 h 7.5581 7.5581 v 7.55813 7.55814 h -7.5581 -7.5581 v 7.55813 7.55814 h -7.613613 -7.613565 z m 333.484383,-0.34618 v -7.61362 l 7.26743,0.34618 7.26743,0.34618 0.34631,7.26744 0.34631,7.26743 h -7.61361 -7.61361 z m -288.13572,-14.77008 0.34631,-7.26744 14.7709,-0.32504 14.77095,-0.32504 0.34543,-7.2331 0.34543,-7.2331 7.26739,-0.34618 7.26743,-0.34618 V 105.75839 90.697609 h -7.5581 -7.55815 v 7.558136 7.558135 h -7.5581 -7.5581 v 7.55813 7.55814 h -7.5581 -7.55811 v -7.55813 -7.55813 h -7.5581 -7.55815 V 90.697613 75.581346 h 7.55815 7.5581 v 15.116267 15.116277 h 7.5026 7.50264 l 0.34631,-7.267443 0.34631,-7.267437 7.21333,-0.344772 7.21333,-0.344772 0.34499,-7.213355 0.34499,-7.213356 15.40688,-0.324467 15.40692,-0.324424 v -7.524402 -7.524384 h 7.55814 7.55811 v -7.558135 -7.558136 h 7.5581 7.5581 v -7.558132 -7.558136 h 7.5581 7.55811 v -7.558136 -7.558136 h 6.97671 6.97672 v 7.558136 7.558136 h 7.55815 7.5581 v 7.558136 7.558132 h -7.5581 -7.55815 v 15.116271 15.116268 h -6.97672 -6.97671 V 68.02321 60.465078 h -8.13949 -8.13949 v 7.558132 7.558136 h 7.5581 7.55811 v 7.558136 7.558131 h -7.55811 -7.5581 v 15.116277 15.11626 h 15.69759 15.69764 v -7.55813 -7.55813 h 7.5581 7.5581 v -7.558141 -7.558136 h -7.5581 -7.5581 v -7.558131 -7.558136 h 22.09292 22.09292 v 7.502647 7.502652 l -7.26739,0.346178 -7.26743,0.346178 -0.32521,14.825569 -0.32522,14.82557 h 7.59287 7.59282 v 7.55814 7.55813 h -52.32538 -52.32537 v -7.55813 -7.55814 h 7.59286 7.59287 l -0.32522,-14.82557 -0.32521,-14.825569 -7.84882,-0.343805 -7.84881,-0.343805 v 15.169399 15.16939 h -7.55811 -7.5581 v 7.55814 7.55813 h -7.5581 -7.55815 v 7.55814 7.55813 H 151.10865 135.93694 Z M 409.3007,128.48829 v -7.55813 h 7.55811 7.5581 v 7.55813 7.55813 h -7.5581 -7.55811 z M 0,52.906943 V 0 H 52.906762 105.81352 V 52.906943 105.81389 H 52.906762 0 Z m 90.697318,0 V 15.116267 H 52.906762 15.116205 v 37.790676 37.79067 h 37.790557 37.790556 z m -60.464908,0 V 30.232539 H 52.906762 75.581069 V 52.906943 75.581346 H 52.906762 30.23241 Z m 212.78986,45.348806 v -7.558136 h 6.97672 6.97672 v 7.558136 7.558141 h -6.97672 -6.97672 z M 363.95204,90.697613 V 75.581346 h -15.1162 -15.11625 V 60.465078 45.348807 h -7.5581 -7.5581 v -7.558132 -7.558136 h -22.67431 -22.67435 v -7.558136 -7.558136 h 15.1162 15.11625 V 7.5581359 0 h 7.5581 7.55811 v 7.5581359 7.5581311 h 7.5581 7.5581 V 7.5581359 0 h 22.67435 22.67431 v 7.5581359 7.5581311 h -15.11621 -15.1162 v 7.558136 7.558136 h 7.5581 7.5581 v 7.558136 7.558132 h 7.55811 7.5581 v 30.232539 30.232544 h -7.5581 -7.55811 z m -15.1162,-52.906938 v -7.558136 h -7.5581 -7.55815 v 7.558136 7.558132 h 7.55815 7.5581 z M 394.1845,52.906943 V 0 h 52.90676 52.90676 V 52.906943 105.81389 H 447.09126 394.1845 Z m 90.69732,0 V 15.116267 H 447.09126 409.3007 v 37.790676 37.79067 h 37.79056 37.79056 z m -60.46491,0 V 30.232539 h 22.67435 22.67431 V 52.906943 75.581346 H 447.09126 424.41691 Z M 120.92973,30.232539 V 0 h 22.67435 22.67431 v 15.116267 15.116272 h 7.55814 7.55811 v 15.116268 15.116271 h -7.55811 -7.55814 v -7.558135 -7.558136 h -7.5581 -7.55811 v 7.558136 7.558135 h -15.1162 -15.11625 z m 30.23245,7.558136 v -7.558136 h -7.5581 -7.5581 v 7.558136 7.558132 h 7.5581 7.5581 z m 46.51143,0 v -7.558136 h 6.97672 6.97672 v 7.558136 7.558132 h -6.97672 -6.97672 z M 181.39464,7.5581359 V 0 h 7.5581 7.5581 v 7.5581359 7.5581311 h -7.5581 -7.5581 z m 76.74388,0 V 0 h 6.97672 6.97672 v 7.5581359 7.5581311 h -6.97672 -6.97672 z" />
</svg>