<svg id="ORLEN" width="500" height="500" viewBox="0 0 500 500" version="1.1" xml:space="preserve" xmlns:xlink="http://www.w3.org/1999/xlink" xmlns="http://www.w3.org/2000/svg" xmlns:svg="http://www.w3.org/2000/svg">
	<path id="7897155052172957" style="fill:#000000;stroke:#000000;stroke-width:0" d="M 0.00687375,379.53612 H 120.44121 V 499.96587 H 0.00687375 Z M 103.41008,396.56656 H 17.037983 v 86.36883 H 103.41008 Z M 34.677364,414.20529 H 85.770717 V 465.2967 H 34.677364 Z m 103.403206,51.69965 h 17.03113 v 34.06093 h -17.03113 z m 34.67049,-34.70353 16.72698,0.33827 0.33839,16.72635 H 224.486 l -0.33747,-17.33455 -34.33215,-0.32315 -0.33838,-16.70749 -16.72699,-0.33826 v -16.99613 h 17.03113 V 379.536 h 17.03111 v 17.06386 l 17.33523,-0.33751 v -17.03049 l -17.33523,-0.33751 v -16.35546 l 17.33523,-0.33751 v -34.66916 l -17.36935,-0.33773 0.33842,-16.69275 68.39513,-0.31427 0.33748,17.3447 17.36934,0.33774 -0.33838,16.69273 -17.36844,0.33771 0.33748,17.30098 17.35442,0.33766 -0.16161,16.86163 -0.16161,16.86165 h -34.06223 l -0.31404,-69.0342 h -17.02108 v 104.00766 h 17.03113 v -17.03044 h 17.03111 v 51.09137 h -17.03111 v -17.03044 h -17.03113 v 17.03044 h -34.63709 l -0.33748,17.33459 -16.69289,0.33827 -0.33838,16.69221 L 172.75115,500 Z m 68.73273,51.73398 h 17.03113 v 17.03048 h -17.03113 z m 34.6705,-17.03155 h 17.05036 l -0.32322,33.7568 -16.72698,0.33826 z m 34.46774,33.65547 c -0.223,-0.223 -0.40551,-8.0236 -0.40551,-17.33463 V 465.2956 h -17.06546 l 0.33839,-16.72634 33.72458,-0.32315 0.33747,17.35375 17.36937,0.33789 -0.33838,16.69274 -17.33525,0.33751 v 16.99708 h -8.11004 c -4.46054,0 -8.29255,-0.18255 -8.51557,-0.40547 z m 34.26499,-16.62502 h 34.06223 v 17.03048 h -34.06223 z m 51.70159,0.034 8.66766,-0.16857 8.66759,-0.16895 0.15874,-25.50562 c 0.12473,-20.00086 -0.008,-25.6107 -0.60824,-25.99258 -0.4219,-0.26797 -23.8275,-0.49111 -52.0125,-0.49625 l -51.24543,-0.008 v -16.40331 l 34.36638,-0.32315 0.33747,-17.33459 H 327.85577 V 362.5406 l 16.72698,-0.33841 0.33748,-17.33459 h -17.03111 l -0.33748,-17.33458 -34.36634,-0.32308 v -34.04099 h 17.03111 v 17.03046 h 17.63938 v -16.99706 l -17.33527,-0.33751 -0.32322,-34.36505 h -17.01205 v -17.03233 h 51.70161 v -17.03047 h 17.03111 v 17.03047 h 34.67048 v 17.03047 h 51.70164 v -17.01727 l -51.3975,-0.31733 -0.33751,-17.33458 h -16.99771 v -34.06093 h 34.06224 v 17.03046 h 16.99775 l 0.33751,17.33459 17.30166,0.33732 0.33751,-17.36777 17.03108,-0.60823 0.33827,-16.72635 h 34.02788 v 34.04198 l -34.36634,0.32308 v 51.69963 l 17.33526,0.33751 v 16.99707 h 17.03108 v 34.06092 h -17.03108 v -17.06387 l -17.33526,0.33752 -0.32315,34.39924 -16.70801,-0.33834 -0.31407,-69.06754 -17.32521,0.33747 -0.32315,34.36504 h -16.38497 l -0.32315,-34.36504 -69.03686,-0.31415 V 258.465 l -17.33525,0.33751 v 17.03047 l 17.33525,0.33751 v 34.06093 l 17.33523,-0.33752 0.33842,-16.72634 h 34.02788 v 16.99705 l -17.33522,0.33752 v 34.06092 l 69.00348,0.31416 0.33751,17.32454 h 34.06224 l 0.33751,-17.33457 h 16.99771 v 34.04199 l -34.36634,0.32315 -0.33789,17.36867 -16.69338,-0.33826 -0.60824,-17.03045 -8.16416,-0.17046 c -6.12321,-0.12775 -8.28775,0.0227 -8.65833,0.60824 -0.56791,0.89496 -0.70144,32.11965 -0.14362,33.57337 0.31219,0.81343 1.67509,0.96212 8.81972,0.96212 h 8.45045 v 17.03048 h 17.03112 v 8.51521 8.51524 h -17.03112 v 16.99707 l -17.33522,0.33752 v 17.03044 l 17.33522,0.33751 v 16.99708 h -51.70159 c 9.8e-4,-5.6662 9.4e-4,-11.33235 9.4e-4,-16.99855 z m 17.33525,-120.76557 h -51.70162 l -0.15885,25.24121 c -0.0874,13.88263 -0.0265,25.58647 0.13565,26.00845 0.23187,0.60431 5.7564,0.73361 26.00971,0.60862 l 25.7153,-0.15874 z m -34.36634,17.33183 h 17.06544 l -0.33827,16.72634 -16.72701,0.33827 z m 0,86.36878 h 17.06544 l -0.33827,16.72635 -16.72701,0.33827 z m 69.13823,16.62498 c -0.64215,-5.48481 -0.40551,-11.09734 -0.40551,-16.62498 h 17.03112 v 17.03049 h -8.11007 c -4.46053,0 -8.29251,-0.18255 -8.51554,-0.40551 z m 34.564,-0.33713 c -0.51745,-5.5053 -0.49179,-11.06303 -0.60321,-16.59202 l -16.72698,-0.33827 v -16.99617 h 17.06453 L 482.65658,430.9302 465.9296,430.59193 V 396.56531 H 500 l -0.31219,86.06465 -8.07167,0.17008 c -6.12578,0.12888 -8.14027,-0.0189 -8.35631,-0.60824 z M 362.5264,448.26459 h 16.42285 v 17.03045 H 362.5264 Z M 138.08057,414.20521 h 34.06224 v 16.38793 l -16.727,0.33826 -0.33747,17.33459 h -16.99773 z m 155.10484,-17.63869 h 17.03111 v 17.03049 h -17.03111 z m -137.66823,-0.40546 c -0.22299,-0.223 -0.40548,-4.05491 -0.40548,-8.51525 v -8.10973 h 17.03111 v 17.03044 h -8.11006 c -4.46055,0 -8.29253,-0.18255 -8.51557,-0.40546 z m -17.43661,-33.65547 h 17.03113 v 16.42225 H 138.08057 Z M 0.31090509,258.80228 34.069003,258.47893 v 17.01538 l -16.726988,0.33842 -0.33748,17.33459 h 17.064514 v 17.03046 H 51.70843 v -17.03045 -17.03047 h 17.031111 v 17.03047 h 17.639377 v -17.03047 h 34.062242 v 17.03047 h -17.03113 v 17.03046 H 68.739541 v 16.99614 l -16.726988,0.33842 -0.608247,17.03046 -17.031134,0.60823 -0.3384,16.72635 H 0 Z m 51.39756991,86.09807 17.335231,-0.33751 0.338419,-16.72635 h 34.027915 v 17.03047 h 34.06222 v 17.03046 h -34.06222 v -17.06386 l -17.33523,0.33751 -0.338419,16.72635 H 51.708475 Z m 103.260625,-0.18542 -0.16161,-17.18253 -51.43174,-0.31733 0.33838,-16.71311 17.33526,-0.33752 v -16.99706 h 34.06225 v 17.03047 h 16.9977 l 0.33747,17.33457 34.36638,0.32308 v 34.04198 H 189.7821 v -17.03047 h -17.63939 v 17.03047 h -17.01215 z m 138.21631,0.15205 h 34.06223 v 17.03046 h -34.06223 z m 103.7073,-34.36505 16.72701,-0.33845 v 17.06479 h -17.06547 z m -224.44575,-17.03046 -17.03112,-0.60823 -0.32322,-34.36505 h -17.01217 v -17.03047 h 17.01217 l 0.32322,-34.36505 h 34.06225 v 51.0914 l -17.03112,0.60823 v 17.03047 l 34.33286,0.323 0.33747,-17.35347 34.36635,-0.32307 v -17.0115 h 34.06223 v 17.03047 h -17.03111 v 17.01152 l -34.36636,0.32308 -0.33748,17.33457 h -16.99772 v 17.03047 h -34.02792 z m 103.70733,-35.00761 16.72698,0.33842 v 34.06094 l -16.72698,0.33842 z M 34.677364,241.4677 h 17.031111 v 17.03047 H 34.677364 Z m 34.670488,0 h 16.422865 v 17.03047 H 69.347852 Z m 34.062228,0 h 17.03113 v 17.03047 h -17.03113 z m 379.55064,0 h 17.03112 v 17.03047 H 482.96072 Z M 0.42920718,241.07904 C 0.43141427,240.4086 0.00687375,189.76808 0.00687375,189.76808 H 17.037983 v -16.99707 l 17.335234,-0.33751 0.337939,-17.3687 16.693381,0.33823 v 34.06093 l -17.33526,0.33751 v 16.99707 H 17.05711 l -0.323225,34.36504 c -16.33120542,-0.0651 -16.30465295,-0.0845 -16.30465295,-0.0845 z m 51.68477382,-0.0166 c -0.222993,-0.22299 -0.405506,-4.05487 -0.405506,-8.51522 v -8.10976 h 17.031111 v 17.03047 h -8.110061 c -4.460516,0 -8.292526,-0.18247 -8.515544,-0.40549 z m 155.104829,0 c -0.22299,-0.22299 -0.40551,-4.05487 -0.40551,-8.51522 v -8.10976 h 17.03111 v 17.03047 h -8.11006 c -4.46051,0 -8.29253,-0.18247 -8.51554,-0.40549 z m -137.870958,-68.2905 16.726988,-0.33842 0.337474,-17.33459 h 16.997706 v -17.03047 h 17.03114 v 17.03047 h -17.06454 l 0.33748,17.33459 16.7611,0.33864 -0.33838,16.6918 -16.72698,0.33842 v 16.99614 h 17.03111 v 17.03047 H 69.347576 Z m 155.104828,34.02661 h 17.03111 v -51.68069 l -34.36637,-0.32308 v -51.0914 l 16.708,-0.33834 0.32323,34.39925 17.33523,0.33751 V 103.39924 H 224.48617 L 224.1487,86.064663 h -17.03113 l -0.33748,17.334577 h -16.96431 l -0.33747,-17.334577 -16.727,-0.338457 V 51.699609 h 17.03111 V 17.030458 H 138.0808 V 0 h 68.73273 v 17.030458 h 17.63938 V 0 h 51.09335 v 34.026597 l -16.72699,0.338442 -0.33748,17.334578 h 17.06453 V 85.760543 H 258.5152 V 68.730086 H 241.48406 V 51.699617 h -16.99772 l -0.33751,-17.33458 h -17.03111 v 34.669157 l 34.36638,0.323074 v 17.011519 h 17.03113 v 51.699633 h 51.70162 V 103.39926 H 293.18573 V 51.699624 h 34.06222 v 17.030469 h -17.06451 l 0.33748,17.334589 16.70811,0.338344 0.323,34.330834 h 17.03112 V 86.064709 L 327.85616,85.726252 V 69.338344 h 34.06222 v 85.760566 h 17.63941 v -17.03047 h 17.03112 v 17.01727 l 51.39749,0.31733 0.33827,16.69274 -17.36935,0.33773 -0.33751,17.33458 h -16.35606 l -0.33751,-17.33458 -86.06799,-0.31226 V 155.09896 H 258.5152 v 34.66915 h 17.03111 v 17.03047 H 258.5152 v 17.03047 h -34.06252 z m 51.70161,-0.0344 16.72698,0.33842 0.33838,16.72636 H 276.1542 Z m 34.36633,0.33846 17.33527,-0.33751 v -16.99709 h 34.06221 v 17.03047 H 344.887 v 17.03043 H 310.18217 Z M 293.18541,172.7376 h 17.03111 v 34.06093 h -17.03111 z m 138.07371,17.03047 h 17.03112 v 17.03046 h -17.03112 z m -292.77305,-0.40548 c 0,0 0.005,4.6e-4 -0.4055,-34.26368 h 17.06451 l -0.33748,-17.33458 -16.72699,-0.33842 v -34.0266 h 17.03114 V 86.368825 h 17.03111 v 17.030465 h -17.06452 l 0.33747,17.33458 16.727,0.33842 v 34.0266 h -17.06452 l 0.33748,17.33459 16.72699,0.33842 v 16.99614 c -33.65452,-0.40591 -33.65674,-0.4055 -33.65674,-0.4055 z m 68.73274,0 c -0.22299,-0.223 -0.40551,-4.05488 -0.40551,-8.51524 v -8.10974 h 17.03111 v 17.03047 h -8.11006 c -4.46051,0 -8.29253,-0.18248 -8.51554,-0.40549 z M 0.00687375,138.06845 H 34.069094 v 17.03046 H 17.037983 v 17.03047 H 0.00687375 Z m 172.74418625,16.99613 16.72698,0.33845 0.33839,16.72635 H 172.751 Z m 310.20966,-16.99613 h 17.03112 v 34.06093 h -17.03112 z m -431.252245,0 h 34.062242 v 17.03046 H 51.708475 Z M 0.00687375,3.0000015e-5 H 120.44121 V 120.42975 H 0.00687375 Z M 103.41008,17.030489 H 17.037983 V 103.39928 H 103.41008 Z M 34.677364,34.669188 H 85.770717 V 85.760585 H 34.677364 Z m 138.073696,68.695762 16.72698,0.33846 v 16.42223 l -16.72698,0.33842 z m 103.40323,-8e-5 16.72698,0.33846 0.33838,16.72635 H 276.15421 Z M 379.55752,3.0000015e-5 H 499.99184 V 120.42975 H 379.55752 Z M 482.96072,17.030489 h -86.37211 v 86.368791 h 86.37211 z M 414.228,34.669188 h 51.09336 V 85.760585 H 414.228 Z M 155.11255,51.699647 c 0,0 -0.005,-0.0042 0,-17.030459 h 17.03026 v 17.030459 c -17.0352,-0.006 -0.005,-6.99e-4 -17.03026,0 z M 328.16009,17.334609 h 16.42287 l 0.33748,17.334579 h 16.9977 V 51.699654 H 327.83699 Z M 293.18541,3.0000015e-5 h 17.03111 V 17.030489 h -17.03111 z m 51.70161,0 h 17.03111 V 17.030489 h -17.03111 z" />
</svg>