<svg id="PAYBACK" width="500" height="130" viewBox="0 0 500 130" version="1.1" xml:space="preserve" xmlns:xlink="http://www.w3.org/1999/xlink" xmlns="http://www.w3.org/2000/svg" xmlns:svg="http://www.w3.org/2000/svg">
	<path id="0480837047599" style="fill:#000000;stroke:#000000;stroke-width:0" d="M 0,130 H 13.345151 V 45.44698 0 H 0 v 45.44698 z m 19.574635,0 h 7.115668 V 45.44698 0 h -7.115668 v 45.44698 z m 13.345151,0 H 46.264937 V 45.44698 0 H 32.919786 v 45.44698 z m 20.460819,0 H 72.955239 V 45.44698 0 H 53.380605 v 45.44698 z m 26.690302,0 H 106.76121 V 45.44698 0 H 80.070907 v 45.44698 z m 32.919813,0 h 7.11564 V 45.44698 0 h -7.11564 v 45.44698 z m 13.34516,0 h 20.46079 V 45.44698 0 h -20.46079 v 45.44698 z m 26.6903,0 h 13.34515 V 45.44698 0 h -13.34515 v 45.44698 z m 20.46079,0 h 6.22952 V 45.44698 0 h -6.22952 v 45.44698 z m 13.34515,0 h 6.22951 V 45.44698 0 h -6.22951 v 45.44698 z m 13.34514,0 h 19.57468 V 45.44698 0 h -19.57468 v 45.44698 z m 32.91971,0 h 7.11575 V 45.44698 0 h -7.11575 v 45.44698 z m 13.34516,0 h 7.11574 V 45.44698 0 h -7.11574 v 45.44698 z m 13.34515,0 h 20.46089 V 45.44698 0 h -20.46089 v 45.44698 z m 33.80604,0 h 6.22942 V 45.44698 0 h -6.22942 v 45.44698 z m 26.6903,0 h 6.22941 V 45.44698 0 h -6.22941 v 45.44698 z m 19.57457,0 h 7.11574 V 45.44698 0 h -7.11574 v 45.44698 z m 20.4609,0 h 19.57455 V 45.44698 0 h -19.57455 v 45.44698 z m 26.6903,0 h 19.57455 V 79.525193 0 h -19.57455 v 45.44698 z m 26.69029,0 h 6.22941 V 79.525193 0 h -6.22941 v 79.525193 z m 19.57457,0 h 20.46089 V 79.525193 0 h -20.46089 v 79.525193 z m 26.6903,0 h 7.11574 V 79.525193 0 h -7.11574 v 79.525193 z m 20.4609,0 h 6.2294 V 79.525193 0 h -6.2294 v 79.525193 z m 13.34515,0 H 500 V 79.525193 0 h -6.2294 v 79.525193 z" />
</svg>