<svg id="PZGGOLF" width="500" height="130" viewBox="0 0 500 130" version="1.1" xml:space="preserve" xmlns:xlink="http://www.w3.org/1999/xlink" xmlns="http://www.w3.org/2000/svg" xmlns:svg="http://www.w3.org/2000/svg">
	<path id="008969" style="fill:#000000;stroke:#000000;stroke-width:0" d="M 485.29412,0 H 500 v 130 h -14.70588 z m -14.70588,0 h 7.35294 v 130 h -7.35294 z m -29.41177,0 h 22.05882 v 130 h -22.05882 z m -36.76471,0 h 14.70589 v 130 h -14.70589 z m -22.05882,0 h 7.35294 v 130 h -7.35294 z M 367.64706,0 H 375 v 130 h -7.35294 z m -44.11765,0 h 14.70588 v 130 h -14.70588 z m -36.7647,0 h 7.35294 v 130 h -7.35294 z m -29.41177,0 h 14.70588 V 130 H 257.35294 Z M 242.64706,0 H 250 v 130 h -7.35294 z m -36.76471,0 h 29.41177 v 130 h -29.41177 z m -22.05882,0 h 14.70588 v 130 h -14.70588 z m -22.05882,0 h 14.70588 v 130 h -14.70588 z m -29.41177,0 h 14.70588 v 130 h -14.70588 z m -29.41176,0 h 14.70588 V 130 H 102.94118 Z M 80.88235,0 H 95.58824 V 130 H 80.88235 Z M 44.11765,0 H 66.17647 V 130 H 44.11765 Z M 22.05882,0 h 7.35294 V 130 H 22.05882 Z M 0,0 H 14.70588 V 130 H 0 Z" />
</svg>