<svg id="RESERVED" width="500" height="130" viewBox="0 0 500 130" version="1.1" xml:space="preserve" xmlns:xlink="http://www.w3.org/1999/xlink" xmlns="http://www.w3.org/2000/svg" xmlns:svg="http://www.w3.org/2000/svg">
	<path id="ECRE48865621" style="fill:#000000;stroke:#000000;stroke-width:0" d="M 492.53731,0 H 500 v 130 h -7.46269 z m -7.46269,0 h 3.73135 v 130 h -3.73135 z m -14.92537,0 h 11.19403 v 130 h -11.19403 z m -18.65672,0 h 7.46269 v 130 h -7.46269 z m -7.46268,0 h 3.73134 v 130 h -3.73134 z m -11.19403,0 h 7.46268 v 130 h -7.46268 z m -22.38806,0 h 11.19403 v 130 h -11.19403 z m -11.19403,0 h 3.73134 v 130 h -3.73134 z m -18.65672,0 h 11.19403 v 130 h -11.19403 z m -11.19403,0 h 7.46269 v 130 h -7.46269 z m -11.19403,0 h 7.46269 v 130 h -7.46269 z m -7.46268,0 h 3.73134 v 130 h -3.73134 z m -22.38806,0 h 11.19403 v 130 h -11.19403 z m -11.19403,0 h 3.73134 v 130 h -3.73134 z m -11.19403,0 h 3.73134 v 130 h -3.73134 z M 287.31343,0 H 302.2388 V 130 H 287.31343 Z M 276.1194,0 h 7.46269 v 130 h -7.46269 z m -14.92537,0 h 11.19403 v 130 h -11.19403 z m -14.92538,0 h 11.19403 v 130 h -11.19403 z m -18.65671,0 h 14.92537 v 130 h -14.92537 z m -14.92537,0 h 11.19403 v 130 h -11.19403 z m -7.46269,0 h 3.73134 v 130 h -3.73134 z m -14.92537,0 h 3.73134 v 130 h -3.73134 z m -11.19403,0 h 7.46268 v 130 h -7.46268 z M 164.1791,0 h 3.73135 v 130 h -3.73135 z m -14.92537,0 h 11.19403 v 130 h -11.19403 z m -7.46269,0 h 3.73135 v 130 h -3.73135 z m -18.65671,0 h 7.46268 v 130 h -7.46268 z M 111.9403,0 h 7.46268 V 130 H 111.9403 Z M 97.014924,0 h 3.731346 v 130 h -3.731346 z m -14.92537,0 h 3.73134 v 130 h -3.73134 z m -14.92537,0 h 3.73134 v 130 h -3.73134 z m -11.19403,0 h 7.46269 v 130 h -7.46269 z m -14.92537,0 h 3.73134 v 130 h -3.73134 z m -18.65672,0 h 3.73134 v 130 h -3.73134 z m -11.19403,0 h 3.73134 v 130 h -3.73134 z M 0,0 H 7.462694 V 130 H 0 Z" />
</svg>