<svg id="ROSSMANN" width="500" height="130" viewBox="0 0 500 130" version="1.1" xml:space="preserve" xmlns:xlink="http://www.w3.org/1999/xlink" xmlns="http://www.w3.org/2000/svg" xmlns:svg="http://www.w3.org/2000/svg">
	<path id="2640026163273" style="fill:#000000;stroke:#000000;stroke-width:0" d="M 491.86992,0 H 500 v 130 h -8.13008 z m -8.13008,0 h 4.06504 v 130 h -4.06504 z m -16.26017,0 h 12.19513 v 130 h -12.19513 z m -20.3252,0 h 8.13008 v 130 h -8.13008 z m -12.19512,0 h 8.13008 v 130 h -8.13008 z M 410.5691,0 h 12.19513 V 130 H 410.5691 Z m -8.13008,0 h 4.06504 v 130 h -4.06504 z m -20.3252,0 h 12.19512 v 130 h -12.19512 z m -8.13008,0 h 4.06504 v 130 h -4.06504 z m -16.26017,0 h 8.13009 v 130 h -8.13009 z m -20.3252,0 h 16.26016 v 130 h -16.26016 z m -8.13008,0 h 4.06504 v 130 h -4.06504 z m -16.26016,0 h 12.19512 V 130 H 313.00813 Z M 300.813,0 h 4.06504 V 130 H 300.813 Z m -16.26016,0 h 8.13008 v 130 h -8.13008 z M 268.2927,0 h 12.19512 V 130 H 268.2927 Z m -24.39025,0 h 8.13009 v 130 h -8.13009 z m -12.19512,0 h 4.06504 v 130 h -4.06504 z m -8.13008,0 h 4.06504 v 130 h -4.06504 z m -8.13008,0 h 4.06504 v 130 h -4.06504 z m -20.3252,0 h 4.06504 v 130 h -4.06504 z M 178.8618,0 h 8.13008 v 130 h -8.13008 z m -12.19512,0 h 8.13008 v 130 h -8.13008 z m -16.26016,0 h 8.13008 v 130 h -8.13008 z m -16.26018,0 h 8.13009 v 130 h -8.13009 z m -16.26016,0 h 4.06504 v 130 h -4.06504 z m -8.13008,0 h 4.06504 V 130 H 109.7561 Z M 89.430896,0 h 8.130082 V 130 H 89.430896 Z M 77.235774,0 h 8.130081 V 130 H 77.235774 Z M 65.040652,0 h 4.06504 v 130 h -4.06504 z M 44.715448,0 H 56.91057 V 130 H 44.715448 Z M 24.390244,0 H 36.585367 V 130 H 24.390244 Z M 12.195123,0 h 4.065041 V 130 H 12.195123 Z M 0,0 H 8.130081 V 130 H 0 Z" />
</svg>