<svg id="SELGROS-ZLOTAJOANNA" width="500" height="130" viewBox="0 0 500 130" version="1.1" xml:space="preserve" xmlns:xlink="http://www.w3.org/1999/xlink" xmlns="http://www.w3.org/2000/svg" xmlns:svg="http://www.w3.org/2000/svg">
	<path id="8184913724" style="fill:#000000;stroke:#000000;stroke-width:0" d="M 494.73684,0 H 500 v 130 h -5.26316 z m -10.52631,0 h 5.26315 v 130 h -5.26315 z m -15.78948,0 h 5.26316 v 130 h -5.26316 z m -21.05263,0 h 5.26316 v 130 h -5.26316 z m -26.31579,0 h 15.78948 v 130 h -15.78948 z m -10.52631,0 h 5.26315 v 130 h -5.26315 z M 389.47368,0 H 400 v 130 h -10.52632 z m -15.78947,0 h 10.52632 v 130 h -10.52632 z m -15.78947,0 h 5.26315 v 130 h -5.26315 z m -21.05263,0 h 5.26315 v 130 h -5.26315 z m -10.52632,0 h 5.26316 v 130 h -5.26316 z M 300,0 h 5.26316 V 130 H 300 Z m -15.78947,0 h 10.52631 v 130 h -10.52631 z m -21.05264,0 h 10.52632 v 130 h -10.52632 z m -10.52631,0 h 5.26316 v 130 h -5.26316 z m -10.52632,0 h 5.26316 v 130 h -5.26316 z m -21.05263,0 h 15.78948 v 130 h -15.78948 z m -10.52631,0 h 5.26315 v 130 h -5.26315 z M 189.47368,0 H 200 v 130 h -10.52632 z m -21.05263,0 h 5.26316 v 130 h -5.26316 z m -10.52631,0 h 5.26315 v 130 h -5.26315 z m -15.78948,0 h 5.26316 v 130 h -5.26316 z m -26.31579,0 h 10.52632 V 130 H 115.78947 Z M 94.736842,0 H 105.26316 V 130 H 94.736842 Z M 73.684211,0 H 89.473684 V 130 H 73.684211 Z M 57.894737,0 H 68.421053 V 130 H 57.894737 Z M 47.368421,0 h 5.263158 V 130 H 47.368421 Z M 31.578947,0 H 42.105263 V 130 H 31.578947 Z M 10.526316,0 h 5.263158 V 130 H 10.526316 Z M 0,0 H 5.2631579 V 130 H 0 Z" />
</svg>