<svg id="SHELL" width="500" height="130" viewBox="0 0 500 130" version="1.1" xml:space="preserve" xmlns:xlink="http://www.w3.org/1999/xlink" xmlns="http://www.w3.org/2000/svg" xmlns:svg="http://www.w3.org/2000/svg">
	<path id="70043708094825213" style="fill:#000000;stroke:#000000;stroke-width:0" d="M 493.10345,0 H 500 v 130 h -6.89655 z m -6.89655,0 h 3.44827 v 130 h -3.44827 z m -13.79311,0 h 10.34483 v 130 h -10.34483 z m -17.24138,0 h 6.89656 v 130 h -6.89656 z m -6.89655,0 h 3.44828 v 130 h -3.44828 z m -13.7931,0 h 3.44827 v 130 h -3.44827 z m -17.24138,0 h 6.89655 v 130 h -6.89655 z M 400,0 h 10.34483 V 130 H 400 Z m -6.89655,0 h 3.44827 v 130 h -3.44827 z m -13.79311,0 h 6.89656 v 130 h -6.89656 z m -17.24137,0 h 13.7931 v 130 h -13.7931 z m -6.89656,0 h 3.44828 v 130 h -3.44828 z m -13.7931,0 h 10.34483 v 130 h -10.34483 z m -10.34483,0 h 3.44828 v 130 h -3.44828 z M 313.7931,0 h 10.34483 V 130 H 313.7931 Z m -10.34482,0 h 6.89655 v 130 h -6.89655 z m -13.79311,0 h 6.89655 v 130 h -6.89655 z m -6.89655,0 h 3.44828 v 130 h -3.44828 z m -17.24138,0 h 10.34483 v 130 h -10.34483 z m -10.34483,0 h 6.89656 v 130 h -6.89656 z m -13.7931,0 h 10.34483 v 130 h -10.34483 z m -13.7931,0 h 10.34482 V 130 H 227.58621 Z M 213.7931,0 h 3.44828 v 130 h -3.44828 z m -10.34482,0 h 3.44827 v 130 h -3.44827 z m -13.79311,0 h 6.89655 v 130 h -6.89655 z m -10.34483,0 h 3.44828 v 130 h -3.44828 z m -13.7931,0 h 6.89655 v 130 h -6.89655 z m -13.7931,0 h 3.44827 v 130 h -3.44827 z m -13.79311,0 h 3.44828 v 130 h -3.44828 z m -10.34482,0 h 6.89655 v 130 h -6.89655 z M 113.7931,0 h 3.44828 V 130 H 113.7931 Z M 100,0 h 6.89655 V 130 H 100 Z M 86.206897,0 h 3.448275 V 130 H 86.206897 Z M 75.862069,0 h 3.448276 V 130 H 75.862069 Z M 65.517241,0 h 3.448276 V 130 H 65.517241 Z M 44.827586,0 h 6.896552 V 130 H 44.827586 Z M 37.931034,0 H 41.37931 V 130 H 37.931034 Z M 20.689655,0 H 31.034483 V 130 H 20.689655 Z M 10.344828,0 h 3.448275 V 130 H 10.344828 Z M 0,0 H 6.8965517 V 130 H 0 Z" />
</svg>