<svg id="SKLEPPOLSKI" width="500" height="130" viewBox="0 0 500 130" version="1.1" xml:space="preserve" xmlns:xlink="http://www.w3.org/1999/xlink" xmlns="http://www.w3.org/2000/svg" xmlns:svg="http://www.w3.org/2000/svg">
	<path id="23421901" style="fill:#000000;stroke:#000000;stroke-width:0" d="M 487.34177,0 H 500 v 130 h -12.65823 z m -12.65823,0 h 6.32912 v 130 h -6.32912 z m -25.31645,0 h 18.98734 v 130 h -18.98734 z m -31.64557,0 h 12.65823 v 130 h -12.65823 z m -25.31646,0 h 12.65823 v 130 h -12.65823 z m -12.65822,0 h 6.32911 v 130 h -6.32911 z m -31.64557,0 h 6.32911 v 130 h -6.32911 z m -25.31646,0 h 12.65823 v 130 h -12.65823 z m -18.98734,0 h 12.65823 v 130 h -12.65823 z m -25.31646,0 h 12.65823 v 130 h -12.65823 z m -31.64557,0 h 18.98734 v 130 h -18.98734 z m -12.65822,0 h 6.32911 v 130 h -6.32911 z m -25.31646,0 h 12.65823 v 130 h -12.65823 z m -37.97468,0 h 18.98734 v 130 h -18.98734 z m -18.98735,0 h 12.65823 v 130 h -12.65823 z m -12.65822,0 h 6.32911 v 130 h -6.32911 z m -25.31646,0 h 18.98734 V 130 H 113.92405 Z M 94.936709,0 H 107.59494 V 130 H 94.936709 Z M 69.620253,0 H 88.607595 V 130 H 69.620253 Z M 37.974685,0 H 56.962027 V 130 H 37.974685 Z m -18.98734,0 h 6.329114 V 130 H 18.987345 Z M 0,0 H 12.658228 V 130 H 0 Z" />
</svg>