<svg id="SMYK" width="500" height="130" viewBox="0 0 500 130" version="1.1" xml:space="preserve" xmlns:xlink="http://www.w3.org/1999/xlink" xmlns="http://www.w3.org/2000/svg" xmlns:svg="http://www.w3.org/2000/svg">
	<path id="2030360145569" style="fill:#000000;stroke:#000000;stroke-width:0" d="M 494.73684,0 H 500 v 130 h -5.26316 z m -10.52631,0 h 5.26315 v 130 h -5.26315 z m -15.78948,0 h 5.26316 v 130 h -5.26316 z m -21.05263,0 h 15.78947 v 130 h -15.78947 z m -26.31579,0 h 5.26316 v 130 h -5.26316 z m -10.52631,0 h 5.26315 v 130 h -5.26315 z m -21.05264,0 h 15.78948 v 130 h -15.78948 z m -15.78947,0 h 5.26316 v 130 h -5.26316 z m -21.05263,0 h 15.78947 v 130 h -15.78947 z m -15.78947,0 h 5.26315 v 130 h -5.26315 z m -26.31579,0 h 15.78947 V 130 H 310.52632 Z M 300,0 h 5.26316 V 130 H 300 Z m -15.78947,0 h 10.52631 v 130 h -10.52631 z m -21.05264,0 h 10.52632 v 130 h -10.52632 z m -10.52631,0 h 5.26316 v 130 h -5.26316 z m -10.52632,0 h 5.26316 v 130 h -5.26316 z m -21.05263,0 h 15.78948 v 130 h -15.78948 z m -15.78947,0 h 5.26316 v 130 h -5.26316 z M 178.94737,0 H 200 v 130 h -21.05263 z m -10.52632,0 h 5.26316 v 130 h -5.26316 z m -10.52631,0 h 5.26315 v 130 h -5.26315 z m -26.31579,0 h 5.26316 v 130 h -5.26316 z m -21.05263,0 h 15.78947 V 130 H 110.52632 Z M 94.736842,0 H 100 V 130 H 94.736842 Z M 84.210526,0 h 5.263158 V 130 H 84.210526 Z M 57.894737,0 H 78.947368 V 130 H 57.894737 Z M 47.368421,0 h 5.263158 V 130 H 47.368421 Z M 31.578947,0 H 42.105263 V 130 H 31.578947 Z M 10.526316,0 h 5.263158 V 130 H 10.526316 Z M 0,0 H 5.2631579 V 130 H 0 Z" />
</svg>