<svg id="STOKROTKA" width="500" height="500" viewBox="0 0 500 500" version="1.1" xml:space="preserve" xmlns:xlink="http://www.w3.org/1999/xlink" xmlns="http://www.w3.org/2000/svg" xmlns:svg="http://www.w3.org/2000/svg">
	<path id="9956886065156" style="fill:#000000;stroke:#000000;stroke-width:0" d="M 381.18821,499.85298 V 476.8301 l -23.10281,5.7e-4 c 0.008,-47.67682 -1.9e-4,-0.28763 0,-47.99059 -23.06994,0.0189 0.002,0.008 -23.10225,-6.1e-4 v 24.82269 h -24.75243 v -24.82269 l 23.10225,6.1e-4 v -24.82333 h 47.85475 v -23.16783 l -23.10251,4.9e-4 v -23.16782 c -8.24863,-0.008 -16.50206,-1.5e-4 -24.75232,-3.4e-4 v -47.99048 h 24.49482 c 0.25209,-70.77093 0.003,0.19125 0,-71.15788 0,0 -70.94653,0.20712 -70.69943,0 v 23.16764 l 23.10229,-3.5e-4 v 47.99097 h -23.10225 c 0,0 0.0113,-4.9e-4 0,47.9901 h -24.7525 v -47.99048 l -47.9726,0.41405 c 0.0624,0.004 0.11792,22.75404 0.11792,22.75404 h 24.75247 v 24.82273 h -25.03816 c 0.57002,15.99352 0.53011,31.99208 0.28573,47.99055 h -23.10225 v -47.99055 h 23.10225 v -23.16783 h -23.10225 v -24.82268 h -47.85479 v -24.82235 h 23.10233 v -23.16786 h -23.10233 v -23.16779 h 24.75247 v 23.16779 h 46.20468 v -23.16779 h -23.10236 v -24.82273 l 23.10236,-3e-4 -1.1e-4,-46.33542 h -23.10225 v -47.72908 c 47.67175,0.12586 0.4004,0.27213 47.85468,0.0113 v 22.89626 h 23.10232 v -23.16782 h 23.10236 l -4e-5,-23.1679 H 191.41893 V 48.226918 0.23636784 c 41.32932,-0.30500787 83.01687,-0.32579527 118.81175,0.00189 V 48.228808 H 285.47825 V 23.406081 c -7.70075,0.0038 -15.40157,-0.02646 -23.10232,0 v 24.822727 h -24.75247 v -24.82269 c -22.41437,-0.05594 -22.63872,-3.7e-5 -22.63872,-3.7e-5 v 47.163136 l 72.14358,0.891892 v 23.103307 h 23.10232 v 24.822724 h -24.75235 v 23.16783 h 24.75235 v 47.99096 h -23.10221 c 0,0 0,0.10583 0,23.16295 l 70.95689,0.004 V 190.5445 h 23.10232 v 23.16782 h 23.10233 V 190.5445 h 95.70946 v 24.82265 h -94.05932 v 46.33572 h 23.10229 v 47.99062 h 23.10224 v -47.99062 h 24.75247 v 47.99062 h -23.10225 v 25.65064 h -47.02968 v 22.4911 h 22.27722 v 46.18393 h 70.95703 v 24.82383 c -46.10097,-0.13644 -0.10658,-0.0858 -46.20457,0 v 24.82106 c -25.41301,-0.12699 0.5139,-0.008 -24.75246,0 v 46.33584 z m 23.10232,-238.15245 h -23.10289 c -6.8e-4,15.99681 1.6e-4,31.99354 5.7e-4,47.99036 h 23.10232 z m -141.91464,-23.16779 -23.10175,-2.3e-4 -5e-4,23.16802 c -24.75016,0 -9.4e-4,-2.3e-4 -24.90266,0 v 23.16721 h 48.0059 z m -23.10225,-24.82269 h -24.75246 c 0.0699,23.10652 0,24.82269 0,24.82269 23.09956,0.0265 1.66144,0.0113 24.75246,0 z m 47.85468,0 h -24.75243 c -0.0113,24.83879 0,24.82269 0,24.82269 l 24.75243,-2.3e-4 z m -24.7519,-23.16295 h -23.10278 c 0,0 -0.004,0.004 0,23.16269 l 23.10225,2.6e-4 z m -24.75243,-47.9955 c -22.99661,-1.1e-4 -23.10281,0 -23.10281,0 v 23.16764 h 23.10281 z m 47.85476,-2.6e-4 h -23.10233 v 23.1679 h 23.10233 z M 4.535433e-4,332.85867 H 168.31714 V 499.99822 H 4.535433e-4 Z M 143.56467,357.6814 H 24.752881 V 476.83033 H 143.56467 Z M 47.855205,380.84926 H 120.46235 V 453.6625 H 47.855205 Z m 143.564215,71.15838 h 23.10225 v -23.16779 h 47.85475 v -47.99059 h 47.85479 l -5.7e-4,24.67072 h -22.27725 v 48.14211 l -25.5388,0.41404 c -0.0624,7.58412 -0.0378,15.16951 -0.0378,22.75408 h -24.75243 v -23.16782 h -23.44082 c 0.68527,15.44088 0.66875,30.88792 0.33789,46.33572 H 191.4192 Z m 94.05933,24.82269 h 24.75246 v 23.16789 h -24.75246 z m 191.41893,0 H 500 v 23.16789 H 476.89768 Z M 452.14521,357.6814 h 24.75247 v 23.16786 H 452.14521 Z M 4.535433e-4,284.86831 H 24.752881 V 238.53263 H 4.535433e-4 V 190.54208 H 49.505347 v 23.16782 h 46.204572 v -23.16782 h 72.607221 v 24.73179 l -47.02972,0.91816 -0.87689,93.49886 H 47.854752 v -23.1679 H 24.752466 v 23.1679 H 0 Z M 95.709919,261.90417 c -46.174336,-0.003 -46.203438,0 -46.203438,0 -0.04989,22.91984 0.07181,2.22829 -8.32e-4,22.96425 H 95.710221 Z M 47.854638,215.36488 c -23.09295,0.0113 -23.102324,0.10016 -23.102324,0 v 23.16775 H 47.855205 Z M 4.535433e-4,0.23474264 H 168.31714 V 167.37418 H 4.535433e-4 Z M 143.56467,23.402528 H 24.752881 V 142.55149 H 143.56467 Z M 47.855205,46.570427 H 120.46235 V 119.3837 H 47.855205 Z M 333.33346,0.23474264 H 500 V 167.37418 H 333.33346 Z M 476.89768,23.402528 H 358.08589 V 142.55149 h 118.81179 z m -95.70947,23.167899 h 72.60722 V 119.3837 h -72.60722 z" />
</svg>