<svg id="SWIATKSIAZKI" width="500" height="130" viewBox="0 0 500 130" version="1.1" xml:space="preserve" xmlns:xlink="http://www.w3.org/1999/xlink" xmlns="http://www.w3.org/2000/svg" xmlns:svg="http://www.w3.org/2000/svg">
	<path id="X2B7K4Z2" style="fill:#000000;stroke:#000000;stroke-width:0" d="M 59.608847,4.3442422e-4 35.445602,64.258107 59.561826,130 H 48.796532 L 29.710409,76.481036 10.154191,130 H 0 L 24.398239,65.043877 0.5641367,4.3442422e-4 H 11.282465 L 30.133485,52.820948 49.407635,4.3442422e-4 Z M 117.71331,130 H 70.327175 v -18.24709 l 9.872069,-15.715192 c 3.322072,-5.238401 6.409043,-10.447696 9.261019,-15.627884 6.017261,-10.826028 10.138464,-19.411171 12.363667,-25.75545 2.22514,-6.402493 3.33774,-13.299712 3.33774,-20.691667 0,-6.751718 -1.20664,-12.019226 -3.61981,-15.802502 -2.381882,-3.8415 -5.719574,-5.762244 -10.013185,-5.762244 -2.851923,0 -5.938947,0.931323 -9.260966,2.793813 -3.322073,1.862542 -6.565724,4.714558 -9.731116,8.556057 H 72.06639 V 8.1195956 C 74.291536,6.0824356 77.253226,4.2195521 80.951354,2.5316278 84.680775,0.84370355 88.284916,0 91.763669,0 c 7.176827,0 12.802411,3.2309681 16.876591,9.6916527 4.07419,6.4024923 6.11131,12.3973603 6.11131,23.3979853 0,4.947378 -0.34471,9.574627 -1.03418,13.881757 -0.65818,4.248917 -1.64539,8.29413 -2.96169,12.13563 -1.22221,3.608669 -2.66384,7.159135 -4.32491,10.651399 -1.62966,3.492275 -3.61976,7.36286 -5.97029,11.611777 -3.353368,6.11148 -6.816447,12.048321 -10.389187,17.810555 -3.572794,5.704024 -6.910486,11.000634 -10.013184,15.889814 H 117.7132 Z M 186.1601,90.013567 c 0,6.460685 -0.65818,12.164713 -1.97448,17.112093 -1.3163,4.94738 -3.08697,9.02169 -5.31211,12.22293 -2.63255,3.84148 -5.53155,6.5771 -8.69689,8.20681 C 167.04263,129.18513 163.04676,130 158.18901,130 H 133.3677 V 0 l 20.73151,4.3442422e-4 c 5.10842,1.0343434e-4 8.93183,0.34919432578 11.47044,1.04763467578 2.53856,0.6984921 4.96741,2.153565 7.2866,4.3653221 2.56985,2.5028007 4.43456,5.7331478 5.59413,9.6910428 1.15962,3.899702 1.73943,8.585153 1.73943,14.056364 0,6.169672 -0.84621,11.43718 -2.53862,15.802512 -1.69235,4.30712 -3.94879,7.770277 -6.76942,10.389483 v 0.698492 c 4.73236,1.804329 8.46183,5.674935 11.18842,11.611777 2.72664,5.878649 4.08991,13.328807 4.08991,22.350505 z M 170.50566,31.43082 c 0,-3.143039 -0.28223,-5.79134 -0.84615,-7.944905 -0.56414,-2.153565 -1.47298,-3.899692 -2.72659,-5.238401 -1.47298,-1.57152 -3.25933,-2.531897 -5.35914,-2.881112 -2.09976,-0.407428 -4.70101,-0.61109 -7.80366,-0.61109 h -11.09438 v 37.541845 h 12.03452 c 2.91467,0 5.2338,-0.262 6.95751,-0.785791 1.7237,-0.582025 3.32202,-1.746117 4.79505,-3.492274 1.47304,-1.746117 2.50722,-3.986991 3.1027,-6.722601 0.62678,-2.793814 0.94014,-6.082364 0.94014,-9.86565 z m 5.97029,59.281198 c 0,-5.238401 -0.42334,-9.40003 -1.26922,-12.484856 -0.84616,-3.084836 -2.38189,-5.704031 -4.60703,-7.857586 -1.50433,-1.455114 -3.33769,-2.386385 -5.50015,-2.793813 -2.13115,-0.465661 -4.73236,-0.698492 -7.80371,-0.698492 h -14.6201 v 48.367859 h 12.31664 c 4.07419,0 7.41193,-0.37836 10.01313,-1.13498 2.60126,-0.81486 4.73231,-2.26997 6.39337,-4.36533 1.75505,-2.26997 3.03995,-4.86008 3.85481,-7.7703 0.81486,-2.91021 1.22226,-6.664401 1.22226,-11.262533 z M 245.11072,19.469808 213.42594,130 H 203.36573 L 237.07201,15.279093 h -39.8646 V 4.3442422e-4 h 47.90331 z M 316.84818,130 h -12.08154 l -27.68897,-57.884297 -6.9575,13.794448 V 130 h -9.30799 V 4.3442422e-4 h 9.30799 V 67.83768 L 304.10846,4.3442422e-4 h 11.28246 L 284.12917,61.115079 Z m 57.5874,-36.581488 H 364.0464 V 130 h -9.02603 V 93.418512 h -33.5182 V 73.338008 L 355.39653,4.3442422e-4 h 8.64987 V 79.449456 h 10.38918 z M 355.02037,79.449456 V 20.77941 L 327.8956,79.449456 Z M 439.63861,130 H 385.01285 V 113.93557 L 427.93307,15.366402 H 386.61122 V 4.3442422e-4 h 51.99316 V 15.628318 l -43.3433,99.005702 h 44.37753 z m 60.36096,0 h -47.38614 v -18.24709 l 9.87207,-15.715192 c 3.32202,-5.238401 6.40905,-10.447696 9.26102,-15.627884 6.01726,-10.826028 10.13847,-19.411171 12.36361,-25.75545 2.22515,-6.402493 3.33775,-13.299712 3.33775,-20.691667 0,-6.751718 -1.20659,-12.019226 -3.61976,-15.802502 -2.38188,-3.8415 -5.71958,-5.762244 -10.01319,-5.762244 -2.85192,0 -5.93894,0.931323 -9.26096,2.793813 -3.32208,1.862542 -6.56573,4.714558 -9.73112,8.556057 h -0.46966 V 8.1195956 c 2.22514,-2.03716 5.18683,-3.9000435 8.88496,-5.5879678 C 466.96757,0.84370355 470.57171,0 474.05047,0 c 7.17682,0 12.80241,3.2309267 16.87665,9.6916527 4.07412,6.4024923 6.11124,12.3973603 6.11124,23.3979853 0,4.947378 -0.34471,9.574627 -1.03418,13.881757 -0.65817,4.248917 -1.64539,8.29413 -2.96169,12.13563 -1.2222,3.608669 -2.66384,7.159135 -4.3249,10.651399 -1.62966,3.492275 -3.61976,7.36286 -5.97029,11.611777 -3.35337,6.11148 -6.81645,12.048321 -10.38919,17.810555 -3.57279,5.704024 -6.91049,11.000634 -10.01318,15.889814 H 500 Z" />
</svg>