<svg id="VANGRAAF" width="500" height="500" viewBox="0 0 500 500" version="1.1" xml:space="preserve" xmlns:xlink="http://www.w3.org/1999/xlink" xmlns="http://www.w3.org/2000/svg" xmlns:svg="http://www.w3.org/2000/svg">
	<path id="2210161199323" style="fill:#000000;stroke:#000000;stroke-width:0" d="M 0.56251345,499.45628 C 0.27609646,499.16984 0.0417606,461.73088 0.0417606,416.2586 V 333.58172 H 83.230989 166.42022 v 83.19768 83.19769 H 83.751732 c -45.467659,0 -82.90281131,-0.23437 -83.18921855,-0.52081 z M 142.79622,416.58411 142.99639,357.0177 H 83.636155 24.275925 l -0.205005,59.01975 c -0.12781,36.79431 0.07626,59.301 0.541951,59.76661 0.465401,0.46533 22.842668,0.6714 59.365083,0.54667 l 58.618116,-0.2002 z m -95.106169,0.20318 v -35.55244 h 35.540938 c 31.067421,0 35.542001,0.1475 35.549421,1.1718 0.005,0.64449 0.0124,16.55165 0.0171,35.34925 l 0.009,34.17745 -35.558038,0.20318 -35.558045,0.20318 z m 142.944869,47.64525 v -35.54455 h 35.54093 35.54094 v 35.54455 35.54455 h -35.54094 -35.54093 z m 47.47346,-0.21576 0.21573,-11.93375 -11.93252,0.21577 -11.93253,0.21576 -0.21835,10.89916 c -0.12009,5.99454 -0.0396,11.36496 0.17881,11.93427 0.31024,0.80855 2.92236,0.98775 11.93515,0.81881 l 11.53797,-0.21627 z m 95.4714,24.05378 v -11.72944 h 11.7168 11.71679 v -12.10858 -12.10858 h -11.71679 -11.7168 v -11.71798 -11.71799 h 35.54094 35.54094 v 11.71799 11.71798 h 23.82414 23.82415 v -11.71798 -11.71799 h 23.82414 23.82415 v 11.69764 11.69763 l -11.91207,0.21565 -11.91208,0.21565 v 11.71798 c 0,8.80151 0.24302,11.74229 0.9764,11.81564 0.53702,0.0537 5.90685,0.14159 11.93295,0.19529 l 10.95656,0.0976 -0.21617,11.52269 -0.21615,11.52268 -23.60846,0.20673 -23.60846,0.20671 -0.21568,-11.9247 -0.21569,-11.9247 -11.52151,-0.21619 c -8.91878,-0.16734 -11.53234,0.009 -11.56947,0.7812 -0.0264,0.54856 -0.11425,5.91894 -0.19528,11.93417 l -0.14733,10.93678 h -11.71679 -11.71679 l -0.20673,-23.63126 -0.20674,-23.63127 h -11.69388 -11.69389 l -0.20673,23.63127 -0.20674,23.63126 -23.62886,0.20676 L 333.57978,500 Z m -37.29845,-12.33801 -10.34984,-0.21798 v -11.69531 -11.69531 h 11.73714 11.73714 l -0.21562,11.83965 c -0.17972,9.86799 -0.41075,11.85191 -1.38731,11.91328 -0.64442,0.0405 -5.82911,-0.0244 -11.52151,-0.14433 z M 405.6085,428.20923 c -0.74392,-0.45982 -0.93708,-3.42542 -0.77383,-11.88029 l 0.21755,-11.26751 h 11.71679 11.71679 v 11.71798 11.71798 l -10.94295,0.16231 c -6.01863,0.0892 -11.38909,-0.11345 -11.93435,-0.45047 z m -143.50924,-24.3327 c -0.26996,-0.43684 -0.42755,-1.57936 -0.35019,-2.53889 0.0773,-0.95954 0.10204,-5.96309 0.0549,-11.119 l -0.0858,-9.37439 H 250.19599 238.6738 l -0.21562,-11.91328 -0.21562,-11.91328 h -11.61288 c -9.86885,0 -11.68408,-0.18558 -12.087,-1.2357 -0.61719,-1.60852 -0.61719,-19.35604 0,-20.96457 0.40303,-1.05039 2.22174,-1.23569 12.12769,-1.23569 h 11.65357 l -0.21563,-11.91328 -0.21563,-11.91329 H 226.17589 214.4591 l -0.21574,11.93406 -0.21573,11.93405 -11.50106,-0.21607 -11.50105,-0.21607 -0.21563,-11.91328 -0.21562,-11.91329 h -23.80379 -23.8038 V 297.66693 285.9693 l 11.91207,-0.21565 11.91208,-0.21564 0.136,-11.71799 0.13601,-11.71798 10.79966,-0.16533 c 5.93982,-0.0909 11.23745,-0.17882 11.77252,-0.1953 0.76881,-0.0237 1.01455,-17.43858 1.17168,-83.03235 l 0.19883,-83.002375 11.52151,-0.216187 11.52151,-0.216185 v 35.550557 35.55054 l 1.75752,0.43555 c 0.96663,0.23956 6.32706,0.33414 11.91207,0.21018 l 10.15455,-0.22536 0.20674,-23.63127 0.20674,-23.63127 H 250 261.69388 l 0.20673,23.63127 0.20674,23.63127 11.91207,0.21565 11.91207,0.21565 v 11.69763 11.69763 h 59.36509 59.36508 v 11.71443 11.71444 l -82.99395,0.19884 -82.99395,0.19886 -0.21562,11.91328 -0.21562,11.91328 h 11.73714 11.73713 v 35.5242 35.5242 l 11.91207,0.21565 11.91207,0.21564 0.21563,11.91329 0.21563,11.91328 h 11.6761 11.6761 l 0.21563,-11.91328 0.21562,-11.91329 11.91207,-0.21564 11.91207,-0.21565 v -11.69763 -11.69763 h 11.7168 11.71679 v 23.82655 23.82657 h 47.64829 47.64829 v 11.71798 11.71799 h -11.71679 c -8.82211,0 -11.73096,0.24125 -11.77414,0.97649 -0.0315,0.53708 -0.008,5.79761 0.0519,11.69008 0.12957,12.70784 1.45465,11.60815 -13.66414,11.34006 l -10.15455,-0.18007 -0.21563,-11.91328 -0.21562,-11.91328 h -23.80381 -23.80379 v 23.82656 23.82657 h -47.21163 c -31.15041,0 -47.37862,-0.27022 -47.70248,-0.79429 z m 47.09089,-34.94556 0.21562,-11.91328 h -11.73714 -11.73714 v 11.58778 c 0,6.37329 0.24358,11.83139 0.54128,12.12911 0.2977,0.29774 5.48238,0.44421 11.52151,0.32551 l 10.98024,-0.21583 z M 261.71679,345.2997 V 333.58172 H 250 238.2832 v 11.71798 11.71799 H 250 261.71679 Z m 95.29658,0 v -11.71798 h -11.71679 -11.7168 v 11.71798 11.71799 h 11.7168 11.71679 z M 214.15073,274.99182 c 0.0103,-5.8004 -0.004,-11.16139 -0.0317,-11.91328 -0.0458,-1.239 -1.14841,-1.36711 -11.76728,-1.36711 h -11.71679 v 12.12893 12.12894 l 11.74854,-0.21566 11.74853,-0.21564 z m 238.34305,106.04773 0.20673,-23.63126 11.91207,-0.21564 11.91207,-0.21565 v -11.69764 -11.69764 h 11.7168 11.71679 v 35.54455 35.54455 h -23.8356 -23.8356 z m -261.31759,-0.30497 c -0.2977,-0.29772 -0.54127,-5.75582 -0.54127,-12.12911 v -11.58778 h 11.73713 11.73714 l -0.21562,11.91328 -0.21563,11.91328 -10.98024,0.21584 c -6.03913,0.1187 -11.22381,-0.0277 -11.52151,-0.32551 z M 0.22558732,285.73331 0.43232036,262.10204 H 12.149113 23.865906 l 0.215628,11.91328 0.215628,11.91328 h 11.696444 11.696445 v 11.71798 11.71797 H 23.854453 0.01885427 Z M 71.904756,285.53801 V 261.71143 H 59.797403 47.690051 V 249.99345 238.27546 H 59.797403 71.904756 V 226.55748 214.8395 h 21.80746 c 11.994104,0 22.336504,-0.20304 22.983114,-0.45118 0.6979,-0.26785 1.43808,0.12898 1.8214,0.97649 0.35517,0.78523 0.54735,11.53446 0.42706,23.88715 l -0.21869,22.45947 H 107.03172 95.338341 v 12.10859 12.10858 h 11.673359 11.67338 l 0.2387,9.96028 c 0.13128,5.47816 0.12638,10.75125 -0.0109,11.71799 l -0.24961,1.75768 H 95.284014 71.904756 Z M 95.338341,249.99345 V 238.27546 H 83.686645 c -6.94299,0 -11.756923,0.31061 -11.912072,0.76859 -0.143209,0.4227 -0.153969,5.69579 -0.02392,11.71798 l 0.236454,10.9494 H 83.662725 95.338343 Z M 404.66166,297.64658 V 285.9286 h -11.71679 -11.7168 v -12.10858 -12.10859 h 11.7168 11.71679 v -11.71798 -11.71799 h 23.82414 23.82415 v -23.82655 -23.82658 h 23.82414 23.82415 v 11.69765 11.69764 l -11.91207,0.21563 -11.91208,0.21566 -0.21562,11.91327 -0.21563,11.91328 h -11.69645 -11.69644 v 11.71799 11.71798 l 10.34983,0.12377 c 5.69241,0.0681 10.94652,0.0755 11.67582,0.0165 1.18006,-0.0955 1.35198,1.11584 1.56223,11.0083 0.12994,6.11359 0.11078,11.55504 -0.0426,12.09212 -0.20703,0.725 -3.27496,0.9765 -11.91207,0.9765 h -11.63322 v 11.71798 11.71797 h -23.82415 -23.82414 z m 47.64829,-23.82656 v -12.10859 h -11.67562 -11.67562 l -0.23645,10.83281 c -0.13005,5.95806 -0.1228,11.40691 0.0161,12.10859 0.22013,1.11197 1.74958,1.27577 11.91207,1.27577 h 11.65952 z m -166.37846,0 v -12.10859 h 11.7168 11.71679 v 12.10859 12.10858 h -11.71679 -11.7168 z M 142.98663,249.99345 v -11.71799 h 11.71679 11.7168 v 11.71799 11.71798 h -11.7168 -11.71679 z m 190.59315,0 v -11.71799 h 11.7168 11.71679 v 11.71799 11.71798 h -11.71679 -11.7168 z M 0.21616506,202.53563 0.43232036,191.01294 H 35.973258 71.514196 l 0.216165,11.52269 0.216155,11.52268 H 35.973258 0 Z M 119.55305,202.34033 v -11.71799 h 23.43358 23.43359 v 11.71799 11.71798 H 142.98663 119.55305 Z M 0.23349615,83.402799 0.43232036,0.40042107 83.426269,0.20157177 166.42022,0.0027215 V 83.203949 166.40518 H 83.227435 0.03466218 Z M 142.98663,83.607889 V 24.246567 l -58.58485,-0.20509 c -32.221669,-0.1128 -58.935956,-0.08791 -59.365083,0.05531 -0.510423,0.170353 -0.780231,20.768675 -0.780231,59.566413 v 59.30601 H 83.621549 142.98663 Z M 48.387034,118.70092 C 47.968959,118.442 47.757959,103.73143 47.877188,83.156362 l 0.203423,-35.10281 H 83.457709 118.8348 l -0.0468,35.104237 c -0.0258,19.307331 -0.13311,35.190521 -0.23855,35.295971 -0.41693,0.41698 -69.495282,0.66031 -70.162397,0.24716 z m 237.544456,35.98627 v -11.71798 h 11.7168 11.71679 v 11.71798 11.71799 h -11.71679 -11.7168 z M 333.57978,83.203949 V 0.0027215 l 82.99395,0.19885027 82.99395,0.1988493 0.19882,83.00237793 0.19884,83.002381 h -83.19277 -83.19279 z m 142.75451,0.19885 0.20019,-59.175813 h -59.76056 -59.76055 v 59.375992 59.376002 l 59.56036,-0.20019 59.56036,-0.20018 z m -94.7809,35.414351 c -0.17893,-0.17902 -0.32532,-16.26554 -0.32532,-35.747812 V 47.64703 l 35.34566,0.203261 35.34566,0.20326 0.20324,35.349248 c 0.19143,33.295381 0.12336,35.350101 -1.17168,35.363951 -24.05826,0.25733 -69.15802,0.29007 -69.39756,0.0504 z m -95.32209,-0.4557 c -0.15561,-0.42966 -0.37461,-5.70276 -0.48665,-11.71799 l -0.20372,-10.936775 -11.71679,-0.390604 -11.71679,-0.3906 -0.21616,-11.522682 -0.21616,-11.522684 H 249.97912 238.2832 v 11.717984 11.717982 h -11.63321 c -9.8874,0 -11.70438,-0.185442 -12.10735,-1.235691 -0.26078,-0.679629 -0.47414,-11.401584 -0.47414,-23.826564 V 47.662953 H 202.34025 190.61201 L 190.81874,24.031686 191.02548,0.40042107 250.19527,0.20021053 309.36508,0 v 23.831476 23.831477 h -11.71679 -11.7168 v 12.108581 12.108581 h 11.72825 11.72824 l -0.20673,23.569273 -0.20673,23.569282 -11.23015,0.062 c -6.83499,0.0377 -11.34088,-0.24375 -11.51307,-0.71922 z M 261.71679,35.944968 V 24.226986 H 250 238.2832 V 35.944968 47.662953 H 250 261.71679 Z" />
</svg>