<svg id="WESTFIELD" width="500" height="130" viewBox="0 0 500 130" version="1.1" xml:space="preserve" xmlns:xlink="http://www.w3.org/1999/xlink" xmlns="http://www.w3.org/2000/svg" xmlns:svg="http://www.w3.org/2000/svg">
	<path id="ffaf592b-1329-442f-88be-a29d398611c7" style="fill:#000000;stroke:#000000;stroke-width:0" d="M 0.44207819,129.48041 C 0.19893643,129.24239 0,100.03147 0,64.567244 V 0.08684569 H 14.588671 29.177343 V 65.000004 129.91316 H 15.03075 c -7.7806279,0 -14.34553005,-0.19474 -14.58867181,-0.43275 z M 33.156072,65.000004 V 0.08684569 h 1.657803 1.657804 V 65.000004 129.91316 h -1.657804 -1.657803 z m 7.294335,0 V 0.08684569 h 1.657804 1.657803 V 65.000004 129.91316 h -1.657803 -1.657804 z m 7.294336,0 V 0.08684569 h 1.657804 1.657803 V 65.000004 129.91316 h -1.657803 -1.657804 z m 14.588672,0 V 0.08684569 h 8.952139 8.952139 V 7.2272931 14.367741 h 1.989365 1.989364 V 7.2272931 0.08684569 h 1.657803 1.657804 V 7.1841745 14.281503 l 1.823584,0.205402 1.823584,0.205401 0.18821,6.978165 0.188219,6.978164 h 7.271897 7.271907 v -7.140447 -7.140447 h -3.64717 -3.647167 V 7.2272931 0.08684569 h 8.952137 8.95214 V 7.2272931 14.367741 h -3.65986 -3.65985 l 0.17847,14.443177 0.17847,14.443178 5.30497,0.324566 5.30497,0.324566 v 6.815881 6.815882 l -3.49399,0.19663 -3.49398,0.196638 0.17838,14.408823 0.17838,14.40883 3.50346,0.196955 3.50346,0.196954 -0.18786,6.943493 -0.18785,6.943496 -1.82358,0.2054 -1.82359,0.2054 v 7.09733 7.09733 h -1.6578 -1.65781 v 7.14045 7.14044 h -9.30613 -9.306134 l 0.188211,-6.97816 0.188218,-6.97817 1.823584,-0.2054 1.823584,-0.2054 v -7.09733 -7.09733 h -3.647168 -3.647167 v 7.14045 7.14045 h -1.989365 -1.989364 v 7.14045 7.14044 h -3.647168 -3.647168 v -7.17437 -7.17437 l -3.481387,0.19621 -3.481388,0.1962 -0.188219,6.97817 c -0.187058,6.93529 -0.198265,6.97816 -1.823583,6.97816 H 69.62775 v -7.18356 -7.18357 l -1.823584,0.2054 -1.823584,0.2054 -0.188218,6.97817 c -0.187059,6.93529 -0.198265,6.97816 -1.823584,6.97816 H 62.333415 Z M 87.532029,93.88636 V 72.140451 h -1.657804 -1.657803 v 7.140448 7.140447 H 82.227058 80.237693 V 50.394543 14.367741 H 78.57989 76.922086 v 35.983684 35.983684 l -1.823584,0.205402 -1.823584,0.205401 v 7.140448 7.14045 h 1.657804 c 1.653841,0 1.658251,-0.0167 1.846014,-6.978168 0.15144,-5.61472 0.378178,-6.978164 1.160462,-6.978164 0.534741,0 1.196056,-0.07303 1.469593,-0.162283 0.273538,-0.08926 0.646544,3.038609 0.828902,6.950804 0.323463,6.939471 0.37202,7.122361 1.989365,7.493061 1.625575,0.37259 1.661459,0.51506 1.846014,7.33009 0.187008,6.90547 0.19872,6.95012 1.823583,6.95012 h 1.635374 z m 18.567401,14.60546 v -7.14045 h -1.98937 -1.98936 v -7.140445 -7.140447 h 3.64717 3.64717 V 72.498943 57.927399 l -3.48139,-0.1962 -3.48139,-0.196208 -0.18794,-7.349638 -0.18796,-7.349639 -3.459212,0.253665 -3.459223,0.253664 -0.187497,7.258257 c -0.186876,7.234093 -0.192944,7.258257 -1.823584,7.258257 h -1.636086 v 7.140447 7.140447 h 5.304971 5.304971 v 7.140448 7.140447 h -1.6578 -1.657807 v 7.465014 7.46501 h 1.657807 1.6578 v 7.14045 7.14045 h 1.98936 1.98937 z M 72.943357,50.394543 V 28.648635 H 71.285554 69.62775 v 21.745908 21.745908 h 1.657804 1.657803 z M 90.46184,43.184647 c 0.867098,-0.325718 1.048918,-1.612208 1.048918,-7.421903 v -7.02788 L 89.687174,28.529471 87.86359,28.32407 87.7322,22.481885 c -0.07228,-3.213201 -0.146864,-6.353375 -0.16578,-6.978164 -0.02329,-0.769984 -0.568519,-1.13598 -1.692195,-1.13598 h -1.657803 v 14.1727 c 0,7.794992 0.198936,14.367449 0.442078,14.605461 0.552546,0.540889 4.398228,0.566562 5.80334,0.0387 z m 33.54822,21.815357 0.0186,-64.91315831 h 3.63471 3.6347 V 7.2272931 14.367741 h 1.98936 1.98937 V 7.2272931 0.08684569 h 1.6578 1.6578 V 7.2272931 14.367741 h -1.6578 -1.6578 v 7.140447 7.140447 h 1.63608 c 1.6313,0 1.63664,0.02134 1.82359,7.302731 l 0.18749,7.30273 1.82359,0.205401 1.82358,0.205394 v 7.097337 7.097329 h 1.6578 c 1.6554,0 1.65792,-0.0097 1.73633,-6.653599 0.0432,-3.659479 0.0549,-6.838455 0.0259,-7.064377 -0.0289,-0.225931 0.84109,-0.585752 1.9334,-0.799609 l 1.98601,-0.388822 -0.18833,-6.961928 c -0.18465,-6.827379 -0.22034,-6.969287 -1.8461,-7.342587 -1.62553,-0.37325 -1.66146,-0.515962 -1.84602,-7.330781 -0.18701,-6.905469 -0.19872,-6.950113 -1.82358,-6.950113 h -1.63537 V 7.2272931 0.08684569 h 5.28253 5.28255 l 0.18821,6.97816451 0.18821,6.9781648 5.47076,0.188532 5.47075,0.18854 V 7.2315855 0.04292383 l 7.12855,0.18423977 7.12856,0.18424788 0.17871,14.11861152 0.17871,14.118612 h 1.66659 1.66659 l -0.1875,7.302731 c -0.18239,7.103666 -0.22817,7.301326 -1.67952,7.251189 -1.46259,-0.05055 -1.49202,0.09356 -1.49202,7.30273 v 7.354272 h 1.6578 1.65781 v 14.246969 14.24697 l -3.48139,0.196208 -3.48139,0.196208 -0.1875,7.30273 -0.1875,7.302728 h 3.66888 3.6689 v 14.2809 14.28089 h -3.64717 -3.64717 v -14.24697 -14.24697 l -3.48139,-0.1962 -3.48138,-0.19621 -0.18751,-7.302733 c -0.18694,-7.281382 -0.19228,-7.302731 -1.82358,-7.302731 h -1.63608 v -7.140447 -7.140448 h 1.6578 1.65781 v -7.140447 -7.140447 h -1.65781 -1.6578 V 43.227839 28.596129 l -5.47075,0.188532 -5.47076,0.18854 -0.17847,14.443178 -0.17846,14.443178 h 2.00205 2.00205 v -7.140448 -7.140447 h 1.65781 1.6578 v 7.140447 7.140448 h -1.6578 -1.65781 v 14.60546 14.605461 h 1.65781 1.6578 v 14.280892 14.2809 h -1.6578 -1.65781 v -7.09733 -7.09733 l -1.82358,-0.2054 -1.82359,-0.2054 -0.1875,-7.302733 c -0.18694,-7.281382 -0.19228,-7.302731 -1.82358,-7.302731 h -1.63608 v -7.140447 -7.140448 h -7.29434 -7.29433 v -7.140447 -7.140447 h -3.64717 -3.64717 V 79.5835 101.30745 l 7.12856,0.18424 7.12855,0.18425 0.18821,6.97816 0.18822,6.97817 h 5.28253 5.28254 v 7.14045 7.14044 h -7.29433 -7.29434 v -7.17437 -7.17437 l -3.48138,0.19621 -3.48139,0.1962 -0.18822,6.97817 -0.18821,6.97816 h -3.63086 -3.63084 z m 29.17099,0 v -7.140447 h -1.6578 -1.65781 v 7.140447 7.140447 h 1.65781 1.6578 z m -18.04834,-29.048638 0.1875,-7.302731 h -2.01109 -2.01108 v -7.140447 -7.140447 h -1.6578 -1.6578 v 7.140447 7.140447 h 1.6578 1.6578 v 7.032254 c 0,3.867745 0.21152,7.239326 0.47006,7.492398 0.25852,0.253072 1.07914,0.374784 1.82358,0.270469 1.25785,-0.176255 1.36679,-0.705849 1.54103,-7.49239 z m 36.61574,-14.443178 v -7.140447 h -3.64717 -3.64716 v 7.140447 7.140447 h 3.64716 3.64717 z M 167.91306,122.935 c 0.18777,-6.96149 0.19218,-6.97817 1.84603,-6.97817 1.65384,0 1.65825,0.0166 1.84601,6.97817 l 0.18822,6.97816 h -2.03423 -2.03424 z M 186.33712,65.000004 V 0.08684569 h 1.65781 1.6578 V 7.2010357 14.315234 l 5.47075,0.188532 5.47074,0.18854 0.18822,6.978165 c 0.18636,6.909227 0.20416,6.978164 1.80187,6.978164 1.60271,0 1.61492,0.0495 1.80115,7.302731 l 0.18749,7.30273 1.84556,0.207471 1.84555,0.207478 -0.18774,6.932969 -0.18776,6.932977 -3.45935,0.195453 -3.45935,0.195462 -0.18781,-7.335909 -0.18783,-7.335901 -1.82358,-0.205401 -1.82358,-0.205402 v -7.097329 -7.097329 h -1.65781 -1.65779 v 21.745908 21.745908 h 1.65779 1.65781 v 21.745909 21.74591 h -1.65781 -1.65779 v 7.14045 7.14044 h -3.64717 -3.64717 z m 7.15071,14.397966 0.18792,-7.347943 -1.84573,0.207495 -1.84573,0.207495 -0.19123,6.445114 c -0.22208,7.485136 -0.012,8.324918 2.01185,8.043592 1.43764,-0.199843 1.50219,-0.489664 1.68292,-7.555753 z m 14.73229,43.37475 v -7.14045 h -2.01179 -2.01181 l 0.18822,-6.97817 0.18821,-6.97816 1.82359,-0.2054 1.82358,-0.2054 V 86.702794 72.140451 h 1.63537 c 1.62532,0 1.63653,-0.04284 1.82359,-6.978164 l 0.18821,-6.978165 1.82358,-0.205401 1.82359,-0.205401 v -7.063404 -7.063412 l 3.48138,-0.1962 3.48139,-0.196208 0.33156,-7.140447 c 0.31472,-6.777624 0.40673,-7.150907 1.81079,-7.346239 l 1.47922,-0.205791 0.17858,14.457808 0.17858,14.457799 1.6578,0.381495 c 1.62548,0.374054 1.66148,0.517058 1.84603,7.331608 l 0.18822,6.950122 h 3.62472 3.62473 v -7.097328 -7.097337 l -1.82358,-0.205394 -1.82358,-0.205401 -0.18773,-7.326253 c -0.13555,-5.290634 -0.41193,-7.298349 -0.99468,-7.225825 -2.36146,0.293911 -2.46476,-0.0073 -2.46476,-7.19383 v -7.140448 h 3.64717 3.64716 v -7.140447 -7.140447 h -3.64716 -3.64717 V 7.2272931 0.08684569 h 5.30497 5.30497 V 7.1841745 14.281503 l 1.82359,0.205402 1.82358,0.205401 v 21.421343 21.421342 l -1.82358,0.205401 -1.82359,0.205394 v 21.702797 21.702787 h -1.6578 -1.65781 v 14.2809 14.28089 h -10.9415 -10.9415 v -7.14044 -7.14045 h 3.65611 3.6561 l -0.17471,-21.554555 -0.17473,-21.554544 -1.6578,-0.381689 c -1.62545,-0.374249 -1.66148,-0.517317 -1.84602,-7.331811 -0.187,-6.90547 -0.19872,-6.950114 -1.82358,-6.950114 h -1.63537 v 14.60546 14.605461 h 1.6578 1.6578 v 7.140447 7.140445 h -5.30497 -5.30497 v 7.14045 7.14045 h 1.6578 1.65781 v 7.14045 7.14044 h -1.65781 -1.6578 z m 25.19862,-14.2809 v -7.14045 h 2.01109 2.01108 l -0.1875,-7.302728 -0.18751,-7.30273 h -5.30497 -5.30497 v 7.11118 c 0,7.050668 0.0141,7.114438 1.6578,7.493068 1.62545,0.37442 1.66149,0.51756 1.84603,7.33199 0.18701,6.90547 0.19872,6.95012 1.82358,6.95012 h 1.63537 z m 7.43768,14.44318 c 0.18776,-6.96149 0.19217,-6.97817 1.84602,-6.97817 1.65384,0 1.65826,0.0166 1.84602,6.97817 l 0.18821,6.97816 h -2.03423 -2.03424 z m 7.15099,-57.934996 V 0.08684569 h 5.63653 5.63653 V 7.2272931 14.367741 h 1.65781 1.6578 v 7.140447 7.140447 h -1.6578 -1.65781 v -7.140447 -7.140447 h -1.98936 -1.98937 v 7.140447 7.140447 h -1.6578 -1.6578 v 7.510161 c 0,7.417018 0.0185,7.507588 1.49202,7.30273 1.42025,-0.19745 1.50798,-0.550934 1.82358,-7.347877 0.32956,-7.097175 0.34162,-7.140448 1.98937,-7.140448 1.65384,0 1.65826,0.01663 1.84602,6.978165 0.19895,7.376268 0.17549,7.431096 -3.00649,7.026614 -0.62146,-0.07903 -0.8289,1.769889 -0.8289,7.388107 v 7.49347 h 3.64717 3.64717 v 7.140447 7.140447 h 3.62545 3.62545 l 0.1875,7.302731 0.1875,7.30273 1.83639,0.206611 1.83639,0.20661 -0.17859,14.074287 -0.17859,14.07428 -1.82358,0.2054 -1.82359,0.2054 v 7.09733 7.09733 h -7.29433 -7.29434 v -7.14044 -7.14045 h -1.6578 -1.6578 v 7.14045 7.14044 h -1.98937 -1.98936 z m 21.883,43.536966 c 0,-6.86387 -0.0486,-7.10207 -1.49202,-7.30273 -1.42024,-0.19745 -1.50797,-0.55094 -1.82358,-7.34788 l -0.33156,-7.140448 -7.12856,-0.184248 -7.12855,-0.18424 v 7.486971 7.486975 h 5.30497 5.30497 v 7.14045 7.14045 h 3.64717 3.64716 z m 7.44719,7.25758 0.17871,-14.11861 3.48139,-0.19621 3.48139,-0.19621 v -7.063401 -7.063404 l 1.82358,-0.205401 1.82358,-0.205402 0.1875,-7.30273 c 0.18695,-7.281382 0.19229,-7.302731 1.82359,-7.302731 h 1.63608 V 57.542642 42.944833 l -1.49202,0.154632 c -1.46643,0.151978 -1.49202,0.03213 -1.49202,-6.985816 0,-6.910696 0.048,-7.147126 1.49202,-7.347878 1.44336,-0.200671 1.49202,-0.438861 1.49202,-7.30273 v -7.0953 h -1.6578 -1.65781 V 7.2272931 0.08684569 h 5.30498 5.30497 V 7.1841745 14.281503 l 1.82358,0.205402 1.82359,0.205401 v 21.421343 21.421342 l -1.82359,0.205401 -1.82358,0.205394 v 14.203859 14.203851 l -3.48139,0.196208 -3.48139,0.196208 -0.33156,7.140448 c -0.31405,6.76354 -0.40915,7.15125 -1.80158,7.34505 -1.39937,0.19478 -1.47905,0.53801 -1.65781,7.14045 l -0.18778,6.93584 -3.48138,0.19621 -3.48139,0.19621 v 7.10652 7.10652 h -2.0023 -2.00229 z m 14.57917,7.14045 0.18821,-6.97817 1.82359,-0.2054 1.82358,-0.2054 v -7.09733 -7.09733 h 1.6578 1.65781 v -7.140445 -7.140447 h 1.98936 1.98937 V 72.465017 57.859557 h 1.65778 1.65781 v 14.235747 14.235748 l -1.49203,0.20743 c -1.43319,0.199251 -1.49939,0.495271 -1.6795,7.51016 l -0.1875,7.302728 h 1.67951 1.67952 v 7.1142 7.11419 l -5.39217,0.18854 -5.39218,0.18853 0.1241,6.97817 0.12409,6.97816 h -2.04868 -2.04869 z M 310.34081,65.000004 V 0.08684569 h 8.95213 8.95214 V 14.367741 28.648635 h -1.6578 -1.6578 v -7.140447 -7.140447 h -5.63654 -5.63653 v 7.097328 7.097329 l 1.82359,0.205402 1.82358,0.205401 0.33156,7.140448 c 0.30645,6.599501 0.43202,7.140447 1.6578,7.140447 1.22578,0 1.35136,-0.540946 1.65781,-7.140447 0.32957,-7.097175 0.34159,-7.140448 1.98936,-7.140448 1.64778,0 1.6598,0.04325 1.98937,7.140448 0.31564,6.796943 0.40334,7.150427 1.82358,7.347877 1.44403,0.200752 1.49202,0.437255 1.49202,7.345849 v 7.138411 l 1.82359,-0.205394 1.82358,-0.205401 0.18825,-6.978165 c 0.18708,-6.935289 0.19827,-6.978164 1.82358,-6.978164 h 1.63534 v 14.280895 14.280894 h 1.98936 1.98937 V 57.506535 c 0,-11.330576 -0.18709,-14.610135 -0.8289,-14.528555 -3.11709,0.396238 -3.14983,0.321523 -3.14983,-7.188897 v -7.140448 h -1.6578 -1.65781 V 14.333815 0.01899521 l 3.48139,0.19620814 3.48139,0.19620813 0.18824,6.97816452 c 0.18708,6.935289 0.19827,6.978165 1.82358,6.978165 h 1.63535 V 7.2272931 0.08684569 h 1.98936 1.98936 V 14.367741 28.648635 h 1.65781 1.6578 V 14.367741 0.08684569 h 7.29434 7.29433 V 7.2272931 14.367741 h -5.30497 -5.30497 v 7.106522 7.106522 l 3.48139,0.196208 3.48138,0.196208 0.17847,14.443178 0.17846,14.443178 h 1.64512 1.64512 v -7.140448 -7.140447 h 2.01183 2.01174 l -0.18816,6.978164 -0.18824,6.978165 -1.82358,0.205401 -1.82359,0.205394 v 7.097337 7.097328 h -3.64717 -3.64716 v 7.140448 7.140447 h -1.65781 -1.6578 v -7.140447 -7.140448 h 1.6578 1.65781 v -7.140447 -7.140447 h -3.65985 -3.65985 l 0.17846,14.443177 0.17846,14.443178 1.82359,0.205402 1.82358,0.205401 v 7.097329 7.097326 h 3.64717 3.64717 v -7.140445 -7.140447 h 1.6578 1.6578 v 7.097329 7.097333 l 1.82359,0.2054 1.82358,0.2054 0.18824,6.97816 0.18816,6.97817 h -2.01174 -2.01183 v 7.14045 7.14044 h -1.6578 -1.6578 v -7.14044 -7.14045 h -3.64717 -3.64717 v 7.14045 7.14044 h -3.62471 -3.62478 l -0.18816,-6.97816 -0.18825,-6.97817 -1.82358,-0.2054 -1.82358,-0.2054 v 7.18357 7.18356 h -8.95214 -8.95214 v -7.09733 -7.09733 l -1.82359,-0.2054 -1.82358,-0.2054 v -6.81588 -6.81588 l 3.48139,-0.19621 3.48138,-0.19621 V 79.571539 57.859557 h -1.6578 -1.6578 V 72.114194 86.36884 l -5.47076,0.18854 -5.47075,0.188532 v 7.140448 7.14045 l 1.82359,0.2054 1.82358,0.2054 v 7.09733 7.09733 h -1.98936 -1.98937 v 7.14045 7.14044 h -1.6578 -1.6578 z m 32.49295,43.534936 v -7.09733 l 1.82358,-0.2054 1.82358,-0.2054 v -7.14045 -7.140448 l -5.47075,-0.188532 -5.47075,-0.18854 v -7.11419 -7.114199 h -1.67952 -1.67952 l 0.1875,7.302731 c 0.18012,7.014889 0.24635,7.310909 1.67952,7.51016 1.44336,0.200663 1.49202,0.438862 1.49202,7.30273 v 7.095298 h -1.6578 -1.65781 v 7.14045 7.14045 h 5.30497 5.30498 z m 21.883,-0.0431 v -7.14044 h -1.6578 -1.6578 v 7.14044 7.14045 h 1.6578 1.6578 z m -21.883,-72.378169 v -7.465013 h -1.65781 -1.6578 v 7.032253 c 0,3.867745 0.19893,7.227001 0.44213,7.465013 0.24312,0.238021 0.98913,0.43276 1.65781,0.43276 1.10832,0 1.21567,-0.658966 1.21567,-7.465013 z M 372.0111,65.000037 V 0.08684569 h 5.63653 5.63653 V 7.2272931 14.367741 h 1.65781 1.6578 V 7.2272931 0.08684569 h 2.01183 2.01174 l -0.18816,6.97816451 -0.18824,6.9781648 -1.82359,0.205401 -1.82358,0.205394 v 7.097337 7.097328 h -1.6578 -1.65781 v 14.605461 14.605461 h 1.64512 1.64513 l 0.17846,-14.443178 0.17846,-14.443178 1.82358,-0.205401 1.82359,-0.205402 v -7.097329 -7.097328 h 1.6578 1.65781 v 7.140447 c 0,7.126183 0,7.140447 -1.60915,7.140447 -1.99136,0 -2.0914,0.466069 -1.82823,8.514286 l 0.20988,6.415741 h 7.25024 7.25032 v 7.140447 7.140448 h 1.6578 1.65781 v 7.140447 7.140447 h 3.64716 3.64717 v -7.106522 -7.10653 l -3.48138,-0.1962 -3.48139,-0.196208 -0.18742,-7.29133 c -0.18227,-7.094018 -0.22712,-7.287249 -1.6578,-7.140448 -1.43864,0.147629 -1.47039,-0.0032 -1.47039,-6.989564 0,-6.910696 0.0481,-7.147126 1.49202,-7.347878 1.44337,-0.200671 1.49203,-0.438861 1.49203,-7.30273 v -7.0953 h -1.65781 -1.6578 V 7.2272931 0.08684569 h 5.30497 5.30497 V 7.2272931 14.367741 h -1.6578 -1.6578 v 7.106522 7.106522 l 3.48138,0.196208 3.48139,0.196208 0.33156,7.140448 0.33156,7.140447 3.48139,0.196208 3.48139,0.1962 v 21.387425 21.387417 h -3.62471 -3.62479 l -0.18816,-6.978164 -0.18824,-6.978165 -1.84571,-0.207495 -1.84572,-0.207495 0.18791,7.347943 c 0.15269,5.969536 0.3745,7.364341 1.1826,7.435348 0.54707,0.04812 1.36768,0.121103 1.82358,0.162283 0.60825,0.05493 0.8289,1.975656 0.8289,7.215324 v 7.140445 h 1.6578 1.65781 v 14.2809 14.28089 h -1.63534 c -1.62531,0 -1.6365,-0.0428 -1.82359,-6.97816 l -0.18824,-6.97817 -1.82358,-0.2054 -1.82359,-0.2054 v 7.18357 7.18356 h -5.28251 -5.28259 l -0.18816,-6.97816 -0.18824,-6.97817 -3.48139,-0.1962 -3.48139,-0.19621 v 7.17437 7.17437 h -1.98936 -1.98936 v -7.14044 -7.14045 h -1.65781 c -1.6496,0 -1.65822,0.0313 -1.73638,6.32903 -0.0431,3.48097 -0.0298,6.69417 0.029,7.14045 0.0821,0.61561 -2.13956,0.81141 -9.20512,0.81141 h -9.31271 z m 7.14124,36.189083 c -0.17242,-13.952189 -0.22356,-14.443175 -1.50471,-14.443175 -1.28115,0 -1.33229,0.490986 -1.5047,14.443175 l -0.17847,14.44318 h 1.68317 1.68317 z m 7.44743,7.34585 v -7.09733 l 1.82358,-0.2054 1.82359,-0.2054 0.17473,-21.583626 0.17473,-21.583625 h -1.99831 -1.99832 v 14.235748 14.235748 l -1.49202,0.20743 c -1.49004,0.207154 -1.49228,0.226782 -1.67049,14.650605 l -0.17846,14.44318 h 1.67048 1.67049 z m 25.86174,0 v -7.09733 l -1.82359,-0.2054 -1.82358,-0.2054 -0.33156,-7.140448 -0.33156,-7.140447 H 404.83561 401.52 v 7.140447 7.140448 l 3.48139,0.19621 3.48139,0.19621 v 7.10652 7.10652 h 1.98936 1.98937 z M 397.71974,72.238422 397.8982,57.859557 h -2.00205 -2.00204 v 14.1727 c 0,7.794992 0.19073,14.359416 0.42381,14.58761 0.23317,0.228194 1.05379,0.320963 1.82359,0.206156 1.36943,-0.204217 1.40366,-0.520352 1.57823,-14.587601 z M 379.30543,43.254096 V 28.648635 h -1.6578 -1.6578 v 14.605461 14.605461 h 1.6578 1.6578 z m 55.03908,21.745908 V 0.08684569 h 12.59931 12.59931 V 65.000004 129.91316 h -12.59931 -12.59931 z m 29.17735,0 V 0.08684569 h 1.6578 1.6578 V 65.000004 129.91316 h -1.6578 -1.6578 z m 14.58867,0 V 0.08684569 h 1.6578 1.6578 V 65.000004 129.91316 h -1.6578 -1.6578 z m 7.29433,0 V 0.08684569 h 1.65781 1.6578 V 65.000004 129.91316 h -1.6578 -1.65781 z M 496.17735,65.205706 496.34637,0.41141148 498.17318,0.2057098 500,0 499.83099,64.794302 499.66197,129.5886 497.83516,129.7943 496.00842,130 Z M 164.45412,108.49182 v -7.14045 h 1.6578 1.6578 v 7.14045 7.14045 h -1.6578 -1.6578 z m -18.20027,-7.73323 c -0.23163,-0.36686 -0.37291,-3.459332 -0.31399,-6.872149 0.0877,-5.080786 0.30937,-6.311069 1.22319,-6.789819 2.29459,-1.202119 2.75982,0.09989 2.56104,7.167394 -0.17897,6.363124 -0.27469,6.774574 -1.61966,6.962194 -0.7862,0.10967 -1.61896,-0.10076 -1.85058,-0.46762 z M 131.44139,79.443182 c 0.18776,-6.96149 0.19218,-6.978165 1.84602,-6.978165 1.65384,0 1.65825,0.01663 1.84601,6.978165 l 0.18822,6.978164 h -2.03423 -2.03423 z m 142.42775,-0.162283 v -7.140448 h 1.65781 1.6578 V 50.394543 28.648635 h -5.30497 -5.30497 V 14.367741 0.08684569 h 1.63537 c 1.62532,0 1.63653,0.04284269 1.82358,6.97816451 0.18777,6.9614898 0.19218,6.9781648 1.84602,6.9781648 1.65384,0 1.65826,-0.01671 1.84602,-6.9781648 0.18706,-6.93528937 0.19827,-6.97816451 1.82358,-6.97816451 h 1.63537 V 7.2272931 14.367741 h 3.64717 3.64717 v 7.140447 7.140447 h -1.67952 -1.67953 l 0.1875,7.302731 c 0.18011,7.014881 0.24631,7.310901 1.67952,7.51016 l 1.49203,0.20743 v 14.235748 14.235747 h -1.65781 -1.6578 v 7.140448 7.140447 h -3.64717 -3.64717 z M 263.06613,57.454182 c -0.25852,-0.253072 -0.47005,-3.478599 -0.47005,-7.167833 v -6.707687 h 2.0118 2.0118 l -0.18821,6.978164 c -0.17423,6.459428 -0.28884,6.992259 -1.54175,7.167825 -0.74444,0.104315 -1.56505,-0.01736 -1.82359,-0.270469 z M 204.54358,27.834048 c -0.19527,-0.498095 -0.26853,-3.658757 -0.16282,-7.023693 0.18984,-6.042993 0.21253,-6.118049 1.85,-6.118049 h 1.6578 v 6.815882 c 0,6.578121 -0.0521,6.823128 -1.49498,7.023693 -0.83195,0.115643 -1.65244,-0.193847 -1.85,-0.697833 z M 215.51446,14.367741 V 0.08684569 h 5.30497 5.30497 V 7.2272931 14.367741 h -1.6578 -1.65781 v 7.140447 7.140447 h -3.64717 -3.64716 z m 182.35837,7.140447 v -7.140447 h 1.65781 1.6578 v 7.140447 7.140447 h -1.6578 -1.65781 z M 91.510758,7.2272931 V 0.08684569 h 1.657803 1.657804 V 7.2272931 14.367741 h -1.657804 -1.657803 z m 116.709362,0 V 0.08684569 h 1.6578 1.65781 V 7.2272931 14.367741 h -1.65781 -1.6578 z m 186.14406,6.7350729 c -0.25854,-0.253072 -0.47007,-3.498 -0.47007,-7.2109431 V 6.0856086e-4 l 1.82358,0.20540145914 1.82358,0.20540146 V 7.2272931 c 0,6.3669829 -0.0891,6.8283689 -1.35351,7.0055419 -0.74444,0.104315 -1.56505,-0.01736 -1.82358,-0.270469 z" />
</svg>