<svg id="WROCLAVIA" width="500" height="130" viewBox="0 0 500 130" version="1.1" xml:space="preserve" xmlns:xlink="http://www.w3.org/1999/xlink" xmlns="http://www.w3.org/2000/svg" xmlns:svg="http://www.w3.org/2000/svg">
	<path id="ffaf592b-1329-442f-88be-a29d398611c7" style="fill:#000000;stroke:#000000;stroke-width:0" d="M 0.44208662,129.50402 C 0.19893899,129.27837 0,100.06213 0,64.579038 V 0.06432496 h 14.588859 14.58886 V 64.989311 129.91429 H 15.030947 c -7.780726,0 -14.34571275,-0.18462 -14.58886038,-0.41027 z M 33.156499,64.989311 V 0.06432496 h 1.657825 1.657825 V 64.989311 129.91429 h -1.657825 -1.657825 z m 7.294429,0 V 0.06432496 h 1.657825 1.657825 V 64.989311 129.91429 h -1.657825 -1.657825 z m 7.29443,0 V 0.06432496 h 1.657825 1.657825 V 64.989311 129.91429 h -1.657825 -1.657825 z m 14.58886,0 V 0.06432496 h 8.952254 8.952255 V 7.1414553 14.218586 h 1.98939 1.98939 V 7.1414553 0.06432496 h 1.657825 1.657824 V 7.1414553 14.218586 h -1.657824 -1.657825 v 14.461969 14.461962 h 3.647214 3.647215 v -7.056314 -7.056307 l 7.128648,-0.174674 7.128646,-0.174667 v -7.077138 -7.07713 L 102.2878,14.340282 98.806366,14.154268 V 7.1093005 0.06432496 h 8.952254 8.95226 V 7.1093005 14.154268 l -3.48144,0.186014 -3.48143,0.186005 -0.17794,14.283041 -0.17794,14.283042 5.48298,0.17892 5.48298,0.178929 v 7.07713 7.077131 l -3.48143,0.186005 -3.48143,0.186013 V 72.374143 86.77178 l 3.48143,0.186013 3.48143,0.186013 v 6.741682 c 0,6.684282 -0.0141,6.744772 -1.65782,7.103862 -1.63784,0.35781 -1.66008,0.44907 -1.84466,7.56643 -0.18679,7.20273 -0.18717,7.20425 -1.82361,7.20425 h -1.63677 v 7.07713 7.07713 h -9.30555 -9.305537 l 0.1875,-6.89662 c 0.184582,-6.7892 0.213329,-6.90224 1.845333,-7.25764 1.631872,-0.35538 1.660751,-0.46888 1.84525,-7.25097 0.182925,-6.72418 0.226294,-6.89898 1.802524,-7.26612 1.5757,-0.36701 1.61963,-0.54345 1.80195,-7.237656 l 0.18688,-6.861478 3.48143,-0.186013 3.48144,-0.186013 V 72.374143 57.976498 l -3.48144,-0.186013 -3.48143,-0.186005 -0.18713,-7.262459 -0.18711,-7.262452 -3.460101,0.185321 -3.460088,0.185329 -0.186828,7.230981 -0.186829,7.230981 h -1.636779 -1.636779 v 7.07713 7.077131 h 5.30504 5.305044 v 7.384831 7.384832 h -1.65783 -1.657824 v 7.07713 7.077135 H 95.180189 91.55402 l -0.186828,7.23098 -0.186821,7.23098 -1.823607,0.19473 -1.823608,0.19472 v 7.03626 7.03625 h -3.647214 -3.647215 v -7.07713 -7.07713 h -3.647215 -3.647215 v 7.07713 7.07713 h -1.657825 -1.657825 v -7.07713 -7.07713 h -1.98939 -1.98939 v 7.07713 7.07713 H 63.992042 62.334218 Z M 87.533156,93.913235 V 72.066442 h -1.636778 -1.636779 l -0.186829,7.230981 -0.186828,7.230981 H 82.228117 80.570292 L 80.399208,50.373499 80.228126,14.218586 h -1.652525 -1.652524 v 36.308763 36.308756 h -1.98939 -1.98939 v 7.07713 7.077135 h 1.98939 1.98939 v -7.077135 -7.07713 h 1.657825 1.657825 v 7.036252 7.036253 l 1.823607,0.19473 1.823608,0.19473 0.186828,7.23098 0.186829,7.23098 h 1.636779 1.636778 z M 105.76923,108.3752 v -7.07713 l -1.82361,-0.19473 -1.8236,-0.19473 v 7.01544 c 0,3.85849 0.21152,7.21175 0.47005,7.45167 0.25854,0.23992 1.07916,0.35531 1.8236,0.25641 1.27296,-0.16909 1.35356,-0.60124 1.35356,-7.25693 z M 72.944297,50.629914 c 0,-11.790092 -0.166483,-21.591025 -0.369963,-21.779861 -0.20348,-0.188837 -0.949501,-0.202691 -1.657825,-0.03077 -1.244013,0.301901 -1.287862,1.043453 -1.287862,21.779861 v 21.467321 h 1.657825 1.657825 z m 51.067153,14.359397 -0.01,-64.92498604 h 3.64908 3.64908 V 7.1414553 14.218586 h -1.65782 -1.65783 v 7.384831 7.38484 h 1.65783 1.65782 v 7.07713 7.07713 h 1.98939 1.98939 v -7.07713 -7.07713 h 1.65783 1.65782 v 7.036252 7.036252 l 1.82361,0.194729 1.82361,0.194729 0.18682,7.230981 c 0.18616,7.205103 0.19261,7.230981 1.80257,7.230981 1.60994,0 1.6164,-0.02585 1.80256,-7.230981 l 0.18683,-7.230981 1.8236,-0.194729 1.82361,-0.194729 v -7.036252 c 0,-7.127163 -0.0517,-7.276913 -2.4126,-6.983697 -1.11467,0.138443 -1.54671,-2.140193 -1.55602,-8.206648 l -0.0101,-6.615578 h -1.65782 -1.65783 V 7.1414553 0.06432496 h 5.30504 5.30504 V 7.11657 14.168815 l 5.47083,0.178736 5.47082,0.178736 v 7.07713 7.077138 l -5.47082,0.178736 -5.47083,0.178736 v 14.437077 14.437077 h 1.98939 1.98939 v -7.384832 -7.384832 h 1.65783 1.65782 v 7.384832 7.384832 h -1.65782 -1.65783 v 14.461962 14.461962 h 1.65783 1.65782 v 14.461965 14.46196 h -1.63678 c -1.63643,0 -1.63682,-0.002 -1.82361,-7.20425 -0.18458,-7.11769 -0.20675,-7.20859 -1.84465,-7.56535 -1.632,-0.35547 -1.66075,-0.46853 -1.84533,-7.257715 -0.1869,-6.874686 -0.1927,-6.89661 -1.82361,-6.89661 h -1.6361 v 7.07713 7.077135 h -2.01111 -2.01111 l 0.1875,-6.923284 0.18751,-6.92328 1.82361,-0.194728 1.8236,-0.194729 v -7.343954 -7.343953 h -7.29443 -7.29443 v -7.077131 -7.07713 h -3.64721 -3.64722 v 21.518269 21.51828 l 7.12865,0.17466 7.12865,0.17468 0.18682,7.23098 0.18683,7.23098 h 5.28399 5.284 v 7.07713 7.07713 h -7.29443 -7.29443 v -7.07713 -7.07713 h -3.64721 -3.64722 v 7.07713 7.07713 h -3.6392 -3.63921 z m 29.17157,0 v -7.07713 h -1.65782 -1.65783 v 7.07713 7.077131 h 1.65783 1.65782 z m 14.58886,57.847849 v -7.07713 h -1.67887 -1.67887 l 0.18683,-7.23098 c 0.18007,-6.96979 0.24072,-7.23809 1.67887,-7.42763 1.44792,-0.19084 1.49204,-0.40466 1.49204,-7.230986 v -7.034329 h -1.67887 -1.67887 l 0.18683,-7.230981 c 0.18007,-6.969789 0.24072,-7.238089 1.67887,-7.427633 1.44732,-0.190759 1.49204,-0.406243 1.49204,-7.18818 0,-6.781937 -0.0448,-6.997428 -1.49204,-7.18818 l -1.49204,-0.196651 -0.17793,-14.275565 -0.17792,-14.275556 3.49357,-0.186406 3.49358,-0.186398 0.18682,-7.230988 0.18683,-7.230981 h -3.66826 -3.66826 V 7.1414553 0.06432496 h 7.29443 7.29443 V 14.526287 28.988257 h 1.65783 1.65782 v 7.07713 7.07713 h -1.65782 -1.65783 v 7.384832 7.384832 h 1.65783 1.65782 v 14.461962 14.461962 h -3.64721 -3.64722 v 7.07713 7.077135 h -3.64721 -3.64722 v 7.34395 7.34395 l 1.82361,0.19473 1.82361,0.19473 0.1875,6.92328 0.1875,6.92328 h -2.01111 -2.01111 z m 7.44799,-7.23098 0.17801,-14.30811 h 3.31565 3.31565 l 0.178,14.30811 0.178,14.30811 h -3.67165 -3.67166 z M 186.33952,64.989311 V 0.06432496 h 1.65783 1.65782 V 7.11657 14.168815 l 5.47082,0.178736 5.47083,0.178736 0.18682,7.230981 0.18683,7.230989 h 1.63677 1.63679 v 7.036252 7.036252 l 1.82361,0.194729 1.82361,0.194729 v 7.07713 7.077131 l -3.4601,0.18532 -3.4601,0.185329 -0.18711,-7.235727 c -0.18494,-7.151179 -0.20649,-7.239943 -1.84495,-7.596823 -1.63072,-0.355187 -1.66088,-0.472791 -1.84466,-7.191041 -0.16755,-6.125264 -0.31753,-6.861671 -1.45364,-7.137386 -0.69675,-0.16909 -1.4333,-0.152936 -1.63678,0.03592 -0.20348,0.188836 -0.36996,9.970507 -0.36996,21.73706 v 21.393726 l 1.49204,0.196652 1.49205,0.196652 0.17426,21.692943 0.17426,21.692945 h -1.6663 -1.66631 v 7.07713 7.07713 h -3.64721 -3.64722 z m 7.15009,14.26531 0.18722,-7.273774 -1.84505,0.196644 -1.84504,0.196652 -0.19032,6.420119 c -0.21998,7.420648 -0.0226,8.199132 2.01096,7.931155 1.44253,-0.190098 1.50157,-0.452336 1.68223,-7.470796 z m 14.7332,43.582539 v -7.07713 h 1.65783 1.65782 v 7.07713 7.07713 h -1.65782 -1.65783 z m 7.29443,0.0322 v -7.04497 l 3.48143,-0.18601 3.48144,-0.18601 V 93.940975 72.429621 l -1.65783,-0.36211 c -1.63193,-0.356449 -1.66076,-0.46986 -1.84533,-7.258728 -0.18691,-6.874686 -0.1927,-6.89661 -1.82361,-6.89661 h -1.6361 v 14.461962 14.461962 h 1.65783 1.65782 v 7.077131 7.077132 h -5.30504 -5.30504 V 86.528396 72.066434 h 1.65783 1.65782 v -7.07713 -7.077131 h 1.98939 1.98939 V 50.527341 43.14251 h 3.64722 3.64721 v -7.077131 -7.07713 h 1.6456 1.64561 l 0.178,14.308111 0.17801,14.308112 1.8236,0.194721 1.82361,0.194729 v 7.036252 7.03626 h 3.64722 3.64721 v -7.03626 -7.036252 l -1.82361,-0.194729 -1.8236,-0.194721 -0.18683,-7.230981 -0.18683,-7.230981 h -1.63678 -1.63678 v -7.044976 -7.044968 l 3.48143,-0.186013 3.48144,-0.186005 V 21.60341 14.526279 l -3.48144,-0.186005 -3.48143,-0.186013 V 7.1092928 0.06431727 h 5.30504 5.30504 V 7.1005772 14.136829 l 1.82361,0.194729 1.82361,0.194721 v 21.5391 21.539093 l -1.82361,0.194721 -1.82361,0.194729 v 21.498214 21.498224 h -1.65782 -1.65783 v -7.077132 -7.077131 h -5.6366 -5.63661 v 7.036253 7.03625 l 1.82361,0.19473 1.82361,0.19473 0.18682,7.23098 c 0.18616,7.2051 0.19261,7.23098 1.80257,7.23098 1.60994,0 1.6164,-0.0258 1.80256,-7.23098 l 0.18683,-7.23098 h 1.65782 1.65783 l 0.178,14.30811 0.178,14.30811 H 226.4711 215.51724 Z m 25.343,0.12169 0.18751,-6.92328 h 1.65782 1.65783 l 0.1875,6.92328 0.1875,6.92328 h -2.03283 -2.03283 z m 7.15037,-58.001696 V 0.06431727 h 5.65832 5.65832 l -0.1875,6.89661743 c -0.18459,6.7893913 -0.21327,6.9022173 -1.84532,7.2570203 -1.62401,0.353049 -1.6646,0.504253 -1.98939,7.411494 -0.31675,6.73602 -0.39824,7.059884 -1.82361,7.247751 -1.44793,0.190836 -1.49204,0.404658 -1.49204,7.230981 v 7.034329 h 1.65782 1.65783 v -7.077131 -7.07713 h 1.98939 1.98939 V 21.60341 14.218578 h 1.67886 1.67887 l -0.18683,7.230981 c -0.17925,6.937819 -0.24645,7.238851 -1.65755,7.425048 -1.40562,0.185467 -1.47901,0.498799 -1.65782,7.077131 l -0.1871,6.88307 -1.84425,0.196575 -1.84426,0.196575 0.18643,7.188257 0.18643,7.188257 3.48144,0.186005 3.48143,0.186013 v 7.012814 7.012805 l 3.48143,0.186013 3.48143,0.186013 0.33157,7.077131 0.33156,7.07713 1.82361,0.194729 1.82361,0.194721 v -7.42571 -7.425702 h 1.65782 1.65783 V 50.553227 29.04002 l -5.13926,-0.179736 -5.13926,-0.179736 -0.178,-14.308119 -0.17801,-14.30811173 h 1.67005 1.67005 V 7.1414476 14.218578 h 1.98939 1.98939 V 7.1414476 0.06431727 h 1.65782 1.65783 V 7.1414476 14.218578 h 3.66825 3.66826 l -0.18683,7.230981 c -0.18007,6.969796 -0.24071,7.238089 -1.67886,7.427641 -1.44793,0.190836 -1.49204,0.404658 -1.49204,7.230981 v 7.034329 h 1.65782 1.65783 v 14.461962 14.461962 h -1.63679 -1.63678 l -0.18683,7.230981 -0.18682,7.230981 -3.46929,0.185621 -3.4693,0.185621 -0.17792,14.276342 -0.17792,14.27634 h -1.65782 -1.65783 l -0.18682,-7.23098 -0.18683,-7.23098 h -1.63678 -1.63678 v -7.077132 -7.077131 h -7.29443 -7.29443 v 7.077131 7.077132 l 3.813,0.0654 c 7.14526,0.12259 6.42349,-0.65465 6.79708,7.31942 l 0.33156,7.07713 3.48144,0.18601 3.48143,0.18601 v 7.04497 7.04497 h -7.29443 -7.29443 v -7.07713 -7.07713 h -1.65783 -1.65782 v 7.07713 7.07713 H 250 248.01061 Z m 29.33127,50.616866 0.17801,-14.30811 3.48144,-0.18601 3.48143,-0.18602 v -7.004087 -7.004097 l 1.82361,-0.194721 1.8236,-0.194729 0.18682,-7.230981 0.18683,-7.230981 h 1.63678 1.63679 V 57.604472 43.14251 h -1.65783 -1.65782 v -7.077131 -7.07713 h 1.65782 1.65783 V 21.60341 14.218578 h -1.65783 -1.65782 V 7.1414476 0.06431727 h 5.30504 5.30504 V 7.1005772 14.136829 l 1.82361,0.194729 1.8236,0.194721 v 21.5391 21.539093 l -1.8236,0.194721 -1.82361,0.194729 v 14.421084 14.421091 h 1.98939 1.98939 V 72.374135 57.912173 h 1.65782 1.65783 v 14.461962 14.461962 h -1.65783 -1.65782 v 7.034329 c 0,6.826324 0.0441,7.040144 1.49204,7.230984 1.43815,0.18954 1.49879,0.45784 1.67886,7.42763 l 0.18683,7.23098 h -5.30437 -5.30436 l -0.1875,6.92328 -0.1875,6.92328 -1.84576,0.19671 -1.84576,0.19671 0.18793,-6.96613 0.18794,-6.96615 1.80293,-0.19287 1.80293,-0.19288 0.18646,-7.19195 c 0.17965,-6.92944 0.24092,-7.19914 1.67851,-7.38861 1.44792,-0.19084 1.49204,-0.40466 1.49204,-7.230984 v -7.034329 h -3.64722 -3.64721 v 7.077131 7.077132 h -1.63679 -1.63678 l -0.18683,7.23098 -0.18682,7.23098 -3.48143,0.18601 -3.48143,0.18601 v 7.04497 7.04497 h -2.00162 -2.00161 z M 310.34483,64.989304 V 0.06431727 h 8.96447 8.96447 l -0.178,14.30811173 c -0.17221,13.842782 -0.22113,14.308119 -1.50426,14.308119 -1.24042,0 -1.33835,0.46806 -1.51309,7.230981 l -0.18683,7.230981 h 1.67888 1.67887 v 7.425702 7.42571 l 1.8236,-0.194729 1.82361,-0.194721 0.18682,-7.230981 0.18683,-7.230981 h 1.63678 1.63679 v 14.461962 14.461962 h -1.65783 -1.65782 v 7.384832 7.384831 h 1.65782 1.65783 v 7.077131 7.077132 h -1.65783 -1.65782 v 7.38483 7.38483 h 5.28399 5.28399 l 0.18683,-7.23098 0.18683,-7.23098 1.82361,-0.19473 1.82361,-0.19473 v -7.011365 -7.011367 l -5.47083,-0.178736 -5.47082,-0.178736 v -7.07713 -7.077131 l 1.82361,-0.194729 1.82361,-0.194728 V 57.563594 43.14251 h 1.65782 1.65783 v -7.077131 -7.07713 h -1.63611 c -1.63133,0 -1.63666,0.02023 -1.82361,6.92328 l -0.1875,6.923279 h -1.65782 -1.65783 l -0.18751,-6.923279 c -0.18695,-6.903041 -0.19228,-6.92328 -1.8236,-6.92328 h -1.6361 V 14.494125 0 l 3.48143,0.18601314 3.48143,0.18600545 0.1875,6.92327971 c 0.18695,6.9030407 0.19228,6.9232797 1.82361,6.9232797 h 1.63611 V 7.1414476 0.06431727 h 2.01144 2.01144 l -0.0735,14.30811173 -0.0734,14.308119 1.70925,0.194721 1.70926,0.194729 V 14.567157 0.06431727 h 7.29443 7.29443 V 7.1414476 14.218578 h -5.30504 -5.30504 v 6.769429 c 0,3.723186 -0.0746,6.977127 -0.16579,7.230981 -0.0912,0.253861 1.47547,0.600025 3.48144,0.769261 l 3.64721,0.307701 0.178,14.308112 0.178,14.308111 h 1.64561 1.64561 v 7.077131 7.07713 h -3.64722 -3.64721 v 7.384832 7.384831 h -1.61768 c -1.60912,0 -1.61877,0.03746 -1.82361,7.078338 l -0.20593,7.078335 1.98939,0.0595 c 5.86883,0.17532 5.28259,-0.6228 5.49186,7.47683 l 0.18683,7.23098 h 1.63678 1.63679 v 7.07713 7.07713 h -1.65783 -1.65782 v -7.07713 -7.07713 h -3.6255 -3.6255 l -0.1875,6.92328 -0.1875,6.92328 -3.48143,0.18601 -3.48143,0.18601 v -7.10929 -7.10929 h -1.98939 -1.98939 v 7.07713 7.07713 h -8.95226 -8.95225 v -7.03625 -7.03626 l -1.82361,-0.19472 -1.82361,-0.19473 v -7.07713 -7.07713 l 3.48143,-0.18601 3.48144,-0.18602 V 79.419134 57.912204 h -1.64561 -1.64561 l -0.178,14.308111 -0.178,14.308112 -5.47082,0.178736 -5.47082,0.178736 v 7.011367 7.011364 l 1.8236,0.19473 1.82361,0.19473 v 7.07713 7.07713 l -1.82361,0.19473 -1.8236,0.19472 v 7.03626 7.03625 h -1.65783 -1.65782 z m 43.76658,14.461962 v -7.384832 h 1.65782 1.65783 v -7.07713 -7.077131 h -3.64722 -3.64721 v 14.051689 c 0,7.728434 0.19893,14.236317 0.44208,14.461962 0.24314,0.225652 1.13837,0.410273 1.98939,0.410273 1.53502,0 1.54731,-0.05862 1.54731,-7.384831 z m -33.1565,-43.385887 v -7.07713 h 2.01042 2.01044 l -0.18683,-7.230989 -0.18682,-7.230981 h -5.30504 -5.30504 v 7.049391 c 0,7.012514 0.009,7.051276 1.65783,7.411494 1.63192,0.356457 1.66075,0.46986 1.84532,7.258728 0.18691,6.874686 0.1927,6.896618 1.82361,6.896618 h 1.63611 z m 51.06101,28.923925 V 0.06431727 h 5.6366 5.6366 V 7.1414476 14.218578 h 1.65783 1.65782 V 7.1414476 0.06431727 h 2.01111 2.01111 l -0.1875,6.92327973 -0.1875,6.92328 -1.82361,0.194728 -1.82361,0.194729 v 7.343954 7.343961 h 1.98939 1.98939 V 21.60341 14.218578 h 1.65783 1.65782 V 7.1414476 0.06431727 h 1.98939 1.98939 V 7.1414476 14.218578 h 1.67887 1.67887 l -0.18683,7.230981 c -0.17474,6.762921 -0.27267,7.230989 -1.51308,7.230989 -1.24042,0 -1.33835,-0.468068 -1.51309,-7.230989 l -0.18683,-7.230981 h -1.9473 -1.9473 l -0.18683,7.230981 c -0.18007,6.969796 -0.24072,7.238089 -1.67886,7.427641 -1.44763,0.190798 -1.49205,0.405427 -1.49205,7.210157 v 7.013505 l 7.12865,0.174675 7.12865,0.174674 0.18682,7.230981 0.18683,7.230981 h 1.63678 1.63678 v 7.077131 7.07713 h 3.64722 3.64721 V 65.021458 57.97649 l -3.48143,-0.186013 -3.48143,-0.186005 -0.18683,-7.230981 -0.18683,-7.230981 h -1.63678 -1.63678 v -7.077131 -7.07713 h 1.65783 1.65782 V 21.60341 14.218578 h -1.65782 -1.65783 V 7.1414476 0.06431727 h 5.30504 5.30504 V 7.1414476 14.218578 h -1.65782 -1.65783 v 6.769429 c 0,3.723186 -0.0746,6.977127 -0.16578,7.230981 -0.0912,0.253861 1.47547,0.600025 3.48143,0.769261 l 3.64722,0.307701 0.18717,6.891802 0.18719,6.89181 3.46003,0.185321 3.46004,0.185328 v 21.539093 21.539092 l -3.48143,0.186005 -3.48144,0.186014 v 7.002166 c 0,6.792979 0.0446,7.008039 1.49205,7.198829 l 1.49204,0.19665 0.178,14.30811 0.178,14.30811 h -1.67004 -1.67005 v -7.07713 -7.07713 h -1.98939 -1.98939 v 7.07713 7.07713 h -5.30504 -5.30504 v -7.07713 -7.07713 h -3.64721 -3.64722 v 7.07713 7.07713 h -1.98939 -1.98939 v -7.07713 -7.07713 h -1.65782 -1.65783 v 7.07713 7.07713 h -9.28382 -9.28381 z m 7.29442,36.308756 V 86.836097 h -1.65782 -1.65783 v 14.461963 14.46196 h 1.65783 1.65782 z m 7.43917,7.23098 0.18683,-7.23098 1.82361,-0.19473 1.8236,-0.19473 V 79.451266 57.993922 l -1.8236,-0.194729 -1.82361,-0.194721 -0.33157,-14.461962 c -0.18236,-7.954079 -0.55537,-14.392729 -0.82891,-14.308112 -0.27354,0.08462 -0.94496,0.153851 -1.49204,0.153851 -0.85596,0 -0.9947,2.017151 -0.9947,14.461962 v 14.461962 h 1.65783 1.65782 v 14.461962 14.461962 h -1.65782 -1.65783 v 14.461963 14.46196 h 1.63678 1.63678 z m 25.38577,-0.15385 v -7.07713 l -1.82361,-0.19473 -1.82361,-0.19473 v -7.03625 -7.036253 h -3.64721 -3.64722 v 7.044968 7.044965 l 3.48144,0.18602 3.48143,0.18601 0.17574,6.46173 c 0.20785,7.64268 0.35535,8.14687 2.30803,7.88954 1.45228,-0.19138 1.49501,-0.39926 1.49501,-7.27414 z m -14.41086,-36.154905 0.178,-14.308112 h -2.00161 -2.00161 v 14.051689 c 0,7.728434 0.21153,14.248002 0.47006,14.487924 0.25853,0.239922 1.07916,0.35531 1.8236,0.256415 1.31237,-0.174336 1.35897,-0.61521 1.53156,-14.487916 z m 21.89211,7.384831 -0.18682,-7.230981 -1.82361,-0.194729 -1.82361,-0.194728 v 7.015444 c 0,3.85849 0.19894,7.200057 0.44209,7.425702 0.24314,0.225652 1.14784,0.410273 2.01043,0.410273 h 1.56835 z M 379.31034,43.450211 V 28.988249 h -1.65782 -1.65783 v 14.461962 14.461962 h 1.65783 1.65782 z m 55.03979,21.539093 V 0.06431727 h 12.59947 12.59947 V 64.989304 129.91428 H 446.9496 434.35013 Z m 29.17772,0 V 0.06431727 h 1.65783 1.65782 V 64.989304 129.91428 h -1.65782 -1.65783 z m 14.58886,0 V 0.06431727 h 1.65783 1.65782 V 64.989304 129.91428 h -1.65782 -1.65783 z m 7.29443,0 V 0.06431727 h 1.65783 1.65782 V 64.989304 129.91428 h -1.65782 -1.65783 z m 11.05216,64.514716 c -0.24314,-0.22566 -0.44208,-29.4419 -0.44208,-64.92499 V 0.06431727 H 498.01061 500 V 64.989304 129.91428 h -1.54731 c -0.85102,0 -1.74624,-0.18462 -1.98939,-0.41026 z M 204.71408,115.37571 c -0.66817,-0.62009 -0.56512,-12.6779 0.11691,-13.67665 0.31166,-0.45639 1.12771,-0.72953 1.81346,-0.60698 1.13401,0.20268 1.2468,0.86228 1.2468,7.29153 0,6.64721 -0.0807,7.07943 -1.35356,7.24852 -0.74445,0.0989 -1.56507,-0.0165 -1.82361,-0.25642 z m 160.31147,-0.38339 c -0.19423,-0.4697 -0.26749,-3.74307 -0.16282,-7.27413 0.18945,-6.39078 0.1979,-6.42013 1.84815,-6.42013 h 1.65782 v 7.07713 c 0,6.87488 -0.0427,7.08276 -1.49501,7.27414 -0.82885,0.10923 -1.65236,-0.18352 -1.84814,-0.65701 z m -3.61971,-21.079092 v -7.077131 h 1.65782 1.65783 v 7.077131 7.077132 h -1.65783 -1.65782 z M 131.6038,86.068398 c -0.19423,-0.469706 -0.26749,-3.743071 -0.16282,-7.274144 0.18945,-6.390764 0.1979,-6.420119 1.84814,-6.420119 h 1.65783 v 7.077131 c 0,6.874878 -0.0428,7.082761 -1.49501,7.274143 -0.82885,0.109227 -1.65236,-0.183528 -1.84814,-0.657011 z M 262.90353,57.144474 c -0.19422,-0.469706 -0.26749,-3.743071 -0.16281,-7.274144 0.18944,-6.390764 0.19789,-6.420119 1.84814,-6.420119 h 1.65782 v 7.07713 c 0,6.874879 -0.0427,7.082762 -1.49501,7.274144 -0.82885,0.109227 -1.65236,-0.183528 -1.84814,-0.657011 z m 102.12202,0 c -0.19423,-0.469706 -0.26749,-3.743071 -0.16282,-7.274144 0.18945,-6.390764 0.1979,-6.420119 1.84815,-6.420119 h 1.65782 v 7.07713 c 0,6.874879 -0.0427,7.082762 -1.49501,7.274144 -0.82885,0.109227 -1.65236,-0.183528 -1.84814,-0.657011 z M 87.848723,27.603585 c -0.205056,-0.76156 -0.285344,-4.015502 -0.178415,-7.230981 0.192126,-5.777692 0.213868,-5.846325 1.852238,-5.846325 1.655562,0 1.658082,0.0092 1.847174,6.719597 0.139821,4.961645 -0.03365,6.850908 -0.66313,7.221558 -1.476492,0.869402 -2.472223,0.568424 -2.857867,-0.863849 z M 131.6038,28.22055 c -0.19423,-0.469706 -0.26749,-3.743072 -0.16282,-7.274144 0.18945,-6.390764 0.1979,-6.420127 1.84814,-6.420127 h 1.65783 v 7.077131 c 0,6.874878 -0.0428,7.082761 -1.49501,7.274144 -0.82885,0.109233 -1.65236,-0.183521 -1.84814,-0.657004 z m 72.90624,-0.09203 c -0.17329,-0.419097 -0.22944,-3.651046 -0.12476,-7.182118 0.18945,-6.390764 0.19789,-6.420127 1.84814,-6.420127 h 1.65783 l 0.1875,6.92328 c 0.10312,3.807804 -0.0461,6.944473 -0.33157,6.970366 -0.28548,0.02592 -1.05974,0.142373 -1.72056,0.258838 -0.66083,0.116465 -1.34328,-0.13115 -1.51658,-0.550239 z m 11.0072,-13.570082 V 0.06431727 h 5.30504 5.30504 V 7.1414476 14.218578 h -1.63679 -1.63678 l -0.18682,7.230981 -0.18682,7.230989 -3.48144,0.186005 -3.48143,0.186013 z M 91.511936,7.1414476 V 0.06431727 h 1.657825 1.657825 V 7.1414476 14.218578 h -1.657825 -1.657825 z m 43.766574,0 V 0.06431727 h 1.65783 1.65782 V 7.1414476 14.218578 h -1.65782 -1.65783 z m 72.9443,0 V 0.06431727 h 1.65783 1.65782 V 7.1414476 14.218578 h -1.65782 -1.65783 z" />
</svg>