<svg id="ZOOZAKUPY" width="500" height="130" viewBox="0 0 500 130" version="1.1" xml:space="preserve" xmlns:xlink="http://www.w3.org/1999/xlink" xmlns="http://www.w3.org/2000/svg" xmlns:svg="http://www.w3.org/2000/svg">
	<path id="9901806922118" style="fill:#000000;stroke:#000000;stroke-width:0" d="M 0,65 V 0 h 3.8659794 3.8659794 v 65 65 H 3.8659794 0 Z m 11.603415,0 V 0 h 2.252416 2.252416 v 65 65 h -2.252416 -2.252416 z m 12.236791,0 V 0 h 6.443299 6.443299 v 65 65 h -6.443299 -6.443299 z m 20.618557,0 V 0 h 1.93299 1.932989 v 65 65 h -1.932989 -1.93299 z m 8.376289,0 V 0 h 6.121134 6.121134 v 65 65 h -6.121134 -6.121134 z m 16.108247,0 V 0 h 8.054124 8.054123 v 65 65 h -8.054123 -8.054124 z m 19.974227,0 V 0 h 4.188144 4.188144 v 65 65 H 93.10567 88.917526 Z M 105.6701,65 V 0 h 4.18267 4.18275 l 0.008,65 0.008,65 h -4.19089 -4.1908 z m 12.24227,0 V 0 h 3.86598 3.86598 v 65 65 h -3.86598 -3.86598 z m 16.10825,0 V 0 h 1.93299 1.93299 v 65 65 h -1.93299 -1.93299 z m 8.37629,0 V 0 h 1.93299 1.93299 v 65 65 h -1.93299 -1.93299 z m 12.24227,0 V 0 h 8.05412 8.05412 v 65 65 h -8.05412 -8.05412 z m 23.8402,0 V 0 h 2.25516 2.25515 v 65 65 h -2.25515 -2.25516 z m 8.37629,0 V 0 h 4.18814 4.18815 v 65 65 h -4.18815 -4.18814 z m 16.10825,0 V 0 h 2.25515 2.25516 v 65 65 h -2.25516 -2.25515 z m 20.61855,0 V 0 h 4.18815 4.18814 v 65 65 h -4.18814 -4.18815 z m 16.10825,0 V 0 h 6.12114 6.12113 v 65 65 h -6.12113 -6.12114 z m 16.10825,0 V 0 h 2.25515 2.25516 v 65 65 h -2.25516 -2.25515 z m 12.24227,0 V 0 h 4.18814 4.18815 v 65 65 h -4.18815 -4.18814 z m 20.61855,0 V 0 h 1.93299 1.93299 v 65 65 h -1.93299 -1.93299 z m 12.24227,0 V 0 h 1.93299 1.93299 v 65 65 h -1.93299 -1.93299 z m 12.24227,0 V 0 h 1.93299 1.93299 v 65 65 h -1.93299 -1.93299 z m 7.73196,0 V 0 h 8.37629 8.37629 v 65 65 h -8.37629 -8.37629 z m 20.61856,0 V 0 h 6.12113 6.12113 v 65 65 h -6.12113 -6.12113 z m 16.10824,0 V 0 h 6.12114 6.12113 v 65 65 h -6.12113 -6.12114 z m 16.75258,0 V 0 h 1.93299 1.93299 v 65 65 h -1.93299 -1.93299 z m 11.59794,0 V 0 h 4.18814 4.18815 v 65 65 h -4.18815 -4.18814 z m 16.75258,0 V 0 h 4.18532 4.18541 v 65 65 h -4.18541 -4.18532 z m 12.24226,0 V 0 h 1.93299 1.93299 v 65 65 h -1.93299 -1.93299 z m 16.10825,0 V 0 h 1.93299 1.93299 v 65 65 h -1.93299 -1.93299 z m 16.10825,0 V 0 h 4.18814 4.18815 v 65 65 h -4.18815 -4.18814 z m 20.61856,0 V 0 h 6.12113 6.12113 v 65 65 h -6.12113 -6.12113 z m 16.10824,0 V 0 h 2.09407 2.09408 v 65 65 h -2.09408 -2.09407 z m 8.37629,0 V 0 H 496.13402 500 v 65 65 h -3.86598 -3.86598 z" />
</svg>