<svg id="1MINUTE" width="500" height="93.669739" viewBox="0 0 500 93.669739" version="1.1" xml:space="preserve" xmlns:xlink="http://www.w3.org/1999/xlink" xmlns="http://www.w3.org/2000/svg" xmlns:svg="http://www.w3.org/2000/svg">
	<path id="1" style="fill:#000000;stroke:#000000;stroke-width:0" d="m 22.341417,92.317042 c -1.578252,-0.243718 -1.665822,-0.472246 -2.079889,-5.427719 -0.535789,-6.41218 -0.509091,-41.913137 0.03653,-48.562661 0.220725,-2.690141 0.188358,-4.891164 -0.07193,-4.891164 -0.260292,0 -1.508133,0.816203 -2.772987,1.81378 -4.027128,3.176156 -8.4967336,5.759639 -9.964593,5.759639 -2.2547538,0 -6.1405374,-6.018086 -7.40574817,-11.469602 C -0.49034858,27.069773 1.8923825,24.605817 7.8519779,21.505299 10.61095,20.069917 16.932481,16.175943 21.899818,12.852015 37.432345,2.4583345 44.281705,-0.37127676 52.725006,0.1174989 c 9.409791,0.54472308 13.209083,4.7443657 14.654946,16.1992321 0.598796,4.743919 0.531311,8.407683 -0.376531,20.442703 -0.747015,9.903052 -1.096744,21.372535 -1.077329,35.332047 l 0.02871,20.669116 -20.982881,-0.09456 C 33.431334,92.614037 23.2476,92.456974 22.341409,92.317042 Z" />
	<path id="M" style="fill:#000000;stroke:#000000;stroke-width:0" d="m 140.03543,92.956588 c -0.73787,-0.144774 -2.01589,-0.980638 -2.84003,-1.857475 l -1.49845,-1.594245 -0.18137,-21.723504 -0.18137,-21.723506 h -8.81206 -8.81206 v 23.351367 23.351372 h -8.83566 -8.83565 V 63.808703 34.856813 l 35.18483,-0.438318 c 23.55117,-0.293395 36.27676,-0.221447 38.48725,0.2176 4.45912,0.885674 7.69921,2.633702 10.37823,5.599065 4.2716,4.728141 4.35946,5.370209 4.16472,30.436308 l -0.17406,22.404684 -4.10227,0.19881 c -5.92369,0.287087 -9.37944,-0.369665 -11.12381,-2.114025 l -1.49855,-1.49856 -0.004,-17.857767 c -0.002,-9.872478 -0.28373,-18.866468 -0.63016,-20.11355 -0.34464,-1.240678 -1.35917,-2.944698 -2.2545,-3.786714 -1.47948,-1.391365 -2.25038,-1.550244 -8.45664,-1.742835 l -6.82876,-0.21191 -0.49586,6.838649 c -0.73379,10.120087 -0.6271,34.177894 0.1652,37.251633 0.56216,2.180878 0.51994,2.705777 -0.24109,2.997811 -1.02417,0.393008 -10.46844,0.332091 -12.57436,-0.08111 z" />
	<path id="I" style="fill:#000000;stroke:#000000;stroke-width:0" d="M 205.75106,23.586608 C 202.95189,22.058509 201.04077,20.151 199.71074,17.557683 195.16712,8.6984332 200.3657,0.04238161 210.25534,9.9311771e-5 216.86313,-0.02816824 222.47569,5.981862 222.47569,13.085824 c 0,6.924821 -3.92894,10.990282 -10.96036,11.341193 -2.69786,0.134643 -4.44468,-0.12004 -5.76427,-0.840409 z m -4.73339,39.733453 V 33.879529 l 5.20673,0.40532 c 2.86369,0.222926 6.92497,0.407022 9.02505,0.409098 l 3.81833,0.0037 -0.58126,5.206726 c -0.73851,6.615254 -0.91009,42.221255 -0.23267,48.28053 l 0.51156,4.575608 h -8.87387 -8.87387 z" />
	<path id="N" style="fill:#000000;stroke:#000000;stroke-width:0" d="m 282.11635,92.805587 c -6.37417,-1.538282 -6.62674,-2.425638 -6.62674,-23.281908 0,-10.47056 -0.25971,-17.711292 -0.67834,-18.912172 -1.40302,-4.024704 -6.38757,-5.48165 -16.51963,-4.828566 l -6.78452,0.437307 V 69.49042 92.760597 h -8.90318 c -7.56983,0 -8.84991,-0.138801 -8.54752,-0.926811 0.19561,-0.509746 0.6805,-5.173772 1.07754,-10.36449 0.53555,-7.001499 0.54263,-13.825468 0.0274,-26.435815 -0.38195,-9.348985 -0.69446,-17.91037 -0.69446,-19.025309 v -2.027155 l 22.56247,0.200581 c 22.15472,0.19695 22.6221,0.227531 25.86137,1.69208 4.36866,1.97518 8.02505,6.008803 9.28122,10.238796 1.48574,5.003021 1.47749,46.325598 -0.009,46.896156 -1.31371,0.504115 -7.64637,0.37613 -10.04627,-0.203043 z" />
	<path id="U" style="fill:#000000;stroke:#000000;stroke-width:0" d="m 319.66788,91.935497 c -2.91213,-0.917892 -8.32257,-6.409941 -9.44589,-9.588352 -0.68707,-1.944063 -0.94531,-7.762462 -1.1232,-25.306883 l -0.231,-22.782424 4.61115,-0.372752 c 8.05266,-0.650964 12.42111,1.030099 12.54371,4.827056 0.024,0.742551 0.095,9.45597 0.15778,19.363143 0.10147,16.007712 0.2378,18.201888 1.22459,19.709307 2.07267,3.166233 4.41258,3.876537 13.62588,4.136316 4.63381,0.130655 8.64459,-0.0037 8.91284,-0.29922 0.26826,-0.295232 0.11348,-2.950804 -0.34394,-5.901282 -1.37135,-8.845396 -1.00484,-29.408371 0.70586,-39.60266 l 0.3442,-2.05113 h 8.4915 8.49149 v 29.346988 29.346993 l -22.87803,-0.06442 c -14.74322,-0.04151 -23.66346,-0.311999 -25.08694,-0.760672 z" />
	<path id="T" style="fill:#000000;stroke:#000000;stroke-width:0" d="m 400.93278,93.411755 c -5.52672,-1.005945 -9.50755,-2.693756 -12.19405,-5.170082 -5.54073,-5.107262 -7.13829,-12.937767 -6.03163,-29.5642 0.38704,-5.814865 0.7037,-11.033084 0.7037,-11.596047 0,-0.819945 -0.69054,-1.023568 -3.47115,-1.023568 h -3.47115 v -5.995621 -5.995621 h 3.47115 3.47115 v -5.995622 -5.995621 l 5.52228,0.01384 c 6.49798,0.01629 10.66079,1.472546 11.11942,3.889801 1.18236,6.231588 1.30869,6.491962 3.72171,7.670927 2.76079,1.348883 9.70913,1.649992 19.87037,0.861097 l 6.46896,-0.502233 v 6.024521 6.024514 H 415.3501 400.58667 l -0.46345,11.124448 c -0.53212,12.77278 -0.22612,17.159733 1.38931,19.918129 2.73442,4.669107 7.16763,5.841013 19.67871,5.202025 6.82486,-0.348576 8.53842,-0.265009 8.98377,0.438095 0.92325,1.457601 0.69792,9.835775 -0.27457,10.208951 -1.60404,0.615526 -25.98782,1.004629 -28.96766,0.462249 z" />
	<path id="E" style="fill:#000000;stroke:#000000;stroke-width:0" d="m 451.36338,91.736166 c -4.30793,-1.323538 -8.28566,-5.438289 -9.48729,-9.814083 -1.18743,-4.324124 -1.86301,-23.957569 -1.04607,-30.400911 1.16671,-9.202091 4.87306,-14.518614 11.49282,-16.485738 5.62859,-1.672591 20.31451,-2.601634 27.81029,-1.759305 8.69405,0.976986 12.75006,2.372971 15.99553,5.505313 2.10229,2.029007 2.7983,3.281959 3.44335,6.198723 1.97305,8.921603 -3.08348,19.705546 -10.89481,23.235076 -3.19934,1.445618 -3.92216,1.508744 -17.06765,1.490667 l -13.72681,-0.01889 v 1.397808 c 0,4.095205 3.64346,8.457394 8.4724,10.143694 2.7188,0.949433 5.08848,1.09513 15.66786,0.963351 L 494.48759,82.0366 v 5.36199 5.361996 l -20.038,-0.04396 c -15.82718,-0.03474 -20.67856,-0.240758 -23.08621,-0.980467 z m 25.88118,-35.309719 c 2.30475,-1.691835 3.98733,-5.035633 3.98857,-7.926511 l 7.4e-4,-2.2913 -6.56877,-0.447728 c -12.60936,-0.85946 -16.7826,1.28165 -16.7826,8.610428 v 3.798809 l 8.79059,-0.2183 c 7.69064,-0.190984 9.01341,-0.381857 10.57123,-1.525398 z" />
</svg>
