<svg
   width="694.9856mm"
   height="468.09732mm"
   viewBox="0 0 694.9856 468.09732"
   version="1.1"
   id="svg51747"
   xml:space="preserve"
   xmlns="http://www.w3.org/2000/svg"
   xmlns:svg="http://www.w3.org/2000/svg"><defs
     id="defs51744" /><g
     id="layer1"
     transform="translate(-640.1336,0.00430881)"><path
       style="fill:#000000;stroke-width:0.264583"
       d="m 969.39431,468.0475 c -0.21828,-0.0622 -3.37344,-0.23844 -7.01146,-0.39158 -3.63802,-0.15314 -8.63864,-0.45342 -11.1125,-0.66723 -7.23164,-0.62507 -17.3823,-1.41486 -22.09271,-1.71891 -6.44009,-0.41574 -9.68356,-0.77756 -11.90625,-1.32821 -1.0914,-0.27038 -4.83854,-0.97936 -8.32694,-1.57549 -3.4884,-0.59613 -7.65558,-1.38689 -9.26041,-1.7572 -2.89322,-0.66763 -7.47176,-1.39185 -12.31056,-1.94723 -3.51354,-0.40328 -6.61353,-0.94512 -11.37709,-1.98853 -2.25557,-0.49408 -5.23213,-1.09979 -6.61458,-1.34604 -1.38245,-0.24628 -3.41913,-0.77962 -4.52599,-1.18526 -1.10683,-0.40563 -3.78574,-1.11323 -5.95312,-1.57244 -2.16737,-0.45924 -4.77412,-1.13483 -5.79276,-1.50133 -1.01865,-0.36652 -3.16177,-1.08161 -4.7625,-1.58911 -8.1313,-2.57789 -13.67978,-4.4468 -15.34584,-5.16893 -1.01864,-0.44153 -3.57849,-1.25629 -5.68854,-1.81057 -2.11005,-0.55427 -4.66523,-1.32175 -5.67818,-1.70547 -1.01295,-0.3837 -3.09514,-0.99383 -4.62708,-1.35581 -1.59385,-0.37661 -3.52238,-1.04868 -4.50828,-1.57107 -0.9476,-0.5021 -2.91354,-1.43407 -4.36875,-2.07102 -1.45521,-0.63696 -4.43177,-1.96176 -6.61458,-2.94397 -3.95917,-1.78155 -9.79742,-4.23421 -14.82526,-6.22816 -1.45994,-0.57899 -4.31744,-2.00501 -6.35,-3.16897 -2.03257,-1.16393 -5.12433,-2.82551 -6.87058,-3.69239 -1.74625,-0.86685 -4.48468,-2.28843 -6.08541,-3.15905 -1.60073,-0.87063 -4.10104,-2.16553 -5.55625,-2.8776 -1.45521,-0.71205 -4.37224,-2.45571 -6.48229,-3.87477 -2.11006,-1.41907 -4.43177,-2.8796 -5.15938,-3.24565 -0.7276,-0.36605 -1.84686,-1.09085 -2.48724,-1.61067 -1.43085,-1.1615 -5.03693,-3.46877 -7.71497,-4.93628 -2.22444,-1.21894 -3.44886,-2.08137 -5.4082,-3.80939 -0.72761,-0.64172 -2.45401,-1.90956 -3.83646,-2.81742 -1.38245,-0.90786 -3.33402,-2.35013 -4.33683,-3.20506 -1.0028,-0.85492 -2.75179,-2.21599 -3.88663,-3.02461 -1.13484,-0.80862 -2.64199,-1.99924 -3.34922,-2.64583 -1.30541,-1.19348 -3.51932,-3.00532 -6.15441,-5.03669 -0.80036,-0.61701 -2.88395,-2.60321 -4.6302,-4.41378 -1.99615,-2.0697 -4.04288,-3.88715 -5.51245,-4.89497 -1.56026,-1.07001 -3.1358,-2.49 -4.73858,-4.27075 -1.32063,-1.46727 -3.49157,-3.73933 -4.82431,-5.04902 -1.33275,-1.30968 -2.89132,-3.05739 -3.4635,-3.88376 -0.57218,-0.8264 -2.06961,-2.6125 -3.32763,-3.96912 -1.25802,-1.35663 -2.91234,-3.47845 -3.67628,-4.7152 -0.76394,-1.23671 -2.48928,-3.45469 -3.83408,-4.92881 -1.3448,-1.47413 -3.13957,-3.61725 -3.98838,-4.7625 -0.8488,-1.14525 -2.10177,-2.74085 -2.78436,-3.54576 -0.68259,-0.80492 -1.8506,-2.58527 -2.59557,-3.95634 -0.74497,-1.37107 -1.51992,-2.67703 -1.72212,-2.90214 -0.20219,-0.22511 -0.79841,-1.35641 -1.32494,-2.51402 -0.52653,-1.15763 -1.42546,-2.71155 -1.99763,-3.45318 -0.57217,-0.74163 -1.29978,-1.93762 -1.61692,-2.65777 -0.55692,-1.2646 -2.92581,-5.18742 -4.48204,-7.42206 -0.41584,-0.59714 -1.1845,-2.08542 -1.70813,-3.30729 -0.52364,-1.2219 -1.35351,-3.1146 -1.84416,-4.206 -0.49065,-1.09141 -1.27145,-3.23454 -1.7351,-4.7625 -0.46365,-1.52797 -1.11666,-3.25438 -1.45112,-3.83646 -0.33446,-0.58209 -1.03767,-2.50701 -1.56267,-4.27757 -0.525,-1.7706 -1.34977,-4.09231 -1.83281,-5.15938 -0.48304,-1.06709 -1.2046,-3.13076 -1.60345,-4.58597 -0.39886,-1.45521 -1.00845,-3.5388 -1.35465,-4.63021 -0.93758,-2.95579 -1.26855,-4.59502 -2.85798,-14.15521 -1.92852,-11.59974 -2.41221,-17.33379 -2.41039,-28.575 0.002,-9.20726 0.3142,-13.23359 1.47801,-19.03002 0.29438,-1.46619 0.7558,-4.15409 1.02538,-5.9731 0.98038,-6.61525 1.8947,-11.29273 2.63767,-13.49375 0.41753,-1.23693 1.07875,-3.32052 1.46938,-4.63021 0.39063,-1.30969 1.13012,-3.39328 1.64332,-4.63021 0.51319,-1.23692 1.32128,-3.61817 1.79574,-5.29166 1.78692,-6.30271 3.90213,-11.52988 7.28046,-17.99167 1.7879,-3.41974 3.57049,-6.69396 3.96133,-7.27604 0.39084,-0.58208 1.2068,-2.12192 1.81325,-3.42185 0.60645,-1.29994 1.37777,-2.72869 1.71404,-3.175 0.33627,-0.44632 1.0892,-1.70445 1.67317,-2.79586 1.94798,-3.64063 3.51506,-6.19291 4.70777,-7.66746 1.83398,-2.26735 3.50885,-4.49774 4.57384,-6.09087 1.67002,-2.49823 4.4907,-6.1854 5.31093,-6.9424 0.43187,-0.39858 1.11189,-1.29155 1.51115,-1.98438 0.90633,-1.57273 2.15201,-3.14865 4.23734,-5.36072 0.89169,-0.94589 2.00221,-2.28419 2.46783,-2.97401 0.46562,-0.68982 1.67437,-1.92304 2.6861,-2.74048 1.01173,-0.81744 2.28375,-2.09851 2.82672,-2.84682 1.61529,-2.22621 8.5123,-9.21235 10.26614,-10.398829 0.89493,-0.605417 2.30869,-1.855574 3.1417,-2.778125 0.833,-0.92255 2.32795,-2.332207 3.32211,-3.132572 0.99416,-0.800364 2.92187,-2.481567 4.2838,-3.736006 1.36193,-1.254438 3.13108,-2.714982 3.93144,-3.245655 1.51159,-1.002244 3.6953,-2.750513 5.29167,-4.236487 0.50932,-0.474104 1.34276,-1.142973 1.85208,-1.486379 2.00588,-1.352446 6.77275,-4.972677 7.14578,-5.426919 0.21716,-0.264437 1.34735,-1.101262 2.51151,-1.859608 1.16417,-0.758343 3.1287,-2.177973 4.36563,-3.154732 1.23692,-0.976757 3.26099,-2.296706 4.49791,-2.933216 2.05545,-1.057714 3.70294,-2.078522 9.29845,-5.761445 6.02373,-3.964781 9.35524,-5.992855 10.97186,-6.679166 2.43017,-1.031695 4.46634,-2.082167 7.64323,-3.943191 1.45521,-0.852461 4.07459,-2.28319 5.82084,-3.1794 1.74625,-0.89621 4.78234,-2.495126 6.74687,-3.553153 1.96453,-1.058026 4.82203,-2.37024 6.35,-2.916033 1.52797,-0.545794 3.37344,-1.293879 4.10104,-1.662412 0.72761,-0.368533 2.69214,-1.241991 4.36563,-1.94102 1.67349,-0.699027 3.65791,-1.606365 4.40983,-2.016305 0.75191,-0.409943 2.464,-1.168964 3.80463,-1.686716 1.34063,-0.517753 3.04714,-1.284854 3.79225,-1.704671 1.44118,-0.812006 4.49687,-1.967476 10.086,-3.813897 1.89177,-0.624965 4.51114,-1.581317 5.82083,-2.125229 1.30969,-0.543909 3.92906,-1.377516 5.82083,-1.852459 1.89177,-0.474943 3.91475,-1.064315 4.49551,-1.309722 0.58076,-0.245403 2.54009,-0.809212 4.35406,-1.252908 1.81397,-0.443698 4.25584,-1.157131 5.42637,-1.585409 9.33897,-3.416983 15.04143,-5.107258 19.9876,-5.924556 1.23693,-0.204388 3.14193,-0.684207 4.23334,-1.066266 1.0914,-0.382058 4.00843,-1.161125 6.48229,-1.73126 2.47385,-0.570134 5.09323,-1.207529 5.82083,-1.416433 0.72761,-0.208905 2.75167,-0.571197 4.49792,-0.805095 7.12621,-0.954505 12.3185,-1.789481 14.88831,-2.39421 8.32597,-1.959247 24.85491,-4.378567 34.1919,-5.004607 3.28662,-0.22037 8.46103,-0.62228 13.98444,-1.08621 10.79722,-0.90690999 17.11775,-1.22618999 28.34889,-1.43206999 6.47568,-0.1187 13.32177,-0.17271 15.21354,-0.12002 1.89177,0.0527 7.108,0.16888 11.5916,0.2582 7.8624,0.15662 10.4618,0.29586 16.7188,0.89553999 2.5996,0.24915 14.3455,1.08332 21.0344,1.49383 3.4275,0.21034 7.9151,0.80241 11.8938,1.56919 1.8258,0.35189 5.9986,0.99918 9.2729,1.43844 3.2742,0.43926 6.3698,0.92476 6.8791,1.07889 1.3256,0.401158 8.8341,1.738889 12.5677,2.239087 4.9926,0.668864 19.8597,3.737298 22.4896,4.641647 1.3097,0.450365 4.5839,1.280756 7.2761,1.845316 7.2216,1.514419 7.4035,1.559139 9.1281,2.244206 0.8731,0.346832 2.659,0.896869 3.9687,1.222309 1.3097,0.32544 3.3338,0.99685 4.4979,1.492023 1.1642,0.49517 3.5613,1.307353 5.3269,1.804852 1.7655,0.497496 4.1972,1.327028 5.4036,1.843402 1.2065,0.516375 3.2197,1.167435 4.4739,1.4468 1.2542,0.279366 3.1088,0.858661 4.1213,1.28732 1.0126,0.428662 3.2698,1.216628 5.016,1.751036 1.7463,0.534411 4.187,1.435733 5.424,2.002938 4.3884,2.012379 7.3152,3.232097 10.3882,4.32924 1.8362,0.655606 3.626,1.495089 4.3656,2.04769 0.6894,0.515104 2.4441,1.366438 3.8993,1.891852 6.1734,2.228969 9.0521,3.399589 10.307,4.191384 0.7341,0.463185 2.2872,1.37315 3.4513,2.022152 1.1642,0.648999 2.445,1.412423 2.8462,1.696498 0.4012,0.284072 1.6787,0.848709 2.8388,1.254747 1.1601,0.406037 2.7964,1.181544 3.6361,1.723347 2.1523,1.38865 5.5956,3.355965 8.5383,4.878258 1.3825,0.715166 3.3068,1.8181 4.2764,2.450965 0.9695,0.632868 3.0928,1.984103 4.7185,3.002748 4.1801,2.619328 6.7847,4.341784 8.4676,5.599629 0.8004,0.598223 1.991,1.353317 2.6458,1.67799 2.1247,1.053404 6.9622,4.043886 7.9252,4.899255 0.5161,0.458401 1.7123,1.352971 2.6582,1.987934 0.9459,0.634963 2.7716,2.05342 4.0571,3.152126 1.2856,1.098706 3.2651,2.652493 4.3989,3.452858 1.1338,0.800364 3.1776,2.355434 4.5418,3.455709 1.3642,1.100275 3.0493,2.388317 3.7448,2.862313 0.6955,0.473996 3.1549,2.728928 5.4654,5.010957 2.3105,2.282031 5.4463,5.238877 6.9685,6.570771 1.5221,1.331892 3.5275,3.366552 4.4564,4.521472 0.9289,1.15491 2.4629,2.74321 3.4087,3.52954 2.5337,2.10625 5.977,5.70235 7.1682,7.48624 0.574,0.85961 1.607,2.27252 2.2956,3.13981 2.9617,3.73065 3.4339,4.36878 4.1501,5.60852 0.4153,0.71896 1.4214,2.03575 2.2357,2.92621 2.6272,2.87272 4.2349,4.9574 6.4275,8.33429 1.181,1.81901 2.5253,3.75175 2.9874,4.29498 0.462,0.54324 1.2784,1.88616 1.8141,2.98427 0.5357,1.09811 1.6998,3.06347 2.5869,4.36746 0.8871,1.30399 2.5526,4.18779 3.7011,6.40845 4.6108,8.91439 5.7651,11.44582 6.7245,14.7459 0.5276,1.81501 1.3557,4.01767 1.8401,4.89479 1.0224,1.8511 3.8418,8.36444 3.8418,8.87527 0,0.93069 1.9769,9.0393 2.5161,10.32058 0.8762,2.08168 2.6811,9.3325 3.2916,13.22288 2.2755,14.50178 2.5463,30.81727 0.8056,48.55104 -0.425,4.3306 -2.5266,13.84054 -3.9767,17.99545 -0.304,0.87104 -1.1464,4.0245 -1.8721,7.00768 -0.7257,2.98318 -1.6232,6.0788 -1.9945,6.87917 -0.3714,0.80036 -1.3332,3.41974 -2.1373,5.82083 -2.1566,6.43908 -2.8051,8.00439 -4.2515,10.2617 -1.6175,2.52453 -3.5294,6.32593 -4.1538,8.25913 -0.6149,1.90394 -0.9644,2.57707 -2.8159,5.42396 -2.6139,4.01889 -3.682,5.73984 -4.8444,7.80521 -1.956,3.47546 -3.3563,5.66187 -4.2364,6.61458 -0.4705,0.50932 -1.2759,1.70717 -1.7897,2.66187 -0.7922,1.4719 -4.1505,6.18347 -4.7033,6.59855 -0.097,0.0728 -1.231,1.50151 -2.5201,3.175 -1.2891,1.67349 -2.8453,3.60825 -3.4582,4.29948 -0.6128,0.69122 -1.5601,1.94138 -2.105,2.77812 -0.5449,0.83675 -2.4242,3.00964 -4.1763,4.82865 -7.6046,7.89524 -11.8311,12.10286 -13.884,13.82199 -1.2092,1.01259 -4.4239,4.04074 -7.1437,6.72923 -3.1761,3.13941 -5.8445,5.51661 -7.4588,6.64482 -1.3824,0.96613 -3.5851,2.65851 -4.8948,3.76079 -1.3097,1.10231 -2.9765,2.34394 -3.7041,2.75921 -1.5031,0.85788 -2.9725,2.0049 -5.1447,4.0159 -0.8262,0.76496 -2.4056,1.96437 -3.5097,2.66538 -1.1042,0.70102 -3.1209,2.14429 -4.4818,3.20731 -1.6727,1.30659 -3.3924,2.35026 -5.3085,3.22148 -3.0703,1.39613 -4.5595,2.33085 -6.5974,4.14071 -0.7222,0.64145 -2.5865,1.8179 -4.1428,2.61432 -3.3145,1.69614 -5.6843,3.10237 -7.7721,4.61203 -0.8265,0.59767 -2.3763,1.48476 -3.4441,1.97136 -1.0677,0.48659 -2.2965,1.18049 -2.7306,1.54196 -0.8744,0.72827 -6.1459,3.43194 -9.691,4.97049 -1.258,0.54594 -2.8058,1.34845 -3.4396,1.78332 -4.0994,2.81297 -9.8795,5.50034 -15.8367,7.36306 -1.6735,0.5233 -3.5189,1.2227 -4.101,1.55427 -0.5821,0.33158 -2.2125,0.97142 -3.623,1.42187 -1.4105,0.45046 -3.5215,1.30011 -4.691,1.88812 -1.1695,0.58804 -2.8729,1.35014 -3.7853,1.69363 -0.9125,0.34348 -2.5166,1.0564 -3.5648,1.58427 -1.0481,0.52784 -3.4407,1.48553 -5.3169,2.12817 -1.8761,0.64265 -4.0099,1.47183 -4.7416,1.84264 -0.7318,0.37079 -2.709,1.04209 -4.3939,1.49172 -1.6849,0.44966 -4.3491,1.27503 -5.9204,1.83415 -1.5713,0.55911 -3.988,1.28598 -5.3704,1.6152 -1.3825,0.32925 -3.1684,0.92062 -3.9688,1.31416 -0.8003,0.39354 -2.939,1.04135 -4.7525,1.43957 -1.8136,0.39822 -4.0758,1.01812 -5.0271,1.37755 -0.9514,0.35941 -3.4562,1.06654 -5.5662,1.57139 -2.1101,0.50485 -5.0866,1.33644 -6.6146,1.84796 -1.528,0.51154 -4.3259,1.23012 -6.2177,1.59683 -1.8918,0.36672 -5.4636,1.07678 -7.9375,1.57793 -2.4739,0.50114 -6.8196,1.26121 -9.6573,1.68902 -2.8376,0.42783 -7.4811,1.20311 -10.3187,1.72288 -2.8377,0.51975 -7.3474,1.24225 -10.0217,1.60552 -2.6743,0.36325 -6.9605,1.07281 -9.525,1.57676 -6.2485,1.22793 -11.7524,1.78559 -23.7127,2.4026 -1.7463,0.0901 -4.0072,0.33049 -5.0242,0.5342 -5.0193,1.00536 -14.2663,1.41663 -35.06019,1.55932 -9.38609,0.0644 -17.24422,0.0662 -17.4625,0.004 z m 44.44999,-30.02626 c 3.8563,-0.2857 8.5593,-0.63593 10.451,-0.77827 1.8918,-0.14235 5.9399,-0.3846 8.9959,-0.5383 8.8451,-0.4449 12.5097,-0.80899 15.1276,-1.50294 2.7418,-0.72678 4.2222,-0.91506 13.1828,-1.67669 7.4445,-0.63275 11.3089,-1.1575 12.8857,-1.74977 0.6255,-0.23495 3.5185,-0.76562 6.4289,-1.17927 2.9104,-0.41368 6.5418,-0.9293 8.0698,-1.14583 1.5279,-0.21656 3.7306,-0.6939 4.8948,-1.0608 1.1869,-0.37407 4.3247,-0.96115 7.1437,-1.33659 5.5293,-0.73644 6.5529,-0.96743 8.3765,-1.89021 0.678,-0.34309 3.1783,-1.0541 5.5563,-1.58004 2.3779,-0.52594 5.0974,-1.28762 6.0433,-1.69265 0.9607,-0.41134 3.4131,-1.05195 5.5562,-1.45134 2.1101,-0.39325 5.3247,-1.1797 7.1438,-1.74768 1.819,-0.56796 4.4979,-1.34805 5.9531,-1.7335 1.4552,-0.38547 3.3859,-1.05016 4.2905,-1.47711 0.9046,-0.42696 2.9743,-1.05791 4.5994,-1.40211 2.043,-0.43267 3.5766,-0.94803 4.9699,-1.67008 1.1084,-0.57435 3.2653,-1.42721 4.7933,-1.89526 1.528,-0.46802 3.552,-1.24 4.4979,-1.71548 0.9459,-0.47546 2.7318,-1.19748 3.9688,-1.60446 1.2369,-0.40701 3.1419,-1.12813 4.2333,-1.60255 1.0914,-0.4744 3.175,-1.30493 4.6302,-1.8456 1.4552,-0.54068 2.9435,-1.18333 3.3073,-1.42809 0.3638,-0.24477 1.614,-0.7238 2.7781,-1.06447 2.456,-0.71872 9.3475,-3.96931 10.7455,-5.06839 0.5257,-0.41333 1.8949,-1.11815 3.0427,-1.56628 2.4845,-0.97002 8.5321,-3.99764 10.0243,-5.01848 0.5821,-0.39823 2.0906,-1.16663 3.3523,-1.70757 1.2616,-0.54094 2.6904,-1.28156 3.175,-1.64582 0.4846,-0.36427 1.8336,-1.10839 2.9977,-1.65362 1.1642,-0.54522 2.4784,-1.29804 2.9205,-1.67293 0.442,-0.37489 1.855,-1.16729 3.1398,-1.76091 1.2849,-0.59362 2.7791,-1.46748 3.3206,-1.94196 1.7345,-1.5199 4.5797,-3.43321 6.8342,-4.59571 1.2057,-0.62169 2.5595,-1.43949 3.0085,-1.81729 0.449,-0.37782 1.2307,-0.86008 1.7372,-1.07169 0.5064,-0.21162 1.6512,-0.93377 2.5438,-1.60481 0.8927,-0.671 2.2201,-1.51648 2.9499,-1.87877 0.7297,-0.36233 1.8749,-1.21333 2.5447,-1.89117 1.1587,-1.17242 2.7112,-2.36439 6.0274,-4.62782 0.8173,-0.5578 1.9219,-1.46503 2.4548,-2.01605 0.5329,-0.55102 1.5449,-1.38628 2.249,-1.8561 0.704,-0.46985 1.5592,-1.20304 1.9003,-1.62931 0.3411,-0.42627 1.0963,-1.01793 1.6781,-1.31477 0.9913,-0.50569 3.0844,-2.45448 9.9515,-9.2652 1.5573,-1.54445 3.196,-2.9945 3.6417,-3.22231 1.1762,-0.60116 3.3755,-2.64956 4.5225,-4.21206 0.5466,-0.74464 1.6972,-2.07846 2.5567,-2.96405 3.3983,-3.50115 3.8567,-4.02137 4.2561,-4.83042 0.2277,-0.46146 0.7797,-1.09934 1.2265,-1.41748 0.4468,-0.31816 1.092,-1.0215 1.4338,-1.56297 0.3419,-0.54147 1.0551,-1.39189 1.5849,-1.88978 0.5299,-0.49792 1.3927,-1.67921 1.9174,-2.62509 0.5247,-0.94589 1.4789,-2.28786 2.1205,-2.98218 0.6416,-0.69429 1.3399,-1.67735 1.5518,-2.18458 0.212,-0.50723 0.7531,-1.24886 1.2025,-1.64806 0.4494,-0.39918 1.0943,-1.26159 1.4331,-1.91643 0.3388,-0.65485 1.2134,-1.81544 1.9435,-2.57908 1.3502,-1.41219 2.216,-2.84359 5.0015,-8.26884 2.1665,-4.21955 4.0657,-7.67316 4.7416,-8.62237 0.673,-0.9451 1.1628,-2.16549 1.9552,-4.87138 0.3196,-1.09141 1.1572,-3.17701 1.8612,-4.63468 0.704,-1.45764 1.4738,-3.30311 1.7105,-4.10104 0.2368,-0.79791 0.7139,-2.01057 1.0604,-2.69484 0.3465,-0.68426 1.0591,-2.98436 1.5836,-5.11138 0.5245,-2.12698 1.3473,-4.72231 1.8284,-5.76736 0.8004,-1.73857 1.4075,-4.28111 1.8435,-7.72091 0.092,-0.7276 0.4534,-2.33495 0.8026,-3.57187 0.7587,-2.68769 1.0996,-5.57469 1.4529,-12.30313 0.6324,-12.04364 0.1891,-19.6644 -1.8394,-31.61771 -1.041,-6.13492 -1.2347,-6.91882 -2.1751,-8.80636 -0.4194,-0.84169 -1.1725,-3.15786 -1.6735,-5.14707 -0.5413,-2.14904 -1.3432,-4.50532 -1.9761,-5.80642 -0.5858,-1.20432 -1.065,-2.30505 -1.065,-2.44605 0,-0.71096 -1.4568,-4.73057 -2.0263,-5.59126 -0.3589,-0.54228 -1.0482,-2.31749 -1.5318,-3.9449 -0.5094,-1.71438 -1.2076,-3.42337 -1.6599,-4.06313 -1.3879,-1.96319 -3.8681,-6.33732 -4.8946,-8.63242 -0.5502,-1.23011 -1.3446,-2.59933 -1.7654,-3.04271 -0.4207,-0.44337 -1.0329,-1.34192 -1.3604,-1.99676 -0.3274,-0.65484 -1.0249,-1.68474 -1.5499,-2.28866 -0.5249,-0.60392 -1.1727,-1.67548 -1.4395,-2.38125 -0.9772,-2.58512 -1.3557,-3.34116 -2.0393,-4.07293 -0.3839,-0.41096 -1.1919,-1.50535 -1.7957,-2.43198 -0.6037,-0.92663 -1.4671,-2.03582 -1.9188,-2.46487 -0.4515,-0.42906 -1.0599,-1.24457 -1.3518,-1.81226 -0.489,-0.95113 -1.2618,-1.85425 -4.4162,-5.16118 -0.6374,-0.66825 -1.4637,-1.61297 -1.8361,-2.09939 -0.3723,-0.48641 -1.0684,-1.15039 -1.5469,-1.4755 -0.4784,-0.32511 -1.1643,-1.02489 -1.524,-1.55508 -1.3313,-1.96172 -10.5419,-11.26326 -11.8596,-11.97659 -0.4002,-0.21664 -0.7276,-0.50243 -0.7276,-0.63509 0,-0.41733 -4.8512,-5.33391 -5.6859,-5.76251 -0.438,-0.2249 -1.4311,-0.98708 -2.2068,-1.69373 -0.7757,-0.70665 -1.5036,-1.28481 -1.6176,-1.28481 -0.114,0 -0.5335,-0.47069 -0.9321,-1.04597 -0.3987,-0.57529 -1.4567,-1.52578 -2.3511,-2.11222 -0.8945,-0.58643 -2.8764,-2.08345 -4.4044,-3.3267 -1.528,-1.24325 -3.3786,-2.66192 -4.1125,-3.1526 -0.7339,-0.49069 -1.5077,-1.10096 -1.7195,-1.35616 -0.2118,-0.25521 -1.0401,-0.94641 -1.8406,-1.536 -0.8005,-0.58959 -1.6657,-1.33674 -1.9226,-1.66032 -0.257,-0.32358 -1.4476,-1.12792 -2.6459,-1.787429 -1.1983,-0.659506 -2.8931,-1.679792 -3.7662,-2.267302 -0.8731,-0.58751 -1.739,-1.06858 -1.9241,-1.069043 -0.1852,-5.3e-4 -0.84,-0.456116 -1.4552,-1.012563 -0.6153,-0.556446 -2.0711,-1.525982 -3.2353,-2.154526 -1.1641,-0.628542 -2.508,-1.483178 -2.9863,-1.899187 -0.4783,-0.41601 -1.4436,-1.047224 -2.1451,-1.402694 -0.7015,-0.355471 -1.6419,-0.954688 -2.0898,-1.331598 -0.448,-0.376907 -1.8639,-1.176962 -3.1466,-1.777899 -2.5265,-1.183646 -3.8329,-1.933596 -7.0947,-4.072837 -1.1641,-0.763508 -2.9421,-1.698318 -3.9511,-2.077355 -1.0089,-0.379037 -2.4972,-1.057458 -3.3073,-1.507604 -0.81,-0.450146 -2.5334,-1.347438 -3.8297,-1.993985 -1.2962,-0.646543 -2.852,-1.516239 -3.4573,-1.932654 -0.6052,-0.416414 -1.9854,-1.149117 -3.0671,-1.628232 -1.0816,-0.479113 -2.4259,-1.199084 -2.9872,-1.599936 -2.1234,-1.516361 -7.4324,-3.886308 -10.8613,-4.848473 -1.8783,-0.527082 -4.1166,-1.312426 -4.974,-1.745208 -0.8573,-0.432782 -2.4161,-1.093607 -3.4639,-1.468504 -1.0479,-0.374893 -2.6196,-1.077311 -3.4927,-1.560925 -0.8732,-0.483616 -2.8676,-1.238001 -4.432,-1.67641 -1.5645,-0.438412 -3.5886,-1.205865 -4.498,-1.705454 -0.9093,-0.499586 -2.78,-1.22546 -4.157,-1.613048 -1.3769,-0.387588 -3.1033,-1.044761 -3.8364,-1.460379 -1.6479,-0.934251 -4.0679,-1.686591 -7.315,-2.274062 -1.3665,-0.247226 -3.1789,-0.738113 -4.0275,-1.090858 -0.8486,-0.352743 -3.2299,-1.100146 -5.2917,-1.66089 -2.0618,-0.560748 -4.6496,-1.450954 -5.7507,-1.978237 -1.4129,-0.676619 -3.0088,-1.150302 -5.4239,-1.609899 -1.8821,-0.358159 -3.9578,-0.853774 -4.6126,-1.101363 -0.6549,-0.247589 -3.6314,-1.087228 -6.6146,-1.865865 -2.9832,-0.778637 -6.2574,-1.646129 -7.2761,-1.927763 -1.0186,-0.281635 -3.0427,-0.702328 -4.4979,-0.934873 -4.2745,-0.683077 -8.035,-1.456288 -8.9577,-1.841831 -1.1874,-0.496115 -4.4016,-1.058285 -10.6075,-1.85525 -2.9028,-0.372777 -6.3556,-0.908704 -7.6729,-1.190953 -5.2423,-1.123185 -11.0541,-1.885834 -18.9317,-2.484279 -2.8963,-0.22003 -5.3268,-0.538244 -5.9531,-0.779391 -1.9895,-0.76613 -8.0917,-1.514245 -16.4829,-2.020766 -4.6134,-0.278479 -8.8642,-0.623858 -9.4463,-0.767514 -0.582,-0.143652 -4.5706,-0.473987 -8.8635,-0.734078 -11.1848,-0.677648 -46.0386,-0.699011 -51.19687,-0.03138 -1.89177,0.244851 -6.05895,0.630211 -9.26041,0.856356 -3.20146,0.226145 -6.98595,0.529844 -8.40999,0.674891 -1.42407,0.145045 -3.32907,0.264761 -4.23334,0.266036 -2.47679,0.0035 -10.60294,0.963454 -13.15355,1.553864 -1.23692,0.286319 -3.14192,0.596961 -4.23333,0.690316 -9.17276,0.784609 -19.01259,1.982383 -21.82812,2.657073 -2.37369,0.568812 -5.65177,1.095605 -9.78959,1.573207 -3.68456,0.425283 -6.88308,1.103114 -8.61668,1.82604 -0.849,0.354031 -3.2316,0.740609 -9.20721,1.493867 -2.7446,0.345972 -5.59816,1.08581 -6.52153,1.69083 -0.83907,0.549775 -4.85443,1.710651 -7.51697,2.173219 -1.22598,0.212995 -2.77379,0.61409 -3.43958,0.891326 -0.66579,0.277235 -3.03753,0.922882 -5.27053,1.434769 -2.23301,0.511889 -4.69303,1.22051 -5.46671,1.574715 -1.23775,0.566656 -3.53551,1.24309 -9.2587,2.725643 -0.87313,0.226176 -2.01943,0.630642 -2.54734,0.898813 -0.52791,0.268168 -2.90916,0.975333 -5.29167,1.571479 -2.3825,0.596144 -4.821,1.317993 -5.41888,1.604111 -0.59788,0.286118 -2.48586,0.990153 -4.19551,1.564518 -1.70965,0.574368 -3.6427,1.357392 -4.29567,1.740056 -0.65296,0.382664 -2.26263,0.983554 -3.57703,1.33531 -1.35409,0.362379 -2.9035,0.986237 -3.57507,1.439476 -0.65189,0.439955 -2.28806,1.153176 -3.63593,1.584936 -1.42951,0.457915 -2.87859,1.125191 -3.47762,1.601391 -1.3412,1.066181 -1.97484,1.314836 -5.92174,2.323819 -1.81901,0.465011 -3.72401,1.115325 -4.23333,1.445139 -1.00285,0.649398 -3.85227,2.026682 -4.19295,2.026682 -0.11534,0 -0.67764,0.396202 -1.24953,0.880451 -0.5719,0.484248 -2.11138,1.323694 -3.42107,1.865434 -3.20505,1.32574 -7.98283,3.767196 -9.15656,4.679029 -0.52497,0.407829 -1.89419,1.108221 -3.04271,1.556433 -1.14852,0.448209 -2.68354,1.162788 -3.41114,1.587958 -0.72761,0.425166 -1.91823,1.0953 -2.64584,1.489188 -0.7276,0.393885 -2.15635,1.277602 -3.175,1.963809 -1.01864,0.68621 -2.38786,1.516626 -3.0427,1.845368 -0.65485,0.328745 -1.66688,0.941557 -2.24896,1.361803 -0.58209,0.420248 -1.89177,1.316519 -2.91042,1.991717 -1.01864,0.675195 -1.89317,1.333817 -1.94339,1.463606 -0.0502,0.129789 -0.94319,0.662834 -1.98438,1.184545 -1.04118,0.521713 -2.42884,1.336463 -3.08369,1.81056 -0.65484,0.474096 -1.91857,1.227201 -2.8083,1.673571 -0.88972,0.446368 -1.96128,1.18359 -2.38125,1.638268 -0.41996,0.454682 -1.32328,1.115031 -2.00738,1.467446 -0.68409,0.352414 -1.57706,1.064339 -1.98437,1.582059 -0.40732,0.51772 -1.41662,1.30461 -2.2429,1.74863 -0.82628,0.44403 -2.12789,1.34129 -2.89248,1.99393 -0.76458,0.65263 -2.01572,1.58678 -2.78032,2.07589 -0.76459,0.48911 -1.51307,1.11892 -1.66328,1.39959 -0.15021,0.28067 -0.85202,0.8818 -1.55959,1.33584 -0.70756,0.45405 -1.602,1.17965 -1.98764,1.61246 -0.38563,0.43281 -1.1499,1.01955 -1.69838,1.30386 -0.54848,0.2843 -2.12832,1.60397 -3.51077,2.93259 -1.38245,1.32862 -3.46604,3.2107 -4.63021,4.1824 -1.16417,0.97171 -2.1762,1.84357 -2.24896,1.93747 -1.12234,1.44845 -2.9963,3.30868 -4.24277,4.21168 -0.87469,0.63367 -2.18448,1.96568 -2.96177,3.01202 -0.76647,1.03176 -2.60797,3.14981 -4.09223,4.70676 -1.48426,1.55696 -2.88649,3.19407 -3.11607,3.63802 -0.22958,0.44396 -0.52406,0.8072 -0.6544,0.8072 -0.13034,0 -1.26382,1.16086 -2.51884,2.57968 -1.25502,1.41883 -2.97179,3.3536 -3.81502,4.29948 -0.84324,0.94589 -1.83364,2.19779 -2.20088,2.78201 -0.36724,0.58422 -0.86918,1.22942 -1.11542,1.43378 -0.24624,0.20436 -1.03449,1.46005 -1.75167,2.79041 -0.71718,1.33036 -1.61505,2.70922 -1.99528,3.06414 -0.38022,0.35491 -0.9348,1.12154 -1.2324,1.70362 -0.2976,0.58209 -1.21194,2.1299 -2.03187,3.43959 -0.81993,1.30968 -1.66189,2.73843 -1.87102,3.175 -0.20914,0.43656 -0.62266,1.15093 -0.91895,1.5875 -0.29628,0.43656 -1.10645,1.9179 -1.80036,3.29186 -0.69392,1.37396 -1.42448,2.68365 -1.62348,2.91041 -0.53607,0.61087 -1.60625,2.85775 -2.14604,4.50566 -0.26077,0.79613 -0.85489,2.04629 -1.32025,2.77812 -0.46537,0.73184 -1.05267,1.98546 -1.30511,2.78582 -0.25245,0.80036 -0.98175,2.52677 -1.62067,3.83646 -0.80422,1.64854 -1.37477,3.3582 -1.85425,5.55625 -0.38092,1.74625 -1.10256,4.09299 -1.60366,5.21499 -0.50109,1.122 -1.14436,3.027 -1.42948,4.23333 -0.28512,1.20634 -0.64345,2.72913 -0.79627,3.38397 -0.15283,0.65484 -0.51088,1.64184 -0.79567,2.19333 -0.68882,1.33386 -1.16453,4.52225 -1.8637,12.49105 -0.81937,9.33879 -0.77673,19.21843 0.12791,29.63333 0.6393,7.36015 0.88806,8.87195 1.6564,10.06665 0.1916,0.29792 0.77704,2.56011 1.30099,5.02709 0.52396,2.46697 1.2482,5.1998 1.60944,6.07292 0.36124,0.87313 0.9389,2.59954 1.2837,3.83646 0.85552,3.06909 1.35508,4.41264 2.13645,5.74596 0.36522,0.62317 1.1447,2.35349 1.73218,3.84511 0.58748,1.49164 1.27637,3.0711 1.53086,3.50991 0.2545,0.43884 0.92131,2.15037 1.48182,3.80344 0.5605,1.65306 1.28132,3.39198 1.60182,3.86426 0.3205,0.47228 1.08677,1.82753 1.70283,3.01168 0.61605,1.18414 1.45698,2.57688 1.86872,3.09499 0.41175,0.51813 0.8905,1.38038 1.06389,1.91616 0.4718,1.4578 1.4135,3.23125 2.31765,4.36465 0.44282,0.55509 1.05943,1.53458 1.37024,2.17664 0.31081,0.64204 0.9202,1.46614 1.3542,1.83132 0.434,0.3652 1.19843,1.48219 1.69873,2.48224 0.50029,1.00002 1.33203,2.26613 1.84831,2.81353 0.51627,0.54742 1.34004,1.62271 1.83058,2.38955 0.49055,0.76687 1.02348,1.47561 1.18431,1.57499 0.16082,0.0994 0.78534,0.85667 1.38783,1.68283 0.60248,0.82616 1.5821,2.04996 2.17694,2.71954 0.59484,0.66959 1.91496,2.2034 2.93361,3.40853 1.01864,1.20509 3.36554,3.81799 5.21532,5.80638 1.84978,1.98843 3.71142,4.09596 4.13696,4.68342 0.42555,0.58745 2.52794,2.66549 4.67198,4.61782 2.14403,1.95236 5.22349,4.90459 6.84324,6.56051 2.86782,2.93184 5.57919,5.15765 8.07639,6.63003 1.55382,0.91617 4.50755,3.2308 6.09856,4.77901 0.67295,0.65485 1.87432,1.53649 2.66971,1.95924 0.79539,0.42273 2.04839,1.33059 2.78443,2.01745 0.73605,0.68686 1.68855,1.43097 2.11667,1.65357 0.42812,0.22259 1.04177,0.70942 1.36366,1.08185 0.32189,0.3724 1.21486,0.99573 1.98437,1.38517 0.76952,0.38944 1.92394,1.16944 2.56539,1.73334 0.64144,0.56391 1.95113,1.4087 2.91041,1.87733 0.95929,0.46863 1.94884,1.10603 2.19902,1.41644 0.25017,0.31041 1.22644,0.94806 2.16947,1.41701 0.94304,0.46894 2.44836,1.4415 3.34516,2.16122 0.8968,0.71974 2.06366,1.53143 2.59303,1.80377 0.52936,0.27233 1.31217,0.86323 1.73958,1.31313 0.42741,0.44989 0.90366,0.81809 1.05833,0.81819 0.40225,0 3.68393,1.57814 3.85373,1.85288 0.0781,0.12639 1.44939,0.89876 3.04727,1.71635 1.59788,0.81759 3.50054,1.83436 4.22815,2.25952 0.7276,0.42516 2.03729,1.01743 2.91041,1.31617 0.87313,0.29876 2.3013,1.01727 3.17371,1.5967 0.87242,0.57944 2.12257,1.25376 2.77813,1.49847 1.07723,0.40212 1.76252,0.79619 3.93947,2.26523 0.38062,0.25686 1.4064,0.69244 2.27953,0.96801 2.16447,0.6831 3.45426,1.27148 7.01146,3.19854 4.66233,2.52577 5.26518,2.79967 7.54062,3.42583 1.16417,0.32036 3.42635,1.21296 5.02708,1.98358 1.60073,0.7706 3.20808,1.48971 3.57188,1.59803 0.3638,0.1083 1.75036,0.7126 3.08123,1.34289 1.33088,0.63029 3.41447,1.39571 4.63021,1.70096 1.21574,0.30525 2.92481,0.89693 3.79793,1.31484 1.53998,0.73711 5.47107,2.12429 6.01993,2.12429 0.14915,0 1.26341,0.47583 2.47615,1.05738 2.1106,1.01214 4.91363,1.93313 8.04038,2.64187 0.80037,0.18142 2.16958,0.66918 3.04271,1.08389 0.87312,0.41473 3.13531,1.13152 5.02708,1.59284 1.89177,0.46133 3.86663,1.05344 4.38857,1.31578 1.21447,0.61044 4.16724,1.35503 8.8406,2.22935 2.03729,0.38113 3.94229,0.80153 4.23333,0.93419 2.11495,0.96417 4.90726,1.8674 7.24157,2.34251 1.50902,0.30713 3.77121,0.90768 5.02708,1.33456 1.2559,0.42685 4.72422,1.19968 7.70739,1.71733 2.98318,0.51766 6.73365,1.29792 8.33438,1.73387 1.60073,0.43598 4.16057,0.92046 5.68854,1.07662 4.54808,0.46482 10.34108,1.28444 12.03854,1.70328 0.87313,0.21542 3.47589,0.63352 5.78393,0.92906 2.30804,0.29556 4.27553,0.58626 4.37221,0.64603 0.0967,0.0597 1.66111,0.23984 3.47649,0.40021 1.81539,0.16039 4.66992,0.41206 6.34341,0.55933 1.67349,0.14724 4.23334,0.5067 5.68854,0.7988 3.42123,0.68667 10.45036,1.47915 16.13959,1.81957 10.73041,0.64206 17.32507,1.06706 19.05,1.22769 4.81777,0.44865 8.79715,0.54867 23.41562,0.58857 13.38226,0.0365 16.79396,-0.0349 22.75416,-0.47649 z M 845.96619,327.40196 c -4.42465,-0.29011 -4.96812,-0.46947 -6.74234,-2.22517 -1.15907,-1.14697 -1.63365,-1.86502 -2.06732,-3.12788 -0.55413,-1.61361 -0.56417,-1.98908 -0.64495,-24.1287 l -0.0821,-22.48958 -0.63954,-1.31141 c -0.90746,-1.86081 -2.18143,-3.16325 -3.7571,-3.84109 -1.24485,-0.53551 -1.89366,-0.59536 -7.59259,-0.70019 -6.73785,-0.12393 -7.79603,0.0298 -9.48751,1.37882 l -0.7366,0.58746 -0.007,26.15258 -0.007,26.15258 -0.57658,1.09119 c -0.31711,0.60016 -0.94811,1.40383 -1.40222,1.78594 -0.82134,0.69112 -0.84939,0.69474 -5.36942,0.69273 -5.63847,-0.003 -7.46039,-0.2739 -9.85068,-1.46756 -2.02397,-1.01074 -2.52792,-1.61658 -3.25709,-3.91573 -0.38405,-1.21095 -0.4364,-3.87892 -0.47324,-24.11574 -0.0228,-12.51479 -0.0525,-23.5512 -0.0661,-24.52534 -0.0498,-3.57103 -1.35534,-4.00288 -11.40263,-3.77182 -6.83207,0.15711 -8.91258,0.44818 -9.84123,1.37684 -0.27339,0.27339 -0.60009,1.17774 -0.74488,2.06198 -0.15423,0.94186 -0.25853,11.43701 -0.25945,26.10757 l -0.002,24.53256 -0.61867,1.39661 c -1.02069,2.30412 -0.52274,2.19035 -9.58783,2.19035 h -8.00749 l -0.70878,-0.66146 c -0.38982,-0.3638 -1.00192,-1.2374 -1.3602,-1.94133 l -0.65144,-1.27986 -0.31456,-20.54826 c -0.17294,-11.30154 -0.3145,-25.94269 -0.3145,-32.53589 v -11.98764 l 0.66146,-0.508 c 1.67291,-1.28476 2.2838,-1.40808 7.9375,-1.60213 2.98318,-0.10239 22.74755,-0.22818 43.92083,-0.27953 36.26962,-0.088 38.63255,-0.0658 40.84201,0.38378 3.20508,0.65217 4.30522,1.12628 5.90045,2.5428 0.75153,0.66733 1.72014,1.479 2.15246,1.80367 0.43233,0.32464 1.10978,1.20941 1.50545,1.96612 0.39567,0.7567 1.16849,1.97934 1.71739,2.71697 1.25978,1.69299 1.38541,1.94527 2.2431,4.50475 1.59497,4.75964 1.52754,3.41696 1.48693,29.60695 -0.0301,19.42804 -0.10528,24.20202 -0.3918,24.88777 -0.37167,0.88953 -2.0167,2.35259 -3.09655,2.75402 -1.02109,0.3796 -4.88475,0.51461 -8.30631,0.29027 z m 71.14685,0.0412 c -1.92548,-0.18402 -2.23933,-0.41148 -3.05337,-2.21305 l -0.62389,-1.38073 -0.0852,-31.75 c -0.0469,-17.4625 -0.009,-32.26528 0.085,-32.89509 0.23739,-1.59695 1.63301,-3.11478 3.09039,-3.361 0.59597,-0.10068 12.34821,-0.18325 26.11607,-0.18349 h 25.03244 l 3.175,0.71855 c 1.74625,0.39521 3.41312,0.84516 3.70416,0.99992 1.21603,0.64653 4.50279,3.90495 5.79967,5.74966 1.84653,2.62654 4.2981,8.08617 4.63349,10.31875 0.14978,0.99703 0.2853,11.89397 0.32245,25.92916 0.0611,23.10051 0.0416,24.25592 -0.42617,25.22517 -1.09982,2.27875 -3.35613,2.94272 -9.40747,2.76833 l -4.13081,-0.11906 -1.70288,-1.02405 c -0.93657,-0.56321 -2.02952,-1.32008 -2.42875,-1.68192 -1.01973,-0.92425 -2.77849,-3.975 -3.08766,-5.35591 -0.15779,-0.70469 -0.26,-9.40904 -0.26066,-22.19381 0,-22.76856 0.0335,-22.17637 -1.44473,-24.69875 -0.52393,-0.89402 -0.99484,-1.29312 -2.07722,-1.76048 -1.97525,-0.85286 -4.48842,-1.04164 -13.76728,-1.03418 l -8.13424,0.007 -1.39076,0.7253 c -0.85862,0.44781 -1.53744,1.02418 -1.77416,1.50643 -0.32816,0.6686 -0.37423,4.46035 -0.31964,26.31345 l 0.0638,25.53229 -0.80783,1.38491 c -1.23288,2.11365 -1.38155,2.16672 -6.50983,2.32375 -2.46317,0.0755 -5.49051,0.17468 -6.72743,0.22053 -1.23693,0.0459 -2.97506,0.014 -3.86252,-0.0708 z m 120.01456,-0.032 c -15.9322,-0.15452 -14.7428,-0.0457 -18.7849,-1.71762 -3.6745,-1.51985 -6.1324,-3.09251 -8.113,-5.19115 -1.0769,-1.1411 -3.691,-5.93834 -4.4584,-8.18156 -1.1529,-3.37058 -1.2409,-5.72246 -1.145,-30.60255 l 0.09,-23.34572 1.0583,-1.05701 c 1.3987,-1.39695 2.5327,-1.59634 9.0793,-1.59634 4.6015,0 5.3694,0.064 6.976,0.58142 2.2522,0.72538 3.1058,1.56739 3.4881,3.44099 0.1918,0.93943 0.2884,8.99128 0.2932,24.4203 0.01,26.18629 -0.2402,23.53495 2.4616,26.2754 2.3313,2.36466 2.8934,2.46414 13.9724,2.47279 4.9378,0.004 9.426,-0.0771 9.9737,-0.17981 0.6856,-0.12861 1.238,-0.4808 1.7738,-1.1308 l 0.7781,-0.94401 0.076,-26.12596 c 0.076,-26.04273 0.078,-26.12834 0.6298,-26.87283 0.3409,-0.45971 1.1548,-0.9697 2.1166,-1.32646 1.4492,-0.53745 2.0445,-0.58071 8.1921,-0.59531 6.0818,-0.0143 6.7667,0.0307 8.2917,0.54567 2.9568,0.99851 2.6716,-2.70258 2.6728,34.68899 0,29.46885 -0.039,32.57246 -0.4326,33.55576 -0.4765,1.19091 -1.7088,2.12921 -3.427,2.60935 -1.2847,0.35901 -15.5877,0.47019 -35.5624,0.27646 z m 89.0323,0 c -0.582,-0.0803 -3.3418,-0.0936 -6.1327,-0.0296 -5.7089,0.13097 -7.3089,-0.0782 -10.0708,-1.31649 -0.9835,-0.44093 -2.3745,-1.06021 -3.0912,-1.37618 -0.7167,-0.31596 -2.0698,-1.20269 -3.0069,-1.97048 -0.9371,-0.76782 -1.9134,-1.50813 -2.1694,-1.64518 -0.2561,-0.13703 -1.4138,-1.65632 -2.5726,-3.37619 -1.5281,-2.26785 -2.2734,-3.66958 -2.7127,-5.10172 -1.4773,-4.81682 -1.4022,-3.74274 -1.4804,-21.15696 -0.04,-8.94953 -0.1533,-17.02969 -0.2514,-17.95595 -0.2612,-2.4685 -1.1341,-3.33901 -4.1064,-4.09556 -2.0922,-0.53253 -2.2717,-0.63344 -2.706,-1.52127 -0.961,-1.96493 -1.334,-8.56316 -0.5745,-10.16371 0.6289,-1.32524 1.1873,-1.69098 2.9496,-1.93199 1.9524,-0.26699 2.7877,-0.77949 3.7539,-2.30301 0.6861,-1.08183 0.7466,-1.40858 0.8926,-4.82277 0.1189,-2.77924 0.2903,-4.01947 0.7108,-5.14349 0.5031,-1.34449 0.6739,-1.53267 1.8519,-2.03941 1.1623,-0.50003 1.7892,-0.55724 6.0111,-0.54853 6.1761,0.0128 7.6469,0.30171 9.9688,1.95858 0.9847,0.70267 1.9819,1.56992 2.216,1.92722 0.6146,0.93793 1.0954,3.8442 0.9327,5.63793 -0.1213,1.33826 -0.047,1.70365 0.5566,2.73353 0.5766,0.98383 0.9493,1.28325 2.1618,1.73694 1.3533,0.50633 2.065,0.55046 9.3266,0.57843 4.3237,0.0167 10.9746,0.10594 14.7795,0.19844 6.4128,0.15589 6.9608,0.20677 7.5016,0.6967 1.0223,0.92617 1.2924,1.83464 1.4804,4.97943 0.2244,3.75216 -0.1576,5.96159 -1.2401,7.17349 l -0.7255,0.81229 -15.0371,0.14283 c -13.4421,0.12766 -15.1865,0.19253 -16.4464,0.61158 -2.4142,0.80301 -2.288,-0.24881 -2.3382,19.48622 -0.024,9.38609 0.062,17.42281 0.192,17.85937 0.2639,0.88988 2.1031,3.22146 3.2476,4.11716 1.5205,1.18994 3.3381,1.33707 17.2902,1.39964 14.8514,0.0666 13.6258,-0.14697 14.6344,2.54998 0.5261,1.40682 0.563,1.84782 0.4022,4.81081 -0.1883,3.46946 -0.6265,5.34977 -1.4539,6.23782 -0.4063,0.43611 -0.9523,0.57727 -2.7047,0.69929 -3.0138,0.20984 -20.7325,0.33108 -22.0394,0.15079 z m 64.5584,-0.0135 c -8.5343,-0.17383 -8.5745,-0.18068 -12.9486,-2.21085 -2.9546,-1.37131 -4.6567,-2.60292 -7.2055,-5.2138 -1.5297,-1.56692 -2.1583,-2.48299 -3.24,-4.72218 -2.0652,-4.27474 -2.1348,-5.03447 -2.1367,-23.32143 0,-18.5452 0.2682,-21.94177 1.9533,-24.56815 0.3268,-0.50933 0.8629,-1.48786 1.1914,-2.17453 0.6219,-1.3004 4.9502,-5.65553 7.0197,-7.06345 1.4813,-1.00772 4.6616,-2.03748 6.9629,-2.25452 3.1451,-0.29662 26.117,-0.39949 33.2559,-0.14893 6.3953,0.22447 9.4967,0.58393 12.4528,1.44327 1.797,0.52242 5.0116,3.28203 6.6259,5.6882 1.9333,2.88147 2.1071,3.83395 2.102,11.52141 -0.01,7.94716 -0.2414,9.51974 -1.7451,11.61966 -0.5657,0.7901 -1.0287,1.51177 -1.0287,1.60369 0,0.43267 -2.1785,3.30271 -3.272,4.31072 -2.2065,2.03388 -6.261,4.40415 -9.9537,5.81896 l -1.7232,0.66024 -14.5521,0.0986 c -8.0036,0.0542 -14.823,0.1609 -15.1541,0.23704 -0.3311,0.0762 -1.0752,0.56605 -1.6536,1.08861 l -1.0517,0.95011 v 3.32727 3.32727 l 1.0481,1.76416 c 1.1611,1.95443 1.7432,2.42904 3.9391,3.21165 1.427,0.50863 2.2301,0.5362 17.6347,0.60547 14.9473,0.0672 18.9725,0.19666 19.6397,0.63156 0.1417,0.0924 0.5135,0.85701 0.8262,1.69921 0.7996,2.15373 0.8328,8.02103 0.055,9.75772 -0.7636,1.70551 -0.8478,1.77822 -2.4108,2.08026 -1.6689,0.32253 -24.9589,0.47054 -36.6311,0.23278 z m 19.622,-44.00195 c 3.1457,-1.08281 3.9835,-2.25597 4.7038,-6.58606 0.4743,-2.85213 0.045,-4.98676 -1.2407,-6.16479 -0.8524,-0.78118 -1.0421,-0.83233 -3.6577,-0.98642 -1.5173,-0.0894 -5.828,-0.16746 -9.5794,-0.17346 -7.249,-0.0116 -9.9706,0.29366 -11.3032,1.26791 -1.6772,1.22616 -2.9105,5.05891 -2.9105,9.04539 0,1.37959 0.1,1.68079 0.8301,2.51282 1.6416,1.86971 2.1565,1.94369 13.0606,1.87669 l 7.9375,-0.0487 z m -334.21161,43.6195 c -1.04513,-0.55674 -1.89294,-1.3679 -2.56321,-2.45237 -0.54313,-0.87881 -0.54594,-1.04227 -0.5788,-33.51191 -0.0326,-32.27695 -0.0273,-32.63522 0.49617,-33.22654 0.29104,-0.32877 1.05849,-0.93691 1.70545,-1.35146 l 1.17629,-0.75372 h 6.60725 c 8.04381,0 9.63187,0.22029 10.74743,1.49085 0.60531,0.6894 0.80269,1.17808 0.81759,2.02409 0.0109,0.61341 0.0356,15.41563 0.0551,32.89382 l 0.0355,31.77854 -0.66453,1.29437 c -1.0573,2.05941 -1.13641,2.07719 -9.6321,2.16265 -6.37702,0.0641 -7.51882,0.0156 -8.20208,-0.34832 z M 881.159,243.0598 c -0.87136,-0.2406 -2.89163,-1.09231 -4.48956,-1.89267 -2.58495,-1.29477 -3.05871,-1.64482 -4.29702,-3.175 -1.70762,-2.11013 -2.65919,-4.05258 -3.17558,-6.48229 -0.66058,-3.10822 0.0298,-7.63495 1.48998,-9.76997 0.4055,-0.59287 0.949,-1.49074 1.20782,-1.99526 0.25879,-0.50452 1.33919,-1.75549 2.40085,-2.77993 1.89445,-1.82803 1.99348,-1.88347 5.33199,-2.9853 4.02156,-1.32726 5.47405,-1.41669 8.00497,-0.49289 0.94898,0.34638 2.31471,0.84155 3.03498,1.10038 1.77451,0.63768 5.73561,4.43507 6.75095,6.47192 0.91567,1.83697 1.93988,5.80927 1.94421,7.54063 0.003,0.73606 -0.38904,2.65086 -0.88114,4.31641 -0.85376,2.8896 -0.95173,3.07025 -2.82334,5.20525 -1.56506,1.78534 -2.35932,2.44071 -4.11956,3.39925 -3.67946,2.00366 -6.94471,2.48795 -10.37955,1.53947 z m 62.59777,-12.92585 c -3.70888,-0.19722 -3.77712,-0.42199 -3.83929,-12.64703 -0.0251,-4.94771 0.042,-20.60443 0.14933,-34.79271 0.42923,-56.75702 0.42587,-57.80981 -0.18682,-58.63099 -0.99865,-1.33849 -1.25609,-1.36255 -2.94302,-0.27506 -0.84788,0.54659 -2.5197,1.46673 -3.71512,2.04475 -1.19544,0.57802 -2.68372,1.43756 -3.30729,1.91008 -0.6236,0.47252 -1.68709,1.18096 -2.36331,1.57432 -0.67625,0.39336 -1.83843,1.23494 -2.58265,1.87019 -0.74422,0.63524 -1.97686,1.48746 -2.73923,1.89382 -0.76235,0.40636 -1.71098,1.03972 -2.10807,1.40747 -0.39709,0.36775 -1.51784,0.93646 -2.49055,1.26381 -1.60083,0.53873 -1.82586,0.55764 -2.37265,0.19937 -1.02804,-0.6736 -3.55124,-5.00145 -4.63383,-7.94813 -0.30991,-0.84347 -0.82466,-1.89077 -1.14393,-2.32734 -0.31927,-0.43656 -0.90667,-1.68672 -1.30535,-2.77812 -0.39867,-1.09141 -1.18689,-2.69875 -1.75157,-3.57188 -1.1649,-1.80126 -1.93249,-3.48762 -2.68284,-5.89421 l -0.51785,-1.66088 0.57325,-0.80502 c 0.76938,-1.0805 2.74444,-2.61318 5.07592,-3.93897 1.05448,-0.59961 2.65264,-1.58996 3.55148,-2.20077 2.39123,-1.62494 4.67053,-3.0701 6.96786,-4.41786 1.11619,-0.65484 2.39281,-1.457532 2.83686,-1.783756 0.44407,-0.326226 1.54961,-0.944142 2.45673,-1.373145 1.56263,-0.73901 3.97994,-2.19647 7.8105,-4.709186 0.93843,-0.615569 2.27971,-1.40983 2.98067,-1.765025 0.70093,-0.355195 1.79649,-1.081977 2.43456,-1.615067 0.63807,-0.533093 1.88098,-1.329515 2.76204,-1.769827 0.88106,-0.440312 2.19723,-1.245762 2.92483,-1.789885 0.72761,-0.544124 1.8587,-1.19674 2.51355,-1.450258 0.65484,-0.253519 1.905,-0.969603 2.77812,-1.591302 0.87313,-0.621697 2.19562,-1.437661 2.93883,-1.813253 0.74325,-0.375592 1.69575,-0.966841 2.11667,-1.313884 0.42095,-0.347046 1.71783,-1.148644 2.882,-1.781331 1.16417,-0.63269 2.47386,-1.408319 2.91042,-1.72362 0.43656,-0.315304 1.58445,-1.00715 2.55085,-1.537441 0.96641,-0.530289 2.26782,-1.390856 2.89202,-1.912369 0.62424,-0.521515 1.61947,-1.191365 2.21166,-1.488561 0.59219,-0.297196 1.67203,-0.989412 2.39963,-1.538259 0.72761,-0.548846 2.02388,-1.198192 2.88063,-1.442992 0.85675,-0.244801 2.88081,-1.121619 4.49792,-1.948484 4.35647,-2.227565 7.82478,-3.70372 10.0231,-4.265957 5.61713,-1.436619 11.53663,-1.76643 16.99417,-0.946848 2.7116,0.407204 3.2087,0.583475 7.2761,2.579804 2.4393,1.197274 5.0242,2.678064 5.8582,3.355967 0.8209,0.667273 1.9236,1.546857 2.4505,1.954627 1.8413,1.42502 3.5733,5.72991 4.5299,11.259132 1.2389,7.160853 1.5865,15.826272 1.5404,38.40259 -0.023,10.98682 -0.1711,26.58401 -0.3304,34.66042 -0.1593,8.0764 -0.4098,22.3639 -0.5567,31.75 -0.3796,24.25149 -0.7667,38.28795 -1.0981,39.81979 -0.1828,0.84464 -0.5858,1.64217 -1.1145,2.206 -1.4794,1.57732 -2.2529,1.80443 -6.7814,1.99129 -11.9597,0.49349 -20.77252,0.70989 -38.76148,0.95178 -10.91407,0.14676 -22.46313,0.30991 -25.66459,0.36256 -3.20145,0.0526 -6.70163,0.0489 -7.77816,-0.008 z"
       id="path51880" /></g></svg>
