<svg id="50STYLE" width="500" height="112.80358" viewBox="0 0 500 112.80358" version="1.1" xml:space="preserve" xmlns:xlink="http://www.w3.org/1999/xlink" xmlns="http://www.w3.org/2000/svg" xmlns:svg="http://www.w3.org/2000/svg">
	<path id="50STYLE" style="fill:#000000;stroke:#000000;stroke-width:0" d="m 167.64936,68.858365 c 0.24015,2.401382 1.44082,4.322486 3.60208,5.523178 3.60205,1.680958 7.44425,2.401371 11.28646,2.161237 5.52317,0 11.52662,-1.200691 11.52662,-5.763311 0,-3.602063 -2.40138,-4.562621 -8.64497,-5.283033 L 162.84661,62.614785 C 147.95806,60.693681 140.5138,55.410659 140.5138,44.364314 c 0,-17.770192 15.12867,-23.293359 39.38258,-23.293359 17.28993,0 38.90232,3.121796 40.34315,21.6124 h -28.33626 c -0.24013,-2.641517 -1.9211,-4.802754 -4.56261,-5.523166 -2.88165,-0.960558 -6.00345,-1.680971 -9.12523,-1.440826 -7.20415,0 -11.52661,1.680959 -11.52661,6.24358 0,1.921103 1.68095,3.842196 8.16467,4.56262 l 21.85254,2.401372 c 17.53006,1.921104 25.93487,7.44427 25.93487,20.171574 0,15.36881 -14.6484,22.572947 -41.30369,22.572947 -18.01034,0 -42.02411,-3.361929 -42.74452,-23.053226 z M 500,60.693681 c 0,-27.375701 -17.28991,-39.382592 -44.90576,-39.382592 -26.89542,0 -44.66561,12.006891 -44.66561,35.300251 0,24.253916 16.32936,35.540395 45.38603,35.540395 27.61584,0 39.86286,-11.286479 42.98465,-22.092679 h -26.65529 c -3.60206,4.802754 -9.36537,7.684405 -15.36881,7.444271 -12.96744,0 -18.97088,-6.24358 -20.17157,-14.648408 H 500 Z M 436.60364,49.407214 c 1.44082,-7.204138 6.72385,-13.447718 18.73074,-13.447718 12.00689,0 17.28992,6.24358 18.73074,13.447718 z M 373.57551,3.3004678 h 25.21446 V 91.67115 H 373.57551 Z M 342.46964,23.952606 326.62055,62.854919 310.29119,23.952606 H 263.9446 V 3.3007628 H 238.73014 V 23.952606 h -13.20758 v 16.809645 h 13.20758 v 31.698188 c 0,14.168129 6.72385,18.250459 23.29336,18.250459 6.48371,0 12.72729,-0.480267 19.21101,-1.20068 V 73.661119 c -3.36192,0.240145 -5.76331,0.240145 -8.88509,0.240145 -6.72386,0 -8.16469,-0.960557 -8.16469,-6.723858 V 40.762251 h 27.13557 l 22.09268,44.665625 -2.88166,5.763301 c -1.20069,2.401383 -2.64152,4.802754 -11.52661,4.802754 h -6.00344 v 16.089239 c 4.80275,0.48027 11.04633,0.72041 17.77018,0.72041 15.8491,0 19.6913,-5.52317 24.25392,-15.368819 L 369.36506,23.952606 Z M 53.310576,80.686288 C 47.307131,87.890414 38.422034,91.972756 29.056659,91.492477 20.411709,91.252343 11.766746,88.850972 4.0823422,84.288351 1.6809593,83.08766 0,80.446144 0,77.804627 V 60.274569 h 12.727304 c 3.602063,0 6.483714,2.641516 7.204126,6.003445 0,0.240145 0,0.480279 0.240134,0.960558 1.440836,3.602063 4.802754,5.763301 8.644962,5.763301 3.121796,0.240145 6.24358,-1.440826 7.92455,-4.322476 0.960546,-2.641517 1.440825,-5.523167 1.200691,-8.164683 0.480267,-3.361929 0,-6.963992 -1.68097,-10.085788 -1.680959,-2.161237 -4.322475,-3.36193 -7.204138,-3.36193 -2.161237,0 -4.322475,0.720414 -6.003433,2.161239 -1.200692,1.200691 -2.881662,1.68097 -4.562621,1.68097 H 0.48027888 V 3.6020628 c 28.81652612,-3.8421965 29.29680412,-4.8027542 55.47181412,0 V 26.415154 H 40.103005 c -1.440826,0 -2.401383,-0.960558 -2.881662,-2.161237 -0.720412,-2.881662 -3.361918,-4.562621 -6.483714,-4.322487 H 19.691296 v 15.368821 c 4.322476,-1.680971 9.12523,-2.641517 13.68785,-2.641517 7.924539,-0.240134 15.36881,3.121796 20.411709,9.365375 3.602063,5.523167 5.042888,12.00688 4.322476,18.490605 -0.240134,10.325921 -1.440825,15.849088 -4.802755,20.171574 M 119.5886,67.718851 c -0.24014,14.88853 -9.60551,23.773626 -28.336257,23.773626 -18.730749,0 -28.336258,-9.12523 -28.336258,-23.773626 V 24.013772 C 63.15623,9.1252298 72.521594,0 91.252343,0 109.98309,0 119.5886,9.3653749 119.5886,24.013772 Z M 91.252343,18.730739 c -3.121794,0 -5.7633,1.440836 -7.444271,3.842208 -1.440825,2.161237 -1.921103,4.802754 -1.440825,7.44427 v 31.217909 c -0.480278,2.641516 0.240134,5.523167 1.440825,7.684405 1.680971,2.401382 4.562621,4.082342 7.444271,3.842208 3.121796,0 5.763301,-1.440826 7.444274,-3.842208 1.440823,-2.161238 1.921103,-4.802754 1.440823,-7.444271 V 30.257351 c 0.48028,-2.641505 -0.24013,-5.523167 -1.440823,-7.684404 -1.440827,-2.401372 -4.322478,-3.842208 -7.444274,-3.842208" />
</svg>
