<svg
   version="1.1"
   id="Warstwa_1"
   x="0px"
   y="0px"
   viewBox="0 0 239.00171 78.705505"
   xml:space="preserve"
   width="239.00171"
   height="78.705505"
   sodipodi:docname="_50style.svg"
   inkscape:version="1.4 (86a8ad7, 2024-10-11)"
   xmlns:inkscape="http://www.inkscape.org/namespaces/inkscape"
   xmlns:x="adobe:ns:meta/"
   xmlns:sodipodi="http://sodipodi.sourceforge.net/DTD/sodipodi-0.dtd"
   xmlns="http://www.w3.org/2000/svg"
   xmlns:svg="http://www.w3.org/2000/svg"
   xmlns:rdf="http://www.w3.org/1999/02/22-rdf-syntax-ns#"
   xmlns:ns="&amp;#38;ns_sfw;"><sodipodi:namedview
   id="namedview1"
   pagecolor="#ffffff"
   bordercolor="#000000"
   borderopacity="0.25"
   inkscape:showpageshadow="2"
   inkscape:pageopacity="0.0"
   inkscape:pagecheckerboard="0"
   inkscape:deskcolor="#d1d1d1"
   inkscape:zoom="2.56"
   inkscape:cx="206.25"
   inkscape:cy="45.507813"
   inkscape:window-width="2560"
   inkscape:window-height="991"
   inkscape:window-x="2319"
   inkscape:window-y="-9"
   inkscape:window-maximized="1"
   inkscape:current-layer="Warstwa_1" /><defs
   id="defs1" />
<style
   type="text/css"
   id="style1">
	.st0{fill-rule:evenodd;clip-rule:evenodd;fill:#010202;}
</style>
<metadata
   id="metadata1">
	<x:xmpmeta>
		<rdf:RDF>
			<rdf:Description
   rdf:about="" />
		</rdf:RDF>
	</x:xmpmeta>
	<ns:sfw>
		<ns:slices />
		<ns:sliceSourceBounds
   bottomLeftOrigin="true"
   height="78.8"
   width="239"
   x="0"
   y="114.3" />
	</ns:sfw>
</metadata>
<path
   id="_50style"
   class="st0"
   d="m 100.60171,47.8038 c 0.1,1 0.6,1.8 1.5,2.3 1.5,0.7 3.1,1 4.7,0.9 2.3,0 4.8,-0.5 4.8,-2.4 0,-1.5 -1,-1.9 -3.6,-2.2 l -9.400003,-1.2 c -6.2,-0.8 -9.3,-3 -9.3,-7.6 0,-7.4 6.3,-9.7 16.400003,-9.7 7.2,0 16.2,1.3 16.8,9 h -11.8 c -0.1,-1.1 -0.8,-2 -1.9,-2.3 -1.2,-0.4 -2.5,-0.7 -3.8,-0.6 -3,0 -4.8,0.7 -4.8,2.6 0,0.8 0.7,1.6 3.4,1.9 l 9.1,1 c 7.3,0.8 10.8,3.1 10.8,8.4 0,6.4 -6.1,9.4 -17.2,9.4 -7.500003,0 -17.500003,-1.4 -17.800003,-9.6 z m 138.4,-3.4 c 0,-11.4 -7.2,-16.4 -18.7,-16.4 -11.2,0 -18.6,5 -18.6,14.7 0,10.1 6.8,14.8 18.9,14.8 11.5,0 16.6,-4.7 17.9,-9.2 h -11.1 c -1.5,2 -3.9,3.2 -6.4,3.1 -5.4,0 -7.9,-2.6 -8.4,-6.1 h 26.4 z m -26.4,-4.7 c 0.6,-3 2.8,-5.6 7.8,-5.6 5,0 7.2,2.6 7.8,5.6 z m -26,-20.2 h 10.5 v 36.8 h -10.5 z m -13.2,9.6 -6.6,16.2 -6.8,-16.2 h -19.3 v -8.6 h -10.5 v 8.6 h -5.5 v 7 h 5.5 v 13.2 c 0,5.9 2.8,7.6 9.7,7.6 2.7,0 5.3,-0.2 8,-0.5 v -6.6 c -1.4,0.1 -2.4,0.1 -3.7,0.1 -2.8,0 -3.4,-0.4 -3.4,-2.8 v -11 h 11.3 l 9.2,18.6 -1.2,2.4 c -0.5,1 -1.1,2 -4.8,2 h -2.5 v 6.7 c 2,0.2 4.6,0.3 7.4,0.3 6.6,0 8.2,-2.3 10.1,-6.4 l 14.3,-30.6 z M 39.801707,0.00380031 c -21.8,-0.3 -39.60000003,17.19999969 -39.80000003,38.89999969 -0.2,21.7 17.20000003,39.6 39.00000003,39.8 21.8,0.2 39.6,-17.2 39.8,-39 0,-0.1 0,-0.3 0,-0.4 0,-21.6 -17.4,-39.09999969 -39,-39.29999969 m -2,53.79999969 c -2.5,3 -6.2,4.7 -10.1,4.5 -3.6,-0.1 -7.2,-1.1 -10.4,-3 -1,-0.5 -1.7,-1.6 -1.7,-2.7 v -7.3 h 5.3 c 1.5,0 2.7,1.1 3,2.5 0,0.1 0,0.2 0.1,0.4 0.6,1.5 2,2.4 3.6,2.4 1.3,0.1 2.6,-0.6 3.3,-1.8 0.4,-1.1 0.6,-2.3 0.5,-3.4 0.2,-1.4 0,-2.9 -0.7,-4.2 -0.7,-0.9 -1.8,-1.4 -3,-1.4 -0.9,0 -1.8,0.3 -2.5,0.9 -0.5,0.5 -1.2,0.7 -1.9,0.7 h -7.5 v -19.7 c 12,-1.6 12.2,-2 23.1,0 v 9.5 h -6.6 c -0.6,0 -1,-0.4 -1.2,-0.9 -0.3,-1.2 -1.4,-1.9 -2.7,-1.8 h -4.6 v 6.4 c 1.8,-0.7 3.8,-1.1 5.7,-1.1 3.3,-0.1 6.4,1.3 8.5,3.9 1.5,2.3 2.1,5 1.8,7.7 -0.1,4.3 -0.6,6.6 -2,8.4 m 27.6,-5.4 c -0.1,6.2 -4,9.9 -11.8,9.9 -7.8,0 -11.8,-3.8 -11.8,-9.9 v -18.2 c 0.1,-6.2 4,-10 11.8,-10 7.8,0 11.8,3.9 11.8,10 z m -11.8,-20.4 c -1.3,0 -2.4,0.6 -3.1,1.6 -0.6,0.9 -0.8,2 -0.6,3.1 v 13 c -0.2,1.1 0.1,2.3 0.6,3.2 0.7,1 1.9,1.7 3.1,1.6 1.3,0 2.4,-0.6 3.1,-1.6 0.6,-0.9 0.8,-2 0.6,-3.1 v -13 c 0.2,-1.1 -0.1,-2.3 -0.6,-3.2 -0.6,-1 -1.8,-1.6 -3.1,-1.6" />
</svg>
