<svg id="50STYLE" width="500" height="110.43937" viewBox="0 0 500 110.43937" version="1.1" xml:space="preserve" xmlns:xlink="http://www.w3.org/1999/xlink" xmlns="http://www.w3.org/2000/svg" xmlns:svg="http://www.w3.org/2000/svg">
	<path id="50STYLE" style="fill:#000000;stroke:#000000;stroke-width:0" d="m 174.61498,67.415187 c 0.23512,2.351052 1.41062,4.231892 3.52659,5.407419 3.52655,1.645728 7.28823,2.351042 11.04991,2.115941 5.40741,0 11.28504,-1.175527 11.28504,-5.64252 0,-3.526569 -2.35106,-4.466995 -8.46379,-5.172308 l -22.09984,-2.821255 c -14.57651,-1.880841 -21.86474,-7.053138 -21.86474,-17.867966 0,-17.397753 14.81159,-22.805162 38.55717,-22.805162 16.92756,0 38.08698,3.056368 39.49761,21.159433 h -27.74237 c -0.2351,-2.586154 -1.88083,-4.702094 -4.46699,-5.407407 -2.82126,-0.940426 -5.87762,-1.645741 -8.93397,-1.410629 -7.05316,0 -11.28503,1.645729 -11.28503,6.112723 0,1.88084 1.64572,3.761669 7.99355,4.466994 l 21.39454,2.351042 c 17.16266,1.880841 25.39131,7.288249 25.39131,19.748805 0,15.046701 -14.3414,22.099849 -40.43803,22.099849 -17.63287,0 -41.14334,-3.291468 -41.84865,-22.570062 z M 500,59.421623 c 0,-26.801943 -16.92755,-38.557186 -43.9646,-38.557186 -26.33172,0 -43.72947,11.755243 -43.72947,34.560406 0,23.745586 15.98711,34.795516 44.4348,34.795516 27.03704,0 39.02738,-11.04993 42.08374,-21.629646 h -26.09663 c -3.52656,4.702094 -9.16908,7.52335 -15.0467,7.288249 -12.69566,0 -18.57327,-6.112723 -19.7488,-14.341397 H 500 Z M 437.93233,48.371705 c 1.41062,-7.053149 6.58294,-13.165872 18.33818,-13.165872 11.75524,0 16.92755,6.112723 18.33817,13.165872 z M 376.2252,3.2312944 h 24.68599 V 89.749846 H 376.2252 Z M 345.77126,23.450592 330.25434,61.537565 314.26722,23.450592 H 268.89199 V 3.2315833 H 244.206 V 23.450592 H 231.27524 V 39.907929 H 244.206 v 31.033837 c 0,13.871184 6.58292,17.867954 22.80517,17.867954 6.34781,0 12.46054,-0.470201 18.80837,-1.175515 V 72.117281 c -3.29146,0.235112 -5.64252,0.235112 -8.69887,0.235112 -6.58294,0 -7.99357,-0.940425 -7.99357,-6.582935 V 39.907929 h 26.56684 l 21.62964,43.729494 -2.82126,5.64251 c -1.17553,2.351051 -2.58616,4.702095 -11.28503,4.702095 h -5.87762 v 15.752032 c 4.7021,0.4702 10.81482,0.70531 17.39775,0.70531 15.51692,0 19.27859,-5.40741 23.74559,-15.04671 L 372.10299,23.450592 Z M 52.193258,78.995212 C 46.315637,86.048349 37.61676,90.045131 28.447671,89.574918 19.983907,89.339817 11.520131,86.988775 3.9967818,82.521781 1.6457287,81.346255 0,78.760101 0,76.173947 V 59.011295 h 12.460557 c 3.526568,0 6.347824,2.586154 7.053137,5.877621 0,0.235112 0,0.470213 0.235101,0.940426 1.410638,3.526569 4.702095,5.64251 8.463775,5.64251 3.056368,0.235112 6.112723,-1.410628 7.758463,-4.231883 0.940414,-2.586154 1.410627,-5.407408 1.175526,-7.993562 0.470201,-3.291467 0,-6.818036 -1.645739,-9.874403 -1.645729,-2.115941 -4.231882,-3.291469 -7.053149,-3.291469 -2.115941,0 -4.231882,0.705315 -5.87761,2.115943 -1.175527,1.175526 -2.821266,1.645739 -4.466994,1.645739 H 0.47021288 V 3.5265684 c 28.21257012,-3.76166922 28.68278212,-4.7020949 54.30920012,0 V 25.861528 H 39.2625 c -1.410628,0 -2.351053,-0.940426 -2.821266,-2.11594 -0.705313,-2.821267 -3.291457,-4.466995 -6.347824,-4.231894 H 19.278593 v 15.046711 c 4.231883,-1.64574 8.933977,-2.586154 13.400971,-2.586154 7.758451,-0.235101 15.046701,3.056367 19.983907,9.169089 3.526569,5.407409 4.937196,11.755232 4.231883,18.103067 -0.235101,10.109504 -1.410627,15.516913 -4.702096,19.748805 M 117.08218,66.299555 c -0.2351,14.576487 -9.40419,23.275363 -27.742363,23.275363 -18.338178,0 -27.742368,-8.933977 -27.742368,-23.275363 V 23.510476 C 61.832561,8.9339773 71.001639,0 89.339817,0 107.67799,0 117.08218,9.1690893 117.08218,23.510476 Z M 89.339817,18.338168 c -3.056365,0 -5.642509,1.410638 -7.288249,3.76168 -1.410627,2.115941 -1.880839,4.702095 -1.410627,7.288249 V 59.95172 c -0.470212,2.586154 0.235101,5.407409 1.410627,7.523351 1.64574,2.351052 4.466994,3.996781 7.288249,3.76168 3.056367,0 5.64251,-1.410628 7.288252,-3.76168 1.410625,-2.115942 1.880839,-4.702095 1.410625,-7.28825 V 29.623198 c 0.470214,-2.586143 -0.235097,-5.407409 -1.410625,-7.52335 -1.410629,-2.351042 -4.231885,-3.76168 -7.288252,-3.76168" />
</svg>
