<svg id="50STYLE" width="500" height="115.89429" viewBox="0 0 500 115.89429" version="1.1" xml:space="preserve" xmlns:xlink="http://www.w3.org/1999/xlink" xmlns="http://www.w3.org/2000/svg" xmlns:svg="http://www.w3.org/2000/svg">
	<path id="50STYLE" style="fill:#000000;stroke:#000000;stroke-width:0" d="m 158.54327,70.745018 c 0.24673,2.467178 1.4803,4.440918 3.70077,5.674508 3.70075,1.727015 7.64822,2.467166 11.5957,2.220453 5.6745,0 11.84244,-1.233589 11.84244,-5.921221 0,-3.700756 -2.46717,-4.687632 -8.88183,-5.427783 L 153.60893,64.33037 c -15.29648,-1.97374 -22.94471,-7.401512 -22.94471,-18.750516 0,-18.257079 15.54318,-23.931575 40.46163,-23.931575 17.76366,0 39.9682,3.20733 41.44851,22.204559 h -29.11264 c -0.24671,-2.713892 -1.97374,-4.934345 -4.68763,-5.674496 -2.9606,-0.986876 -6.16793,-1.727028 -9.37525,-1.480303 -7.40153,0 -11.84243,1.727016 -11.84243,6.414648 0,1.97374 1.72701,3.947469 8.38838,4.687632 l 22.45128,2.467167 c 18.01036,1.97374 26.64546,7.648236 26.64546,20.724256 0,15.7899 -15.04976,23.191424 -42.43537,23.191424 -18.50381,0 -43.17553,-3.454043 -43.91568,-23.684862 z M 500,62.35663 c 0,-28.125769 -17.76364,-40.461638 -46.13613,-40.461638 -27.63233,0 -45.88941,12.335869 -45.88941,36.267444 0,24.91845 16.77677,36.514168 46.62956,36.514168 28.37249,0 40.95507,-11.595718 44.16239,-22.697997 h -27.38562 c -3.70075,4.934345 -9.62197,7.89495 -15.7899,7.648237 -13.32273,0 -19.49066,-6.414648 -20.72425,-15.049761 H 500 Z M 434.86664,50.760924 c 1.4803,-7.401524 6.90808,-13.816172 19.24394,-13.816172 12.33587,0 17.76365,6.414648 19.24395,13.816172 z M 370.1116,3.3908975 h 25.90531 V 94.182851 H 370.1116 Z M 338.15346,24.608884 321.87012,64.577083 305.09335,24.608884 H 257.47691 V 3.3912005 H 231.5716 V 24.608884 h -13.56946 v 17.270214 h 13.56946 v 32.566687 c 0,14.556323 6.90807,18.750505 23.93157,18.750505 6.66136,0 13.07601,-0.493426 19.73738,-1.233578 V 75.679363 c -3.45404,0.246725 -5.92122,0.246725 -9.12854,0.246725 -6.90808,0 -8.38839,-0.986876 -8.38839,-6.908086 V 41.879098 h 27.87906 l 22.69799,45.88942 -2.96061,5.92121 c -1.23359,2.467178 -2.71389,4.934345 -11.84243,4.934345 h -6.16793 v 16.530067 c 4.93434,0.49343 11.34899,0.74015 18.25707,0.74015 16.28335,0 20.23082,-5.6745 24.91845,-15.78991 L 365.78579,24.608884 Z M 54.771235,82.897015 C 48.603301,90.298527 39.474761,94.492721 29.852784,93.999283 20.97097,93.75257 12.089144,91.285403 4.1941945,86.597771 1.727016,85.364182 0,82.650291 0,79.936399 V 61.926034 h 13.07602 c 3.700756,0 6.661361,2.713891 7.401512,6.167934 0,0.246725 0,0.493438 0.246713,0.986876 1.480314,3.700756 4.934345,5.92121 8.881826,5.92121 3.20733,0.246725 6.414648,-1.480303 8.141675,-4.440907 0.986864,-2.713892 1.480302,-5.674497 1.233589,-8.388388 0.493426,-3.454043 0,-7.154799 -1.727027,-10.362129 -1.727016,-2.220453 -4.440907,-3.454043 -7.401524,-3.454043 -2.220453,0 -4.440907,0.740152 -6.167922,2.220454 -1.23359,1.233589 -2.960617,1.727027 -4.687632,1.727027 H 0.49343806 V 3.7007559 c 29.60607094,-3.94746903 30.09950894,-4.9343451 56.99168894,0 V 27.138904 H 41.201789 c -1.480303,0 -2.467179,-0.986876 -2.960617,-2.220453 -0.740151,-2.960617 -3.454031,-4.687632 -6.661361,-4.440919 H 20.230819 v 15.789912 c 4.440907,-1.727028 9.375252,-2.713892 14.062884,-2.713892 8.141663,-0.246713 15.7899,3.20733 20.97097,9.621977 3.700756,5.674497 5.181058,12.335857 4.440907,18.99723 C 59.458867,72.7816 58.225278,78.456097 54.771235,82.897015 M 122.86521,69.574282 c -0.24672,15.296462 -9.86869,24.425001 -29.11264,24.425001 -19.243954,0 -29.112645,-9.375252 -29.112645,-24.425001 V 24.671726 C 64.88665,9.3752523 74.508616,0 93.75257,0 c 19.24395,0 29.11264,9.6219772 29.11264,24.671726 z M 93.75257,19.243943 c -3.207329,0 -5.921209,1.480314 -7.648237,3.947481 -1.480302,2.220453 -1.97374,4.934345 -1.480302,7.648236 v 32.07325 c -0.493438,2.713891 0.246713,5.674496 1.480302,7.89495 1.727028,2.467178 4.687632,4.194194 7.648237,3.947481 3.20733,0 5.92121,-1.480303 7.64824,-3.947481 1.4803,-2.220454 1.97374,-4.934345 1.4803,-7.648237 v -32.07325 c 0.49344,-2.713879 -0.24671,-5.674496 -1.4803,-7.894949 -1.480305,-2.467167 -4.44091,-3.947481 -7.64824,-3.947481" />
</svg>
