<svg id="50STYLE" width="500" height="164.65469" viewBox="0 0 500 164.65469" version="1.1" xml:space="preserve" xmlns:xlink="http://www.w3.org/1999/xlink" xmlns="http://www.w3.org/2000/svg" xmlns:svg="http://www.w3.org/2000/svg">
	<path id="50STYLE" style="fill:#000000;stroke:#000000;stroke-width:0" d="m 210.46232,100.00723 c 0.20921,2.09204 1.25522,3.76567 3.13806,4.81169 3.13805,1.46442 6.4853,2.09203 9.83256,1.88283 4.81168,0 10.04177,-1.04602 10.04177,-5.02089 0,-3.13805 -2.09203,-3.974865 -7.53133,-4.602475 l -19.66513,-2.510442 c -12.97062,-1.673629 -19.45593,-6.276106 -19.45593,-15.899468 0,-15.481061 13.17982,-20.292742 34.30938,-20.292742 15.06266,0 33.89097,2.719646 35.14619,18.828317 h -24.68601 c -0.2092,-2.301239 -1.67363,-4.18407 -3.97487,-4.811681 -2.51044,-0.836814 -5.23009,-1.464425 -7.94973,-1.255221 -6.27611,0 -10.04177,1.464425 -10.04177,5.439292 0,1.673628 1.46442,3.347256 7.11292,3.974867 l 19.03752,2.092035 c 15.27186,1.673628 22.59398,6.485309 22.59398,17.573098 0,13.38902 -12.76142,19.66513 -35.98301,19.66513 -15.69027,0 -36.61062,-2.92885 -37.23823,-20.083539 z M 500,92.894314 c 0,-23.849201 -15.06265,-34.309378 -39.12106,-34.309378 -23.43079,0 -38.91185,10.460177 -38.91185,30.752919 0,21.129555 14.22584,30.962125 39.53946,30.962125 24.05841,0 34.72779,-9.83257 37.44743,-19.24673 h -23.22159 c -3.13805,4.18407 -8.15894,6.69451 -13.38902,6.48531 -11.29699,0 -16.52708,-5.43929 -17.5731,-12.761414 H 500 Z m -55.22973,-9.832565 c 1.25522,-6.276106 5.8577,-11.715398 16.31787,-11.715398 10.46018,0 15.06266,5.439292 16.31788,11.715398 z M 390.37735,40.802637 h 21.96637 V 117.78953 H 390.37735 Z M 362.76249,60.886175 348.95506,94.777146 334.72922,60.886175 H 294.35294 V 42.894672 h -21.96637 v 17.991503 h -11.5062 v 14.644247 h 11.5062 v 27.614868 c 0,12.34301 5.85769,15.89946 20.29274,15.89946 5.64849,0 11.08778,-0.4184 16.73628,-1.04601 V 104.1913 c -2.92885,0.20921 -5.02089,0.20921 -7.74053,0.20921 -5.8577,0 -7.11292,-0.83682 -7.11292,-5.8577 V 75.530422 h 23.64 l 19.24672,38.911858 -2.51044,5.02088 c -1.04602,2.09204 -2.30124,4.18407 -10.04177,4.18407 h -5.23009 v 14.01664 c 4.18407,0.41841 9.62336,0.62761 15.48106,0.62761 13.80744,0 17.15469,-4.81168 21.12956,-13.38903 l 29.9161,-64.016275 z M 83.266574,0.00795039 C 37.660205,-0.61966019 0.42197809,35.990956 0.00357105,81.388121 -0.414836,126.78529 35.986577,164.23272 81.592946,164.65112 c 45.606364,0.41841 82.844594,-35.983 83.263004,-81.589371 v -0.836814 c 0,-45.187961 -36.40142,-81.79857757 -81.589376,-82.21698461 M 79.082503,112.55945 c -5.230088,6.2761 -12.970618,9.83256 -21.129556,9.41415 -7.531327,-0.2092 -15.062653,-2.30123 -21.757166,-6.2761 -2.092035,-1.04602 -3.55646,-3.34726 -3.55646,-5.6485 V 94.777146 h 11.087787 c 3.138053,0 5.648495,2.301239 6.276105,5.230084 0,0.20921 0,0.41841 0.209204,0.83682 1.255221,3.13805 4.18407,5.02088 7.531327,5.02088 2.719646,0.20921 5.439291,-1.25522 6.903716,-3.76566 0.836814,-2.301239 1.255221,-4.811682 1.046018,-7.11292 0.418407,-2.92885 0,-6.066903 -1.464425,-8.786548 -1.464425,-1.882832 -3.765663,-2.92885 -6.276106,-2.92885 -1.882831,0 -3.765663,0.627611 -5.230088,1.882832 -1.046017,1.046018 -2.510442,1.464425 -3.974867,1.464425 H 33.057728 V 45.405114 c 25.104423,-3.347256 25.52283,-4.18407 48.326014,0 V 65.279449 H 67.576309 c -1.255221,0 -2.092035,-0.836814 -2.510442,-1.882831 -0.62761,-2.510443 -2.928849,-3.974867 -5.648495,-3.765664 H 49.79401 V 73.01998 c 3.765663,-1.464425 7.949734,-2.301239 11.924601,-2.301239 6.903716,-0.209204 13.389025,2.719646 17.782299,8.158937 3.138053,4.811681 4.393274,10.460177 3.765664,16.108672 -0.209204,8.99575 -1.255221,13.80743 -4.184071,17.5731 m 57.740177,-11.29699 c -0.20921,12.97061 -8.36815,20.71114 -24.68602,20.71114 -16.317875,0 -24.686016,-7.94973 -24.686016,-20.71114 V 63.187414 c 0.209204,-12.970618 8.368141,-20.920352 24.686016,-20.920352 16.31787,0 24.68602,8.158937 24.68602,20.920352 z M 112.13666,58.584936 c -2.71965,0 -5.02088,1.255222 -6.48531,3.347257 -1.25522,1.882832 -1.67363,4.18407 -1.25522,6.485309 V 95.61396 c -0.41841,2.301239 0.2092,4.81168 1.25522,6.69451 1.46443,2.09204 3.97487,3.55646 6.48531,3.34726 2.71965,0 5.02088,-1.25522 6.48531,-3.34726 1.25522,-1.88283 1.67363,-4.184067 1.25522,-6.485306 V 68.626706 c 0.41841,-2.301239 -0.2092,-4.811681 -1.25522,-6.694513 -1.25522,-2.092035 -3.76566,-3.347257 -6.48531,-3.347257" />
</svg>
