<svg id="ACTION" width="500" height="109.00184" viewBox="0 0 500 109.00184" version="1.1" xml:space="preserve" xmlns:xlink="http://www.w3.org/1999/xlink" xmlns="http://www.w3.org/2000/svg" xmlns:svg="http://www.w3.org/2000/svg">
	<path id="ACTION" style="fill:#000000;stroke:#000000;stroke-width:0" d="m 165.92832,109.00065 c 7.04259,0 13.58342,-5.16696 14.60964,-11.542919 l 3.94958,-24.47046 c 0.13859,-0.858969 -0.45875,-1.560241 -1.32847,-1.560241 h -22.66412 c -0.86852,0 -1.69404,0.701272 -1.83262,1.559046 l -1.82666,11.281285 c -0.32973,2.054835 -2.43832,3.720208 -4.70939,3.720208 h -16.96673 c -2.27107,0 -3.84206,-1.665373 -3.51233,-3.720208 l 9.58485,-59.531684 c 0.32973,-2.054835 2.43952,-3.721402 4.71059,-3.721402 h 16.96792 c 2.26868,0 3.84087,1.665372 3.50994,3.721402 l -1.80156,11.277701 c -0.13739,0.858968 0.46234,1.561435 1.33086,1.561435 h 22.66531 c 0.86853,0 1.69285,-0.702467 1.83024,-1.560241 l 3.9245,-24.47046 C 195.39609,5.1693443 190.51825,0 183.47685,0 h -51.33624 c -7.04378,0 -13.5858,5.1693443 -14.61083,11.544112 l -13.83071,85.914814 c -1.02622,6.374764 3.85043,11.541724 10.89302,11.541724 z M 272.59219,24.202853 c -0.13858,0.85658 -0.96291,1.560242 -1.83263,1.560242 h -19.58305 c -0.86973,0 -1.69405,0.701272 -1.83263,1.559046 l -12.89051,80.118269 c -0.13858,0.85897 -0.9629,1.56143 -1.83262,1.56143 h -22.66293 c -0.86852,0 -1.46705,-0.70246 -1.32967,-1.56143 l 12.89051,-80.118269 c 0.13858,-0.857774 -0.45875,-1.559046 -1.32847,-1.559046 h -18.76471 c -0.86972,0 -1.46706,-0.703662 -1.32848,-1.561436 L 205.74911,1.5602412 C 205.8877,0.70246694 206.71202,0 207.58055,0 h 67.33647 c 0.86853,0 1.46706,0.70246694 1.32848,1.5602412 z M 499.98002,1.5638252 c 0.13858,-0.85777424 -0.45875,-1.56024118 -1.32847,-1.56024118 h -22.66531 c -0.86853,0 -1.69285,0.70246694 -1.83144,1.56024118 l -8.03177,49.8930728 c -0.13739,0.857775 -0.58539,0.931844 -0.99397,0.16606 L 438.35766,1.3989605 C 437.94909,0.63198131 436.90375,0.00358402 436.03403,0.00358402 H 421.6466 c -0.86973,0 -1.69405,0.70246694 -1.83144,1.56024118 L 402.76959,107.4416 c -0.13858,0.85778 0.45995,1.55905 1.32967,1.55905 h 22.6665 c 0.86972,0 1.69405,-0.70127 1.83144,-1.55905 l 8.02938,-49.893071 c 0.13859,-0.858969 0.58539,-0.933038 0.99517,-0.167254 l 26.7702,50.225195 c 0.40858,0.76698 1.45511,1.39418 2.32363,1.39418 h 14.38982 c 0.86973,0 1.69285,-0.70127 1.83144,-1.55905 z M 339.89043,83.342685 c -0.32973,2.033331 1.24127,3.680784 3.51353,3.680784 h 16.96793 c 2.26987,0 4.37847,-1.647453 4.70939,-3.679589 l 9.58366,-58.879394 c 0.32973,-2.033331 -1.24127,-3.680783 -3.51114,-3.680783 h -16.96792 c -2.27108,0 -4.37848,1.648647 -4.71059,3.680783 z M 340.38383,0 h 51.33743 c 7.04259,0 11.91805,5.1131948 10.89183,11.417477 l -13.83072,84.973412 c -1.02622,6.305481 -7.56705,11.416281 -14.60844,11.416281 H 322.8353 c -7.04259,0 -11.91924,-5.1108 -10.89182,-11.416281 L 325.77539,11.417477 C 326.80042,5.1131948 333.34124,0 340.38383,0 m -52.53927,0.00358402 c -0.86972,0 -1.69404,0.70246694 -1.83262,1.56024118 L 268.96756,107.4416 c -0.13859,0.85897 0.45994,1.56024 1.32967,1.56024 h 22.66292 c 0.86852,0 1.69404,-0.70127 1.83143,-1.56024 L 311.83715,1.5650199 c 0.13739,-0.85777427 -0.45994,-1.56024121 -1.32967,-1.56024121 z M 74.023425,24.735677 69.790704,51.028011 c -0.138582,0.857774 -0.962906,1.560241 -1.831432,1.560241 H 45.930721 c -0.868526,0 -1.354758,-0.673795 -1.077594,-1.498118 l 8.854907,-26.354457 c 0.689325,-2.054835 3.090615,-3.721402 5.360491,-3.721402 H 70.51348 c 2.268682,0 3.840869,1.665372 3.509945,3.721402 M 32.312659,11.544112 0.0780279,107.50253 c -0.27716383,0.82432 0.20787287,1.49812 1.0775938,1.49812 H 23.818543 c 0.869721,0 1.807538,-0.6738 2.084702,-1.49812 L 36.786704,75.10184 c 0.278359,-0.824323 1.214981,-1.499313 2.084702,-1.499313 h 25.704556 c 0.869721,0 1.468251,0.702467 1.329669,1.560241 L 60.70881,107.4416 c -0.137388,0.85778 0.461143,1.55905 1.329669,1.55905 h 22.664116 c 0.869721,0 1.694045,-0.70127 1.832627,-1.55905 L 101.97277,11.545307 C 102.99899,5.1693443 98.122342,0 91.079753,0 H 48.943683 C 41.899899,0 34.454705,5.1693443 32.312659,11.544112" />
</svg>
