<svg
   viewBox="0 0 400 75.477783"
   id="action-logo"
   version="1.1"
   style="text-align:center"
   width="400"
   height="75.477783"
   xmlns="http://www.w3.org/2000/svg"
   xmlns:svg="http://www.w3.org/2000/svg"
   xmlns:rdf="http://www.w3.org/1999/02/22-rdf-syntax-ns#"
   xmlns:cc="http://creativecommons.org/ns#"
   xmlns:dc="http://purl.org/dc/elements/1.1/">
  <metadata
     id="metadata13">
    <rdf:RDF>
      <cc:Work
         rdf:about="">
        <dc:format>image/svg+xml</dc:format>
        <dc:type
           rdf:resource="http://purl.org/dc/dcmitype/StillImage" />
      </cc:Work>
    </rdf:RDF>
  </metadata>
  <defs
     id="defs11" />
  <path
     id="path2"
     style="text-align:center;fill:#000000;stroke-width:0.827066"
     d="m 180.87836,0.00827 h -35.53904 c -4.8797,0 -9.41202,3.58119 -10.11503,7.99773 l -9.57743,59.47435 c -0.71127,4.41653 2.66316,7.98946 7.54285,7.98946 h 35.53078 c 4.87969,0 9.40374,-3.57293 10.11502,-7.98946 l 2.72932,-16.93832 a 0.90977312,0.90977312 0 0 0 -0.91805,-1.07519 h -15.68945 c -0.60376,0 -1.17443,0.4797 -1.27368,1.07519 l -1.24887,7.79924 c -0.23158,1.42255 -1.68722,2.58044 -3.26691,2.58044 h -11.74435 c -1.57142,0 -2.65488,-1.15789 -2.43157,-2.58044 l 6.64134,-41.21273 c 0.22331,-1.42255 1.68722,-2.57217 3.25864,-2.57217 h 11.74435 c 1.57142,0 2.66315,1.14962 2.43157,2.57217 l -1.2406,7.80751 a 0.90977312,0.90977312 0 0 0 0.90978,1.07519 h 15.69772 a 1.3233064,1.3233064 0 0 0 1.26541,-1.07519 L 188.41294,7.99773 C 189.12422,3.58119 185.74978,0 180.87836,0 Z m -63.97359,0.008 H 87.734131 c -4.87969,0 -10.02404,3.57292 -11.51276,7.98946 l -22.31426,66.42995 c -0.19022,0.57895 0.1406,1.0421 0.74436,1.0421 h 15.68945 c 0.60376,0 1.25715,-0.47143 1.44737,-1.0421 l 7.52631,-22.43004 a 1.629321,1.629321 0 0 1 1.44736,-1.03384 h 17.79847 c 0.60376,0 1.01729,0.4797 0.91805,1.07519 l -3.59774,22.34734 a 0.90977312,0.90977312 0 0 0 0.92631,1.07518 h 15.689459 c 0.59548,0 1.16616,-0.4797 1.26541,-1.07518 L 124.44762,8.0057 c 0.71127,-4.41654 -2.66316,-7.98946 -7.54285,-7.98946 z M 105.10253,17.13654 102.16645,35.332 c -0.091,0.60376 -0.66166,1.08346 -1.26542,1.08346 H 85.649921 c -0.60375,0 -0.93458,-0.46316 -0.74436,-1.03383 l 6.12857,-18.24509 a 4.1353324,4.1353324 0 0 1 3.71353,-2.57217 h 7.923299 c 1.57142,0 2.65488,1.14962 2.43157,2.57217 z m 137.46672,-0.37218 2.53082,-15.67291 a 0.90977312,0.90977312 0 0 0 -0.91804,-1.07518 h -46.62174 c -0.60375,0 -1.17443,0.47969 -1.26541,1.07518 l -2.53082,15.67291 a 0.90977312,0.90977312 0 0 0 0.91804,1.08346 h 12.99322 c 0.60376,0 1.01729,0.48797 0.91804,1.07519 l -8.92405,55.47134 a 0.90977312,0.90977312 0 0 0 0.92632,1.07519 h 15.68945 c 0.59549,0 1.16616,-0.4797 1.26541,-1.07519 l 8.92405,-55.46307 c 0.0992,-0.59549 0.66165,-1.08346 1.26541,-1.08346 h 13.56389 c 0.59549,0 1.16616,-0.48797 1.26541,-1.07519 z M 325.03605,0.008 H 289.497 c -4.87969,0 -9.40374,3.54811 -10.10675,7.90675 l -9.57743,58.82924 c -0.71128,4.36691 2.66315,7.90676 7.53458,7.90676 h 35.54731 c 4.8797,0 9.40375,-3.53985 10.11503,-7.90676 L 332.5789,7.91472 c 0.71127,-4.35864 -2.66316,-7.89848 -7.53458,-7.89848 z m -11.80224,16.93832 -6.63307,40.7661 c -0.23158,1.40602 -1.68722,2.54737 -3.25864,2.54737 h -11.74435 c -1.5797,0 -2.66315,-1.14135 -2.43984,-2.54737 l 6.63307,-40.7661 c 0.23158,-1.40602 1.69549,-2.54737 3.26691,-2.54737 h 11.74435 c 1.57142,0 2.65488,1.14135 2.43157,2.54737 z M 399.06677,0.01627 h -15.68945 c -0.60376,0 -1.17444,0.48797 -1.26541,1.07518 l -5.56616,34.54657 c -0.091,0.59549 -0.40526,0.64511 -0.68647,0.11579 L 357.333,0.98391 a 2.0097715,2.0097715 0 0 0 -1.61278,-0.96767 h -9.96616 a 1.3233064,1.3233064 0 0 0 -1.26541,1.07518 l -11.80224,73.30291 a 0.90977312,0.90977312 0 0 0 0.92632,1.07518 h 15.68945 c 0.60376,0 1.17443,-0.4797 1.26541,-1.07518 l 5.55789,-34.5383 c 0.0992,-0.59549 0.41353,-0.64511 0.69473,-0.11579 l 18.52629,34.76987 a 2.0097715,2.0097715 0 0 0 1.61278,0.96767 h 9.96615 a 1.3233064,1.3233064 0 0 0 1.26542,-1.08345 L 399.98481,1.09142 a 0.90977312,0.90977312 0 0 0 -0.90977,-1.07518 z m -130.24643,0 h -15.68945 c -0.60376,0 -1.17443,0.48797 -1.27368,1.07518 l -11.79397,73.3029 a 0.90977312,0.90977312 0 0 0 0.90977,1.07519 h 15.69772 a 1.3233064,1.3233064 0 0 0 1.26542,-1.07519 l 11.80223,-73.3029 a 0.90977312,0.90977312 0 0 0 -0.91804,-1.07518 z" />
  <path
     d="m 58.455981,0.00827 h 8.58495 c 0.60376,0 0.93458,0.46315 0.74436,1.03383 l -24.64658,73.38561 a 1.629321,1.629321 0 0 1 -1.44737,1.0421 h -8.58495 c -0.59549,0 -0.93458,-0.47143 -0.74436,-1.0421 L 57.016881,1.0421 a 1.629321,1.629321 0 0 1 1.44737,-1.03383 z m -17.94734,0 h 4.99548 c 0.59549,0 0.93458,0.46315 0.74436,1.03383 l -24.66312,73.38561 a 1.629321,1.629321 0 0 1 -1.4391,1.0421 h -4.99548 c -0.60376,0 -0.93459,-0.47143 -0.74436,-1.0421 L 39.053001,1.0421 a 1.629321,1.629321 0 0 1 1.46391,-1.03383 z M 28.292861,1.0421 c 0.1985,-0.57068 -0.1406,-1.03383 -0.74436,-1.03383 h -1.53007 c -0.74436,0 -1.07518,0.38045 -1.31503,1.03383 L 0.05682055,74.42771 c -0.1985,0.57894 0.1406,1.0421 0.74436,1.0421 H 2.3395206 c 0.71955,0 1.07519,-0.3391 1.30676,-1.0421 L 28.284591,1.0421 Z"
     style="text-align:center;fill:#000000;stroke-width:0.827066"
     id="path6" />
</svg>
