<svg
   viewBox="-5.29 -5.29 3502.5214 1660.0808"
   shape-rendering="geometricPrecision"
   text-rendering="geometricPrecision"
   image-rendering="optimizeQuality"
   fill-rule="evenodd"
   clip-rule="evenodd"
   id="logo"
   version="1.1"
   width="3502.5215"
   height="1660.0808"
   xmlns="http://www.w3.org/2000/svg"
   xmlns:svg="http://www.w3.org/2000/svg">
  <defs
     id="defs9" />
  <path
     fill="#dd0f77"
     d="m 708.18656,1323.6196 c -3.43,-16.19 -9.19,-34.11 -19.32,-47.38 -3.37,4.07 -8.49,10.56 -10.33,14.82 -4.2,20.16 -6.14,42.26 -7.78,62.72 -3.14,39.17 -13.38,77.45 -27.65,113.81 -31.22,80.86 -86.12,142.15 -169.45,169.38 -81.59,26.67 -169.19,20.57 -251.42,0.32 -62.94,-15.02 -116.1,-47.7 -156.179995,-98.77 -45.04,-57.41 -61.8,-132.51 -66.5000001,-203.81 -2.2999999,-33.68 -4.0099999,-67.36 -4.6999999,-101.11 -0.69,-33.34 1.07,-66.75 4.9899999,-99.9 4.3000001,-36.59 11.6100001,-72.93 20.6800001,-108.63 11.27,-44.31005 25.72,-88.22003 41.18,-131.31003 17.62,-48.83 39.969995,-95.85 65.919995,-140.76 28.75,-49.79 59.3,-98.62 90.67,-146.76 23.58,-36.84 50.66,-71.86 78.86,-105.26 32.87,-38.89 68.96,-74.98 107.4,-108.38 40.21,-34.92 83.95,-65.43 130.79,-90.84 47.86,-25.99 99.06,-43.83 152.88,-52.29 l 0.63,-0.11 0.64,-0.07 c 54.73,-7.43 108.63,-1.43 160.4,17.8 49.88,18.53 96.05,44.96 138.25,77.28 43.54004,33.34 82.83004,71.64 117.83004,113.81 33.43,40.19 64.29,82.66 91.41,127.4 l 0.56,0.96 0.54,0.95 c 18.46,33.23 35.14,68.27 51.38,102.66 23.24,49.23 43.86,99.79 62.64,150.88 20.43,55.5 37.86,112.08 52.35,169.41003 13.66,53.94 22.92,110.16 22.92,165.89 0,40.73 -0.98,81.45 -2.8,122.11 -2,43.63 -8.94,86.84 -21.88,128.6 -13.14,42.36 -33.96,81.08 -62.58,114.94 -32.91,38.98 -76.98,64.49 -124.66,80.87 -35.66,12.4 -73.05,18.35 -110.73,19.69 -37.74,1.38 -75.48004,-0.98 -112.75004,-7.15 -36.47,-6.11 -72.14,-16.52 -105.55,-32.49 -32.39,-15.44 -62.05,-36.91 -82.17,-67.11 -17.62,-26.45 -27.14,-61.48 -33.41,-92.36 -8.13,-39.84 -15.69,-79.81 -23.05,-119.82 z m 621.38004,-147.28 c 0,39.21 -0.92,79.04 -2.74,119.48 -1.86,40.45 -8.29,78.42 -19.31,113.98 -11.03,35.53 -28.18,67.07 -51.48,94.65 -23.26,27.59 -56.35,48.71 -99.25,63.41 -28.19,9.81 -59.42,15.31 -93.74,16.54 -34.31,1.21 -68.01004,-0.91 -101.10004,-6.43 -33.07,-5.49 -63.11,-14.7 -90.06,-27.58 -26.97,-12.85 -46.55,-28.46 -58.81,-46.85 -9.81,-14.7 -18.08,-38.61 -24.81,-71.7 -6.74,-33.08 -14.41,-72.91 -22.99,-119.45 -6.11,-29.42 -16.22,-53.32 -30.33,-71.7 -14.08,-18.39 -29.7,-27.55 -46.86,-27.55 -14.71,0 -28.79,7.93 -42.28,23.86 -13.49,15.96 -21.44,29.42 -23.9,40.45 -3.68,17.13 -6.73,41.04 -9.19,71.66 -2.44,30.67 -10.42,63.11 -23.89,97.42 -26.97,69.85 -71.37,114.9 -133.27,135.11 -61.87,20.23 -135.07,19.93 -219.64,-0.91 -51.46,-12.27 -92.83,-38.28 -124.07,-78.11 -31.239995,-39.83 -49.309995,-97.13 -54.219995,-171.88 -2.44,-35.55 -3.98,-68.3 -4.59,-98.36 -0.6,-30.02 0.91,-60.65 4.59,-91.88 3.68,-31.26 10.11,-64.96 19.3,-101.11 9.21,-36.13 22.35,-78.13003 39.519995,-125.91003 15.92,-44.1 36.44,-87.89 61.58,-131.39 25.12,-43.51 54.84,-91.62 89.14,-144.32 19.61,-30.62 44.42,-63.72 74.44,-99.25 30.02,-35.52 63.73,-69.52 101.1,-102.01 37.36,-32.46 77.49,-60.34 120.38,-83.62 42.9,-23.29 87.63,-38.61 134.17,-45.95 45.35,-6.12 89.47,-1.21 132.33,14.7 42.9,15.93 83.94,38.92 123.16,68.94 39.23,30.01 75.37004,64.92 108.47004,104.75 33.07,39.82 61.86,79.95 86.37,120.4 12.26,22.03 28.81,55.12 49.63,99.24 20.83,44.13 41.06,92.83 60.67,146.13 19.6,53.31 36.42,107.84998 50.54,163.58003 14.09,55.74 21.13,106.31 21.13,151.63 z"
     id="path1"
     style="fill:#000000" />
  <path
     fill="#dd0f77"
     d="m 2731.1466,426.54957 1,-1.21 25.56,-44.33 c 16.33,-25.35 20.95,-46.88 51.96,-47.71 35.41,16.62 3.11,99.35 -1.32,130.78 l -1.92,24.5 c -0.63,8.34 9.44,8.56 14.58,3.79 43.68,-47.67 83.13,-98.64 126.59,-146.14 26.81,-35.05 99.52,-128.39 117.68,-33.23 12.61,66.15 -4.26,126.35 -4.65,191.71 l -2.16,13.64 -2.3,16.42 c 33.79,-14.56 78.06,-42.64 113.87,-43.85 25.57,-0.84 37.21,11.74 44.54,33.69 3.1,9.35 6.42,22.16 -3.97,27.38 -0.51,0.29 -1.29,0.95 -1.7,0.53 -35.98,-37.83 -100.39,-27.53 -153.77,15.8 l -0.31,9.86 -1.12,12.17 c -26,148.56 -17.69,262.99 -94.26,391.56998 -19.44,25.36005 -34.17,17.72 -62.99,11.67 -20.79,-7.36 -22.95,-7.61 -34.36,-25.94 -6.86,-17.85998 -8.61,-26.39998 -8.71,-44.17998 -0.37,-82.96 29.24,-151.64 58.58,-223.29 14.73,-35.93 53.02,-80.49 78.01,-109.78 17.54,-52.46 12.04,-118.76 17,-175.27 -0.06,-17.03 3.86,-30.31 -0.66,-46.69 -45.65,56.31 -87.75,119.67 -154.1,159.07 -29.09,17.28 -65.29,40.85 -86.37,18.94 l -1.73,-2.34 c -1.51,-4.24 -5.67,-71.28 -16.82,-64.93 -2.53,0.08 -30.58,54.32 -72.18,58.56 l -2.5,12.6 c -13.53,62.59 -84.68,161.88 -149.19,79.93 l -15.56,-25.17 -2.35,-5.85 -1.01,-7.21 c -15.57,29.77 -52.98,89.73 -88.36,91.85 -37.86,-5.1 -42.49,-29.83 -53.73,-61.72 l -0.17,-0.46 -1.17,-7.04 -1.7,-11.43 -2.83,-1.5 -6.67,10.52 c -30.3,62.13 -71.48,123.37 -121.41,167.09 -31.48,27.6 -80.17,-2.01 -88.36,-45.53 -8.93,-25.75 6.14,-69.07 17.01,-97.72 15.62,-41.21 65.35,-103.9 97.4,-133.67 27.58,-25.65 48.21,-42.24 83.15,-23.3 10.85,5.86 12.08,19.66 20.7,28.63 l 9.99,-25.36 c 16.87,-42.89 55,-32.88 56.08,17.12 0.62,28.03 -10.26,51.2 -11.18,79.54 -2.89,12.87 0.9,26.42 5.52,38.93 4.13,11.2 10.76,5.09 16.32,-1.73 l 17.67,-27.24 c 11.39,-21.41 23.53,-43.23 37.31,-63.04 -2.94,-43.13 -15.28,-90.67 -4.15,-132.43 21.63,-124.06 58.07,-241.44 102.64,-358.109998 23.75,-62.16 79.3,-54.57 81.75,32.43 22.38,127.549998 -40.17,289.549998 -85.4,407.019998 -6.16,16.04 -11.2,12.17 -28.09,6.71 l -10.58,-3.62 1.2,11.43 c 4.15,49.04 15.61,90.53 39.83,133.01 15.65,-1.39 24.99,-27.17 28.38,-40.55 3.94,-15.61 4.19,-28.53 -14.48,-27.53 l -13.01,1.01 -2.56,-1.74 c -30.41,-47.72 61.46,-128 98.73,-86.02 l 10.73,-2.32 c 19.29,-8.72 22.36,-24.49 36.12,-38.71 z m 161.79,522.74 c 1.12,4.08 0.67,8.97 3.33,12.29 10.92,13.67998 24.84,-23.28 27.96,-42.43 19.41,-72.73 38.48,-149.38 55.19,-227.64 l -0.26,-11.72 6.54,-26.65 c -77.56,48.38 -102.01,214.57 -92.72,294.34 0.06,0.59 -0.04,1.2 -0.05,1.8 z m -349.64,-515.92 c 66.56,-84.41 105.29,-273.57 91.88,-374.829998 0.84,-8.1 -6.13,-13.89 -9.59,-2.09 -27.22,107.999998 -112.06,265.779998 -82.29,376.919998 z m -221.27,162.72 c 11.66,-17.25 21.96,-41.88 27.66,-62.4 -14.53,10.42 -31.66,15.25 -51.34,14.47 l -1.69,1.02 c -34.36,33.85 -132.1,111.14 -104.56,170.8 8.29,23.59 13.19,16.43 32.07,2.84 38.78,-40.87 66.26,-83.59 97.87,-126.74 z m -519.61,-293.42 c 206.31,-73.89 232.64,34.62 84.8,177.2 l 34.36,-2.27 32.6,0.17 c 58.99,3.3 137.62,8.69 158.89,77.07 21.99,141.9 -233.91,296 -312.06,337.7 -37.66,23.36 -103.66,44.9 -138.62,24.38 -15.37,-24.02 -8.91,-30.44 5.59,-55.18 29.78,-38.88 56.96,-72.91 92.42,-106.31 35.09,-35.93 65.51,-61.18 103.22,-98.71 l 37.05,-28.41 c 26.38,-24.15 41.31,-41.66 75.48,-22.94 l 6.88,9.67 0.8,5.82 c -6.61,35.9 -49.72,37.32 -81.33,51.43 -42.08,32.2 -88.71,63 -122.11,104.57 l -46.98,50.7 -5.89,9.75 -1.55,5.87 0.26,2.47 1.03,1.68 2.53,1.58 10.09,-0.6 c 71.23,-8.79 157.76,-69.4 209,-115.92 30.81,-27.97 60.51,-57.76 84.93,-94.06 17.04,-19.59 45.45,-57.28 38.83,-81.7 -2.49,-22.19 -36.23,-32.58 -56.07,-35.52 l -18.42,-0.7 -42.13,2.83 -66.53,13.26 c -40.5,5.74 -87.02,28.13 -117.22,24.99 l -1.87,-2.78 -0.11,-2 c -4.18,-40.09 12.76,-53.25 37.93,-76.56 l 32.47,-22.39 70.69,-69.88 c 26.67,-31.23 57.95,-65.84 -9.56,-69.23 -51.03,2.44 -101.42,23.22 -142.19,41.7 l -3.78,5.75 1.7,3.83 c 23.19,21.52 17.6,46.06 14.88,76 l -3.38,27.7 c -2.55,31.96 -6.43,64.09 -11.14,95.9 -2.37,47.41 -14.42,92.54 -11.22,140.24 l -4.24,38.93 c -1.65,17.3 -15.29,14.02 -26.61,8.27 -12.46,-10.65 -27.46,-20.64 -37.99,-33.2 l -2.16,-3.71 2.64,-34.89 2.29,-22.48 c 5.14,-36.73 38.99,-269.57 43.02,-273.26 2.19,-29.41 -161.92,81.58 -175.94,88.77 -14.73,20.92 -56.84,92.58 -59.39,18.99 11.58,-28.99 18.65,-38.54 45.28,-54.56 80.72,-55.94 173.99,-111.73 268.82,-139.93 z m 763.13,1332.05003 c -47.32,-11.49 -90.76,-32.25 -128.32,-63.36 -35.08,-29.09 -64.1,-63.77 -85.79,-103.86 -21.5,-39.73 -34.93,-82.6 -40.6,-127.42 -5.83,-46.02 -2.44,-91.71 10.27,-136.29 13.12,-46.08 35.84,-87.89 65.58,-125.29 33.6,-42.26 77.17,-74.15 125.26,-98.10005 29.44,-16.21 61.25,-26.44998 94.64,-30.79998 32.94,-4.27 66.11,-3.5 98.88,1.94 33.13,5.51 65.18,15.60998 95.64,29.76998 30.69,14.22 59.22,32.43005 84.85,54.52005 25.74,22.14 47.73,47.86 65.5,76.79 18.29,29.83 30.35,62.39 35.92,96.88 8.29,42.01 10.4,84.75 4.4,127.21 -5.59,39.87 -17.13,78.39 -35.17,114.45 -17.55,35.13 -40.39,66.84 -68.31,94.44 -27.23,26.89 -58.2,49.31 -92.52,66.28 -34.69,17.18 -71.73,27.9 -110.21,32.4 -40.43,4.69 -80.77,1.11 -120.01,-9.56 z m 368.33,-415.64 c 7.66,38.31 9.05,75.03 4.11,110.06 -4.92,35.04 -14.92,67.61 -29.98,97.74 -15.06,30.13 -34.37,56.8 -57.9,80.07 -23.55,23.27 -49.69,42.05 -78.44,56.25 -28.75,14.24 -59.55,23.26 -92.41,27.13 -32.86,3.8 -66.26,1.09 -100.2,-8.25 -41.06,-9.85 -76.78,-27.36 -107.16,-52.56 -30.39,-25.18 -54.63,-54.48 -72.69,-87.86 -18.06,-33.41 -29.58,-69.55 -34.49,-108.41 -4.95,-38.88 -2.05,-77.08 8.63,-114.58 10.69,-37.51 29.29,-72.94 55.84,-106.35 26.56,-33.41 62.56,-61.35 107.99,-83.79 23.54,-13.16 49.01,-21.5 76.38,-25.06 27.39,-3.53005 55.05,-3.02 82.96,1.66 27.92,4.64 55.18,13.15 81.74,25.45 26.55,12.33 50.63,27.79 72.25,46.4 21.63,18.63 39.83,39.98 54.61,64.08 14.8,24.08 24.36,50.11 28.75,78.02 z"
     id="path3"
     style="fill:#000000" />
  <path
     fill="#dd0f77"
     d="m 2361.2866,1213.9896 c -1.68,24.94 -5.18,50.47 -12.53,74.4 -7.06,23.14 -18.19,44.57 -33.83,63.08 -15.8,18.71 -35.46,33.44 -57.04,44.92 -22.76,12.12 -47.41,21.59 -71.91,29.59 l -1.2,0.37 -1.19,0.35 c -20.17,5.56 -40.86,9.57 -61.53,12.78 -5.49,0.87 -11,1.68 -16.52,2.37 2.88,13.5 4.77,27.21 5.68,40.96 1.11,16.52 0.25,33.09 -2.93,49.33 -3.62,18.56 -10.91,35.92 -21.93,51.3 -10.85,15.08 -25.16,26.57 -41.53,34.78 -6.04,4.32 -12.87,7.75 -20.18,10.54 -9.78,3.75 -20.07,6.47 -30.26,8.79 -12.44,2.84 -25.11,4.96 -37.77,6.63 -15.03,2.01 -30.21,2.92 -45.37,2.92 -16.5,0 -32.92,-1.79 -49,-5.44 -18.2,-4.12 -35.39,-11.38 -50.95,-21.73 -17.37,-11.6 -31.22,-27.03 -41.28,-45.31 -10.93,-19.84 -15.67,-42.06 -16.51,-64.52 -1.31,-20.46 -2.59,-40.96 -3.68,-61.42 -0.68,-12.41 -1.31,-24.88 -1.71,-37.34 -0.18,-5.78 -0.34,-11.61 -0.72,-17.37 -0.34,-4.89 -0.53,-9.79 -0.53,-14.7 v -149.48 c 0,-17.09 0.88,-34.39 3.55,-51.24 2.51,-15.79 6.66,-31.23 12.48,-46.14 6.48,-16.6 15.01,-32.83 23.77,-48.32 13.79,-24.75 31.48,-46.77 53.32,-64.87 20.83,-17.31 44.17,-30.86005 69.45,-40.55005 24.74,-9.49 50.54,-15.78998 76.75,-19.50998 26.33,-3.7 52.88,-5.46 79.45,-5.46 37.13,0 74.01,4.52 109.86,14.21998 35.11,9.49 68.27,24.44 97.5,46.22005 29.42,21.87 52.43,49.64 68.54,82.54 17.93,36.68 22.89,76.99 19.75,117.34 z m -54.17,-3.93 c -1.66,24.64 -5.06,45.44 -10.28,62.4 -5.2,16.99 -13.01,31.65 -23.41,43.95 -10.42,12.33 -24.07,22.98 -41.07,32.05 -16.97,9.03 -38.04,17.66 -63.23,25.85 -15.87,4.4 -34.35,8.23 -55.43,11.51 a 616.572,616.572 0 0 1 -63.65,6.57 c -3.83,8.21 -5.21,16.28 -4.12,24.22 1.11,7.95 3.02,19.03 5.76,33.26 2.74,12.05 4.52,24.22 5.33,36.55 0.83,12.32 0.14,24.09 -2.05,35.3 -2.19,11.24 -6.44,21.22 -12.73,29.99 -6.3,8.79 -15.47,15.63 -27.52,20.53 -0.55,1.64 -3.69,3.56 -9.44,5.75 -5.75,2.19 -13.42,4.39 -23,6.57 -9.6,2.19 -20.54,4.12 -32.85,5.76 -12.32,1.63 -25.05,2.44 -38.19,2.44 -12.59,0 -24.92,-1.35 -36.96,-4.08 -12.04,-2.77 -22.98,-7.41 -32.84,-13.97 -9.88,-6.59 -17.79,-15.33 -23.83,-26.28 -6,-10.96 -9.32,-24.68 -9.85,-41.09 -1.65,-25.73 -2.88,-46.27 -3.69,-61.61 -0.83,-15.3 -1.36,-27.36 -1.64,-36.12 -0.28,-8.78 -0.55,-15.18 -0.83,-19.3 -0.27,-4.11 -0.41,-7.8 -0.41,-11.08 v -149.48 c 0,-16.45 0.96,-30.67 2.88,-42.71 1.9,-12.05 5.06,-23.7 9.44,-34.91 4.38,-11.24 11.24,-25.06 20.54,-41.47 10.95,-19.72 24.49,-36.29 40.64,-49.72 16.16,-13.39 34.23,-23.92 54.2,-31.61 19.99,-7.66 41.62,-13.13 64.89,-16.43 23.26,-3.28 47.22,-4.92 71.85,-4.92 33.4,0 65.31,4.12 95.69,12.34 30.39,8.2 56.79,20.64 79.26,37.34 22.42,16.71 39.83,37.64 52.14,62.84 12.33,25.21 17.11,55.04 14.39,89.53 z"
     id="path4"
     style="fill:#000000" />
  <path
     fill="#e5097f"
     d="m 831.52656,807.03957 c -16.01,-92.45 -61.34,-137.77 -135.99,-136.01 -21.34,0 -42.22,6.22 -62.67,18.69 -20.44,12.42 -36.88,28.86 -49.32,49.32 -12.45,20.45 -20.89,42.67 -25.35,66.68 -4.42,23.96 -1.34,48.4 9.33,73.31 16.02,40.85 34.23,69.3 54.68,85.31998 20.45,16 40,24.9 58.66,26.66 18.67,1.79 35.56,-0.44 50.67,-6.67 15.1,-6.21 25.33,-11.12 30.66,-14.65 30.22,-21.34998 50.67,-46.67998 61.35,-75.99998 10.65,-29.35 13.31,-58.22 7.98,-86.65 z m -57.31,10.21 c -9.28,-53.58 -35.55,-79.85 -78.82,-78.82 -12.36,0 -24.46,3.62 -36.32,10.83 -11.84,7.21 -21.37,16.75 -28.57,28.59 -7.21,11.84 -12.11,24.74 -14.69,38.64 -2.56,13.88 -0.77,28.06 5.42,42.47 9.27,23.69 19.82,40.18 31.65,49.44 11.87,9.27 23.18,14.42 34.01,15.46 10.83,1.03 20.59,-0.27 29.36,-3.85 8.77,-3.61 14.68,-6.45 17.77,-8.51 17.51,-12.36 29.36,-27.06 35.53,-44.06 6.17,-16.99 7.73,-33.71 4.65,-50.19 z m 535.17004,146.68998 c 14.09,-1.92998 28.34,-2.71998 42.54,-1.98998 17.94,0.97 35.21,5.55998 51.18,13.77998 15.68,8.06 29.36,19.25 41.2,32.27005 12.77,14.05 23.13,30.46 31.85,47.27 l 0.37,0.73 c 1.05,2.09 1.96,4.23 2.81,6.39 5.02,-5.91 10.11,-11.74 15.27,-17.48 17.84,-19.97 37.54,-38.29 59.31,-53.91005 25.69,-18.45 54.95,-29.10998 86.74,-29.10998 40.3,0 78.13,11.67998 108.66,38.67003 31.62,27.95 46.68,65.65 46.68,107.64 v 1.83 l -0.13,1.86 c -1.9,27.97 -7.55,55.73 -18.71,81.52 -9.92,22.9 -22.98,44.11 -39.5,62.83 -5.84,6.6 -12,12.84 -18.5,18.68 8.08,8.03 15.62,16.64 22.59,25.79 15.03,19.7 27.55,41.13 37.42,63.84 8.77,20.16 16.16,41.22 20.59,62.69 5.69,27 6.35,54.47 0.22,81.5 -5.9,25.97 -17.34,49.75 -34.67,70.03 -17.09,20.02 -38.42,35.08 -62.61,45.45 -26.3,11.3 -54.71,15.13 -83.18,13.79 -25.65,-0.91 -50.02,-8.29 -72.52,-20.47 -20.52,-11.13 -39.39,-24.87 -56.53,-40.7 -4.3,-3.94 -8.5,-8.03 -12.59,-12.21 -14.52,20.24 -32.54,37.4 -54,50.82 -28.29,17.67 -59.93,26.89 -93.19,28.69 -37.75,2.06 -73.37,-8.41 -105.63,-27.77 l -1.16,-0.69 -1.1,-0.72 c -10.38,-6.96 -19.47,-18.94 -27.22,-28.75 -13.07,-16.57 -22.32,-35.56 -28.72,-55.44 -11.13,-33.99 -18.46,-68.96 -22.1,-104.49 a 1086.25,1086.25 0 0 1 -5.62,-101.18 c -0.28,-32.98 0.42,-66.02 2.12,-98.95 1.57,-30.06 2.66,-60.12 3.21,-90.21 l 0.04,-0.44 v -0.48 c 0.71,-19.84 3.92,-39.42 9.75,-58.39 7.09,-22.98 19.54,-43.22 36.51,-60.22 16.42,-16.41005 35.4,-30.25005 57.18,-38.60005 19.52,-7.47 40.73,-11.49 61.46,-13.86 z m 432.26,144.26005 c -1.64,24.08 -6.42,45.33 -14.35,63.66 -7.94,18.34 -18.08,34.49 -30.4,48.45 -12.34,13.95 -26.43,25.45 -42.31,34.48 -15.88,9.06 -32.3,16.02 -49.28,20.97 18.08,0.55 35.04,6.3 50.94,17.25 15.87,10.94 29.95,24.5 42.29,40.63 12.32,16.15 22.57,33.67 30.81,52.56 8.21,18.89 13.94,36.26 17.25,52.16 4.35,20.82 4.49,40.23 0.4,58.32 -4.11,18.06 -11.78,33.67 -23,46.8 -11.23,13.14 -25.46,23.41 -42.71,30.8 -17.25,7.39 -37.09,10.54 -59.54,9.45 -16.44,-0.55 -32.72,-5.2 -48.88,-13.97 -16.16,-8.73 -31.34,-19.68 -45.58,-32.83 -14.24,-13.17 -27.23,-27.65 -39.01,-43.54 -11.77,-15.88 -21.5,-31.22 -29.17,-46.01 1.11,26.32 -4.37,50.11 -16.42,71.47 -12.04,21.34 -27.92,38.18 -47.63,50.52 -19.71,12.3 -42.17,19.14 -67.34,20.51 -25.2,1.38 -50.11,-5.33 -74.75,-20.13 -1.63,-1.08 -6.58,-6.83 -14.8,-17.22 -8.2,-10.4 -14.77,-23.28 -19.69,-38.59 -9.85,-30.13 -16.44,-61.21 -19.72,-93.26 -3.28,-32 -5.06,-64.06 -5.33,-96.09 -0.28,-32.02 0.41,-63.9 2.05,-95.67 1.66,-31.77 2.75,-62.44 3.28,-91.99 0.55,-15.34 3.01,-30.13 7.39,-44.36 4.38,-14.23 12.04,-26.82 22.99,-37.76 12.6,-12.61 25.34,-21.36 38.18,-26.3 12.88,-4.91 29.17,-8.5 48.89,-10.68 11.5,-1.63 22.44,-2.18 32.84,-1.63 10.41,0.54 20.11,3.15 29.16,7.79 9.04,4.63 17.65,11.5 25.88,20.53 8.22,9.02 16.14,20.94 23.82,35.71 1.64,3.31 3.14,8.77 4.49,16.45 1.38,7.66 2.9,16.41 4.54,26.26 1.62,9.87 3.14,20.39 4.51,31.64 1.36,11.22 2.86,22.03 4.5,32.45 13.7,-13.72 27.93,-30.26 42.72,-49.68 14.77,-19.47 30.25,-38.19 46.41,-56.27 16.15,-18.09 32.99,-33.41 50.51,-46 17.51,-12.59 35.85,-18.88 55.03,-18.88 29.56,0 53.79,8.35 72.66,25.05 18.89,16.71 28.34,38.99 28.34,66.93 z"
     id="path5"
     style="fill:#000000" />
  <path
     fill="#e5097f"
     d="m 2131.9466,1212.4796 c 0,-8.17 -2.05,-16.84 -6.14,-25.91 -4.08,-9.12 -9.56,-17.54 -16.37,-25.25 -6.82,-7.74 -14.8,-14.35 -23.89,-19.82 -9.09,-5.46 -18.64,-8.17 -28.67,-8.17 -50.95,0 -76.41,25.03 -76.41,75.07 0,47.3 17.28,70.94 51.85,70.94 8.21,0 17.74,-0.43 28.67,-1.34 10.92,-0.92 21.38,-3.63 31.4,-8.2 10,-4.55 18.64,-11.16 25.91,-19.8 7.29,-8.63 11.84,-21.14 13.66,-37.52 z m -45.43,-3.68 c 0,-3.28 -0.82,-6.74 -2.47,-10.37 a 40.372,40.372 0 0 0 -16.1,-18.04 c -3.64,-2.17 -7.46,-3.25 -11.48,-3.25 -20.39,0 -30.58,9.99 -30.58,30.01 0,18.94 6.91,28.41 20.74,28.41 3.27,0 7.09,-0.16 11.48,-0.53 4.37,-0.38 8.55,-1.47 12.56,-3.29 4.01,-1.82 7.47,-4.44 10.38,-7.9 2.92,-3.47 4.74,-8.47 5.47,-15.03 z m 871.71,-36.22 c 0.55,-10.99 1.56,-21.71 3.03,-32.17 l 1.89,-19.92 1.57,0.07 c 18.49,-88.95 74.55,-151.83005 179.23,-154.54005 51.37,-1.37 100.38,13.07 136.45,50.89005 38.89,40.77 47.35,97.98 44.17,152.11 -0.03,8.49 -0.18,17.27 -1.31,25.63 -0.8,5.93 -1.75,11.85 -2.79,17.72 -1.14,6.58 -1.4,14.35 -1.71,21.05 -0.71,16.05 -0.77,32.32 -0.77,48.47 0.35,1.69 0.68,3.4 1.04,5.14 11.65,0.74 23.32,1.64 34.91,2.85 9.54,1.02 19.6,2.16 28.94,4.45 24.53,5.57 46.3,17.46 63.85,35.49 15.32,15.74 27.07,34.17 35.26,54.52 8.04,19.95 12.7,40.92 14.46,62.31 1.77,21.48 0.57,42.99 -3.84,64.08 -4.48,21.25 -12.31,41.47 -23.51,60.04 -12.59,20.82 -29.76,37.7 -51.21,49.13 -17.73,10 -37.09,16.23 -57.15,19.5 -18.22,2.96 -36.64,4.71 -55.07,5.56 -19.73,0.95 -39.47,1.31 -59.24,1.31 -19.15,0 -38.33,0.83 -57.46,2.32 -34.35,2.6 -71.51,2.62 -105.15,-5.46 -27.94,-6.75 -54.82,-18.2 -76.84,-37.02 -20.4,-17.5 -35.57,-39.21 -44.33,-64.63 -7.29,-21.11 -11.38,-43.08 -12.73,-65.34 -1.24,-20.59 -1.2,-41.28 -0.02,-61.86 0.99,-16.88 1.56,-33.77 1.56,-50.65 0,-8.54 -0.16,-17.07 -0.4,-25.61 -0.34,-12.77 -0.25,-25.54 0,-38.3 0.35,-17.24 0.95,-34.49 1.67,-51.72 1.05,-25.13 3.13,-50.36 5.5,-75.43 z m 226.59,421.86 c 21.36,-1.67 41.9,-2.48 61.6,-2.48 20.26,0 39.14,-0.43 56.68,-1.23 17.51,-0.83 33.8,-2.47 48.86,-4.93 15.05,-2.47 28.35,-6.96 39.84,-13.56 12.59,-6.54 22.84,-16.41 30.79,-29.55 7.94,-13.17 13.56,-27.53 16.84,-43.15 3.28,-15.59 4.24,-31.74 2.86,-48.44 -1.35,-16.71 -4.9,-32.17 -10.67,-46.41 -5.74,-14.25 -13.68,-26.54 -23.81,-36.94 -10.13,-10.42 -22.59,-17.25 -37.37,-20.56 -4.38,-1.09 -11.78,-2.19 -22.18,-3.28 -10.41,-1.09 -24.35,-2.18 -41.89,-3.26 -9.3,-3.3 -16.41,-5.75 -21.35,-7.39 -4.92,-1.64 -8.62,-4.11 -11.09,-7.4 -2.46,-3.28 -4.23,-7.8 -5.33,-13.53 -1.09,-5.76 -2.73,-14.11 -4.93,-25.06 0,-25.21 0.29,-43.96 0.84,-56.27 0.54,-12.32 1.36,-21.64 2.45,-27.93 1.1,-6.29 1.9,-11.51 2.46,-15.59 0.55,-4.1 0.82,-10.83 0.82,-20.14 3.28,-51.46 -6.43,-89.1 -29.17,-112.92 -22.7,-23.82 -54.59,-35.17 -95.66,-34.07 -84.33,2.18 -128.68,54.73 -133.06,157.67 v -0.8 c -2.73,29.01 -4.51,53.37 -5.34,73.09 -0.82,19.71 -1.38,36.55 -1.62,50.52 -0.29,13.94 -0.29,25.84 0,35.71 0.24,9.86 0.4,18.87 0.4,27.11 0,16.96 -0.55,34.9 -1.66,53.79 -1.08,18.89 -1.08,37.35 0,55.43 1.11,18.09 4.4,35.03 9.87,50.9 5.47,15.9 14.92,29.58 28.35,41.09 13.41,11.5 31.48,19.97 54.19,25.48 22.72,5.44 52.14,6.82 88.28,4.11 z"
     id="path7"
     style="fill:#000000" />
  <path
     fill="#e5097f"
     d="m 2766.8366,1278.5296 v 3.77 c 0,-17.66 -4.63,-33.02 -13.9,-46.05 -9.28,-13.06 -20.19,-23.77 -32.82,-32.2 -12.61,-8.42 -25.87,-14.08 -39.75,-17.03 -13.87,-2.93 -25.44,-3.15 -34.69,-0.63 -19.35,-0.84 -36.81,4.21 -52.38,15.14 -15.57,10.95 -27.35,24.85 -35.34,41.67 -8,16.82 -11.35,35.33 -10.07,55.5 1.24,20.2 8.61,39.14 22.06,56.82 4.2,10.1 11.35,18.5 21.45,25.24 10.1,6.71 21.44,11.33 34.07,13.87 12.63,2.52 25.66,3.14 39.13,1.87 13.46,-1.22 26.08,-4.41 37.85,-9.46 26.09,-10.95 42.9,-24.37 50.48,-40.35 7.58,-16 12.2,-38.72 13.9,-68.16 z m -53.32,6.01 v 1.94 c 0,-9.09 -2.36,-16.96 -7.13,-23.67 -4.74,-6.68 -10.36,-12.22 -16.83,-16.52 -6.49,-4.33 -13.31,-7.25 -20.44,-8.76 -7.13,-1.51 -13.08,-1.63 -17.82,-0.32 -9.95,-0.41 -18.92,2.14 -26.92,7.76 -7.98,5.61 -14.04,12.76 -18.15,21.4 -4.1,8.66 -5.84,18.16 -5.19,28.53 0.66,10.39 4.44,20.12 11.36,29.19 2.15,5.17 5.82,9.52 11.04,12.97 5.18,3.44 11.02,5.81 17.48,7.14 6.48,1.28 13.2,1.62 20.1,0.96 6.92,-0.66 13.41,-2.29 19.46,-4.88 13.39,-5.62 22.03,-12.54 25.92,-20.72 3.89,-8.22 6.29,-19.9 7.13,-35.02 z"
     id="path9"
     style="fill:#000000" />
</svg>
