<svg id="AKPOLBABY" width="500" height="230.17189" viewBox="0 0 500 230.17189" version="1.1" xml:space="preserve" xmlns:xlink="http://www.w3.org/1999/xlink" xmlns="http://www.w3.org/2000/svg" xmlns:svg="http://www.w3.org/2000/svg">
	<path id="A" style="fill:#000000;stroke:#000000;stroke-width:0" d="m 183.95218,169.61859 c 0,5.64973 -0.13256,11.38879 -0.3948,17.21574 -0.26801,5.8284 -1.1945,11.29945 -2.78236,16.42325 -1.5893,5.11948 -4.06042,9.66404 -7.41769,13.63801 -3.35151,3.97542 -8.11941,7.01857 -14.30082,9.13668 -4.06187,1.41351 -8.56176,2.206 -13.50689,2.38323 -4.9437,0.17435 -9.79949,-0.13112 -14.56739,-0.92649 -4.76502,-0.79105 -9.09345,-2.11811 -12.97664,-3.97397 -3.88608,-1.85155 -6.70734,-4.10077 -8.47387,-6.75057 -1.41351,-2.1181 -2.60513,-5.56327 -3.57485,-10.33117 -0.97115,-4.76646 -2.07632,-10.50552 -3.3126,-17.21141 -0.88038,-4.2391 -2.33712,-7.68282 -4.370215,-10.33118 -2.028771,-2.64979 -4.279439,-3.96964 -6.752004,-3.96964 -2.119548,0 -4.148319,1.14262 -6.092078,3.43796 -1.943759,2.29965 -3.089265,4.23909 -3.443724,5.82839 -0.530247,2.46824 -0.969718,5.91341 -1.324177,10.32541 -0.351576,4.4192 -1.501406,9.09345 -3.442283,14.03714 -3.886077,10.0646 -10.283622,16.55581 -19.202724,19.46784 -8.914778,2.91492 -19.462083,2.8717 -31.647679,-0.13112 -7.414813,-1.76797 -13.37577,-5.51572 -17.8771065,-11.25478 -4.5013364,-5.73906 -7.1050222,-13.99535 -7.81249856,-24.76599 -0.3515768,-5.12236 -0.5734737,-9.84127 -0.6613679,-14.17258 -0.086453,-4.32555 0.1311209,-8.73899 0.6613679,-13.23889 0.53024696,-4.50422 1.45673846,-9.36001 2.78091516,-14.56883 1.3270586,-5.20592 3.2203862,-11.25766 5.6943922,-18.14222 2.2938947,-6.35432 5.2505987,-12.66397 8.8729927,-18.93184 3.619513,-6.26931 7.901834,-13.201426 12.844082,-20.794909 2.825583,-4.412002 6.400428,-9.181343 10.725976,-14.300821 4.325548,-5.118037 9.182783,-10.017058 14.567384,-14.698506 5.383161,-4.677124 11.165447,-8.694322 17.345419,-12.048712 6.181412,-3.35583 12.626508,-5.563272 19.332404,-6.620884 6.53443,-0.881824 12.891634,-0.174348 19.067284,2.118106 6.18141,2.295336 12.09482,5.607939 17.74598,9.933489 5.65261,4.324107 10.85998,9.354249 15.62932,15.093309 4.76502,5.737619 8.91334,11.519905 12.44496,17.3483 1.76653,3.174278 4.1512,7.942178 7.15113,14.299378 3.00137,6.35865 5.91629,13.37578 8.74187,21.05571 2.82414,7.68138 5.24772,15.53999 7.28225,23.57006 2.03021,8.03151 3.0446,15.31808 3.0446,21.84819 z m -77.86274,-51.64288 c -1.58786,-9.18135 -6.093523,-13.68125 -13.506895,-13.5069 -2.120988,0 -4.194427,0.61958 -6.22608,1.85587 -2.030213,1.23484 -3.66418,2.86881 -4.900463,4.89758 -1.234842,2.03021 -2.073439,4.23621 -2.51291,6.62232 -0.443794,2.38035 -0.135443,4.80825 0.925051,7.27937 1.587859,4.06331 3.400497,6.89033 5.429268,8.47675 2.030213,1.5893 3.973971,2.47545 5.826954,2.6498 1.852983,0.17434 3.528737,-0.0418 5.030143,-0.66281 1.499965,-0.61814 2.517232,-1.10228 3.044598,-1.4553 3.004254,-2.11811 5.033024,-4.63678 6.092074,-7.5517 1.0605,-2.91203 1.32706,-5.7794 0.79537,-8.60498 z" />
	<path id="K" style="fill:#000000;stroke:#000000;stroke-width:0" d="m 265.76738,154.67178 c -0.2363,3.46966 -0.92505,6.53155 -2.06767,9.1727 -1.14407,2.64259 -2.60513,4.96962 -4.3803,6.9811 -1.77806,2.01004 -3.80827,3.66707 -6.0964,4.96819 -2.28813,1.30544 -4.65407,2.3083 -7.1007,3.02154 2.60512,0.0793 5.04887,0.90776 7.33988,2.48553 2.28669,1.57634 4.31547,3.53018 6.09352,5.85434 1.77518,2.32703 3.25209,4.85147 4.43938,7.57331 1.18297,2.72184 2.0086,5.22466 2.48553,7.51567 0.62679,2.99993 0.64696,5.7967 0.0576,8.40327 -0.59221,2.60224 -1.69737,4.85147 -3.31404,6.74335 -1.61812,1.89333 -3.66851,3.37312 -6.15404,4.43794 -2.48553,1.06482 -5.34426,1.5187 -8.57905,1.36164 -2.36882,-0.0793 -4.71459,-0.74926 -7.04307,-2.01292 -2.32847,-1.2579 -4.51574,-2.83567 -6.56757,-4.73044 -2.05182,-1.89765 -3.92354,-3.98405 -5.6209,-6.27363 -1.69593,-2.28813 -3.09791,-4.49845 -4.20308,-6.62953 0.15994,3.79242 -0.62966,7.2203 -2.36594,10.29804 -1.73483,3.07485 -4.02296,5.50131 -6.86295,7.27937 -2.83999,1.77229 -6.07623,2.75786 -9.70294,2.95526 -3.63104,0.19884 -7.2203,-0.768 -10.77065,-2.90051 -0.23486,-0.15562 -0.9481,-0.98413 -2.13251,-2.48121 -1.18153,-1.49853 -2.12819,-3.35439 -2.83711,-5.56039 -1.41928,-4.3414 -2.36882,-8.81968 -2.84143,-13.43773 -0.47262,-4.61084 -0.72909,-9.23033 -0.768,-13.8455 -0.0403,-4.61372 0.0591,-9.20728 0.29538,-13.78498 0.23919,-4.5777 0.39625,-8.99691 0.47262,-13.25474 0.0793,-2.21032 0.4337,-4.34139 1.06481,-6.39178 0.63111,-2.05038 1.73483,-3.86446 3.31261,-5.44079 1.81552,-1.81696 3.65121,-3.07774 5.50131,-3.78954 1.85586,-0.70747 4.20307,-1.22475 7.0445,-1.53887 1.65703,-0.23486 3.23336,-0.31411 4.73188,-0.23486 1.49997,0.0778 2.89763,0.45388 4.20163,1.12245 1.30257,0.66713 2.54317,1.65702 3.72902,2.95814 1.18441,1.29968 2.3256,3.01722 3.4322,5.14542 0.23631,0.47693 0.45244,1.26365 0.64696,2.37026 0.19884,1.10372 0.41786,2.3645 0.65416,3.78377 0.23343,1.42216 0.45244,2.93797 0.64984,4.55897 0.19597,1.61668 0.4121,3.17428 0.6484,4.67569 1.97402,-1.9769 4.02441,-4.36013 6.15548,-7.15834 2.12819,-2.80541 4.35869,-5.50275 6.68717,-8.10788 2.32703,-2.60657 4.75349,-4.81401 7.27792,-6.62808 2.523,-1.81408 5.16559,-2.7204 7.92921,-2.7204 4.25927,0 7.75055,1.20314 10.4695,3.60942 2.72184,2.40773 4.08348,5.61803 4.08348,9.64387 z" />
	<path id="P" style="fill:#000000;stroke:#000000;stroke-width:0" d="m 347.24244,169.34723 c -0.23919,3.55035 -0.72909,6.5474 -1.48124,8.99115 -0.74926,2.44807 -1.87459,4.56041 -3.37312,6.3327 -1.5014,1.77662 -3.46822,3.31117 -5.91773,4.61805 -2.44519,1.30112 -5.48114,2.54461 -9.11074,3.7247 -2.28669,0.63399 -4.94945,1.18585 -7.98684,1.65846 a 88.841163,88.841163 0 0 1 -9.17126,0.94667 c -0.55186,1.18297 -0.7507,2.34576 -0.59365,3.48983 0.15994,1.14551 0.43515,2.74201 0.82996,4.79239 0.3948,1.73628 0.65128,3.48984 0.76799,5.26645 0.11959,1.77518 0.0202,3.4711 -0.29538,5.08634 -0.31556,1.61956 -0.92794,3.05757 -1.83425,4.32123 -0.90776,1.26654 -2.22906,2.2521 -3.96533,2.95814 -0.0793,0.23631 -0.53169,0.51296 -1.3602,0.82851 -0.82851,0.31556 -1.93367,0.63255 -3.31404,0.94666 -1.38326,0.31556 -2.95959,0.59365 -4.73332,0.82996 -1.77518,0.23486 -3.60943,0.35157 -5.50276,0.35157 -1.81408,0 -3.59069,-0.19452 -5.32552,-0.58788 -1.73483,-0.39913 -3.31116,-1.0677 -4.73188,-2.01292 -1.4236,-0.94955 -2.56334,-2.20888 -3.43364,-3.78666 -0.86453,-1.57921 -1.34291,-3.55611 -1.41927,-5.92061 -0.23775,-3.7074 -0.41498,-6.66699 -0.53169,-8.87731 -0.11959,-2.20456 -0.19596,-3.94228 -0.23631,-5.20449 -0.0403,-1.2651 -0.0793,-2.18727 -0.11959,-2.78092 -0.0389,-0.5922 -0.0591,-1.12389 -0.0591,-1.5965 v -21.53841 c 0,-2.37026 0.13833,-4.4192 0.41498,-6.15403 0.27377,-1.73627 0.72909,-3.41491 1.3602,-5.03015 0.63111,-1.61955 1.61956,-3.61086 2.95958,-5.97536 1.57778,-2.84143 3.52874,-5.22899 5.85578,-7.1641 2.32847,-1.92935 4.93216,-3.4466 7.80961,-4.55465 2.88034,-1.10372 5.99698,-1.89188 9.34993,-2.36738 3.35151,-0.47261 6.80388,-0.70891 10.35278,-0.70891 4.81257,0 9.41045,0.59364 13.78787,1.77805 4.37886,1.18153 8.18281,2.97399 11.42048,5.38028 3.23047,2.40772 5.73906,5.4235 7.5128,9.05454 1.77661,3.63248 2.46536,7.93065 2.07343,12.90028 z m -29.58721,0 c 0,-0.7118 -0.17579,-1.46394 -0.53169,-2.25067 -0.35446,-0.7896 -0.82851,-1.51581 -1.41928,-2.18726 -0.5922,-0.67146 -1.28383,-1.24637 -2.07344,-1.71899 -0.78672,-0.47117 -1.61667,-0.70747 -2.48409,-0.70747 -4.4192,0 -6.62664,2.16854 -6.62664,6.50705 0,4.10509 1.49852,6.15692 4.49845,6.15692 0.70748,0 1.53599,-0.0418 2.48265,-0.11959 0.94522,-0.0793 1.85442,-0.31556 2.72472,-0.70892 0.86309,-0.39336 1.6138,-0.96684 2.24635,-1.71898 0.62967,-0.74926 1.02303,-1.82993 1.18297,-3.25065 z" />
	<path id="O" style="fill:#000000;stroke:#000000;stroke-width:0" d="m 431.14227,171.9305 c 1.10372,5.52005 1.30401,10.81099 0.59221,15.85842 -0.70892,5.04888 -2.14981,9.74185 -4.31979,14.08325 -2.16997,4.3414 -4.95233,8.18425 -8.34274,11.53719 -3.39329,3.35295 -7.15978,6.05894 -11.30233,8.105 -4.14256,2.05183 -8.5805,3.35151 -13.31526,3.90913 -4.73476,0.54754 -9.54732,0.15706 -14.4377,-1.18873 -5.91629,-1.41927 -11.06314,-3.94227 -15.44056,-7.57331 -4.37886,-3.62816 -7.87158,-7.84996 -10.47382,-12.65965 -2.60225,-4.81401 -4.26215,-10.02138 -4.96963,-15.62067 -0.71324,-5.60218 -0.29538,-11.10637 1.24349,-16.50971 1.54031,-5.40477 4.22036,-10.50984 8.04592,-15.32385 3.827,-4.81401 9.0142,-8.83985 15.56016,-12.0732 3.39185,-1.89621 7.06179,-3.09791 11.00551,-3.61087 3.94659,-0.50863 7.93209,-0.43515 11.95361,0.23919 4.02296,0.66857 7.95082,1.89477 11.77782,3.66706 3.82556,1.77661 7.29522,4.00423 10.41042,6.68572 3.11665,2.68438 5.73906,5.76068 7.8687,9.23322 2.13251,3.46966 3.51,7.22029 4.14255,11.24181 z m -29.58577,7.92633 v 0.3559 c 0,-1.65846 -0.43082,-3.09503 -1.30256,-4.31834 -0.86597,-1.2262 -1.89189,-2.2305 -3.0763,-3.01723 -1.18297,-0.7896 -2.42501,-1.32417 -3.72613,-1.59938 -1.30401,-0.27233 -2.38612,-0.29394 -3.25641,-0.0576 -1.81552,-0.0778 -3.44949,0.39481 -4.91055,1.41928 -1.45962,1.02447 -2.56478,2.32703 -3.31405,3.90625 -0.74782,1.57777 -1.06337,3.31116 -0.94234,5.20881 0.11672,1.89333 0.80402,3.66706 2.06768,5.32264 0.39336,0.94667 1.06482,1.73483 2.01292,2.36882 0.94522,0.62679 2.01292,1.06338 3.19445,1.29969 1.18441,0.23774 2.40628,0.29538 3.66994,0.17578 1.2651,-0.11383 2.44375,-0.41065 3.55179,-0.88326 2.44519,-1.02591 4.02297,-2.29101 4.73188,-3.78954 0.70892,-1.49996 1.14263,-3.6296 1.30257,-6.39178 z" />
	<path id="L" style="fill:#000000;stroke:#000000;stroke-width:0" d="m 462.8124,222.16926 c 3.07774,-0.24063 6.03877,-0.35734 8.87732,-0.35734 2.9178,0 5.64108,-0.062 8.16551,-0.17723 2.523,-0.11959 4.87165,-0.3559 7.04163,-0.71036 2.16997,-0.3559 4.08347,-1.00286 5.73906,-1.95384 1.81407,-0.94234 3.29099,-2.3645 4.43793,-4.25783 1.14263,-1.89765 1.95241,-3.96676 2.42502,-6.21743 0.47261,-2.24635 0.61094,-4.57338 0.41497,-6.97967 -0.1974,-2.40772 -0.70891,-4.63534 -1.54031,-6.68716 -0.82707,-2.05327 -1.97113,-3.82412 -3.43075,-5.32264 -1.45962,-1.50141 -3.25497,-2.48554 -5.3846,-2.96247 -0.63111,-0.15706 -1.69737,-0.31556 -3.19589,-0.47261 -1.49709,-0.15706 -3.50857,-0.31412 -6.03589,-0.46973 -1.34002,-0.4755 -2.36449,-0.82851 -3.07629,-1.06482 -0.70604,-0.23631 -1.24061,-0.59221 -1.59795,-1.06626 -0.35446,-0.47261 -0.6095,-1.12389 -0.76655,-1.94952 -0.1585,-0.82995 -0.39481,-2.03309 -0.7118,-3.61087 0,-3.63248 0.0418,-6.33414 0.12103,-8.10788 0.0778,-1.77517 0.19596,-3.11808 0.35302,-4.0244 0.1585,-0.90632 0.27665,-1.65846 0.3559,-2.24635 0.0793,-0.59076 0.11671,-1.56048 0.11671,-2.90195 0.47261,-7.41481 -0.92505,-12.83831 -4.20307,-16.27051 -3.27082,-3.43219 -7.86437,-5.0676 -13.78354,-4.90911 -12.14957,0.31412 -18.54136,7.88599 -19.17247,22.71849 v -0.11527 c -0.39336,4.18002 -0.64984,7.69003 -0.76943,10.53146 -0.11671,2.83999 -0.19884,5.26645 -0.23342,7.27937 -0.0418,2.0086 -0.0418,3.72325 0,5.14541 0.0346,1.42072 0.0576,2.71896 0.0576,3.90625 0,2.44375 -0.0793,5.0287 -0.2363,7.75054 -0.1585,2.72184 -0.1585,5.38172 0,7.98685 0.15705,2.60656 0.6311,5.04743 1.41927,7.33412 0.78961,2.29101 2.14981,4.26215 4.08492,5.92061 1.93223,1.65702 4.53592,2.87746 7.80818,3.67139 3.2737,0.78384 7.51567,0.98268 12.72016,0.5922 z" />
	<path id="BABY" style="fill:#000000;stroke:#000000;stroke-width:0" d="m 401.29006,62.223279 0.14408,-0.174347 3.68292,-6.38746 c 2.35297,-3.65266 3.01866,-6.754893 7.48685,-6.874487 5.10219,2.394757 0.44812,14.315237 -0.19019,18.84395 l -0.27665,3.530177 c -0.0908,1.201701 1.36019,1.233401 2.10081,0.546097 6.2938,-6.868717 11.97811,-14.212926 18.24021,-21.057155 3.86302,-5.050315 14.33973,-18.49957 16.95638,-4.788073 1.81696,9.531486 -0.61382,18.205636 -0.67001,27.623285 l -0.31123,1.965372 -0.33141,2.365939 c 4.86876,-2.097934 11.24758,-6.143949 16.4074,-6.318297 3.68435,-0.121035 5.36155,1.691603 6.41772,4.854354 0.44667,1.347231 0.92505,3.193009 -0.57203,3.945153 -0.0735,0.04179 -0.18588,0.136885 -0.24496,0.07637 -5.18431,-5.450882 -14.46508,-3.966766 -22.15654,2.276605 l -0.0447,1.420716 -0.16138,1.753561 c -3.74631,21.405841 -2.54893,37.893931 -13.58181,56.420881 -2.80109,3.65409 -4.92352,2.55325 -9.07616,1.68152 -2.99561,-1.0605 -3.30684,-1.09652 -4.9509,-3.73767 -0.98845,-2.57343 -1.2406,-3.80394 -1.25501,-6.36584 -0.0533,-11.95362 4.21316,-21.84964 8.44073,-32.17361 2.12242,-5.177113 7.63959,-11.597713 11.24037,-15.818076 2.52732,-7.558902 1.73483,-17.111994 2.44951,-25.254456 -0.009,-2.453834 0.55618,-4.367334 -0.0951,-6.72751 -6.57766,8.113644 -12.6438,17.243115 -22.20409,22.920217 -4.19155,2.489856 -9.40757,5.88603 -12.44496,2.729043 l -0.24927,-0.337168 c -0.21758,-0.610937 -0.81699,-10.270655 -2.42358,-9.35569 -0.36454,0.01153 -4.40624,7.826907 -10.40033,8.437844 l -0.36023,1.81552 c -1.94952,9.018522 -12.20144,23.325106 -21.49661,11.517023 l -2.24203,-3.626717 -0.33861,-0.84292 -0.14553,-1.03888 c -2.24346,4.289525 -7.63382,12.929094 -12.73169,13.234562 -5.4552,-0.734853 -6.12233,-4.298171 -7.74189,-8.893165 l -0.0245,-0.06628 -0.16858,-1.014385 -0.24495,-1.646936 -0.40778,-0.216133 -0.96107,1.515815 c -4.36589,8.952241 -10.29947,17.776242 -17.49383,24.075812 -4.53592,3.97685 -11.5516,-0.28962 -12.73169,-6.56037 -1.28671,-3.71029 0.88471,-9.952218 2.45095,-14.080364 2.25067,-5.937902 9.41621,-14.970833 14.03426,-19.260359 3.97397,-3.69588 6.94652,-6.086314 11.98099,-3.357271 1.56336,0.844361 1.74059,2.832787 2.98264,4.125265 l 1.43944,-3.654094 c 2.43078,-6.179972 7.92489,-4.737642 8.08051,2.466801 0.0893,4.038811 -1.47835,7.377351 -1.61092,11.460829 -0.41641,1.854424 0.12968,3.806828 0.79538,5.60938 0.59508,1.613795 1.55039,0.733412 2.35153,-0.249274 l 2.54605,-3.924981 c 1.64117,-3.084942 3.39041,-6.228962 5.37595,-9.083362 -0.42362,-6.214553 -2.20168,-13.064538 -0.59797,-19.081689 3.11665,-17.875673 8.36724,-34.788825 14.78928,-51.599673 3.42212,-8.9565642 11.42625,-7.8629297 11.77927,4.672802 3.22471,18.378535 -5.78805,41.720933 -12.30519,58.647059 -0.88759,2.311186 -1.6138,1.753562 -4.04746,0.966837 l -1.52446,-0.521602 0.17291,1.646936 c 0.59797,7.066118 2.24923,13.044365 5.73906,19.165261 2.25499,-0.200284 3.60078,-3.914895 4.08924,-5.842804 0.56771,-2.249227 0.60373,-4.110856 -2.0864,-3.966767 l -1.8746,0.14553 -0.36887,-0.250715 c -4.38174,-6.875921 8.8557,-18.443375 14.2259,-12.394524 l 1.54607,-0.334287 c 2.77947,-1.256454 3.22183,-3.528736 5.20449,-5.57768 z m 23.31213,75.321021 c 0.16138,0.58788 0.0965,1.29248 0.47982,1.77085 1.57345,1.97114 3.57917,-3.35439 4.02873,-6.11369 2.79676,-10.47958 5.54453,-21.52399 7.95226,-32.80039 l -0.0375,-1.688725 0.94234,-3.839968 c -11.17553,6.971023 -14.69851,30.917153 -13.35992,42.411123 0.009,0.085 -0.006,0.17291 -0.007,0.25936 z M 374.22296,63.205966 c 9.59056,-12.162549 15.17112,-39.4184 13.23889,-54.0088391 0.12103,-1.1671198 -0.88327,-2.0013944 -1.38182,-0.3011457 -3.92209,15.5615978 -16.14659,38.2959398 -11.85707,54.3099848 z m -31.88254,23.446141 c 1.68007,-2.485533 3.16419,-6.034442 3.9855,-8.991146 -2.09362,1.501406 -4.56186,2.197355 -7.39753,2.084966 l -0.24351,0.146971 c -4.95089,4.877408 -19.03414,16.014037 -15.06593,24.610382 1.1945,3.39906 1.90053,2.36738 4.62093,0.40921 5.58777,-5.888913 9.54733,-12.04439 14.10198,-18.261824 z M 271.31684,46.937842 c 29.72697,-10.646727 33.52083,4.988357 12.21873,25.532548 l 4.9509,-0.327082 4.69729,0.0245 c 8.49981,0.475494 19.82951,1.252133 22.89428,11.10493 3.16852,20.446212 -33.70382,42.650312 -44.96437,48.658822 -5.42639,3.36591 -14.93625,6.46959 -19.9736,3.51288 -2.21464,-3.46101 -1.28383,-4.38606 0.80546,-7.95082 4.29097,-5.60217 8.2073,-10.50552 13.31669,-15.31809 5.05608,-5.17711 9.43926,-8.81536 14.87286,-14.223018 l 5.33849,-4.093565 c 3.80106,-3.479746 5.95231,-6.002742 10.87583,-3.305399 l 0.99133,1.39334 0.11527,0.838597 c -0.95243,5.17279 -7.1641,5.377397 -11.71875,7.410495 -6.06326,4.63966 -12.78212,9.0776 -17.59469,15.06738 l -6.7693,7.3053 -0.84868,1.40487 -0.22334,0.8458 0.0375,0.3559 0.14841,0.24207 0.36454,0.22766 1.45386,-0.0864 c 10.26345,-1.26654 22.73146,-9.99977 30.11457,-16.70278 4.43938,-4.03018 8.71882,-8.32259 12.23747,-13.553013 2.45527,-2.8227 6.54884,-8.25341 5.59497,-11.77206 -0.35878,-3.197332 -5.22034,-4.694416 -8.07906,-5.118037 l -2.65412,-0.100862 -6.07046,0.407771 -9.58624,1.910619 c -5.83559,0.82707 -12.53861,4.05322 -16.89009,3.600781 l -0.26945,-0.400567 -0.0159,-0.288178 c -0.60229,-5.776523 1.83858,-7.672733 5.46529,-11.031444 l 4.67857,-3.22615 10.18564,-10.06893 c 3.84285,-4.499896 8.34995,-9.486811 -1.37749,-9.975273 -7.35285,0.351577 -14.61349,3.345744 -20.488,6.008506 l -0.54465,0.828511 0.24495,0.551861 c 3.34142,3.100792 2.53596,6.636733 2.14404,10.950754 l -0.48702,3.991261 c -0.36743,4.605081 -0.92649,9.234656 -1.60515,13.818123 -0.34149,6.831254 -2.07776,13.333984 -1.61668,20.207037 l -0.61093,5.60938 c -0.23775,2.49273 -2.20312,2.02012 -3.83421,1.19161 -1.79535,-1.53455 -3.95668,-2.97399 -5.47393,-4.78375 l -0.31124,-0.53457 0.3804,-5.02727 0.32996,-3.239118 c 0.74062,-5.292384 5.61803,-38.842037 6.19871,-39.373724 0.31555,-4.237654 -23.33087,11.75477 -25.351,12.790769 -2.12243,3.014339 -8.19001,13.339747 -8.55744,2.736247 1.66855,-4.177136 2.68726,-5.553185 6.52435,-7.861489 11.63085,-8.060331 25.07002,-16.099049 38.73397,-20.162355 z" />
</svg>
