<svg id="ALEJABIELANY" width="500" height="167.15015" viewBox="0 0 500 167.15015" version="1.1" xml:space="preserve" xmlns:xlink="http://www.w3.org/1999/xlink" xmlns="http://www.w3.org/2000/svg" xmlns:svg="http://www.w3.org/2000/svg">
	<path id="ALEJABIELANY" style="fill:#000000;stroke:#000000;stroke-width:0" d="m 835.47856,-245.57898 c -0.002,-16.25357 -0.002,-32.03983 -0.002,-48.13417 4.55503,0 8.65314,0 13.63019,0 0,8.29506 6e-5,16.70247 6e-5,25.10991 0,8.47711 -6e-5,16.95425 -6e-5,26.18554 -4.05457,0 -7.81805,0.14493 -11.55209,-0.12194 -0.74897,-0.0535 -1.38593,-1.67402 -2.07633,-3.03934 z m 181.02984,-7.78851 c 5.6314,0.005 10.7812,0.005 16.2644,0.005 0,3.67618 0,7.05198 0,10.70099 -10.3097,0 -20.4069,0 -31.2987,0 0,-8.43048 10e-5,-16.85083 10e-5,-25.27118 0,-8.46844 -10e-5,-16.93685 -10e-5,-25.747 4.1398,0 7.8922,0 12.4624,0 0,2.98759 0,6.07803 0,9.16848 3e-4,8.99732 -0.089,17.99643 0.094,26.99005 0.028,1.39603 1.2997,2.76682 2.4779,4.15397 z m 302.6847,-5.62516 c 0,5.61301 0,10.75489 0,16.23746 -4.0915,0 -7.8456,0 -11.8475,0 -2.0701,-8.63358 1.8256,-18.0499 -3.3681,-26.59732 -4.6395,-7.63553 -8.3303,-15.84754 -12.8754,-24.64864 4.5538,0 8.4524,-0.24057 12.2874,0.14778 1.1383,0.1153 2.4919,1.82178 3.0694,3.10421 2.3626,5.24604 4.4633,10.61003 7.008,16.77223 2.425,-5.93057 4.6719,-10.85831 6.4376,-15.95281 1.094,-3.15615 2.6468,-4.56634 6.101,-4.14871 2.7892,0.33724 5.6517,0.0684 9.3336,0.0684 -1.8731,3.58221 -3.4807,6.74043 -5.164,9.85778 -2.9236,5.41394 -6.0963,10.70551 -8.7551,16.24491 -1.2369,2.57712 -1.5145,5.61477 -2.2269,8.91476 z m -222.4247,-8.85257 c 2.6659,-8.93847 5.1713,-17.50714 7.6593,-26.01657 5.2536,0 10.0569,0 15.3761,0 5.0846,16.91776 10.1726,33.84699 15.5215,51.64429 -4.8179,-0.2832 -10.0696,0.905 -12.8866,-1.18634 -2.716,-2.01639 -2.9182,-7.41892 -4.3113,-11.59305 -4.029,0 -8.1169,0 -12.5794,0 -1.1395,3.96707 -2.3163,8.06433 -3.5481,12.35291 -4.0187,0 -7.9632,0 -12.5255,0 2.4145,-8.40513 4.774,-16.61826 7.294,-25.20124 m 12.3029,-3.21502 c -0.4796,1.83035 -0.9592,3.66067 -1.4928,5.69693 3.0554,0 5.6655,0 8.6252,0 -1.4522,-5.19208 -2.8344,-10.13407 -4.4755,-16.00193 -0.9952,3.81162 -1.7411,6.66861 -2.6569,10.305 z m -199.58706,17.8103 c 0,-13.63233 0,-26.77048 0,-40.33759 10.7487,0 21.2817,0 32.1923,0 0,3.14067 0,6.37444 0,10.22498 -6.2111,0 -12.5849,0 -19.1418,0 0,3.20303 0,5.81256 0,8.88998 5.8348,0 11.7481,0 18.0035,0 0,3.68659 0,6.9169 0,10.70511 -5.9192,0 -11.8119,0 -17.9516,0 0,3.64789 0,6.7529 0,10.43573 6.6003,0 13.3139,0 20.2604,0 0,3.81095 0,7.05066 0,10.61023 -11.0592,0 -21.9298,0 -33.3628,0 0,-3.47128 0,-6.75278 0,-10.52844 z m -134.7829,-2.56152 c -1.70517,8.05975 -7.25134,11.67535 -14.27966,12.36694 -7.3837,0.7265 -14.89432,0.1626 -22.63974,0.1626 0,-16.46207 0,-32.71576 0,-49.42751 8.5412,-1.25743 17.06357,-2.26132 25.57538,0.0792 4.95681,1.36302 8.71453,4.29532 9.73266,9.64239 1.03037,5.41153 -1.49624,9.3241 -6.20105,12.48023 5.45682,3.32883 8.95392,7.63824 7.81241,14.69611 m -24.7868,-2.78656 c 0,2.074 0,4.14797 0,6.17059 8.36404,0.44638 12.21881,-1.62558 12.18908,-6.12512 -0.0297,-4.49027 -4.26809,-6.60645 -11.95977,-5.73767 -0.0743,1.54119 -0.15186,3.14804 -0.22931,5.6922 m 10.93634,-20.26929 c -1.37192,-5.27985 -3.46427,-6.23712 -10.65503,-4.82862 0,3.05951 0,6.1283 0,9.60868 4.10071,-0.41226 8.38049,0.86792 10.65503,-4.78006 z m 432.63142,-0.33547 c 0,-4.98386 0,-9.4693 0,-14.80324 4.2769,0 8.374,-0.24486 12.4086,0.14937 1.2082,0.11806 2.5794,1.83378 3.3009,3.13614 4.6427,8.38015 9.1256,16.84881 14.0953,26.09652 0,-10.05703 0,-19.32739 0,-28.99459 3.9714,0 7.5233,0 11.4482,0 0,16.80606 0,33.67141 0,51.21203 -3.4534,0 -6.9293,0.31104 -10.2994,-0.15036 -1.3819,-0.18924 -2.9709,-1.80774 -3.7228,-3.1824 -5.0774,-9.28415 -9.9556,-18.67719 -15.4748,-29.12641 0,11.33417 0,21.58884 0,32.1464 -4.0894,0 -7.6386,0 -11.756,0 0,-12.12342 0,-24.05423 0,-36.48346 z m -34.9953,-82.11527 c 0.7264,-4.43933 1.754,-8.5171 1.7829,-12.60194 0.1599,-22.61463 0.077,-45.23097 0.077,-68.22836 9.0981,0 17.9389,0 27.2657,0 0,2.73013 10e-5,5.34713 10e-5,7.96413 -3e-4,20.47236 0.059,40.94502 -0.048,61.41682 -0.023,4.46829 -0.2342,9.00869 -1.0513,13.38669 -2.9831,15.98458 -12.727,25.35684 -28.6165,28.61344 -18.2123,3.7327 -37.5294,-3.13032 -47.1659,-17.05427 5.4074,-5.99338 10.8434,-12.01848 16.1338,-17.88214 4.2348,3.15683 7.9022,6.60882 12.1843,8.92421 7.5231,4.06791 14.8601,2.18275 19.4379,-4.53858 z m -247.01166,-40.89219 c 0.014,15.14868 0.026,29.79734 0.053,44.446 6e-4,0.30589 0.1692,0.61148 0.3951,1.37725 17.5871,0 35.3079,0 53.3538,0 0,8.31072 0,16.1615 0,24.2536 -26.7157,0 -53.2541,0 -80.0463,0 0,-36.76728 0,-73.29724 0,-110.10981 8.5856,0 17.0141,0 26.2449,0 0,13.07831 0,26.30563 0,40.03296 z m -77.88933,23.64106 c 6.91941,16.20403 13.67728,32.06054 20.75779,48.67414 -9.22657,0 -17.66089,0.13813 -26.0803,-0.15421 -1.21368,-0.0421 -2.83337,-1.94488 -3.44961,-3.34544 -3.00729,-6.83496 -5.73776,-13.79172 -8.63516,-20.87403 -14.14063,0 -28.12567,-0.079 -42.10614,0.13753 -1.22959,0.019 -2.95734,1.73747 -3.55173,3.06919 -2.63968,5.91426 -4.85764,12.01588 -7.45386,17.95101 -0.55935,1.2788 -2.02658,3.0319 -3.12219,3.06594 -8.28598,0.25747 -16.58356,0.14068 -25.46259,0.14068 0.83823,-2.23393 1.40226,-3.93031 2.10047,-5.56953 14.58523,-34.24197 29.2348,-68.45671 43.70334,-102.74786 1.37515,-3.25924 2.96045,-4.62847 6.56674,-4.38621 6.44028,0.43261 14.30249,-1.78385 18.96905,1.18957 4.435,2.82585 5.6182,10.84188 8.098,16.63282 6.54016,15.27311 13.00799,30.57717 19.66619,46.2164 m -36.91824,-23.51149 c -0.83047,-1.94677 -1.66092,-3.89355 -2.73309,-6.40698 -2.30356,5.52643 -4.35584,10.37154 -6.3443,15.24268 -1.96988,4.82547 -3.87546,9.67718 -5.87418,14.67991 8.54489,0 16.3758,0 24.58945,0 -3.19998,-7.88606 -6.23724,-15.37112 -9.63788,-23.51561 z m 501.64543,57.88919 c -1.4597,-3.56651 -2.8107,-6.76553 -4.21,-10.07891 -14.007,0 -27.8301,-0.0755 -41.6492,0.12259 -1.3101,0.0188 -3.218,1.47285 -3.7866,2.73782 -2.7232,6.05801 -4.9849,12.32226 -7.6464,18.41016 -0.5498,1.25775 -2.0774,2.92782 -3.1984,2.96197 -8.2556,0.25153 -16.5224,0.13597 -25.565,0.13597 3.1656,-7.42592 6.019,-14.11102 8.8656,-20.79901 12.4283,-29.19943 24.918,-58.37308 37.1949,-87.63603 1.4048,-3.34862 3.1568,-4.45823 6.6524,-4.26966 5.3165,0.28681 10.6723,-0.12727 15.984,0.20069 1.5584,0.0962 3.8446,1.34398 4.4121,2.66096 15.4543,35.8563 30.7296,71.78978 46.0212,107.71617 0.1839,0.43207 0.1881,0.94062 0.4079,2.12087 -8.7681,0 -17.3294,0.0931 -25.8827,-0.1263 -0.9886,-0.0254 -2.2838,-1.62051 -2.8324,-2.7751 -1.709,-3.59738 -3.1275,-7.33281 -4.7674,-11.38219 m -27.1884,-62.33102 c -3.8012,9.25203 -7.6024,18.50407 -11.4826,27.94835 8.6282,0 16.457,0 24.6734,0 -3.842,-9.4252 -7.4972,-18.44724 -11.2383,-27.43353 -0.2251,-0.54079 -1.1361,-0.79608 -1.9525,-0.51482 z m -195.0418,22.22804 c 0,2.97264 0,5.46094 0,8.55306 -16.964,0 -33.6736,0 -50.5983,0 0,6.8688 0,13.12887 0,19.79417 19.2063,0 38.2824,0 57.7455,0 0,8.09961 0,15.80866 0,23.7941 -27.8852,0 -55.7804,0 -83.97146,0 0,-36.61737 0,-73.17506 0,-110.05944 27.68586,0 55.39796,0 83.42526,0 0,7.65179 0,15.22369 0,23.27328 -18.8988,0 -37.8164,0 -57.0777,0 0,6.69078 0,12.91546 0,19.50433 16.7096,0 33.3244,0 50.4767,0 0,5.114 0,9.88509 0,15.1405 z" />
</svg>
