<svg id="ALEJABIELANY" width="500" height="167.15015" viewBox="0 0 500 167.15015" version="1.1" xml:space="preserve" xmlns:xlink="http://www.w3.org/1999/xlink" xmlns="http://www.w3.org/2000/svg" xmlns:svg="http://www.w3.org/2000/svg">
	<path id="ALEJABIELANY" style="fill:#000000;stroke:#000000;stroke-width:0" d="m 84.043591,164.28227 c -0.0017,-13.52533 -0.0017,-26.66179 -0.0017,-40.05461 3.790445,0 7.200666,0 11.342293,0 0,6.90269 5e-5,13.89888 5e-5,20.89509 0,7.05418 -5e-5,14.10839 -5e-5,21.79016 -3.37399,0 -6.50575,0.1206 -9.613013,-0.10147 -0.623251,-0.0445 -1.153294,-1.39303 -1.727807,-2.52917 z M 234.68665,157.8011 c 4.68614,0.004 8.97152,0.004 13.53434,0.004 0,3.05911 0,5.86827 0,8.90477 -8.57916,0 -16.9815,0 -26.04505,0 0,-7.01538 8e-5,-14.02233 8e-5,-21.02928 0,-7.04697 -8e-5,-14.09392 -8e-5,-21.42524 3.44491,0 6.56745,0 10.37052,0 0,2.48611 0,5.05781 0,7.62951 2.5e-4,7.48707 -0.0741,14.97564 0.0782,22.45963 0.0233,1.1617 1.08154,2.3024 2.06197,3.45671 z m 251.87754,-4.68095 c 0,4.67084 0,8.94963 0,13.51192 -3.40472,0 -6.52868,0 -9.85884,0 -1.72262,-7.18439 1.51916,-15.02013 -2.80275,-22.13283 -3.86073,-6.35386 -6.93201,-13.18745 -10.71419,-20.51124 3.78942,0 7.03362,-0.20019 10.22489,0.12298 0.94723,0.0959 2.07362,1.51598 2.55419,2.58315 1.96602,4.36547 3.71411,8.82908 5.83167,13.95693 2.01795,-4.9351 3.8877,-9.03569 5.35702,-13.27505 0.91036,-2.62638 2.20252,-3.79986 5.07691,-3.45233 2.32102,0.28063 4.70304,0.0569 7.76691,0.0569 -1.55869,2.98092 -2.89645,5.60901 -4.2972,8.2031 -2.43286,4.50518 -5.073,8.90853 -7.28551,13.51812 -1.02928,2.14454 -1.26028,4.6723 -1.8531,7.41837 z M 301.4746,145.75353 c 2.21842,-7.4381 4.30328,-14.56848 6.37365,-21.64956 4.37176,0 8.3688,0 12.79515,0 4.23112,14.07803 8.46507,28.1656 12.91613,42.97553 -4.00919,-0.23566 -8.37936,0.7531 -10.72352,-0.9872 -2.2601,-1.67793 -2.42836,-6.17362 -3.58762,-9.6471 -3.35271,0 -6.75444,0 -10.46789,0 -0.94823,3.30118 -1.92749,6.71069 -2.95253,10.27941 -3.34414,0 -6.62654,0 -10.42303,0 2.00921,-6.99428 3.97266,-13.8288 6.06966,-20.97108 m 10.2378,-2.67536 c -0.3991,1.52311 -0.79819,3.0462 -1.24223,4.74067 2.54254,0 4.71452,0 7.17742,0 -1.20844,-4.32057 -2.35863,-8.43302 -3.72426,-13.31593 -0.82815,3.17182 -1.44885,5.54925 -2.21093,8.57526 z m -166.08536,14.82075 c 0,-11.34408 0,-22.27692 0,-33.56672 8.94448,0 17.70946,0 26.78866,0 0,2.61349 0,5.30445 0,8.50866 -5.16853,0 -10.47246,0 -15.92875,0 0,2.66539 0,4.83689 0,7.39775 4.8554,0 9.77612,0 14.98152,0 0,3.06778 0,5.75587 0,8.90821 -4.92563,0 -9.82921,0 -14.93833,0 0,3.03557 0,5.61939 0,8.68403 5.4924,0 11.07909,0 16.85959,0 0,3.17127 0,5.86718 0,8.82925 -9.20286,0 -18.24878,0 -27.76269,0 0,-2.8886 0,-5.61929 0,-8.76118 z M 33.468136,155.76736 c -1.418948,6.70688 -6.034165,9.71558 -11.882746,10.29109 -6.144309,0.60455 -12.3942329,0.1353 -18.8395448,0.1353 0,-13.69882 0,-27.22425 0,-41.13085 7.1075162,-1.04636 14.1993628,-1.88174 21.2824228,0.0659 4.124784,1.13423 7.251752,3.57433 8.098983,8.02386 0.857417,4.50318 -1.245088,7.75901 -5.160172,10.38536 4.540865,2.77007 7.450959,6.35613 6.501057,12.2293 M 12.841927,153.4485 c 0,1.72586 0,3.45171 0,5.13482 6.960093,0.37145 10.16782,-1.35272 10.143081,-5.09699 -0.02472,-3.73655 -3.55167,-5.49752 -9.952262,-4.77457 -0.06183,1.28249 -0.12637,2.61963 -0.190819,4.73674 m 9.100619,-16.86699 c -1.141636,-4.3936 -2.882774,-5.19019 -8.866529,-4.01811 0,2.54595 0,5.09963 0,7.99581 3.412385,-0.34306 6.973783,0.72224 8.866529,-3.9777 z m 360.012034,-0.27916 c 0,-4.1473 0,-7.87983 0,-12.31844 3.55901,0 6.96839,-0.20376 10.32576,0.1243 1.0054,0.0982 2.14643,1.52597 2.74683,2.60972 3.86339,6.9735 7.59382,14.02065 11.72933,21.71608 0,-8.3689 0,-16.08318 0,-24.1277 3.30478,0 6.26047,0 9.52656,0 0,13.98508 0,28.0195 0,42.61583 -2.87373,0 -5.76618,0.25883 -8.57059,-0.12512 -1.14995,-0.15747 -2.47222,-1.5043 -3.09791,-2.64821 -4.22514,-7.72576 -8.28451,-15.54213 -12.87728,-24.2374 0,9.43167 0,17.96504 0,26.75046 -3.40297,0 -6.35642,0 -9.7827,0 0,-10.08844 0,-20.0166 0,-30.35952 z M 352.83342,67.970555 c 0.60447,-3.694166 1.45959,-7.087462 1.48363,-10.486641 0.13306,-18.818649 0.0641,-37.638721 0.0641,-56.77588258 7.57094,0 14.92776,0 22.68901,0 0,2.27186378 9e-5,4.44958708 9e-5,6.62731028 -2.5e-4,17.0359703 0.0491,34.0721903 -0.0399,51.1076943 -0.0191,3.718265 -0.19488,7.496536 -0.87483,11.139666 -2.48237,13.301487 -10.59071,21.100565 -23.81308,23.810528 -15.15527,3.106148 -31.22989,-2.60488 -39.24886,-14.191623 4.49974,-4.987361 9.02328,-10.001117 13.42566,-14.880532 3.52397,2.62694 6.57578,5.499496 10.1391,7.426236 6.26031,3.385091 12.36576,1.816364 16.17515,-3.776756 z M 147.28393,33.942327 c 0.0117,12.605897 0.0216,24.795705 0.0441,36.985513 5e-4,0.254545 0.1408,0.50884 0.32878,1.146071 14.63502,0 29.38129,0 44.39809,0 0,6.915724 0,13.44871 0,20.18251 -22.23133,0 -44.31513,0 -66.61012,0 0,-30.595705 0,-60.993926 0,-91.62731853 7.14446,0 14.1582,0 21.83956,0 0,10.88304953 0,21.89009653 0,33.31322453 z M 82.468715,53.615115 c 5.757952,13.484101 11.381479,26.679015 17.27349,40.503937 -7.677844,0 -14.69642,0.114944 -21.702589,-0.128325 -1.009958,-0.03503 -2.357775,-1.618422 -2.870576,-2.783891 -2.502501,-5.687677 -4.774648,-11.476709 -7.185704,-17.370217 -11.767054,0 -23.404634,-0.06574 -35.038411,0.114445 -1.023197,0.01581 -2.460935,1.445827 -2.955554,2.554011 -2.196596,4.921521 -4.04226,9.998952 -6.202692,14.937841 -0.46546,1.064147 -1.686408,2.52298 -2.598114,2.551306 C 14.293429,94.208474 7.3886397,94.111288 0,94.111288 0.69752884,92.252335 1.1668835,90.840701 1.7478954,89.476632 13.88492,60.982352 26.075486,32.51073 38.115408,3.9755233 c 1.144324,-2.71216 2.463523,-3.85155776 5.464479,-3.64996233 5.359246,0.35999422 11.901744,-1.48442167 15.784999,0.98989463 3.690562,2.3515167 4.675156,9.0220154 6.738709,13.8409164 5.442361,12.709441 10.824533,25.444637 16.36512,38.458743 M 51.747389,34.050148 c -0.691071,-1.619995 -1.382126,-3.239998 -2.274326,-5.331536 -1.916896,4.59879 -3.624691,8.630624 -5.279377,12.684119 -1.639226,4.01549 -3.224945,8.052816 -4.88817,12.215812 7.110587,0 13.627039,0 20.461986,0 C 57.104655,47.056198 54.577215,40.827544 51.747389,34.050148 Z M 469.18909,82.222343 c -1.21469,-2.967853 -2.33891,-5.629901 -3.50333,-8.387114 -11.65586,0 -23.15868,-0.06283 -34.65817,0.102013 -1.0902,0.01564 -2.67785,1.225625 -3.151,2.278263 -2.2661,5.041142 -4.14816,10.253905 -6.36292,15.31992 -0.45751,1.04663 -1.7287,2.436371 -2.66153,2.464788 -6.86986,0.20931 -13.74903,0.113147 -21.27378,0.113147 2.63423,-6.179441 5.00868,-11.742413 7.37746,-17.307789 10.34215,-24.298158 20.73539,-48.574862 30.95155,-72.9258775 1.16899,-2.7865371 2.62691,-3.70989341 5.53576,-3.55297585 4.4241,0.23866749 8.8809,-0.10590708 13.301,0.16700317 1.29682,0.0800523 3.19927,1.11838608 3.67151,2.21430438 12.86022,29.8376378 25.57148,59.7395008 38.29631,89.6354628 0.15303,0.359545 0.15652,0.782732 0.33943,1.764871 -7.29633,0 -14.42057,0.07747 -21.53816,-0.1051 -0.82266,-0.02114 -1.90045,-1.348499 -2.35697,-2.309285 -1.42213,-2.993542 -2.60253,-6.101961 -3.96716,-9.471631 M 446.5644,30.353901 c -3.16315,7.69903 -6.3263,15.398068 -9.55519,23.257078 7.17991,0 13.69461,0 20.53184,0 -3.1971,-7.843132 -6.23875,-15.350777 -9.35189,-22.828673 -0.18732,-0.450015 -0.9454,-0.662454 -1.62476,-0.428405 z M 284.26135,48.850852 c 0,2.473667 0,4.544293 0,7.117385 -14.1165,0 -28.02131,0 -42.10511,0 0,5.715837 0,10.925123 0,16.471618 15.98242,0 31.8565,0 48.05262,0 0,6.74005 0,13.155096 0,19.800139 -23.20453,0 -46.41738,0 -69.87642,0 0,-30.470958 0,-60.892254 0,-91.58540293 23.03864,0 46.09913,0 69.4219,0 0,6.36739813 0,12.66831593 0,19.36674193 -15.72654,0 -31.46872,0 -47.49692,0 0,5.567698 0,10.747534 0,16.230429 13.90481,0 27.73073,0 42.00393,0 0,4.255589 0,8.225827 0,12.59909 z" />
</svg>
