<svg id="ALEJABIELANY" width="500" height="167.15016" viewBox="0 0 500 167.15016" version="1.1" xml:space="preserve" xmlns:xlink="http://www.w3.org/1999/xlink" xmlns="http://www.w3.org/2000/svg" xmlns:svg="http://www.w3.org/2000/svg">
	<path id="ALEJABIELANY" style="fill:#000000;stroke:#000000;stroke-width:0" d="m 84.043569,164.28229 c 0,-13.52533 0,-26.66178 0,-40.05461 3.790504,0 7.200717,0 11.342303,0 0,6.90269 8.4e-5,13.89888 8.4e-5,20.89508 0,7.05419 -8.4e-5,14.1084 -8.4e-5,21.79018 -3.373932,0 -6.50571,0.12059 -9.613022,-0.10148 -0.623194,-0.0445 -1.15327,-1.39302 -1.727783,-2.52917 z M 234.6867,157.80112 c 4.68614,0.004 8.97144,0.004 13.53434,0.004 0,3.05911 0,5.86826 0,8.90477 -8.57917,0 -16.9815,0 -26.04506,0 0,-7.01538 9e-5,-14.02233 9e-5,-21.02928 0,-7.04698 -9e-5,-14.09393 -9e-5,-21.42525 3.44492,0 6.56746,0 10.37053,0 0,2.48611 0,5.0578 0,7.62951 2.5e-4,7.48707 -0.0741,14.97564 0.0782,22.45964 0.0233,1.16169 1.08162,2.30239 2.06205,3.4567 z m 251.87749,-4.68094 c 0,4.67083 0,8.94962 0,13.51191 -3.40464,0 -6.5286,0 -9.85876,0 -1.72271,-7.18438 1.51917,-15.02013 -2.80275,-22.13283 -3.86082,-6.35386 -6.9321,-13.18744 -10.7142,-20.51123 3.78943,0 7.03363,-0.20019 10.2249,0.12297 0.94723,0.0959 2.07362,1.51598 2.55419,2.58315 1.96602,4.36547 3.71411,8.82908 5.83167,13.95693 2.01795,-4.9351 3.8877,-9.03569 5.35702,-13.27505 0.91036,-2.62638 2.20252,-3.79986 5.07691,-3.45233 2.32102,0.28063 4.70304,0.0568 7.76683,0.0568 -1.55861,2.98092 -2.89636,5.60901 -4.2972,8.20311 -2.43277,4.50518 -5.07292,8.90853 -7.28543,13.51811 -1.02936,2.14454 -1.26028,4.67231 -1.85318,7.41838 z m -185.08953,-7.36662 c 2.21842,-7.43812 4.30327,-14.56849 6.37365,-21.64957 4.37176,0 8.3688,0 12.79514,0 4.23113,14.07803 8.46508,28.1656 12.91606,42.97554 -4.00911,-0.23567 -8.37928,0.75309 -10.72344,-0.98721 -2.2601,-1.67793 -2.42836,-6.17361 -3.58762,-9.6471 -3.35272,0 -6.75444,0 -10.46789,0 -0.94823,3.30119 -1.9275,6.71069 -2.95253,10.27941 -3.34414,0 -6.62654,0 -10.42303,0 2.00921,-6.99427 3.97257,-13.8288 6.06966,-20.97107 m 10.2378,-2.67538 c -0.3991,1.52312 -0.7982,3.04621 -1.24223,4.74068 2.54254,0 4.71444,0 7.17742,0 -1.20844,-4.32057 -2.35863,-8.43301 -3.72435,-13.31592 -0.82807,3.17181 -1.44876,5.54925 -2.21084,8.57524 z m -166.08542,14.82076 c 0,-11.34407 0,-22.27692 0,-33.56672 8.94448,0 17.70947,0 26.78858,0 0,2.61349 0,5.30445 0,8.50866 -5.16845,0 -10.47237,0 -15.92867,0 0,2.66539 0,4.83689 0,7.39776 4.85532,0 9.77613,0 14.98144,0 0,3.06777 0,5.75586 0,8.90819 -4.92563,0 -9.82921,0 -14.93825,0 0,3.03558 0,5.6194 0,8.68405 5.49241,0 11.0791,0 16.85959,0 0,3.17126 0,5.86717 0,8.82925 -9.20286,0 -18.24877,0 -27.76269,0 0,-2.88861 0,-5.61929 0,-8.76119 z M 33.468124,155.76738 c -1.418974,6.70688 -6.034216,9.71559 -11.882781,10.29109 -6.144309,0.60455 -12.3942179,0.13531 -18.839514,0.13531 0,-13.69883 0,-27.22426 0,-41.13086 7.1075171,-1.04637 14.199307,-1.88175 21.282442,0.0659 4.124776,1.13423 7.251728,3.57433 8.098935,8.02388 0.857442,4.50318 -1.245056,7.75899 -5.160132,10.38535 4.540849,2.77007 7.450944,6.35613 6.50105,12.2293 m -20.626212,-2.31882 c 0,1.72586 0,3.45172 0,5.13482 6.960061,0.37145 10.167813,-1.35272 10.143099,-5.09699 -0.02497,-3.73655 -3.551678,-5.49752 -9.952288,-4.77457 -0.06158,1.2825 -0.126403,2.61963 -0.190811,4.73674 m 9.100587,-16.86699 c -1.141619,-4.3936 -2.882716,-5.19019 -8.866505,-4.01811 0,2.54596 0,5.09963 0,7.99581 3.412377,-0.34306 6.973792,0.72224 8.866505,-3.9777 z m 360.012151,-0.27916 c 0,-4.1473 0,-7.87983 0,-12.31845 3.559,0 6.96838,-0.20375 10.32576,0.1243 1.00539,0.0982 2.14643,1.52598 2.74682,2.60973 3.8634,6.9735 7.59383,14.02066 11.72926,21.71609 0,-8.36891 0,-16.0832 0,-24.12771 3.30486,0 6.26055,0 9.52664,0 0,13.98508 0,28.01951 0,42.61584 -2.87381,0 -5.76618,0.25883 -8.57068,-0.12512 -1.14994,-0.15747 -2.47213,-1.5043 -3.09782,-2.64822 -4.22514,-7.72576 -8.28451,-15.54213 -12.87728,-24.23739 0,9.43166 0,17.96504 0,26.75046 -3.40297,0 -6.35642,0 -9.7827,0 0,-10.08844 0,-20.01661 0,-30.35953 z M 352.83349,67.97057 c 0.60447,-3.694175 1.45958,-7.087471 1.48363,-10.48665 0.13298,-18.818645 0.0641,-37.63872 0.0641,-56.77589202 7.57094,0 14.92777,0 22.68902,0 0,2.27186412 0,4.44958772 0,6.62731122 -1.7e-4,17.0359728 0.0491,34.0721948 -0.0399,51.1077028 -0.0191,3.718265 -0.19497,7.496545 -0.87484,11.139667 -2.48237,13.301497 -10.59071,21.10057 -23.81316,23.810542 -15.15519,3.10614 -31.22982,-2.604888 -39.24878,-14.191636 4.49974,-4.987361 9.02328,-10.001118 13.42557,-14.880534 3.52406,2.626941 6.57586,5.499505 10.13919,7.426237 6.26023,3.3851 12.36576,1.816365 16.17515,-3.776748 z M 147.28393,33.942328 c 0.0117,12.605899 0.0216,24.795717 0.0441,36.985519 5e-4,0.254545 0.1408,0.50884 0.32878,1.14608 14.63502,0 29.3813,0 44.3981,0 0,6.915716 0,13.448713 0,20.182514 -22.23133,0 -44.31513,0 -66.61021,0 0,-30.595719 0,-60.993936 0,-91.62733365 7.14455,0 14.1582,0 21.83964,0 0,10.88305065 0,21.89009065 0,33.31322065 z m -64.815195,19.6728 c 5.757944,13.484094 11.381414,26.67901 17.273417,40.503937 -7.677787,0 -14.696347,0.114952 -21.702592,-0.128325 -1.009892,-0.03503 -2.357717,-1.618423 -2.870568,-2.783892 -2.50251,-5.687678 -4.774599,-11.476713 -7.185656,-17.370213 -11.767113,0 -23.404661,-0.06574 -35.038465,0.114445 -1.023205,0.01581 -2.460902,1.445827 -2.955529,2.554002 -2.196613,4.921522 -4.042228,9.998957 -6.202726,14.937854 -0.465419,1.064139 -1.686342,2.522972 -2.59804,2.551299 C 14.293422,94.208495 7.3886157,94.111309 0,94.111309 0.69750396,92.252347 1.1668338,90.840713 1.7478374,89.476644 13.884922,60.982357 26.075431,32.510731 38.115405,3.9755287 39.259687,1.2633683 40.578887,0.12397035 43.579851,0.32555748 48.939115,0.68555174 55.481606,-1.1588561 59.364894,1.3154523 c 3.690563,2.3515253 4.675157,9.0220247 6.73871,13.8409267 5.442312,12.709434 10.824543,25.444632 16.365131,38.458749 M 51.747355,34.050157 c -0.691097,-1.620003 -1.38211,-3.240006 -2.274336,-5.331545 -1.916846,4.598792 -3.624657,8.630626 -5.279378,12.684121 -1.639242,4.015491 -3.224894,8.052826 -4.888186,12.215823 7.110596,0 13.627041,0 20.46203,0 -2.662864,-6.562355 -5.190338,-12.79101 -8.02013,-19.568399 z M 469.18916,82.22236 c -1.21468,-2.967862 -2.33891,-5.629911 -3.50333,-8.387123 -11.65585,0 -23.15868,-0.06283 -34.65817,0.102012 -1.09019,0.01565 -2.67784,1.225625 -3.151,2.278264 -2.2661,5.041151 -4.14816,10.253917 -6.36291,15.319924 -0.45752,1.046631 -1.7287,2.436371 -2.66154,2.464789 -6.86985,0.209309 -13.74903,0.113147 -21.27379,0.113147 2.63416,-6.179434 5.0086,-11.742417 7.37747,-17.307795 10.34215,-24.29816 20.73539,-48.574861 30.95155,-72.9258874 1.169,-2.7865375 2.62683,-3.70989403 5.53576,-3.55296812 4.4241,0.2386592 8.8809,-0.10591541 13.30101,0.16699487 1.29681,0.0800524 3.19926,1.11838635 3.67151,2.21430465 12.86021,29.837642 25.57148,59.739518 38.29623,89.635486 0.15303,0.359545 0.15661,0.782724 0.33943,1.764864 -7.29625,0 -14.42049,0.07747 -21.53808,-0.105092 -0.82266,-0.02114 -1.90054,-1.348508 -2.35697,-2.309294 -1.42213,-2.993542 -2.60253,-6.101953 -3.96717,-9.471626 M 446.56447,30.353902 c -3.16315,7.699031 -6.3263,15.398078 -9.55519,23.257082 7.17992,0 13.69461,0 20.53177,0 -3.19702,-7.843135 -6.23868,-15.350772 -9.35181,-22.828677 -0.18732,-0.450016 -0.9454,-0.662454 -1.62477,-0.428405 z M 284.26141,48.850864 c 0,2.473668 0,4.544286 0,7.117378 -14.11651,0 -28.02132,0 -42.10513,0 0,5.715846 0,10.925133 0,16.471629 15.98243,0 31.85651,0 48.05264,0 0,6.740042 0,13.155091 0,19.800135 -23.20454,0 -46.41739,0 -69.87647,0 0,-30.470964 0,-60.892265 0,-91.58541837 23.03868,0 46.09917,0 69.42186,0 0,6.36740737 0,12.66831837 0,19.36674437 -15.72654,0 -31.46864,0 -47.49684,0 0,5.567699 0,10.747544 0,16.230431 13.90473,0 27.73074,0 42.00394,0 0,4.25559 0,8.225829 0,12.599101 z" />
</svg>
