<svg
   version="1"
   width="229.765"
   height="77.278999"
   viewBox="0 0 229.76501 77.278999"
   id="svg7"
   xmlns:xlink="http://www.w3.org/1999/xlink"
   xmlns="http://www.w3.org/2000/svg"
   xmlns:svg="http://www.w3.org/2000/svg">
  <defs
     id="defs1">
    <path
       id="a"
       d="M 0,0 H 290.28 V 77.277 H 0 Z" />
  </defs>
  <clipPath
     id="b">
    <use
       xlink:href="#a"
       overflow="visible"
       id="use1" />
  </clipPath>
  <path
     clip-path="url(#b)"
     fill="#ED2129"
     d="m 124.802,50.542 -4.572,-0.017 c -1.206,-0.005 -2.384,-0.787 -2.448,-2.04 -2.257,1.202 -5.174,2.093 -7.89,2.093 -3.693,0 -6.966,-0.778 -9.817,-2.335 -3.34,-1.774 -5.01,-4.145 -5.01,-7.113 v -6.273 c 0,-2.967 1.67,-5.338 5.01,-7.113 2.85,-1.532 6.124,-2.298 9.817,-2.298 3.694,0 6.978,0.773 9.858,2.298 3.363,1.78 5.052,4.148 5.052,7.113 z m -7.13,-9.386 v -6.292 c 0,-0.462 -0.543,-1.022 -1.628,-1.678 -1.52,-0.906 -3.572,-1.356 -6.152,-1.356 -2.553,0 -4.576,0.45 -6.07,1.356 -1.086,0.632 -1.63,1.19 -1.63,1.678 v 6.292 c 0,0.492 0.544,1.063 1.63,1.72 1.494,0.88 3.517,1.32 6.07,1.32 2.58,0 4.63,-0.45 6.152,-1.357 1.085,-0.633 1.628,-1.192 1.628,-1.684 m 64.723,9.423 h -7.13 V 34.856 c 0,-0.462 -0.542,-1.022 -1.628,-1.678 -1.52,-0.9 -3.572,-1.35 -6.15,-1.35 -2.555,0 -4.576,0.45 -6.07,1.35 -1.06,0.625 -1.59,1.184 -1.59,1.67 V 50.58 H 152.7 V 34.852 c 0,-0.462 -0.545,-1.022 -1.632,-1.672 -1.52,-0.9 -3.57,-1.35 -6.15,-1.35 -2.552,0 -4.575,0.45 -6.07,1.35 -1.086,0.632 -1.628,1.19 -1.628,1.678 v 15.72 h -7.13 V 34.86 c 0,-2.968 1.67,-5.34 5.01,-7.114 2.853,-1.532 6.126,-2.298 9.818,-2.298 4.536,0 8.31,1.058 11.325,3.173 2.987,-2.116 6.734,-3.174 11.243,-3.174 3.722,0 7.02,0.766 9.898,2.298 3.34,1.775 5.01,4.146 5.01,7.113 V 50.58 Z m 12.804,0 h -7.13 V 26.286 h 7.13 V 50.58 Z m 27.687,-15.852 c -0.09,-0.437 -0.626,-0.957 -1.616,-1.548 -1.516,-0.906 -3.57,-1.35 -6.15,-1.35 -2.552,0 -4.572,0.455 -6.07,1.356 -1.055,0.636 -1.587,1.19 -1.587,1.678 v 6.728 c 0,0.493 0.526,1.072 1.588,1.722 0.538,0.327 1.154,0.58 1.835,0.782 V 44.08 c 0.9,0.274 1.916,0.447 3.056,0.516 l 0.023,0.003 0.05,0.003 0.145,0.008 0.03,0.002 0.04,0.002 0.073,0.003 h 0.003 l 0.07,0.003 0.044,0.002 h 0.03 l 0.073,0.003 h 0.012 l 0.063,0.002 h 0.074 l 0.075,0.003 h 0.074 l 0.063,0.002 H 215 l 0.043,0.002 h 0.076 c 2.58,0 4.636,-0.444 6.15,-1.35 0.99,-0.59 1.526,-1.11 1.617,-1.55 l 6.877,1.822 c -0.592,2.073 -2.174,3.795 -4.745,5.162 -2.88,1.53 -6.18,2.3 -9.9,2.3 h -0.068 l -0.07,-0.002 h -0.068 l -0.07,-0.002 h -0.068 l -0.068,-0.002 h -0.07 l -0.033,-0.002 h -0.036 l -0.066,-0.002 -0.067,-0.002 h -0.069 l -0.34,-0.014 -0.067,-0.002 -0.032,-0.002 -0.035,-0.002 -0.27,-0.015 -0.03,-0.002 c -0.93,-0.056 -1.832,-0.163 -2.704,-0.322 v -0.006 c -2.013,-0.373 -3.868,-1.035 -5.582,-1.96 -3.308,-1.782 -4.97,-4.145 -4.97,-7.112 v -6.71 c 0,-2.967 1.658,-5.336 4.97,-7.113 2.85,-1.53 6.124,-2.298 9.817,-2.298 3.72,0 7.02,0.767 9.898,2.298 2.572,1.368 4.153,3.09 4.745,5.162 l -6.88,1.82 z M 191.635,16.5 c 1.968,0 3.564,1.597 3.564,3.564 0,1.97 -1.598,3.565 -3.565,3.565 -1.967,0 -3.565,-1.597 -3.565,-3.566 0,-1.966 1.597,-3.564 3.565,-3.564"
     id="path1"
     style="fill:#000000" />
  <g
     id="g3"
     style="fill:#000000">
    <defs
       id="defs2">
      <path
         id="c"
         d="M 53.22,37.298 C 48.54,45.534 42.496,53.03 36.614,58.24 c -2.213,1.96 -4.128,3.165 -6.34,4.593 -10.202,6.586 -17.02,5.35 -21.51,0.128 l -0.04,0.128 c 7.088,8.66 17.857,14.19 29.917,14.19 14.98,0 27.972,-8.53 34.382,-20.997 l 1.04,-2.266 c 3.222,-7.01 1.426,-14.135 -10.238,-20.115 -2.293,-1.178 -4.26,-2.215 -6.975,-3.138 -1.107,2.13 -2.662,4.832 -3.63,6.536" />
    </defs>
    <clipPath
       id="d">
      <use
         xlink:href="#c"
         overflow="visible"
         id="use2" />
    </clipPath>
    <linearGradient
       id="e"
       gradientUnits="userSpaceOnUse"
       y1="77.225998"
       x2="1"
       y2="77.225998"
       gradientTransform="matrix(-20.639844,28.408308,-28.408308,-20.639844,-2134.8039,-1562.0108)">
      <stop
         offset="0"
         stop-color="#D2232C"
         id="stop2" />
      <stop
         offset="1"
         stop-color="#ED2129"
         id="stop3" />
    </linearGradient>
    <path
       clip-path="url(#d)"
       fill="url(#e)"
       d="M 99.403,46.833 53.598,109.878 -13.394,61.208 32.412,-1.84"
       id="path3"
       style="fill:#000000" />
  </g>
  <g
     id="g5"
     style="fill:#000000">
    <defs
       id="defs3">
      <path
         id="f"
         d="M 38.403,0 C 37.845,0.003 37.287,0.018 36.728,0.045 L 34.245,0.28 c -7.68,0.712 -12.954,5.83 -12.302,18.924 0.128,2.574 0.213,4.796 0.77,7.607 2.4,-0.106 5.516,-0.11 7.476,-0.124 9.472,-0.064 18.985,1.42 26.438,3.91 2.804,0.937 4.805,1.994 7.148,3.196 10.805,5.539 13.145,12.061 10.865,18.562 l 0.13,-0.03 C 78.728,41.858 78.13,29.767 72.1,19.322 64.98,6.99 52.08,0.068 38.797,0 h -0.393 z" />
    </defs>
    <clipPath
       id="g">
      <use
         xlink:href="#f"
         overflow="visible"
         id="use3" />
    </clipPath>
    <linearGradient
       id="h"
       gradientUnits="userSpaceOnUse"
       y1="77.250999"
       x2="1"
       y2="77.250999"
       gradientTransform="matrix(35.424369,4.3495656,-4.3495656,35.424369,-313.56885,2759.3184)">
      <stop
         offset="0"
         stop-color="#F38927"
         id="stop4" />
      <stop
         offset="1"
         stop-color="#F9C221"
         id="stop5" />
    </linearGradient>
    <path
       clip-path="url(#g)"
       fill="url(#h)"
       d="M 22.144,-6.948 85.06,0.777 77.875,59.302 14.958,51.578"
       id="path5"
       style="fill:#000000" />
  </g>
  <g
     id="g7"
     style="fill:#000000">
    <defs
       id="defs5">
      <path
         id="i"
         d="M 5.18,19.323 C 1.675,25.393 0.006,32.023 0,38.563 v 0.068 c 0.006,7.414 2.147,14.714 6.173,20.965 l 1.445,2.033 c 4.457,6.296 11.527,8.302 22.538,1.19 2.166,-1.395 4.048,-2.582 6.204,-4.47 -1.29,-2.023 -2.855,-4.72 -3.845,-6.412 -4.793,-8.172 -8.264,-17.153 -9.834,-24.85 -0.59,-2.897 -0.676,-5.16 -0.806,-7.79 C 21.27,7.172 25.75,1.887 32.518,0.607 L 32.428,0.512 C 21.383,2.318 11.21,8.88 5.18,19.324" />
    </defs>
    <clipPath
       id="j">
      <use
         xlink:href="#i"
         overflow="visible"
         id="use5" />
    </clipPath>
    <linearGradient
       id="k"
       gradientUnits="userSpaceOnUse"
       y1="77.362"
       x2="1"
       y2="77.362"
       gradientTransform="matrix(-13.990724,-31.42368,31.42368,-13.990724,2460.8289,-1020.9446)">
      <stop
         offset="0"
         stop-color="#86AF40"
         id="stop6" />
      <stop
         offset="1"
         stop-color="#B0CF3B"
         id="stop7" />
    </linearGradient>
    <path
       clip-path="url(#j)"
       fill="url(#k)"
       d="M 6.015,83.44 -25.795,11.995 30.346,-13 62.156,58.446"
       id="path7"
       style="fill:#000000" />
  </g>
</svg>
