<svg id="AMIC" width="500" height="128.13289" viewBox="0 0 500 128.13289" version="1.1" xml:space="preserve" xmlns:xlink="http://www.w3.org/1999/xlink" xmlns="http://www.w3.org/2000/svg" xmlns:svg="http://www.w3.org/2000/svg">
	<path id="AMIC" style="fill:#000000;stroke:#000000;stroke-width:0" d="m 110.38233,126.366 -16.971046,-0.0631 c -4.476614,-0.0186 -8.849294,-2.92131 -9.086859,-7.57239 -8.377877,4.46177 -19.205643,7.76912 -29.287305,7.76912 -13.708241,0 -25.857461,-2.8879 -36.440238,-8.66741 C 6.1989607,111.24722 0,102.44618 0,91.429102 V 68.144024 C 0,57.130661 6.1989607,48.329621 18.596882,41.740906 29.175947,36.054195 41.328879,33.210839 55.03712,33.210839 c 13.711952,0 25.902004,2.869339 36.592427,8.530067 12.483293,6.607275 18.752783,15.397179 18.752783,26.403118 z M 83.91611,91.525612 V 68.170007 c 0,-1.714922 -2.01559,-3.793615 -6.043059,-6.228656 -5.642168,-3.363029 -13.259094,-5.033407 -22.835931,-5.033407 -9.476615,0 -16.985895,1.670378 -22.531552,5.033407 -4.03118,2.345954 -6.050483,4.417224 -6.050483,6.228656 v 23.355605 c 0,1.826281 2.019303,3.945806 6.050483,6.384559 5.545657,3.266519 13.054937,4.899779 22.531552,4.899779 9.576837,0 17.18634,-1.67038 22.835931,-5.037121 4.027469,-2.349666 6.043059,-4.424648 6.043059,-6.250928 m 240.2487,34.977729 H 297.69859 V 68.140312 c 0,-1.714922 -2.01188,-3.793616 -6.04306,-6.228656 -5.64217,-3.340758 -13.25909,-5.011136 -22.82851,-5.011136 -9.48404,0 -16.98589,1.670378 -22.53155,5.011136 -3.93467,2.31997 -5.902,4.394951 -5.902,6.19896 V 126.50705 H 213.93838 V 68.125464 c 0,-1.714922 -2.02301,-3.793615 -6.0579,-6.206385 -5.64217,-3.340757 -13.25168,-5.011135 -22.82851,-5.011135 -9.47291,0 -16.98219,1.670378 -22.53155,5.011135 -4.03118,2.345954 -6.04306,4.417224 -6.04306,6.228657 V 126.49963 H 130.01114 V 68.15516 c 0,-11.017075 6.19896,-19.821827 18.59688,-26.40683 10.5902,-5.686712 22.73942,-8.530067 36.44395,-8.530067 16.83741,0 30.84632,3.927246 42.03786,11.778025 11.0876,-7.854491 24.99629,-11.781737 41.73348,-11.781737 13.81589,0 26.05791,2.843355 36.74091,8.530067 12.39792,6.588715 18.59688,15.389755 18.59688,26.403118 v 58.359314 z m 47.52784,0 H 345.22643 V 36.328879 h 26.46622 V 126.50705 Z M 474.46548,67.657758 c -0.33408,-1.622123 -2.32368,-3.552339 -5.99852,-5.746102 -5.62732,-3.363029 -13.25167,-5.011136 -22.8285,-5.011136 -9.47291,0 -16.97105,1.688938 -22.53156,5.033407 -3.91611,2.360802 -5.89086,4.417224 -5.89086,6.228657 V 93.1366 c 0,1.829992 1.95248,3.979213 5.89458,6.391982 1.99703,1.213808 4.28359,2.152928 6.81143,2.902748 v -0.052 c 3.34076,1.01708 7.1121,1.65924 11.34373,1.91537 l 0.0854,0.0111 0.1856,0.0111 0.53823,0.0297 0.11136,0.007 0.14848,0.007 0.27097,0.0111 h 0.0111 l 0.25983,0.0111 0.16333,0.007 h 0.11136 l 0.27097,0.0111 h 0.0445 l 0.23386,0.007 h 0.27468 l 0.2784,0.0111 h 0.27468 l 0.23386,0.007 h 0.43058 l 0.15962,0.007 h 0.2821 c 9.57684,0 17.20862,-1.6481 22.82851,-5.011133 3.67483,-2.190052 5.66444,-4.120267 6.00223,-5.753526 l 25.5271,6.763179 c -2.19748,7.69488 -8.06979,14.08686 -17.61322,19.1611 -10.69042,5.67928 -22.93986,8.53749 -36.74833,8.53749 h -0.25241 l -0.25984,-0.007 h -0.25241 l -0.25984,-0.007 h -0.25241 l -0.25241,-0.007 h -0.25984 l -0.12249,-0.007 h -0.13363 l -0.24499,-0.007 -0.2487,-0.007 h -0.25613 l -1.26206,-0.052 -0.2487,-0.007 -0.11879,-0.007 -0.12991,-0.007 -1.00223,-0.0557 -0.11136,-0.007 c -3.45212,-0.20787 -6.8003,-0.60505 -10.03712,-1.19525 v -0.0223 c -7.47216,-1.38456 -14.35783,-3.84187 -20.72012,-7.27543 -12.27914,-6.61469 -18.4484,-15.38604 -18.4484,-26.399401 V 68.151448 c 0,-11.013363 6.15442,-19.806979 18.4484,-26.403118 10.57907,-5.679288 22.732,-8.530067 36.44024,-8.530067 13.80846,0 26.05791,2.847067 36.74091,8.530067 9.54714,5.077951 15.41573,11.469933 17.61321,19.161098 l -25.53823,6.755754 z M 358.46325,0.00371195 c 7.30512,0 13.2294,5.92798815 13.2294,13.22939905 0,7.312546 -5.9317,13.23311 -13.23311,13.23311 -7.30141,0 -13.23311,-5.927988 -13.23311,-13.236822 C 345.22643,5.9317001 351.15442,0 358.45954,0" />
</svg>
