<svg id="APART" width="500" height="130.93" viewBox="0 0 500 130.93" version="1.1" xml:space="preserve" xmlns:xlink="http://www.w3.org/1999/xlink" xmlns="http://www.w3.org/2000/svg" xmlns:svg="http://www.w3.org/2000/svg">
	<path id="AP" style="fill:#000000;stroke:#000000;stroke-width:0" d="M 206.98319,11.903942 C 200.59455,2.3618592 183.70016,1.6649171 171.01323,1.6649171 c -9.53778,0 -16.7137,1.0497152 -28.5316,1.2261018 h -2.53825 c -0.87332,0 -1.57457,0.5248576 -1.57457,1.312144 0,0.7012442 0.70125,1.2261018 1.57457,1.2261018 h 1.66492 c 3.58366,0 6.47468,2.0994304 6.47468,4.8140623 v 81.740118 c 0,7.525934 -16.80085,5.304762 -18.64105,0.352774 C 129.08916,91.286503 76.844315,7.0081396 76.143071,5.4335668 75.441827,4.3795495 74.740583,2.1940769 73.690867,2.1940769 c -0.963672,0 -2.09943,1.7509593 -2.714632,2.8867168 -0.08604,0.086042 -0.172084,0.2624288 -0.172084,0.3527731 C 69.92652,6.8274509 16.627661,90.580957 16.627661,90.580957 13.826986,93.467674 10.940269,97.232021 4.8140627,97.232021 H 1.7509594 C 0.70124417,97.232021 0,97.761181 0,98.286039 c 0,0.696942 0.70124417,1.226102 1.7509594,1.226102 H 36.933627 c 1.049715,0 1.923044,-0.524858 1.923044,-1.226102 0,-0.524858 -0.877631,-1.049715 -1.923044,-1.049715 h -0.701244 c -4.198861,0 -10.239025,-2.366162 -11.112354,-4.728021 -0.438815,-0.873329 0.877631,-4.112818 1.398186,-4.637676 L 50.149713,50.063671 H 70.976235 91.54463 c 10.23903,16.631963 21.35138,34.743853 24.94364,41.399219 0.34847,0.524858 0.52486,0.873329 0.52486,1.574573 0,2.361859 -3.23519,4.203163 -7.87717,4.203163 -1.04971,0 -1.92304,0.524857 -1.92304,1.049715 0,0.696942 0.87763,1.226102 1.92304,1.226102 h 57.2396 c 1.05401,0 1.75096,-0.701245 1.75096,-1.402489 0,-0.701244 -0.69695,-1.312144 -1.75096,-1.312144 h -1.48853 c -3.58796,0 -6.65107,-2.09943 -6.65107,-4.814062 V 10.415412 c 0,-0.8733287 0.6152,-1.7509595 1.48853,-2.2758171 0.70125,-0.6152019 1.57458,-0.7872864 2.62429,-0.7872864 1.31214,-0.1763866 5.60135,-0.5248576 8.1396,-0.5248576 15.05308,0 22.22901,5.7777361 24.50482,9.1893101 5.77774,8.402024 -1.40249,19.165907 -15.22947,24.853298 -2.88672,1.312144 -8.40203,2.361859 -9.62813,2.538246 -0.96367,0.172084 -1.66491,0.524857 -1.66491,1.226102 0,0.963673 0.70124,1.140059 1.66491,1.837001 2.62429,2.189775 14.2658,-3.587961 17.67738,-4.986147 18.46896,-7.705082 25.4685,-20.830824 19.17021,-29.581319 z M 70.976235,45.774466 H 52.864346 l 18.111889,-28.970419 0.176387,-0.262428 c 0,0 8.225637,13.654901 17.939805,29.232847 z" />
	<path id="A" style="fill:#000000;stroke:#000000;stroke-width:0" d="m 322.9423,97.232021 h -0.78729 c -4.11281,0 -10.32506,-2.538245 -11.28874,-4.904407 C 310.5135,91.277899 258.3547,6.9995354 257.65346,5.4249626 c -0.69695,-1.0540173 -1.39819,-3.23949 -2.44791,-3.23949 -0.96367,0 -2.01338,1.7509594 -2.62428,2.8867168 -0.0904,0.090344 -0.17639,0.2667309 -0.17639,0.3570753 -0.96367,1.3981862 -54.17219,85.1516923 -54.17219,85.1516923 -2.88671,2.886717 -5.69169,6.651064 -11.8136,6.651064 h -2.89101 c -1.04972,0 -1.92735,0.524858 -1.92735,1.049716 0,0.696942 0.87763,1.226101 1.92735,1.226101 h 35.00628 c 1.04971,0 1.92734,-0.524857 1.92734,-1.226101 0,-0.524858 -0.87763,-1.049716 -1.92734,-1.049716 h -0.78729 c -4.11282,0 -10.15298,-2.366161 -11.11235,-4.72802 -0.35278,-0.873329 0.96367,-4.112819 1.48853,-4.637676 l 23.62719,-37.806956 h 20.83083 20.47805 c 10.41541,16.631963 21.35568,34.743852 24.94364,41.399219 0.34847,0.524857 0.70124,0.873329 0.70124,1.574573 0,2.361859 -3.41157,4.203163 -8.04925,4.203163 -1.05401,0 -2.01338,0.524857 -2.01338,1.049715 0,0.696942 0.96367,1.226102 2.01338,1.226102 h 32.29165 c 1.05402,0 1.92735,-0.524858 1.92735,-1.226102 -0.004,-0.524858 -0.87763,-1.054018 -1.93165,-1.054018 z M 252.57696,45.774466 h -18.11188 l 18.11619,-28.970419 0.17638,-0.262428 c 0,0 8.1396,13.654901 17.85377,29.232847 z" />
	<path id="R" style="fill:#000000;stroke:#000000;stroke-width:0" d="m 448.53384,117.9768 c 4.37955,3.58796 10.41541,7.87717 19.9575,8.84084 -2.01339,2.27582 -6.47898,4.11282 -11.64152,4.11282 -6.65106,0 -9.88625,-2.18977 -16.01676,-7.35231 -14.52823,-12.60088 -80.42797,-70.799846 -87.78028,-77.10244 -0.87763,-0.701244 -1.66492,-0.87763 -1.66492,-1.660615 0,-0.87763 0.52486,-1.226102 1.66492,-1.402488 1.2261,-0.176387 6.65106,-1.226102 9.45174,-2.538246 14.00337,-5.687391 21.00291,-16.455576 15.22947,-24.853298 -2.27582,-3.411574 -9.45174,-9.0129234 -24.32844,-9.0129234 -2.71463,0 -6.82745,0.1720845 -8.05355,0.348471 -1.14006,0 -2.18547,0.1720845 -2.88672,0.7872864 -0.70124,0.5248576 -1.2261,1.4024884 -1.2261,2.275817 v 81.568034 c 0,2.71033 2.80067,4.814062 6.38864,4.814062 h 1.66491 c 0.87763,0 1.75096,0.615202 1.75096,1.312144 0,0.701244 -0.87333,1.402489 -1.75096,1.402489 H 322.9466 c -0.95937,0 -1.837,-0.701245 -1.837,-1.402489 0,-0.701244 0.87763,-1.312144 1.837,-1.312144 h 1.57888 c 3.58796,0 6.47467,-2.09943 6.47467,-4.814062 V 10.415412 c 0,-2.6242881 -2.88671,-4.8140629 -6.47467,-4.8140629 h -1.57888 c -0.95937,0 -1.837,-0.7012441 -1.837,-1.3981862 0,-0.7872864 0.87763,-1.312144 1.837,-1.312144 h 2.27582 c 11.8179,-0.1763866 19.16591,-1.2261018 28.5316,-1.2261018 12.86762,0 29.75771,0.7012442 36.23239,10.2390249 6.21224,9.275353 -1.66492,22.052624 -17.93981,28.264873 -3.0631,1.140059 -8.22564,3.587961 -6.47468,5.252878 -0.004,0 75.60961,66.076127 82.96192,72.555107" />
	<path id="T" style="fill:#000000;stroke:#000000;stroke-width:0" d="m 449.6696,7.3523085 h -30.27826 c -3.59227,0 -6.47898,2.3618592 -6.47898,5.0764915 v 1.049715 c 0,0.701244 -0.69694,1.226102 -1.837,1.226102 -0.87763,0 -1.75096,-0.524858 -1.75096,-1.226102 V 1.4885306 C 409.3287,0.7872864 410.20203,0 411.25174,0 c 1.13576,0 5.42496,2.7146323 8.84084,2.7146323 h 69.13923 C 492.81978,2.7146323 497.10898,0 498.24904,0 499.12237,0 500,0.7872864 500,1.4885306 V 13.478515 c 0,0.701244 -0.70124,1.226102 -1.75096,1.226102 -0.87763,0 -1.66492,-0.524858 -1.66492,-1.226102 V 12.4288 c 0,-2.7146323 -2.80067,-5.0764915 -6.38863,-5.0764915 H 459.82688 V 91.983445 c 0,2.710331 2.88672,4.814063 6.47468,4.814063 h 1.66492 c 0.87333,0 1.75096,0.615202 1.75096,1.312144 0,0.701244 -0.87763,1.402489 -1.75096,1.402489 h -26.34613 c -0.96368,0 -1.837,-0.701245 -1.837,-1.402489 0,-0.701244 0.87332,-1.312144 1.837,-1.312144 h 1.57457 c 3.58796,0 6.47468,-2.09943 6.47468,-4.814063 z" />
</svg>
