<svg
   width="137.76192mm"
   height="36.158833mm"
   viewBox="0 0 137.76192 36.158833"
   version="1.1"
   id="svg51747"
   xml:space="preserve"
   xmlns="http://www.w3.org/2000/svg"
   xmlns:svg="http://www.w3.org/2000/svg"><defs
     id="defs51744" /><g
     id="layer1"
     transform="translate(-149.64682,44.097057)"><path
       style="fill:#000000;stroke-width:0.284916"
       d="m 273.27953,-8.4944205 c -1.08079,-0.534992 -26.44448,-22.6020315 -26.65954,-23.1944615 -0.0532,-0.14647 0.49477,-0.41718 1.21766,-0.60159 2.04326,-0.52124 3.89147,-1.56196 5.09758,-2.87045 2.17624,-2.36093 1.73361,-4.4368 -1.26611,-5.93787 -1.41811,-0.70963 -2.10872,-0.86228 -4.34304,-0.96 -1.84897,-0.0809 -2.78642,-0.009 -3.08312,0.23763 -0.36578,0.30356 -0.42635,2.00621 -0.42635,11.98434 v 11.63051 l 0.63323,0.44353 c 0.34827,0.24394 0.92523,0.44353 1.28212,0.44353 0.56631,0 0.99395,0.563663 0.43521,0.573646 -8.35168,0.14925 -16.88126,0.0034 -16.88126,-0.288736 0,-0.1567 0.36013,-0.28491 0.80029,-0.28491 0.44016,0 1.04807,-0.18119 1.35092,-0.40263 0.5424,-0.39662 0.5415,-0.42108 -0.06,-1.63827 -0.33585,-0.6796 -1.89332,-3.35114 -3.46105,-5.93675 l -2.85043,-4.70111 -5.81463,-0.0769 -5.81463,-0.0768 -3.17695,5.08925 c -3.89511,6.23968 -3.98511,6.44735 -3.05771,7.05501 0.38159,0.25003 1.21465,0.52445 1.85126,0.60984 2.76247,0.37052 1.06267,0.648186 -3.9681,0.648186 -2.98662,0 -5.43022,-0.111896 -5.43022,-0.248666 0,-0.13676 0.64831,-0.31096 1.44069,-0.3871 1.12226,-0.10783 1.6418,-0.33545 2.35056,-1.0298 0.50042,-0.49025 4.30748,-6.26879 8.46013,-12.84119 4.15265,-6.57241 7.69466,-12.01295 7.87113,-12.0901 0.184,-0.0804 3.64699,5.27704 8.11831,12.55956 6.92777,11.28335 7.90792,12.74598 8.78785,13.11364 1.26202,0.5273 3.39763,0.3176 3.91065,-0.384 0.29313,-0.40087 0.37348,-2.93714 0.37348,-11.78953 0,-12.18338 -0.0429,-12.53934 -1.51197,-12.5496 -0.83334,-0.006 -1.50246,-0.4297 -1.08528,-0.68753 0.17201,-0.10631 2.9807,-0.26991 6.24153,-0.36355 8.2138,-0.23589 10.90822,0.354 12.51626,2.74018 1.6806,2.49384 -0.1419,5.47616 -4.65583,7.61874 -1.15637,0.54889 -2.10249,1.10394 -2.10249,1.23345 0,0.27914 22.84905,20.259479 24.28103,21.232535 0.54194,0.368259 1.64691,0.8859445 2.45549,1.1504175 0.80858,0.264474 1.47014,0.536751 1.47014,0.605062 0,0.06831 -0.44462,0.309977 -0.98805,0.537038 -1.3748,0.574427 -2.93634,0.514792 -4.30876,-0.164553 z M 223.82502,-31.827242 c -0.20191,-0.55744 -4.37692,-7.41231 -4.51991,-7.42117 -0.13166,-0.008 -4.53436,6.84827 -4.78734,7.45543 -0.0522,0.12536 2.0419,0.22794 4.65363,0.22794 2.77026,0 4.70903,-0.10924 4.65362,-0.2622 z m -74.17308,14.7929 c 0.0968,-0.1567 0.69824,-0.28491 1.33643,-0.28491 0.98804,0 1.33747,-0.17981 2.35323,-1.2109 0.65608,-0.66599 4.43901,-6.33937 8.40651,-12.60752 3.96749,-6.26815 7.4343,-11.63129 7.70401,-11.91809 0.46866,-0.49836 0.83616,0.041 8.2948,12.17464 8.28945,13.48517 8.34881,13.56187 10.49589,13.56187 0.57128,0 1.14925,-0.25338 1.59521,-0.69934 l 0.69934,-0.69934 v -11.20373 c 0,-12.45829 0.0267,-12.27901 -1.88143,-12.63697 -2.1874,-0.41036 -0.2495,-0.72281 5.50873,-0.88817 6.37194,-0.18299 8.63999,0.0456 10.65578,1.07398 4.28396,2.18551 2.84814,6.71968 -3.01474,9.52026 -3.23322,1.54444 -4.60383,1.93704 -5.35636,1.5343 -0.72314,-0.38701 -0.44333,-0.59777 1.62443,-1.22352 2.05915,-0.62314 3.44737,-1.46945 4.64174,-2.82975 2.97564,-3.38907 -0.15596,-6.7354 -6.30318,-6.7354 -1.93192,0 -2.45445,0.0959 -2.8392,0.52104 -0.42169,0.46596 -0.47112,1.6781 -0.46764,11.46786 0.002,6.02075 0.0771,11.21967 0.1666,11.55315 0.1727,0.64352 1.19854,1.24563 2.12224,1.24563 0.30603,0 0.55643,0.12821 0.55643,0.28491 0,0.18351 -2.99162,0.284918 -8.40502,0.284918 -5.4134,0 -8.40502,-0.101408 -8.40502,-0.284918 0,-0.1567 0.32896,-0.28491 0.73102,-0.28491 1.00335,0 1.83485,-0.49131 1.82519,-1.07846 -0.004,-0.26872 -1.5245,-2.98872 -3.37797,-6.04444 l -3.36994,-5.55586 -5.81056,-0.0757 -5.81055,-0.0757 -3.21562,5.14887 c -1.76859,2.83188 -3.29108,5.52619 -3.38331,5.98735 -0.15092,0.75456 -0.0653,0.88129 0.85591,1.26617 0.56298,0.23523 1.34068,0.42769 1.72823,0.42769 0.38754,0 0.78386,0.12822 0.88071,0.28492 0.11505,0.18615 -1.71214,0.284915 -5.27094,0.284915 -3.55881,0 -5.38599,-0.09877 -5.27095,-0.284915 z m 21.99608,-18.37395 c -1.28528,-2.11378 -2.40099,-3.84297 -2.47934,-3.84265 -0.0784,3.5e-4 -1.03388,1.44132 -2.12341,3.20219 -1.0895,1.76087 -2.162,3.49006 -2.38331,3.84265 l -0.40239,0.64106 h 4.86267 4.86267 z m 99.35809,18.40625 c 0.0859,-0.13894 0.61208,-0.33815 1.16936,-0.4427 0.72872,-0.13671 1.09052,-0.39337 1.28848,-0.91403 0.16515,-0.43438 0.24547,-5.30014 0.2008,-12.16483 l -0.0744,-11.44087 -3.84637,-0.0847 c -4.94767,-0.10896 -5.67035,0.0219 -6.07757,1.1008 -0.57862,1.53294 -1.04532,1.01568 -1.04532,-1.15856 0,-1.09692 0.0962,-1.99248 0.21368,-1.99012 0.11753,0.002 0.72654,0.18905 1.35335,0.41487 1.70572,0.6145 20.22584,0.62313 21.69302,0.0101 0.56008,-0.23402 1.13292,-0.35466 1.27297,-0.2681 0.14006,0.0866 0.25465,0.98319 0.25465,1.99252 0,1.40163 -0.0963,1.83514 -0.40755,1.83514 -0.22416,0 -0.44853,-0.28527 -0.49861,-0.63393 -0.16403,-1.14211 -1.16814,-1.36567 -5.78936,-1.28896 l -4.27374,0.0709 v 11.90574 c 0,12.9877 -0.0941,12.26385 1.6442,12.64155 1.9272,0.41873 0.78278,0.667758 -3.06877,0.667758 -2.34905,0 -4.09684,-0.110138 -4.00879,-0.252618 z"
       id="path66495" /></g></svg>
