<svg
   width="2499.8315"
   height="553"
   viewBox="0 0 134.45294 29.745"
   version="1.1"
   id="svg2"
   xmlns="http://www.w3.org/2000/svg"
   xmlns:svg="http://www.w3.org/2000/svg">
  <defs
     id="defs2" />
  <g
     fill-rule="evenodd"
     clip-rule="evenodd"
     fill="#c7232d"
     id="g2"
     style="fill:#000000"
     transform="translate(-0.00453293)">
    <path
       d="m 25.111,21.301 c 6.058,-3.127 6.498,-8.94 6.547,-10.26 0,-0.244 0,-1.271 1.172,-1.319 0.685,-0.049 2.053,0 3.372,-0.732 C 35.127,7.915 33.613,7.866 32.244,7.915 30.583,4.593 26.658,5.364 26.658,5.364 L 24.815,0 H 10.65 L 6.102,12.995 H 0 c 0,1.563 0.391,3.169 1.954,3.169 v 0.004 C 0.391,16.168 0,18.076 0,19.337 h 3.882 l -3.491,9.976 h 8.794 l 2.736,-7.816 h 4.597 l 2.197,7.835 H 34.757 L 30.559,16.907 c -1.035,2.43 -3.884,4.133 -5.448,4.394 z M 27.945,7.334 c 0.06,0 0.118,0.01 0.176,0.018 L 27.554,8.892 29.24,8.47 c 0.007,0.059 0.018,0.117 0.018,0.177 A 1.313,1.313 0 1 1 27.945,7.334 Z m -10.01,-3.053 1.373,4.887 c 0,0 -3.004,1.495 -3.901,2.368 z m 3.219,13.492 -1.309,1.563 2.474,8.804 H 20.703 L 18.23,19.336 H 8.5 L 9.331,17.768 H 2.784 c 0,-0.977 0.857,-1.604 1.541,-1.604 -0.684,0 -1.541,-0.628 -1.541,-1.605 h 11.564 c 1.969,-1.563 5.03,-3.875 7.392,-4.69 0.244,-2.589 1.466,-3.322 3.127,-3.958 -2.052,1.271 -1.954,4.104 -1.954,4.104 -2.736,1.075 -8.956,5.662 -9.69,7.758 z m 3.263,10.368 -1.679,-5.974 1.556,-0.389 1.788,6.362 h -1.665 z"
       id="path1"
       style="fill:#000000" />
    <path
       d="m 52.914,29.319 h -5.469 v -3.406 h -0.067 c -1.2,2.661 -3.602,3.832 -6.336,3.832 -4.736,0 -6.637,-3.549 -6.637,-7.381 V 10.832 h 6.003 v 8.941 c 0,3.478 1.134,4.648 2.768,4.648 2.468,0 3.735,-1.81 3.735,-5.784 v -7.806 h 6.003 z M 70.259,16.118 c -1.101,-0.709 -2.2,-1.028 -3.634,-1.028 -2.602,0 -4.603,1.916 -4.603,5.109 0,2.945 2.334,4.861 4.936,4.861 1.367,0 2.734,-0.319 3.734,-0.887 l 0.134,4.755 c -1.501,0.532 -3.302,0.816 -4.902,0.816 -5.736,0 -10.104,-3.549 -10.104,-9.652 0,-6.139 4.368,-9.687 10.104,-9.687 1.801,0 3.401,0.319 4.769,1.029 z M 73.33,5.539 h 6.003 v 8.025 H 79.4 c 1.3,-1.917 3.201,-3.159 5.803,-3.159 4.735,0 6.637,3.548 6.637,7.38 v 11.533 h -6.004 v -8.942 c 0,-3.478 -1.134,-4.648 -2.768,-4.648 -2.468,0 -3.735,1.81 -3.735,5.784 v 7.807 H 73.33 Z m 33.62,23.78 c -0.033,-0.994 -0.134,-1.952 -0.134,-2.91 h -0.066 c -1.367,2.307 -3.035,3.336 -5.503,3.336 -3.435,0 -6.503,-1.81 -6.503,-5.82 0,-5.642 5.77,-6.315 8.971,-6.315 0.968,0 2.035,0.106 2.802,0.248 -0.033,-2.52 -1.801,-3.194 -3.969,-3.194 -1.935,0 -3.868,0.39 -5.536,1.384 l -0.1,-4.329 c 2.134,-0.922 4.369,-1.313 6.937,-1.313 4.436,0 8.271,2.023 8.271,7.665 v 6.884 c 0,1.455 0.066,2.91 0.334,4.365 h -5.504 z m -4.136,-3.833 c 2.269,0 3.702,-2.2 3.702,-4.364 -0.767,-0.035 -1.634,-0.106 -2.534,-0.106 -2.034,0 -3.635,0.674 -3.635,2.448 0.001,1.277 1.067,2.022 2.467,2.022 z m 13.139,-14.654 h 5.469 v 3.406 h 0.066 c 1.201,-2.662 3.603,-3.833 6.337,-3.833 4.735,0 6.637,3.548 6.637,7.38 v 11.533 h -6.003 v -8.942 c 0,-3.478 -1.134,-4.648 -2.769,-4.648 -2.468,0 -3.735,1.81 -3.735,5.784 v 7.807 h -6.002 z"
       id="path2"
       style="fill:#000000" />
  </g>
</svg>
