<svg id="AUCHAN" width="500" height="110.60746" viewBox="0 0 500 110.60746" version="1.1" xml:space="preserve" xmlns:xlink="http://www.w3.org/1999/xlink" xmlns="http://www.w3.org/2000/svg" xmlns:svg="http://www.w3.org/2000/svg">
	<path id="AUCHAN" style="fill:#000000;stroke:#000000;stroke-width:0" d="m 196.76191,109.02337 h -20.3366 V 96.358079 h -0.24914 c -4.46223,9.894991 -13.39412,14.249381 -23.56056,14.249381 -17.61092,0 -24.67984,-13.197039 -24.67984,-27.446418 V 40.279038 h 22.3223 v 33.247311 c 0,12.933022 4.2168,17.283694 10.29287,17.283694 9.17731,0 13.88868,-6.730526 13.88868,-21.507935 V 40.275319 h 22.32229 z m 64.49778,-49.088221 c -4.0941,-2.636433 -8.18075,-3.822641 -13.51311,-3.822641 -9.6756,0 -17.11636,7.124689 -17.11636,18.997932 0,10.951049 8.67903,18.075739 18.35462,18.075739 5.08322,0 10.16644,-1.186209 13.88497,-3.29833 l 0.49828,17.681571 c -5.5815,1.97826 -12.27856,3.03432 -18.2282,3.03432 -21.32945,0 -37.57195,-13.197038 -37.57195,-35.891182 0,-22.828011 16.2425,-36.021329 37.57195,-36.021329 6.69706,0 12.6467,1.186208 17.73364,3.82636 z m 11.41958,-39.338252 h 22.32229 v 29.841145 h 0.24914 c 4.83408,-7.128408 11.90299,-11.746813 21.57859,-11.746813 17.60721,0 24.67984,13.193318 24.67984,27.442697 V 109.01965 H 319.18311 V 75.768619 c 0,-12.933022 -4.2168,-17.283694 -10.29287,-17.283694 -9.17731,0 -13.88868,6.730526 -13.88868,21.507935 v 29.03051 H 272.67927 Z M 397.696,109.02337 c -0.12271,-3.69621 -0.49828,-7.25856 -0.49828,-10.820904 h -0.24542 c -5.08322,8.578634 -11.28572,12.404994 -20.46303,12.404994 -12.77313,0 -24.18155,-6.73053 -24.18155,-21.641804 0,-20.979905 21.45587,-23.482471 33.35886,-23.482471 3.59953,0 7.5672,0.394163 10.4193,0.922193 -0.12271,-9.370677 -6.69706,-11.876961 -14.75881,-11.876961 -7.19535,0 -14.38325,1.450224 -20.58575,5.146435 l -0.37185,-16.097484 c 7.93533,-3.428478 16.24623,-4.882421 25.79539,-4.882421 16.49537,0 30.75591,7.522572 30.75591,28.502477 v 25.59831 c 0,5.410451 0.24542,10.820906 1.24198,16.231356 H 397.696 Z m -15.37981,-14.2531 c 8.43733,0 13.76597,-8.18075 13.76597,-16.227633 -2.8521,-0.130149 -6.07606,-0.394164 -9.42273,-0.394164 -7.56348,0 -13.51683,2.506284 -13.51683,9.102944 0.004,4.748553 3.96766,7.518853 9.17359,7.518853 z m 48.85767,-54.491232 h 20.3366 v 12.665288 h 0.24543 c 4.46594,-9.898707 13.39783,-14.253097 23.56427,-14.253097 17.60721,0 24.67984,13.193318 24.67984,27.442697 V 109.01965 H 477.67771 V 75.768619 c 0,-12.933022 -4.21681,-17.283694 -10.29659,-17.283694 -9.17732,0 -13.88868,6.730526 -13.88868,21.507935 v 29.03051 H 431.17386 Z M 93.375824,79.208252 c 22.526806,-11.62782 24.162956,-33.243593 24.345166,-38.152043 0,-0.907319 0,-4.726242 4.35811,-4.904731 2.54719,-0.182208 7.63413,0 12.53886,-2.721959 C 130.62055,29.432107 124.9907,29.2499 119.90005,29.432107 113.72358,17.079175 99.128378,19.946156 99.128378,19.946156 L 92.275141,0 H 39.602267 L 22.690426,48.322203 H 0 c 0,5.812051 1.4539424,11.783998 7.2659934,11.783998 v 0.01487 C 1.4539424,60.121075 0,67.216016 0,71.905074 H 14.435305 L 1.4539424,109.00106 H 34.154631 L 44.328509,79.937083 h 17.094049 l 8.169594,29.134627 H 129.24469 L 113.63434,62.869063 C 109.78566,71.905074 99.191593,78.237718 93.375824,79.208252 Z M 103.91412,27.271646 c 0.22311,0 0.43878,0.03719 0.65446,0.06693 l -2.10841,5.726525 6.26943,-1.569217 c 0.026,0.219393 0.0669,0.435067 0.0669,0.658179 a 4.8824203,4.8824203 0 1 1 -4.88242,-4.88242 z m -37.222415,-11.35265 5.105531,18.17242 c 0,0 -11.170442,5.559192 -14.505957,8.805462 z m 11.969924,50.170308 -4.867546,5.812051 9.199625,32.737875 H 76.984576 L 67.788669,71.901355 H 31.607443 l 3.090092,-5.830644 H 10.352367 c 0,-3.632996 3.186774,-5.96451 5.730244,-5.96451 -2.54347,0 -5.730244,-2.335232 -5.730244,-5.968229 H 53.353364 C 60.675135,48.325921 72.057533,39.728697 80.840684,36.698101 81.748003,27.070845 86.292038,24.345168 92.468504,21.980188 84.838096,26.70643 85.202511,37.241005 85.202511,37.241005 75.028633,41.238417 51.899421,58.29528 49.170026,66.089304 Z m 12.13354,38.553646 -6.2434,-22.214457 5.786022,-1.446506 6.648718,23.657243 h -6.19134 z" />
</svg>
