<svg
   version="1.1"
   id="svg1"
   width="722.05823"
   height="694.60846"
   viewBox="0 0 722.05823 694.60846"
   xmlns="http://www.w3.org/2000/svg"
   xmlns:svg="http://www.w3.org/2000/svg">
  <defs
     id="defs1" />
  <g
     id="g1"
     transform="translate(-829.57874,257.72033)">
    <path
       style="fill:#000000"
       d="m 1158.0859,435.90591 c -65.6979,-6.72826 -127.9129,-33.55048 -178.49997,-76.95513 -11.4429,-9.81815 -30.9749,-29.7723 -40.5327,-41.40861 -4.0658,-4.95 -11.77164,-13.725 -17.12405,-19.5 -52.63901,-56.79513 -80.70233,-115.99236 -91.0204,-192 -1.98023,-14.587274 -1.69026,-61.366904 0.4773,-77.000004 9.01326,-65.00646 32.77174,-119.62924 73.35499,-168.649416 9.70589,-11.72366 30.49056,-32.49777 42.34486,-42.32332 38.664,-32.04718 86.45597,-55.53915 135.15537,-66.43519 27.9963,-6.2639 62.1647,-9.31242 86.8868,-7.75206 7.4774,0.47194 15.9865,0.47272 19,0.002 10.2199,-1.59726 53.0004,-2.18471 66.6003,-0.91454 76.1502,7.11206 144.2964,38.2482 198.2284,90.57095 53.5937,51.99465 86.1993,116.825326 96.8158,192.501836 2.4858,17.7194 2.4858,65.2806 0,83.000004 -5.3101,37.85141 -14.683,68.84122 -30.6987,101.5 -12.921,26.34796 -27.1072,47.97953 -45.1945,68.9138 -5.6615,6.55259 -13.7215,16.59989 -17.9112,22.32732 -41.5158,56.7535 -98.3726,98.31385 -163.7135,119.66876 -22.3501,7.30453 -41.3711,11.37632 -66.1688,14.16462 -13.8065,1.55242 -53.9966,1.72337 -68,0.28924 z m 48.5,-46.02944 c 54.6611,-8.14192 111.3249,-33.98471 155.8627,-71.08471 63.8246,-53.16588 104.12,-127.83238 114.8148,-212.74959 1.9892,-15.794444 1.6861,-62.250694 -0.5056,-77.500004 -5.4402,-37.8503098 -14.3168,-67.99579 -29.2452,-99.31859 -11.7396,-24.63195 -17.4503,-33.205096 -31.4282,-47.181406 -37.2888,-37.28456 -84.7711,-65.30764 -136.3759,-80.48625 -49.9548,-14.69332 -104.0245,-16.89887 -156.6226,-6.38879 -47.4055,9.47248 -98.7529,33.48083 -136.54747,63.84509 -10.8398,8.70866 -14.6779,12.81981 -22.9012,24.52995 -30.4457,43.355496 -48.84387,91.809776 -56.1959,147.999996 -2.33655,17.85783 -2.32603,57.97323 0.0199,76.000004 8.02859,61.69303 29.9538,114.46447 67.8707,163.3569 10.1624,13.10406 37.79487,40.98138 51.23607,51.69017 42.5537,33.90305 93.9665,57.35028 145.5178,66.36463 17.8104,3.11435 19.4849,3.15913 34.5,0.9226 z"
       id="path1" />
    <path
       style="fill:#000000;stroke-width:0.376621"
       d="m 1141.2968,107.75445 c -4.0836,-0.73918 -9.768,-2.86441 -13.2656,-4.95959 -3.5395,-2.12032 -8.6738,-6.832224 -11.0062,-10.100894 -3.4988,-4.90312 -6.0698,-11.39835 -7.1253,-18.00097 -1.0832,-6.77626 -1.3507,-14.82162 -1.5778,-47.45548 l -0.2303,-33.0851198 12.5775,0.27166 c 6.9177,0.14941 12.6105,0.2977 12.6508,0.32954 0.04,0.0318 0.304,16.2384798 0.5861,36.0147498 l 0.5128,35.95686 2.1469,4.29883 c 2.2449,4.49509 3.4146,6.27102 5.3273,8.08854 4.4219,4.2017 13.0022,6.50697 20.7956,5.58716 11.7246,-1.38379 19.5581,-7.92507 21.7508,-18.16284 1.2735,-5.94627 1.4226,-9.74567 1.6067,-40.95759 l 0.1849,-31.3537298 h 12.394 12.394 V 49.588926 104.95228 h -11.2408 -11.2408 l -0.244,-4.4253 c -0.2683,-4.865114 -0.7601,-7.180934 -1.5929,-7.500504 -0.7472,-0.28675 -1.767,0.44383 -5.6622,4.05662 -7.7648,7.201884 -12.1585,9.410724 -21.2384,10.677134 -5.1007,0.71143 -14.5571,0.70848 -18.5031,-0.006 z"
       id="path2" />
    <path
       style="fill:#000000;stroke-width:0.753243"
       d="m 960.07483,105.82538 c -0.3651,-0.59088 20.139,-52.273474 44.58137,-112.3712838 13.1304,-32.2845102 14.2263,-34.7822302 15.7734,-35.9491102 1.4294,-1.0781 21.7654,-1.33878 23.4028,-0.3 1.209,0.76692 6.9061,14.47264 28.3824,68.28017 18.9077,47.37212 31.2787,79.101094 31.2787,80.222944 0,0.47357 -5.5307,0.75067 -14.983,0.75067 h -14.9831 l -1.288,-3.20128 c -0.7084,-1.76071 -2.7955,-7.244564 -4.638,-12.186334 -4.078,-10.93725 -5.2483,-13.00004 -7.7283,-13.62248 -2.5343,-0.63607 -54.1668,-0.61786 -56.7082,0.02 -2.2931,0.57555 -4.57787,5.20791 -9.78677,19.84276 l -3.2476,9.124254 -14.8321,0.0115 c -8.1577,0.006 -15.0083,-0.27347 -15.2236,-0.62184 z m 91.44497,-52.030444 c 1.309,-0.37529 1.8119,-0.98393 1.6496,-1.99633 -0.3047,-1.90018 -10.9448,-32.09852 -16.571,-47.0310298 -2.845,-7.55108 -4.8147,-11.75234 -5.5791,-11.8998 -0.8573,-0.1654 -1.8382,1.48773 -3.5755,6.02595 -3.3666,8.7941 -18.1056,52.5565798 -18.1056,53.7582798 0,0.62101 1.1995,1.10118 3.2013,1.28147 5.8099,0.52329 37.0593,0.41222 38.9803,-0.13854 z"
       id="path4" />
    <path
       style="fill:#000000;stroke-width:0.753243"
       d="M 1234.5578,49.699456 V -5.7744238 h 11.6753 11.6752 v 5.29633996 c 0,7.15367004 1.1038,7.51861004 6.3838,2.11073004 5.6339,-5.7703 16.6363,-11.17329 22.7528,-11.17329 1.6679,0 1.7464,0.24878 1.7464,5.53361 0,3.04347996 -0.2186,8.61398 -0.4859,12.37888 l -0.4859,6.8452798 -5.3517,0.88422 c -2.9435,0.48632 -6.9654,1.56879 -8.9375,2.4055 -4.671,1.98166 -11.2859,9.05552 -12.6168,13.49199 -0.7248,2.41621 -1.0653,12.34192 -1.2949,37.73934 l -0.3115,34.460864 h -6.6117 c -3.6364,0 -9.205,0.21922 -12.3746,0.48715 l -5.763,0.48715 z"
       id="path5" />
    <path
       style="fill:#000000;stroke-width:0.753243"
       d="m 1337.2911,107.94612 c -20.6134,-2.77625 -37.5874,-16.198194 -44.5172,-35.201334 -5.0523,-13.85434 -5.355,-29.70553 -0.838,-43.87004 2.9285,-9.18295 6.4788,-14.98647 13.3821,-21.8746498 5.3406,-5.32902 7.6754,-7.03537004 13.603,-9.94175 3.9357,-1.92972 9.2816,-4.04561 11.8798,-4.70199 16.822,-4.2497002 33.0952,-0.56946 44.9379,10.16283 2.738,2.48133 5.4592,4.51152 6.047,4.51152 1.0644,0 1.6878,-2.79191 2.1023,-9.41554 l 0.1885,-3.01297 11.5572,-0.6203 c 6.3564,-0.34116 11.7797,-0.39785 12.0519,-0.12597 0.2721,0.27188 0.5939,25.3797798 0.715,55.7953398 l 0.2204,55.301014 h -11.9223 -11.9223 l -0.8134,-6.075094 c -0.4473,-3.34129 -1.167,-6.42872 -1.5992,-6.86094 -0.5456,-0.54565 -2.284,0.60789 -5.6872,3.77385 -10.1271,9.421224 -25.1846,14.068614 -39.3855,12.156024 z M 1359.62,83.410916 c 11.2641,-3.33715 19.83,-12.75662 23.0614,-25.35957 1.5897,-6.20016 1.0441,-15.89269 -1.2322,-21.88839 -3.8928,-10.2534 -13.4128,-18.90951 -23.2601,-21.14923 -20.7525,-4.72005 -37.6702,4.92411 -43.4372,24.76202 -0.978,3.36429 -1.2066,6.28726 -0.9474,12.11514 0.3071,6.9059 0.6194,8.26602 3.0942,13.47733 4.4218,9.31097 12.4349,16.04511 22.4387,18.85729 4.8815,1.37226 14.1587,0.99967 20.2826,-0.81459 z"
       id="path6" />
    <path
       style="fill:#000000;stroke-width:0.188311"
       d="m 975.84253,170.3911 c -2.8738,-0.59541 -5.8864,-1.90268 -8.7127,-3.78076 -2.4787,-1.64718 -3.9837,-3.47646 -5.5372,-6.73036 -2.085,-4.36731 -2.7926,-10.00149 -1.7664,-14.06427 1.2328,-4.88065 6.3615,-11.21336 10.8923,-13.44939 3.5875,-1.77052 8.8663,-2.06263 13.9535,-0.77215 4.8112,1.22047 8.4407,3.49186 10.1192,6.33272 1.7055,2.88665 0.3802,2.74846 -4.1417,-0.43189 -2.7,-1.89893 -4.6782,-2.9151 -7.1328,-3.66395 -1.4966,-0.4566 -1.9779,-0.51154 -4.5907,-0.52404 -3.295,-0.0158 -4.4017,0.19936 -6.7625,1.31439 -4.4922,2.12178 -7.9349,6.48407 -9.3547,11.8534 -0.4751,1.79659 -0.4863,6.39465 -0.02,8.25807 1.341,5.36069 4.9084,9.86238 9.5698,12.07605 2.11,1.00206 3.7166,1.27826 6.85,1.17764 4.7883,-0.15377 7.6596,-1.23623 12.0519,-4.54355 2.4278,-1.82816 3.6847,-2.48134 4.2217,-2.19395 0.5868,0.31403 0.4807,0.79531 -0.444,2.01382 -2.1114,2.78219 -6.7935,5.83135 -10.4206,6.78624 -2.292,0.6034 -6.6866,0.77467 -8.775,0.34198 z"
       id="path7" />
    <path
       style="fill:#000000;stroke-width:0.188311"
       d="m 1011.4386,170.5538 c -5.2553,-1.12725 -9.0533,-4.63066 -10.6979,-9.86818 -0.3883,-1.23656 -0.4392,-1.75687 -0.4233,-4.32451 0.021,-3.39829 0.3553,-4.97877 1.5728,-7.43827 1.3169,-2.66024 3.1301,-4.46777 5.7785,-5.76032 1.9488,-0.95109 3.7595,-1.3265 6.3762,-1.32193 4.5608,0.008 8.0648,1.36635 10.9398,4.24103 2.3725,2.3722 3.1955,4.3594 3.4035,8.21754 l 0.1172,2.17503 -10.431,0.23297 c -13.4417,0.30021 -14.6671,0.43532 -14.9722,1.65084 -0.2529,1.00768 0.056,2.88227 0.689,4.1804 0.8636,1.77114 2.9771,3.8341 5.0078,4.88797 4.612,2.39352 8.6644,1.83903 14.0976,-1.92902 2.8201,-1.95585 3.8603,-2.36993 3.8603,-1.53673 0,1.18647 -3.0359,3.90552 -5.9358,5.31623 -2.9736,1.44655 -6.4109,1.91436 -9.3825,1.27695 z m 10.1398,-15.70469 c 3.2,-0.36013 4.4253,-0.98432 4.4253,-2.25431 0,-0.70511 -1.1292,-2.88192 -2.1677,-4.17868 -1.5783,-1.97091 -4.3555,-3.70881 -7.0595,-4.41769 -1.4976,-0.39258 -4.4101,-0.4358 -5.8377,-0.0866 -2.4956,0.61039 -4.7129,2.08767 -6.1444,4.09371 -1.1293,1.58263 -1.5763,2.79261 -1.5763,4.26703 0,1.79924 0.4628,2.23336 2.7305,2.56115 1.6042,0.23188 13.6012,0.24372 15.6298,0.0154 z"
       id="path8" />
    <path
       style="fill:#000000;stroke-width:0.188311"
       d="m 1036.0875,169.47874 c -0.2193,-0.16041 -0.4134,-0.64062 -0.5145,-1.27363 -0.089,-0.55887 -0.2125,-5.25312 -0.2737,-10.43167 -0.1471,-12.45527 0.064,-14.59408 1.4429,-14.59408 0.6249,0 1.3134,0.57259 1.3134,1.0922 0,0.52082 0.3854,0.79135 1.1204,0.78651 0.7004,-0.005 1.7582,-0.53731 3.4444,-1.73449 1.4729,-1.04578 3.3841,-1.48602 6.4513,-1.48602 6.185,0 9.6865,2.44757 10.7274,7.4984 0.8504,4.12636 0.9118,15.49926 0.1,18.51415 -0.6094,2.2631 -1.2856,-1.57327 -1.7928,-10.17082 -0.4698,-7.9652 -0.7297,-8.96477 -2.8326,-10.89169 -1.3629,-1.24879 -2.8572,-2.10651 -4.4927,-2.57867 -1.5249,-0.44022 -4.6679,-0.30903 -6.1177,0.25536 -2.2079,0.85955 -4.9565,3.24911 -5.7782,5.02348 -0.6513,1.40627 -0.7968,2.97147 -0.9017,9.698 -0.099,6.36491 -0.297,8.68284 -0.8345,9.78191 -0.3721,0.76077 -0.5818,0.86174 -1.0614,0.51106 z"
       id="path9" />
    <path
       style="fill:#000000;stroke-width:0.266312"
       d="m 1069.9436,169.28542 c -0.3838,-0.46249 -0.5658,-3.69386 -0.8124,-14.42523 -0.146,-6.3526 -0.2989,-8.98934 -0.5518,-9.51374 -0.2237,-0.46399 -0.766,-0.88443 -1.5047,-1.16656 -2.0943,-0.79981 -2.1462,-1.59049 -0.1439,-2.19041 1.7475,-0.52356 1.9325,-0.92752 2.3257,-5.07721 0.3509,-3.70257 0.8719,-5.50044 1.5314,-5.28437 0.5651,0.18514 0.9868,2.05745 1.221,5.4206 0.1488,2.13729 0.3693,3.50514 0.6289,3.90139 0.2465,0.37617 0.9995,0.79774 1.9636,1.09928 0.86,0.26901 1.8633,0.64542 2.2295,0.83645 l 0.6657,0.34734 -0.6657,0.25007 c -0.3662,0.13754 -1.4693,0.39936 -2.4513,0.58183 l -1.7854,0.33175 -0.1331,1.10396 c -0.073,0.60718 -0.2023,4.93608 -0.2867,9.61978 -0.1568,8.69214 -0.4534,13.08551 -0.9452,14.00463 -0.3207,0.59917 -0.8651,0.66711 -1.2856,0.16044 z"
       id="path12" />
    <path
       style="fill:#000000;stroke-width:0.266312"
       d="m 1084.0663,169.4074 c -0.5732,-0.36298 -0.901,-7.26671 -0.7666,-16.14508 0.1288,-8.51153 0.3185,-9.98668 1.2842,-9.98668 0.599,0 1.5038,0.43047 2.0474,0.97415 0.5523,0.55221 1.0324,0.44215 3.1354,-0.71872 2.2815,-1.25945 4.3044,-1.64728 4.893,-0.9381 0.482,0.5807 0.04,1.00798 -1.4923,1.44127 -2.3903,0.67609 -6.111,4.18888 -6.7551,6.37765 -0.1596,0.54244 -0.3897,4.58146 -0.5113,8.9756 -0.2533,9.14904 -0.5605,10.82677 -1.8347,10.01991 z"
       id="path13" />
    <path
       style="fill:#000000;stroke-width:0.266312"
       d="m 1110.245,170.67713 c -4.5151,-0.54152 -8.1509,-3.90022 -9.245,-8.54034 -0.4794,-2.03343 -0.4651,-16.43099 0.018,-18.02952 0.2299,-0.76052 0.4429,-1.07507 0.613,-0.90496 0.4232,0.42317 0.9878,4.54529 1.4277,10.42406 0.5484,7.32768 0.9059,9.965 1.4786,10.90666 0.6814,1.12054 2.0543,2.08843 4.4389,3.12951 1.7099,0.74649 2.4042,0.90626 3.9399,0.90656 4.0468,8e-4 8.2281,-2.21285 8.9012,-4.71236 0.5141,-1.90939 1.0614,-6.20915 1.3485,-10.59442 0.4548,-6.94816 0.9376,-10.20642 1.4381,-9.70592 1.0209,1.02098 1.5934,22.19704 0.6858,25.36823 -0.3449,1.20483 -0.6794,1.16304 -1.6079,-0.20085 -1.1613,-1.70599 -1.3403,-1.71461 -4.235,-0.20403 -3.8039,1.98508 -6.1169,2.52737 -9.2018,2.15738 z"
       id="path14" />
    <path
       style="fill:#000000;stroke-width:0.266312"
       d="m 1133.1672,169.13001 c -0.7178,-1.38805 -1.0237,-7.14936 -0.8568,-16.134 0.1869,-10.05363 0.3718,-10.79652 2.4149,-9.7015 1.4661,0.78579 3.0383,0.65999 5.7025,-0.45626 4.3689,-1.83049 7.9048,-1.50718 10.5637,0.96589 1.9818,1.84334 2.5137,2.13461 3.8978,2.13461 0.9909,0 1.5042,-0.1868 2.5373,-0.92348 4.1792,-2.98006 4.7399,-3.19971 8.086,-3.16744 4.9546,0.0478 8.1827,2.58939 9.4491,7.43975 1.25,4.78745 0.8789,18.91926 -0.5274,20.0864 -0.8091,0.67146 -1.0076,-0.73733 -1.2186,-8.64558 -0.1358,-5.09135 -0.3425,-8.38176 -0.6053,-9.6336 -0.7015,-3.34233 -1.9797,-5.23017 -4.3147,-6.37257 -1.3316,-0.65149 -1.6599,-0.70137 -3.9159,-0.595 -2.0202,0.0953 -2.7254,0.24929 -3.9271,0.85783 -1.5898,0.80507 -3.5529,2.53635 -4.1387,3.64995 -0.5801,1.10268 -0.8772,3.63818 -1.1822,10.0867 -0.2674,5.65627 -0.6891,10.35972 -0.9523,10.62293 -0.065,0.0651 -0.1751,0.0615 -0.2445,-0.008 -0.2434,-0.24334 -0.6656,-5.20921 -0.9412,-11.06993 -0.4016,-8.53934 -0.7302,-9.82172 -3.1051,-12.11512 -1.582,-1.52773 -3.2791,-2.15728 -5.8097,-2.15517 -2.7429,0.002 -4.4403,0.69642 -6.1359,2.5092 -2.1537,2.30241 -2.3917,3.3385 -2.7859,12.12631 -0.3092,6.89466 -0.6715,10.19422 -1.1984,10.91482 -0.3068,0.41957 -0.3787,0.38175 -0.7916,-0.41678 z"
       id="path15" />
    <path
       style="fill:#000000;stroke-width:0.266312"
       d="m 1212.5166,170.53363 c -7.0027,-1.12791 -12.7703,-5.44124 -15.5894,-11.65844 -1.1425,-2.51974 -1.6417,-4.94744 -1.6484,-8.01649 -0.019,-8.61578 5.1725,-16.15343 13.1239,-19.05534 10.1257,-3.69542 21.3894,1.46032 25.6451,11.73859 1.994,4.81567 1.9686,10.30276 -0.07,15.08061 -2.0784,4.872 -7.5901,9.66276 -12.9046,11.21669 -2.1425,0.62645 -6.6885,0.99535 -8.557,0.69438 z m 7.4276,-3.01618 c 6.0516,-1.54774 10.4949,-6.06748 12.042,-12.24908 0.6736,-2.69154 0.4118,-7.46807 -0.5684,-10.36855 -1.9053,-5.63817 -6.383,-9.88444 -11.9771,-11.35798 -2.0874,-0.54986 -6.4291,-0.54623 -8.4974,0.007 -9.4342,2.52397 -15.0222,13.7949 -11.6277,23.45295 1.208,3.43679 4.1633,7.03021 7.3129,8.89191 3.5575,2.10276 8.8968,2.75381 13.3157,1.62365 z"
       id="path16" />
    <path
       style="fill:#000000;stroke-width:0.266312"
       d="m 1242.2361,169.53839 c -0.7599,-0.91571 -0.8935,-4.06373 -0.7355,-17.34131 0.1439,-12.09109 0.4225,-18.25465 0.8909,-19.70706 0.6801,-2.10905 1.243,8.25417 1.2511,23.03595 0,7.81219 -0.096,12.9487 -0.2611,13.43138 -0.3158,0.92059 -0.7013,1.11615 -1.1454,0.58104 z"
       id="path17" />
    <path
       style="fill:#000000;stroke-width:0.266312"
       d="m 1258.7205,170.35397 c -3.0141,-0.83326 -5.9719,-4.22104 -5.4613,-6.25523 0.1623,-0.6467 0.2524,-0.58989 2.3496,1.48182 2.4964,2.46604 3.9345,3.30804 5.9334,3.4738 1.8297,0.15174 3.4114,-0.59301 4.9912,-2.35014 2.2334,-2.48405 2.2494,-4.79874 0.05,-7.15064 -1.1683,-1.24905 -2.4794,-2.01045 -7.1034,-4.12533 -5.0078,-2.29043 -6.8622,-5.0995 -5.7709,-8.742 0.4435,-1.4802 2.0343,-3.16575 3.8542,-4.08377 1.361,-0.68654 1.845,-0.78615 3.822,-0.78652 2.496,-4.8e-4 3.2345,0.26963 5.2891,1.93424 1.3225,1.07155 2.1652,2.31113 2.1666,3.18722 0,1.17224 -0.9577,0.67395 -3.7842,-1.96485 -2.5543,-2.38465 -3.7042,-2.49054 -6.6334,-0.61084 -2.7108,1.73948 -3.1128,5.00081 -0.8904,7.22319 0.5411,0.54107 2.8462,1.92715 5.4267,3.26313 5.3726,2.78149 6.2196,3.42315 6.6776,5.05902 0.553,1.97507 0.245,5.12102 -0.6832,6.97843 -0.6654,1.33143 -0.9806,1.65649 -2.1794,2.24731 -2.417,1.19125 -6.1271,1.7538 -8.0537,1.22116 z"
       id="path18" />
    <path
       style="fill:#000000;stroke-width:0.266312"
       d="m 1275.3828,169.62709 c -0.8697,-0.13543 -1.6938,-0.35881 -1.8314,-0.49639 -0.6233,-0.62336 0.5757,-2.65944 7.588,-12.88477 5.2495,-7.65475 6.3158,-9.39463 6.5169,-10.63405 0.1199,-0.73905 0.05,-0.96635 -0.3443,-1.12653 -0.2719,-0.11036 -2.5317,-0.31345 -5.0218,-0.45131 -5.7102,-0.31613 -7.0977,-0.45427 -7.5844,-0.75505 -0.5845,-0.36122 -0.3045,-0.48456 1.8699,-0.82397 2.4268,-0.37879 12.1029,-0.1628 13.79,0.30783 1.057,0.29485 1.1374,0.37809 0.9823,1.01617 -0.2818,1.15886 -2.8336,5.47486 -6.5551,11.08681 -4.5007,6.78703 -7.1631,11.24612 -7.1631,11.99692 0,0.32464 0.2097,0.67327 0.466,0.77472 0.2564,0.10146 2.6831,0.29949 5.3928,0.44007 6.5292,0.33874 8.9931,0.83148 7.1239,1.42466 -0.9364,0.29715 -13.4638,0.39988 -15.2297,0.12489 z"
       id="path19" />
    <path
       style="fill:#000000;stroke-width:0.266312"
       d="m 1304.008,169.13274 c -0.4563,-0.85252 -0.7875,-5.09224 -1.0734,-13.73993 -0.1502,-4.54061 -0.3866,-8.73502 -0.5254,-9.3209 -0.3018,-1.27367 -0.9592,-1.86519 -2.327,-2.09379 -2.3043,-0.38513 -2.2066,-1.27876 0.2133,-1.95156 1.5087,-0.41945 1.6869,-0.54832 2.1239,-1.53622 0.2623,-0.5931 0.602,-2.07529 0.7548,-3.29377 0.3292,-2.62562 0.6754,-4.00697 1.1759,-4.69144 0.3406,-0.46572 0.3973,-0.4182 0.8041,0.67401 0.2407,0.64628 0.6207,2.42365 0.8444,3.94971 0.5906,4.02774 0.8076,4.33841 3.5886,5.13691 1.7167,0.49293 1.5605,1.02618 -0.4951,1.68953 -1.1883,0.38349 -1.7983,0.74095 -2.0452,1.1984 -0.4549,0.84309 -0.614,2.82667 -0.9221,11.49529 -0.2563,7.20941 -0.6492,11.67768 -1.1014,12.52546 -0.3229,0.60548 -0.6769,0.59095 -1.0154,-0.0417 z"
       id="path20" />
    <path
       style="fill:#000000;stroke-width:0.266312"
       d="m 1323.4354,180.29613 c 0,-0.29119 0.3547,-1.63939 0.7882,-2.996 1.6976,-5.31194 1.9231,-7.28816 1.1756,-10.30575 -0.2381,-0.96142 -2.0209,-5.88252 -3.9616,-10.93579 -4.2486,-11.06242 -4.6077,-12.14286 -4.1781,-12.57242 0.2425,-0.24254 0.4089,-0.19575 0.7229,0.20325 0.6959,0.88432 2.9545,5.47253 4.397,8.93249 1.9314,4.63257 4.4336,9.65931 5.2429,10.53257 l 0.6838,0.73783 0.7132,-0.85425 c 0.9887,-1.18428 2.8683,-4.84689 4.6753,-9.10996 3.2826,-7.74462 5.2448,-11.4514 6.0619,-11.4514 0.6838,0 -0.8812,4.77965 -4.6606,14.23372 -4.3326,10.8379 -9.254,21.71062 -10.584,23.38279 -0.6874,0.86416 -1.0765,0.93751 -1.0765,0.20292 z"
       id="path21" />
    <path
       style="fill:#000000;stroke-width:0.266312"
       d="m 1347.1743,169.41139 c -0.7322,-0.73225 -0.901,-4.02942 -0.7925,-15.48329 0.067,-7.07477 0.1757,-9.60486 0.4318,-10.05326 0.583,-1.02068 2.1877,-0.64349 2.1877,0.51423 0,0.56046 1.015,0.88404 1.9115,0.60939 0.3402,-0.1042 1.2087,-0.60928 1.9301,-1.12239 1.7927,-1.27503 2.6554,-1.59602 5.1058,-1.89972 5.4142,-0.67102 10.0773,1.12181 11.85,4.55593 1.2156,2.3549 1.4264,4.1482 1.4332,12.18943 0.01,7.27201 -0.1496,9.58722 -0.6449,9.58722 -0.5514,0 -0.9529,-3.01372 -1.4726,-11.05333 -0.2395,-3.70456 -0.5645,-6.69393 -0.8222,-7.56176 -0.5431,-1.8287 -2.3461,-3.64352 -4.8391,-4.87084 -1.657,-0.8157 -1.9803,-0.88056 -4.3264,-0.86787 -3.1595,0.0171 -4.8638,0.71284 -7.1965,2.93791 -2.7449,2.61816 -2.7507,2.64234 -2.9531,12.22814 -0.2067,9.79069 -0.5191,11.57387 -1.8028,10.29021 z"
       id="path22" />
    <path
       style="fill:#000000;stroke-width:0.266312"
       d="m 1387.3502,170.34019 c -3.732,-1.0924 -6.7418,-3.56696 -8.3748,-6.88539 -2.3099,-4.69426 -2.2728,-9.65061 0.1085,-14.48232 2.6161,-5.30801 7.6796,-7.90456 13.7567,-7.05441 3.1171,0.43605 4.797,1.1211 7.2996,2.97664 1.1695,0.86717 2.1749,1.57667 2.2342,1.57667 0.059,0 0.866,-1.02378 1.7928,-2.27507 l 1.685,-2.27506 0.3936,1.27639 c 0.3138,1.01737 0.3933,3.05988 0.3918,10.06468 0,10.25266 -0.5379,16.37816 -1.4326,16.37816 -0.3582,0 -0.9228,-0.81938 -1.3568,-1.96918 -0.3787,-1.00332 -0.4884,-1.09036 -1.3316,-1.05648 -0.5644,0.0227 -1.8433,0.56291 -3.3156,1.40057 -3.6376,2.06964 -4.9032,2.47904 -7.9893,2.58455 -1.6831,0.0575 -3.1041,-0.038 -3.8615,-0.25975 z m 6.9348,-2.0333 c 4.3859,-0.83176 7.6266,-3.9645 9.2053,-8.89852 0.8847,-2.76498 0.7762,-4.99399 -0.3805,-7.81763 -1.4993,-3.65999 -3.7098,-5.8156 -7.1925,-7.01383 -6.27,-2.15719 -12.5142,0.54373 -15.4547,6.68498 -0.8496,1.77425 -0.9663,2.27818 -1.0583,4.56817 -0.1571,3.91137 0.8245,6.41399 3.5131,8.95678 2.9756,2.81411 7.5769,4.23894 11.3676,3.52005 z"
       id="path23" />
  </g>
</svg>
