<svg id="AURACENTRUMOLSZTYNA" width="500" height="169.45526" viewBox="0 0 500 169.45526" version="1.1" xml:space="preserve" xmlns:xlink="http://www.w3.org/1999/xlink" xmlns="http://www.w3.org/2000/svg" xmlns:svg="http://www.w3.org/2000/svg">
	<path id="AURACENTRUMOLSZTYNA" style="fill:#000000;stroke:#000000;stroke-width:0" d="m 40.054129,152.64877 5.568214,-16.73556 33.547499,-1.12915 33.547498,-1.12912 6.82279,17.86468 c 6.70495,17.55668 7.12964,17.86471 24.63818,17.86471 15.31392,0 17.45715,-0.96766 15.2643,-6.89113 -1.40313,-3.7901 -16.21173,-41.90156 -32.9081,-84.692163 L 96.177791,0 80.491458,1.0143813 64.80483,2.028792 32.556207,80.784346 C 14.819376,124.09988 0.17114001,161.75487 0.00486736,164.4621 c -0.1978733,3.24046 5.63968454,4.92223 17.08946064,4.92223 16.962172,0 17.529212,-0.41326 22.959801,-16.73556 z M 65.175474,77.831013 c 5.595975,-15.701896 11.563184,-30.035395 13.259874,-31.852256 1.696985,-1.816832 7.085341,8.815167 11.974583,23.626663 4.888948,14.811526 9.705539,29.145025 10.703179,31.85226 1.32575,3.59724 -4.636442,4.9222 -22.149411,4.9222 H 55.000651 Z M 243.88431,159.50378 c 7.05994,-6.38909 7.83578,-6.44594 7.83578,-0.57422 0,4.8228 3.58298,6.51698 13.78232,6.51698 h 13.78202 V 102.44211 39.437685 h -13.43382 -13.43383 l -1.33284,43.671082 c -1.23065,40.328673 -2.0443,44.246623 -10.62904,51.191093 -13.41463,10.85152 -29.78584,9.67223 -39.64023,-2.85546 -7.06437,-8.98091 -8.16124,-15.86161 -8.16124,-51.191093 V 39.437685 h -13.78232 -13.78202 v 48.237761 c 0,41.311164 1.14678,50.094994 7.90016,61.171644 4.33727,7.11364 11.86177,14.62863 16.72089,16.70001 13.29709,5.66818 45.14524,2.11444 54.1594,-6.04332 z m 203.48375,5.76547 c 6.09686,-2.26332 13.30034,-7.03198 16.00766,-10.59709 4.41228,-5.81054 4.92202,-5.58821 4.92202,2.14621 0,7.45008 2.1645,8.62817 15.85113,8.62817 H 500 l -1.08446,-62.01999 -1.08447,-62.019996 -14.76666,-1.222148 c -12.98758,-1.074924 -14.76667,-0.171293 -14.76667,7.501436 0,8.258966 -0.39043,8.37013 -7.33283,2.087327 -30.541,-27.63915 -84.60442,-6.621313 -95.05833,36.955025 -12.72769,53.055886 32.54071,96.701546 81.46148,78.541056 z m -42.37767,-34.95979 c -29.40102,-29.40122 1.8922,-78.959831 39.914,-63.210711 26.07468,10.800427 32.12252,42.971321 11.88303,63.210711 -15.88627,15.88625 -35.91075,15.88625 -51.79703,0 z m -70.57697,-7.95518 c 0,-40.066392 0.61458,-43.522707 8.75161,-49.222197 4.81364,-3.371495 11.90163,-6.129967 15.7513,-6.129967 5.51269,0 6.9994,-3.267036 6.9994,-15.382464 0,-13.962177 -0.81807,-15.184502 -8.86,-13.238669 -4.873,1.179089 -12.84699,5.752088 -17.71999,10.162212 l -8.86,8.018417 v -8.561978 c 0,-7.159913 -2.25694,-8.561949 -13.78232,-8.561949 H 302.9111 v 63.004425 63.00443 h 15.75131 15.75101 z" />
</svg>
