<svg id="AURACENTRUMOLSZTYNA" width="500" height="249.57854" viewBox="0 0 500 249.57854" version="1.1" xml:space="preserve" xmlns:xlink="http://www.w3.org/1999/xlink" xmlns="http://www.w3.org/2000/svg" xmlns:svg="http://www.w3.org/2000/svg">
		<path id="AURACENTRUMOLSZTYNA" style="fill:#000000;stroke:#000000;stroke-width:0" d="m 476.32685,237.93886 c -4.1535,-1.21578 -7.50323,-3.96982 -9.32066,-7.66304 -2.57079,-5.22444 -2.52949,-10.74056 0.12075,-16.11797 2.91157,-5.9075 8.54695,-8.79731 15.3104,-7.85115 3.46915,0.4853 5.33878,1.24772 8.12403,3.31283 1.30158,0.96511 2.42053,1.75474 2.48653,1.75474 0.0657,0 0.96381,-1.13941 1.99528,-2.53202 l 1.87531,-2.53201 0.43805,1.42055 c 0.34924,1.13227 0.43772,3.40547 0.43605,11.2014 0,11.41061 -0.59865,18.22793 -1.5944,18.22793 -0.39865,0 -1.02702,-0.91192 -1.51004,-2.19158 -0.42147,-1.11664 -0.54356,-1.21351 -1.48199,-1.1758 -0.62814,0.0253 -2.05148,0.62648 -3.69007,1.55875 -4.04843,2.30339 -5.45697,2.75903 -8.89162,2.87645 -1.87319,0.064 -3.45468,-0.0423 -4.29762,-0.28908 z m 7.71802,-2.26295 c 4.88125,-0.9257 8.48796,-4.41225 10.24496,-9.90353 0.98462,-3.07726 0.86387,-5.55802 -0.42347,-8.70056 -1.66863,-4.07336 -4.12879,-6.47242 -8.00483,-7.80598 -6.97814,-2.40083 -13.92757,0.60514 -17.20018,7.43999 -0.94555,1.97463 -1.07543,2.53548 -1.17782,5.0841 -0.17484,4.35313 0.91762,7.1384 3.90987,9.96837 3.31167,3.13194 8.43265,4.71769 12.65147,3.91761 z m -52.43144,1.22925 c -0.81489,-0.81496 -1.00276,-4.48451 -0.882,-17.232 0.0746,-7.8738 0.19554,-10.68964 0.48056,-11.18869 0.64885,-1.13595 2.43478,-0.71616 2.43478,0.57231 0,0.62376 1.12964,0.98389 2.12739,0.67822 0.37862,-0.11597 1.34521,-0.6781 2.14809,-1.24916 1.99517,-1.41903 2.9553,-1.77627 5.68246,-2.11427 6.02568,-0.74681 11.21544,1.24851 13.18835,5.07048 1.35289,2.62086 1.5875,4.6167 1.59507,13.56612 0.0111,8.09332 -0.1665,10.67001 -0.71774,10.67001 -0.61367,0 -1.06052,-3.35409 -1.63892,-12.30171 -0.26655,-4.12295 -0.62825,-7.44995 -0.91506,-8.41579 -0.60443,-2.03524 -2.61107,-4.05502 -5.38563,-5.42096 -1.84414,-0.90783 -2.20396,-0.98001 -4.81503,-0.96589 -3.51634,0.019 -5.41312,0.79335 -8.00928,3.26972 -3.05491,2.91386 -3.06137,2.94077 -3.28663,13.60921 -0.23004,10.89646 -0.57773,12.88103 -2.00641,11.4524 z m -26.42,12.11407 c 0,-0.32408 0.39476,-1.82454 0.87722,-3.33437 1.88933,-5.91188 2.1403,-8.11129 1.30837,-11.4697 -0.26499,-1.07 -2.24914,-6.54689 -4.40902,-12.17089 -4.72845,-12.31182 -5.1281,-13.51429 -4.64998,-13.99236 0.26988,-0.26994 0.45508,-0.21786 0.80454,0.2262 0.7745,0.9842 3.28819,6.09061 4.8936,9.94134 2.14954,5.15578 4.93434,10.75024 5.83504,11.72213 l 0.76103,0.82116 0.79375,-0.95073 c 1.10037,-1.31803 3.19225,-5.3943 5.20334,-10.13885 3.65334,-8.6193 5.83715,-12.74473 6.74654,-12.74473 0.76102,0 -0.98073,5.31947 -5.18698,15.84129 -4.82193,12.06195 -10.29916,24.16265 -11.77937,26.02367 -0.76504,0.96176 -1.19808,1.0434 -1.19808,0.22584 z m -21.62156,-12.4242 c -0.50783,-0.9488 -0.87644,-5.66736 -1.19463,-15.29173 -0.16716,-5.05343 -0.43026,-9.72157 -0.58474,-10.37362 -0.33588,-1.41752 -1.06753,-2.07584 -2.58981,-2.33026 -2.56455,-0.42863 -2.45582,-1.42319 0.23739,-2.17197 1.67909,-0.46683 1.87742,-0.61025 2.36378,-1.70973 0.29192,-0.66008 0.66999,-2.30967 0.84004,-3.66577 0.36638,-2.92216 0.75168,-4.45952 1.30871,-5.2213 0.37907,-0.51831 0.44217,-0.46543 0.89492,0.75014 0.26788,0.71927 0.6908,2.69738 0.93976,4.39579 0.65731,4.48264 0.89882,4.8284 3.99391,5.71708 1.91058,0.54861 1.73674,1.14208 -0.55102,1.88035 -1.32251,0.4268 -2.0014,0.82463 -2.27619,1.33375 -0.50628,0.93831 -0.68334,3.14592 -1.02624,12.79358 -0.28525,8.02365 -0.72252,12.99657 -1.2258,13.9401 -0.35936,0.67387 -0.75335,0.6577 -1.13008,-0.0464 z m -31.85816,0.55019 c -0.96793,-0.15073 -1.8851,-0.39934 -2.03824,-0.55246 -0.6937,-0.69376 0.64072,-2.9598 8.44499,-14.33999 5.84239,-8.51929 7.02912,-10.45567 7.25293,-11.83507 0.13344,-0.82252 0.0557,-1.07549 -0.38318,-1.25376 -0.30261,-0.12283 -2.81764,-0.34886 -5.58897,-0.50229 -6.35512,-0.35183 -7.89933,-0.50557 -8.44099,-0.84032 -0.65052,-0.40202 -0.33889,-0.53929 2.08108,-0.91703 2.70089,-0.42157 13.46982,-0.18119 15.34746,0.34259 1.17638,0.32816 1.26586,0.4208 1.09325,1.13094 -0.31363,1.28975 -3.15363,6.0932 -7.29544,12.33897 -5.00902,7.55357 -7.97211,12.51627 -7.97211,13.35187 0,0.3613 0.23338,0.74931 0.51863,0.86222 0.28535,0.11292 2.98613,0.33331 6.00187,0.48977 7.26661,0.377 10.00879,0.92539 7.92848,1.58556 -1.04216,0.33071 -14.98442,0.44504 -16.94976,0.139 z m -18.54416,0.80897 c -3.35452,-0.92737 -6.64638,-4.69777 -6.07811,-6.9617 0.18063,-0.71974 0.28091,-0.65652 2.61497,1.64918 2.77834,2.74455 4.37886,3.68165 6.60352,3.86613 2.03635,0.16888 3.79669,-0.65998 5.55491,-2.61557 2.48565,-2.7646 2.50345,-5.34071 0.0556,-7.95824 -1.30025,-1.39012 -2.75943,-2.23751 -7.90567,-4.59125 -5.57338,-2.54911 -7.63722,-5.67544 -6.42267,-9.72933 0.49359,-1.64738 2.26406,-3.5233 4.2895,-4.545 1.51471,-0.76408 2.05338,-0.87494 4.25366,-0.87535 2.7779,-5.3e-4 3.59981,0.30008 5.88646,2.1527 1.47186,1.19257 2.40974,2.57215 2.4113,3.54719 0,1.30463 -1.06587,0.75006 -4.21159,-2.18677 -2.84279,-2.65397 -4.12256,-2.77182 -7.38259,-0.67983 -3.01696,1.93594 -3.46436,5.56561 -0.99096,8.03899 0.60221,0.60218 3.16765,2.14481 6.0396,3.63167 5.97938,3.09564 6.92205,3.80977 7.43177,5.6304 0.61546,2.19813 0.27267,5.69939 -0.76036,7.76658 -0.74055,1.4818 -1.09135,1.84357 -2.42554,2.50112 -2.68998,1.32579 -6.81911,1.95188 -8.9633,1.35908 z m -18.34617,-0.90769 c -0.84573,-1.01913 -0.99442,-4.52269 -0.81857,-19.29986 0.16015,-13.45667 0.47022,-20.31635 0.99152,-21.9328 0.75691,-2.34725 1.38338,9.1864 1.3924,25.63766 0,8.69451 -0.10684,14.41114 -0.29059,14.94834 -0.35147,1.02456 -0.78051,1.2422 -1.27476,0.64666 z m -33.07606,1.10764 c -7.7936,-1.2553 -14.2126,-6.05578 -17.35009,-12.97516 -1.27153,-2.80432 -1.82711,-5.50621 -1.83457,-8.92188 -0.0211,-9.58886 5.75669,-17.97782 14.60613,-21.20747 11.26931,-4.11279 23.80514,1.62525 28.54149,13.06436 2.2192,5.35956 2.19094,11.46636 -0.0779,16.78383 -2.31313,5.42225 -8.44733,10.75409 -14.36206,12.48352 -2.38448,0.6972 -7.44391,1.10776 -9.52344,0.7728 z m 8.26648,-3.35683 c 6.73508,-1.72254 11.68021,-6.75275 13.40204,-13.63251 0.74968,-2.99552 0.45831,-8.31152 -0.6326,-11.53958 -2.12048,-6.27496 -7.1039,-11.0008 -13.32981,-12.64077 -2.32315,-0.61196 -7.15521,-0.60792 -9.4571,0.008 -10.49971,2.80903 -16.71883,15.35292 -12.94095,26.10176 1.34443,3.82494 4.63351,7.82421 8.13883,9.89617 3.95929,2.34025 9.90161,3.06483 14.81959,1.80703 z m -96.57771,1.79469 c -0.79886,-1.54482 -1.13931,-7.95682 -0.95356,-17.9562 0.20801,-11.1891 0.41379,-12.01589 2.68764,-10.7972 1.63168,0.87454 3.38145,0.73453 6.34655,-0.50779 4.86233,-2.03723 8.79757,-1.6774 11.75677,1.07498 2.20563,2.05153 2.7976,2.3757 4.33803,2.3757 1.10281,0 1.67408,-0.2079 2.82386,-1.02778 4.65121,-3.31664 5.27523,-3.56109 8.99925,-3.52518 5.51417,0.0532 9.10686,2.88184 10.51629,8.28001 1.39118,5.32815 0.97816,21.05602 -0.58697,22.35498 -0.90048,0.7473 -1.1214,-0.8206 -1.35623,-9.62202 -0.15113,-5.66638 -0.38118,-9.32841 -0.67366,-10.72163 -0.78073,-3.71982 -2.20329,-5.82088 -4.80201,-7.0923 -1.48199,-0.72507 -1.84737,-0.78058 -4.35816,-0.6622 -2.24837,0.10606 -3.03321,0.27744 -4.37064,0.95471 -1.76935,0.896 -3.95416,2.82281 -4.60613,4.06218 -0.64561,1.22722 -0.97627,4.04908 -1.31572,11.22591 -0.2976,6.2951 -0.76692,11.52976 -1.05985,11.8227 -0.0723,0.0725 -0.19488,0.0684 -0.27211,-0.009 -0.27089,-0.27082 -0.74078,-5.79754 -1.0475,-12.32018 -0.44696,-9.50378 -0.81267,-10.931 -3.4558,-13.48342 -1.76067,-1.70027 -3.64944,-2.40092 -6.46585,-2.39857 -3.05269,0.002 -4.9418,0.77507 -6.8289,2.79259 -2.39694,2.56245 -2.66182,3.71555 -3.10054,13.49587 -0.34412,7.67335 -0.74734,11.34557 -1.33375,12.14755 -0.34145,0.46696 -0.42147,0.42487 -0.88101,-0.46385 z m -25.51106,1.72185 c -5.02504,-0.60268 -9.07147,-4.34072 -10.28914,-9.5049 -0.53354,-2.26309 -0.51763,-18.28672 0.02,-20.06579 0.25587,-0.84642 0.49292,-1.19649 0.68224,-1.00717 0.47099,0.47096 1.09936,5.05864 1.58894,11.60136 0.61034,8.15528 1.00822,11.09046 1.6456,12.13848 0.75836,1.24709 2.28631,2.3243 4.94023,3.48296 1.90302,0.8308 2.67574,1.00861 4.38488,1.00895 4.50385,8.9e-4 9.15739,-2.46278 9.90651,-5.24458 0.57217,-2.12504 1.18128,-6.91042 1.5008,-11.79097 0.50617,-7.7329 1.0435,-11.35915 1.60052,-10.80212 1.13621,1.13629 1.77337,24.704 0.76326,28.23335 -0.38385,1.3409 -0.75613,1.2944 -1.7895,-0.22353 -1.29246,-1.89867 -1.49167,-1.90826 -4.7133,-0.22708 -4.23352,2.20928 -6.80776,2.81282 -10.24107,2.40104 z m -29.13535,-1.41314 c -0.63794,-0.40397 -1.00276,-8.08742 -0.85318,-17.96852 0.14334,-9.47283 0.35447,-11.11459 1.42923,-11.11459 0.66666,0 1.67365,0.47909 2.27864,1.08417 0.61468,0.61458 1.149,0.49209 3.48952,-0.79989 2.53917,-1.4017 4.79054,-1.83333 5.44562,-1.04405 0.53644,0.64628 0.0445,1.12182 -1.66084,1.60405 -2.66027,0.75245 -6.80119,4.66197 -7.51803,7.09795 -0.17763,0.6037 -0.43372,5.09889 -0.56905,9.98931 -0.28191,10.18235 -0.6238,12.04956 -2.04191,11.15157 z m -15.71774,-0.13575 c -0.42715,-0.51473 -0.6297,-4.11105 -0.90415,-16.05444 -0.16249,-7.07007 -0.33266,-10.0046 -0.61412,-10.58823 -0.24897,-0.51639 -0.85252,-0.98432 -1.67465,-1.29831 -2.33083,-0.89014 -2.38859,-1.77012 -0.16015,-2.4378 1.94487,-0.58269 2.15076,-1.03228 2.58837,-5.65064 0.39053,-4.12074 0.97037,-6.12166 1.70436,-5.88119 0.62892,0.20605 1.09825,2.28982 1.3589,6.03281 0.1656,2.37868 0.41101,3.90101 0.69993,4.34202 0.27434,0.41865 1.11238,0.88783 2.18537,1.22343 0.95713,0.29939 2.07374,0.71832 2.4813,0.93092 l 0.74089,0.38657 -0.74089,0.27831 c -0.40756,0.15308 -1.63524,0.44447 -2.72815,0.64755 l -1.98705,0.36921 -0.14813,1.22865 c -0.0812,0.67575 -0.22515,5.49356 -0.31908,10.70625 -0.17451,9.67384 -0.50461,14.5634 -1.05195,15.58633 -0.35692,0.66684 -0.96281,0.74245 -1.4308,0.17856 z m -37.679855,0.21515 c -0.244068,-0.17853 -0.46009,-0.71297 -0.572609,-1.41747 -0.09905,-0.62199 -0.2365,-5.84642 -0.304612,-11.60984 -0.163713,-13.86198 0.07123,-16.24235 1.605863,-16.24235 0.695477,0 1.461737,0.63726 1.461737,1.21555 0,0.57964 0.428928,0.88073 1.24694,0.87534 0.779504,-0.006 1.956773,-0.59799 3.833415,-1.93039 1.639251,-1.16389 3.766304,-1.65385 7.179918,-1.65385 6.883543,0 10.780503,2.724 11.938973,8.34528 0.94644,4.5924 1.01478,17.24977 0.11129,20.60516 -0.67823,2.5187 -1.4308,-1.75095 -1.99528,-11.31952 -0.52286,-8.8648 -0.81212,-9.97727 -3.15252,-12.12181 -1.51683,-1.38983 -3.1799,-2.34443 -5.00011,-2.86991 -1.69713,-0.48994 -5.195101,-0.34394 -6.808643,0.2842 -2.457263,0.95663 -5.516294,3.61607 -6.430798,5.59084 -0.724858,1.56509 -0.886791,3.30707 -1.003539,10.7933 -0.110181,7.08377 -0.330543,9.66349 -0.928749,10.88669 -0.414126,0.84669 -0.64751,0.95907 -1.181276,0.56878 z m -27.432779,1.19648 c -5.84884,-1.25456 -10.075791,-5.15365 -11.906134,-10.9827 -0.432155,-1.37622 -0.488804,-1.9553 -0.471108,-4.81293 0.02337,-3.7821 0.395428,-5.54108 1.750434,-8.27836 1.465632,-2.96069 3.483617,-4.97236 6.431131,-6.4109 2.1689,-1.0585 4.184103,-1.47631 7.096336,-1.47123 5.075903,0.009 8.975649,1.52067 12.175355,4.72002 2.640453,2.64012 3.556404,4.85176 3.787896,9.14564 l 0.130437,2.42068 -11.609091,0.25928 c -14.959823,0.33412 -16.323621,0.48449 -16.663179,1.83729 -0.281463,1.12149 0.06232,3.2078 0.766816,4.65254 0.961136,1.97118 3.313338,4.26713 5.573388,5.44002 5.132885,2.66385 9.642968,2.04674 15.689801,-2.14688 3.138605,-2.17675 4.296287,-2.63759 4.296287,-1.71029 0,1.32047 -3.378779,4.34661 -6.606197,5.91665 -3.309442,1.60993 -7.134955,2.13057 -10.442172,1.42117 z m 11.285002,-17.4784 c 3.561413,-0.4008 4.925099,-1.09549 4.925099,-2.50891 0,-0.78475 -1.256733,-3.20741 -2.412522,-4.65063 -1.756556,-2.1935 -4.847416,-4.12769 -7.856809,-4.91663 -1.666741,-0.43692 -4.908183,-0.48502 -6.497018,-0.0964 -2.777456,0.67933 -5.245181,2.32346 -6.838356,4.55606 -1.256845,1.76138 -1.754329,3.10801 -1.754329,4.74895 0,2.00245 0.515069,2.4856 3.038886,2.85041 1.78538,0.25807 15.137337,0.27125 17.395049,0.0171 z m -50.901337,17.29732 c -3.198371,-0.66265 -6.551218,-2.11757 -9.6967236,-4.20776 -2.7586476,-1.83321 -4.4336242,-3.86909 -6.1625785,-7.49049 -2.32048259,-4.86056 -3.10799984,-11.13108 -1.9658995,-15.65271 1.3720341,-5.43188 7.079976,-12.47981 12.1224906,-14.96838 3.992676,-1.97049 9.867671,-2.29559 15.529426,-0.85936 5.354583,1.35831 9.394003,3.88624 11.262075,7.04795 1.898121,3.21267 0.42314,3.05887 -4.609469,-0.48067 -3.004941,-2.1134 -5.206562,-3.24434 -7.938387,-4.07776 -1.665628,-0.50817 -2.201287,-0.56932 -5.10918,-0.58323 -3.667141,-0.0176 -4.898834,0.22188 -7.526265,1.46284 -4.9995549,2.36142 -8.8310779,7.21639 -10.4112319,13.19214 -0.5287584,1.9995 -0.5412233,7.11687 -0.022259,9.19074 1.4924542,5.96614 5.462761,10.97625 10.6506259,13.43994 2.348306,1.11523 4.136357,1.42263 7.623647,1.31064 5.329097,-0.17113 8.524685,-1.37585 13.413057,-5.0567 2.701999,-2.03464 4.100855,-2.76159 4.698505,-2.44174 0.653073,0.3495 0.53499,0.88513 -0.494146,2.24126 -2.349865,3.09642 -7.560767,6.48995 -11.597516,7.55269 -2.550862,0.67155 -7.441793,0.86216 -9.76606,0.3806 z M 420.61401,168.49792 c -22.9415,-3.0898 -41.83257,-18.02764 -49.54503,-39.17701 -5.62291,-15.41907 -5.9598,-33.060521 -0.93264,-48.824789 3.25924,-10.220084 7.21052,-16.679061 14.89349,-24.345201 5.94377,-5.930886 8.54227,-7.829953 15.13934,-11.064584 4.3802,-2.147665 10.32987,-4.502526 13.22152,-5.233038 18.7219,-4.729667 36.83301,-0.633776 50.01324,11.310633 3.04723,2.761574 6.07577,5.021057 6.72996,5.021057 1.18461,0 1.87842,-3.107232 2.33973,-10.478944 l 0.20979,-3.353258 12.86249,-0.690358 c 7.0743,-0.379691 13.11011,-0.442783 13.41305,-0.140197 0.30284,0.302586 0.66098,28.246205 0.79576,62.096939 L 500,165.16595 h -13.26882 -13.26882 l -0.90527,-6.76122 c -0.49781,-3.71866 -1.2988,-7.15479 -1.77981,-7.63582 -0.60722,-0.60728 -2.54196,0.67654 -6.32952,4.20007 -11.27087,10.48527 -28.02898,15.65754 -43.83375,13.52894 z m 24.85075,-27.30624 c 12.53629,-3.71405 22.06963,-14.19737 25.66599,-28.22371 1.76924,-6.90042 1.16202,-17.687637 -1.37137,-24.360499 -4.33246,-11.411432 -14.92766,-21.045174 -25.88712,-23.537851 -23.09632,-5.253138 -41.92472,5.480245 -48.34306,27.558674 -1.08845,3.744258 -1.34287,6.997352 -1.0544,13.483436 0.34179,7.68587 0.68936,9.1996 3.44367,14.99949 4.9212,10.36256 13.83931,17.85726 24.97295,20.98705 5.43282,1.52725 15.7578,1.11258 22.57334,-0.90659 z M 306.27788,103.6728 V 41.93363 h 12.99392 12.99381 v 5.894515 c 0,7.961615 1.22847,8.367772 7.1048,2.349119 6.2702,-6.422005 18.51522,-12.435216 25.32253,-12.435216 1.85627,0 1.94364,0.276878 1.94364,6.158583 0,3.387215 -0.24329,9.586854 -0.54078,13.776967 l -0.54078,7.618394 -5.95612,0.984085 c -3.27595,0.541246 -7.75209,1.745971 -9.94692,2.67718 -5.19855,2.205472 -12.56054,10.078263 -14.04175,15.015793 -0.80666,2.6891 -1.18562,13.735832 -1.44115,42.00168 l -0.34668,38.35291 h -7.35844 c -4.0471,0 -10.24462,0.24398 -13.7722,0.54217 l -6.41388,0.54217 z M 0.7944466,166.13766 C 0.38811174,165.48004 23.207971,107.96035 50.410893,41.075018 65.024258,5.1442541 66.24393,2.3644384 67.965761,1.0657695 69.5566,-0.13409246 92.189374,-0.424214 94.011704,0.73188715 95.35725,1.585424 101.69779,16.839085 125.59965,76.723707 c 21.04316,52.722393 34.81136,88.034873 34.81136,89.283423 0,0.52706 -6.15535,0.83546 -16.6752,0.83546 H 127.0605 l -1.43347,-3.56284 c -0.78841,-1.95957 -3.11123,-8.06277 -5.16182,-13.56267 -4.53858,-12.17252 -5.84105,-14.46828 -8.60114,-15.16102 -2.82054,-0.70791 -60.284477,-0.68764 -63.112906,0.0223 -2.552086,0.64055 -5.0949,5.7961 -10.8921,22.08382 l -3.614388,10.15476 -16.507257,0.0128 c -9.0790406,0.007 -16.7033561,-0.30436 -16.9429724,-0.69207 z M 102.56733,108.23083 c 1.45684,-0.41768 2.01654,-1.09506 1.83591,-2.2218 -0.33912,-2.11479 -12.180923,-35.723766 -18.442554,-52.342773 -3.166317,-8.403909 -5.358478,-13.079665 -6.20921,-13.243779 -0.954125,-0.18408 -2.045809,1.655756 -3.979322,6.706529 -3.746828,9.787317 -20.150469,58.492383 -20.150469,59.829813 0,0.69114 1.334973,1.22554 3.562858,1.4262 6.466078,0.58239 41.244827,0.45877 43.382787,-0.15419 z m 99.91653,60.05377 c -4.5448,-0.82266 -10.87121,-3.18792 -14.76383,-5.51973 -3.93926,-2.35979 -9.65343,-7.60386 -12.24926,-11.2417 -3.89395,-5.45688 -6.75533,-12.68569 -7.93004,-20.03402 -1.20553,-7.54158 -1.50325,-16.49559 -1.756,-52.815169 l -0.25631,-36.821796 13.99802,0.302341 c 7.699,0.166285 14.03475,0.331323 14.0796,0.366759 0.0445,0.03539 0.33834,18.072475 0.6523,40.082302 l 0.57071,40.017883 2.38938,4.78434 c 2.49844,5.00277 3.80025,6.97928 5.92897,9.00207 4.92131,4.67625 14.47068,7.24188 23.14428,6.21818 13.04879,-1.54007 21.76702,-8.82013 24.20736,-20.21417 1.41733,-6.61785 1.58327,-10.84636 1.78817,-45.5834 l 0.20578,-34.89486 h 13.79379 13.7938 v 61.61616 61.61616 h -12.51035 -12.51035 l -0.27156,-4.9251 c -0.2986,-5.41458 -0.84595,-7.99195 -1.77281,-8.34761 -0.83159,-0.31914 -1.96656,0.49395 -6.30169,4.51478 -8.64177,8.01526 -13.5317,10.47357 -23.63709,11.88301 -5.67678,0.79178 -16.2012,0.7885 -20.59287,-0.007 z" />
</svg>
