<svg
   version="1.1"
   id="svg1"
   width="798.8504"
   height="252.95999"
   viewBox="0 0 798.85041 252.96"
   xmlns="http://www.w3.org/2000/svg"
   xmlns:svg="http://www.w3.org/2000/svg">
  <defs
     id="defs1" />
  <g
     id="g1"
     transform="translate(-212.69818,162.42605)">
    <path
       style="fill:#000000"
       d="m 217.53342,90.085711 c -1.99388,-0.73307 -3.60648,-1.97742 -4.25484,-3.28321 -0.48646,-0.97973 -0.60331,-1.87668 -0.57691,-4.42856 0.0322,-3.1117 0.78873,-6.2739 27.41828,-114.60333 15.06185,-61.27183 27.77381,-112.535831 28.24879,-113.919991 3.06675,-8.93687 7.28855,-13.29563 15.05758,-15.54606 l 2.52225,-0.73061 h 28.96 28.96 l 2.87297,0.89974 c 4.02711,1.2612 5.74851,2.26464 8.34987,4.86731 1.86737,1.86831 2.57887,2.90443 4.07105,5.92847 0.99451,2.01546 2.15566,4.88848 2.58034,6.38448 0.42467,1.496 12.97784,52.400001 27.89593,113.120001 29.70071,120.88856 28.26295,114.55168 26.71556,117.74816 -0.79385,1.63988 -2.65146,3.09926 -4.65189,3.65462 -0.87555,0.24307 -8.49204,0.3542 -24.36013,0.35543 -22.07193,0.002 -23.17565,-0.0259 -25.12,-0.62874 -1.11854,-0.34678 -2.54789,-1.05599 -3.17633,-1.576 -2.34055,-1.93673 -2.92385,-3.64252 -6.87487,-20.10458 -2.0182,-8.40889 -3.74292,-15.61401 -3.8327,-16.01136 -0.0898,-0.39736 -0.58025,-1.18936 -1.08994,-1.76 l -0.9267,-1.03754 -22.02658,-0.18268 c -23.83649,-0.19769 -23.68001,-0.18596 -26.37487,-1.97694 -2.60725,-1.73275 -3.22648,-5.76235 -1.76403,-11.47934 1.59585,-6.23844 3.0335,-8.81456 5.57445,-9.98882 1.46639,-0.67767 1.88346,-0.69558 19.84644,-0.85222 l 18.34858,-0.16 0.63782,-0.78804 c 0.70103,-0.86616 0.70697,-0.78649 -0.42838,-5.7447 -0.50464,-2.20384 -0.92657,-3.27781 -1.57147,-4 l -0.8816,-0.98726 -13.06676,-0.20479 c -8.25013,-0.12931 -13.59757,-0.34245 -14.50676,-0.57822 -2.11434,-0.5483 -4.00285,-1.76815 -4.85216,-3.1341497 -1.82707,-2.93865 -0.22457,-12.68841 2.86437,-17.42705 1.77584,-2.7242603 3.61761,-3.1357903 14.03419,-3.1357903 4.43956,0 8.43255,-0.1371 8.87331,-0.30468 1.83901,-0.69919 2.1397,0.91925 -6.85888,-36.91738 -4.61191,-19.39186 -8.59651,-35.59857 -8.85467,-36.0149 -0.41104,-0.66291 -0.5273,-0.69904 -0.93557,-0.29077 -0.27074,0.27074 -8.85123,35.47102 -20.46553,83.95697033 C 279.05928,61.215331 273.66879,83.224021 272.95995,84.754421 c -2.10304,4.5405 -4.77704,5.77952 -12.47309,5.77952 -5.6597,0 -7.52729,-0.50902 -9.3762,-2.55555 -1.43633,-1.58984 -1.92525,-3.38708 -1.69874,-6.24445 0.23248,-2.93272 47.90276,-198.325091 49.05066,-201.050311 1.17186,-2.78211 3.21169,-4.96743 5.49952,-5.89176 1.75339,-0.7084 2.17856,-0.73792 10.62647,-0.73792 7.81391,0 8.99541,0.068 10.54389,0.60694 2.40334,0.83645 4.47148,2.84739 5.71006,5.55214 0.74077,1.61765 6.5064,24.928331 22.93343,92.720921 12.06914,49.80799 22.15929,91.03695 22.42256,91.6199 0.78835,1.74557 2.68253,2.38051 6.70736,2.24836 3.99169,-0.13107 4.6427,-0.5144 4.6427,-2.73378 0,-1.10223 -43.2692,-179.523811 -46.58503,-192.094481 -1.52267,-5.7726 -3.26052,-8.36505 -6.47985,-9.66632 l -1.81512,-0.73368 h -17.92 -17.92 l -1.82963,0.73911 c -2.29874,0.92861 -4.05074,2.85253 -5.19066,5.70001 -0.46142,1.15262 -12.51042,49.845461 -26.77555,108.206331 -14.26512,58.36086 -26.21225,106.84742 -26.54917,107.74791 -1.0043,2.68425 -2.31848,4.17984 -4.70682,5.35656 -2.12853,1.04872 -2.1383,1.05018 -7.57972,1.12933 -4.03495,0.0587 -5.7637,-0.0366 -6.6636,-0.36749 z m 11.06542,-5.7476 c 0.56635,-0.23971 1.29527,-0.73402 1.61982,-1.09846 0.41816,-0.46954 8.12585,-31.60107 26.45299,-106.84416 14.22459,-58.39985 26.25055,-107.261541 26.72435,-108.581541 2.54008,-7.0766 5.66919,-10.16958 11.89279,-11.7555 1.93667,-0.4935 4.10701,-0.55545 19.45978,-0.55545 18.91737,0 19.36287,0.0374 23.45977,1.9692 3.47452,1.63833 6.28617,5.42505 8.15398,10.98175 1.5416,4.58622 47.3427,192.991521 47.51088,195.438561 0.22007,3.20216 -0.30319,4.87893 -2.01492,6.45675 -1.9476,1.79524 -3.80785,2.26468 -8.97409,2.26468 -9.15383,0 -11.59317,-2.08597 -14.03281,-12 -0.60635,-2.464 -10.54377,-43.432 -22.08316,-91.03999 -11.53939,-47.608 -21.21507,-87.020421 -21.5015,-87.583151 -1.01209,-1.98838 -1.92275,-2.17685 -10.51815,-2.17685 -8.59706,0 -9.51445,0.19001 -10.5101,2.17685 -0.70802,1.41287 -48.5299,198.494471 -48.5299,199.999461 0,0.86097 0.22784,1.44062 0.78545,1.99823 0.73895,0.73895 0.99434,0.78545 4.31353,0.78545 4.08023,0 5.85625,-0.51845 6.5817,-1.92132 0.25085,-0.4851 9.32465,-37.79925 20.164,-82.92033967 22.37696,-93.14887033 21.03949,-87.68251033 22.10452,-90.34292033 1.32817,-3.31769 3.45362,-4.67054 6.32448,-4.0255 1.7913,0.40248 2.95232,1.70326 4.04177,4.52828 0.52579,1.36343 4.79206,18.43661 9.4806,37.94039 9.43283,39.23954 9.53948,39.80357 8.06582,42.6588303 -0.40803,0.79058 -1.23315,1.76391 -1.83359,2.16296 -2.26204,1.50333 -3.81001,1.73397 -12.82828,1.91138 -9.33184,0.18358 -9.91372,0.29766 -10.72519,2.10271 -0.6141,1.36603 -1.75481,6.40255 -1.75481,7.74794 0,1.17466 0.62149,1.99021 1.70237,2.23394 0.3837,0.0865 6.60163,0.19474 13.81763,0.24048 14.21294,0.0901 14.47719,0.12128 16.4277,1.93845 1.2302,1.1460897 2.58704,4.1963597 3.63705,8.1763197 2.09522,7.94171 0.96513,11.33081 -4.35647,13.06493 -1.40469,0.45773 -4.05517,0.5562 -19.30147,0.71703 l -17.67319,0.18644 -0.85322,0.85369 c -0.67723,0.67759 -1.03936,1.66544 -1.75558,4.78904 -0.91946,4.00997 -0.92749,5.05091 -0.0446,5.78415 0.3919,0.32547 5.29081,0.44707 23.0886,0.57312 25.41832,0.18003 24.21768,0.0608 26.41073,2.62287 1.6515,1.92941 2.4386,4.48598 6.41662,20.84191 2.01927,8.30237 3.90837,15.55486 4.19799,16.11663 1.05829,2.05278 0.63834,2.01859 24.79333,2.01859 21.82026,0 22.70874,-0.0413 23.40759,-1.0879 0.1293,-0.19365 0.2373,-1.03023 0.24,-1.85907 0.005,-1.46863 -52.7943,-217.778861 -54.58161,-223.613021 -1.93539,-6.31752 -5.23589,-11.1074 -8.88473,-12.89406 -4.18507,-2.04923 -3.15351,-1.98594 -32.36876,-1.98594 -24.07887,0 -26.74466,0.0511 -28.53671,0.54741 -5.8134,1.60991 -8.9773,4.74942 -11.73207,11.64165 -1.47222,3.68338 -55.57122,224.105771 -55.57122,226.420831 0,1.24328 0.146,1.6185 0.84315,2.16688 0.73584,0.57881 1.28699,0.66322 4.33028,0.66322 2.22525,0 3.85974,-0.15771 4.51684,-0.43583 z m 406.56809,-53.95638 c -10.97408,-2.78521 -17.4093,-11.96663 -15.53641,-22.1665297 1.36902,-7.45577997 6.43721,-12.75837 14.65183,-15.32947 2.0389,-0.63816 3.06157,-0.747 7.02622,-0.74781 5.4031,-0.001 7.35453,0.41348 11.52,2.44746 4.79657,2.34214 8.76526,7.0523 10.08958,11.97463 0.69373,2.57849 0.69199,7.5246197 -0.003,9.9323897 -1.87873,6.50419 -7.3871,11.74822 -14.41175,13.72015 -3.0643,0.8602 -10.25389,0.95141 -13.33596,0.16918 z m 10.932,-6.62538 c 0.96271,-0.26466 2.32014,-0.77187 3.01652,-1.12714 1.95256,-0.99612 4.63753,-3.73082 5.74879,-5.85527 0.9401,-1.7972 1.00433,-2.13488 1.00433,-5.28 0,-3.0535197 -0.0821,-3.5205297 -0.90037,-5.1199997 -1.82958,-3.57639 -5.56461,-6.38967997 -9.77736,-7.36445997 -2.47596,-0.57292003 -7.41,-0.25568003 -9.7142,0.62457 -5.3958,2.06130997 -8.64226,6.51843997 -8.63843,11.85988967 0.006,9.00011 9.392,14.97545 19.26072,12.26241 z m -72.10077,6.0324 c -0.47932,-0.52965 -0.52959,-2.26109 -0.52959,-18.24 0,-17.2281397 0.0155,-17.6702697 0.64,-18.2948097 0.61974,-0.61974 1.06278,-0.63982 14,-0.63444 14.4178,0.006 16.12923,0.15783 19.17479,1.70113 2.01333,1.02024 3.99903,3.17921 4.77535,5.19208003 0.46097,1.1952 0.60986,2.40317997 0.60986,4.94795997 0,3.16906 -0.0626,3.49397 -1.06683,5.53377 -1.23978,2.5183397 -3.169,4.2360597 -6.05251,5.3889797 -1.78137,0.71224 -2.21437,0.73945 -13.44066,0.8447 l -11.6,0.10875 v 6.68728 c 0,7.79065 0.21649,7.34979 -3.60937,7.34979 -1.89102,0 -2.47873,-0.11855 -2.90104,-0.58519 z M 601.72195,9.3871413 c 5.26501,-1.79397 4.79402,-8.83979997 -0.66914,-10.00997997 -1.04742,-0.22435 -5.29887,-0.36322 -11.12,-0.36322 h -9.42424 v 5.43999997 5.44 h 9.86299 c 8.15952,0 10.11989,-0.0875 11.35039,-0.5068 z m 69.84947,20.4839497 c -0.36938,-0.36939 -0.50285,-1.15179 -0.50285,-2.94774 v -2.44488 l 1.72101,-1.61226 c 0.94656,-0.88675 7.00049,-6.58027 13.45317,-12.65227 l 11.73215,-11.03999967 -12.73317,-0.0813 c -14.59002,-0.0931 -13.53316,0.15522 -13.53316,-3.17991003 0,-3.57169 -1.54334,-3.29884 18.65883,-3.29884 13.82799,0 17.49605,0.0857 17.95249,0.41946 0.35021,0.25608 0.63864,0.99614 0.74052,1.90001 0.37411,3.31905 0.94778,2.62825 -13.55795,16.3260197 l -13.29505,12.55451 13.48245,0.16 c 11.51675,0.13668 13.52666,0.22999 13.78568,0.64 0.16677,0.264 0.30543,1.42969 0.30812,2.59041 0.008,3.44511 1.69761,3.16959 -19.43743,3.16959 -16.1842,0 -18.32941,-0.0574 -18.77481,-0.50285 z m 49.28,0 c -0.44514,-0.44514 -0.50286,-2.55446 -0.50286,-18.37715 0,-15.8226797 0.0577,-17.9319997 0.50286,-18.3771397 0.37489,-0.37489 1.16665,-0.50286 3.11124,-0.50286 h 2.60837 l 13.52877,13.51493 13.52876,13.5149197 V 6.4601313 c 0,-15.20127 -0.34243,-13.84619 3.49897,-13.84619 3.85734,0 3.54103,-1.68011 3.54103,18.8087997 0,15.34702 -0.062,17.61732 -0.49814,18.24 -0.4496,0.6419 -0.76837,0.7112 -3.27113,0.7112 H 754.1263 L 740.75743,17.019081 727.38856,3.6642113 V 16.489481 c 0,15.02763 0.2966,13.88446 -3.60233,13.88446 -1.7842,0 -2.56589,-0.13393 -2.93481,-0.50285 z m 48.64,0 c -0.27657,-0.27657 -0.50286,-0.77718 -0.50286,-1.11246 0,-0.83829 17.52578,-34.8881797 18.31575,-35.5846897 0.51699,-0.45581 1.24707,-0.56 3.92425,-0.56 2.67454,0 3.40908,0.10464 3.93119,0.56 0.91119,0.7947 18.30881,34.7413797 18.30881,35.7246197 0,0.47615 -0.25639,0.95008 -0.61896,1.14413 -0.80501,0.43083 -5.32044,0.42902 -6.12665,-0.002 -0.34295,-0.18354 -1.55852,-2.19954 -2.70126,-4.48 l -2.07771,-4.14629 H 791.22874 780.5135 l -1.95698,3.92 c -1.07634,2.156 -2.17977,4.172 -2.45207,4.48 -0.68556,0.77546 -5.85009,0.82009 -6.61303,0.0572 z m 28.93714,-15.12789 c 0,-0.14892 -1.62,-3.53898 -3.6,-7.5334897 l -3.6,-7.26272997 -3.75911,7.53347997 -3.75912,7.5334797 h 7.35912 c 4.04751,0 7.35911,-0.12183 7.35911,-0.27074 z m 23.84741,14.88696 c -0.44526,-0.67955 -0.49322,-2.80824 -0.41539,-18.43816 0.1016,-20.4045197 -0.24546,-18.5780597 3.53018,-18.5780597 1.20993,0 2.51441,0.15907 2.89884,0.35348 0.38443,0.1944 6.56696,6.20575003 13.73896,13.35853 l 13.04,13.0050697 V 6.6124813 c 0,-15.02502 -0.26817,-13.99854 3.65715,-13.99854 1.73437,0 2.51311,0.13598 2.88,0.50286 0.44525,0.44526 0.50285,2.57006 0.50285,18.5487397 0,20.83312 0.42363,18.7084 -3.73009,18.7084 h -2.49217 l -13.36887,-13.35486 -13.36887,-13.3548697 -0.005,12.4748697 c -0.004,9.39845 -0.1043,12.67215 -0.40851,13.27486 -0.37775,0.74841 -0.58285,0.80595 -3.17989,0.89224 -2.62648,0.0873 -2.80323,0.0508 -3.27948,-0.67602 z m 14.40437,-41.54058 c -0.63847,-0.75878 -0.82148,-1.28695 -0.74845,-2.16 0.0956,-1.14315 0.14853,-1.1827 4.89667,-3.66082 3.28143,-1.71262 5.27902,-2.56054 6.31411,-2.68015 1.39702,-0.16143 1.58881,-0.095 2.48,0.85903 1.09767,1.17506 1.2644,2.52323 0.40589,3.28216 -0.308,0.27227 -2.65994,1.59059 -5.22653,2.92959 -5.51574,2.87759 -6.72466,3.09047 -8.12169,1.43019 z m -410.57177,-32.89815 c -1.16557,-0.47705 -1.84898,-1.56578 -2.00552,-3.19492 -0.15051,-1.56632 0.0231,-1.92482 15.61536,-32.24325 8.67216,-16.86262 16.045,-31.057491 16.38409,-31.544141 1.2746,-1.8293 2.02668,-1.99517 9.04606,-1.99517 7.22736,0 7.86369,0.16043 9.23711,2.32892 0.4149,0.65509 7.70759,14.723141 16.20597,31.262321 10.84286,21.1019 15.49583,30.46368 15.5999,31.38697 0.18436,1.63563 -0.54243,3.14925 -1.8325,3.81637 -1.30536,0.67503 -11.46297,0.70357 -12.74637,0.0358 -1.51081,-0.78608 -2.1892,-1.82318 -4.88651,-7.4704 l -2.63654,-5.52 h -18.93609 -18.93609 l -2.77604,5.70572 c -2.67765,5.50351 -3.40777,6.59967 -4.9118,7.37429 -0.8141,0.41928 -11.41717,0.46835 -12.42103,0.0575 z m 45.70708,-38.01748 c -2.91417,-5.94 -5.5955,-11.49813 -5.9585,-12.35139 l -0.66,-1.55139 -5.41474,10.99139 c -2.97811,6.04526 -5.68393,11.60339 -6.01292,12.35139 l -0.59818,1.36 h 11.97142 11.97142 z m 69.81292,37.87119 c -0.528,-0.23306 -1.20312,-0.69695 -1.50026,-1.03086 -0.29714,-0.3339 -7.67715,-14.46974 -16.4,-31.41297 -14.79814,-28.743811 -15.85975,-30.914491 -15.85975,-32.428611 0,-1.41019 0.13876,-1.76151 1.05929,-2.68204 1.33508,-1.33508 2.66287,-1.55514 8.3048,-1.37642 4.36679,0.13833 5.51509,0.43822 6.68923,1.74695 0.29249,0.32601 5.94681,11.67622 12.56515,25.222671 6.61835,13.54645 12.1387,24.73006 12.26745,24.85246 0.12875,0.1224 5.70609,-11.00897 12.39409,-24.73637 12.40641,-25.464691 12.80225,-26.178851 14.82466,-26.746101 1.49492,-0.4193 10.6716,-0.28372 11.75435,0.17366 1.30808,0.55257 2.06099,1.91765 2.06099,3.73677 0,1.33955 -1.56986,4.5471 -15.40251,31.470621 -8.47138,16.48848 -15.74915,30.52467 -16.17281,31.19154 -1.47957,2.32892 -1.99709,2.46658 -9.22468,2.45378 -4.5932,-0.008 -6.67102,-0.13096 -7.36,-0.43508 z m 67.63929,-0.09 c -1.9932,-1.23703 -1.87929,0.82508 -1.87929,-34.02121 0,-35.124261 -0.13951,-32.795081 2.04337,-34.116631 0.95876,-0.58045 2.20688,-0.60337 32.85073,-0.60337 29.89415,0 31.90711,0.0347 32.71554,0.56445 1.67366,1.09667 1.98101,1.97674 2.10289,6.02156 0.0974,3.23098 0.0236,3.93559 -0.54679,5.2251 -1.13464,2.565051 0.43705,2.428891 -28.03547,2.428891 h -25.13027 v 6.3899 6.3899 l 18.16,0.0901 c 17.37117,0.0862 18.20495,0.11729 19.19482,0.71604 1.65714,1.00235 2.00518,2.14066 2.00518,6.55831 0,4.37851 -0.31834,5.39386 -2.01554,6.4287 -0.98424,0.60013 -1.73754,0.6247 -19.18446,0.62585 l -18.16,10e-4 v 6.88 6.88 h 25.29589 c 28.38376,0 26.71559,-0.14028 27.84222,2.34122 0.47663,1.04979 0.60545,2.06406 0.5968,4.69878 -0.0132,4.01188 -0.40125,5.32659 -1.86224,6.30891 l -1.08732,0.73109 -32.03268,-0.009 c -29.0465,-0.008 -32.11105,-0.0571 -32.87338,-0.53027 z m 91.30145,-0.10942 c -2.07224,-1.26341 -1.98074,0.31151 -1.98074,-34.09315 0,-34.465621 -0.10828,-32.634331 2.00517,-33.912701 0.90107,-0.54504 1.63566,-0.62594 5.68337,-0.62594 4.34752,0 4.74509,0.0518 6.13952,0.8 0.99525,0.53401 8.70595,7.91432 23.19145,22.197751 l 21.70048,21.39775 0.16,-20.97688 0.16,-20.976881 0.94476,-0.98597 c 1.33644,-1.39475 2.87276,-1.7037 7.76361,-1.56126 4.7291,0.13774 5.50427,0.43599 6.57114,2.52823 0.5213,1.02235 0.55953,3.22248 0.56,32.227531 5.3e-4,33.35689 0.0469,32.37006 -1.58798,33.82973 -0.64284,0.57396 -1.24996,0.65015 -5.88416,0.73838 -4.89464,0.0932 -5.2379,0.0594 -6.50366,-0.64 -0.7602,-0.42006 -10.693,-9.97927 -23.03999,-22.17342 l -21.70371,-21.43503 -0.16,20.79503 c -0.17393,22.60421 -0.0956,21.71734 -2.02043,22.89096 -0.89379,0.54498 -1.6315,0.62168 -5.97957,0.62168 -4.41164,0 -5.07711,-0.0714 -6.01926,-0.64581 z m 100.54766,0.0412 c -2.13311,-1.30074 -2.04917,0.0989 -2.04138,-34.03942 0.007,-29.558721 0.0314,-30.847211 0.61485,-32.132301 0.99868,-2.19966 1.90753,-2.50122 7.53812,-2.50122 5.39943,0 6.41239,0.29503 7.43459,2.16541 0.52972,0.96928 0.56541,3.02419 0.56541,32.554591 0,29.53039 -0.0357,31.5853 -0.56541,32.55458 -0.96895,1.77294 -1.83927,2.00556 -7.4987,2.00422 -4.39288,-10e-4 -5.18592,-0.0805 -6.04748,-0.60586 z m 41.85234,-0.0412 c -2.07249,-1.26356 -1.98087,0.31672 -1.97955,-34.14152 10e-4,-30.450391 0.0179,-31.317721 0.62472,-32.312891 1.41051,-2.31329 -0.10274,-2.17834 24.32051,-2.16898 19.48064,0.007 22.28968,0.0713 25.11778,0.57089 18.03369,3.18561 28.33579,15.528931 28.33579,33.950141 0,10.34837 -2.75626,18.03237 -8.75122,24.39689 -5.052,5.36346 -11.5809,8.58181 -20.04878,9.88283 -2.44066,0.37499 -7.32999,0.46721 -24.8,0.46776 -21.26265,6.8e-4 -21.78421,-0.0141 -22.81925,-0.64512 z m 46.84407,-14.47088 c 7.72571,-2.61197 12.3856,-9.20501 12.84631,-18.17558 0.54262,-10.56554 -4.95763,-18.75403 -14.18185,-21.11319 -2.28297,-0.58389 -3.57923,-0.63214 -16.98047,-0.63214 h -14.50881 v 20.49461 20.49462 l 15.12,-0.0972 15.12,-0.0972 z m 41.49243,14.70547 c -1.18776,-0.67683 -1.80032,-1.83843 -1.80032,-3.41393 0,-1.30338 1.72873,-4.82691 15.78736,-32.17805 8.87772,-17.27164 16.20982,-31.164291 16.7526,-31.742321 1.36226,-1.45072 3.32231,-1.78331 9.6278,-1.63366 5.48364,0.13015 6.34976,0.34396 7.74188,1.91117 0.36661,0.41272 7.74661,14.525221 16.4,31.361111 13.96597,27.17201 15.73347,30.77407 15.73347,32.06494 0,1.897 -0.4846,2.90096 -1.7177,3.55908 -0.8546,0.45611 -1.8599,0.51951 -6.82,0.43012 -5.26357,-0.0949 -5.90361,-0.16736 -6.72,-0.76122 -0.62006,-0.45104 -1.82481,-2.5282 -3.85117,-6.63999 l -2.94883,-5.98363 h -18.90589 -18.90589 l -2.90474,5.9263 c -2.17849,4.44461 -3.15489,6.10475 -3.90528,6.64 -0.93693,0.66833 -1.37686,0.71872 -6.92054,0.79281 -4.36293,0.0583 -6.1101,-0.0292 -6.64275,-0.33273 z m 51.06942,-27.39484 c -0.38606,-1.04398 -11.65839,-24.0137 -11.78667,-24.01777 -0.17959,-0.006 -11.84,23.69853 -11.84,24.06931 0,0.13031 5.34,0.23692 11.86667,0.23692 6.91145,0 11.82212,-0.12045 11.76,-0.28846 z"
       id="path1" />
  </g>
</svg>
