<svg id="AVIA" width="500" height="188.13454" viewBox="0 0 500 188.13454" version="1.1" xml:space="preserve" xmlns:xlink="http://www.w3.org/1999/xlink" xmlns="http://www.w3.org/2000/svg" xmlns:svg="http://www.w3.org/2000/svg">
	<path id="AVIA" style="fill:#000000;stroke:#000000;stroke-width:0" d="m 65.105803,126.99949 12.38842,-54.799598 12.3965,54.799598 z m 38.642187,61.13505 h 51.24852 L 106.8794,40.312816 H 48.117123 L 0,188.13454 h 51.248523 l 5.2217,-23.18693 h 41.98344 l 5.221697,23.18693 z m 306.36129,-61.13505 12.39649,-54.799598 12.39649,54.799598 z m 38.64219,61.13505 H 500 L 451.89095,40.312816 H 393.12059 L 345.00347,188.13454 H 396.252 l 5.29434,-23.18693 h 41.98343 l 5.29434,23.18693 z M 236.73592,40.312816 211.1843,129.16242 185.62457,40.312816 H 135.627 l 48.11711,147.821724 h 54.8642 L 286.72543,40.312816 h -49.99758 z m 30.07925,147.821724 h 49.98951 L 364.9218,40.312816 H 314.93229 Z M 328.08743,0 319.31465,26.875211 h 49.99757 L 378.085,0 Z" />
</svg>
