<?xml version="1.0" encoding="UTF-8" standalone="no"?>
<svg
   width="141.17728"
   height="100"
   fill="none"
   viewBox="0 0 141.17728 100"
   version="1.1"
   id="svg2"
   xmlns="http://www.w3.org/2000/svg"
   xmlns:svg="http://www.w3.org/2000/svg">&quot;
<g
   fill="#000000"
   clip-path="url(#clip0_33_9223)"
   id="g1"
   transform="scale(2.2727273)">
  <path
     d="m 8.067,15.736 1.535,-6.79 1.536,6.79 z m 4.788,7.575 h 6.35 L 13.243,4.995 H 5.962 L 0,23.311 h 6.35 l 0.647,-2.873 h 5.202 l 0.647,2.873 z m 37.96,-7.575 1.536,-6.79 1.536,6.79 z m 4.788,7.575 h 6.35 L 55.992,4.995 H 48.71 l -5.962,18.316 h 6.35 l 0.656,-2.873 h 5.202 l 0.656,2.873 z M 29.333,4.995 26.167,16.004 23,4.995 h -6.195 l 5.962,18.316 h 6.798 L 35.527,4.995 h -6.195 z m 3.727,18.316 h 6.194 L 45.216,4.995 H 39.022 Z M 40.652,0 39.565,3.33 H 45.76 L 46.847,0 Z M 0,26.745 h 62.118 v 4.314 H 0 Z m 0,6.039 H 62.118 V 44 H 0 Z"
     id="path1" />
</g>
<defs
   id="defs2">
  <clipPath
     id="clip0_33_9223">
    <path
       fill="#000000"
       d="M 0,0 H 63 V 44 H 0 Z"
       id="path2" />
  </clipPath>
</defs>
</svg>
