<svg
   width="202.26385mm"
   height="202.11685mm"
   viewBox="0 0 202.26385 202.11686"
   version="1.1"
   id="svg51747"
   xml:space="preserve"
   xmlns="http://www.w3.org/2000/svg"
   xmlns:svg="http://www.w3.org/2000/svg"><defs
     id="defs51744" /><g
     id="layer1"
     transform="translate(-317.08203,-40.750384)"><path
       style="fill:#000000;stroke-width:0.0329361"
       d="m 417.97098,242.77967 c -0.0807,-0.0542 -0.20578,-0.19413 -0.29962,-0.33525 -0.21598,-0.32478 -2.28173,-2.37977 -2.7662,-2.75181 -0.25909,-0.19895 -0.40557,-0.3431 -0.58575,-0.5764 -0.21537,-0.27888 -0.71694,-0.8132 -1.05232,-1.12104 -0.16126,-0.14802 -1.07216,-1.10973 -1.10363,-1.16518 -0.0133,-0.0234 -0.21392,-0.18435 -0.44591,-0.35771 -0.34472,-0.25761 -0.45556,-0.36217 -0.60651,-0.57213 -0.25948,-0.36092 -2.26562,-2.36828 -2.70862,-2.71027 -0.26533,-0.20482 -0.40014,-0.33896 -0.57654,-0.57365 -0.13214,-0.17581 -0.62422,-0.70256 -1.15493,-1.23629 -0.50858,-0.51148 -0.94825,-0.96592 -0.97704,-1.00986 -0.0535,-0.0817 -0.47487,-0.42239 -0.72893,-0.58943 -0.0848,-0.0557 -0.2516,-0.23976 -0.41689,-0.45982 -0.15157,-0.2018 -0.35476,-0.43536 -0.45154,-0.51902 -0.0968,-0.0837 -0.32417,-0.30367 -0.50532,-0.48892 -0.98866,-1.01102 -1.31439,-1.32391 -1.6287,-1.56453 -0.19081,-0.14608 -0.40634,-0.34055 -0.47895,-0.43217 -0.0726,-0.0916 -0.20103,-0.2537 -0.28538,-0.36019 -0.0844,-0.10649 -0.51075,-0.54934 -0.94754,-0.98409 -0.43678,-0.43476 -0.87762,-0.89117 -0.97962,-1.01425 -0.11928,-0.14392 -0.32815,-0.32846 -0.58531,-0.51712 -0.32887,-0.24127 -0.4283,-0.33497 -0.56006,-0.52782 -0.23197,-0.33949 -2.23168,-2.34089 -2.69795,-2.70022 -0.27479,-0.21177 -0.41859,-0.35236 -0.58957,-0.57639 -0.20276,-0.26568 -0.72298,-0.82176 -1.06581,-1.13929 -0.1753,-0.16235 -1.04405,-1.0786 -1.07548,-1.13427 -0.014,-0.0248 -0.2163,-0.18813 -0.44959,-0.36305 -0.34343,-0.25747 -0.45862,-0.36594 -0.6051,-0.56978 -0.26121,-0.36351 -2.28714,-2.39047 -2.72176,-2.72316 -0.27214,-0.20831 -0.40216,-0.33803 -0.61071,-0.60932 -0.15316,-0.19923 -0.63827,-0.7199 -1.14965,-1.23394 -0.48658,-0.4891 -0.92228,-0.93817 -0.96822,-0.99793 -0.0459,-0.0598 -0.26278,-0.2404 -0.48186,-0.40141 -0.33524,-0.24639 -0.43203,-0.33874 -0.6111,-0.58301 -0.11703,-0.15963 -0.40534,-0.47551 -0.64069,-0.70195 -0.23535,-0.22643 -0.4879,-0.47737 -0.56122,-0.55763 -0.41188,-0.45084 -1.13809,-1.14481 -1.4268,-1.36345 -0.32794,-0.24835 -0.37093,-0.29224 -0.69922,-0.71381 -0.0917,-0.11775 -0.56356,-0.61426 -1.04859,-1.10336 -0.48503,-0.48911 -0.92404,-0.94552 -0.97559,-1.01425 -0.0891,-0.11876 -0.48847,-0.44664 -0.77536,-0.63649 -0.0759,-0.0502 -0.23753,-0.23153 -0.37687,-0.42273 -0.13419,-0.18413 -0.36736,-0.44754 -0.51816,-0.58536 -0.1508,-0.13781 -0.38534,-0.3654 -0.5212,-0.50576 -0.80071,-0.8272 -1.30859,-1.31448 -1.62779,-1.56176 -0.27167,-0.21045 -0.41662,-0.35275 -0.58388,-0.57319 -0.19549,-0.25766 -0.70319,-0.80073 -1.02266,-1.0939 -0.0598,-0.0549 -0.35786,-0.36386 -0.66238,-0.68666 -0.40406,-0.42832 -0.65805,-0.66529 -0.93992,-0.87695 -0.3072,-0.23069 -0.42406,-0.34261 -0.57108,-0.54701 -0.26431,-0.36741 -2.29746,-2.40149 -2.72104,-2.72226 -0.25996,-0.19688 -0.38521,-0.32173 -0.57549,-0.57366 -0.14225,-0.18833 -0.61659,-0.6977 -1.14265,-1.22702 -0.49469,-0.49776 -0.93645,-0.95351 -0.98168,-1.01278 -0.0803,-0.10525 -0.44254,-0.39667 -0.72513,-0.58338 -0.0842,-0.0556 -0.25268,-0.24164 -0.41689,-0.46028 -0.15158,-0.2018 -0.35477,-0.43535 -0.45155,-0.51902 -0.0968,-0.0837 -0.31893,-0.29783 -0.49369,-0.47594 -0.9734,-0.99208 -1.4017,-1.40317 -1.69284,-1.62481 -0.23726,-0.18062 -0.38815,-0.32915 -0.56136,-0.55255 -0.20713,-0.26714 -0.74589,-0.84764 -1.06145,-1.14366 -0.1402,-0.13153 -0.89398,-0.90492 -1.14236,-1.17209 -0.10869,-0.11691 -0.3391,-0.3117 -0.51202,-0.43288 -0.25403,-0.178 -0.35057,-0.27083 -0.50276,-0.48339 -0.2671,-0.37307 -2.28547,-2.3911 -2.71897,-2.71852 -0.18344,-0.13856 -0.37436,-0.30492 -0.42427,-0.3697 -0.3109,-0.40352 -0.44395,-0.55782 -0.7478,-0.86721 -0.18681,-0.19021 -0.38958,-0.39085 -0.45061,-0.44586 -0.061,-0.055 -0.20732,-0.20313 -0.32506,-0.32915 -0.11775,-0.12601 -0.36028,-0.38483 -0.53897,-0.57516 -0.18257,-0.19447 -0.49567,-0.47589 -0.71481,-0.64247 -0.30063,-0.22854 -0.43477,-0.35678 -0.58566,-0.55992 -0.28616,-0.38524 -2.2791,-2.37699 -2.70355,-2.70193 -0.27181,-0.20808 -0.40239,-0.33833 -0.61087,-0.60932 -0.1531,-0.19899 -0.63926,-0.72052 -1.15026,-1.23394 -0.4868,-0.4891 -0.92241,-0.93817 -0.96801,-0.99793 -0.0456,-0.0598 -0.26217,-0.2404 -0.48125,-0.40142 -0.3359,-0.24687 -0.4316,-0.33825 -0.61058,-0.583 -0.11673,-0.15964 -0.40569,-0.47552 -0.64213,-0.70195 -0.23643,-0.22644 -0.48181,-0.46975 -0.54529,-0.54069 -0.35274,-0.39426 -1.15123,-1.15903 -1.45873,-1.39712 -0.195,-0.15099 -0.39493,-0.32696 -0.44429,-0.39105 -0.0494,-0.0641 -0.16047,-0.20733 -0.24692,-0.31832 -0.0864,-0.11099 -0.53925,-0.58716 -1.00623,-1.05814 -0.46698,-0.47099 -0.915,-0.93586 -0.99559,-1.03305 -0.12704,-0.1532 -0.54637,-0.49595 -0.82972,-0.6782 -0.0497,-0.032 -0.20049,-0.20926 -0.33514,-0.39402 -0.13464,-0.18476 -0.36818,-0.44868 -0.51898,-0.58649 -0.1508,-0.13781 -0.38535,-0.3654 -0.52121,-0.50576 -0.81178,-0.83865 -1.30585,-1.31284 -1.61008,-1.54529 -0.27148,-0.20743 -0.40855,-0.34409 -0.64425,-0.64226 -0.25013,-0.31642 -0.4659,-0.54304 -1.06814,-1.12183 -0.14331,-0.13773 -1.01171,-1.06295 -1.03297,-1.10055 -0.0134,-0.0237 -0.20993,-0.18143 -0.43677,-0.35056 -0.33278,-0.24812 -0.45002,-0.35856 -0.60696,-0.57174 -0.27886,-0.37877 -2.31812,-2.41792 -2.72999,-2.72983 -0.25416,-0.19247 -0.38182,-0.31948 -0.56173,-0.55885 -0.13331,-0.17736 -0.62235,-0.70232 -1.14413,-1.22814 -0.50121,-0.50511 -0.94979,-0.96882 -0.99683,-1.03046 -0.047,-0.0617 -0.26361,-0.24373 -0.48125,-0.40462 -0.33473,-0.24746 -0.43391,-0.34294 -0.64358,-0.61958 -0.13674,-0.18041 -0.43945,-0.50834 -0.67519,-0.73143 -0.23503,-0.22243 -0.4828,-0.46828 -0.55059,-0.54635 -0.30396,-0.35001 -1.05634,-1.0677 -1.37313,-1.30983 -0.19112,-0.14607 -0.4069,-0.34056 -0.47951,-0.43218 -0.0726,-0.0916 -0.18813,-0.23889 -0.25671,-0.32726 -0.0686,-0.0884 -0.52879,-0.56826 -1.02266,-1.06642 -0.49387,-0.49816 -0.94168,-0.96419 -0.99513,-1.03562 -0.0534,-0.0714 -0.27503,-0.26136 -0.49241,-0.42206 -0.32489,-0.24019 -0.43386,-0.34384 -0.61226,-0.58244 -0.3006,-0.40202 -2.45548,-2.54946 -2.7739,-2.76433 -0.42568,-0.28725 -0.42847,-0.51908 -0.009,-0.78215 0.11042,-0.0693 0.3638,-0.28624 0.56307,-0.48204 0.88644,-0.87104 1.02889,-1.00746 1.15715,-1.10819 0.0749,-0.0588 0.18519,-0.17622 0.24513,-0.26094 0.10789,-0.15247 0.39911,-0.48837 0.82833,-0.95542 0.12206,-0.13281 0.36671,-0.3604 0.54366,-0.50575 0.32239,-0.26482 0.56413,-0.49114 0.96399,-0.90251 0.11774,-0.12113 0.30292,-0.30342 0.41152,-0.40508 0.34961,-0.3273 0.55532,-0.54224 0.77418,-0.80894 0.41097,-0.5008 0.84014,-0.94724 1.06969,-1.11275 0.12721,-0.0917 0.36468,-0.29836 0.52771,-0.45922 0.16304,-0.16085 0.43723,-0.43196 0.60932,-0.60245 0.17209,-0.17049 0.38917,-0.36929 0.4824,-0.44178 0.0932,-0.0725 0.24087,-0.2253 0.32808,-0.33958 0.34359,-0.45019 1.10504,-1.26696 1.38729,-1.48808 0.1589,-0.12449 0.34079,-0.29191 0.40419,-0.37205 0.0634,-0.0801 0.19174,-0.19679 0.2852,-0.25924 0.0935,-0.0624 0.25649,-0.21424 0.3623,-0.33732 0.10581,-0.12309 0.29561,-0.3099 0.42178,-0.41515 0.12618,-0.10525 0.29663,-0.27655 0.37877,-0.38067 0.50088,-0.63485 1.02131,-1.19179 1.31859,-1.41108 0.13586,-0.10022 0.3769,-0.30954 0.53563,-0.46516 0.74566,-0.73103 1.01018,-0.98699 1.17739,-1.13931 0.0994,-0.0906 0.26549,-0.27585 0.36899,-0.4117 0.30234,-0.39685 0.90848,-1.03242 1.21591,-1.27493 0.15634,-0.12333 0.35343,-0.30117 0.43796,-0.39519 0.0845,-0.094 0.22765,-0.22524 0.31801,-0.29157 0.0904,-0.0663 0.23207,-0.20419 0.31489,-0.30632 0.0828,-0.10215 0.27043,-0.28537 0.41692,-0.40718 0.14648,-0.1218 0.34127,-0.3166 0.43285,-0.43288 0.49149,-0.62402 1.01032,-1.18054 1.28302,-1.37624 0.12863,-0.0923 0.36277,-0.29568 0.5203,-0.45194 0.70047,-0.69484 0.87865,-0.86505 1.06726,-1.0195 0.11049,-0.0905 0.25793,-0.24366 0.32763,-0.34036 0.31314,-0.43446 1.004,-1.17983 1.3483,-1.45468 0.16274,-0.12992 0.39498,-0.33255 0.51609,-0.4503 0.12111,-0.11775 0.30661,-0.29654 0.41223,-0.39731 0.10562,-0.10077 0.25225,-0.24899 0.32585,-0.32936 0.0736,-0.0804 0.25226,-0.2573 0.39702,-0.39316 0.14477,-0.13586 0.36615,-0.37198 0.49197,-0.52472 0.42863,-0.52031 0.85083,-0.96073 1.06697,-1.11301 0.20436,-0.14399 0.40486,-0.33025 1.14801,-1.06651 0.17563,-0.17399 0.39819,-0.38005 0.49459,-0.45791 0.0964,-0.0779 0.26158,-0.25415 0.36706,-0.39176 0.10549,-0.13762 0.28599,-0.35435 0.40112,-0.48163 0.11512,-0.12728 0.28343,-0.31851 0.374,-0.42495 0.0906,-0.10644 0.30726,-0.30902 0.48152,-0.45016 0.17427,-0.14115 0.38918,-0.33653 0.47758,-0.43419 0.0884,-0.0977 0.22903,-0.22374 0.3125,-0.28018 0.0835,-0.0564 0.23169,-0.19494 0.32937,-0.30778 0.0977,-0.11285 0.28656,-0.29821 0.41975,-0.41193 0.13319,-0.11372 0.30666,-0.28982 0.38549,-0.39134 0.44164,-0.56874 1.03888,-1.20791 1.31379,-1.40601 0.12779,-0.0921 0.35387,-0.28754 0.5024,-0.43436 0.76748,-0.7586 0.99516,-0.9766 1.13823,-1.08989 0.0862,-0.0683 0.21143,-0.20002 0.27829,-0.29282 0.14395,-0.19979 0.44351,-0.55011 0.71248,-0.83321 0.10627,-0.11185 0.21479,-0.23415 0.24114,-0.27178 0.0263,-0.0376 0.19157,-0.18137 0.36714,-0.31944 0.17557,-0.13806 0.39194,-0.33195 0.48083,-0.43088 0.0889,-0.0989 0.24086,-0.23841 0.33772,-0.30997 0.0969,-0.0716 0.23636,-0.20741 0.30998,-0.30189 0.0736,-0.0945 0.25855,-0.27628 0.41095,-0.404 0.1524,-0.12773 0.34167,-0.3154 0.42061,-0.41706 0.43477,-0.5599 1.03077,-1.19914 1.30692,-1.40173 0.13586,-0.0997 0.36754,-0.30147 0.51484,-0.44843 0.1473,-0.14695 0.44373,-0.43317 0.65872,-0.63603 0.64019,-0.60406 0.71245,-0.67817 0.89449,-0.91734 0.30262,-0.397567 0.90262,-1.034087 1.17831,-1.250007 0.1461,-0.11444 0.37826,-0.31685 0.51591,-0.44981 0.13765,-0.13296 0.32936,-0.31661 0.42603,-0.40812 0.0967,-0.0915 0.23503,-0.23114 0.30749,-0.31032 0.0725,-0.0792 0.25803,-0.26368 0.41239,-0.41001 0.15435,-0.14634 0.37668,-0.38367 0.49404,-0.52741 0.41073,-0.50301 0.84127,-0.95096 1.0862,-1.13012 0.13587,-0.0994 0.37701,-0.30864 0.53587,-0.46503 0.15887,-0.1564 0.42565,-0.41937 0.59286,-0.58437 0.1672,-0.16501 0.38236,-0.36324 0.47814,-0.4405 0.0958,-0.0773 0.24288,-0.23127 0.3269,-0.34224 0.084,-0.11097 0.2654,-0.32774 0.40307,-0.48172 0.13767,-0.15398 0.33748,-0.38058 0.44403,-0.50357 0.10654,-0.12299 0.31367,-0.31782 0.46027,-0.43295 0.14662,-0.11514 0.36147,-0.30778 0.47746,-0.42809 0.11599,-0.12031 0.27067,-0.25895 0.34374,-0.30811 0.0731,-0.0491 0.2079,-0.17875 0.29962,-0.28801 0.0917,-0.10925 0.28125,-0.29451 0.42116,-0.4117 0.13993,-0.11718 0.29892,-0.2743 0.35333,-0.34916 0.32661,-0.44932 1.06446,-1.24349 1.35108,-1.45421 0.23661,-0.17395 0.37024,-0.2984 1.17879,-1.09781 0.19451,-0.19231 0.40815,-0.38962 0.47476,-0.43848 0.0666,-0.0489 0.18496,-0.17312 0.26302,-0.27614 0.39973,-0.52758 1.008,-1.18339 1.34077,-1.44555 0.15164,-0.11947 0.38995,-0.32987 0.52957,-0.46757 0.13963,-0.13769 0.30245,-0.28614 0.36183,-0.32988 0.0594,-0.0437 0.16705,-0.1549 0.23927,-0.24702 0.0722,-0.0921 0.24479,-0.26035 0.38349,-0.37383 0.1387,-0.11348 0.33369,-0.30765 0.43333,-0.4315 0.57251,-0.71162 1.02267,-1.19521 1.29764,-1.394 0.12864,-0.093 0.35557,-0.28896 0.50429,-0.43547 0.64071,-0.63123 0.96016,-0.93556 1.13694,-1.08312 0.10379,-0.0866 0.23638,-0.22733 0.29466,-0.31266 0.26718,-0.39119 0.9896,-1.17156 1.32501,-1.43129 0.1432,-0.11089 0.37518,-0.31376 0.51551,-0.45082 0.14032,-0.13706 0.3344,-0.32376 0.43128,-0.4149 0.0969,-0.0911 0.22803,-0.2235 0.29143,-0.29414 0.0634,-0.0706 0.24908,-0.25545 0.41261,-0.41068 0.16354,-0.15523 0.39327,-0.40055 0.51051,-0.54515 0.3944,-0.4864 0.82855,-0.93839 1.06514,-1.10889 0.12921,-0.0931 0.35615,-0.28944 0.50429,-0.43625 0.57897,-0.57375 0.98899,-0.964 1.13845,-1.08356 0.0859,-0.0687 0.23624,-0.23177 0.33404,-0.3623 0.0978,-0.13053 0.28687,-0.35625 0.42016,-0.50158 0.13329,-0.14535 0.31528,-0.35001 0.40443,-0.4548 0.0892,-0.10479 0.28923,-0.29164 0.44464,-0.41521 0.31229,-0.24833 0.36622,-0.29739 0.51874,-0.47182 0.0574,-0.0657 0.17812,-0.17238 0.26817,-0.23708 0.0901,-0.0647 0.24948,-0.21529 0.35429,-0.33467 0.1048,-0.11937 0.29537,-0.30696 0.42348,-0.41686 0.12811,-0.1099 0.29963,-0.2843 0.38114,-0.38755 0.48195,-0.61041 1.05452,-1.22181 1.3133,-1.40237 0.12003,-0.0838 0.33941,-0.27271 0.48751,-0.41992 0.66181,-0.6578 0.9935,-0.97539 1.13935,-1.09088 0.0864,-0.0684 0.22956,-0.2224 0.31819,-0.34222 0.0886,-0.11983 0.19716,-0.25819 0.24118,-0.30747 0.6392,-0.71554 0.85912,-0.93964 1.10477,-1.12577 0.1577,-0.1195 0.35087,-0.29178 0.42927,-0.38284 0.0784,-0.0911 0.22297,-0.22499 0.32126,-0.29761 0.0983,-0.0726 0.23879,-0.20932 0.31221,-0.3038 0.0734,-0.0945 0.25819,-0.27553 0.41061,-0.40233 0.15241,-0.12681 0.34054,-0.3127 0.41806,-0.4131 0.41706,-0.54019 1.03213,-1.20154 1.29115,-1.3883 0.12821,-0.0924 0.3665,-0.29969 0.52953,-0.46054 0.75064,-0.74062 0.93404,-0.91574 1.09881,-1.04918 0.0971,-0.0787 0.26757,-0.26453 0.37877,-0.41304 0.30802,-0.41142 0.93043,-1.08399 1.20672,-1.304 0.35385,-0.28176 0.84511,-0.74321 1.34087,-1.2595 0.0505,-0.0526 0.21787,-0.21565 0.37188,-0.3623 0.15401,-0.14665 0.39081,-0.40003 0.52621,-0.56307 0.45777,-0.5512 0.80658,-0.91333 1.05466,-1.09493 0.13586,-0.0995 0.36871,-0.30137 0.51746,-0.44869 0.67381,-0.66742 0.92738,-0.90969 1.0894,-1.04084 0.0958,-0.0775 0.24345,-0.23175 0.32817,-0.34271 0.32621,-0.42729 1.08131,-1.24479 1.31535,-1.42405 0.1335,-0.10225 0.32753,-0.27836 0.43118,-0.39135 0.10364,-0.11299 0.24753,-0.24546 0.31974,-0.29438 0.0722,-0.0489 0.28712,-0.2485 0.47757,-0.44349 0.19046,-0.195 0.39651,-0.39345 0.4579,-0.44101 0.0614,-0.0476 0.17255,-0.16628 0.24702,-0.26383 0.42639,-0.55856 1.00538,-1.17901 1.30464,-1.39808 0.13586,-0.0995 0.36863,-0.30137 0.51726,-0.44869 0.75191,-0.74531 0.99474,-0.97815 1.13805,-1.09125 0.0862,-0.068 0.21138,-0.1996 0.27818,-0.2924 0.0668,-0.0928 0.25808,-0.31766 0.42505,-0.49969 0.16697,-0.18203 0.35726,-0.42255 0.42286,-0.53448 0.10158,-0.17331 0.18143,-0.24981 0.53807,-0.51547 0.26515,-0.1975 0.47581,-0.38418 0.57422,-0.50883 0.0855,-0.10828 0.25881,-0.28585 0.38517,-0.39461 0.12636,-0.10876 0.41213,-0.38701 0.63504,-0.61834 0.22291,-0.23133 0.46948,-0.47991 0.54793,-0.55239 0.0785,-0.0725 0.27025,-0.29222 0.42621,-0.4883 0.21412,-0.2692 0.35664,-0.41039 0.58195,-0.57653 0.16412,-0.121 0.41697,-0.34476 0.56189,-0.49723 0.14492,-0.15247 0.33759,-0.34566 0.42817,-0.42932 0.35341,-0.32642 1.33159,-1.32787 1.5974,-1.6354 0.44851,-0.51891 0.50133,-0.56801 0.63883,-0.5938 0.15283,-0.0287 0.33706,0.0228 0.44807,0.12522 0.0453,0.0418 0.17868,0.15505 0.29642,0.25173 0.11775,0.0967 0.27963,0.25184 0.35974,0.34481 0.0801,0.093 0.23554,0.25056 0.34538,0.35019 0.22423,0.20339 0.77393,0.75213 1.12398,1.12203 0.12743,0.13465 0.53723,0.54001 0.91066,0.90078 0.37343,0.36078 0.74205,0.73872 0.81915,0.83987 0.0771,0.10116 0.23793,0.26941 0.35739,0.3739 0.19024,0.1664 0.8192,0.79292 3.54375,3.53 0.34418,0.34577 0.69989,0.71014 0.79047,0.8097 0.0906,0.0996 0.31141,0.30682 0.49075,0.46057 0.3862,0.3311 0.38278,0.32774 0.90904,0.89021 0.22643,0.24201 0.56599,0.58897 0.75456,0.77102 0.46493,0.44885 0.85349,0.83756 1.18917,1.18962 0.15425,0.16178 0.59158,0.59798 0.97184,0.96933 0.38026,0.37136 0.73463,0.73448 0.78749,0.80694 0.0529,0.0725 0.22321,0.24705 0.37855,0.38799 0.24839,0.22535 0.95269,0.92704 3.46077,3.44792 0.35325,0.35504 0.72378,0.73468 0.82341,0.84365 0.0996,0.10896 0.31414,0.30857 0.47669,0.44357 0.16255,0.13501 0.36249,0.31958 0.44431,0.41015 0.24948,0.27616 0.88745,0.92944 1.25106,1.28109 0.48538,0.46941 0.80292,0.78802 1.08862,1.0923 0.13587,0.1447 0.55835,0.56251 0.93887,0.92846 0.38051,0.36596 0.75705,0.75096 0.83676,0.85555 0.0797,0.1046 0.24265,0.27565 0.36211,0.38011 0.25624,0.22407 3.95816,3.93159 4.33422,4.34076 0.0906,0.0985 0.3119,0.30517 0.49182,0.45914 0.3731,0.31928 0.35697,0.30344 0.90797,0.89186 0.22644,0.2418 0.57474,0.59538 0.774,0.78571 0.19927,0.19033 0.51051,0.50132 0.69166,0.6911 0.18115,0.18977 0.49881,0.50887 0.70591,0.7091 0.2071,0.20024 0.6221,0.61412 0.92221,0.91974 0.30012,0.30563 1.03407,1.03928 1.631,1.63034 0.59693,0.59107 1.33058,1.32597 1.63034,1.63312 0.29976,0.30715 0.83403,0.84828 1.18727,1.20251 0.35324,0.35423 0.71636,0.726 0.80694,0.82615 0.0906,0.10016 0.30548,0.30009 0.47757,0.4443 0.17209,0.14421 0.37218,0.3289 0.44464,0.41042 0.28224,0.31752 1.19177,1.24352 1.73105,1.76241 0.20727,0.19944 0.48803,0.48123 0.62389,0.6262 0.13586,0.14496 0.55874,0.56356 0.93973,0.9302 0.38099,0.36663 0.74987,0.74439 0.81973,0.83946 0.0699,0.0951 0.23242,0.26595 0.36125,0.37975 0.20464,0.18078 0.97838,0.95141 3.52784,3.51366 0.34419,0.34592 0.70731,0.71743 0.80694,0.82559 0.0996,0.10816 0.3205,0.31522 0.49081,0.46014 0.36461,0.31024 0.35827,0.30402 0.90898,0.89159 0.23549,0.25125 0.59121,0.61245 0.79047,0.80266 0.19926,0.19021 0.51051,0.50115 0.69166,0.69096 0.18115,0.18982 0.49134,0.50151 0.68931,0.69264 0.67546,0.65211 1.4514,1.43891 1.53061,1.55203 0.0435,0.0621 0.19911,0.22073 0.34583,0.35249 0.23408,0.2102 1.0498,1.0226 3.47804,3.46386 0.35324,0.35513 0.72377,0.73441 0.8234,0.84282 0.0996,0.10842 0.3219,0.31557 0.49392,0.46034 0.17203,0.14476 0.37212,0.32991 0.44464,0.41142 0.2142,0.24076 0.82939,0.87148 1.21686,1.247577 0.50131,0.48661 0.85169,0.83844 1.12174,1.12637 0.1268,0.1352 0.54195,0.54539 0.92255,0.91153 0.3806,0.36613 0.75723,0.75119 0.83695,0.85567 0.0797,0.10448 0.25001,0.28301 0.37842,0.39673 0.27293,0.2417 3.9419,3.91639 4.31757,4.3243 0.0906,0.0983 0.30402,0.29738 0.47434,0.4423 0.36301,0.30889 0.35546,0.30149 0.90898,0.89133 0.23549,0.25095 0.56656,0.59029 0.7357,0.75409 0.47239,0.45747 0.91562,0.90004 1.22493,1.22309 0.15449,0.16135 0.58431,0.59023 0.95515,0.95307 0.37085,0.36284 0.72512,0.72596 0.78727,0.80694 0.0622,0.081 0.2326,0.25492 0.37877,0.38656 0.14616,0.13163 0.84379,0.81972 1.55027,1.52909 0.70648,0.70937 1.57352,1.58002 1.92676,1.93477 0.35325,0.35475 0.71637,0.72696 0.80694,0.82713 0.0906,0.10017 0.30549,0.30011 0.47758,0.44433 0.17209,0.14421 0.37217,0.32836 0.44463,0.40921 0.12426,0.13866 0.5453,0.57586 1.12717,1.17044 0.14183,0.14492 0.42792,0.42652 0.63577,0.62578 0.20786,0.19927 0.48167,0.47353 0.60847,0.60948 0.12681,0.13595 0.54479,0.54982 0.92885,0.91972 0.38406,0.36989 0.75334,0.74777 0.82063,0.83971 0.0673,0.0919 0.22733,0.26023 0.35566,0.37396 0.20485,0.18154 0.77563,0.75024 3.52695,3.51414 0.34418,0.34576 0.7073,0.71713 0.80694,0.82527 0.0996,0.10814 0.32049,0.31519 0.49081,0.46011 0.36656,0.31191 0.36546,0.31084 0.8925,0.87422 0.22644,0.24205 0.57474,0.59628 0.77401,0.78718 0.19926,0.1909 0.51051,0.50217 0.69165,0.69172 0.18115,0.18954 0.49865,0.50834 0.70555,0.70843 0.68385,0.66137 1.43528,1.42279 1.549,1.56961 0.0616,0.0795 0.21684,0.23771 0.34498,0.35152 0.12814,0.11382 0.81843,0.79462 1.53397,1.51289 0.71554,0.71828 1.58999,1.59595 1.94323,1.95039 0.35324,0.35444 0.72378,0.73399 0.82341,0.84344 0.0996,0.10947 0.31438,0.30955 0.47721,0.44464 0.16284,0.1351 0.36293,0.31952 0.44464,0.40984 0.13778,0.15229 0.54086,0.57127 1.12563,1.17005 0.13287,0.13605 0.33691,0.33377 0.45341,0.43937 0.1165,0.1056 0.63154,0.6193 1.14453,1.14157 0.89338,0.90953 0.93271,0.95488 0.93271,1.07548 0,0.12029 -0.0348,0.1609 -0.78224,0.91245 -0.43023,0.4326 -0.93044,0.92881 -1.11159,1.10268 -0.18115,0.17387 -0.44534,0.43511 -0.5871,0.58052 -0.14176,0.14542 -0.44619,0.45707 -0.67651,0.69257 -0.23033,0.23549 -0.46434,0.48004 -0.52003,0.54344 -0.0557,0.0634 -0.2626,0.24787 -0.45979,0.40993 -0.19719,0.16206 -0.44712,0.3992 -0.55539,0.52698 -0.10828,0.12778 -0.43435,0.47196 -0.7246,0.76483 -0.29025,0.29288 -0.77499,0.78199 -1.07718,1.0869 -0.30219,0.30491 -0.99808,0.99162 -1.54641,1.526 -0.54834,0.53439 -1.05697,1.03504 -1.1303,1.11256 -0.78034,0.82488 -1.55062,1.62115 -1.56824,1.62115 -0.021,0 -1.0283,1.00291 -2.28937,2.27933 -0.32744,0.33142 -0.63869,0.6385 -0.69166,0.68238 -0.31876,0.26409 -0.60565,0.54031 -0.7552,0.72714 -0.0943,0.11775 -0.39276,0.42159 -0.66333,0.67519 -0.27058,0.25361 -0.54323,0.52728 -0.6059,0.60814 -0.0627,0.0809 -0.46707,0.49587 -0.89869,0.92222 -1.39971,1.38263 -2.40708,2.38818 -2.54306,2.53848 -0.0731,0.0808 -0.48815,0.49777 -0.92221,0.9265 -0.43407,0.42873 -0.90037,0.89703 -1.03623,1.04066 -0.13587,0.14363 -0.38691,0.3857 -0.55788,0.53794 -0.38958,0.34688 -0.39223,0.34949 -0.51722,0.50792 -0.17542,0.22237 -1.33242,1.37286 -1.57627,1.56741 -0.1268,0.10117 -0.30285,0.27145 -0.39122,0.37841 -0.0884,0.10695 -0.40702,0.44052 -0.70813,0.74127 -0.3011,0.30074 -0.80217,0.80467 -1.11349,1.11983 -0.31132,0.31516 -0.99994,0.99543 -1.53026,1.5117 -0.53032,0.51627 -1.03149,1.01042 -1.11371,1.09809 -0.37001,0.39457 -1.06222,1.1134 -1.30442,1.3546 -0.14611,0.1455 -0.65003,0.64502 -1.11983,1.11003 -0.4698,0.46502 -1.11444,1.10975 -1.43253,1.43272 -0.3181,0.32299 -0.72945,0.71865 -0.91412,0.87926 -0.18467,0.16061 -0.39709,0.36811 -0.47204,0.46111 -0.075,0.093 -0.41239,0.44328 -0.74986,0.77841 -0.33747,0.33512 -0.94135,0.9428 -1.34197,1.35038 -0.40061,0.40759 -1.14136,1.14992 -1.64611,1.64963 -0.50475,0.49972 -1.00833,1.00364 -1.11908,1.11984 -0.11075,0.11619 -0.52574,0.53263 -0.92222,0.92541 -0.39647,0.39279 -0.84023,0.83743 -0.98614,0.98809 -0.14592,0.15066 -0.44975,0.45178 -0.67519,0.66916 -0.22545,0.21738 -0.70633,0.69922 -1.06863,1.07074 -0.36229,0.37153 -0.76392,0.75942 -0.89251,0.86199 -0.12859,0.10257 -0.33073,0.30251 -0.44921,0.44433 -0.11848,0.14181 -0.42827,0.46707 -0.68842,0.72279 -0.26015,0.25572 -0.72753,0.72259 -1.03861,1.03749 -0.31109,0.31489 -0.99964,0.99494 -1.53012,1.51122 -0.53049,0.51627 -1.03185,1.00932 -1.11414,1.09565 -1.1548,1.21148 -1.56755,1.63805 -1.58496,1.63805 -0.0199,0 -1.0643,1.03874 -2.30735,2.29496 -0.31943,0.32283 -0.73163,0.71896 -0.91599,0.8803 -0.18436,0.16135 -0.38852,0.36143 -0.45369,0.44464 -0.0652,0.0832 -0.40179,0.4329 -0.74805,0.77708 -0.34626,0.34419 -0.9499,0.95186 -1.34144,1.35039 -0.39153,0.39853 -1.12483,1.1335 -1.62957,1.63326 -0.50473,0.49977 -1.023,1.01851 -1.15172,1.15277 -0.12871,0.13425 -0.5437,0.55042 -0.92221,0.9248 -0.3785,0.37439 -0.80676,0.80571 -0.95168,0.9585 -0.14492,0.15279 -0.4117,0.40886 -0.59285,0.56905 -0.18115,0.16019 -0.38926,0.36619 -0.46248,0.45776 -0.1971,0.24654 -1.3131,1.3568 -1.58204,1.5739 -0.12816,0.10347 -0.31167,0.28117 -0.40779,0.39491 -0.0961,0.11374 -0.41366,0.44526 -0.70565,0.73672 -0.29199,0.29145 -0.78565,0.78797 -1.09702,1.10336 -0.31137,0.31539 -0.99984,0.99585 -1.52993,1.51212 -0.53009,0.51628 -1.03122,1.00934 -1.11362,1.0957 -0.0824,0.0864 -0.46745,0.49024 -0.85567,0.89751 -0.38822,0.40728 -0.7159,0.7405 -0.72819,0.7405 -0.0228,0 -1.23296,1.20374 -2.27318,2.26114 -0.31805,0.32331 -0.73678,0.72619 -0.93051,0.89527 -0.19373,0.16909 -0.40651,0.37659 -0.47285,0.46111 -0.0663,0.0845 -0.39608,0.42787 -0.73276,0.76299 -0.33668,0.33513 -0.94051,0.9428 -1.34185,1.35039 -0.40133,0.40758 -1.1424,1.14981 -1.64681,1.6494 -0.50441,0.49959 -1.00727,1.00352 -1.11747,1.11983 -0.1102,0.11632 -0.51082,0.51533 -0.89027,0.88668 -0.37945,0.37136 -0.75615,0.7547 -0.83713,0.85188 -0.081,0.0972 -0.36213,0.3703 -0.62479,0.60693 -0.26267,0.23663 -0.53773,0.50542 -0.61127,0.59731 -0.20304,0.25376 -1.31972,1.36607 -1.56341,1.55731 -0.11823,0.0928 -0.29414,0.26258 -0.3909,0.37732 -0.0968,0.11474 -0.42243,0.45505 -0.72371,0.75625 -0.30128,0.3012 -0.79496,0.79771 -1.09707,1.10336 -0.30212,0.30565 -0.99093,0.98555 -1.53069,1.51088 -0.53977,0.52533 -1.04847,1.02686 -1.13046,1.1145 -0.52834,0.56484 -1.56438,1.63567 -1.58251,1.63567 -0.0206,0 -0.99741,0.97131 -2.27561,2.26281 -0.31908,0.3224 -0.73855,0.72543 -0.93216,0.89562 -0.19362,0.17019 -0.40557,0.37769 -0.471,0.4611 -0.0654,0.0834 -0.39472,0.42586 -0.73175,0.76099 -0.33704,0.33512 -0.94104,0.94279 -1.34224,1.35038 -0.40119,0.40759 -1.04212,1.0449 -1.42428,1.41626 -0.38216,0.37135 -0.77041,0.74903 -0.86276,0.83928 -0.0924,0.0903 -0.2092,0.22365 -0.25965,0.29643 -0.0504,0.0728 -0.49343,0.51717 -0.98441,0.98753 -0.49098,0.47035 -0.89269,0.86636 -0.89269,0.88001 0,0.026 -0.78805,0.80311 -0.98897,0.97524 -0.0639,0.0547 -0.18246,0.18271 -0.26349,0.28438 -0.15335,0.19242 -0.59933,0.59504 -0.8326,0.75166 -0.16999,0.11414 -0.24199,0.11371 -0.41499,-0.003 z m 0.70441,-8.03318 c 0.36826,-0.41159 0.85543,-0.90523 1.13691,-1.152 0.27054,-0.23718 0.8234,-0.81399 1.04791,-1.09329 0.0601,-0.0747 0.18694,-0.1856 0.28192,-0.24636 0.10654,-0.0682 0.21413,-0.17504 0.28086,-0.27904 0.0595,-0.0927 0.17891,-0.22049 0.26538,-0.28396 0.0865,-0.0635 0.24303,-0.21315 0.34793,-0.33263 0.10489,-0.11948 0.29212,-0.29815 0.41606,-0.39704 0.12394,-0.0989 0.28781,-0.26253 0.36415,-0.36364 0.0763,-0.10112 0.2505,-0.2676 0.38702,-0.36997 0.18063,-0.13545 0.27327,-0.23264 0.34018,-0.35691 0.0516,-0.0959 0.1612,-0.22539 0.24984,-0.29531 0.0868,-0.0685 0.20847,-0.1891 0.27033,-0.26802 0.0619,-0.0789 0.18999,-0.20157 0.28474,-0.27258 0.0948,-0.071 0.23339,-0.21003 0.30807,-0.30895 0.0747,-0.0989 0.20636,-0.22327 0.29262,-0.27635 0.0862,-0.0531 0.22182,-0.17567 0.30125,-0.27245 0.19229,-0.23426 1.02151,-1.04916 1.2419,-1.22044 0.10404,-0.0808 0.20637,-0.19746 0.2518,-0.28693 0.0453,-0.0893 0.18868,-0.25274 0.35172,-0.40109 0.27617,-0.25127 1.00262,-0.94908 1.27973,-1.22928 0.95984,-0.97053 1.22646,-1.23273 1.36685,-1.34418 0.0906,-0.0719 0.20544,-0.19072 0.25526,-0.26404 0.0498,-0.0733 0.1758,-0.21695 0.27996,-0.31917 0.10416,-0.10221 0.2464,-0.25607 0.31608,-0.3419 0.0697,-0.0858 0.20397,-0.20548 0.2984,-0.26588 0.10555,-0.0675 0.21334,-0.17475 0.27985,-0.27839 0.0595,-0.0927 0.1789,-0.22049 0.26537,-0.28396 0.0865,-0.0635 0.24222,-0.21223 0.34612,-0.33057 0.1039,-0.11835 0.27602,-0.28221 0.3825,-0.36414 0.10648,-0.0819 0.26083,-0.23355 0.34299,-0.33693 0.0822,-0.10337 0.27144,-0.285 0.42059,-0.40362 0.19281,-0.15334 0.29799,-0.26523 0.36393,-0.38715 0.0511,-0.0944 0.15781,-0.22116 0.2375,-0.28201 0.0796,-0.0608 0.2101,-0.19075 0.28996,-0.28879 0.0799,-0.098 0.21014,-0.21933 0.28948,-0.26952 0.0794,-0.0502 0.20158,-0.17333 0.27162,-0.27364 0.0756,-0.10823 0.19398,-0.22338 0.29122,-0.28322 0.0901,-0.0554 0.2599,-0.21358 0.37728,-0.35139 0.22695,-0.26647 1.03112,-1.04559 1.23844,-1.19988 0.0682,-0.0507 0.15993,-0.16175 0.20384,-0.24667 0.054,-0.10438 0.24856,-0.31227 0.60061,-0.64168 0.28641,-0.26801 0.55781,-0.53703 0.60309,-0.59783 0.0453,-0.0608 0.14711,-0.15155 0.22626,-0.20166 0.0792,-0.0501 0.25226,-0.21832 0.38467,-0.37379 0.22643,-0.26585 0.98629,-1.00706 1.21833,-1.18842 0.0579,-0.0453 0.16107,-0.15921 0.22917,-0.25314 0.0681,-0.0939 0.17834,-0.21462 0.24498,-0.26817 0.0666,-0.0536 0.18574,-0.18557 0.26466,-0.29337 0.13264,-0.18118 0.18994,-0.23138 0.43608,-0.38207 0.0491,-0.0301 0.14869,-0.14214 0.22129,-0.24905 0.0726,-0.1069 0.18423,-0.22665 0.24807,-0.26611 0.0639,-0.0395 0.2075,-0.1746 0.31924,-0.30033 0.11174,-0.12573 0.3032,-0.30942 0.42547,-0.40821 0.12227,-0.0988 0.29315,-0.26978 0.37973,-0.37998 0.0866,-0.1102 0.2324,-0.25399 0.32405,-0.31952 0.2615,-0.18699 0.35085,-0.27858 0.41463,-0.42509 0.0364,-0.0837 0.12823,-0.19158 0.23814,-0.27996 0.0984,-0.0791 0.22192,-0.20094 0.27454,-0.27076 0.0526,-0.0698 0.17605,-0.18838 0.27428,-0.26349 0.0982,-0.0751 0.24644,-0.22216 0.32936,-0.3268 0.0829,-0.10464 0.2202,-0.2334 0.30509,-0.28612 0.0849,-0.0527 0.24388,-0.20425 0.35335,-0.33673 0.2018,-0.24422 0.95599,-0.97439 1.21453,-1.17585 0.0777,-0.0605 0.17431,-0.17507 0.21468,-0.2545 0.0658,-0.12956 0.36569,-0.43171 1.28731,-1.29719 0.1061,-0.0996 0.29102,-0.2849 0.41094,-0.4117 0.35346,-0.37375 1.19829,-1.1968 1.30529,-1.27164 0.0543,-0.038 0.14995,-0.13798 0.21247,-0.22214 0.0625,-0.0842 0.20332,-0.24254 0.31289,-0.35195 0.10958,-0.10941 0.2573,-0.27041 0.32826,-0.35777 0.071,-0.0874 0.20229,-0.20391 0.29185,-0.25902 0.10314,-0.0635 0.20373,-0.16414 0.27444,-0.27467 0.0614,-0.096 0.17532,-0.21833 0.25319,-0.27189 0.0779,-0.0536 0.22651,-0.19416 0.33034,-0.31243 0.10383,-0.11825 0.28531,-0.29184 0.4033,-0.38572 0.11799,-0.0939 0.28063,-0.25414 0.36141,-0.35612 0.0808,-0.10198 0.2617,-0.27503 0.40205,-0.38457 0.1819,-0.14196 0.28201,-0.2488 0.34865,-0.37206 0.0544,-0.10061 0.16317,-0.22801 0.26011,-0.30463 0.0916,-0.0724 0.21574,-0.19403 0.27578,-0.27019 0.06,-0.0762 0.18706,-0.19824 0.28227,-0.27129 0.0952,-0.073 0.23288,-0.21089 0.30593,-0.30631 0.073,-0.0954 0.20141,-0.21614 0.28527,-0.26824 0.0838,-0.0521 0.2243,-0.18104 0.31212,-0.28654 0.20397,-0.24501 0.91848,-0.94677 1.20425,-1.18276 0.12968,-0.10708 0.24766,-0.238 0.28805,-0.31962 0.0431,-0.0872 0.26063,-0.32071 0.58909,-0.63248 0.82786,-0.78578 0.85454,-0.81164 1.08679,-1.05334 0.40334,-0.41977 1.20687,-1.20223 1.3457,-1.31041 0.0753,-0.0587 0.18592,-0.17833 0.2459,-0.26595 0.06,-0.0876 0.16329,-0.20227 0.22958,-0.25477 0.0663,-0.0525 0.1853,-0.18393 0.26446,-0.29205 0.0891,-0.12165 0.21699,-0.24314 0.3356,-0.3187 0.12559,-0.08 0.24263,-0.19353 0.3395,-0.32927 0.0813,-0.11393 0.19849,-0.23847 0.26042,-0.27674 0.0619,-0.0383 0.19798,-0.16685 0.30234,-0.28572 0.10436,-0.11886 0.29808,-0.30464 0.43049,-0.41283 0.13241,-0.1082 0.30257,-0.27862 0.37814,-0.37871 0.0756,-0.10009 0.2491,-0.26574 0.38562,-0.36811 0.1824,-0.13678 0.27307,-0.23228 0.34193,-0.36019 0.0538,-0.0998 0.16024,-0.22588 0.2497,-0.29559 0.0858,-0.0668 0.20612,-0.18641 0.26739,-0.26569 0.0613,-0.0793 0.18949,-0.20182 0.28492,-0.27232 0.0954,-0.0705 0.23219,-0.20762 0.30393,-0.30472 0.0717,-0.0971 0.20402,-0.22183 0.29398,-0.27719 0.09,-0.0553 0.26105,-0.21648 0.38021,-0.35807 0.22184,-0.26359 0.99062,-1.00856 1.21609,-1.17843 0.0691,-0.0521 0.15602,-0.15517 0.19311,-0.22909 0.063,-0.12558 0.47351,-0.54534 0.93516,-0.95624 0.10999,-0.0979 0.23573,-0.23018 0.27943,-0.29395 0.0437,-0.0638 0.14498,-0.15737 0.22508,-0.208 0.0801,-0.0506 0.26783,-0.23296 0.41717,-0.40517 0.14934,-0.17221 0.47681,-0.50362 0.7277,-0.73647 0.25089,-0.23285 0.50574,-0.46975 0.56633,-0.52643 0.0606,-0.0567 0.13006,-0.14151 0.15436,-0.1885 0.0243,-0.047 0.10942,-0.1389 0.18915,-0.20423 0.0797,-0.0653 0.21028,-0.20801 0.29012,-0.31707 0.0904,-0.12344 0.21768,-0.24447 0.33729,-0.32067 0.12472,-0.0795 0.23598,-0.18686 0.31714,-0.30617 0.0688,-0.10108 0.19182,-0.2316 0.27345,-0.29004 0.0816,-0.0584 0.22728,-0.19729 0.32365,-0.30854 0.0964,-0.11125 0.27388,-0.28099 0.39446,-0.37719 0.12057,-0.0962 0.29397,-0.26861 0.38533,-0.38312 0.0914,-0.11452 0.2283,-0.25267 0.3043,-0.30702 0.26623,-0.19035 0.3673,-0.29179 0.44653,-0.44813 0.0458,-0.0904 0.14397,-0.20658 0.23019,-0.27242 0.0827,-0.0631 0.21239,-0.19108 0.28827,-0.28436 0.0759,-0.0933 0.20739,-0.21947 0.29225,-0.28044 0.0849,-0.061 0.21595,-0.19252 0.29132,-0.29234 0.0754,-0.0998 0.20177,-0.21942 0.28089,-0.2658 0.0791,-0.0464 0.22232,-0.17671 0.31821,-0.28964 0.2247,-0.26466 0.97521,-1.00201 1.22132,-1.19992 0.12626,-0.10155 0.225,-0.21792 0.29278,-0.34508 0.0562,-0.10553 0.11277,-0.19187 0.1256,-0.19187 0.0377,0 0.9522,-0.86899 1.03063,-0.97939 0.0394,-0.0555 0.14451,-0.15057 0.2335,-0.21125 0.089,-0.0607 0.27053,-0.23744 0.40343,-0.39278 0.21041,-0.24596 0.96075,-0.97543 1.25095,-1.21616 0.0546,-0.0453 0.13426,-0.13421 0.17704,-0.19761 0.0428,-0.0634 0.16792,-0.2048 0.27811,-0.3142 0.11019,-0.10941 0.25736,-0.26921 0.32704,-0.3551 0.0697,-0.0859 0.20397,-0.20559 0.29839,-0.266 0.10627,-0.068 0.21338,-0.17479 0.28109,-0.28032 0.0602,-0.0938 0.17258,-0.21395 0.24977,-0.26707 0.0772,-0.0531 0.22575,-0.19383 0.33012,-0.3127 0.10437,-0.11888 0.28487,-0.29182 0.40111,-0.38432 0.11625,-0.0925 0.2915,-0.26862 0.38945,-0.39138 0.0979,-0.12276 0.23922,-0.26515 0.31394,-0.31642 0.24942,-0.17115 0.35454,-0.27606 0.42739,-0.42655 0.0424,-0.0875 0.14042,-0.20315 0.23701,-0.27951 0.0906,-0.0716 0.22085,-0.20068 0.28942,-0.2868 0.0686,-0.0861 0.19781,-0.20649 0.28721,-0.26749 0.0894,-0.061 0.21286,-0.18467 0.27438,-0.27483 0.0619,-0.0907 0.19709,-0.22179 0.30275,-0.29355 0.105,-0.0713 0.27891,-0.23613 0.38648,-0.3663 0.19907,-0.2409 0.95453,-0.97174 1.21121,-1.17175 0.0778,-0.0606 0.1769,-0.17883 0.2203,-0.26273 0.0528,-0.10213 0.25107,-0.31365 0.59967,-0.63984 0.28642,-0.268 0.55782,-0.53703 0.6031,-0.59783 0.0453,-0.0608 0.14667,-0.15127 0.22529,-0.20105 0.0786,-0.0498 0.25854,-0.22539 0.39983,-0.39026 0.24284,-0.28338 0.9706,-0.99179 1.20402,-1.172 0.0591,-0.0456 0.15585,-0.15356 0.2151,-0.23993 0.0592,-0.0864 0.17132,-0.20915 0.24907,-0.27286 0.0777,-0.0637 0.20106,-0.20054 0.27403,-0.30408 0.12188,-0.17294 0.17867,-0.2224 0.43681,-0.38044 0.0491,-0.0301 0.14869,-0.14214 0.22129,-0.24904 0.0726,-0.10691 0.18324,-0.22605 0.24589,-0.26477 0.0626,-0.0387 0.22,-0.1881 0.3497,-0.33196 0.12969,-0.14387 0.31044,-0.31637 0.40167,-0.38333 0.0912,-0.067 0.24538,-0.21921 0.34254,-0.33832 0.0972,-0.11911 0.28433,-0.29848 0.41591,-0.3986 0.17013,-0.12946 0.26587,-0.23148 0.33143,-0.35319 0.0507,-0.0941 0.16187,-0.22693 0.24702,-0.29513 0.0852,-0.0682 0.19188,-0.16862 0.23717,-0.22318 0.11772,-0.14184 0.26436,-0.2824 0.40772,-0.39081 0.0683,-0.0517 0.17477,-0.1643 0.23653,-0.25026 0.0618,-0.086 0.19237,-0.20947 0.29024,-0.27445 0.0979,-0.065 0.26173,-0.21999 0.36413,-0.34445 0.18398,-0.22364 1.01608,-1.02564 1.24912,-1.20394 0.0662,-0.0506 0.15392,-0.1581 0.19493,-0.23879 0.0672,-0.13223 0.3603,-0.42784 1.28847,-1.29946 0.1061,-0.0996 0.29109,-0.2849 0.4111,-0.41171 0.36041,-0.38082 1.16386,-1.16414 1.31023,-1.27742 0.0753,-0.0582 0.18521,-0.17656 0.24433,-0.26293 0.0591,-0.0864 0.16799,-0.20678 0.24193,-0.26759 0.0739,-0.0608 0.19242,-0.19091 0.2633,-0.28911 0.12734,-0.17642 0.23047,-0.2683 0.43943,-0.39152 0.059,-0.0348 0.15901,-0.14419 0.22232,-0.24316 0.0633,-0.099 0.17971,-0.22439 0.25866,-0.27871 0.0789,-0.0543 0.22273,-0.19017 0.31951,-0.30189 0.0968,-0.11172 0.27807,-0.28459 0.40286,-0.38416 0.12479,-0.0996 0.29596,-0.27031 0.38038,-0.37942 0.0844,-0.10913 0.26466,-0.28196 0.40052,-0.38407 0.17915,-0.13466 0.27229,-0.2326 0.33898,-0.35645 0.0516,-0.0959 0.1612,-0.22539 0.24984,-0.29531 0.0868,-0.0685 0.20847,-0.1891 0.27033,-0.26802 0.0619,-0.0789 0.18999,-0.20157 0.28474,-0.27258 0.0948,-0.071 0.23339,-0.21002 0.30807,-0.30894 0.0747,-0.0989 0.20629,-0.22324 0.29246,-0.27625 0.0862,-0.053 0.22863,-0.18304 0.31658,-0.28892 0.20385,-0.2454 0.9186,-0.9473 1.20604,-1.18435 0.13283,-0.10954 0.24699,-0.23657 0.28723,-0.31959 0.0436,-0.0901 0.24387,-0.3032 0.57807,-0.61536 0.2812,-0.26266 0.56447,-0.54115 0.62949,-0.61887 0.065,-0.0777 0.1743,-0.17671 0.24287,-0.21999 0.0686,-0.0433 0.23924,-0.21266 0.37927,-0.37639 0.14003,-0.16374 0.49399,-0.52215 0.78658,-0.79647 0.29258,-0.27433 0.5925,-0.57494 0.66649,-0.66802 0.074,-0.0931 0.34177,-0.37673 0.59506,-0.63034 0.25328,-0.25361 0.48681,-0.50132 0.51895,-0.55047 0.0321,-0.0491 0.13792,-0.14212 0.23509,-0.20662 0.0972,-0.0645 0.2241,-0.18332 0.28209,-0.26406 0.058,-0.0807 0.21294,-0.22915 0.34435,-0.3298 0.1314,-0.10065 0.29048,-0.24545 0.35349,-0.32177 0.1847,-0.2237 0.22049,-0.25869 0.57233,-0.55963 0.36781,-0.31458 0.4482,-0.41016 0.52371,-0.62269 0.11839,-0.33321 -0.0687,-0.63373 -0.70167,-1.12715 -0.11283,-0.088 -0.2662,-0.24078 -0.34083,-0.33962 -0.0746,-0.0988 -0.23708,-0.2537 -0.361,-0.34411 -0.12392,-0.0904 -0.2861,-0.24492 -0.3604,-0.34333 -0.0743,-0.0984 -0.20808,-0.23341 -0.29729,-0.30001 -0.0892,-0.0666 -0.20826,-0.18525 -0.26458,-0.26367 -0.0563,-0.0784 -0.2047,-0.2242 -0.32974,-0.32397 -0.12503,-0.0998 -0.31274,-0.28849 -0.41712,-0.4194 -0.10439,-0.1309 -0.37276,-0.41586 -0.59639,-0.63324 -0.22362,-0.21738 -0.77959,-0.76605 -1.23548,-1.21927 -0.45589,-0.45322 -0.89756,-0.87319 -0.98149,-0.93327 -0.0839,-0.0601 -0.22877,-0.21135 -0.32187,-0.33615 -0.0931,-0.12481 -0.22117,-0.26805 -0.28461,-0.31831 -0.0634,-0.0503 -0.23048,-0.21736 -0.37122,-0.37134 -0.23031,-0.25197 -0.7054,-0.71832 -1.14046,-1.11948 -0.0882,-0.0813 -0.20249,-0.21635 -0.25401,-0.30007 -0.068,-0.11055 -0.14562,-0.17991 -0.28349,-0.25339 -0.12129,-0.0647 -0.23129,-0.15698 -0.30466,-0.25573 -0.0631,-0.085 -0.20832,-0.23423 -0.3226,-0.33162 -0.11428,-0.0974 -0.32895,-0.32157 -0.47705,-0.49816 -0.33356,-0.39773 -1.33104,-1.39889 -1.55894,-1.56469 -0.0928,-0.0675 -0.22796,-0.20118 -0.30029,-0.29697 -0.0723,-0.0958 -0.19733,-0.22471 -0.27779,-0.28647 -0.0805,-0.0618 -0.19729,-0.17892 -0.25963,-0.26033 -0.0623,-0.0814 -0.22166,-0.23703 -0.35407,-0.34584 -0.1324,-0.1088 -0.31633,-0.29402 -0.40874,-0.4116 -0.0924,-0.11759 -0.35159,-0.39265 -0.57597,-0.61126 -0.22439,-0.2186 -0.7815,-0.76799 -1.23803,-1.22086 -0.45653,-0.45288 -0.91381,-0.88528 -1.01618,-0.96089 -0.10237,-0.0756 -0.23409,-0.20901 -0.29271,-0.29642 -0.0586,-0.0874 -0.22685,-0.27753 -0.37383,-0.42247 -0.14699,-0.14493 -0.40806,-0.40928 -0.58015,-0.58743 -0.17209,-0.17816 -0.46715,-0.46716 -0.6557,-0.64223 -0.18855,-0.17507 -0.39219,-0.39517 -0.45253,-0.48912 -0.0824,-0.12832 -0.15803,-0.19654 -0.30398,-0.27433 -0.1231,-0.0656 -0.23151,-0.15542 -0.29598,-0.2452 -0.056,-0.0779 -0.19279,-0.22055 -0.30407,-0.31695 -0.11129,-0.0964 -0.32963,-0.3242 -0.4852,-0.50621 -0.36401,-0.42585 -1.31759,-1.37727 -1.55951,-1.55598 -0.10286,-0.076 -0.24692,-0.21924 -0.32014,-0.31835 -0.0732,-0.0991 -0.19839,-0.22708 -0.27815,-0.28436 -0.0798,-0.0573 -0.19509,-0.17146 -0.25627,-0.25373 -0.0612,-0.0823 -0.21906,-0.23799 -0.35084,-0.34604 -0.13179,-0.10806 -0.32396,-0.30267 -0.42705,-0.43247 -0.10309,-0.1298 -0.37111,-0.41386 -0.59559,-0.63123 -0.22448,-0.21738 -0.77337,-0.75893 -1.21976,-1.20345 -0.44639,-0.44451 -0.88227,-0.8585 -0.96862,-0.91997 -0.0864,-0.0615 -0.21786,-0.19428 -0.29222,-0.29515 -0.0744,-0.10087 -0.24084,-0.28735 -0.36997,-0.41441 -0.12912,-0.12706 -0.41262,-0.4139 -0.63,-0.63741 -0.21738,-0.22352 -0.5138,-0.51102 -0.65872,-0.63889 -0.14492,-0.12787 -0.32677,-0.32207 -0.40411,-0.43155 -0.10241,-0.14497 -0.18998,-0.22555 -0.32233,-0.29656 -0.11414,-0.0613 -0.22399,-0.15509 -0.29538,-0.25234 -0.0625,-0.0851 -0.21388,-0.24202 -0.33638,-0.34859 -0.12251,-0.10658 -0.25166,-0.22955 -0.28701,-0.27327 -0.40822,-0.50495 -1.47972,-1.59735 -1.74748,-1.78158 -0.0797,-0.0548 -0.21118,-0.1858 -0.29213,-0.291 -0.081,-0.10521 -0.21282,-0.24167 -0.29303,-0.30324 -0.0802,-0.0616 -0.1888,-0.17 -0.24131,-0.24095 -0.0525,-0.071 -0.20947,-0.22386 -0.34878,-0.33981 -0.13932,-0.11595 -0.33122,-0.31026 -0.42644,-0.43179 -0.0952,-0.12155 -0.35651,-0.39884 -0.58063,-0.61622 -0.22413,-0.21738 -0.7733,-0.75836 -1.22039,-1.20217 -0.44709,-0.44382 -0.90248,-0.87587 -1.01198,-0.96012 -0.10951,-0.0843 -0.2419,-0.21765 -0.2942,-0.29643 -0.0523,-0.0788 -0.20726,-0.25443 -0.34434,-0.39033 -0.13708,-0.13589 -0.39745,-0.4003 -0.5786,-0.58758 -0.18114,-0.18727 -0.49536,-0.49592 -0.69825,-0.68589 -0.20288,-0.18997 -0.40736,-0.41105 -0.45438,-0.49129 -0.0598,-0.10196 -0.13332,-0.17013 -0.24432,-0.22638 -0.0874,-0.0443 -0.20154,-0.12939 -0.25374,-0.18917 -0.0522,-0.0598 -0.24549,-0.2569 -0.42951,-0.43805 -0.18402,-0.18115 -0.43467,-0.44793 -0.557,-0.59285 -0.29165,-0.34551 -1.23812,-1.28386 -1.45716,-1.44465 -0.0946,-0.0694 -0.23693,-0.21067 -0.31636,-0.3139 -0.0794,-0.10322 -0.20464,-0.22941 -0.27825,-0.28042 -0.0736,-0.051 -0.19556,-0.17277 -0.27103,-0.27058 -0.0755,-0.0978 -0.23046,-0.25113 -0.34443,-0.340707 -0.11398,-0.0896 -0.29341,-0.27097 -0.39874,-0.4031 -0.10532,-0.13215 -0.37504,-0.41812 -0.59936,-0.63549 -0.22433,-0.21738 -0.78033,-0.76626 -1.23556,-1.21973 -0.45523,-0.45348 -0.90211,-0.87836 -0.99307,-0.94419 -0.091,-0.0658 -0.21532,-0.19131 -0.27638,-0.27886 -0.0611,-0.0875 -0.22443,-0.27034 -0.36305,-0.40621 -0.13862,-0.13586 -0.33486,-0.33594 -0.43611,-0.44463 -0.16949,-0.18196 -0.56745,-0.57058 -1.01914,-0.99522 -0.10051,-0.0945 -0.22532,-0.23916 -0.27735,-0.32147 -0.0628,-0.0993 -0.1434,-0.17329 -0.23964,-0.21988 -0.0798,-0.0386 -0.19158,-0.12255 -0.24847,-0.18652 -0.16066,-0.18066 -0.38685,-0.40774 -0.5316,-0.53369 -0.0725,-0.063 -0.20574,-0.20356 -0.29618,-0.31225 -0.28817,-0.3463 -0.3844,-0.44927 -0.92517,-0.98992 -0.29133,-0.29127 -0.6003,-0.58029 -0.6866,-0.64227 -0.0863,-0.062 -0.22842,-0.20368 -0.31583,-0.31491 -0.0874,-0.11123 -0.21567,-0.24308 -0.28502,-0.29301 -0.0694,-0.0499 -0.18526,-0.16433 -0.25758,-0.25422 -0.0723,-0.0899 -0.22583,-0.23982 -0.34114,-0.33315 -0.1153,-0.0933 -0.3072,-0.28828 -0.42643,-0.4332 -0.11924,-0.14492 -0.39309,-0.43393 -0.60857,-0.64225 -0.21548,-0.20832 -0.75731,-0.74189 -1.20408,-1.18571 -0.44676,-0.44381 -0.89607,-0.8688 -0.99846,-0.94441 -0.10239,-0.0756 -0.23405,-0.20901 -0.29257,-0.29643 -0.0585,-0.0874 -0.21934,-0.27012 -0.35737,-0.406 -0.13803,-0.13587 -0.39176,-0.3934 -0.56385,-0.57228 -0.1721,-0.17888 -0.47936,-0.48097 -0.68281,-0.67131 -0.20345,-0.19034 -0.41615,-0.41814 -0.47268,-0.50622 -0.0752,-0.11726 -0.15484,-0.18791 -0.29726,-0.26382 -0.11706,-0.0624 -0.22141,-0.1472 -0.26208,-0.21299 -0.0371,-0.0601 -0.18011,-0.20993 -0.31767,-0.33289 -0.13756,-0.12296 -0.35515,-0.34955 -0.48354,-0.50352 -0.31052,-0.37242 -1.3384,-1.3996 -1.57569,-1.57463 -0.10383,-0.0766 -0.24788,-0.21925 -0.32012,-0.31703 -0.0722,-0.0978 -0.1966,-0.22465 -0.27636,-0.28193 -0.0798,-0.0573 -0.19401,-0.16953 -0.25389,-0.24944 -0.0599,-0.0799 -0.22463,-0.2422 -0.36613,-0.36065 -0.1415,-0.11845 -0.31798,-0.29753 -0.39218,-0.39797 -0.0742,-0.10044 -0.32752,-0.37052 -0.56293,-0.60017 -0.23541,-0.22965 -0.80107,-0.78847 -1.257,-1.24181 -0.45595,-0.45334 -0.90309,-0.87811 -0.99367,-0.94392 -0.0906,-0.0658 -0.20915,-0.18361 -0.26349,-0.26177 -0.0543,-0.0782 -0.21738,-0.26207 -0.3623,-0.4087 -0.14492,-0.14663 -0.44134,-0.44891 -0.65872,-0.67173 -0.21738,-0.22283 -0.51381,-0.50953 -0.65872,-0.63712 -0.14492,-0.12758 -0.32677,-0.32154 -0.40411,-0.43103 -0.10241,-0.14497 -0.18998,-0.22554 -0.32233,-0.29656 -0.11628,-0.0624 -0.22404,-0.15515 -0.29922,-0.25756 -0.0646,-0.088 -0.21167,-0.23995 -0.32678,-0.33761 -0.11511,-0.0976 -0.32464,-0.31589 -0.46563,-0.48497 -0.32769,-0.39297 -1.31969,-1.38731 -1.56442,-1.56811 -0.10316,-0.0762 -0.23386,-0.20585 -0.29045,-0.2881 -0.0566,-0.0822 -0.17785,-0.20879 -0.26948,-0.28122 -0.0916,-0.0724 -0.22374,-0.20347 -0.29361,-0.29122 -0.0699,-0.0877 -0.23091,-0.24453 -0.35788,-0.34841 -0.12697,-0.10387 -0.30793,-0.2873 -0.40213,-0.40761 -0.0942,-0.12031 -0.36264,-0.40401 -0.59653,-0.63044 -0.2339,-0.22644 -0.79052,-0.77496 -1.23695,-1.21894 -0.44642,-0.44398 -0.88876,-0.86341 -0.98298,-0.93207 -0.0942,-0.0686 -0.2265,-0.20191 -0.29399,-0.29612 -0.0675,-0.0942 -0.23494,-0.28246 -0.37214,-0.41832 -0.13721,-0.13586 -0.39027,-0.39291 -0.56236,-0.57122 -0.17209,-0.17831 -0.47889,-0.47958 -0.68178,-0.66949 -0.20289,-0.18992 -0.40685,-0.41007 -0.45325,-0.48924 -0.0617,-0.10531 -0.1363,-0.17164 -0.27789,-0.2471 -0.12221,-0.0651 -0.23092,-0.15522 -0.29498,-0.24442 -0.0558,-0.0777 -0.20775,-0.2355 -0.33767,-0.35068 -0.12992,-0.11519 -0.34116,-0.33576 -0.46941,-0.49015 -0.29687,-0.35739 -1.29369,-1.35331 -1.55841,-1.55701 -0.11105,-0.0854 -0.25596,-0.22899 -0.32201,-0.31897 -0.0661,-0.09 -0.18976,-0.21481 -0.27492,-0.2774 -0.0852,-0.0626 -0.2067,-0.18321 -0.27011,-0.26804 -0.0634,-0.0848 -0.21736,-0.23779 -0.34214,-0.33991 -0.12478,-0.10212 -0.30984,-0.28977 -0.41124,-0.417 -0.10141,-0.12723 -0.3668,-0.40919 -0.58976,-0.62657 -0.22296,-0.21738 -0.77896,-0.76603 -1.23556,-1.21923 -0.45661,-0.45321 -0.8981,-0.87262 -0.98109,-0.93205 -0.083,-0.0594 -0.20759,-0.18514 -0.27687,-0.27936 -0.0693,-0.0942 -0.23851,-0.28309 -0.37607,-0.4197 -0.13757,-0.13661 -0.42798,-0.43108 -0.64536,-0.6544 -0.21738,-0.22331 -0.5138,-0.51011 -0.65872,-0.63734 -0.14492,-0.12723 -0.32032,-0.31675 -0.38978,-0.42116 -0.096,-0.1443 -0.17183,-0.2141 -0.31615,-0.29102 -0.1208,-0.0644 -0.22461,-0.15137 -0.28541,-0.23915 -0.0526,-0.0759 -0.19768,-0.22589 -0.3225,-0.33334 -0.12481,-0.10745 -0.3468,-0.33841 -0.49329,-0.51325 -0.1465,-0.17483 -0.53348,-0.58074 -0.85996,-0.90203 -0.32648,-0.32128 -0.73185,-0.7202 -0.90082,-0.88648 -0.16897,-0.16628 -0.36281,-0.34259 -0.43074,-0.3918 -0.0679,-0.0492 -0.17872,-0.16468 -0.24619,-0.2566 -0.0675,-0.0919 -0.21899,-0.24376 -0.3367,-0.33743 -0.11771,-0.0937 -0.26614,-0.23856 -0.32985,-0.32199 -0.13513,-0.17698 -0.82864,-0.88849 -1.25091,-1.28339 -0.16126,-0.1508 -0.42333,-0.41759 -0.58239,-0.59285 -0.15907,-0.17527 -0.33669,-0.34461 -0.39472,-0.37631 -0.13242,-0.0723 -0.29293,-0.0736 -0.42932,-0.003 -0.10711,0.0551 -0.85978,0.81455 -1.10507,1.11496 -0.074,0.0906 -0.24242,0.24675 -0.37434,0.34705 -0.13193,0.1003 -0.26951,0.2334 -0.30574,0.29578 -0.0362,0.0624 -0.14439,0.18782 -0.24035,0.27874 -0.57262,0.54257 -1.28274,1.2333 -1.35508,1.31809 -0.0464,0.0543 -0.15694,0.1655 -0.24571,0.24702 -0.24152,0.2218 -0.5015,0.48668 -0.77729,0.79193 -0.13586,0.15038 -0.31918,0.32539 -0.40738,0.38891 -0.0882,0.0635 -0.2216,0.1987 -0.29643,0.30041 -0.0748,0.1017 -0.41323,0.44779 -0.75201,0.76909 -0.33876,0.32129 -0.7093,0.68934 -0.8234,0.81789 -0.1141,0.12855 -0.29215,0.29133 -0.39567,0.36174 -0.17051,0.11597 -0.32607,0.27978 -0.69485,0.73173 -0.069,0.0846 -0.20413,0.21192 -0.30021,0.28289 -0.0961,0.071 -0.21338,0.19507 -0.26067,0.27577 -0.0473,0.0807 -0.16398,0.21139 -0.25931,0.29044 -0.0953,0.079 -0.38842,0.3554 -0.6513,0.61412 -0.78532,0.7729 -0.93305,0.91322 -1.0652,1.0118 -0.0694,0.0517 -0.1939,0.18406 -0.27672,0.29403 -0.20297,0.26948 -0.48201,0.55736 -0.69431,0.7163 -0.0962,0.072 -0.22638,0.21138 -0.28925,0.30965 -0.0629,0.0983 -0.18619,0.23551 -0.27406,0.30497 -0.17804,0.14073 -1.02919,0.96067 -1.23636,1.19102 -0.0733,0.0815 -0.19766,0.2075 -0.27633,0.27996 -0.24831,0.22871 -0.50801,0.49276 -0.74625,0.75872 -0.1268,0.14156 -0.32428,0.3311 -0.43884,0.42121 -0.11456,0.0901 -0.25536,0.23328 -0.31289,0.31816 -0.0575,0.0849 -0.4084,0.44208 -0.77971,0.79378 -0.37132,0.35169 -0.74408,0.72225 -0.82837,0.82346 -0.0843,0.1012 -0.23461,0.238 -0.33403,0.304 -0.19351,0.12844 -0.37426,0.31564 -0.63474,0.65739 -0.0895,0.11737 -0.24905,0.27704 -0.35464,0.35483 -0.10608,0.0781 -0.24044,0.21716 -0.30024,0.31066 -0.0595,0.0931 -0.17323,0.21992 -0.25265,0.28189 -0.0794,0.062 -0.36672,0.33161 -0.63844,0.59919 -0.85419,0.84115 -0.95197,0.93431 -1.08223,1.03104 -0.0699,0.0519 -0.21256,0.20626 -0.31705,0.343 -0.18762,0.24555 -0.49874,0.55691 -0.73534,0.7359 -0.0669,0.0506 -0.15106,0.14967 -0.18699,0.22009 -0.0359,0.0704 -0.14239,0.19204 -0.23657,0.27026 -0.0942,0.0782 -0.51879,0.4831 -0.94357,0.89974 -1.08783,1.06699 -1.1146,1.09396 -1.38612,1.39681 -0.13413,0.14961 -0.32329,0.33198 -0.42037,0.40527 -0.0971,0.0733 -0.23189,0.21064 -0.29959,0.30521 -0.0677,0.0946 -0.38985,0.42414 -0.71592,0.73239 -0.32607,0.30824 -0.71883,0.69244 -0.87281,0.85376 -0.15397,0.16133 -0.34804,0.33922 -0.43125,0.39531 -0.0832,0.0561 -0.29441,0.2739 -0.46933,0.48403 -0.17493,0.21012 -0.39758,0.44078 -0.49476,0.51258 -0.0972,0.0718 -0.21584,0.19732 -0.26367,0.27894 -0.0478,0.0816 -0.15729,0.20483 -0.24324,0.27379 -0.0859,0.069 -0.37117,0.3372 -0.63384,0.59608 -0.26266,0.25888 -0.58233,0.57357 -0.71037,0.69931 -0.12803,0.12574 -0.29469,0.27346 -0.37035,0.32827 -0.0756,0.0548 -0.21732,0.20707 -0.3148,0.33836 -0.17167,0.2312 -0.45752,0.51808 -0.74062,0.74325 -0.0756,0.0601 -0.16672,0.16673 -0.20252,0.23691 -0.0358,0.0702 -0.13427,0.18402 -0.21882,0.25298 -0.17463,0.14245 -1.10322,1.03751 -1.30859,1.26134 -0.0746,0.0813 -0.20114,0.2073 -0.28115,0.27996 -0.20136,0.18283 -0.47119,0.45877 -0.7438,0.76062 -0.1268,0.1404 -0.31692,0.32277 -0.42249,0.40526 -0.10556,0.0825 -0.24636,0.22618 -0.31289,0.31931 -0.0665,0.0931 -0.42405,0.45539 -0.79449,0.80503 -0.37045,0.34964 -0.73119,0.70864 -0.80165,0.79778 -0.0705,0.0891 -0.19633,0.209 -0.27971,0.26636 -0.23451,0.16133 -0.38885,0.30803 -0.5736,0.54522 -0.23698,0.30423 -0.3853,0.45901 -0.52707,0.55001 -0.067,0.043 -0.18055,0.16466 -0.25229,0.2703 -0.0717,0.10565 -0.18608,0.23453 -0.25409,0.2864 -0.10873,0.0829 -0.30869,0.27563 -1.35018,1.30115 -0.12803,0.12607 -0.29366,0.27332 -0.36807,0.32722 -0.0744,0.0539 -0.21583,0.20615 -0.31428,0.33835 -0.1757,0.23592 -0.51736,0.57867 -0.75818,0.76058 -0.067,0.0506 -0.1515,0.15016 -0.18775,0.2212 -0.0362,0.071 -0.15106,0.20026 -0.25517,0.28716 -0.21288,0.1777 -1.11865,1.05052 -1.27389,1.22756 -0.0556,0.0634 -0.17261,0.18197 -0.26003,0.26349 -0.29006,0.27048 -0.49701,0.48048 -0.76058,0.77181 -0.14344,0.15853 -0.33853,0.34567 -0.43356,0.41587 -0.095,0.0702 -0.23469,0.21333 -0.31038,0.31808 -0.0757,0.10475 -0.42908,0.46464 -0.78531,0.79977 -0.35623,0.33513 -0.71862,0.69389 -0.80532,0.79724 -0.0867,0.10336 -0.24872,0.25157 -0.36004,0.32937 -0.11133,0.0778 -0.28265,0.23777 -0.38071,0.35552 -0.39209,0.47076 -0.51351,0.59994 -0.63738,0.67815 -0.0711,0.0449 -0.18,0.16085 -0.24194,0.25767 -0.0619,0.0968 -0.17629,0.22572 -0.25412,0.28644 -0.0778,0.0607 -0.36384,0.32936 -0.63556,0.597 -0.27173,0.26763 -0.59147,0.58249 -0.71054,0.69969 -0.11907,0.1172 -0.2827,0.26364 -0.36362,0.32543 -0.0809,0.0618 -0.21229,0.19925 -0.29194,0.30549 -0.19892,0.26532 -0.47716,0.553 -0.68622,0.70951 -0.0962,0.072 -0.22638,0.21139 -0.28925,0.30966 -0.0629,0.0983 -0.18422,0.23426 -0.26968,0.30219 -0.16317,0.1297 -1.09471,1.028797 -1.271,1.226727 -0.0565,0.0634 -0.16712,0.17456 -0.24588,0.24702 -0.25551,0.23506 -0.51047,0.49378 -0.77667,0.78814 -0.14343,0.15862 -0.34013,0.347 -0.43709,0.41863 -0.097,0.0716 -0.22896,0.20736 -0.2933,0.30161 -0.0643,0.0943 -0.40865,0.44556 -0.76512,0.78069 -0.35647,0.33512 -0.72815,0.70356 -0.82596,0.81875 -0.0978,0.11518 -0.25353,0.25786 -0.34607,0.31705 -0.17933,0.11472 -0.30889,0.24719 -0.63591,0.65021 -0.11262,0.13878 -0.28476,0.31144 -0.38256,0.38368 -0.0978,0.0722 -0.21599,0.19652 -0.26267,0.27617 -0.0467,0.0796 -0.17078,0.21776 -0.27579,0.3069 -0.10501,0.0891 -0.39859,0.36591 -0.6524,0.61502 -0.25382,0.24911 -0.56524,0.5545 -0.69204,0.67864 -0.12681,0.12413 -0.28731,0.26757 -0.35669,0.31874 -0.0694,0.0512 -0.19389,0.18301 -0.27672,0.29298 -0.20211,0.26834 -0.48176,0.55718 -0.69161,0.71432 -0.0947,0.0709 -0.22361,0.20926 -0.28638,0.30738 -0.0628,0.0981 -0.19274,0.24044 -0.28885,0.31628 -0.14885,0.11747 -0.49844,0.45649 -1.82154,1.76647 -0.10869,0.10761 -0.30062,0.31166 -0.42651,0.45344 -0.1259,0.14179 -0.31927,0.32881 -0.42972,0.41561 -0.11045,0.0868 -0.25005,0.22923 -0.31023,0.31651 -0.0602,0.0873 -0.41543,0.44772 -0.78944,0.80096 -0.37402,0.35324 -0.74235,0.71866 -0.81852,0.81205 -0.0762,0.0934 -0.23156,0.23469 -0.34531,0.31401 -0.13083,0.0912 -0.32614,0.28659 -0.53153,0.5317 -0.17859,0.21312 -0.40261,0.44504 -0.49783,0.51539 -0.0952,0.0703 -0.21137,0.19315 -0.25811,0.2729 -0.0468,0.0798 -0.1562,0.20269 -0.24324,0.27318 -0.087,0.0705 -0.37315,0.34028 -0.63582,0.59954 -0.80286,0.79245 -0.9667,0.94851 -1.0987,1.04652 -0.0699,0.0519 -0.21256,0.20624 -0.31704,0.34298 -0.18763,0.24555 -0.49875,0.55691 -0.73535,0.7359 -0.0669,0.0506 -0.15132,0.15017 -0.18756,0.2212 -0.0362,0.071 -0.15848,0.20572 -0.27164,0.29929 -0.11316,0.0936 -0.52887,0.49055 -0.92379,0.88217 -0.39492,0.39161 -0.80991,0.80225 -0.92221,0.91253 -0.1123,0.11028 -0.30793,0.31668 -0.43473,0.45865 -0.12681,0.14197 -0.32018,0.32863 -0.42972,0.41479 -0.10953,0.0862 -0.24867,0.22807 -0.30919,0.31536 -0.0605,0.0873 -0.40831,0.4403 -0.77286,0.78448 -0.36456,0.34419 -0.73471,0.71159 -0.82256,0.81645 -0.0878,0.10486 -0.2459,0.24918 -0.35122,0.3207 -0.18378,0.1248 -0.27423,0.21866 -0.6652,0.69031 -0.0974,0.11748 -0.25427,0.2731 -0.34865,0.34583 -0.0944,0.0727 -0.22162,0.20706 -0.28276,0.2985 -0.0611,0.0914 -0.16838,0.2095 -0.2383,0.26236 -0.0699,0.0529 -0.34944,0.31593 -0.62116,0.58459 -0.78048,0.7717 -0.91343,0.89827 -1.09076,1.03844 -0.0916,0.0724 -0.22332,0.21107 -0.29264,0.30807 -0.17011,0.23804 -0.41518,0.49198 -0.68343,0.70818 -0.12356,0.0996 -0.2515,0.23631 -0.2879,0.30765 -0.036,0.0706 -0.13469,0.18482 -0.21925,0.25379 -0.17035,0.13893 -1.14633,1.08026 -1.30814,1.26169 -0.0565,0.0634 -0.1673,0.17456 -0.24613,0.24702 -0.24298,0.22337 -0.5375,0.52238 -0.79521,0.80736 -0.13558,0.14993 -0.32475,0.33167 -0.42037,0.40386 -0.0956,0.0722 -0.22924,0.20803 -0.29693,0.30184 -0.0677,0.0938 -0.39727,0.43074 -0.7324,0.74872 -0.33512,0.31798 -0.66119,0.63477 -0.72459,0.70397 -0.24302,0.26523 -0.41882,0.43084 -0.57531,0.54196 -0.0893,0.0634 -0.2901,0.2709 -0.44622,0.4611 -0.15613,0.19021 -0.36807,0.40986 -0.471,0.48811 -0.10292,0.0783 -0.22538,0.20754 -0.27213,0.28731 -0.0468,0.0798 -0.16164,0.20831 -0.2553,0.28564 -0.0937,0.0773 -0.38521,0.35247 -0.64788,0.61144 -0.8136,0.80215 -0.96804,0.94885 -1.07994,1.02589 -0.0596,0.041 -0.18263,0.17319 -0.27344,0.29373 -0.21832,0.28981 -0.57352,0.65041 -0.72394,0.73495 -0.0664,0.0373 -0.15604,0.12922 -0.19918,0.20421 -0.0431,0.075 -0.15777,0.21045 -0.25474,0.30102 -0.38428,0.35895 -1.23993,1.19223 -1.33587,1.30095 -0.13647,0.15465 -0.37871,0.39584 -0.67817,0.67523 -0.13592,0.1268 -0.31377,0.31506 -0.39524,0.41836 -0.0815,0.10329 -0.2711,0.27943 -0.42142,0.39141 -0.3824,0.28487 -0.48408,0.50254 -0.38843,0.83155 0.0477,0.16399 0.0853,0.20771 0.52124,0.6056 0.25842,0.23586 0.92932,0.88114 1.49088,1.43395 0.56156,0.55281 1.16182,1.14007 1.33391,1.30503 0.58533,0.56107 0.64226,0.61901 0.98809,1.00564 0.1902,0.21264 0.47853,0.51518 0.64072,0.67231 0.97002,0.93974 1.55117,1.52357 1.65285,1.66049 0.0638,0.0859 0.2019,0.21644 0.30692,0.29011 0.12041,0.0845 0.30808,0.27858 0.50807,0.52553 0.20586,0.2542 0.40085,0.45492 0.55575,0.57211 0.21751,0.16454 0.7133,0.6575 2.50919,2.49486 0.34306,0.35099 0.66733,0.67078 0.72058,0.71066 0.10241,0.0767 1.06624,1.02386 1.3729,1.3492 0.0996,0.10569 0.23785,0.23446 0.30715,0.28614 0.0693,0.0517 0.17742,0.16552 0.24024,0.25298 0.0628,0.0874 0.17764,0.19616 0.25512,0.24157 0.12601,0.0738 0.44774,0.41212 0.92664,0.9743 0.0906,0.10633 0.31367,0.33176 0.49576,0.50096 0.6053,0.56243 1.36805,1.32597 1.53279,1.53438 0.0894,0.11315 0.21912,0.24139 0.28816,0.28497 0.16668,0.10522 0.28764,0.22925 0.60107,0.61627 0.15666,0.19346 0.34428,0.38219 0.46706,0.46985 0.11286,0.0806 0.81288,0.7664 1.55559,1.52404 1.45852,1.48784 1.42679,1.45626 2.24545,2.2348 0.30477,0.28984 0.62823,0.61363 0.71881,0.71952 0.0906,0.10589 0.24326,0.25144 0.3393,0.32343 0.096,0.072 0.22767,0.20473 0.2925,0.29497 0.0648,0.0902 0.20187,0.22111 0.30451,0.29082 0.10265,0.0697 0.24489,0.19862 0.31609,0.28649 0.0712,0.0879 0.23354,0.27144 0.36074,0.40795 0.12721,0.1365 0.28457,0.30695 0.34968,0.37876 0.0651,0.0718 0.50024,0.50111 0.96692,0.95398 0.46668,0.45287 0.89258,0.88709 0.94644,0.96493 0.0539,0.0778 0.18937,0.20744 0.30113,0.28799 0.12714,0.0916 0.32091,0.2914 0.51768,0.53367 0.19833,0.2442 0.39757,0.44933 0.53947,0.55543 0.12375,0.0925 0.59732,0.54617 1.05238,1.0081 1.59649,1.6206 2.16455,2.18812 2.76141,2.7588 0.33113,0.3166 0.65724,0.6443 0.72469,0.72821 0.0675,0.0839 0.20536,0.21503 0.30645,0.29136 0.1011,0.0763 0.23541,0.21059 0.29846,0.29835 0.0631,0.0878 0.18907,0.20733 0.28003,0.2657 0.091,0.0584 0.24833,0.20409 0.3497,0.32382 0.35916,0.4242 0.62287,0.70854 0.94702,1.02111 0.65271,0.62941 1.61715,1.60365 1.70721,1.72458 0.0507,0.068 0.16692,0.17405 0.25837,0.23564 0.14796,0.0996 0.29799,0.26182 0.72961,0.78866 0.0687,0.0839 0.20951,0.21006 0.31289,0.28043 0.10548,0.0718 0.78019,0.73313 1.53754,1.50709 0.74227,0.75854 1.45143,1.4755 1.57591,1.59325 0.72006,0.68109 1.30598,1.25681 1.43339,1.40841 0.0801,0.0953 0.2188,0.22702 0.30822,0.29266 0.0894,0.0656 0.22189,0.19963 0.29438,0.29776 0.0725,0.0981 0.20336,0.22245 0.29082,0.27626 0.0875,0.0538 0.23073,0.18272 0.31839,0.28646 0.0877,0.10374 0.26331,0.30111 0.39034,0.4386 0.12704,0.13749 0.2763,0.30053 0.3317,0.3623 0.0554,0.0618 0.47573,0.47544 0.93406,0.91925 0.45834,0.44382 0.89648,0.88852 0.97364,0.98823 0.0772,0.0997 0.21734,0.23311 0.3115,0.29643 0.10549,0.0709 0.29752,0.27005 0.50038,0.51882 0.21574,0.26455 0.41079,0.46484 0.56594,0.58114 0.13021,0.0976 0.62951,0.57826 1.10955,1.06814 1.11431,1.13712 1.97784,1.99941 2.6826,2.67875 0.30701,0.29594 0.62159,0.61218 0.69907,0.70275 0.0775,0.0906 0.22645,0.23258 0.33107,0.31556 0.10461,0.083 0.24948,0.22823 0.32194,0.32278 0.0725,0.0946 0.19845,0.21337 0.27996,0.26404 0.0815,0.0507 0.22141,0.17961 0.31087,0.28654 0.14824,0.17718 0.32906,0.37757 0.74387,0.82438 0.082,0.0883 0.4949,0.49397 0.91768,0.90156 0.42277,0.40758 0.84674,0.83806 0.94214,0.95662 0.0954,0.11856 0.25605,0.27244 0.35699,0.34195 0.1154,0.0795 0.29718,0.26749 0.48979,0.50657 0.19996,0.24819 0.38631,0.43969 0.53683,0.55166 0.19958,0.14845 2.71141,2.66683 2.96751,2.97525 0.051,0.0614 0.16747,0.17045 0.25883,0.2423 0.20418,0.16058 1.15245,1.08863 1.34177,1.31316 0.076,0.0902 0.20945,0.2151 0.29648,0.27764 0.087,0.0625 0.21205,0.18856 0.27781,0.28009 0.0658,0.0915 0.20479,0.2243 0.30897,0.29505 0.10418,0.0707 0.23899,0.19226 0.29959,0.27002 0.0606,0.0778 0.22907,0.26857 0.37441,0.42401 0.14534,0.15543 0.30958,0.33328 0.36498,0.39523 0.0554,0.0619 0.47589,0.47574 0.93443,0.91956 0.45855,0.44381 0.89156,0.88459 0.96226,0.9795 0.0707,0.0949 0.20599,0.2238 0.30067,0.28643 0.10879,0.072 0.29409,0.26298 0.50356,0.51909 0.21635,0.26452 0.41649,0.46977 0.57638,0.59108 0.13473,0.10222 0.61549,0.56363 1.06836,1.02536 1.32172,1.34757 2.08389,2.10968 2.70839,2.7082 0.32132,0.30795 0.64373,0.63179 0.71647,0.71963 0.0727,0.0878 0.22597,0.23345 0.3405,0.32357 0.11454,0.0901 0.25486,0.22997 0.31182,0.31078 0.057,0.0808 0.17416,0.19224 0.26045,0.24761 0.0863,0.0554 0.23425,0.19194 0.32881,0.3035 0.18165,0.21429 0.50361,0.57148 0.7528,0.83515 0.0822,0.087 0.5026,0.49904 0.93422,0.91568 0.43163,0.41664 0.8431,0.83571 0.91439,0.93126 0.0713,0.0956 0.2177,0.23783 0.32536,0.31617 0.11235,0.0817 0.34225,0.31788 0.53966,0.55429 0.20991,0.25138 0.40721,0.45247 0.50635,0.51609 0.13937,0.0894 2.65762,2.61403 2.97483,2.98232 0.0612,0.071 0.18534,0.18739 0.27592,0.25859 0.20041,0.15751 1.206,1.14297 1.32344,1.29694 0.0464,0.0609 0.17722,0.1836 0.29064,0.27274 0.11343,0.0891 0.24924,0.2261 0.3018,0.30437 0.0526,0.0783 0.17709,0.19624 0.27673,0.26218 0.0996,0.0659 0.23953,0.19197 0.31087,0.28008 0.0713,0.0881 0.24125,0.27937 0.37758,0.42502 0.13633,0.14564 0.29368,0.31609 0.34967,0.37876 0.056,0.0627 0.49113,0.4919 0.96698,0.95383 0.47585,0.46193 0.90815,0.902 0.96066,0.97794 0.0525,0.0759 0.18104,0.19807 0.28561,0.27143 0.18923,0.13273 0.23639,0.1829 0.62894,0.66905 0.11331,0.14032 0.31244,0.33576 0.44251,0.43429 0.13007,0.0985 0.62925,0.57963 1.10929,1.06909 1.52517,1.55508 3.65003,3.66313 3.83071,3.80039 0.0662,0.0503 0.17846,0.17693 0.24936,0.28134 0.0709,0.10441 0.19189,0.23348 0.26886,0.28682 0.077,0.0533 0.28914,0.26022 0.47148,0.45973 0.38944,0.4261 0.97955,1.01745 1.06484,1.06705 0.0328,0.0191 0.14098,0.0352 0.24028,0.0358 l 0.18054,9.6e-4 0.19822,-0.22155 z m -30.90848,-64.26092 c -0.11508,-0.11509 -0.10963,-0.07 -0.1023,-0.84646 0.003,-0.32607 0.008,-4.75522 0.012,-9.84255 l 0.006,-9.24969 0.0924,-0.0795 0.0924,-0.0795 7.30177,3.2e-4 c 4.9716,0 7.34128,0.0112 7.42559,0.0346 0.23094,0.0641 0.22559,0.026 0.2248,1.60071 -9.6e-4,1.78042 0.003,1.6466 -0.0505,1.77438 -0.0589,0.14088 -0.11436,0.16673 -0.41343,0.19253 -0.13587,0.0117 -2.47022,0.0228 -5.18745,0.0246 -5.31217,0.004 -5.04852,-0.005 -5.16341,0.17021 -0.1157,0.17659 -0.1245,0.3275 -0.12682,2.17554 -0.002,1.74199 6.4e-4,1.83257 0.0619,1.96953 0.0353,0.079 0.0948,0.17072 0.1322,0.2039 0.0652,0.0578 0.2384,0.0602 4.17944,0.0573 2.26131,-0.002 4.21725,-0.0122 4.34653,-0.0233 0.12929,-0.0112 0.36542,-0.009 0.52474,0.004 0.25734,0.0214 0.30002,0.0345 0.38248,0.11695 0.0768,0.0768 0.0926,0.12028 0.0914,0.2518 -6.4e-4,0.0874 -0.0135,0.22151 -0.0283,0.29793 -0.0148,0.0764 -0.0155,0.7355 -0.002,1.46462 0.027,1.40502 0.0222,1.46406 -0.12402,1.52575 -0.0324,0.0137 -1.57063,0.0304 -3.41835,0.0371 -5.27887,0.0193 -5.85167,0.0265 -5.93955,0.0742 -0.0423,0.023 -0.10497,0.10357 -0.13926,0.1791 -0.0588,0.12945 -0.0624,0.24338 -0.0631,1.98836 -6.4e-4,1.23694 0.0114,1.90771 0.0359,2.02186 0.0239,0.11134 0.0733,0.21083 0.14193,0.28572 l 0.10529,0.11489 5.23491,-0.003 c 4.07152,-0.003 5.2525,0.006 5.31407,0.037 0.0435,0.0222 0.10938,0.081 0.14631,0.13079 0.0653,0.088 0.0672,0.13359 0.069,1.65987 0.002,1.4279 -0.003,1.57783 -0.0547,1.66252 -0.0737,0.12113 -0.1882,0.14687 -0.43511,0.0978 -0.15085,-0.03 -0.28549,-0.0312 -0.54144,-0.005 -0.42132,0.0432 -12.10242,0.0472 -12.93177,0.004 -0.30796,-0.0159 -0.62661,-0.0168 -0.70813,-0.002 -0.0815,0.0148 -0.20311,0.0374 -0.2702,0.0502 -0.1077,0.0207 -0.13373,0.0117 -0.22232,-0.0769 z m 59.83709,0.0748 c -0.01,-0.01 -0.83194,-0.0226 -1.82745,-0.029 -2.00412,-0.0128 -1.91122,-0.003 -2.11335,-0.23278 -0.16244,-0.18501 -0.26672,-0.41937 -0.58649,-1.31822 -0.21609,-0.60736 -0.43128,-1.12743 -0.64051,-1.548 -0.18004,-0.36187 -0.24268,-0.5276 -0.29103,-0.7701 -0.072,-0.36109 -0.12839,-0.45201 -0.34967,-0.56381 l -0.16297,-0.0823 -3.87,-0.003 c -2.12851,-0.002 -3.98409,-0.0145 -4.12351,-0.0284 -0.3534,-0.0354 -0.55278,0.0167 -0.73528,0.19209 -0.10679,0.10262 -0.15519,0.18406 -0.19815,0.3334 -0.0313,0.10869 -0.14339,0.37069 -0.24917,0.58222 -0.10579,0.21153 -0.25044,0.55242 -0.32145,0.75753 -0.071,0.20512 -0.19001,0.52338 -0.26444,0.70726 -0.0744,0.18388 -0.13533,0.35374 -0.13533,0.37747 0,0.0237 -0.0722,0.19936 -0.16053,0.39027 -0.0883,0.19092 -0.20099,0.46208 -0.25044,0.60258 -0.10982,0.31208 -0.1961,0.44478 -0.34667,0.53324 -0.11265,0.0662 -0.15677,0.0676 -2.02102,0.0666 l -1.90586,-9.6e-4 -0.0621,-0.0767 c -0.1092,-0.13486 -0.08,-0.26086 0.13498,-0.58179 0.13897,-0.20747 0.20801,-0.34767 0.23418,-0.47552 0.0767,-0.37479 0.13098,-0.52086 0.27468,-0.73965 0.0978,-0.14897 0.1547,-0.2763 0.16824,-0.37678 0.0342,-0.25387 0.0787,-0.35506 0.2135,-0.48592 0.13777,-0.13371 0.16186,-0.18127 0.24682,-0.48728 0.0299,-0.1076 0.1068,-0.29986 0.17095,-0.42723 0.0641,-0.12738 0.15118,-0.35079 0.19342,-0.49648 0.0894,-0.30827 0.2513,-0.67839 0.35969,-0.82211 0.10597,-0.14054 0.16672,-0.30082 0.19414,-0.51227 0.0159,-0.12236 0.0652,-0.25062 0.1521,-0.39523 0.0707,-0.11775 0.1602,-0.31656 0.19881,-0.44179 0.0386,-0.12524 0.10427,-0.28166 0.14589,-0.34759 0.15008,-0.23773 0.32493,-0.61614 0.41902,-0.90684 0.0528,-0.16303 0.15504,-0.40437 0.22726,-0.53629 0.077,-0.14075 0.16974,-0.38573 0.22433,-0.59285 0.11,-0.41743 0.16272,-0.54969 0.29675,-0.74449 0.0549,-0.0799 0.16503,-0.31372 0.24463,-0.51969 0.0796,-0.20596 0.20687,-0.49804 0.2828,-0.64906 0.0759,-0.15102 0.18163,-0.39276 0.23488,-0.53721 0.0533,-0.14444 0.13287,-0.32446 0.1769,-0.40003 0.0868,-0.14905 0.37177,-0.82762 0.49534,-1.17971 0.0423,-0.1204 0.14409,-0.37236 0.22629,-0.55992 0.0822,-0.18755 0.20338,-0.48922 0.26928,-0.67037 0.0659,-0.18115 0.19469,-0.45158 0.2862,-0.60095 0.11499,-0.18769 0.18977,-0.36066 0.24208,-0.55992 0.0975,-0.37148 0.15444,-0.52796 0.26241,-0.72136 0.0482,-0.0864 0.15134,-0.31326 0.22917,-0.50424 0.0778,-0.19098 0.20384,-0.48804 0.28,-0.66013 0.0762,-0.17209 0.18864,-0.46826 0.24998,-0.65815 0.0745,-0.23067 0.16117,-0.41796 0.26114,-0.56427 0.0823,-0.12045 0.18142,-0.31338 0.22026,-0.42873 0.0389,-0.11536 0.1123,-0.27761 0.1632,-0.36056 0.12456,-0.20296 0.22086,-0.42573 0.29283,-0.67741 0.0779,-0.2725 0.17233,-0.39985 0.35789,-0.48279 0.14545,-0.065 0.21565,-0.0679 1.83099,-0.0742 1.52742,-0.006 1.69179,-0.001 1.81258,0.0503 0.18655,0.0799 0.29966,0.22821 0.34601,0.45361 0.0587,0.28534 0.13557,0.46485 0.30531,0.71275 0.0936,0.13668 0.18063,0.31645 0.2227,0.45998 0.0413,0.14105 0.13221,0.32995 0.22638,0.47065 0.10949,0.16358 0.17942,0.31697 0.23005,0.5046 0.0749,0.2777 0.21473,0.62736 0.38904,0.97305 0.0548,0.10869 0.12985,0.29851 0.16675,0.42183 0.0369,0.12332 0.12955,0.32005 0.20586,0.43718 0.0972,0.14913 0.1571,0.29177 0.19996,0.47583 0.0337,0.14458 0.11984,0.37948 0.19149,0.52199 0.0717,0.14252 0.206,0.4574 0.29853,0.69975 0.0925,0.24233 0.2134,0.52954 0.26858,0.63823 0.0552,0.10869 0.16415,0.36065 0.24214,0.55991 0.17978,0.45932 0.4134,1.01595 0.55985,1.33392 0.0626,0.13586 0.16733,0.39523 0.23278,0.57638 0.0654,0.18115 0.17142,0.4257 0.23548,0.54345 0.0641,0.11775 0.18148,0.37545 0.26093,0.57267 0.0794,0.19722 0.19667,0.42973 0.26051,0.5167 0.12427,0.16929 0.18596,0.32823 0.24614,0.63419 0.0208,0.10561 0.0965,0.30289 0.1683,0.43839 0.0718,0.13549 0.21339,0.46369 0.31468,0.72932 0.10129,0.26563 0.23277,0.57228 0.29218,0.68144 0.0594,0.10917 0.13733,0.289 0.17314,0.39962 0.0358,0.11063 0.12571,0.31813 0.19976,0.46111 0.074,0.14298 0.1728,0.39336 0.21945,0.55639 0.0466,0.16304 0.13468,0.38583 0.19564,0.49508 0.13223,0.23701 0.64861,1.47848 0.75857,1.82375 0.0602,0.1889 0.11108,0.27795 0.22601,0.39523 0.16096,0.16426 0.21757,0.2786 0.2187,0.44173 9.6e-4,0.1192 0.0804,0.30868 0.20848,0.49664 0.0481,0.0705 0.10343,0.18911 0.12301,0.26349 0.0716,0.272 0.26635,0.79987 0.37802,1.02451 0.11101,0.2233 0.13813,0.35635 0.088,0.43148 -0.0546,0.0817 -0.26067,0.14447 -0.3106,0.0945 z m -7.80355,-8.19802 c 0.13617,-0.0704 0.32462,-0.29412 0.36209,-0.42984 0.0417,-0.15117 -0.004,-0.31254 -0.18677,-0.65485 -0.0741,-0.13893 -0.1722,-0.37568 -0.21809,-0.52613 -0.0459,-0.15044 -0.17462,-0.45746 -0.28607,-0.68227 -0.11146,-0.22481 -0.23155,-0.49679 -0.26688,-0.60439 -0.0353,-0.10761 -0.12852,-0.33871 -0.2071,-0.51355 -0.0786,-0.17484 -0.17398,-0.41265 -0.212,-0.52847 -0.038,-0.11582 -0.1187,-0.30737 -0.1793,-0.42567 -0.0606,-0.1183 -0.14192,-0.31477 -0.18073,-0.43658 -0.0388,-0.12182 -0.12067,-0.3145 -0.18192,-0.42817 -0.0613,-0.11368 -0.13761,-0.31784 -0.16969,-0.45371 -0.1144,-0.48455 -0.34244,-0.94768 -0.51991,-1.05589 -0.16817,-0.10255 -0.30595,-0.0843 -0.44967,0.0596 -0.1279,0.12803 -0.19929,0.31301 -0.31462,0.81518 -0.0302,0.13139 -0.12233,0.35897 -0.21426,0.52914 -0.0887,0.16422 -0.18201,0.3873 -0.20731,0.49572 -0.0253,0.10842 -0.10623,0.30753 -0.17986,0.44247 -0.1296,0.23753 -0.27433,0.59526 -0.53232,1.31577 -0.0681,0.19021 -0.20739,0.5122 -0.30951,0.71554 -0.10212,0.20333 -0.2293,0.52019 -0.28261,0.70412 -0.0676,0.23305 -0.14104,0.40075 -0.24244,0.55324 -0.21273,0.31992 -0.25377,0.41215 -0.25377,0.57038 0,0.30754 0.28312,0.52699 0.68766,0.53301 0.11995,0.002 1.05549,-0.009 2.07899,-0.0229 1.58677,-0.0223 1.88515,-0.0191 2.02557,0.0218 0.21535,0.0627 0.32871,0.0644 0.44052,0.007 z m -73.40863,8.12928 c -0.14545,-0.0612 -0.17859,-0.15285 -0.15243,-0.42179 0.0345,-0.3545 0.0234,-18.61988 -0.0115,-19.03909 -0.036,-0.43156 -0.005,-0.54681 0.16332,-0.60545 0.0751,-0.0262 0.65963,-0.0374 1.94841,-0.0374 1.98676,0 1.97959,-5.8e-4 2.07331,0.17326 0.0304,0.0564 0.0393,0.93709 0.0378,3.74615 -9.7e-4,2.01981 -0.0128,3.81495 -0.0259,3.98919 -0.0188,0.24887 -0.0125,0.35597 0.0292,0.49943 0.14825,0.50998 0.57452,0.45511 0.97512,-0.12551 0.0996,-0.14441 0.37807,-0.46264 0.61875,-0.70719 0.24067,-0.24456 0.50746,-0.53863 0.59285,-0.6535 0.0854,-0.11487 0.23163,-0.26315 0.32499,-0.3295 0.0933,-0.0663 0.27635,-0.25397 0.40665,-0.41693 0.1303,-0.16296 0.42466,-0.48896 0.65413,-0.72446 0.22946,-0.23549 0.54085,-0.57638 0.69197,-0.75753 0.33814,-0.40532 0.96071,-1.07361 2.16315,-2.322 0.74449,-0.77294 1.02996,-1.07961 1.11908,-1.20217 0.25551,-0.35141 0.94587,-1.06143 1.09287,-1.12397 0.0855,-0.0364 0.53929,-0.0456 2.38356,-0.0485 2.24109,-0.004 2.27905,-0.002 2.34425,0.0627 0.0914,0.0914 0.0554,0.2111 -0.0981,0.32639 -0.10955,0.0823 -0.30446,0.26284 -0.81624,0.75608 -0.0908,0.0875 -0.20192,0.20439 -0.24703,0.25983 -0.0451,0.0554 -0.13999,0.14424 -0.21085,0.19735 -0.0709,0.0531 -0.19238,0.1957 -0.27004,0.31687 -0.0882,0.13756 -0.2089,0.27031 -0.32144,0.35343 -0.0991,0.0732 -0.2468,0.21968 -0.32819,0.32545 -0.0814,0.10578 -0.37523,0.41218 -0.65298,0.6809 -0.27775,0.26872 -0.55693,0.5666 -0.62039,0.66195 -0.13885,0.20861 -0.94798,1.05079 -1.46966,1.52968 -0.20721,0.19021 -0.40226,0.38483 -0.43345,0.43248 -0.0312,0.0477 -0.52359,0.56421 -1.09421,1.14788 -0.57061,0.58367 -1.06623,1.11529 -1.10136,1.18139 -0.0886,0.16666 -0.0838,0.53141 0.01,0.74289 0.0376,0.0851 0.15649,0.24656 0.26411,0.35884 0.10762,0.11228 0.28734,0.35976 0.39936,0.54997 0.11203,0.19021 0.28754,0.43618 0.39003,0.54661 0.27043,0.29136 0.56764,0.65576 0.67464,0.82716 0.0512,0.082 0.17258,0.24547 0.26979,0.36333 0.0972,0.11785 0.21549,0.29609 0.26283,0.39607 0.0481,0.10165 0.17962,0.27796 0.29825,0.3999 0.11669,0.11995 0.33014,0.39572 0.47433,0.61283 0.14418,0.21711 0.30899,0.45033 0.36624,0.51827 0.0573,0.0679 0.16367,0.20875 0.2365,0.3129 0.0728,0.10414 0.20324,0.267 0.28981,0.36189 0.0957,0.10488 0.17916,0.23805 0.21289,0.33961 0.0357,0.10749 0.12868,0.25149 0.26075,0.40384 0.11289,0.13023 0.25487,0.31089 0.31553,0.40146 0.0606,0.0906 0.17486,0.23732 0.2538,0.3261 0.0789,0.0888 0.23883,0.30641 0.35531,0.48362 0.11647,0.17722 0.30803,0.41895 0.42568,0.53718 0.11766,0.11823 0.25222,0.29055 0.29903,0.38293 0.0468,0.0924 0.1654,0.25529 0.26351,0.36201 0.0997,0.10843 0.229,0.30011 0.29309,0.43443 0.0749,0.15695 0.19912,0.33285 0.35795,0.50684 0.13379,0.14655 0.32704,0.39367 0.42943,0.54916 0.1024,0.15549 0.29069,0.39542 0.41842,0.53318 0.31118,0.33562 0.35603,0.45483 0.22167,0.58918 l -0.0741,0.0741 -2.22319,-0.005 c -2.1929,-0.005 -2.42012,-0.0155 -2.60793,-0.116 -0.0349,-0.0187 -0.1144,-0.14048 -0.17661,-0.27065 -0.0622,-0.13017 -0.18516,-0.32211 -0.27323,-0.42654 -0.0881,-0.10443 -0.18819,-0.24523 -0.22249,-0.31289 -0.16593,-0.3274 -0.30987,-0.52517 -1.18225,-1.6243 -0.0802,-0.1011 -0.20767,-0.28637 -0.28317,-0.4117 -0.0755,-0.12533 -0.22917,-0.32421 -0.34149,-0.44196 -0.11233,-0.11775 -0.26118,-0.31783 -0.3308,-0.44464 -0.0696,-0.1268 -0.19696,-0.30622 -0.28299,-0.39871 -0.086,-0.0925 -0.21044,-0.2526 -0.27646,-0.3558 -0.066,-0.10321 -0.28058,-0.40024 -0.47681,-0.66007 -0.19624,-0.25984 -0.43493,-0.60365 -0.53043,-0.76403 -0.30247,-0.50794 -0.38977,-0.63357 -0.59979,-0.86315 -0.11273,-0.12324 -0.31868,-0.41558 -0.45766,-0.64966 -0.13899,-0.23408 -0.30202,-0.47274 -0.3623,-0.53036 -0.14563,-0.1392 -0.42154,-0.27401 -0.56081,-0.27401 -0.16485,0 -0.39368,0.16057 -0.54778,0.38436 -0.0727,0.10561 -0.48291,0.54723 -0.91154,0.98136 -0.42862,0.43414 -0.81396,0.84913 -0.85629,0.92222 -0.18241,0.31487 -0.1796,0.26082 -0.1696,3.26181 0.007,2.1794 3.2e-4,2.78488 -0.0324,2.85257 -0.0662,0.13658 -0.20657,0.1777 -0.43847,0.12849 -0.15173,-0.0322 -0.27638,-0.033 -0.56734,-0.004 -0.51222,0.0515 -2.89127,0.0382 -3.02224,-0.0168 z m 41.90928,0.0176 c -0.0725,-0.0148 -0.26083,-0.0182 -0.4186,-0.008 l -0.28686,0.0195 -0.12104,-0.12104 -0.12104,-0.12103 0.0243,-0.32 c 0.0134,-0.17599 0.024,-0.38669 0.0237,-0.4682 -3.2e-4,-0.0815 -0.001,-4.37136 -0.002,-9.53299 -0.001,-6.99604 0.008,-9.39632 0.036,-9.43015 0.12031,-0.14496 -0.0762,-0.13987 5.38472,-0.1396 5.7789,3.2e-4 5.18529,-0.0232 6.0372,0.23882 0.20832,0.0641 0.52449,0.14727 0.7026,0.18488 0.23593,0.0498 0.42263,0.11779 0.68773,0.25038 0.20013,0.1001 0.40688,0.18201 0.45945,0.18201 0.13707,0 0.28787,0.0729 0.43928,0.2124 0.0725,0.0668 0.1934,0.16464 0.26876,0.21751 0.0754,0.0529 0.17038,0.15193 0.21117,0.22011 0.10674,0.17841 0.18997,0.26425 0.37713,0.38896 0.19113,0.12736 0.26391,0.21764 0.41196,0.51103 0.0589,0.11664 0.18204,0.32323 0.27372,0.45909 0.2332,0.34557 0.33321,0.60514 0.45149,1.17193 0.085,0.40733 0.10547,0.59273 0.11961,1.0842 0.019,0.65816 -0.0279,0.99381 -0.21828,1.56447 -0.0514,0.15398 -0.10239,0.35228 -0.11339,0.44068 -0.0242,0.19421 -0.10877,0.33316 -0.28318,0.46507 -0.0815,0.0617 -0.16237,0.16689 -0.21505,0.27995 -0.14487,0.31091 -0.16761,0.34084 -0.40964,0.53921 -0.12977,0.10636 -0.29624,0.27324 -0.36994,0.37085 -0.10026,0.1328 -0.18476,0.20175 -0.33564,0.27387 -0.3291,0.15729 -0.41574,0.27035 -0.41574,0.5425 0,0.18588 0.10771,0.34447 0.29712,0.43744 0.42835,0.21026 0.85345,0.40338 0.96414,0.438 0.11749,0.0368 0.42233,0.24242 0.44555,0.30061 0.006,0.0146 0.10581,0.10137 0.22219,0.19283 0.11638,0.0915 0.25081,0.22908 0.29873,0.30581 0.0479,0.0767 0.20481,0.26271 0.34863,0.41326 0.27827,0.2913 0.30253,0.33434 0.63421,1.12539 0.27709,0.66086 0.27969,0.67848 0.27969,1.89449 0,1.18124 -0.0188,1.32976 -0.21162,1.67529 -0.062,0.11114 -0.14507,0.32065 -0.18453,0.46557 -0.0924,0.33966 -0.13582,0.4207 -0.34319,0.64129 -0.0942,0.10016 -0.25267,0.29327 -0.35224,0.42913 -0.0996,0.13586 -0.24035,0.2989 -0.31282,0.3623 -0.42702,0.37358 -0.87213,0.70932 -1.07934,0.81414 -0.0917,0.0464 -0.29263,0.16067 -0.4466,0.25402 -0.35755,0.21677 -0.40458,0.23458 -0.83694,0.31698 -0.19765,0.0377 -0.47331,0.10447 -0.61257,0.14847 -0.30341,0.0958 -0.94458,0.23147 -1.34214,0.28391 -0.34132,0.045 -10.15294,0.0679 -10.36636,0.0242 z m 9.40329,-3.56698 c 0.33204,-0.0148 0.69782,-0.0954 1.07129,-0.23596 0.54858,-0.20649 0.93658,-0.51409 1.26187,-1.00041 0.26298,-0.39315 0.31897,-0.5954 0.31533,-1.13893 -0.005,-0.73832 -0.15002,-1.10763 -0.62232,-1.58427 -0.35998,-0.36328 -0.64829,-0.54074 -1.1237,-0.6916 -0.66908,-0.21234 -0.53669,-0.2049 -3.78439,-0.2125 -1.63034,-0.004 -2.99709,-0.005 -3.03722,-0.003 -0.12239,0.007 -0.29387,0.18559 -0.33483,0.34824 -0.0479,0.19014 -0.0513,4.06547 -0.004,4.23666 0.0439,0.15798 0.15759,0.25766 0.32688,0.28656 0.14351,0.0245 5.36819,0.0199 5.93087,-0.005 z m -1.63035,-8.23757 c 0.45288,-0.0259 0.86046,-0.0566 0.90575,-0.068 0.32855,-0.0831 0.75509,-0.24711 1.01341,-0.38966 0.65299,-0.36035 0.62887,-0.34088 0.82025,-0.66252 0.22496,-0.37808 0.29463,-0.56633 0.34236,-0.92501 0.0751,-0.56454 -0.0222,-1.07162 -0.27269,-1.42041 -0.0623,-0.0867 -0.15168,-0.22497 -0.19863,-0.30715 -0.047,-0.0822 -0.11995,-0.16585 -0.1622,-0.18593 -0.0423,-0.0201 -0.1617,-0.076 -0.26543,-0.12434 -0.10372,-0.0483 -0.21885,-0.13033 -0.25584,-0.18227 -0.11016,-0.15471 -0.2557,-0.2183 -0.74127,-0.32392 -0.38886,-0.0846 -0.57981,-0.10552 -1.21864,-0.13364 -1.06975,-0.0471 -4.29295,-0.0327 -4.38408,0.0195 -0.085,0.0487 -0.17489,0.18175 -0.21321,0.31536 -0.0446,0.15558 -0.0418,4.0071 0.003,4.12537 0.044,0.11606 0.15518,0.24238 0.24667,0.28023 0.11481,0.0475 3.48078,0.034 4.38052,-0.0176 z m 35.83189,11.80983 c -0.0377,-0.0161 -0.10763,-0.0757 -0.15539,-0.13248 l -0.0868,-0.10319 -0.002,-9.8315 c -9.6e-4,-6.76723 0.009,-9.85151 0.0329,-9.89571 0.0938,-0.17522 -0.19622,-0.16694 5.42632,-0.15482 5.13207,0.0111 5.20028,0.0121 5.62325,0.0819 0.47072,0.0777 1.02158,0.2526 1.47776,0.46906 0.16062,0.0762 0.41557,0.18033 0.56654,0.23136 0.33751,0.11409 0.92505,0.45844 1.12058,0.65676 0.0799,0.081 0.14521,0.15907 0.14521,0.17347 0,0.0144 0.0778,0.0761 0.17291,0.13709 0.22025,0.14129 0.26415,0.19095 0.49312,0.55788 0.28319,0.45383 0.34641,0.5841 0.40402,0.83258 0.0289,0.12483 0.11062,0.35293 0.18153,0.50691 0.18743,0.407 0.20668,0.53947 0.2106,1.44919 0.003,0.67296 -0.006,0.83976 -0.0533,1.00456 -0.0973,0.33866 -0.19734,0.7483 -0.23877,0.97796 -0.033,0.18292 -0.0841,0.29128 -0.30027,0.63681 -0.31686,0.50644 -0.42725,0.63938 -0.6676,0.80396 -0.10217,0.07 -0.23764,0.18251 -0.30104,0.25012 -0.0634,0.0676 -0.238,0.20286 -0.38799,0.30057 -0.30927,0.20147 -0.40218,0.32458 -0.40236,0.5332 -3.2e-4,0.28928 0.0997,0.3675 0.86285,0.67502 0.4601,0.18541 0.53612,0.22788 0.85138,0.47571 0.0987,0.0776 0.24618,0.18876 0.3277,0.24702 0.10139,0.0725 0.17647,0.1642 0.23768,0.29037 0.0574,0.11837 0.15288,0.23861 0.26653,0.3357 0.15062,0.12869 0.21937,0.23149 0.46031,0.68838 0.49841,0.94507 0.56926,1.28664 0.54183,2.61208 -0.0172,0.8333 -0.0577,1.07022 -0.25392,1.48543 -0.054,0.11431 -0.12301,0.30664 -0.15334,0.4274 -0.0353,0.14045 -0.0945,0.26856 -0.16425,0.35554 -0.06,0.0748 -0.18002,0.23118 -0.26671,0.34756 -0.1455,0.19532 -0.31862,0.39618 -0.70107,0.81342 -0.1368,0.14924 -0.5817,0.55646 -0.67002,0.61327 -0.021,0.0135 -0.16409,0.0628 -0.31807,0.1096 -0.15397,0.0468 -0.42076,0.16414 -0.59285,0.26077 -0.40133,0.22532 -1.07117,0.46583 -1.47807,0.5307 -0.17432,0.0278 -0.47257,0.0856 -0.66278,0.12848 -0.61626,0.1389 -1.49632,0.15737 -6.42256,0.13475 -2.43645,-0.0112 -4.47438,-0.0232 -4.52873,-0.0266 -0.0543,-0.003 -0.19514,0.004 -0.31289,0.0164 -0.11774,0.0125 -0.24494,0.009 -0.28264,-0.007 z m 10.26231,-3.58535 c 0.0815,-0.0206 0.23545,-0.0676 0.34206,-0.10445 0.10661,-0.0369 0.32748,-0.0902 0.49081,-0.11854 0.16333,-0.0283 0.35029,-0.079 0.41547,-0.11268 0.2323,-0.11988 0.67485,-0.48038 0.78195,-0.63697 0.16821,-0.24595 0.41667,-1.05375 0.433,-1.40775 0.0122,-0.26549 0.004,-0.3069 -0.13801,-0.7205 -0.24409,-0.70934 -0.22805,-0.68632 -0.81335,-1.1673 -0.29179,-0.23978 -0.37981,-0.28045 -0.69147,-0.31953 -0.14632,-0.0183 -0.4019,-0.0698 -0.56795,-0.11432 -0.50431,-0.13525 -0.86887,-0.15046 -3.69434,-0.15414 -2.92966,-0.004 -2.78316,-0.0134 -2.94477,0.19208 -0.12542,0.15945 -0.13865,0.2933 -0.10285,1.04052 0.0433,0.90434 0.0419,1.64475 -0.004,2.36474 -0.0461,0.717 -0.0421,0.83051 0.0353,0.98209 0.078,0.1528 0.16531,0.23216 0.31029,0.282 0.15824,0.0544 5.9315,0.0495 6.14823,-0.005 z m -1.79502,-8.21026 c 0.14492,-0.0186 0.45722,-0.0548 0.694,-0.0803 0.49641,-0.0535 0.67784,-0.10652 0.95281,-0.27867 0.10869,-0.068 0.30878,-0.17526 0.44464,-0.23827 0.47097,-0.2184 0.67064,-0.47576 0.91511,-1.17945 0.0733,-0.21109 0.0861,-0.30453 0.0876,-0.64226 0.002,-0.48249 -0.0616,-0.7038 -0.32597,-1.13027 -0.19807,-0.31953 -0.28897,-0.41402 -0.52856,-0.54942 -0.0906,-0.0512 -0.24802,-0.15808 -0.34989,-0.23753 -0.25423,-0.19829 -0.42955,-0.25688 -1.05459,-0.35247 -0.52937,-0.081 -0.5723,-0.0824 -2.46552,-0.0811 -1.05972,7.1e-4 -2.05604,-0.01 -2.21403,-0.0227 -0.23368,-0.0195 -0.31481,-0.0135 -0.43488,0.0324 -0.17686,0.0676 -0.33357,0.23586 -0.37775,0.40573 -0.0411,0.15811 -0.0377,3.88042 0.004,3.99394 0.0582,0.15986 0.27494,0.33768 0.47771,0.392 0.1239,0.0332 3.89386,0.005 4.17563,-0.0316 z m -92.71538,-14.53038 c -0.10869,-0.0131 -0.42086,-0.0148 -0.69372,-0.004 -0.55008,0.0223 -0.60533,0.009 -0.69354,-0.16114 -0.0456,-0.0882 -0.0505,-0.16876 -0.0316,-0.51777 0.0284,-0.52196 0.0286,-18.105 3.2e-4,-18.46187 -0.0473,-0.59547 0.15383,-1.08535 0.5229,-1.27364 0.13155,-0.0671 0.13453,-0.0671 9.31933,-0.0624 5.56355,0.003 9.25203,0.0169 9.35071,0.0356 0.0896,0.017 0.28444,0.0671 0.4329,0.11143 0.14847,0.0443 0.35887,0.0974 0.46756,0.11792 0.26074,0.0493 0.49525,0.12567 0.63997,0.20833 0.59961,0.34248 0.86431,0.51089 0.99037,0.63013 0.0815,0.0771 0.22177,0.19501 0.31168,0.26202 0.0899,0.067 0.20847,0.18427 0.26349,0.26057 0.055,0.0763 0.16269,0.21725 0.2393,0.31322 0.0766,0.096 0.156,0.23655 0.17644,0.3124 0.0204,0.0759 0.0943,0.3167 0.16419,0.53523 0.0787,0.24622 0.14633,0.54683 0.17776,0.79047 0.0279,0.21623 0.0724,0.5319 0.0988,0.70149 0.0382,0.24456 0.0449,0.55797 0.0325,1.51507 -0.009,0.6637 -0.0303,1.3249 -0.0483,1.46934 -0.0179,0.14445 -0.0326,0.36677 -0.0326,0.49405 0,0.21376 -0.0134,0.25808 -0.17534,0.58093 -0.16652,0.33206 -0.26672,0.46362 -0.63425,0.83285 -0.0739,0.0743 -0.19646,0.17587 -0.27224,0.22571 -0.18456,0.12141 -0.26821,0.26562 -0.26836,0.46269 -3.3e-4,0.26072 0.10128,0.39707 0.42357,0.56911 0.0972,0.0519 0.23027,0.16141 0.29581,0.24347 0.0655,0.082 0.18611,0.22418 0.26797,0.31586 0.0818,0.0917 0.18588,0.23988 0.23116,0.32933 0.0453,0.0895 0.15972,0.24728 0.2543,0.35072 0.17253,0.18872 0.18635,0.21867 0.2219,0.48082 0.0106,0.078 0.0588,0.27071 0.10707,0.42818 0.0876,0.28556 0.0879,0.28968 0.10149,1.58728 0.016,1.52341 -0.0142,1.97793 -0.17442,2.63171 -0.0604,0.2463 -0.13356,0.5738 -0.1626,0.72778 -0.0339,0.17989 -0.11019,0.40357 -0.21333,0.62579 -0.0883,0.1902 -0.19687,0.42796 -0.2413,0.52833 -0.10826,0.24459 -0.57616,0.70414 -0.84137,0.82637 -0.10342,0.0477 -0.29178,0.17771 -0.41859,0.289 -0.29005,0.25457 -0.49218,0.35299 -0.81353,0.39612 -0.13948,0.0187 -0.45814,0.0899 -0.70813,0.15811 l -0.45451,0.12407 -4.84162,0.008 c -2.66289,0.005 -6.71651,0.0119 -9.00805,0.0165 -2.29153,0.005 -4.25536,-0.003 -4.36405,-0.0156 z m 15.10125,-4.5726 c 0.0815,-0.0192 0.26913,-0.0931 0.41693,-0.16422 0.36259,-0.1745 0.46272,-0.29667 0.61292,-0.74784 0.11546,-0.34684 0.11827,-0.36773 0.13624,-1.01525 0.0112,-0.40286 0.005,-0.70522 -0.0147,-0.774 -0.0182,-0.0621 -0.0616,-0.28638 -0.0966,-0.49843 -0.0349,-0.21206 -0.0851,-0.42697 -0.11141,-0.47758 -0.10757,-0.20679 -0.29744,-0.31615 -0.68782,-0.39614 -0.24568,-0.0504 -0.76205,-0.0579 -5.32775,-0.0777 -2.78064,-0.0121 -5.1224,-0.0323 -5.20392,-0.0449 -0.17311,-0.0267 -0.30272,0.0434 -0.47452,0.25688 l -0.10186,0.12657 -0.002,1.65199 c -0.001,1.25696 0.009,1.68829 0.0411,1.80385 0.0457,0.16248 0.1704,0.31199 0.30987,0.37144 0.11762,0.0501 10.28817,0.0359 10.50312,-0.0147 z m -5.08865,-7.22294 4.61107,-0.005 0.24702,-0.0885 c 0.13586,-0.0487 0.3654,-0.12 0.51008,-0.15848 0.35253,-0.0938 0.46274,-0.18159 0.52863,-0.42122 0.0285,-0.10347 0.0876,-0.27705 0.13133,-0.38574 0.0438,-0.10869 0.0945,-0.26432 0.1127,-0.34583 0.0448,-0.20059 0.0408,-0.7523 -0.0105,-1.45737 l -0.0426,-0.58455 -0.12442,-0.18066 c -0.14739,-0.214 -0.3477,-0.40211 -0.49134,-0.46141 -0.0569,-0.0235 -0.32623,-0.0881 -0.59857,-0.14369 l -0.49517,-0.101 -4.70875,-0.004 c -3.3806,-0.003 -4.7552,0.007 -4.87343,0.0333 -0.19763,0.0445 -0.36762,0.1565 -0.47234,0.31131 l -0.0771,0.114 -9.6e-4,1.766 -9.7e-4,1.76601 0.0976,0.12141 c 0.16511,0.20533 0.3867,0.2735 0.79977,0.24604 0.13586,-0.009 2.322,-0.0185 4.85808,-0.0211 z m 41.30751,11.80352 -2.13534,-0.0171 -0.0961,-0.10756 c -0.0528,-0.0592 -0.0967,-0.14068 -0.0974,-0.18115 -6.4e-4,-0.0405 -0.002,-2.48061 -0.003,-5.42253 -0.002,-5.78178 0.005,-5.55244 -0.17584,-5.8256 -0.13219,-0.19976 -0.24606,-0.2494 -0.50602,-0.2206 -0.37239,0.0412 -1.26299,0.0384 -1.37615,-0.004 -0.19009,-0.0719 -0.27875,-0.23671 -0.44093,-0.81982 -0.0403,-0.14492 -0.13003,-0.40623 -0.1994,-0.58068 -0.0694,-0.17446 -0.20216,-0.53758 -0.29509,-0.80694 -0.0929,-0.26936 -0.23456,-0.61187 -0.31472,-0.76115 -0.16416,-0.30567 -0.18056,-0.42617 -0.0717,-0.52633 0.0727,-0.0668 0.10239,-0.0681 1.52763,-0.0663 1.65262,0.002 1.59783,0.0106 1.75776,-0.27394 l 0.0823,-0.14653 6.4e-4,-1.35039 c 6.4e-4,-1.28542 0.004,-1.36328 0.0728,-1.61853 0.0397,-0.14748 0.10282,-0.41836 0.14024,-0.60196 0.0374,-0.18359 0.10315,-0.41323 0.14607,-0.51029 0.0935,-0.21132 0.56427,-0.9416 0.60705,-0.9416 0.0166,0 0.15677,-0.11762 0.31156,-0.26138 0.25263,-0.23463 0.30611,-0.26863 0.52263,-0.33228 0.13266,-0.039 0.35977,-0.13487 0.50469,-0.21304 0.32954,-0.17776 0.4116,-0.19872 1.02102,-0.26081 1.33856,-0.13638 1.62752,-0.15113 2.96084,-0.15113 h 1.34127 l 0.17587,0.16632 c 0.0967,0.0915 0.19029,0.20635 0.20792,0.25526 0.20667,0.57325 0.36149,0.98359 0.43821,1.16142 0.0513,0.11889 0.1357,0.37236 0.18759,0.56328 0.0647,0.23787 0.14251,0.42805 0.24734,0.60419 0.19191,0.32248 0.25518,0.56882 0.17681,0.68841 -0.0989,0.1509 -0.21758,0.16008 -1.75057,0.13536 -1.39918,-0.0225 -1.41904,-0.022 -1.64681,0.0496 -0.51868,0.16296 -0.58334,0.23046 -0.71385,0.74533 -0.093,0.36682 -0.0966,0.40436 -0.0607,0.62885 0.0291,0.18181 0.029,0.31208 -6.4e-4,0.54624 -0.0415,0.32946 -0.01,0.67678 0.0815,0.8954 0.0941,0.22527 0.0309,0.21947 2.21947,0.20402 2.14461,-0.0151 2.13035,-0.0162 2.22692,0.17052 0.0363,0.0701 0.0422,0.37384 0.0316,1.61767 -0.008,0.96506 -0.0259,1.56178 -0.0477,1.61367 -0.019,0.0453 -0.0738,0.11113 -0.12172,0.14632 -0.0835,0.0613 -0.16138,0.0642 -1.88402,0.0694 -1.53429,0.005 -1.82222,-0.002 -1.9702,-0.0454 -0.16466,-0.0483 -0.17781,-0.0476 -0.26349,0.0146 -0.11069,0.0804 -0.22885,0.30839 -0.26259,0.50671 -0.0139,0.0815 -0.0174,2.5789 -0.008,5.54975 0.0166,5.17801 0.0148,5.40722 -0.0428,5.53887 -0.06,0.13704 -0.18979,0.21929 -0.31697,0.20085 -0.029,-0.004 -1.01362,-0.0153 -2.18806,-0.0247 z m 12.54317,3.2e-4 c -1.64516,-0.0138 -2.09098,-0.0265 -2.15219,-0.0614 -0.0425,-0.0242 -0.10327,-0.10571 -0.13513,-0.18115 -0.0546,-0.12925 -0.0577,-0.47161 -0.0545,-5.93393 l 0.003,-5.79677 0.077,-0.18115 c 0.0423,-0.0996 0.11166,-0.3379 0.15408,-0.52948 0.11072,-0.50009 0.28229,-0.84787 0.61992,-1.25655 0.45115,-0.5461 0.63889,-0.69334 1.41606,-1.11057 0.57163,-0.30689 -0.23898,-0.27675 7.76819,-0.2888 4.39091,-0.007 7.15688,0.001 7.24265,0.0205 0.0763,0.0171 0.1699,0.0623 0.20795,0.10036 0.0686,0.0686 0.0693,0.0865 0.0773,2.06914 0.004,1.09998 0,2.04845 -0.01,2.10771 -0.024,0.14393 -0.18714,0.32376 -0.33746,0.37189 -0.067,0.0215 -0.25526,0.0947 -0.41829,0.16284 -0.16303,0.0681 -0.33348,0.13492 -0.37876,0.14848 -0.0453,0.0136 -0.22315,0.0875 -0.39524,0.16425 -0.17209,0.0768 -0.45369,0.17941 -0.62579,0.22807 -0.17209,0.0487 -0.46885,0.16164 -0.65947,0.25105 -0.21476,0.10074 -0.45275,0.18386 -0.62573,0.21855 -0.24547,0.0492 -0.29703,0.0726 -0.42742,0.19328 -0.18291,0.16935 -0.26296,0.21236 -0.39529,0.21236 -0.14624,0 -0.2289,-0.0539 -0.28362,-0.18484 -0.0417,-0.0997 -0.0409,-0.17711 0.006,-0.63137 0.0941,-0.90282 0.0383,-1.29782 -0.21864,-1.54754 -0.16162,-0.15704 -0.28348,-0.17869 -0.7595,-0.13492 -0.27456,0.0252 -1.29308,0.0351 -3.11423,0.0301 -2.86426,-0.008 -2.85418,-0.008 -3.34406,0.15082 -0.40499,0.13158 -0.47801,0.21477 -0.56711,0.6461 -0.0463,0.22423 -0.0522,0.82858 -0.0522,5.37346 0,3.19218 -0.0119,5.15215 -0.0316,5.204 -0.0621,0.16323 -0.15066,0.21819 -0.33891,0.21024 -0.0951,-0.004 -1.10666,-0.0151 -2.24789,-0.0247 z m -35.90885,-0.0383 c -0.18869,-0.0305 -0.6379,-0.24351 -0.99094,-0.4698 -0.22776,-0.14599 -0.36524,-0.29167 -0.71821,-0.76105 -0.2506,-0.33325 -0.26742,-0.36547 -0.37817,-0.72442 -0.0503,-0.16304 -0.12812,-0.40018 -0.17294,-0.52698 l -0.0815,-0.23056 -0.0106,-1.79502 c -0.0105,-1.76765 -0.009,-1.80054 0.0652,-2.15732 0.0417,-0.19926 0.12023,-0.507 0.17447,-0.68387 0.0908,-0.2962 0.11472,-0.3384 0.30292,-0.53507 0.11899,-0.12436 0.26018,-0.32015 0.33814,-0.4689 0.11618,-0.22168 0.15748,-0.26918 0.31289,-0.35986 0.0985,-0.0575 0.31244,-0.18637 0.47548,-0.28646 0.16303,-0.1001 0.37053,-0.21612 0.46111,-0.25783 l 0.16468,-0.0758 4.26523,0.002 4.26524,0.002 0.23055,0.0749 c 0.49156,0.15969 0.5066,0.17632 0.60591,0.66983 0.0395,0.19617 0.10275,0.38183 0.17702,0.51939 0.0636,0.11775 0.14736,0.31202 0.1862,0.43172 0.11394,0.35113 0.30745,0.4685 0.52752,0.31996 0.2625,-0.17718 0.35923,-0.61296 0.23462,-1.05703 -0.0686,-0.24447 -0.071,-0.30035 -0.0549,-1.26794 0.0183,-1.09643 0.008,-1.19126 -0.16472,-1.58301 -0.13886,-0.31414 -0.24475,-0.3928 -0.62505,-0.46432 -0.10051,-0.0189 -2.02068,-0.0335 -4.80869,-0.0365 -2.55274,-0.003 -5.07733,-0.0135 -5.6102,-0.0237 l -0.96885,-0.0187 -0.0989,-0.0884 -0.0989,-0.0884 -0.01,-1.58122 c -0.009,-1.5566 -0.008,-1.58236 0.0582,-1.6539 0.0372,-0.04 0.10429,-0.0866 0.14902,-0.10359 0.11788,-0.0448 14.76664,-0.0413 15.12973,0.004 0.3593,0.0445 0.52587,0.12549 0.66979,0.32581 0.0698,0.0972 0.18457,0.19884 0.29716,0.26326 0.24689,0.14125 0.35282,0.27673 0.58116,0.74324 0.24426,0.49902 0.28313,0.65224 0.34617,1.36459 0.0441,0.49793 0.0504,1.32522 0.0453,5.93078 -0.003,2.94367 -0.0161,5.56843 -0.0285,5.8328 -0.0276,0.58886 -0.0614,0.6679 -0.33268,0.77762 l -0.17948,0.0726 -7.2789,-0.003 c -4.00339,-0.002 -7.35678,-0.0158 -7.45198,-0.0312 z m 10.15654,-3.60412 c 0.22674,-0.1693 0.21816,-0.1153 0.22824,-1.4356 0.006,-0.77479 -0.003,-1.21945 -0.0248,-1.26252 -0.066,-0.12912 -0.23926,-0.28222 -0.35427,-0.31299 -0.073,-0.0195 -0.1963,-0.0196 -0.33052,0 -0.12149,0.0176 -1.58191,0.0316 -3.37669,0.0324 -2.13295,9.2e-4 -3.20399,0.0128 -3.28973,0.0365 -0.18322,0.0506 -0.42135,0.28813 -0.53373,0.5324 l -0.0945,0.20533 v 0.74107 c 0,0.69526 0.005,0.75267 0.0755,0.92885 0.0856,0.21324 0.33378,0.50817 0.48249,0.57331 0.0813,0.0356 0.75278,0.0424 3.61337,0.0366 3.49167,-0.007 3.51409,-0.008 3.60447,-0.0751 z m 46.48846,3.52559 c -0.52827,-0.13425 -0.74125,-0.23539 -1.00614,-0.47776 -0.10937,-0.10007 -0.28096,-0.23525 -0.38131,-0.30039 -0.1372,-0.0891 -0.19756,-0.15423 -0.24331,-0.26269 -0.0941,-0.22311 -0.2745,-0.58808 -0.38057,-0.77003 -0.11235,-0.19273 -0.24258,-0.68643 -0.24327,-0.92221 -3.2e-4,-0.0906 -0.0126,-0.7353 -0.0275,-1.43273 -0.0277,-1.30029 -0.0214,-1.44038 0.1244,-2.7909 0.0109,-0.10044 0.0624,-0.25464 0.12335,-0.36918 0.0576,-0.10818 0.17394,-0.32699 0.25854,-0.48624 0.23039,-0.43367 0.58145,-0.76525 1.07929,-1.01942 0.20722,-0.10579 0.44436,-0.22861 0.52698,-0.27293 0.12974,-0.0696 0.21754,-0.0847 0.64425,-0.11064 0.27173,-0.0165 2.27936,-0.0347 4.4614,-0.0403 l 3.96736,-0.0103 0.10026,0.10809 c 0.17273,0.18622 0.41934,0.69661 0.49823,1.03116 0.14181,0.60134 0.54642,1.06853 0.80538,0.92994 0.039,-0.0209 0.10101,-0.10602 0.13781,-0.18922 0.0611,-0.138 0.065,-0.19191 0.0446,-0.61473 -0.0123,-0.25491 -0.0285,-0.93532 -0.0361,-1.51203 -0.008,-0.57671 -0.0304,-1.13992 -0.0506,-1.25157 -0.083,-0.4576 -0.3387,-0.77583 -0.68044,-0.84678 -0.13451,-0.0279 -1.67163,-0.0376 -5.78426,-0.0363 -4.83106,0.001 -5.61491,-0.005 -5.70185,-0.0461 -0.19789,-0.0939 -0.19861,-0.0982 -0.20296,-1.21709 -0.002,-0.56156 -0.008,-1.26914 -0.0136,-1.5724 -0.0108,-0.61975 -6.4e-4,-0.65206 0.22879,-0.71855 0.0807,-0.0234 2.51831,-0.0311 7.69348,-0.0244 6.38309,0.008 7.59346,0.0171 7.6906,0.0557 0.12,0.0478 0.39677,0.20461 0.66936,0.37928 0.20186,0.12934 0.51914,0.56055 0.66418,0.90265 0.059,0.1392 0.14511,0.33461 0.1913,0.43425 0.20642,0.44518 0.21993,0.89102 0.21853,7.21302 -10e-4,5.87731 -0.002,5.91568 -0.15185,6.12051 -0.0353,0.0484 -0.12257,0.11761 -0.19386,0.15384 -0.12833,0.0652 -0.20127,0.0659 -7.35911,0.0723 l -7.2295,0.006 z m 10.20396,-3.49061 c 0.0615,-0.0362 0.14302,-0.10778 0.18115,-0.15899 0.0675,-0.0907 0.0693,-0.12405 0.0687,-1.30143 -6.4e-4,-1.15489 -0.004,-1.21337 -0.0677,-1.32302 -0.0368,-0.0631 -0.11264,-0.14548 -0.16842,-0.18307 -0.10125,-0.0682 -0.10703,-0.0683 -3.39065,-0.0571 -2.16249,0.007 -3.35127,0.0233 -3.47037,0.0466 -0.26333,0.0514 -0.64053,0.24038 -0.73996,0.37074 -0.18191,0.23849 -0.27022,0.83938 -0.21748,1.47978 0.0423,0.51379 0.10814,0.68878 0.33632,0.89394 0.30708,0.27609 0.12558,0.26052 3.17368,0.27235 1.48542,0.006 2.74523,0.014 2.79957,0.0183 0.0543,0.004 0.38783,0.008 0.74107,0.008 0.58302,0 0.65257,-0.006 0.75409,-0.0659 z m -62.01581,-27.22409 c -0.43402,-0.0628 -0.46966,-0.11724 -0.52157,-0.79649 -0.0557,-0.7289 -0.0471,-1.31983 0.0274,-1.88547 0.0358,-0.27172 0.0654,-0.6092 0.0657,-0.74995 6.4e-4,-0.19559 0.02,-0.30349 0.0827,-0.45777 0.0451,-0.11102 0.0978,-0.32934 0.11717,-0.48515 0.0193,-0.15582 0.0785,-0.40928 0.13137,-0.56326 0.0529,-0.15397 0.13408,-0.41156 0.18035,-0.57242 0.0463,-0.16085 0.1575,-0.44246 0.24716,-0.62578 0.12059,-0.24657 0.172,-0.39763 0.19752,-0.58035 0.0488,-0.34911 0.0816,-0.45359 0.20916,-0.66544 0.0618,-0.1026 0.15915,-0.3098 0.21637,-0.46044 0.0572,-0.15065 0.15398,-0.34962 0.21503,-0.44214 0.061,-0.0925 0.16277,-0.27104 0.22604,-0.39669 0.14002,-0.27803 0.63482,-1.05583 0.95906,-1.50756 0.13101,-0.18252 0.30637,-0.43561 0.38969,-0.56241 0.0833,-0.12681 0.40068,-0.4975 0.70524,-0.82378 0.30456,-0.32627 0.64267,-0.70332 0.75136,-0.83789 0.10869,-0.13457 0.36065,-0.41214 0.55992,-0.6168 0.19926,-0.20467 0.40546,-0.425247 0.45821,-0.490187 0.0528,-0.065 0.17689,-0.16987 0.27583,-0.23316 0.099,-0.0633 0.25587,-0.19003 0.34872,-0.28164 0.0928,-0.0916 0.25033,-0.22255 0.34996,-0.291 0.0996,-0.0684 0.24043,-0.18654 0.31289,-0.26244 0.0725,-0.0759 0.19844,-0.18383 0.27996,-0.23986 0.0815,-0.056 0.25196,-0.20063 0.37876,-0.32133 0.12681,-0.12071 0.47511,-0.41049 0.77401,-0.64396 0.29889,-0.23346 0.68424,-0.56587 0.85634,-0.73868 0.17414,-0.17486 0.40783,-0.37071 0.52698,-0.44165 0.11774,-0.0701 0.28078,-0.19055 0.3623,-0.26765 0.0815,-0.0771 0.25196,-0.2028 0.37876,-0.27933 0.12681,-0.0765 0.34526,-0.24843 0.48545,-0.38199 0.14019,-0.13355 0.26776,-0.24283 0.28348,-0.24283 0.0157,0 0.11971,-0.111 0.23106,-0.24667 0.16018,-0.19517 0.24885,-0.27042 0.42464,-0.36036 0.12437,-0.0636 0.37442,-0.24693 0.56801,-0.41637 0.19021,-0.16649 0.45699,-0.38428 0.59285,-0.48399 0.13586,-0.0997 0.35818,-0.28924 0.49404,-0.42118 0.13587,-0.13193 0.31691,-0.29665 0.40232,-0.36605 0.0854,-0.0694 0.37464,-0.32746 0.64273,-0.57346 0.26809,-0.246 0.55192,-0.48994 0.63074,-0.5421 0.0788,-0.0522 0.22283,-0.20237 0.32002,-0.33379 0.0972,-0.13143 0.21389,-0.26331 0.25931,-0.29308 0.16576,-0.1086 1.03765,-1.0761 1.22232,-1.35634 0.39327,-0.59681 0.46972,-0.7289 0.70043,-1.21031 0.38231,-0.79775 0.38499,-0.80152 0.54298,-0.76186 0.0962,0.0241 0.17362,0.15339 0.26903,0.44896 0.0322,0.0996 0.0928,0.24966 0.13468,0.3334 0.11073,0.22119 0.57327,0.93012 0.78196,1.1985 0.0988,0.12701 0.22609,0.3271 0.28296,0.44464 0.064,0.13226 0.18351,0.29532 0.31358,0.4278 0.1156,0.11775 0.27926,0.32893 0.3637,0.4693 0.10712,0.17806 0.21003,0.2988 0.34047,0.39946 0.10282,0.0794 0.33818,0.31315 0.52302,0.51957 0.18484,0.20641 0.39553,0.41942 0.4682,0.47333 0.0727,0.0539 0.20304,0.17863 0.28972,0.27712 0.31704,0.36028 0.90906,0.9083 1.11347,1.03072 0.11542,0.0691 0.31393,0.22118 0.44111,0.33791 0.12719,0.11671 0.30303,0.24858 0.39075,0.29304 0.0877,0.0444 0.22529,0.13622 0.30571,0.20394 0.0804,0.0677 0.26478,0.20143 0.4097,0.29713 0.14491,0.0957 0.44134,0.30099 0.65872,0.4562 0.21738,0.15522 0.50639,0.33559 0.64225,0.40083 0.13587,0.0652 0.31211,0.17254 0.39165,0.23844 0.0796,0.0659 0.26773,0.19393 0.4182,0.28451 0.52865,0.31823 0.8567,0.5623 1.2019,0.89417 0.19167,0.18427 0.45628,0.40477 0.58804,0.49 0.13176,0.0852 0.33807,0.2468 0.45847,0.35904 0.12039,0.11224 0.31523,0.27608 0.43298,0.3641 0.11775,0.088 0.41631,0.3576 0.66347,0.59906 0.24716,0.24147 0.46526,0.43903 0.48466,0.43903 0.0652,0 0.27245,0.20758 0.40849,0.40925 0.0742,0.110037 0.28422,0.364297 0.46664,0.565017 0.52964,0.58277 1.04273,1.18471 1.189,1.3949 0.13423,0.19288 0.36851,0.4899 0.69502,0.88114 0.0935,0.11205 0.2104,0.2899 0.25978,0.39524 0.0494,0.10534 0.16202,0.2896 0.25031,0.40947 0.0883,0.11988 0.19813,0.30298 0.24409,0.4069 0.046,0.10392 0.14482,0.27916 0.21971,0.38944 0.0749,0.11027 0.19071,0.34216 0.25739,0.51531 0.16607,0.43124 0.36691,0.86739 0.52577,1.14178 0.0915,0.15807 0.14816,0.30906 0.18169,0.48428 0.0268,0.14003 0.10678,0.39139 0.17775,0.55858 0.15064,0.35487 0.21292,0.56425 0.39411,1.325 0.22848,0.95932 0.27057,1.1746 0.3026,1.548 0.0171,0.19926 0.0457,0.49569 0.0635,0.65872 0.0431,0.39383 0.0572,1.69463 0.0229,2.10792 -0.0318,0.38279 -0.0645,0.48759 -0.17471,0.5598 -0.073,0.0478 -1.63262,0.0539 -17.52696,0.0677 -9.59575,0.008 -17.57281,0.0205 -17.72678,0.0269 -0.15398,0.006 -0.36166,0 -0.46151,-0.0146 z m 55.46495,0.002 c -5.52328,-0.0129 -7.1134,-0.0256 -7.1683,-0.0571 -0.0388,-0.0222 -0.11075,-0.0882 -0.15988,-0.14657 l -0.0893,-0.10615 0.0158,-0.61096 c 0.0145,-0.56058 0.024,-0.63811 0.11554,-0.94032 0.18263,-0.60294 0.34629,-1.01879 0.48608,-1.2351 0.1827,-0.28274 0.20361,-0.32536 0.27853,-0.56796 0.0435,-0.14085 0.11593,-0.26915 0.22797,-0.40385 0.0903,-0.10859 0.24475,-0.30859 0.3432,-0.44445 0.18403,-0.25397 0.56462,-0.63348 1.1942,-1.1908 0.19758,-0.17489 0.4778,-0.42479 0.62271,-0.55531 0.14493,-0.13053 0.34711,-0.29444 0.44931,-0.36424 0.1022,-0.0698 0.25738,-0.21069 0.34486,-0.31308 0.0875,-0.10239 0.23904,-0.23131 0.33682,-0.28649 0.0978,-0.0552 0.26125,-0.17741 0.36327,-0.27162 0.10202,-0.0942 0.27281,-0.227 0.37954,-0.29509 0.10673,-0.0681 0.26235,-0.1867 0.34583,-0.26358 0.0835,-0.0769 0.31482,-0.2916 0.51408,-0.47715 0.19926,-0.18555 0.44103,-0.39618 0.53725,-0.46807 0.0987,-0.0738 0.2259,-0.21212 0.29189,-0.31756 0.0643,-0.10276 0.20487,-0.32198 0.31235,-0.48716 0.36489,-0.5608 0.4417,-0.57054 0.60223,-0.0764 0.0974,0.29975 0.10747,0.31548 0.30513,0.47508 0.11243,0.0908 0.25129,0.23177 0.30857,0.31329 0.22028,0.3135 0.88355,0.96986 1.17946,1.16718 0.11982,0.0799 0.34383,0.25208 0.4978,0.38264 0.16686,0.14146 0.37414,0.2804 0.51308,0.34387 0.17131,0.0783 0.27175,0.15148 0.37877,0.27611 0.1064,0.1239 0.1934,0.18753 0.32287,0.23616 0.22437,0.0843 0.28906,0.13021 0.42472,0.30165 0.0603,0.0762 0.18175,0.19102 0.26992,0.25521 0.20118,0.14646 1.38993,1.3969 1.5607,1.64169 0.0699,0.10016 0.18421,0.25442 0.25408,0.34281 0.11994,0.15175 0.65278,1.16605 0.70577,1.34349 0.0135,0.0453 0.0907,0.22746 0.17154,0.40482 0.17983,0.39459 0.22636,0.66632 0.2558,1.49359 0.0174,0.4889 0.0124,0.61863 -0.0275,0.71417 -0.0507,0.12138 -0.20282,0.22614 -0.30759,0.21185 -0.0326,-0.004 -3.25326,-0.0156 -7.15702,-0.0247 z m -82.79533,-0.0715 c -0.25486,-0.0968 -0.29671,-0.19787 -0.24019,-0.5799 0.0234,-0.15806 0.0626,-0.44302 0.0872,-0.63322 0.11693,-0.90589 0.21332,-1.25006 0.44475,-1.58805 0.11152,-0.16287 0.19514,-0.33782 0.26041,-0.54477 0.10902,-0.34571 0.26442,-0.58748 0.7007,-1.09017 0.43739,-0.50397 1.19827,-1.25561 1.5899,-1.57059 0.51778,-0.41644 0.76846,-0.63501 0.94479,-0.8238 0.0851,-0.0911 0.26974,-0.22991 0.41171,-0.3095 0.14156,-0.0794 0.33148,-0.21447 0.42206,-0.30025 0.0906,-0.0858 0.25361,-0.21163 0.3623,-0.27967 0.10869,-0.068 0.31351,-0.23624 0.45516,-0.37379 0.14165,-0.13755 0.40944,-0.39831 0.59509,-0.57946 0.18565,-0.18115 0.39778,-0.38303 0.4714,-0.44862 0.0759,-0.0677 0.19251,-0.23158 0.26938,-0.37877 0.16749,-0.32074 0.37722,-0.5724 0.47702,-0.5724 0.097,0 0.36672,0.28204 0.5599,0.5855 0.0839,0.13181 0.23043,0.33284 0.32559,0.44673 0.0952,0.11388 0.25049,0.32031 0.34519,0.45872 0.13789,0.20155 0.22727,0.28968 0.44882,0.44256 0.34995,0.24146 0.66001,0.47186 0.93616,0.69564 0.11904,0.0965 0.31607,0.22557 0.43784,0.28689 0.12177,0.0613 0.30815,0.18766 0.41418,0.28076 0.10603,0.0931 0.27888,0.21291 0.38412,0.26625 0.18151,0.092 0.3948,0.28261 0.57042,0.50978 0.0437,0.0565 0.16901,0.15053 0.27843,0.20885 0.10942,0.0583 0.24086,0.15285 0.29211,0.21007 0.0512,0.0572 0.19575,0.2152 0.32113,0.35106 0.12538,0.13587 0.29042,0.35402 0.36678,0.48479 0.0764,0.13077 0.19191,0.27826 0.25681,0.32776 0.11156,0.0851 0.39359,0.42397 0.62908,0.75589 0.0586,0.0826 0.13793,0.25627 0.1763,0.38598 0.0384,0.12971 0.13539,0.36169 0.21557,0.5155 0.0802,0.15381 0.1761,0.38354 0.21314,0.51051 0.037,0.12697 0.11829,0.39042 0.18055,0.58544 0.0846,0.2651 0.12148,0.4559 0.146,0.75609 0.05,0.61154 6.5e-4,0.81463 -0.2418,0.99421 l -0.093,0.0689 -7.12003,0.006 c -7.06749,0.006 -7.12132,0.005 -7.29492,-0.0607 z"
       id="path422" /></g></svg>
