<svg id="BAFRAKEBAB" width="500" height="236.00786" viewBox="0 0 500 236.00786" version="1.1" xml:space="preserve" xmlns:xlink="http://www.w3.org/1999/xlink" xmlns="http://www.w3.org/2000/svg" xmlns:svg="http://www.w3.org/2000/svg">
	<path id="BAFRAKEBAB" style="fill:#000000;stroke:#000000;stroke-width:0" d="m 105.12954,235.5553 c -0.56135,-0.56139 -0.53476,-0.34145 -0.49901,-4.12891 0.0146,-1.59052 0.039,-23.19529 0.0585,-48.01058 l 0.0293,-45.11869 0.45072,-0.38779 0.45071,-0.38779 35.61701,0.002 c 24.25077,0 35.80973,0.0546 36.22098,0.16877 1.1265,0.31267 1.1004,0.12682 1.09655,7.80804 -0.005,8.68464 0.0146,8.03188 -0.24633,8.65517 -0.28731,0.6872 -0.55784,0.81329 -2.01666,0.93914 -0.66275,0.0571 -12.04938,0.11121 -25.30365,0.11999 -25.91202,0.0195 -24.62597,-0.0244 -25.18639,0.83026 -0.56437,0.86139 -0.60729,1.5975 -0.61861,10.61198 -0.01,8.49719 0.003,8.93902 0.30194,9.60709 0.17219,0.38536 0.46242,0.83275 0.64485,0.9946 0.31804,0.28194 1.16288,0.29365 20.38672,0.2795 11.03036,-0.01 20.57116,-0.0595 21.20177,-0.11365 0.63066,-0.0546 1.78246,-0.0439 2.55961,0.0195 1.25526,0.10438 1.46345,0.16828 1.86568,0.57046 0.37462,0.37462 0.45169,0.58671 0.44584,1.22825 -0.003,0.42632 -0.0659,1.08049 -0.13805,1.45326 -0.0722,0.37267 -0.0756,3.58767 -0.01,7.14421 0.1317,6.85349 0.10828,7.14148 -0.60496,7.4424 -0.15804,0.0668 -7.66131,0.14828 -16.67423,0.18096 -25.74958,0.0941 -28.54362,0.12927 -28.97229,0.36194 -0.20633,0.11219 -0.51203,0.5052 -0.67929,0.87363 -0.28682,0.63143 -0.30438,1.18717 -0.30779,9.69894 -0.003,6.03362 0.0556,9.30554 0.17511,9.86235 0.11658,0.5431 0.35755,1.02839 0.69232,1.3937 l 0.51359,0.56041 25.53515,-0.0146 c 19.86031,-0.0146 25.62096,0.0293 25.92129,0.18048 0.21219,0.10829 0.53354,0.39511 0.71368,0.63798 0.31852,0.42925 0.32779,0.65163 0.33657,8.09661 0.01,6.9651 -0.0146,7.69643 -0.26682,8.10954 -0.35949,0.59085 -0.91801,0.71641 -2.1224,0.47705 -0.73583,-0.14633 -1.39258,-0.15219 -2.64107,-0.0244 -2.05514,0.21073 -59.03391,0.23024 -63.07936,0.0195 -1.50218,-0.0776 -3.05651,-0.082 -3.45416,-0.01 -0.39754,0.0722 -0.99074,0.18243 -1.31799,0.24487 -0.52535,0.10097 -0.65232,0.0571 -1.08445,-0.37511 z m 291.87692,0.36487 c -0.0488,-0.0488 -4.05809,-0.11024 -8.91405,-0.14146 -9.77581,-0.0624 -9.32266,-0.0146 -10.30862,-1.13547 -0.79236,-0.90245 -1.30102,-2.04563 -2.86082,-6.43009 -1.05405,-2.96262 -2.10372,-5.49945 -3.12431,-7.55093 -0.87821,-1.76515 -1.18376,-2.57356 -1.41961,-3.75644 -0.3512,-1.76134 -0.62627,-2.20484 -1.70564,-2.75018 l -0.79494,-0.40145 -18.87732,-0.0146 c -10.38257,-0.01 -19.43383,-0.0707 -20.1139,-0.13854 -1.72384,-0.17267 -2.69639,0.0815 -3.5866,0.93699 -0.5209,0.50057 -0.75699,0.89782 -0.96654,1.62628 -0.15268,0.53018 -0.69944,1.80817 -1.21542,2.83999 -0.51603,1.03181 -1.22161,2.69463 -1.56799,3.69512 -0.34633,1.00055 -0.92684,2.55298 -1.2899,3.44992 -0.36291,0.89694 -0.66012,1.72549 -0.66012,1.84124 0,0.11561 -0.35218,0.97245 -0.78304,1.90369 -0.43072,0.93128 -0.9804,2.25396 -1.22161,2.9393 -0.53569,1.52228 -0.95655,2.16957 -1.69101,2.60107 -0.54949,0.32291 -0.7647,0.32974 -9.85825,0.32486 l -9.29652,-0.005 -0.30292,-0.37413 c -0.53266,-0.65783 -0.39022,-1.27244 0.65842,-2.83789 0.67787,-1.01201 1.01464,-1.69589 1.1423,-2.31952 0.37413,-1.82818 0.6389,-2.54068 1.33985,-3.60791 0.47705,-0.72666 0.7546,-1.34775 0.82065,-1.83788 0.16682,-1.23834 0.38388,-1.73193 1.04142,-2.37025 0.67202,-0.65222 0.78953,-0.88421 1.20395,-2.37688 0.14585,-0.52486 0.52096,-1.46268 0.83387,-2.08397 0.31267,-0.62134 0.73744,-1.71111 0.94348,-2.42176 0.43608,-1.5037 1.22581,-3.30909 1.75452,-4.01014 0.5169,-0.68553 0.81323,-1.46736 0.94698,-2.49878 0.0776,-0.59685 0.31804,-1.22249 0.74193,-1.92788 0.34486,-0.57436 0.78143,-1.54413 0.96976,-2.15499 0.18829,-0.6109 0.50862,-1.37389 0.71163,-1.69549 0.73207,-1.15961 1.58497,-3.00545 2.04393,-4.42344 0.25755,-0.79524 0.75626,-1.97246 1.10854,-2.61595 0.37559,-0.68656 0.82797,-1.88153 1.09425,-2.89184 0.53656,-2.03616 0.79372,-2.68131 1.4475,-3.63151 0.2678,-0.38974 0.805,-1.53029 1.19327,-2.53498 0.38828,-1.00464 1.00909,-2.42937 1.37946,-3.16602 0.37023,-0.73666 0.88597,-1.91583 1.14571,-2.62044 0.25999,-0.70456 0.64813,-1.58267 0.8629,-1.95129 0.4234,-0.72704 1.81344,-4.03701 2.4162,-5.75446 0.20633,-0.58729 0.70285,-1.81632 1.10381,-2.73121 0.40096,-0.91484 0.99206,-2.38634 1.31351,-3.26997 0.32145,-0.88362 0.94967,-2.20274 1.39604,-2.93135 0.56091,-0.91552 0.92567,-1.75925 1.18083,-2.73121 0.47559,-1.81203 0.75334,-2.57531 1.28,-3.51869 0.23512,-0.42145 0.73822,-1.52804 1.11786,-2.45961 0.3795,-0.93158 0.9943,-2.3806 1.3658,-3.22003 0.37169,-0.83943 0.92016,-2.2841 1.21937,-3.21036 0.3634,-1.12518 0.78616,-2.03875 1.2738,-2.75243 0.40145,-0.58754 0.88494,-1.52862 1.0744,-2.09128 0.18975,-0.56271 0.54778,-1.35415 0.79607,-1.75876 0.60758,-0.99002 1.07732,-2.07666 1.42838,-3.30432 0.37999,-1.32921 0.8406,-1.95041 1.74574,-2.35498 0.70948,-0.31706 1.05191,-0.3312 8.93131,-0.36193 7.45054,-0.0293 8.25231,-0.005 8.84151,0.24535 0.90997,0.38974 1.4617,1.11318 1.68779,2.21265 0.28633,1.39185 0.66129,2.26747 1.48926,3.47669 0.45657,0.66671 0.88109,1.5436 1.0863,2.24372 0.20145,0.68802 0.6449,1.60945 1.10425,2.29576 0.53407,0.79792 0.87518,1.54614 1.12215,2.46137 0.36535,1.35458 1.04742,3.06018 1.89768,4.7464 0.26731,0.53018 0.63339,1.45609 0.81339,2.05763 0.17999,0.60154 0.63192,1.56116 1.00415,2.1325 0.47413,0.72744 0.76631,1.42322 0.97538,2.32104 0.16438,0.70524 0.58456,1.85105 0.93406,2.54619 0.34974,0.69519 1.00484,2.23113 1.45619,3.41328 0.4512,1.18205 1.04093,2.58302 1.31009,3.1132 0.26926,0.53017 0.8007,1.7592 1.18113,2.73116 0.87694,2.2405 2.0165,4.95566 2.73087,6.50668 0.30535,0.6627 0.81621,1.92787 1.13547,2.8115 0.31901,0.88362 0.83616,2.0765 1.14863,2.65087 0.31267,0.57437 0.88524,1.83139 1.27278,2.7934 0.38731,0.96201 0.95933,2.09617 1.27073,2.52039 0.60618,0.82578 0.90709,1.60106 1.20064,3.09349 0.10146,0.51515 0.47071,1.47746 0.82094,2.13841 0.35024,0.6609 1.04089,2.26181 1.53497,3.55752 0.49408,1.2957 1.13542,2.7915 1.42521,3.32397 0.28975,0.53251 0.66988,1.4097 0.84456,1.94929 0.17462,0.53963 0.61319,1.55179 0.9744,2.24923 0.36096,0.69743 0.84289,1.91875 1.07044,2.71399 0.22731,0.79529 0.65695,1.88202 0.95431,2.41493 0.645,1.1561 3.16383,7.21182 3.7002,8.896 0.29364,0.92142 0.54183,1.3558 1.10244,1.92787 0.78514,0.80124 1.06128,1.35897 1.06679,2.1547 0.005,0.58144 0.39218,1.5057 1.01693,2.42254 0.23463,0.34389 0.50452,0.92245 0.60003,1.28527 0.34925,1.32677 1.29922,3.90165 1.84393,4.99741 0.54149,1.08923 0.67378,1.73823 0.42925,2.1047 -0.26633,0.39852 -1.27151,0.70471 -1.51506,0.46096 z m -38.06462,-39.98879 c 0.66422,-0.3434 1.58345,-1.43468 1.76622,-2.0967 0.20341,-0.73739 -0.0195,-1.52453 -0.91104,-3.19427 -0.36144,-0.67768 -0.83996,-1.83251 -1.06381,-2.56639 -0.22389,-0.73382 -0.85177,-2.23142 -1.39541,-3.32801 -0.54368,-1.0966 -1.12947,-2.42328 -1.3018,-2.94813 -0.17219,-0.52491 -0.6269,-1.65218 -1.01021,-2.50503 -0.38339,-0.85284 -0.84865,-2.01285 -1.0341,-2.5778 -0.18536,-0.56495 -0.579,-1.49931 -0.8746,-2.07636 -0.2956,-0.57705 -0.69227,-1.5354 -0.88158,-2.12958 -0.18926,-0.59422 -0.58861,-1.53408 -0.88738,-2.08855 -0.29901,-0.55451 -0.67124,-1.55038 -0.82772,-2.21313 -0.55803,-2.36357 -1.67038,-4.62265 -2.53605,-5.15049 -0.82031,-0.50022 -1.49238,-0.4112 -2.19343,0.29072 -0.62387,0.62452 -0.97211,1.52682 -1.53467,3.97634 -0.14731,0.6409 -0.59671,1.751 -1.04513,2.58107 -0.43267,0.80104 -0.88782,1.88919 -1.01123,2.41805 -0.12341,0.52886 -0.51817,1.50009 -0.87733,2.15831 -0.63217,1.15864 -1.33814,2.90359 -2.59658,6.41814 -0.33218,0.92782 -1.01162,2.49844 -1.50975,3.4903 -0.49813,0.99182 -1.11849,2.53742 -1.37853,3.4346 -0.32974,1.13679 -0.68797,1.9548 -1.18259,2.69863 -1.03767,1.56052 -1.23785,2.01041 -1.23785,2.78223 0,1.50014 1.38102,2.57059 3.35431,2.59995 0.5851,0.01 5.14853,-0.0439 10.14102,-0.1117 7.74004,-0.10878 9.19549,-0.0932 9.88044,0.10633 1.05045,0.30585 1.6034,0.31414 2.1488,0.0341 z M 0.86485056,235.58486 c -0.70949,-0.29852 -0.87114,-0.74558 -0.74353,-2.05743 0.16828,-1.7292 0.11414,-90.82516 -0.0561,-92.87001 -0.1756,-2.10509 -0.0244,-2.66726 0.79665,-2.9533 0.36633004,-0.1278 3.21758004,-0.18243 9.50407044,-0.18243 9.69114,0 9.65616,-0.003 10.11332,0.84514 0.14828,0.27511 0.1917,4.57099 0.18438,18.27319 -0.005,9.85235 -0.0624,18.60879 -0.12634,19.45871 -0.0917,1.21395 -0.061,1.73637 0.14244,2.43615 0.72314,2.48761 2.80243,2.21996 4.7565,-0.61222 0.48583,-0.70441 1.84417,-2.25669 3.01817,-3.44957 1.17396,-1.19293 2.47532,-2.62736 2.89184,-3.18768 0.41657,-0.56032 1.12986,-1.28361 1.58526,-1.60726 0.4551,-0.3234 1.34799,-1.23883 1.98358,-2.03372 0.63558,-0.7949 2.07143,-2.38508 3.19075,-3.53382 1.11928,-1.14869 2.63819,-2.8115 3.37533,-3.69512 1.6494,-1.9771 4.68621,-5.23692 10.55155,-11.32639 3.63151,-3.7703 5.024,-5.26619 5.45871,-5.86402 1.24634,-1.71413 4.61382,-5.17751 5.33087,-5.48257 0.41705,-0.17755 2.63058,-0.22243 11.62667,-0.23657 10.93172,-0.0195 11.11688,-0.01 11.43492,0.30584 0.44584,0.44583 0.27023,1.02971 -0.47852,1.59208 -0.53437,0.40145 -1.48511,1.2821 -3.9815,3.68805 -0.44291,0.42682 -0.98494,0.99699 -1.20498,1.26742 -0.21999,0.27023 -0.68285,0.70358 -1.0285,0.96264 -0.34584,0.25902 -0.9384,0.9546 -1.31721,1.54565 -0.43023,0.671 -1.01899,1.31854 -1.56794,1.72398 -0.4834,0.35706 -1.20386,1.07157 -1.60087,1.5875 -0.39705,0.51598 -1.83032,2.01056 -3.18514,3.32134 -1.35483,1.31078 -2.71663,2.76379 -3.02618,3.2289 -0.67729,1.01757 -4.62411,5.1256 -7.16879,7.46156 -1.01074,0.92782 -1.96217,1.87715 -2.11431,2.10958 -0.15219,0.23267 -2.554,2.75213 -5.3374,5.59919 -2.78336,2.84707 -5.20092,5.44023 -5.37228,5.76266 -0.43218,0.81294 -0.40877,2.59214 0.0488,3.62371 0.1834,0.41511 0.76333,1.20269 1.28829,1.75037 0.52495,0.54769 1.4016,1.75486 1.94802,2.68268 0.54647,0.92782 1.40258,2.12762 1.90251,2.66629 1.31912,1.42121 2.76887,3.1987 3.2908,4.03477 0.24975,0.39998 0.84182,1.19737 1.316,1.77227 0.47413,0.57486 1.05113,1.44429 1.28205,1.93197 0.23462,0.49584 0.87616,1.35585 1.45482,1.95066 0.5692,0.5851 1.61037,1.93027 2.31371,2.9893 0.70329,1.05903 1.50721,2.19665 1.78647,2.52805 0.2795,0.3312 0.79836,1.01825 1.15361,1.52628 0.35511,0.50798 0.99138,1.30239 1.41366,1.76525 0.46681,0.51159 0.87391,1.16117 1.03844,1.65657 0.17414,0.52432 0.62769,1.22673 1.27191,1.96987 0.55066,0.63525 1.24322,1.51648 1.53911,1.95827 0.2956,0.44193 0.85294,1.15761 1.238,1.59067 0.38486,0.43315 1.16498,1.49462 1.73315,2.35903 0.56812,0.86445 1.50253,2.04358 2.07641,2.62029 0.57393,0.57671 1.23029,1.41726 1.45862,1.86788 0.22829,0.45071 0.8068,1.24526 1.28537,1.76583 0.48632,0.52891 1.11703,1.46389 1.42965,2.11909 0.36535,0.76558 0.97128,1.62359 1.74603,2.47229 0.65261,0.71485 1.59526,1.92027 2.0947,2.67873 0.49949,0.75846 1.41794,1.9288 2.04099,2.60078 1.5179,1.6371 1.73667,2.21859 1.08128,2.87393 l -0.36145,0.36145 -10.84441,-0.0244 c -10.69666,-0.0244 -11.805,-0.0756 -12.72112,-0.56583 -0.17023,-0.0912 -0.55802,-0.68524 -0.86147,-1.32019 -0.30341,-0.63495 -0.90319,-1.57121 -1.33278,-2.0806 -0.42974,-0.5094 -0.91797,-1.1962 -1.08528,-1.52624 -0.80938,-1.59701 -1.5115,-2.5617 -5.76685,-7.9231 -0.3912,-0.49316 -1.01298,-1.39688 -1.38126,-2.00822 -0.36828,-0.61134 -1.11786,-1.58145 -1.66574,-2.15582 -0.54793,-0.57437 -1.274,-1.55033 -1.6136,-2.16889 -0.3395,-0.61851 -0.96074,-1.4937 -1.38038,-1.94485 -0.4195,-0.4512 -1.0265,-1.23215 -1.34853,-1.73554 -0.32194,-0.50345 -1.36863,-1.95232 -2.32582,-3.21973 -0.95723,-1.26747 -2.12152,-2.94452 -2.58736,-3.72683 -1.47541,-2.47766 -1.90124,-3.09047 -2.92569,-4.21033 -0.54988,-0.60115 -1.55448,-2.02714 -2.2324,-3.16895 -0.67798,-1.14181 -1.47321,-2.30596 -1.76725,-2.58702 -0.71036,-0.679 -2.05621,-1.33658 -2.73555,-1.33658 -0.80412,0 -1.92032,0.78324 -2.672,1.87485 -0.35462,0.51515 -2.35556,2.66931 -4.44636,4.78694 -2.09075,2.11767 -3.97038,4.14193 -4.17686,4.49846 -0.88977,1.53589 -0.87607,1.27224 -0.82729,15.91065 0.0342,10.63081 0.002,13.58425 -0.15804,13.91443 -0.32292,0.66622 -1.00762,0.8668 -2.1388,0.62676 -0.74011,-0.15707 -1.34814,-0.16097 -2.7674,-0.0195 -2.49854,0.25121 -14.1032104,0.18633 -14.74206044,-0.082 z m 204.42757944,0.0859 c -0.35364,-0.0722 -1.27229,-0.0888 -2.04187,-0.039 l -1.39926,0.0951 -0.59042,-0.59042 -0.59042,-0.59036 0.11854,-1.56092 c 0.0654,-0.85845 0.11706,-1.88622 0.1156,-2.28381 -0.002,-0.39755 -0.005,-21.32288 -0.01,-46.50059 -0.005,-34.1257 0.039,-45.83393 0.1756,-45.99895 0.58685,-0.70709 -0.37169,-0.68226 26.26591,-0.68095 28.18866,0.002 25.29311,-0.11316 29.44861,1.16493 1.01616,0.31267 2.55839,0.71837 3.42718,0.90182 1.15084,0.24292 2.06153,0.57457 3.35466,1.22132 0.9762,0.48827 1.9847,0.88782 2.24113,0.88782 0.66861,0 1.40419,0.3556 2.14274,1.03606 0.35365,0.32584 0.94338,0.80309 1.31098,1.06098 0.36779,0.25804 0.83109,0.74109 1.03006,1.07367 0.52066,0.87025 0.92664,1.28897 1.83958,1.89729 0.93231,0.62124 1.28732,1.06162 2.00949,2.49273 0.2873,0.56895 0.88796,1.57667 1.33516,2.23938 1.13752,1.68564 1.62535,2.95179 2.20231,5.71651 0.41462,1.9869 0.51447,2.89125 0.58344,5.28857 0.0927,3.21041 -0.13609,4.84767 -1.06474,7.63127 -0.25072,0.75109 -0.49944,1.71837 -0.5531,2.14957 -0.11805,0.94733 -0.53057,1.62511 -1.38131,2.26855 -0.39755,0.30096 -0.79202,0.81407 -1.04899,1.36556 -0.70665,1.51657 -0.81757,1.66257 -1.99816,2.63019 -0.633,0.51881 -1.44502,1.33282 -1.80452,1.80895 -0.48905,0.64778 -0.90123,0.98411 -1.6372,1.3359 -1.60531,0.76724 -2.02792,1.31873 -2.02792,2.64624 0,0.9067 0.52539,1.68028 1.4493,2.13377 2.08944,1.02562 4.16301,1.96763 4.70294,2.1365 0.5731,0.17951 2.06007,1.18249 2.17333,1.46634 0.0293,0.0712 0.51613,0.49446 1.08382,0.94059 0.56768,0.44633 1.22341,1.11742 1.45716,1.4917 0.23365,0.37413 0.99903,1.28146 1.70057,2.01583 1.35736,1.42092 1.4757,1.63086 3.09358,5.48949 1.35161,3.22358 1.36429,3.30953 1.36429,9.24106 0,5.76192 -0.0917,6.48638 -1.03225,8.17183 -0.30243,0.54212 -0.70763,1.56408 -0.90011,2.27098 -0.45071,1.65682 -0.66251,2.05212 -1.67403,3.12812 -0.4595,0.48857 -1.23249,1.43053 -1.71818,2.09324 -0.48584,0.66271 -1.17239,1.45799 -1.52589,1.76725 -2.08295,1.82227 -4.25413,3.45996 -5.26487,3.97126 -0.4473,0.22633 -1.42741,0.78372 -2.17845,1.23907 -1.74408,1.05738 -1.97349,1.14425 -4.08248,1.54619 -0.96411,0.18389 -2.30874,0.50959 -2.98803,0.72421 -1.47999,0.4673 -4.60753,1.12908 -6.54677,1.38488 -1.66491,0.2195 -49.52462,0.3312 -50.56565,0.11804 z m 45.86793,-17.39922 c 1.61964,-0.0722 3.40387,-0.46535 5.2256,-1.15098 2.6759,-1.00723 4.56851,-2.50766 6.15523,-4.87986 1.28278,-1.91773 1.55589,-2.90428 1.53813,-5.55554 -0.0244,-3.60143 -0.73177,-5.40287 -3.03559,-7.72785 -1.75593,-1.77203 -3.16227,-2.63765 -5.48125,-3.37353 -3.26368,-1.03576 -2.6179,-0.99947 -18.45972,-1.03654 -7.95257,-0.0195 -14.61939,-0.0244 -14.81513,-0.0146 -0.59701,0.0342 -1.43346,0.90529 -1.63326,1.69867 -0.23365,0.92748 -0.25023,19.83079 -0.0195,20.66583 0.21414,0.77061 0.7687,1.25683 1.59448,1.3978 0.70002,0.11951 26.18527,0.0971 28.92995,-0.0244 z m -7.95262,-40.18171 c 2.20909,-0.12634 4.1972,-0.27609 4.41812,-0.3317 1.60262,-0.40535 3.68323,-1.20537 4.94327,-1.90071 3.1852,-1.75773 3.06754,-1.66276 4.00107,-3.23167 1.09732,-1.84423 1.43716,-2.76248 1.66998,-4.51207 0.36633,-2.75375 -0.10829,-5.22722 -1.33014,-6.92856 -0.30389,-0.42291 -0.73987,-1.09738 -0.96889,-1.49824 -0.22926,-0.40096 -0.5851,-0.80899 -0.79119,-0.90694 -0.20633,-0.098 -0.78875,-0.37072 -1.29473,-0.60651 -0.50593,-0.2356 -1.06752,-0.63573 -1.24795,-0.88909 -0.53735,-0.75465 -1.24727,-1.06484 -3.61581,-1.58004 -1.89681,-0.41266 -2.82823,-0.51471 -5.94436,-0.65187 -5.21809,-0.22975 -20.9404,-0.15951 -21.38492,0.0951 -0.41462,0.23755 -0.85309,0.88655 -1.04001,1.53828 -0.21755,0.75889 -0.2039,19.54607 0.0146,20.12297 0.21463,0.56613 0.75695,1.1823 1.20322,1.36693 0.56003,0.23169 16.97876,0.16584 21.36756,-0.0859 z m 174.78293,57.60669 c -0.1839,-0.0785 -0.525,-0.36926 -0.75797,-0.64622 l -0.4234,-0.50335 -0.01,-47.95667 c -0.005,-33.0096 0.0439,-48.05429 0.16048,-48.26989 0.45754,-0.8547 -0.95714,-0.81431 26.46882,-0.75519 25.03352,0.0542 25.36624,0.059 27.42943,0.3995 2.2961,0.37901 4.98312,1.23215 7.2083,2.28801 0.78349,0.37169 2.0271,0.87962 2.76351,1.12854 1.64632,0.55651 4.51226,2.23621 5.46603,3.20358 0.38974,0.39511 0.70831,0.77592 0.70831,0.84617 0,0.0702 0.3795,0.3712 0.84343,0.6687 1.07435,0.68919 1.28849,0.93143 2.40537,2.72126 1.38136,2.21372 1.68974,2.84916 1.97076,4.06121 0.14097,0.6089 0.53958,1.72154 0.88547,2.47264 0.91426,1.98528 1.00816,2.63145 1.02728,7.06894 0.0146,3.28261 -0.0293,4.09623 -0.25999,4.9001 -0.47461,1.65194 -0.9626,3.65011 -1.16469,4.77036 -0.16096,0.89225 -0.41022,1.42082 -1.46467,3.10626 -1.5456,2.47035 -2.08407,3.11881 -3.25646,3.92161 -0.49837,0.34145 -1.15917,0.89026 -1.46843,1.22005 -0.30926,0.32974 -1.16093,0.98952 -1.89256,1.46614 -1.50858,0.98274 -1.96178,1.58325 -1.96266,2.60087 -0.002,1.41107 0.48633,1.79262 4.20886,3.29265 2.24431,0.90441 2.61512,1.11157 4.15292,2.32045 0.48144,0.37852 1.20083,0.92075 1.59847,1.20493 0.49457,0.35365 0.8608,0.80094 1.15937,1.41638 0.27999,0.5774 0.74573,1.16391 1.3001,1.6375 0.7347,0.62773 1.07005,1.12918 2.24532,3.35782 2.43118,4.60992 2.77677,6.27605 2.64298,12.74136 -0.0839,4.06472 -0.28146,5.22039 -1.23859,7.24572 -0.26341,0.55759 -0.60003,1.49575 -0.74797,2.0848 -0.17219,0.68509 -0.46096,1.31 -0.80119,1.73427 -0.29267,0.36487 -0.87811,1.12767 -1.30097,1.69535 -0.70973,0.95275 -1.55419,1.93251 -3.41973,3.96775 -0.66729,0.72797 -2.83745,2.71433 -3.26826,2.99145 -0.10243,0.0658 -0.80041,0.30632 -1.5515,0.53461 -0.75104,0.22828 -2.05241,0.80065 -2.89184,1.272 -1.95763,1.09908 -5.22502,2.27225 -7.20982,2.58868 -0.85031,0.1356 -2.30513,0.41754 -3.23294,0.62671 -3.00603,0.67753 -7.29884,0.76762 -31.32835,0.65729 -11.88466,-0.0546 -21.8254,-0.11317 -22.09051,-0.12975 -0.26487,-0.0146 -0.95186,0.0195 -1.52623,0.08 -0.57432,0.061 -1.19479,0.0439 -1.37868,-0.0341 z m 50.05811,-17.48884 c 0.39754,-0.10048 1.14849,-0.32974 1.66852,-0.50949 0.52003,-0.17999 1.5974,-0.43998 2.3941,-0.57822 0.7967,-0.13804 1.70867,-0.38535 2.0266,-0.54964 1.13313,-0.58475 3.29183,-2.34322 3.81425,-3.10705 0.8205,-1.19971 2.03245,-5.14004 2.11211,-6.8668 0.0595,-1.29503 0.0195,-1.49702 -0.67319,-3.5145 -1.19064,-3.46006 -1.1124,-3.34777 -3.96741,-5.69393 -1.42331,-1.16961 -1.85266,-1.36799 -3.37289,-1.55862 -0.71373,-0.0893 -1.96042,-0.34047 -2.77038,-0.55764 -2.45996,-0.65973 -4.23823,-0.73392 -18.02048,-0.75187 -14.29047,-0.0195 -13.57586,-0.0654 -14.36417,0.93694 -0.61178,0.77777 -0.67632,1.43068 -0.50169,5.07551 0.21121,4.41124 0.20438,8.02286 -0.0195,11.53487 -0.22487,3.49743 -0.20536,4.05111 0.17219,4.7905 0.38047,0.74533 0.80636,1.13244 1.51355,1.37555 0.77187,0.26536 28.93302,0.24146 29.9902,-0.0244 z m -8.75586,-40.04849 c 0.7069,-0.0907 2.23026,-0.26731 3.38524,-0.39169 2.42141,-0.26097 3.3064,-0.51959 4.64767,-1.35932 0.53017,-0.33169 1.50619,-0.85489 2.16889,-1.16224 2.29733,-1.06533 3.27129,-2.32069 4.46378,-5.7532 0.35755,-1.02966 0.41998,-1.48545 0.4273,-3.13285 0.01,-2.35352 -0.30048,-3.43304 -1.59004,-5.5133 -0.96615,-1.55862 -1.40955,-2.01953 -2.57824,-2.67999 -0.44193,-0.24975 -1.2098,-0.77109 -1.70671,-1.15864 -1.2401,-0.96723 -2.09529,-1.25302 -5.14414,-1.7193 -2.5822,-0.3951 -2.7916,-0.40193 -12.02646,-0.39559 -5.16917,0.003 -10.02908,-0.0488 -10.79973,-0.11073 -1.13986,-0.0951 -1.5356,-0.0658 -2.12129,0.15804 -0.86269,0.32975 -1.6271,1.15049 -1.84261,1.9791 -0.20048,0.77123 -0.18389,18.92814 0.0195,19.48188 0.2839,0.77977 1.34112,1.64715 2.33021,1.91212 0.60436,0.16194 18.9937,0.0244 20.36813,-0.15414 z M 7.0403206,107.28204 c -0.53018,-0.0639 -2.0529,-0.0722 -3.38387,-0.0195 -2.68322004,0.10878 -2.95272004,0.0439 -3.38299004,-0.78601 -0.22243,-0.43023 -0.24634,-0.82319 -0.15414,-2.52561 0.13853,-2.54605 0.1395,-88.313652 0.002,-90.054413 -0.23073,-2.904619 0.75036,-5.2941853 2.55063004,-6.2126374 0.64168,-0.3273044 0.65622,-0.3273044 45.4583804,-0.3043785 27.13822,0.014634 45.13011,0.082436 45.61145,0.1736518 0.43706,0.082924 1.38746,0.3273044 2.11163,0.5435399 0.72421,0.2160892 1.75052,0.4751035 2.28069,0.5751972 1.27185,0.2404785 2.415759,0.6130006 3.121679,1.0162045 2.92482,1.6705695 4.21599,2.4920495 4.83089,3.0736855 0.39755,0.376083 1.08176,0.951232 1.52033,1.278097 0.43852,0.326817 1.01689,0.898843 1.28527,1.271024 0.26828,0.372181 0.79358,1.059715 1.16727,1.527843 0.37364,0.468275 0.76095,1.153858 0.86065,1.523843 0.0995,0.37023 0.45998,1.544819 0.8009,2.610777 0.38388,1.201027 0.71377,2.66736 0.86708,3.855802 0.1361,1.054739 0.35316,2.594533 0.48194,3.42177 0.18633,1.192929 0.21901,2.721699 0.15853,7.390298 -0.0439,3.237436 -0.1478,6.462677 -0.2356,7.167235 -0.0873,0.704606 -0.15902,1.789052 -0.15902,2.409906 0,1.042691 -0.0654,1.258878 -0.85529,2.833695 -0.81226,1.619742 -1.30102,2.261473 -3.09378,4.062525 -0.36047,0.362425 -0.9583,0.85787 -1.32795,1.100982 -0.90025,0.592221 -1.30829,1.295657 -1.30902,2.256937 -0.002,1.271756 0.49403,1.936852 2.06612,2.776039 0.47412,0.253161 1.12322,0.787335 1.44292,1.187612 0.3195,0.399985 0.90781,1.093519 1.30712,1.540721 0.399,0.4473 0.90669,1.170101 1.12756,1.606425 0.22097,0.436569 0.77909,1.206198 1.24044,1.710763 0.84158,0.92055 0.90899,1.066642 1.0824,2.345373 0.0517,0.380473 0.28682,1.320485 0.52227,2.088602 0.4273,1.392921 0.42876,1.413018 0.49505,7.742529 0.078,7.43098 -0.0693,9.648065 -0.85079,12.837112 -0.29462,1.201416 -0.65149,2.798915 -0.79314,3.550008 -0.16536,0.877478 -0.53749,1.968558 -1.0406,3.052516 -0.43071,0.927769 -0.9603,2.087529 -1.17702,2.57712 -0.52808,1.193075 -2.81043,3.434696 -4.10409,4.030916 -0.50447,0.23267 -1.42326,0.86684 -2.04182,1.4097 -1.41482,1.24176 -2.40079,1.72184 -3.96829,1.93222 -0.68036,0.0912 -2.234739,0.43852 -3.454149,0.77124 l -2.21704,0.60519 -23.61674,0.039 c -12.98921,0.0244 -32.7622,0.058 -43.94001,0.0805 -11.17776,0.0244 -20.7570504,-0.0146 -21.2872204,-0.0761 z M 80.702091,84.977535 c 0.39755,-0.09365 1.31278,-0.454129 2.03373,-0.801042 1.76866,-0.851187 2.25708,-1.447115 2.98974,-3.647859 0.56319,-1.691837 0.5769,-1.793735 0.66456,-4.952247 0.0546,-1.965094 0.0244,-3.439964 -0.0717,-3.775463 -0.0888,-0.302915 -0.30048,-1.396922 -0.4712,-2.431272 -0.17024,-1.034399 -0.41511,-2.082699 -0.54344,-2.329568 -0.52471,-1.008692 -1.45087,-1.542135 -3.35509,-1.932315 -1.19839,-0.245844 -3.71717,-0.282428 -25.98802,-0.37901 -13.56357,-0.05902 -24.98635,-0.157555 -25.38399,-0.219016 -0.84441,-0.130239 -1.47663,0.211699 -2.31464,1.253025 l -0.49686,0.617391 -0.01,8.058175 c -0.005,6.131274 0.0439,8.235241 0.20048,8.798927 0.22292,0.792555 0.83119,1.521843 1.51151,1.811832 0.57373,0.244381 50.18425,0.175115 51.23274,-0.0717 z m -24.82172,-35.232487 22.49215,-0.02439 1.20493,-0.43169 c 0.66271,-0.237552 1.78237,-0.585343 2.4881,-0.773043 1.71959,-0.457544 2.25718,-0.885771 2.57858,-2.054652 0.13902,-0.504713 0.42731,-1.351411 0.64061,-1.881586 0.21365,-0.530175 0.46096,-1.289316 0.54974,-1.68691 0.21853,-0.97845 0.19902,-3.669614 -0.0512,-7.108846 l -0.2078,-2.851353 -0.6069,-0.881234 c -0.71895,-1.043862 -1.69603,-1.961437 -2.39669,-2.250694 -0.27755,-0.114629 -1.5913,-0.429739 -2.91974,-0.700899 l -2.41537,-0.492664 -22.96862,-0.01951 c -16.49009,-0.01463 -23.1952,0.03415 -23.77191,0.162433 -0.96401,0.217065 -1.79319,0.763385 -2.304,1.518527 l -0.37609,0.556076 -0.005,8.6143 -0.005,8.614349 0.47608,0.59222 c 0.80538,1.001571 1.88627,1.334095 3.90116,1.200149 0.66271,-0.0439 11.32639,-0.09024 23.69704,-0.102923 z m 201.492239,57.575912 -10.41589,-0.0834 -0.46876,-0.52466 c -0.25756,-0.28877 -0.47169,-0.68622 -0.47511,-0.88363 -0.003,-0.19755 -0.01,-12.100065 -0.0146,-26.450337 -0.01,-28.202711 0.0244,-27.084023 -0.85772,-28.416459 -0.64481,-0.974401 -1.20025,-1.216538 -2.4683,-1.076056 -1.81647,0.200968 -6.16069,0.18731 -6.71267,-0.01951 -0.92723,-0.350719 -1.3597,-1.154639 -2.15079,-3.998967 -0.19658,-0.7069 -0.63427,-1.981533 -0.97265,-2.832476 -0.33852,-0.850991 -0.9861,-2.62224 -1.4394,-3.93614 -0.45316,-1.3139 -1.14415,-2.984616 -1.53516,-3.712783 -0.80075,-1.491015 -0.88075,-2.078797 -0.34975,-2.567364 0.35462,-0.325841 0.49945,-0.332182 7.45157,-0.323402 8.06125,0.0098 7.79399,0.05171 8.57411,-1.336241 l 0.40144,-0.714752 0.003,-6.587013 c 0.003,-6.270098 0.0195,-6.649889 0.3551,-7.894962 0.19365,-0.719387 0.50155,-2.040702 0.68407,-2.936277 0.18244,-0.895526 0.50316,-2.015678 0.71251,-2.489123 0.45608,-1.0307889 2.75243,-4.5929922 2.96111,-4.5929922 0.081,0 0.7647,-0.5737338 1.51974,-1.2749749 1.2323,-1.1444922 1.49317,-1.3103394 2.54932,-1.6208152 0.6471,-0.1902365 1.75491,-0.6578769 2.46181,-1.0391792 1.60745,-0.8670883 2.00772,-0.9693283 4.98039,-1.27219458 C 268.69539,0.07194843 270.10489,0 276.60864,0 h 6.54253 l 0.85787,0.81128561 c 0.47169,0.44632419 0.9282,1.00654629 1.0142,1.24512249 1.00811,2.796233 1.7633,4.7978139 2.13753,5.6652437 0.25023,0.5799287 0.66192,1.8163198 0.91504,2.7476012 0.31559,1.160296 0.69514,2.087967 1.20649,2.947154 0.93611,1.573012 1.24473,2.774624 0.86245,3.357967 -0.48242,0.736069 -1.06132,0.780848 -8.53903,0.660267 -6.82501,-0.109752 -6.92188,-0.107313 -8.03291,0.241942 -2.53005,0.794896 -2.84545,1.124151 -3.48206,3.635615 -0.45364,1.789296 -0.4712,1.972411 -0.29609,3.067442 0.14195,0.886844 0.14146,1.522282 -0.003,2.664482 -0.20243,1.60706 -0.0488,3.301238 0.39755,4.367635 0.459,1.098836 0.15072,1.070544 10.82626,0.995181 10.4611,-0.07365 10.39155,-0.07902 10.8626,0.831773 0.17707,0.341938 0.20585,1.823539 0.15414,7.890767 -0.039,4.707427 -0.12633,7.618144 -0.23267,7.871256 -0.0927,0.220967 -0.35999,0.542076 -0.59374,0.713728 -0.4073,0.299013 -0.78718,0.313159 -9.18998,0.338524 -7.48405,0.02439 -8.88853,-0.0098 -9.61036,-0.221455 -0.80319,-0.235601 -0.86733,-0.232186 -1.28527,0.07122 -0.53993,0.392179 -1.11629,1.504283 -1.28087,2.47166 -0.0678,0.397545 -0.0849,12.579512 -0.039,27.070901 0.081,25.257598 0.0722,26.375658 -0.20877,27.017828 -0.29267,0.66846 -0.92577,1.06967 -1.54613,0.97972 -0.14146,-0.0195 -4.9443,-0.0746 -10.67305,-0.12049 z m 61.18382,0.002 c -8.02486,-0.0673 -10.19951,-0.12926 -10.49808,-0.2995 -0.20731,-0.11804 -0.50374,-0.51564 -0.65915,-0.88362 -0.26633,-0.63047 -0.28145,-2.30045 -0.26584,-28.94488 l 0.0146,-28.275831 0.3756,-0.883624 c 0.20633,-0.485835 0.54466,-1.648229 0.75158,-2.582729 0.54008,-2.439369 1.37697,-4.135791 3.02388,-6.129274 2.20065,-2.6638 3.11642,-3.382016 6.90734,-5.417205 2.78833,-1.496966 -1.16571,-1.349948 37.89214,-1.408726 21.41825,-0.03415 34.91026,0.0049 35.32863,0.1 0.37218,0.08341 0.82875,0.303891 1.01435,0.489542 0.33463,0.334621 0.33804,0.421935 0.37706,10.092975 0.0195,5.365548 0,9.992051 -0.0488,10.281113 -0.11706,0.70207 -0.91284,1.579256 -1.64608,1.814027 -0.32681,0.104874 -1.24512,0.461934 -2.04036,0.794311 -0.79524,0.332182 -1.62667,0.658121 -1.84754,0.724265 -0.22096,0.06634 -1.08849,0.426812 -1.92792,0.801188 -0.83943,0.37462 -2.21304,0.875137 -3.05252,1.112493 -0.83943,0.237552 -2.28698,0.788458 -3.2168,1.224587 -1.04757,0.491396 -2.20845,0.896843 -3.05222,1.066056 -1.19737,0.239991 -1.44887,0.354133 -2.0849,0.942793 -0.89221,0.826066 -1.28268,1.035862 -1.92817,1.035862 -0.71333,0 -1.11654,-0.262916 -1.38345,-0.901623 -0.20341,-0.486323 -0.19951,-0.863918 0.0293,-3.079734 0.45901,-4.40383 0.18682,-6.330584 -1.06649,-7.548683 -0.78836,-0.766019 -1.38278,-0.871625 -3.70474,-0.658121 -1.33926,0.122922 -6.30746,0.171213 -15.19077,0.146823 -13.97146,-0.03902 -13.92229,-0.03902 -16.31186,0.735679 -1.97548,0.641829 -2.33166,1.047618 -2.76628,3.151585 -0.22585,1.093763 -0.25463,4.041697 -0.25463,26.210984 0,15.571006 -0.058,25.131457 -0.15414,25.384377 -0.30291,0.79621 -0.73489,1.0643 -1.65315,1.02552 -0.46389,-0.0195 -5.39813,-0.0737 -10.96489,-0.12048 z M 143.3981,107.13614 c -0.9204,-0.14877 -3.11159,-1.18781 -4.83367,-2.29162 -1.11098,-0.71212 -1.78159,-1.42272 -3.50332,-3.71229 -1.2224,-1.62555 -1.30444,-1.782715 -1.84466,-3.533623 -0.24536,-0.795286 -0.62496,-1.952022 -0.84358,-2.570534 l -0.39755,-1.124639 -0.0517,-8.755856 c -0.0512,-8.622349 -0.0439,-8.782781 0.31803,-10.523104 0.20341,-0.971962 0.58647,-2.473075 0.85104,-3.335822 0.44291,-1.444822 0.55959,-1.650668 1.47761,-2.609996 0.58041,-0.606611 1.26912,-1.561647 1.6494,-2.287229 0.56671,-1.081324 0.76816,-1.313022 1.52623,-1.755346 0.48047,-0.280477 1.52404,-0.909087 2.31932,-1.397312 0.79524,-0.488274 1.8074,-1.054203 2.24923,-1.257658 l 0.80329,-0.369742 20.80519,0.0098 20.80524,0.0098 1.12459,0.365352 c 2.39777,0.778945 2.47113,0.860064 2.95555,3.267337 0.19267,0.956889 0.5012,1.862513 0.86348,2.533511 0.31023,0.574368 0.7188,1.52199 0.90825,2.10587 0.55579,1.712763 1.4997,2.285277 2.57317,1.56072 1.28044,-0.864259 1.75228,-2.989933 1.14445,-5.156044 -0.33462,-1.192491 -0.34633,-1.465065 -0.2678,-6.184834 0.0893,-5.348231 0.039,-5.810799 -0.80348,-7.7217 -0.67734,-1.532331 -1.19385,-1.916023 -3.0489,-2.264888 -0.49028,-0.09219 -9.8566,-0.163408 -23.45612,-0.178042 -12.45191,-0.01463 -24.7665,-0.06585 -27.36577,-0.115605 l -4.72591,-0.09122 -0.48242,-0.431203 -0.48242,-0.431203 -0.0488,-7.712969 c -0.0439,-7.592876 -0.039,-7.71853 0.28389,-8.067492 0.18146,-0.195114 0.50871,-0.422422 0.7269,-0.505297 0.575,-0.218528 72.0296,-0.201456 73.8007,0.01951 1.75261,0.217065 2.56512,0.612123 3.26714,1.589256 0.34047,0.474128 0.90031,0.969913 1.4495,1.284145 1.2043,0.688998 1.72101,1.34985 2.83482,3.62542 1.19147,2.43415 1.38107,3.181536 1.68857,6.656279 0.21511,2.428832 0.24584,6.464237 0.22097,28.929512 -0.0146,14.358809 -0.0785,27.162016 -0.13902,28.451576 -0.13463,2.87238 -0.2995,3.25792 -1.62277,3.79312 l -0.87548,0.35413 -35.50545,-0.0146 c -19.52797,-0.01 -35.88534,-0.0771 -36.34971,-0.15219 z m 49.54218,-17.580881 c 1.106,-0.825822 1.06415,-0.562418 1.11332,-7.002656 0.0293,-3.779317 -0.0146,-5.948306 -0.12097,-6.158395 -0.32194,-0.629829 -1.16708,-1.37663 -1.72808,-1.526721 -0.35609,-0.09512 -0.95753,-0.09561 -1.61223,0 -0.59261,0.08585 -7.71634,0.15414 -16.47102,0.158042 -10.40423,0.0045 -15.62861,0.06244 -16.04684,0.178042 -0.89372,0.24682 -2.05529,1.405458 -2.60346,2.596973 l -0.46096,1.001571 v 3.614835 c 0,3.391381 0.0244,3.671419 0.36828,4.5308 0.41754,1.040155 1.62813,2.478782 2.35352,2.796526 0.39657,0.173651 3.67195,0.206821 17.62551,0.178529 17.03187,-0.03414 17.14124,-0.03902 17.5821,-0.366327 z m 226.76418,17.197331 c -2.57683,-0.65485 -3.61572,-1.1482 -4.90781,-2.33044 -0.53349,-0.48813 -1.37049,-1.14752 -1.85998,-1.46526 -0.66924,-0.43462 -0.96367,-0.75232 -1.18683,-1.28137 -0.45901,-1.0883 -1.33897,-2.868571 -1.85637,-3.756098 -0.54803,-0.94011 -1.18327,-3.348309 -1.18664,-4.498411 -0.002,-0.441934 -0.0615,-3.58669 -0.13414,-6.988656 -0.13511,-6.342632 -0.10438,-7.025971 0.60681,-13.613618 0.0532,-0.489932 0.30438,-1.242098 0.60168,-1.800808 0.28097,-0.527687 0.84846,-1.595012 1.26113,-2.371811 1.12381,-2.115381 2.83623,-3.732782 5.26462,-4.972587 1.01079,-0.516029 2.16753,-1.115128 2.57053,-1.331315 0.63286,-0.339499 1.06113,-0.413154 3.14257,-0.539686 1.32546,-0.08048 11.11839,-0.169262 21.76208,-0.196578 l 19.35222,-0.05024 0.48906,0.527248 c 0.84255,0.908355 2.04548,3.397966 2.43029,5.029854 0.69173,2.933252 2.66536,5.212139 3.92853,4.536117 0.19024,-0.101948 0.49272,-0.517151 0.67222,-0.922989 0.29804,-0.673145 0.31706,-0.93611 0.21755,-2.998567 -0.06,-1.243415 -0.13901,-4.562359 -0.17609,-7.37547 -0.039,-2.81311 -0.14828,-5.560369 -0.24682,-6.104982 -0.40486,-2.232109 -1.65213,-3.78439 -3.31909,-4.130474 -0.65612,-0.136093 -8.15397,-0.183408 -28.2148,-0.177067 -23.56524,0.0049 -27.38875,-0.02439 -27.81283,-0.224869 -0.96528,-0.458031 -0.96879,-0.479006 -0.99001,-5.936794 -0.01,-2.739211 -0.039,-6.190687 -0.0663,-7.669947 -0.0527,-3.023053 -0.003,-3.180657 1.11601,-3.504986 0.39364,-0.114142 12.28396,-0.151701 37.52771,-0.119019 31.13582,0.03902 37.03984,0.08341 37.51367,0.271696 0.58534,0.233162 1.93539,0.998059 3.26504,1.850075 0.98465,0.630902 2.5323,2.734284 3.23978,4.403 0.2878,0.678998 0.70783,1.632181 0.93314,2.11821 1.00688,2.171526 1.07278,4.346271 1.06595,35.184099 -0.005,28.668693 -0.01,28.855853 -0.7407,29.854983 -0.17219,0.23609 -0.59788,0.57369 -0.94562,0.75041 -0.62598,0.31804 -0.98177,0.32145 -35.89671,0.35267 l -35.26448,0.0293 z m 49.77348,-17.026704 c 0.29999,-0.176578 0.69763,-0.525736 0.88363,-0.775531 0.32925,-0.442422 0.33803,-0.605098 0.3351,-6.348193 -0.003,-5.633391 -0.0195,-5.918648 -0.33023,-6.453505 -0.1795,-0.307793 -0.54944,-0.709631 -0.82153,-0.89299 -0.49388,-0.33267 -0.52207,-0.333158 -16.53911,-0.278526 -10.54832,0.03414 -16.34702,0.113654 -16.92798,0.227308 -1.28448,0.250722 -3.12441,1.17254 -3.60942,1.808418 -0.88733,1.163321 -1.31809,4.094378 -1.06084,7.218159 0.20634,2.506195 0.5275,3.359772 1.64053,4.360514 1.49789,1.346728 0.61256,1.27078 15.48076,1.328485 7.24567,0.02927 13.39085,0.06829 13.65591,0.08926 0.26487,0.01951 1.89178,0.03902 3.61484,0.03902 2.84389,0 3.18314,-0.02927 3.67834,-0.321451 z" />
</svg>
