<svg id="BENGAL" width="500" height="303.9014" viewBox="0 0 500 303.9014" version="1.1" xml:space="preserve" xmlns:xlink="http://www.w3.org/1999/xlink" xmlns="http://www.w3.org/2000/svg" xmlns:svg="http://www.w3.org/2000/svg">
	<path id="BENGAL" style="fill:#000000;stroke:#000000;stroke-width:0" d="m 18.2464,303.00571 c -0.8639,-0.52679 -2.1017,-1.03323 -2.7506,-1.12544 -1.4709,-0.20903 -1.9546,-1.92127 -0.5428,-1.92127 1.6824,0 3.6116,-1.91515 3.6116,-3.58534 0,-0.98242 0.2184,-1.43679 0.6262,-1.30289 0.8041,0.26395 1.1177,3.34469 0.4123,4.05008 -0.9765,0.97648 -0.5803,1.84045 0.8403,1.83254 2.2381,-0.0125 2.8075,-0.6452 2.4233,-2.69314 -0.4831,-2.57494 0.8557,-2.41998 1.9126,0.22137 0.4467,1.11641 1.0348,1.89223 1.307,1.72404 0.575,-0.35539 0.6499,-2.74696 0.1113,-3.55362 -0.4976,-0.74521 -2.4884,-1.76346 -3.2547,-1.66466 -1.9888,0.25645 -1.986,0.26311 -4.1128,-9.7849 -1.4542,-6.86999 -1.5648,-8.92429 -0.5357,-9.95332 1.015,-1.01505 9.1921,-1.53699 17.0125,-1.08593 10.9791,0.63325 14.2091,-0.44763 29.3568,-9.824 10.1732,-6.29722 16.8854,-9.67126 21.3716,-10.74297 1.8168,-0.43401 5.8288,-0.70534 10.5937,-0.71642 11.2315,-0.0262 20.638,-1.5052 31.4111,-4.93905 3.9852,-1.27027 9.7372,-3.59246 11.1736,-4.51105 0.8129,-0.51983 1.3099,-0.58053 1.6847,-0.20576 0.7278,0.72784 -2.3666,2.91011 -8.6878,6.12688 -6.9709,3.54743 -13.7555,5.69066 -23.7108,7.49019 -7.364,1.33112 -8.7305,1.53229 -10.4088,1.53229 -2.9093,0 -11.3151,1.80499 -15.1438,3.25187 -1.929,0.72895 -7.6783,3.31121 -12.7763,5.73837 -17.3662,8.26799 -17.6162,8.33624 -33.0682,9.02639 -6.2002,0.27693 -12.1123,0.74186 -13.1378,1.03318 -2.736,0.7772 -3.2685,2.90356 -2.3896,9.54364 0.5728,4.32791 0.8405,5.17358 1.9017,6.00834 0.6793,0.53431 1.5508,0.97148 1.9367,0.97148 1.2318,0 3.0808,1.52425 3.5775,2.94915 0.8696,2.4943 -1.5597,6.35024 -3.3065,5.24841 -0.6104,-0.38504 -1.24,-0.22216 -2.533,0.65534 -2.0861,1.41568 -2.868,1.44854 -4.9053,0.2062 z M 166.87,290.68991 c 0,-0.68892 -0.4732,-1.72577 -1.0515,-2.30412 -0.8724,-0.87243 -1.4196,-0.99634 -3.2123,-0.72751 -1.1884,0.17821 -2.291,0.11329 -2.4501,-0.14428 -0.5103,-0.8256 1.1665,-1.72823 3.5991,-1.93745 3.2982,-0.28367 5.62,1.16343 5.62,3.50269 0,1.72742 -0.7354,2.86325 -1.8538,2.86325 -0.3608,0 -0.6514,-0.55885 -0.6514,-1.25258 z m -96.1952,-0.49746 c -0.8633,-1.04026 -0.2093,-1.64381 2.0012,-1.84672 1.4587,-0.13391 1.7788,-0.37732 1.9033,-1.44726 0.202,-1.73516 -1.5071,-2.47146 -5.7366,-2.47146 -2.7878,0 -3.7928,-0.26677 -6.6386,-1.76218 -1.8444,-0.9692 -4.4551,-2.73162 -5.8016,-3.91649 l -2.4482,-2.15432 1.0475,-1.04754 c 1.0563,-1.05626 3.2669,-1.63041 10.1587,-2.6384 11.7501,-1.71857 19.0604,-4.44645 26.0923,-9.73646 4.1836,-3.14728 5.3794,-3.03357 3.0727,0.2922 -1.9222,2.77148 -3.674,4.38661 -7.1196,6.56446 -2.83,1.78873 -11.29,4.87912 -13.3567,4.87912 -0.6374,0 -2.1203,0.22464 -3.2954,0.49921 -1.1751,0.27457 -4.1094,0.63301 -6.5206,0.79653 -4.7954,0.32521 -5.3531,0.80558 -2.9756,2.56327 2.3308,1.72324 7.4978,4.1575 8.8249,4.1575 0.6838,0 1.8003,-0.25379 2.4811,-0.56399 1.9158,-0.87292 4.6107,-0.11466 6.5756,1.85021 2.2717,2.27175 2.7125,3.98965 1.3686,5.33358 -1.2973,1.29726 -2.1204,0.78837 -2.1204,-1.31088 0,-0.95869 -0.3828,-1.99275 -0.9163,-2.47559 -1.3779,-1.24693 -1.6415,-1.00201 -0.6956,0.64619 0.8103,1.41178 0.8017,1.53598 -0.1986,2.88093 -1.2657,1.70168 -4.6024,2.23308 -5.7021,0.90809 z m 104.0037,-1.45633 c -0.4058,-2.16293 -1.2253,-2.82821 -3.9058,-3.1706 -1.182,-0.15097 -2.7422,-0.57354 -3.4672,-0.93902 -3.3331,-1.68032 -6.4898,-7.54127 -9.4176,-17.4851 -0.8458,-2.87263 -2.5419,-14.50068 -2.5409,-17.42016 0,-3.44059 1.3941,-10.34663 2.5891,-12.83605 1.4018,-2.92005 6.0286,-7.38313 10.5483,-10.1752 12.8712,-7.9511 20.7324,-14.07725 27.5486,-21.46832 3.9098,-4.23954 4.9072,-5.06364 4.9072,-4.05449 0,0.23788 -1.3453,2.45734 -2.9894,4.93214 -3.7026,5.573 -9.2444,11.03999 -18.1177,17.87308 -16.0155,12.33318 -18.1506,16.43062 -18.1767,34.88197 -0.014,10.32796 0.3548,12.99741 2.4948,18.03245 0.643,1.51303 1.8877,3.48585 2.7659,4.38403 1.3622,1.3932 1.9487,1.63306 3.9931,1.63306 4.0093,0 6.7247,3.00613 5.4641,6.04932 -0.7967,1.92345 -1.3038,1.85255 -1.6958,-0.23711 z M 9.4244999,273.08202 c -0.1356,-0.2361 -0.5277,-1.95163 -0.8711,-3.81229 -0.9711,-5.26169 -0.1952,-5.95603 10.7627001,-9.63071 7.4393,-2.49473 10.0471,-3.59672 13.0357,-5.50852 3.9068,-2.49913 4.2047,-3.32514 3.894,-10.79594 l -0.2601,-6.25508 2.0785,-3.75774 c 4.4151,-7.98197 4.7468,-8.91948 4.7218,-13.3443 -0.019,-3.49612 -0.2474,-4.55499 -1.6029,-7.45165 -1.7344,-3.70634 -3.9354,-6.88543 -7.9637,-11.50265 -1.4511,-1.66329 -3.3419,-4.00311 -4.2016,-5.19962 l -1.5631,-2.17546 1.442,0.76776 c 2.6541,1.41304 9.7405,7.88194 12.0613,11.01031 2.7292,3.67883 4.265,6.95763 5.4243,11.5804 1.0568,4.21385 0.8387,5.61283 -1.783,11.4355 -1.1464,2.54605 -2.513,5.75334 -3.0369,7.12728 -1.192,3.1264 -1.2648,8.79548 -0.1521,11.84359 1.094,2.99683 0.9798,4.83553 -0.3927,6.31967 -2.4843,2.68637 -6.0669,4.31129 -14.687,6.66136 -13.4773,3.67426 -15.7703,5.1136 -15.7902,9.91154 -0.01,1.88993 -0.6735001,3.54623 -1.1159001,2.77655 z M 191.4206,217.9054 c 0,-0.70402 5.6979,-3.49104 10.3193,-5.04747 2.7124,-0.91353 7.1747,-1.87761 11.0227,-2.38146 5.6295,-0.73712 7.3721,-0.76732 13.4797,-0.23354 8.3527,0.72998 13.4761,1.59714 13.5061,2.28598 0.013,0.31568 -5.2608,0.61925 -14.2576,0.82059 -17.0218,0.38093 -24.1967,1.34205 -30.7494,4.11909 -2.096,0.88828 -3.3208,1.04938 -3.3208,0.43681 z m 97.3113,-2.23656 c -1.4833,-0.71472 -1.1762,-1.53161 0.7216,-1.91977 0.8302,-0.16979 1.8279,-0.51378 2.2173,-0.76443 0.3893,-0.25065 1.1387,-0.45573 1.6656,-0.45573 2.7832,0 0.4915,-2.73521 -3.5668,-4.25697 -4.6543,-1.74527 -10.4428,-2.45465 -26.4509,-3.24155 -29.6836,-1.45914 -34.1168,-1.95997 -39.6101,-4.47488 -3.0093,-1.37772 -5.9337,-4.11836 -8.4588,-7.92739 -1.9551,-2.9494 -5.8986,-12.24406 -5.6789,-13.3851 0.078,-0.40385 1.7188,1.49348 3.6467,4.21628 6.2339,8.80466 13.5689,14.10023 21.7928,15.73365 7.1822,1.42652 12.4552,2.06803 23.0475,2.80393 27.3314,1.89886 34.6131,3.49767 38.2504,8.39853 0.9762,1.31523 0.9839,1.44859 0.1814,3.13145 -0.8183,1.7158 -1.9812,2.27106 -2.6135,1.24788 -0.193,-0.31231 -0.813,-0.11818 -1.6003,0.50103 -1.439,1.13192 -1.9036,1.18345 -3.544,0.39307 z m -218.561,-6.4632 C 60.9541,207.86371 55.187,206.11492 47.9676,202.47281 21.7946,189.26888 5.3271999,167.07003 0.79019985,138.87513 c -1.0665,-6.62744 -1.0498,-23.59461 0.028,-28.33259 0.43540005,-1.91448 0.97070005,-3.48087 1.18950005,-3.48087 0.2188,0 0.5362,2.53647 0.7052,5.63661 0.5669,10.39813 1.3829,16.84672 3.0904,24.42531 0.4656,2.06676 1.0145,4.54686 1.2196,5.51135 1.1723,5.51047 4.8537001,14.75621 8.2952001,20.83303 6.1615,10.87995 13.957,19.41038 23.8002,26.04407 13.7876,9.29198 26.7679,12.7112 45.8331,12.07324 14.4248,-0.48268 19.4344,-1.42003 34.5606,-6.46653 22.0059,-7.34172 36.4583,-17.84222 53.6173,-38.95594 6.4733,-7.96516 12.3332,-13.95174 14.7842,-15.10347 0.9645,-0.45324 2.3584,-1.10322 3.0976,-1.44442 0.7392,-0.34119 1.7403,-0.46829 2.2246,-0.28244 0.7217,0.27691 0.2688,0.89008 -2.5088,3.39695 -4.3896,3.96178 -8.9507,9.75018 -17.008,21.58444 -3.5434,5.20454 -10.8981,13.77698 -14.9646,17.44246 -6.7201,6.05735 -17.0673,12.61096 -26.0798,16.51814 -2.5489,1.10501 -5.0853,2.21413 -5.6364,2.46471 -4.4719,2.03321 -18.2988,5.89037 -25.5526,7.12822 -9.1053,1.55377 -25.1305,2.23862 -31.3145,1.33824 z m 151.8127,-39.78311 c 0,-0.42304 0.3199,-1.26854 0.7109,-1.87887 0.9134,-1.42569 2.7963,-7.21676 2.7963,-8.60041 0,-2.07881 -13.282,-16.36626 -16.74,-18.00717 -2.0709,-0.9827 -2.3416,-1.80836 -0.593,-1.80836 3.0388,0 6.4566,2.81903 17.2637,14.23941 l 4.1896,4.42728 -0.337,2.56616 c -0.1853,1.41139 -0.8853,3.50546 -1.5555,4.65348 -2.251,3.85542 -5.735,6.53361 -5.735,4.40848 z m 69.1105,-9.2631 c -19.3406,-3.40856 -32.4286,-15.06883 -36.7923,-32.77883 -4.3111,-17.49643 -0.2717,-36.131343 10.3237,-47.625949 2.3371,-2.535447 2.9593,-2.653055 6.9269,-1.309181 12.1274,4.107765 26.9895,5.540812 39.3983,3.798914 6.1692,-0.866003 9.3644,-1.598808 15.3701,-3.525095 1.81,-0.580541 3.0418,-0.745541 3.3189,-0.444561 0.5366,0.582996 -6.1216,16.245572 -7.2749,17.113119 -0.6514,0.490015 -1.4611,0.268208 -4.3702,-1.19707 -4.7786,-2.406994 -8.0688,-3.494664 -12.7294,-4.208123 -3.317,-0.507771 -4.502,-0.470184 -8.0886,0.256568 -2.3113,0.46832 -5.2382,1.385313 -6.5043,2.037758 -8.7099,4.48838 -13.3593,14.57896 -11.6267,25.23328 1.7624,10.83723 11.9294,17.92014 23.7988,16.57962 4.4937,-0.50752 5.2832,-0.82142 5.8561,-2.32807 0.2544,-0.66928 0.4626,-5.82421 0.4626,-11.45541 v -10.23854 h 12.5258 12.5258 v 22.75581 22.75582 l -3.883,1.28224 c -12.6163,4.16615 -27.3051,5.40067 -39.2376,3.2977 z M 26.7037,158.78349 c -0.4985,-0.33956 -0.6024,-10.03472 -0.5011,-46.74269 l 0.128,-46.314278 h 20.5423 c 22.9577,0 24.8925,0.19258 30.7803,3.06358 6.8778,3.3538 11.0941,8.83846 12.8881,16.765247 1.1683,5.162484 0.4442,11.97666 -1.7647,16.604911 -1.435,3.00672 -5.1564,7.20284 -7.8336,8.83273 -0.9701,0.59064 -0.9724,0.6295 -0.07,1.2203 4.9986,3.27241 7.1447,5.8441 9.0103,10.7973 0.9107,2.41786 1.0668,3.88196 1.0502,9.85423 -0.019,6.79084 -0.072,7.13809 -1.6681,10.89337 -3.2625,7.67606 -8.5195,11.65287 -18.8441,14.25517 -2.3471,0.59158 -7.4003,0.80604 -23.0475,0.97814 -11.0227,0.12123 -20.3243,0.0277 -20.6702,-0.20801 z M 59.9014,135.9586 c 4.5379,-1.53075 5.5223,-2.80045 5.4742,-7.06075 -0.048,-4.23395 -1.2566,-5.95324 -4.9378,-7.02341 -1.4831,-0.43113 -3.8455,-0.78387 -5.2498,-0.78387 h -2.5533 v 7.68248 c 0,4.22538 0.1503,7.83281 0.334,8.01652 0.659,0.65893 3.5394,0.31367 6.9327,-0.83097 z m 0.535,-35.47159 c 3.3026,-0.831622 4.7289,-2.760811 4.7061,-6.365361 -0.031,-4.792216 -2.4338,-6.60023 -8.7736,-6.60023 h -3.7342 v 6.763932 6.763929 h 2.7844 c 1.5313,0 3.7891,-0.25302 5.0173,-0.56227 z m 44.4283,58.26735 c -0.4987,-0.31657 -0.6024,-9.99334 -0.5011,-46.71356 l 0.1279,-46.314278 25.8932,-0.12974 c 24.3366,-0.12195 25.91,-0.0768 26.1708,0.75154 0.1526,0.48472 0.9539,4.7142 1.7806,9.398845 0.8267,4.684649 1.7585,9.792886 2.0708,11.351631 0.3123,1.558751 0.4154,3.080636 0.2292,3.381967 -0.2333,0.377407 -5.1687,0.547878 -15.8621,0.547878 h -15.5236 l 0.1464,3.882998 0.1464,3.882999 10.1458,0.135634 10.1459,0.135629 v 13.266977 13.26697 h -10.294 -10.2941 l 0.1482,3.38197 0.1482,3.38197 17.035,0.10764 c 9.3693,0.0592 17.0076,0.28467 16.9739,0.50103 -0.054,0.34817 -0.8828,3.36209 -2.1743,7.90887 -0.2348,0.8267 -0.701,2.74315 -1.036,4.25878 -0.3349,1.51562 -0.8007,3.2066 -1.0349,3.75774 -0.2343,0.55113 -0.8796,2.77843 -1.4339,4.94955 -0.5544,2.17112 -1.2646,4.25667 -1.5782,4.63455 -0.4693,0.56552 -5.0129,0.68569 -25.6857,0.67938 -13.8135,-0.004 -25.3985,-0.18735 -25.7444,-0.40697 z m 133.5622,-0.85328 c -2.5705,-1.33858 -6.4846,-5.03092 -12.824,-12.09751 -4.0628,-4.52878 -9.5546,-8.76532 -12.2345,-9.43792 -1.9563,-0.491 -3.111,-1.93589 -2.4838,-3.10792 0.7498,-1.401 1.1836,-6.68675 0.6902,-8.40942 -0.3856,-1.34627 -0.6636,-1.51855 -2.6639,-1.6512 -1.8985,-0.12589 -2.7096,0.15977 -5.4102,1.90521 -3.4434,2.2256 -7.9447,6.62333 -9.9077,9.67966 -0.7473,1.16366 -1.9578,2.20671 -3.0797,2.65386 -5.5819,2.2247 -9.1272,4.39583 -12.9524,7.93199 -2.2493,2.07929 -4.3085,3.78053 -4.576,3.78053 -0.6087,0 -1.2726,-30.74256 -1.3202,-61.125909 l -0.035,-22.295929 5.8362,-0.14072 5.8362,-0.14071 3.6834,4.18885 c 2.0259,2.30387 5.3744,6.189532 7.4412,8.634798 2.0668,2.445267 4.7882,5.583822 6.0477,6.974566 1.2594,1.390745 5.1961,5.910595 8.748,10.044109 3.552,4.133515 6.6927,7.515485 6.9792,7.515485 0.349,0 0.5644,-6.165283 0.6524,-18.67204 l 0.1314,-18.672028 12.5302,0.13384 12.5302,0.13385 -0.015,46.276288 c -0.01,25.45195 -0.1394,46.47651 -0.2906,46.72124 -0.3861,0.62461 -0.6667,0.55489 -3.3127,-0.82297 z m 102.8023,0.71226 c 0,-0.30562 1.3764,-4.53307 3.0587,-9.39435 5.5556,-16.0539 10.3151,-29.73296 14.2326,-40.90474 2.1259,-6.06249 5.5124,-15.757459 7.5255,-21.544379 7.0989,-20.405879 6.1357,-18.336899 9.0028,-19.338749 3.619,-1.2646 14.2471,-1.26967 19.0994,-0.009 4.2084,1.09329 8.3323,3.2249 9.9434,5.13955 0.7605,0.90372 4.6041,11.822595 11.296,32.089118 5.5788,16.89561 11.8415,35.85008 13.9171,42.12105 2.0756,6.27097 3.6065,11.56938 3.4021,11.77425 -0.2045,0.20488 -6.1591,0.3725 -13.2324,0.3725 h -12.8605 l -1.1093,-2.25464 c -0.6101,-1.24006 -1.6279,-3.38197 -2.2619,-4.75981 l -1.1527,-2.50516 -15.0237,-0.12174 c -8.263,-0.067 -15.3057,0.0592 -15.6505,0.28042 -0.3448,0.2212 -1.1571,2.19243 -1.8051,4.38052 -0.8929,3.01485 -1.4692,4.12824 -2.3794,4.59725 -1.6154,0.83243 -26.0021,0.9056 -26.0021,0.078 z m 53.717,-34.7902 c 0.1505,-0.15049 -0.5844,-2.91243 -1.6331,-6.13764 -1.0487,-3.22522 -2.8526,-8.9078 -4.0086,-12.62796 -1.156,-3.72016 -2.2605,-6.938612 -2.4544,-7.152107 -0.1938,-0.213495 -1.0883,2.041149 -1.9877,5.010317 -0.8994,2.96917 -2.6515,8.61794 -3.8936,12.55281 -1.242,3.93488 -2.131,7.48594 -1.9754,7.89126 0.2318,0.60432 1.6682,0.73694 7.981,0.73694 4.234,0 7.8213,-0.12313 7.9718,-0.27362 z m 45.506,34.61687 c -0.4643,-0.5595 -0.566,-9.67536 -0.4371,-39.20576 l 0.1679,-38.476763 1.6312,-2.028634 c 2.4456,-3.041309 6.1475,-5.640251 11.028,-7.742161 5.0979,-2.19553 11.3003,-3.64671 12.1129,-2.83405 0.3616,0.36154 0.53,10.692841 0.53,32.507538 v 31.97757 l 17.0936,-0.0367 c 9.4015,-0.0202 17.2079,0.0775 17.3476,0.21718 0.1396,0.13964 0.075,0.65817 -0.1434,1.1523 -0.615,1.3913 -5.139,16.76819 -6.2901,21.38038 -1.0486,4.20154 1.6591,3.81809 -26.9619,3.81809 -21.6818,0 -25.5637,-0.10851 -26.0787,-0.72899 z M 188.2474,151.3195 c -0.6178,-0.61773 -0.3412,-2.44606 0.6722,-4.4451 1.4667,-2.89303 9.7509,-11.02769 13.2732,-13.03365 1.6534,-0.94162 2.7131,-1.71551 2.355,-1.71975 -1.038,-0.0123 -3.631,1.46706 -6.701,3.82298 -1.5636,1.19992 -2.9727,2.18167 -3.1315,2.18167 -0.7169,0 -0.1705,-1.81912 1.0394,-3.45993 3.6014,-4.8841 8.0864,-8.56483 10.4364,-8.56483 1.1946,0 1.2625,0.14654 1.2625,2.7261 0,1.49936 -0.2254,2.86545 -0.501,3.03576 -0.2756,0.17031 -0.501,1.01311 -0.501,1.87287 0,2.62367 -2.6319,9.91042 -3.2299,8.94269 -0.1947,-0.31493 0.017,-2.0534 0.4713,-3.86327 0.4539,-1.80987 0.7156,-3.40045 0.5814,-3.53461 -0.4998,-0.49977 -4.8186,4.27147 -8.6215,9.52457 -4.5299,6.25739 -6.1965,7.72351 -7.4055,6.5145 z m 239.1593,-40.02018 c 0,-0.89826 -1.7677,-8.61587 -2.7494,-12.003648 -3.8097,-13.146845 -10.6596,-24.584675 -18.5122,-30.91082 -6.1923,-4.98858 -15.3445,-8.51391 -23.5808,-9.08298 -5.5175,-0.38123 -18.4603,0.78344 -20.1225,1.81073 -0.3178,0.1964 -1.1059,0.14549 -1.7514,-0.11315 -1.1512,-0.46129 -1.1467,-0.47085 0.2372,-0.502 0.776,-0.0175 1.898,-0.29249 2.4934,-0.61115 4.6607,-2.49437 19.4132,-3.665 27.6609,-2.19494 12.7594,2.27424 21.1905,7.14617 28.8324,16.660891 2.758,3.433969 6.9914,10.988018 6.9914,12.475637 0,1.29863 1.051,0.698765 1.7635,-1.006543 1.5119,-3.618598 4.4844,-8.051073 7.6797,-11.451613 3.3777,-3.594752 9.6852,-8.158302 12.0565,-8.723002 0.7135,-0.16989 1.5227,-0.47723 1.7982,-0.68298 0.2756,-0.20576 1.2902,-0.54103 2.2547,-0.74507 l 1.7536,-0.37097 -0.9545,1.06466 c -0.5249,0.58557 -1.1645,1.06467 -1.4212,1.06467 -1.1618,0 -8.2697,5.51587 -11.2346,8.718288 -5.8135,6.279074 -10.009,17.120675 -11.2296,29.01835 -0.615,5.99444 -0.9754,7.85728 -1.52,7.85728 -0.2449,0 -0.4453,-0.12224 -0.4453,-0.27164 z M 297.6394,77.733839 c -2.6179,-0.671423 -5.2107,-1.425266 -5.7619,-1.675211 -0.5511,-0.24994 -2.2381,-0.938839 -3.7489,-1.530883 -3.4162,-1.338773 -7.0233,-3.425233 -7.0233,-4.062533 0,-0.66007 0.083,-0.64493 4.3736,0.79529 7.0435,2.3644 13.2797,3.362073 21.1791,3.388217 10.4883,0.03472 15.8508,-1.195307 24.8011,-5.688707 6.7383,-3.38294 12.9304,-8.07008 19.4149,-14.69636 2.9624,-3.02711 5.3861,-5.27234 5.3861,-4.98941 0,0.91842 -3.7546,6.3421 -6.952,10.04234 -7.8105,9.03877 -18.0591,15.664597 -28.4114,18.368186 -7.0026,1.828756 -16.2423,1.848257 -23.2573,0.04905 z M 277.4009,67.367302 c -0.7993,-1.2075 -0.8344,-1.67107 -0.3038,-4.00826 4.068,-17.91704 11.8905,-31.78656 24.2094,-42.92394 9.6362,-8.71201 24.3164,-16.2252498 36.4155,-18.6372298 11.7492,-2.34225 25.1853,-2.39878 36.3008,-0.15273 1.9421,0.39244 4.6585,0.92429 6.0364,1.18188 7.5706,1.41533 17.9507,4.98709 25.5397,8.7880498 3.3012,1.6534 6.0683,3.2454 6.1491,3.53777 0.081,0.29237 -1.0978,0.924 -2.6194,1.40362 -4.3012,1.35585 -11.3888,5.09516 -15.3601,8.10386 -1.9847,1.50364 -3.6893,2.65317 -3.7879,2.55454 -1.0753,-1.07526 5.2682,-7.51944 9.2225,-9.36884 1.4354,-0.67134 2.6191,-1.39531 2.6304,-1.60881 0.011,-0.21349 -0.5995,-0.61271 -1.3573,-0.88714 -0.7578,-0.27444 -1.8288,-0.70498 -2.3799,-0.95678 -1.4467,-0.66096 -6.3269,-2.24809 -11.5237,-3.74774 -6.6985,-1.9329798 -7.8014,-2.2075998 -10.2712,-2.5574298 -1.24,-0.17564 -3.6074,-0.54224 -5.2608,-0.81467 -4.8498,-0.79907 -23.0631,-1.09376 -27.0557,-0.43776 -10.7795,1.7711 -14.5239,2.94466 -23.9737,7.5138498 -13.9514,6.74585 -23.9619,15.69445 -32.2646,28.84181 -3.7869,5.99661 -7.7609,16.2397 -9.0344,23.28672 l -0.4075,2.25465 z m 151.126,-1.40881 c -3.3169,-0.6717 -8.0668,-2.99201 -11.6419,-5.68707 -1.7912,-1.35027 -7.9914,-7.12026 -13.7784,-12.8222 -5.7869,-5.70194 -11.7308,-11.31024 -13.2086,-12.46289 -8.4567,-6.59581 -21.232,-11.35549 -34.0013,-12.66792 -17.7672,-1.82611 -36.8791,2.29667 -52.158,11.25139 -1.6852,0.98766 -3.1679,1.62755 -3.295,1.42199 -0.3949,-0.63901 6.7046,-6.02063 11.2246,-8.50849 13.9795,-7.69462 25.0475,-10.53599 38.5795,-9.90412 10.1344,0.47324 18.1577,2.46639 27.4423,6.81732 9.8699,4.62519 11.8721,6.20426 27.6712,21.82335 15.1507,14.97813 19.0965,17.8178 27.2181,19.58802 1.0538,0.2297 1.9556,0.64309 2.0041,0.91865 0.1146,0.65162 -3.3323,0.78364 -6.0566,0.23197 z" />
</svg>
