<svg
   version="1.1"
   id="svg1"
   width="1111.7476"
   height="606.55084"
   viewBox="0 0 1111.7476 606.55084"
   xmlns="http://www.w3.org/2000/svg"
   xmlns:svg="http://www.w3.org/2000/svg">
  <defs
     id="defs1" />
  <g
     id="g1"
     transform="translate(-1194.7358,174.07108)">
    <path
       style="fill:#000000"
       d="m 1344.9606,430.69209 c -1.7242,-1.05141 -4.1946,-2.06222 -5.4897,-2.24626 -2.9358,-0.41718 -3.9013,-3.83462 -1.0834,-3.83462 3.3578,0 7.2082,-3.82241 7.2082,-7.15591 0,-1.96079 0.4359,-2.86765 1.25,-2.60041 1.6048,0.52682 2.2307,6.67561 0.8228,8.08348 -1.9489,1.94893 -1.1582,3.67332 1.6772,3.65753 4.467,-0.0249 5.6033,-1.28774 4.8365,-5.37518 -0.9641,-5.13927 1.708,-4.83 3.8173,0.44182 0.8916,2.22823 2.0655,3.77667 2.6086,3.44098 1.1477,-0.70932 1.2973,-5.4826 0.2223,-7.09261 -0.9932,-1.48734 -4.9667,-3.51965 -6.496,-3.32246 -3.9695,0.51184 -3.9639,0.52514 -8.2088,-19.52949 -2.9023,-13.71168 -3.123,-17.81181 -1.0692,-19.86564 2.0259,-2.0259 18.3465,-3.06765 33.9551,-2.16738 21.9129,1.26389 28.3595,-0.89342 58.5925,-19.60754 20.3046,-12.5685 33.7014,-19.30268 42.6552,-21.44167 3.6261,-0.86623 11.6337,-1.40777 21.1438,-1.4299 22.4168,-0.0522 41.191,-3.0042 62.6927,-9.85774 7.954,-2.53531 19.4343,-7.17013 22.3013,-9.00353 1.6225,-1.03751 2.6144,-1.15866 3.3624,-0.41066 1.4526,1.45268 -4.7234,5.80823 -17.3397,12.22852 -13.9131,7.08023 -27.4544,11.35787 -47.324,14.94952 -14.6977,2.65676 -17.4251,3.05827 -20.7748,3.05827 -5.8065,0 -22.5835,3.60254 -30.2252,6.49033 -3.85,1.4549 -15.325,6.60879 -25.5,11.4531 -34.6608,16.50194 -35.1598,16.63815 -66,18.0156 -12.375,0.55272 -24.1747,1.48067 -26.2216,2.06212 -5.4607,1.5512 -6.5234,5.79516 -4.7693,19.04795 1.1433,8.63799 1.6775,10.32586 3.7956,11.99193 1.3557,1.06643 3.0951,1.93897 3.8653,1.93897 2.4586,0 6.149,3.04221 7.1404,5.88615 1.7355,4.97832 -3.113,12.67432 -6.5994,10.47519 -1.2183,-0.7685 -2.4749,-0.44341 -5.0557,1.30799 -4.1636,2.82552 -5.724,2.89111 -9.7904,0.41155 z m 296.6351,-24.58088 c 0,-1.375 -0.9445,-3.44443 -2.0988,-4.59874 -1.7412,-1.74126 -2.8332,-1.98858 -6.4113,-1.45202 -2.3719,0.35569 -4.5725,0.22611 -4.8902,-0.28796 -1.0184,-1.64781 2.3282,-3.44934 7.1835,-3.86693 6.5827,-0.56617 11.2168,2.32207 11.2168,6.99095 0,3.44772 -1.4678,5.7147 -3.7,5.7147 -0.72,0 -1.3,-1.11538 -1.3,-2.5 z m -191.9941,-0.99287 c -1.7231,-2.07623 -0.4178,-3.28083 3.9941,-3.68583 2.9113,-0.26726 3.5502,-0.75308 3.7988,-2.88856 0.403,-3.46317 -3.0081,-4.93274 -11.4496,-4.93274 -5.5642,0 -7.57,-0.53244 -13.2498,-3.51709 -3.6812,-1.9344 -8.8919,-5.45199 -11.5794,-7.81685 l -4.8863,-4.29976 2.0907,-2.09076 c 2.1082,-2.10817 6.5204,-3.25411 20.2756,-5.26594 23.4517,-3.43006 38.0422,-8.87459 52.0771,-19.43281 8.35,-6.28159 10.7365,-6.05465 6.1327,0.58319 -3.8365,5.53154 -7.3328,8.75516 -14.2098,13.10189 -5.6484,3.57008 -22.5336,9.73813 -26.6585,9.73813 -1.2721,0 -4.2318,0.44837 -6.5772,0.99637 -2.3454,0.54801 -8.2018,1.26341 -13.0143,1.58977 -9.571,0.64908 -10.6841,1.60785 -5.939,5.11599 4.652,3.43937 14.9648,8.29787 17.6134,8.29787 1.3648,0 3.5932,-0.50654 4.952,-1.12565 3.8238,-1.74225 9.2024,-0.22886 13.1241,3.6928 4.5341,4.53413 5.4139,7.96285 2.7316,10.64519 -2.5892,2.58917 -4.2321,1.57348 -4.2321,-2.61637 0,-1.91343 -0.7639,-3.97729 -1.8288,-4.94098 -2.75,-2.48873 -3.2762,-1.99989 -1.3882,1.28971 1.6172,2.81776 1.6001,3.06564 -0.3965,5.75 -2.5261,3.39635 -9.1859,4.45695 -11.3806,1.81243 z m 207.5789,-2.90665 c -0.8099,-4.31695 -2.4456,-5.64478 -7.7956,-6.32814 -2.3591,-0.30132 -5.4731,-1.14471 -6.9201,-1.87418 -6.6524,-3.35372 -12.9529,-15.05146 -18.7964,-34.89816 -1.6881,-5.73344 -5.0732,-28.94163 -5.0714,-34.76856 0,-6.867 2.7826,-20.65063 5.1677,-25.61922 2.7978,-5.82807 12.0322,-14.73584 21.0531,-20.30849 25.6893,-15.86944 41.3793,-28.0965 54.9836,-42.84819 7.8035,-8.46162 9.7943,-10.10643 9.7943,-8.09229 0,0.47479 -2.685,4.90457 -5.9666,9.84396 -7.3898,11.12305 -18.4506,22.03451 -36.1606,35.67254 -31.9651,24.61556 -36.2266,32.79355 -36.2785,69.62025 -0.029,20.61336 0.708,25.94127 4.9792,35.99061 1.2834,3.01983 3.7677,6.95733 5.5205,8.75 2.7188,2.78065 3.8894,3.25939 7.9697,3.25939 8.0021,0 13.4216,5.99988 10.9057,12.07372 -1.5901,3.83897 -2.6022,3.69746 -3.3846,-0.47324 z m -329.8272,-31.24372 c -0.2708,-0.47122 -1.0532,-3.89521 -1.7387,-7.60887 -1.9382,-10.50171 -0.3895,-11.88753 21.4811,-19.22175 14.8479,-4.97919 20.0528,-7.17863 26.0177,-10.99434 7.7975,-4.98798 8.3921,-6.63659 7.772,-21.54741 l -0.5192,-12.48439 4.1485,-7.5 c 8.8119,-15.93106 9.474,-17.80222 9.4242,-26.63362 -0.039,-6.97784 -0.4939,-9.09122 -3.1993,-14.87261 -3.4617,-7.39741 -7.8546,-13.7425 -15.8946,-22.95792 -2.8963,-3.31972 -6.67,-7.98973 -8.3859,-10.37781 l -3.1198,-4.34197 2.8782,1.53236 c 5.2972,2.82026 19.4407,15.73142 24.0728,21.97527 5.4471,7.3425 8.5124,13.8866 10.8263,23.11308 2.1092,8.41034 1.6739,11.20254 -3.5587,22.82389 -2.2881,5.08163 -5.0156,11.48298 -6.0612,14.22521 -2.3792,6.23992 -2.5245,17.55472 -0.3036,23.63839 2.1835,5.98131 1.9555,9.65113 -0.7839,12.6133 -4.9583,5.36168 -12.1088,8.60482 -29.3135,13.29529 -26.8989,7.33337 -31.4755,10.20613 -31.5153,19.78224 -0.016,3.77207 -1.3442,7.07785 -2.2271,5.54166 z m 30.7424,-52.80463 c -19.0075,-7.90701 -50.0998,-26.59085 -68.5,-41.16267 -10.1912,-8.07082 -34.2127,-31.94588 -42.6493,-42.38946 -24.781,-30.67591 -42.3918,-68.6669 -48.4411,-104.5 -3.6758,-21.77308 -4.6395,-40.518977 -2.9952,-58.260707 1.2613,-13.60807 1.7291,-16.44481 5.152,-31.2393 12.248,-52.93771 50.6005,-101.98202 107.9658,-138.064305 10.8337,-6.814298 38.2749,-20.803458 51.9678,-26.492478 3.575,-1.48532 8.3,-3.4953 10.5,-4.46663 4.1165,-1.81751 30.8792,-10.85058 38,-12.82592 2.2,-0.6103 7.15,-1.98828 11,-3.0622 21.3336,-5.95075 42.5527,-9.93392 74.5,-13.98485 52.0162,-6.59568 115.9657,-3.58507 166.9052,7.85755 5.1729,1.162 9.6935,2.29081 10.0457,2.50848 0.3521,0.21767 3.9948,1.30629 8.0947,2.41916 8.7786,2.38286 27.1731,8.53932 31.4544,10.52748 1.65,0.76625 5.925,2.61358 9.5,4.10519 14.8168,6.1821 29.396,14.41181 28,15.80554 -0.275,0.27454 -2.0978,-0.279 -4.0507,-1.2301 -10.3745,-5.05273 -34.6776,-13.83465 -47.4493,-17.14584 -1.65,-0.42777 -5.475,-1.44725 -8.5,-2.26551 -11.0466,-2.98807 -37.3085,-8.25452 -46,-9.22467 -3.025,-0.33765 -8.65,-1.01378 -12.5,-1.50251 -3.85,-0.48872 -18.7874,-1.66967 -33.1942,-2.62432 -22.8714,-1.51555 -29.1505,-1.58075 -49.5,-0.51399 -38.6407,2.02562 -63.0036,5.18989 -93.8058,12.18354 -1.925,0.43707 -5.75,1.28438 -8.5,1.88291 -19.9736,4.34718 -44.2651,12.35348 -67.2399,22.16176 -54.6867,23.346478 -98.725,58.085723 -125.4395,98.951713 -14.3691,21.9808696 -25.409,50.81527 -30.0554,78.5 -1.6254,9.68429 -2.1202,51.738387 -0.7237,61.500007 5.4681,38.22094 17.9282,72.04594 37.272,101.18118 15.2408,22.9553 40.8968,49.83311 61.6249,64.55967 14.1458,10.05011 20.6912,14.27159 30.9356,19.95218 6.2557,3.46883 11.7416,6.30697 12.191,6.30697 0.4493,0 1.0659,0.40285 1.3702,0.89522 1.1322,1.83199 -2.0898,1.6726 -6.9352,-0.34309 z m 332.5,-57.32131 c 0,-1.40514 11.3723,-6.96769 20.596,-10.07415 5.4137,-1.82328 14.3199,-3.74748 22,-4.7531 11.2358,-1.47121 14.7138,-1.53147 26.904,-0.46612 16.671,1.45695 26.8966,3.1877 26.9565,4.56255 0.027,0.63006 -10.4999,1.23595 -28.4565,1.63779 -33.9734,0.76029 -48.2937,2.67858 -61.3721,8.22121 -4.1834,1.7729 -6.6279,2.09445 -6.6279,0.87182 z m 194.2218,-4.4639 c -2.9606,-1.42649 -2.3477,-3.05692 1.4402,-3.83164 1.6569,-0.33887 3.6483,-1.02544 4.4253,-1.5257 0.777,-0.50027 2.2729,-0.90958 3.3244,-0.90958 5.555,0 0.981,-5.45915 -7.1188,-8.4964 -9.2894,-3.48335 -20.8427,-4.89919 -52.7929,-6.46975 -59.2449,-2.91227 -68.0931,-3.91188 -79.057,-8.93132 -6.0063,-2.74978 -11.843,-8.21977 -16.8827,-15.82213 -3.9023,-5.88665 -11.773,-24.43768 -11.3344,-26.71506 0.1552,-0.80604 3.4304,2.9808 7.2782,8.4152 12.4423,17.57304 27.082,28.14237 43.4959,31.40247 14.3348,2.84717 24.8592,4.12755 46,5.59631 54.5503,3.78989 69.0836,6.98093 76.3433,16.76247 1.9483,2.62503 1.9637,2.89121 0.362,6.25 -1.6331,3.42453 -3.9541,4.53276 -5.2162,2.49061 -0.3852,-0.62333 -1.6227,-0.23588 -3.1939,1 -2.8721,2.25917 -3.7995,2.36203 -7.0734,0.78452 z m -436.2218,-12.89978 c -18.3955,-2.67832 -29.9059,-6.1687 -44.315,-13.43791 -52.2383,-26.35347 -85.1051,-70.65972 -94.1605,-126.93338 -2.1285,-13.227567 -2.0952,-47.092007 0.056,-56.548447 0.8691,-3.82108 1.9375,-6.94741 2.3742,-6.94741 0.4367,0 1.0701,5.0625 1.4074,11.25 1.1316,20.75343 2.7601,33.62405 6.1681,48.75 0.9293,4.124997 2.0248,9.074997 2.4343,10.999997 2.3398,10.99823 9.6874,29.45163 16.5561,41.58023 12.2977,21.71508 27.8566,38.74081 47.5024,51.98085 27.5185,18.54568 53.4255,25.37004 91.4774,24.09674 28.7901,-0.96337 38.7888,-2.8342 68.9789,-12.90641 43.9211,-14.6532 72.7664,-35.61093 107.0137,-77.7514 12.9198,-15.8975 24.6156,-27.846 29.5074,-30.14473 1.925,-0.9046 4.7071,-2.20189 6.1825,-2.88288 1.4754,-0.68098 3.4734,-0.93466 4.4401,-0.56372 1.4403,0.55269 0.5365,1.77649 -5.0073,6.7799 -8.7611,7.90725 -17.8645,19.4602 -33.9459,43.07997 -7.0723,10.38764 -21.7514,27.4972 -29.8677,34.81307 -13.4125,12.08974 -34.0643,25.16996 -52.0522,32.96822 -5.0872,2.20547 -10.1495,4.41915 -11.2495,4.91928 -8.9254,4.05804 -36.5221,11.75647 -51,14.22706 -18.1731,3.10115 -50.1574,4.46802 -62.5,2.67097 z m 303,-79.40232 c 0,-0.84435 0.6385,-2.53185 1.419,-3.75 1.823,-2.84551 5.581,-14.40379 5.581,-17.1654 0,-4.14905 -26.5093,-32.6651 -33.411,-35.94015 -4.1332,-1.96135 -4.6736,-3.60928 -1.1835,-3.60928 6.0651,0 12.8866,5.62646 34.4563,28.42016 l 8.3618,8.83632 -0.6725,5.12176 c -0.3698,2.81697 -1.767,6.99647 -3.1047,9.28778 -4.4926,7.69496 -11.4464,13.04032 -11.4464,8.79881 z m 137.9364,-18.48804 c -38.6016,-6.80309 -64.7236,-30.07559 -73.433,-65.422627 -8.6045,-34.92078 -0.5423,-72.1138404 20.6048,-95.0557 4.6645,-5.06045 5.9064,-5.29518 13.8252,-2.61297 24.2049,8.1986095 53.8678,11.0587995 78.6344,7.5821795 12.313,-1.7284395 18.6902,-3.1910295 30.6769,-7.0356695 3.6125,-1.15869 6.0711,-1.48801 6.624,-0.88729 1.071,1.16359 -12.2179,32.42422 -14.5197,34.15574 -1.3001,0.97801 -2.9163,0.53531 -8.7224,-2.38921 -9.5376,-4.8040704 -16.1044,-6.9749304 -25.4065,-8.3989104 -6.6202,-1.0134501 -8.9853,-0.9384301 -16.1438,0.51208 -4.613,0.93471 -10.4548,2.76492 -12.9818,4.0671204 -17.3839,8.95827 -26.6635,29.09786 -23.2054,50.36261 3.5174,21.62982 23.8095,35.76646 47.4994,33.09093 8.9689,-1.01294 10.5448,-1.63945 11.6881,-4.64655 0.5078,-1.3358 0.9234,-11.62442 0.9234,-22.86362 v -20.4349 h 25 25 v 45.41788 45.417887 l -7.75,2.5592 c -25.1807,8.31514 -54.4978,10.77909 -78.3136,6.58182 z m -527.6917,-2.74621 c -0.9948,-0.67772 -1.2023,-20.02811 -1,-93.292827 l 0.2553,-92.43775 h 41 c 45.8208,0 49.6825,0.38436 61.4338,6.11453 13.7274,6.69378 22.1426,17.64051 25.7232,33.4614295 2.3318,10.3037001 0.8865,23.9039805 -3.5221,33.1414205 -2.8641,6.00104 -10.2917,14.376 -15.6349,17.62906 -1.9363,1.17886 -1.9408,1.25641 -0.1396,2.43559 9.9766,6.53132 14.2599,11.66412 17.9835,21.55012 1.8177,4.82575 2.1291,7.74791 2.096,19.66785 -0.038,13.553717 -0.1438,14.246787 -3.3293,21.741877 -6.5116,15.32048 -17.0039,23.25773 -37.6106,28.45161 -4.6845,1.18072 -14.7701,1.60875 -46,1.95224 -22,0.24196 -40.5649,0.0552 -41.2553,-0.41515 z m 66.2587,-45.555767 c 9.057,-3.05518 11.0218,-5.58936 10.9258,-14.0924 -0.095,-8.45046 -2.5079,-11.88196 -9.8553,-14.01789 -2.96,-0.86049 -7.675,-1.56452 -10.4778,-1.56452 h -5.0961 v 15.33333 c 0,8.43334 0.3,15.63334 0.6666,16 1.3152,1.315147 7.0642,0.62605 13.8368,-1.65852 z m 1.0677,-70.79704 c 6.5917,-1.65982 9.4385,-5.51025 9.3929,-12.7045 -0.061,-9.5646905 -4.8575,-13.17327048 -17.5111,-13.17327048 h -7.4529 v 13.50000048 13.5 h 5.5572 c 3.0564,0 7.5627,-0.505 10.0139,-1.12223 z m 88.6736,116.294667 c -0.9952,-0.63185 -1.2023,-19.94552 -1,-93.234687 l 0.2553,-92.43775 51.6797,-0.25896 c 48.5728,-0.2434 51.7131,-0.15322 52.2337,1.5 0.3046,0.96743 1.9038,9.40896 3.5538,18.75896 1.65,9.35 3.5099,19.5454295 4.1332,22.65649952 0.6232,3.11107998 0.8291,6.14858008 0.4574,6.75000008 -0.4656,0.75326 -10.3161,1.0935 -31.6589,1.0935 h -30.9831 l 0.2921,7.7500004 0.2921,7.75 20.25,0.27071 20.25,0.2707 v 26.4793 26.47929 h -20.5457 -20.5457 l 0.2957,6.75 0.2957,6.75 34,0.21485 c 18.7,0.11817 33.945,0.56817 33.8777,1 -0.1081,0.69489 -1.7619,6.71033 -4.3396,15.785147 -0.4686,1.65 -1.3991,5.475 -2.0676,8.50001 -0.6685,3.025 -1.5981,6.4 -2.0657,7.5 -0.4676,1.1 -1.7554,5.54543 -2.8619,9.87872 -1.1064,4.3333 -2.5238,8.4958 -3.1498,9.25 -0.9367,1.12871 -10.0051,1.36857 -51.2656,1.35597 -27.5701,-0.008 -50.6924,-0.37394 -51.3828,-0.81226 z m 266.5743,-1.70305 c -5.1305,-2.67164 -12.9426,-10.04111 -25.5953,-24.14519 -8.1087,-9.03889 -19.0698,-17.494517 -24.4185,-18.836947 -3.9046,-0.97998 -6.2092,-3.86381 -4.9573,-6.20304 1.4965,-2.79623 2.3623,-13.34595 1.3774,-16.78421 -0.7696,-2.68698 -1.3244,-3.03084 -5.3168,-3.29558 -3.7891,-0.25126 -5.4081,0.31888 -10.798,3.80257 -6.8727,4.44202 -15.8568,13.21937 -19.7746,19.31944 -1.4916,2.32253 -3.9075,4.40432 -6.1467,5.296777 -11.1408,4.44025 -18.2168,8.77355 -25.8516,15.83132 -4.4892,4.15001 -8.5991,7.54548 -9.133,7.54548 -1.2149,0 -2.5401,-61.358467 -2.635,-122.0000075 l -0.07,-44.4999995 11.6483,-0.28086 11.6483,-0.28085 7.3517,8.36045 c 4.0434,4.59825 10.7267,12.35356 14.8517,17.23402 4.125,4.88046 9.5567,11.1446395 12.0704,13.9203995 2.5137,2.77576 10.3708,11.7968401 17.4601,20.0468405 7.0894,8.25 13.3577,15 13.9297,15 0.6965,0 1.1264,-12.30516 1.302,-37.2671505 l 0.2622,-37.2671395 25.0088,0.26714 25.0089,0.26715 -0.031,92.36192 c -0.017,50.799057 -0.2782,92.761567 -0.5801,93.250007 -0.7705,1.24666 -1.3306,1.1075 -6.6117,-1.64254 z m 205.181,1.42158 c 0,-0.60997 2.7471,-9.04747 6.1048,-18.75 11.0883,-32.041657 20.5878,-59.343427 28.4067,-81.640967 4.2429,-12.1 11.0019,-31.45 15.02,-43.00000048 14.1684,-40.72769952 12.2461,-36.59825952 17.9685,-38.59783952 7.2231,-2.52399 28.4355,-2.5341 38.12,-0.0182 8.3994,2.18209 16.6304,6.43653 19.8459,10.25793 1.5178,1.80372 9.1892,23.5964895 22.5454,64.04605 11.1347,33.72162 23.6343,71.552467 27.7769,84.068577 4.1426,12.5161 7.1981,23.0911 6.7901,23.5 -0.4081,0.4089 -12.2927,0.74346 -26.4102,0.74346 h -25.6681 l -2.214,-4.5 c -1.2176,-2.475 -3.2491,-6.75 -4.5144,-9.5 l -2.3006,-5 -29.9855,-0.24298 c -16.492,-0.13364 -30.5485,0.11823 -31.2366,0.55969 -0.6881,0.44147 -2.3094,4.37581 -3.6028,8.74298 -1.7821,6.01728 -2.9323,8.23947 -4.7489,9.17557 -3.2242,1.66143 -51.8972,1.80746 -51.8972,0.15573 z m 107.2128,-69.437077 c 0.3003,-0.30036 -1.1665,-5.81286 -3.2596,-12.25 -2.0931,-6.43714 -5.6934,-17.77889 -8.0006,-25.20389 -2.3073,-7.425 -4.5116,-13.84864 -4.8986,-14.27475 -0.3869,-0.42611 -2.1722,4.07389 -3.9673,10 -1.7951,5.92611 -5.2921,17.20037 -7.7711,25.05391 -2.479,7.85354 -4.2532,14.94104 -3.9428,15.75 0.4628,1.20615 3.3295,1.47084 15.9291,1.47084 8.4506,0 15.6105,-0.24575 15.9109,-0.54611 z m 90.8245,69.091127 c -0.9267,-1.11668 -1.1296,-19.31086 -0.8724,-78.250007 l 0.3351,-76.79501 3.2557,-4.04891 c 4.8811,-6.07009 12.2697,-11.25727 22.0105,-15.45242 10.1748,-4.38203 22.5541,-7.2784 24.176,-5.65644 0.7216,0.7216 1.0578,21.34164 1.0578,64.88117 v 63.8234 l 34.1168,-0.0733 c 18.7643,-0.0403 34.3449,0.15477 34.6236,0.43347 0.2787,0.2787 0.1499,1.31363 -0.2861,2.29985 -1.2276,2.77686 -10.2568,33.467297 -12.5543,42.672677 -2.093,8.38578 3.3114,7.62046 -53.8127,7.62046 -43.2743,0 -51.0222,-0.21658 -52.05,-1.45499 z m -503.3707,-14.21168 c -1.2329,-1.23291 -0.681,-4.88205 1.3417,-8.87189 2.9274,-5.77413 19.4616,-22.009947 26.4917,-26.013607 3.3,-1.87935 5.4151,-3.42394 4.7003,-3.43242 -2.0717,-0.0246 -7.2471,2.92808 -13.3744,7.63022 -3.1207,2.3949 -5.9332,4.354357 -6.25,4.354357 -1.431,0 -0.3403,-3.630757 2.0744,-6.905607 7.1879,-9.74809 16.1395,-17.09439 20.8298,-17.09439 2.3844,0 2.5199,0.29249 2.5199,5.44098 0,2.99254 -0.45,5.7191 -1,6.05902 -0.55,0.33992 -1,2.02203 -1,3.73802 0,5.23653 -5.2528,19.780007 -6.4465,17.848537 -0.3885,-0.62856 0.035,-4.09834 0.9408,-7.71063 0.9059,-3.612287 1.4281,-6.786877 1.1603,-7.054647 -0.9975,-0.99748 -9.6173,8.525337 -17.2074,19.009897 -9.0411,12.48901 -12.3675,15.41521 -14.7806,13.00216 z m 477.3334,-79.875497 c 0,-1.79282 -3.5281,-17.19624 -5.4875,-23.95784 -7.6036,-26.2395305 -21.2753,-49.06807 -36.9481,-61.6943 -12.359,-9.95661 -30.6258,-16.99275 -47.0644,-18.12855 -11.0123,-0.76088 -36.8446,1.56366 -40.1621,3.61401 -0.6343,0.39199 -2.2073,0.29037 -3.4956,-0.22583 -2.2977,-0.92068 -2.2887,-0.93976 0.4734,-1.00194 1.5487,-0.0349 3.7881,-0.58377 4.9765,-1.21978 9.3023,-4.97847 38.7464,-7.31491 55.2078,-4.38084 25.4663,4.53912 42.2937,14.26291 57.5461,33.25315 5.5047,6.85379 13.9539,21.9307695 13.9539,24.89987952 0,2.59190998 2.0977,1.39465 3.5198,-2.00894002 3.0176,-7.2222895 8.9504,-16.0689795 15.3277,-22.8560495 6.7415,-7.1747 19.3306,-16.28299 24.0635,-17.41006 1.424,-0.33909 3.039,-0.95251 3.589,-1.36316 0.55,-0.41066 2.575,-1.07983 4.5,-1.48706 l 3.5,-0.74042 -1.905,2.12494 c -1.0477,1.16872 -2.3242,2.12495 -2.8366,2.12495 -2.3188,0 -16.5054,11.00902 -22.423,17.40066 -11.603,12.53228 -19.9767,34.1708196 -22.4129,57.91715 -1.2274,11.96419 -1.9467,15.68219 -3.0338,15.68219 -0.4888,0 -0.8887,-0.24397 -0.8887,-0.54216 z m -259,-66.99268 c -5.225,-1.34008 -10.4,-2.84466 -11.5,-3.34352 -1.1,-0.49885 -4.4671,-1.87381 -7.4824,-3.05546 -6.8184,-2.67204 -14.0176,-6.83635 -14.0176,-8.10833 0,-1.31743 0.1662,-1.28721 8.7292,1.5873 14.0579,4.71907 26.5046,6.7103 42.2708,6.76248 20.9334,0.0693 31.6363,-2.38568 49.5,-11.35397 13.449,-6.75195 25.8076,-16.10692 38.75,-29.33219 5.9125,-6.04174 10.75,-10.522962 10.75,-9.958265 0,1.833055 -7.4939,12.658085 -13.8755,20.043305 -15.5887,18.04032 -36.0437,31.26467 -56.7057,36.66071 -13.9763,3.64998 -32.4176,3.6889 -46.4188,0.0979 z m -40.3937,-20.69037 c -1.5952,-2.41003 -1.6653,-3.33525 -0.6062,-8 8.1191,-35.760274 23.7319,-63.442183 48.319,-85.671053 19.2327,-17.38814 48.5327,-32.38367 72.6809,-37.19769 23.4501,-4.67484 50.2669,-4.78767 72.4521,-0.30483 3.8763,0.78327 9.2979,1.84477 12.0479,2.35889 15.11,2.82483 35.8276,9.95363 50.9743,17.5399 6.5888,3.3 12.1116,6.47743 12.2729,7.06097 0.1614,0.58353 -2.1912,1.84419 -5.2281,2.80146 -8.5847,2.70611 -22.7306,10.16933 -30.6569,16.17434 -3.9613,3.00107 -7.3634,5.29541 -7.5602,5.09854 -2.1461,-2.14609 10.5148,-15.0079 18.407,-18.69907 2.8649,-1.33993 5.2274,-2.78488 5.25,-3.211 0.023,-0.42611 -1.1965,-1.22289 -2.709,-1.77063 -1.5125,-0.54774 -3.65,-1.40706 -4.75,-1.90962 -2.8875,-1.31919 -12.6278,-4.48691 -23,-7.48004 -13.3693,-3.858 -15.5707,-4.40611 -20.5,-5.10432 -2.475,-0.35056 -7.2,-1.08225 -10.5,-1.62598 -9.6796,-1.59485 -46.0312,-2.18302 -54,-0.87371 -21.5146,3.5349 -28.9879,5.87718 -47.8485,14.99673 -27.8453,13.46391 -47.8252,31.32425 -64.3963,57.564818 -7.5582,11.968517 -15.4898,32.412495 -18.0317,46.477505 l -0.8133,4.5 z m 301.6295,-2.81182 c -6.6202,-1.34063 -16.1004,-5.97168 -23.2358,-11.3507 -3.575,-2.69498 -15.95,-14.2112 -27.5,-25.591588 -11.55,-11.380387 -23.4133,-22.573875 -26.3629,-24.874425 -16.8786,-13.16446 -42.3764,-22.66421 -67.8625,-25.28367 -35.4611,-3.64469 -73.6063,4.58388 -104.1011,22.45643 -3.3635,1.97126 -6.3228,3.24841 -6.5764,2.83812 -0.7882,-1.27537 13.3816,-12.01644 22.4029,-16.98192 27.9015,-15.35754 49.9919,-21.02858 77,-19.76743 20.2272,0.94452 36.2406,4.92261 54.7716,13.60655 19.6992,9.23133 23.6953,12.38296 55.2284,43.556785 30.239,29.894568 38.1143,35.562198 54.3241,39.095358 2.1032,0.45844 3.9032,1.28352 4,1.83352 0.2287,1.30055 -6.651,1.56404 -12.0883,0.46297 z m -351.992,-16.56599 c -5.1813,-2.62995 -28.631,-28.396975 -25.8431,-28.396975 0.5156,0 8.1821,6.528443 18.6298,15.864165 8.2356,7.3591 8.2447,7.36385 13.1448,6.89301 11.9398,-1.14727 21.2028,-16.92164 14.7521,-25.122325 -2.6917,-3.42195 -3.3199,-3.32966 -5.7861,0.85011 -3.3324,5.648083 -4.7851,3.82808 -5.4197,-6.78993 -0.7753,-12.973258 0.2718,-13.720798 7.7232,-5.513478 8.4383,9.294448 10.9836,14.082338 10.836,20.38381 -0.3389,14.473973 -16.9894,27.439233 -28.037,21.831613 z m -52.1381,-36.298185 c -2.6178,-2.44545 -3.1057,-3.63574 -3.1057,-7.576928 0,-3.81554 0.5283,-5.20403 2.8718,-7.54758 1.5796,-1.57952 4.1401,-3.19015 5.6901,-3.57917 6.276,-1.5752 14.6182,6.76693 13.043,13.04301 -2.0865,8.313118 -12.3106,11.441658 -18.4992,5.660668 z m 11.6718,-3.6555 c 1.2223,-0.85619 2.2225,-2.514678 2.2225,-3.685548 0,-2.89741 -3.8249,-6.75774 -6.6958,-6.75774 -4.814,0 -5.6642,9.1129 -1.0243,10.979898 3.0267,1.2179 2.9871,1.22176 5.4976,-0.53661 z"
       id="path1" />
  </g>
</svg>
