<svg
   version="1.1"
   id="svg1"
   width="139.21034"
   height="62.594719"
   viewBox="0 0 139.21034 62.594719"
   xmlns="http://www.w3.org/2000/svg"
   xmlns:svg="http://www.w3.org/2000/svg">
  <defs
     id="defs1" />
  <g
     id="g1"
     transform="translate(-178.45018,-4.507111)">
    <path
       style="fill:#000000"
       d="m 197.06696,67.065249 c -2.67543,-0.232189 -5.14056,-0.934561 -7.59437,-2.163806 l -0.75942,-0.380434 -0.0983,-0.993646 c -0.14119,-1.427757 -0.19939,-2.378893 -0.20387,-3.331579 l -0.004,-0.834977 -0.54077,-0.40013 c -0.29742,-0.220072 -0.71105,-0.551975 -0.91917,-0.737562 -0.20812,-0.185588 -0.39697,-0.337432 -0.41966,-0.337432 -0.0444,0 -0.56449,2.078451 -0.84961,3.39557 -0.0961,0.443929 -0.19186,0.826019 -0.21281,0.849088 -0.0578,0.06365 -1.68317,-1.567858 -2.31589,-2.324629 -4.66772,-5.582873 -5.95894,-13.137307 -3.41869,-20.001456 0.15494,-0.418662 0.52908,-1.26219 0.83142,-1.874506 1.62147,-3.283823 3.87798,-5.850977 6.96102,-7.919323 2.60242,-1.745907 5.84294,-2.912814 9.0175,-3.247183 0.35081,-0.03695 0.64375,-0.07132 0.65097,-0.07637 0.007,-0.0051 -0.0482,-0.282991 -0.12327,-0.617644 -0.4175,-1.862367 -0.4159,-3.920958 0.005,-5.802973 0.40194,-1.799328 1.35884,-3.811094 2.4672,-5.187026 0.18497,-0.229619 0.33673,-0.444978 0.33725,-0.478576 0.001,-0.09509 -0.57947,-0.998466 -0.99881,-1.5532 -0.78141,-1.033722 -1.49004,-1.725861 -2.34015,-2.285709 -0.71292,-0.4695 -0.80812,-0.510529 -0.93216,-0.401756 -0.32869,0.288213 -0.85277,0.361723 -1.22004,0.171128 -0.44184,-0.229298 -0.64992,-0.6871692 -0.55126,-1.2130642 0.0501,-0.267151 0.36812,-0.610828 0.67289,-0.72722 0.59414,-0.226907 1.29629,0.181531 1.39723,0.812766 0.032,0.200336 0.0458,0.210721 0.51404,0.388508 1.09079,0.4141432 1.80686,0.9010012 2.81908,1.9166912 0.42864,0.430105 0.96453,1.026239 1.19087,1.324743 0.22634,0.298504 0.42076,0.542735 0.43205,0.542735 0.0113,0 0.26446,-0.202705 0.56259,-0.450454 1.15361,-0.958662 2.57958,-1.784814 3.96075,-2.294706 l 0.63543,-0.234588 0.0729,-0.36099 c 0.31085,-1.5401882 1.40292,-3.1873272 2.69496,-4.0647332 0.53445,-0.362941 1.33927,-0.718639 1.99231,-0.880526 0.56014,-0.138856 0.60746,-0.161832 0.82875,-0.402434 0.35026,-0.380815 0.7785,-0.479695 1.21169,-0.279768 0.54574,0.251876 0.77619,0.842378 0.53551,1.372218 -0.37216,0.819315 -1.52451,0.839403 -1.90636,0.03323 -0.0673,-0.142008 -0.12695,-0.26482 -0.13265,-0.272917 -0.0339,-0.04814 -0.85077,0.25722 -1.2458,0.46568 -1.0886,0.57447 -1.81303,1.406759 -2.32105,2.666622 -0.19575,0.485455 -0.43714,1.3575332 -0.38908,1.4056032 0.0161,0.01609 0.2115,5.94e-4 0.43424,-0.03443 2.75076,-0.4325502 5.33077,-0.06639 7.75278,1.100293 1.36629,0.658143 2.37079,1.355766 3.42205,2.376615 1.59272,1.546631 2.60891,3.127148 3.31518,5.156227 1.11532,3.204215 0.9535,6.656553 -0.45731,9.756463 -0.1672,0.367389 -0.31728,0.699005 -0.33351,0.736923 -0.0234,0.05477 8.26604,0.0724 40.31947,0.08576 37.42648,0.0156 40.39775,0.02359 41.02226,0.110335 3.08798,0.428903 5.64226,1.490027 8.12181,3.374041 0.7078,0.537805 2.26843,2.085419 2.86984,2.845899 1.02796,1.29987 2.16373,3.29838 2.68897,4.731532 1.19181,3.251934 1.45212,6.564365 0.78055,9.932401 -0.42735,2.14324 -1.33411,4.346302 -2.53962,6.170216 -0.71742,1.085458 -1.31853,1.821637 -2.23901,2.74212 -2.57268,2.572676 -5.58443,4.110524 -9.24252,4.719368 l -0.72364,0.120442 -46.75867,0.02831 -46.75867,0.02831 -0.30434,0.1866 c -0.53657,0.328987 -1.78776,0.931969 -2.59024,1.248304 -1.6976,0.669184 -3.29884,1.074211 -5.12119,1.295382 -0.87483,0.106174 -3.10788,0.148905 -3.95222,0.07563 z m 2.31223,-1.385617 c 4.21413,-0.204689 7.84648,-1.560247 11.10305,-4.143544 0.65992,-0.523486 1.92543,-1.750769 2.53004,-2.453606 2.56406,-2.980666 4.12423,-6.726182 4.45983,-10.706785 0.092,-1.091175 0.0377,-3.140013 -0.10936,-4.12796 -0.31398,-2.109033 -0.85447,-3.897048 -1.69769,-5.616212 -0.14105,-0.287571 -0.25646,-0.549012 -0.25646,-0.580979 0,-0.09017 -0.64138,-1.17163 -1.06593,-1.797329 l -0.38217,-0.563232 -0.70932,0.187712 c -1.50622,0.398597 -3.43065,0.540168 -4.88421,0.359307 -2.76874,-0.344502 -5.45228,-1.580895 -7.40933,-3.413715 l -0.2842,-0.266161 -0.65828,0.755946 c -4.13089,4.743782 -7.1312,10.158663 -8.7312,15.757805 -0.69383,2.428007 -1.13109,4.857831 -1.37592,7.645837 -0.0929,1.058308 -0.11837,5.129717 -0.038,6.090209 l 0.0647,0.774195 0.61587,0.290678 c 2.18884,1.033107 4.56207,1.650071 6.93062,1.801742 0.38447,0.02462 0.72409,0.04795 0.7547,0.05184 0.0306,0.0039 0.54509,-0.01669 1.14327,-0.04575 z m 1.33383,-3.379017 c -1.48499,-0.246635 -2.69924,-1.018009 -3.24132,-2.059115 -0.93231,-1.790554 0.26993,-3.70258 2.74752,-4.36963 0.60372,-0.162542 1.91618,-0.177069 2.51794,-0.02787 2.17863,0.540163 3.49178,2.163824 3.06748,3.792821 -0.41434,1.590741 -2.21601,2.716187 -4.31231,2.693758 -0.35208,-0.0038 -0.70277,-0.01725 -0.77931,-0.02996 z m 11.55815,-6.052911 c -0.78021,-0.286054 -1.05034,-1.505383 -0.6701,-3.024683 0.29664,-1.185291 1.08314,-2.609272 1.90615,-3.451144 0.63798,-0.6526 1.19394,-0.959603 1.73775,-0.959603 0.4573,0 0.77085,0.233399 1.00954,0.751479 0.11317,0.245635 0.12815,0.363319 0.12754,1.001971 -9.5e-4,1.00931 -0.19331,1.752182 -0.7351,2.83892 -0.41128,0.824963 -0.82492,1.409268 -1.39977,1.977297 -0.77712,0.767903 -1.44491,1.060487 -1.97601,0.865763 z m -13.16825,-5.711137 c -1.33928,-0.28197 -2.45715,-1.113785 -3.05867,-2.275993 -0.32461,-0.627175 -0.4578,-1.110825 -0.49262,-1.788785 -0.0682,-1.328995 0.40823,-2.506323 1.38447,-3.420851 0.50313,-0.471321 0.89742,-0.71238 1.51133,-0.923986 1.66902,-0.575284 3.42329,-0.153615 4.61455,1.109188 2.0308,2.152754 1.39314,5.644313 -1.26349,6.91832 -0.24493,0.117456 -0.59562,0.254013 -0.77931,0.303459 -0.39218,0.105565 -1.56063,0.153521 -1.91626,0.07865 z m 12.23346,-7.646706 c -0.86712,-0.309741 -1.60158,-1.221533 -1.88398,-2.33884 -0.12526,-0.495586 -0.14709,-1.247312 -0.0498,-1.713973 0.0859,-0.411785 0.33885,-0.924047 0.60648,-1.2281 0.65399,-0.742964 1.73687,-0.769605 2.59807,-0.06392 0.52367,0.42911 0.98499,1.265629 1.15484,2.094075 0.35979,1.754919 -0.52387,3.334711 -1.86031,3.325848 -0.19901,-0.0013 -0.4534,-0.03511 -0.56533,-0.07509 z m 91.24586,18.477679 c 2.97552,-0.376391 5.53764,-1.603993 7.67254,-3.676198 2.78862,-2.706716 4.32763,-6.294747 4.44388,-10.360395 0.0365,-1.276568 -0.0272,-2.15994 -0.24236,-3.361535 -0.74106,-4.138345 -3.19146,-7.780058 -6.60593,-9.817546 -1.54779,-0.923603 -3.09824,-1.474836 -5.07542,-1.804481 -0.51552,-0.08595 -3.61384,-0.09397 -41.93589,-0.108498 l -41.37923,-0.01569 -0.53657,0.491057 c -1.03232,0.944749 -1.91221,1.568085 -3.0415,2.154674 -0.33678,0.174931 -0.61989,0.324869 -0.62915,0.333195 -0.009,0.0083 0.14435,0.262236 0.34134,0.564241 1.90257,2.916862 2.98021,6.068566 3.2711,9.566844 0.0714,0.859178 0.0394,2.909321 -0.0583,3.729561 -0.30453,2.556489 -0.98501,4.814209 -2.12233,7.041633 -0.90808,1.778457 -1.8931,3.164737 -3.43883,4.839692 l -0.46527,0.504156 h 44.58196 c 38.61311,0 44.66738,-0.01081 45.21999,-0.08071 z m 2.23001,-4.135922 c 0.15826,-0.298504 0.38459,-0.723162 0.50294,-0.943684 0.11835,-0.220523 0.21518,-0.423754 0.21518,-0.451625 0,-0.02787 -0.36364,-0.704449 -0.80809,-1.503507 -0.44446,-0.799059 -0.82288,-1.49134 -0.84094,-1.538403 -0.0284,-0.07393 0.0544,-0.08557 0.60836,-0.08557 h 0.64119 l 0.51081,0.946306 c 0.28095,0.520469 0.52099,0.946307 0.53342,0.946307 0.0124,0 0.23581,-0.425838 0.49638,-0.946307 l 0.47378,-0.946306 h 0.612 c 0.41502,0 0.61201,0.02009 0.61201,0.06241 0,0.03433 -0.59266,1.174071 -1.31702,2.532762 l -1.31703,2.470347 h -0.60537 -0.60537 z m -74.45757,-0.478376 c -0.60913,-0.202026 -1.08671,-0.619535 -1.34713,-1.17766 -0.1382,-0.2962 -0.15577,-0.396975 -0.15527,-0.890642 5.1e-4,-0.501435 0.0167,-0.589659 0.16313,-0.889427 0.20691,-0.423546 0.58109,-0.79793 1.00599,-1.006547 0.31016,-0.152282 0.37769,-0.163628 0.97343,-0.163558 0.55947,6.6e-5 0.67323,0.01651 0.90268,0.130496 0.4192,0.208246 0.74374,0.531629 0.94613,0.942741 0.17169,0.348753 0.18296,0.407703 0.18296,0.957292 0,0.527578 -0.0159,0.620002 -0.15999,0.932023 -0.19703,0.426548 -0.63325,0.854867 -1.07841,1.058863 -0.38179,0.174956 -1.07232,0.226218 -1.43352,0.106419 z m 1.14549,-1.332064 c 0.5243,-0.353328 0.62893,-1.022634 0.23335,-1.492754 -0.43484,-0.516776 -1.33297,-0.412351 -1.62399,0.188821 -0.33736,0.696897 0.11859,1.428673 0.89098,1.429978 0.23279,3.93e-4 0.35945,-0.03156 0.49966,-0.126045 z m 14.87081,1.173707 c -0.63906,-0.09715 -1.18166,-0.519446 -1.47769,-1.150047 -0.15593,-0.332159 -0.17397,-0.424749 -0.17541,-0.90015 -0.002,-0.487699 0.0129,-0.559373 0.18044,-0.899796 0.20881,-0.424242 0.46107,-0.668909 0.90088,-0.873763 0.26299,-0.122497 0.38699,-0.143934 0.83751,-0.144791 0.66375,-0.0013 1.00916,0.11101 1.38719,0.45089 0.38296,0.344318 0.57292,0.759198 0.58198,1.271095 l 0.007,0.392283 -1.31482,-0.02029 c -0.93549,-0.01443 -1.32602,-0.0022 -1.35362,0.04248 -0.0639,0.103431 0.12202,0.641388 0.26963,0.780059 0.14702,0.138118 0.53247,0.212291 0.78015,0.150127 0.0778,-0.01952 0.23322,-0.127298 0.34542,-0.239504 l 0.20401,-0.20401 0.47774,0.06907 c 0.26276,0.03799 0.48759,0.07892 0.49963,0.09096 0.0521,0.05211 -0.28989,0.535979 -0.52531,0.7432 -0.42501,0.37411 -1.01543,0.534801 -1.62467,0.442181 z m 1.10071,-2.58069 c 0,-0.150205 -0.15933,-0.401685 -0.33272,-0.525148 -0.32672,-0.232643 -0.84495,-0.116231 -1.06116,0.238373 -0.21949,0.359968 -0.19698,0.373037 0.6424,0.373037 0.64157,0 0.75148,-0.01262 0.75148,-0.08626 z m 14.59684,2.58069 c -0.58139,-0.08839 -1.16172,-0.51366 -1.4339,-1.050793 -0.16896,-0.333427 -0.27092,-0.92265 -0.22427,-1.296035 0.0795,-0.636213 0.49202,-1.199375 1.08069,-1.475281 0.27744,-0.130032 0.38311,-0.14736 0.89888,-0.147399 0.52604,-4e-5 0.61589,0.01538 0.89852,0.154174 0.63098,0.309865 1.01119,0.896761 1.01799,1.571399 l 0.004,0.389656 -1.32127,-0.02047 c -1.11834,-0.01733 -1.32606,-0.008 -1.35237,0.06055 -0.0171,0.04456 0.0139,0.216001 0.0688,0.380982 0.12438,0.373454 0.35926,0.55308 0.72321,0.55308 0.29142,0 0.52107,-0.107782 0.67246,-0.315611 l 0.11053,-0.151734 0.48757,0.06524 c 0.26816,0.03588 0.50059,0.07826 0.51651,0.09418 0.062,0.06201 -0.19785,0.443658 -0.4762,0.69939 -0.45268,0.415888 -1.03321,0.585656 -1.67109,0.488683 z m 1.1005,-2.591842 c -3.7e-4,-0.174522 -0.20467,-0.438116 -0.41804,-0.539366 -0.428,-0.203102 -0.91153,0.03138 -1.05483,0.511534 l -0.0374,0.125246 h 0.75523 c 0.68224,0 0.75521,-0.0094 0.75502,-0.09741 z m 23.00249,2.591842 c -0.5814,-0.08839 -1.16172,-0.51366 -1.43391,-1.050793 -0.16896,-0.333427 -0.27092,-0.92265 -0.22427,-1.296035 0.0795,-0.636684 0.49293,-1.200637 1.0807,-1.47432 0.26928,-0.125389 0.39026,-0.146537 0.84321,-0.147399 0.66373,-0.0013 1.00915,0.111011 1.38716,0.450876 0.3927,0.353069 0.58176,0.762447 0.5858,1.268469 l 0.003,0.394923 -1.32128,-0.02047 c -1.11833,-0.01733 -1.32605,-0.008 -1.35237,0.06055 -0.0171,0.04456 0.0139,0.216001 0.0688,0.380982 0.12437,0.373454 0.35926,0.55308 0.72321,0.55308 0.29142,0 0.52107,-0.107782 0.67246,-0.315611 l 0.11053,-0.151734 0.48757,0.06524 c 0.26816,0.03588 0.50059,0.07826 0.51651,0.09418 0.062,0.06201 -0.19785,0.443658 -0.4762,0.69939 -0.45268,0.415888 -1.03321,0.585656 -1.67109,0.488683 z m 1.07998,-2.675339 c -0.044,-0.230042 -0.37021,-0.540538 -0.57686,-0.549145 -0.38949,-0.01622 -0.63615,0.09437 -0.7963,0.357019 -0.21974,0.360387 -0.19772,0.373037 0.64936,0.373037 h 0.75844 z m 9.72089,2.676221 c -0.63921,-0.09856 -1.22538,-0.54457 -1.50643,-1.146223 -0.13186,-0.282274 -0.14921,-0.387031 -0.14964,-0.903766 -4.2e-4,-0.499296 0.0182,-0.622097 0.12791,-0.842554 0.20752,-0.417104 0.48397,-0.695416 0.88865,-0.894642 0.34607,-0.170368 0.41145,-0.183229 0.93006,-0.182951 0.48373,2.58e-4 0.59882,0.01949 0.86652,0.144791 0.67038,0.313787 1.05751,0.886573 1.07398,1.589032 l 0.009,0.381152 -1.34987,-0.02028 c -1.28735,-0.01934 -1.34987,-0.01547 -1.34957,0.0835 7.2e-4,0.240858 0.13519,0.556562 0.31263,0.734009 0.1828,0.182796 0.2033,0.189186 0.53092,0.165488 0.31121,-0.02251 0.35854,-0.0437 0.54554,-0.244168 l 0.20477,-0.219518 0.51104,0.07648 c 0.28108,0.04206 0.51105,0.09613 0.51105,0.120145 0,0.02402 -0.0835,0.165389 -0.18557,0.314157 -0.44224,0.644635 -1.19069,0.965655 -1.97093,0.845352 z m 1.09865,-2.592724 c -3.5e-4,-0.162871 -0.20707,-0.448426 -0.39498,-0.545598 -0.35596,-0.184072 -0.79405,-0.06564 -0.99869,0.269975 -0.21949,0.359968 -0.19698,0.373037 0.6424,0.373037 0.67866,0 0.75146,-0.0094 0.75127,-0.09741 z m -72.22523,2.549113 c -0.61522,-0.131932 -1.15318,-0.420037 -1.57851,-0.845364 -0.34484,-0.344845 -0.53262,-0.645179 -0.71151,-1.13802 -0.55285,-1.523082 0.26988,-3.229226 1.83267,-3.80054 0.36331,-0.132815 0.4716,-0.146193 1.13366,-0.140045 0.5678,0.0053 0.8175,0.0328 1.1133,0.122717 0.59462,0.180759 0.58281,0.162727 0.56425,0.861592 l -0.0159,0.599995 -0.23044,-0.169624 c -0.33232,-0.244613 -0.65972,-0.347676 -1.11611,-0.351345 -0.34168,-0.0027 -0.45325,0.02287 -0.76247,0.1751 -0.43949,0.216363 -0.76457,0.566956 -0.92815,1.001015 -0.16467,0.436957 -0.13704,1.189791 0.0585,1.594643 0.18942,0.392111 0.59815,0.772586 0.98798,0.919681 0.59453,0.224338 1.36746,0.09139 1.85534,-0.319137 l 0.16316,-0.137287 v 0.647937 0.647937 l -0.19458,0.0813 c -0.53357,0.222942 -1.68039,0.354698 -2.17119,0.249446 z m 9.39761,-0.08268 c -0.32407,-0.101172 -0.57899,-0.269063 -0.84232,-0.554741 -0.4389,-0.476149 -0.61753,-1.063619 -0.50765,-1.669545 0.0609,-0.335644 0.24286,-0.742857 0.42763,-0.956778 0.19282,-0.223245 0.62245,-0.513803 0.8922,-0.603403 0.34474,-0.114501 0.7388,-0.04251 1.06643,0.194821 0.12375,0.08964 0.23774,0.162988 0.25331,0.162988 0.0156,0 0.0283,-0.526036 0.0283,-1.168967 v -1.168967 h 0.55665 0.55665 v 2.840867 2.840866 l -0.57057,-0.01586 c -0.54361,-0.01512 -0.5714,-0.02178 -0.58834,-0.141001 l -0.0178,-0.125138 -0.1773,0.135235 c -0.33263,0.253709 -0.72927,0.338259 -1.07723,0.229626 z m 0.87012,-1.0318 c 0.27842,-0.142037 0.45563,-0.394781 0.48988,-0.69868 0.0773,-0.685549 -0.31336,-1.155432 -0.96056,-1.155432 -0.54083,0 -0.91846,0.347266 -0.96311,0.885653 -0.0348,0.418975 0.10264,0.713169 0.42997,0.92076 0.306,0.194056 0.68192,0.211919 1.00382,0.0477 z m 39.20982,1.057336 c -0.28192,-0.05976 -0.61324,-0.224312 -0.84606,-0.420216 l -0.17381,-0.146254 0.25456,-0.29485 0.25455,-0.29485 0.31212,0.18795 c 0.52363,0.315315 1.01449,0.221895 1.01449,-0.193079 0,-0.203235 -0.12833,-0.316157 -0.50755,-0.446628 -0.66907,-0.230194 -0.92989,-0.430108 -1.04991,-0.804721 -0.14756,-0.460562 0.13462,-1.109664 0.58332,-1.341827 0.33583,-0.173763 1.10639,-0.161036 1.55449,0.02567 0.18142,0.07559 0.33868,0.164601 0.34947,0.197793 0.0108,0.03319 -0.0813,0.187056 -0.20459,0.341921 l -0.22419,0.281573 -0.20663,-0.105345 c -0.30061,-0.153261 -0.60306,-0.140113 -0.71523,0.03109 -0.1489,0.227244 -0.0621,0.339203 0.40932,0.527833 0.64292,0.257263 0.80252,0.356517 0.98471,0.612399 0.38867,0.545885 0.0725,1.428831 -0.63128,1.762786 -0.23051,0.109384 -0.82308,0.149689 -1.15778,0.07875 z m 17.78502,-0.07536 c -0.57152,-0.213079 -0.98131,-0.589032 -1.22826,-1.126833 -0.18905,-0.411705 -0.18006,-1.106731 0.0198,-1.533036 0.19917,-0.42476 0.47951,-0.719815 0.89601,-0.943034 0.31153,-0.166956 0.40562,-0.189278 0.87775,-0.208232 0.41634,-0.01671 0.58684,5.76e-4 0.8016,0.08129 l 0.27278,0.102519 -0.0121,0.500102 c -0.007,0.275056 -0.02,0.508 -0.0297,0.517653 -0.01,0.0097 -0.10974,-0.04501 -0.22242,-0.12148 -0.41706,-0.283027 -0.99257,-0.236995 -1.33646,0.106897 -0.50501,0.505006 -0.36201,1.406328 0.27582,1.738455 0.2685,0.139814 0.75741,0.10918 1.05669,-0.06621 l 0.25144,-0.14735 v 0.47834 0.47834 l -0.20875,0.09013 c -0.28115,0.12139 -1.14352,0.153374 -1.41422,0.05245 z m -54.78591,-0.106508 c 0.0231,-0.03827 0.47551,-0.652785 1.00525,-1.365589 0.52975,-0.712804 0.96317,-1.307725 0.96317,-1.322046 0,-0.01432 -0.38931,-0.02604 -0.86515,-0.02604 h -0.86515 l 0.0163,-0.431404 0.0163,-0.431404 1.7952,-0.01469 c 0.98736,-0.0081 1.7952,0.0012 1.7952,0.02071 0,0.01947 -0.45322,0.652309 -1.00715,1.406314 l -1.00715,1.370919 0.95148,0.01523 0.95149,0.01523 v 0.416174 0.416173 h -1.8959 c -1.50205,0 -1.88716,-0.01445 -1.85381,-0.06958 z m 4.48651,-1.75345 0.0147,-1.823031 0.57057,-0.01586 0.57056,-0.01586 v 1.838895 1.838895 h -0.58524 -0.58525 z m 6.49966,-0.01392 v -1.836948 h 0.55665 0.55665 v 0.170454 0.170454 l 0.23658,-0.166772 c 0.5819,-0.410205 1.42664,-0.346919 1.89045,0.141629 0.28795,0.303315 0.32223,0.516219 0.32223,2.001335 v 1.356795 h -0.55665 -0.55665 l -0.001,-1.127217 c -7.3e-4,-0.61997 -0.0245,-1.227416 -0.0528,-1.349879 -0.13869,-0.600544 -0.90115,-0.648203 -1.14738,-0.07172 -0.085,0.199081 -0.10547,0.430491 -0.1231,1.393766 l -0.0211,1.15505 h -0.55178 -0.55179 z m 4.6202,0 v -1.836948 h 0.55665 0.55665 v 0.170454 0.170454 l 0.23658,-0.166772 c 0.5819,-0.410205 1.42664,-0.346919 1.89045,0.141629 0.28795,0.303315 0.32223,0.516219 0.32223,2.001335 v 1.356795 h -0.55665 -0.55665 l -0.001,-1.127217 c -7.3e-4,-0.61997 -0.0245,-1.227416 -0.0528,-1.349879 -0.13869,-0.600544 -0.90115,-0.648203 -1.14738,-0.07172 -0.085,0.199081 -0.10547,0.430491 -0.1231,1.393766 l -0.0211,1.15505 h -0.55181 -0.55179 z m 4.57769,0.01392 0.0147,-1.823031 0.57057,-0.01586 0.57057,-0.01586 v 1.838895 1.838895 h -0.58525 -0.58525 z m 9.33858,-0.01392 v -1.836948 h 0.58448 0.58449 v 0.176698 0.176699 l 0.12524,-0.114522 c 0.25627,-0.234329 0.498,-0.316833 0.93239,-0.318235 0.32569,-10e-4 0.47596,0.02714 0.68341,0.128203 0.59838,0.291508 0.70822,0.66131 0.70822,2.384283 v 1.240769 h -0.58448 -0.58449 v -1.216325 c 0,-0.746634 -0.0238,-1.284672 -0.0617,-1.393318 -0.12424,-0.356396 -0.66133,-0.461115 -0.9393,-0.18314 -0.23763,0.23763 -0.27864,0.486558 -0.27898,1.693398 l -3.1e-4,1.099385 h -0.58449 -0.58448 z m 4.6202,-0.0019 v -1.838895 l 0.57057,0.01586 0.57057,0.01586 0.0147,1.823031 0.0147,1.823031 h -0.58525 -0.58524 z m 5.62217,-1.000024 v -2.838919 h 0.55584 0.55583 l 0.0147,1.682016 0.0147,1.682017 0.61071,-0.680045 0.6107,-0.680045 h 0.71134 c 0.39124,0 0.71134,0.01924 0.71134,0.04275 0,0.02351 -0.361,0.380464 -0.80223,0.793227 -0.44123,0.412763 -0.80445,0.770826 -0.80715,0.795695 -0.003,0.02487 0.39728,0.494544 0.88884,1.043721 l 0.89375,0.998502 -0.7685,-0.0042 -0.7685,-0.0042 -0.64015,-0.759653 -0.64015,-0.759654 -0.0155,0.763903 -0.0155,0.763902 h -0.55508 -0.55509 z m 4.52203,1.015888 0.0147,-1.823031 0.57057,-0.01586 0.57056,-0.01586 v 1.838895 1.838895 h -0.58524 -0.58524 z m 17.29869,-0.01197 v -1.838895 h 0.58448 0.58448 v 0.176698 0.176699 l 0.12525,-0.114522 c 0.31464,-0.2877 0.79366,-0.398455 1.2835,-0.296763 0.40281,0.08362 0.7105,0.311489 0.87783,0.650084 0.1287,0.260421 0.13444,0.323546 0.15243,1.676156 l 0.0187,1.405543 h -0.58871 -0.5887 v -1.216325 c 0,-0.746634 -0.0238,-1.284672 -0.0617,-1.393318 -0.11366,-0.326043 -0.61758,-0.451265 -0.90528,-0.224959 -0.26896,0.211559 -0.28388,0.286913 -0.31332,1.582138 l -0.0278,1.224632 -0.57057,0.01586 -0.57056,0.01586 z m -56.83999,-2.701575 c -0.21725,-0.118081 -0.32805,-0.32617 -0.32805,-0.616096 0,-0.219212 0.0285,-0.286482 0.18926,-0.447279 0.16671,-0.16671 0.22375,-0.189261 0.47872,-0.189261 0.25497,0 0.31201,0.02255 0.47872,0.189261 0.15442,0.154427 0.18926,0.231777 0.18926,0.420253 0,0.127045 -0.038,0.304471 -0.0844,0.394279 -0.15587,0.301413 -0.60439,0.422274 -0.92347,0.248843 z m 15.64214,-0.04396 c -0.54922,-0.369591 -0.2804,-1.20868 0.38723,-1.20868 0.29623,0 0.47084,0.09854 0.59291,0.334605 0.33267,0.6433 -0.37942,1.278323 -0.98014,0.874075 z m 13.89138,-0.05363 c -0.47076,-0.434651 -0.1913,-1.15505 0.44806,-1.15505 0.28329,0 0.49807,0.128927 0.61091,0.366707 0.13843,0.291734 0.0827,0.561655 -0.16284,0.788343 -0.16098,0.148638 -0.24092,0.180912 -0.44807,0.180912 -0.20714,0 -0.28708,-0.03227 -0.44806,-0.180912 z m 10.25974,0.09377 c -0.19863,-0.107772 -0.32078,-0.35122 -0.32078,-0.63931 0,-0.188476 0.0348,-0.265826 0.18926,-0.420253 0.16671,-0.16671 0.22376,-0.189261 0.47872,-0.189261 0.25497,0 0.31201,0.02255 0.47872,0.189261 0.15443,0.154427 0.18926,0.231777 0.18926,0.420253 0,0.127045 -0.038,0.304471 -0.0844,0.394279 -0.15743,0.304438 -0.60439,0.422108 -0.93074,0.245031 z m -40.50811,-2.811225 c -1.65038,-0.35624 -2.80074,-1.312888 -3.29135,-2.737095 -0.44775,-1.299802 -0.31007,-2.920308 0.34251,-4.031266 0.30798,-0.524304 1.11123,-1.289745 1.63785,-1.56075 0.83408,-0.429227 1.13099,-0.490776 2.33794,-0.484652 1.23939,0.0063 1.62274,0.08377 2.46444,0.498121 0.39792,0.195882 0.60886,0.345856 0.92072,0.654616 0.82961,0.821346 1.21896,1.786316 1.30128,3.225115 l 0.0343,0.598807 h -3.15358 -3.15358 l 5.4e-4,0.292241 c 0.001,0.565013 0.35179,1.099924 0.90122,1.374481 0.30578,0.152801 0.39302,0.170226 0.85227,0.170226 0.2814,0 0.59677,-0.02894 0.70084,-0.0643 0.26393,-0.08969 0.57145,-0.317654 0.719,-0.532993 l 0.12472,-0.182016 h 1.41957 1.41957 l -0.0316,0.194793 c -0.0455,0.280636 -0.33688,0.844906 -0.62722,1.214832 -0.45238,0.576384 -1.26828,1.072706 -2.1736,1.322235 -0.65404,0.180268 -2.02138,0.203976 -2.74579,0.04761 z m 2.91753,-5.687968 c -0.0708,-0.237462 -0.30043,-0.583621 -0.50792,-0.765795 -0.35532,-0.311981 -0.65234,-0.416001 -1.18784,-0.416001 -0.53549,0 -0.83251,0.10402 -1.18784,0.416001 -0.20748,0.182174 -0.43707,0.528333 -0.50791,0.765795 l -0.0374,0.125246 h 1.73312 1.73312 z m 6.83964,5.742049 c -0.41615,-0.0695 -1.1354,-0.344514 -1.53349,-0.586335 -0.4772,-0.28989 -1.12466,-0.917899 -1.43648,-1.393342 -0.53282,-0.812402 -0.75659,-1.655067 -0.7064,-2.660105 0.0376,-0.753463 0.13445,-1.134935 0.45287,-1.784244 0.76185,-1.553558 2.2925,-2.490007 4.06767,-2.488597 0.89636,7.11e-4 1.44642,0.186838 2.16943,0.734083 0.20307,0.153708 0.38043,0.279469 0.39411,0.279469 0.0137,0 0.0249,-1.05207 0.0249,-2.337934 v -2.337933 h 1.47513 1.47512 v 6.179733 6.179734 l -1.48904,-0.01483 -1.48904,-0.01483 -0.0144,-0.306158 c -0.0271,-0.574098 -0.0255,-0.573218 -0.39181,-0.224675 -0.38032,0.361905 -0.84628,0.624757 -1.32741,0.748806 -0.36911,0.09517 -1.18455,0.108414 -1.67112,0.02715 z m 2.33395,-2.685499 c 0.36199,-0.177108 0.78046,-0.605016 0.9495,-0.970934 0.0969,-0.209863 0.12089,-0.363172 0.11918,-0.763571 -0.002,-0.43876 -0.0221,-0.54102 -0.16321,-0.823313 -0.1962,-0.392589 -0.54442,-0.724084 -0.96604,-0.91964 -0.4485,-0.208023 -1.07273,-0.208601 -1.51939,-0.0014 -1.18369,0.54909 -1.52907,2.050846 -0.68705,2.98738 0.45845,0.509906 0.8707,0.686655 1.53643,0.658726 0.32302,-0.01355 0.49859,-0.05374 0.73058,-0.167243 z m 15.80653,2.633611 c -1.22464,-0.265328 -2.16184,-0.79515 -2.82178,-1.595226 -0.38417,-0.465752 -0.59971,-0.876347 -0.7843,-1.494089 -0.12779,-0.427648 -0.14958,-0.603572 -0.15147,-1.223135 -0.003,-0.883312 0.0882,-1.30043 0.44221,-2.030005 0.21858,-0.450437 0.32956,-0.600125 0.76351,-1.029804 0.33932,-0.335984 0.652,-0.583973 0.94262,-0.747593 1.81078,-1.019505 4.34755,-0.95136 6.03785,0.162193 0.96372,0.634895 1.59912,1.544004 1.8255,2.611888 0.11743,0.553963 0.10217,1.565243 -0.0316,2.095969 -0.40257,1.596794 -1.63982,2.755361 -3.4223,3.204659 -0.68179,0.171852 -2.10917,0.194864 -2.80021,0.04514 z m 1.96153,-2.56293 c 0.6344,-0.237359 1.13354,-0.885174 1.22614,-1.591349 0.0795,-0.606351 -0.2602,-1.366402 -0.77639,-1.737101 -0.3603,-0.25875 -0.667,-0.354161 -1.15189,-0.358346 -0.37149,-0.0032 -0.47269,0.01926 -0.7896,0.175273 -1.08512,0.534201 -1.43113,1.844662 -0.7489,2.836351 0.20431,0.296987 0.60447,0.597921 0.93479,0.702996 0.37786,0.120197 0.94238,0.108168 1.30585,-0.02782 z m 29.7739,2.614818 c -0.41614,-0.0695 -1.1354,-0.344514 -1.53348,-0.586335 -0.7449,-0.452503 -1.48988,-1.319048 -1.82826,-2.126583 -0.49262,-1.175641 -0.42481,-2.644351 0.17536,-3.797954 0.61207,-1.176476 1.69603,-2.003731 3.02858,-2.311358 0.5901,-0.136227 1.51635,-0.120862 2.00395,0.03324 0.50701,0.16024 0.7193,0.271241 1.16745,0.610448 0.20308,0.153708 0.38043,0.279469 0.39412,0.279469 0.0137,0 0.0249,-0.175345 0.0249,-0.389656 v -0.389655 h 1.47513 1.47512 v 3.470266 c 0,1.908647 -0.0164,3.812392 -0.0365,4.230546 l -0.0365,0.76028 h -1.49433 -1.49433 v -0.423484 -0.423484 l -0.33906,0.313914 c -0.37805,0.350008 -0.83622,0.603947 -1.31437,0.728489 -0.3455,0.08999 -1.19335,0.101102 -1.66784,0.02186 z m 2.34793,-2.666399 c 1.16526,-0.561825 1.45537,-2.069543 0.58206,-3.025077 -0.72846,-0.797054 -1.93736,-0.830686 -2.71673,-0.07558 -0.98431,0.953663 -0.6507,2.650904 0.61989,3.153722 0.4077,0.161339 1.12199,0.136316 1.51478,-0.05306 z m -69.55432,-1.697939 v -4.202714 h 1.50296 1.50296 v 4.202714 4.202713 h -1.50296 -1.50296 z m 42.80645,0 v -4.202714 h 1.46917 c 1.28834,0 1.47333,0.01084 1.50296,0.08805 0.0186,0.04843 0.0341,0.280134 0.0344,0.514902 l 6.2e-4,0.426852 0.14948,-0.194828 c 0.42044,-0.548002 1.08689,-0.974627 1.73072,-1.107904 0.4108,-0.08504 1.14706,-0.07617 1.64896,0.01986 1.16268,0.222457 1.87207,0.919377 2.21239,2.173512 0.11539,0.425213 0.1219,0.580423 0.14421,3.437319 l 0.0234,2.991998 h -1.50789 -1.50788 l -4.2e-4,-2.379682 c -4.4e-4,-2.454033 -0.0325,-2.926176 -0.22403,-3.301654 -0.25995,-0.509547 -0.91927,-0.728911 -1.64305,-0.546661 -0.33095,0.08333 -0.7024,0.418592 -0.85385,0.770653 -0.19105,0.444112 -0.22535,0.94236 -0.22718,3.300322 l -0.002,2.212687 h -1.47513 -1.47512 z m -53.54981,-2.030438 v -6.18666 l 2.825,0.01964 c 2.68935,0.0187 2.84561,0.0254 3.25401,0.139521 1.58966,0.444205 2.25795,1.439047 2.20647,3.284663 -0.0184,0.659895 -0.0321,0.735824 -0.19566,1.081542 -0.18686,0.395077 -0.51997,0.797204 -0.87431,1.055459 -0.23205,0.169123 -0.2357,0.164553 0.21578,0.269845 1.00105,0.233461 1.71909,1.012609 1.95481,2.121169 0.12114,0.569737 0.0784,1.619446 -0.0846,2.077756 -0.40592,1.141118 -1.28233,1.813862 -2.81646,2.161967 -0.46224,0.104883 -0.73242,0.115536 -3.49299,0.137717 l -2.992,0.02404 z m 5.01787,3.647901 c 0.71523,-0.151596 1.04755,-0.420996 1.16462,-0.944107 0.12696,-0.56731 -0.10724,-1.083897 -0.60552,-1.33564 -0.373,-0.188452 -0.77163,-0.256093 -1.59692,-0.270974 l -0.72364,-0.01305 -0.0149,1.322046 -0.0149,1.322046 0.71074,-9.67e-4 c 0.39498,-5.37e-4 0.87504,-0.03579 1.08057,-0.07935 z m -0.342,-5.133298 c 0.34688,-0.154626 0.59537,-0.452379 0.64309,-0.77059 0.0489,-0.326188 -0.006,-0.670851 -0.14318,-0.892166 -0.21219,-0.34333 -0.88828,-0.581222 -1.65496,-0.582325 l -0.29225,-4.21e-4 v 1.20395 1.20395 l 0.5984,-0.02537 c 0.43576,-0.01847 0.66649,-0.05572 0.8489,-0.137028 z m 31.22811,3.460169 v -4.202713 h 1.50295 1.50296 l 0.002,0.681897 0.002,0.681897 0.11924,-0.166995 c 0.23446,-0.328356 0.74575,-0.782699 1.07922,-0.959018 0.45586,-0.241034 0.94257,-0.347299 1.59519,-0.348289 l 0.54273,-8.22e-4 v 1.419459 c 0,0.780703 -0.0133,1.41946 -0.0296,1.41946 -0.0163,0 -0.18536,-0.05254 -0.37574,-0.116761 -0.46554,-0.157032 -1.43501,-0.134992 -1.8241,0.04147 -0.35447,0.160757 -0.6482,0.435178 -0.81219,0.758797 -0.26341,0.519829 -0.29627,0.851879 -0.29732,3.004306 l -9.7e-4,1.990026 h -1.50303 -1.50295 z m 28.2222,-1.948277 v -6.150992 h 1.50295 1.50296 v 3.461233 3.461234 l 1.52478,-1.512956 1.52478,-1.512955 h 2.05063 2.05063 l -0.16592,0.159919 c -0.14351,0.138316 -3.96348,3.662318 -4.0322,3.719789 -0.014,0.01168 0.98789,1.034739 2.22634,2.273474 l 2.25173,2.252245 h -2.09756 -2.09757 l -1.6039,-1.678929 -1.60391,-1.678929 -0.0147,1.678929 -0.0147,1.678929 h -1.50214 -1.50214 z m -52.32518,-3.360819 c -0.76353,-0.251245 -1.1945,-0.836168 -1.1945,-1.621206 0,-0.500458 0.129,-0.827115 0.45561,-1.153729 0.34586,-0.345857 0.68919,-0.486009 1.18421,-0.483401 0.67872,0.0036 1.2066,0.334757 1.50725,0.945607 0.1871,0.380168 0.19111,1.054966 0.008,1.399705 -0.31955,0.602627 -0.79039,0.912064 -1.43207,0.941153 -0.21431,0.0097 -0.45228,-0.0029 -0.52882,-0.02813 z m -50.86965,18.908315 c 0.95473,-3.743476 2.06755,-7.38082 2.99403,-9.78616 1.87591,-4.870242 4.40783,-9.351703 7.59434,-13.441839 0.98079,-1.258925 2.31249,-2.802549 3.24264,-3.758672 l 0.40615,-0.417488 -0.36359,-0.556651 c -0.34859,-0.533683 -1.1345,-2.049285 -1.1345,-2.187842 0,-0.09084 -0.37763,-0.08537 -1.2263,0.01776 -4.88865,0.594064 -9.3698,3.067919 -12.41318,6.852796 -2.52769,3.143544 -3.96665,6.908642 -4.16901,10.908362 -0.23687,4.681867 1.26301,9.24708 4.23293,12.883812 0.27764,0.339975 0.51777,0.605167 0.53362,0.589317 0.0159,-0.01585 0.15214,-0.512378 0.30287,-1.103395 z m -3.60925,-6.360861 c -0.32386,-0.140847 -0.69043,-0.767797 -0.91243,-1.560519 -0.38548,-1.376456 -0.43074,-3.409741 -0.10229,-4.594987 0.55212,-1.992412 1.66963,-1.457686 2.16941,1.038058 0.18112,0.904457 0.21192,2.55503 0.0633,3.389934 -0.16819,0.94456 -0.40906,1.491684 -0.74759,1.698085 -0.21262,0.129639 -0.2365,0.131133 -0.47036,0.02943 z m 4.5118,-9.405316 c -1.03407,-0.235892 -1.78289,-0.986337 -2.02489,-2.029271 -0.10197,-0.439462 -0.0423,-1.494528 0.11052,-1.954762 0.56957,-1.715127 1.9995,-3.106755 3.57355,-3.477831 0.45688,-0.107708 1.21606,-0.107431 1.6308,5.95e-4 0.87965,0.229119 1.55118,0.910342 1.83269,1.859135 0.11462,0.386332 0.11692,1.30085 0.005,1.777914 -0.34575,1.466713 -1.42219,2.805532 -2.78151,3.459505 -0.79366,0.381832 -1.67194,0.518394 -2.34562,0.364715 z m 3.0971,-9.589057 c -0.30122,-0.05055 -0.48955,-0.138282 -0.64488,-0.300417 -0.55955,-0.584036 0.29809,-1.662963 1.94576,-2.44781 1.55202,-0.739284 3.17962,-0.850327 3.57688,-0.244032 0.58501,0.892838 -1.5295,2.560829 -3.73362,2.945195 -0.46984,0.08193 -0.84452,0.09735 -1.14414,0.04706 z m 22.33051,1.953742 c 5.13029,-0.662503 9.16618,-4.529931 10.07314,-9.652673 0.14503,-0.819153 0.1984,-2.328469 0.11023,-3.117245 -0.46192,-4.132513 -2.88128,-7.600125 -6.54612,-9.382407 -3.13125,-1.522789 -6.72993,-1.57454 -9.93622,-0.142888 -2.55496,1.140825 -4.71403,3.30082 -5.85477,5.857274 -1.28044,2.869521 -1.38279,6.01763 -0.29067,8.940749 1.49379,3.998239 5.16663,6.925082 9.40185,7.492223 0.83395,0.111675 2.19898,0.113903 3.04256,0.005 z m -1.37261,-1.448199 c -2.04022,-0.212163 -3.2998,-0.76778 -4.51167,-1.990163 -0.64537,-0.650968 -1.17597,-1.413701 -1.5766,-2.266379 -0.25803,-0.549174 -0.61937,-1.542773 -0.61937,-1.703116 0,-0.191157 -0.28563,0.04806 -0.64292,0.538438 l -0.26362,0.361823 0.0344,-0.302785 c 0.0458,-0.403317 0.26317,-0.83162 0.56159,-1.106694 0.32345,-0.298146 0.8299,-0.459255 1.53517,-0.488363 l 0.52882,-0.02182 -0.31951,0.08169 c -0.17572,0.04493 -0.42442,0.135214 -0.55265,0.200632 l -0.23314,0.118941 0.13517,0.107355 c 0.41893,0.332726 1.39089,0.931766 1.97211,1.215451 1.62343,0.79237 3.51195,1.226266 4.98203,1.144642 1.51486,-0.08411 3.16733,-0.314584 4.49591,-0.627056 0.34496,-0.08113 0.60797,-0.164955 0.58449,-0.186276 -0.0235,-0.02132 -0.14198,-0.07054 -0.26332,-0.109387 -0.3256,-0.104233 -0.76883,-0.571879 -0.8912,-0.940296 -0.13739,-0.413649 -0.0941,-0.900327 0.11427,-1.283077 0.18558,-0.340975 0.3922,-0.528188 0.77939,-0.70621 0.40828,-0.187715 0.72355,-0.217045 1.11374,-0.103612 1.03894,0.302028 1.44271,1.809471 0.69843,2.607549 l -0.14673,0.157329 0.167,-0.0412 c 0.0918,-0.02266 0.2484,-0.075 0.3479,-0.116327 0.0995,-0.04132 0.18091,-0.06417 0.18091,-0.05077 0,0.0134 -0.16525,0.161533 -0.36723,0.329185 -0.32007,0.265666 -0.38316,0.35038 -0.49117,0.659479 -0.33235,0.951134 -0.93722,1.907392 -1.66941,2.639225 -0.94837,0.947901 -2.02947,1.515218 -3.38788,1.777813 -0.44738,0.08648 -1.85141,0.150097 -2.2949,0.103978 z m 0.48707,-0.558421 c 0.11481,-0.01898 0.20875,-0.06386 0.20875,-0.09975 0,-0.09515 -0.42095,-0.929497 -0.53925,-1.068842 -0.25235,-0.297226 -0.92692,-0.576966 -1.3913,-0.576966 -0.13222,0 -0.24039,0.0094 -0.24039,0.02083 0,0.01146 0.0376,0.12733 0.0835,0.257491 0.0459,0.130162 0.0835,0.250995 0.0835,0.268518 0,0.01752 -0.16727,-0.214136 -0.37171,-0.514798 -0.20444,-0.300661 -0.4692,-0.617275 -0.58835,-0.703586 -0.25446,-0.184334 -0.75906,-0.359431 -1.26655,-0.439499 -0.38146,-0.06019 -1.16896,-0.07897 -1.16896,-0.02788 0,0.07572 0.2587,0.530498 0.47726,0.838989 0.47809,0.674809 1.21814,1.254517 2.01603,1.57922 0.68625,0.27927 1.24783,0.394521 2.40523,0.493616 0.0459,0.0039 0.17744,-0.0084 0.29225,-0.02735 z m 6.55503,-5.72963 c 0.431,-0.232155 0.67017,-0.618856 0.5872,-0.949417 -0.0958,-0.381612 -0.58245,-0.613728 -1.17215,-0.559052 -0.9855,0.09137 -1.56676,0.844497 -1.07981,1.399098 0.21787,0.248148 0.41615,0.308833 0.94268,0.288524 0.33831,-0.01305 0.47808,-0.04773 0.72208,-0.179153 z m -8.12757,-1.901241 c -1.04218,-0.395583 -2.28227,-2.923748 -2.28227,-4.652848 v -0.331837 l 0.47316,0.03839 c 0.26023,0.02111 0.47315,0.02101 0.47315,-2.32e-4 0,-0.02124 -0.14075,-0.261689 -0.31278,-0.534325 -0.17202,-0.272635 -0.31606,-0.534844 -0.32007,-0.582686 -0.0128,-0.15304 0.28276,-0.325824 0.54762,-0.320099 1.01663,0.02198 2.34388,2.209093 2.59645,4.278554 0.10672,0.874474 -0.0342,1.613109 -0.37225,1.951164 -0.16926,0.169262 -0.22835,0.193832 -0.45696,0.190005 -0.1444,-0.0024 -0.30012,-0.01866 -0.34605,-0.03609 z m 8.29032,-2.844535 c -0.46974,-0.297898 -0.97995,-0.976105 -1.47,-1.954011 -0.26,-0.518842 -0.59022,-1.4423 -0.6661,-1.862741 l -0.0391,-0.216787 0.42488,0.0385 c 0.49589,0.04494 0.49951,0.122249 -0.034,-0.72451 -0.32154,-0.510386 -0.33146,-0.536885 -0.2392,-0.638835 0.12794,-0.141372 0.4443,-0.137763 0.68305,0.0078 0.86812,0.529265 1.94065,2.499915 2.20998,4.060589 0.10292,0.596405 0.0747,1.002068 -0.0883,1.27019 -0.0909,0.149454 -0.14111,0.177241 -0.32037,0.177241 -0.1377,0 -0.30001,-0.05545 -0.46082,-0.157429 z"
       id="path1" />
  </g>
</svg>
