<svg id="BIEDRONKA" width="500" height="77.31839" viewBox="0 0 500 77.31839" version="1.1" xml:space="preserve" xmlns:xlink="http://www.w3.org/1999/xlink" xmlns="http://www.w3.org/2000/svg" xmlns:svg="http://www.w3.org/2000/svg">
	<path id="BIEDRONKA" style="fill:#000000;stroke:#000000;stroke-width:0" d="m 108.59778,76.680828 c -9.78495,-2.11211 -16.60532,-7.78398 -19.5141,-16.22797 -2.65467,-7.706402 -1.83838,-17.314226 2.03071,-23.900989 1.82598,-3.108548 6.58837,-7.646774 9.71065,-9.253537 4.94518,-2.544846 6.70553,-2.909764 13.86142,-2.873455 7.34823,0.03735 9.62107,0.496664 14.61143,2.953312 2.35923,1.161365 3.60987,2.050547 5.45886,3.881155 4.91868,4.869681 7.2271,10.590896 7.71517,19.121397 l 0.20336,3.550269 h -18.69727 -18.69728 l 0.003,1.732669 c 0.006,3.349909 2.08573,6.521339 5.34325,8.149169 1.81294,0.90594 2.33018,1.00925 5.05303,1.00925 1.66839,0 3.53819,-0.17158 4.15521,-0.38123 1.56482,-0.53176 3.38807,-1.88334 4.26288,-3.16006 l 0.73946,-1.07916 h 8.41649 8.41649 l -0.18735,1.15491 c -0.26976,1.66386 -1.99733,5.00937 -3.71873,7.20262 -2.68211,3.41733 -7.51951,6.35997 -12.88706,7.83941 -3.87774,1.06879 -11.98457,1.20935 -16.27953,0.28227 z m 17.29775,-33.723413 c -0.41977,-1.407889 -1.78122,-3.460233 -3.01141,-4.540325 -2.10666,-1.849705 -3.86766,-2.46643 -7.04259,-2.46643 -3.17487,0 -4.93587,0.616725 -7.04259,2.46643 -1.23012,1.080092 -2.59134,3.132436 -3.01135,4.540325 l -0.22174,0.742572 h 10.27551 10.2755 z m 40.55157,34.044053 c -2.46731,-0.41205 -6.73168,-2.04259 -9.09192,-3.47632 -2.82927,-1.71873 -6.668,-5.44213 -8.51675,-8.26099 -3.15904,-4.81665 -4.48575,-9.812734 -4.18817,-15.771508 0.22292,-4.467209 0.79714,-6.72892 2.68502,-10.578611 4.51693,-9.210896 13.59201,-14.763012 24.11682,-14.754652 5.31443,0.0042 8.57569,1.107744 12.86234,4.352307 1.20399,0.91132 2.25554,1.656945 2.33664,1.656945 0.0812,0 0.14763,-6.237622 0.14763,-13.861386 V 2.4458726 h 8.74591 8.74584 V 39.084916 75.723968 l -8.82837,-0.0879 -8.82838,-0.0879 -0.0854,-1.81519 c -0.16068,-3.40377 -0.15119,-3.39855 -2.32301,-1.33207 -2.25488,2.1457 -5.01751,3.70412 -7.87008,4.4396 -2.18842,0.56425 -7.02309,0.64277 -9.90791,0.16097 z m 13.83776,-15.92206 c 2.14621,-1.05006 4.62728,-3.58708 5.6295,-5.756576 0.57451,-1.244258 0.71674,-2.153212 0.70661,-4.527139 -0.0119,-2.601366 -0.13103,-3.207656 -0.96766,-4.881344 -1.16325,-2.327622 -3.22781,-4.293024 -5.72756,-5.452457 -2.65911,-1.233348 -6.36011,-1.236775 -9.00832,-0.0083 -7.01798,3.255501 -9.06571,12.159268 -4.07345,17.711886 2.71811,3.02319 5.1623,4.07111 9.10935,3.90553 1.91515,-0.0803 2.95609,-0.31862 4.33153,-0.99157 z m 93.7154,15.61442 c -7.26077,-1.5731 -12.81734,-4.71436 -16.73006,-9.45794 -2.27771,-2.7614 -3.55562,-5.19577 -4.65004,-8.85831 -0.75765,-2.535481 -0.88684,-3.578517 -0.89805,-7.251847 -0.0178,-5.237072 0.52293,-7.710124 2.62182,-12.035704 1.29594,-2.670598 1.95393,-3.558084 4.52678,-6.105609 2.01179,-1.992017 3.86564,-3.46232 5.5887,-4.432407 10.73594,-6.044547 25.77621,-5.640522 35.79783,0.961626 5.71381,3.764232 9.48103,9.154252 10.82322,15.485633 0.69623,3.284394 0.60575,9.280176 -0.18736,12.426798 -2.38679,9.46724 -9.72233,16.33627 -20.29048,19.00012 -4.04227,1.01889 -12.50507,1.15533 -16.60218,0.26763 z m 11.62973,-15.19536 c 3.76129,-1.40728 6.72064,-5.248112 7.26966,-9.434956 0.47135,-3.594997 -1.5427,-8.101266 -4.60314,-10.299105 -2.13618,-1.534104 -3.95458,-2.099786 -6.82945,-2.124599 -2.20252,-0.01897 -2.80253,0.114191 -4.68146,1.039177 -6.43357,3.167226 -8.48503,10.936824 -4.44015,16.816453 1.21133,1.76081 3.58384,3.54502 5.54228,4.168 2.24029,0.71263 5.58728,0.64131 7.74226,-0.16495 z m 176.52659,15.503 c -2.46726,-0.41205 -6.73168,-2.04259 -9.09186,-3.47632 -4.41644,-2.68285 -8.83335,-7.82051 -10.83958,-12.60831 -2.92069,-6.970259 -2.51865,-15.678099 1.0397,-22.517701 3.6289,-6.975213 10.0556,-11.879928 17.95616,-13.703819 3.49864,-0.807677 8.99029,-0.716579 11.88122,0.197077 3.00602,0.950047 4.26466,1.608162 6.9217,3.619287 1.20404,0.91132 2.25553,1.656945 2.3367,1.656945 0.0812,0 0.14763,-1.039604 0.14763,-2.310233 V 25.548167 H 491.25416 500 v 20.574874 c 0,11.316187 -0.0972,22.603307 -0.2164,25.082497 l -0.21641,4.50763 h -8.85974 -8.85974 v -2.5108 -2.51079 l -2.01025,1.86116 c -2.24142,2.07517 -4.95787,3.58075 -7.79278,4.31915 -2.04843,0.53354 -7.07525,0.59942 -9.88846,0.1296 z m 13.92065,-15.80882 c 6.90871,-3.33101 8.62875,-12.270121 3.45098,-17.93539 -4.31897,-4.725657 -11.48642,-4.925058 -16.10723,-0.448107 -5.83588,5.654176 -3.85794,15.716957 3.67526,18.698117 2.41722,0.95656 6.65217,0.8082 8.98099,-0.31459 z M 63.69635,51.125731 V 26.208244 h 8.9109 8.91091 v 24.917487 24.917477 h -8.91091 -8.9109 z m 253.79533,0 V 26.208244 h 8.71057 c 7.63844,0 8.73523,0.06427 8.9109,0.52204 0.11028,0.287137 0.20218,1.660887 0.20396,3.052804 l 0.004,2.530765 0.88625,-1.155117 c 2.49275,-3.249051 6.44407,-5.77847 10.26128,-6.568656 2.43559,-0.504194 6.8008,-0.451605 9.77652,0.117748 6.89342,1.318926 11.09932,5.450898 13.11705,12.886544 0.68414,2.521047 0.72273,3.441272 0.85501,20.379536 l 0.13873,17.73927 h -8.94013 -8.94008 l -0.002,-14.10891 c -0.003,-14.549725 -0.19269,-17.349016 -1.32825,-19.575189 -1.54122,-3.021055 -5.45026,-4.321643 -9.74149,-3.2411 -1.96217,0.494055 -4.16446,2.481791 -5.06239,4.569127 -1.13272,2.633098 -1.33608,5.587162 -1.34693,19.567292 l -0.0119,13.11881 h -8.7459 -8.74585 z M 0,39.08746 V 2.4073466 l 16.74915,0.116444 c 15.9449,0.11087 16.87135,0.150594 19.29272,0.827206 9.42494,2.633649 13.38716,8.5319724 13.08194,19.4744514 -0.10909,3.912454 -0.19031,4.36263 -1.16004,6.412359 -1.10788,2.342374 -3.08286,4.726546 -5.1837,6.257715 -1.37581,1.002714 -1.39745,0.975619 1.27933,1.599885 5.93513,1.384168 10.19232,6.003662 11.58988,12.576207 0.71823,3.377916 0.46483,9.601544 -0.50158,12.318814 -2.40666,6.76558 -7.60281,10.75422 -16.69852,12.8181 -2.74058,0.62184 -4.34245,0.685 -20.7096,0.81651 L 3e-4,75.767568 Z m 29.75047,21.628058 c 4.24053,-0.8988 6.21082,-2.49605 6.90492,-5.597524 0.75273,-3.363526 -0.63582,-6.426321 -3.59007,-7.918881 -2.21148,-1.117314 -4.57492,-1.518351 -9.46799,-1.606579 l -4.29039,-0.07737 -0.0883,7.838284 -0.0883,7.83828 4.21391,-0.006 c 2.3418,-0.003 5.18803,-0.2122 6.4066,-0.47046 z M 27.72278,30.280683 c 2.05662,-0.916762 3.5299,-2.682111 3.81282,-4.568754 0.28993,-1.933937 -0.0356,-3.977411 -0.8489,-5.289566 -1.25805,-2.035571 -5.26652,-3.446009 -9.8121,-3.452549 l -1.73272,-0.0025 v 7.138104 7.138104 l 3.54786,-0.150417 c 2.58358,-0.109507 3.95155,-0.330358 5.03304,-0.812426 z m 185.14847,20.51501 V 25.878211 h 8.91084 8.91091 l 0.0119,4.042902 0.0118,4.042902 0.70697,-0.990097 c 1.39009,-1.946791 4.42148,-4.640547 6.39859,-5.685926 2.70275,-1.429067 5.58841,-2.059102 9.45773,-2.064972 l 3.21779,-0.0049 v 8.415836 c 0,4.628713 -0.0788,8.415841 -0.17549,8.415841 -0.0967,0 -1.09899,-0.311504 -2.22773,-0.692264 -2.76014,-0.931028 -8.50804,-0.800355 -10.81491,0.245871 -2.10162,0.953113 -3.84312,2.580129 -4.8154,4.498835 -1.56173,3.082016 -1.75656,5.050709 -1.76278,17.812239 l -0.006,11.79867 h -8.91132 -8.91085 z M 380.19796,39.244546 V 2.7759046 h 8.91085 8.9109 V 23.297223 43.818547 l 9.04027,-8.970171 9.04028,-8.970165 h 12.15799 12.15799 l -0.98373,0.948145 c -0.85086,0.820062 -23.49909,21.713531 -23.90652,22.054271 -0.083,0.06925 5.8571,6.134868 13.19975,13.479211 l 13.35029,13.35334 H 429.6398 417.20351 l -9.50937,-9.95421 -9.50943,-9.954205 -0.0872,9.954205 -0.0872,9.95421 h -8.90604 -8.90605 z M 69.96699,19.318573 c -4.52689,-1.489608 -7.08207,-4.95756 -7.08207,-9.6119754 0,-2.967167 0.76483,-4.903885 2.70127,-6.840348 C 67.63676,0.81569659 69.67233,-0.01525141 72.60725,2.1158533e-4 76.63132,0.02155159 79.76107,1.9849536 81.54359,5.6066246 c 1.1093,2.253979 1.13308,6.2547924 0.0474,8.2987164 -1.89459,3.572918 -4.68615,5.40754 -8.49061,5.580006 -1.27062,0.05751 -2.68152,-0.01719 -3.13532,-0.16678 z" />
</svg>
