<svg
   version="1.1"
   id="Layer_1"
   x="0px"
   y="0px"
   viewBox="0 0 94.742184 47.500003"
   xml:space="preserve"
   width="94.742188"
   height="47.5"
   xmlns="http://www.w3.org/2000/svg"
   xmlns:svg="http://www.w3.org/2000/svg"><defs
   id="defs12" />
<style
   type="text/css"
   id="style1">
	.st0{fill:#FFFFFF;}
	.st1{fill:url(#SVGID_1_);}
	.st2{fill:url(#SVGID_00000095330598619493448740000012760375389027044013_);}
</style>

<linearGradient
   id="SVGID_1_"
   gradientUnits="userSpaceOnUse"
   x1="-855.06653"
   y1="15.931"
   x2="-855.06653"
   y2="14.942"
   gradientTransform="matrix(133.983,0,0,62.525,114772.71,-900.172)">
	<stop
   offset="0"
   style="stop-color:#5A5A5A"
   id="stop1" />
	<stop
   offset="0.146"
   style="stop-color:#484848"
   id="stop2" />
	<stop
   offset="0.52"
   style="stop-color:#212121"
   id="stop3" />
	<stop
   offset="0.817"
   style="stop-color:#080808"
   id="stop4" />
	<stop
   offset="1"
   style="stop-color:#000000"
   id="stop5" />
</linearGradient>

<g
   transform="translate(-1.4992213,-1.0999535)"
   id="g11"
   style="fill:#000000">
	<g
   id="g8"
   style="fill:#000000">
		<circle
   class="st0"
   cx="24.4"
   cy="8.1999998"
   r="7.0999999"
   id="circle5"
   style="fill:#000000" />
		<path
   class="st0"
   d="M 37.1,3.4 H 45 v 45 h -7.9 z"
   id="path6"
   style="fill:#000000" />
		<path
   class="st0"
   d="m 52,18.9 h 8 v 29.4 h -8 z"
   id="path7"
   style="fill:#000000" />
		<path
   class="st0"
   d="m 16.5,18.6 c -2.5,0 -4.9,0.6 -7.1,1.8 V 3.4 H 1.5 v 30.2 c 0,8.3 6.7,15 15,15 8.3,0 15,-6.7 15,-15 0,-8.3 -6.7,-15 -15,-15 z m 0,22.2 c -4,0 -7.2,-3.2 -7.2,-7.2 0,-4 3.2,-7.2 7.2,-7.2 4,0 7.2,3.2 7.2,7.2 0,4 -3.2,7.2 -7.2,7.2 z"
   id="path8"
   style="fill:#000000" />
	</g>
	
		<linearGradient
   id="SVGID_00000072260275382547737510000005307957689268922506_"
   gradientUnits="userSpaceOnUse"
   x1="-967.85132"
   y1="61.379799"
   x2="-967.14471"
   y2="62.087399"
   gradientTransform="matrix(0.09203881,-14.1757,14.1757,0.09203881,-761.6409,-13712.471)">
		<stop
   offset="0"
   style="stop-color:#E52F08"
   id="stop8" />
		<stop
   offset="1"
   style="stop-color:#E94F96"
   id="stop9" />
	</linearGradient>
	<circle
   style="fill:#000000"
   cx="24.4"
   cy="8.1999998"
   r="7.0999999"
   id="circle9" />
	<path
   class="st0"
   d="M 37.1,3.4 H 45 v 45 h -7.9 z"
   id="path9"
   style="fill:#000000" />
	<path
   class="st0"
   d="m 52,18.9 h 8 v 29.4 h -8 z"
   id="path10"
   style="fill:#000000" />
	<path
   class="st0"
   d="m 16.5,18.6 c -2.5,0 -4.9,0.6 -7.1,1.8 V 3.4 H 1.5 v 30.2 c 0,8.3 6.7,15 15,15 8.3,0 15,-6.7 15,-15 0,-8.3 -6.7,-15 -15,-15 z m 0,22.2 c -4,0 -7.2,-3.2 -7.2,-7.2 0,-4 3.2,-7.2 7.2,-7.2 4,0 7.2,3.2 7.2,7.2 0,4 -3.2,7.2 -7.2,7.2 z"
   id="path11"
   style="fill:#000000" />
</g>
<g
   transform="translate(-21.756222,-7.8169535)"
   id="g12"
   style="fill:#000000">
	<path
   class="st0"
   d="m 106.3,55 h 10.2 L 104.2,39.2 115.3,25.6 H 106 L 95.2,39.3 V 10.1 h -7.9 v 45 h 7.9 V 39.4 Z"
   id="path12"
   style="fill:#000000" />
</g>
</svg>
