<svg id="BLUECITY" width="500" height="84.325226" viewBox="0 0 500 84.325226" version="1.1" xml:space="preserve" xmlns:xlink="http://www.w3.org/1999/xlink" xmlns="http://www.w3.org/2000/svg" xmlns:svg="http://www.w3.org/2000/svg">
	<path id="BLUECITY" style="fill:#000000;stroke:#000000;stroke-width:0" d="M 30.075959,49.75583 H 17.783233 v 16.790598 h 14.623645 c 5.202471,0 10.697415,-2.2999 10.697415,-8.721008 0,-6.890836 -7.422605,-8.06959 -13.037197,-8.06959 M 28.684493,18.328296 h -10.90126 v 15.713767 h 11.787545 c 5.082823,0 9.952939,-2.215703 9.952939,-8.074022 0,-6.000124 -5.499375,-7.639745 -10.817067,-7.639745 M 45.36431,40.36568 c 9.412307,1.963113 15.651727,9.602857 15.651727,19.524776 0,16.927972 -15.651727,22.369738 -29.21183,22.369738 H 0 V 2.6278239 h 28.914926 c 13.356263,0 28.498378,2.8316686 28.498378,20.5041171 0,8.419672 -4.750468,14.393207 -12.066719,17.233739 M 115.35837,82.260194 H 68.438643 V 2.6278239 H 86.226307 V 65.2303 H 115.35837 Z M 166.94438,2.6278239 h 17.90731 V 51.373293 c 0,18.873359 -11.22032,32.854446 -32.62401,32.854446 -21.61641,0 -32.85445,-13.981087 -32.85445,-32.854446 V 2.6278239 h 17.88073 V 50.721876 c 0,9.376856 6.27487,16.489263 14.96042,16.489263 8.47285,0 14.7167,-6.979465 14.7167,-16.489263 z M 248.40692,82.260194 H 193.65689 V 2.6278239 h 52.85339 V 19.626698 h -35.07015 v 13.639869 h 33.16464 V 50.29203 H 211.44013 V 65.2303 h 36.96679 z m 90.6843,-79.6323701 h 17.79652 V 82.255763 H 339.09122 Z M 402.75723,82.260194 H 384.95184 V 18.997439 H 363.1316 V 2.6278239 h 58.37491 V 18.997439 h -18.74928 z m 68.10627,0 H 453.07141 V 48.342211 L 423.93049,2.6278239 h 22.14373 L 461.98297,31.54275 478.82231,2.6278239 H 500 L 470.8635,48.342211 Z M 293.12424,0 c 18.84234,0 33.98445,13.325239 38.75708,31.644672 H 312.6047 c -3.47865,-8.175944 -10.48471,-14.286854 -19.49819,-14.286854 -11.77424,0 -21.39926,11.003182 -21.39926,24.758267 0,13.755085 9.62502,24.869052 21.39926,24.869052 8.78748,0 15.68718,-5.995693 19.25889,-13.857007 h 19.42729 c -4.98533,18.115588 -20.00337,31.1971 -38.65516,31.1971 -22.05954,0 -39.95799,-18.979713 -39.95799,-42.209145 0,-23.229432 17.89845,-42.09835937 39.95799,-42.09835937" />
</svg>
