<svg
   viewBox="0 0 1128.3101 776.39001"
   version="1.1"
   id="svg44"
   width="1128.3101"
   height="776.39001"
   xmlns="http://www.w3.org/2000/svg"
   xmlns:svg="http://www.w3.org/2000/svg">
  <defs
     id="defs2">
    <style
       id="style1">.cls-1{fill:#0072bc}.cls-2{fill:#f7941d}.clst-1{fill:#0072bc}.clst-2{fill:#f7941d}</style>
    <style
       class="darkreader darkreader--sync"
       media="screen"
       id="style2" />
  </defs>
  <path
     class="cls-1"
     d="m 1027.94,523.85 a 9.2,9.2 0 1 0 18.39,-0.25 9.2,9.2 0 0 0 -18.39,0.25 M 660.73,505.14 a 34.45,34.45 0 1 0 33.73,-35 34.24,34.24 0 0 0 -33.73,35"
     id="path2"
     style="fill:#000000" />
  <path
     class="cls-2"
     d="m 776.91,511.54 a 28.14,28.14 0 0 0 28.68,27.55 28.06,28.06 0 0 0 -1,-56.11 28.12,28.12 0 0 0 -27.73,28.56"
     id="path3"
     style="fill:#000000" />
  <path
     class="cls-1"
     d="m 876.12,513.96 a 23.07,23.07 0 1 0 22.74,-23.38 22.76,22.76 0 0 0 -22.74,23.38"
     id="path4"
     style="fill:#000000" />
  <path
     class="cls-2"
     d="m 963.13,516.71 a 17,17 0 1 0 33.95,-0.49 17,17 0 1 0 -33.95,0.49"
     id="path5"
     style="fill:#000000" />
  <path
     class="cls-1"
     d="m 521.58,361.08 a 44.87,44.87 0 0 1 44.73,-44.75 c 24.6,0.28 44.7,20.17 44.7,44.75 a 44.32,44.32 0 0 1 -44.45,44.77 44.94,44.94 0 0 1 -45,-44.8"
     id="path6"
     style="fill:#000000" />
  <path
     class="cls-2"
     d="m 531.89,251.56 a 34.07,34.07 0 0 1 34.42,-34.45 34.47,34.47 0 1 1 -34.42,34.45"
     id="path7"
     style="fill:#000000" />
  <path
     class="cls-1"
     d="m 539.06,154.32 a 27,27 0 1 1 27,27.12 27,27 0 0 1 -27,-27.12"
     id="path8"
     style="fill:#000000" />
  <path
     class="cls-2"
     d="m 545.26,77.04 a 20.680293,20.680293 0 1 1 41.36,0.22 20.58,20.58 0 0 1 -20.55,20.69 20.84,20.84 0 0 1 -20.81,-20.91"
     id="path9"
     style="fill:#000000" />
  <path
     class="cls-1"
     d="m 551.47,14.5 a 14.5,14.5 0 1 1 29,0 14.5,14.5 0 1 1 -29,0"
     id="path10"
     style="fill:#000000" />
  <path
     class="cls-2"
     d="m 648.03,34.7 a 9.39,9.39 0 0 1 9.11,-9.33 9,9 0 0 1 9.12,9.11 8.87,8.87 0 0 1 -8.87,9.09 9.23,9.23 0 0 1 -9.36,-8.87"
     id="path11"
     style="fill:#000000" />
  <path
     class="cls-1"
     d="m 736.49,69.14 a 9,9 0 0 1 8.86,-9.31 9.21,9.21 0 0 1 9.35,9.11 9.11,9.11 0 0 1 -18.21,0.2 m 104.75,68.21 a 9.22,9.22 0 0 1 9,-9.34 9.33,9.33 0 0 1 9.34,8.84 9.2,9.2 0 0 1 -18.39,0.5 m 85.61,86.44 a 9.36,9.36 0 0 1 8.84,-9.41 9.18,9.18 0 0 1 9.27,9.14 9.06,9.06 0 0 1 -18.11,0.27 m 60.7,112.92 a 9.37,9.37 0 0 1 8.86,-9.33 9.23,9.23 0 0 1 9.32,9.12 8.79,8.79 0 0 1 -8.84,9.11 9,9 0 0 1 -9.34,-8.9"
     id="path12"
     style="fill:#000000" />
  <path
     class="cls-2"
     d="m 1016.44,428.58 c 0,-5.2 3.81,-9.39 8.83,-9.39 a 9.18,9.18 0 0 1 9.33,8.91 9,9 0 0 1 -8.85,9.34 c -5,0 -9.31,-4 -9.31,-8.86"
     id="path13"
     style="fill:#000000" />
  <path
     class="cls-1"
     d="m 651.41,93.28 c 0,-8.29 6.71,-15.5 15.06,-15.5 a 15.44,15.44 0 0 1 15.79,15 c 0,8.38 -6.71,15.51 -15.08,15.51 a 15.43,15.43 0 0 1 -15.77,-15"
     id="path14"
     style="fill:#000000" />
  <path
     class="cls-2"
     d="m 653.06,170.56 a 24.33,24.33 0 0 1 24.15,-24.86 24.51,24.51 0 1 1 -24.15,24.86"
     id="path15"
     style="fill:#000000" />
  <path
     class="cls-1"
     d="m 660.97,269.02 a 26.4,26.4 0 1 1 27,25.87 26.37,26.37 0 0 1 -27,-25.87"
     id="path16"
     style="fill:#000000" />
  <path
     class="cls-2"
     d="m 665.01,377.6 a 29.67,29.67 0 1 1 59.33,-1 29.67,29.67 0 0 1 -59.33,1"
     id="path17"
     style="fill:#000000" />
  <path
     class="cls-1"
     d="m 773.31,389.45 a 25.94,25.94 0 1 1 26.29,25.58 26,26 0 0 1 -26.29,-25.58"
     id="path18"
     style="fill:#000000" />
  <path
     class="cls-2"
     d="m 764.73,284.56 a 23.67,23.67 0 0 1 47.33,-0.75 23.67,23.67 0 1 1 -47.33,0.75"
     id="path19"
     style="fill:#000000" />
  <path
     class="cls-1"
     d="m 753.94,186.33 a 19.08,19.08 0 0 1 18.65,-19.48 19.09,19.09 0 0 1 0.72,38.17 18.87,18.87 0 0 1 -19.37,-18.72"
     id="path20"
     style="fill:#000000" />
  <path
     class="cls-2"
     d="m 747.26,122.85 a 11.72,11.72 0 1 1 11.92,11.55 11.76,11.76 0 0 1 -11.92,-11.55 m 122.88,277.44 a 23.19,23.19 0 1 1 23.68,22.88 23.24,23.24 0 0 1 -23.68,-22.88"
     id="path21"
     style="fill:#000000" />
  <path
     class="cls-1"
     d="m 864.87,301.04 a 17.37,17.37 0 0 1 17.25,-17.71 17.6,17.6 0 0 1 17.92,17.22 17.59,17.59 0 0 1 -35.17,0.49"
     id="path22"
     style="fill:#000000" />
  <path
     class="cls-2"
     d="m 851.73,203.54 a 14.6,14.6 0 1 1 14.84,14.55 14.69,14.69 0 0 1 -14.84,-14.55"
     id="path23"
     style="fill:#000000" />
  <path
     class="cls-1"
     d="m 954.28,412.58 a 17,17 0 1 1 17.24,16.73 17.26,17.26 0 0 1 -17.24,-16.73"
     id="path24"
     style="fill:#000000" />
  <path
     class="cls-2"
     d="m 932.98,315.34 a 13.3,13.3 0 0 1 13.19,-13.3 13.18,13.18 0 0 1 0.43,26.35 13.37,13.37 0 0 1 -13.62,-13.05 M 514.44,489.16 a 52.13,52.13 0 1 0 52.12,-52 52.17,52.17 0 0 0 -52.12,52"
     id="path25"
     style="fill:#000000" />
  <path
     class="cls-1"
     d="m 108.08,523.85 a 9.3,9.3 0 0 1 -9.39,9.15 9.08,9.08 0 0 1 -8.81,-9.4 9.1008585,9.1008585 0 0 1 18.2,0.25 m 367.38,-18.71 a 34.44,34.44 0 1 1 -33.93,-35 34.4,34.4 0 0 1 33.93,35"
     id="path26"
     style="fill:#000000" />
  <path
     class="cls-2"
     d="m 359.04,511.54 a 28.09,28.09 0 1 1 -27.48,-28.56 27.93,27.93 0 0 1 27.48,28.56"
     id="path27"
     style="fill:#000000" />
  <path
     class="cls-1"
     d="m 259.86,513.96 a 23.07,23.07 0 1 1 -22.5,-23.38 22.73,22.73 0 0 1 22.5,23.38"
     id="path28"
     style="fill:#000000" />
  <path
     class="cls-2"
     d="m 172.83,516.71 c 0,9.33 -7.89,16.73 -17.2,16.73 a 17,17 0 1 1 17.2,-16.73 M 487.9,34.7 a 9,9 0 0 0 -8.83,-9.33 9.35,9.35 0 0 0 -9.33,9.11 9.0806663,9.0806663 0 0 0 18.16,0.22"
     id="path29"
     style="fill:#000000" />
  <path
     class="cls-1"
     d="m 399.67,69.14 a 9.31,9.31 0 0 0 -9.06,-9.31 9,9 0 0 0 -9.06,9.11 8.8,8.8 0 0 0 8.83,9.1 9.14,9.14 0 0 0 9.29,-8.9 m -104.94,68.21 c 0,-5.13 -3.81,-9.34 -8.84,-9.34 -5.03,0 -9.32,3.93 -9.32,8.84 a 8.85,8.85 0 0 0 8.82,9.34 9.13,9.13 0 0 0 9.34,-8.84 m -85.57,86.44 a 9.22,9.22 0 0 0 -8.87,-9.41 9.34,9.34 0 0 0 -9.28,9.14 9.15,9.15 0 0 0 9.06,9.1 8.68,8.68 0 0 0 9.09,-8.83 m -60.71,112.96 a 9.21,9.21 0 0 0 -8.83,-9.37 9.39,9.39 0 0 0 -9.35,9.12 9.17,9.17 0 0 0 9.09,9.11 8.81,8.81 0 0 0 9.09,-8.86"
     id="path30"
     style="fill:#000000" />
  <path
     class="cls-2"
     d="m 119.52,428.58 a 8.9,8.9 0 0 0 -8.83,-9.39 9.42,9.42 0 0 0 -9.37,8.91 9.25,9.25 0 0 0 9.12,9.34 9,9 0 0 0 9.08,-8.86"
     id="path31"
     style="fill:#000000" />
  <path
     class="cls-1"
     d="m 484.55,93.28 a 15.14,15.14 0 0 0 -15.06,-15.5 15.39,15.39 0 0 0 -15.56,15 15.11,15.11 0 0 0 15.07,15.51 15.37,15.37 0 0 0 15.55,-15"
     id="path32"
     style="fill:#000000" />
  <path
     class="cls-2"
     d="M 482.89,170.56 A 24.32,24.32 0 0 0 458.73,145.7 24.5,24.5 0 1 0 482.9,170.56"
     id="path33"
     style="fill:#000000" />
  <path
     class="cls-1"
     d="M 475,269.02 A 26.2,26.2 0 0 0 449.17,242.19 26.35,26.35 0 1 0 475,269.02"
     id="path34"
     style="fill:#000000" />
  <path
     class="cls-2"
     d="m 470.91,377.6 a 29.64,29.64 0 1 0 -30.09,29.05 c 16.25,0.49 29.86,-12.8 30.09,-29.05"
     id="path35"
     style="fill:#000000" />
  <path
     class="cls-1"
     d="m 362.86,389.45 a 26,26 0 1 0 -26.52,25.58 26,26 0 0 0 26.52,-25.58"
     id="path36"
     style="fill:#000000" />
  <path
     class="cls-2"
     d="m 371.23,284.56 a 23.28,23.28 0 0 0 -23.16,-23.88 23.622898,23.622898 0 1 0 -0.74,47.24 c 12.9,0.28 23.67,-10.31 23.9,-23.36"
     id="path37"
     style="fill:#000000" />
  <path
     class="cls-1"
     d="m 382.22,186.33 a 19,19 0 0 0 -18.63,-19.48 19.35,19.35 0 0 0 -19.38,18.73 19.00341,19.00341 0 1 0 38,0.72"
     id="path38"
     style="fill:#000000" />
  <path
     class="cls-2"
     d="m 388.91,122.85 a 11.82,11.82 0 1 0 -23.63,-0.48 11.82,11.82 0 0 0 23.63,0.48 M 265.83,400.29 a 23.08,23.08 0 1 0 -23.44,22.88 23.24,23.24 0 0 0 23.44,-22.88"
     id="path39"
     style="fill:#000000" />
  <path
     class="cls-1"
     d="m 271.08,301.04 a 17.23,17.23 0 0 0 -17.22,-17.71 17.49,17.49 0 1 0 17.22,17.71"
     id="path40"
     style="fill:#000000" />
  <path
     class="cls-2"
     d="m 284.48,203.54 a 14.71,14.71 0 1 0 -29.41,-0.46 14.77,14.77 0 0 0 14.31,15 15,15 0 0 0 15.1,-14.55"
     id="path41"
     style="fill:#000000" />
  <path
     class="cls-1"
     d="m 181.67,412.58 a 16.86,16.86 0 0 0 -16.49,-17.25 c -9.35,0 -17.21,7.39 -17.21,16.73 a 16.85,16.85 0 0 0 16.53,17.25 c 9.26,0 17.17,-7.41 17.17,-16.73"
     id="path42"
     style="fill:#000000" />
  <path
     class="clst-2"
     d="m 202.96,315.34 a 13.06,13.06 0 0 0 -12.9,-13.3 13.18,13.18 0 1 0 -0.49,26.35 13.12,13.12 0 0 0 13.39,-13.05 M 765.2,592.03 h 40.16 V 771.72 H 765.2 Z m 143.67,179.7 H 868.69 V 628.97 h -49.24 v -36.94 h 131.73 v 36.94 h -42.31 z m 153.69,0 h -40.15 V 695.19 L 956.65,592.03 h 49.97 l 35.9,65.25 38,-65.25 h 47.79 l -65.75,103.16 z M 661.47,586.1 c 42.52,0 76.69,30.07 87.46,71.41 h -43.5 c -7.85,-18.45 -23.66,-32.24 -44,-32.24 -26.57,0 -48.29,24.83 -48.29,55.87 0,31.04 21.72,56.12 48.29,56.12 19.83,0 35.4,-13.53 43.46,-31.27 h 43.84 c -11.25,40.88 -45.14,70.4 -87.23,70.4 -49.78,0 -90.17,-42.83 -90.17,-95.25 0,-52.42 40.39,-95 90.17,-95"
     id="path43"
     style="fill:#000000" />
  <path
     class="clst-1"
     d="M 67.87,698.38 H 40.13 v 37.89 h 33 c 11.74,0 24.14,-5.19 24.14,-19.68 0,-15.55 -16.75,-18.21 -29.42,-18.21 m -3.12,-70.92 h -24.6 v 35.46 h 26.6 c 11.47,0 22.46,-5 22.46,-18.22 0,-13.54 -12.41,-17.24 -24.41,-17.24 m 37.59,49.73 c 21.24,4.43 35.32,21.67 35.32,44.06 0,38.2 -35.32,50.48 -65.92,50.48 H 0 v -179.7 h 65.25 c 30.14,0 64.31,6.39 64.31,46.27 0,19 -10.72,32.48 -27.23,38.89 m 157.99,94.54 H 154.44 v -179.7 h 40.14 V 733.3 h 65.74 z m 116.41,-179.7 h 40.41 v 110 c 0,42.59 -25.32,74.14 -73.62,74.14 -48.78,0 -74.14,-31.55 -74.14,-74.14 v -110 h 40.35 v 108.53 c 0,21.16 14.16,37.21 33.76,37.21 19.12,0 33.21,-15.75 33.21,-37.21 z m 183.83,179.7 H 437.01 v -179.7 h 119.27 v 38.36 h -79.14 v 30.78 h 74.84 v 38.42 h -74.84 v 33.71 h 83.42 z"
     id="path44"
     style="fill:#000000" />
</svg>
