<svg
   version="1.1"
   id="svg1"
   width="2645.9553"
   height="2633.77"
   viewBox="0 0 2645.9553 2633.77"
   xmlns="http://www.w3.org/2000/svg"
   xmlns:svg="http://www.w3.org/2000/svg">
  <defs
     id="defs1" />
  <g
     id="g1"
     transform="translate(-4084.3247,-230.25174)">
    <path
       style="fill:#000000"
       d="m 5403.6809,2863.4843 c -0.5067,-1.4667 -1.6011,-4.4667 -2.4318,-6.6667 -0.8308,-2.2 -1.6282,-4.6 -1.7722,-5.3333 -0.6576,-3.3497 -9.8638,-33.0193 -13.0321,-42 -1.9404,-5.5 -3.711,-11.2 -3.9346,-12.6667 -0.2236,-1.4666 -1.0962,-4.7666 -1.9391,-7.3333 -3.51,-10.6882 -9.3794,-29.1165 -11.2535,-35.3333 -5.5458,-18.3959 -12.1871,-39.4479 -14.5118,-46 -1.4309,-4.0334 -2.8551,-8.482 -3.1647,-9.8859 -0.9659,-4.3798 -4.7575,-15.981 -6.1867,-18.9296 -0.945,-1.9497 -0.9193,-3.5897 0.084,-5.3333 0.7965,-1.3848 4.2144,-11.2179 7.5953,-21.8512 3.3809,-10.6334 8.4136,-26.2334 11.1838,-34.6667 2.7703,-8.4333 7.8775,-24.3333 11.3495,-35.3333 3.472,-11 8.8651,-27.8 11.9848,-37.3334 3.1196,-9.5333 8.5329,-26.2557 12.0294,-37.1609 l 6.3574,-19.8277 2.968,9.161 c 1.6324,5.0385 4.5637,13.961 6.514,19.8276 1.9503,5.8667 3.7844,11.6418 4.0757,12.8337 0.9492,3.8836 14.7733,48.7143 18.6557,60.4997 0.9664,2.9333 4.0014,12.5333 6.7445,21.3333 2.7431,8.8 6.1531,19.3 7.5777,23.3333 1.4246,4.0334 2.8037,8.5334 3.0647,10 0.261,1.4667 1.077,4.4667 1.8134,6.6667 0.7364,2.2 2.8589,8.9584 4.7168,15.0186 l 3.3779,11.0187 -3.3857,10.3147 c -1.862,5.6731 -3.6044,11.5147 -3.8718,12.9813 -0.2674,1.4667 -2.5751,8.6667 -5.1283,16 -6.0259,17.3076 -18.3556,55.4253 -18.761,58 -0.1732,1.1 -0.9649,3.5 -1.7594,5.3334 -1.692,3.9045 -15.5111,46.707 -15.7124,48.6666 -0.075,0.7334 -0.7696,2.8334 -1.5429,4.6667 -0.7732,1.8333 -3.5157,9.9333 -6.0944,18 -3.4304,10.7311 -4.9357,13.9511 -5.6099,12 z m -230.1158,-69.1765 c -0.3056,-0.2804 -3.5103,-0.8612 -7.1216,-1.2907 -9.241,-1.099 -20.2798,-6.8911 -28.1915,-14.7921 -5.2778,-5.2707 -7.6864,-9.1811 -11,-17.8584 -5.1845,-13.577 -5.4051,-21.4281 -0.9564,-34.0352 5.4394,-15.4146 13.2398,-24.3934 26.7139,-30.7496 20.6689,-9.7502 41.9455,-6.4685 59.0052,9.1008 8.7969,8.0285 14.225,18.78 15.6128,30.9246 3.1656,27.7003 -14.5129,52.13 -41.4539,57.2846 -10.8995,2.0854 -11.7723,2.1835 -12.6085,1.416 z m 471.1765,-5.8928 c -23.8791,-8.9469 -35.3395,-25.0592 -35.3009,-49.6299 0.036,-23.0575 11.4969,-40.3431 31.78,-47.932 25.8796,-9.6828 54.2841,1.0596 66.0622,24.9844 8.0867,16.4265 6.8058,38.4739 -3.0526,52.542 -6.6564,9.4987 -16.8791,16.6785 -29.9927,21.0651 -10.5738,3.537 -17.9999,3.2778 -29.496,-1.0296 z m -733.7321,-19.1792 c 0,-1.805 0.9211,-9.442 2.0468,-16.9711 1.1258,-7.5292 1.9456,-15.8849 1.8218,-18.5682 -0.1238,-2.6834 0.5187,-11.0306 1.4277,-18.5494 0.909,-7.5187 1.3474,-14.466 0.9743,-15.4383 -0.3731,-0.9723 -0.1195,-4.7205 0.5635,-8.3295 1.1336,-5.9892 5.0117,-55.3526 5.8579,-74.5617 0.1938,-4.4 1.0809,-14.1517 1.9713,-21.6705 0.8905,-7.5188 1.2723,-14.574 0.8486,-15.6782 -1.4271,-3.719 1.457,-7.9746 23.0593,-34.0254 11.8394,-14.2776 25.2443,-30.4592 29.7886,-35.9592 4.5443,-5.5 8.596,-10.3 9.0039,-10.6667 0.4079,-0.3666 9.9224,-11.7666 21.1435,-25.3333 11.221,-13.5667 25.5973,-30.8358 31.9473,-38.3759 l 11.5455,-13.7092 0.8273,4.938 c 0.455,2.7159 0.01,10.3851 -0.997,17.0426 -1.0034,6.6575 -1.7628,14.8045 -1.6876,18.1045 0.075,3.3 -0.5059,11.1 -1.2914,17.3333 -0.7855,6.2334 -1.7631,19.6645 -2.1725,29.8471 -0.4094,10.1825 -1.0238,18.9658 -1.3653,19.5184 -0.3416,0.5526 -0.9217,7.2214 -1.2891,14.8196 -0.3675,7.5982 -1.2835,18.3306 -2.0356,23.8497 -0.7521,5.519 -1.2512,12.119 -1.109,14.6666 0.1422,2.5476 -0.4868,10.4731 -1.3978,17.6122 -0.911,7.1391 -1.4671,14.1175 -1.2359,15.5075 0.3923,2.3573 -10.4658,16.2035 -44.4535,56.6873 -5.6141,6.6871 -24.1191,28.9583 -41.1223,49.4916 -17.0032,20.5334 -31.9099,38.5292 -33.126,39.9908 -1.216,1.4615 -3.861,4.694 -5.8777,7.1833 -3.5588,4.3928 -3.6666,4.4294 -3.6666,1.2441 z m 1009.2902,-12.0853 c -4.6303,-5.845 -16.5473,-19.7911 -25.9376,-30.3538 -2.9439,-3.3116 -8.0526,-9.2874 -11.3526,-13.2797 -3.3,-3.9923 -8.7,-10.3123 -12,-14.0446 -3.3,-3.7322 -18,-20.8335 -32.6666,-38.0028 -14.6667,-17.1693 -30.4167,-35.569 -35,-40.8882 -7.4117,-8.6017 -8.3345,-10.3032 -8.3435,-15.3842 -0.01,-3.1421 -0.6543,-9.6129 -1.4417,-14.3796 -0.7874,-4.7666 -1.4041,-10.7666 -1.3705,-13.3333 0.034,-2.5667 -0.609,-9.1667 -1.428,-14.6667 -0.8189,-5.5 -1.3908,-11.5 -1.2707,-13.3333 0.12,-1.8333 -0.4336,-8.1032 -1.2304,-13.9329 -0.7967,-5.8298 -1.6339,-13.6298 -1.8604,-17.3334 -0.9328,-15.2542 -4.8012,-58.4507 -5.3079,-59.2705 -0.3004,-0.486 -0.8908,-6.564 -1.312,-13.5067 -0.4212,-6.9428 -1.2966,-14.8439 -1.9453,-17.5581 -0.6487,-2.7142 -0.787,-6.8541 -0.3072,-9.1997 0.867,-4.2392 1.004,-4.1101 22.8449,21.5107 23.4322,27.4876 28.3458,33.2067 40.1293,46.7085 4.1195,4.7201 9.2098,10.6821 11.3119,13.2488 2.102,2.5666 4.1353,4.9666 4.5183,5.3333 0.383,0.3667 3.9889,4.5667 8.0132,9.3333 4.0242,4.7667 7.6216,8.9667 7.9942,9.3334 0.3727,0.3666 6.0764,6.9666 12.675,14.6666 6.5986,7.6999 12.7565,14.8018 13.6843,15.782 7.0376,7.4354 8.1492,10.2167 8.8874,22.2381 0.4046,6.589 1.0201,14.3799 1.3676,17.3133 0.3475,2.9333 1.2675,13.4333 2.0443,23.3333 0.7768,9.9 1.9509,20.3228 2.6092,23.1618 0.6582,2.839 0.881,5.9847 0.495,6.9906 -0.386,1.0059 0.098,7.0831 1.0756,13.5049 0.9776,6.4218 1.6426,12.576 1.4778,13.676 -0.1647,1.1 0.3496,7.1 1.1431,13.3334 0.7935,6.2333 1.5918,14.0333 1.7741,17.3333 1.1691,21.1649 3.7254,48.0048 4.9304,51.7665 2.0426,6.3764 0.9081,6.3493 -4.2012,-0.1003 z m -730.3763,-101.3329 c -0.7986,-5.3166 -1.848,-12.9666 -2.332,-17 -0.484,-4.0333 -2.0196,-12.4333 -3.4125,-18.6666 -1.3928,-6.2334 -2.7392,-12.8334 -2.9919,-14.6667 -0.2528,-1.8333 -1.7005,-8.7333 -3.2172,-15.3333 -5.1587,-22.4485 -5.7893,-27.1973 -5.8044,-43.7051 -0.024,-26.2529 4.5668,-40.1755 16.9914,-51.5309 8.5513,-7.8154 15.8629,-10.1486 31.186,-9.9518 9.3105,0.1195 12.716,0.7875 19.0799,3.7422 21.6367,10.046 29.2194,27.6608 23.5808,54.7789 -1.881,9.0467 -1.6521,8.3592 -5.7145,17.1611 -1.9871,4.3053 -3.6128,8.0447 -3.6128,8.3099 0,1.562 -12.2534,20.1378 -19.2587,29.1957 -15.6472,20.2317 -31.6208,45.0412 -39.275,61 -1.6706,3.4833 -3.2017,6.3333 -3.4023,6.3333 -0.2007,0 -1.0182,-4.35 -1.8168,-9.6667 z m 451.8195,2.668 c -2.4909,-5.6275 -21.5752,-36.5678 -25.7011,-41.668 -1.9775,-2.4444 -21.65,-30.5884 -25.1846,-36.0298 -5.7576,-8.8635 -9.4105,-16.6516 -13.9059,-29.6477 -3.8208,-11.0459 -4.2366,-13.7102 -3.9535,-25.3333 0.3351,-13.7582 2.1498,-19.9573 8.1828,-27.9526 10.5327,-13.9587 35.0122,-20.4705 53.4505,-14.2186 19.6565,6.665 30.2678,27.0708 29.9623,57.6186 -0.1493,14.9246 -0.7691,18.7868 -7.6327,47.5634 -6.1543,25.8025 -9.8482,45.1084 -9.6944,50.6667 0.079,2.8391 -2.7515,22.2725 -3.3274,22.8484 -0.188,0.188 -1.1762,-1.5432 -2.196,-3.8471 z m -915.5072,-42.3646 c -10.532,-4.091 -17.6789,-8.7902 -23.274,-15.3034 -6.8232,-7.9426 -9.8244,-14.3797 -12.0506,-25.8465 -2.9104,-14.9914 2.0586,-32.4406 12.4477,-43.7114 17.7299,-19.2346 48.034,-22.3593 69.2823,-7.1437 7.8797,5.6426 12.242,10.7378 17.1528,20.035 2.7999,5.3006 3.172,7.7874 3.1924,21.3333 0.021,13.9284 -0.3034,16.0053 -3.5409,22.6667 -4.944,10.1726 -12.1359,18.0965 -20.9514,23.0836 -4.1165,2.3288 -7.7845,4.2866 -8.1512,4.3507 -0.3667,0.064 -2.2703,0.5709 -4.2302,1.1264 -6.6631,1.8884 -24.3972,1.5378 -29.8769,-0.5907 z m 1355.411,-7.2908 c -28.1687,-7.7387 -42.8467,-27.5903 -40.9488,-55.3822 1.51,-22.1113 16.5683,-40.3294 37.9044,-45.8582 29.4414,-7.629 56.334,8.6026 64.5006,38.9307 l 2.9718,11.0363 -2.9735,10.9638 c -3.6154,13.3304 -7.3633,20.057 -15.2004,27.281 -6.5847,6.0696 -14.8804,10.2909 -25.8262,13.1419 -8.3729,2.1809 -12.1535,2.1599 -20.4279,-0.1133 z M 4786.0515,2498.0425 c 0.4092,-2.1403 2.3057,-9.8915 4.2144,-17.2249 4.0366,-15.5087 6.2422,-25.3097 6.7511,-30 0.1989,-1.8333 0.9807,-5.7333 1.7373,-8.6666 0.7567,-2.9334 1.7659,-8.6334 2.2426,-12.6667 0.4768,-4.0333 1.7927,-11.8333 2.9243,-17.3333 1.1316,-5.5 2.2523,-11.2 2.4906,-12.6667 0.7201,-4.4338 7.0373,-20.8755 10.9351,-28.4609 7.4754,-14.5475 24.3003,-29.1507 34.9959,-30.3748 1.8333,-0.2098 4.5333,-0.6719 6,-1.0269 4.5673,-1.1056 19.9698,2.5342 26.2169,6.1952 28.7429,16.8445 32.0565,47.8667 8.1092,75.9216 -8.8552,10.3742 -24.3139,22.6619 -40.8905,32.5028 -8.1229,4.8223 -17.7689,10.6397 -21.4356,12.9276 -7.8652,4.9075 -35.6575,25.9156 -41.1843,31.1311 l -3.851,3.6341 z m 1255.4136,-10.3335 c -8.3123,-6.7402 -27.9449,-20.9032 -38.4556,-27.7418 -13.3928,-8.7138 -19.3187,-12.4758 -20.713,-13.1496 -0.7588,-0.3666 -5.8588,-3.6572 -11.3333,-7.3122 -13.8524,-9.2486 -32.8286,-28.6607 -38.5182,-39.403 -4.1399,-7.8162 -4.6189,-9.8839 -5.149,-22.2228 -0.5098,-11.8696 -0.2244,-14.3482 2.2376,-19.4341 4.5683,-9.4369 11.3327,-16.2008 21.7412,-21.7397 9.2516,-4.9233 10.3303,-5.1791 21.7347,-5.1549 10.3588,0.022 12.9286,0.5091 18.7891,3.5616 7.9942,4.164 18.3714,15.1175 23.5933,24.9037 3.3964,6.3652 9.3657,20.899 8.9413,21.77 -0.098,0.2006 0.5209,2.1648 1.375,4.3648 1.7626,4.5404 1.7337,4.3882 4.426,23.3333 2.8271,19.8936 4.904,32.301 5.5937,33.417 0.3269,0.529 0.8727,2.9766 1.2128,5.4391 0.3402,2.4625 1.5595,7.7772 2.7098,11.8106 1.1502,4.0333 2.4121,9.1333 2.8042,11.3333 0.3921,2.2 2.1406,8.05 3.8856,13 1.745,4.95 2.9644,9 2.7098,9 -0.2545,0 -3.6678,-2.5989 -7.585,-5.7753 z m 292.8778,-8.7039 c -3.6667,-1.988 -17.4667,-9.2319 -30.6667,-16.0975 -13.2,-6.8656 -28.2,-14.7137 -33.3333,-17.4402 -13.518,-7.1798 -67.8489,-35.5302 -92.7552,-48.4006 l -12.7552,-6.5912 -5.4233,-10.1623 c -2.9827,-5.5893 -14.2741,-27.5623 -25.0919,-48.829 -10.8178,-21.2667 -20.102,-39.2667 -20.6317,-40 -0.5296,-0.7333 -9.7864,-18.6209 -20.5705,-39.7501 l -19.6076,-38.4167 29.0844,14.9372 c 15.9963,8.2154 29.6843,15.3726 30.4176,15.9047 0.7334,0.5322 11.5334,6.2417 24,12.6878 47.9826,24.8102 88.4247,46.0237 91.4529,47.9704 2.0605,1.3247 10.474,17.0189 37.8839,70.6667 7.8682,15.4 18.0718,35.2 22.6747,44 12.0637,23.0639 32.6323,63.3504 32.2848,63.2344 -0.1629,-0.054 -3.2963,-1.7255 -6.9629,-3.7136 z m -1863.3334,-2.6334 c 0,-0.566 3.6518,-7.8971 8.1152,-16.2915 4.4633,-8.3944 12.6373,-23.9626 18.1644,-34.5959 5.5271,-10.6333 12.3027,-23.5333 15.057,-28.6667 2.7542,-5.1333 9.3527,-17.7333 14.6632,-28 5.3105,-10.2666 11.0094,-21.0666 12.6642,-24 1.6549,-2.9333 7.0372,-13.1333 11.9606,-22.6666 4.9235,-9.5334 9.9471,-18.3217 11.1636,-19.5297 2.0967,-2.0821 12.573,-7.5356 98.2118,-51.1249 19.8,-10.078 45.1218,-23.0535 56.2706,-28.8345 11.1489,-5.781 20.6368,-10.5109 21.0842,-10.5109 0.7323,0 -19.2956,39.4792 -26.718,52.6666 -2.8464,5.0573 -6.2682,11.6033 -31.7129,60.6667 -5.8949,11.3667 -13.1664,25.1667 -16.1589,30.6667 -2.9926,5.5 -7.8389,14.6798 -10.7697,20.3997 l -5.3287,10.3997 -14.6666,7.775 c -8.0667,4.2762 -30.8667,16.0233 -50.6667,26.1048 -37.0298,18.8542 -77.2111,39.4687 -96,49.2516 -12.5655,6.5424 -15.3333,7.6779 -15.3333,6.2899 z m 869.3333,-69.0042 c -14.3476,-1.6305 -43.9376,-4.6455 -51.6461,-5.2623 -2.372,-0.1898 -7.172,-0.9673 -10.6666,-1.7279 -3.4947,-0.7605 -7.2539,-1.3246 -8.3539,-1.2535 -1.1,0.071 -5.3,-0.5867 -9.3334,-1.4618 -4.0333,-0.875 -10.3333,-2.1818 -14,-2.9039 -8.5716,-1.688 -31.584,-6.4813 -39.3333,-8.1928 -3.3,-0.7288 -7.2,-1.5679 -8.6667,-1.8647 -1.4666,-0.2967 -7.1666,-1.755 -12.6666,-3.2407 -5.5,-1.4857 -11.2,-2.9263 -12.6667,-3.2014 -1.4667,-0.2751 -4.1667,-1.1317 -6,-1.9035 -1.8333,-0.7719 -8.7333,-3.0016 -15.3333,-4.9548 -45.3753,-13.429 -93.6924,-32.9817 -139.3334,-56.3848 -130.2688,-66.7972 -240.9088,-164.8534 -322.9263,-286.1978 -14.116,-20.8845 -23.7795,-36.5975 -41.4101,-67.3333 -8.6252,-15.0367 -28.1779,-55.657 -37.2211,-77.3265 -2.9089,-6.9705 -5.8294,-13.8735 -6.4899,-15.3402 -4.7988,-10.6551 -19.5225,-52.9443 -25.3002,-72.6667 -1.6113,-5.5 -3.3976,-11.5 -3.9697,-13.3333 -2.4688,-7.912 -7.3598,-27.0322 -10.9141,-42.6667 -0.7503,-3.3 -1.9136,-8.4 -2.5853,-11.3333 -0.6717,-2.9333 -2.0797,-10.1333 -3.1289,-16 -1.0492,-5.8667 -2.8803,-15.7667 -4.0692,-22 -1.1889,-6.2333 -2.1674,-12.2333 -2.1745,-13.3333 -0.01,-1.1 -0.678,-5.3 -1.491,-9.3334 -0.8129,-4.0333 -1.327,-7.9047 -1.1423,-8.603 0.1846,-0.6983 -0.3182,-5.025 -1.1175,-9.6147 -0.7993,-4.5897 -1.7548,-14.2184 -2.1235,-21.3969 -0.3686,-7.1786 -1.3106,-19.952 -2.0932,-28.3854 -0.7827,-8.4333 -1.4269,-31.8333 -1.4316,-52 -0.01,-34.1209 0.728,-48.7315 4.5338,-90 0.8115,-8.8 1.5973,-17.8 1.7462,-20 0.1489,-2.2 0.9087,-7.3 1.6885,-11.3333 0.7798,-4.0333 1.4236,-8.2333 1.4306,-9.3333 0.01,-1.1 0.9939,-7.1 2.193,-13.3334 1.199,-6.2333 3.0366,-16.1333 4.0835,-22 2.5043,-14.0336 4.2358,-21.9084 9.8209,-44.6666 2.8731,-11.7074 4.9728,-19.5591 6.7746,-25.3334 0.5721,-1.8333 2.3584,-7.8333 3.9697,-13.3333 5.7777,-19.7223 20.5014,-62.0116 25.3002,-72.6667 0.6605,-1.4666 3.581,-8.3697 6.4899,-15.3401 8.9086,-21.347 28.5669,-62.1755 37.2411,-77.3463 16.865,-29.4965 27.3014,-46.4694 41.3901,-67.3136 54.1653,-80.1372 120.7483,-150.18969 196.9263,-207.18774 30.508,-22.82673 42.1156,-30.70139 71.3333,-48.39286 35.7564,-21.65065 61.3414,-34.98921 100.6667,-52.48193 4.4,-1.95721 9.8,-4.3642 12,-5.34886 28.4903,-12.75153 104.739,-38.04378 128,-42.45858 1.4667,-0.27837 11.3667,-2.38134 22,-4.67328 29.3463,-6.32538 36.1179,-7.60319 56.6667,-10.69309 22.2878,-3.35138 28.9646,-4.15764 45.3333,-5.4742 9.5334,-0.76679 20.6334,-1.90423 24.6667,-2.52765 8.0712,-1.24755 121.7239,-0.88831 126,0.39826 2.1057,0.63354 30.4421,3.5916 52.6667,5.4979 1.8333,0.15725 6.8309,1.02597 11.1057,1.93047 4.2748,0.90451 8.0865,1.33045 8.4704,0.94654 0.384,-0.38392 2.1444,-0.14815 3.912,0.52392 1.7677,0.67207 6.656,1.80578 10.8629,2.51935 4.207,0.71357 12.749,2.24848 18.9823,3.4109 6.2333,1.16243 12.9665,2.34459 14.9626,2.62703 1.996,0.28244 4.2059,0.86998 4.9109,1.30565 0.7049,0.43567 3.8718,1.31158 7.0374,1.94647 7.6835,1.54098 39.4251,9.91664 51.0891,13.4809 5.1333,1.56864 11.4333,3.45555 14,4.19313 8.0051,2.30041 42.2792,14.24932 48.6667,16.96652 1.4667,0.62392 4.1667,1.78488 6,2.57991 1.8333,0.79503 8.4333,3.51253 14.6667,6.03889 28.4825,11.54393 59.7764,26.69061 91.3333,44.20655 41.0039,22.7596 97.3312,61.53856 130,89.49948 56.1827,48.0862 98.5311,92.61873 137.7253,144.82862 33.7255,44.9249 60.8703,89.0649 86.3036,140.3377 6.9115,13.9334 12.584,25.6334 12.6057,26 0.034,0.5714 4.5893,11.5954 10.7441,26 10.3162,24.1435 34.5873,97.2022 37.208,112 0.2598,1.4667 1.4986,7.1667 2.753,12.6667 1.2543,5.5 2.7996,12.5586 3.4338,15.6857 0.6342,3.1272 1.7485,6.7983 2.4762,8.1581 0.7277,1.3597 1.0048,2.7906 0.6158,3.1796 -0.3891,0.3891 0.02,3.318 0.9089,6.5087 0.889,3.1907 1.734,7.0012 1.8777,8.4679 0.1437,1.4667 0.6804,5.3667 1.1926,8.6667 0.5123,3.3 1.8065,11.7 2.8762,18.6666 1.0697,6.9667 2.644,16.8667 3.4986,22 0.8545,5.1334 1.4581,10.8334 1.3412,12.6667 -0.1168,1.8333 0.6188,8.1048 1.6347,13.9365 1.0159,5.8317 1.5727,11.3183 1.2373,12.1925 -0.3355,0.8741 0.33,11.4768 1.4787,23.5616 2.6593,27.9763 2.6668,65.5473 0.019,93.2837 -1.1385,11.9241 -1.8129,22.6631 -1.4987,23.8646 0.3142,1.2015 -0.251,6.9042 -1.256,12.6728 -1.0049,5.7686 -1.7315,11.9883 -1.6147,13.8216 0.1169,1.8334 -0.4867,7.5334 -1.3412,12.6667 -1.4661,8.8066 -4.6034,29.0335 -6.101,39.3333 -0.3731,2.5667 -1.967,10.9667 -3.5419,18.6667 -3.0043,14.6884 -3.538,17.1478 -7.2341,33.3333 -1.2559,5.5 -2.496,11.2 -2.7558,12.6667 -2.6207,14.7978 -26.8918,87.8566 -37.208,112 -6.0593,14.1811 -10.712,25.4281 -10.7556,26 -0.028,0.3667 -5.6908,12.0667 -12.5839,26 -55.1164,111.4078 -125.0985,200.484 -224.0392,285.1664 -17.3772,14.8729 -48.4797,38.015 -74,55.0604 -35.3006,23.5776 -73.676,45.2648 -110,62.1645 -19.7459,9.1867 -26.2176,12.0179 -40.6667,17.7902 -8.0666,3.2226 -15.8666,6.402 -17.3333,7.0654 -1.4667,0.6633 -7.1667,2.8068 -12.6667,4.7633 -5.5,1.9565 -12.4,4.4612 -15.3333,5.5661 -6.7234,2.5323 -13.8104,4.8316 -24,7.7865 -4.4,1.2759 -10.7,3.2012 -14,4.2782 -3.3,1.0771 -13.8,3.956 -23.3334,6.3975 -9.5333,2.4415 -18.9216,5.0433 -20.8629,5.7818 -1.9412,0.7386 -3.808,1.0643 -4.1484,0.724 -0.3403,-0.3404 -2.352,0.051 -4.4704,0.8696 -2.1184,0.8187 -5.3516,1.7124 -7.1849,1.986 -1.8334,0.2736 -8.4334,1.4486 -14.6667,2.611 -6.2333,1.1624 -14.7753,2.6973 -18.9823,3.4109 -4.2069,0.7136 -9.0952,1.8473 -10.8629,2.5194 -1.7676,0.672 -3.528,0.9078 -3.912,0.5239 -0.3839,-0.3839 -4.1956,0.042 -8.4704,0.9465 -4.2748,0.9045 -9.2724,1.7784 -11.1057,1.9419 -33.2602,2.9666 -51.7179,4.8945 -53.3334,5.5707 -3.8363,1.6058 -117.4097,1.2837 -132,-0.3743 z M 5032.863,1686.2992 c 13.8135,-4.7115 21.1295,-9.1313 30.3085,-18.3103 8.3511,-8.351 15.8362,-22.0767 19.1513,-35.1181 3.0071,-11.8299 2.9766,-195.8276 -0.034,-208.6023 -4.5236,-19.1909 -17.2381,-37.0361 -33.2626,-46.6851 -13.2284,-7.9655 -26.5694,-11.1285 -47.3496,-11.2261 -27.6651,-0.1299 -44.5933,5.6003 -60.4189,20.4517 -10.2946,9.661 -16.4896,19.8269 -20.482,33.611 l -3.0991,10.6997 v 96.8758 c 0,93.8834 0.085,97.1835 2.7611,106.8394 8.225,29.6807 28.3077,47.959 60.0059,54.6142 3.2448,0.6813 13.9997,1.0586 23.8997,0.8385 15.3851,-0.3421 19.5283,-0.9215 28.5202,-3.9884 z m -40.9399,-44.7724 c -7.1494,-1.3833 -11.7147,-5.1276 -15.5803,-12.7785 l -3.3333,-6.5974 v -94 -94 l 3.3333,-6.5973 c 1.8333,-3.6286 4.8333,-7.6614 6.6667,-8.9619 7.2457,-5.1398 28.8512,-5.237 35.8502,-0.1614 1.9157,1.3892 4.9831,5.4947 6.8164,9.1233 l 3.3334,6.5973 v 93.3334 c 0,100.2538 0.075,99.0777 -6.8813,107.3452 -5.4298,6.4529 -17.5635,9.1433 -30.2051,6.6973 z m -169.5803,42.1744 c 18.6489,-5.3022 34.4145,-16.3181 43.4048,-30.3283 16.8195,-26.2109 19.5131,-73.1725 5.7958,-101.0453 -5.4879,-11.151 -16.6094,-23.0575 -26.3782,-28.2398 -3.3856,-1.7961 -6.1557,-3.5802 -6.1557,-3.9647 0,-0.3845 2.1047,-1.8326 4.6772,-3.2179 7.6986,-4.146 17.8021,-15.9663 22.6033,-26.4442 5.9092,-12.8961 7.39,-20.8121 7.3657,-39.3757 -0.056,-42.2774 -17.9729,-67.9919 -54.2276,-77.8258 -9.5141,-2.5807 -14.7888,-2.8796 -60.752,-3.4432 l -50.3333,-0.6172 v 158.9043 158.9042 l 53,-0.5159 c 44.8534,-0.4367 54.2297,-0.8656 61,-2.7905 z m -58,-91.0207 v -47.4704 l 16.3333,0.4704 c 14.7019,0.4234 17.1003,0.847 24.0111,4.2406 13.9925,6.871 19.6556,19.1837 19.6556,42.7352 0,24.3831 -5.4128,37.1507 -18.5807,43.828 -6.7707,3.4333 -8.3186,3.6666 -24.3251,3.6666 h -17.0942 z m 0,-135.1962 v -41.3334 h 13.512 c 15.5383,0 21.8165,1.5149 28.2478,6.8162 5.8641,4.8337 9.4911,12.6739 11.5486,24.9635 2.9051,17.352 -0.8959,32.7059 -10.3908,41.973 -6.9472,6.7806 -14.0679,8.914 -29.7519,8.914 h -13.1657 z m 413.658,131.9455 0.342,-97.3878 10.4269,29.7211 c 5.7348,16.3467 12.4459,35.4212 14.9136,42.3878 2.4676,6.9667 12.0569,34.2667 21.3095,60.6667 9.2526,26.4 17.9241,51 19.27,54.6667 l 2.4471,6.6666 24.1498,0.3635 24.1498,0.3634 v -158.7262 -158.7262 l -25,0.3628 -25,0.3627 -0.6667,88.5162 c -0.5817,77.2441 -0.8999,87.8561 -2.4986,83.3333 -1.0076,-2.8505 -15.0316,-41.1828 -31.1644,-85.1828 -16.1329,-44 -29.9216,-81.6627 -30.6417,-83.695 l -1.3092,-3.6949 -25.5264,0.3616 -25.5263,0.3616 -0.3388,158.3334 -0.3388,158.3333 h 25.3301 25.3302 z m 201.6195,93.0545 c 0.7734,-4.5806 6.6299,-47.4601 8.1038,-59.3334 l 0.869,-7 h 29.2082 c 16.0645,0 29.2082,0.3474 29.2082,0.7719 0,0.4245 1.4986,11.3745 3.3302,24.3333 1.8316,12.9589 4.0283,28.5115 4.8814,34.5615 l 1.5511,11 h 26.9938 c 25.024,0 26.9547,-0.1703 26.4571,-2.3333 -0.2952,-1.2834 -2.3665,-12.5334 -4.6028,-25 -6.3282,-35.2781 -7.7646,-43.0919 -27.9418,-152 -8.1518,-44 -15.3551,-83 -16.0073,-86.6667 -3.6546,-20.5457 -6.8806,-38.1693 -8.1153,-44.3333 l -1.4021,-7 h -33.9473 c -25.936,0 -34.0947,0.3933 -34.5718,1.6666 -0.649,1.7322 -2.9701,13.9027 -10.6165,55.6667 -5.3339,29.133 -14.9859,81.6374 -16.0547,87.3333 -8.8861,47.3565 -31.2826,169.7745 -31.2846,171 0,1.2778 6.2059,1.6667 26.6035,1.6667 h 26.6063 z m 17.5021,-116.6667 c 0.2914,-1.2833 2.0464,-11.9333 3.8999,-23.6667 1.8536,-11.7333 4.6014,-29.1333 6.1063,-38.6666 6.3552,-40.2599 10.5183,-65.0819 10.9956,-65.5592 0.2805,-0.2805 0.9147,2.9556 1.4094,7.1913 0.824,7.0558 3.0243,21.1409 10.1592,65.0345 1.4304,8.8 3.8158,23.8 5.3009,33.3334 1.485,9.5333 3.0438,18.9833 3.4639,21 l 0.7638,3.6666 h -21.3145 c -19.6124,0 -21.2721,-0.1863 -20.7845,-2.3333 z m 199.2204,56.3333 v -64.6666 l 10,-0.25 c 5.5,-0.1375 11.5882,-0.2875 13.5294,-0.3334 3.5105,-0.083 3.6202,0.2253 20.614,57.9167 9.3966,31.9 18.0642,61.15 19.2614,65 l 2.1768,7 h 27.8759 c 17.0221,0 27.8759,-0.501 27.8759,-1.2867 0,-0.7077 -0.8482,-3.8577 -1.8849,-7 -1.6984,-5.1481 -16.1489,-50.133 -28.3903,-88.38 -2.5818,-8.0666 -7.016,-21.8267 -9.8538,-30.5779 -2.8378,-8.7512 -5.0197,-15.9631 -4.8487,-16.0264 0.1711,-0.063 3.7661,-2.4299 7.9891,-5.259 21.7108,-14.5447 31.5134,-44.6723 28.7618,-88.3968 -3.029,-48.1318 -26.8015,-73.696 -73.4675,-79.0048 -5.3015,-0.6031 -28.8391,-1.0152 -52.3057,-0.9158 l -42.6667,0.1807 -0.3388,158.3334 -0.3387,158.3333 h 28.0054 28.0054 z m 0,-158.4877 v -47.8211 l 17.6667,0.6237 c 19.2556,0.6798 24.4673,2.1406 30.596,8.5759 5.2161,5.4772 7.4985,11.9628 9.1561,26.0179 2.0119,17.0593 0.01,34.917 -5.0476,45.0225 -5.8019,11.5931 -10.9909,13.8351 -34.04,14.7079 l -18.3356,0.6943 z m 208.0023,166.5855 v -56.5689 l 9.2331,-16.9619 9.2332,-16.9619 4.0228,13.1975 c 12.5486,41.1677 36.4168,120.2856 39.6801,131.5308 0.6171,2.1263 3.153,2.3333 28.5873,2.3333 15.3506,0 27.9138,-0.45 27.9183,-1 0,-0.55 -14.7558,-45.2695 -32.8006,-99.3767 l -32.8089,-98.3767 29.4673,-58.643 c 16.2071,-32.2536 29.4674,-58.9341 29.4674,-59.2899 0,-0.3559 -12.4998,-0.647 -27.7773,-0.647 h -27.7773 l -11.1546,23 c -6.135,12.65 -18.8075,38.6 -28.1612,57.6666 l -17.0066,34.6667 -0.062,-57.6667 -0.062,-57.6666 h -28 -28 v 158.6666 158.6667 h 28 28 z m 183.2817,52.2356 c 0.4047,-2.3834 1.9078,-13.3334 3.3402,-24.3334 1.4324,-11 3.2166,-24.2 3.9648,-29.3333 0.7482,-5.1333 1.3723,-10.0833 1.3868,-11 0.02,-1.2819 6.7798,-1.6667 29.2781,-1.6667 h 29.2516 l 0.8189,6.3334 c 0.4504,3.4833 1.4024,10.2333 2.1155,15 2.1318,14.2496 6.5624,46.6997 6.5624,48.064 0,0.7615 10.7384,1.2693 26.84,1.2693 h 26.8401 l -0.7449,-5.6667 c -0.4085,-3.1166 -2.8603,-17.0666 -5.4484,-31 -2.5881,-13.9333 -6.8023,-36.7333 -9.3649,-50.6666 -2.5625,-13.9334 -11.9215,-64.6334 -20.7979,-112.6667 -21.2067,-114.7586 -21.2825,-115.1721 -21.306,-116.3333 -0.011,-0.55 -15.3391,-1 -34.0621,-1 -26.0179,0 -34.1862,0.3928 -34.6544,1.6666 -0.5669,1.5422 -11.6052,59.8818 -15.9565,84.3334 -2.4727,13.8947 -24.0613,130.2596 -33.5182,180.6666 -4.0587,21.6334 -7.7086,41.8834 -8.1109,45 l -0.7316,5.6667 h 26.7796 26.7797 z m 17.2534,-116.6667 c 0.6735,-2.1986 1.8517,-9.4518 9.4752,-58.3333 1.7156,-11 4.4219,-28.1 6.014,-38 1.5921,-9.9 3.3398,-21 3.8836,-24.6667 0.556,-3.748 1.3495,-5.7911 1.8125,-4.6667 0.453,1.1 2.349,11.9 4.2133,24 1.8643,12.1 5.4948,35.2 8.0678,51.3334 2.573,16.1333 5.2886,33.5333 6.0347,38.6666 0.7461,5.1334 1.6836,10.3834 2.0833,11.6667 0.6715,2.1559 -0.9096,2.3333 -20.7862,2.3333 -19.872,0 -21.4585,-0.1779 -20.7982,-2.3333 z m -1620.8195,711.3878 c -10.2921,-2.9045 -21.5469,-9.6715 -26.5618,-15.9705 -2.1526,-2.7038 -5.7373,-8.9374 -7.9658,-13.8523 -11.3073,-24.9378 0.086,-55.4319 25.1855,-67.411 7.8475,-3.7452 10.3258,-4.2588 21.5783,-4.471 11.4183,-0.2154 13.5949,0.1524 21.3792,3.6126 11.2879,5.0176 21.5263,15.0244 26.9814,26.3711 3.7629,7.8269 4.1548,9.8294 4.0447,20.6667 -0.2031,19.9913 -7.2643,33.9032 -22.063,43.4681 -14.2313,9.1981 -28.1067,11.6703 -42.5785,7.5863 z m 2041.6155,-11.6588 c -1.1,-0.7452 -3.3872,-1.364 -5.0826,-1.3752 -5.4081,-0.036 -17.9843,-6.9604 -24.5307,-13.5067 -9.2125,-9.2125 -15.6961,-24.3903 -15.7126,-36.782 -0.044,-33.1203 33.1313,-59.0667 64.6592,-50.5701 10.9927,2.9624 18.834,7.3613 25.1407,14.1036 6.6381,7.0967 12.83,18.2785 13.6211,24.5977 0.2848,2.2754 0.8684,5.7451 1.2968,7.7104 1.092,5.0093 -1.8205,19.1206 -5.6515,27.3824 -4.5806,9.8781 -13.4931,18.4948 -24.1079,23.3078 -4.9068,2.2249 -10.4315,4.2795 -12.277,4.5659 -10.3246,1.6021 -15.5734,1.7733 -17.3555,0.5662 z m -1962.458,-83.9137 c 0.9852,-1.3218 6.9585,-9.246 13.2741,-17.6093 9.8127,-12.9943 21.2057,-29.8352 35.5434,-52.5393 22.1429,-35.0642 52.319,-54.8439 75.4073,-49.4276 15.5582,3.6498 25.0389,11.4672 32.4091,26.7233 3.9187,8.1118 4.4907,10.6185 4.4907,19.6812 0,12.0825 -2.5975,18.8729 -10.7717,28.1592 -13.4011,15.2245 -37.497,24.4588 -78.5616,30.1074 -10.4255,1.434 -17.3046,2.7347 -39.3334,7.4368 -4.4,0.9392 -11.9,2.9271 -16.6666,4.4176 -19.1899,6.0007 -17.788,5.7298 -15.7913,3.0507 z m 1899.6249,-11.4262 c -0.7248,-0.7247 -29.3464,-7.8186 -39.8336,-9.8727 -4.0333,-0.79 -10.3789,-2.0892 -14.1013,-2.8871 -3.7224,-0.7978 -7.3224,-1.2936 -8,-1.1016 -0.6776,0.1919 -4.232,-0.3335 -7.8987,-1.1676 -3.6666,-0.8341 -7.5666,-1.4863 -8.6666,-1.4494 -6.3174,0.2118 -32.8932,-8.1337 -45.9633,-14.4338 -12.0688,-5.8173 -23.8166,-16.345 -28.8053,-25.8135 -2.6804,-5.0875 -3.1598,-7.9171 -3.1619,-18.6634 0,-11.2551 0.4188,-13.5053 3.7781,-20.1926 8.5122,-16.945 22.8422,-26.474 39.8125,-26.474 25.5836,0 46.7749,17.7884 73.0662,61.3333 12.1194,20.0726 23.2768,35.8701 35.3142,50 8.429,9.8942 9.3086,11.3333 6.927,11.3333 -1.021,0 -2.1313,-0.2749 -2.4673,-0.6109 z M 4190.7398,2061.7539 c 1.5731,-1.573 15.0272,-13.1997 29.8982,-25.8371 14.871,-12.6374 37.5381,-31.9148 50.3714,-42.8386 12.8334,-10.9238 28.7334,-24.3955 35.3334,-29.937 6.6,-5.5415 12.9019,-11.0313 14.0043,-12.1995 1.1024,-1.1683 4.1024,-3.7311 6.6667,-5.6953 2.5643,-1.9641 6.4623,-5.1768 8.6623,-7.1393 4.6944,-4.1875 9.2303,-6.1678 11.8365,-5.1677 1.0229,0.3925 6.8781,-0.026 13.0116,-0.9301 6.1336,-0.904 12.9519,-1.5369 15.1519,-1.4063 2.2,0.1306 8.0023,-0.3658 12.894,-1.103 4.8917,-0.7372 14.4917,-1.6368 21.3334,-1.9991 13.8841,-0.7354 34.6598,-2.7305 51.7726,-4.9719 6.2334,-0.8164 13.1334,-1.3826 15.3334,-1.2582 2.2,0.1243 8.4293,-0.4298 13.843,-1.2315 5.4137,-0.8017 14.1137,-1.6558 19.3334,-1.898 5.2196,-0.2422 11.9322,-1.001 14.9168,-1.6863 2.9846,-0.6853 7.3049,-0.9703 9.6006,-0.6334 l 4.1741,0.6126 -4.2673,3.4652 c -2.347,1.9058 -6.7003,5.592 -9.6739,8.1916 -8.7766,7.6727 -44.0746,37.7061 -63.9267,54.3923 -6.6,5.5474 -12.902,11.042 -14.0044,12.2103 -1.1024,1.1682 -4.1024,3.7311 -6.6667,5.6952 -2.5642,1.9642 -6.2418,4.9642 -8.1724,6.6667 -1.9305,1.7025 -8.4841,7.2955 -14.5635,12.4288 -6.0794,5.1333 -14.6999,12.553 -19.1566,16.4882 -4.4567,3.9352 -9.381,7.6429 -10.9428,8.2394 -1.5618,0.5965 -8.7618,1.4351 -16,1.8636 -7.2382,0.4285 -15.4831,1.324 -18.3221,1.99 -2.839,0.666 -6.006,0.887 -7.0377,0.4911 -1.0318,-0.396 -6.509,-0.01 -12.1716,0.8645 -5.6626,0.8714 -13.5956,1.765 -17.6289,1.9858 -17.5276,0.9593 -60.8628,4.9245 -65.7018,6.0117 -2.9113,0.6541 -6.0761,0.8889 -7.033,0.5217 -0.9569,-0.3672 -6.4331,0.056 -12.1692,0.9394 -5.7361,0.8839 -12.2294,1.5456 -14.4294,1.4705 -4.7944,-0.1637 -23.9611,2.2804 -26.9861,3.4412 -1.469,0.5637 -1.2436,-0.077 0.7165,-2.0375 z m 2427.6031,-21.1094 c -6.6,-1.0099 -13.6487,-1.5493 -15.6637,-1.1987 -2.015,0.3505 -6.815,0.031 -10.6666,-0.7096 -3.8517,-0.7407 -12.4885,-1.6005 -19.1929,-1.9107 -6.7043,-0.3101 -17.2043,-1.1557 -23.3333,-1.8791 -6.1289,-0.7234 -14.6146,-1.3259 -18.857,-1.3389 -4.2425,-0.013 -8.2082,-0.3294 -8.8127,-0.7031 -1.0286,-0.6356 -48.203,-4.2271 -73.4649,-5.5929 -6.2284,-0.3368 -12.5284,-1.414 -14,-2.3937 -1.4716,-0.9798 -14.0756,-11.2795 -28.0089,-22.8881 -24.8479,-20.7022 -48.0506,-39.9153 -53.3334,-44.1628 -3.1116,-2.5019 -8.311,-6.8544 -17.449,-14.6071 -3.603,-3.0567 -16.151,-13.4617 -27.8843,-23.122 -11.7333,-9.6604 -21.9333,-18.185 -22.6667,-18.9436 -1.1839,-1.2248 14.6735,-0.7485 36.6667,1.1013 2.5667,0.2158 10.6667,0.714 18,1.1069 7.3333,0.393 18.4333,1.3315 24.6667,2.0857 6.2333,0.7542 13.1333,1.242 15.3333,1.084 2.2,-0.158 10.1435,0.4993 17.6522,1.4606 7.5087,0.9614 14.4559,1.4396 15.4383,1.0626 0.9823,-0.377 4.7389,-0.1308 8.3478,0.547 3.6089,0.6778 12.2617,1.5257 19.2284,1.8844 6.9666,0.3586 14.1666,0.9397 16,1.2914 1.8333,0.3517 8.2788,0.9501 14.3233,1.3298 l 10.9899,0.6903 22.0815,18.323 c 12.1448,10.0777 24.6717,20.4231 27.8376,22.9898 6.1246,4.9653 40.093,32.8426 50.0537,41.0782 3.274,2.707 8.374,7.0556 11.3334,9.6636 2.9593,2.608 10.1707,8.608 16.0254,13.3333 5.8546,4.7254 14.4127,11.7415 19.0179,15.5915 9.4342,7.887 9.6462,7.7811 -9.6627,4.8269 z M 4200.7828,1846.8713 c -11.1946,-2.6661 -26.0196,-14.2884 -31.3309,-24.5623 -9.4305,-18.2417 -8.4665,-37.7726 2.717,-55.0484 9.0927,-14.0459 24.2544,-21.6932 43.1111,-21.7447 6.3822,-0.017 13.2822,0.6442 15.3334,1.4702 16.0236,6.4528 24.875,14.2205 31.7415,27.8556 4.3311,8.6004 4.4703,9.3655 4.1416,22.771 -0.2984,12.1705 -0.8062,14.8144 -4.1405,21.5597 -2.0901,4.2285 -5.9493,9.9472 -8.5758,12.7083 -4.4799,4.7093 -17.685,14.6121 -18.4535,13.8387 -0.1922,-0.1934 -2.5922,0.2713 -5.3333,1.0325 -5.6403,1.5665 -22.8397,1.6368 -29.2106,0.1194 z m 2396.8934,-14.8971 c -3.3,-0.7213 -6.6,-1.45 -7.3333,-1.6193 -3.5924,-0.8294 -13.935,-8.0325 -18.867,-13.14 -12.0352,-12.4635 -16.4877,-30.1146 -12.4252,-49.2577 3.6315,-17.1125 17.9808,-31.7371 35.8984,-36.5872 11.7307,-3.1753 16.3919,-3.2158 27.3938,-0.2374 18.8047,5.0906 30.4541,16.3002 37.2652,35.858 7.7786,22.336 -6.2175,51.6751 -29.5944,62.0368 -8.6667,3.8415 -22.4842,5.1007 -32.3375,2.9468 z m -2205.3334,-32.7355 c -2.5667,-0.34 -10.3667,-2.1562 -17.3333,-4.036 -17.9901,-4.8542 -39.614,-9.2865 -50.6667,-10.3851 -2.5667,-0.2552 -8.8667,-1.1501 -14,-1.9888 -5.1334,-0.8386 -12.0334,-1.1619 -15.3334,-0.7183 l -6,0.8065 3.3334,-2.6867 c 1.8333,-1.4777 3.7743,-2.7001 4.3133,-2.7164 2.8931,-0.088 43.8285,-26.4983 63.02,-40.6594 26.2761,-19.3886 46.9349,-27.7558 68.6667,-27.8114 10.7985,-0.028 13.7482,0.4676 20,3.358 9.3076,4.3031 16.754,11.7317 21.1337,21.0832 2.9917,6.3879 3.4408,9.1382 3.4837,21.3333 0.045,12.6914 -0.2876,14.6386 -3.5543,20.8311 -4.6049,8.7293 -13.9428,16.94 -23.5337,20.6929 -6.4589,2.5273 -10.4679,2.9867 -28.1961,3.2307 -11.3666,0.1565 -22.7666,0.01 -25.3333,-0.3336 z m 1993.3334,-16.3576 c -22.0268,-7.7345 -30.6624,-16.8151 -34.64,-36.4252 -2.758,-13.5972 2.7861,-31.5049 12.8898,-41.6344 7.9901,-8.0106 16.9677,-11.3372 30.5958,-11.3372 24.1785,0 40.5583,7.3535 77.1544,34.6375 17.2677,12.8738 35.9677,24.6724 52.9172,33.3875 4.9045,2.5218 8.6945,4.8078 8.4222,5.08 -0.2722,0.2722 -2.7849,0.46 -5.5838,0.4173 -2.7989,-0.043 -8.3889,0.6079 -12.4223,1.4459 -4.0333,0.8379 -7.8877,1.3781 -8.5653,1.2003 -0.6776,-0.1778 -3.9776,0.2759 -7.3333,1.008 -3.3558,0.7322 -11.5014,2.3083 -18.1014,3.5025 -6.6,1.1941 -14.1,2.8336 -16.6666,3.6433 -2.5667,0.8097 -5.8667,1.609 -7.3334,1.7763 -1.4666,0.1674 -6.8666,1.3486 -12,2.625 -13.0653,3.2488 -50.7798,3.6767 -59.3333,0.6732 z m 133.3333,-179.9926 c -10.6333,-3.5175 -30.1333,-9.8198 -43.3333,-14.0051 -13.2,-4.1852 -26.1,-8.3039 -28.6667,-9.1525 -2.5666,-0.8486 -5.2666,-1.5672 -6,-1.5967 -0.7333,-0.03 -1.9333,-0.4064 -2.6666,-0.8375 -0.7334,-0.4311 -11.2334,-3.9138 -23.3334,-7.7394 -12.1,-3.8256 -25.3,-8.0437 -29.3333,-9.3736 -4.0333,-1.33 -13.5755,-4.3742 -21.2049,-6.7651 l -13.8716,-4.3471 15.8716,-5.1025 c 8.7294,-2.8064 18.8716,-6.0094 22.5382,-7.1177 13.6728,-4.1329 37.4683,-11.7013 41.3334,-13.1464 2.2,-0.8225 4.6,-1.5183 5.3333,-1.5461 0.7333,-0.028 6.1333,-1.6195 12,-3.5371 5.8667,-1.9176 14.2667,-4.5468 18.6667,-5.8426 4.4,-1.2958 13.1,-4.011 19.3333,-6.0337 6.2333,-2.0228 15.8333,-5.0131 21.3333,-6.6452 5.5,-1.6321 10.6,-3.3215 11.3334,-3.7542 0.7333,-0.4327 2.0997,-0.9029 3.0364,-1.0449 3.5309,-0.5353 17.0114,-4.9437 18.1347,-5.9304 0.6441,-0.5657 2.1441,-0.4853 3.3333,0.1787 1.1892,0.6641 6.6622,2.66 12.1622,4.4354 27.572,8.9003 42.1279,13.4347 43.3334,13.4989 0.7333,0.039 2.176,0.5979 3.2059,1.2418 1.0299,0.6439 3.1299,1.3564 4.6667,1.5835 1.5367,0.227 6.994,1.8876 12.1274,3.6902 14.9763,5.259 51.8153,17.1024 54.0234,17.3679 1.1129,0.1339 2.6129,0.5816 3.3334,0.995 1.4783,0.8483 39.9698,13.2402 42.4034,13.6513 0.8652,0.1462 2.8837,0.9869 4.4855,1.8683 1.6017,0.8814 4.3017,1.6261 6,1.6548 2.5823,0.044 2.3238,0.389 -1.5791,2.1103 -2.5666,1.132 -5.8045,2.2909 -7.1953,2.5755 -1.3907,0.2846 -4.3907,1.0844 -6.6666,1.7774 -6.0412,1.8394 -42.1935,13.0848 -56.1381,17.4621 -6.6,2.0718 -19.2,5.977 -28,8.6782 -8.8,2.7012 -19.3,6.001 -23.3333,7.3329 -4.0333,1.332 -12.7333,4.0284 -19.3333,5.9921 -6.6,1.9637 -15.3,4.6623 -19.3334,5.9968 -13.2631,4.3884 -25.7574,8.0242 -27.2245,7.9223 -0.7932,-0.055 -10.1421,-2.9781 -20.7755,-6.4956 z m -2254.0001,-0.3224 c -4.4,-1.4771 -9.2,-2.9206 -10.6666,-3.2077 -1.4667,-0.287 -12.5667,-3.8099 -24.6667,-7.8286 -12.1,-4.0187 -27.1,-8.9135 -33.3333,-10.8775 -6.2334,-1.9639 -17.3334,-5.5237 -24.6667,-7.9106 -7.3333,-2.3869 -22.3333,-7.1745 -33.3333,-10.6391 -26.1603,-8.2395 -54.8424,-17.7993 -54,-17.9982 0.3666,-0.087 1.5666,-0.3625 2.6666,-0.613 3.5252,-0.803 29.625,-8.7182 41.3334,-12.5351 6.2333,-2.032 14.9333,-4.781 19.3333,-6.1089 4.4,-1.3279 13.1,-4.0637 19.3333,-6.0797 6.2334,-2.0159 14.9334,-4.7182 19.3334,-6.005 4.4,-1.2868 13.1,-3.9946 19.3333,-6.0173 6.2333,-2.0228 15.8333,-5.0131 21.3333,-6.6452 5.5,-1.6321 10.6,-3.3215 11.3334,-3.7542 0.7333,-0.4327 2.064,-0.8977 2.957,-1.0333 1.5651,-0.2376 16.0711,-4.5029 25.7096,-7.5596 2.5667,-0.8139 5.2224,-1.9431 5.9017,-2.5093 0.6792,-0.5662 1.8792,-0.5421 2.6666,0.053 0.7875,0.5956 5.0317,2.1454 9.4317,3.444 4.4,1.2987 13.1,4.0324 19.3334,6.0749 6.2333,2.0426 23.0333,7.4462 37.3333,12.008 14.3,4.5618 29.3,9.38 33.3334,10.707 24.1769,7.9545 42.2637,13.643 44.0234,13.846 1.1129,0.1284 2.6129,0.5856 3.3333,1.016 0.7205,0.4305 10.2596,3.6051 21.198,7.0547 13.8747,4.3756 19.3172,6.6334 18,7.4672 -1.0384,0.6573 -2.599,1.2043 -3.4679,1.2155 -0.869,0.011 -3.269,0.7126 -5.3334,1.5586 -2.0644,0.8461 -4.4841,1.6901 -5.3771,1.8758 -3.3264,0.6914 -21.2947,6.2477 -28.3763,8.7747 -4.0334,1.4392 -8.482,2.8701 -9.886,3.1797 -1.4039,0.3096 -5.3039,1.4273 -8.6666,2.4838 -3.3628,1.0564 -15.1141,4.7162 -26.1141,8.1329 -11,3.4167 -22.4,6.9868 -25.3334,7.9337 -2.9333,0.9468 -11.6333,3.6676 -19.3333,6.0463 -7.7,2.3788 -16.7,5.2749 -20,6.4358 -3.3,1.161 -6.9,2.2154 -8,2.3431 -1.1,0.1277 -6.5,1.7427 -12,3.5888 -14.6507,4.9178 -15.9053,5.0237 -24.6667,2.0824 z m 137.308,-204.8426 c -14.9591,-4.9984 -32.7662,-15.2373 -48.126,-27.672 -7.6621,-6.203 -34.0277,-23.8708 -43.182,-28.9367 -3.3,-1.8262 -10.0998,-5.4901 -15.1107,-8.1421 -8.6977,-4.6032 -8.9267,-5.8974 -0.8893,-5.0247 1.1,0.1195 5.6,-0.451 10,-1.2678 4.4,-0.8167 9.5,-1.6387 11.3334,-1.8266 7.2595,-0.7443 23.903,-3.9971 58.4224,-11.418 3.1657,-0.6806 6.3386,-1.5976 7.0509,-2.0379 2.5824,-1.5959 36.6686,-2.0752 45.1934,-0.6355 11.6117,1.9612 11.9509,2.0481 17.4607,4.4745 9.0665,3.9928 18.0575,12.3305 22.0116,20.4124 5.1161,10.4569 5.3296,26.2819 0.5285,39.1685 -4.1267,11.0763 -13.7584,21.1976 -23.2497,24.4316 -10.3854,3.5387 -28.2554,2.8808 -41.4432,-1.5257 z m 1980.0255,-12.1297 c -7.9888,-1.5724 -12.6387,-3.7653 -18.9498,-8.9368 -20.8547,-17.0889 -21.5902,-54.9298 -1.3675,-70.3544 5.5557,-4.2376 17.3381,-9.4713 24.1235,-10.7157 12.6502,-2.3198 39.5641,-0.7731 56.8604,3.2677 3.3,0.7709 7.2,1.6214 8.6667,1.89 1.4667,0.2685 4.3999,1.1616 6.5183,1.9846 2.1183,0.823 4.1472,1.2007 4.5086,0.8393 0.3614,-0.3614 1.8071,-0.042 3.2128,0.7107 2.457,1.315 32.1322,6.7733 34.1233,6.2765 0.5337,-0.1331 5.3887,0.5371 10.789,1.4894 5.4003,0.9522 12.2418,1.3439 15.2033,0.8703 4.6832,-0.7488 5.1688,-0.6009 3.7276,1.1356 -0.9114,1.0982 -2.8225,2.3666 -4.247,2.8187 -4.8527,1.5402 -34.6941,20.5738 -58.45,37.2809 -13.0344,9.1668 -24.052,16.667 -24.4837,16.667 -0.4317,0 -3.8112,1.7844 -7.5102,3.9654 -3.6989,2.181 -6.7253,3.6075 -6.7253,3.1701 0,-0.4375 -0.75,-0.1845 -1.6667,0.5621 -5.8944,4.8008 -33.5067,9.2096 -44.3333,7.0786 z m -2183.3335,-21.5251 c -18.6098,-5.3508 -28.435,-14.4424 -36.1829,-33.4812 -4.6322,-11.3826 -4.9213,-20.0539 -1.0369,-31.1056 5.6651,-16.1185 15.0043,-27.227 27.4228,-32.6183 3.555,-1.5434 7.3811,-3.3074 8.5023,-3.92 1.1212,-0.6125 7.7212,-0.9817 14.6666,-0.8204 15.6344,0.3632 24.446,3.9098 35.5023,14.2895 10.8885,10.2224 15.436,20.7033 15.5065,35.7396 0.066,14.1383 -2.8101,23.4945 -10.2148,33.2257 -12.5158,16.4484 -34.9915,24.2039 -54.1659,18.6907 z m 2397.0816,-14.5146 c -2.7052,-0.5263 -8.8082,-2.8718 -13.5623,-5.2122 -31.9871,-15.7472 -38.4746,-58.7908 -12.6256,-83.7697 12.3297,-11.9147 33.7345,-18.0084 47.6784,-13.5736 24.5279,7.801 38.2175,24.1427 41.058,49.0123 1.0627,9.3046 -4.4931,25.6189 -11.9275,35.0241 -11.705,14.808 -31.8376,22.1733 -50.621,18.5191 z M 4514.1892,1194.5813 c -5.2643,-0.9178 -20.0415,-2.0635 -40.5131,-3.1411 -6.2333,-0.3281 -16.8639,-1.2741 -23.6235,-2.1021 -6.7596,-0.8281 -13.1069,-1.1922 -14.105,-0.8092 -0.9981,0.383 -4.7675,0.1402 -8.3765,-0.5396 -3.6089,-0.6799 -12.2616,-1.5166 -19.2283,-1.8594 -6.9667,-0.3427 -17.1823,-1.2385 -22.7014,-1.9904 -5.5191,-0.752 -12.1191,-1.2732 -14.6667,-1.1581 -2.5475,0.115 -12.1319,-0.5875 -21.2986,-1.561 l -16.6667,-1.7701 -10,-8.1798 c -5.5,-4.4989 -22.6,-18.6072 -38,-31.3517 -15.4,-12.7445 -35.2,-29.1134 -44,-36.3753 -8.8,-7.2619 -17.5,-14.4943 -19.3333,-16.0721 -1.8333,-1.5778 -6.3333,-5.2653 -10,-8.1946 -3.6667,-2.9292 -6.9667,-5.6259 -7.3333,-5.9925 -1.4845,-1.4845 -16.7436,-14.2112 -20.5679,-17.1545 l -4.0988,-3.1545 11.3333,0.9877 c 6.2334,0.5433 15.5395,1.1645 20.6804,1.3805 5.1408,0.216 14.1408,1.0283 20,1.8051 5.8591,0.7768 13.653,1.3871 17.3196,1.3563 3.6667,-0.031 10.8667,0.5549 16,1.3016 5.1334,0.7467 13.0623,1.3362 17.62,1.3101 4.5576,-0.026 8.7576,0.2319 9.3333,0.5734 0.5757,0.3415 6.1467,0.9928 12.3801,1.4474 6.2333,0.4545 20.3333,1.4854 31.3333,2.2907 23.4187,1.7146 34.6514,2.4197 39.499,2.4796 3.0535,0.038 21.2751,13.844 41.1677,31.1922 1.8333,1.5988 12.0333,10.0868 22.6667,18.8621 10.6333,8.7753 19.5333,16.4127 19.7777,16.972 0.2445,0.5593 0.9945,1.0169 1.6667,1.0169 0.6722,0 2.3115,1.05 3.6429,2.3334 2.3538,2.2688 6.9239,6.1149 36.356,30.5966 12.774,10.6254 17.675,14.6369 27.8417,22.7888 l 3.285,2.6341 -6.1052,0.4902 c -3.3579,0.2697 -8.4362,0.084 -11.2851,-0.4127 z m 1765.2228,-15.5656 c -2.638,-0.7783 -1.9814,-1.6643 6.5686,-8.8648 5.2247,-4.4 12.2883,-10.4 15.697,-13.3333 6.8417,-5.8877 25.6038,-21.7517 33.115,-28 2.6446,-2.2 7.2254,-6.1568 10.1794,-8.7929 2.954,-2.6361 6.8219,-5.9361 8.5954,-7.3333 1.7734,-1.3973 5.6734,-4.6756 8.6666,-7.2852 2.9932,-2.6096 15.3422,-13.0893 27.4422,-23.2884 12.1,-10.199 22.3,-18.8721 22.6667,-19.2736 0.3666,-0.4015 3.6666,-3.1952 7.3333,-6.2084 6.4745,-5.3205 17.3358,-9.1677 21.438,-7.5935 0.9368,0.3595 6.3965,-0.07 12.1327,-0.9534 5.7361,-0.8839 12.2293,-1.5406 14.4293,-1.4593 2.2,0.081 8.2,-0.4607 13.3333,-1.2043 5.1334,-0.7435 12.9334,-1.5661 17.3334,-1.8278 19.4867,-1.1592 60.0114,-4.9188 64.9287,-6.0237 2.9698,-0.6672 6.1825,-0.9127 7.1394,-0.5455 0.9569,0.3672 6.433,-0.058 12.1692,-0.9445 5.7361,-0.8867 12.5293,-1.5468 15.096,-1.467 4.3509,0.1353 16.9304,-1.4733 25.8843,-3.3099 3.5465,-0.7275 3.2567,-0.2505 -3.3334,5.4858 -11.3245,9.8574 -19.6909,17.017 -31.2176,26.7144 -13.8747,11.6729 -21.9545,18.5453 -39.9466,33.9772 -18.5516,15.9118 -27.8104,23.7656 -40.604,34.4419 -5.5638,4.6431 -12.2246,10.3431 -14.8017,12.6667 -18.4193,16.6072 -19.0604,16.9776 -30.4139,17.5738 -5.7872,0.3039 -13.0229,1.1144 -16.0794,1.8011 -3.0565,0.6868 -6.7223,0.944 -8.1464,0.5716 -1.424,-0.3724 -6.3583,-0.025 -10.9652,0.7726 -4.6068,0.7973 -14.9761,1.7816 -23.0428,2.1873 -8.0666,0.4056 -19.4666,1.3993 -25.3333,2.2081 -5.8667,0.8087 -12.6473,1.3686 -15.068,1.244 -2.4207,-0.1246 -7.8207,0.3815 -12,1.1245 -4.1793,0.743 -12.9987,1.6752 -19.5987,2.0716 -6.6,0.3964 -14.3228,1.2625 -17.1617,1.9248 -2.839,0.6623 -5.9981,0.8832 -7.0203,0.491 -1.5846,-0.6081 -20.317,1.5527 -24.9489,2.8779 -0.8447,0.2416 -2.8546,0.05 -4.4666,-0.4255 z M 4551.6761,1042.9415 c -16.9334,-7.9456 -32.5334,-23.2907 -46.1847,-45.42994 -20.0791,-32.56379 -33.5606,-51.79882 -47.816,-68.22276 l -5.3774,-6.19548 10.2711,3.16899 c 5.6491,1.74294 10.5381,2.90202 10.8644,2.57572 0.3263,-0.3263 1.6164,-0.0457 2.8669,0.62354 1.2504,0.66924 8.5216,2.43227 16.158,3.91784 7.6364,1.48558 16.6404,3.34825 20.0087,4.13928 3.3684,0.79103 6.6684,1.28464 7.3334,1.09692 0.6649,-0.18772 4.2546,0.41573 7.977,1.34101 3.7224,0.92528 7.3224,1.51276 8,1.30552 0.6776,-0.20725 3.932,0.31092 7.232,1.15147 3.3,0.84056 10.2,2.55022 15.3333,3.79926 21.47,5.22405 43.9507,19.55899 51.7156,32.97683 8.442,14.58791 7.6935,31.8871 -2.0082,46.4156 -5.6915,8.523 -16.0568,17.184 -23.573,19.697 -2.4928,0.8334 -9.0928,1.4878 -14.6667,1.4541 -8.2472,-0.05 -11.6241,-0.7602 -18.1344,-3.8149 z m 1678.0001,-10.7041 c -12.2903,-3.752 -22.2926,-12.8635 -28.7746,-26.2116 -3.9475,-8.12887 -4.2812,-9.82044 -4.0187,-20.36995 0.2251,-9.04907 0.9461,-12.77489 3.3778,-17.45439 4.6842,-9.01429 15.6043,-18.83396 27.5401,-24.76486 5.7981,-2.8811 10.8421,-5.27962 11.2087,-5.33004 0.3667,-0.0504 3.9667,-1.08376 8,-2.29628 4.0334,-1.21253 12.1334,-3.08983 18,-4.17178 17.3202,-3.19425 30.6032,-5.34481 31.5619,-5.10999 1.2275,0.30063 31.1838,-5.95198 37.7715,-7.88382 2.9333,-0.8602 9.5333,-2.91968 14.6666,-4.57662 5.1334,-1.65694 9.526,-2.82349 9.7615,-2.59232 0.2354,0.23116 -4.1762,6.32765 -9.8037,13.54775 -5.6274,7.22009 -16.5458,22.72744 -24.2631,34.46078 -7.7173,11.73333 -16.7281,25.39598 -20.0241,30.36144 -7.4741,11.25998 -22.7406,26.99928 -32.4254,33.42958 -13.3941,8.8932 -30.8022,12.5573 -42.5785,8.9621 z M 4374.6078,931.40543 c -13.3513,-3.64536 -26.1801,-13.87031 -32.0468,-25.54229 -1.7635,-3.50837 -4.2706,-10.57887 -5.5714,-15.7122 -2.3279,-9.18632 -2.3192,-9.50929 0.5474,-20.50407 2.829,-10.84991 8.1663,-20.66185 14.0883,-25.89924 8.4381,-7.46262 17.8434,-12.22342 27.3842,-13.86148 23.3916,-4.01612 47.0997,8.44244 57.0352,29.97189 3.0854,6.68592 3.5235,9.35244 3.553,21.62623 0.032,13.19489 -0.2201,14.51329 -4.3807,22.92551 -10.934,22.10752 -36.6163,33.54655 -60.6092,26.99565 z m 2038.9876,-12.52868 c -15.008,-2.71286 -29.9402,-14.29456 -36.5768,-28.36972 -6.2051,-13.15987 -6.2617,-31.70168 -0.1389,-45.4939 2.917,-6.57094 13.1129,-17.48716 20.2276,-21.65666 11.6508,-6.82778 27.5291,-9.54349 36.9884,-6.32622 2.7974,0.95144 5.4974,1.62923 6,1.5062 2.6248,-0.64252 14.8809,6.97281 20.8849,12.97681 7.7124,7.71241 11.3762,14.6349 14.4513,27.30435 2.5648,10.56721 1.2661,18.78841 -5.2182,33.03386 -8.882,19.51283 -33.4097,31.2205 -56.6183,27.02528 z m -336.2895,-38.39248 c 0.9441,-2.50497 7.8007,-15.78678 17.0359,-33 3.1476,-5.86666 9.6025,-18.16666 14.3441,-27.33333 23.6367,-45.69481 29.4312,-56.77488 30.332,-58 0.5393,-0.73334 6.84,-12.73334 14.0018,-26.66667 7.1617,-13.93333 13.6027,-26.07134 14.3134,-26.97334 0.7106,-0.902 7.9785,-5.03657 16.1509,-9.18794 8.1724,-4.15136 25.6589,-13.08166 38.8589,-19.84511 13.2,-6.76346 40.2,-20.55777 60,-30.65402 19.8,-10.09626 42.163,-21.59484 49.6956,-25.5524 l 13.6955,-7.19558 -9.5398,18.37086 c -5.2469,10.10397 -10.8844,20.77086 -12.5276,23.70419 -1.6433,2.93334 -8.2441,15.53334 -14.6685,28 -6.4243,12.46667 -12.7302,24.46667 -14.013,26.66667 -1.2829,2.2 -7.5826,14.2 -13.9993,26.66667 -6.4168,12.46667 -12.1124,23.26667 -12.657,24 -0.5446,0.73333 -4.134,7.47749 -7.9763,14.98701 -5.0144,9.80003 -8.1655,14.36389 -11.1646,16.17002 -2.2981,1.384 -20.6784,10.91949 -40.845,21.18999 -65.4342,33.32437 -97.6799,49.81567 -114.3551,58.4842 -8.9953,4.67616 -16.6265,8.50212 -16.9582,8.50212 -0.3317,0 -0.2073,-1.05 0.2763,-2.33334 z M 4730.3428,876.2232 c -8.615,-4.54337 -16.9541,-8.91022 -59.3333,-31.07037 -8.4334,-4.4098 -21.3334,-11.17823 -28.6667,-15.04096 -7.3333,-3.86273 -19.3333,-10.14291 -26.6667,-13.95595 -7.3333,-3.81305 -21.8456,-11.4414 -32.2494,-16.95189 l -18.9162,-10.01908 -11.588,-22.85034 c -6.3734,-12.56769 -12.0271,-23.45034 -12.5638,-24.18367 -0.5366,-0.73334 -10.1381,-19.33334 -21.3364,-41.33334 -11.1984,-22 -20.8053,-40.6 -21.3487,-41.33333 -1.1337,-1.52992 -21.551,-41.45155 -22.8709,-44.71912 -0.5396,-1.33586 6.8498,1.87764 19.3333,8.40764 11.1137,5.81349 30.1068,15.68918 42.2068,21.94599 12.1,6.25682 25,13.03093 28.6667,15.0536 3.6666,2.02266 16.2666,8.61728 28,14.65472 43.7387,22.50592 54.7226,28.39733 56.8635,30.49979 1.2083,1.18656 8.6271,14.75738 16.4863,30.15738 7.8592,15.4 17.1473,33.4 20.6402,40 3.493,6.6 14.0099,27 23.3709,45.33333 9.3611,18.33334 20.2146,39.48334 24.119,47.00001 3.9043,7.51666 6.6686,13.59042 6.1428,13.49723 -0.5259,-0.0932 -5.1561,-2.38442 -10.2894,-5.09164 z m 106.4426,-113.26663 c -6.1953,-1.59986 -15.0876,-7.20268 -20.6791,-13.02949 -6.2589,-6.52232 -14.7648,-22.45001 -18.3934,-34.44281 -1.5532,-5.13334 -3.5447,-11.73334 -4.4254,-14.66667 -0.8808,-2.93333 -1.4522,-5.78789 -1.2697,-6.34346 0.1825,-0.55558 -0.3076,-3.85558 -1.0891,-7.33334 -0.7815,-3.47776 -1.6853,-9.9232 -2.0085,-14.3232 -1.0042,-13.67242 -9.0278,-48.11428 -15.5817,-66.88619 l -1.9387,-5.55286 7.6068,6.21953 c 15.1093,12.35383 30.3128,22.87625 65.7457,45.50287 25.8042,16.47789 42.7196,35.57838 48.4572,54.71665 3.1457,10.49264 2.917,16.91443 -0.9727,27.31055 -6.1557,16.45255 -23.1567,28.4425 -41.7139,29.41874 -5.2324,0.27526 -11.4142,0.01 -13.7375,-0.59032 z M 5951.0095,754.224 c -10.7663,-2.34753 -15.8289,-4.93199 -23.8668,-12.18395 -7.7891,-7.02754 -14.1269,-18.39207 -15.5024,-27.79817 -1.0206,-6.97905 2.9653,-20.02052 9.4004,-30.75761 9.0838,-15.1564 23.4791,-27.67923 50.6355,-44.04903 20.5174,-12.36783 47.6881,-31.03481 51.3333,-35.26732 0.3667,-0.42575 3.63,-3.15373 7.2517,-6.0622 4.8531,-3.89723 6.3193,-4.58673 5.5746,-2.62146 -1.2705,3.35259 -7.1269,26.41254 -8.6792,34.17464 -0.6407,3.20395 -2.1014,10.32537 -3.2459,15.82537 -1.6409,7.88559 -6.1416,33.44662 -8.217,46.66666 -0.3525,2.24547 -0.5767,2.8958 -6.3979,18.55344 -8.7566,23.55341 -25.6054,41.50861 -40.9529,43.64214 -1.8334,0.25486 -4.8334,0.69133 -6.6667,0.96993 -1.8333,0.2786 -6.6333,-0.213 -10.6667,-1.09244 z m -918.1858,-77.65079 c -2.0978,-2.70107 -6.5142,-7.97477 -9.8142,-11.71932 -3.3,-3.74455 -10.3044,-11.88458 -15.5653,-18.08895 -10.8394,-12.7832 -47.1001,-55.14065 -65.1014,-76.04718 -36.0572,-41.87662 -34,-39.01834 -34,-47.23915 0,-3.83004 -0.6265,-10.1956 -1.3923,-14.14569 -0.7658,-3.9501 -1.3985,-9.58199 -1.4061,-12.51532 -0.01,-2.93334 -0.665,-10.13334 -1.461,-16.00001 -0.796,-5.86666 -1.3513,-12.16666 -1.234,-14 0.1173,-1.83333 -0.4162,-7.53333 -1.1855,-12.66666 -0.7692,-5.13334 -1.6128,-12.93334 -1.8745,-17.33334 -0.9356,-15.72664 -4.8304,-59.66956 -5.3655,-60.53539 -0.2999,-0.48524 -0.8991,-6.86329 -1.3317,-14.17344 -0.4325,-7.31014 -1.3416,-15.65962 -2.0202,-18.55439 -2.1897,-9.34123 0.128,-9.70552 7.3409,-1.15383 3.5954,4.26271 6.8542,8.05038 7.2418,8.41705 0.3876,0.36667 4.001,4.56044 8.0297,9.31949 4.0288,4.75906 8.9043,10.45906 10.8344,12.66667 1.9302,2.20761 13.221,15.41384 25.0906,29.34718 37.2652,43.74412 41.9504,49.21217 46.2692,54 11.8686,13.1573 24.4516,28.897 24.5164,30.66666 0.4502,12.30137 5.2549,67.08907 6.1274,69.86997 0.4377,1.39514 0.7505,4.99514 0.6951,8 -0.055,3.00485 0.5274,9.36337 1.2951,14.13004 0.7677,4.76666 1.3677,11.06666 1.3333,14 -0.034,2.93333 0.5657,9.23333 1.3334,14 0.7677,4.76667 1.3677,11.06667 1.3333,14 -0.034,2.93333 0.4956,8.93333 1.1778,13.33333 0.6821,4.4 1.5533,14 1.9359,21.33334 0.3825,7.33333 1.0566,16.18333 1.4978,19.66666 0.4413,3.48334 0.5124,6.33334 0.1581,6.33334 -0.3543,0 -2.3606,-2.20998 -4.4585,-4.91106 z m 727.1699,-2.57531 c -0.4159,-0.67302 -0.1817,-4.21391 0.5205,-7.86865 0.7021,-3.65474 1.5399,-11.74498 1.8616,-17.97832 0.3217,-6.23333 1.2419,-16.93085 2.0448,-23.77226 0.803,-6.84142 1.1982,-13.14142 0.8783,-14.00001 -0.3199,-0.85858 0.2125,-7.26106 1.1832,-14.22773 0.9707,-6.96667 1.7242,-15.36667 1.6746,-18.66667 -0.05,-3.3 0.5499,-10.8 1.3322,-16.66666 0.7823,-5.86667 1.7207,-18.16667 2.0853,-27.33334 0.3646,-9.16666 1.2771,-20.96414 2.0278,-26.2166 0.7507,-5.25246 1.299,-12.47563 1.2184,-16.05148 -0.2455,-10.89543 1.4205,-15.22008 9.3987,-24.39859 4.1434,-4.76666 11.7571,-13.76666 16.9195,-20 5.1624,-6.23333 13.8452,-16.6595 19.2952,-23.16926 5.45,-6.50976 11.7092,-14.08541 13.9092,-16.83478 5.0193,-6.27276 42.8747,-51.65891 50.7228,-60.81344 3.2145,-3.74961 8.2808,-9.89961 11.2585,-13.66667 2.9777,-3.76705 5.6379,-6.84918 5.9115,-6.84918 0.8034,0 -0.297,21.10655 -1.7394,33.36621 -0.7313,6.21525 -1.7403,18.50045 -2.2423,27.30046 -0.5019,8.8 -1.1048,17.5 -1.3397,19.33333 -0.2349,1.83333 -0.7684,9.33333 -1.1857,16.66667 -0.4172,7.33333 -1.3599,17.84895 -2.0948,23.36804 -0.735,5.51909 -1.2138,12.11909 -1.0641,14.66667 0.1497,2.54757 -0.4495,10.03195 -1.3316,16.63195 -0.882,6.6 -1.4882,13.8 -1.347,16 0.1411,2.20001 -0.5048,10.00001 -1.4355,17.33334 -1.5395,12.13107 -2.1277,13.87435 -6.5238,19.33333 -2.6575,3.3 -5.1522,6.3 -5.5437,6.66667 -0.3916,0.36667 -3.0916,3.66667 -6,7.33333 -2.9085,3.66667 -5.6221,6.96667 -6.0303,7.33334 -0.6267,0.56307 -9.4848,11.20676 -30.0611,36.12072 -2.1746,2.63307 -18.9538,22.71962 -37.2872,44.63679 -18.3333,21.91717 -33.9917,40.70374 -34.7965,41.74793 -0.8047,1.0442 -1.8034,1.34788 -2.2194,0.67486 z M 5189.277,612.12459 c -15.1656,-4.69233 -23.3429,-13.11657 -29.1488,-30.02927 -2.8577,-8.3243 -3.2018,-11.49933 -3.035,-28 0.1035,-10.23608 0.9203,-21.61106 1.815,-25.27772 0.8948,-3.66667 3.102,-12.96667 4.9049,-20.66667 1.8029,-7.7 3.9013,-16.30842 4.663,-19.12981 0.7617,-2.8214 1.0891,-5.42564 0.7275,-5.78721 -0.3616,-0.36158 0.1863,-3.04883 1.2176,-5.97169 1.0312,-2.92286 1.819,-6.61861 1.7507,-8.21279 -0.068,-1.59418 0.5421,-6.1304 1.3566,-10.08049 0.8146,-3.95009 1.481,-9.72509 1.481,-12.83333 0,-3.10824 0.3766,-7.53421 0.8368,-9.83548 0.8139,-4.06957 1.0428,-3.82772 8.3585,8.83333 7.4587,12.90846 27.158,42.43769 39.3911,59.04721 3.4987,4.75031 7.5786,11.03693 9.0665,13.97026 1.4879,2.93333 3.0837,5.63333 3.5461,6 1.3954,1.1064 8.288,18.83032 10.3704,26.66667 2.7166,10.22327 2.5752,26.20281 -0.3087,34.88532 -1.7024,5.12559 -4.4462,9.18021 -9.909,14.64299 -6.2765,6.27651 -9.1166,8.03892 -16.7865,10.41701 -12.1233,3.75886 -21.2275,4.16803 -30.2977,1.36167 z m 402.3992,-2.48145 c -26.1541,-7.00644 -41.2429,-30.95071 -34.4024,-54.59276 0.9178,-3.17196 1.5885,-6.17196 1.4905,-6.66666 -0.098,-0.4947 0.3063,-2.09946 0.8984,-3.56612 0.5921,-1.46667 2.4153,-6.04273 4.0515,-10.16902 4.2921,-10.82382 11.3965,-22.45553 23.9209,-39.16432 16.1769,-21.58166 26.5666,-37.5777 38.3754,-59.08293 l 4.6215,-8.41625 0.9412,12.82286 c 0.5177,7.05258 1.7344,15.45816 2.7038,18.67908 0.9693,3.22092 1.5339,6.08479 1.2545,6.36416 -0.2794,0.27936 0.6914,5.86109 2.1573,12.40384 1.4659,6.54275 2.9272,13.39591 3.2473,15.22924 0.3201,1.83334 1.5492,7.83334 2.7314,13.33334 8.0531,37.4679 8.2622,50.8153 1.1457,73.10371 -2.733,8.55934 -4.9582,12.30139 -10.9299,18.38012 -7.7055,7.84363 -16.0411,11.37793 -28.1708,11.94449 -5.52,0.25783 -11.8363,-0.0134 -14.0363,-0.60278 z m -183.9031,-4.002 c -0.5215,-0.84381 -1.2343,-3.1743 -1.5841,-5.17887 -0.7373,-4.2258 -2.9246,-11.52506 -4.8878,-16.31134 -0.7519,-1.83333 -1.4959,-4.23333 -1.6532,-5.33333 -0.1573,-1.1 -1.2032,-4.7 -2.3243,-8 -1.1211,-3.3 -3.3795,-10.5 -5.0187,-16 -1.6392,-5.5 -3.3344,-10.6 -3.7671,-11.33334 -0.4327,-0.73333 -0.8857,-1.93333 -1.0066,-2.66666 -0.2665,-1.61594 -7.8555,-26.3439 -14.5266,-47.33334 -2.6804,-8.43333 -5.3536,-17.13333 -5.9403,-19.33333 -0.5868,-2.2 -2.573,-8.5 -4.4139,-14 -1.8408,-5.5 -4.6916,-14.5 -6.3351,-20 -1.6435,-5.5 -3.5045,-10.65521 -4.1355,-11.45602 -0.631,-0.8008 -0.8082,-1.79504 -0.3938,-2.20942 0.4143,-0.41438 -0.1932,-2.58391 -1.3502,-4.82117 -1.8668,-3.6101 -1.884,-4.56163 -0.1531,-8.45724 1.0726,-2.41422 6.2608,-17.88949 11.5291,-34.38949 5.2684,-16.5 12.5154,-38.97211 16.1047,-49.93801 3.5892,-10.96592 6.6708,-20.86592 6.8479,-22.00001 0.1772,-1.13409 0.6674,-2.66198 1.0894,-3.39532 0.4219,-0.73333 2.7411,-7.63333 5.1537,-15.33333 2.4126,-7.7 7.8363,-24.5 12.0526,-37.33334 6.5428,-19.91445 7.798,-22.74724 8.5668,-19.33333 0.4954,2.2 1.8743,6.7 3.0642,10 1.1899,3.3 2.2679,6.9 2.3956,8 0.1277,1.1 1.7464,6.5 3.5971,12 1.8506,5.5 4.7101,14.5 6.3543,20 1.6442,5.5 3.3445,10.6 3.7785,11.33334 0.4339,0.73333 0.8249,1.93333 0.8688,2.66666 0.044,0.73334 2.0646,7.63334 4.4905,15.33334 8.6422,27.43073 12.0421,38.28464 18.7948,60 3.7626,12.1 8.0514,25.3 9.5306,29.33334 1.4793,4.03333 2.8386,8.23333 3.0207,9.33333 0.1822,1.1 0.7904,3.58607 1.3515,5.52461 0.7228,2.49666 -0.1322,6.96862 -2.9316,15.33333 -2.1735,6.4948 -7.0956,21.70873 -10.938,33.80873 -3.8424,12.1 -9.909,30.89224 -13.4813,41.76053 -3.5723,10.86829 -6.7723,21.06829 -7.1111,22.66667 -0.559,2.63721 -3.6464,11.95691 -13.5514,40.90613 -1.8818,5.5 -3.6446,11.2 -3.9174,12.66667 -1.259,6.77067 -8.3214,24.86271 -9.1697,23.49021 z m -693.5322,-18.66673 c -4.456,-1.27593 -10.2199,-3.6289 -12.8086,-5.22882 -6.8259,-4.21866 -16.0464,-14.57593 -19.8179,-22.26133 -2.9211,-5.95247 -3.2716,-8.38073 -3.2716,-22.66666 0,-14.77308 0.2724,-16.51122 3.5526,-22.66667 4.3316,-8.12858 10.4801,-14.84676 18.4474,-20.15678 9.0064,-6.00259 16.3519,-7.85661 30.6667,-7.74035 11.1251,0.0904 13.5517,0.55613 19.939,3.82714 10.0557,5.14966 15.373,9.61285 20.7337,17.40332 6.9988,10.17103 8.9218,16.91251 8.706,30.5199 -0.1575,9.92578 -0.8044,13.21267 -3.9787,20.21342 -4.467,9.85175 -12.4772,18.98303 -21.5488,24.56487 -3.5849,2.20577 -6.5179,3.77035 -6.5179,3.47684 0,-0.29351 -3.15,0.30491 -7,1.32983 -9.1214,2.42825 -17.1073,2.24712 -27.1019,-0.61471 z m 1348.9171,-9.07097 c -12.0493,-4.12724 -20.7569,-10.45632 -26.8534,-19.51821 -5.9831,-8.89337 -7.6948,-13.847 -9.2554,-26.78409 -0.987,-8.18229 -0.727,-10.30788 2.3171,-18.94304 7.7496,-21.98318 24.8794,-34.89396 48.0035,-36.18044 24.0019,-1.33532 47.5852,16.79469 52.1938,40.12467 0.6028,3.05173 1.2976,6.1486 1.5441,6.88193 0.2464,0.73334 0.01,5.3692 -0.5257,10.30191 -2.3873,21.99006 -15.8463,38.23429 -36.8456,44.4704 -10.5455,3.13169 -20.7486,3.01386 -30.5784,-0.35313 z M 5150.7429,406.69639 c -10.1069,-1.46227 -19.4429,-6.37916 -27.3339,-14.39565 -11.2588,-11.4377 -16.1823,-25.88461 -14.4966,-42.53684 1.5475,-15.28665 11.3142,-30.85889 24.0272,-38.3092 7.0829,-4.15081 21.4151,-8.5982 27.7786,-8.61991 6.0311,-0.0206 19.5297,4.30118 27.0347,8.65553 6.2085,3.60216 15.364,13.08893 18.5179,19.18806 6.3356,12.25166 8.2101,27.42607 4.7246,38.24684 -9.0085,27.96707 -31.3243,41.95649 -60.2525,37.77117 z m 489.1407,-2.11494 c -0.1294,-0.12988 -2.629,-0.53395 -5.5547,-0.89793 -13.6348,-1.69631 -28.4134,-13.0533 -35.3964,-27.20127 -14.3722,-29.11872 -0.7016,-62.99643 29.4639,-73.0158 6.6755,-2.21723 27.9469,-3.41236 27.9466,-1.57018 -1e-4,0.59328 0.4587,0.79511 1.0195,0.4485 2.2655,-1.40014 20.2555,8.40561 25.3563,13.82087 8.8969,9.44538 14.9081,24.50475 14.9416,37.43174 0.015,5.7318 -3.8255,19.90812 -7.0126,25.88688 -5.32,9.97964 -22.5685,22.11553 -34.1111,24.00017 -5.5181,0.90099 -16.1507,1.60141 -16.6531,1.09702 z"
       id="path1" />
  </g>
</svg>
