<svg id="BONARKA" width="500" height="114.91781" viewBox="0 0 500 114.91781" version="1.1" xml:space="preserve" xmlns:xlink="http://www.w3.org/1999/xlink" xmlns="http://www.w3.org/2000/svg" xmlns:svg="http://www.w3.org/2000/svg">
	<path id="BONARKA" style="fill:#000000;stroke:#000000;stroke-width:0" d="m 115.10403,113.48089 c 4.89951,-1.67109 7.49442,-3.23875 10.75012,-6.49447 2.96205,-2.96202 5.61694,-7.830394 6.79277,-12.456029 1.06659,-4.195935 1.05577,-69.458071 -0.0124,-73.989113 C 131.03003,13.734446 126.52032,7.4049339 120.83663,3.9825207 116.14462,1.1572634 111.4127,0.0353864 104.04221,7.6512459e-4 94.229643,-0.04533038 88.225417,1.9871029 82.612202,7.2547759 78.960811,10.681421 76.763507,14.287173 75.347444,19.176229 l -1.09922,3.7951 V 57.33217 c 0,33.299513 0.03015,34.470004 0.979334,37.894871 2.917325,10.527459 10.040455,17.010579 21.283485,19.371099 1.150898,0.24164 4.965557,0.37547 8.476977,0.29739 5.45694,-0.12133 6.9265,-0.32684 10.11583,-1.41464 z M 100.58306,97.600583 c -2.535819,-0.490649 -4.155085,-1.818718 -5.526174,-4.532401 l -1.182288,-2.34002 V 57.387318 24.046465 l 1.182288,-2.34002 c 0.650253,-1.28701 1.714322,-2.717418 2.364611,-3.178681 2.569976,-1.823021 10.233233,-1.857525 12.715703,-0.05725 0.67948,0.492752 1.76745,1.948925 2.41771,3.235935 l 1.18232,2.34002 V 57.15086 c 0,35.559004 0.0266,35.141854 -2.44073,38.074281 -1.92589,2.288774 -6.22959,3.243018 -10.71344,2.375446 z M 40.434645,112.5594 c 6.614576,-1.88063 12.206475,-5.78786 15.395243,-10.75713 5.965707,-9.296739 6.921099,-25.95354 2.055712,-35.839722 -1.946503,-3.955171 -5.891186,-8.178272 -9.35608,-10.016382 -1.200838,-0.637054 -2.183365,-1.269867 -2.183365,-1.406242 0,-0.136378 0.746516,-0.649991 1.65892,-1.141364 2.730651,-1.470544 6.31426,-5.663085 8.017197,-9.379497 2.095934,-4.574087 2.621158,-7.38182 2.612504,-13.966149 C 58.615268,15.057542 52.260006,5.9368725 39.400831,2.4488737 36.026276,1.5335468 34.155393,1.4275122 17.852712,1.227609 L 0,1.0087015 V 57.370441 113.73218 l 18.798563,-0.18301 c 15.909012,-0.15489 19.234726,-0.30702 21.636082,-0.98977 z M 19.862633,80.275299 V 63.438015 l 5.793256,0.16686 c 5.214615,0.15019 6.065303,0.300429 8.516494,1.504091 4.962998,2.437081 6.971642,6.80426 6.971642,15.157735 0,8.648435 -1.919865,13.176988 -6.590386,15.545352 -2.401499,1.21777 -2.950523,1.30053 -8.627867,1.30053 h -6.063139 z m 0,-47.952735 V 17.662047 h 4.792569 c 5.511278,0 7.738092,0.537323 10.019174,2.417609 2.079972,1.714471 3.366432,4.495315 4.096206,8.854301 1.030375,6.154596 -0.317802,11.60048 -3.685511,14.887431 -2.464102,2.404988 -4.989742,3.161691 -10.552698,3.161691 h -4.66974 z m 146.720307,46.799741 0.1213,-34.542466 3.69832,10.541787 c 2.03407,5.797984 4.41443,12.56352 5.28966,15.034523 0.87527,2.471008 4.2765,12.154041 7.5583,21.517854 3.28181,9.363817 6.3575,18.089187 6.83488,19.389717 l 0.86796,2.3646 8.56569,0.1289 8.56569,0.12889 V 57.387548 1.088982 l -8.86725,0.1286673 -8.86725,0.1286638 -0.23647,31.3957709 c -0.20636,27.39773 -0.31918,31.161681 -0.88623,29.557493 C 188.87016,61.288519 183.89599,47.692459 178.17381,32.086103 172.45167,16.479749 167.56096,3.1211564 167.30555,2.400345 l -0.46436,-1.3105649 -9.05396,0.1282665 -9.05396,0.1282665 -0.12013,56.1592329 -0.12017,56.159234 h 8.98433 8.98433 z m 71.51239,33.005485 c 0.27428,-1.6247 2.35156,-16.833617 2.87434,-21.044938 l 0.30822,-2.482829 h 10.35986 c 5.69791,0 10.35985,0.123201 10.35985,0.273778 0,0.150573 0.53154,4.034427 1.18119,8.630785 0.64965,4.596364 1.42876,10.112734 1.73138,12.258604 l 0.55016,3.90159 h 9.57443 c 8.87576,0 9.56056,-0.0604 9.38406,-0.82761 -0.10474,-0.45519 -0.83937,-4.44545 -1.63257,-8.86725 -2.24454,-12.512771 -2.75402,-15.284236 -9.9107,-53.912861 -2.89136,-15.606356 -5.44627,-29.439261 -5.6776,-30.739791 -1.29625,-7.287345 -2.44051,-13.5382715 -2.87841,-15.724587 l -0.49731,-2.482829 h -12.0408 c -9.1992,0 -12.09301,0.1395102 -12.26223,0.591151 -0.2302,0.6143973 -1.05347,4.9311468 -3.7656,19.744404 -1.89185,10.333191 -5.31531,28.955967 -5.69441,30.976249 -3.15181,16.796867 -11.09562,60.217294 -11.09633,60.651974 0,0.4532 2.20117,0.59115 9.43599,0.59115 h 9.43699 z m 6.20778,-41.38049 c 0.1034,-0.455184 0.72584,-4.232631 1.38329,-8.394328 0.65746,-4.161693 1.63207,-10.333297 2.16585,-13.714673 2.25412,-14.279786 3.73073,-23.083884 3.90002,-23.25316 0.0995,-0.0995 0.32444,1.048293 0.4999,2.550649 0.29227,2.502639 1.07269,7.498474 3.60337,23.067108 0.50735,3.121275 1.35343,8.441623 1.88018,11.822998 0.52671,3.381376 1.0796,6.733195 1.22861,7.448488 l 0.27091,1.300527 h -7.56004 c -6.95632,0 -7.545,-0.06609 -7.37209,-0.827609 z m 70.6615,19.980862 V 67.791553 l 3.5469,-0.08867 c 1.95079,-0.04877 4.11021,-0.101973 4.79874,-0.118232 1.24514,-0.0294 1.28405,0.07989 7.31157,20.542456 3.33285,11.314611 6.40719,21.689283 6.83183,23.054843 l 0.77209,2.48283 h 9.8873 c 6.03753,0 9.8873,-0.1777 9.8873,-0.4564 0,-0.25101 -0.30085,-1.36829 -0.66856,-2.48282 -0.60241,-1.82598 -5.72785,-17.781654 -10.06975,-31.347471 -0.91574,-2.861163 -2.48851,-7.741716 -3.49504,-10.845675 -1.00654,-3.103955 -1.78044,-5.661946 -1.71979,-5.684419 0.0607,-0.02249 1.3358,-0.861861 2.83365,-1.865304 7.70057,-5.158865 11.17749,-15.84483 10.20152,-31.353468 C 354.00802,12.557382 345.57615,3.4900232 329.02416,1.6070456 327.14381,1.3931286 318.79526,1.2469538 310.47189,1.28221 l -15.13344,0.064103 -0.12017,56.159233 -0.12017,56.159234 h 9.93327 9.93323 z m 0,-56.214008 V 17.552491 l 6.2662,0.221234 c 6.82976,0.241129 8.6783,0.759267 10.85205,3.041799 1.85014,1.94269 2.65968,4.24307 3.24761,9.228271 0.7136,6.050773 0.004,12.384704 -1.79033,15.969033 -2.05787,4.111955 -3.89836,4.907181 -12.07368,5.216736 l -6.50341,0.246254 z m 73.7762,59.086205 V 73.535947 l 3.27492,-6.016218 3.27492,-6.016218 1.42685,4.681009 c 4.45083,14.601788 12.91667,42.66411 14.07413,46.65265 0.21884,0.75419 1.11834,0.82761 10.13963,0.82761 5.44466,0 9.90074,-0.15961 9.90233,-0.35469 0,-0.19508 -5.23373,-16.056645 -11.63407,-35.247918 L 407.56257,43.168946 418.01432,22.368878 c 5.74846,-11.440036 10.45176,-20.9033324 10.45176,-21.0295452 0,-0.1262129 -4.43352,-0.2294808 -9.8523,-0.2294808 h -9.85232 l -3.95643,8.1578705 c -2.17602,4.4868265 -6.67083,13.6910295 -9.98849,20.4537805 l -6.03207,12.295918 -0.0216,-20.453785 -0.022,-20.453784 h -9.93132 -9.93132 v 56.277466 56.277462 h 9.93132 9.93132 z m 65.0082,18.527431 c 0.14354,-0.84535 0.67668,-4.7292 1.18473,-8.63079 0.50806,-3.901588 1.1409,-8.583498 1.40628,-10.404238 0.26538,-1.82074 0.48674,-3.576455 0.49188,-3.901588 0.007,-0.45467 2.40469,-0.591151 10.38465,-0.591151 h 10.37524 l 0.29046,2.246371 c 0.15975,1.235502 0.49742,3.629659 0.75035,5.320348 0.75612,5.054208 2.32758,16.563918 2.32758,17.047828 0,0.27009 3.80883,0.45021 9.51991,0.45021 H 500 l -0.26343,-2.00991 c -0.14489,-1.10545 -1.01452,-6.05338 -1.93249,-10.99539 -0.91801,-4.942009 -2.41271,-13.028942 -3.32164,-17.970953 C 493.57355,77.746513 490.25397,59.76374 487.10564,42.7268 479.5838,2.0230826 479.55695,1.8764148 479.54862,1.4645419 479.54472,1.2694624 474.10799,1.109852 467.46714,1.109852 c -9.22829,0 -12.1255,0.1393399 -12.29157,0.591151 -0.20107,0.5469885 -4.11625,21.239461 -5.65964,29.912182 -0.87705,4.928331 -8.5343,46.201765 -11.88857,64.080639 -1.43954,7.673126 -2.73413,14.855596 -2.87685,15.961046 l -0.25946,2.00991 h 9.49845 9.49849 z m 6.1196,-41.38049 c 0.23889,-0.779807 0.65678,-3.352475 3.36076,-20.690241 0.60851,-3.901589 1.5684,-9.966785 2.13311,-13.478215 0.5647,-3.511431 1.18455,-7.448489 1.37747,-8.749019 0.19721,-1.329374 0.47865,-2.054034 0.64288,-1.655221 0.16067,0.390159 0.83316,4.22081 1.49441,8.512557 0.66125,4.291749 1.94895,12.485085 2.86157,18.207417 0.91261,5.722329 1.87581,11.893932 2.14044,13.714673 0.26464,1.820743 0.59716,3.682865 0.73893,4.138049 0.23817,0.764655 -0.32263,0.827609 -7.37265,0.827609 -7.04844,0 -7.61112,-0.06313 -7.37692,-0.827609 z" />
</svg>
