<?xml version="1.0" encoding="UTF-8" standalone="no"?>
<svg
   viewBox="0 0 40.07531 26.815001"
   class="css-1b8nutd"
   version="1.1"
   id="svg21"
   sodipodi:docname="bp-logo.svg"
   width="40.07531"
   height="26.815001"
   inkscape:version="1.4.2 (ebf0e94, 2025-05-08)"
   xmlns:inkscape="http://www.inkscape.org/namespaces/inkscape"
   xmlns:sodipodi="http://sodipodi.sourceforge.net/DTD/sodipodi-0.dtd"
   xmlns="http://www.w3.org/2000/svg"
   xmlns:svg="http://www.w3.org/2000/svg">
  <defs
     id="defs21" />
  <sodipodi:namedview
     id="namedview21"
     pagecolor="#ffffff"
     bordercolor="#000000"
     borderopacity="0.25"
     inkscape:showpageshadow="2"
     inkscape:pageopacity="0.0"
     inkscape:pagecheckerboard="0"
     inkscape:deskcolor="#d1d1d1"
     inkscape:zoom="9.1585366"
     inkscape:cx="69.443409"
     inkscape:cy="4.9680426"
     inkscape:window-width="2560"
     inkscape:window-height="991"
     inkscape:window-x="2294"
     inkscape:window-y="-9"
     inkscape:window-maximized="1"
     inkscape:current-layer="g21" />
  <g
     fill="none"
     fill-rule="evenodd"
     id="g21"
     transform="translate(-31.073833,-65.355411)">
    <g
       fill="#009900"
       id="g5"
       transform="translate(24.471833,58.751411)">
      <path
         d="M 21.6,9.84 C 20.94,8.279 20.127,7.086 19.806,6.604 c -0.322,0.482 -1.134,1.675 -1.795,3.237 0.648,0.696 1.287,1.516 1.795,2.446 0.508,-0.93 1.149,-1.75 1.795,-2.446 z m -3.589,20.343 c 0.66,1.562 1.473,2.753 1.795,3.236 0.321,-0.483 1.134,-1.674 1.795,-3.236 -0.646,-0.697 -1.287,-1.517 -1.795,-2.447 -0.508,0.93 -1.147,1.75 -1.795,2.447 z m 0,-20.343 c -1.152,-1.242 -2.324,-2.083 -2.79,-2.427 -0.138,0.562 -0.492,1.96 -0.578,3.655 0.844,0.433 1.726,0.985 2.521,1.683 0.16,-1.047 0.48,-2.036 0.847,-2.91 z"
         id="path1"
         style="fill:#000000" />
      <path
         d="m 21.6,30.183 c 1.152,1.243 2.325,2.084 2.792,2.426 0.136,-0.562 0.493,-1.96 0.577,-3.652 a 12.406,12.406 0 0 1 -2.52,-1.686 c -0.16,1.048 -0.48,2.037 -0.848,2.912 z M 14.643,11.068 c -1.51,-0.773 -2.898,-1.163 -3.454,-1.328 0.063,0.577 0.207,2.013 0.706,3.633 0.942,0.117 1.96,0.335 2.946,0.72 A 12.22,12.22 0 0 1 14.643,11.068 Z M 24.97,28.957 c 1.509,0.771 2.897,1.162 3.454,1.325 -0.063,-0.576 -0.208,-2.012 -0.708,-3.632 a 12.36,12.36 0 0 1 -2.946,-0.721 12.24,12.24 0 0 1 0.2,3.028 z"
         id="path2"
         style="fill:#000000" />
      <path
         d="m 13.116,16.15 c -0.55,-0.906 -0.941,-1.871 -1.22,-2.777 -1.684,-0.21 -3.121,-0.102 -3.7,-0.065 0.256,0.519 0.882,1.818 1.904,3.171 a 12.366,12.366 0 0 1 3.016,-0.33 z m 13.38,7.724 c 0.55,0.906 0.944,1.87 1.22,2.777 1.684,0.21 3.122,0.102 3.701,0.066 -0.257,-0.521 -0.882,-1.82 -1.906,-3.174 -0.925,0.212 -1.955,0.355 -3.015,0.33 z M 10.1,16.48 c -1.652,0.377 -2.967,0.97 -3.497,1.204 0.419,0.4 1.452,1.406 2.875,2.328 0.796,-0.514 1.716,-1.003 2.721,-1.341 -0.828,-0.664 -1.525,-1.437 -2.1,-2.192 z m 20.034,3.531 a 12.266,12.266 0 0 1 -2.72,1.342 12.389,12.389 0 0 1 2.098,2.19 c 1.653,-0.378 2.967,-0.97 3.498,-1.203 -0.419,-0.4 -1.452,-1.409 -2.876,-2.329 z"
         id="path3"
         style="fill:#000000" />
      <path
         d="m 12.198,21.353 c -1.005,-0.339 -1.924,-0.826 -2.72,-1.342 -1.423,0.92 -2.457,1.93 -2.876,2.33 0.53,0.232 1.845,0.825 3.497,1.202 0.575,-0.756 1.272,-1.528 2.1,-2.19 z M 27.414,18.67 c 1.004,0.338 1.923,0.827 2.72,1.34 1.424,-0.92 2.458,-1.928 2.876,-2.327 -0.53,-0.234 -1.844,-0.827 -3.498,-1.205 -0.573,0.756 -1.271,1.53 -2.098,2.192 z M 10.1,23.543 c -1.022,1.353 -1.648,2.653 -1.904,3.174 0.579,0.037 2.016,0.144 3.7,-0.066 0.279,-0.907 0.67,-1.871 1.22,-2.777 A 12.333,12.333 0 0 1 10.1,23.543 Z"
         id="path4"
         style="fill:#000000" />
      <path
         d="m 29.512,16.48 c 1.023,-1.353 1.65,-2.653 1.906,-3.174 -0.579,-0.035 -2.017,-0.144 -3.701,0.067 -0.277,0.906 -0.67,1.87 -1.22,2.776 a 12.35,12.35 0 0 1 3.015,0.33 z M 14.84,25.93 c -0.987,0.384 -2.004,0.603 -2.945,0.72 -0.5,1.621 -0.644,3.057 -0.706,3.632 0.555,-0.162 1.944,-0.553 3.453,-1.325 a 12.3,12.3 0 0 1 0.198,-3.028 z m 9.931,-11.837 a 12.227,12.227 0 0 1 2.946,-0.72 c 0.5,-1.621 0.645,-3.056 0.707,-3.633 -0.556,0.163 -1.945,0.554 -3.454,1.326 a 12.3,12.3 0 0 1 -0.199,3.027 z M 14.643,28.957 c 0.085,1.692 0.44,3.09 0.578,3.652 0.466,-0.342 1.638,-1.183 2.79,-2.426 -0.368,-0.875 -0.687,-1.865 -0.847,-2.912 a 12.4,12.4 0 0 1 -2.521,1.686 z M 24.97,11.066 C 24.885,9.373 24.528,7.974 24.392,7.413 c -0.467,0.343 -1.64,1.184 -2.791,2.428 0.367,0.872 0.687,1.863 0.847,2.91 0.795,-0.698 1.678,-1.251 2.521,-1.685 z"
         id="path5"
         style="fill:#000000" />
    </g>
    <g
       fill="#ffe600"
       id="g18"
       transform="translate(24.471833,58.751411)">
      <path
         d="m 18.89,17.498 a 7.266,7.266 0 0 1 -0.003,-2.699 8.519,8.519 0 0 0 -1.723,-2.049 8.505,8.505 0 0 0 -0.004,2.677 7.251,7.251 0 0 1 1.73,2.07 z m 1.832,5.028 c 0.179,0.95 0.162,1.852 0.004,2.697 a 8.474,8.474 0 0 0 1.723,2.048 8.525,8.525 0 0 0 0.006,-2.676 7.209,7.209 0 0 1 -1.733,-2.069 z"
         id="path13"
         style="fill:#000000" />
      <path
         d="m 17.16,15.427 a 8.519,8.519 0 0 0 -2.32,-1.333 c 0.173,0.857 0.459,1.714 0.913,2.516 0.811,0.285 1.6,0.722 2.333,1.352 A 7.257,7.257 0 0 1 17.16,15.427 Z m 5.294,9.168 a 8.503,8.503 0 0 0 2.317,1.334 8.482,8.482 0 0 0 -0.91,-2.516 7.254,7.254 0 0 1 -2.336,-1.352 c 0.495,0.831 0.788,1.684 0.929,2.534 z"
         id="path14"
         style="fill:#000000" />
      <path
         d="m 17.49,18.674 a 7.19,7.19 0 0 1 -1.737,-2.065 8.517,8.517 0 0 0 -2.637,-0.46 8.446,8.446 0 0 0 1.717,2.051 7.23,7.23 0 0 1 2.658,0.474 z m 4.633,2.676 a 7.235,7.235 0 0 1 1.738,2.064 8.46,8.46 0 0 0 2.635,0.46 8.5,8.5 0 0 0 -1.717,-2.053 c -0.86,0.01 -1.75,-0.128 -2.656,-0.471 z m -4.952,-1.803 a 7.245,7.245 0 0 1 -2.338,-1.346 8.477,8.477 0 0 0 -2.635,0.47 8.468,8.468 0 0 0 2.315,1.34 7.23,7.23 0 0 1 2.658,-0.464 z"
         id="path15"
         style="fill:#000000" />
      <path
         d="m 22.441,20.475 a 7.3,7.3 0 0 1 2.338,1.346 8.538,8.538 0 0 0 2.635,-0.468 8.446,8.446 0 0 0 -2.315,-1.342 7.213,7.213 0 0 1 -2.658,0.464 z m -7.928,-0.464 a 8.48,8.48 0 0 0 -2.315,1.342 c 0.827,0.28 1.713,0.458 2.635,0.468 a 7.224,7.224 0 0 1 2.338,-1.345 7.245,7.245 0 0 1 -2.658,-0.465 z m 10.586,0 a 8.486,8.486 0 0 0 2.315,-1.34 8.5,8.5 0 0 0 -2.635,-0.47 7.266,7.266 0 0 1 -2.338,1.346 7.227,7.227 0 0 1 2.658,0.464 z M 17.49,21.35 a 7.225,7.225 0 0 1 -2.656,0.472 8.49,8.49 0 0 0 -1.717,2.052 8.498,8.498 0 0 0 2.636,-0.46 7.14,7.14 0 0 1 1.738,-2.064 z m 4.632,-2.676 a 7.213,7.213 0 0 1 2.657,-0.473 8.456,8.456 0 0 0 1.717,-2.051 8.498,8.498 0 0 0 -2.635,0.46 7.245,7.245 0 0 1 -1.74,2.064 z m -3.235,6.549 c 0.17,0.907 0.5,1.747 0.92,2.513 0.42,-0.766 0.748,-1.606 0.918,-2.513 a 7.253,7.253 0 0 1 -0.919,-2.536 7.262,7.262 0 0 1 -0.919,2.536 z m 0.003,-2.697 a 7.248,7.248 0 0 1 -1.73,2.069 c -0.15,0.908 -0.128,1.81 0.004,2.676 a 8.477,8.477 0 0 0 1.723,-2.048 7.256,7.256 0 0 1 0.004,-2.697 z"
         id="path16"
         style="fill:#000000" />
      <path
         d="m 15.753,23.413 a 8.487,8.487 0 0 0 -0.913,2.516 8.541,8.541 0 0 0 2.32,-1.334 c 0.14,-0.85 0.433,-1.703 0.926,-2.534 a 7.235,7.235 0 0 1 -2.333,1.352 z M 20.725,14.8 a 8.506,8.506 0 0 0 -0.919,-2.514 8.469,8.469 0 0 0 -0.919,2.513 c 0.439,0.74 0.762,1.582 0.92,2.537 a 7.25,7.25 0 0 1 0.918,-2.537 z m -0.003,2.698 a 7.22,7.22 0 0 1 1.732,-2.07 8.525,8.525 0 0 0 -0.006,-2.677 8.452,8.452 0 0 0 -1.723,2.049 7.263,7.263 0 0 1 -0.003,2.698 z"
         id="path17"
         style="fill:#000000" />
      <path
         d="m 23.86,16.61 a 8.5,8.5 0 0 0 0.911,-2.517 8.518,8.518 0 0 0 -2.317,1.334 7.244,7.244 0 0 1 -0.929,2.535 7.268,7.268 0 0 1 2.336,-1.353 z"
         id="path18"
         style="fill:#000000" />
    </g>
    <g
       fill="#009900"
       fill-rule="nonzero"
       id="g19"
       transform="translate(21.742143,58.751411)">
      <path
         d="m 41.64,17.448 c -0.592,-0.67 -1.404,-0.826 -2.048,-0.826 -1.469,0 -1.944,0.812 -2.111,1.108 v -3.41 h -1.21 v 7.777 l -0.026,1.158 h 1.173 l 0.025,-0.978 c 0.127,0.194 0.27,0.411 0.629,0.654 0.556,0.376 1.134,0.414 1.443,0.414 0.888,0 1.753,-0.373 2.267,-1.107 0.322,-0.426 0.616,-1.109 0.616,-2.358 0,-1.415 -0.436,-2.06 -0.758,-2.432 z m -2.38,5.023 c -1.806,0 -1.806,-2.023 -1.806,-2.449 0,-0.411 0,-2.574 1.854,-2.574 1.687,0 1.817,1.866 1.817,2.51 0,1.056 -0.372,2.513 -1.866,2.513 z m 7.428,-5.783 c -0.528,0 -1.596,0.154 -2.203,1.17 L 44.46,16.79 h -1.224 c 0.025,0.616 0.039,0.772 0.039,1.055 v 7.895 h 1.199 v -3.207 c 0.346,0.567 1.041,0.967 1.983,0.967 1.545,0 2.95,-1.056 2.95,-3.465 0,-2.395 -1.328,-3.347 -2.72,-3.347 z m 0.928,5.292 c -0.412,0.568 -1.057,0.631 -1.366,0.631 -1.7,0 -1.816,-1.61 -1.816,-2.395 0,-0.58 0,-2.626 1.932,-2.626 1.43,0 1.777,1.208 1.777,2.368 0,0.464 -0.064,1.391 -0.527,2.022 z"
         id="path19"
         style="fill:#000000" />
    </g>
  </g>
</svg>
