<svg id="BP" width="500" height="433.82465" viewBox="0 0 500 433.82465" version="1.1" xml:space="preserve" xmlns:xlink="http://www.w3.org/1999/xlink" xmlns="http://www.w3.org/2000/svg" xmlns:svg="http://www.w3.org/2000/svg">
	<path id="BP" style="fill:#000000;stroke:#000000;stroke-width:0" d="M 204.94606,118.82693 C 182.45707,93.374867 151.6107,87.448716 127.14633,87.448716 c -55.804589,0 -73.848959,30.846374 -80.192979,42.090864 V 0 H 0.98769184 V 295.43382 L 0,339.4241 h 44.560097 l 0.949704,-37.15241 c 4.824495,7.3697 10.2568,15.61313 23.894545,24.84425 21.12141,14.28354 43.078564,15.72709 54.816894,15.72709 33.73348,0 66.59323,-14.16958 86.11913,-42.05288 12.23219,-16.18295 23.4007,-42.12885 23.4007,-89.57605 0,-53.75323 -16.56283,-78.25558 -28.79501,-92.38717 z m -90.41179,190.81446 c -68.606599,0 -68.606599,-76.85002 -68.606599,-93.03297 0,-15.61313 0,-97.78149 70.430029,-97.78149 64.086,0 69.02446,70.88588 69.02446,95.35025 0,40.11548 -14.13159,95.46421 -70.88588,95.46421 z M 396.71023,89.955934 c -20.05775,0 -60.62909,5.850174 -83.68789,44.446136 l -0.94971,-40.571345 h -46.49749 c 0.9497,23.400695 1.48154,29.326845 1.48154,40.077495 v 299.91643 h 45.54779 V 311.99666 c 13.1439,21.53928 39.54566,36.73454 75.33049,36.73454 C 446.62665,348.7312 500,308.61571 500,217.10226 500,126.12065 449.55174,89.955934 396.67224,89.955934 Z m 35.253,201.033276 c -15.65112,21.57727 -40.15347,23.97052 -51.89181,23.97052 -64.57985,0 -68.98648,-61.16092 -68.98648,-90.98161 0,-22.03313 0,-99.75688 73.3931,-99.75688 54.32305,0 67.50494,45.88969 67.50494,89.95594 0,17.6265 -2.43124,52.84151 -20.01975,76.81203 z" />
</svg>
