<?xml version="1.0" encoding="UTF-8" standalone="no"?>
<svg id="BRAUNGASNICA" width="499.80704" height="500" viewBox="0 0 499.80704 500" version="1.1" xml:space="preserve" xmlns:xlink="http://www.w3.org/1999/xlink" xmlns="http://www.w3.org/2000/svg" xmlns:svg="http://www.w3.org/2000/svg">
  <path id="CZERWIEN" style="fill:#ff0000;fill-opacity:1;fill-rule:nonzero;stroke:none;stroke-width:0.516407" transform="matrix(3.7795285,0,0,3.7795285,499.80705,500)" d="m -70.360843,-1.9335449 c -7.93924,-0.68317 -13.369576,-1.94785 -20.358281,-4.74128 -1.629647,-0.65138 -5.4707,-2.5281 -6.899956,-3.3712901 -0.45089,-0.266 -1.127219,-0.65034 -1.502962,-0.85407 -0.375737,-0.20374 -0.77837,-0.43418 -0.894738,-0.51209 -0.11637,-0.0779 -0.41005,-0.26464 -0.65262,-0.41493 -0.88006,-0.54527 -4.30838,-2.97565 -4.5328,-3.21336 -0.0376,-0.0398 -0.49871,-0.4084 -1.02475,-0.81912 -1.99029,-1.55396 -3.34083,-2.75524 -5.26036,-4.67902 -8.2998,-8.31816 -13.92551,-18.09815 -16.99545,-29.54568 -0.89049,-3.32057 -1.42399,-6.55271 -1.80422,-10.93062 -0.2476,-2.85097 -0.20783,-9.00602 0.0733,-11.34052 0.48385,-4.01803 0.601,-4.7502 1.18984,-7.43575 0.46924,-2.1401 1.27317,-5.23416 1.61809,-6.22753 0.10437,-0.30059 0.44282,-1.22286 0.75209,-2.04949 0.30928,-0.82663 0.67548,-1.81038 0.81378,-2.18612 0.98946,-2.68821 3.47001,-7.48815 5.47228,-10.589035 0.0728,-0.11272 0.23276,-0.38532 0.3555,-0.60578 0.27119,-0.48708 2.19702,-3.10886 3.51939,-4.79121 1.57093,-1.9986 2.73293,-3.28317 5.13129,-5.67254 4.77745,-4.75953 9.963,-8.51613 15.903588,-11.52112 1.516652,-0.76719 3.003487,-1.49681 3.304077,-1.62138 2.197122,-0.91054 3.091359,-1.25945 4.58501,-1.78898 0.935054,-0.33149 1.976782,-0.6805 2.314946,-0.77556 0.338169,-0.0951 0.838366,-0.25438 1.111561,-0.35404 0.791699,-0.28881 5.235219,-1.31649 6.676504,-1.54411 2.883479,-0.45538 3.66988,-0.55702 5.943528,-0.76818 3.599676,-0.33432 9.925831,-0.23946 12.911796,0.19361 0.488464,0.0708 1.379995,0.19838 1.981176,0.28344 3.509018,0.49641 7.921362,1.54782 11.272205,2.68603 5.064009,1.72013 10.968739,4.68982 15.485847,7.78837 1.413081,0.96932 2.077181,1.45808 4.257587,3.13351 1.070992,0.82295 4.520603,3.98899 5.739418,5.26761 2.09542,2.19825 4.868285,5.47971 5.797482,6.86083 0.108007,0.16054 0.564624,0.81452 1.014699,1.45327 1.83918,2.61021 4.2411402,6.878085 5.6519202,10.042505 1.57903,3.54183 3.37484,8.81326 3.79355,11.13557 0.0474,0.26302 0.14365,0.63193 0.21385,0.8198 0.1662,0.44477 0.78864,3.74077 0.95469,5.05541 0.44084,3.48998 0.55463,4.9447 0.63149,8.07314 0.093,3.78666 -0.0505,6.48628 -0.51871,9.75743 -0.15059,1.05208 -0.3255,2.28178 -0.38869,2.73266 -0.15647,1.11664 -0.8491,4.14489 -1.42191,6.21679 -0.61414,2.22138 -1.82382,5.75769 -2.38366,6.96828 -0.1564,0.33817 -0.40895,0.93676 -0.56123,1.33021 -0.64298,1.6612 -2.61016,5.44639 -4.1017712,7.8925 -2.567185,4.20995 -6.134976,8.70488 -9.706304,12.22863 -2.966858,2.92733 -6.895679,6.08794 -10.076294,8.10604 -0.808591,0.51306 -1.90056,1.20689 -2.426598,1.54185 -1.363852,0.8684401 -6.648491,3.4668401 -8.744495,4.2995701 -4.330209,1.72037 -8.542828,2.90034 -13.390013,3.75059 -4.180539,0.73331 -10.946838,1.06885 -14.824656,0.73516 z m 8.70476,-21.8522601 c 1.962012,-0.25779 2.969641,-0.42593 4.13872,-0.69061 0.63876,-0.14462 1.250729,-0.26286 1.359938,-0.26277 0.211237,1.9e-4 2.313216,-0.62544 3.900425,-1.16094 9.003902,-3.03771 17.442307,-9.78985 22.311449,-17.85291 2.314595,-3.83285 3.379865,-6.2558 4.946237,-11.25013 0.482345,-1.53795 1.040122,-4.92463 1.310539,-7.95725 0.194091,-2.17668 0.203867,-2.93283 0.06831,-5.28447 -0.159415,-2.76568 -0.221064,-3.28421 -0.716138,-6.0235 -0.679737,-3.76105 -2.115251,-7.84743 -4.103837,-11.6821 -3.592692,-6.92795 -9.417544,-13.01593 -16.268421,-17.003325 -2.400855,-1.39736 -5.61581,-2.87458 -7.753096,-3.56241 -0.413312,-0.13301 -0.871737,-0.32449 -1.018717,-0.4255 -0.255306,-0.17546 -0.239644,-0.20966 0.350796,-0.76594 0.33992,-0.32025 0.882586,-0.93581 1.20593,-1.36792 0.323338,-0.4321 0.660469,-0.78563 0.749178,-0.78563 0.08871,0 0.291677,-0.35354 0.45104,-0.78564 1.52163,-4.12576 1.961697,-5.28151 2.037294,-5.35061 0.04844,-0.0443 0.04844,1.52881 0,3.49581 l -0.08811,3.57636 1.128056,0.43775 c 1.654306,0.64196 2.943434,1.08619 3.140831,1.08232 0.100601,-0.002 0.650172,-1.30651 1.309495,-3.1084 0.624879,-1.70775 1.312883,-3.56613 1.528896,-4.12974 0.663527,-1.73123 2.185425,-5.85484 2.185425,-5.92145 0,-0.1356 -3.461245,-1.32866 -3.554622,-1.22525 -0.05468,0.0606 -0.35989,0.81719 -0.678244,1.68139 -0.318355,0.8642 -0.777286,2.0939 -1.019848,2.73265 -0.242562,0.63876 -0.54985,1.45717 -0.682861,1.81869 -0.133011,0.36152 -0.261245,0.6379 -0.284964,0.61418 -0.0237,-0.0237 3.67e-4,-1.7644 0.05353,-3.86818 0.05315,-2.10377 0.07837,-3.8866 0.05602,-3.96183 -0.02236,-0.0752 -0.424193,-0.28052 -0.893008,-0.45621 -1.939357,-0.72678 -3.46295,-1.28466 -3.687514,-1.35024 -0.213643,-0.0624 -0.239113,0.0468 -0.239113,1.0254 0,1.18675 0.07728,0.95137 -3.140267,9.56494 -0.541412,1.4494 -0.996677,2.719 -1.011699,2.82135 -0.03481,0.23714 -0.352696,0.62354 -0.512989,0.62354 -0.06744,0 -0.382709,0.16705 -0.700594,0.37122 -0.317885,0.20417 -0.73634,0.46548 -0.9299,0.58069 -0.193559,0.11521 -0.801443,0.4784 -1.350854,0.8071 l -0.998923,0.59763 -0.967396,-0.15976 c -4.395158,-0.72585 -11.3686,-0.37994 -16.173445,0.80226 -3.380833,0.83184 -7.981945,2.63654 -10.671157,4.18555 -0.995679,0.57353 -3.136079,1.92406 -3.64819,2.3019 -0.298556,0.22029 -1.003968,0.74029 -1.56758,1.155565 -4.905203,3.61426 -9.521969,9.3266 -12.435399,15.38638 -2.41133,5.01543 -3.73867,10.18046 -4.09063,15.91772 -0.19697,3.21066 0.0254,7.17581 0.55934,9.97419 0.29709,1.55701 0.68503,3.23872 0.9298,4.03067 0.13936,0.45089 0.35692,1.15796 0.48349,1.57128 0.46368,1.5143 1.65497,4.35417 2.63557,6.28283 3.21379,6.32101 8.207954,11.93198 14.216094,15.97184 0.684039,0.45995 1.275614,0.83627 1.314613,0.83627 0.03899,0 0.425633,0.22765 0.859194,0.50589 0.983389,0.63108 4.315941,2.28934 5.502123,2.73783 4.315645,1.63169 7.197063,2.35259 11.545466,2.88857 1.372455,0.16917 7.651309,0.17829 8.909711,0.013 z m -17.754418,-5.84567 c -0.158352,-0.0304 -0.206362,-0.16262 -0.173653,-0.47821 0.02489,-0.23992 0.05056,-8.65979 0.05706,-18.71084 l 0.01188,-18.27464 h 13.253861 13.253867 l -0.03465,18.73172 -0.03465,18.73172 -13.05742,0.0211 c -7.181585,0.0116 -13.15591,0.002 -13.276284,-0.0209 z m -0.06084,-40.85507 c -0.134473,-0.13452 -0.166309,-0.55224 -0.124966,-1.63959 l 0.05547,-1.45908 h 13.232017 13.232018 l 0.03868,1.53968 c 0.02902,1.15699 -0.0052,1.55545 -0.136636,1.60312 -0.09641,0.0349 -6.011973,0.0799 -13.1457,0.0999 -10.603739,0.0298 -13.003343,0.004 -13.150865,-0.14404 z m 0.04307,-7.07942 c -0.438265,-3.19748 0.694256,-6.87689 2.961836,-9.6226 1.243793,-1.50605 3.856732,-3.41245 4.95513,-3.61528 0.345285,-0.0638 0.452584,-1.9e-4 0.797482,0.47242 1.21174,1.66046 3.445353,2.52642 5.674968,2.20015 1.298201,-0.18997 2.460985,-0.83634 3.475219,-1.9318 l 0.849382,-0.91742 1.109816,0.57787 c 2.940098,1.53088 5.203464,4.08914 6.323826,7.14775 0.580958,1.58602 0.890492,3.78667 0.731702,5.20204 l -0.118004,1.05179 -13.337189,0.0348 -13.33719,0.0348 z m 12.262365,-11.8566 c -1.341378,-0.32554 -2.227282,-1.021 -3.016895,-2.36837 -0.294615,-0.50272 -0.377463,-0.84389 -0.425034,-1.75029 -0.05176,-0.98624 -0.01663,-1.21858 0.283198,-1.87353 0.488082,-1.06611 1.207727,-1.79613 2.318324,-2.35173 0.841094,-0.42078 1.08837,-0.48095 1.976699,-0.48095 0.867151,0 1.158617,0.0671 1.996978,0.45987 0.539899,0.25292 1.177192,0.66795 1.416216,0.92227 0.994673,1.05835 1.490527,2.89073 1.141906,4.2198 -0.387094,1.47574 -1.750368,2.80428 -3.301123,3.21702 -0.874825,0.23284 -1.449323,0.23426 -2.390269,0.006 z m 48.569562,62.23136 c 0.611804,-0.74753 1.112367,-1.4479 1.112367,-1.55637 0,-0.10846 -0.568734,-0.65275 -1.263855,-1.20951 -1.871935,-1.49936 -7.178738,-5.19301 -7.387583,-5.14193 -0.09948,0.0243 -0.539573,0.46868 -0.977993,0.98743 l -0.797126,0.94319 1.497457,1.44788 c 3.413127,3.30013 4.519876,4.34167 5.095634,4.79539 0.333759,0.26302 0.764096,0.61461 0.956298,0.78132 0.192207,0.16671 0.417629,0.30505 0.500946,0.30742 0.08332,0.003 0.652052,-0.60729 1.263855,-1.35482 z m -92.162916,-0.28731 c 0.65164,-0.45466 1.1848,-0.87583 1.1848,-0.93593 0,-0.0601 -0.17585,-0.35201 -0.39076,-0.6487 -0.21492,-0.29668 -0.54901,-0.7901 -0.74242,-1.0965 l -0.35167,-0.55707 1.44017,-1.00765 c 2.23126,-1.56116 3.44793,-2.40186 5.51187,-3.80862 1.04741,-0.71391 1.90586,-1.37701 1.90767,-1.47357 0.003,-0.13142 -1.6665,-2.66202 -1.99396,-3.02335 -0.11617,-0.12819 -0.9248,0.38843 -4.89197,3.12541 -2.29154,1.58096 -4.1993,2.87446 -4.23946,2.87446 -0.0402,0 -0.35921,-0.43038 -0.709,-0.95642 -0.4081,-0.61373 -0.72709,-0.95643 -0.89027,-0.95643 -0.3938,0 -2.63953,1.05541 -2.67286,1.25615 -0.0163,0.0982 0.67061,1.19299 1.52646,2.43293 0.85587,1.23994 2.06816,3.00654 2.69399,3.92577 0.62583,0.91923 1.20419,1.67241 1.28524,1.67375 0.0811,0.002 0.68053,-0.36957 1.33217,-0.82423 z m 96.037257,-7.09804 c 0.608002,-1.0145 1.211605,-2.029 1.341342,-2.25444 0.129732,-0.22545 0.64759,-1.07853 1.150793,-1.89575 0.503208,-0.81722 0.864182,-1.5359 0.802167,-1.59706 -0.06201,-0.0611 -0.718034,-0.20824 -1.457823,-0.32684 -1.047285,-0.16791 -1.476223,-0.30588 -1.937473,-0.62323 -0.325827,-0.22417 -0.618806,-0.40759 -0.651076,-0.40759 -0.03227,0 -1.189399,-0.68589 -2.571403,-1.52421 -1.382005,-0.83831 -2.973871,-1.79521 -3.537483,-2.12643 -0.563613,-0.33122 -1.324255,-0.79258 -1.690315,-1.02523 -0.542631,-0.34488 -0.687555,-0.38745 -0.784573,-0.23049 -1.814061,2.93485 -3.943348,6.51494 -3.944861,6.63271 -0.001,0.0853 0.136347,0.25022 0.305435,0.36649 0.169082,0.11628 0.676328,0.55229 1.127219,0.96893 0.450885,0.41663 0.860029,0.75897 0.909207,0.76073 0.04916,0.002 0.596925,-0.8422 1.217224,-1.87548 0.620298,-1.03329 1.145716,-1.90124 1.167607,-1.9288 0.0525,-0.0661 2.099108,1.12092 2.101282,1.21871 0.001,0.0416 -0.336491,0.61416 -0.749808,1.27246 -0.413312,0.65829 -0.751481,1.23728 -0.751481,1.28664 0,0.0494 0.177148,0.24531 0.393667,0.43546 1.439129,1.26383 1.904748,1.64322 2.01214,1.63952 0.06704,-0.002 0.521551,-0.67471 1.010015,-1.49422 l 0.888112,-1.49001 0.683166,0.40387 c 0.375738,0.22213 0.770485,0.45707 0.877211,0.52208 0.155227,0.0946 -0.0036,0.45317 -0.794064,1.7924 -0.543467,0.92082 -0.938214,1.72291 -0.877216,1.78244 0.061,0.0595 0.602781,0.54187 1.203967,1.07187 0.996217,0.87826 1.108944,0.94265 1.272309,0.72682 0.09858,-0.13024 0.676705,-1.06686 1.284713,-2.08135 z m -13.185149,-1.13373 c 0.427864,-0.52021 0.709658,-0.97668 0.640598,-1.03767 -0.670699,-0.5924 -1.871016,-1.51769 -1.968797,-1.51769 -0.06787,0 -0.625034,0.59662 -1.238138,1.32581 l -1.114738,1.32581 0.391277,0.32484 c 0.215202,0.17867 0.697315,0.5725 1.071364,0.87519 l 0.680083,0.55034 0.387228,-0.45893 c 0.212976,-0.2524 0.730985,-0.87687 1.151123,-1.3877 z m -88.232868,-4.2842 c 4.54031,-4.42373 4.31735,-4.2426 6.32807,-5.14059 0.99482,-0.44429 1.85657,-0.85287 1.91499,-0.90796 0.10218,-0.0964 -1.12925,-3.02685 -1.41824,-3.37505 -0.1457,-0.17556 -1.28802,0.24617 -2.95365,1.09044 -0.80504,0.40805 -1.70894,0.55139 -4.82042,0.76441 -4.56852,0.31278 -6.36018,0.44828 -6.5176,0.4929 -0.15916,0.0451 1.12575,3.19422 1.4257,3.49417 0.1266,0.1266 3.06468,-0.24302 4.42539,-0.55673 1.06056,-0.24451 1.14205,-0.17846 0.43787,0.35492 -1.30689,0.98991 -3.48291,2.81587 -3.54332,2.9733 -0.0339,0.0885 0.17736,0.68055 0.46956,1.31577 0.29221,0.63522 0.66422,1.45778 0.8267,1.82792 l 0.29542,0.67298 0.50227,-0.46803 c 0.27625,-0.25742 1.45852,-1.39972 2.62726,-2.53845 z m 106.6362662,-5.32375 c 0.352658,-0.94815 0.612188,-1.75291 0.576748,-1.78835 -0.0354,-0.0354 -1.4065372,-0.58567 -3.0468582,-1.2227 -7.972632,-3.09625 -10.047954,-3.88867 -10.078644,-3.84836 -0.11849,0.15562 -1.306676,3.29319 -1.306676,3.45047 0,0.10921 0.314399,0.31268 0.717321,0.46421 1.318471,0.49584 10.68313,4.13329 11.306361,4.39164 1.129744,0.46833 1.115088,0.4799 1.8317482,-1.44691 z m 2.389148,-7.36217 c 0.26945,-0.90105 0.32945,-1.41709 0.34158,-2.9376 0.0134,-1.67859 -0.0142,-1.90269 -0.30644,-2.49078 -0.739,-1.48695 -2.25045,-2.42047 -4.8433822,-2.99142 -1.601023,-0.35253 -3.883001,-0.47824 -4.886845,-0.26921 -1.104513,0.23001 -2.316314,0.84866 -2.847625,1.45379 -0.995308,1.13359 -1.652374,3.27387 -1.652374,5.38231 0,1.26313 -0.163025,1.13534 1.82251,1.42869 0.867228,0.12812 1.220353,0.13603 1.252675,0.028 0.02474,-0.0827 0.07608,-0.6115 0.114069,-1.17511 0.105104,-1.5596 0.570692,-2.41122 1.539534,-2.81603 1.333529,-0.55719 5.606371,0.20844 6.335352,1.1352 0.3060282,0.38904 0.3724532,1.21328 0.10559,1.31015 -0.09394,0.0341 -0.609764,0.0309 -1.146275,-0.007 -1.114216,-0.079 -1.02512,-0.17418 -1.288353,1.3759 -0.08684,0.51134 -0.124945,0.96266 -0.08469,1.00292 0.04028,0.0403 0.861827,0.19227 1.825706,0.3378 0.9638802,0.14553 1.8139982,0.29025 1.8891482,0.32159 0.0751,0.0313 0.44406,0.0451 0.81979,0.0305 l 0.68317,-0.0265 z m -114.8251242,0.53905 c 1.27752,-0.19603 2.69167,-0.41263 3.14255,-0.48133 4.66232,-0.71038 7.63061,-1.2138 7.71684,-1.30878 0.0576,-0.0634 0.0277,-0.60715 -0.0664,-1.20833 -0.51544,-3.29325 -0.77239,-4.98605 -0.84264,-5.55125 l -0.0786,-0.63247 -1.637,-0.0977 c -0.9186,-0.0548 -1.69016,-0.0445 -1.75814,0.0234 -0.0705,0.0705 -0.0114,0.80492 0.14109,1.75492 0.43564,2.71387 0.50444,2.41908 -0.60584,2.59581 -0.52603,0.0837 -2.86246,0.44691 -5.19205,0.80705 -2.32958,0.36015 -4.2853,0.70019 -4.34604,0.75566 -0.10541,0.0963 0.37581,3.4582 0.53093,3.70918 0.041,0.0663 0.20904,0.0912 0.37351,0.0554 0.16448,-0.0358 1.34429,-0.22554 2.62181,-0.42157 z m 9.6022,-12.73353 0.0379,-1.94701 -2.77057,-0.007 -2.77057,-0.007 0.68317,-0.25289 c 0.37574,-0.13909 1.60544,-0.55091 2.73266,-0.91515 l 2.04949,-0.66226 0.0377,-2.08365 c 0.0208,-1.14601 -0.0104,-2.08365 -0.0693,-2.08365 -0.0588,0 -1.63425,0.52262 -3.50091,1.16138 -1.86666,0.63876 -3.50195,1.16138 -3.63399,1.16138 -0.21831,0 -2.80952,-0.95714 -5.5098,-2.03521 -0.58435,-0.2333 -1.15469,-0.42418 -1.26741,-0.42418 -0.17479,0 -0.1994,0.30347 -0.16723,2.06239 l 0.0377,2.0624 2.63912,0.97768 2.63912,0.97769 -2.67328,0.037 -2.67328,0.037 v 1.9077 1.9077 l 3.58662,0.0364 c 1.97263,0.02 5.15446,0.0364 7.07074,0.0364 h 3.48414 z m 98.716043,1.46929 c 1.0445,-0.49098 1.40501,-0.97255 2.470972,-3.30076 0.655037,-1.43069 0.983539,-1.75249 1.5333072,-1.502 0.489492,0.22303 0.619772,0.95007 0.469372,2.61938 -0.07093,0.78728 -0.131043,1.50023 -0.133573,1.58433 -0.0046,0.14707 1.916413,0.46193 2.818043,0.46193 0.39034,0 0.42252,-0.0423 0.58515,-0.76901 0.0947,-0.42295 0.17794,-1.60653 0.18508,-2.63018 0.0147,-2.10011 -0.18619,-3.02682 -0.85651,-3.95218 -1.11283,-1.5362 -4.5622622,-1.88323 -6.1613792,-0.61984 -0.526834,0.41622 -1.481764,1.69434 -1.490677,1.99518 -0.0074,0.25145 -0.997875,2.14268 -1.234017,2.35638 -0.329711,0.29838 -0.885257,0.17992 -1.107993,-0.23627 -0.169547,-0.3168 -0.188164,-1.94513 -0.04121,-3.60599 l 0.08598,-0.97184 -1.04462,-0.15538 c -0.574544,-0.0854 -1.285683,-0.15536 -1.580309,-0.15536 -0.504133,0 -0.543566,0.0302 -0.669502,0.51237 -0.215713,0.82592 -0.423247,2.57712 -0.423247,3.5714 0,3.64962 1.607044,5.31972 4.943835,5.13781 0.674057,-0.0368 1.265095,-0.15843 1.651311,-0.33997 z m 11.1369212,-2.61387 -0.0381,-1.79358 -1.02252,-0.39254 c -0.56239,-0.2159 -1.10038,-0.39254 -1.19554,-0.39254 -0.12906,0 -0.17223,0.37315 -0.16992,1.4688 l 0.003,1.46881 1.05581,0.70837 c 0.58069,0.38961 1.13444,0.71241 1.23056,0.71733 0.13533,0.007 0.16615,-0.39571 0.13663,-1.78465 z m -15.1014322,-8.23128 c 1.183833,-0.64755 3.089861,-1.69229 4.235619,-2.32164 1.145758,-0.62936 2.790268,-1.53263 3.6544702,-2.00727 0.864203,-0.47464 1.755733,-0.96445 1.981173,-1.08848 0.22545,-0.12403 0.43014,-0.32974 0.45489,-0.45715 0.0247,-0.12741 -0.1183,-0.76776 -0.31787,-1.42299 -0.19957,-0.65524 -0.54261,-1.77832 -0.76231,-2.49574 -0.2197,-0.71742 -0.39946,-1.37838 -0.39946,-1.4688 0,-0.25403 -0.20068,-0.20025 -0.984567,0.26383 -0.8185782,0.48461 -1.2118332,0.54205 -5.5054802,0.80421 -5.099285,0.31135 -7.872753,0.5146 -7.940041,0.58189 -0.03759,0.0376 0.09371,0.61312 0.291759,1.27897 0.198053,0.66585 0.457243,1.53775 0.575986,1.93757 l 0.215889,0.72694 0.977781,-0.0916 0.977786,-0.0916 0.306855,1.1197 c 0.346927,1.26591 0.357803,1.23919 -0.700538,1.72157 -0.414546,0.18895 -0.512374,0.30661 -0.512374,0.61626 0,0.2105 0.05583,0.52395 0.124072,0.69657 0.06823,0.17262 0.256117,0.77499 0.41751,1.3386 0.369195,1.28927 0.525641,1.67069 0.654536,1.59578 0.05604,-0.0326 1.070486,-0.58902 2.254314,-1.23656 z m 0.757384,-5.62044 -0.203398,-0.73076 0.696288,-0.0838 c 0.382962,-0.0461 1.09594,-0.1401 1.584404,-0.20895 0.48846,-0.0688 1.226277,-0.15726 1.639594,-0.19647 l 0.751481,-0.0713 -1.844545,0.89734 c -2.653921,1.2911 -2.385327,1.25078 -2.623824,0.39391 z m -96.695096,5.3891 c 1.17589,-0.30414 2.17123,-1.46705 2.8268,-3.30272 0.50568,-1.41597 0.52124,-3.31148 0.035,-4.25923 -0.1848,-0.36017 -0.6152,-0.89478 -0.95643,-1.18802 -1.61672,-1.38931 -5.83309,-2.76829 -8.47681,-2.77238 -1.40203,-0.002 -2.33956,0.3518 -3.06831,1.15844 -1.2849,1.42223 -2.04285,4.33206 -1.57098,6.03112 0.4382,1.57779 2.31077,2.84194 5.73235,3.86983 2.26474,0.68035 4.05347,0.83151 5.47841,0.46296 z m -1.92597,-3.91372 c -0.68977,-0.12024 -2.83361,-0.71722 -3.99125,-1.11143 -1.84734,-0.62907 -2.41835,-1.1842 -2.01175,-1.9558 0.23126,-0.43886 0.38613,-0.52058 0.99115,-0.52301 0.97734,-0.004 4.66964,1.05476 5.98267,1.71538 0.72987,0.36722 1.06286,0.94404 0.81372,1.40956 -0.27383,0.51166 -0.77256,0.64169 -1.78454,0.4653 z m 95.474426,-7.69131 c 1.988958,-1.08395 2.619269,-1.4895 2.578509,-1.65902 -0.09575,-0.39828 -2.013043,-3.80629 -2.141355,-3.80629 -0.06827,0 -0.521174,0.4765 -1.006462,1.0589 -0.485284,0.58239 -1.128128,1.19648 -1.428543,1.36463 l -0.546209,0.30573 -0.154458,-0.46801 c -0.397923,-1.20571 0.50028,-2.38548 2.670456,-3.50761 2.21657,-1.1461 3.156307,-1.16099 4.115632,-0.0652 0.286833,0.32764 0.67071,0.98734 0.853063,1.466 0.182349,0.47865 0.382214,0.92873 0.444142,1.00017 0.129453,0.14933 0.664001,-0.0234 2.118411,-0.68453 l 0.981246,-0.44604 -0.40114,-1.12234 c -0.759434,-2.12482 -2.007162,-3.72954 -3.549722,-4.56537 -0.624651,-0.33846 -0.939417,-0.41266 -1.958335,-0.46165 -1.490816,-0.0717 -2.402368,0.11678 -3.874547,0.80104 -3.763287,1.74916 -5.588157,4.16801 -5.108492,6.77126 0.234371,1.27197 0.621073,2.22165 1.369579,3.36346 0.741514,1.13115 1.826729,2.19604 2.173021,2.13232 0.128013,-0.0236 1.417358,-0.68842 2.865204,-1.47747 z m -85.028076,-5.07852 c 0.80929,-1.13992 1.69451,-2.50796 1.96715,-3.04008 0.44734,-0.87305 0.49585,-1.07417 0.49701,-2.06054 0.001,-0.95025 -0.0501,-1.18581 -0.39209,-1.80291 -0.55323,-0.99827 -1.58263,-2.109495 -2.8003,-3.022875 -2.50319,-1.87767 -3.83096,-2.51809 -5.38295,-2.59636 -2.00078,-0.10089 -2.9068,0.63877 -5.77319,4.713115 -0.99535,1.41482 -1.78502,2.61432 -1.75481,2.66557 0.0302,0.0512 0.65335,0.22957 1.38477,0.39628 l 1.32985,0.30311 3.21087,2.25818 c 1.76598,1.242 3.85215,2.70839 4.63593,3.25865 0.78378,0.55025 1.46584,1.00046 1.51569,1.00046 0.0498,0 0.75278,-0.93267 1.56207,-2.0726 z m -3.34144,-3.89594 c -0.71391,-0.49701 -2.11231,-1.48323 -3.10755,-2.19161 l -1.80954,-1.28796 0.3479,-0.45612 c 0.19135,-0.25087 0.44194,-0.49221 0.55686,-0.53631 0.78462,-0.30109 1.94337,0.18369 3.81938,1.59787 2.08349,1.57059 2.57104,2.39476 1.97772,3.3432 -0.15279,0.24423 -0.32481,0.44193 -0.38227,0.43932 -0.0575,-0.003 -0.6886,-0.41138 -1.4025,-0.90839 z m 77.369777,-3.73691 c 0.656736,-0.52852 1.194068,-1.01253 1.194068,-1.07559 0,-0.0631 -0.737817,-0.740155 -1.639593,-1.504685 -0.901777,-0.76453 -1.639594,-1.44266 -1.639594,-1.50696 0,-0.14553 1.376257,-1.78345 1.498527,-1.78345 0.04906,0 0.269946,0.17188 0.490871,0.38196 0.706879,0.67217 1.654181,1.39427 1.829109,1.39427 0.179219,0 2.466883,-1.76316 2.466201,-1.90076 -4.65e-4,-0.0935 -2.289961,-2.10765 -2.472806,-2.17545 -0.06755,-0.0251 -0.122817,-0.10875 -0.122817,-0.18599 0,-0.17875 1.08114,-1.47638 1.230072,-1.47638 0.06136,0 0.739113,0.53295 1.506117,1.18433 1.595265,1.35478 1.310177,1.35311 2.957826,0.0173 l 1.02432,-0.83048 -0.319088,-0.31209 c -0.641104,-0.62706 -6.726499,-5.79761 -6.823393,-5.79761 -0.05492,0 -0.295168,0.58627 -0.533888,1.30282 -0.238719,0.71655 -0.596672,1.50049 -0.795458,1.74207 -0.198781,0.24158 -1.468797,1.72989 -2.822259,3.30734 -1.353462,1.57746 -2.614549,3.04979 -2.802418,3.27184 -0.187869,0.22205 -0.572148,0.65985 -0.853957,0.97289 -0.281804,0.31304 -0.512369,0.65883 -0.512369,0.76843 0,0.10959 0.199824,0.35911 0.444053,0.5545 0.24423,0.19539 1.550782,1.3107 2.903449,2.478465 1.352662,1.16778 2.490792,2.12571 2.529177,2.12872 0.03837,0.003 0.607114,-0.42694 1.26385,-0.95546 z m -66.457503,-1.363585 c 1.10633,-0.52338 2.612974,-1.99732 3.090764,-3.02367 0.683553,-1.46836 0.332128,-3.04552 -1.051782,-4.72027 -1.573085,-1.90369 -6.251736,-7.07054 -6.442786,-7.11507 -0.0853,-0.0199 -0.3139,0.10309 -0.50805,0.27326 -1.6345,1.43262 -2.31116,2.07936 -2.31015,2.208 5.2e-4,0.083 0.20445,0.3661 0.45288,0.62912 2.03199,2.1513 6.145996,6.84846 6.320722,7.21667 0.415166,0.87489 -0.138237,1.5444 -0.982981,1.18921 -0.242743,-0.10207 -1.679801,-1.58352 -3.530901,-3.63999 -1.71685,-1.90734 -3.26247,-3.61659 -3.43469,-3.79834 l -0.31313,-0.33046 -0.65457,0.53541 c -0.36001,0.29447 -1.02458,0.88488 -1.47682,1.31202 l -0.82226,0.77662 0.82857,0.86298 c 0.71848,0.74832 1.4247,1.53647 3.27041,3.64987 0.22545,0.25814 0.73212,0.81901 1.12594,1.24639 0.39382,0.42737 0.83215,0.92467 0.97408,1.10511 0.4213,0.53559 1.736,1.52453 2.36756,1.78092 0.946987,0.384425 2.072223,0.327105 3.097194,-0.15778 z m 58.496119,-5.22228 c 0.325021,-0.546 1.219258,-2.00723 1.987187,-3.24717 0.767933,-1.23994 2.11084,-3.40862 2.98424,-4.81928 0.8734,-1.41067 1.588004,-2.61035 1.588004,-2.66596 0,-0.14692 -2.942566,-1.94242 -3.183341,-1.94242 -0.111787,0 -0.239262,0.0769 -0.283286,0.17079 -0.09551,0.2038 -0.420505,0.73752 -1.536229,2.52286 -2.78265,4.45269 -5.518834,8.9003 -5.590687,9.08754 -0.06126,0.15964 0.12889,0.34416 0.71194,0.69087 0.437536,0.26017 1.159257,0.69518 1.603826,0.96668 0.551028,0.33652 0.859085,0.4515 0.967851,0.36123 0.08775,-0.0728 0.425473,-0.57914 0.750495,-1.12514 z m -48.38392,-1.73186 c 1.434275,-0.4696 3.842696,-1.97933 3.842696,-2.40881 0,-0.36816 -1.387081,-2.66192 -1.551902,-2.56631 -0.08581,0.0498 -0.417536,0.26759 -0.737182,0.48404 -1.327053,0.89862 -2.480124,1.15196 -3.304005,0.72591 -0.657108,-0.3398 -1.468673,-1.40058 -2.269832,-2.96683 -0.970433,-1.89718 -1.100376,-2.70029 -0.543916,-3.3616 0.203387,-0.24171 0.422219,-0.43947 0.486295,-0.43947 0.06408,0 0.407631,0.38428 0.763462,0.85395 0.355825,0.46968 0.670746,0.88348 0.699814,0.91956 0.02907,0.0361 0.514652,-0.17213 1.079075,-0.46268 0.875449,-0.45067 1.015525,-0.57088 0.953432,-0.81827 -0.04002,-0.15949 -0.577162,-1.20204 -1.193629,-2.31679 -1.302957,-2.35611 -1.106242,-2.27201 -3.093238,-1.32245 -1.977422,0.94498 -3.025073,1.81986 -3.686281,3.07836 -0.483383,0.92003 -0.502573,2.57016 -0.04529,3.89403 0.920109,2.6638 2.693617,5.28945 4.245385,6.28521 1.368143,0.87794 2.598711,0.99722 4.355121,0.42215 z m 7.941679,-3.37955 c 0.488459,-0.11885 0.931823,-0.25593 0.985246,-0.30463 0.05343,-0.0487 -0.172392,-1.25572 -0.501817,-2.68225 -0.329432,-1.42653 -0.579094,-2.61356 -0.554812,-2.63785 0.117911,-0.11791 1.653802,-0.40593 1.729631,-0.32435 0.04782,0.0514 0.351942,1.24641 0.675792,2.65544 0.454278,1.97653 0.637319,2.56146 0.801133,2.56011 0.300312,-0.003 3.420672,-0.76998 3.51536,-0.86467 0.04307,-0.0431 -0.09043,-0.80339 -0.296676,-1.6896 -0.206248,-0.88621 -0.55287,-2.37984 -0.770273,-3.31919 -0.217407,-0.93935 -0.509859,-2.19979 -0.649893,-2.80097 -0.140034,-0.60118 -0.487112,-2.13831 -0.771285,-3.41582 -0.284174,-1.27752 -0.558609,-2.37137 -0.609857,-2.43078 -0.08023,-0.093 -1.099865,0.10282 -3.193481,0.61337 -0.526994,0.12851 -0.528755,0.13123 -0.454056,0.69994 0.04126,0.31402 0.294677,1.49088 0.563199,2.61525 0.268514,1.12437 0.488214,2.05472 0.488214,2.06743 0,0.0606 -1.25243,0.32882 -1.535519,0.32882 -0.302718,0 -0.347584,-0.11745 -0.76985,-2.01533 -0.691919,-3.10986 -0.668815,-3.04063 -1.013243,-3.03611 -0.333279,0.004 -3.339482,0.73337 -3.440393,0.83428 -0.05461,0.0546 0.284587,1.59297 1.562545,7.08645 0.148596,0.63876 0.520193,2.2681 0.825777,3.62077 0.305579,1.35266 0.61125,2.59308 0.679277,2.75648 0.136388,0.32761 0.04059,0.33871 2.734981,-0.31679 z m 11.437502,-1.76909 c 0.372918,-0.0746 0.417959,-0.14906 0.578438,-0.95643 l 0.174034,-0.87555 h 1.203544 1.203539 l 0.147956,0.68989 c 0.08138,0.37944 0.147956,0.77792 0.147956,0.88551 0,0.29319 0.443315,0.35209 2.322759,0.30863 1.656578,-0.0383 1.709225,-0.0488 1.751819,-0.34881 0.02417,-0.17012 -0.148184,-1.18462 -0.382963,-2.25443 -0.506115,-2.30624 -0.763265,-3.51156 -1.508105,-7.06886 -1.03109,-4.92439 -0.946389,-4.6115 -1.272036,-4.69885 -0.163143,-0.0437 -1.480209,-0.0804 -2.926805,-0.0814 l -2.630183,-0.002 0.0031,0.44405 c 0.0021,0.24423 0.06358,0.70515 0.137215,1.02426 0.109328,0.47383 0.06985,0.84956 -0.215311,2.04949 -0.192047,0.80811 -0.436215,1.8382 -0.542594,2.28909 -0.223682,0.94808 -1.811604,7.77644 -1.913289,8.22749 -0.06675,0.29609 -0.03579,0.30375 1.401983,0.34672 0.808632,0.0242 1.570154,0.057 1.692269,0.0729 0.122115,0.016 0.404011,-0.007 0.626438,-0.0519 z m 1.269923,-5.28196 c 5.16e-4,-0.36009 0.656317,-4.0841 0.732436,-4.16022 0.02845,-0.0284 0.12764,0.45787 0.220413,1.08073 0.09277,0.62286 0.244353,1.59361 0.336847,2.15722 0.192398,1.17233 0.16226,1.22446 -0.709585,1.22761 -0.511899,0.002 -0.580622,-0.0344 -0.580111,-0.30534 z" />
  <path id="CZARNY" style="fill:#000000;fill-opacity:1;fill-rule:nonzero;stroke:none;stroke-width:0.516407" transform="matrix(3.7795285,0,0,3.7795285,499.80705,500)" d="m -71.097976,-0.15064495 c -11.91097,-1.01064995 -22.23845,-4.60026995 -32.040384,-11.13659005 -3.23345,-2.1562 -6.6269,-4.94526 -9.55011,-7.84921 -9.18392,-9.12341 -15.44964,-20.53593 -18.11008,-32.98611 -1.04392,-4.88526 -1.44283,-8.75707 -1.44203,-13.9963 0.001,-6.13763 0.60751,-11.05503 2.05314,-16.64451 4.45634,-17.23032 15.66628,-31.926305 31.126489,-40.806155 8.247417,-4.73705 16.903529,-7.48682 26.73328,-8.49231 3.000146,-0.30689 9.303728,-0.30625 12.433585,10e-4 13.670933,1.34316 26.264697,6.65902 36.637621,15.46482 9.200581,7.81058 16.1396692,18.079315 19.9313192,29.495215 1.75156,5.27358 2.77225995,10.37942 3.22131995,16.11405 0.20769,2.65232 0.0866,9.60439 -0.21075,12.10062 -1.31879995,11.0708 -5.08920995,21.24094 -11.14395515,30.0592 -4.276839,6.2289 -9.841546,11.9436 -15.916959,16.34598 -8.565679,6.2069001 -19.029144,10.4245301 -29.429613,11.86253005 -4.208512,0.58189 -10.514145,0.78814 -14.292873,0.46751 z m 11.494808,-2.16370995 c 3.832285,-0.41979 5.804697,-0.76307 9.068422,-1.57828 2.666939,-0.66614 4.473735,-1.21989 6.353426,-1.9472 0.676334,-0.2617 1.383409,-0.52549 1.571278,-0.58621 1.811768,-0.58559 5.843107,-2.57103 9.222714,-4.5421901 9.419977,-5.49423 17.94205,-14.22042 23.27001,-23.82737 3.3112422,-5.97056 5.4157222,-11.55953 6.7986622,-18.05551 1.20365,-5.65379 1.67564,-12.02354 1.28191,-17.29983 -0.27712,-3.71342 -0.9338,-8.18743 -1.55122,-10.56846 -0.11113,-0.42856 -0.36379,-1.42478 -0.56147,-2.21384 -0.40383,-1.6119 -1.44538,-4.82259 -1.85005,-5.70293 -0.14643,-0.31856 -0.26645,-0.62598 -0.26671,-0.68316 -0.003,-0.5374 -2.6935,-6.20145 -4.1744702,-8.78623 -1.781342,-3.109015 -4.470647,-6.941185 -6.473868,-9.225045 -0.267721,-0.30523 -0.763441,-0.88924 -1.101611,-1.29781 -0.780699,-0.94325 -4.543428,-4.70309 -5.859121,-5.85464 -5.816755,-5.09105 -13.077379,-9.36704 -20.545047,-12.09954 -3.51173,-1.28497 -9.024026,-2.66771 -12.262907,-3.07608 -0.563607,-0.0711 -1.793302,-0.2337 -2.732652,-0.36142 -2.191503,-0.29797 -10.368322,-0.35009 -12.570216,-0.0801 -0.789055,0.0967 -1.957266,0.24032 -2.596021,0.31907 -2.754444,0.33957 -7.806994,1.45192 -10.793992,2.37636 -1.347017,0.41689 -5.363044,1.94351 -6.831634,2.59693 -4.740185,2.10905 -9.711195,5.09562 -13.314945,7.99958 -2.85671,2.30199 -3.78007,3.1257 -5.95027,5.30813 -5.18451,5.21372 -9.02476,10.5303 -12.21534,16.911375 -0.42063,0.84124 -0.76478,1.57996 -0.76478,1.64161 0,0.0616 -0.12419,0.34381 -0.27598,0.62702 -0.63892,1.19208 -2.5447,6.36889 -3.07843,8.36216 -0.45055,1.6826 -0.75571,2.88928 -0.89841,3.55245 -0.0808,0.37574 -0.2016,0.9291 -0.26834,1.22969 -0.79215,3.56743 -1.35623,8.9861 -1.351,12.97782 0.003,2.27277 0.26552,6.29141 0.53572,8.20026 0.0745,0.52604 0.19565,1.41757 0.2693,1.98118 0.69989,5.35578 3.0358,12.60545 5.92126,18.37711 1.81648,3.63342 4.2479,7.52246 6.49212,10.38408 0.0589,0.0752 0.41214,0.53629 0.7849,1.02475 1.52816,2.00246 5.30956,6.00142 7.73396,8.17893 2.4444,2.19547 7.54837,5.90608 9.882715,7.18477 0.521928,0.2859 1.198262,0.66664 1.502957,0.8461 4.187067,2.4660801 10.888541,5.0611201 16.335079,6.3255001 0.713907,0.16573 1.543949,0.35868 1.844545,0.42878 0.84794,0.19774 3.549933,0.63539 4.987095,0.80778 2.702597,0.32418 3.735643,0.37633 7.804582,0.39398 3.327594,0.0145 4.683974,-0.0366 6.627829,-0.24955 z m -9.30868,-21.2008001 c -4.470822,-0.26634 -9.565505,-1.43303 -13.526649,-3.09762 -1.53092,-0.64334 -3.901664,-1.81015 -4.682322,-2.3045 -0.395986,-0.25076 -0.758044,-0.45592 -0.804578,-0.45592 -0.189072,0 -3.754999,-2.44732 -4.965504,-3.40787 -1.546552,-1.22719 -5.221828,-4.85278 -6.380568,-6.2943 -3.972851,-4.94238 -7.116071,-11.31161 -8.427931,-17.07785 -0.63646,-2.79755 -0.89756,-4.68458 -1.04925,-7.58312 -0.5254,-10.03984 2.11245,-19.17402 7.88437,-27.30156 1.622695,-2.28495 2.714891,-3.54316 5.062386,-5.83189 3.175208,-3.09573 6.562778,-5.524425 10.357478,-7.425765 2.395304,-1.20016 3.240347,-1.55589 5.37266,-2.26166 3.911873,-1.29477 5.854066,-1.72166 9.725261,-2.13758 3.04341,-0.32698 8.188505,-0.21768 10.341407,0.21969 0.593605,0.1206 0.782347,0.10633 1.16138,-0.0878 0.609521,-0.3122 2.609458,-1.49531 3.481654,-2.05966 0.388478,-0.25135 0.782734,-0.45701 0.876131,-0.45701 0.09339,0 0.713908,-0.33816 1.378922,-0.75148 0.665013,-0.41331 1.265115,-0.75148 1.333559,-0.75148 0.219448,0 0.445846,0.9467 0.467943,1.9567 0.02066,0.94349 -2.53e-4,1.01217 -0.547655,1.8007 -0.31301,0.45089 -0.759264,0.95998 -0.991678,1.13131 -0.232409,0.17134 -0.422566,0.39682 -0.422566,0.50107 0,0.10426 0.292055,0.29457 0.649006,0.4229 5.08215,1.82723 8.681632,3.75244 12.604371,6.74155 1.618441,1.233245 1.919227,1.495045 3.608509,3.140845 2.799594,2.72753 4.937071,5.38036 6.775073,8.40856 3.759047,6.1932 5.78968,12.82006 6.15825,20.09706 0.43529,8.59442 -1.295785,15.83934 -5.680496,23.7741 -1.338765,2.42269 -4.258491,6.18167 -6.689421,8.61224 -3.557354,3.55683 -6.86926,5.94245 -11.345133,8.17208 -4.913114,2.44745 -9.756405,3.78421 -15.439504,4.26137 -2.531237,0.21253 -3.396586,0.21899 -6.285105,0.0469 z m 7.983331,-2.09488 c 15.442391,-2.00317 28.537117,-12.71004 33.511534,-27.40063 3.871779,-11.43424 2.505526,-23.95417 -3.746328,-34.33017 -4.90571,-8.14184 -12.978395,-14.582335 -22.035771,-17.580445 l -2.45939,-0.81408 -0.4954,0.29965 c -2.606023,1.57629 -3.398657,2.07498 -3.398786,2.13836 -8.3e-5,0.0408 1.275722,0.0551 2.835128,0.0318 1.926266,-0.0288 3.032411,0.011 3.450132,0.12411 0.976325,0.26426 1.800429,0.73637 2.401046,1.3755 1.358807,1.44594 1.42467,1.773575 1.42467,7.086845 0,4.27788 -0.0036,4.33251 -0.311461,4.78942 -0.651819,0.96723 -1.927588,1.33948 -2.789508,0.81394 -0.924354,-0.56361 -0.922448,-0.55333 -0.998014,-5.39653 -0.07482,-4.79528 -0.07637,-4.80417 -0.907493,-5.19857 -0.351389,-0.16674 -1.134175,-0.2049 -4.202724,-0.2049 h -3.770914 l -0.01575,0.44405 c -0.02913,0.82166 0.04204,0.98761 0.709487,1.65507 0.874438,0.87443 1.306464,1.63624 1.573622,2.77479 0.260951,1.11212 0.188437,2.13837 -0.230137,3.25712 -0.241818,0.64632 -0.260305,0.80323 -0.106126,0.9009 0.150388,0.0953 0.151524,0.11868 0.0058,0.12037 -0.09947,10e-4 -0.496665,0.34764 -0.882659,0.76998 -0.828751,0.90679 -1.448218,1.32041 -2.67703,1.78749 -0.807903,0.30709 -1.044196,0.33626 -2.202983,0.27197 -1.195286,-0.0663 -1.666777,-0.18539 -2.786941,-0.70379 -0.412501,-0.1909 -2.131838,-1.81205 -2.131838,-2.0101 0,-0.0624 -0.107599,-0.1144 -0.239107,-0.11555 -0.166113,-0.002 -0.188127,-0.0345 -0.07212,-0.10819 0.126556,-0.0804 0.08111,-0.35284 -0.187673,-1.12513 -0.658636,-1.89243 -0.2414,-3.97892 1.111246,-5.55706 0.47509,-0.55428 0.49192,-0.61013 0.45291,-1.50296 l -0.04054,-0.92728 -1.073161,-0.0402 c -1.357666,-0.05078 -3.626853,0.26396 -5.195326,0.72066 -5.623639,1.63747 -9.932738,6.26774 -11.001407,11.8214 -0.494109,2.56778 -0.764293,11.28113 -0.565605,18.24048 0.08152,2.85562 0.209831,5.49947 0.285129,5.87521 0.07529,0.37574 0.445613,2.46622 0.822936,4.64551 0.377318,2.1793 1.085499,6.26803 1.573731,9.08608 1.236532,7.13724 1.420548,8.2355 1.42138,8.48317 5.16e-4,0.19317 -0.621465,0.22683 -5.691769,0.30795 -3.130874,0.0501 -5.707034,0.0755 -5.724798,0.0564 -0.01777,-0.0191 0.0222,-0.37286 0.0888,-0.78618 0.224694,-1.39433 1.338404,-8.63201 2.428333,-15.78108 l 1.083195,-7.10491 -0.07182,-7.92469 c -0.109505,-12.08286 0.286074,-16.18882 1.954772,-20.28997 2.864134,-7.03917 10.237841,-10.930615 20.711846,-10.930615 h 2.277615 l 2.505371,-1.50499 c 1.377955,-0.82774 2.522871,-1.55657 2.544261,-1.61963 0.11645,-0.34329 -6.187665,-0.40284 -8.920859,-0.0843 -4.966645,0.57888 -9.317449,1.87602 -13.739501,4.09626 -11.287672,5.667345 -19.251728,16.102975 -21.769418,28.525345 -0.61049,3.01216 -0.81273,5.53594 -0.72513,9.04878 0.08,3.20656 0.29764,5.07831 0.91378,7.85701 1.31821,5.94495 4.10436,11.74194 8.011562,16.6692 1.300985,1.64063 5.045144,5.32816 6.757928,6.65572 7.492279,5.80717 16.316745,8.74905 25.743663,8.58235 1.578109,-0.0279 3.633488,-0.14987 4.567514,-0.27103 z m -3.583355,-64.04562 c 1.999364,-0.85818 3.225903,-2.71134 2.98692,-4.51287 -0.117957,-0.88923 -0.784051,-2.16402 -1.424581,-2.72642 -1.850448,-1.62471 -4.789704,-1.48772 -6.402862,0.29843 -0.169676,0.18786 -0.493505,0.70493 -0.719619,1.14904 -1.012546,1.98872 -0.06835,4.4915 2.08925,5.53799 0.727757,0.35298 1.005088,0.41138 1.96793,0.41438 0.616435,0.002 1.292769,-0.0703 1.502962,-0.16055 z" />
</svg>
