<?xml version="1.0" encoding="UTF-8" standalone="no"?>
<svg id="BRAUN2025" width="499.93829" height="500" viewBox="0 0 499.93829 500" version="1.1" xml:space="preserve" xmlns:xlink="http://www.w3.org/1999/xlink" xmlns="http://www.w3.org/2000/svg" xmlns:svg="http://www.w3.org/2000/svg">
  <path id="CZERWIEN" style="fill:#ff0000;fill-opacity:1;fill-rule:nonzero;stroke:none;stroke-width:0.0696839" transform="matrix(1.845245,0,0,1.845245,1253.0806,-767.61049)" d="m -548.41661,680.73394 c -3.4142,-0.12059 -7.885,-0.45805 -10.5571,-0.79693 -0.2875,-0.0365 -0.9146,-0.11481 -1.3937,-0.17412 -1.2063,-0.14936 -1.7058,-0.21741 -2.7525,-0.37491 -0.4983,-0.075 -1.047,-0.15726 -1.2195,-0.18286 -4.0415,-0.59965 -10.3637,-1.98696 -14.8078,-3.24938 -6.4848,-1.84208 -13.1659,-4.28639 -18.536,-6.78142 -0.3066,-0.14246 -0.871,-0.40015 -1.2543,-0.57263 -1.0728,-0.48284 -4.9252,-2.42 -6.4806,-3.25871 -3.6887,-1.98906 -7.1718,-4.08675 -10.6816,-6.43284 -4.3711,-2.92178 -9.2037,-6.62103 -13.0806,-10.01292 -4.4762,-3.91622 -9.1869,-8.64078 -12.6823,-12.71968 -0.3448,-0.40241 -0.6443,-0.74732 -0.6654,-0.76647 -0.1235,-0.11206 -1.9607,-2.35123 -3.0017,-3.65842 -2.6278,-3.2998 -5.7078,-7.62271 -7.795,-10.94039 -1.2022,-1.91108 -2.2533,-3.6515 -3.051,-5.05209 -0.8692,-1.52619 -1.3627,-2.41718 -1.7752,-3.20545 -0.2707,-0.5174 -0.5157,-0.97208 -0.5444,-1.0104 -0.1344,-0.17926 -2.9926,-5.97168 -2.9926,-6.06463 0,-0.0111 -0.107,-0.25044 -0.2378,-0.53172 -2.4519,-5.27235 -5.0856,-12.47814 -6.809,-18.62926 -0.043,-0.15331 -0.1195,-0.41984 -0.1702,-0.59232 -0.1293,-0.43973 -0.6492,-2.43886 -0.7974,-3.06608 -0.068,-0.28744 -0.2196,-0.91461 -0.3371,-1.39369 -0.245,-0.99944 -0.5908,-2.53588 -0.7763,-3.44936 -0.4925,-2.4254 -0.53,-2.62287 -0.8774,-4.62087 -0.2268,-1.30461 -0.4681,-2.8396 -0.5881,-3.7412 -0.2863,-2.15076 -0.3713,-2.83592 -0.519,-4.18104 -0.5201,-4.73947 -0.7328,-8.80831 -0.7335,-14.02841 0,-4.04299 0.077,-6.22096 0.3521,-9.90803 0.1328,-1.77908 0.3777,-4.20103 0.6236,-6.16703 0.1979,-1.58232 0.6372,-4.61912 0.7662,-5.29598 0.037,-0.19163 0.147,-0.81126 0.2456,-1.37694 0.099,-0.56569 0.2753,-1.50643 0.3926,-2.09052 0.1173,-0.5841 0.2386,-1.20311 0.2697,-1.37558 0.2307,-1.28101 1.33,-5.86221 1.8811,-7.83945 0.1603,-0.57489 0.3678,-1.32677 0.4612,-1.67084 0.3072,-1.13168 1.4947,-4.90992 1.906,-6.06408 0.1092,-0.30661 0.2458,-0.69858 0.3034,-0.87104 0.69,-2.06368 2.1515,-5.83044 3.2782,-8.44873 0.5197,-1.20774 1.9867,-4.44901 2.1271,-4.6999 0.039,-0.0694 0.5299,-1.05123 1.0912,-2.18185 0.5613,-1.13062 1.0914,-2.18111 1.1779,-2.33441 0.086,-0.15331 0.3227,-0.59231 0.5249,-0.97558 1.8955,-3.59234 4.9076,-8.53905 7.3196,-12.02048 1.6066,-2.31902 3.8114,-5.30433 5.3266,-7.21229 1.3829,-1.74138 4.1234,-4.98403 5.1237,-6.06251 0.1778,-0.19163 0.6813,-0.74008 1.119,-1.21878 5.7398,-6.27798 13.0101,-12.64832 20.4987,-17.96135 0.956,-0.67825 4.6515,-3.14486 5.8148,-3.8812 0.7562,-0.47868 3.431,-2.08714 4.063,-2.44335 0.2875,-0.16199 0.7892,-0.44979 1.115,-0.63955 0.3258,-0.18976 0.7961,-0.45575 1.0453,-0.59109 0.2491,-0.13533 0.6567,-0.35867 0.9058,-0.49629 3.0302,-1.67401 8.5925,-4.32538 12.0205,-5.72979 0.345,-0.14131 0.7213,-0.29738 0.8362,-0.34682 0.115,-0.0494 0.5697,-0.23191 1.0105,-0.40549 1.9397,-0.76393 2.88,-1.12136 3.7977,-1.44355 0.3066,-0.10764 1.0592,-0.3723 1.6725,-0.58814 0.9897,-0.34836 1.7792,-0.60963 3.5887,-1.18773 3.3663,-1.07548 8.0751,-2.31838 11.6372,-3.07171 3.0445,-0.64387 7.2815,-1.40549 9.2331,-1.65972 1.6175,-0.21069 3.701,-0.46077 4.425,-0.53111 0.4024,-0.0391 1.0452,-0.10145 1.4285,-0.13856 5.0494,-0.48894 10.9704,-0.66473 16.4222,-0.48755 2.7899,0.0907 4.0526,0.17027 7.7581,0.48907 1.4908,0.12825 1.9323,0.1747 3.31,0.34813 0.2875,0.0362 0.8048,0.10014 1.1498,0.14212 1.5591,0.18977 4.637,0.66464 6.7593,1.04286 1.8937,0.33747 5.0427,1.01122 7.3517,1.57292 0.4024,0.0979 0.9355,0.22682 1.1846,0.2865 0.2491,0.0597 1.0801,0.27996 1.8466,0.48953 0.7666,0.20957 1.5662,0.42657 1.777,0.48224 1.5318,0.40449 6.7437,2.09556 8.8847,2.88272 0.5365,0.19728 1.054,0.38378 1.1498,0.41444 0.612,0.19583 5.9345,2.37137 6.9684,2.84831 0.2491,0.11492 0.7665,0.34822 1.1497,0.51845 2.8277,1.25593 6.9049,3.33469 10.4526,5.32926 0.3067,0.17238 1.1158,0.64675 1.7981,1.05416 0.6824,0.40741 1.2942,0.7721 1.3596,0.81042 3.6648,2.14633 9.5537,6.24832 13.3499,9.29892 0.4557,0.36624 0.9305,0.74428 1.0551,0.8401 0.8231,0.63294 3.6845,3.08236 5.0498,4.3227 2.1952,1.99436 2.7239,2.49931 4.8787,4.65975 3.1682,3.17643 4.8104,4.95346 7.2833,7.88107 0.5341,0.63238 0.99,1.16546 1.013,1.18463 0.043,0.0362 2.0913,2.60365 2.6475,3.31921 0.9343,1.20211 2.6362,3.49726 3.2227,4.34602 0.1456,0.2108 0.4412,0.63413 0.6567,0.94073 1.6042,2.28159 3.7656,5.66775 5.5379,8.67566 0.7873,1.33622 0.9806,1.67635 1.4651,2.5783 0.1338,0.24913 0.4465,0.82925 0.6949,1.28916 1.2586,2.33067 2.1694,4.1388 3.1765,6.3064 0.8882,1.91157 1.0032,2.16536 1.4214,3.13578 0.19,0.44075 0.3876,0.89544 0.4392,1.01041 0.3692,0.82252 1.1896,2.79612 1.4629,3.51904 0.6417,1.697 1.0846,2.8902 1.3708,3.69326 0.4334,1.21633 1.3815,4.0389 1.6618,4.94756 0.1596,0.5174 0.4271,1.37974 0.5945,1.91631 0.1674,0.53656 0.3333,1.101 0.3686,1.25431 0.035,0.1533 0.2073,0.79614 0.3822,1.42852 0.4045,1.4629 0.9631,3.66395 1.1585,4.5643 0.083,0.38326 0.2106,0.93202 0.2833,1.21947 0.1201,0.47508 0.8709,4.18306 1.0511,5.19145 0.041,0.22996 0.1027,0.55921 0.1369,0.73168 0.1688,0.85177 0.7577,4.70869 0.9071,5.94056 0.036,0.29703 0.097,0.79876 0.1358,1.11494 0.3032,2.47951 0.5125,4.89228 0.7418,8.55371 0.1506,2.40314 0.1755,10.80812 0.038,12.96122 -0.047,0.74735 -0.1181,1.89191 -0.1567,2.54347 -0.039,0.65153 -0.1012,1.52956 -0.1389,1.95114 -0.1879,2.10129 -0.4249,4.54354 -0.4531,4.66815 -0.017,0.077 -0.095,0.64178 -0.1722,1.25499 -0.1311,1.04143 -0.3314,2.44341 -0.4878,3.41452 -0.1242,0.77115 -0.4251,2.5746 -0.4914,2.94414 -0.036,0.20121 -0.095,0.53048 -0.131,0.7317 -0.036,0.20121 -0.086,0.47557 -0.1113,0.60973 -0.083,0.44307 -0.5914,2.88095 -0.7264,3.48418 -0.073,0.32579 -0.2004,0.9059 -0.2834,1.28916 -0.083,0.38326 -0.3548,1.51215 -0.604,2.50862 -0.2492,0.99649 -0.4976,1.99591 -0.5519,2.22097 -0.2896,1.19955 -1.3023,4.57025 -2.0963,6.97731 -1.1977,3.63099 -2.2637,6.43919 -4.0602,10.6965 -1.0628,2.51842 -3.5971,7.75624 -4.8231,9.96828 -0.137,0.2472 -0.3678,0.66897 -0.5129,0.93727 -3.928,7.26405 -9.7072,15.62588 -15.1947,21.98527 -4.3485,5.0394 -9.1133,9.81869 -13.7214,13.76316 -0.2683,0.22964 -0.5035,0.43544 -0.5226,0.45732 -0.094,0.10733 -2.6328,2.18755 -3.8326,3.1404 -5.9035,4.68819 -12.9665,9.30295 -19.4419,12.70269 -0.7857,0.41253 -1.5696,0.82539 -1.7421,0.91749 -1.4222,0.75962 -5.9965,2.92069 -7.7349,3.65427 -5.9391,2.5063 -10.3393,4.07176 -16.0273,5.70219 -4.5107,1.29293 -10.1242,2.53523 -14.8079,3.27704 -1.1913,0.18868 -1.7034,0.26406 -3.3448,0.49224 -1.3339,0.18547 -3.692,0.45132 -5.2611,0.59312 -4.2696,0.38589 -6.0121,0.46214 -11.0798,0.48492 -2.5487,0.0113 -4.9162,0.0108 -5.2611,-0.003 z m 2.7873,-11.17684 c 0.8432,-0.0368 2.3014,-0.0983 3.2404,-0.13653 12.5136,-0.51021 14.7749,-0.6096 14.8167,-0.6514 0.025,-0.0245 -0.014,-1.60565 -0.087,-3.51365 l -0.1312,-3.46906 -4.6515,-0.0179 c -3.2388,-0.0124 -4.6514,-0.0405 -4.6514,-0.0923 0,-0.0698 0.3545,-0.59925 1.2793,-1.91063 0.2162,-0.3066 0.4199,-0.59035 0.4525,-0.63052 0.033,-0.0402 0.1687,-0.22832 0.3023,-0.4181 0.1337,-0.18979 0.5082,-0.72135 0.8322,-1.18125 0.9338,-1.32558 2.0172,-2.93347 2.512,-3.72809 1.4385,-2.31017 2.2731,-4.5564 2.5624,-6.89691 0.092,-0.74614 0.092,-2.46335 0,-3.10277 -0.2881,-1.99502 -1.0895,-3.59334 -2.4478,-4.88147 -1.7388,-1.6489 -3.9675,-2.3308 -7.6182,-2.3308 -1.9339,0 -3.7542,0.22864 -5.8883,0.73961 -1.2949,0.31001 -3.3327,0.912 -3.5392,1.04553 -0.088,0.0567 -0.2108,0.21065 -0.2735,0.34207 -0.1088,0.22816 -0.1051,0.27744 0.083,1.0941 0.2993,1.29764 1.276,5.14954 1.3158,5.18936 0.019,0.0192 0.2331,-0.014 0.4752,-0.0739 0.2421,-0.0599 0.8008,-0.17415 1.2416,-0.25382 0.4407,-0.0797 1.256,-0.2271 1.8117,-0.32766 1.2144,-0.2197 3.1869,-0.2693 3.7978,-0.0955 1.2342,0.35115 1.8041,0.90547 2.0316,1.97611 0.2827,1.32982 -0.314,3.60307 -1.4948,5.69451 -0.4303,0.76225 -1.9259,3.00186 -3.6108,5.40711 -0.6418,0.9162 -1.2789,1.82586 -1.4157,2.02149 -0.3552,0.50778 -1.4377,2.05175 -1.8731,2.67152 -0.8538,1.21544 -1.1425,1.67526 -1.1902,1.89589 -0.05,0.23132 0,2.79638 0.099,4.71073 l 0.049,0.99299 h 0.2181 c 0.1199,0 0.9079,-0.0311 1.751,-0.0678 z m 40.8038,-6.65042 c 1.3397,-0.16618 2.495,-0.48263 3.959,-1.08443 2.0589,-0.8463 3.3066,-1.63317 4.5011,-2.83847 2.2169,-2.2369 2.995,-5.32626 2.4008,-9.5314 -0.6247,-4.42023 -2.1302,-9.08669 -4.0692,-12.6128 -1.7525,-3.18686 -3.4717,-5.05954 -5.6457,-6.14956 -0.9088,-0.45566 -2.0658,-0.78978 -3.2115,-0.92742 -0.7676,-0.0922 -0.7804,-0.0905 -3.3039,0.42564 -2.7673,0.56604 -4.7352,1.39258 -6.4807,2.72196 -2.0164,1.53575 -3.1394,3.36534 -3.562,5.8032 -0.128,0.73881 -0.1418,1.03036 -0.1109,2.34206 0.037,1.58722 0.1059,2.15065 0.5125,4.21588 0.2649,1.34521 0.63,2.7474 1.0797,4.1462 0.3128,0.97308 0.9333,2.65935 1.0769,2.92672 0.052,0.0958 0.1764,0.37805 0.2777,0.62717 0.6746,1.66004 2.2472,4.44144 3.284,5.80866 2.397,3.16075 5.6025,4.58431 9.2922,4.12659 z m 0.3795,-7.48146 c -0.6367,-0.0682 -0.8311,-0.22987 -1.9028,-1.58276 -1.2258,-1.54758 -3.2711,-6.39461 -4.2194,-9.99965 -0.8254,-3.13782 -0.9349,-4.57138 -0.4374,-5.72429 0.1494,-0.3461 0.6193,-0.73529 0.9567,-0.79228 0.8439,-0.14259 1.8218,0.51373 2.5108,1.68514 1.8153,3.08641 3.3856,7.19451 4.3107,11.27721 0.6585,2.906 0.65,3.4456 -0.072,4.54762 -0.316,0.48266 -0.6308,0.64432 -1.1471,0.58901 z m 27.5481,-6.20508 c 0.2173,-0.18523 1.0462,-0.87563 1.842,-1.53428 0.7957,-0.65861 1.517,-1.25644 1.6027,-1.3285 0.086,-0.0721 0.8301,-0.68935 1.6541,-1.37178 0.824,-0.68242 2.1374,-1.77531 2.9185,-2.42866 0.7812,-0.65332 1.5181,-1.26582 1.6376,-1.36108 0.1726,-0.13764 2.6039,-2.15349 3.2137,-2.66454 0.1551,-0.13003 0.5384,-0.44412 1.4459,-1.18494 0.3354,-0.27375 0.6097,-0.53699 0.6097,-0.585 0,-0.048 -0.4022,-0.56746 -0.8938,-1.15431 -0.4916,-0.58687 -1.5111,-1.81179 -2.2656,-2.72203 -0.7545,-0.91024 -1.3949,-1.65498 -1.4232,-1.65493 -0.044,3e-5 -0.6591,0.49598 -1.8631,1.50157 -0.1533,0.12802 -0.608,0.50441 -1.0104,0.83641 -0.4024,0.33198 -0.9982,0.82734 -1.324,1.10074 -0.3258,0.27344 -0.9373,0.77877 -1.3589,1.12294 -0.4216,0.34418 -0.9858,0.80937 -1.2539,1.03374 l -0.4874,0.40794 -0.046,-0.22524 c -0.043,-0.21072 -0.097,-1.26761 -0.2724,-5.29039 -0.1119,-2.57483 -0.2701,-4.91671 -0.3859,-5.71407 -0.4829,-3.32355 -1.6618,-5.82475 -3.7884,-8.0375 -2.4669,-2.5668 -5.6348,-3.19884 -9.0005,-1.79575 -0.8836,0.36835 -1.4466,0.67739 -2.4999,1.37222 -1.2073,0.79644 -1.8915,1.36106 -3.0734,2.53636 -1.3139,1.30662 -1.9046,2.02217 -4.3095,5.22007 -0.1553,0.20653 -0.2824,0.4166 -0.2824,0.46682 0,0.0502 0.1176,0.17897 0.2613,0.28611 0.1438,0.10711 0.277,0.21391 0.2962,0.23732 0.019,0.0234 0.6306,0.51579 1.3588,1.09416 0.7282,0.57839 1.3711,1.09457 1.4286,1.14706 0.438,0.39996 1.8165,1.44513 1.9059,1.44513 0.061,0 0.1593,-0.0929 0.218,-0.20641 0.142,-0.27457 2.2783,-2.59424 3.1069,-3.37356 0.8385,-0.78872 1.7447,-1.39311 2.3762,-1.58493 1.4821,-0.45018 2.7553,0.30886 3.696,2.20333 0.2763,0.55647 0.3639,0.85883 0.5047,1.74207 0.055,0.34494 0.1779,1.08186 0.2731,1.6376 0.6228,3.63622 0.6759,4.33566 0.9552,12.5774 0.042,1.22613 0.1,2.26095 0.1297,2.29956 0.03,0.0386 0.4266,0.52493 0.8816,1.08064 0.9517,1.16216 0.9351,1.14204 1.4339,1.74211 0.2071,0.24912 0.5593,0.68029 0.7827,0.95815 0.2234,0.27788 0.4522,0.50522 0.5084,0.50522 0.056,0 0.28,-0.15154 0.4974,-0.33677 z m -61.7629,-19.97693 c 0.1916,-0.0105 0.4895,-0.0367 0.6619,-0.0584 0.1725,-0.0216 0.7213,-0.0743 1.2195,-0.11699 3.7979,-0.32508 8.5275,-1.08886 11.4354,-1.84672 1.3011,-0.33909 5.7531,-1.65966 7.3096,-2.16818 1.7194,-0.56178 3.3477,-1.25276 6.6087,-2.80453 0.492,-0.23413 0.9063,-0.42571 0.9206,-0.42571 0.014,0 0.2546,-0.10706 0.5339,-0.23793 0.2794,-0.13087 0.8999,-0.41518 1.379,-0.63183 2.1808,-0.9862 5.9053,-3.16592 8.3621,-4.89375 0.1341,-0.0943 0.5104,-0.34894 0.8362,-0.56578 1.4661,-0.97585 6.1255,-4.64689 7.9752,-6.28351 3.117,-2.75788 6.8312,-6.80173 9.6647,-10.52228 3.6694,-4.81814 7.5568,-11.53171 9.5829,-16.54993 0.5423,-1.34291 1.362,-3.68127 2.675,-7.6304 1.0494,-3.15647 1.4097,-4.40865 1.704,-5.92315 0.8268,-4.25407 1.0875,-5.64931 1.2173,-6.51543 0.08,-0.53657 0.1621,-1.05399 0.1815,-1.14981 0.02,-0.0958 0.038,-0.22123 0.041,-0.27873 0,-0.0575 0.063,-0.68463 0.1335,-1.39368 0.2846,-2.86763 0.3914,-6.29856 0.2787,-8.95438 -0.1054,-2.4844 -0.3953,-6.43086 -0.6294,-8.56994 -0.034,-0.30595 -0.044,-0.58333 -0.024,-0.61638 0.021,-0.0331 0.01,-0.12766 -0.035,-0.21025 -0.04,-0.0826 -0.1072,-0.43236 -0.1505,-0.77729 -0.2049,-1.63073 -1.0925,-6.03644 -1.755,-8.7105 -0.9224,-3.72344 -2.646,-8.60562 -4.2929,-12.15985 -1.5121,-3.2634 -3.7123,-7.11093 -6.3956,-11.18428 -1.7024,-2.58415 -3.0182,-4.3011 -6.1948,-8.08334 -0.8286,-0.98664 -0.6901,-0.82691 -1.4688,-1.69353 -0.7921,-0.88146 -3.6992,-3.77388 -4.5325,-4.50949 -2.1999,-1.94213 -3.7271,-3.17344 -5.916,-4.76989 -4.6582,-3.39746 -8.3701,-5.66578 -11.5717,-7.07128 -0.4215,-0.18507 -1.7229,-0.75969 -2.8918,-1.27692 -3.0842,-1.36464 -3.2889,-1.45421 -4.2856,-1.87499 -5.6584,-2.38882 -13.6692,-4.24832 -21.5672,-5.00623 -2.3972,-0.23005 -5.8479,-0.2052 -10.3829,0.0747 -4.2102,0.25991 -5.875,0.4599 -9.5467,1.14682 -0.6324,0.11831 -1.3066,0.24347 -1.4982,0.27814 -0.1916,0.0347 -0.615,0.11145 -0.9407,0.17062 -0.3258,0.0592 -0.7533,0.10763 -0.9501,0.10768 -0.3121,7e-5 -0.363,-0.0199 -0.3997,-0.15669 -0.099,-0.36762 0.011,-0.94064 0.3544,-1.86405 0.088,-0.23706 0.1241,-0.71314 0.1206,-1.60273 0,-1.13871 -0.069,-1.35424 -0.8266,-2.75782 l -0.5232,-0.96941 0.3632,-0.11716 c 0.1997,-0.0644 0.6297,-0.18473 0.9555,-0.2673 2.0774,-0.52655 4.2441,-1.19767 5.1218,-1.58644 3.3105,-1.46645 5.1298,-4.51281 4.7746,-7.99477 -0.098,-0.96428 -0.2251,-1.59602 -0.5267,-2.62433 -0.6048,-2.06172 -1.5483,-3.50976 -2.8543,-4.38048 -0.424,-0.28268 -1.7439,-0.83024 -2.6654,-1.10572 -0.2778,-0.0831 -0.5052,-0.18298 -0.5052,-0.22203 0,-0.039 0.2533,-0.40428 0.5629,-0.81163 1.1536,-1.51793 1.5317,-2.63993 1.5331,-4.54871 0,-2.96622 -0.9292,-5.56017 -2.549,-7.09874 -1.3675,-1.29903 -3.0822,-1.96018 -5.0836,-1.96018 -0.4254,0 -1.0392,0.0328 -1.3639,0.0729 -0.5476,0.0676 -3.8131,0.7634 -9.1268,1.94476 -3.8731,0.86108 -4.5992,1.03398 -4.5992,1.09518 0,0.0505 0.1929,0.36986 0.6663,1.10306 0.198,0.30661 0.6525,1.02784 1.01,1.60274 0.3575,0.57489 0.8217,1.3118 1.0316,1.63757 0.6002,0.93132 0.7412,1.3086 1.1589,3.10094 0.2144,0.91982 0.4337,1.86056 0.4874,2.09051 0.054,0.22996 0.2416,1.06094 0.4175,1.84663 0.3474,1.55096 0.6893,3.06664 0.8409,3.72809 0.1812,0.79105 1.1391,5.08752 1.2428,5.57472 0.1296,0.60916 0.9886,4.45204 1.1214,5.01725 0.092,0.38954 0.3518,1.56593 0.4162,1.88146 0.015,0.0767 0.1365,0.60974 0.2686,1.18463 0.1321,0.57489 0.2971,1.30396 0.3667,1.62015 0.1411,0.64066 0.1452,0.64343 0.7489,0.51063 0.1607,-0.0353 0.5587,-0.11359 0.8845,-0.17387 0.3258,-0.0603 0.931,-0.17247 1.3449,-0.24931 0.414,-0.0768 0.7668,-0.13971 0.784,-0.13971 0.054,0 0.034,0.32857 -0.042,0.68315 -0.042,0.19468 -0.3896,0.92295 -0.8088,1.69327 -0.4046,0.74342 -0.8632,1.58685 -1.0191,1.8743 -0.2441,0.45009 -0.8467,1.53373 -2.1466,3.86033 -0.6145,1.09995 -0.6149,1.10021 -4.5233,2.74478 -3.6238,1.5248 -4.7378,2.06426 -7.6304,3.69504 -5.4943,3.09754 -9.3828,5.8166 -13.2956,9.29715 -0.3425,0.30457 -0.6472,0.52436 -0.6902,0.49777 -0.043,-0.0265 -0.058,-0.0161 -0.033,0.0232 0.024,0.039 -0.3238,0.41182 -0.7732,0.82854 -2.1025,1.94998 -5.7001,5.71734 -7.5491,7.90547 -1.3596,1.609 -3.1919,4.07638 -4.7068,6.33809 -3.1485,4.70067 -5.5031,9.22767 -7.4845,14.38974 -0.4566,1.18943 -1.6637,4.74656 -2.3257,6.85337 -1.0303,3.27906 -1.0408,3.32225 -1.9829,8.19836 -0.2295,1.18812 -0.4803,2.56786 -0.5572,3.0661 -0.077,0.49824 -0.1577,1.01564 -0.1796,1.14978 -0.022,0.13415 -0.043,0.29094 -0.047,0.34842 0,0.0575 -0.036,0.37107 -0.071,0.69684 -0.3225,2.98398 -0.4537,6.56655 -0.3459,9.44749 0.078,2.07961 0.1142,2.68882 0.3185,5.32552 0.052,0.67071 0.096,1.26651 0.098,1.32398 0.01,0.15083 0.1297,1.4118 0.2517,2.54346 0.058,0.53657 0.1194,1.1167 0.1368,1.28916 0.017,0.17248 0.049,0.40765 0.069,0.52264 0.044,0.24343 0.3,1.90708 0.3485,2.26474 0.054,0.39658 0.5008,2.48455 0.7013,3.27514 0.6846,2.70009 2.3467,8.08727 3.3001,10.69647 1.6406,4.48992 4.7714,10.36432 8.3562,15.67891 1.5012,2.2255 2.528,3.55505 5.3796,6.96533 2.7678,3.31028 4.5537,5.1576 7.2785,7.52892 0.2643,0.22998 0.5149,0.45076 0.5569,0.49067 0.2033,0.19302 1.7858,1.48257 2.6547,2.16326 2.2224,1.74097 5.8838,4.31301 7.6878,5.4005 0.2807,0.16922 0.5943,0.35848 0.6969,0.42056 2.2749,1.37746 4.8063,2.6756 7.3639,3.77636 1.2014,0.51708 4.4855,1.84245 5.1355,2.07253 0.1417,0.0502 0.2387,0.12171 0.2157,0.15897 -0.024,0.0392 -0.01,0.0453 0.045,0.0142 0.048,-0.0294 0.2014,-0.006 0.3418,0.053 0.3642,0.15192 1.7556,0.68298 1.9625,0.74906 0.096,0.0306 0.3466,0.12231 0.5574,0.2038 0.7016,0.27125 1.9292,0.68395 2.6048,0.87569 0.3671,0.10416 0.6508,0.21628 0.6304,0.24917 -0.02,0.0329 0.01,0.0427 0.062,0.0219 0.054,-0.0208 0.4088,0.043 0.7875,0.14188 2.9208,0.76291 7.1152,1.57768 9.3642,1.81901 0.1725,0.0184 0.6742,0.0802 1.115,0.13711 0.4407,0.0569 0.9738,0.11949 1.1846,0.13909 0.2108,0.0195 0.7282,0.0819 1.1498,0.13832 0.4216,0.0564 0.986,0.11899 1.2543,0.13898 0.2683,0.02 0.5349,0.0564 0.5923,0.0809 0.2814,0.12005 8.7799,0.16471 10.7662,0.0566 z m 5.1804,-10.98498 c -0.2431,-0.4274 -0.5169,-0.9056 -0.6086,-1.06268 -0.092,-0.15707 -0.2204,-0.37965 -0.286,-0.49464 -0.3506,-0.61381 -2.0518,-3.5511 -2.5628,-4.42492 -0.3249,-0.55574 -0.6858,-1.18288 -0.8019,-1.39369 -0.1162,-0.2108 -0.3587,-0.63412 -0.5388,-0.94074 -0.4221,-0.71819 -0.9487,-1.62856 -1.673,-2.89188 -0.3186,-0.55572 -0.6796,-1.18288 -0.8023,-1.39366 -0.1226,-0.2108 -0.4512,-0.77524 -0.73,-1.25431 -0.2789,-0.47908 -0.5852,-1.01217 -0.6806,-1.18465 -0.095,-0.17246 -0.1972,-0.34491 -0.2261,-0.38326 -0.029,-0.0383 -0.1925,-0.32053 -0.3633,-0.62714 -0.1709,-0.30662 -0.7275,-1.2787 -1.237,-2.16021 -0.5095,-0.88151 -0.9971,-1.72817 -1.0837,-1.88145 -0.087,-0.15331 -0.3137,-0.54529 -0.5047,-0.87106 -0.1911,-0.32579 -0.7972,-1.37628 -1.347,-2.33442 -0.5498,-0.95815 -1.5726,-2.72617 -2.2729,-3.92894 -0.7002,-1.20274 -1.2732,-2.199 -1.2732,-2.21386 0,-0.0148 -0.074,-0.14396 -0.1635,-0.28694 -0.09,-0.14296 -0.5967,-1.01251 -1.1262,-1.93234 -1.2143,-2.10943 -2.2954,-3.9828 -2.9961,-5.19144 -0.2999,-0.51742 -0.9519,-1.64629 -1.4489,-2.50862 -2.2093,-3.83344 -3.8222,-6.62795 -4.0166,-6.95904 -0.098,-0.16732 -0.2884,-0.49696 -0.4225,-0.73249 -0.3477,-0.6105 -0.815,-1.41974 -1.2248,-2.12099 -0.1945,-0.33288 -0.7404,-1.27944 -1.2131,-2.10345 -0.4727,-0.82402 -1.0232,-1.78043 -1.2234,-2.12536 -0.2001,-0.34494 -0.591,-1.01912 -0.8686,-1.4982 -0.2776,-0.4791 -0.6297,-1.08246 -0.7824,-1.34085 -0.1528,-0.2584 -0.2821,-0.52169 -0.2875,-0.58514 -0.01,-0.12052 0.049,-0.15721 3.2654,-2.00882 0.9198,-0.52959 2.2525,-1.29982 2.9615,-1.71163 1.417,-0.82296 4.82,-2.78451 5.2612,-3.03257 0.1533,-0.0862 0.5452,-0.31305 0.871,-0.50411 0.3258,-0.19106 1.3763,-0.79714 2.3344,-1.34685 0.9582,-0.54972 2.1655,-1.24715 2.6828,-1.54985 1.67,-0.97693 2.7421,-1.59838 3.2055,-1.85794 0.2491,-0.13955 1.2839,-0.73419 2.2996,-1.32142 1.0156,-0.58724 2.317,-1.33963 2.8919,-1.67196 0.5749,-0.33235 1.4529,-0.8409 1.9511,-1.13013 0.4983,-0.28922 1.7369,-1.00498 2.7525,-1.59056 1.0157,-0.58559 2.0191,-1.16465 2.2299,-1.2868 0.2108,-0.12214 1.3397,-0.77226 2.5086,-1.4447 1.169,-0.67243 2.2822,-1.31816 2.4738,-1.43495 0.1916,-0.1168 0.5052,-0.29721 0.6969,-0.40093 0.1916,-0.10371 0.6544,-0.37209 1.0284,-0.59639 0.3741,-0.22431 0.8044,-0.47124 0.9563,-0.54873 l 0.2762,-0.1409 0.095,0.15723 c 0.053,0.0865 0.1912,0.31403 0.3083,0.50566 0.1686,0.27611 2.199,3.79331 2.7354,4.73851 0.2027,0.35713 0.8407,1.4579 0.9088,1.56789 0.036,0.0575 0.3266,0.55921 0.6467,1.11494 1.6638,2.88876 2.8017,4.8691 2.923,5.08693 0.075,0.13414 0.3314,0.57315 0.5705,0.97557 0.4025,0.67755 0.8323,1.42219 2.7554,4.77335 0.3959,0.68987 0.9315,1.61492 1.1902,2.05567 0.2587,0.44076 1.0568,1.82051 1.7735,3.0661 1.478,2.56849 1.407,2.4455 1.9504,3.37968 0.2229,0.38326 0.6933,1.19855 1.0452,1.81179 0.9644,1.68042 1.8788,3.26679 2.7311,4.73849 0.8824,1.52369 1.8094,3.12842 2.8983,5.01725 0.4198,0.7282 0.8221,1.42592 0.894,1.55047 0.072,0.12458 0.1889,0.3284 0.26,0.45295 0.3459,0.60591 2.0497,3.54815 2.5726,4.44235 0.325,0.55575 0.6849,1.18289 0.7999,1.39369 0.115,0.21078 0.2955,0.52438 0.4012,0.69683 0.2111,0.34463 0.8523,1.4509 1.2521,2.16021 0.4299,0.76286 1.7851,3.11198 3.5123,6.08828 0.4864,0.83815 0.9283,1.60883 0.982,1.71255 0.1113,0.21541 0.3343,0.0563 -1.8099,1.29145 -0.6132,0.35323 -1.4285,0.82393 -1.8118,1.04598 -1.8886,1.09423 -3.2449,1.87677 -6.5154,3.75933 -1.054,0.60667 -1.9996,1.1616 -2.1013,1.23313 -0.1017,0.0715 -0.2006,0.13005 -0.2198,0.13005 -0.033,0 -0.4255,0.22024 -1.3025,0.73049 -0.2108,0.12263 -1.0104,0.58517 -1.7769,1.02784 -0.7665,0.44265 -2.1776,1.25774 -3.1358,1.81127 -0.9582,0.55353 -2.479,1.43129 -3.3797,1.95059 -0.9006,0.51931 -1.9198,1.10766 -2.2647,1.30751 -0.3449,0.19982 -1.0443,0.60328 -1.5542,0.8966 -0.5099,0.29329 -1.0116,0.58345 -1.115,0.64476 -0.1033,0.0613 -1.0502,0.60691 -2.1041,1.21243 -1.054,0.60555 -2.4808,1.43043 -3.1707,1.83313 -0.6899,0.40267 -1.756,1.02009 -2.3692,1.37201 -0.6133,0.35195 -1.6481,0.94741 -2.2996,1.32326 -0.6515,0.37586 -1.702,0.97954 -2.3344,1.34152 -0.6324,0.36198 -1.1796,0.68669 -1.216,0.72156 -0.036,0.0349 -0.088,0.0634 -0.1156,0.0634 -0.027,0 -0.2482,-0.34971 -0.4912,-0.77711 z m -35.7398,-61.91999 c -0.087,-0.1443 -0.3836,-0.65435 -0.6602,-1.13342 -1.7039,-2.95218 -2.185,-3.79508 -2.1728,-3.80703 0.01,-0.007 0.829,-0.48303 1.8255,-1.05699 0.9965,-0.57396 2.2038,-1.27095 2.6829,-1.54886 0.479,-0.27791 1.5922,-0.921 2.4737,-1.42908 0.8815,-0.50807 1.9947,-1.15131 2.4738,-1.4294 0.4791,-0.27809 1.263,-0.73071 1.7421,-1.00581 0.4791,-0.2751 1.3885,-0.79928 2.0208,-1.16484 1.8813,-1.08748 4.3114,-2.49121 4.9824,-2.87799 0.345,-0.19883 0.9251,-0.5343 1.2892,-0.74552 0.3641,-0.21121 1.4146,-0.81589 2.3344,-1.34373 0.9198,-0.52785 1.7557,-1.01847 1.8574,-1.09026 0.1017,-0.0718 0.2027,-0.13054 0.2243,-0.13054 0.022,0 0.2991,-0.15216 0.6164,-0.33814 0.7553,-0.44258 5.0988,-2.94879 5.4425,-3.14026 0.1464,-0.0816 0.852,-0.48964 1.5679,-0.90677 2.2871,-1.33267 8.7969,-5.08858 9.0458,-5.21914 0.1406,-0.0737 0.2031,0.0163 1.1425,1.6448 1.7199,2.98137 1.9499,3.39277 1.9303,3.45161 -0.01,0.0316 -0.5201,0.34739 -1.1325,0.70186 -0.6124,0.35446 -1.427,0.82709 -1.8102,1.05027 -0.3833,0.22318 -1.1986,0.69484 -1.8118,1.04812 -2.8955,1.66815 -3.5772,2.06097 -4.8431,2.79071 -0.7473,0.43085 -1.747,1.00894 -2.2214,1.28464 -0.4744,0.27571 -1.6817,0.97306 -2.6828,1.54968 -1.0011,0.57661 -2.2122,1.2745 -2.6913,1.55085 -4.6108,2.65971 -4.6681,2.69293 -4.8779,2.82681 -0.058,0.0367 -0.2927,0.17191 -0.5226,0.3005 -0.23,0.12859 -0.8258,0.46872 -1.324,0.75584 -0.8668,0.49954 -1.3519,0.77952 -3.9371,2.2728 -0.6324,0.36526 -1.4321,0.82677 -1.777,1.02555 -0.3449,0.1988 -0.9251,0.53358 -1.2891,0.74397 -0.3642,0.21039 -1.2735,0.7354 -2.0209,1.1667 -2.4271,1.40069 -3.517,2.03124 -3.6236,2.09652 -0.1218,0.0746 -0.8228,0.47797 -2.4737,1.42328 -0.6516,0.37307 -1.2832,0.73847 -1.4036,0.81198 l -0.219,0.13363 z m -5.3986,-10.3975 c -0.2443,-0.0991 -0.5775,-0.49549 -1.1729,-1.39525 -1.8099,-2.7351 -2.9877,-5.62198 -3.4979,-8.57345 -0.4589,-2.65478 -0.4551,-5.66689 0.01,-8.22271 0.4522,-2.48344 1.4112,-5.08384 2.7118,-7.35305 0.5411,-0.94407 1.8247,-2.89049 1.9061,-2.89049 0.1281,0 0.5655,0.25628 0.5182,0.30358 -0.029,0.0287 0,0.0315 0.068,0.006 0.071,-0.0273 0.1198,-0.0129 0.1198,0.0353 0,0.0447 0.029,0.0632 0.065,0.0411 0.079,-0.0489 0.5623,0.17279 0.5623,0.25796 0,0.0335 0.028,0.0437 0.062,0.0228 0.078,-0.0484 0.4958,0.0943 0.4958,0.16955 0,0.031 0.068,0.0387 0.1503,0.017 0.1094,-0.0286 0.1354,-0.0153 0.096,0.0488 -0.04,0.0649 -0.015,0.0758 0.094,0.0411 0.086,-0.0273 0.1481,-0.0167 0.1481,0.0252 0,0.0397 0.044,0.0554 0.097,0.0348 0.054,-0.0206 0.1174,-0.005 0.1417,0.034 0.024,0.0393 0.087,0.0549 0.1393,0.0348 0.052,-0.0201 0.1151,-0.004 0.1394,0.0348 0.024,0.0393 0.087,0.0549 0.1394,0.0348 0.052,-0.0201 0.1151,-0.004 0.1393,0.0349 0.024,0.0393 0.091,0.0536 0.1473,0.0318 0.057,-0.0218 0.1484,-0.002 0.2038,0.0439 0.055,0.0459 0.1348,0.0623 0.1767,0.0365 0.042,-0.0259 0.1294,-0.0234 0.1946,0.005 0.1074,0.0475 0.8305,0.11332 1.2684,0.1154 0.096,7.9e-4 0.4251,-0.0203 0.7317,-0.0461 0.3066,-0.0258 0.6515,-0.0539 0.7665,-0.0624 0.115,-0.009 0.2454,-0.0384 0.2899,-0.0663 0.044,-0.028 0.1311,-0.0316 0.1925,-0.008 0.061,0.0236 0.1519,0.01 0.2009,-0.0312 0.049,-0.0407 0.1988,-0.0853 0.3327,-0.099 0.1339,-0.0137 0.2836,-0.0498 0.3326,-0.0801 0.049,-0.0303 0.1078,-0.0366 0.1304,-0.0139 0.023,0.0227 0.084,0.006 0.1365,-0.0378 0.052,-0.0435 0.1132,-0.061 0.1352,-0.039 0.022,0.0221 0.1612,-0.0231 0.3093,-0.10029 0.1481,-0.0772 0.3018,-0.12025 0.3416,-0.0957 0.04,0.0246 0.072,0.008 0.072,-0.0366 0,-0.0447 0.047,-0.0632 0.1045,-0.0411 0.058,0.0221 0.1046,0.008 0.1046,-0.0315 0,-0.0394 0.029,-0.0536 0.065,-0.0315 0.036,0.022 0.085,0.008 0.1094,-0.0319 0.024,-0.0396 0.074,-0.0539 0.1093,-0.0319 0.036,0.022 0.065,0.0131 0.065,-0.0198 0,-0.092 0.6261,-0.37526 0.7121,-0.32211 0.044,0.0269 0.056,0.0148 0.029,-0.0285 -0.041,-0.066 0.099,-0.15189 0.2516,-0.15432 0.029,-7.9e-4 0.1071,-0.0497 0.1742,-0.10939 0.067,-0.0597 0.4006,-0.30225 0.7412,-0.539 0.7959,-0.55316 1.8467,-1.57926 2.4687,-2.41062 0.5191,-0.69386 1.1582,-1.78834 1.2845,-2.19961 0.042,-0.13598 0.095,-0.24725 0.119,-0.24725 0.024,0 0.048,-0.0701 0.055,-0.15576 0.01,-0.0857 0.043,-0.16608 0.081,-0.17871 0.038,-0.0126 0.052,-0.068 0.03,-0.12297 -0.021,-0.055 0,-0.10003 0.037,-0.10003 0.041,0 0.058,-0.0439 0.037,-0.0975 -0.021,-0.0536 -0.01,-0.11734 0.034,-0.14161 0.039,-0.0243 0.055,-0.087 0.035,-0.13936 -0.02,-0.0524 0,-0.1151 0.035,-0.13937 0.039,-0.0243 0.054,-0.0901 0.032,-0.14642 -0.022,-0.0563 0,-0.10229 0.043,-0.10229 0.049,0 0.065,-0.0537 0.039,-0.1335 -0.023,-0.0734 -0.01,-0.15447 0.033,-0.18008 0.042,-0.0256 0.057,-0.10401 0.035,-0.17421 -0.022,-0.0702 -0.01,-0.1486 0.035,-0.17421 0.042,-0.0256 0.057,-0.10401 0.035,-0.17421 -0.022,-0.0702 -0.01,-0.14788 0.032,-0.17261 0.04,-0.0247 0.053,-0.12186 0.03,-0.21583 -0.024,-0.0956 -0.01,-0.21608 0.042,-0.27358 0.047,-0.0565 0.067,-0.14928 0.046,-0.20617 -0.022,-0.0569 0,-0.25949 0.043,-0.4502 0.065,-0.27164 0.118,-0.3557 0.2469,-0.38804 0.2765,-0.0694 2.5878,-0.24279 3.2497,-0.24379 1.9649,-0.003 4.5159,0.38336 6.4452,0.976 3.8918,1.19551 7.6494,3.50175 10.2164,6.2702 0.2665,0.28745 0.503,0.53831 0.5254,0.55747 0.1733,0.14769 1.26,1.58531 1.7121,2.26473 1.0774,1.61936 2.2539,3.91005 2.2539,4.38843 0,0.24586 -0.3942,0.55097 -1.6027,1.24049 -1.0525,0.60047 -2.3903,1.36919 -4.1114,2.3625 -0.3641,0.21013 -0.8188,0.46908 -1.0104,0.57545 -0.1916,0.10638 -0.709,0.40543 -1.1498,0.66456 -0.8897,0.52307 -2.9226,1.69606 -3.6236,2.09078 -0.4599,0.25902 -2.4713,1.41709 -4.181,2.40724 -1.0476,0.60674 -1.3065,0.7559 -4.2855,2.46952 -2.1059,1.21135 -2.7,1.55601 -2.892,1.67793 -0.057,0.0365 -0.2926,0.17162 -0.5226,0.30024 -0.2299,0.12862 -1.1236,0.64141 -1.986,1.13954 -0.8623,0.49811 -2.195,1.26624 -2.9615,1.70695 -0.7666,0.44071 -1.77,1.02125 -2.2299,1.29009 -0.4599,0.26883 -1.9181,1.10868 -3.2403,1.8663 -2.8195,1.61549 -3.6854,2.11879 -5.1845,3.01338 -1.4443,0.86187 -1.5747,0.91631 -1.8895,0.78861 z m 4.3911,-29.5534 c -0.115,-0.0352 -0.2654,-0.0462 -0.3343,-0.0245 -0.069,0.0217 -0.1695,0.003 -0.2235,-0.042 -0.054,-0.0448 -0.1308,-0.0612 -0.1708,-0.0365 -0.04,0.0247 -0.1093,0.0224 -0.1539,-0.005 -0.045,-0.0276 -0.1769,-0.0577 -0.2938,-0.0669 -0.117,-0.009 -0.2243,-0.0514 -0.2384,-0.0938 -0.014,-0.0424 -0.055,-0.0586 -0.092,-0.0361 -0.071,0.0437 -0.8278,-0.24606 -0.8278,-0.31677 0,-0.0231 -0.064,-0.0469 -0.1419,-0.0527 -0.1874,-0.0141 -0.6,-0.27227 -0.6521,-0.40806 -0.023,-0.0592 -0.074,-0.0872 -0.1145,-0.0623 -0.1033,0.0638 -0.7821,-0.45905 -1.3425,-1.03398 -0.4811,-0.49356 -0.9373,-1.09124 -0.8359,-1.09511 0.031,-10e-4 0,-0.0324 -0.059,-0.0693 -0.2297,-0.13404 -1.0076,-1.73813 -0.9349,-1.92762 0.019,-0.0503 0.01,-0.0915 -0.03,-0.0915 -0.036,0 -0.047,-0.047 -0.025,-0.10453 0.022,-0.0575 0,-0.10452 -0.042,-0.10452 -0.05,0 -0.065,-0.054 -0.038,-0.13937 0.027,-0.0854 0.013,-0.13937 -0.038,-0.13937 -0.046,0 -0.063,-0.0483 -0.039,-0.11081 0.024,-0.0609 0.019,-0.14719 -0.01,-0.19163 -0.079,-0.12249 -0.092,-0.33664 -0.091,-1.4745 0,-1.1583 0.013,-1.35336 0.095,-1.48079 0.031,-0.0479 0.038,-0.11629 0.016,-0.15197 -0.022,-0.0357 -0.01,-0.0837 0.028,-0.10675 0.037,-0.0231 0.051,-0.0848 0.031,-0.13714 -0.02,-0.0524 0,-0.1151 0.035,-0.13937 0.039,-0.0243 0.056,-0.0851 0.036,-0.13525 -0.019,-0.0501 0.01,-0.12866 0.066,-0.17454 0.058,-0.0484 0.084,-0.14546 0.062,-0.23111 -0.029,-0.10967 -0.015,-0.13315 0.053,-0.0912 0.061,0.0378 0.075,0.0294 0.041,-0.0254 -0.059,-0.0963 0.2312,-0.77583 0.3319,-0.77583 0.038,0 0.049,-0.0196 0.025,-0.0437 -0.098,-0.0982 0.7525,-1.41792 1.0321,-1.60114 0.094,-0.0619 0.1576,-0.13549 0.1402,-0.16355 -0.036,-0.0576 0.3782,-0.47925 0.4857,-0.49496 0.038,-0.006 0.062,-0.0373 0.053,-0.0705 -0.016,-0.0578 0.6738,-0.6364 1.1485,-0.96344 0.1243,-0.0856 0.2624,-0.13321 0.3069,-0.1057 0.049,0.0305 0.062,0.0196 0.033,-0.028 -0.029,-0.0477 0.088,-0.14712 0.3028,-0.25583 0.1931,-0.0978 0.351,-0.15942 0.351,-0.13687 0,0.0225 0.051,-0.0101 0.1136,-0.0725 0.062,-0.0624 0.1544,-0.0978 0.2045,-0.0786 0.05,0.0192 0.1015,0.004 0.1142,-0.0346 0.013,-0.0383 0.07,-0.0787 0.1265,-0.0899 0.057,-0.0112 0.1921,-0.0567 0.3007,-0.10123 0.1086,-0.0445 0.2236,-0.0648 0.2554,-0.0451 0.032,0.0197 0.069,10e-4 0.083,-0.0408 0.014,-0.0421 0.1186,-0.0811 0.2324,-0.0867 0.1138,-0.006 0.2245,-0.0341 0.246,-0.0635 0.022,-0.0294 0.1626,-0.0619 0.3136,-0.0723 0.151,-0.0104 0.3058,-0.0385 0.3442,-0.0623 0.1167,-0.0726 2.1533,-0.0476 2.2463,0.0276 0.047,0.0383 0.1631,0.0504 0.2571,0.0268 0.094,-0.0236 0.1911,-0.0101 0.2158,0.0299 0.025,0.04 0.1051,0.0537 0.1785,0.0304 0.078,-0.0248 0.1335,-0.01 0.1335,0.0367 0,0.0474 0.056,0.0613 0.1394,0.0348 0.083,-0.0264 0.1394,-0.0125 0.1394,0.0343 0,0.0432 0.029,0.0607 0.064,0.0391 0.035,-0.0217 0.1527,-0.003 0.2613,0.0414 0.1086,0.0445 0.2405,0.0895 0.2931,0.10011 0.2047,0.0411 0.4967,0.18851 0.4967,0.25066 0,0.0359 0.031,0.0461 0.069,0.0225 0.1342,-0.0829 1.5008,0.75452 1.4267,0.87433 -0.022,0.0355 0.01,0.0469 0.062,0.0254 0.14,-0.0537 1.463,1.26926 1.4093,1.40926 -0.022,0.0562 -0.01,0.0842 0.025,0.0622 0.1153,-0.0713 0.9549,1.29629 0.8751,1.42548 -0.024,0.0388 -0.014,0.0705 0.022,0.0705 0.087,0 0.2464,0.39137 0.1943,0.47569 -0.022,0.0363 0.01,0.10593 0.066,0.15474 0.059,0.0488 0.091,0.13075 0.071,0.1821 -0.02,0.0514 0,0.0934 0.039,0.0934 0.041,0 0.057,0.046 0.036,0.1023 -0.022,0.0563 -0.01,0.12161 0.03,0.14523 0.038,0.0236 0.05,0.10301 0.027,0.17645 -0.023,0.0734 -0.011,0.1335 0.028,0.1335 0.039,0 0.07,0.0549 0.071,0.12194 0,0.0671 0.018,0.26306 0.039,0.43553 0.067,0.5464 0.085,1.88147 0.026,1.88147 -0.031,0 -0.057,0.10191 -0.058,0.22647 0,0.49639 -0.017,0.60973 -0.081,0.60973 -0.037,0 -0.047,0.0627 -0.023,0.13937 0.026,0.0835 0.013,0.13937 -0.035,0.13937 -0.047,0 -0.061,0.0559 -0.035,0.13937 0.025,0.0781 0.013,0.13936 -0.028,0.13936 -0.04,0 -0.054,0.047 -0.032,0.10453 0.022,0.0575 0.01,0.10452 -0.035,0.10452 -0.041,0 -0.057,0.047 -0.035,0.10453 0.022,0.0575 0.01,0.10453 -0.035,0.10453 -0.041,0 -0.058,0.043 -0.038,0.0955 0.02,0.0525 -0.011,0.14289 -0.069,0.20075 -0.058,0.0579 -0.086,0.12463 -0.062,0.14836 0.024,0.0237 0,0.0431 -0.042,0.0431 -0.047,0 -0.067,0.0302 -0.044,0.0671 0.058,0.0941 -0.3022,0.78338 -0.3833,0.73325 -0.037,-0.0227 -0.048,0.007 -0.025,0.0671 0.023,0.0595 0.01,0.10814 -0.028,0.10814 -0.038,0 -0.089,0.0754 -0.1116,0.1675 -0.044,0.17701 -0.434,0.70351 -0.9073,1.22618 -0.5262,0.58114 -1.5157,1.38717 -1.744,1.42068 -0.049,0.007 -0.144,0.0675 -0.2105,0.13406 -0.1718,0.17179 -0.5176,0.34 -0.5975,0.29062 -0.037,-0.023 -0.068,-0.007 -0.068,0.0361 0,0.0428 -0.031,0.0585 -0.07,0.0348 -0.038,-0.0237 -0.07,-0.008 -0.07,0.0348 0,0.0429 -0.029,0.0601 -0.064,0.0383 -0.035,-0.0218 -0.1148,0.0111 -0.1768,0.0731 -0.062,0.062 -0.1977,0.11696 -0.3017,0.12218 -0.104,0.005 -0.2305,0.0489 -0.2812,0.097 -0.051,0.0481 -0.1447,0.0915 -0.2091,0.0964 -0.064,0.005 -0.1953,0.0212 -0.2911,0.0363 -0.096,0.0151 -0.2213,0.0294 -0.2788,0.0318 -0.057,0.002 -0.1515,0.0234 -0.209,0.0467 -0.2452,0.0993 -2.2731,0.16454 -2.5435,0.0818 z m 7.1837,-55.82902 c -0.188,-0.85372 -0.3822,-1.72468 -0.4315,-1.93548 -0.1252,-0.5348 -0.4798,-2.11691 -0.6793,-3.03125 -0.092,-0.42159 -0.1568,-0.78486 -0.1441,-0.80727 0.071,-0.12434 1.2449,-0.28433 1.9174,-0.26124 0.9083,0.0312 1.4151,0.23632 1.9295,0.781 0.9757,1.03312 1.5309,3.77173 0.9907,4.88665 -0.3663,0.75581 -1.0317,1.24656 -2.205,1.62613 -0.3503,0.11332 -0.7266,0.22575 -0.8363,0.24985 l -0.1995,0.0438 z m -2.6803,-11.95255 c -0.1871,-0.80199 -1.3301,-5.94526 -1.3512,-6.07992 -0.029,-0.18376 0.8474,-0.36165 1.6219,-0.32927 1.2348,0.0516 1.9351,0.54542 2.3743,1.67401 0.3308,0.84994 0.4787,1.4707 0.5267,2.20914 0.1057,1.62808 -0.591,2.59645 -2.1617,3.00449 -0.858,0.22289 -0.845,0.22904 -1.01,-0.47845 z m -68.2964,178.8439 c 0.6705,-0.9065 0.7128,-0.96226 1.0133,-1.33617 0.1563,-0.19453 0.5933,-0.78843 0.971,-1.31979 0.3778,-0.53138 0.9193,-1.21322 1.2035,-1.51523 0.491,-0.52195 0.7385,-0.70813 2.9388,-2.21093 1.5223,-1.03967 5.0276,-3.36116 8.7483,-5.79377 5.3526,-3.49965 10.4874,-6.91445 10.4874,-6.97445 0,-0.0253 -0.2162,-0.35587 -0.4804,-0.73484 -0.6562,-0.94102 -0.9376,-1.34944 -1.7955,-2.60533 -2.1715,-3.17904 -4.502,-6.46713 -4.6921,-6.61997 -0.024,-0.0192 -0.088,-0.10048 -0.1438,-0.18067 -0.7192,-1.0438 -2.132,-2.0979 -3.4526,-2.57615 -1.0295,-0.37283 -1.5991,-0.46717 -2.8498,-0.47205 -1.3942,-0.006 -2.0321,0.0916 -3.6326,0.55264 -0.9849,0.28368 -4.6271,1.97123 -5.4611,2.53027 -0.096,0.0642 -0.3467,0.20769 -0.5575,0.31881 -0.521,0.27462 -2.0969,1.26321 -3.0312,1.90152 -0.7704,0.52625 -2.3391,1.67137 -2.4041,1.75485 -0.019,0.0245 -0.223,0.18829 -0.453,0.36372 -1.1191,0.8537 -2.9007,2.52898 -3.5816,3.36777 -1.1224,1.38268 -1.8146,2.7549 -2.1443,4.25073 -0.1327,0.60252 -0.15,2.19242 -0.031,2.82219 0.2404,1.26732 0.7841,2.5993 1.6856,4.12955 0.6674,1.13284 0.8893,1.47765 3.3738,5.24296 2.8027,4.24761 3.7628,5.67741 3.8132,5.67833 0.028,0 0.2413,-0.25779 0.4752,-0.57399 z m -0.2483,-12.14924 c -0.3244,-0.35411 -0.9202,-1.56551 -1.0094,-2.05204 -0.2207,-1.20498 0.4828,-2.18136 3.0668,-4.25628 2.1189,-1.70142 3.8999,-2.8507 6.2019,-4.00192 2.1604,-1.08044 3.1433,-1.4244 4.0722,-1.42503 0.8496,0 1.4239,0.3103 2.0813,1.12668 0.2792,0.34665 0.7452,1.06049 0.7452,1.14143 0,0.0198 -0.8858,0.61927 -1.9686,1.33237 -3.6464,2.40167 -7.667,5.06402 -10.1176,6.69954 -1.3392,0.89381 -2.5229,1.64273 -2.6306,1.66425 -0.1627,0.0326 -0.237,-0.006 -0.4412,-0.229 z m 183.3403,10.67859 c 1.9126,-0.41707 3.5687,-1.32339 5.1119,-2.79749 2.4981,-2.38636 4.5155,-6.12886 5.0897,-9.44219 0.311,-1.79446 0.2716,-3.88553 -0.1059,-5.60883 -0.1677,-0.76578 -0.6266,-2.12779 -0.956,-2.83752 -1.345,-2.89765 -4.0351,-5.34573 -7.2233,-6.57354 -1.0159,-0.39122 -1.9057,-0.54963 -3.1011,-0.552 -1.7811,-0.003 -3.0504,0.38107 -4.619,1.39964 -1.6686,1.08351 -3.4098,3.40669 -4.3011,5.73862 -0.1947,0.50939 -0.3014,0.89828 -0.5809,2.11857 -0.045,0.19658 -0.056,0.18752 -0.6033,-0.48024 -0.3065,-0.37433 -0.5887,-0.71537 -0.627,-0.75785 -0.099,-0.10912 -1.7265,-2.07446 -1.8309,-2.2103 -0.072,-0.0942 -0.012,-0.23372 0.3775,-0.87105 0.2551,-0.41734 0.5611,-0.9237 0.6799,-1.12524 0.1188,-0.20153 0.6832,-1.12657 1.2542,-2.05567 0.571,-0.9291 1.3051,-2.12826 1.6313,-2.66483 0.3262,-0.53657 0.9662,-1.58134 1.4222,-2.32171 0.4559,-0.74036 0.8437,-1.38428 0.8616,-1.43095 0.035,-0.0908 -0.07,-0.2162 -0.5016,-0.6026 -0.5111,-0.45708 -1.5933,-1.42832 -1.6694,-1.49819 -1.0566,-0.97064 -3.1258,-2.79207 -3.1873,-2.80555 -0.072,-0.0158 -0.3619,0.42197 -1.6015,2.42229 -0.1543,0.2491 -0.35,0.56269 -0.4348,0.69683 -0.085,0.13413 -0.8715,1.39598 -1.7483,2.8041 -0.8768,1.40809 -1.8253,2.92894 -2.1078,3.37965 -0.5107,0.81482 -1.4261,2.28488 -3.2405,5.20418 -0.5222,0.84024 -0.949,1.54579 -0.9484,1.56791 0,0.0221 0.087,0.13848 0.1916,0.25858 0.1048,0.12007 0.6609,0.78941 1.2358,1.4874 2.1978,2.66836 2.5347,3.077 3.4246,4.15404 0.5038,0.60973 1.6436,1.98662 2.5329,3.05975 0.8894,1.07312 2.0182,2.4372 2.5085,3.03124 2.2243,2.69501 2.6191,3.16139 2.6984,3.18752 0.068,0.0224 2.2596,-2.01286 4.7518,-4.41268 l 0.3767,-0.36272 -0.1866,-0.50327 c -0.2258,-0.60934 -0.2926,-0.89734 -0.3898,-1.68219 -0.2671,-2.15673 0.8381,-4.55753 2.4907,-5.41059 1.1188,-0.57755 2.0043,-0.56854 3.1838,0.0324 0.685,0.34895 1.0374,0.60389 1.5654,1.13269 0.938,0.93942 1.4645,2.21915 1.4668,3.56535 0,2.15697 -1.6368,4.48194 -3.518,4.98569 -0.4425,0.11852 -0.7484,0.11892 -1.2007,0.003 -0.1981,-0.0514 -0.3875,-0.0749 -0.4209,-0.0523 -0.034,0.0226 -0.3142,0.44879 -0.6239,0.94703 -0.3096,0.49825 -1.3353,2.14338 -2.2793,3.65588 -0.944,1.51246 -1.7075,2.79559 -1.6967,2.85135 0.011,0.0558 0.3489,0.26661 0.7513,0.46848 1.0286,0.51605 2.1632,0.86974 3.31,1.03182 0.4393,0.0621 2.3188,-0.0208 2.7874,-0.1231 z m -200.3522,-25.42471 c 0.1838,-0.12889 1.224,-0.93421 2.3666,-1.83233 0.146,-0.11473 0.3695,-0.28697 0.4968,-0.38279 0.1274,-0.0958 0.6001,-0.45218 1.0506,-0.79193 0.4504,-0.33975 1.0138,-0.70892 1.252,-0.82038 0.4881,-0.2284 3.9856,-1.40599 13.7291,-4.62248 3.6793,-1.21462 7.5406,-2.4895 8.5807,-2.83312 1.0524,-0.34763 1.9409,-0.67979 2.0035,-0.74888 0.062,-0.0683 0.1105,-0.23142 0.1084,-0.36255 0,-0.13111 -0.5148,-1.77495 -1.1391,-3.65293 -0.9981,-3.00252 -1.151,-3.41199 -1.2677,-3.39355 -0.073,0.0116 -1.6693,0.52535 -3.5473,1.14185 -1.878,0.61648 -4.023,1.32044 -4.7668,1.56435 -0.7438,0.24391 -1.3867,0.44347 -1.4288,0.44347 -0.042,0 -0.1648,-0.22734 -0.2728,-0.50523 l -0.1962,-0.5052 0.2314,-0.19582 c 0.1272,-0.10769 0.4038,-0.31312 0.6146,-0.45653 0.4159,-0.28294 3.6111,-2.52871 5.0173,-3.5265 0.479,-0.33994 1.2531,-0.88714 1.7202,-1.21602 0.844,-0.59435 1.2065,-0.98156 1.2065,-1.28897 0,-0.20769 -2.4655,-7.74449 -2.5718,-7.8618 -0.058,-0.064 0.6647,-0.65398 -7.3582,6.0085 -1.2264,1.01846 -2.3776,1.97116 -2.5581,2.11709 l -0.3283,0.2653 -0.8064,-0.43017 c -1.0846,-0.57852 -1.9931,-0.88056 -2.9422,-0.97814 -1.5067,-0.15491 -3.9361,0.11781 -5.6294,0.63194 -0.6781,0.20588 -1.8671,0.62983 -1.9511,0.69562 -0.038,0.03 -0.2644,0.1334 -0.5024,0.22971 -0.5553,0.22474 -1.5398,0.77903 -2.4227,1.36409 -2.1834,1.44665 -3.4738,3.71015 -3.6357,6.37725 -0.089,1.47243 0.106,2.24414 1.8902,7.46273 0.3669,1.07314 1.1397,3.37009 1.7172,5.10435 0.5776,1.73428 1.0659,3.1532 1.0851,3.1532 0.019,0 0.1339,-0.0693 0.2548,-0.15413 z m 2.6936,-11.36881 c 0,-0.006 -0.081,-0.22972 -0.1806,-0.49783 -0.1193,-0.32189 -0.1934,-0.69162 -0.2182,-1.08839 -0.034,-0.53741 -0.019,-0.6406 0.1347,-0.97721 0.095,-0.20696 0.3105,-0.51045 0.4795,-0.6744 0.7061,-0.685 3.0782,-1.57407 5.243,-1.96502 1.292,-0.23329 2.263,0.16917 2.8621,1.18628 0.2334,0.39622 0.4841,1.04404 0.4264,1.10172 -0.048,0.0476 -8.7469,2.94658 -8.7469,2.91485 z m -9.4239,-18.57893 c 0.6798,-0.0758 1.6907,-0.18512 2.2464,-0.24299 3.9471,-0.41096 8.5459,-0.90347 10.1042,-1.08209 1.0157,-0.11643 2.3797,-0.27277 3.0313,-0.34744 0.6515,-0.0747 1.5766,-0.18225 2.0556,-0.23911 1.4488,-0.17188 3.752,-0.54361 5.0521,-0.81538 3.7352,-0.78074 5.9759,-2.87697 6.7852,-6.3478 0.1768,-0.75812 0.246,-2.23954 0.1614,-3.45598 -0.1612,-2.31881 -0.6323,-3.93583 -1.5733,-5.39973 -1.0687,-1.66274 -2.9715,-2.92275 -5.0597,-3.35046 -1.7388,-0.35615 -4.1512,-0.32968 -8.724,0.0957 -1.2011,0.11174 -7.5669,0.75531 -8.5924,0.86869 -0.4983,0.0551 -1.5488,0.16606 -2.3345,0.24661 -3.7057,0.37995 -7.3098,0.80543 -7.3751,0.87064 -0.019,0.0195 0.048,0.8114 0.151,1.75973 0.1025,0.94834 0.264,2.47684 0.3588,3.39667 0.095,0.91983 0.1923,1.83705 0.2169,2.03824 l 0.044,0.36585 h 0.8841 c 0.7883,0 2.7642,-0.18844 7.671,-0.73155 0.5174,-0.0573 2.54,-0.27646 4.4946,-0.48708 1.9546,-0.21064 3.9929,-0.4305 4.5295,-0.4886 2.7007,-0.29243 4.5017,-0.45298 5.0816,-0.45298 0.792,0 2.0683,0.17293 2.3848,0.32313 0.4773,0.22648 0.7911,0.76452 0.7911,1.3564 0,0.5176 -0.1228,0.85527 -0.4103,1.12828 -0.2462,0.23383 -1.1592,0.66362 -1.7151,0.80735 -0.3832,0.0991 -2.4379,0.34557 -7.038,0.84426 -2.1463,0.23269 -4.7333,0.51527 -5.749,0.62799 -2.7268,0.30264 -9.4393,1.03381 -9.9822,1.08733 l -0.4703,0.0464 v 0.25803 c 0,0.14193 0.031,0.50604 0.07,0.80918 0.1235,0.97964 0.4111,3.72412 0.5185,4.94846 0.057,0.65553 0.1351,1.27232 0.1725,1.37064 0.1432,0.37673 0.3772,0.39693 2.2193,0.1916 z m 28.9136,-25.99856 c 0.278,-1.82249 0.3196,-2.09588 0.5395,-3.54904 0.096,-0.63238 0.2227,-1.46336 0.2823,-1.84662 0.059,-0.38327 0.1711,-1.12017 0.2481,-1.63758 0.077,-0.5174 0.2019,-1.3327 0.2778,-1.81178 0.076,-0.47908 0.3422,-2.21943 0.5918,-3.86746 0.2497,-1.64803 0.5005,-3.27632 0.5573,-3.61842 0.1494,-0.89941 0.1452,-0.93244 -0.1231,-0.97804 -0.1246,-0.0212 -1.277,-0.19532 -2.561,-0.38703 -1.2839,-0.1917 -2.7346,-0.411 -3.2238,-0.48731 -0.4892,-0.0763 -0.944,-0.13876 -1.0105,-0.13876 -0.1049,0 -0.157,0.23999 -0.3895,1.79436 -0.2936,1.96191 -0.4154,2.758 -0.7436,4.86046 -0.1197,0.76652 -0.2509,1.63842 -0.2916,1.93754 -0.057,0.42082 -0.096,0.53531 -0.1725,0.50609 -0.1343,-0.0516 -15.2689,-10.13981 -16.2535,-10.83415 -1.2643,-0.89154 -1.8286,-1.12583 -3.2799,-1.36191 -0.9868,-0.16051 -3.2347,-0.45627 -3.4679,-0.45627 -0.4063,0 -0.4449,0.12629 -0.7885,2.57831 -0.081,0.57949 -0.5042,3.33273 -0.621,4.04166 -0.1213,0.73631 -0.4719,2.97359 -0.5898,3.76294 -0.06,0.40242 -0.1877,1.23341 -0.2837,1.84662 -0.267,1.70673 -0.4294,2.80345 -0.6266,4.23152 -0.099,0.71764 -0.1926,1.36968 -0.2079,1.449 -0.019,0.0985 0.021,0.16485 0.1256,0.20936 0.084,0.0358 1.0001,0.19198 2.0348,0.34697 1.0349,0.15499 2.2735,0.34368 2.7526,0.4193 1.9269,0.30417 2.127,0.33068 2.1692,0.28749 0.024,-0.0247 0.1106,-0.46825 0.192,-0.98566 0.2387,-1.51683 0.8236,-5.31292 0.9932,-6.44576 0.086,-0.5749 0.1628,-1.05496 0.1705,-1.06681 0.013,-0.0192 2.8846,1.85316 3.0627,1.99662 0.04,0.032 0.4159,0.28354 0.8362,0.55907 0.4202,0.27554 0.8111,0.53217 0.8686,0.57031 6.047,4.01178 9.013,5.97751 10.0693,6.67333 0.7282,0.47971 1.4965,1.00305 1.7073,1.16298 0.6784,0.51472 1.317,0.85793 1.8003,0.96756 1.0407,0.23605 4.8561,0.82333 5.0606,0.77896 0.037,-0.008 0.1694,-0.68651 0.2947,-1.50785 z m -33.8164,-9.59412 c 0.022,-0.1054 0.088,-0.53657 0.1483,-0.95816 0.06,-0.42159 0.1694,-1.14281 0.2434,-1.60273 0.4754,-2.95989 0.6358,-4.14886 0.5887,-4.36369 -0.065,-0.29537 -0.2706,-0.42244 -0.8508,-0.52567 -1.1784,-0.20964 -5.0558,-0.79298 -5.0839,-0.76484 -0.016,0.0165 -0.057,0.21353 -0.09,0.43797 -0.1515,1.02848 -0.7123,4.67679 -0.8393,5.46013 -0.078,0.47907 -0.1482,1.04143 -0.1567,1.24968 l -0.015,0.37864 2.7873,0.43114 c 1.5331,0.23712 2.8868,0.43519 3.0083,0.44015 0.1881,0.008 0.2268,-0.0195 0.2602,-0.18262 z m 212.0201,-12.09485 c 5.0016,-3.32945 9.1871,-6.1195 9.3012,-6.20012 0.1141,-0.0806 0.6002,-0.40602 1.0801,-0.72312 0.48,-0.31709 0.9197,-0.60931 0.9772,-0.64938 0.058,-0.0401 0.4494,-0.29866 0.871,-0.57465 0.4216,-0.27599 0.7979,-0.52839 0.8363,-0.56087 0.038,-0.0325 0.3899,-0.26869 0.7814,-0.52488 0.3915,-0.25618 0.7677,-0.50552 0.8362,-0.55407 0.068,-0.0485 0.4694,-0.3139 0.891,-0.58966 0.4216,-0.27577 0.8039,-0.53394 0.8497,-0.57373 0.046,-0.0398 0.4293,-0.29183 0.8523,-0.56012 0.4456,-0.28258 0.7698,-0.53423 0.7705,-0.5982 0,-0.1212 -0.4888,-1.33096 -1.4094,-3.47831 -0.5936,-1.38446 -1.4403,-3.39388 -1.588,-3.76851 -0.081,-0.2064 -0.2239,-0.54137 -0.3167,-0.74438 -0.093,-0.20301 -0.1689,-0.38308 -0.1689,-0.40015 0,-0.0171 -0.094,-0.23643 -0.209,-0.48746 -0.115,-0.25104 -0.2091,-0.47432 -0.2091,-0.49616 0,-0.0951 -0.7244,-1.69889 -0.7673,-1.69889 -0.026,0 -0.5464,0.35011 -1.1558,0.77804 -2.1881,1.53635 -2.4928,1.69255 -3.8604,1.97913 -0.4408,0.0924 -1.1779,0.24739 -1.6378,0.34443 -0.4599,0.097 -2.4041,0.48993 -4.3204,0.8731 -1.9163,0.38316 -3.6096,0.72676 -3.7629,0.76354 -0.1533,0.0368 -0.7805,0.16184 -1.3937,0.27788 -0.6132,0.11605 -1.2404,0.24148 -1.3937,0.27874 -0.1533,0.0373 -0.7805,0.16269 -1.3937,0.27874 -0.6132,0.11604 -1.2404,0.24167 -1.3937,0.27918 -0.1532,0.0375 -0.8588,0.18173 -1.5678,0.32048 -0.7091,0.13876 -1.4303,0.28189 -1.6028,0.31807 -0.1724,0.0362 -0.6271,0.12592 -1.0104,0.19941 -1.0235,0.19628 -3.0877,0.60967 -3.4493,0.69081 -0.4809,0.1079 -2.6065,0.5398 -3.31,0.67259 -0.345,0.0651 -0.6531,0.14142 -0.6847,0.16959 -0.032,0.0282 0.073,0.36089 0.2321,0.73936 0.1593,0.37848 0.4479,1.06443 0.6414,1.52435 0.1935,0.45991 0.4418,1.03438 0.5519,1.27659 0.11,0.24221 0.2,0.46057 0.2,0.48523 0,0.0439 0.6152,1.48756 0.9567,2.24501 0.095,0.21079 0.2356,0.55089 0.3124,0.7558 0.114,0.30414 0.1848,0.39143 0.3861,0.4755 0.2238,0.0935 0.3141,0.0894 0.9854,-0.0455 0.4065,-0.0817 1.1873,-0.25647 1.7352,-0.38841 0.5478,-0.13194 1.0688,-0.23988 1.1578,-0.23988 0.2415,0 0.5024,0.24124 0.6216,0.57476 0.1335,0.37335 0.6884,1.71721 1.1536,2.79367 0.196,0.45373 0.3564,0.87903 0.3564,0.94512 0,0.1669 -0.2876,0.41899 -0.9407,0.82449 -1.4338,0.89023 -2.6131,1.6958 -2.6131,1.78498 0,0.054 0.074,0.26663 0.165,0.47248 0.091,0.20584 0.3293,0.76623 0.5301,1.24531 0.2008,0.47908 0.4202,0.99648 0.4875,1.14979 0.067,0.1533 0.2727,0.63934 0.4563,1.0801 1.0793,2.59114 1.444,3.44139 1.5171,3.53673 0.052,0.0681 0.1227,0.0531 0.3195,-0.0678 0.1389,-0.0853 4.3447,-2.87926 9.3463,-6.20871 z m -3.0193,-7.2095 c -0.057,-0.10027 -1.2314,-2.91431 -1.2314,-2.9516 0,-0.0574 0.3832,-0.16295 3.3797,-0.93104 0.4982,-0.12771 1.3449,-0.34641 1.8814,-0.48599 0.5366,-0.13958 1.5244,-0.39557 2.1951,-0.56887 0.6707,-0.17329 1.6865,-0.43874 2.2574,-0.58989 0.5709,-0.15114 1.057,-0.2553 1.0801,-0.23145 0.062,0.0642 -0.029,0.12232 -2.6407,1.67621 -1.3222,0.78673 -2.5609,1.52614 -2.7525,1.64315 -0.1916,0.117 -0.8502,0.51143 -1.4634,0.87651 -0.6132,0.36508 -1.4664,0.87744 -1.8959,1.13856 -0.4296,0.26113 -0.794,0.45211 -0.8098,0.42441 z m -169.2899,3.81238 c 0.508,-0.9816 3.2559,-6.61429 3.2559,-6.67401 0,-0.0414 -0.4939,-0.31544 -1.0975,-0.60894 -3.0491,-1.48247 -7.1423,-3.56135 -7.5433,-3.8311 -0.5279,-0.35511 -0.5867,-0.4105 -4.4233,-4.16865 -8.9696,-8.78624 -10.657,-10.46513 -11.2416,-11.18494 -0.6662,-0.82017 -1.0612,-1.26187 -1.1287,-1.26187 -0.096,0 -1.1013,1.87779 -2.9398,5.49022 -0.8804,1.72984 -0.8846,1.77661 -0.2136,2.362 0.2587,0.22571 0.8132,0.69147 1.2323,1.03501 0.4192,0.34355 0.9052,0.75148 1.0802,0.90652 0.1749,0.15504 0.4905,0.42115 0.7013,0.59135 0.2108,0.17021 0.3989,0.32783 0.4181,0.35026 0.019,0.0224 0.3346,0.2894 0.7009,0.59326 3.2668,2.7099 4.3163,3.62662 4.3163,3.77005 0,0.0421 -0.1391,0.0975 -0.3092,0.12298 -0.2564,0.0385 -0.7833,-0.0726 -3.0835,-0.65004 -1.5259,-0.38303 -2.9624,-0.74591 -3.1924,-0.80641 -0.6459,-0.16991 -2.1307,-0.51721 -3.1706,-0.74158 -1.7441,-0.37632 -2.0236,-0.43132 -2.0511,-0.4036 -0.015,0.0152 -0.785,1.56415 -1.7109,3.44213 -0.9259,1.87798 -1.7508,3.54611 -1.8331,3.70696 -0.082,0.16084 -0.1282,0.31386 -0.1021,0.34003 0.026,0.0262 1.5304,0.26201 3.3428,0.52408 4.3136,0.62377 10.6066,1.55923 12.5979,1.87269 0.4791,0.0754 1.608,0.24873 2.5087,0.38514 1.5782,0.23903 2.2982,0.35013 3.4145,0.52684 1.2337,0.19532 2.152,0.5531 4.4231,1.72318 0.6909,0.35594 1.7578,0.89306 2.371,1.19361 0.6133,0.30054 1.6322,0.80117 2.2643,1.11251 0.6322,0.31134 1.1809,0.55604 1.2195,0.54379 0.039,-0.0122 0.1258,-0.12991 0.1939,-0.26147 z m 153.6495,-14.12455 c 2.0621,-1.61397 3.2366,-2.53541 3.9564,-3.10387 0.8993,-0.7103 2.4705,-1.93897 2.9525,-2.30888 0.4341,-0.33319 3.3853,-2.64053 4.0159,-3.13979 1.0043,-0.79509 2.7319,-2.14552 3.1863,-2.49066 0.2655,-0.20169 0.6058,-0.46751 0.7562,-0.59069 0.1503,-0.12318 0.681,-0.5419 1.1793,-0.93048 1.1154,-0.86998 1.1114,-0.86684 2.2647,-1.77429 0.5174,-0.40712 1.1843,-0.92574 1.4821,-1.15249 0.5105,-0.38879 2.9417,-2.29401 3.9706,-3.11171 0.2588,-0.20557 0.4704,-0.40623 0.4704,-0.4459 0,-0.0397 -0.3361,-0.50085 -0.7469,-1.02484 -0.4108,-0.52399 -1.0772,-1.37682 -1.4808,-1.89519 -0.4036,-0.51838 -0.7737,-0.98874 -0.8223,-1.04526 -0.049,-0.0565 -0.4171,-0.5261 -0.8188,-1.04351 -0.4016,-0.5174 -0.7599,-0.94073 -0.7962,-0.94073 -0.057,0 -0.4457,0.29575 -2.3034,1.75458 -0.2108,0.16554 -1.5748,1.2295 -3.0312,2.36438 -1.4564,1.13487 -2.7421,2.13734 -2.8571,2.2277 -1.5587,1.22512 -2.1729,1.70599 -2.6027,2.03793 -0.2817,0.21758 -1.0806,0.84244 -1.7754,1.38859 -0.6948,0.54614 -1.2875,0.99299 -1.317,0.99299 -0.03,0 -0.054,-0.0284 -0.054,-0.0631 0,-0.0601 1.1614,-1.74544 2.679,-3.88745 0.3854,-0.54395 1.2624,-1.79826 1.949,-2.78736 0.6866,-0.98909 1.371,-1.97081 1.5209,-2.1816 0.6022,-0.84655 3.4698,-4.9433 4.1407,-5.91544 0.09,-0.12991 0.163,-0.28759 0.163,-0.35039 0,-0.0905 -1.457,-1.99915 -3.861,-5.05782 -0.3532,-0.44948 -1.0276,-1.30032 -1.1204,-1.41364 -0.054,-0.0657 -0.3871,-0.49291 -0.7409,-0.94941 l -0.6431,-0.83 -0.1318,0.168 c -0.072,0.0924 -0.649,0.95195 -1.2812,1.91011 -0.6322,0.95815 -1.2652,1.86318 -1.4067,2.01116 -0.2308,0.24153 -0.6433,0.58667 -1.7204,1.43946 -1.9273,1.52584 -3.0073,2.37843 -3.7938,2.99514 -0.8861,0.69476 -1.8664,1.46832 -2.0943,1.65261 -0.1798,0.14538 -1.945,1.52962 -2.8573,2.24059 -1.4654,1.14209 -2.8703,2.24211 -3.31,2.5917 -0.2299,0.18284 -1.0452,0.82095 -1.8118,1.41801 -0.7665,0.59707 -1.5504,1.21032 -1.7421,1.36278 -0.3695,0.29399 -2.3405,1.84027 -2.9267,2.29599 -0.1916,0.14898 -0.5926,0.46344 -0.8911,0.69879 l -0.5427,0.4279 0.1566,0.22353 c 0.086,0.12294 0.4176,0.55279 0.7364,0.95521 0.3189,0.40243 0.7142,0.90415 0.8786,1.11495 1.8476,2.36939 2.7868,3.55644 2.866,3.62212 0.092,0.0766 0.6206,-0.28299 1.6088,-1.09505 0.1509,-0.124 0.6538,-0.51597 1.1175,-0.87105 0.4637,-0.35508 0.9498,-0.73223 1.0801,-0.8381 0.3533,-0.28701 2.242,-1.76776 2.9198,-2.2892 0.3258,-0.25061 1.0489,-0.81388 1.607,-1.25171 0.558,-0.43783 1.3369,-1.04692 1.7308,-1.35352 0.3939,-0.30661 1.0035,-0.78491 1.3546,-1.06288 0.3511,-0.27797 0.7687,-0.59919 0.9279,-0.71382 0.2766,-0.19912 0.2878,-0.20144 0.2511,-0.0521 -0.044,0.1799 -0.1636,0.3641 -1.0729,1.65456 -0.3645,0.5174 -1.1333,1.61492 -1.7084,2.43894 -0.5751,0.82401 -1.3533,1.93721 -1.7293,2.47377 -0.3761,0.53657 -0.815,1.16373 -0.9755,1.39368 -0.1605,0.22996 -0.6017,0.85712 -0.9805,1.39368 -0.3788,0.53657 -0.7997,1.13589 -0.9353,1.33183 -0.1355,0.19594 -0.4016,0.57223 -0.5913,0.83621 -0.9887,1.37624 -1.223,1.77348 -1.223,2.0736 0,0.30087 0.08,0.45887 0.4478,0.88356 0.1178,0.13603 0.456,0.55936 0.7516,0.94074 0.2956,0.38137 0.8544,1.10106 1.2419,1.5993 0.3874,0.49824 0.8502,1.09404 1.0283,1.32399 0.1781,0.22996 0.3561,0.45398 0.3956,0.49783 0.04,0.0438 0.4317,0.53839 0.8714,1.099 0.5226,0.66632 0.833,1.00643 0.8963,0.98214 0.053,-0.0204 0.5672,-0.40524 1.142,-0.85512 z m -145.4795,-1.15374 c 0.2487,-0.31356 0.4772,-0.60146 0.5079,-0.63979 0.031,-0.0383 0.2892,-0.36758 0.5745,-0.73168 0.2854,-0.3641 0.5502,-0.69711 0.5886,-0.74003 0.2892,-0.32353 2.4434,-3.12061 2.4602,-3.19427 0.012,-0.0514 -0.1765,-0.24514 -0.4181,-0.43057 -0.2416,-0.18543 -0.502,-0.39021 -0.5787,-0.45507 -0.077,-0.0649 -0.4216,-0.3411 -0.7665,-0.61386 -0.3449,-0.27277 -0.6809,-0.5402 -0.7466,-0.5943 -0.066,-0.0541 -0.3635,-0.29127 -0.662,-0.52703 -0.2984,-0.23576 -0.6523,-0.51623 -0.7865,-0.62326 -0.1341,-0.10704 -0.6358,-0.50338 -1.1148,-0.88078 -0.479,-0.37739 -1.4211,-1.12518 -2.0934,-1.66175 -0.6724,-0.53656 -2.0274,-1.61557 -3.0112,-2.39779 -0.9838,-0.78221 -1.7724,-1.44856 -1.7525,-1.48078 0.02,-0.0322 0.094,-0.0586 0.1655,-0.0586 0.124,0 1.0523,0.32534 1.5107,0.52942 0.1208,0.0538 0.6695,0.26684 1.2194,0.47342 0.5499,0.20658 1.5329,0.58302 2.1845,0.83652 0.6515,0.25352 1.3414,0.52115 1.533,0.59476 0.1916,0.0736 0.709,0.27402 1.1498,0.44536 0.4407,0.17133 1.0052,0.38984 1.2543,0.48556 2.6753,1.02797 3.8782,1.50765 4.4598,1.77842 1.4584,0.67901 1.9125,0.54985 2.8438,-0.80885 0.2287,-0.33358 0.8612,-1.17096 1.4055,-1.86083 0.5444,-0.68987 1.1202,-1.4221 1.2795,-1.62719 0.1594,-0.20508 0.6298,-0.80063 1.0455,-1.32344 0.4156,-0.52282 0.7833,-1.00223 0.8171,-1.06536 0.067,-0.12443 0.038,-0.15137 -1.0256,-0.97818 -0.3122,-0.24265 -1.5145,-1.19376 -2.6717,-2.11359 -1.1572,-0.91983 -2.271,-1.79785 -2.475,-1.95115 -0.3209,-0.2411 -1.2438,-0.97064 -5.8183,-4.59916 -1.3159,-1.04379 -2.4197,-1.91602 -3.3796,-2.67055 -0.9873,-0.77598 -1.3996,-1.10159 -1.986,-1.56814 -0.2108,-0.1677 -1.324,-1.04801 -2.4738,-1.95624 -1.1498,-0.90822 -2.1376,-1.68928 -2.1951,-1.7357 -0.057,-0.0464 -0.3832,-0.30359 -0.7239,-0.57149 -0.3406,-0.2679 -1.0442,-0.82419 -1.5635,-1.2362 -0.5194,-0.412 -0.967,-0.7491 -0.9949,-0.7491 -0.028,0 -0.1802,0.16463 -0.3384,0.36584 -0.1583,0.20121 -0.3322,0.41957 -0.3864,0.48524 -0.054,0.0657 -0.2914,0.36357 -0.5272,0.662 -0.2357,0.29843 -0.516,0.65235 -0.6229,0.78649 -1.8092,2.27198 -2.7828,3.53914 -2.7845,3.62431 0,0.0579 0.1624,0.23558 0.3636,0.39485 1.2422,0.98329 5.1302,4.07442 5.6178,4.46644 0.3206,0.25783 0.6669,0.5315 0.7694,0.60816 0.1025,0.0766 0.5614,0.43896 1.0197,0.80512 0.4582,0.36617 1.8273,1.45721 3.0424,2.42455 2.2837,1.8182 2.4712,2.01323 1.8426,1.91676 -0.2844,-0.0437 -1.7289,-0.53139 -2.2052,-0.74459 -0.1341,-0.06 -0.6515,-0.26585 -1.1497,-0.45735 -1.6194,-0.62237 -3.4408,-1.33476 -5.6793,-2.22123 -1.2072,-0.47811 -2.2774,-0.89351 -2.3781,-0.92313 -0.1008,-0.0296 -0.2889,-0.10181 -0.4181,-0.16043 -0.1293,-0.0586 -0.9249,-0.37869 -1.7681,-0.71126 -2.4225,-0.95551 -2.4006,-0.94911 -2.7048,-0.78915 -0.1817,0.0955 -0.1357,0.0404 -1.6797,2.01049 -0.6759,0.86234 -1.2677,1.61493 -1.3151,1.67242 -0.087,0.10488 -0.294,0.36591 -1.5229,1.91631 -0.8679,1.09495 -1.8016,2.34097 -1.8016,2.40437 0,0.0277 0.4783,0.21404 1.0627,0.41418 0.5845,0.20015 1.1568,0.40497 1.2718,0.45516 0.1149,0.0502 0.4285,0.17007 0.6968,0.2664 0.5268,0.18915 1.0024,0.38797 1.4982,0.62628 0.3236,0.15555 1.2329,0.73866 1.4023,0.89932 0.053,0.05 0.3311,0.27898 0.6186,0.50884 0.2874,0.22988 0.5383,0.43451 0.5574,0.45475 0.019,0.0202 0.176,0.14493 0.3484,0.27709 0.1725,0.13217 0.3293,0.25864 0.3485,0.28105 0.019,0.0224 0.5835,0.47595 1.2543,1.00784 0.6707,0.53191 1.5801,1.25331 2.0208,1.60312 0.9626,0.76393 3.7634,2.96606 4.8776,3.83496 0.7054,0.55012 1.9347,1.51988 2.4392,1.92424 0.184,0.14746 1.0486,0.83103 3.4057,2.69279 0.7905,0.62441 1.5471,1.22421 1.6812,1.33289 1.3779,1.11631 2.8245,2.22077 2.8711,2.19197 0.032,-0.0197 0.2613,-0.29229 0.51,-0.60585 z m 18.435,-20.14893 c 1.8752,-1.2443 3.4095,-2.2879 3.4095,-2.31911 0,-0.068 -0.4241,-1.08443 -0.6745,-1.61655 -0.2371,-0.50386 -0.5574,-1.27366 -0.7248,-1.74212 -0.1798,-0.50333 -0.1015,-0.74981 0.3412,-1.07363 0.4453,-0.32573 3.281,-2.20703 3.3893,-2.2486 0.085,-0.0326 0.3173,0.19551 1.4979,1.47177 1.1968,1.29371 1.5813,1.55756 1.995,1.36905 0.5131,-0.23377 6.4403,-4.20763 6.4403,-4.31785 0,-0.10856 -0.3476,-0.48049 -2.6166,-2.79927 -0.8068,-0.82448 -2.0166,-2.0635 -2.6885,-2.75337 -0.6718,-0.68987 -1.9298,-1.97563 -2.7955,-2.85723 -0.8657,-0.88161 -1.633,-1.67088 -1.705,-1.75393 -0.072,-0.0831 -1.3525,-1.39931 -2.8453,-2.92502 -4.8219,-4.92787 -5.4221,-5.54236 -6.7962,-6.95809 -3.2072,-3.30425 -3.4252,-3.51573 -3.6724,-3.5621 -0.134,-0.0251 -0.3155,-0.008 -0.4216,0.0403 -0.1024,0.0465 -1.1113,0.69758 -2.2419,1.44695 -1.1307,0.74936 -3.2696,2.16559 -4.7533,3.14717 -1.4836,0.98158 -2.6987,1.82057 -2.7002,1.86442 0,0.0438 0.6729,0.73239 1.4986,1.53007 0.9797,0.9464 1.5705,1.57243 1.7004,1.80173 0.1094,0.19327 0.6538,1.48028 1.2098,2.86002 0.5559,1.37975 1.1897,2.94764 1.4084,3.4842 0.5721,1.40379 1.9674,4.86251 2.1927,5.43535 0.2832,0.72028 1.9481,4.84378 2.0539,5.08693 0.1141,0.26232 0.4815,1.17102 0.7325,1.81178 0.1051,0.26829 0.5292,1.31877 0.9424,2.33442 0.4133,1.01564 0.7914,1.95637 0.8402,2.09051 0.1047,0.28706 1.3542,3.28585 1.4011,3.36226 0.018,0.0287 0.064,0.0523 0.1025,0.0523 0.039,0 1.6048,-1.01806 3.4801,-2.26236 z m -1.7491,-13.15698 c -0.1266,-0.27689 -0.4445,-0.95372 -0.7064,-1.50405 -0.2619,-0.55033 -0.4762,-1.00959 -0.4762,-1.02058 0,-0.011 -0.2979,-0.63554 -0.662,-1.3879 -0.3641,-0.75236 -0.662,-1.37908 -0.662,-1.39271 0,-0.0136 -0.253,-0.55026 -0.5623,-1.19251 -0.6567,-1.36375 -0.8314,-1.78775 -0.8314,-2.01831 0,-0.15558 0.015,-0.16273 0.2046,-0.0967 0.2833,0.0988 0.5322,0.35016 1.9919,2.01197 0.4208,0.47907 0.7818,0.88672 0.8022,0.90589 0.3716,0.3489 3.8248,4.34276 3.7956,4.38991 -0.032,0.0524 -2.2694,1.57731 -2.5863,1.76297 -0.048,0.028 -0.1662,-0.14827 -0.3077,-0.45798 z m 110.3098,12.946 c 1.2862,-0.22635 2.3592,-0.71884 3.6835,-1.69061 1.0344,-0.75913 1.9046,-1.6905 2.848,-3.04834 1.4836,-2.13534 12.7729,-19.04656 12.7729,-19.13366 0,-0.0326 -0.064,-0.0935 -0.1419,-0.1353 -0.078,-0.0418 -1.4948,-0.97108 -3.1484,-2.06517 -1.6536,-1.09409 -3.0483,-2.00526 -3.0993,-2.02484 -0.1563,-0.06 -0.2882,0.10439 -1.2418,1.54757 -2.1254,3.21665 -3.8247,5.79245 -4.5973,6.96872 -1.1832,1.80134 -4.829,7.26594 -5.0676,7.59555 -0.6113,0.84472 -2.0498,2.74935 -2.5636,3.39432 -0.7412,0.93032 -1.0711,1.13263 -1.7741,1.08787 -0.5736,-0.0365 -0.9609,-0.29391 -1.2397,-0.82392 -0.2758,-0.52399 -0.2608,-0.94129 0.063,-1.74991 0.6249,-1.56136 0.3533,-1.13106 7.9351,-12.57001 1.2702,-1.91631 2.7734,-4.18975 3.3406,-5.05209 0.5671,-0.86234 1.1838,-1.79786 1.3704,-2.07893 0.1866,-0.28108 0.3393,-0.53554 0.3393,-0.56547 0,-0.0299 -0.6037,-0.45054 -1.3414,-0.93468 -0.7378,-0.48414 -1.3778,-0.91026 -1.4222,-0.94694 -0.044,-0.0367 -0.2639,-0.18347 -0.4878,-0.32622 -0.2239,-0.14275 -1.0162,-0.66285 -1.7606,-1.15578 -0.7445,-0.49293 -1.403,-0.88714 -1.4634,-0.87604 -0.1234,0.0227 -4.7457,6.92618 -8.7851,13.12078 -0.6998,1.07313 -1.4408,2.20686 -1.6468,2.51939 -0.2059,0.31254 -0.3744,0.59998 -0.3744,0.63877 0,0.0388 -0.029,0.081 -0.065,0.0938 -0.1352,0.048 -1.8491,2.99868 -2.4421,4.20426 -0.9284,1.88758 -1.2364,2.92673 -1.3014,4.39009 -0.078,1.76343 0.3535,3.2118 1.3998,4.69657 1.0988,1.55915 2.762,2.91223 4.8079,3.91144 1.2251,0.59834 2.2674,0.94413 3.2108,1.0652 0.5239,0.0672 1.6561,0.0381 2.1931,-0.0564 z m -15.4392,-8.58899 c 0.1,-0.3016 0.1674,-0.64152 0.4886,-2.45636 0.058,-0.32577 0.2642,-1.48601 0.4591,-2.57831 0.3377,-1.89292 0.5165,-2.90841 0.7303,-4.14619 0.053,-0.30661 0.2093,-1.16895 0.3474,-1.91631 0.1381,-0.74736 0.4877,-2.64451 0.777,-4.21588 0.2893,-1.57137 0.5707,-3.09223 0.6253,-3.37967 0.055,-0.28745 0.1313,-0.71078 0.1705,-0.94074 0.039,-0.22995 0.1637,-0.90415 0.2766,-1.4982 0.1128,-0.59406 0.4885,-2.60096 0.8348,-4.45977 0.9517,-5.1089 0.9755,-5.23627 1.0479,-5.59557 0.037,-0.18394 0.067,-0.50685 0.067,-0.71759 0,-0.32483 -0.028,-0.40917 -0.1844,-0.55404 -0.1014,-0.094 -0.2137,-0.17089 -0.2495,-0.17089 -0.059,0 -1.4943,-0.54661 -3.573,-1.36051 -0.4216,-0.16507 -1.1428,-0.4449 -1.6027,-0.62184 -0.4599,-0.17694 -0.9303,-0.36321 -1.0453,-0.41393 -0.5797,-0.25576 -4.3036,-1.64539 -4.4092,-1.64539 -0.037,0 -0.1679,0.54093 -0.2913,1.20205 -0.6095,3.26493 -0.5805,3.18519 -1.921,5.27856 -0.086,0.13414 -0.3224,0.51044 -0.5255,0.83621 -0.3279,0.52581 -0.7021,1.12099 -1.183,1.88147 -0.4299,0.67984 -2.384,3.72845 -3.3946,5.29598 -0.6301,0.97732 -1.2062,1.87101 -1.2802,1.98599 -0.074,0.11498 -0.4551,0.70288 -0.8468,1.30645 -0.3918,0.60357 -0.8667,1.34048 -1.0553,1.63757 -0.1887,0.2971 -0.5365,0.83808 -0.773,1.20218 -0.6818,1.04995 -1.143,1.76797 -1.8796,2.92672 -0.3777,0.59406 -0.9103,1.42504 -1.1837,1.84663 -1.58,2.43714 -2.0744,3.25121 -2.0123,3.31335 0.037,0.0367 0.6452,0.28758 1.3522,0.55757 0.707,0.27 1.4737,0.56594 1.7036,0.65766 0.23,0.0917 0.8258,0.32379 1.324,0.51572 0.4982,0.19193 1.4358,0.55598 2.0835,0.809 0.6477,0.25301 1.2128,0.44652 1.2558,0.43 0.043,-0.0165 0.2158,-0.26109 0.3838,-0.54351 0.7923,-1.33182 1.5769,-2.55542 1.7703,-2.7608 0.1172,-0.12456 0.2825,-0.22647 0.3673,-0.22647 0.085,0 0.5724,0.15537 1.0838,0.34526 2.3784,0.88319 3.1472,1.18226 3.2159,1.25097 0.072,0.0721 0.03,0.40603 -0.1672,1.33049 -0.1014,0.47495 -0.4718,2.43486 -0.5219,2.76085 l -0.044,0.28707 0.3036,0.10697 c 0.167,0.0588 0.7896,0.29518 1.3837,0.5252 0.5941,0.23003 1.864,0.72146 2.8222,1.09207 0.9582,0.37062 2.0086,0.77981 2.3344,0.90932 0.3258,0.12951 0.6447,0.23686 0.7087,0.23856 0.078,0.002 0.1523,-0.10576 0.2259,-0.3279 z m -6.0912,-14.13394 c -0.4408,-0.17246 -1.0993,-0.42574 -1.4633,-0.56283 -0.3642,-0.13709 -0.6727,-0.25886 -0.6857,-0.27059 -0.013,-0.0117 0.101,-0.23542 0.2535,-0.49709 0.1524,-0.26167 0.3475,-0.60119 0.4335,-0.75449 0.086,-0.15331 0.3145,-0.56096 0.5079,-0.9059 0.1933,-0.34493 0.4658,-0.83097 0.6057,-1.0801 0.1398,-0.24911 0.4125,-0.73516 0.606,-1.0801 0.1935,-0.34493 0.7107,-1.25431 1.1493,-2.02083 0.4387,-0.76653 1.0269,-1.80917 1.3072,-2.31699 0.2802,-0.50783 0.5485,-0.92332 0.596,-0.92332 0.1087,0 0.093,0.0829 -0.4516,2.4041 -0.2338,0.99648 -0.6732,2.87795 -0.9764,4.18104 -1.0226,4.39445 -0.961,4.14762 -1.0332,4.14344 -0.026,-0.002 -0.4081,-0.14387 -0.8489,-0.31634 z m -16.1799,5.63768 c 0.021,-0.14531 -0.7528,-2.50788 -2.1861,-6.67742 -1.9315,-5.61867 -1.8748,-5.42522 -1.6924,-5.77093 0.044,-0.0837 0.4224,-0.5088 0.8404,-0.94463 1.2647,-1.31857 1.7991,-2.20761 2.3093,-3.84156 0.5756,-1.84327 0.708,-2.76756 0.7042,-4.91272 0,-1.37758 -0.03,-1.84441 -0.1577,-2.64799 -0.4237,-2.67181 -1.0189,-4.09913 -2.1879,-5.24627 -0.9025,-0.8857 -1.7739,-1.35574 -3.3655,-1.81554 -1.6307,-0.47109 -2.6642,-0.64506 -4.5992,-0.77419 -3.1915,-0.21298 -11.1145,-0.5504 -11.1145,-0.47333 0,0.0242 0.2937,1.057 0.52,1.82872 0.1012,0.34493 0.3424,1.09752 0.5361,1.67241 0.7543,2.23927 0.8451,3.1342 0.6615,6.51545 -0.061,1.13062 -0.1441,2.76123 -0.1838,3.62357 -0.3314,7.20222 -0.4993,10.758 -0.5625,11.91596 -0.041,0.74736 -0.092,2.58963 -0.1146,4.09393 -0.039,2.65159 -0.036,2.73512 0.091,2.73579 0.073,2.7e-4 1.7922,0.0779 3.8213,0.17231 2.0292,0.0944 3.7015,0.15946 3.7164,0.1446 0.015,-0.0148 0.055,-0.5706 0.09,-1.23499 0.1297,-2.4738 0.4131,-8.55701 0.4131,-8.86629 v -0.3205 h 0.3399 c 0.5645,0 0.795,0.13954 1.0008,0.60599 0.098,0.22244 0.2307,0.63961 0.2945,0.92706 0.064,0.28745 0.5034,2.09052 0.9769,4.00683 0.4735,1.91631 0.9151,3.73506 0.9813,4.04167 0.1006,0.46545 0.1622,0.59941 0.3735,0.81159 0.3007,0.30203 0.2761,0.29853 2.9318,0.41471 0.9773,0.0428 2.216,0.10134 2.7525,0.13019 0.5366,0.0288 1.3832,0.049 1.8815,0.0448 0.8744,-0.007 0.9066,-0.0129 0.9275,-0.15924 z m -12.1006,-17.01206 c -0.077,-0.0529 -0.08,-0.31299 -0.019,-1.48474 0.041,-0.78132 0.1078,-2.18884 0.1482,-3.12783 0.04,-0.93899 0.1036,-2.28738 0.1404,-2.99642 0.037,-0.70903 0.067,-1.37538 0.067,-1.48078 0,-0.17021 0.025,-0.19136 0.2266,-0.1892 0.4821,0.005 1.3497,0.20869 1.7684,0.41484 0.5167,0.25438 0.8674,0.63469 1.0881,1.17993 0.1475,0.36454 0.1566,0.48007 0.1462,1.85216 -0.016,2.02287 -0.2491,3.80059 -0.5976,4.54691 -0.1929,0.41301 -0.8037,0.95038 -1.2904,1.13518 -0.4337,0.1647 -1.5163,0.26141 -1.6784,0.14995 z" />
  <path id="CZARNY" style="fill:#000000;fill-opacity:1;fill-rule:nonzero;stroke:none;stroke-width:0.0696839" transform="matrix(1.845245,0,0,1.845245,1253.0806,-767.61049)" d="m -547.54101,686.90263 c -15.1461,-0.44681 -30.0064,-3.40162 -44.1842,-8.78553 -2.0233,-0.76833 -4.9166,-1.94961 -6.047,-2.46883 -0.2022,-0.0929 -0.3813,-0.16892 -0.3978,-0.16892 -0.017,0 -0.7761,-0.34128 -1.688,-0.75838 -2.5276,-1.15626 -6.3132,-3.03829 -8.2081,-4.08075 -4.8538,-2.67025 -8.8257,-5.11983 -13.0657,-8.05791 -1.2372,-0.85733 -4.5338,-3.27527 -5.1616,-3.7859 -0.099,-0.0801 -0.2839,-0.22415 -0.4119,-0.31997 -1.1424,-0.8554 -4.5064,-3.62721 -5.958,-4.90923 -5.2508,-4.6371 -9.5264,-8.94626 -13.7348,-13.84244 -5.8109,-6.76069 -11.475,-14.88497 -15.5658,-22.327 -1.5613,-2.84026 -2.7709,-5.17854 -3.7851,-7.31683 -1.0056,-2.12023 -1.3742,-2.90647 -1.3742,-2.93141 0,-0.0124 -0.2063,-0.4869 -0.4583,-1.05426 -4.0711,-9.16296 -7.235,-19.34939 -9.1513,-29.46263 -2.3354,-12.32488 -2.9403,-25.10585 -1.7808,-37.62935 1.7677,-19.09305 7.61,-37.70998 17.0572,-54.35349 2.4317,-4.28393 5.1103,-8.45014 8.0869,-12.57795 0.5389,-0.74737 1.1235,-1.54699 1.299,-1.77694 0.1756,-0.22996 0.5821,-0.76304 0.9033,-1.18463 1.2088,-1.58647 3.8972,-4.90253 4.8042,-5.92585 0.1372,-0.15479 0.4376,-0.4989 0.6676,-0.76468 0.5613,-0.64874 1.5186,-1.72324 1.9548,-2.19418 0.1953,-0.21079 0.7744,-0.83795 1.2869,-1.39368 2.301,-2.4949 7.2844,-7.30884 9.9286,-9.59101 3.2663,-2.81912 7.2423,-5.97228 9.686,-7.68149 0.1533,-0.10722 0.7805,-0.55053 1.3937,-0.98513 0.6132,-0.43459 1.5069,-1.04597 1.986,-1.35863 0.4791,-0.31265 1.5241,-0.99951 2.3223,-1.52635 2.1564,-1.42332 4.0388,-2.55094 7.9212,-4.74496 2.1237,-1.20011 6.4503,-3.38873 9.0241,-4.56483 12.9163,-5.90205 26.2686,-9.6834 40.2077,-11.38672 14.0726,-1.71964 28.1826,-1.21881 42.2633,1.50013 8.6085,1.66228 17.6178,4.36797 25.6785,7.7118 1.8609,0.77196 2.4668,1.02766 2.8919,1.22036 0.2108,0.0956 0.6498,0.29125 0.9756,0.43485 1.224,0.53956 2.6068,1.19429 4.634,2.19415 8.7864,4.3337 17.2269,9.72834 24.9468,15.94436 0.8815,0.70979 1.6184,1.30958 1.6376,1.33287 0.019,0.0233 0.5365,0.46461 1.1497,0.9807 3.9149,3.2953 8.5856,7.80487 12.2327,11.81077 4.7835,5.25402 8.8668,10.47467 12.7253,16.26949 5.2264,7.84947 9.527,16.03576 13.0505,24.84234 4.818,12.04191 7.9114,24.88829 9.0945,37.7687 0.4113,4.47711 0.5484,7.56418 0.5507,12.40375 0,9.21105 -0.7786,17.32658 -2.5384,26.30569 -0.6837,3.48889 -2.0144,8.95793 -2.8993,11.91597 -2.7588,9.22299 -6.5468,18.40136 -10.8565,26.30569 -1.1082,2.03255 -1.6953,3.06202 -2.8514,4.99984 -1.6117,2.70117 -3.6366,5.82285 -5.5485,8.5537 -0.8315,1.18768 -3.4098,4.66688 -4.0279,5.43535 -0.1695,0.21078 -0.3946,0.49301 -0.5002,0.62714 -2.0002,2.54158 -4.3833,5.31547 -7.0033,8.15157 -1.2764,1.38175 -4.6861,4.83449 -5.8896,5.96401 -0.3649,0.34244 -0.8979,0.84324 -1.1846,1.11291 -0.2867,0.26969 -0.8506,0.78506 -1.253,1.14522 -0.4024,0.36019 -0.9825,0.88085 -1.2891,1.15702 -1.5355,1.383 -4.7494,4.03231 -6.9336,5.7154 -3.5182,2.71107 -7.4532,5.44064 -11.0449,7.66145 -1.4996,0.92717 -2.5782,1.58247 -3.0626,1.86057 -0.2702,0.15512 -0.6794,0.39071 -0.9094,0.52353 -3.0536,1.7637 -6.8875,3.77505 -9.7209,5.09976 -1.3941,0.65179 -2.7369,1.26729 -3.2054,1.46933 -2.4263,1.04609 -4.2389,1.79006 -5.9232,2.43116 -0.824,0.31363 -1.5766,0.6031 -1.6724,0.64326 -0.3188,0.13361 -2.596,0.94182 -3.8675,1.37262 -1.3628,0.46174 -2.2009,0.72873 -4.0765,1.29851 -1.0997,0.33411 -1.6929,0.50438 -4.0068,1.15006 -0.3833,0.10696 -1.5278,0.40083 -2.5435,0.65304 -11.9685,2.97197 -24.3283,4.30419 -36.5795,3.94279 z m 8.3924,-6.27193 c 1.5162,-0.0717 3.7341,-0.19421 4.3552,-0.24062 1.7396,-0.12989 2.4197,-0.18831 3.5887,-0.30814 0.7282,-0.0747 1.5122,-0.15436 1.7421,-0.17709 0.7815,-0.0773 3.9122,-0.5022 5.4005,-0.73302 2.9214,-0.45305 6.972,-1.24612 9.6513,-1.88962 5.6894,-1.36645 11.1619,-3.03073 15.892,-4.83299 4.5997,-1.75253 7.6127,-3.06658 11.9119,-5.19497 2.9633,-1.46706 3.9616,-1.99475 6.7593,-3.57293 1.0499,-0.59228 1.4968,-0.85781 3.5016,-2.08075 2.2874,-1.39532 5.804,-3.71953 7.3067,-4.8292 0.1573,-0.11617 0.486,-0.35234 0.7303,-0.5248 0.7942,-0.56061 3.7799,-2.81424 4.7386,-3.57683 2.5227,-2.00658 5.2579,-4.35921 7.6941,-6.61797 1.1696,-1.08444 5.5452,-5.46116 6.632,-6.63388 2.007,-2.16545 4.8132,-5.39323 5.8066,-6.67902 0.096,-0.12399 0.4833,-0.61118 0.8611,-1.08259 0.7126,-0.88928 2.9806,-3.89038 3.529,-4.6697 0.1724,-0.24512 0.4084,-0.57436 0.5244,-0.73167 2.5913,-3.51532 6.1283,-9.24059 8.83,-14.29249 2.0932,-3.91429 5.2666,-10.86319 6.3964,-14.00649 0.069,-0.19163 0.2881,-0.77176 0.487,-1.28915 1.549,-4.02808 3.2139,-9.39782 4.3536,-14.04131 0.6566,-2.67552 0.7129,-2.9119 0.7966,-3.34483 0.037,-0.19163 0.1487,-0.72472 0.2482,-1.18465 0.2685,-1.24125 0.6506,-3.16713 0.8088,-4.07651 0.2654,-1.52513 0.5116,-3.04145 0.5827,-3.58871 0.015,-0.11499 0.06,-0.41289 0.1011,-0.66201 0.041,-0.2491 0.1367,-0.93898 0.2137,-1.53304 0.077,-0.59406 0.171,-1.31528 0.2091,-1.60273 0.1419,-1.06745 0.3378,-3.0883 0.4934,-5.08693 0.037,-0.47908 0.081,-1.01217 0.098,-1.18462 0.017,-0.17249 0.064,-1.09753 0.1054,-2.05568 0.042,-0.95817 0.1048,-2.10271 0.1407,-2.54347 0.084,-1.02686 0.084,-7.95365 0,-8.98061 -0.035,-0.42924 -0.07,-1.16338 -0.078,-1.63142 -0.01,-0.46804 -0.039,-1.14888 -0.07,-1.51298 -0.031,-0.3641 -0.1057,-1.35187 -0.1666,-2.19505 -0.1017,-1.40783 -0.2851,-3.44719 -0.3477,-3.86746 -0.014,-0.0958 -0.046,-0.39371 -0.071,-0.66199 -0.056,-0.60862 -0.2815,-2.4095 -0.4225,-3.37968 -0.1561,-1.07319 -0.4341,-2.92946 -0.4749,-3.17062 -0.02,-0.11498 -0.086,-0.50695 -0.1471,-0.87105 -0.1194,-0.70663 -0.1495,-0.8815 -0.2467,-1.42852 -0.1078,-0.60738 -0.1368,-0.75894 -0.2063,-1.0801 -0.068,-0.3147 -0.091,-0.43517 -0.207,-1.0801 -0.1736,-0.96696 -1.1303,-5.18817 -1.445,-6.37608 -0.097,-0.3641 -0.2047,-0.78743 -0.2404,-0.94074 -0.378,-1.62244 -1.8617,-6.53754 -2.7239,-9.02407 -0.1927,-0.55573 -0.3906,-1.13585 -0.4397,-1.28915 -0.049,-0.15331 -0.1722,-0.49824 -0.2735,-0.76653 -0.1013,-0.26828 -0.243,-0.66025 -0.3148,-0.87105 -0.072,-0.21079 -0.1914,-0.54005 -0.2658,-0.73168 -0.1505,-0.3875 -0.4405,-1.14279 -0.8027,-2.09052 -0.2808,-0.73458 -0.509,-1.30997 -0.6357,-1.60273 -0.05,-0.11498 -0.1539,-0.36584 -0.2315,-0.55747 -0.1294,-0.31971 -1.0803,-2.5076 -1.3022,-2.99641 -0.052,-0.11498 -0.234,-0.52263 -0.4039,-0.90589 -0.7234,-1.63147 -2.5796,-5.39938 -3.5357,-7.17745 -1.6839,-3.13144 -3.0275,-5.45513 -4.6417,-8.02745 -3.1165,-4.96622 -6.7374,-9.95355 -10.3061,-14.1955 -1.4727,-1.75048 -1.6793,-1.99069 -2.7319,-3.17594 -2.6203,-2.95071 -7.2467,-7.61655 -9.7436,-9.82683 -0.1519,-0.1344 -0.5921,-0.52637 -0.9782,-0.87105 -1.7673,-1.57743 -4.7926,-4.10621 -6.1694,-5.1568 -0.7439,-0.56773 -4.3132,-3.23439 -4.4522,-3.32637 -0.096,-0.0634 -0.4407,-0.3054 -0.7665,-0.53777 -2.8901,-2.06154 -8.232,-5.44227 -10.8707,-6.87974 -0.2108,-0.11484 -0.7829,-0.43323 -1.2714,-0.70753 -0.4884,-0.2743 -0.9025,-0.49873 -0.9202,-0.49873 -0.018,0 -0.1981,-0.0979 -0.401,-0.21754 -0.4605,-0.27156 -4.2836,-2.2068 -5.3165,-2.69124 -0.4216,-0.19772 -1.1428,-0.53656 -1.6027,-0.75299 -2.5412,-1.19581 -6.4509,-2.8118 -9.4422,-3.90264 -2.5448,-0.92803 -6.3903,-2.19523 -8.6408,-2.8474 -3.1718,-0.91914 -5.2411,-1.43348 -9.7209,-2.41618 -0.8149,-0.17875 -1.6711,-0.34632 -3.1707,-0.62053 -0.5854,-0.10706 -2.6872,-0.4615 -3.2751,-0.5523 -0.2874,-0.0444 -0.7108,-0.11051 -0.9407,-0.14691 -0.6712,-0.10623 -1.9802,-0.28952 -2.5087,-0.35125 -4.4247,-0.51686 -7.4097,-0.76927 -11.1145,-0.93981 -2.0938,-0.0964 -9.9801,-0.0656 -11.4979,0.0449 -0.4024,0.0293 -1.1237,0.0718 -1.6027,0.0944 -0.9354,0.0441 -2.3739,0.14356 -2.9964,0.20711 -0.4916,0.0502 -2.0073,0.18839 -2.35,0.21429 -0.7514,0.0568 -4.9975,0.58749 -6.3605,0.79498 -0.6129,0.0933 -2.4533,0.40883 -2.9268,0.50179 -0.9015,0.17699 -1.0207,0.19923 -1.2194,0.22747 -0.115,0.0163 -0.2875,0.0459 -0.3833,0.0658 -0.294,0.0608 -0.9005,0.18127 -1.8118,0.35981 -1.6218,0.31773 -4.53,0.98636 -6.3412,1.45793 -2.2264,0.57966 -3.0798,0.81455 -4.2455,1.16856 -0.6353,0.1929 -1.4216,0.4283 -1.7473,0.52312 -1.8042,0.52509 -7.5947,2.54038 -8.6757,3.01941 -0.077,0.034 -0.7038,0.28447 -1.3937,0.55667 -0.6898,0.27219 -1.3484,0.53807 -1.4633,0.59083 -0.115,0.0528 -0.3808,0.16343 -0.5907,0.24592 -0.3234,0.12715 -1.2632,0.53603 -2.4057,1.04669 -4.1724,1.86488 -8.6158,4.13792 -12.2296,6.25609 -0.5557,0.32573 -1.1065,0.64657 -1.224,0.71298 -0.8207,0.46376 -3.4248,2.09986 -5.1779,3.25318 -3.8392,2.52557 -7.8656,5.50777 -11.263,8.34196 -3.6449,3.0407 -5.8209,5.02979 -9.0394,8.26294 -2.2536,2.26389 -3.3782,3.43603 -4.3792,4.5643 -0.17,0.19163 -0.3257,0.3641 -0.3459,0.38326 -0.056,0.0527 -1.5771,1.78124 -2.0558,2.33558 -1.3527,1.56649 -4.3903,5.36451 -5.2242,6.53214 -0.077,0.10732 -0.5327,0.73517 -1.0134,1.39521 -1.5081,2.07079 -1.7385,2.40216 -3.1673,4.5548 -1.6199,2.44079 -1.757,2.65633 -3.0718,4.83315 -1.1611,1.92228 -2.3013,3.93119 -3.4209,6.02767 -0.5129,0.96054 -2.5815,5.09438 -2.9116,5.81861 -0.1485,0.32577 -0.4719,1.03132 -0.7187,1.56788 -1.0168,2.21089 -2.4381,5.64591 -3.2554,7.86836 -0.1281,0.3482 -0.421,1.14323 -0.6509,1.76672 -0.634,1.7192 -1.8129,5.36415 -2.5408,7.8556 -0.3554,1.21665 -1.2712,4.66329 -1.472,5.53988 -0.057,0.24911 -0.1819,0.7822 -0.2773,1.18462 -0.095,0.40243 -0.1891,0.81008 -0.2082,0.90589 -0.019,0.0958 -0.1002,0.47211 -0.1802,0.83621 -0.08,0.3641 -0.2089,0.9599 -0.2864,1.324 -0.1504,0.70737 -0.7713,4.05508 -0.8917,4.80819 -0.04,0.24912 -0.106,0.64109 -0.147,0.87105 -0.041,0.22996 -0.1024,0.62193 -0.1363,0.87105 -0.034,0.24912 -0.111,0.7822 -0.1711,1.18463 -0.1939,1.29814 -0.4937,3.74068 -0.6373,5.19145 -0.019,0.19163 -0.064,0.64632 -0.1013,1.01042 -0.1418,1.4057 -0.2553,2.93661 -0.4341,5.85345 -0.1178,1.9221 -0.1161,11.07485 0,12.75217 0.047,0.6707 0.1183,1.72119 0.1576,2.3344 0.1166,1.82175 0.5299,6.13731 0.6906,7.2123 0.037,0.24912 0.1649,1.17419 0.2837,2.05567 0.1188,0.88151 0.278,1.96336 0.3538,2.40412 0.076,0.44075 0.2129,1.24038 0.3047,1.77692 0.3433,2.00653 0.7837,4.22036 1.2267,6.16705 0.4702,2.06668 0.5471,2.39231 0.6499,2.7525 0.055,0.19163 0.2152,0.8031 0.3567,1.35885 2.1351,8.38499 5.4843,17.33341 9.4546,25.26044 0.8841,1.76523 1.6019,3.14285 2.1967,4.21586 0.096,0.17248 0.3011,0.54876 0.4566,0.83621 1.6379,3.02736 4.6274,7.81747 6.9582,11.14945 1.5213,2.17472 2.3058,3.2399 4.1231,5.59803 0.628,0.81493 2.3998,3.02228 2.5551,3.18328 0.057,0.0596 0.4329,0.49922 0.8343,0.97693 3.5996,4.28393 8.4563,9.24571 12.9655,13.24602 2.6777,2.37547 6.8937,5.7632 9.3919,7.54668 0.1652,0.11799 0.3847,0.2797 0.4877,0.35937 0.1031,0.0797 0.3912,0.28631 0.6403,0.45922 0.2491,0.1729 0.7351,0.51352 1.0801,0.75695 4.9063,3.46225 10.6046,6.84932 16.4106,9.75448 1.8785,0.93997 3.197,1.56209 5.0869,2.4003 0.4024,0.17846 0.8257,0.3665 0.9407,0.41784 1.7473,0.78008 5.7898,2.40477 6.8639,2.75861 0.096,0.0316 0.4407,0.15637 0.7665,0.27731 4.3069,1.5989 10.3776,3.39015 15.226,4.4926 3.3081,0.75225 7.7762,1.57921 10.5222,1.94748 0.4599,0.0617 1.1498,0.1585 1.5331,0.21518 0.3832,0.0567 1.4181,0.1803 2.2995,0.27475 0.8815,0.0944 1.9164,0.2054 2.2996,0.24665 0.7177,0.0772 2.0855,0.18678 3.0661,0.2457 0.3066,0.0184 0.7456,0.0488 0.9756,0.0675 0.2299,0.0187 0.8257,0.0531 1.324,0.0763 0.4982,0.0232 1.3762,0.0653 1.9511,0.0935 1.4575,0.0714 8.2387,0.0705 9.7558,0 z m -7.9829,-51.23616 c -0.017,-0.015 -0.5639,-0.0493 -1.2154,-0.0763 -0.6516,-0.027 -1.3571,-0.0794 -1.5679,-0.11636 -0.2108,-0.037 -0.446,-0.0687 -0.5226,-0.0705 -0.2354,-0.006 -1.37,-0.13537 -1.8118,-0.20743 -0.23,-0.0375 -0.5749,-0.0788 -0.7665,-0.0918 -0.7252,-0.049 -1.7211,-0.18294 -1.842,-0.24765 -0.069,-0.037 -0.1443,-0.0487 -0.1671,-0.0261 -0.041,0.0408 -0.3523,0 -2.0675,-0.2623 -3.9925,-0.61342 -8.616,-1.78255 -11.5249,-2.91427 -0.3875,-0.15075 -1.0549,-0.40001 -1.4831,-0.55389 -0.4282,-0.15392 -0.8359,-0.31102 -0.9059,-0.34913 -0.07,-0.0381 -0.3625,-0.15373 -0.65,-0.25687 -0.2875,-0.10316 -0.6167,-0.22695 -0.7317,-0.27514 -0.115,-0.0482 -0.3972,-0.1589 -0.6271,-0.24602 -0.6425,-0.24349 -3.0466,-1.23005 -3.5539,-1.45842 -0.1533,-0.069 -0.6864,-0.3076 -1.1847,-0.53023 -0.9538,-0.42616 -3.0125,-1.45868 -3.9978,-2.00508 -0.3209,-0.1779 -0.5946,-0.32347 -0.6083,-0.32347 -0.025,0 -2.0782,-1.23424 -2.7098,-1.62925 -1.4339,-0.89678 -4.2818,-2.86891 -5.715,-3.95749 -0.1916,-0.14556 -0.4111,-0.31101 -0.4878,-0.36769 -0.2089,-0.15455 -3.0373,-2.41283 -3.2393,-2.58645 -1.0292,-0.88475 -1.5542,-1.356 -2.7186,-2.44065 -0.7474,-0.69612 -1.5609,-1.48123 -1.8078,-1.74465 -0.2469,-0.2634 -0.6724,-0.71411 -0.9456,-1.00156 -0.5455,-0.57404 -1.8791,-2.09331 -2.2639,-2.57902 -0.1341,-0.16932 -0.3412,-0.41876 -0.4601,-0.55427 -0.1776,-0.20237 -0.6828,-0.80547 -1.5493,-1.84948 -0.064,-0.0768 -0.2869,-0.35905 -0.4958,-0.62714 -0.209,-0.26811 -0.4755,-0.60012 -0.5924,-0.73784 -0.7272,-0.85725 -1.9346,-2.52892 -3.1411,-4.34875 -0.6606,-0.99647 -1.2754,-1.93895 -1.3661,-2.09436 -0.091,-0.15545 -0.5647,-0.94641 -1.0534,-1.7577 -0.4887,-0.81129 -0.8885,-1.48753 -0.8885,-1.50275 0,-0.0153 -0.2087,-0.38447 -0.4638,-0.82061 -0.4682,-0.80058 -2.3346,-4.4501 -2.7041,-5.28758 -0.1099,-0.24912 -0.2835,-0.6411 -0.3858,-0.87105 -0.3914,-0.88021 -0.553,-1.28383 -1.4228,-3.55389 -0.2844,-0.74224 -1.2809,-3.90539 -1.9539,-6.20187 -0.1011,-0.34494 -0.2413,-0.79963 -0.3116,-1.01043 -0.07,-0.21078 -0.1977,-0.64979 -0.2831,-0.97556 -0.085,-0.32579 -0.1965,-0.73344 -0.247,-0.90589 -0.2698,-0.92088 -0.8965,-3.79918 -0.859,-3.94543 0.01,-0.0338 -0.02,-0.18683 -0.064,-0.34014 -0.084,-0.29385 -0.3654,-2.13119 -0.3634,-2.36925 0,-0.0767 -0.059,-0.56269 -0.1317,-1.08012 -0.1228,-0.86918 -0.1834,-1.47399 -0.2655,-2.64797 -0.017,-0.24912 -0.074,-0.92333 -0.1265,-1.49822 -0.2531,-2.79282 -0.3383,-4.72131 -0.3413,-7.73492 0,-1.68635 0.022,-3.37967 0.052,-3.76293 0.03,-0.38326 0.084,-1.10449 0.1179,-1.60273 0.077,-1.12032 0.1917,-2.24893 0.2453,-2.41787 0.022,-0.0699 0.051,-0.2757 0.064,-0.45734 0.047,-0.66319 0.3893,-2.72197 0.6864,-4.12803 0.1128,-0.53392 0.4293,-2.20842 0.5004,-2.64799 0.081,-0.4992 0.3836,-1.86811 0.5548,-2.50862 0.097,-0.3641 0.2109,-0.80311 0.2522,-0.97558 0.041,-0.17247 0.1022,-0.37629 0.1353,-0.45294 0.033,-0.0767 0.16,-0.46863 0.2819,-0.87105 0.4359,-1.43839 1.393,-4.38275 1.5289,-4.70367 0.032,-0.0767 0.1532,-0.42159 0.2684,-0.76652 0.5759,-1.72521 1.3018,-3.65705 1.7674,-4.70367 0.2487,-0.55887 0.319,-0.72533 0.4712,-1.11494 0.1645,-0.42099 2.2665,-4.67512 2.5307,-5.12178 0.091,-0.1533 0.2627,-0.455 0.3823,-0.67045 0.6038,-1.08744 1.5764,-2.7083 2.2111,-3.68479 0.1619,-0.24912 0.4677,-0.71949 0.6795,-1.04526 0.5619,-0.86448 1.4717,-2.18716 1.9173,-2.78736 0.2133,-0.28745 0.5714,-0.77349 0.7956,-1.0801 0.8156,-1.11536 2.5439,-3.23666 3.4349,-4.21588 3.6551,-4.0171 6.5037,-6.82716 9.1634,-9.03937 0.096,-0.0797 0.3172,-0.26565 0.492,-0.41323 0.8162,-0.68902 1.9262,-1.55362 3.027,-2.35764 0.5749,-0.41991 1.0609,-0.78052 1.0801,-0.80135 0.076,-0.0829 2.7441,-1.82922 3.6932,-2.41752 1.8523,-1.14806 2.6423,-1.6134 4.2159,-2.48343 2.1429,-1.18474 4.3086,-2.25272 5.6031,-2.76292 0.1856,-0.0732 0.4747,-0.19534 0.6424,-0.27147 0.1676,-0.0761 0.54,-0.2364 0.8274,-0.35615 2.1521,-0.89657 3.4493,-1.48184 3.7163,-1.67675 0.3751,-0.27384 0.6177,-0.62006 1.3166,-1.87924 0.3444,-0.62059 0.5674,-1.01943 0.8657,-1.54806 0.1668,-0.29569 0.3033,-0.55739 0.3033,-0.58155 0,-0.0241 0.058,-0.12716 0.1284,-0.22889 0.071,-0.10174 0.3101,-0.5299 0.5321,-0.95149 0.2221,-0.42159 0.4269,-0.79788 0.4552,-0.83621 0.061,-0.0832 0.6287,-1.14061 0.9533,-1.77694 0.2574,-0.5044 0.3982,-1.10146 0.2904,-1.23133 -0.048,-0.0574 -0.028,-0.0888 0.066,-0.10471 0.074,-0.0125 0.4711,-0.43045 0.8829,-0.92869 0.4118,-0.49824 0.7757,-0.91604 0.8086,-0.92843 0.033,-0.0124 0.3898,0.23062 0.7932,0.54005 0.4033,0.30942 0.7806,0.56259 0.8383,0.56259 0.058,0 0.1049,0.0439 0.1049,0.0975 0,0.0536 0.2167,0.49522 0.4817,0.98135 0.6374,1.16963 0.7951,1.74098 0.789,2.85831 0,0.46547 -0.041,0.9289 -0.087,1.04526 -0.045,0.11498 -0.096,0.32671 -0.1136,0.47052 -0.017,0.1438 -0.1085,0.46594 -0.2025,0.71585 -0.1726,0.45847 -0.2041,0.7041 -0.1272,0.99126 0.032,0.12036 0.093,0.15674 0.2604,0.15659 0.269,-2.7e-4 3.0806,-0.4795 3.4587,-0.58955 0.057,-0.0167 0.2456,-0.0498 0.4181,-0.0736 0.1724,-0.0237 0.439,-0.0705 0.5923,-0.10388 0.3532,-0.077 2.2622,-0.38092 2.9964,-0.47708 0.9341,-0.12235 3.1502,-0.33477 4.0765,-0.39076 0.3258,-0.0197 0.8118,-0.0523 1.0801,-0.0724 1.1295,-0.0847 2.7826,-0.15232 6.62,-0.27072 0.785,-0.0242 3.4631,0.0959 4.3901,0.19694 1.6712,0.18213 1.9981,0.22176 3.1706,0.38433 1.2015,0.16658 3.4021,0.49837 3.6932,0.55682 0.1725,0.0346 0.5017,0.0971 0.7317,0.13889 3.1946,0.58009 6.2883,1.34437 9.6164,2.37572 1.3162,0.40787 4.0154,1.43376 5.2611,1.9996 0.2108,0.0957 0.7596,0.33861 1.2195,0.53971 0.4599,0.20109 0.993,0.43717 1.1846,0.52462 0.1917,0.0875 0.7248,0.32334 1.1847,0.52419 0.4599,0.20085 1.0719,0.47423 1.36,0.60749 0.2881,0.13327 0.6017,0.26602 0.6968,0.295 0.095,0.029 0.2828,0.10983 0.4169,0.17968 0.1342,0.0698 0.6986,0.34352 1.2543,0.60816 0.944,0.4495 2.9364,1.53105 3.7281,2.02371 0.1917,0.11925 0.438,0.26742 0.5474,0.32927 0.2099,0.11867 1.6037,1.01784 2.1355,1.37768 1.5233,1.03074 2.0544,1.40002 3.3213,2.30955 1.4558,1.04513 1.6156,1.16613 3.229,2.44462 1.6113,1.27689 2.6313,2.15174 4.2212,3.62071 1.3821,1.27698 3.8939,3.91618 5.0124,5.26653 0.5296,0.63947 1.6033,1.91706 1.6352,1.94576 0.054,0.0488 1.0366,1.27344 1.4255,1.77694 1.5637,2.02496 3.1284,4.26247 4.5318,6.48061 0.1455,0.22996 0.3349,0.52785 0.421,0.662 0.086,0.13414 0.437,0.71426 0.7798,1.28915 0.5305,0.88977 0.91,1.55114 2.0849,3.63281 0.2104,0.37289 1.5685,3.09115 1.7709,3.54464 0.086,0.19163 0.2925,0.64037 0.46,0.99718 0.1675,0.35683 0.3046,0.68765 0.3046,0.73517 0,0.0475 0.028,0.11619 0.063,0.1526 0.035,0.0364 0.2572,0.56793 0.4944,1.18114 0.2373,0.61322 0.5058,1.30315 0.5968,1.53318 0.091,0.23002 0.2244,0.59063 0.2965,0.80136 0.072,0.21073 0.3268,0.94758 0.5661,1.63745 0.2394,0.68987 0.4771,1.39542 0.5283,1.56789 0.5353,1.80441 0.9595,3.32902 1.1342,4.07651 0.4057,1.73544 0.9402,4.22469 1.1296,5.26114 0.081,0.44075 0.1752,0.95816 0.2102,1.14979 0.1235,0.67527 0.3556,2.23403 0.3839,2.5783 0.016,0.19163 0.06,0.53951 0.098,0.77306 0.088,0.54053 0.3848,3.9399 0.5379,6.1605 0.1278,1.85268 0.1713,6.90192 0.074,8.53627 -0.1031,1.72288 -0.2995,3.93241 -0.3748,4.21588 -0.025,0.0958 -0.04,0.20182 -0.032,0.23556 0.019,0.0817 -0.1226,0.97998 -0.546,3.45771 -0.029,0.17246 -0.104,0.54874 -0.1655,0.83621 -0.1261,0.58935 -0.4468,2.29358 -0.531,2.82219 -0.3024,1.89897 -0.9571,4.10856 -2.8493,9.61639 -1.0185,2.96484 -1.3409,3.87953 -1.5226,4.32042 -0.5285,1.28196 -0.686,1.65469 -0.913,2.16018 -0.444,0.98875 -2.2746,4.57117 -2.825,5.52832 -0.2939,0.51104 -0.5343,0.93752 -0.5343,0.94769 0,0.028 -1.4523,2.43532 -1.8482,3.0636 -1.767,2.80402 -4.6954,6.7929 -6.2003,8.44572 -0.038,0.0421 -0.2264,0.26095 -0.4181,0.48637 -2.1094,2.48137 -5.4795,5.86902 -7.5607,7.60001 -0.057,0.0478 -0.2456,0.20738 -0.4181,0.35455 -0.1725,0.1472 -0.5487,0.45303 -0.8362,0.67966 -0.2874,0.22661 -0.5383,0.43014 -0.5575,0.45229 -0.019,0.0221 -0.1759,0.14875 -0.3484,0.28133 -0.1725,0.13261 -0.3484,0.27291 -0.391,0.31178 -0.2188,0.19985 -2.2473,1.78735 -2.9887,2.33891 -0.3832,0.28515 -0.7125,0.53494 -0.7316,0.55508 -0.1076,0.11304 -3.785,2.53746 -4.8779,3.21586 -2.1451,1.33148 -4.4338,2.54847 -6.2019,3.29774 -0.6287,0.2664 -1.0179,0.44734 -3.4842,1.61971 -0.3641,0.17307 -0.7874,0.36933 -0.9407,0.43612 -0.1533,0.0668 -0.4199,0.18592 -0.5923,0.26469 -0.8582,0.39195 -1.5741,0.66973 -3.1707,1.23024 -0.3353,0.1177 -1.6619,0.52566 -4.3204,1.32858 -1.554,0.46936 -2.3858,0.70963 -2.7701,0.80026 -0.1628,0.0384 -0.5311,0.13329 -0.8186,0.21088 -0.456,0.12308 -1.4098,0.34086 -2.4389,0.55685 -0.6417,0.13466 -3.8134,0.6469 -4.5295,0.73149 -0.2108,0.025 -0.4616,0.0574 -0.5574,0.0722 -0.1707,0.0264 -0.4711,0.0624 -2.2299,0.26775 -0.8997,0.105 -2.5768,0.25641 -2.8222,0.25476 -0.077,0 -0.4844,0.025 -0.9059,0.0566 -0.764,0.0574 -7.9245,0.10764 -7.9829,0.056 z m 7.3905,-6.25343 c 12.0557,-0.68259 23.5023,-4.33543 34.0058,-10.85195 10.3885,-6.44515 18.6608,-15.20599 24.8331,-26.29966 0.5356,-0.96255 2.0717,-4.02001 2.4428,-4.86225 0.1098,-0.24913 0.3383,-0.76391 0.5077,-1.14396 0.1695,-0.38007 0.5387,-1.27504 0.8205,-1.9888 2.7336,-6.92338 4.2267,-13.45241 4.8848,-21.36114 0.1521,-1.82737 0.2123,-7.08612 0.103,-8.98924 -0.3812,-6.63622 -1.6977,-13.20672 -3.9655,-19.79025 -1.0753,-3.12168 -2.155,-5.68738 -3.6801,-8.74534 -0.902,-1.80857 -1.0541,-2.0897 -2.205,-4.07651 -1.8282,-3.15586 -4.6344,-7.08519 -7.12,-9.96936 -4.6277,-5.36981 -10.3145,-10.31581 -16.2413,-14.12556 -4.027,-2.5886 -8.3986,-4.78404 -12.8882,-6.47263 -6.8291,-2.56842 -13.8181,-4.04243 -21.8111,-4.60007 -1.6387,-0.11432 -6.6359,-0.11423 -8.0834,1.4e-4 -3.7475,0.29611 -6.362,0.73905 -12.3689,2.09548 -0.6707,0.15145 -1.7996,0.40411 -2.5086,0.56145 -1.8286,0.40581 -1.8081,0.39426 -2.2969,1.29213 -0.7386,1.35683 -2.0566,3.85482 -2.1749,4.12239 -0.142,0.32091 -0.1309,0.44856 0.028,0.32036 0.049,-0.0395 0.904,-0.55009 1.9005,-1.13475 0.9965,-0.58466 2.3292,-1.38397 2.9616,-1.77624 3.5679,-2.21322 5.1362,-2.82064 7.282,-2.82023 1.2844,0 2.5166,0.22862 3.5862,0.66468 1.2256,0.49967 2.2075,1.23402 2.9488,2.20549 0.7378,0.96685 3.4387,5.49387 6.4775,10.85689 1.4247,2.51439 1.487,2.66534 1.5628,3.78823 0.092,1.35858 -0.4897,2.47307 -1.676,3.2124 -0.7649,0.47678 -1.2097,0.6157 -1.9938,0.6227 -0.6066,0.005 -0.7018,-0.0128 -1.1375,-0.21797 -0.8476,-0.399 -1.6745,-1.38022 -2.8347,-3.36369 -0.2803,-0.47908 -0.63,-1.06627 -0.7773,-1.30487 -0.1472,-0.23859 -0.2677,-0.45089 -0.2677,-0.47175 0,-0.0209 -0.077,-0.15952 -0.1706,-0.30813 -0.1741,-0.27581 -1.8027,-3.10422 -3.5115,-6.09863 -1.0726,-1.87943 -1.4406,-2.34598 -2.1174,-2.68417 -0.3686,-0.18417 -0.4991,-0.21215 -0.9884,-0.21181 -1.0878,7.9e-4 -1.4581,0.15974 -4.6751,2.0071 -0.7665,0.44018 -1.5662,0.90156 -1.777,1.02532 -0.2108,0.12376 -1.4808,0.86078 -2.8222,1.63781 -3.4667,2.00812 -3.519,2.03942 -3.519,2.10362 0,0.0319 0.1341,0.30029 0.298,0.59644 0.164,0.29615 0.3784,0.69408 0.4766,0.88428 0.2454,0.47531 0.6784,0.76279 1.3692,0.90901 2.4617,0.52104 3.8931,1.26123 5.4539,2.82031 0.8311,0.83011 1.3694,1.55967 1.831,2.48149 0.8404,1.67794 1.3102,3.94223 1.1266,5.429 -0.024,0.19163 -0.049,0.41638 -0.055,0.49943 -0.01,0.0831 -0.035,0.17394 -0.063,0.20198 -0.028,0.028 -0.033,0.1247 -0.01,0.21483 0.026,0.10244 0.011,0.16386 -0.041,0.16386 -0.049,0 -0.065,0.0536 -0.04,0.13351 0.024,0.0734 0.01,0.15499 -0.035,0.18126 -0.042,0.0263 -0.061,0.0906 -0.041,0.143 0.02,0.0524 0.01,0.11196 -0.023,0.13239 -0.033,0.0204 -0.044,0.0998 -0.024,0.17644 0.02,0.0766 0,0.13929 -0.039,0.13929 -0.042,0 -0.059,0.0439 -0.038,0.0975 0.021,0.0536 0.01,0.11733 -0.034,0.1416 -0.039,0.0243 -0.054,0.0901 -0.032,0.14642 0.022,0.0569 0,0.10229 -0.049,0.10229 -0.049,0 -0.069,0.0198 -0.045,0.044 0.024,0.0242 0.01,0.11043 -0.038,0.19163 -0.045,0.0812 -0.074,0.17495 -0.064,0.20833 0.022,0.0755 -0.6927,1.49421 -0.9081,1.80299 -1.1003,1.57718 -2.1174,2.5843 -3.5223,3.48771 -0.1629,0.10475 -0.2967,0.16649 -0.2972,0.1372 0,-0.0293 -0.024,-0.0201 -0.052,0.0205 -0.079,0.11311 -1.038,0.58866 -1.0876,0.53905 -0.024,-0.024 -0.044,-0.004 -0.044,0.045 0,0.0503 -0.045,0.0714 -0.1045,0.0486 -0.058,-0.0221 -0.1045,-0.005 -0.1045,0.039 0,0.0435 -0.021,0.0585 -0.046,0.0333 -0.025,-0.0252 -0.088,-0.0109 -0.1394,0.0318 -0.051,0.0427 -0.094,0.0503 -0.095,0.0168 0,-0.0334 -0.029,-0.0172 -0.062,0.0359 -0.034,0.0532 -0.1555,0.10023 -0.2708,0.10452 -0.1152,0.004 -0.1918,0.0366 -0.1701,0.0719 0.022,0.0353 -0.012,0.0445 -0.074,0.0205 -0.063,-0.024 -0.1336,-0.0115 -0.1579,0.0277 -0.024,0.0393 -0.087,0.0549 -0.1393,0.0348 -0.052,-0.0201 -0.1152,-0.004 -0.1394,0.0348 -0.024,0.0393 -0.084,0.056 -0.1331,0.0372 -0.049,-0.0188 -0.1192,-0.004 -0.1561,0.033 -0.037,0.0369 -0.2211,0.0776 -0.4092,0.0904 -0.1881,0.0128 -0.342,0.0313 -0.342,0.041 0,0.0262 -0.3776,0.0742 -0.7081,0.0902 -0.1595,0.008 -0.3058,0.0297 -0.3252,0.0488 -0.058,0.0568 -2.1637,-0.007 -2.2768,-0.0686 -0.049,-0.0267 -0.4214,-0.0703 -0.6097,-0.0714 -0.086,-7.9e-4 -0.1568,-0.029 -0.1568,-0.0633 0,-0.0343 -0.063,-0.046 -0.1393,-0.0259 -0.081,0.0212 -0.1394,0.002 -0.1394,-0.0455 0,-0.0451 -0.033,-0.0617 -0.073,-0.037 -0.04,0.0247 -0.1184,0.007 -0.1742,-0.0393 -0.056,-0.0463 -0.1015,-0.0608 -0.1015,-0.0323 0,0.0285 -0.039,0.0203 -0.087,-0.0183 -0.048,-0.0386 -0.1969,-0.0935 -0.331,-0.12193 -0.1342,-0.0285 -0.3223,-0.0813 -0.4181,-0.11748 -0.096,-0.0361 -0.1899,-0.0669 -0.2091,-0.0683 -0.019,-10e-4 -0.1602,-0.0684 -0.3136,-0.14874 -0.1533,-0.0804 -0.2944,-0.14924 -0.3135,-0.15298 -0.1307,-0.0255 -0.7665,-0.33954 -0.7665,-0.37855 0,-0.0266 -0.2274,-0.20793 -0.5053,-0.40303 -2.1016,-1.47562 -3.5738,-3.71375 -4.138,-6.29084 -0.1996,-0.9118 -0.1808,-3.05734 0.035,-4.00682 0.2782,-1.22326 0.2767,-1.26808 -0.062,-1.85553 -0.8683,-1.5047 -1.3402,-2.29067 -1.3751,-2.29067 -0.071,0 -1.573,0.80554 -2.1423,1.14875 -3.3234,2.00331 -6.2451,4.48231 -8.487,7.20094 -3.5526,4.30815 -5.7078,9.70621 -6.2508,15.65644 -0.09,0.98967 -0.09,3.40738 0,4.39009 0.2354,2.55132 0.9405,5.17631 2.1247,7.90913 0.091,0.21079 0.321,0.74387 0.5103,1.18462 0.7503,1.74627 2.136,4.56475 3.3747,6.86387 0.8532,1.5835 0.9639,1.78639 1.6728,3.0661 2.1695,3.91597 4.1435,7.39123 5.68,9.99965 0.4402,0.74737 1.0107,1.71945 1.2678,2.1602 1.1752,2.01517 2.65,4.5047 3.158,5.33085 1.4699,2.39042 1.242,2.03236 2.4426,3.83839 1.5726,2.36574 2.866,4.05396 4.7471,6.1961 1.8047,2.05504 3.3448,3.88005 6.1711,7.31269 0.8014,0.97337 6.0626,7.30998 6.8306,8.22683 0.2247,0.26827 1.4634,1.75778 2.7525,3.30999 1.2892,1.55221 2.5058,3.01337 2.7035,3.24707 0.9593,1.13373 4.6121,5.54794 4.6257,5.58986 0.014,0.0439 -17.1012,10.33843 -17.3417,10.43071 -0.1216,0.0467 -0.1514,-0.0147 -0.7273,-1.49824 -0.8031,-2.06853 -1.4871,-3.82602 -2.0884,-5.36566 -0.202,-0.5174 -0.4767,-1.22295 -0.6104,-1.56789 -0.1337,-0.34494 -0.5174,-1.33271 -0.8528,-2.19505 -0.6762,-1.73892 -0.7469,-1.92104 -1.0946,-2.82219 -0.4742,-1.22927 -1.1124,-2.86892 -1.4103,-3.62359 -0.1664,-0.42158 -0.4117,-1.04872 -0.5451,-1.39366 -0.6189,-1.60027 -1.5117,-3.89219 -2.3483,-6.02767 -0.503,-1.28392 -1.0029,-2.56959 -1.1109,-2.85704 -0.108,-0.28744 -0.4236,-1.10274 -0.7014,-1.81179 -1.4072,-3.59227 -2.0301,-5.21196 -2.5055,-6.51544 -0.8087,-2.21694 -1.4787,-3.72293 -2.201,-4.94756 -0.1808,-0.30662 -0.4464,-0.7613 -0.5902,-1.01043 -0.5283,-0.9155 -1.9767,-3.39589 -2.2989,-3.93715 -0.1826,-0.30659 -0.6535,-1.10622 -1.0467,-1.77692 -0.393,-0.67071 -1.0038,-1.70552 -1.3572,-2.29959 -3.1093,-5.22657 -4.7212,-7.95724 -6.3755,-10.80102 -2.175,-3.73876 -2.455,-4.23091 -3.1513,-5.53987 -0.5281,-0.99259 -2.0659,-4.10901 -2.3384,-4.73851 -0.1161,-0.26828 -0.3413,-0.78569 -0.5004,-1.14979 -1.562,-3.57337 -2.9472,-7.8589 -3.5222,-10.89699 -0.5974,-3.15567 -0.6853,-6.62557 -0.2389,-9.43233 0.4926,-3.0977 1.3296,-5.70035 2.7423,-8.52672 1.8696,-3.74061 4.4651,-7.08922 8.267,-10.66582 3.6227,-3.40806 7.892,-6.44212 13.4459,-9.55549 0.5174,-0.29005 1.0543,-0.64726 1.193,-0.79381 0.3073,-0.32449 0.5317,-0.70622 1.8362,-3.12349 0.4136,-0.76652 0.8378,-1.55047 0.9426,-1.7421 0.1048,-0.19163 0.3082,-0.56792 0.4519,-0.83621 0.1436,-0.26828 0.3543,-0.65549 0.4681,-0.86046 l 0.2069,-0.37267 -0.2323,0.0484 c -0.2667,0.0555 -1.743,0.81134 -3.3672,1.72379 -4.8872,2.74565 -8.8802,5.58129 -13.0667,9.27938 -1.1576,1.02248 -4.4894,4.35417 -5.582,5.58174 -2.3656,2.65782 -4.8999,5.96152 -6.6049,8.6102 -2.8863,4.48375 -5.1423,8.94128 -7.0336,13.89772 -2.564,6.71941 -4.1391,14.32233 -4.5474,21.95045 -0.1035,1.93456 -0.044,6.74824 0.1054,8.57112 0.6145,7.48312 2.1379,14.2761 4.6412,20.69615 0.4796,1.23003 0.8681,2.16808 1.1975,2.89188 0.1309,0.28745 0.313,0.6951 0.4048,0.9059 0.6516,1.49685 2.5839,5.16992 3.7575,7.14261 1.9598,3.29415 4.5623,6.93823 6.9704,9.76016 2.7405,3.21138 6.127,6.5059 9.3391,9.08545 8.3492,6.70515 17.4719,11.27337 27.6297,13.83583 7.0811,1.78632 14.5706,2.52018 21.6368,2.12012 z m -28.17,-106.84386 c 0.045,-0.0275 0.1608,-0.03 0.2584,-0.006 0.1148,0.0288 0.1774,0.0156 0.1774,-0.0374 0,-0.049 0.054,-0.0649 0.1335,-0.0396 0.073,0.0233 0.152,0.0125 0.1746,-0.0241 0.023,-0.0366 0.1735,-0.0888 0.3353,-0.11618 0.1619,-0.0273 0.3642,-0.0955 0.4496,-0.15143 0.085,-0.0559 0.188,-0.0815 0.228,-0.0568 0.04,0.0247 0.073,0.01 0.073,-0.0329 0,-0.0429 0.031,-0.0585 0.07,-0.0349 0.038,0.0237 0.07,0.008 0.07,-0.0348 0,-0.0428 0.031,-0.0585 0.07,-0.0348 0.038,0.0237 0.07,0.005 0.07,-0.0423 0,-0.047 0.019,-0.0663 0.043,-0.0429 0.024,0.0234 0.1694,-0.0376 0.3245,-0.13552 0.1551,-0.0979 0.3181,-0.18331 0.3622,-0.18978 0.044,-0.006 0.1254,-0.0489 0.1807,-0.0942 0.055,-0.0454 0.3671,-0.293 0.6929,-0.55031 0.7376,-0.58259 0.8409,-0.68621 1.4152,-1.41867 0.2554,-0.32577 0.5118,-0.64719 0.5698,-0.71426 0.058,-0.0671 0.1108,-0.14547 0.1173,-0.17421 0.033,-0.1449 0.3543,-0.78666 0.4119,-0.82227 0.036,-0.0226 0.048,-0.0702 0.026,-0.10586 -0.022,-0.0357 0,-0.0649 0.038,-0.0649 0.043,0 0.061,-0.0267 0.041,-0.0594 -0.02,-0.0327 0.01,-0.11759 0.058,-0.18871 0.052,-0.0711 0.079,-0.1698 0.06,-0.21931 -0.019,-0.0495 0.01,-0.09 0.054,-0.09 0.049,0 0.068,-0.0206 0.043,-0.0458 -0.025,-0.0252 -0.011,-0.0879 0.032,-0.13937 0.043,-0.0514 0.054,-0.0935 0.026,-0.0935 -0.029,0 -0.014,-0.0457 0.032,-0.10148 0.046,-0.0558 0.065,-0.13204 0.042,-0.16939 -0.023,-0.0374 -0.01,-0.0884 0.032,-0.11345 0.04,-0.025 0.055,-0.10559 0.031,-0.17902 -0.024,-0.0734 -0.012,-0.1335 0.024,-0.1335 0.068,0 0.086,-0.14023 0.086,-0.69254 0,-0.17009 0.034,-0.34935 0.074,-0.39833 0.046,-0.0549 0.057,-0.24378 0.029,-0.4921 -0.024,-0.22166 -0.047,-0.5363 -0.05,-0.69918 0,-0.16289 -0.035,-0.29616 -0.071,-0.29616 -0.036,0 -0.05,-0.0941 -0.032,-0.20905 0.018,-0.11715 0,-0.20906 -0.038,-0.20906 -0.039,0 -0.051,-0.051 -0.027,-0.11335 0.024,-0.0624 0.01,-0.15505 -0.033,-0.206 -0.042,-0.051 -0.057,-0.12537 -0.032,-0.16538 0.025,-0.04 0.01,-0.0727 -0.036,-0.0727 -0.045,0 -0.064,-0.046 -0.042,-0.10229 0.022,-0.0563 0.01,-0.12134 -0.029,-0.14462 -0.038,-0.0233 -0.061,-0.0792 -0.053,-0.12418 0.01,-0.045 -0.054,-0.21512 -0.139,-0.37801 -0.085,-0.16289 -0.1345,-0.29615 -0.1099,-0.29615 0.024,0 0.01,-0.0425 -0.034,-0.0944 -0.043,-0.0519 -0.159,-0.24609 -0.2576,-0.43146 -0.6657,-1.25192 -1.8452,-2.43366 -3.026,-3.03162 -0.1724,-0.0873 -0.3606,-0.19842 -0.4181,-0.24684 -0.058,-0.0484 -0.1359,-0.0911 -0.1742,-0.0948 -0.128,-0.0124 -0.5226,-0.17003 -0.5227,-0.20881 0,-0.021 -0.1,-0.0453 -0.2213,-0.0538 -0.1216,-0.009 -0.2465,-0.0556 -0.2775,-0.10453 -0.031,-0.0489 -0.057,-0.0616 -0.058,-0.0282 0,0.0334 -0.044,0.0251 -0.097,-0.0186 -0.053,-0.0437 -0.1467,-0.0598 -0.209,-0.0359 -0.062,0.0239 -0.1134,0.0107 -0.1134,-0.0293 0,-0.04 -0.055,-0.0765 -0.1219,-0.0811 -0.4663,-0.0317 -0.6841,-0.0521 -0.7143,-0.0669 -0.1061,-0.0521 -1.7211,-0.0359 -1.7935,0.018 -0.047,0.0353 -0.1624,0.045 -0.2555,0.0216 -0.093,-0.0234 -0.1798,-0.0126 -0.1925,0.024 -0.013,0.0366 -0.1487,0.0732 -0.302,0.0814 -0.1533,0.008 -0.3125,0.0403 -0.3539,0.0713 -0.041,0.031 -0.1354,0.0679 -0.209,0.082 -0.074,0.0141 -0.2245,0.0626 -0.3352,0.10787 -0.1107,0.0453 -0.2179,0.0657 -0.2382,0.0453 -0.02,-0.0203 -0.094,0.015 -0.1646,0.0785 -0.07,0.0635 -0.1276,0.0942 -0.1276,0.0682 0,-0.026 -0.078,0.004 -0.1742,0.0669 -0.096,0.0628 -0.1747,0.087 -0.1753,0.0539 0,-0.0331 -0.024,-0.0253 -0.052,0.0175 -0.028,0.0428 -0.1923,0.14889 -0.3648,0.23584 -0.3886,0.19591 -1.5766,1.0806 -1.6663,1.24084 -0.036,0.0649 -0.084,0.11015 -0.1057,0.10057 -0.022,-0.01 -0.048,0.003 -0.057,0.0287 -0.04,0.10539 -0.4397,0.47988 -0.4883,0.4573 -0.029,-0.0135 -0.074,0.0324 -0.1008,0.10188 -0.026,0.0695 -0.2223,0.36517 -0.4351,0.65705 -0.3399,0.46623 -0.6387,0.932 -0.6653,1.0372 0,0.0192 -0.062,0.15627 -0.1265,0.30466 -0.065,0.14841 -0.1178,0.31304 -0.1178,0.36585 0,0.0528 -0.028,0.096 -0.061,0.096 -0.067,0 -0.1685,0.26268 -0.1532,0.39542 0.01,0.045 -0.021,0.1009 -0.059,0.12418 -0.038,0.0233 -0.052,0.0852 -0.032,0.13758 0.02,0.0524 0,0.11509 -0.035,0.13936 -0.039,0.0243 -0.054,0.0901 -0.032,0.14642 0.022,0.0563 0,0.10229 -0.045,0.10229 -0.049,0 -0.067,0.047 -0.042,0.11082 0.023,0.061 0.02,0.14718 -0.01,0.19163 -0.069,0.10846 -0.084,0.28091 -0.1088,1.28286 -0.012,0.49624 0.01,0.85363 0.043,0.85363 0.036,0 0.047,0.10918 0.026,0.24262 -0.022,0.13344 -0.01,0.26151 0.028,0.2846 0.037,0.0231 0.049,0.10206 0.026,0.17549 -0.025,0.078 -0.01,0.1335 0.037,0.1335 0.047,0 0.061,0.0559 0.035,0.13937 -0.027,0.0854 -0.012,0.13937 0.038,0.13937 0.046,0 0.063,0.0483 0.039,0.11081 -0.023,0.0609 0,0.19422 0.06,0.29615 0.056,0.10195 0.1816,0.37971 0.2783,0.61726 0.097,0.23755 0.2595,0.58249 0.3618,0.76652 0.1023,0.18404 0.2201,0.39733 0.2619,0.47399 0.042,0.0766 0.092,0.15504 0.111,0.1742 0.019,0.0192 0.2142,0.25661 0.4333,0.52766 0.374,0.46284 0.7512,0.81823 1.5351,1.44633 0.182,0.14588 0.331,0.24532 0.331,0.22098 0,-0.0243 0.091,0.0206 0.2024,0.0999 0.1113,0.0793 0.2329,0.14411 0.2702,0.14411 0.037,0 0.1052,0.045 0.1508,0.10005 0.046,0.055 0.1753,0.1203 0.288,0.14506 0.1127,0.0248 0.3,0.0924 0.4161,0.15038 0.1162,0.058 0.3119,0.12069 0.4348,0.13944 0.123,0.0187 0.251,0.0604 0.2844,0.0925 0.033,0.0322 0.1008,0.0431 0.1498,0.0243 0.049,-0.0188 0.1097,-7.9e-4 0.1351,0.0405 0.025,0.0411 0.1192,0.0564 0.2085,0.0339 0.089,-0.0224 0.1784,-0.0147 0.1981,0.0172 0.044,0.0704 2.5654,0.0696 2.6794,-7.9e-4 z" />
</svg>
