<svg id="BRICOMARCHE" width="500" height="74.021957" viewBox="0 0 500 74.021957" version="1.1" xml:space="preserve" xmlns:xlink="http://www.w3.org/1999/xlink" xmlns="http://www.w3.org/2000/svg" xmlns:svg="http://www.w3.org/2000/svg">
	<path id="BRICOMARCHE" style="fill:#000000;stroke:#000000;stroke-width:0" d="m 317.92399,36.868974 c -7.37379,29.77879 -20.41974,37.15258 -45.94441,37.15258 -18.71809,0 -35.73454,-2.83608 -27.22632,-37.15258 C 252.69427,5.104935 270.27794,0 290.41407,0 c 18.43448,0 36.01812,3.40329 27.50992,36.868974 z m -31.19682,-21.55417 c -8.50822,0 -17.01645,2.552468 -20.98698,18.718094 l -1.41804,5.388546 c -3.68687,15.03119 -2.83607,19.56891 11.3443,19.56891 12.19512,0 17.86727,-5.67215 21.27056,-19.28531 l 1.41804,-5.672146 c 4.25411,-16.165626 0,-18.718094 -11.62788,-18.718094 z m -72.60352,41.6903 c 13.89677,0 20.98696,-0.28361 20.98696,-0.28361 l -3.97051,16.16563 c 0,0 -8.22461,0.56721 -20.98695,0.56721 -18.15088,0 -33.46569,-3.40329 -25.24107,-36.86897 7.37379,-29.211569 21.55417,-36.018149 43.39195,-36.018149 13.32955,0 20.70332,0.567215 20.70332,0.567215 l -3.97048,16.165627 c 0,0 -9.64266,-0.283608 -20.98695,-0.283608 -10.49348,0 -15.59842,5.955757 -18.43449,17.300057 l -1.13443,5.388538 c -3.97051,15.88202 1.70164,17.30006 9.64265,17.30006 z M 183.77765,1.13443 165.62677,72.887124 H 146.34146 L 164.20873,1.13443 Z m -55.30346,45.660804 11.91151,26.09189 h -21.27056 l -15.88202,-36.30176 -9.075439,36.30176 H 74.872376 L 93.023251,1.13443 h 31.196829 c 15.59841,0 28.07714,0.567215 21.83777,25.808281 -3.40329,14.180373 -8.22461,17.867273 -17.58366,19.852523 z m -8.22462,-30.346 h -11.91151 l -5.10494,20.13613 h 12.19513 c 6.23936,0 9.35904,-1.134428 11.3443,-9.359045 2.26885,-9.07544 -0.56722,-10.777085 -6.52298,-10.777085 z m -49.914914,36.30176 c -3.686897,14.74759 -13.045944,20.13613 -31.764038,20.13613 H 0 L 17.867272,1.13443 H 55.30346 c 13.045944,0 26.091891,0.850822 21.837776,17.867272 -2.836075,11.060691 -7.94101,14.747589 -15.314804,16.449234 6.239365,1.418038 11.627907,5.104938 8.508224,17.300058 z M 46.795235,43.108334 H 26.659104 l -3.970505,14.74759 h 20.419739 c 3.970505,0 7.090187,-1.41803 8.508224,-7.09018 1.418038,-5.67215 -0.850822,-7.65741 -4.821327,-7.65741 z m 4.821327,-26.6591 H 33.182076 l -3.119683,13.045945 h 18.15088 c 3.970504,0 7.090187,-1.13443 8.508224,-6.80658 1.418038,-5.67215 -1.13443,-6.239365 -5.104935,-6.239365 z m 433.068608,32.89887 -1.41804,5.67215 h 10.77708 l -1.41803,5.95576 h -10.77709 l -1.70164,6.52297 h 13.61318 l -1.41803,5.95576 h -20.41974 l 7.37379,-30.346 h 5.67215 l 2.55247,-3.40329 h 8.79183 l -4.25411,3.40329 H 500 l -1.41804,6.23936 z m -11.62791,-6.23936 -7.65737,30.346 h -6.80661 l 3.11968,-12.47873 h -12.19512 l -3.11968,12.47873 h -6.80658 l 7.37379,-30.346 h 6.80658 l -2.83607,11.6279 h 12.47872 l 2.83608,-11.6279 z m -37.7198,24.10663 -0.56721,5.67215 c -1.70165,0.56722 -4.25411,1.13443 -9.07541,1.13443 -3.11968,0 -5.67215,-0.56721 -7.6574,-1.70164 -1.98526,-1.13443 -3.11969,-3.40329 -3.11969,-6.80658 0,-1.90017 0.28361,-4.3392 0.85083,-7.3738 3.40329,-12.76233 9.35904,-15.59841 17.58366,-15.3148 4.82133,0 7.6574,0.56721 8.79183,0.85082 l -2.55247,5.95576 c -3.11968,-0.56722 -4.53772,-0.85082 -7.6574,-0.85082 -5.10493,0 -7.09018,1.70164 -8.79183,8.50822 l -0.56721,2.26886 c -0.36869,1.70165 -0.56722,3.20477 -0.56722,4.53772 0.28361,2.83608 1.41804,3.97051 5.10494,3.97051 3.68689,0 6.23936,-0.56722 8.22458,-0.85083 z m -22.40499,-18.15088 c 0,1.33296 -0.19852,2.83608 -0.56721,4.53772 -1.41804,5.67215 -3.97051,8.22462 -7.3738,9.07544 l 4.53772,10.77709 h -7.6574 l -3.9705,-9.35905 h -5.10494 l -2.26886,9.35905 h -6.80658 l 7.6574,-30.346 h 11.91152 c 3.11968,0 5.38854,0.2836 7.09019,1.13443 1.70164,0.9359 2.55246,2.55246 2.55246,4.82132 z m -7.94101,0.28361 c -0.76574,-0.36869 -1.70164,-0.56721 -2.83607,-0.56721 h -5.38854 l -2.55247,9.64265 h 5.38854 c 3.11968,0 4.82133,-0.56721 5.95576,-4.82133 0.19852,-0.9359 0.28361,-1.70164 0.28361,-2.26886 0,-1.13443 -0.28361,-1.70164 -0.85083,-1.98525 z m -28.36075,-6.52297 4.25412,30.62961 h -7.09019 l -0.56722,-5.10494 h -11.6279 l -3.40329,5.10494 h -7.09019 l 19.56892,-30.62961 z m -5.67215,9.64265 c -1.41803,2.55247 -4.82132,8.22462 -5.95575,10.20987 h 7.37379 z m -15.03119,-9.35904 -7.6574,30.346 h -6.52298 l 4.25412,-17.30006 -10.77709,17.30006 h -5.10493 l -2.26886,-17.58367 -4.53772,17.58367 h -5.95576 l 7.37379,-30.346 h 7.65741 l 2.83607,20.70334 13.04595,-20.70334 z" />
</svg>
