<svg
   version="1.1"
   id="Warstwa_1"
   x="0px"
   y="0px"
   viewBox="0 0 248.38999 44.979999"
   xml:space="preserve"
   width="248.39"
   height="44.98"
   xmlns="http://www.w3.org/2000/svg"
   xmlns:svg="http://www.w3.org/2000/svg"><defs
   id="defs2" />
<style
   type="text/css"
   id="style1">
	.st0{fill-rule:evenodd;clip-rule:evenodd;}
</style>
<g
   id="g2"
   transform="translate(-255.36611,93.731668)">
	<path
   class="st0"
   d="m 296.60611,-62.761668 c 0,3.93 -1.29,7.06 -3.86,9.39 -2.57,2.33 -6.12,3.5 -10.63,3.5 h -26.75 v -42.9 h 25.4 c 8.54,0 12.82,3.56 12.82,10.67 0,3.56 -1.3,6.18 -3.9,7.88 4.61,2.6 6.92,6.42 6.92,11.46 z m -8.44,-19.03 c 0,-4.03 -2.31,-6.05 -6.93,-6.05 h -20.54 v 12.02 h 20.54 c 4.62,0 6.93,-1.99 6.93,-5.97 z m 2.87,18.95 c 0,-2.44 -0.69,-4.39 -2.07,-5.85 -1.38,-1.46 -3.32,-2.19 -5.81,-2.19 h -22.46 v 16.08 h 22.45 c 2.49,0 4.43,-0.73 5.81,-2.19 1.39,-1.46 2.08,-3.41 2.08,-5.85 z m 56.75,-29.93 -19.43,21.5 v 21.42 h -5.33 v -21.51 l -19.35,-21.42 h 6.69 l 15.36,16.96 15.29,-16.96 h 6.77 z m 45.3,4.93 h -18.07 v 37.98 h -5.33 v -37.98 h -18.07 v -4.94 h 41.48 v 4.94 z m 50.55,16.64 c 0,6.53 -2.11,11.9 -6.33,16.12 -4.22,4.22 -9.54,6.33 -15.96,6.33 -6.42,0 -11.73,-2.11 -15.92,-6.33 -4.19,-4.22 -6.29,-9.59 -6.29,-16.12 0,-6.53 2.1,-11.92 6.29,-16.16 4.19,-4.25 9.5,-6.37 15.92,-6.37 6.42,0 11.74,2.12 15.96,6.37 4.22,4.24 6.33,9.63 6.33,16.16 z m -5.57,0 c 0,-5.09 -1.58,-9.29 -4.74,-12.58 -3.16,-3.29 -7.15,-4.93 -11.98,-4.93 -4.78,0 -8.76,1.65 -11.94,4.93 -3.18,3.29 -4.78,7.48 -4.78,12.58 0,5.04 1.59,9.21 4.78,12.5 3.18,3.29 7.17,4.94 11.94,4.94 4.83,0 8.82,-1.65 11.98,-4.94 3.16,-3.29 4.74,-7.46 4.74,-12.5 z m 65.68,21.34 h -5.25 v -33.52 l -17.04,25.4 -17.04,-25.4 v 33.52 h -5.26 v -42.91 h 4.94 l 17.36,26.27 17.44,-26.27 h 4.86 v 42.91 z"
   id="path1" />
	
</g>
</svg>
