<svg id="BYTOM" width="500" height="90.543098" viewBox="0 0 500 90.543098" version="1.1" xml:space="preserve" xmlns:xlink="http://www.w3.org/1999/xlink" xmlns="http://www.w3.org/2000/svg" xmlns:svg="http://www.w3.org/2000/svg">
	<path id="BYTOM" style="fill:#000000;stroke:#000000;stroke-width:0" d="m 83.01461,62.34148 c 0,7.91095 -2.59672,14.21152 -7.77003,18.90173 -5.17332,4.6902 -12.31934,7.04537 -21.39781,7.04537 H 0 V 1.93244 h 51.12927 c 17.19071,0 25.80619,7.16615 25.80619,21.47833 0,7.16615 -2.61685,12.44011 -7.85055,15.86215 9.27976,5.2337 13.9297,12.92322 13.9297,23.06856 z M 66.0252,24.03478 c 0,-8.11224 -4.64994,-12.17843 -13.94983,-12.17843 H 10.7291 v 24.19583 h 41.34627 c 9.29989,0 13.94983,-4.0058 13.94983,-12.0174 z m 5.77721,38.14566 c 0,-4.91163 -1.38895,-8.83691 -4.16684,-11.77583 -2.77789,-2.93893 -6.68304,-4.40839 -11.69531,-4.40839 H 10.7291 v 32.36845 h 45.19103 c 5.01227,0 8.91742,-1.46946 11.69531,-4.40839 2.79802,-2.93893 4.18697,-6.86421 4.18697,-11.77584 z M 186.03809,1.93244 146.9262,45.21116 V 88.32884 H 136.19711 V 45.02999 L 97.24627,1.91232 h 13.46672 l 30.91912,34.13986 30.77821,-34.13986 h 13.62777 z m 91.18724,9.92391 H 240.85108 V 88.30871 H 230.12199 V 11.85635 H 193.74774 V 1.91232 h 83.49772 v 9.94403 z m 101.75531,33.49572 c 0,13.14465 -4.24736,23.95426 -12.74206,32.44897 -8.49471,8.4947 -19.20368,12.74206 -32.1269,12.74206 -12.92323,0 -23.61206,-4.24736 -32.04638,-12.74206 -8.43432,-8.49471 -12.66154,-19.30432 -12.66154,-32.44897 0,-13.14465 4.22722,-23.99453 12.66154,-32.52949 C 310.49962,4.26748 321.18845,0 334.11168,0 c 12.92322,0 23.63219,4.26748 32.1269,12.82258 8.4947,8.53496 12.74206,19.38484 12.74206,32.52949 z m -11.21221,0 c 0,-10.24599 -3.18048,-18.70043 -9.54145,-25.32308 -6.36096,-6.62265 -14.39269,-9.92391 -24.1153,-9.92391 -9.62197,0 -17.63356,3.32139 -24.03478,9.92391 -6.40123,6.62265 -9.62197,15.05696 -9.62197,25.32308 0,10.14533 3.20061,18.53939 9.62197,25.16204 6.40122,6.62265 14.43294,9.94404 24.03478,9.94404 9.72261,0 17.75434,-3.32139 24.1153,-9.94404 6.36097,-6.62265 9.54145,-15.01671 9.54145,-25.16204 z M 499.97987,88.30871 H 489.41181 V 20.83417 L 455.11091,71.96344 420.81002,20.83417 V 88.30871 H 410.22183 V 1.93244 h 9.94404 L 455.11091,54.813 490.217,1.93244 H 500 v 86.37627 z" />
</svg>
