<svg id="CARREFOUR" width="500" height="86.198349" viewBox="0 0 500 86.198349" version="1.1" xml:space="preserve" xmlns:xlink="http://www.w3.org/1999/xlink" xmlns="http://www.w3.org/2000/svg" xmlns:svg="http://www.w3.org/2000/svg">
		<path id="CARREFOUR" style="fill:#000000;stroke:#000000;stroke-width:0" d="m 101.89569,57.281488 c -6.4602,0 -11.166303,3.260046 -11.166303,9.540554 -0.185762,5.685952 4.583753,10.286399 10.259303,9.895651 4.24631,-0.161719 8.20318,-2.194965 10.80693,-5.553202 v -8.329802 c 0,-2.776601 -3.6237,-5.553201 -9.89993,-5.553201 z M 241.93648,56.13491 c -0.4991,10.829919 8.5669,19.667767 19.38058,18.892864 5.62538,0.05887 11.00704,-2.292475 14.78572,-6.460196 1.30223,0.972285 2.01066,2.547649 1.87389,4.167041 0,5.493305 -6.57999,13.040183 -21.91333,13.040183 -15.62572,0.03294 -28.24427,-12.749526 -28.00987,-28.373523 -1.09866,-16.552801 12.20666,-30.498674 28.7928,-30.178955 12.34827,-0.837703 22.83694,8.929228 22.88021,21.305812 0.0325,2.710934 -0.61143,5.3872 -1.87388,7.786461 z m 21.85343,-7.123329 c 2.41294,0 2.53701,-1.450335 2.53701,-3.379837 -0.13335,-6.243686 -5.28565,-11.206695 -11.52995,-11.106403 -8.93731,0 -12.43694,7.486982 -12.73642,14.48624 z m 144.87096,6.036647 c 0,13.399559 1.81399,20.223408 10.50317,20.223408 8.69345,0 12.07329,-8.453872 12.07329,-16.120542 V 44.604958 c 0,-5.009861 -2.35305,-7.003537 -7.84636,-6.396022 -2.23326,-5.677272 5.25373,-9.241075 9.47638,-10.083895 1.23758,-0.220503 2.48795,-0.361985 3.74349,-0.42355 6.03665,0 8.21001,3.743491 8.21001,9.296693 v 32.176909 c 0,5.069757 2.35306,7.662392 7.78647,7.059155 2.23326,5.677271 -5.19383,8.33408 -9.47638,9.112727 -1.13375,0.243861 -2.2846,0.385044 -3.43974,0.427827 -5.67727,0 -6.82385,-3.683595 -7.97042,-8.933039 -0.93571,1.166596 -1.96442,2.255417 -3.07608,3.255768 -3.76933,3.601974 -8.7936,5.593879 -14.00708,5.553201 -5.39151,0.203432 -10.59285,-2.008244 -14.18676,-6.032368 -4.94569,-6.036647 -4.94569,-13.403837 -4.94569,-24.450344 V 44.609236 c 0,-5.009861 -2.35305,-7.003537 -7.78646,-6.396022 -2.29743,-5.617376 5.24945,-9.241075 9.47638,-10.083895 1.21721,-0.200523 2.44632,-0.320571 3.67932,-0.359375 6.03665,0 8.21429,3.679317 8.21429,9.232518 v 18.10994 l -0.42783,-0.0599 z m -26.07609,1.146578 c 0.89664,-16.276866 -12.38217,-29.80731 -28.673,-29.216343 -16.22691,-0.241595 -29.43372,12.994277 -29.15645,29.220621 0,15.969172 12.94557,28.914712 28.91473,28.914712 15.96916,0 28.91472,-12.94554 28.91472,-28.914712 z M 124.64756,71.588041 c 0,4.406623 2.90067,6.032368 7.9148,6.520092 -0.13211,4.327287 -3.76866,7.715886 -8.09449,7.542599 -4.84528,0.651641 -9.49946,-2.125965 -11.2262,-6.699779 -4.65165,4.205121 -10.63322,6.641667 -16.899185,6.883745 -10.616374,0.796555 -19.732575,-7.466587 -19.979547,-18.10994 0,-10.986611 9.596172,-17.506703 23.059905,-17.506703 4.141367,-0.03423 8.257067,0.791481 12.069017,2.417226 v -7.003537 c 0,-6.579988 -2.89639,-10.806924 -10.38338,-10.806924 -2.596208,0.07928 -5.163533,0.56875 -7.60677,1.450335 0.303757,1.039621 0.47061,2.117747 0.483445,3.20015 1.199243,9.962397 -14.338114,10.305061 -13.579246,0.29948 0,-7.243121 9.052831,-12.492565 21.605291,-12.492565 9.9641,0 16.06065,2.412948 19.2608,6.520092 3.19587,4.102866 3.08035,9.172623 3.08035,17.198667 v 20.587062 h 0.29948 z M 368.21833,57.1018 c 0,13.339663 -6.03237,20.642679 -13.883,20.642679 -7.84636,0 -14.24666,-7.303016 -14.24666,-23.1198 0,-12.372773 5.18955,-20.099338 13.58353,-20.099338 8.38542,0 14.54613,8.569385 14.54613,22.576459 z M 165.39813,36.818496 c 0.28763,3.489879 3.25969,6.142166 6.75967,6.032369 4.11733,-0.126595 7.32885,-3.60814 7.12333,-7.722288 0.0107,-4.688651 -3.95566,-8.403491 -8.63356,-8.08594 -5.71766,0.514732 -10.73016,4.031308 -13.15997,9.232518 -0.90272,-4.949964 -3.26005,-8.63356 -8.21001,-8.63356 -1.24926,0.01284 -2.48996,0.213914 -3.67932,0.603237 -4.16704,1.210752 -10.20369,4.406624 -7.97043,10.083895 6.03665,-1.146577 7.85064,0.782925 7.85064,6.032369 v 24.146586 c 0,4.770278 -0.60752,6.759676 -2.29744,8.150115 -1.21149,0.958894 -2.64169,1.602702 -4.16276,1.873885 -2.41295,5.129652 2.23326,6.759675 13.63914,6.759675 11.41017,0 15.33334,-1.630023 12.98029,-6.759675 -1.91774,-0.257039 -3.76493,-0.894104 -5.43341,-1.873885 -1.68992,-1.386161 -2.35305,-3.379837 -2.35305,-8.150115 V 53.662067 c 0,-12.860496 4.7061,-16.240334 7.78646,-16.843571 z m 141.7906,-8.389698 h 14.73011 c 1.8862,3.280372 -0.17002,7.424207 -3.92318,7.906253 -1.04589,0.06028 -2.09437,0.06028 -3.14026,0 h -7.24312 v 31.813256 c 0,4.765999 0.8471,6.759676 2.47712,8.150115 1.87817,0.99256 3.92318,1.625745 6.03237,1.869606 2.35305,5.133931 -3.19587,6.759676 -14.66593,6.759676 -11.46577,0 -16.11626,-1.570127 -13.76321,-6.759676 1.53782,-0.280056 2.98679,-0.922396 4.22694,-1.873884 1.62574,-1.386161 2.23326,-3.379838 2.23326,-8.145837 V 36.035572 l -8.63356,-0.303758 c -1.74982,-4.16704 0.60324,-7.183224 4.10714,-7.183224 h 4.34673 v -4.107145 c -0.43248,-5.594089 0.82869,-11.188854 3.61942,-16.0563674 3.79248,-5.6667471 10.34422,-8.85023751 17.14305,-8.32980242 10.80693,0 19.56028,5.00986072 19.56028,12.62091282 0.16557,3.982715 -3.02166,7.300334 -7.00782,7.29446 -3.67399,-0.0308 -6.663,-2.967036 -6.75967,-6.639884 0.009,-1.527344 0.51339,-3.011906 1.44605,-4.2226578 -1.65724,-1.4719621 -3.81714,-2.2501376 -6.03236,-2.173364 -7.12761,0 -8.69346,5.2494438 -8.69346,12.0732938 v 9.656067 l -0.0599,-0.239583 z m -94.70818,8.389698 c 0.28763,3.489879 3.25969,6.142166 6.75968,6.032369 4.09994,-0.164457 7.28971,-3.622421 7.12332,-7.722288 0.0692,-4.903887 -4.179,-8.756573 -9.05283,-8.21001 -5.72774,0.530634 -10.75174,4.040934 -13.21987,9.236797 -0.90699,-4.949965 -3.31994,-8.63356 -8.21429,-8.63356 -1.26637,0.0086 -2.52846,0.213913 -3.73921,0.603237 -4.10714,1.206473 -10.19941,4.406623 -7.90625,10.083895 6.03237,-1.150856 7.78646,0.782924 7.78646,6.032368 v 24.146587 c 0,4.770277 -0.60324,6.759675 -2.23326,8.150114 -1.2407,0.949778 -2.69104,1.591519 -4.22694,1.869607 -2.35305,5.13393 2.29316,6.759675 13.70332,6.759675 11.41016,0 15.33334,-1.625745 12.97601,-6.759675 -1.93299,-0.26397 -3.7968,-0.89878 -5.48903,-1.869607 -1.63002,-1.390439 -2.35305,-3.379837 -2.35305,-8.150114 V 53.662067 c 0,-12.860496 4.7061,-16.240334 7.84636,-16.843571 z m 273.57005,0 c 0.35124,3.506329 3.35729,6.142128 6.87946,6.032369 4.07724,-0.194106 7.23273,-3.643919 7.06343,-7.722288 10e-4,-2.242291 -0.92466,-4.385317 -2.5584,-5.921133 -1.63649,-1.534463 -3.83689,-2.320104 -6.07516,-2.169085 -5.70208,0.52067 -10.69453,4.040796 -13.10007,9.236796 h -0.29948 c -0.907,-4.949964 -3.31995,-8.63356 -8.15012,-8.63356 -1.29204,0.01284 -2.57124,0.213914 -3.80339,0.603237 -4.04297,1.210752 -10.07961,4.406624 -7.90625,10.083895 6.03665,-1.146577 7.84636,0.782925 7.84636,6.032369 v 24.146586 c 0,4.770278 -0.60324,6.759676 -2.29316,8.150115 -1.23351,0.924792 -2.65663,1.564758 -4.16704,1.873885 -2.41294,5.129652 2.29744,6.759675 13.70332,6.759675 11.41016,0 15.27344,-1.630023 12.8605,-6.759675 -1.91372,-0.273853 -3.75774,-0.909805 -5.43341,-1.873885 -1.57013,-1.386161 -2.29744,-3.379837 -2.29744,-8.150115 V 53.662067 c 0,-12.860496 4.65049,-16.240334 7.73085,-16.843571 z M 0,44.848819 c 0,25.956297 18.10994,41.349532 37.366458,41.349532 17.502425,0 29.69551,-12.073293 29.69551,-22.516563 0.561006,-4.783874 -2.982356,-9.069003 -7.786462,-9.416485 -4.687197,-0.216566 -8.546368,3.642605 -8.329802,8.329803 0.109139,2.593165 1.263554,5.031662 3.20015,6.759675 -3.069808,5.478537 -9.005333,8.715643 -15.273443,8.329802 -12.916114,0 -22.272702,-13.51935 -22.272702,-32.959834 0,-19.436205 8.933039,-33.015451 21.913327,-33.015451 6.248639,-0.374178 12.159551,2.863111 15.209269,8.329802 -1.929062,1.758722 -3.080234,4.211889 -3.20015,6.819571 -0.21678,4.688981 3.645214,8.548974 8.33408,8.329802 4.837027,-0.34761 8.407145,-4.65941 7.846357,-9.47638 0,-10.203687 -12.073293,-22.5165636 -29.759684,-22.5165636 C 17.506703,3.1955294 0,20.0391 0,44.848819 Z" />
</svg>
