<svg
   width="300"
   height="95.339996"
   version="1.1"
   id="svg1"
   xmlns="http://www.w3.org/2000/svg"
   xmlns:svg="http://www.w3.org/2000/svg">
  <defs
     id="defs1" />
  <path
     d="M 48.41,0 C 21.95,0 0,21.19 0,47.67 0,74.15 21.95,95.34 48.41,95.34 70.77,95.34 89.33,80.16 94.56,59.5 H 71.85 C 67.49,68.17 58.51,73.91 48.42,73.91 33.46,73.91 21.44,62.6 21.44,47.67 c 0,-14.15 12.06,-26.24 26.98,-26.24 9.65,0 18.32,5.62 22.87,13.67 H 94.37 C 88.89,14.82 70.5,0 48.41,0 Z m 101.98,0 c -26.46,0 -47.67,21.21 -47.67,47.67 0,26.46 21.21,47.67 47.67,47.67 22.36,0 40.92,-15.18 46.15,-35.84 h -22.71 c -4.36,8.67 -13.34,14.41 -23.44,14.41 -14.96,0 -26.23,-11.28 -26.23,-26.24 0,-14.19 11.31,-26.24 26.23,-26.24 9.64,0 18.32,5.62 22.87,13.67 h 23.09 C 190.87,14.82 172.48,0 150.39,0 Z m 103.46,0 c -26.46,0 -47.67,21.21 -47.67,47.67 0,26.46 21.21,47.67 47.67,47.67 22.36,0 40.92,-15.18 46.15,-35.84 h -22.71 c -4.36,8.67 -13.34,14.41 -23.44,14.41 -14.96,0 -26.23,-11.28 -26.23,-26.24 0,-14.19 11.31,-26.24 26.23,-26.24 9.64,0 18.32,5.62 22.87,13.67 h 23.09 C 294.33,14.82 275.95,0 253.85,0 Z"
     fill="#000000"
     id="path1" />
</svg>
