<svg
   viewBox="0 0 79.524529 26.718035"
   width="79.524529"
   height="26.718035"
   version="1.1"
   id="svg2"
   xmlns="http://www.w3.org/2000/svg"
   xmlns:svg="http://www.w3.org/2000/svg">
  <defs
     id="defs2" />
  <g
     id="Page-1"
     stroke="none"
     stroke-width="1"
     fill="none"
     fill-rule="evenodd"
     style="fill:#000000"
     transform="translate(-0.10958685,-0.07771976)">
    <g
       id="logo"
       fill="#222"
       fill-rule="nonzero"
       style="fill:#000000">
      <g
         id="Group"
         style="fill:#000000">
        <path
           d="M 0.11194,13.51286 V 13.43915 C 0.048105,9.8613438 1.4489184,6.4128046 3.98964,3.8929819 6.5303616,1.3731593 9.9903531,8.7657352e-4 13.56751,0.09426 c 3.804927,-0.18970757 7.508844,1.2596432 10.17454,3.98132 l -3.61277,4.1657 C 18.396666,6.4428617 16.026944,5.396999 13.53062,5.329 c -4.35,0 -7.48348,3.61269 -7.48348,8.03642 v 0.07371 c 0,4.42373 3.05968,8.1102 7.48348,8.1102 2.94915,0 4.75553,-1.17966 6.783,-3.02286 L 23.92636,22.176 C 21.294325,25.255102 17.393469,26.954107 13.3463,26.78411 9.8126469,26.841402 6.4073934,25.460373 3.9118753,22.957899 1.4163573,20.455424 0.04481178,17.04634 0.11194,13.51286 Z"
           id="Path"
           style="fill:#000000" />
        <path
           d="M 27.99361,13.51286 V 13.43915 C 27.929772,9.8613447 29.330583,6.4128054 31.871303,3.8929825 34.412023,1.3731595 37.872014,8.764762e-4 41.44917,0.09426 45.254098,-0.09545147 48.958016,1.3538999 51.62371,4.07558 L 48.011,8.24128 C 46.27837,6.4428491 43.908625,5.3969855 41.41228,5.329 c -4.35,0 -7.48348,3.61269 -7.48348,8.03642 v 0.07371 c 0,4.42373 3.05968,8.1102 7.48348,8.1102 2.94915,0 4.75553,-1.17966 6.783,-3.02286 L 51.808,22.176 c -2.632019,3.079089 -6.532851,4.778093 -10.58,4.60811 -3.533658,0.0573 -6.93892,-1.323725 -9.434444,-3.826201 -2.495525,-2.502475 -3.867074,-5.911564 -3.799946,-9.445049 z"
           id="path1"
           style="fill:#000000" />
        <path
           d="M 55.8197,13.51286 V 13.43915 C 55.755865,9.8613438 57.156678,6.4128046 59.6974,3.8929819 62.238122,1.3731593 65.698113,8.7657352e-4 69.27527,0.09426 73.080195,-0.09544986 76.784109,1.3539015 79.4498,4.07558 L 75.837,8.24128 C 74.104396,6.4428712 71.73469,5.3970094 69.23838,5.329 c -4.35,0 -7.48349,3.61269 -7.48349,8.03642 v 0.07371 c 0,4.42373 3.05969,8.1102 7.48349,8.1102 2.94915,0 4.75553,-1.17966 6.783,-3.02286 L 79.63412,22.176 C 77.002086,25.255102 73.101229,26.954107 69.05406,26.78411 65.520407,26.8414 62.115153,25.460373 59.619635,22.957899 57.124117,20.455424 55.752572,17.04634 55.8197,13.51286 Z"
           id="path2"
           style="fill:#000000" />
      </g>
    </g>
  </g>
</svg>
