<svg id="CCC" width="500" height="167.9861" viewBox="0 0 500 167.9861" version="1.1" xml:space="preserve" xmlns:xlink="http://www.w3.org/1999/xlink" xmlns="http://www.w3.org/2000/svg" xmlns:svg="http://www.w3.org/2000/svg">
	<path id="C" style="fill:#000000;stroke:#000000;stroke-width:0" d="M 0.01479514,84.471669 V 84.008227 C -0.386559,61.513244 8.4208706,39.831009 24.395322,23.987957 40.369774,8.1449048 62.124013,-0.48314137 84.614914,0.10399455 108.53789,-1.0887668 131.82578,8.0238346 148.58599,25.136018 L 125.87118,51.327307 C 114.97759,40.019989 100.07828,33.444266 84.382973,33.016731 c -27.35005,0 -47.051391,22.714311 -47.051391,50.527928 v 0.463442 c 0,27.813619 19.237334,50.991809 47.051391,50.991809 18.542387,0 29.899767,-7.41695 42.647217,-19.00583 l 22.71463,22.94594 C 133.19624,158.29946 108.67013,168.98173 83.224085,167.9129 61.006709,168.27312 39.596627,159.59008 23.906387,143.8561 8.216147,128.12212 -0.40726468,106.68796 0.01479514,84.471669 Z" />
	<path id="C" style="fill:#000000;stroke:#000000;stroke-width:0" d="M 175.31711,84.471669 V 84.008227 C 174.91573,61.51325 183.72315,39.831014 199.6976,23.98796 215.67204,8.1449061 237.42627,-0.483142 259.91717,0.10399455 283.84015,-1.0887913 307.12805,8.0238139 323.88825,25.136018 L 301.17381,51.327307 C 290.28013,40.01991 275.38067,33.444181 259.68523,33.016731 c -27.35005,0 -47.05139,22.714311 -47.05139,50.527928 v 0.463442 c 0,27.813619 19.23733,50.991809 47.05139,50.991809 18.54239,0 29.89977,-7.41695 42.64722,-19.00583 l 22.71449,22.94594 c -16.54847,19.35936 -41.07443,30.04163 -66.52035,28.97288 -22.21741,0.36027 -43.62754,-8.32275 -59.31782,-24.05673 -15.69028,-15.73398 -24.31372,-37.16818 -23.89166,-59.384501 z" />
	<path id="C" style="fill:#000000;stroke:#000000;stroke-width:0" d="M 350.26998,84.471669 V 84.008227 C 349.86866,61.513244 358.67605,39.831009 374.65051,23.987957 390.62496,8.1449048 412.3792,-0.48314137 434.8701,0.10399455 458.79306,-1.0887812 482.08093,8.0238239 498.84111,25.136018 l -22.715,26.191289 C 465.23259,40.020049 450.33338,33.444331 434.63816,33.016731 c -27.35005,0 -47.05146,22.714311 -47.05146,50.527928 v 0.463442 c 0,27.813619 19.2374,50.991809 47.05146,50.991809 18.54239,0 29.89976,-7.41695 42.64721,-19.00583 L 500,138.94002 c -16.54857,19.35944 -41.07469,30.04171 -66.52073,28.97288 -22.21738,0.3602 -43.62746,-8.32282 -59.3177,-24.0568 -15.69024,-15.73398 -24.31365,-37.16814 -23.89159,-59.384431 z" />
</svg>
