<svg
   version="1.1"
   id="svg1"
   width="600.68134"
   height="190.81822"
   viewBox="0 0 600.68133 190.81822"
   xmlns="http://www.w3.org/2000/svg"
   xmlns:svg="http://www.w3.org/2000/svg">
  <defs
     id="defs1" />
  <g
     id="g1"
     transform="translate(-0.2787092,-0.28619203)">
    <path
       style="fill:#000000"
       d="M 84.800003,190.96023 C 61.02942,187.36648 43.882612,178.97617 28.127163,163.22897 14.030383,149.13957 5.1612222,132.38314 1.5198472,112.96 -0.26137412,103.45894 -0.10220828,85.937338 1.8483237,76.8 3.8804394,67.28048 5.8699456,61.603157 10.270245,52.766915 19.383145,34.467301 34.173247,19.647061 52.655627,10.295164 60.903645,6.1217509 67.278981,3.8910908 76.8061,1.8451793 c 8.930769,-1.91784759 27.31462,-2.10006465 36.1539,-0.3583502 18.9941,3.7426454 35.49141,12.2397579 49.07272,25.2754279 6.97633,6.696047 8.20729,8.489513 8.20729,11.957743 0,5.207581 -3.47919,8.64 -8.75774,8.64 h -3.46511 L 151.13701,40.8 C 134.55875,24.993171 116.81521,17.661165 95.360003,17.75176 c -9.47537,0.04001 -15.366347,1.011405 -24.449857,4.031668 -27.321084,9.084248 -47.529453,32.968824 -52.424809,61.961674 -0.923886,5.471731 -0.923886,18.398068 0,23.869798 4.98705,29.53591 25.735233,53.61863 53.834666,62.48668 8.650014,2.72991 14.52881,3.62196 23.680001,3.59323 20.924486,-0.0657 38.991046,-7.55834 54.720006,-22.69374 3.168,-3.04845 6.38906,-5.87079 7.15792,-6.27185 3.53848,-1.84582 8.68448,-0.0331 11.08553,3.90493 2.86312,4.69589 1.42363,7.9611 -7.12685,16.16585 -13.03696,12.50983 -28.81099,20.88015 -46.50925,24.67966 -4.57486,0.98214 -9.15289,1.39023 -17.407356,1.55173 -6.160001,0.12051 -12.064001,0.0885 -13.120001,-0.0712 z m 3.84,-37.10785 C 68.156594,150.83594 51.489609,138.57536 42.92008,120.21985 39.219149,112.29264 38.331984,108.36093 37.946329,98.177307 37.54267,87.518251 38.550642,81.212896 41.907839,73.396134 45.090826,65.984997 47.779449,61.839201 53.069722,56.184761 60.968164,47.742615 70.619178,41.913374 81.600003,38.952387 88.86911,36.992268 103.03037,36.999111 110.4,38.966305 c 5.69634,1.520535 14.09687,5.330653 18.72603,8.493317 4.01975,2.746313 10.302,8.747228 11.42002,10.908596 2.96026,5.722845 -1.29315,12.671782 -7.75634,12.671782 -2.96076,0 -4.36144,-0.755223 -8.3773,-4.516899 -7.78674,-7.293888 -16.10854,-10.846706 -26.492406,-11.310364 -12.527071,-0.559356 -21.697417,2.951678 -30.43628,11.653085 -13.064038,13.008044 -15.99883,30.859295 -7.824419,47.593028 2.690132,5.50694 11.331423,14.34436 16.825252,17.20715 5.933613,3.09195 12.448386,4.654 19.410202,4.654 10.459451,0 19.802201,-3.51515 27.124981,-10.2056 4.95151,-4.52395 6.11097,-5.1544 9.47944,-5.1544 5.20816,0 8.30083,3.32971 8.30083,8.93706 0,3.10182 -0.20137,3.51286 -3.36,6.85859 -6.57855,6.96821 -17.04467,13.00631 -27.04001,15.59988 -4.97912,1.29197 -17.36537,2.14401 -21.759997,1.49685 z M 254.51989,150.9816 c -14.54361,-1.53618 -22.88782,-6.2827 -27.24092,-15.49572 -3.42657,-7.25207 -3.59896,-9.15876 -3.59896,-39.80588 0,-30.647122 0.17239,-32.553807 3.59896,-39.805884 3.30817,-7.00149 9.37237,-11.638068 18.2436,-13.94873 7.06357,-1.839827 17.39861,-2.244319 57.35744,-2.244851 l 40.16,-5.35e-4 V 51.2 62.72 l -38.56,0.01268 c -22.36305,0.0074 -40.42806,0.282659 -43.00728,0.655421 -5.59046,0.807963 -7.92829,2.162033 -9.95272,5.764619 l -1.6,2.847282 -0.20542,21.599779 c -0.22469,23.626239 0.1289,27.310179 2.94224,30.653639 3.52715,4.19178 1.88742,4.04742 48.30318,4.25253 l 42.08,0.18594 V 140.18595 151.68 l -41.76,-0.0851 c -22.968,-0.0468 -44.01005,-0.32279 -46.76012,-0.61327 z m 132.59486,0.0102 c -10.54664,-1.11825 -18.32777,-4.28622 -23.01342,-9.36955 -2.54271,-2.75852 -5.17755,-7.64548 -6.05052,-11.22221 l -0.42956,-1.76 h 59.58938 59.58939 v 11.52 11.52 l -42.4,-0.0851 c -23.32,-0.0468 -44.59837,-0.31822 -47.28527,-0.60311 z m 133.64515,-0.0102 c -17.20945,-1.81777 -25.92892,-8.42502 -29.67878,-22.48934 -0.93554,-3.50886 -1.10024,-9.33198 -1.31278,-46.41226 l -0.24302,-42.4 h 13.12973 13.12973 l 0.18762,39.2 0.18762,39.2 1.6,3.19908 c 1.86743,3.73378 4.54223,5.71369 9.0149,6.6729 2.06958,0.44385 15.80262,0.68802 38.6966,0.68802 h 35.4885 v 11.52 11.52 l -37.6,-0.0851 c -20.68,-0.0468 -39.85005,-0.32279 -42.60012,-0.61327 z M 160.96001,123.63256 c -2.93545,-1.38673 -5.73274,-4.02115 -7.24086,-6.81926 -1.73494,-3.21893 -1.25755,-9.18169 1.43137,-17.878437 2.63503,-8.522461 9.7274,-28.702864 10.87834,-30.952901 0.66787,-1.305662 1.22326,-0.131169 5.3143,11.238357 9.58928,26.649851 10.80123,33.394541 7.0258,39.099611 -2.65229,4.00789 -6.21506,6.0677 -10.92356,6.31545 -2.85677,0.15032 -4.62231,-0.12268 -6.48539,-1.00282 z M 355.84001,95.68 V 85.12 h 60.16001 60.16 v 10.56 10.56 h -60.16 -60.16001 z m 2.19464,-34.72 c 0.88911,-3.785247 4.32293,-9.705349 7.13037,-12.293156 3.56079,-3.282222 9.22326,-5.979907 15.63499,-7.44875 4.22856,-0.968705 10.19067,-1.131136 50.08001,-1.364379 l 45.28,-0.264764 V 51.154476 62.72 h -59.26939 -59.26938 z"
       id="path1" />
  </g>
</svg>
