<svg id="CEL" width="500" height="148.55157" viewBox="0 0 500 148.55157" version="1.1" xml:space="preserve" xmlns:xlink="http://www.w3.org/1999/xlink" xmlns="http://www.w3.org/2000/svg" xmlns:svg="http://www.w3.org/2000/svg">
	<path id="CEL" style="fill:#000000;stroke:#000000;stroke-width:0" d="M 41.15005,147.91215 C 21.875758,145.87629 10.81738,139.58584 5.0483231,127.37605 0.50717346,117.76506 0.2787092,115.23817 0.2787092,74.622292 c 0,-40.615884 0.22846426,-43.142767 4.7696139,-52.753768 C 9.4325602,12.58962 17.469296,6.4448763 29.226121,3.3826123 38.587298,0.9443345 52.284075,0.40827112 105.24054,0.40756607 l 53.22307,-7.0902e-4 V 15.674032 30.941207 l -51.10263,0.01681 c -29.637206,0.0098 -53.578323,0.374601 -56.996501,0.868613 -7.4089,1.070774 -10.507169,2.86529 -13.190097,7.639709 l -2.120441,3.773434 -0.272238,28.62566 c -0.297776,31.311287 0.170828,36.193507 3.899279,40.624517 4.674446,5.55527 2.501352,5.36395 64.015028,5.63577 l 55.7676,0.24642 v 15.2328 15.23279 l -55.34351,-0.11279 c -30.438933,-0.062 -58.325449,-0.42778 -61.97005,-0.81275 z m 175.72474,0.0135 c -13.97721,-1.48199 -24.28935,-5.68042 -30.49913,-12.41724 -3.36979,-3.65579 -6.86168,-10.13236 -8.0186,-14.87252 l -0.56929,-2.33248 h 78.97235 78.97237 v 15.26717 15.26718 L 279.5408,148.725 c -30.90543,-0.062 -59.10513,-0.42173 -62.66601,-0.79929 z m 177.11666,-0.0135 c -22.80727,-2.40904 -34.36297,-11.16547 -39.33257,-29.80457 -1.23985,-4.65021 -1.45812,-12.36745 -1.73979,-61.509037 L 352.59702,0.40685705 h 17.40051 17.40051 l 0.24865,51.95080395 0.24865,51.950809 2.12044,4.23966 c 2.47486,4.94829 6.0197,7.57221 11.94722,8.84343 2.74277,0.58822 20.94283,0.91182 51.28367,0.91182 h 47.03204 v 15.26717 15.26718 l -49.83036,-0.11279 c -27.4067,-0.062 -52.8123,-0.42778 -56.4569,-0.81275 z M 175.42714,74.622292 V 60.627381 h 79.72859 79.72858 v 13.994911 13.99491 h -79.72858 -79.72859 z m 2.9085,-46.01357 c 1.17831,-5.016495 5.72907,-12.862262 9.4497,-16.29182 4.71903,-4.3498485 12.22337,-7.9250247 20.72068,-9.8716465 5.604,-1.2838011 13.50544,-1.49906693 66.36981,-1.8081782 L 334.88431,0.28619203 V 15.6137 30.941207 h -78.54828 -78.54826 z" />
</svg>
