<svg
   version="1.1"
   id="svg1"
   width="613.91418"
   height="189.95134"
   viewBox="0 0 613.91418 189.95134"
   xmlns="http://www.w3.org/2000/svg"
   xmlns:svg="http://www.w3.org/2000/svg">
  <defs
     id="defs1" />
  <g
     id="g1"
     transform="translate(520.30695,-64.133511)">
    <path
       style="fill:#000000"
       d="m -45.3928,253.76604 c -13.6407,-1.58694 -23.9831,-10.79665 -29.0814,-25.89652 -2.9058,-8.60639 -3.112,-24.57547 -0.4369,-33.83632 2.1779,-7.53969 7.9736,-16.88365 12.7155,-20.5005 6.973,-5.31858 12.5773,-7.10357 22.3028,-7.10357 10.879,0 15.9192,1.94618 23.5671,9.09986 8.8448996,8.27341 12.9328996,19.28625 12.9328996,34.84053 0,28.90355 -16.8573996,46.32155 -41.9999996,43.39652 z m 12.6186,-19.51981 c 6.9102,-3.27908 10.5872,-11.73668 10.6109,-24.40617 0.027,-14.50211 -5.8484,-24.04105 -15.7197,-25.52135 -10.6617,-1.59883 -18.9497,7.48294 -20.1759,22.10822 -1.429,17.04557 5.9386,29.4289 17.515,29.43885 2.3919,0.002 5.8883,-0.72674 7.7697,-1.61955 z m -339.4136,17.78812 c -7.5445,-2.69008 -12.2061,-6.85585 -15.9495,-14.25324 -4.516,-8.92396 -5.484,-17.05534 -5.0894,-42.75306 0.2875,-18.72543 0.5792,-22.1257 2.0966,-24.43928 3.3738,-5.144 10.9737,-4.69852 13.7164,0.80401 1.1821,2.37138 1.4962,7.85744 1.5448,26.97674 0.056,22.21958 0.2178,24.34611 2.175,28.66566 2.7326,6.03069 6.2709,8.33434 12.8011,8.33434 6.5282,0 10.0656,-2.30175 12.8085,-8.33434 1.9258,-4.23534 2.1708,-6.98731 2.6565,-29.83747 0.5297,-24.92228 0.5591,-25.19737 2.9594,-27.75 4.1389,-4.40169 10.1715,-2.98643 12.6603,2.97018 1.7597,4.21156 2.0014,44.9069 0.3209,54.01797 -2.1741,11.78643 -7.7098,19.71147 -17.1834,24.60018 -5.9844,3.08816 -18.3042,3.57015 -25.5172,0.99831 z m 124.5295,0.80989 c -13.1511,-3.3176 -19.5536,-12.2465 -13.2799,-18.52018 2.9871,-2.98706 5.972,-3.0787 14.3845,-0.44164 3.4865,1.0929 7.8945,1.9871 9.7955,1.9871 7.3538,0 11.096,-8.82142 6.1154,-14.41573 -1.2375,-1.38999 -5.7543,-3.85721 -10.0375,-5.48272 -16.2848,-6.18033 -20.5719,-10.48107 -21.4585,-21.52692 -1.4136,-17.61001 10.6677,-29.40735 29.0717,-28.38836 8.5032,0.4708 14.1477,2.90285 16.7887,7.23369 2.4294,3.98396 2.3787,6.68357 -0.1869,9.94518 -2.4564,3.12281 -5.6085,3.36486 -13.5927,1.0438 -3.0102,-0.87508 -6.5784,-1.31363 -7.9293,-0.97456 -3.3835,0.8492 -6.4055,4.10035 -6.4055,6.8913 0,3.45007 3.5337,6.12269 12.7856,9.67015 15.5058,5.94544 21.5133,13.147 21.5032,25.77744 -0.013,16.20421 -10.2982,26.74759 -27.0705,27.74989 -3.695,0.22082 -8.4127,-0.026 -10.4838,-0.54844 z m -32.9066,-2.22969 c -1.4697,-1.23477 -7.3879,-8.88779 -13.1516,-17.00673 l -10.4795,-14.76169 -0.3484,13.44001 c -0.305,11.76586 -0.6099,13.79148 -2.4483,16.26169 -2.8192,3.7881 -9.0685,4.4499 -11.9518,1.26569 -1.8441,-2.0366 -1.9635,-4.09629 -2.2338,-38.52873 -0.311,-39.62139 -0.061,-41.66263 5.258,-42.99772 1.3399,-0.33628 8.6442,-0.4553 16.2318,-0.26448 13.2841,0.33406 13.9997,0.46211 19.2957,3.45301 7.8661,4.44227 11.3568,10.32616 11.8434,19.9631 0.5972,11.82533 -3.2295,19.11802 -12.0441,22.95324 -2.3646,1.02883 -4.4678,1.98823 -4.6738,2.13199 -0.206,0.14376 2.5102,3.76783 6.036,8.05349 8.8019,10.69863 10.7559,13.6291 11.4705,17.20195 0.8024,4.01213 -1.1277,8.53939 -4.2466,9.96043 -3.6192,1.64903 -5.559,1.39396 -8.5575,-1.12525 z m -9.1965,-47.23916 c 2.5749,-1.68712 4.3763,-7.01524 3.6523,-10.80263 -0.8937,-4.6746 -4.6525,-7.06827 -11.816,-7.5244 l -6.4677,-0.41183 v 10.75895 10.75895 l 6.181,-0.64604 c 3.3996,-0.35533 7.2023,-1.31518 8.4504,-2.133 z m 103.3686,48.20331 c -3.9166,-1.97606 -4.8815,-6.66001 -4.9435,-23.99633 l -0.056,-15.78714 -9.6789,-15.20693 c -5.3235,-8.36381 -10.1172,-16.36774 -10.6527,-17.7865 -2.0305,-5.3793 1.932,-11.93228 7.2153,-11.93228 3.7172,0 7.6864,4.39541 15.5942,17.2686 3.2877,5.35227 6.2127,9.71687 6.5,9.69912 0.2872,-0.0178 3.2211,-4.40526 6.5199,-9.75 10.4186,-16.88064 15.2128,-20.43076 20.213,-14.96772 4.9756,5.43612 4.3502,7.40291 -8.823,27.75 l -9.3878,14.5 -0.5,18.33887 -0.5,18.33888 -2.8057,2.41112 c -3.1528,2.70937 -5.0581,2.95487 -8.6943,1.12031 z m 41.229,0.62152 c -0.6991,-0.28127 -1.9366,-1.79839 -2.75,-3.37139 -1.2249,-2.36876 -1.479,-9.04378 -1.479,-38.8626 0,-24.62789 0.357,-36.78597 1.1298,-38.48207 1.4843,-3.25784 5.7031,-5.00887 9.025,-3.74589 3.4331,1.30523 5.1024,3.46096 22.3452,28.85536 l 15,22.09128 0.5025,-22.6577 c 0.5355,-24.14879 0.8885,-25.87573 5.7407,-28.08653 3.63,-1.65393 5.1702,-1.31168 8.3338,1.85191 l 2.923,2.92308 -0.015,37.32692 c -0.017,42.2531 8e-4,42.13972 -6.5628,42.62486 -2.8132,0.20792 -4.7697,-0.28503 -6.4767,-1.63177 -1.3451,-1.06134 -9.6458,-12.51726 -18.4458,-25.4576 l -16,-23.5279 -0.5052,22.15967 c -0.5218,22.88918 -0.9928,25.51789 -4.9519,27.63675 -1.993,1.0666 -5.6325,1.23131 -7.8139,0.35362 z M 15.9743,251.09728 C 14.8012,250.14701 13.331,248.37227 12.7072,247.1534 10.6457,243.12499 -2.5039004,177.55654 -1.9120004,174.25681 -0.51410043,166.46399 10.3223,164.55918 13.506,171.54667 c 0.637,1.39809 3.1601,14.25733 5.6068,28.5761 2.4466,14.31877 4.6045,26.19011 4.7951,26.38076 0.1907,0.19065 2.9583,-10.74998 6.1502,-24.3125 3.192,-13.56253 6.2187,-26.16243 6.726,-27.99978 1.1365,-4.11621 4.6138,-6.52173 9.4275,-6.52173 6.8843,0 7.6315,1.64222 14.5536,31.98408 3.4234,15.00624 6.5239,26.70624 6.8899,26 0.3661,-0.70625 2.6154,-12.66785 4.9985,-26.58135 5.04462,-29.45242 5.73831,-31.20273 12.36637,-31.20273 3.60782,0 4.83138,0.49486 6.5147,2.63486 1.13992,1.44917 2.07258,4.05752 2.07258,5.79633 0,3.73111 -14.59607,68.94555 -16.03144,71.62754 -3.99271,7.46039 -16.60111,6.32989 -19.79491,-1.77484 -0.6033,-1.53114 -3.3768,-12.68389 -6.1633,-24.78389 -2.7864,-12.1 -5.3997,-22.81707 -5.8072,-23.81572 -0.4808,-1.17803 -2.6186,6.54834 -6.0872,22 -2.9404,13.09865 -5.9604,25.01348 -6.7111,26.47742 -3.2817,6.39976 -12.1398,9.03363 -17.0378,5.06606 z m -60.5054,-89.2454 c -2.9813,-1.74106 -3.0854,-5.60725 -0.2991,-11.10575 4.9751,-9.81786 10.2477,-12.47593 14.3649,-7.24175 3.0142,3.83191 2.5779,6.46921 -2.0269,12.25253 -5.5021,6.91044 -8.2556,8.30444 -12.0389,6.09497 z m -444.6338,-10.07696 c -14.9966,-1.96935 -26.1173,-13.45844 -29.7876,-30.77433 -4.9285,-23.252044 3.9361,-45.920248 21.0153,-53.739372 11.0033,-5.03746 25.511,-3.872005 32.9343,2.645725 4.2967,3.772599 5.1495,7.023618 3.0198,11.511819 -2.0988,4.422741 -4.9267,5.130397 -12.2692,3.070197 -8.0908,-2.270146 -13.1653,-2.077302 -17.2188,0.654356 -6.8928,4.645064 -9.9105,11.717351 -9.9105,23.226205 0,8.20756 1.1581,12.98397 4.2493,17.52568 5.3576,7.87152 12.5,9.69054 23.2075,5.91047 8.1718,-2.88491 11.4733,-2.11143 13.1628,3.08384 3.4664,10.65922 -10.8778,19.18679 -28.4029,16.88541 z m 291.2721,-0.24435 c -9.8753,-3.27101 -15.8504,-8.90452 -19.7081,-18.58171 -2.0523,-5.1482 -2.2521,-7.54443 -2.5855,-31.00941 -0.392,-27.587879 -0.092,-31.184575 2.8494,-34.125709 1.9404,-1.940413 7.4685,-2.630473 9.4442,-1.17891 3.7917,2.78569 3.9921,4.127374 4.5,30.135412 0.4498,23.027317 0.701,25.994667 2.5,29.534737 2.8795,5.66591 6.4698,7.94915 12.5,7.94915 5.7572,0 9.3603,-2.15875 12.5,-7.48914 1.819,-3.08805 2.0453,-5.72044 2.5,-29.07465 0.4693,-24.102241 0.629,-25.852403 2.6004,-28.5 3.5554,-4.775087 10.2886,-4.370032 12.9513,0.779127 1.3631,2.635851 1.5428,6.99074 1.2682,30.735513 l -0.3199,27.66454 -2.8309,6.12611 c -5.28,11.42568 -14.3157,17.42166 -27.1691,18.02906 -4.0516,0.19147 -8.6847,-0.22724 -11,-0.99412 z m -155.4486,-3.41105 c -2.1291,-2.0625 -10.6241,-13.78157 -18.8776,-26.04237 l -15.0064,-22.292375 -0.3337,22.471235 c -0.3115,20.97792 -0.4732,22.65872 -2.433,25.29237 -2.6485,3.55915 -7.977,4.29456 -11.3466,1.566 -3.6447,-2.95134 -4.1624,-9.82902 -3.4283,-45.55059 0.6219,-30.265921 0.8229,-32.99496 2.5967,-35.249999 2.2369,-2.843754 7.1199,-3.293603 10.448,-0.962525 1.1635,0.814961 9.4762,12.340566 18.4725,25.612455 l 16.357,24.130709 0.5,-22.541968 c 0.4638,-20.906289 0.6524,-22.746624 2.6,-25.362455 2.8201,-3.787616 9.0695,-4.448189 11.9518,-1.263312 1.8609,2.056243 1.9482,3.901248 1.9482,41.136165 v 38.98336 l -2.3607,1.91165 c -3.5841,2.90224 -6.733,2.38016 -11.0879,-1.83835 z m 114.1996,2.21322 c -1.2067,-0.84522 -7.2693,-8.60772 -13.4725,-17.25 l -11.2785,-15.71322 -0.5,14.64816 c -0.433,12.68739 -0.7607,14.93591 -2.4482,16.79781 -2.8838,3.18188 -9.1334,2.5192 -11.9518,-1.26732 -2.0145,-2.70652 -2.1128,-4.13096 -2.4145,-35 -0.173,-17.698258 -0.024,-34.147652 0.3301,-36.554207 0.3856,-2.61734 1.5988,-5.329672 3.0191,-6.75 2.2531,-2.253151 3.0316,-2.374445 15.2384,-2.374445 16.7199,0 22.0709,1.488016 28.2458,7.854632 11.5785,11.937918 8.592,32.99472 -5.5017,38.79076 -2.4803,1.02003 -4.5038,2.07961 -4.4965,2.35461 0.01,0.275 3.4446,4.76098 7.6387,9.96885 4.1941,5.20786 8.262,10.99198 9.0398,12.85359 1.8047,4.31917 0.8865,8.57174 -2.4108,11.16537 -3.0586,2.40589 -6.0561,2.56357 -9.0374,0.47541 z m -13.0304,-46.50766 c 4.7279,-1.31306 6.7794,-4.255573 6.7794,-9.723523 0,-7.156758 -5.6857,-10.952658 -15.0671,-10.059032 l -3.4329,0.326993 -0.2914,8.920857 c -0.1603,4.906472 -0.062,9.518975 0.2186,10.249995 0.6135,1.59872 6.5463,1.74195 11.7934,0.28471 z m 107.1364,47.05286 c -3.1075,-1.25407 -5.357,-4.95454 -5.357,-8.8127 0,-4.18563 9.7391,-64.513481 11.1279,-68.930085 2.3516,-7.479133 12.3323,-9.959291 17.8548,-4.436833 3.3133,3.313271 3.4114,3.638886 10.2094,33.867818 2.8723,12.77229 5.361,23.08367 5.5305,22.91416 0.1695,-0.1695 2.7518,-11.53273 5.7385,-25.25161 2.9867,-13.718878 5.8712,-26.102866 6.41,-27.519971 3.3867,-8.907866 16.2906,-9.288669 20.1029,-0.593255 1.7335,3.953808 11.026,63.449626 11.026,70.594396 0,5.97484 -7.0984,10.78291 -12.026,8.14574 -3.6441,-1.95028 -4.7034,-6.62475 -7.5895,-33.49252 -2.0015,-18.63202 -3.0141,-25.143943 -3.5753,-22.993562 -0.4306,1.65 -2.8367,12.381582 -5.3467,23.847962 -5.5337,25.2786 -7.6361,31.37842 -11.307,32.8064 -3.6576,1.42278 -9.039,-0.0817 -11.3275,-3.16678 -1.1938,-1.60932 -3.9157,-12.10189 -7.5724,-29.19005 -3.1399,-14.67269 -5.8121,-26.574339 -5.9383,-26.44811 -0.1262,0.126228 -1.6024,11.23675 -3.2803,24.69004 -3.4779,27.88539 -4.6794,32.29165 -9.2385,33.88095 -1.7033,0.59377 -3.1422,1.05106 -3.1977,1.0162 -0.055,-0.0349 -1.0651,-0.45255 -2.2438,-0.92819 z m -169.1184,-0.65078 c -3.3291,-1.40386 -3.7378,-4.81308 -4.2386,-35.35764 l -0.5,-30.500002 -6.5,-0.570528 c -7.8965,-0.693105 -9.4016,-1.320909 -10.8645,-4.531537 -1.8068,-3.965381 -1.3479,-6.339357 1.8419,-9.52916 l 2.9774,-2.977379 21.92,0.304302 c 19.9036,0.276311 22.1133,0.479531 24.0226,2.20929 1.5115,1.369435 2.1026,3.106103 2.1026,6.17742 0,6.13958 -3.1374,8.417592 -11.5933,8.417592 h -6.3237 l -0.2915,30.428592 c -0.2788,29.10574 -0.3827,30.55125 -2.3908,33.25 -2.0564,2.76373 -6.9204,4.04603 -10.1621,2.67905 z m -136.9232,-1.33056 c -1.2015,-0.50285 -2.664,-1.81007 -3.25,-2.90493 -0.6958,-1.30014 -1.0654,-14.17168 -1.0654,-37.10607 0,-43.032962 -0.3821,-41.687649 12,-42.245215 2.475,-0.111449 9.358,-0.105486 15.2955,0.01325 9.9816,0.199609 10.9805,0.40092 13.25,2.670429 3.0219,3.021847 3.2688,8.317346 0.5448,11.68467 -1.7635,2.180099 -2.7585,2.38669 -13,2.69926 l -11.0903,0.338476 v 7.292245 7.292245 l 9.4671,0.414058 c 8.2758,0.361953 9.7859,0.713502 12,2.793592 3.5065,3.29416 3.4857,8.78654 -0.046,12.10659 -2.2812,2.14465 -3.6655,2.46429 -12,2.77085 l -9.4213,0.34653 v 7.40347 7.40347 l 7.25,0.0239 c 13.8225,0.0455 19.2373,2.76927 19.0443,9.57962 -0.065,2.27919 -0.8999,4.44766 -2.224,5.77337 -1.9666,1.96907 -3.298,2.13917 -18.3454,2.34383 -8.9236,0.12138 -17.2079,-0.19074 -18.4095,-0.69359 z"
       id="path1" />
  </g>
</svg>
