<svg id="CENTRUMURSYNOW" width="500" height="153.74556" viewBox="0 0 500 153.74556" version="1.1" xml:space="preserve" xmlns:xlink="http://www.w3.org/1999/xlink" xmlns="http://www.w3.org/2000/svg" xmlns:svg="http://www.w3.org/2000/svg">
	<path id="CENTRUMURSYNOW" style="fill:#000000;stroke:#000000;stroke-width:0" d="m 141.49193,150.7241 c 5.73497,-2.86579 8.76484,-6.425 11.62428,-13.65515 1.67562,-4.23685 1.84648,-6.23856 2.13609,-25.02479 0.17313,-11.23075 -0.008,-21.666249 -0.40311,-23.189974 -0.98606,-3.805347 -4.17868,-6.08736 -7.49683,-5.35858 -4.4073,0.968014 -4.76374,2.710667 -5.10141,24.941534 -0.2964,19.5141 -0.35711,20.13188 -2.36494,24.06697 -4.53646,8.89085 -16.21805,9.28586 -20.72216,0.7007 -1.52266,-2.90228 -1.70947,-5.05969 -2.08077,-24.02879 -0.35403,-18.087179 -0.59788,-21.130076 -1.84593,-23.034239 -3.10635,-4.739365 -9.13311,-3.488413 -11.06223,2.296136 -1.65188,4.953178 -0.91508,41.683163 0.95117,47.417153 2.2759,6.99259 6.11146,11.7514 11.89714,14.76087 4.61626,2.40118 5.7714,2.65145 12.23827,2.65145 6.36178,0 7.69617,-0.27749 12.23043,-2.54329 z m 258.07329,1.85402 c 12.10112,-3.59363 20.06223,-15.01221 21.25554,-30.4865 1.36594,-17.71315 -6.3443,-32.862773 -19.1888,-37.703431 -6.56742,-2.475039 -17.5059,-1.983592 -23.40386,1.051498 -10.59085,5.450034 -16.65034,17.297203 -16.67971,32.611493 -0.0408,21.43255 11.43564,35.55553 29.00575,35.69374 2.723,0.0215 6.77799,-0.50363 9.01108,-1.1668 z m -12.51205,-13.57033 c -1.44605,-0.4179 -3.92773,-2.09688 -5.51484,-3.73105 -7.61707,-7.84304 -7.12089,-28.27211 0.85678,-35.27661 3.36514,-2.954568 5.75242,-3.663556 10.52469,-3.125647 4.81992,0.543277 8.08218,3.083378 10.61884,8.268157 5.89893,12.05689 2.25617,28.90274 -7.17596,33.18498 -3.75028,1.70266 -5.3635,1.82053 -9.30951,0.68017 z M 203.3836,150.78315 c 1.74644,-1.53058 2.32181,-4.71689 1.42842,-7.91039 -0.39236,-1.40254 -3.79547,-6.3984 -7.56245,-11.10191 l -6.84906,-8.55184 4.79066,-2.29929 c 3.78339,-1.81586 5.26452,-3.10538 7.04433,-6.1331 1.95874,-3.33208 2.25182,-4.68791 2.23954,-10.36043 -0.0111,-5.139952 -0.39609,-7.246546 -1.81194,-9.915002 -4.33267,-8.165824 -12.06023,-11.205638 -27.35097,-10.759134 -14.33936,0.418724 -13.1907,-2.298273 -13.49192,31.913496 -0.13521,15.35625 -0.0265,29.11506 0.24152,30.57512 0.83768,4.56288 4.83339,6.98133 8.93436,5.40765 2.6173,-1.00436 3.3057,-3.93425 3.7153,-15.8127 l 0.40791,-11.82952 9.08303,12.64535 c 9.00749,12.5402 10.99135,14.8773 13.35228,15.72965 1.59631,0.57631 4.14548,-0.12251 5.82899,-1.59795 z m -28.67221,-44.72241 v -8.747439 l 6.11155,0.30862 c 7.37948,0.372647 9.35163,1.837305 9.97997,7.411839 0.36051,3.19849 0.11099,3.98142 -2.03391,6.38199 -2.26239,2.53204 -2.87819,2.76074 -8.25123,3.06435 l -5.80638,0.32808 z m 65.68496,44.69285 c 7.13066,-3.70397 11.02825,-9.82439 11.63452,-18.26982 0.47752,-6.65179 -0.71337,-10.51596 -4.54952,-14.76211 -3.19264,-3.53387 -6.18403,-5.2641 -14.53665,-8.40801 -3.04947,-1.14783 -6.20221,-2.68218 -7.0061,-3.40969 -2.25272,-2.03868 -1.90033,-6.317138 0.68798,-8.353106 2.54447,-2.001482 5.74245,-2.125154 11.3071,-0.437284 6.98591,2.118953 10.20236,0.352683 10.20236,-5.602505 0,-7.174331 -12.47374,-11.542542 -23.55959,-8.250401 -10.66278,3.166511 -16.85438,14.851187 -13.67138,25.800366 1.85325,6.37494 5.60588,9.50154 15.83093,13.18992 7.67182,2.76737 9.7049,4.16518 10.77521,7.40826 0.99427,3.01267 0.51756,4.94457 -1.8764,7.60412 -2.16998,2.41074 -7.14183,2.43487 -14.48355,0.0703 -6.7761,-2.18239 -9.92917,-1.344 -11.37054,3.02337 -1.59051,4.81932 1.37498,8.53262 9.03349,11.31148 5.21845,1.89348 17.14925,1.38772 21.58214,-0.91491 z m 72.80209,-0.75238 c 1.7916,-1.97071 1.83561,-2.468 1.83561,-20.73772 0,-10.29522 0.27534,-18.70284 0.61187,-18.68361 0.33653,0.0192 6.30229,8.51772 13.25723,18.88552 6.95493,10.3678 13.68316,19.89727 14.95161,21.1766 2.85573,2.88015 6.89441,3.14803 9.19285,0.60975 1.45585,-1.60767 1.56973,-3.53089 1.79964,-30.38965 0.13493,-15.77034 0.0228,-29.886978 -0.24948,-31.370303 -0.27225,-1.483324 -1.20866,-3.410721 -2.0811,-4.283104 -2.15314,-2.153186 -6.59093,-2.08637 -8.59819,0.129448 -1.42118,1.568864 -1.57513,3.383163 -1.79932,21.211569 -0.13485,10.72278 -0.50198,19.48057 -0.81582,19.46177 -0.31385,-0.0188 -6.62821,-9.05425 -14.03185,-20.07875 -7.40365,-11.024502 -14.18534,-20.554328 -15.07041,-21.177377 -2.40989,-1.696444 -6.45299,-1.410284 -8.25824,0.584493 -1.47052,1.624912 -1.55414,3.374083 -1.55414,32.507794 0,32.901 -0.0233,32.70379 4.05082,34.33651 2.31256,0.92679 4.60492,0.18641 6.75892,-2.18294 z m 132.8361,1.77064 c 3.96754,-1.65773 5.09477,-4.66287 10.19444,-27.17753 2.36599,-10.44542 4.55323,-18.7057 4.86055,-18.35616 0.30741,0.34953 2.49497,9.07935 4.86136,19.3996 5.02674,21.92208 5.92766,24.52513 9.04633,26.13788 4.58749,2.37226 10.37507,0.70968 12.04515,-3.46014 0.71875,-1.79438 10.24388,-43.20105 12.75117,-55.430366 1.13751,-5.548211 -2.56073,-9.895538 -7.7636,-9.126252 -3.81849,0.564579 -4.76232,3.423131 -8.72497,26.423608 -2.08289,12.09004 -3.90007,22.13487 -4.03819,22.32183 -0.58731,0.79531 -1.18931,-1.44889 -6.20683,-23.13982 -4.3611,-18.852867 -5.5881,-23.052169 -7.09168,-24.269697 -2.52515,-2.04473 -6.78966,-1.879287 -9.36596,0.363354 -1.8437,1.604908 -2.77489,4.649445 -7.40912,24.224043 -2.91512,12.31363 -5.46573,22.55384 -5.6679,22.75603 -0.62419,0.62417 -0.99286,-1.22784 -4.75946,-23.90508 -3.19349,-19.226995 -3.8805,-22.183022 -5.45146,-23.455096 -4.40205,-3.564595 -10.59085,-0.478125 -10.59085,5.281884 0,4.825982 10.56205,55.318512 12.15741,58.119212 2.43574,4.27598 6.16522,5.37699 11.15361,3.2927 z m -167.69487,-0.44507 c 2.44497,-1.30852 3.23594,-6.02106 3.24082,-19.3087 l 0.005,-12.38374 8.56621,-13.63415 c 9.12982,-14.531222 10.01667,-17.142333 7.06168,-20.791587 -1.86175,-2.299154 -5.95048,-2.475422 -8.29085,-0.357407 -0.91199,0.825326 -3.73663,4.833088 -6.277,8.906133 -2.54038,4.073053 -5.31879,8.425201 -6.17426,9.671441 l -1.55538,2.26591 -6.11296,-9.60837 c -3.36214,-5.284601 -6.79724,-10.312019 -7.63358,-11.172042 -3.06785,-3.154722 -9.38277,-1.095528 -9.79912,3.195335 -0.37663,3.881512 0.46974,5.715856 8.59578,18.629657 l 8.56621,13.61331 v 13.75022 c 0,12.67542 0.13217,13.91826 1.69087,15.89983 1.80593,2.29585 5.2512,2.8579 8.11702,1.32416 z M 394.95962,75.817272 c 6.0156,-5.626898 6.92656,-10.986309 2.2503,-13.239386 -2.96562,-1.428892 -4.76371,-0.362097 -8.33965,4.947875 -3.40829,5.061088 -3.77566,8.835621 -1.04589,10.747623 0.99727,0.698505 2.11438,1.27001 2.48248,1.27001 0.36811,0 2.46185,-1.676758 4.65276,-3.726122 z M 41.508475,67.848895 c 6.616255,-3.387112 8.721013,-9.251228 4.746863,-13.225386 -2.439126,-2.439118 -3.305741,-2.470283 -8.331699,-0.299614 -2.959968,1.278381 -5.171697,1.627327 -8.872512,1.399809 -6.331171,-0.389216 -9.342789,-2.492425 -12.356324,-8.629216 -2.010775,-4.09477 -2.290661,-5.582084 -2.267655,-12.0502 0.02276,-6.405085 0.329456,-7.998621 2.323882,-12.075084 3.846114,-7.861161 9.641325,-10.494634 18.045609,-8.200309 8.339645,2.276678 8.319396,2.276605 10.557069,0.03891 C 49.437872,10.723645 47.547106,5.1721709 40.823497,1.5066167 38.633721,0.31279716 36.281456,0 29.493747,0 22.124849,0 20.43778,0.26150597 17.423502,1.8709498 6.0247086,7.9572413 0.04027344,19.223805 2.6515852e-4,34.672751 -0.03179694,47.052334 2.8424272,55.531592 9.3557647,62.272424 c 5.9875923,6.196738 11.8607323,8.402055 21.3617263,8.021169 5.124511,-0.205434 7.442755,-0.73064 10.790984,-2.444722 z m 195.409905,0.147714 c 1.92285,-2.272403 1.79924,-7.005764 -0.27164,-10.402657 -0.93129,-1.5276 -4.23402,-5.819418 -7.33942,-9.537381 -3.10539,-3.717963 -5.64616,-6.915492 -5.64616,-7.105621 0,-0.190137 1.62871,-0.967713 3.61936,-1.727943 8.0641,-3.079707 12.28166,-11.80125 10.36706,-21.438195 -1.29865,-6.536694 -4.42163,-10.6944221 -10.28695,-13.6954099 -4.68498,-2.39707 -5.09359,-2.4577188 -16.55715,-2.4577188 h -11.75363 l -1.99984,2.3221361 -1.99985,2.322128 0.23244,30.1798636 0.23244,30.179872 1.92599,1.558879 c 2.70505,2.189425 5.96374,1.976053 8.33363,-0.545668 1.85869,-1.977782 2.00239,-2.818576 2.38574,-13.958817 l 0.40791,-11.854262 8.73297,12.223327 c 9.92908,13.897508 12.89596,16.873311 16.07504,16.123449 1.1629,-0.274306 2.75683,-1.257992 3.54206,-2.185982 z M 208.1604,23.751136 v -8.658267 h 4.85659 c 6.09287,0 8.58327,1.118902 10.23428,4.598121 1.65735,3.492606 0.94132,7.671472 -1.74725,10.197247 -1.59619,1.499552 -3.14979,1.945174 -7.67255,2.200733 l -5.67107,0.320441 z m 74.17444,44.274851 c 5.73497,-2.865797 8.76483,-6.425007 11.62427,-13.655157 1.67562,-4.236847 1.84649,-6.238558 2.13609,-25.024785 0.17313,-11.230756 -0.008,-21.666251 -0.40311,-23.1899756 -0.98606,-3.8053466 -4.17868,-6.08736025 -7.49682,-5.35857982 -4.40731,0.96801422 -4.76374,2.71066672 -5.10141,24.94153742 -0.2964,19.514093 -0.35711,20.131872 -2.36495,24.066968 -4.53646,8.890852 -16.21804,9.28586 -20.72215,0.7007 -1.52266,-2.902281 -1.70948,-5.059693 -2.08077,-24.028796 -0.35403,-18.0871749 -0.59788,-21.1300718 -1.84593,-23.034234 -3.10635,-4.7393653 -9.13311,-3.48841324 -11.06224,2.2961356 -1.65187,4.9531774 -0.91507,41.6831644 0.95118,47.4171484 2.27589,6.992597 6.11146,11.751403 11.89714,14.760875 4.61626,2.401182 5.7714,2.651446 12.23827,2.651446 6.36178,0 7.69617,-0.277488 12.23043,-2.543283 z M 102.74712,69.23069 c 3.75724,-1.006481 4.25043,-3.68635 4.25043,-23.095789 0,-9.893824 0.29506,-17.988761 0.65569,-17.988761 0.36063,0 6.63964,8.816693 13.95336,19.592658 7.3137,10.775956 14.07567,20.137599 15.02659,20.80365 2.521,1.765781 6.541,1.5233 8.37794,-0.505341 1.45748,-1.609574 1.56863,-3.528422 1.78703,-30.848942 0.2576,-32.2249688 -0.0427,-34.8789027 -4.10808,-36.30706106 -2.9735,-1.04457984 -6.40424,0.20120806 -7.72101,2.80369576 -0.73233,1.4474119 -1.02854,7.3266783 -1.03713,20.5861503 -0.007,10.208066 -0.28736,18.55161 -0.62389,18.541217 C 132.97152,42.801806 126.8222,34.131668 119.6429,23.54527 112.4636,12.958871 105.55187,3.4221679 104.28351,2.3526073 100.06267,-1.2066688 95.390823,0.64023846 94.356025,6.2771956 94.083726,7.7605203 93.971468,21.763833 94.106569,37.395671 l 0.245622,28.421523 2.289022,1.968123 c 2.420941,2.08154 3.116443,2.246175 6.105907,1.445373 z m 72.07785,-1.035761 c 1.88207,-1.522958 1.93799,-1.955551 2.45163,-18.968034 0.2891,-9.575235 0.56444,-21.172536 0.61187,-25.771774 l 0.0862,-8.362252 h 4.52757 c 7.04509,0 10.15736,-2.161663 10.15736,-7.0549095 0,-5.9105782 -2.86691,-6.8141909 -21.61948,-6.8141909 -19.29536,0 -21.61948,0.8138143 -21.61948,7.5703016 0,4.2250338 2.27134,5.7814898 8.99101,6.1611848 l 5.60784,0.316876 0.247,25.272756 0.24699,25.272756 2.28902,1.967895 c 2.75825,2.371298 5.42946,2.507606 8.02243,0.409391 z m 136.66079,0.360964 c 2.34618,-1.643325 3.10301,-5.279942 5.60841,-26.948568 2.14247,-18.52986 2.57513,-21.344896 3.18402,-20.716462 0.1709,0.176398 2.402,10.047502 4.958,21.935777 2.55599,11.888282 5.14735,22.58215 5.75857,23.764148 1.31732,2.547362 2.66564,3.162653 6.93047,3.162653 5.20442,0 5.95653,-1.815873 11.82341,-28.548491 2.01942,-9.20152 3.8636,-17.59939 4.09815,-18.661927 0.23456,-1.062536 0.59621,-1.762191 0.8036,-1.554791 0.20738,0.207392 1.2864,8.969889 2.39772,19.472209 2.55151,24.111708 2.6583,24.741773 4.61506,27.229408 1.73805,2.209519 5.23061,2.746743 8.04939,1.23816 3.4184,-1.829465 3.34147,-5.005163 -0.81534,-33.653119 -2.16399,-14.914113 -4.29624,-28.0343793 -4.73826,-29.1561448 -2.69273,-6.83333836 -12.78038,-7.2859605 -15.87384,-0.7122436 -0.71222,1.5135023 -3.22057,11.9298984 -5.57415,23.1475534 -2.35351,11.217654 -4.52467,20.681716 -4.82482,21.03125 -0.30014,0.349534 -2.47433,-7.910739 -4.83167,-18.356162 -5.71438,-25.3211429 -5.53245,-24.6874555 -7.8932,-27.4930521 -3.70873,-4.40757563 -10.0098,-4.05707899 -13.50103,0.7509954 -1.07242,1.4769124 -2.73539,9.7674527 -6.0281,30.0523497 -3.8414,23.665148 -4.4048,28.444007 -3.63014,30.791271 1.42554,4.319417 5.79838,5.806511 9.48375,3.225186 z M 81.548348,68.439017 C 87.031982,67.342289 89.26866,61.615591 85.858925,57.402419 84.42916,55.635765 83.534856,55.442675 75.049181,55.068511 l -9.251024,-0.407915 v -6.526635 -6.526636 l 8.336879,-0.407914 C 83.896382,40.7218 85.340988,39.86783 85.340988,34.57508 c 0,-5.27499 -2.059676,-6.42894 -11.474914,-6.42894 h -7.660002 v -6.434104 -6.434104 l 8.564079,-0.317023 C 82.267962,14.683363 83.55796,14.42016 85.131189,12.846931 87.556218,10.421911 87.546305,5.8848143 85.11063,3.4491718 83.378567,1.7171007 82.662603,1.6316833 69.87728,1.6316833 c -12.872769,0 -13.491086,0.07522 -15.274139,1.8579945 L 52.744862,5.3476722 V 35.017039 c 0,27.748031 0.09797,29.77766 1.512898,31.341483 0.832097,0.919651 2.30059,1.826177 3.263318,2.014495 2.845833,0.556656 21.320217,0.607401 24.027245,0.066 z" />
</svg>
