<svg
   version="1.1"
   id="Layer_1"
   x="0px"
   y="0px"
   viewBox="-200.7 394.4 128.2134 38.476199"
   xml:space="preserve"
   width="128.21339"
   height="38.4762"
   xmlns="http://www.w3.org/2000/svg"
   xmlns:svg="http://www.w3.org/2000/svg"><defs
   id="defs5" />
<style
   type="text/css"
   id="style1">
	.st0{fill:#41474B;}
</style>
<g
   id="g5"
   style="fill:#000000"
   transform="translate(-9.4866107,-6.8684077)">
	<path
   class="st0"
   d="m -119.2,426.6 h -8.4 l -2.1,4.7 h -3.2 l 9.7,-20.5 9.3,20.5 h -3.2 z m -1.2,-2.7 -2.9,-6.6 -3,6.6 z"
   id="path1"
   style="fill:#000000" />
	<path
   class="st0"
   d="m -105.5,412 v 16.6 h 5.7 v 2.7 h -8.7 V 412 Z"
   id="path2"
   style="fill:#000000" />
	<path
   class="st0"
   d="m -84.5,414.8 h -6.8 v 4.6 h 6.6 v 2.7 h -6.6 v 9.2 h -2.9 V 412 h 9.8 z"
   id="path3"
   style="fill:#000000" />
	<path
   class="st0"
   d="m -68.3,426.6 h -8.4 l -2.2,4.7 H -82 l 9.7,-20.5 9.3,20.5 h -3.2 z m -1.2,-2.7 -2.9,-6.6 -3,6.6 z"
   id="path4"
   style="fill:#000000" />
	<path
   class="st0"
   d="m -159.2,434.5 c -12.9,11.8 -32.6,2.3 -32,-14.7 0.3,-8.3 6.2,-16 13.7,-17.9 6.3,-1.6 11.3,0 15.4,3 4.2,3.1 6.7,7.2 9.9,11.3 3,-3.4 5,-5.7 8.5,-9.7 1.5,-1.7 1.8,-2.2 3.3,-4 0.5,-0.6 1.4,-1.4 2.1,-0.9 0.9,0.6 0.7,1.6 0.2,2.3 -2,3.4 -2.5,4 -4.3,6.7 -2.4,3.6 -3.9,5.8 -5.9,9.2 -0.7,1.4 -0.7,1.4 0.3,2.7 1.9,2.6 4.1,5.6 5.9,8.3 0.4,0.6 0.8,1.2 1.1,1.9 0.9,2.2 0.1,4.6 -1.9,5.5 -2.1,1 -4.6,0.2 -5.7,-2 -1.1,-2.1 -2.2,-4.2 -3.3,-6.3 -0.3,-0.6 -0.8,-1.5 -1.2,-2.3 -2,2.4 -3.4,4.5 -6.1,6.9 z m -21.5,-15.8 c 0,2.9 1.4,6.2 3.1,7.9 3.4,3.3 8.4,3.6 11.4,2.3 1.6,-0.7 3,-1.6 4.1,-2.5 1.8,-1.4 3.1,-2.9 4.9,-4.8 0.4,-0.4 0.7,-0.8 0.5,-1.3 -0.7,-1.8 -3.1,-6.7 -5.2,-9.2 -1.6,-1.9 -4.1,-4.4 -7.8,-4.5 -6.5,0 -11,5.3 -11,12.1 z"
   id="path5"
   style="fill:#000000" />
</g>
</svg>
