<svg
   version="1.1"
   id="Layer_1"
   x="0px"
   y="0px"
   width="971.20984"
   viewBox="0 0 971.20984 282.53018"
   enable-background="new 0 0 1102 400"
   xml:space="preserve"
   height="282.53018"
   xmlns="http://www.w3.org/2000/svg"
   xmlns:svg="http://www.w3.org/2000/svg"><defs
   id="defs28" />

<path
   fill="#FBB613"
   opacity="1"
   stroke="none"
   d="m 125.70562,272.91061 c -19.49452,3.11847 -38.51021,6.3035 -57.58097,9.11515 -4.7202,0.69586 -9.66448,0.612 -14.42419,0.11129 -5.8736,-0.61789 -7.21694,-2.90054 -6.26265,-8.89688 3.9329,-24.7127 6.07618,-49.55319 6.06872,-74.6015 -0.0104,-34.90237 -6.33495,-68.86862 -14.47566,-102.605991 -0.70743,-2.93179 -2.59616,-3.1793 -5.06878,-3.639 -9.6218,-1.78881 -19.23265,-3.69678 -28.7341,-6.02375 C 3.2381,85.882579 1.73007,83.427699 0,81.879489 c 1.7211,-1.79018 3.3175,-4.94622 5.18645,-5.11684 5.82366,-0.53169 11.78013,-0.23515 17.62656,0.33771 3.66364,0.35899 7.22196,1.79278 11.82729,3.00818 -1.03439,-4.0848 -1.62681,-6.96824 -2.50836,-9.76038 -0.98246,-3.11175 -0.1459,-5.2479 2.91904,-6.34614 6.65449,-2.38444 13.34478,-2.52755 20.02445,-0.0734 4.3081,1.58281 4.81496,5.61772 5.85702,9.26213 2.19602,7.68012 2.17792,7.74549 9.97275,6.89505 8.76413,-0.95616 17.51206,-2.06005 26.27368,-3.04029 3.16738,-0.35436 4.46804,-1.64525 5.29319,-5.13463 3.47607,-14.69963 6.84567,-29.50418 11.71458,-43.772 4.75568,-13.93598 14.40305,-23.7398898 29.53946,-27.1052698 17.05801,-3.79261 33.28159,2.96779 41.57681,18.3732198 3.60179,6.68908 5.90522,14.08098 8.73888,21.17742 0.72551,1.8169 1.22494,3.72407 2.00882,6.14821 9.01944,-3.08285 17.65123,-5.95446 26.22664,-8.98561 9.25834,-3.27256 18.30681,-7.27067 27.74888,-9.84415 6.08588,-1.65872 12.71662,-1.73984 19.10111,-1.72342 3.83764,0.01 5.86441,2.77587 6.30368,7.00465 2.71686,26.15681 4.60202,52.4605 8.77447,78.391791 6.65928,41.38615 14.8519,82.5265 22.4928,123.75288 1.30963,7.06613 1.05094,8.3407 -5.64752,10.12354 -24.58868,6.54428 -49.01932,13.95184 -73.93036,18.92682 -18.51288,3.6972 -37.65596,4.3872 -56.55731,5.94339 -14.76859,1.21591 -29.59703,1.70495 -44.85739,2.58828 m 5.664,-12.68405 c 15.12459,-0.92822 30.23738,-2.25674 45.37617,-2.70343 34.1765,-1.00839 66.70134,-9.90747 99.07296,-19.78815 2.62671,-0.80175 2.9273,-2.16479 2.42254,-4.42111 -0.87158,-3.89624 -1.61828,-7.82022 -2.44864,-11.72592 -11.3236,-53.26135 -20.811,-106.81647 -25.85782,-161.086251 -0.47073,-5.06219 -1.14102,-10.10583 -1.77661,-15.66502 -2.59643,0.86298 -4.46792,1.48931 -6.34219,2.10731 -35.55275,11.72276 -71.06599,23.56753 -106.68294,35.09182 -10.72729,3.47095 -10.8594,3.06265 -11.05346,14.33925 -0.15903,9.239381 -2.58211,11.720601 -11.8798,11.717211 -2.46666,-9e-4 -4.98828,-0.44875 -7.38612,-1.07106 -3.23097,-0.83855 -5.05852,-2.84873 -4.80466,-6.54154 0.23684,-3.444881 0.0506,-6.918861 0.0506,-10.578001 -11.36619,1.05985 -22.3501,2.08406 -34.15268,3.1846 C 82.31216,149.95272 85.29333,207.321 76.5758,265.13588 c 18.7555,-1.69445 36.30523,-3.27993 54.79379,-4.9093 M 132.6459,43.408239 c -2.1374,8.39925 -4.27479,16.79851 -6.73078,26.4498 17.18309,-5.63179 32.5995,-10.68456 48.38181,-15.85723 -1.29381,-4.20389 -2.44698,-7.98544 -3.62152,-11.76034 -3.07232,-9.8743 -6.51703,-19.55764 -13.59996,-27.45554 -4.0911,-4.56183 -5.13996,-4.63227 -9.47101,-0.11695 -7.59,7.91292 -11.22309,17.91289 -14.95854,28.74026 z"
   id="path2"
   style="fill:#000000" />
<path
   fill="#FEFBFC"
   opacity="1"
   stroke="none"
   d="m 711.95385,100.31467 c 0,2.97264 0,5.46093 0,8.55305 -16.964,0 -33.6736,0 -50.5983,0 0,6.86881 0,13.12888 0,19.79418 19.2063,0 38.2824,0 57.7455,0 0,8.0996 0,15.80865 0,23.79409 -27.8852,0 -55.7804,0 -83.9715,0 0,-36.61737 0,-73.175061 0,-110.059441 27.6859,0 55.398,0 83.4252,0 0,7.6518 0,15.22369 0,23.27328 -18.8988,0 -37.8163,0 -57.0776,0 0,6.69078 0,12.91547 0,19.50433 16.7095,0 33.3244,0 50.4767,0 0,5.114 0,9.88509 0,15.140511 z"
   id="path3"
   style="fill:#000000" />
<path
   fill="#FFFDFD"
   opacity="1"
   stroke="none"
   d="m 934.18405,140.41765 c -1.4597,-3.56652 -2.8107,-6.76554 -4.21,-10.07892 -14.007,0 -27.8301,-0.0755 -41.6492,0.12259 -1.3101,0.0188 -3.218,1.47285 -3.7866,2.73782 -2.7232,6.05802 -4.9849,12.32227 -7.6464,18.41016 -0.5498,1.25775 -2.0774,2.92782 -3.1984,2.96197 -8.2556,0.25153 -16.5224,0.13597 -25.565,0.13597 3.1655,-7.42591 6.0189,-14.11102 8.8656,-20.79901 12.4283,-29.19943 24.918,-58.373071 37.1949,-87.636031 1.4048,-3.34862 3.1567,-4.45823 6.6524,-4.26965 5.3165,0.2868 10.6723,-0.12728 15.984,0.20068 1.5584,0.0962 3.8446,1.34398 4.4121,2.66096 15.4543,35.8563 30.7296,71.789791 46.0211,107.716181 0.1839,0.43207 0.1882,0.94061 0.4079,2.12086 -8.768,0 -17.3293,0.0931 -25.8826,-0.12629 -0.9886,-0.0254 -2.2839,-1.62052 -2.8324,-2.77511 -1.709,-3.59738 -3.1275,-7.3328 -4.7674,-11.38218 m -27.1884,-62.331031 c -3.8012,9.25203 -7.6024,18.50408 -11.4826,27.948351 8.6282,0 16.457,0 24.6733,0 -3.8419,-9.425201 -7.4971,-18.447231 -11.2382,-27.433531 -0.2251,-0.54079 -1.1361,-0.79608 -1.9525,-0.51482 z"
   id="path4"
   style="fill:#000000" />
<path
   fill="#FFFDFD"
   opacity="1"
   stroke="none"
   d="m 469.45685,106.03995 c 6.9194,16.20402 13.6772,32.06053 20.7577,48.67413 -9.2265,0 -17.6608,0.13814 -26.0803,-0.15421 -1.2136,-0.0421 -2.8333,-1.94488 -3.4496,-3.34544 -3.0073,-6.83496 -5.7377,-13.79172 -8.6351,-20.87402 -14.1407,0 -28.1257,-0.079 -42.1062,0.13753 -1.2296,0.019 -2.9573,1.73747 -3.5517,3.06918 -2.6397,5.91426 -4.8576,12.01588 -7.4539,17.95102 -0.5593,1.27879 -2.0265,3.03189 -3.1221,3.06593 -8.286,0.25748 -16.5836,0.14069 -25.4626,0.14069 0.8382,-2.23394 1.4022,-3.93032 2.1004,-5.56954 14.5853,-34.24197 29.2348,-68.456711 43.7034,-102.747851 1.3751,-3.25924 2.9604,-4.62847 6.5667,-4.38622 6.4403,0.43261 14.3025,-1.78384 18.9691,1.18957 4.435,2.82586 5.6182,10.84189 8.098,16.63283 6.5401,15.2731 13.008,30.57716 19.6662,46.216401 m -36.9183,-23.511491 c -0.8305,-1.94678 -1.6609,-3.89356 -2.7331,-6.40699 -2.3035,5.52643 -4.3558,10.37154 -6.3443,15.24268 -1.9699,4.82547 -3.8754,9.677191 -5.8742,14.679921 8.5449,0 16.3758,0 24.5895,0 -3.2,-7.886071 -6.2373,-15.371131 -9.6379,-23.515611 z"
   id="path5"
   style="fill:#000000" />
<path
   fill="#FFFFFF"
   opacity="1"
   stroke="none"
   d="m 547.34615,82.398879 c 0.014,15.14868 0.026,29.797351 0.053,44.446001 6e-4,0.30589 0.1692,0.61148 0.3951,1.37726 17.5871,0 35.3079,0 53.3538,0 0,8.31071 0,16.1615 0,24.2536 -26.7157,0 -53.2541,0 -80.0464,0 0,-36.76729 0,-73.297241 0,-110.109811 8.5857,0 17.0141,0 26.245,0 0,13.07831 0,26.30562 0,40.03295 z"
   id="path6"
   style="fill:#000000" />
<path
   fill="#FFFDFD"
   opacity="1"
   stroke="none"
   d="m 794.35785,123.29108 c 0.7264,-4.43934 1.754,-8.51711 1.7829,-12.60195 0.1598,-22.614621 0.077,-45.230961 0.077,-68.228361 9.0981,0 17.9389,0 27.2657,0 0,2.73013 0,5.34713 0,7.96413 -2e-4,20.47236 0.059,40.94502 -0.048,61.416821 -0.023,4.46829 -0.2343,9.0087 -1.0513,13.38669 -2.9831,15.98459 -12.727,25.35684 -28.6166,28.61345 -18.2122,3.73269 -37.5293,-3.13033 -47.1658,-17.05428 5.4074,-5.99338 10.8434,-12.01848 16.1337,-17.88214 4.2349,3.15683 7.9023,6.60883 12.1844,8.92421 7.523,4.06792 14.8601,2.18275 19.4379,-4.53857 z"
   id="path7"
   style="fill:#000000" />
<path
   fill="#FCF4F4"
   opacity="1"
   stroke="none"
   d="m 829.35315,205.40634 c 0,-4.98386 0,-9.4693 0,-14.80324 4.2769,0 8.374,-0.24485 12.4086,0.14937 1.2082,0.11806 2.5794,1.83379 3.3009,3.13614 4.6427,8.38016 9.1256,16.84882 14.0952,26.09653 0,-10.05704 0,-19.3274 0,-28.9946 3.9715,0 7.5234,0 11.4483,0 0,16.80606 0,33.67142 0,51.21203 -3.4535,0 -6.9293,0.31104 -10.2995,-0.15036 -1.3819,-0.18923 -2.9708,-1.80773 -3.7227,-3.1824 -5.0774,-9.28415 -9.9556,-18.67718 -15.4748,-29.1264 0,11.33416 0,21.58883 0,32.14639 -4.0894,0 -7.6386,0 -11.756,0 0,-12.12341 0,-24.05423 0,-36.48346 z"
   id="path8"
   style="fill:#000000" />
<path
   fill="#FDF7F7"
   opacity="1"
   stroke="none"
   d="m 410.57215,228.7977 c -1.7052,8.05975 -7.2514,11.67535 -14.2797,12.36694 -7.3837,0.7265 -14.8943,0.1626 -22.6397,0.1626 0,-16.46207 0,-32.71576 0,-49.42751 8.5412,-1.25743 17.0635,-2.26132 25.5754,0.0792 4.9568,1.36302 8.7145,4.29532 9.7326,9.6424 1.0304,5.41153 -1.4962,9.32409 -6.201,12.48022 5.4568,3.32883 8.9539,7.63825 7.8124,14.69611 m -24.7868,-2.78656 c 0,2.074 0,4.14798 0,6.17059 8.364,0.44638 12.2188,-1.62558 12.1891,-6.12512 -0.03,-4.49027 -4.2681,-6.60645 -11.9598,-5.73767 -0.074,1.5412 -0.1519,3.14804 -0.2293,5.6922 m 10.9363,-20.26929 c -1.3719,-5.27985 -3.4642,-6.23712 -10.655,-4.82861 0,3.05951 0,6.12829 0,9.60867 4.1007,-0.41226 8.3805,0.86792 10.655,-4.78006 z"
   id="path9"
   style="fill:#000000" />
<path
   fill="#FCF4F5"
   opacity="1"
   stroke="none"
   d="m 545.35505,231.35922 c 0,-13.63232 0,-26.77048 0,-40.33758 10.7487,0 21.2817,0 32.1922,0 0,3.14067 0,6.37443 0,10.22497 -6.211,0 -12.5848,0 -19.1417,0 0,3.20304 0,5.81256 0,8.88999 5.8347,0 11.7481,0 18.0034,0 0,3.68658 0,6.9169 0,10.7051 -5.9192,0 -11.8119,0 -17.9515,0 0,3.64789 0,6.7529 0,10.43573 6.6003,0 13.3139,0 20.2604,0 0,3.81095 0,7.05066 0,10.61023 -11.0592,0 -21.9298,0 -33.3628,0 0,-3.47128 0,-6.75277 0,-10.52844 z"
   id="path10"
   style="fill:#000000" />
<path
   fill="#FDF8F9"
   opacity="1"
   stroke="none"
   d="m 732.63925,216.76395 c 2.6659,-8.93848 5.1713,-17.50715 7.6593,-26.01658 5.2536,0 10.0569,0 15.3761,0 5.0846,16.91776 10.1726,33.84699 15.5214,51.64429 -4.8178,-0.2832 -10.0695,0.905 -12.8865,-1.18634 -2.716,-2.01639 -2.9182,-7.41891 -4.3113,-11.59305 -4.029,0 -8.1169,0 -12.5794,0 -1.1395,3.96708 -2.3163,8.06433 -3.5481,12.35291 -4.0187,0 -7.9632,0 -12.5255,0 2.4145,-8.40512 4.7739,-16.61826 7.294,-25.20123 m 12.3029,-3.21503 c -0.4796,1.83035 -0.9592,3.66067 -1.4928,5.69693 3.0554,0 5.6654,0 8.6252,0 -1.4522,-5.19208 -2.8344,-10.13406 -4.4756,-16.00192 -0.9951,3.81161 -1.741,6.66861 -2.6568,10.30499 z"
   id="path11"
   style="fill:#000000" />
<path
   fill="#FDF7F8"
   opacity="1"
   stroke="none"
   d="m 955.06385,225.61652 c 0,5.613 0,10.75488 0,16.23745 -4.0914,0 -7.8455,0 -11.8474,0 -2.0702,-8.63357 1.8256,-18.04989 -3.3681,-26.59732 -4.6396,-7.63553 -8.3304,-15.84753 -12.8754,-24.64863 4.5538,0 8.4524,-0.24057 12.2874,0.14778 1.1383,0.11529 2.4919,1.82177 3.0694,3.1042 2.3626,5.24605 4.4633,10.61003 7.008,16.77223 2.425,-5.93057 4.6719,-10.8583 6.4376,-15.9528 1.094,-3.15616 2.6468,-4.56635 6.101,-4.14871 2.7892,0.33723 5.6517,0.0683 9.3335,0.0683 -1.873,3.58221 -3.4806,6.74043 -5.164,9.85779 -2.9235,5.41394 -6.0962,10.7055 -8.755,16.2449 -1.237,2.57712 -1.5145,5.61478 -2.227,8.91477 z"
   id="path12"
   style="fill:#000000" />
<path
   fill="#FCF1F2"
   opacity="1"
   stroke="none"
   d="m 652.37925,231.24167 c 5.6314,0.005 10.7811,0.005 16.2644,0.005 0,3.67618 0,7.05197 0,10.70099 -10.3097,0 -20.4069,0 -31.2987,0 0,-8.43048 10e-5,-16.85083 10e-5,-25.27118 0,-8.46845 -10e-5,-16.93686 -10e-5,-25.74701 4.1398,0 7.8922,0 12.4624,0 0,2.98759 0,6.07803 0,9.16849 3e-4,8.99731 -0.089,17.99642 0.094,26.99005 0.028,1.39602 1.2998,2.76681 2.478,4.15396 z"
   id="path13"
   style="fill:#000000" />
<path
   fill="#FCF2F2"
   opacity="1"
   stroke="none"
   d="m 471.34935,239.03018 c 0,-16.25357 0,-32.03982 0,-48.13417 4.5551,0 8.6532,0 13.6302,0 0,8.29506 10e-5,16.70247 10e-5,25.10991 0,8.47711 -10e-5,16.95425 -10e-5,26.18555 -4.0545,0 -7.818,0.14492 -11.5521,-0.12195 -0.7489,-0.0535 -1.3859,-1.67401 -2.0763,-3.03934 z"
   id="path14"
   style="fill:#000000" />









<path
   fill="#FBB413"
   opacity="1"
   stroke="none"
   d="m 124.32451,212.29321 c 22.05585,12.29462 44.7047,14.04718 67.58294,4.52677 14.69906,-6.11683 28.84024,-13.62717 43.00627,-20.9486 6.58117,-3.40132 12.8518,-2.87278 19.22534,-0.4062 3.98193,1.54104 4.22015,4.25555 0.5343,6.43863 -31.08273,18.40967 -62.99107,34.23504 -100.71403,31.5264 -21.26583,-1.52701 -40.56266,-8.56589 -58.15282,-20.45234 -3.68274,-2.48858 -3.58163,-5.05862 0.55746,-6.95224 6.21547,-2.84353 12.61528,-2.76785 18.7128,0.59482 3.05614,1.68546 5.95015,3.66486 9.24774,5.67276 z"
   id="path24"
   style="fill:#000000" />
<path
   fill="#FBB513"
   opacity="1"
   stroke="none"
   d="m 189.398,157.36783 c 2.92188,0.17763 5.43285,0.19127 7.87389,0.61136 4.12397,0.7097 6.53274,3.27516 6.70007,7.50294 0.20967,5.29808 0.22391,10.60535 0.24618,15.90897 0.0169,4.00853 -2.4367,6.09987 -6.01699,6.87028 -2.5799,0.55515 -5.28632,1.00395 -7.89704,0.847 -9.15605,-0.55044 -10.30272,-2.17021 -9.60507,-11.25197 0.25255,-3.28735 -0.18266,-6.64328 -0.47089,-9.95337 -0.74034,-8.50265 0.003,-9.4423 9.16985,-10.53521 z"
   id="path25"
   style="fill:#000000" />
<path
   fill="#FBB513"
   opacity="1"
   stroke="none"
   d="m 134.8454,184.52804 c 0.65506,-5.17692 1.29155,-9.95027 1.81087,-14.73632 0.37849,-3.4881 2.45171,-5.34436 5.65552,-6.08042 1.77402,-0.40754 3.60615,-0.65583 5.42453,-0.76126 10.99783,-0.6376 13.69452,2.23671 12.19397,12.90691 -0.20812,1.47986 -0.49501,2.94874 -0.69702,4.4293 -0.54772,4.01439 0.17225,8.81095 -5.09681,10.2882 -6.0444,1.69462 -12.20164,2.0511 -17.82066,-1.36055 -1.00891,-0.61257 -1.0508,-2.81784 -1.4704,-4.68586 z"
   id="path26"
   style="fill:#000000" />
</svg>
