<svg
   version="1.1"
   id="Layer_1"
   x="0px"
   y="0px"
   width="1070273.2"
   viewBox="0 0 1070273.2 113012.08"
   enable-background="new 0 0 1102 400"
   xml:space="preserve"
   height="113012.08"
   xmlns="http://www.w3.org/2000/svg"
   xmlns:svg="http://www.w3.org/2000/svg"><defs
   id="defs28" />

<path
   fill="#FBB613"
   opacity="1"
   stroke="none"
   d="m -36028.486,-22709.971 c -19.495,3.119 -38.51,6.304 -57.581,9.116 -4.72,0.695 -9.665,0.612 -14.424,0.111 -5.874,-0.618 -7.217,-2.901 -6.263,-8.897 3.933,-24.713 6.076,-49.553 6.069,-74.602 -0.01,-34.902 -6.335,-68.868 -14.476,-102.606 -0.707,-2.931 -2.596,-3.179 -5.069,-3.639 -9.621,-1.788 -19.232,-3.696 -28.734,-6.023 -1.99,-0.488 -3.498,-2.942 -5.228,-4.491 1.721,-1.79 3.318,-4.946 5.187,-5.117 5.823,-0.531 11.78,-0.235 17.626,0.338 3.664,0.359 7.222,1.793 11.828,3.008 -1.035,-4.084 -1.627,-6.968 -2.509,-9.76 -0.982,-3.112 -0.146,-5.248 2.919,-6.346 6.655,-2.385 13.345,-2.528 20.025,-0.07 4.308,1.583 4.815,5.618 5.857,9.263 2.196,7.68 2.178,7.745 9.972,6.895 8.765,-0.957 17.513,-2.06 26.274,-3.041 3.168,-0.354 4.468,-1.645 5.293,-5.134 3.476,-14.7 6.846,-29.504 11.715,-43.772 4.756,-13.936 14.403,-23.74 29.539,-27.106 17.058,-3.792 33.282,2.968 41.577,18.374 3.602,6.689 5.905,14.081 8.739,21.177 0.726,1.817 1.225,3.724 2.009,6.148 9.019,-3.083 17.651,-5.954 26.227,-8.985 9.258,-3.273 18.306,-7.271 27.748,-9.844 6.086,-1.659 12.717,-1.74 19.101,-1.724 3.838,0.01 5.865,2.776 6.304,7.005 2.717,26.157 4.602,52.46 8.775,78.392 6.659,41.386 14.852,82.526 22.492,123.752 1.31,7.067 1.051,8.341 -5.647,10.124 -24.589,6.544 -49.019,13.952 -73.93,18.927 -18.513,3.697 -37.656,4.387 -56.558,5.943 -14.768,1.216 -29.597,1.705 -44.857,2.588 m 5.664,-12.684 c 15.124,-0.928 30.237,-2.256 45.376,-2.703 34.177,-1.008 66.701,-9.908 99.073,-19.788 2.627,-0.802 2.927,-2.165 2.423,-4.421 -0.872,-3.897 -1.619,-7.821 -2.449,-11.726 -11.324,-53.262 -20.811,-106.817 -25.858,-161.086 -0.471,-5.063 -1.141,-10.106 -1.777,-15.665 -2.596,0.862 -4.467,1.489 -6.342,2.107 -35.552,11.723 -71.066,23.567 -106.683,35.092 -10.727,3.471 -10.859,3.062 -11.053,14.339 -0.159,9.239 -2.582,11.72 -11.88,11.717 -2.467,0 -4.988,-0.449 -7.386,-1.071 -3.231,-0.839 -5.059,-2.849 -4.805,-6.541 0.237,-3.445 0.05,-6.919 0.05,-10.578 -11.366,1.059 -22.35,2.084 -34.153,3.184 16.405,56.867 19.387,114.235 10.669,172.05 18.756,-1.695 36.305,-3.28 54.794,-4.91 m 1.276,-216.818 c -2.137,8.399 -4.275,16.799 -6.731,26.45 17.183,-5.632 32.6,-10.685 48.382,-15.857 -1.294,-4.204 -2.447,-7.986 -3.621,-11.761 -3.073,-9.874 -6.517,-19.557 -13.6,-27.455 -4.091,-4.562 -5.14,-4.633 -9.471,-0.117 -7.59,7.913 -11.223,17.913 -14.959,28.74 z"
   id="path2"
   style="fill:#000000" />
<path
   fill="#FEFBFC"
   opacity="1"
   stroke="none"
   d="m -35442.238,-22882.567 c 0,2.973 0,5.461 0,8.554 -16.964,0 -33.673,0 -50.598,0 0,6.868 0,13.128 0,19.794 19.206,0 38.282,0 57.745,0 0,8.099 0,15.808 0,23.794 -27.885,0 -55.78,0 -83.971,0 0,-36.618 0,-73.175 0,-110.06 27.686,0 55.398,0 83.425,0 0,7.652 0,15.224 0,23.274 -18.899,0 -37.816,0 -57.078,0 0,6.69 0,12.915 0,19.504 16.71,0 33.325,0 50.477,0 0,5.114 0,9.885 0,15.14 z"
   id="path3"
   style="fill:#000000" />
<path
   fill="#FFFDFD"
   opacity="1"
   stroke="none"
   d="m -35220.008,-22842.464 c -1.459,-3.566 -2.81,-6.765 -4.21,-10.078 -14.007,0 -27.83,-0.08 -41.649,0.122 -1.31,0.02 -3.218,1.473 -3.786,2.738 -2.724,6.058 -4.985,12.322 -7.647,18.41 -0.55,1.258 -2.077,2.928 -3.198,2.962 -8.256,0.252 -16.523,0.136 -25.565,0.136 3.165,-7.426 6.019,-14.111 8.865,-20.799 12.429,-29.199 24.918,-58.373 37.195,-87.636 1.405,-3.349 3.157,-4.458 6.653,-4.27 5.316,0.287 10.672,-0.127 15.984,0.201 1.558,0.1 3.844,1.344 4.412,2.661 15.454,35.856 30.729,71.79 46.021,107.716 0.184,0.432 0.188,0.941 0.408,2.121 -8.768,0 -17.33,0.09 -25.883,-0.126 -0.989,-0.03 -2.284,-1.621 -2.832,-2.775 -1.709,-3.598 -3.128,-7.333 -4.768,-11.383 m -27.188,-62.331 c -3.801,9.252 -7.603,18.504 -11.483,27.949 8.628,0 16.457,0 24.674,0 -3.842,-9.425 -7.497,-18.447 -11.239,-27.434 -0.225,-0.541 -1.136,-0.796 -1.952,-0.515 z"
   id="path4"
   style="fill:#000000" />
<path
   fill="#FFFDFD"
   opacity="1"
   stroke="none"
   d="m -35684.735,-22876.841 c 6.919,16.204 13.677,32.06 20.758,48.674 -9.227,0 -17.661,0.138 -26.08,-0.154 -1.214,-0.04 -2.834,-1.945 -3.45,-3.346 -3.007,-6.835 -5.738,-13.791 -8.635,-20.874 -14.141,0 -28.126,-0.08 -42.106,0.138 -1.23,0.02 -2.958,1.737 -3.552,3.069 -2.64,5.914 -4.858,12.016 -7.454,17.951 -0.559,1.279 -2.027,3.032 -3.122,3.066 -8.286,0.257 -16.584,0.141 -25.463,0.141 0.838,-2.234 1.403,-3.931 2.101,-5.57 14.585,-34.242 29.235,-68.457 43.703,-102.748 1.375,-3.259 2.961,-4.628 6.567,-4.386 6.44,0.433 14.302,-1.784 18.969,1.19 4.435,2.825 5.618,10.841 8.098,16.632 6.54,15.273 13.008,30.578 19.666,46.217 m -36.918,-23.512 c -0.831,-1.947 -1.661,-3.893 -2.733,-6.407 -2.304,5.527 -4.356,10.372 -6.345,15.243 -1.969,4.825 -3.875,9.677 -5.874,14.68 8.545,0 16.376,0 24.59,0 -3.2,-7.886 -6.238,-15.371 -9.638,-23.516 z"
   id="path5"
   style="fill:#000000" />
<path
   fill="#FFFFFF"
   opacity="1"
   stroke="none"
   d="m -35606.846,-22900.482 c 0.01,15.148 0.03,29.797 0.05,44.446 0,0.306 0.169,0.611 0.395,1.377 17.587,0 35.308,0 53.354,0 0,8.311 0,16.161 0,24.254 -26.716,0 -53.254,0 -80.047,0 0,-36.768 0,-73.298 0,-110.11 8.586,0 17.015,0 26.245,0 0,13.078 0,26.305 0,40.033 z"
   id="path6"
   style="fill:#000000" />
<path
   fill="#FFFDFD"
   opacity="1"
   stroke="none"
   d="m -35359.834,-22859.59 c 0.726,-4.439 1.754,-8.517 1.783,-12.602 0.16,-22.615 0.08,-45.231 0.08,-68.228 9.098,0 17.938,0 27.265,0 0,2.73 0,5.347 0,7.964 0,20.472 0.06,40.945 -0.05,61.417 -0.02,4.468 -0.235,9.008 -1.052,13.386 -2.983,15.985 -12.727,25.357 -28.616,28.614 -18.212,3.732 -37.529,-3.131 -47.166,-17.055 5.407,-5.993 10.843,-12.018 16.134,-17.882 4.235,3.157 7.902,6.609 12.184,8.924 7.523,4.068 14.86,2.183 19.438,-4.538 z"
   id="path7"
   style="fill:#000000" />
<path
   fill="#FCF4F4"
   opacity="1"
   stroke="none"
   d="m -35324.839,-22777.475 c 0,-4.984 0,-9.469 0,-14.803 4.277,0 8.374,-0.245 12.409,0.149 1.208,0.118 2.579,1.834 3.301,3.136 4.643,8.381 9.125,16.849 14.095,26.097 0,-10.057 0,-19.327 0,-28.995 3.972,0 7.524,0 11.448,0 0,16.806 0,33.672 0,51.212 -3.453,0 -6.929,0.311 -10.299,-0.15 -1.382,-0.189 -2.971,-1.808 -3.723,-3.182 -5.077,-9.285 -9.955,-18.678 -15.475,-29.127 0,11.334 0,21.589 0,32.147 -4.089,0 -7.638,0 -11.756,0 0,-12.124 0,-24.055 0,-36.484 z"
   id="path8"
   style="fill:#000000" />
<path
   fill="#FDF7F7"
   opacity="1"
   stroke="none"
   d="m -35743.62,-22754.083 c -1.705,8.059 -7.251,11.675 -14.279,12.366 -7.384,0.727 -14.895,0.163 -22.64,0.163 0,-16.462 0,-32.716 0,-49.427 8.541,-1.258 17.064,-2.262 25.575,0.08 4.957,1.363 8.715,4.295 9.733,9.642 1.03,5.412 -1.496,9.324 -6.201,12.48 5.457,3.329 8.954,7.639 7.812,14.696 m -24.786,-2.786 c 0,2.074 0,4.148 0,6.17 8.364,0.447 12.218,-1.625 12.189,-6.125 -0.03,-4.49 -4.268,-6.606 -11.96,-5.737 -0.07,1.541 -0.152,3.148 -0.229,5.692 m 10.936,-20.269 c -1.372,-5.28 -3.464,-6.238 -10.655,-4.829 0,3.06 0,6.128 0,9.609 4.101,-0.413 8.38,0.868 10.655,-4.78 z"
   id="path9"
   style="fill:#000000" />
<path
   fill="#FCF4F5"
   opacity="1"
   stroke="none"
   d="m -35608.837,-22751.522 c 0,-13.632 0,-26.77 0,-40.338 10.749,0 21.282,0 32.193,0 0,3.141 0,6.375 0,10.225 -6.212,0 -12.585,0 -19.142,0 0,3.203 0,5.813 0,8.89 5.835,0 11.748,0 18.003,0 0,3.687 0,6.917 0,10.706 -5.919,0 -11.812,0 -17.951,0 0,3.647 0,6.752 0,10.435 6.6,0 13.314,0 20.26,0 0,3.811 0,7.051 0,10.61 -11.059,0 -21.93,0 -33.363,0 0,-3.471 0,-6.752 0,-10.528 z"
   id="path10"
   style="fill:#000000" />
<path
   fill="#FDF8F9"
   opacity="1"
   stroke="none"
   d="m -35421.553,-22766.117 c 2.666,-8.939 5.172,-17.507 7.66,-26.017 5.253,0 10.057,0 15.376,0 5.084,16.918 10.172,33.847 15.521,51.644 -4.818,-0.283 -10.069,0.905 -12.886,-1.186 -2.716,-2.016 -2.918,-7.419 -4.311,-11.593 -4.03,0 -8.117,0 -12.58,0 -1.139,3.967 -2.316,8.064 -3.548,12.353 -4.019,0 -7.963,0 -12.526,0 2.415,-8.405 4.774,-16.618 7.294,-25.201 m 12.303,-3.215 c -0.479,1.83 -0.959,3.66 -1.492,5.697 3.055,0 5.665,0 8.625,0 -1.452,-5.192 -2.835,-10.134 -4.476,-16.002 -0.995,3.811 -1.741,6.668 -2.657,10.305 z"
   id="path11"
   style="fill:#000000" />
<path
   fill="#FDF7F8"
   opacity="1"
   stroke="none"
   d="m -35199.128,-22757.265 c 0,5.613 0,10.755 0,16.238 -4.091,0 -7.845,0 -11.847,0 -2.07,-8.634 1.825,-18.05 -3.368,-26.598 -4.64,-7.635 -8.331,-15.847 -12.876,-24.648 4.554,0 8.453,-0.241 12.288,0.148 1.138,0.115 2.491,1.821 3.069,3.104 2.363,5.246 4.463,10.61 7.008,16.772 2.425,-5.931 4.672,-10.858 6.438,-15.953 1.094,-3.156 2.646,-4.566 6.101,-4.148 2.789,0.337 5.651,0.07 9.333,0.07 -1.873,3.582 -3.481,6.74 -5.164,9.858 -2.923,5.414 -6.096,10.705 -8.755,16.245 -1.237,2.577 -1.514,5.614 -2.227,8.914 z"
   id="path12"
   style="fill:#000000" />
<path
   fill="#FCF1F2"
   opacity="1"
   stroke="none"
   d="m -35501.812,-22751.64 c 5.631,0 10.781,0 16.264,0 0,3.677 0,7.052 0,10.701 -10.31,0 -20.407,0 -31.299,0 0,-8.43 0,-16.85 0,-25.271 0,-8.468 0,-16.937 0,-25.747 4.14,0 7.892,0 12.463,0 0,2.988 0,6.078 0,9.169 0,8.997 -0.09,17.996 0.09,26.99 0.03,1.396 1.299,2.767 2.477,4.154 z"
   id="path13"
   style="fill:#000000" />
<path
   fill="#FCF2F2"
   opacity="1"
   stroke="none"
   d="m -35682.842,-22743.851 c 0,-16.254 0,-32.04 0,-48.134 4.555,0 8.653,0 13.63,0 0,8.295 0,16.702 0,25.11 0,8.477 0,16.954 0,26.185 -4.055,0 -7.818,0.145 -11.552,-0.122 -0.749,-0.05 -1.386,-1.674 -2.077,-3.039 z"
   id="path14"
   style="fill:#000000" />









<path
   fill="#FBB413"
   opacity="1"
   stroke="none"
   d="m -36029.867,-22770.588 c 22.056,12.295 44.704,14.047 67.583,4.527 14.699,-6.117 28.84,-13.627 43.006,-20.949 6.581,-3.401 12.852,-2.873 19.225,-0.406 3.982,1.541 4.22,4.256 0.535,6.439 -31.083,18.409 -62.991,34.235 -100.714,31.526 -21.266,-1.527 -40.563,-8.566 -58.153,-20.452 -3.683,-2.489 -3.582,-5.059 0.557,-6.953 6.216,-2.843 12.616,-2.767 18.713,0.595 3.056,1.686 5.95,3.665 9.248,5.673 z"
   id="path24"
   style="fill:#000000" />
<path
   fill="#FBB513"
   opacity="1"
   stroke="none"
   d="m -35964.794,-22825.513 c 2.922,0.177 5.433,0.191 7.874,0.611 4.124,0.71 6.533,3.275 6.7,7.503 0.21,5.298 0.224,10.605 0.246,15.909 0.02,4.008 -2.436,6.1 -6.017,6.87 -2.579,0.555 -5.286,1.004 -7.897,0.847 -9.156,-0.55 -10.302,-2.17 -9.605,-11.252 0.253,-3.287 -0.182,-6.643 -0.471,-9.953 -0.74,-8.503 0,-9.442 9.17,-10.535 z"
   id="path25"
   style="fill:#000000" />
<path
   fill="#FBB513"
   opacity="1"
   stroke="none"
   d="m -36019.346,-22798.353 c 0.655,-5.177 1.291,-9.95 1.811,-14.736 0.378,-3.489 2.451,-5.345 5.655,-6.081 1.774,-0.407 3.606,-0.656 5.425,-0.761 10.997,-0.638 13.694,2.237 12.194,12.907 -0.209,1.48 -0.495,2.948 -0.697,4.429 -0.548,4.014 0.172,8.811 -5.097,10.288 -6.045,1.695 -12.202,2.051 -17.821,-1.36 -1.009,-0.613 -1.051,-2.818 -1.47,-4.686 z"
   id="path26"
   style="fill:#000000" />
</svg>
