<svg id="CHATAPOLSKA" width="500" height="114.95895" viewBox="0 0 500 114.95895" version="1.1" xml:space="preserve" xmlns:xlink="http://www.w3.org/1999/xlink" xmlns="http://www.w3.org/2000/svg" xmlns:svg="http://www.w3.org/2000/svg">
	<path id="CHATAPOLSKA" style="fill:#000000;stroke:#000000;stroke-width:0" d="m 43.861417,114.82044 c -0.2971,-0.0429 -1.4153,-0.1823 -2.4848,-0.30973 -7.4315,-0.8854 -14.7307,-3.54624 -20.9595,-7.64056 C 7.4780166,98.36503 -0.01288337,84.33853 1.6633879e-5,68.63993 0.01901663,45.66444 16.055817,27.07808 39.243517,23.15765 c 4.379,-0.74037 9.1075,-1.00283 12.5457,-0.69638 7.4534,0.66433 13.5598,2.31857 19.406,5.25712 6.8256,3.43085 12.1404,8.16351 16.4755,14.67115 0.7646,1.14775 1.357,2.25916 1.3164,2.46979 -0.041,0.21063 -0.5393,0.65653 -1.1084,0.99088 -2.7274,1.60245 -15.4347,8.60553 -15.6146,8.60534 -0.1125,-1.3e-4 -0.4653,-0.46199 -0.784,-1.02637 -0.9903,-1.75415 -2.0555,-3.12295 -3.7948,-4.87691 -5.3454,-5.3902 -13.1887,-7.96526 -22.1727,-7.27954 -4.4214,0.33748 -7.4494,1.20094 -11.276,3.21548 -7.3055,3.84594 -12.0648,10.31426 -13.8527,18.82671 -0.5303,2.52468 -0.5358,8.02343 -0.011,10.63311 2.2286,11.07553 10.4539,19.29158 21.6011,21.57677 11.6134,2.38074 23.4583,-2.0696 29.5146,-11.08912 l 1.125,-1.67537 0.9112,0.46133 c 1.0246,0.51873 12.3176,6.67408 14.2863,7.78688 1.9165,1.08331 1.9269,1.147 0.53,3.24363 -3.5349,5.30579 -7.3534,9.16338 -12.4244,12.55139 -8.1115,5.41948 -17.6139,8.19092 -27.842,8.12029 -2.0204,-0.0139 -3.9164,-0.0605 -4.2135,-0.10339 z m 187.544003,-0.30105 c -13.9027,-2.02569 -25.82,-10.06827 -32.9696,-22.25015 -1.1271,-1.92035 -3.152,-6.31894 -3.6792,-7.99195 -2.4682,-7.83226 -3.116,-14.05977 -2.2275,-21.41185 0.9939,-8.22394 3.991,-15.66871 9.0398,-22.45468 1.7361,-2.33358 6.062,-6.68949 8.4966,-8.55569 8.2471,-6.32171 17.4212,-9.43202 27.8331,-9.43628 7.2604,-0.003 12.9627,1.19678 18.6906,3.93244 4.2847,2.04638 7.1148,4.13581 10.9659,8.09621 l 2.3229,2.38871 v -6.09951 -6.0995 h 9.9688 9.9688 l -0.1607,43.91765 c -0.119,32.52526 -0.2247,43.95774 -0.4074,44.07221 -0.4274,0.26778 -5.3656,0.009 -6.9451,-0.36342 -0.8319,-0.19634 -2.3391,-0.75365 -3.3492,-1.23847 -1.4651,-0.70318 -2.1912,-1.23601 -3.5895,-2.63412 -3.129,-3.12844 -4.2208,-6.12066 -4.5425,-12.44844 -0.091,-1.79831 -0.2086,-2.70987 -0.3055,-2.37685 -1.5979,5.48622 -3.8674,9.49726 -7.165,12.66305 -2.9097,2.79346 -5.8591,4.58664 -10.0609,6.11696 -6.5653,2.39113 -14.7872,3.20777 -21.8844,2.17368 z m 15.0311,-18.26451 c 5.5483,-0.95077 10.9038,-3.56289 14.9557,-7.29453 4.5606,-4.20012 7.6436,-10.67914 8.2668,-17.37247 1.4841,-15.94214 -9.2783,-29.15889 -25.062,-30.77751 -3.0705,-0.31487 -8.05,-0.10595 -10.3997,0.43633 -11.8292,2.72994 -20.0312,11.31555 -21.7014,22.71645 -0.4319,2.94787 -0.3231,8.47705 0.2147,10.91189 2.0198,9.1444 8.1019,16.29137 16.8021,19.74382 2.2207,0.88121 5.7722,1.73169 8.1778,1.95834 2.4479,0.23064 6.3606,0.0864 8.746,-0.32232 z m 153.952,18.27476 c -3.064,-0.52308 -5.6481,-1.20508 -8.6431,-2.28115 -1.6481,-0.59213 -6.2988,-2.88175 -7.7788,-3.8296 -6.4062,-4.10291 -11.8225,-9.62333 -15.4166,-15.71323 -2.065,-3.4988 -3.7857,-7.62747 -4.8649,-11.67243 -1.8258,-6.84301 -2.0387,-14.88175 -0.5781,-21.82377 2.0015,-9.51316 6.4128,-17.48475 13.3387,-24.10442 6.4687,-6.18261 14.1653,-10.11873 23.2255,-11.87786 4.2613,-0.82738 12.1758,-0.77947 17.0453,0.10319 8.3953,1.52176 14.3197,4.70823 20.7277,11.14847 0.9515,0.95634 1.8884,1.85782 2.0819,2.00329 0.3227,0.24262 0.3535,-0.21905 0.3731,-5.58678 0.012,-3.21819 0.078,-5.94282 0.1472,-6.05473 0.076,-0.12237 3.9965,-0.20348 9.8364,-0.20348 h 9.7108 v 44.07971 44.0797 h -2.8204 c -3.4038,0 -5.2732,-0.37079 -7.6594,-1.51916 -3.9637,-1.90761 -6.4929,-5.07255 -7.6787,-9.6088 -0.3327,-1.27255 -0.4851,-2.69776 -0.5778,-5.40193 l -0.1258,-3.67331 -0.4735,1.72862 c -1.0406,3.79904 -2.7785,7.2587 -5.0897,10.13166 -4.1784,5.19401 -11.3533,8.78152 -20.3544,10.17735 -3.0646,0.47525 -11.3906,0.41675 -14.4254,-0.10134 z m 17.07,-18.30178 c 5.421,-1.08565 10.5318,-3.82649 14.3772,-7.71026 4.1867,-4.22838 6.6436,-9.09742 7.5692,-14.9999 0.4349,-2.77321 0.3252,-8.34332 -0.2114,-10.74297 -1.2574,-5.62207 -3.5262,-9.79619 -7.4629,-13.73028 -4.2482,-4.24531 -9.2032,-6.77872 -15.4605,-7.90474 -2.8583,-0.51438 -8.0748,-0.51428 -10.8747,2e-4 -11.9762,2.20068 -20.6049,10.5533 -22.8672,22.13564 -0.4508,2.30807 -0.5019,8.01078 -0.094,10.51911 0.3899,2.39937 1.5743,5.89681 2.737,8.08237 4.4694,8.40176 12.6479,13.89801 21.8839,14.70694 2.7609,0.24182 8.3781,0.0495 10.4036,-0.35611 z m -76.5992,17.0766 c -0.3566,-0.0416 -1.572,-0.18071 -2.701,-0.30922 -9.5699,-1.08929 -16.1916,-5.19635 -19.4809,-12.08292 -1.225,-2.56462 -1.8386,-4.65637 -2.5038,-8.53505 -0.2829,-1.64916 -0.3467,-5.54807 -0.4202,-25.65661 l -0.087,-23.71192 -8.3632,-0.0565 -8.3633,-0.0565 -0.06,-8.64308 c -0.033,-4.7537 -0.01,-8.86186 0.058,-9.12926 l 0.1183,-0.48617 15.2833,-0.003 c 9.4941,-0.002 15.4061,-0.0827 15.6075,-0.21276 0.2513,-0.16241 0.1865,-0.21021 -0.2881,-0.21277 -0.9868,-0.005 -4.0104,-0.82646 -5.7621,-1.56481 -5.1182,-2.1574 -7.8143,-5.68862 -8.5424,-11.18851 -0.1653,-1.24865 -0.3118,-4.31154 -0.3255,-6.80642 l -0.025,-4.53615 10.2481,-0.0561 10.248,-0.0561 0.1406,1.97996 c 0.077,1.08898 0.1431,4.61467 0.1464,7.83487 0.01,7.11485 0.2065,9.54306 0.8757,10.66413 1.0507,1.76026 2.4845,2.93617 4.4277,3.63123 0.9157,0.32756 2.1858,0.39876 9.0598,0.50787 l 7.9949,0.1269 v 9.07524 9.07523 l -11.236,0.10804 -11.236,0.10804 0.03,21.52469 c 0.033,23.67472 0.069,24.47603 1.2095,26.61535 0.7941,1.48987 1.5434,2.1677 3.3172,3.0006 2.466,1.158 3.6746,1.31124 11.163,1.41535 l 6.8604,0.0954 v 8.41548 c 0,6.53737 -0.06,8.43679 -0.27,8.51102 -1.3509,0.47788 -14.3083,0.94314 -17.1241,0.61487 z m -241.581403,-0.7758 c -0.057,-0.14977 -0.079,-25.50469 -0.048,-56.34428 l 0.055,-56.07198 9.919803,-0.0562 9.9199,-0.0562 -0.1266,20.2054 c -0.07,11.11297 -0.061,20.20494 0.02,20.20437 0.081,-6.1e-4 0.7084,-0.87352 1.3953,-1.93989 5.0014,-7.76454 12.1089,-13.05164 20.6829,-15.38549 1.6735,-0.45554 2.278,-0.49959 6.8064,-0.496 4.2898,0.003 5.3097,0.0713 7.4547,0.49609 3.5875,0.71055 6.2069,1.59516 9.3993,3.17436 10.3963,5.1428 16.7764,15.35656 17.6132,28.19696 0.1124,1.72322 0.2062,15.4457 0.2087,30.49442 0,22.2445 -0.048,27.40506 -0.2775,27.59532 -0.1925,0.15975 -3.3051,0.23797 -9.8069,0.24647 -8.5391,0.0112 -9.5386,-0.0233 -9.6576,-0.33327 -0.073,-0.19015 -0.1326,-12.5766 -0.1326,-27.52545 0,-22.87262 -0.05,-27.4667 -0.3159,-28.99066 -1.3444,-7.70885 -5.9046,-12.8955 -13.0809,-14.87776 -5.3529,-1.4786 -12.9655,-0.92911 -17.8574,1.289 -6.5311,2.96133 -10.9786,9.51081 -11.9777,17.63865 -0.1843,1.49974 -0.3011,9.64809 -0.393,27.41502 l -0.1307,25.28101 -9.7834,0.0562 c -7.7117,0.0443 -9.805403,-0.002 -9.886903,-0.21608 z m 373.928503,-1.46073 v -1.72861 h 1.0627 c 1.7739,0 1.8755,-0.13843 0.8501,-1.15816 -0.4948,-0.49202 -1.2005,-1.5266 -1.5683,-2.29907 -0.6369,-1.33785 -0.6686,-1.53268 -0.6686,-4.10547 0,-2.6723 0.01,-2.71815 0.7931,-4.32154 2.0363,-4.16093 6.01,-6.29911 10.5211,-5.66116 2.1674,0.30652 3.7789,1.04429 5.2692,2.41236 2.095,1.92322 3.1744,4.50435 3.1839,7.61373 0.01,2.61033 -0.6279,4.35629 -2.2391,6.14836 l -0.9813,1.09137 1.9694,0.13979 c 1.0832,0.0769 3.4616,0.13979 5.2854,0.13979 h 3.3159 v 1.72861 1.72862 h -13.3967 -13.3968 z m 11.9473,-2.37857 c 1.5727,-0.58841 2.8141,-1.70646 3.5431,-3.19097 0.5363,-1.09227 0.6073,-1.47688 0.6073,-3.28961 0,-1.84766 -0.064,-2.17921 -0.6414,-3.31877 -0.8439,-1.66543 -2.2173,-2.83492 -3.9729,-3.38304 -1.6561,-0.51703 -2.1314,-0.52878 -3.6904,-0.0912 -3.3948,0.95278 -5.4262,4.29516 -4.8065,7.90862 0.3112,1.81503 0.8137,2.83926 1.911,3.89547 1.8867,1.81607 4.6076,2.38324 7.0498,1.46951 z m -5.0102,-19.98859 c -3.2809,-0.92346 -5.9271,-3.5047 -6.9425,-6.77197 -0.6366,-2.04844 -0.5939,-5.16916 0.097,-7.07186 1.3472,-3.71167 4.4419,-6.32832 7.9893,-6.7554 4.5062,-0.54248 8.3676,1.54576 10.3749,5.61071 0.7293,1.47677 0.8243,1.86596 0.9236,3.78134 0.1311,2.53113 -0.2712,4.77164 -1.1158,6.21271 -1.2496,2.1323 -3.2921,3.89231 -5.5148,4.75196 -1.3705,0.53005 -4.3484,0.65432 -5.8115,0.24251 z m 5.3082,-3.87044 c 1.3448,-0.62613 2.5843,-1.8541 3.3142,-3.28329 0.4568,-0.89452 0.5378,-1.34825 0.5349,-2.99869 0,-2.34172 -0.5088,-3.67728 -1.8999,-5.02701 -1.535,-1.48938 -2.5463,-1.88746 -4.7951,-1.88746 -1.7212,0 -2.0582,0.0667 -2.9319,0.58036 -1.2442,0.73145 -2.2704,1.76575 -2.8544,2.87688 -0.344,0.6543 -0.4768,1.37862 -0.5467,2.98106 -0.111,2.54315 0.2228,3.63238 1.5589,5.0877 1.9354,2.10798 5.1614,2.81518 7.62,1.67045 z m -20.9604,-20.79515 c -0.2518,-0.25183 -0.1607,-3.06128 0.1046,-3.22525 0.2112,-0.13053 27.4275,-0.14169 27.5579,-0.0113 0.025,0.0252 0.1137,0.70855 0.1967,1.51858 0.1179,1.15094 0.085,1.51461 -0.1513,1.6641 -0.3472,0.21983 -27.4892,0.27259 -27.7079,0.0539 z m 22.9968,-8.17164 c -0.3679,-0.65183 -0.6688,-1.29591 -0.6688,-1.43128 0,-0.13537 0.4302,-0.6248 0.956,-1.08762 1.2217,-1.0754 1.754,-2.40436 1.7186,-4.2908 -0.043,-2.27258 -0.7281,-3.40455 -2.2951,-3.78977 -0.4879,-0.11996 -0.7207,-0.0175 -1.3167,0.57957 -0.5803,0.58134 -0.9287,1.34724 -1.7552,3.85843 -1.2135,3.68707 -1.5915,4.48554 -2.6015,5.49548 -0.9122,0.91226 -2.1669,1.28921 -3.8025,1.14237 -2.0923,-0.18785 -3.5789,-1.44725 -4.5197,-3.82885 -0.4053,-1.02613 -0.4568,-1.49825 -0.3766,-3.45723 0.07,-1.70547 0.2079,-2.52584 0.5565,-3.30398 0.5363,-1.19709 2.5208,-3.39441 3.0657,-3.39441 0.2311,0 0.6238,0.47475 1.0425,1.26042 l 0.6718,1.26041 -0.747,0.72408 c -1.0888,1.05523 -1.4825,2.25773 -1.3492,4.12076 0.1268,1.77099 0.5868,2.56993 1.6566,2.87674 0.978,0.28049 2.049,-0.27025 2.5705,-1.32184 0.223,-0.44972 0.6757,-1.79003 1.0059,-2.97845 1.3581,-4.88724 2.8002,-6.59035 5.5805,-6.59035 2.1265,0 4.0082,1.26873 5.055,3.40819 0.5126,1.04763 0.615,1.56245 0.6845,3.43939 0.094,2.54357 -0.3687,4.49964 -1.4436,6.10002 -0.6575,0.97898 -2.2806,2.39387 -2.7463,2.39387 -0.1501,0 -0.574,-0.53332 -0.9419,-1.18515 z m -21.8823,-17.88199 c -0.047,-0.14946 -0.082,-0.90378 -0.078,-1.67625 l 0.01,-1.4045 7.7473,-0.14851 c 4.2609,-0.0817 7.7875,-0.18888 7.8369,-0.23822 0.049,-0.0493 -1.7067,-1.9272 -3.9022,-4.17303 l -3.992,-4.08332 -0.01,-2.10675 c -0.01,-1.15872 0.076,-2.10675 0.1814,-2.10675 0.2087,0 7.4853,7.30208 8.2361,8.26494 0.2549,0.32682 0.5787,0.59421 0.7197,0.59421 0.141,0 2.3451,-2.09054 4.8982,-4.64565 2.553,-2.55511 4.7156,-4.64566 4.8058,-4.64566 0.09,0 0.1631,0.89942 0.162,1.99872 v 1.99871 l -4.2904,4.42958 -4.2903,4.42957 1.3212,0.13681 c 0.7266,0.0752 2.6622,0.14816 4.3013,0.16205 l 2.9801,0.0253 -0.063,1.6746 -0.063,1.67459 -13.211,0.0557 c -10.4612,0.0441 -13.2287,-9.1e-4 -13.2964,-0.21607 z m 14.7032,-16.80118 c -1.5928,-0.40408 -3.2462,-1.30362 -4.3974,-2.39247 -2.19,-2.07119 -3.1373,-4.31757 -3.1373,-7.43949 0,-2.91439 0.6643,-4.63694 2.5626,-6.64437 l 0.7662,-0.81029 h -1.4483 -1.4484 V 2.05482 0.2159 l 9.4534,0.0563 9.4534,0.0563 0.063,1.66823 c 0.07,1.86069 0.1097,1.81668 -1.743,1.94749 l -0.8157,0.0576 0.9016,1.08038 c 3.407,4.08252 2.8419,10.08565 -1.3075,13.88784 -0.4244,0.38892 -1.4951,1.06094 -2.3793,1.49337 -1.4542,0.71116 -1.805,0.79244 -3.6734,0.8511 -1.1361,0.0357 -2.4185,-0.0247 -2.8498,-0.13411 z m 5.3668,-4.13389 c 2.5683,-1.22233 3.8459,-3.49725 3.6904,-6.57131 -0.1029,-2.03427 -0.6235,-3.29694 -1.9031,-4.61543 -1.4466,-1.49061 -2.3831,-1.85676 -4.7493,-1.85676 -2.341,0 -3.2757,0.35744 -4.7253,1.80706 -1.3912,1.39122 -1.8651,2.63362 -1.8651,4.89013 0,1.64246 0.087,2.1294 0.5597,3.13312 0.3078,0.65363 0.831,1.50922 1.1626,1.9013 1.1431,1.35174 3.7329,2.27282 5.7324,2.03881 0.416,-0.0487 1.3599,-0.3758 2.0977,-0.72692 z" />
</svg>
