<svg
   version="1.1"
   id="svg1"
   width="1775.1479"
   height="585.09918"
   viewBox="0 0 1775.1479 585.09919"
   xmlns="http://www.w3.org/2000/svg"
   xmlns:svg="http://www.w3.org/2000/svg">
  <defs
     id="defs1" />
  <g
     id="g1"
     transform="translate(1689.0445,286.70635)">
    <path
       style="fill:#000000"
       d="m -1412.8315,297.93765 c -0.9763,-0.14103 -4.6508,-0.59904 -8.1656,-1.0178 -24.4209,-2.90954 -48.4071,-11.65344 -68.8758,-25.10795 -42.5196,-27.94903 -67.1359,-74.04207 -67.0935,-125.62984 0.062,-75.500686 52.7616,-136.5780556 128.9598,-149.4611456 14.3899,-2.43294 29.9285,-3.29544 41.227,-2.28839 24.4927,2.18309 44.5592,7.61914 63.7706,17.2756296 22.43,11.27427 39.895,26.82643 54.141,48.21145 2.5125,3.77166 4.4592,7.4239 4.3259,8.11607 -0.1333,0.69218 -1.7724,2.15745 -3.6424,3.25617 -8.9627,5.26587 -50.7206,28.27897 -51.3119,28.27834 -0.3698,-4e-4 -1.5291,-1.51815 -2.5762,-3.37278 -3.2545,-5.76437 -6.7546,-10.26246 -12.4704,-16.02622 -17.5656,-17.71295 -43.3399,-26.17496 -72.8625,-23.92156 -14.5293,1.10899 -24.4797,3.94645 -37.0546,10.56651 -24.0067,12.6383 -39.6467,33.894076 -45.5219,61.867196 -1.7425,8.29645 -1.7606,26.3661 -0.035,34.94187 7.3233,36.39574 34.3528,63.39485 70.9842,70.90429 38.1631,7.82344 77.0872,-6.801 96.9892,-36.4404 l 3.6968,-5.50549 2.9944,1.51598 c 3.367,1.70464 40.4772,21.93197 46.9465,25.58878 6.2979,3.55991 6.3321,3.76919 1.7419,10.65902 -11.6162,17.43558 -24.1644,30.11214 -40.8283,41.24561 -26.6556,17.80919 -57.8819,26.91652 -91.4929,26.68443 -6.6391,-0.0458 -12.8698,-0.19874 -13.8462,-0.33977 z m 616.29587,-0.98928 c -45.68642,-6.6567 -84.84822,-33.08574 -108.34286,-73.11712 -3.70368,-6.31051 -10.35801,-20.76491 -12.09048,-26.26266 -8.11059,-25.73789 -10.23948,-46.20237 -7.31969,-70.36232 3.26604,-27.02503 13.11491,-51.489556 29.70589,-73.789206 5.70535,-7.66847 19.92061,-21.98259 27.921,-28.1152 27.1011,-20.7740296 57.24855,-30.9949496 91.46346,-31.0089296 23.85874,-0.01 42.59737,3.93278 61.42012,12.92254 14.08014,6.7246896 23.38002,13.5908596 36.03552,26.6052896 l 7.6331,7.84963 V 21.626564 1.5827444 h 32.7589 32.759 l -0.5281,144.3195156 c -0.3911,106.88257 -0.7384,144.45128 -1.3388,144.82744 -1.4046,0.87997 -17.632,0.0308 -22.8226,-1.19423 -2.7337,-0.6452 -7.6864,-2.47661 -11.0059,-4.06979 -4.8146,-2.31074 -7.2007,-4.0617 -11.7957,-8.65609 -10.2821,-10.2805 -13.87,-20.11334 -14.927,-40.90733 -0.3003,-5.90949 -0.6855,-8.905 -1.0042,-7.81065 -5.2509,18.02849 -12.7088,31.20934 -23.54504,41.61256 -9.56178,9.1797 -19.25369,15.07232 -33.06152,20.10119 -21.57457,7.85757 -48.59277,10.54117 -71.9151,7.14301 z m 49.39421,-60.01974 c 18.23246,-3.12436 35.83152,-11.70815 49.14656,-23.97083 14.98669,-13.80219 25.11799,-35.09315 27.16569,-57.08837 4.877,-52.38812 -30.48959,-95.820176 -82.3573,-101.139196 -10.08988,-1.03471 -26.45315,-0.34818 -34.17484,1.43384 -38.87239,8.97097 -65.82523,37.18449 -71.31383,74.649426 -1.41916,9.68712 -1.0616,27.85676 0.70566,35.85799 6.63719,30.04977 26.62392,53.53573 55.2142,64.88095 7.29743,2.89578 18.96809,5.69058 26.87323,6.4354 8.04403,0.7579 20.90197,0.28404 28.74063,-1.05921 z m 505.90765,60.05341 c -10.0688,-1.7189 -18.5604,-3.96005 -28.4024,-7.49616 -5.4159,-1.94584 -20.6987,-9.46983 -25.5621,-12.58461 -21.0519,-13.48275 -38.8503,-31.62359 -50.6612,-51.63587 -6.7857,-11.49755 -12.4404,-25.06494 -15.9868,-38.35722 -5.9996,-22.4871 -6.6993,-48.90352 -1.8997,-71.71598 6.5772,-31.261576 21.0733,-57.457316 43.833,-79.210496 21.257,-20.31689 46.5489,-33.2515596 76.322,-39.0322796 14.0035,-2.71891 40.0116,-2.56147 56.0134,0.33907 27.5882,5.00074 47.0566,15.4719096 68.1141,36.6354296 3.1269,3.14269 6.2055,6.10507 6.8413,6.58309 1.0604,0.79729 1.1617,-0.71981 1.2262,-18.35892 0.039,-10.57542 0.2563,-19.5289296 0.4836,-19.8966896 0.2485,-0.40213 13.133199,-0.66866 32.323999,-0.66866 h 31.9108 V 146.43481 291.28687 h -9.2681 c -11.1854,0 -17.3286,-1.21846 -25.1698,-4.99218 -13.0252,-6.26865 -21.336599,-16.66911 -25.233499,-31.57586 -1.0932,-4.18178 -1.5941,-8.86521 -1.8986,-17.75148 l -0.4135,-12.07101 -1.5558,5.68048 c -3.4195,12.48418 -9.1307,23.85309 -16.7256,33.29406 -13.7307,17.06825 -37.3084,28.85731 -66.8872,33.44419 -10.0709,1.56172 -37.4312,1.36951 -47.4041,-0.33303 z m 56.0946,-60.1422 c 17.8141,-3.56758 34.609,-12.57439 47.2455,-25.33699 13.7578,-13.89503 21.8318,-29.8954 24.8733,-49.29176 1.4291,-9.11317 1.0688,-27.41732 -0.6947,-35.30291 -4.1319,-18.4749 -11.5874,-32.191626 -24.5242,-45.119606 -13.9602,-13.9507 -30.2428,-22.27582 -50.8052,-25.97609 -9.393,-1.69032 -26.5349,-1.69 -35.7357,6.7e-4 -39.3556,7.23174 -67.7106,34.67961 -75.1448,72.740786 -1.4815,7.58464 -1.6494,26.32456 -0.3098,34.56726 1.2815,7.88467 5.1734,19.37775 8.9941,26.55982 14.6873,27.60935 41.5628,45.67079 71.9137,48.32906 9.0728,0.79463 27.5315,0.1628 34.1878,-1.17024 z m -251.7159,56.1161 c -1.1716,-0.13658 -5.1657,-0.59384 -8.8758,-1.01614 -31.4481,-3.57956 -53.2079,-17.07595 -64.0169,-39.70618 -4.0254,-8.42769 -6.0419,-15.30146 -8.228,-28.04734 -0.9294,-5.41939 -1.1393,-18.23174 -1.3806,-84.31121 l -0.2846,-77.920686 -27.4828,-0.18582 -27.4828,-0.18582 -0.1975,-28.40237 c -0.1087,-15.6213 -0.023,-29.1212996 0.191,-29.9999996 l 0.3886,-1.59763 50.2231,-0.0109 c 31.199,-0.007 50.6266,-0.2716 51.2883,-0.69918 0.8258,-0.53368 0.6131,-0.69076 -0.9468,-0.69919 -3.2427,-0.0175 -13.1786,-2.71585 -18.9349,-5.14218 -16.8192,-7.0895204 -25.6789,-18.6935904 -28.0714,-36.7670004 -0.5432,-4.10325 -1.0246,-14.16834 -1.0699,-22.36687 l -0.082,-14.90642 33.6766,-0.18433 33.6765,-0.18433 0.4618,6.50643 c 0.254,3.57854 0.4705,15.16445 0.4811,25.74646 0.023,23.38041 0.6786,31.35984 2.8777,35.04383 3.4529,5.7844804 8.1646,9.6486604 14.55,11.9327404 3.0092,1.07639 7.1831,1.31037 29.772,1.66892 l 26.2722,0.41703 v 29.8224796 29.82249 l -36.9231,0.35503 -36.9231,0.35503 0.098,70.733156 c 0.108,77.79843 0.2277,80.43165 3.9746,87.46173 2.6095,4.89592 5.072,7.12338 10.9007,9.86041 8.1037,3.80536 12.0753,4.30891 36.6833,4.65102 l 22.5444,0.31342 v 27.65442 c 0,21.48271 -0.1981,27.7245 -0.8875,27.9684 -4.4393,1.5704 -47.0189,3.09931 -56.2722,2.02058 z m -793.87013,-2.54939 c -0.1869,-0.49215 -0.258,-83.81198 -0.158,-185.15518 l 0.1819,-184.260346 32.598,-0.18475 32.598,-0.18475 -0.4161,66.39777 c -0.2289,36.51877 -0.1997,66.39624 0.065,66.39438 0.2645,-0.002 2.3277,-2.87051 4.5849,-6.37475 16.4354,-25.51538 39.7917,-42.8895096 67.9669,-50.5588696 5.4995,-1.49696 7.486,-1.64172 22.3669,-1.62993 14.097,0.0112 17.4485,0.23422 24.4971,1.63023 11.7892,2.33495 20.3968,5.24192 30.8875,10.43139 34.16387,16.8999496 55.12954,50.4637896 57.87963,92.6591596 0.36907,5.662716 0.67762,50.756726 0.68566,100.208906 0.0119,73.09855 -0.15866,90.05687 -0.91199,90.68208 -0.63252,0.52495 -10.86105,0.78201 -32.22677,0.80994 -28.06063,0.0367 -31.34523,-0.0767 -31.73613,-1.09519 -0.2398,-0.62485 -0.4359,-41.32846 -0.4359,-90.45246 0,-75.16264 -0.1645,-90.25941 -1.0379,-95.26737 -4.4179,-25.332336 -19.4035,-42.376406 -42.9858,-48.890386 -17.5905,-4.8589 -42.6063,-3.05318 -58.6819,4.23584 -21.4621,9.73134 -36.0771,31.25385 -39.3603,57.963046 -0.6058,4.92837 -0.9897,31.70498 -1.2916,90.08961 l -0.4295,83.07692 -32.1497,0.18477 c -25.3415,0.14564 -32.2217,-0.005 -32.4896,-0.71006 z M -1.9438715,285.6064 v -5.68047 h 3.4922 c 5.8292,0 6.1631,-0.4549 2.7934,-3.80588 -1.6258,-1.61683 -3.94479997,-5.01661 -5.15339997,-7.55507 -2.09300003,-4.39635 -2.19730003,-5.0366 -2.19730003,-13.49112 0,-8.78156 0.028,-8.93225 2.60620003,-14.20119 C 6.2889285,227.19925 19.347129,220.17292 34.171129,222.26931 c 7.1224,1.00724 12.418,3.43166 17.3153,7.92734 6.8846,6.31997 10.4316,14.80193 10.4627,25.01977 0.026,8.57792 -2.0633,14.31538 -7.3581,20.20439 l -3.2244,3.58638 6.4716,0.45937 c 3.5594,0.25265 11.3752,0.45937 17.3684,0.45937 h 10.8968 v 5.68047 5.68047 h -44.0236 -44.0237005 z m 39.2605005,-7.81633 c 5.168,-1.93359 9.2474,-5.60766 11.643,-10.48598 1.7626,-3.58934 1.9959,-4.85322 1.9959,-10.81012 0,-6.07166 -0.2106,-7.16118 -2.108,-10.90593 -2.773,-5.47284 -7.2862,-9.31594 -13.0555,-11.11715 -5.4421,-1.69904 -7.0039,-1.73764 -12.1272,-0.29972 -11.1557,3.13098 -17.8310005,14.11451 -15.7948005,25.98883 1.0228,5.96445 2.6739005,9.33019 6.2798005,12.80107 6.2,5.96786 15.1415,7.83166 23.1668,4.829 z m -16.4643,-65.6853 c -10.7815,-3.03462 -19.4773005,-11.51693 -22.8139005,-22.25364 -2.0919,-6.73145 -1.9516,-16.98658 0.3179,-23.23911 4.4273,-12.19707 14.5967005,-20.79575 26.2542005,-22.19919 14.8078,-1.78268 27.4969,5.07959 34.0933,18.43756 2.3964,4.85289 2.7088,6.13182 3.0349,12.42604 0.4311,8.31764 -0.8912,15.68025 -3.6664,20.41582 -4.1064,7.00704 -10.8186,12.79068 -18.1227,15.61561 -4.5036,1.74182 -14.2894,2.15018 -19.0973,0.79691 z m 17.4435,-12.71881 c 4.4191,-2.05755 8.4924,-6.09281 10.8909,-10.78935 1.5012,-2.93951 1.7672,-4.43052 1.7578,-9.85411 -0.013,-7.69523 -1.6719,-12.08404 -6.2433,-16.51944 -5.0443,-4.89432 -8.3676,-6.20246 -15.7575,-6.20246 -5.6559,0 -6.7635,0.21923 -9.6346,1.90713 -4.0886,2.40366 -7.4609,5.80249 -9.3800005,9.45382 -1.1302,2.15013 -1.5666,4.53036 -1.7964,9.7962 -0.3647,8.35715 0.732,11.93651 5.1228005,16.7189 6.3598,6.92709 16.961,9.25107 25.0403,5.48931 z m -68.8787,-68.33577 c -0.8276,-0.82755 -0.5283,-10.05978 0.3436,-10.59862 0.694,-0.42892 90.1306,-0.4656 90.5591,-0.0371 0.083,0.0828 0.3736,2.32839 0.6463,4.99029 0.3875,3.78214 0.2789,4.97719 -0.497,5.46845 -1.1409,0.72238 -90.3333,0.89578 -91.052,0.17702 z m 75.5707,-26.85315 c -1.2089,-2.14201 -2.198,-4.258526 -2.198,-4.703376 0,-0.44485 1.4137,-2.05318 3.1416,-3.57408 4.0147,-3.53389 5.7639,-7.90106 5.6476,-14.10016 -0.1401,-7.46803 -2.3927,-11.18781 -7.5418,-12.45372 -1.6034,-0.39421 -2.3686,-0.0574 -4.3271,1.90457 -1.9069,1.91035 -3.0518,4.4272 -5.7678,12.67933 -3.9878,12.11622 -5.2299,14.74011 -8.5487,18.058916 -2.9977,2.99779 -7.121,4.23651 -12.4957,3.75398 -6.8755005,-0.61729 -11.7608005,-4.75586 -14.8523005,-12.582126 -1.3319,-3.37201 -1.501,-4.92347 -1.2377,-11.36095 0.2291,-5.60441 0.6832,-8.30026 1.8288,-10.85734 1.76230003,-3.9338 8.2838,-11.15449 10.0744,-11.15449 0.7593,0 2.0497005,1.56008 3.4258005,4.1419 l 2.2076,4.1419 -2.4549,2.37941 c -3.5777005,3.46763 -4.8715005,7.41923 -4.4334005,13.5414 0.4164,5.81971 1.9282,8.44516 5.4436005,9.45336 3.2139,0.92174 6.7333,-0.88807 8.447,-4.34376 0.7329,-1.47784 2.2204,-5.88226 3.3056,-9.78758 4.4629,-16.06015 9.202,-21.65681 18.3385,-21.65681 6.9879,0 13.1715,4.16921 16.6113,11.19978 1.6843,3.44267 2.021,5.13442 2.2493,11.30232 0.3094,8.35853 -1.2117,14.78644 -4.7438,20.045526 -2.1606,3.21706 -7.4945,7.86657 -9.0246,7.86657 -0.4935,0 -1.8864,-1.75255 -3.0953,-3.89457 z m -71.9084,-58.762716 c -0.1543,-0.49115 -0.2694,-2.96993 -0.2555,-5.50839 l 0.025,-4.61538 25.4584995,-0.48803 c 14.0021005,-0.26841 25.5910005,-0.62068 25.7532005,-0.78281 0.1621,-0.16213 -5.6084,-6.33305 -12.8233,-13.71315 L -1.8807715,6.9081844 l -0.032,-6.92308 c -0.017,-3.80769 0.2509,-6.92307 0.5963,-6.92307 0.68580003,0 24.5978005,23.9956696 27.0650005,27.1597596 0.8374,1.07396 1.9016,1.95266 2.3648,1.95266 0.4633,0 7.7065,-6.86982 16.0962,-15.2662696 8.3896,-8.39645 15.4963,-15.26627 15.7926,-15.26627 0.2963,0 0.5359,2.95562 0.5325,6.56805 l -0.01,6.56804 -14.0987,14.5562196 -14.0987,14.55621 4.3416,0.44955 c 2.3878,0.24725 8.7484,0.4869 14.1347,0.53254 l 9.7932,0.083 -0.2074,5.50296 -0.2074,5.50295 -43.4131,0.18295 c -34.3771,0.14486 -43.4715,-0.003 -43.6938,-0.71006 z m 48.3167,-55.2110196 c -5.234,-1.3278604 -10.6672,-4.2838804 -14.4505005,-7.8619904 -7.19659997,-6.80621 -10.3096,-14.18813 -10.3096,-24.44721 0,-9.57709 2.1832,-15.23763 8.4212,-21.83432 l 2.5179,-2.66272 h -4.7595 -4.7595 v -6.04297 -6.04296 l 31.0651005,0.18497 31.0651,0.18498 0.207,5.48203 c 0.2309,6.11451 0.3603,5.96987 -5.7278,6.39972 l -2.6806,0.18926 2.9628,3.55029 c 11.196,13.41572 9.3388,33.14285 -4.2965,45.63736 -1.3948,1.27806 -4.9133,3.48642 -7.819,4.90745 -4.7786,2.3369604 -5.9313,2.6040604 -12.071,2.7968304 -3.7334,0.11721 -7.9477,-0.0811 -9.3651,-0.44072 z m 17.6361,-13.5845404 c 8.4398,-4.01673 12.6382,-11.49244 12.1272,-21.59425 -0.3381,-6.68487 -2.049,-10.8342 -6.2538,-15.16693 -4.7537,-4.89835 -7.8313,-6.10157 -15.6069,-6.10157 -7.6929,0 -10.7643,1.17459 -15.528,5.93826 -4.5717005,4.57172 -6.1288005,8.65442 -6.1288005,16.06965 0,5.39735 0.2858,6.99748 1.8392,10.29586 1.0115005,2.14793 2.7307005,4.9595 3.8203005,6.24793 3.7566,4.44201 12.2669,7.46881 18.8376,6.69981 1.3668,-0.15997 4.4688,-1.23491 6.8932,-2.38876 z M -1358.1569,-104.95395 c -23.6616,-0.45981 -23.8303,-0.47383 -32.0017,-2.65895 -11.7262,-3.1357 -16.2997,-4.76996 -25.2899,-9.03696 -15.4428,-7.32953 -25.9669,-15.38221 -39.8519,-30.49334 -14.856,-16.16781 -25.1483,-37.06557 -29.3655,-59.62446 -1.3261,-7.09376 -1.5028,-11.35164 -1.8069,-43.54308 l -0.3371,-35.68048 h 96.1923 96.1924 l 0.4964,81.12426 c 0.273,44.61834 0.3919,85.43787 0.2643,90.71006 l -0.232,9.58579 -20.2367,0.0397 c -11.1302,0.0218 -30.9409,-0.16831 -44.0237,-0.42255 z m -227.574,-1.35113 c -49.3136,-8.76979 -88.1851,-44.89312 -100.1388,-93.05892 -2.8286,-11.39758 -3.1748,-17.18334 -3.1748,-53.05829 v -34.27899 h 96.213 96.2131 v 40.71119 c 0,22.39115 0.2122,63.29056 0.4717,90.88757 l 0.4717,50.17638 -41.4776,-0.0581 c -36.4492,-0.0511 -42.3385,-0.21119 -48.5783,-1.32085 z m 412.1894,0.88645 c -3.1757,-0.34626 -14.8061,-2.76988 -19.8817,-4.14306 -7.5024,-2.02978 -18.2297,-6.59895 -27.6923,-11.79527 -24.2716,-13.32859 -46.2466,-40.02749 -55.3459,-67.24362 -6.1042,-18.25795 -7.1393,-28.10119 -7.1393,-67.89505 v -30.21072 l 96.7456,0.18005 96.7455,0.18005 v 90.53255 90.53253 l -40.4733,0.0668 c -22.2604,0.0367 -41.5917,-0.0552 -42.9586,-0.20422 z"
       id="path1" />
  </g>
</svg>
