<svg id="CHWILENSKA" width="500" height="153.41753" viewBox="0 0 500 153.41753" version="1.1" xml:space="preserve" xmlns:xlink="http://www.w3.org/1999/xlink" xmlns="http://www.w3.org/2000/svg" xmlns:svg="http://www.w3.org/2000/svg">
	<path id="CHWILENSKA" style="fill:#000000;stroke:#000000;stroke-width:0" d="m 169.76226,62.778604 c -2.6003,0 -4.08618,0 -5.57207,0.37147 V 2.2288262 h 8.91531 V 57.94948 h 17.83061 c 2.97177,0 4.82912,-0.371472 5.94353,-0.742942 v 5.943536 c -1.11441,0 -2.97176,-0.37147 -5.57206,-0.37147 H 170.13373 M 436.10698,14.48737 c -2.6003,5.200594 -4.82912,11.14413 -7.80088,17.459138 l -1.11442,2.228826 c 2.6003,0.371472 5.57206,0.371472 8.54384,0.371472 2.97176,0 5.94352,0 8.54382,-0.742942 l -0.74294,-2.228826 -7.42942,-17.459139 m -24.88856,45.319465 c 0.74294,-1.485884 2.22884,-4.086182 4.08618,-8.172362 2.6003,-5.572066 5.57208,-11.887074 8.91532,-18.945022 5.57206,-11.887074 9.65824,-21.916791 13.00148,-30.4606249 h 2.22882 c 3.34324,8.1723629 7.42942,18.2020809 12.63002,30.0891529 2.97176,7.05795 5.94354,13.372958 8.54384,19.316494 l 5.20058,10.77266 h -9.65824 c 0,-1.485884 -0.74294,-2.971768 -1.48588,-4.457654 -0.37148,-1.485884 -1.48588,-3.71471 -2.6003,-6.315006 l -4.82912,-11.887074 c -3.34324,-0.37147 -6.68648,-0.742942 -10.77266,-0.742942 -4.08618,0 -7.8009,0 -11.14414,0.742942 -1.85736,4.086182 -3.34324,8.172364 -4.82912,11.887074 -1.11442,2.600296 -1.85736,4.457652 -2.22882,5.943536 -0.37148,1.485884 -0.74294,2.971768 -1.48588,4.829124 h -7.05796 c 0,-0.371472 0.74294,-1.485884 1.48588,-2.600298 M 104.38336,14.48737 c -2.6003,5.200594 -4.829126,10.77266 -7.800894,17.459138 l -1.114412,2.228826 c 2.600296,0.371472 5.572066,0.742942 8.543836,0.371472 2.97177,0 5.94353,0 8.54383,-0.742942 l -0.74294,-2.228826 -7.42942,-17.459139 M 79.4948,59.435364 C 80.237742,57.94948 81.723626,55.349182 83.58098,51.263002 86.181278,45.690936 89.153046,39.375928 92.496286,32.31798 98.06835,20.430906 102.15453,10.401189 105.49777,1.8573551 h 2.22883 c 3.34324,8.1723629 7.42942,18.2020809 12.63001,30.0891529 2.97177,7.05795 5.94354,13.372958 8.54384,19.316494 l 5.20059,10.77266 h -9.65825 c 0,-1.485884 -0.74294,-2.971768 -1.48588,-4.457654 -0.37147,-1.485884 -1.48588,-3.71471 -2.6003,-6.315006 l -4.82912,-11.887074 c -3.34324,-0.37147 -6.68648,-0.742942 -10.77266,-0.742942 -4.08618,0 -7.800892,0 -11.144132,0.742942 -1.857354,4.086182 -3.343238,8.172364 -4.829122,11.887074 -1.114414,2.600296 -1.857356,4.457652 -2.228828,5.943536 -0.37147,1.485884 -0.742942,2.971768 -1.114412,4.829124 h -7.05795 c 0,-0.371472 0.742942,-1.485884 1.485884,-2.600298 M 305.34918,28.97474 h 4.08618 c 5.2006,0 9.65826,-1.114414 13.00148,-3.34324 3.34324,-2.228826 4.82914,-5.200594 4.82914,-8.915304 0,-3.71471 -1.11442,-5.943536 -3.71472,-7.8008914 -2.6003,-1.8573552 -5.94354,-2.6002972 -10.40118,-2.6002972 h -7.42942 V 28.97474 Z m -7.42942,30.460624 V 2.2288262 h 18.57356 c 6.315,0 11.14412,1.114413 14.48736,3.7147102 3.34324,2.2288262 4.82912,5.9435366 4.82912,10.7726596 0,4.829124 -2.22882,8.915304 -7.05794,11.887072 -2.97178,1.857356 -6.68648,3.34324 -10.77266,4.086182 2.97176,4.086182 6.315,8.543834 10.40118,13.372958 l 4.82912,5.943536 c 3.34324,4.08618 5.57208,6.686478 6.68648,8.172362 1.11442,1.485884 1.85736,2.228826 2.22884,2.600298 h -11.14414 c -0.74294,-1.485884 -1.48588,-2.971768 -2.6003,-4.457654 -1.1144,-1.485884 -2.6003,-3.71471 -5.20058,-6.315006 l -4.82914,-6.315008 c -3.7147,-4.829124 -7.05794,-8.915304 -10.0297,-12.630014 h -2.97178 v 29.717682 h -8.9153 v -2.971768 m -17.08766,28.97474 c 0,0 11.5156,-12.630016 9.65824,-12.630016 -1.85736,0 -2.97178,0.742942 -7.05796,1.485884 -1.85734,4.457652 -7.80088,10.77266 -7.80088,10.77266 m 196.50816,15.973256 c -2.22882,5.20059 -4.82912,11.14413 -7.80088,17.45914 l -1.11442,2.22882 c 2.6003,0.37147 5.57206,0.74294 8.54384,0.37147 2.97176,0 5.94354,0 8.54384,-0.74294 l -0.74296,-1.85735 -7.42942,-17.45914 m -25.26002,44.94799 c 0.74294,-1.48588 2.22882,-4.08618 4.08618,-8.17236 2.6003,-5.57207 5.57206,-11.88707 8.9153,-19.31649 5.57208,-11.88708 9.65826,-21.916794 13.0015,-30.089156 h 2.22882 c 3.34324,8.172362 7.42942,18.202076 12.63002,30.089156 2.97176,7.05795 5.94352,13.37295 8.54382,19.31649 L 500,151.93165 h -9.65824 c -0.37148,-1.48588 -0.74294,-2.97177 -1.4859,-4.45765 -0.37146,-1.48589 -1.48588,-3.71471 -2.60028,-6.31501 l -4.82914,-11.88707 c -3.34324,-0.37147 -6.68646,-0.74295 -10.77266,-0.74295 -4.08618,0 -7.80088,0 -11.14412,0.74295 -1.85736,4.08618 -3.34324,8.17236 -4.82912,11.88707 -1.11442,2.6003 -1.85736,4.45765 -2.22884,5.94354 -0.37146,1.48588 -1.1144,2.97176 -1.48588,4.82912 h -7.05794 c 0,-0.37147 0.74294,-1.48588 1.48588,-2.97177 M 394.50222,121.8425 v 30.08915 h -8.9153 V 91.753344 h 8.9153 v 27.860326 c 3.71472,-3.34324 8.54384,-7.80089 13.37296,-13.00149 5.57208,-5.57206 10.02972,-10.772656 13.37296,-14.858836 h 8.9153 c -0.74294,0 -1.48588,1.114412 -3.34324,2.600296 -1.48588,1.485884 -4.45764,4.086182 -8.9153,8.17236 l -7.05794,6.68648 -9.28678,9.28678 9.65824,11.5156 9.65826,11.5156 c 3.34324,4.08618 5.94352,6.68648 7.05794,8.17236 1.11442,1.48589 1.85736,2.22883 2.22882,2.6003 h -11.14412 c -0.74294,-1.48588 -1.85736,-2.97177 -2.97178,-4.45765 -1.1144,-1.48589 -2.97176,-3.71471 -5.20058,-6.31501 l -4.45766,-5.57206 c -4.82912,-5.94354 -9.28678,-10.77266 -12.63002,-14.48737 m -36.77562,-20.05944 c -1.11442,-2.228826 -2.6003,-3.71471 -4.45766,-4.829124 -1.85736,-1.114412 -4.08618,-1.857354 -6.315,-1.857354 -3.34324,0 -5.94354,1.114412 -7.8009,2.971768 -1.85736,1.857354 -2.97176,4.45765 -2.97176,7.42942 0,2.97177 1.1144,5.20059 2.97176,7.05795 1.85736,1.85735 5.2006,3.71471 9.28678,5.20059 5.57206,1.85736 9.28678,4.08619 11.5156,6.68648 2.22882,2.6003 3.34324,6.31501 3.34324,10.40119 0,4.08618 -1.85736,9.65825 -5.57206,13.37296 -3.71472,3.71471 -8.54384,5.57206 -13.74444,5.57206 -5.20058,0 -6.315,-0.37147 -8.9153,-1.48588 -2.6003,-0.74294 -4.82912,-2.22883 -6.315,-4.08618 0,-1.11442 0.74294,-2.22883 0.74294,-2.97177 0,-0.74294 0,-1.85736 0.37146,-2.97177 h 1.4859 c 1.48588,1.85736 3.34324,4.08618 5.57206,5.57207 2.6003,1.48588 5.2006,2.22882 7.80088,2.22882 2.6003,0 6.68648,-1.11441 8.91532,-3.34324 2.22882,-2.22882 3.34324,-5.20059 3.34324,-8.9153 0,-3.71471 -1.11442,-5.57207 -2.97178,-7.42942 -1.85736,-1.85736 -5.20058,-3.71471 -9.28678,-5.2006 -5.57206,-1.85735 -9.28676,-4.08618 -11.88706,-6.68647 -2.22882,-2.6003 -3.34324,-5.94354 -3.34324,-10.40119 0,-4.45765 1.85736,-8.543836 5.2006,-11.515604 3.34324,-3.34324 7.42942,-4.829124 12.63,-4.829124 5.2006,0 5.2006,0 7.42942,1.114414 2.22884,0.742942 4.45766,1.485884 6.31502,2.971768 l -1.11442,3.343238 c 0,0.742942 -0.37146,1.857358 -0.74294,3.343238 h -1.11442 z m -98.8113,20.43091 v 30.46062 h -5.94354 V 92.124814 h 2.6003 c 7.42942,8.543836 17.08768,18.945026 28.60328,31.203566 l 14.48736,14.85884 V 91.753344 h 5.94354 v 30.832096 c 0,12.25854 0,22.28826 0.37146,30.46062 h -2.22882 c -7.42942,-8.54383 -17.08766,-18.94502 -28.60326,-31.20356 L 258.9153,106.61218 v 14.85885 m -57.578,30.83209 c -2.6003,0 -4.08619,0 -5.57207,0.37147 V 91.381872 c 1.11441,0 2.6003,0 5.20059,0.371472 h 21.17386 c 2.22882,0 4.08618,0 5.57206,-0.371472 v 5.943536 c -1.11442,0 -2.6003,-0.37147 -5.2006,-0.742942 h -17.8306 v 21.916794 h 15.2303 c 2.6003,0 4.45766,0 5.57208,-0.37147 v 5.94353 c -1.11442,0 -2.97178,0 -5.57208,-0.37147 h -15.60178 v 24.51709 h 17.08768 c 2.97176,0 4.82912,-0.37147 5.94352,-0.74294 v 5.94353 c -1.1144,0 -2.97176,0 -5.57206,-0.37147 h -20.80238 m -52.37741,-0.74294 c -2.6003,0 -4.08618,0 -5.57207,0.37147 V 91.753344 h 8.91531 V 147.474 h 18.20208 c 2.97177,0 4.82912,-0.37147 5.94354,-0.74295 v 5.94354 c -1.11442,0 -2.97177,0 -5.57207,-0.37147 h -21.17385 m -41.97622,-2.97177 V 92.124814 h 8.9153 v 60.178306 h -8.9153 v -2.97177 m -82.838042,2.6003 H 21.54532 C 19.316493,143.75929 16.344725,133.72957 12.258544,121.8425 L 5.9435364,102.526 C 4.4576524,98.439822 3.7147102,95.839524 3.3432392,94.35364 2.9717682,92.867756 2.6002972,92.124814 2.2288262,91.753344 h 9.6582468 c 0,1.114412 0.371471,2.600296 0.742942,3.71471 0.371471,1.485884 1.114413,3.71471 1.857355,7.057946 1.485884,5.94354 3.71471,12.25855 5.943536,19.68797 l 6.315008,20.05943 c 2.228826,-5.94353 4.457652,-12.63001 6.686478,-20.05943 4.086182,-12.25855 7.05795,-22.288264 9.658246,-30.460626 h 5.200596 c 2.600296,8.172362 5.572064,18.202076 9.658246,30.460626 l 6.686478,20.05943 c 1.857356,-5.94353 4.086182,-12.63001 6.315008,-20.05943 L 76.894502,102.526 c 0.742942,-2.600294 1.485884,-4.45765 1.857356,-5.943534 0,-1.485884 0.742942,-2.971768 0.742942,-4.829122 h 6.686478 L 82.095096,102.526 c -2.228826,5.57207 -4.457652,12.25855 -6.686478,19.3165 -4.086182,11.88707 -7.42942,22.28826 -9.658246,30.46062 h -5.943536 c -2.228828,-8.17236 -5.572066,-18.20208 -9.286776,-30.46062 -2.228826,-7.05795 -4.086182,-13.00149 -6.315008,-18.57355 -1.857356,5.57206 -4.086182,11.88707 -6.686478,18.57355 -4.086182,12.25854 -7.42942,22.28826 -10.029718,30.46062 H 24.517088 M 371.8425,59.435364 v 2.971768 h 8.9153 V 2.2288262 h -8.9153 V 59.435364 m -138.93016,2.600298 h 20.80238 c 2.60028,0 4.45764,0 5.57206,0.37147 v -5.943536 c -1.11442,0 -3.34324,0.37147 -5.94354,0.742942 H 236.25558 V 32.31798 h 15.60178 c 2.6003,0 4.45764,0 5.57206,0.37147 v -5.943536 c -1.11442,0 -2.97176,0.37147 -5.57206,0.37147 H 236.25558 V 5.2005944 h 17.8306 c 2.6003,0 4.45766,0 5.2006,0.742942 V 0 c -1.48588,0 -3.34324,0.37147102 -5.57206,0.74294206 h -21.17386 c -2.22882,0 -4.08618,0 -5.2006,-0.37147104 V 61.66419 c 1.11442,0 2.97178,0 5.57208,-0.37147 M 23.031204,62.778604 c 2.971768,0.742942 18.57355,4.457652 33.432392,-3.71471 v -24.88856 h -8.915304 v 23.402674 c 0,0 -1.114414,0.371472 -1.857356,0.742942 -1.485884,0.742944 -3.34324,1.114414 -5.200594,1.485886 -1.114414,0 -3.71471,0.742942 -3.71471,0.742942 h -3.71471 c -6.315008,0 -12.258544,-2.600298 -16.716197,-7.800892 -4.457652,-5.200594 -6.6864784,-11.515602 -6.6864784,-19.316494 0,-7.800892 2.2288264,-15.601783 6.3150074,-20.430906 4.457652,-5.2005944 10.029718,-7.8008916 17.087668,-7.8008916 0,0 5.943536,-0.371471 11.14413,1.857355 2.971768,1.4858842 5.943536,3.3432396 7.42942,5.5720656 h 1.485884 c 0,-1.485884 0.742942,-2.600297 0.742942,-3.7147104 0,-1.114413 0.742942,-2.2288262 1.114414,-3.7147102 C 52.005944,3.7147102 48.662704,2.9717682 45.319466,2.2288262 39.004458,1.1144131 33.803864,1.1144131 32.68945,1.1144131 c -9.658246,0 -17.830609,2.9717681 -23.7741454,8.9153049 C 2.9717682,15.973254 0,23.774146 0,33.432392 c 0,9.658246 2.9717682,16.344726 8.5438336,21.91679 0,0 4.0861814,4.829124 12.2585444,7.05795" />
</svg>
