<?xml version="1.0" encoding="UTF-8" standalone="no"?>
<svg
   viewBox="0 0 199.99999 44.745396"
   version="1.1"
   id="svg4"
   sodipodi:docname="CHWILENSKA.svg"
   width="200"
   height="44.745396"
   inkscape:version="1.4.2 (ebf0e94, 2025-05-08)"
   xmlns:inkscape="http://www.inkscape.org/namespaces/inkscape"
   xmlns:sodipodi="http://sodipodi.sourceforge.net/DTD/sodipodi-0.dtd"
   xmlns="http://www.w3.org/2000/svg"
   xmlns:svg="http://www.w3.org/2000/svg">
  <sodipodi:namedview
     id="namedview4"
     pagecolor="#ffffff"
     bordercolor="#000000"
     borderopacity="0.25"
     inkscape:showpageshadow="2"
     inkscape:pageopacity="0.0"
     inkscape:pagecheckerboard="0"
     inkscape:deskcolor="#d1d1d1"
     inkscape:zoom="3.1990192"
     inkscape:cx="148.48301"
     inkscape:cy="-32.353666"
     inkscape:window-width="2560"
     inkscape:window-height="991"
     inkscape:window-x="2294"
     inkscape:window-y="-9"
     inkscape:window-maximized="1"
     inkscape:current-layer="svg4" />
  <defs
     id="defs1">
    <style
       id="style1">.cls-1{fill:#fff;fill-rule:evenodd}</style>
  </defs>
  <g
     id="g4"
     style="fill:#000000"
     transform="matrix(1.0834236,0,0,1.0834236,-24.052004,-24.485373)">
    <g
       id="Layer_1"
       style="fill:#000000">
      <g
         id="g3"
         style="fill:#000000">
        <path
           d="m 117.9,39.5 c -0.7,0 -1.1,0 -1.5,0.1 V 23.2 h 2.4 v 15 h 4.8 c 0.8,0 1.3,-0.1 1.6,-0.2 v 1.6 c -0.3,0 -0.8,-0.1 -1.5,-0.1 H 118 m 71.6,-13 c -0.7,1.4 -1.3,3 -2.1,4.7 l -0.3,0.6 c 0.7,0.1 1.5,0.1 2.3,0.1 0.8,0 1.6,0 2.3,-0.2 l -0.2,-0.6 -2,-4.7 m -6.7,12.2 c 0.2,-0.4 0.6,-1.1 1.1,-2.2 0.7,-1.5 1.5,-3.2 2.4,-5.1 1.5,-3.2 2.6,-5.9 3.5,-8.2 h 0.6 c 0.9,2.2 2,4.9 3.4,8.1 0.8,1.9 1.6,3.6 2.3,5.2 l 1.4,2.9 H 195 c 0,-0.4 -0.2,-0.8 -0.4,-1.2 -0.1,-0.4 -0.4,-1 -0.7,-1.7 l -1.3,-3.2 c -0.9,-0.1 -1.8,-0.2 -2.9,-0.2 -1.1,0 -2.1,0 -3,0.2 -0.5,1.1 -0.9,2.2 -1.3,3.2 -0.3,0.7 -0.5,1.2 -0.6,1.6 -0.1,0.4 -0.2,0.8 -0.4,1.3 h -1.9 c 0,-0.1 0.2,-0.4 0.4,-0.7 M 100.3,26.5 c -0.7,1.4 -1.3,2.9 -2.1,4.7 l -0.3,0.6 c 0.7,0.1 1.5,0.2 2.3,0.1 0.8,0 1.6,0 2.3,-0.2 l -0.2,-0.6 -2,-4.7 m -6.7,12.2 c 0.2,-0.4 0.6,-1.1 1.1,-2.2 0.7,-1.5 1.5,-3.2 2.4,-5.1 1.5,-3.2 2.6,-5.9 3.5,-8.2 h 0.6 c 0.9,2.2 2,4.9 3.4,8.1 0.8,1.9 1.6,3.6 2.3,5.2 l 1.4,2.9 h -2.6 c 0,-0.4 -0.2,-0.8 -0.4,-1.2 -0.1,-0.4 -0.4,-1 -0.7,-1.7 l -1.3,-3.2 c -0.9,-0.1 -1.8,-0.2 -2.9,-0.2 -1.1,0 -2.1,0 -3,0.2 -0.5,1.1 -0.9,2.2 -1.3,3.2 -0.3,0.7 -0.5,1.2 -0.6,1.6 -0.1,0.4 -0.2,0.8 -0.3,1.3 h -1.9 c 0,-0.1 0.2,-0.4 0.4,-0.7 m 60.7,-8.2 h 1.1 c 1.4,0 2.6,-0.3 3.5,-0.9 0.9,-0.6 1.3,-1.4 1.3,-2.4 0,-1 -0.3,-1.6 -1,-2.1 -0.7,-0.5 -1.6,-0.7 -2.8,-0.7 h -2 v 6.1 z m -2,8.2 V 23.2 h 5 c 1.7,0 3,0.3 3.9,1 0.9,0.6 1.3,1.6 1.3,2.9 0,1.3 -0.6,2.4 -1.9,3.2 -0.8,0.5 -1.8,0.9 -2.9,1.1 0.8,1.1 1.7,2.3 2.8,3.6 l 1.3,1.6 c 0.9,1.1 1.5,1.8 1.8,2.2 0.3,0.4 0.5,0.6 0.6,0.7 h -3 c -0.2,-0.4 -0.4,-0.8 -0.7,-1.2 -0.3,-0.4 -0.7,-1 -1.4,-1.7 l -1.3,-1.7 c -1,-1.3 -1.9,-2.4 -2.7,-3.4 h -0.8 v 8 H 152 v -0.8 m -4.6,7.8 c 0,0 3.1,-3.4 2.6,-3.4 -0.5,0 -0.8,0.2 -1.9,0.4 -0.5,1.2 -2.1,2.9 -2.1,2.9 m 52.9,4.3 c -0.6,1.4 -1.3,3 -2.1,4.7 l -0.3,0.6 c 0.7,0.1 1.5,0.2 2.3,0.1 0.8,0 1.6,0 2.3,-0.2 l -0.2,-0.5 -2,-4.7 m -6.8,12.1 c 0.2,-0.4 0.6,-1.1 1.1,-2.2 0.7,-1.5 1.5,-3.2 2.4,-5.2 1.5,-3.2 2.6,-5.9 3.5,-8.1 h 0.6 c 0.9,2.2 2,4.9 3.4,8.1 0.8,1.9 1.6,3.6 2.3,5.2 l 1.4,2.9 h -2.6 c -0.1,-0.4 -0.2,-0.8 -0.4,-1.2 -0.1,-0.4 -0.4,-1 -0.7,-1.7 l -1.3,-3.2 c -0.9,-0.1 -1.8,-0.2 -2.9,-0.2 -1.1,0 -2.1,0 -3,0.2 -0.5,1.1 -0.9,2.2 -1.3,3.2 -0.3,0.7 -0.5,1.2 -0.6,1.6 -0.1,0.4 -0.3,0.8 -0.4,1.3 h -1.9 c 0,-0.1 0.2,-0.4 0.4,-0.8 m -13.7,-7.3 v 8.1 H 176 V 47.3 h 2.4 v 7.5 c 1,-0.9 2.3,-2.1 3.6,-3.5 1.5,-1.5 2.7,-2.9 3.6,-4 h 2.4 c -0.2,0 -0.4,0.3 -0.9,0.7 -0.4,0.4 -1.2,1.1 -2.4,2.2 l -1.9,1.8 -2.5,2.5 2.6,3.1 2.6,3.1 c 0.9,1.1 1.6,1.8 1.9,2.2 0.3,0.4 0.5,0.6 0.6,0.7 h -3 c -0.2,-0.4 -0.5,-0.8 -0.8,-1.2 -0.3,-0.4 -0.8,-1 -1.4,-1.7 l -1.2,-1.5 c -1.3,-1.6 -2.5,-2.9 -3.4,-3.9 m -9.9,-5.4 c -0.3,-0.6 -0.7,-1 -1.2,-1.3 -0.5,-0.3 -1.1,-0.5 -1.7,-0.5 -0.9,0 -1.6,0.3 -2.1,0.8 -0.5,0.5 -0.8,1.2 -0.8,2 0,0.8 0.3,1.4 0.8,1.9 0.5,0.5 1.4,1 2.5,1.4 1.5,0.5 2.5,1.1 3.1,1.8 0.6,0.7 0.9,1.7 0.9,2.8 0,1.1 -0.5,2.6 -1.5,3.6 -1,1 -2.3,1.5 -3.7,1.5 -1.4,0 -1.7,-0.1 -2.4,-0.4 -0.7,-0.2 -1.3,-0.6 -1.7,-1.1 0,-0.3 0.2,-0.6 0.2,-0.8 0,-0.2 0,-0.5 0.1,-0.8 h 0.4 c 0.4,0.5 0.9,1.1 1.5,1.5 0.7,0.4 1.4,0.6 2.1,0.6 0.7,0 1.8,-0.3 2.4,-0.9 0.6,-0.6 0.9,-1.4 0.9,-2.4 0,-1 -0.3,-1.5 -0.8,-2 -0.5,-0.5 -1.4,-1 -2.5,-1.4 -1.5,-0.5 -2.5,-1.1 -3.2,-1.8 -0.6,-0.7 -0.9,-1.6 -0.9,-2.8 0,-1.2 0.5,-2.3 1.4,-3.1 0.9,-0.9 2,-1.3 3.4,-1.3 1.4,0 1.4,0 2,0.3 0.6,0.2 1.2,0.4 1.7,0.8 l -0.3,0.9 c 0,0.2 -0.1,0.5 -0.2,0.9 h -0.3 z m -26.6,5.5 v 8.2 h -1.6 V 47.4 h 0.7 c 2,2.3 4.6,5.1 7.7,8.4 l 3.9,4 V 47.3 h 1.6 v 8.3 c 0,3.3 0,6 0.1,8.2 h -0.6 c -2,-2.3 -4.6,-5.1 -7.7,-8.4 l -3.9,-4.1 v 4 m -15.5,8.3 c -0.7,0 -1.1,0 -1.5,0.1 V 47.2 c 0.3,0 0.7,0 1.4,0.1 h 5.7 c 0.6,0 1.1,0 1.5,-0.1 v 1.6 c -0.3,0 -0.7,-0.1 -1.4,-0.2 h -4.8 v 5.9 h 4.1 c 0.7,0 1.2,0 1.5,-0.1 V 56 c -0.3,0 -0.8,0 -1.5,-0.1 h -4.2 v 6.6 h 4.6 c 0.8,0 1.3,-0.1 1.6,-0.2 v 1.6 c -0.3,0 -0.8,0 -1.5,-0.1 h -5.6 m -14.1,-0.2 c -0.7,0 -1.1,0 -1.5,0.1 V 47.3 h 2.4 v 15 h 4.9 c 0.8,0 1.3,-0.1 1.6,-0.2 v 1.6 c -0.3,0 -0.8,0 -1.5,-0.1 h -5.7 M 101.1,62.8 V 47.4 h 2.4 v 16.2 h -2.4 V 62.8 M 78.8,63.5 H 78 C 77.4,61.3 76.6,58.6 75.5,55.4 L 73.8,50.2 C 73.4,49.1 73.2,48.4 73.1,48 73,47.6 72.9,47.4 72.8,47.3 h 2.6 c 0,0.3 0.1,0.7 0.2,1 0.1,0.4 0.3,1 0.5,1.9 0.4,1.6 1,3.3 1.6,5.3 l 1.7,5.4 c 0.6,-1.6 1.2,-3.4 1.8,-5.4 1.1,-3.3 1.9,-6 2.6,-8.2 h 1.4 c 0.7,2.2 1.5,4.9 2.6,8.2 l 1.8,5.4 c 0.5,-1.6 1.1,-3.4 1.7,-5.4 l 1.6,-5.3 c 0.2,-0.7 0.4,-1.2 0.5,-1.6 0,-0.4 0.2,-0.8 0.2,-1.3 h 1.8 l -1.1,2.9 c -0.6,1.5 -1.2,3.3 -1.8,5.2 -1.1,3.2 -2,6 -2.6,8.2 h -1.6 c -0.6,-2.2 -1.5,-4.9 -2.5,-8.2 -0.6,-1.9 -1.1,-3.5 -1.7,-5 -0.5,1.5 -1.1,3.2 -1.8,5 -1.1,3.3 -2,6 -2.7,8.2 h -0.8 m 93.5,-25 v 0.8 h 2.4 V 23.2 h -2.4 v 15.4 m -37.4,0.7 h 5.6 c 0.7,0 1.2,0 1.5,0.1 v -1.6 c -0.3,0 -0.9,0.1 -1.6,0.2 h -4.6 v -6.7 h 4.2 c 0.7,0 1.2,0 1.5,0.1 v -1.6 c -0.3,0 -0.8,0.1 -1.5,0.1 h -4.2 V 24 h 4.8 c 0.7,0 1.2,0 1.4,0.2 v -1.6 c -0.4,0 -0.9,0.1 -1.5,0.2 h -5.7 c -0.6,0 -1.1,0 -1.4,-0.1 v 16.5 c 0.3,0 0.8,0 1.5,-0.1 m -56.5,0.4 c 0.8,0.2 5,1.2 9,-1 V 31.8 H 85 v 6.3 c 0,0 -0.3,0.1 -0.5,0.2 -0.4,0.2 -0.9,0.3 -1.4,0.4 -0.3,0 -1,0.2 -1,0.2 h -1 c -1.7,0 -3.3,-0.7 -4.5,-2.1 -1.2,-1.4 -1.8,-3.1 -1.8,-5.2 0,-2.1 0.6,-4.2 1.7,-5.5 1.2,-1.4 2.7,-2.1 4.6,-2.1 0,0 1.6,-0.1 3,0.5 0.8,0.4 1.6,0.9 2,1.5 h 0.4 c 0,-0.4 0.2,-0.7 0.2,-1 0,-0.3 0.2,-0.6 0.3,-1 -0.8,-0.4 -1.7,-0.6 -2.6,-0.8 -1.7,-0.3 -3.1,-0.3 -3.4,-0.3 -2.6,0 -4.8,0.8 -6.4,2.4 -1.6,1.6 -2.4,3.7 -2.4,6.3 0,2.6 0.8,4.4 2.3,5.9 0,0 1.1,1.3 3.3,1.9 m -55.6,1.7 c 5.1,7.8 8,15.7 8.3,22.1 v 0.3 h -8.3 z m 0,-3.7 c 4.9,5.4 8.6,11 10.8,16.1 -0.6,1.4 -1.1,2.7 -1.5,4.1 -1.9,-7.2 -6.1,-13.9 -9.3,-18.3 v -1.9 m 10.2,25.9 c 0,-2.3 0.6,-4.8 1.5,-7.5 0.9,2.6 1.4,5.1 1.5,7.4 v 0.3 h -3 V 63.2 M 29.2,27.9 c 4.5,3.5 8.9,7.8 12.6,12.4 -0.4,0.4 -0.7,0.8 -1,1.1 -3.4,-5 -7.5,-9.8 -11.7,-13.5 m 14.4,14.5 c -0.3,0.5 -0.7,1 -1,1.6 -0.3,-0.5 -0.6,-1 -1,-1.6 0.3,-0.4 0.7,-0.9 1,-1.3 0.3,0.4 0.6,0.8 1,1.3 M 55.8,27.9 c -4.2,3.7 -8.3,8.5 -11.7,13.5 -0.3,-0.4 -0.6,-0.7 -1,-1.1 3.7,-4.5 8.1,-8.9 12.6,-12.4"
           class="cls-1"
           id="path1"
           style="fill:#000000" />
        <path
           d="M 42.5,39.5 C 36.7,32.8 29.2,26.6 22.9,23 h 39.3 c -6.3,3.5 -13.8,9.8 -19.6,16.5 m -2.5,2.8 c -2.5,3.2 -4.6,6.3 -6.2,9.4 -2.6,-5 -6.6,-10.4 -11.7,-15.6 V 23.2 c 6,3.7 12.8,11 17.9,19.1 m 13.3,15.3 c -0.4,-1.3 -0.9,-2.7 -1.5,-4.1 2.2,-5.2 6,-10.8 10.8,-16.1 v 1.9 c -3.2,4.4 -7.4,11.1 -9.3,18.3 m 1,5.9 v -0.3 c 0.3,-6.5 3.2,-14.3 8.3,-22.1 v 22.4 h -8.3"
           class="cls-1"
           id="path2"
           style="fill:#000000" />
        <path
           d="m 44.8,42.3 c 5,-8.1 11.8,-15.4 17.9,-19.1 v 12.9 c -5.1,5.2 -9.1,10.6 -11.7,15.6 -1.6,-3 -3.6,-6.2 -6.2,-9.4 m 4.7,21 c 0,-2.3 0.6,-4.8 1.5,-7.5 0.9,2.6 1.4,5.1 1.5,7.5 v 0.3 h -3 V 63.3 M 37.3,63.2 c 0.2,-4.9 2,-10.7 5.1,-16.7 3.1,6 4.9,11.8 5.2,16.7 v 0.3 H 37.3 v -0.3 m 3.4,-19.8 c 0.3,0.6 0.7,1.2 1,1.8 -2.6,4.4 -4.4,8.5 -5.4,12.4 -0.4,-1.3 -0.9,-2.7 -1.5,-4.1 1.4,-3.3 3.4,-6.7 5.9,-10.1 m 3.5,0 c 2.5,3.5 4.5,6.9 5.9,10.1 -0.6,1.4 -1.1,2.7 -1.5,4.1 -1,-3.9 -2.8,-8.1 -5.4,-12.4 0.4,-0.7 0.7,-1.2 1,-1.8"
           class="cls-1"
           id="path3"
           style="fill:#000000" />
      </g>
    </g>
  </g>
</svg>
