<svg id="CHWILENSKA" width="250" height="76.708771" viewBox="0 0 250 76.708771" version="1.1" xml:space="preserve" xmlns:xlink="http://www.w3.org/1999/xlink" xmlns="http://www.w3.org/2000/svg" xmlns:svg="http://www.w3.org/2000/svg">
	<path id="CHWILENSKA" style="fill:#000000;stroke:#000000;stroke-width:0" d="m 84.881129,31.389302 c -1.300148,0 -2.04309,0 -2.786032,0.185735 V 1.1144131 h 4.457652 V 28.97474 h 8.915304 c 1.485885,0 2.414562,-0.185736 2.971769,-0.371471 v 2.971768 c -0.557207,0 -1.485884,-0.185735 -2.786033,-0.185735 H 85.066865 M 218.05349,7.243685 c -1.30015,2.6002972 -2.41456,5.572065 -3.90044,8.729569 l -0.55721,1.114413 c 1.30015,0.185736 2.78603,0.185736 4.27192,0.185736 1.48588,0 2.97176,0 4.27191,-0.371471 L 221.7682,15.787519 218.05349,7.0579495 M 205.60921,29.717682 c 0.37147,-0.742942 1.11442,-2.043091 2.04309,-4.086181 1.30015,-2.786033 2.78604,-5.943537 4.45766,-9.472511 2.78603,-5.943537 4.82912,-10.9583956 6.50074,-15.23031244 h 1.11441 c 1.67162,4.08618124 3.71471,9.10104044 6.31501,15.04457644 1.48588,3.528975 2.97177,6.686479 4.27192,9.658247 l 2.60029,5.38633 h -4.82912 c 0,-0.742942 -0.37147,-1.485884 -0.74294,-2.228827 -0.18574,-0.742942 -0.74294,-1.857355 -1.30015,-3.157503 l -2.41456,-5.943537 c -1.67162,-0.185735 -3.34324,-0.371471 -5.38633,-0.371471 -2.04309,0 -3.90045,0 -5.57207,0.371471 -0.92868,2.043091 -1.67162,4.086182 -2.41456,5.943537 -0.55721,1.300148 -0.92868,2.228826 -1.11441,2.971768 -0.18574,0.742942 -0.37147,1.485884 -0.74294,2.414562 h -3.52898 c 0,-0.185736 0.37147,-0.742942 0.74294,-1.300149 M 52.191679,7.243685 c -1.300149,2.6002972 -2.414562,5.38633 -3.900446,8.729569 l -0.557206,1.114413 c 1.300148,0.185736 2.786032,0.371471 4.271917,0.185736 1.485884,0 2.971768,0 4.271916,-0.371471 L 55.906389,15.787519 52.191679,7.0579495 M 39.7474,29.717682 c 0.371471,-0.742942 1.114413,-2.043091 2.04309,-4.086181 1.300149,-2.786033 2.786033,-5.943537 4.457653,-9.472511 2.786032,-5.943537 4.829123,-10.9583956 6.500743,-15.23031244 h 1.114413 c 1.671619,4.08618124 3.71471,9.10104044 6.315007,15.04457644 1.485884,3.528975 2.971768,6.686479 4.271917,9.658247 l 2.600297,5.38633 h -4.829123 c 0,-0.742942 -0.371471,-1.485884 -0.742942,-2.228827 -0.185736,-0.742942 -0.742942,-1.857355 -1.300149,-3.157503 l -2.414562,-5.943537 c -1.671619,-0.185735 -3.343239,-0.371471 -5.386329,-0.371471 -2.043091,0 -3.900446,0 -5.572066,0.371471 -0.928677,2.043091 -1.671619,4.086182 -2.414561,5.943537 -0.557207,1.300148 -0.928678,2.228826 -1.114414,2.971768 -0.185735,0.742942 -0.371471,1.485884 -0.557206,2.414562 h -3.528975 c 0,-0.185736 0.371471,-0.742942 0.742942,-1.300149 M 152.67459,14.48737 h 2.04309 c 2.6003,0 4.82913,-0.557207 6.50074,-1.67162 1.67162,-1.114413 2.41457,-2.600297 2.41457,-4.4576519 0,-1.8573552 -0.55721,-2.9717682 -1.85736,-3.9004458 -1.30015,-0.9286776 -2.97177,-1.3001486 -5.20059,-1.3001486 h -3.71471 V 14.48737 Z m -3.71471,15.230312 V 1.1144131 h 9.28678 c 3.1575,0 5.57206,0.5572065 7.24368,1.8573551 1.67162,1.1144131 2.41456,2.9717682 2.41456,5.3863299 0,2.4145619 -1.11441,4.4576519 -3.52897,5.9435359 -1.48589,0.928678 -3.34324,1.67162 -5.38633,2.043091 1.48588,2.043091 3.1575,4.271917 5.20059,6.686479 l 2.41456,2.971768 c 1.67162,2.04309 2.78604,3.343239 3.34324,4.086181 0.55721,0.742942 0.92868,1.114413 1.11442,1.300149 h -5.57207 c -0.37147,-0.742942 -0.74294,-1.485884 -1.30015,-2.228827 -0.5572,-0.742942 -1.30015,-1.857355 -2.60029,-3.157503 l -2.41457,-3.157504 c -1.85735,-2.414562 -3.52897,-4.457652 -5.01485,-6.315007 h -1.48589 v 14.858841 h -4.45765 v -1.485884 m -8.54383,14.48737 c 0,0 5.7578,-6.315008 4.82912,-6.315008 -0.92868,0 -1.48589,0.371471 -3.52898,0.742942 -0.92867,2.228826 -3.90044,5.38633 -3.90044,5.38633 m 98.25408,7.986627 c -1.11441,2.600297 -2.41456,5.572065 -3.90044,8.729569 l -0.55721,1.114413 c 1.30015,0.185736 2.78603,0.371471 4.27192,0.185736 1.48588,0 2.97177,0 4.27192,-0.371471 l -0.37148,-0.928678 -3.71471,-8.729569 m -12.63001,22.473997 c 0.37147,-0.742942 1.11441,-2.043091 2.04309,-4.086181 1.30015,-2.786033 2.78603,-5.943537 4.45765,-9.658247 2.78604,-5.943536 4.82913,-10.958395 6.50075,-15.044576 h 1.11441 c 1.67162,4.086181 3.71471,9.10104 6.31501,15.044576 1.48588,3.528975 2.97176,6.686479 4.27191,9.658247 L 250,75.965825 h -4.82912 c -0.18574,-0.742942 -0.37147,-1.485884 -0.74295,-2.228826 -0.18573,-0.742943 -0.74294,-1.857356 -1.30014,-3.157504 l -2.41457,-5.943537 c -1.67162,-0.185735 -3.34323,-0.371471 -5.38633,-0.371471 -2.04309,0 -3.90044,0 -5.57206,0.371471 -0.92868,2.043091 -1.67162,4.086182 -2.41456,5.943537 -0.55721,1.300148 -0.92868,2.228826 -1.11442,2.971768 -0.18573,0.742942 -0.5572,1.485884 -0.74294,2.414562 h -3.52897 c 0,-0.185736 0.37147,-0.742942 0.74294,-1.485884 M 197.25111,60.921248 v 15.044577 h -4.45765 V 45.876672 h 4.45765 v 13.930163 c 1.85736,-1.67162 4.27192,-3.900446 6.68648,-6.500743 2.78604,-2.786033 5.01486,-5.38633 6.68648,-7.42942 h 4.45765 c -0.37147,0 -0.74294,0.557206 -1.67162,1.300148 -0.74294,0.742942 -2.22882,2.043091 -4.45765,4.086181 l -3.52897,3.34324 -4.64339,4.643388 4.82912,5.7578 4.82913,5.757801 c 1.67162,2.043091 2.97176,3.34324 3.52897,4.086182 0.55721,0.742942 0.92868,1.114413 1.11441,1.300148 h -5.57206 c -0.37147,-0.742942 -0.92868,-1.485884 -1.48589,-2.228826 -0.5572,-0.742942 -1.48588,-1.857355 -2.60029,-3.157504 l -2.22883,-2.786032 c -2.41456,-2.971769 -4.64339,-5.38633 -6.31501,-7.243685 M 178.49183,50.705795 c -0.55721,-1.114413 -1.30015,-1.857355 -2.22883,-2.414562 -0.92868,-0.557206 -2.04309,-0.928677 -3.1575,-0.928677 -1.67162,0 -2.97177,0.557206 -3.90045,1.485884 -0.92868,0.928677 -1.48588,2.228826 -1.48588,3.71471 0,1.485884 0.5572,2.600297 1.48588,3.528975 0.92868,0.928677 2.6003,1.857355 4.64339,2.600297 2.78603,0.928678 4.64339,2.043091 5.7578,3.343239 1.11441,1.300149 1.67162,3.157504 1.67162,5.200595 0,2.04309 -0.92868,4.829123 -2.78603,6.686478 -1.85736,1.857355 -4.27192,2.786033 -6.87222,2.786033 -2.60029,0 -3.1575,-0.185736 -4.45765,-0.742942 -1.30015,-0.371471 -2.41456,-1.114413 -3.1575,-2.043091 0,-0.557207 0.37147,-1.114413 0.37147,-1.485884 0,-0.371471 0,-0.928678 0.18573,-1.485884 h 0.74295 c 0.74294,0.928677 1.67162,2.04309 2.78603,2.786033 1.30015,0.742942 2.6003,1.114413 3.90044,1.114413 1.30015,0 3.34324,-0.557207 4.45766,-1.67162 1.11441,-1.114413 1.67162,-2.600297 1.67162,-4.457652 0,-1.857355 -0.55721,-2.786033 -1.48589,-3.714711 -0.92868,-0.928677 -2.60029,-1.857355 -4.64339,-2.600297 -2.78603,-0.928677 -4.64338,-2.04309 -5.94353,-3.343239 -1.11441,-1.300149 -1.67162,-2.971768 -1.67162,-5.200594 0,-2.228826 0.92868,-4.271917 2.6003,-5.757801 1.67162,-1.67162 3.71471,-2.414562 6.315,-2.414562 2.6003,0 2.6003,0 3.71471,0.557207 1.11442,0.371471 2.22883,0.742942 3.15751,1.485884 l -0.55721,1.671619 c 0,0.371471 -0.18573,0.928678 -0.37147,1.67162 h -0.55721 z M 129.08618,60.921248 V 76.15156 h -2.97177 V 46.062407 h 1.30015 c 3.71471,4.271917 8.54384,9.472511 14.30164,15.601783 l 7.24368,7.429421 V 45.876672 h 2.97177 v 15.416047 c 0,6.129272 0,11.144131 0.18573,15.230312 h -1.11441 c -3.71471,-4.271917 -8.54383,-9.472511 -14.30163,-15.601783 l -7.24369,-7.615156 v 7.429421 m -28.789,15.416047 c -1.300151,0 -2.043093,0 -2.786035,0.185736 v -30.64636 c 0.557207,0 1.300149,0 2.600295,0.185736 h 10.58693 c 1.11441,0 2.04309,0 2.78603,-0.185736 v 2.971768 c -0.55721,0 -1.30015,-0.185735 -2.6003,-0.371471 h -8.9153 v 10.958396 h 7.61515 c 1.30015,0 2.22883,0 2.78604,-0.185736 v 2.971768 c -0.55721,0 -1.48589,0 -2.78604,-0.185735 h -7.80089 V 74.10847 h 8.54384 c 1.48588,0 2.41456,-0.185736 2.97176,-0.371471 v 2.971768 c -0.5572,0 -1.48588,0 -2.78603,-0.185736 H 100.48291 M 74.294205,76.15156 c -1.300149,0 -2.043091,0 -2.786033,0.185736 V 45.876672 h 4.457653 v 27.860327 h 9.10104 c 1.485884,0 2.414561,-0.185736 2.971768,-0.371472 v 2.971769 c -0.557207,0 -1.485884,0 -2.786033,-0.185736 H 74.665676 M 53.677563,74.665676 V 46.062407 h 4.457652 V 76.15156 H 53.677563 V 74.665676 M 12.258544,75.965825 H 10.77266 C 9.6582467,71.879643 8.1723626,66.864785 6.1292719,60.921248 L 2.9717682,51.263001 C 2.2288262,49.219911 1.8573551,47.919762 1.6716196,47.17682 1.4858841,46.433878 1.3001486,46.062407 1.1144131,45.876672 h 4.8291233 c 0,0.557206 0.1857355,1.300148 0.371471,1.857355 0.1857355,0.742942 0.5572066,1.857355 0.9286776,3.528974 0.742942,2.971769 1.8573551,6.129272 2.971768,9.843983 l 3.157504,10.029717 c 1.114413,-2.971768 2.228826,-6.315007 3.343239,-10.029717 2.043091,-6.129272 3.528975,-11.144131 4.829123,-15.230312 h 2.600298 c 1.300148,4.086181 2.786032,9.10104 4.829123,15.230312 l 3.343239,10.029717 c 0.928678,-2.971768 2.043091,-6.315007 3.157504,-10.029717 l 2.971768,-9.843983 c 0.371471,-1.300148 0.742942,-2.228826 0.928678,-2.971768 0,-0.742942 0.371471,-1.485884 0.371471,-2.414561 h 3.343239 l -2.043091,5.386329 c -1.114413,2.786033 -2.228826,6.129272 -3.343239,9.658247 -2.043091,5.943537 -3.71471,11.144131 -4.829123,15.230312 h -2.971768 c -1.114414,-4.086181 -2.786033,-9.10104 -4.643388,-15.230312 -1.114413,-3.528975 -2.043091,-6.500743 -3.157504,-9.286775 -0.928678,2.786032 -2.043091,5.943536 -3.343239,9.286775 -2.043091,6.129272 -3.71471,11.144131 -5.014859,15.230312 H 12.258544 M 185.92125,29.717682 v 1.485884 h 4.45765 V 1.1144131 h -4.45765 V 29.717682 m -69.46508,1.300149 h 10.40119 c 1.30014,0 2.22882,0 2.78603,0.185735 v -2.971768 c -0.55721,0 -1.67162,0.185735 -2.97177,0.371471 h -8.54383 V 16.15899 h 7.80089 c 1.30015,0 2.22882,0 2.78603,0.185735 v -2.971768 c -0.55721,0 -1.48588,0.185735 -2.78603,0.185735 h -7.80089 V 2.6002972 h 8.9153 c 1.30015,0 2.22883,0 2.6003,0.371471 V 0 c -0.74294,0 -1.67162,0.18573551 -2.78603,0.37147103 h -10.58693 c -1.11441,0 -2.04309,0 -2.6003,-0.18573552 V 30.832095 c 0.55721,0 1.48589,0 2.78604,-0.185735 M 11.515602,31.389302 c 1.485884,0.371471 9.286775,2.228826 16.716196,-1.857355 v -12.44428 h -4.457652 v 11.701337 c 0,0 -0.557207,0.185736 -0.928678,0.371471 -0.742942,0.371472 -1.67162,0.557207 -2.600297,0.742943 -0.557207,0 -1.857355,0.371471 -1.857355,0.371471 h -1.857355 c -3.157504,0 -6.129272,-1.300149 -8.3580984,-3.900446 -2.2288262,-2.600297 -3.3432393,-5.757801 -3.3432393,-9.658247 0,-3.900446 1.1144131,-7.8008914 3.1575037,-10.2154531 2.228826,-2.6002971 5.014859,-3.9004457 8.543834,-3.9004457 0,0 2.971768,-0.1857355 5.572065,0.9286775 1.485884,0.7429421 2.971768,1.6716197 3.71471,2.7860327 h 0.742942 c 0,-0.742942 0.371471,-1.3001486 0.371471,-1.8573551 0,-0.5572065 0.371471,-1.1144131 0.557207,-1.8573551 C 26.002972,1.8573551 24.331352,1.4858841 22.659733,1.1144131 19.502229,0.55720654 16.901932,0.55720654 16.344725,0.55720654 11.515602,0.55720654 7.4294205,2.0430906 4.4576523,5.0148588 1.4858841,7.986627 0,11.887073 0,16.716196 c 0,4.829123 1.4858841,8.172363 4.2719168,10.958395 0,0 2.0430906,2.414562 6.1292722,3.528975" />
</svg>
