<svg id="CIRCLE" width="500" height="90.0618" viewBox="0 0 500 90.0618" version="1.1" xml:space="preserve" xmlns:xlink="http://www.w3.org/1999/xlink" xmlns="http://www.w3.org/2000/svg" xmlns:svg="http://www.w3.org/2000/svg">
	<path id="CIRCLE" style="fill:#000000;stroke:#000000;stroke-width:0" d="m 240.42782,20.57538 c -13.9562,0 -23.60161,11.094786 -23.60161,24.438548 0,13.391687 9.64541,24.443342 23.60161,24.443342 8.69657,-0.03509 16.73378,-4.64133 21.16018,-12.127208 l 17.27847,11.284977 c -8.24596,13.545265 -23.05373,21.704882 -38.90932,21.440419 -26.31447,0 -45.69837,-19.661118 -45.69837,-45.04153 0,-25.329962 19.3839,-44.99663074 45.69837,-44.99663074 15.92636,-0.44328023 30.86672,7.69017894 39.13884,21.30698674 L 261.39933,32.936415 C 256.66982,25.444375 249.9287,20.57538 240.42782,20.57538 Z m -194.264831,0 c -13.950651,0 -23.598335,11.094786 -23.598335,24.438548 0,13.391687 9.647684,24.443342 23.598335,24.443342 8.697296,-0.03506 16.735351,-4.64119 21.162958,-12.127208 L 84.601374,68.615039 C 76.356892,82.161956 61.548013,90.322123 45.691804,90.055458 19.384156,90.055458 0,70.39434 0,45.013928 0,19.683966 19.384156,0.01729726 45.692308,0.01729726 61.620339,-0.42678007 76.562731,7.7066261 84.836715,21.324284 L 67.134747,32.936415 C 62.411297,25.444879 55.664122,20.576642 46.162989,20.576642 Z M 173.70323,55.363599 c 10.05696,-4.187207 16.47098,-14.163535 16.10602,-25.05124 0,-19.10165 -13.62373,-28.7488314 -38.06304,-28.7488314 h -27.9525 V 88.510738 h 22.37951 V 52.084476 L 169.44188,88.512 h 26.41031 z m -21.2573,-9.131097 h -6.27271 V 20.014146 h 6.41194 c 9.08519,0 15.02798,3.980855 15.02798,12.828939 5e-4,9.03474 -6.31812,13.389669 -15.16721,13.389669 z M 469.14083,48.481349 500,88.512908 H 468.30314 L 439.7363,58.557698 V 48.481349 Z m 0,0 L 500,1.5636241 H 468.30314 L 439.7363,41.59528 439.73706,1.5636241 H 412.01699 V 88.513303 l 27.72007,-3.95e-4 V 48.481349 Z m -101.96987,5.52242 v 14.700559 h 34.87979 V 88.512754 H 344.78969 V 1.5630248 h 57.1652 V 21.323524 h -34.78393 v 14.420575 h 33.24274 v 18.25967 z M 337.53022,68.704328 V 88.512754 H 284.71867 V 1.5630248 h 22.70668 V 68.704328 Z M 91.065786,1.5635323 H 113.44479 V 88.512007 H 91.065786 Z" />
</svg>
