<svg
   viewBox="0 0 138.33306 36.64448"
   version="1.1"
   id="svg1"
   width="138.33307"
   height="36.644482"
   xmlns="http://www.w3.org/2000/svg"
   xmlns:svg="http://www.w3.org/2000/svg">
  <defs
     id="defs1" />
  <path
     id="fullLogo-5"
     d="m 21.183506,8.1911732 h 5.2058 V 28.417173 h -5.2058 z m 14.2783,10.3909998 c 2.0585,0 3.5281,-1.0131 3.5281,-3.1147 0,-2.0582 -1.3824,-2.9843 -3.4959,-2.9843 h -1.4915 v 6.099 z m 36.0513,5.2272 h 7.0034 v 4.6078 h -12.2854 V 8.1911732 h 5.282 z m 8.692,-15.6181998 h 13.2979 v 4.5968998 h -8.092 v 3.3542 h 7.7331 v 4.2478 h -7.7331 v 3.4193 h 8.1141 v 4.6078 h -13.32 z m 45.047094,9.7258998 7.178,-9.7258998 h -7.3733 l -6.6446,9.3121998 V 8.1911732 h -6.4482 V 28.417173 h 6.448 v -9.3122 l 11.4694,14.790801 a 18.6418,18.6418 0 0 1 -9.89,2.7451 17.9854,17.9854 0 0 1 -18.342,-18.342201 18.3415,18.3415 0 0 1 36.6829,0 18.5377,18.5377 0 0 1 -3.7679,11.36 z m -81.098894,-3.0383 a 6.0913,6.0913 0 0 1 -3.7467,5.8274 l 5.1524,7.711 h -6.1438 l -5.4127,-8.4737 v 8.4737 h -5.2058 V 8.1911732 h 6.5021 c 5.6853,0 8.8545,2.2440998 8.8545,6.6875998 z m -33.4152,-2.265 a 5.4776,5.4776 0 0 0 -5.4894002,5.6849 5.4721,5.4721 0 0 0 5.4894002,5.686 5.7467,5.7467 0 0 0 4.9231,-2.821 l 4.0186,2.6251 a 10.391,10.391 0 0 1 -9.0511,4.9875 10.4735,10.4735 0 1 1 0,-20.9446998 10.3184,10.3184 0 0 1 9.1054,4.9564998 l -4.1179,2.7012 a 5.5614,5.5614 0 0 0 -4.8785,-2.8754 z m 45.19,0 a 5.4775,5.4775 0 0 0 -5.49,5.6849 5.472,5.472 0 0 0 5.49,5.686 5.7453,5.7453 0 0 0 4.9223,-2.821 l 4.0194,2.6251 a 10.4164,10.4164 0 1 1 0.0534,-11.0007 l -4.1166,2.7012 a 5.5631,5.5631 0 0 0 -4.8785,-2.8755 z"
     style="fill:#000000" />
</svg>
