<?xml version="1.0" encoding="UTF-8" standalone="no"?>
<svg
   width="200"
   height="43.76947"
   version="1.1"
   viewBox="0 0 1565.8537 342.86085"
   id="svg1"
   sodipodi:docname="Cropp_logo.svg"
   inkscape:version="1.4.2 (ebf0e94, 2025-05-08)"
   xmlns:inkscape="http://www.inkscape.org/namespaces/inkscape"
   xmlns:sodipodi="http://sodipodi.sourceforge.net/DTD/sodipodi-0.dtd"
   xmlns="http://www.w3.org/2000/svg"
   xmlns:svg="http://www.w3.org/2000/svg">
  <defs
     id="defs1" />
  <sodipodi:namedview
     id="namedview1"
     pagecolor="#ffffff"
     bordercolor="#000000"
     borderopacity="0.25"
     inkscape:showpageshadow="2"
     inkscape:pageopacity="0.0"
     inkscape:pagecheckerboard="0"
     inkscape:deskcolor="#d1d1d1"
     inkscape:zoom="5.1890428"
     inkscape:cx="93.658893"
     inkscape:cy="16.669741"
     inkscape:window-width="2560"
     inkscape:window-height="991"
     inkscape:window-x="2294"
     inkscape:window-y="-9"
     inkscape:window-maximized="1"
     inkscape:current-layer="svg1" />
  <g
     transform="matrix(2.4402908,0,0,2.4402908,-164.39824,-768.93563)"
     id="g1">
    <path
       d="m 265.9,434.9 -20.7,-20.7 h -8.3 -8.3 v 16.2 16.2 h -14.7 -14.7 v -65.7 -65.7 h 39.1 39.1 l 12.2,12.2 12.2,12.2 v 25.2 25.2 l -10.2,10.2 -10.2,10.2 12.6,12.6 12.6,12.6 -10.1,10 -10.1,10 -20.7,-20.7 z m 2.5,-51.7 3.5,-3.4 v -14.7 -14.7 l -3.7,-3.8 -3.7,-3.8 h -17.9 -17.9 v 21.9 21.9 h 18.1 18.1 z m -189,51.3 -12.1,-12.2 v -41.4 -41.4 l 12.2,-12.2 12.2,-12.2 h 27.2 27.2 l 11.9,11.8 11.9,11.8 v 14.9 14.9 h -14.7 -14.7 v -9.2 -9.2 l -3.8,-3.7 -3.8,-3.7 h -14.4 -14.4 l -3.4,3.5 -3.4,3.5 v 31.2 31.2 l 3.5,3.4 3.5,3.4 h 14.7 14.7 l 3.5,-3.4 3.5,-3.4 v -8.3 -8.3 h 14.7 14.7 v 13.7 13.7 l -11.9,11.8 -11.9,11.8 H 119 91.7 L 79.6,434.3 Z m 263.7,-6.9 -19,-19.1 v -17.1 -17.1 l 29.6,-29.5 29.6,-29.5 h 16.5 16.5 l 19.3,19.4 19.3,19.4 v 17.1 17.1 l -29.3,29.2 -29.3,29.2 h -17.1 -17.1 z m 62.1,-31.2 21.4,-21.5 v -5.1 -5.1 L 416.3,354.3 406,343.9 h -5.1 -5.1 l -21.8,21.7 -21.8,21.7 v 4.8 4.8 l 10.3,10.4 10.3,10.4 h 5.4 5.4 L 405,396.2 Z M 477,381 v -65.7 h 39.1 39.1 l 11.9,11.8 11.9,11.8 v 27.3 27.3 l -11.9,11.8 -11.9,11.8 h -24.4 -24.4 v 14.7 14.7 H 491.7 477 v -65.7 z m 69.1,5.3 3.5,-3.4 v -16.2 -16.2 l -3.7,-3.8 -3.7,-3.8 h -17.9 -17.9 v 23.4 23.4 h 18.1 18.1 z m 60.6,-5.1 0.2,-65.5 39,-0.2 39,-0.2 12.2,12.1 12.2,12.1 v 27 27 l -11.9,11.8 -11.9,11.8 h -24.4 -24.4 v 14.7 14.7 h -15 -15 l 0.2,-65.5 z m 69.6,5.1 3.5,-3.4 v -16.2 -16.2 l -3.7,-3.8 -3.7,-3.8 h -17.9 -17.9 v 23.4 23.4 h 18.1 18.1 z"
       fill="#000000"
       id="path1" />
  </g>
</svg>
