<svg id="CROPP" width="500" height="109.42368" viewBox="0 0 500 109.42368" version="1.1" xml:space="preserve" xmlns:xlink="http://www.w3.org/1999/xlink" xmlns="http://www.w3.org/2000/svg" xmlns:svg="http://www.w3.org/2000/svg">
	<path id="CROPP" style="fill:#000000;stroke:#000000;stroke-width:0" d="M 154.6729,93.302181 138.5514,77.180685 H 125.62305 V 102.41433 H 102.72586 V 0.07788162 h 60.90342 l 9.50156,9.50155768 9.50156,9.5015577 v 39.252336 l -7.94393,7.943926 -7.94392,7.943925 9.81308,9.813084 9.81309,9.813084 -7.86605,7.788158 -7.86604,7.78817 -16.1215,-16.121499 z m 1.94704,-40.264798 2.72585,-2.647975 V 27.492212 l -2.88162,-2.959502 -2.88162,-2.959501 h -27.88162 v 34.112149 h 28.19315 z M 9.423676,92.990654 0,83.489097 V 19.003115 L 9.5015576,9.5015576 19.003115,0 h 42.367602 l 9.267912,9.1900312 9.267913,9.1900308 V 41.588785 H 57.009346 V 27.258567 l -2.959502,-2.88162 -2.959501,-2.88162 H 28.660436 l -2.647975,2.725857 -2.647975,2.725856 v 48.598131 l 2.725857,2.647975 2.725856,2.647975 h 22.897197 l 2.725856,-2.647975 2.725857,-2.647975 V 62.616822 h 22.897196 v 21.339564 l -9.267912,9.190031 -9.267913,9.190033 H 19.003115 L 9.5794393,92.834891 Z M 214.79751,87.616822 200,72.741433 V 46.105919 L 223.05296,23.130841 246.10592,0.15576324 h 25.70093 l 15.03116,15.10903476 15.03115,15.109034 v 26.635514 l -22.81932,22.741433 -22.81931,22.741431 h -26.63551 z m 48.36448,-24.299065 16.66667,-16.744548 v -7.943926 l -8.02181,-8.099688 -8.0218,-8.099688 h -7.94393 L 238.86293,39.330218 221.88474,56.23053 v 7.476635 l 8.0218,8.099689 8.02181,8.099688 h 8.41121 L 263.00623,63.161994 Z M 319.081,51.323988 V 0.15576324 h 60.90342 l 9.26792,9.19003116 9.26791,9.1900316 V 61.05919 l -9.26791,9.190031 -9.26792,9.190031 H 341.97819 V 102.33645 H 319.081 V 51.168224 Z m 53.8162,4.127725 2.72585,-2.647975 V 27.570093 l -2.88162,-2.959501 -2.88162,-2.959502 h -27.88162 v 36.448598 h 28.19315 z M 420.09346,51.479751 420.24922,0.46728972 450.62305,0.31152648 480.99688,0.15576324 490.49844,9.5794393 500,19.003115 V 61.05919 l -9.26791,9.190031 -9.26792,9.190031 h -38.00623 v 22.897198 h -23.36448 l 0.15576,-51.012462 z m 54.20561,3.971962 2.72585,-2.647975 V 27.570093 l -2.88162,-2.959501 -2.88162,-2.959502 h -27.88162 v 36.448598 h 28.19315 z" />
</svg>
