<?xml version="1.0" encoding="UTF-8" standalone="no"?>
<svg
   width="200"
   height="31.150976"
   viewBox="0 0 15.42048 2.4018151"
   version="1.1"
   id="svg2"
   sodipodi:docname="decathlon-1-logo-svg-vector.svg"
   inkscape:version="1.4.2 (ebf0e94, 2025-05-08)"
   xmlns:inkscape="http://www.inkscape.org/namespaces/inkscape"
   xmlns:sodipodi="http://sodipodi.sourceforge.net/DTD/sodipodi-0.dtd"
   xmlns="http://www.w3.org/2000/svg"
   xmlns:svg="http://www.w3.org/2000/svg">
  <defs
     id="defs2" />
  <sodipodi:namedview
     id="namedview2"
     pagecolor="#ffffff"
     bordercolor="#000000"
     borderopacity="0.25"
     inkscape:showpageshadow="2"
     inkscape:pageopacity="0.0"
     inkscape:pagecheckerboard="0"
     inkscape:deskcolor="#d1d1d1"
     inkscape:zoom="1.699319"
     inkscape:cx="-273.05056"
     inkscape:cy="142.70422"
     inkscape:window-width="2560"
     inkscape:window-height="991"
     inkscape:window-x="2294"
     inkscape:window-y="-9"
     inkscape:window-maximized="1"
     inkscape:current-layer="g2" />
  <g
     fill-rule="evenodd"
     clip-rule="evenodd"
     id="g2"
     transform="translate(-306.45892,-78.539761)">
    <path
       d="m 318.74711,80.93182 v -0.630209 h 0.0481 l 0.10608,-0.02127 0.0752,-0.02703 0.0713,-0.04039 0.0635,-0.04624 0.0578,-0.05778 0.05,-0.06569 0.0483,-0.0905 0.025,-0.07517 0.0174,-0.07905 0.002,-0.06742 -0.004,-0.07905 -0.0174,-0.07904 -0.0289,-0.07327 -0.0387,-0.0713 -0.0481,-0.06355 -0.0868,-0.07905 -0.0674,-0.04245 -0.0733,-0.0347 -0.0772,-0.02118 -0.0809,-0.01162 h -0.0424 V 78.53981 l 0.0733,0.0019 0.12141,0.01352 0.11754,0.02506 0.11381,0.03668 0.1079,0.04624 0.10418,0.05588 0.10221,0.0713 0.10014,0.08671 0.0868,0.09256 0.0713,0.09446 0.0617,0.100227 0.0483,0.102122 0.0326,0.09635 0.01,0.04237 v -0.821101 h 0.58017 l 0.771,1.139255 -0.002,-1.145025 0.63235,0.0058 v 2.320713 h -0.57069 l -0.78452,-1.133322 v 1.133322 h -0.62641 v -0.822916 l -0.0155,0.04426 -0.0404,0.100309 -0.0541,0.104018 -0.0635,0.09833 -0.0733,0.09256 -0.0809,0.08481 -0.0905,0.07715 -0.0964,0.06742 -0.1022,0.05778 -0.10979,0.04814 -0.1233,0.03866 -0.12157,0.02497 -0.11556,0.01162 h -0.0635 z m 0,-2.392009 v 0.636061 h -0.0387 l -0.0809,0.01162 -0.077,0.02308 -0.0734,0.0347 -0.0674,0.04245 -0.0617,0.05399 -0.0539,0.05976 -0.0443,0.0694 -0.0328,0.0713 -0.0232,0.07715 -0.0135,0.08094 v 0.07904 l 0.0116,0.08094 0.0213,0.07715 0.0328,0.07517 0.0153,0.02885 0.0116,0.0155 0.0232,0.0328 0.0559,0.05976 0.0617,0.05003 0.0694,0.04253 0.0752,0.03074 0.0772,0.02127 0.0809,0.0096 0.0309,-0.0019 v 0.630209 h -0.0539 l -0.11572,-0.0096 -0.11556,-0.0211 -0.11572,-0.03668 -0.10979,-0.04624 -0.10419,-0.05391 -0.0964,-0.06569 -0.0866,-0.07327 -0.0367,-0.03074 -0.0307,-0.03091 v 0.34115 h -1.32809 v -2.320877 h 0.62253 v 1.746304 h 0.53403 l -0.0232,-0.04814 -0.025,-0.05003 -0.0425,-0.106079 -0.0326,-0.109788 -0.0232,-0.115722 -0.0116,-0.115558 V 79.67132 l 0.0135,-0.119514 0.0251,-0.12141 0.0346,-0.117618 0.0462,-0.107975 0.0579,-0.102122 0.0655,-0.09635 0.0752,-0.09067 0.0848,-0.08284 0.0905,-0.07328 0.0983,-0.06363 0.1022,-0.05201 0.1079,-0.04434 0.11185,-0.03091 0.11555,-0.01929 0.11556,-0.0096 h 0.05 z m -6.5787,1.985332 v -0.53979 h 0.1407 v -0.431734 l -0.1407,0.213971 v -1.050486 l 0.0809,-0.133031 h 0.67084 v 2.320713 h -0.61108 v -0.37956 h -0.1407 z m 1.25869,0.379643 h 0.61677 V 79.14892 h 0.44327 v -0.564847 h -1.48609 v 0.564847 h 0.42596 v 1.755866 z m 1.12367,0 h 0.62848 v -0.874925 h 0.63607 v 0.874925 h 0.62443 v -2.320713 l -0.62443,-0.0019 v 0.894376 h -0.63607 v -0.89248 h -0.62848 z m -7.0547,-1.72504 0.0559,0.01929 0.0752,0.0366 0.0694,0.04632 0.0617,0.05399 0.054,0.06174 0.0444,0.0694 0.0347,0.07327 0.0231,0.07715 0.0135,0.07517 0.004,0.06932 -0.006,0.0694 -0.0135,0.07328 -0.027,0.07517 -0.0366,0.07327 -0.054,0.0713 -0.0674,0.06553 -0.0752,0.05605 -0.079,0.04039 -0.0771,0.02704 V 80.8955 l 0.0559,-0.0077 0.13105,-0.0328 0.12339,-0.04426 0.10402,-0.05201 0.10023,-0.06569 0.0926,-0.07517 0.0809,-0.07888 0.0713,-0.08869 0.0694,-0.104183 0.0366,-0.06165 v 0.620566 h 1.28185 v -0.558912 h -0.6631 v -0.32005 h 0.6631 v -0.55133 h -0.6631 v -0.34131 h 0.6631 v -0.549352 h -1.28185 v 0.641913 l -0.0135,-0.0366 -0.052,-0.08671 -0.0713,-0.09446 -0.0926,-0.09825 -0.0964,-0.08292 -0.0983,-0.06742 -0.11375,-0.05786 -0.1407,-0.05011 -0.1388,-0.03668 -0.0481,-0.0077 v 0.57243 z m 4.67234,-0.462642 v 1.050486 l -0.14078,0.217845 h 0.14078 v 0.539791 h -0.36234 l -0.0443,0.04426 -0.0906,0.08292 -0.0945,0.07328 -0.10023,0.06165 -0.10599,0.05201 -0.10987,0.04253 -0.11375,0.03074 -0.11762,0.02126 -0.11951,0.0077 -0.11762,-0.0019 -0.11564,-0.01549 -0.11952,-0.02687 -0.12149,-0.04055 -0.11177,-0.05003 -0.0983,-0.06165 -0.0944,-0.0694 -0.0828,-0.07715 -0.0772,-0.08679 -0.0694,-0.09256 -0.0598,-0.10204 -0.0539,-0.119596 -0.0444,-0.131054 -0.0289,-0.121409 -0.0135,-0.119597 -0.004,-0.115557 0.01,-0.117619 0.0193,-0.115639 0.0308,-0.113662 0.0443,-0.113744 0.0559,-0.10987 0.0655,-0.09825 0.0733,-0.09067 0.0809,-0.08094 0.0906,-0.07319 0.0964,-0.06553 0.10796,-0.05778 0.12141,-0.05011 0.12339,-0.0347 0.11564,-0.02118 0.11762,-0.01162 0.11754,0.0039 0.11564,0.01154 0.11564,0.02703 0.11564,0.03857 0.10986,0.04624 0.10213,0.05786 0.0944,0.06742 0.0867,0.07517 0.0733,0.07327 0.0289,0.0347 -0.31997,0.497342 -0.0405,-0.0366 -0.0405,-0.0366 -0.0906,-0.0675 -0.10221,-0.06165 -0.10987,-0.05011 -0.10987,-0.03083 -0.0964,-0.01154 -0.0925,0.0058 -0.0945,0.02316 -0.0925,0.0347 -0.0752,0.04814 -0.0617,0.05201 -0.0521,0.06173 -0.0444,0.0694 -0.0327,0.07517 -0.0232,0.07904 -0.01,0.07863 v 0.07904 l 0.0135,0.07904 0.0251,0.07715 0.0347,0.07517 0.0463,0.06742 0.0559,0.05976 0.0617,0.04814 0.0694,0.04039 0.0772,0.03091 0.0867,0.01929 0.0868,0.0096 0.0828,-0.0058 0.0772,-0.0155 0.0771,-0.02901 0.0694,-0.03651 0.0655,-0.04624 0.052,-0.04632 0.0232,-0.023 z m -5.10993,1.628769 V 79.14892 h 0.17153 l 0.0848,0.0019 0.0809,0.0077 0.079,0.01352 0.0213,0.0077 v -0.572513 l -0.0926,-0.01352 -0.15801,-0.0096 h -0.78648 v 2.320712 h 0.90212 l 0.0848,-0.0037 0.0501,-0.0058 v -0.582074 l -0.008,0.0019 -0.0925,0.01904 -0.10797,0.0077 -0.0598,0.0039 z"
       id="path2"
       sodipodi:nodetypes="ccccccccccccccccccccccccccccccccccccccccccccccccccccccccccccccccccccccccccccccccccccccccccccccccccccccccccccccccccccccccccccccccccccccccccccccccccccccccccccccccccccccccccccccccccccccccccccccccccccccccccccccccccccccccccccccccccccccccccccccccccccccccccccccccccccccccccccccccccccccccccccccccccccccccccccccccccccccccccccccccccccccccccccccccccc"
       style="stroke-width:0.0824234" />
  </g>
</svg>
