<svg id="DECATHLON" width="500" height="69.155502" viewBox="0 0 500 69.155502" version="1.1" xml:space="preserve" xmlns:xlink="http://www.w3.org/1999/xlink" xmlns="http://www.w3.org/2000/svg" xmlns:svg="http://www.w3.org/2000/svg">
	<path id="DECATHLON" style="fill:#000000;stroke:#000000;stroke-width:0" d="M 61.461005,67.82559 H 106.39308 V 53.386529 H 78.559894 V 41.274817 H 103.21079 V 27.833191 H 78.559894 V 15.721478 H 106.39308 V 1.3299136 H 61.461005 Z M 162.15446,39.184953 c -6.50708,10.354326 -12.82417,14.676545 -20.94614,14.676545 -10.54431,0 -16.67141,-7.409517 -16.67141,-20.281181 0,-12.206706 5.65213,-18.286311 14.34406,-18.286311 5.74713,0 10.49682,2.564833 11.96922,11.114277 h 17.09889 C 166.0967,10.116842 155.69488,0 139.07096,0 c -19.28375,0 -31.96542,13.631614 -31.96542,34.530256 0,21.041131 12.68167,34.625248 33.53282,34.625248 13.63161,0 22.89351,-5.69963 29.02061,-13.394129 h 23.32099 V 67.82559 h 17.00389 V 1.3299136 h -24.12843 z m 30.8255,3.22979 h -15.05653 l 15.05653,-24.46091 z M 24.983376,1.3299136 H 0 V 67.82559 h 24.983376 c 19.806213,0 32.582882,-13.061651 32.582882,-33.247838 0,-20.186187 -12.776669,-33.2478384 -32.582882,-33.2478384 z M 24.745892,53.386529 H 17.098889 V 15.721478 h 7.647003 c 9.879357,0 15.436496,6.982046 15.436496,18.856274 0,11.826732 -5.557139,18.808777 -15.436496,18.808777 z M 406.24109,0 c -20.09119,0 -33.58031,13.631614 -33.58031,34.577752 0,20.946138 13.48912,34.577752 33.58031,34.577752 20.1387,0 33.58032,-13.631614 33.58032,-34.577752 C 439.82141,13.631614 426.37979,0 406.24109,0 Z m 0,53.861498 c -9.87935,0 -16.10145,-6.60207 -16.10145,-19.283746 0,-12.681675 6.2221,-19.283746 16.10145,-19.283746 9.92686,0 16.10146,6.602071 16.10146,19.283746 0,12.681676 -6.1746,19.283746 -16.10146,19.283746 z M 214.25857,15.721478 h 16.76641 V 67.82559 h 17.09889 V 15.721478 h 16.76641 V 1.3299136 H 214.25857 Z M 483.47107,1.3299136 V 37.950033 L 461.43251,1.3299136 H 443.71616 V 67.82559 h 16.52892 V 29.68557 l 22.94101,38.14002 H 500 V 1.3299136 Z m -135.03372,0 H 331.33846 V 67.82559 h 42.88972 V 53.434026 H 348.43735 Z M 309.2999,26.693265 H 286.26389 V 1.3299136 H 269.165 V 67.82559 h 17.09889 V 41.037333 H 309.2999 V 67.82559 h 17.09888 V 1.3299136 H 309.2999 Z" />
</svg>
