<svg id="DEICHMANN" width="500" height="53.130317" viewBox="0 0 500 53.130317" version="1.1" xml:space="preserve" xmlns:xlink="http://www.w3.org/1999/xlink" xmlns="http://www.w3.org/2000/svg" xmlns:svg="http://www.w3.org/2000/svg">
	<path id="DEICHMANN" style="fill:#000000;stroke:#000000;stroke-width:0" d="m 36.35264,26.552823 c 0,6.791776 -3.06327,13.794571 -11.318932,13.794571 H 14.38088 v -27.56447 h 9.588097 c 7.723164,0 12.383361,4.393558 12.383361,13.715401 z m 14.514259,-0.0545 c 0,-13.715401 -8.2557,-24.7674193 -24.900706,-24.7674193 H 0 V 51.532376 h 25.966193 c 16.645006,0 24.900706,-11.184982 24.900706,-24.900005 z m 8.389004,25.034053 H 101.33423 V 40.746988 H 73.637539 v -9.05521 H 96.67403 V 21.438541 H 73.637539 V 12.383328 H 101.33423 V 1.7309065 H 59.255903 Z m 52.331547,0 h 14.38163 V 1.7309358 h -14.38163 z m 38.48289,-25.103699 c 0,-8.389016 3.06323,-15.509627 11.98439,-15.509627 6.1256,0 9.05523,3.727712 10.11996,7.989419 h 14.38197 C 185.89007,7.8561032 176.30307,0 162.05473,0 c -17.97634,0 -26.63199,11.984846 -26.63199,26.631993 0,14.647527 8.65565,26.498326 26.63199,26.498326 14.91418,0 23.83534,-8.388985 24.50193,-19.308068 h -14.24833 c -0.79842,4.393557 -3.72805,7.989801 -10.2536,7.989801 -8.92116,0 -11.98409,-6.92436 -11.98409,-15.313727 z m 80.02925,25.103699 h 14.38126 V 1.7309358 H 230.09959 V 20.506445 H 208.92731 V 1.8642515 H 194.54606 V 51.665691 h 14.51418 V 31.824742 h 21.17269 v 19.707664 z m 75.23507,0 h 13.31585 V 1.7309358 H 297.74412 L 287.89047,34.487745 277.90352,1.7309358 H 257.13044 V 51.532376 h 13.31653 V 14.247932 l 11.45125,37.284444 h 11.98413 l 11.31901,-37.284444 v 37.284444 z m 53.26369,-18.508558 h -11.98451 l 5.85963,-18.775889 h 0.14665 z m 5.99221,18.508558 h 15.44667 L 361.39429,1.7309358 H 343.81748 L 325.17564,51.532376 h 15.44633 l 2.53443,-8.122736 h 18.90849 l 2.66264,7.989772 z m 55.92667,0 h 15.97921 V 1.7309358 H 422.51475 V 32.890154 h -0.18331 L 402.35754,1.7309065 h -16.6447 V 51.532376 h 13.98131 v -31.55811 z m 79.23018,0 V 1.7309358 H 486.03166 V 32.890154 h -0.14665 L 465.91145,1.7309065 H 449.2664 V 51.532376 h 13.98169 v -31.55811 l 20.77305,31.55811 H 500 Z" />
</svg>
