<svg
   width="170.64763mm"
   height="161.24562mm"
   viewBox="0 0 170.64763 161.24562"
   version="1.1"
   id="svg1"
   xmlns="http://www.w3.org/2000/svg"
   xmlns:svg="http://www.w3.org/2000/svg">
  <defs
     id="defs1" />
  <path
     fill="#ffffff"
     d="m 148.01562,63.168371 c 0,35.057383 -31.41925,61.515639 -61.18488,61.515639 -17.85936,0 -21.49749,-12.23701 -42.99486,-12.23701 -4.2995,0 -7.9375,0.66125 -9.92188,0.9925 -2.51345,0.44651 -5.62237,0.9925 -7.9375,0.33125 C 24.65363,113.1095 23,112.11712 23,108.47912 V 5.291713 C 23,1.984375 24.98438,0 28.62238,0 H 82.862 c 41.34112,0 65.15362,28.442625 65.15362,63.169251 m -33.73438,-1.98438 C 114.28124,33.734375 94.43749,18.8515 75.58588,18.8515 H 58.388 c -1.65362,0 -2.31512,0.66125 -2.31512,2.315125 v 79.374995 c 0,1.65363 0.9925,2.31513 2.64587,2.31513 h 17.52863 c 18.52086,0 38.03386,-14.221376 38.03386,-41.671879"
     id="path2"
     style="fill:#000000;stroke-width:3.30729" />
  <path
     d="m 12.40698,152.17485 c 0,2.318 -1.04548,4.70802 -3.8631,4.70802 H 4.90813 v -9.40762 H 8.1805 c 2.63588,0 4.22638,1.4995 4.22638,4.681 z m 4.95365,-0.0186 c 0,-4.681 -2.81763,-8.453 -8.4985,-8.453 H 0 v 16.997 h 8.86213 c 5.68087,0 8.4985,-3.81738 8.4985,-8.49825 z m 2.86312,8.544 h 14.36113 v -3.681 h -9.45275 v -3.0905 h 7.86225 v -3.49938 h -7.86225 v -3.0905 h 9.45275 v -3.63562 H 20.22375 Z m 17.8605,0 h 4.90838 v -16.99699 h -4.90838 z m 13.13403,-8.56777 c 0,-2.86313 1.04547,-5.29336 4.09022,-5.29336 2.09063,0 3.0905,1.27225 3.45388,2.72675 h 4.9085 c -0.2275,-3.77212 -3.4995,-6.45337 -8.36238,-6.45337 -6.13525,0 -9.08937,4.09037 -9.08937,9.08937 0,4.99913 2.95412,9.04375 9.08937,9.04375 5.09013,0 8.13488,-2.86312 8.36238,-6.58975 H 58.808 c -0.2725,1.4995 -1.27237,2.72688 -3.4995,2.72688 -3.04475,0 -4.09012,-2.36325 -4.09012,-5.2265 z m 27.3136,8.56777 h 4.90825 v -16.99699 h -4.90825 v 6.40799 h -7.226 v -6.36249 h -4.90825 v 16.99699 h 4.95362 v -6.77162 h 7.22613 v 6.72613 z m 25.67736,0 h 4.54463 v -16.99699 h -7.13525 l -3.363,11.17974 -3.4085,-11.17974 h -7.08975 v 16.99699 h 4.54487 v -12.725 l 3.90825,12.725 h 4.09013 l 3.86312,-12.725 v 12.725 z m 18.17863,-6.31688 h -4.09025 l 1.99987,-6.40812 h 0.05 z m 2.04512,6.31688 h 5.27188 l -6.36275,-16.99699 h -5.99888 l -6.36237,16.99699 h 5.27175 l 0.865,-2.77225 h 6.45337 l 0.90875,2.72687 z m 19.0875,0 h 5.45363 v -16.99699 h -4.77188 v 10.63449 h -0.0625 l -6.817,-10.6345 h -5.68075 v 16.997 h 4.77175 v -10.77063 z m 27.04088,0 v -16.99699 h -4.68113 v 10.63449 h -0.05 l -6.81687,-10.6345 h -5.68088 v 16.997 h 4.77188 v -10.77063 l 7.08975,10.77063 h 5.4535 z"
     style="fill:#000000;stroke-width:0.454467"
     id="path1-4" />
</svg>
