<svg id="DELIKATESYCENTRUM" width="500" height="133.1457" viewBox="0 0 500 133.1457" version="1.1" xml:space="preserve" xmlns:xlink="http://www.w3.org/1999/xlink" xmlns="http://www.w3.org/2000/svg" xmlns:svg="http://www.w3.org/2000/svg">
	<path id="DELIKATESYCENTRUM" style="fill:#000000;stroke:#000000;stroke-width:0" d="m 158.52543,36.472032 c -4.4905,-0.514476 -8.58396,2.614095 -9.26638,7.082157 0.68242,4.46806 4.77588,7.596632 9.26638,7.082157 4.50484,0.51713 8.61821,-2.604348 9.33256,-7.082157 -0.71435,-4.477809 -4.82772,-7.599307 -9.33256,-7.082157 M 3.5784253,101.99853 c 8.7747847,1.22536 17.6165497,1.91059 26.4753537,2.05184 6.410219,-0.0318 12.759823,-1.24325 18.731312,-3.57417 3.794593,-1.486906 7.241942,-3.740078 10.126823,-6.618842 3.145073,-3.42595 5.196185,-7.712542 5.890766,-12.311039 0.598939,-3.054171 0.931145,-6.15464 0.992826,-9.266374 -0.09306,-4.086967 -0.648183,-8.15029 -1.65471,-12.112472 C 61.758749,49.160835 53.434832,40.402853 42.563383,37.464857 37.174795,35.882633 31.559789,35.211516 25.950099,35.479206 c -5.561574,0.28925 -11.049134,1.404607 -16.2823424,3.309419 -3.0613353,1.245268 -5.9885814,2.797596 -8.73686668,4.633187 -1.1913909,0.992826 -1.05901413,1.389956 -0.59569545,2.581347 0.17776876,0.365035 0.33250397,0.740835 0.46331869,1.125202 1.94110804,5.927931 3.20670344,12.056082 3.77273784,18.267994 0.5989122,5.959058 0.8199847,11.950059 0.6618838,17.93705 -0.08713,6.307746 -0.52909,12.605598 -1.3237676,18.863685 M 28.531446,91.077446 H 24.69252 V 48.385941 c 3.902451,-0.718303 7.933214,-0.03839 11.384402,1.919463 3.340229,2.109192 5.807772,5.352244 6.94978,9.133997 2.450896,7.119829 2.450896,14.85471 0,21.974541 -0.781851,2.127546 -1.899117,4.116282 -3.309419,5.890766 -1.974658,2.379241 -4.917049,3.741014 -8.008795,3.70655 -1.058024,0.06486 -2.119018,0.06486 -3.177042,0 M 114.37778,68.573396 c -0.21181,-2.455045 -1.20993,-4.776271 -2.8461,-6.618837 -1.46613,-1.705476 -3.23992,-3.120014 -5.22889,-4.169868 -3.48744,-1.827309 -7.38208,-2.738339 -11.318211,-2.647535 -1.772161,0.0079 -3.541568,0.140584 -5.29507,0.39713 -7.250759,0.791686 -13.593095,5.236315 -16.81185,11.78153 -1.798087,3.79883 -2.638878,7.980076 -2.44897,12.178663 0.152895,3.932358 1.193787,7.779121 3.044666,11.252025 l 0.595695,0.992826 c 0.182283,0.334582 0.404544,0.645734 0.661884,0.926637 3.889057,4.891666 9.548594,8.054343 15.752835,8.803053 6.01994,0.92953 12.162571,-0.57041 17.076601,-4.169866 2.81139,-2.01488 4.88147,-4.899046 5.89077,-8.20736 0.31393,-0.854591 0.31393,-1.792944 0,-2.647535 l -0.86045,0.39713 c -1.09096,0.618862 -2.21821,1.171402 -3.37561,1.65471 -3.09402,1.51443 -6.48392,2.328004 -9.928256,2.382782 -1.264291,-0.01191 -2.525722,-0.122316 -3.772738,-0.330942 -2.070981,-0.386606 -4.008097,-1.298179 -5.626012,-2.647535 -1.408085,-1.206045 -2.345604,-2.870141 -2.647536,-4.699376 v -0.39713 h 2.846101 l 5.427447,0.39713 c 4.663664,0.262834 9.292634,-0.940689 13.237674,-3.441796 3.0705,-2.031937 5.06368,-5.337689 5.42745,-9.00162 V 70.42667 c 0.0318,-0.617339 0.0318,-1.235929 0,-1.853274 m -16.811849,2.118028 c -1.005137,1.520982 -2.430927,2.716815 -4.10368,3.441796 -2.129836,0.734764 -4.365845,1.114884 -6.618838,1.125202 -0.317109,-3.25069 0.578685,-6.503869 2.515159,-9.133995 1.548311,-1.814296 4.099662,-2.405133 6.287896,-1.456144 2.312099,1.044155 3.132372,3.915107 1.720898,6.023141 M 376.81472,55.137156 c -1.79401,0.01125 -3.5852,0.143827 -5.36126,0.39713 -7.32407,0.726583 -13.75494,5.180644 -17.01042,11.78153 -1.82718,3.78912 -2.66947,7.977779 -2.44897,12.178663 0.1529,3.932358 1.19379,7.779121 3.04467,11.252025 l 0.59569,0.992826 c 0.22643,0.321344 0.46948,0.630643 0.72807,0.926637 3.88906,4.891666 9.5486,8.054343 15.75284,8.803053 6.01962,0.92214 12.15945,-0.57709 17.0766,-4.169866 2.81139,-2.01488 4.88148,-4.899046 5.89077,-8.20736 v -2.647535 c 0,-0.264753 0,0 -0.46332,0 -1.09096,0.618795 -2.21821,1.171402 -3.37561,1.65471 -3.09402,1.51443 -6.48392,2.328004 -9.92825,2.382781 -1.2643,-0.01191 -2.52573,-0.122316 -3.77274,-0.330941 -2.07471,-0.374958 -4.01467,-1.287901 -5.62602,-2.647536 -1.40808,-1.206045 -2.3456,-2.87014 -2.64753,-4.699375 v -0.39713 h 2.8461 l 5.42745,0.39713 c 4.66366,0.262834 9.29263,-0.940689 13.23767,-3.441796 3.0705,-2.031937 5.06368,-5.337689 5.42745,-9.00162 V 70.02954 c 0.0318,-0.617339 0.0318,-1.235929 0,-1.853275 -0.28659,-2.435631 -1.27548,-4.73532 -2.8461,-6.618836 -1.48068,-1.690306 -3.25147,-3.102448 -5.22888,-4.169868 -3.48745,-1.827309 -7.38208,-2.738339 -11.31821,-2.647535 m -8.20736,20.849338 c -0.36788,-3.316673 0.53043,-6.64992 2.51515,-9.332562 1.58647,-1.975999 4.30836,-2.629252 6.61884,-1.588519 2.66493,1.04119 3.59005,4.345179 1.85328,6.618836 -1.08383,1.575363 -2.56922,2.832234 -4.30225,3.640361 -2.12832,0.740675 -4.36532,1.120967 -6.61884,1.125203 z M 119.20953,36.869162 V 92.13646 c 0.0437,0.937155 0.17672,1.868002 0.39713,2.779912 0.38303,1.84882 1.35912,3.522083 2.77991,4.765564 1.41569,1.296004 3.19422,2.127534 5.09651,2.382784 2.79217,0.36754 5.63185,0.0496 8.27354,-0.92664 2.94412,-0.98562 5.52591,-2.829758 7.4131,-5.29507 0,-0.529508 1.19139,-1.787087 0.92664,-2.316594 -0.26475,-0.529507 0,0 -0.72807,-0.330942 -1.80846,-0.08022 -3.54557,-0.728714 -4.96413,-1.853275 -1.68003,-1.477066 -2.56344,-3.661058 -2.38278,-5.890766 V 37.332481 c 0.0892,-0.573357 -0.0278,-1.159764 -0.33094,-1.65471 -0.2962,-0.125043 -0.63038,-0.125043 -0.92664,0 -5.21168,-0.128789 -10.423,0.27038 -15.55427,1.191391 m 38.85258,19.26082 c -2.5047,0.0063 -5.00518,0.205382 -7.47929,0.595695 -1.05901,0 -1.32377,0.529507 -1.32377,1.588521 v 33.49132 c 0.0463,0.958752 0.17904,1.911349 0.39713,2.846101 0.41328,1.837091 1.38421,3.501557 2.77992,4.765563 1.482,1.233508 3.26253,2.055288 5.16269,2.382778 2.79218,0.36755 5.63186,0.0496 8.27355,-0.92663 2.99904,-0.983728 5.62972,-2.852901 7.54547,-5.361262 0.39713,-0.529507 1.25758,-1.787087 0.99283,-2.316594 -0.26475,-0.529507 -0.33094,-0.330942 -0.79426,-0.330942 -1.79901,-0.125162 -3.52323,-0.76887 -4.96413,-1.853274 -1.68134,-1.508784 -2.58294,-3.701884 -2.44897,-5.956955 V 72.743264 58.512763 c 0,-1.191391 0,-1.588521 -1.52233,-1.787086 -2.19024,-0.339215 -4.40254,-0.516203 -6.61884,-0.529507 m 21.18028,-23.033557 v 65.460309 c 0,1.257579 0,1.720898 1.52233,1.919458 4.67114,0.72865 9.427,0.72865 14.09813,0 1.19139,0 1.38996,-0.595691 1.38996,-1.720893 V 77.707393 l 0.59569,1.323767 c 2.81415,6.52313 6.58412,12.590771 11.18584,18.00324 1.40266,1.5648 3.17877,2.748877 5.16269,3.4418 2.157,0.6595 4.46185,0.6595 6.61884,0 4.45497,-1.458875 7.89959,-5.027402 9.20019,-9.531131 0,-1.191391 0.39713,-1.985651 0,-2.382782 -0.39713,-0.39713 -0.86045,-0.39713 -1.65471,-0.39713 -4.06082,0.164611 -8.02591,-1.259988 -11.05346,-3.971303 -2.58655,-2.651526 -4.47424,-5.903812 -5.49364,-9.464939 l 1.05901,-1.125202 c 2.12889,-1.262385 4.03067,-2.873304 5.62602,-4.765564 2.19437,-2.841564 3.19191,-6.427929 2.77991,-9.994444 -0.29831,-2.547928 -1.90399,-4.755754 -4.23606,-5.824577 -2.90228,-1.433866 -6.0954,-2.181192 -9.33256,-2.184217 -0.2768,-0.107159 -0.58365,-0.107159 -0.86045,0 -0.0622,0.216171 -0.0622,0.445712 0,0.661884 v 2.316593 c 1.1458,7.341437 -2.60601,14.57707 -9.26637,17.870862 l -0.52951,0.330942 V 71.419496 35.346829 c 0,-1.257579 0,-1.588521 -1.38996,-1.720898 h -1.72089 c -4.6168,-0.491621 -9.25667,-0.734664 -13.89956,-0.728072 m 144.62161,10.259199 v 48.714649 c 0.0437,0.937154 0.17673,1.868001 0.39713,2.779912 0.38304,1.84882 1.35913,3.522082 2.77992,4.765563 1.41569,1.296008 3.19422,2.127538 5.0965,2.382778 2.77034,0.37284 5.58989,0.0543 8.20736,-0.92663 2.96457,-0.981233 5.56881,-2.824943 7.47929,-5.295074 0.39713,-0.529507 1.25758,-1.787086 0.99282,-2.316593 -0.26475,-0.529507 -0.33094,0 -0.79426,-0.330942 -1.71977,-0.109145 -3.37282,-0.706098 -4.76556,-1.720898 -1.64413,-1.37742 -2.59014,-3.414977 -2.58135,-5.559824 V 63.410704 h 7.4131 v -6.618839 h -7.28072 V 43.223247 c 0,-0.661884 0,-1.389956 -0.33094,-1.720898 -0.27879,-0.09581 -0.58167,-0.09581 -0.86045,0 -5.30955,-0.0047 -10.59976,0.639922 -15.75284,1.919463 m 85.84634,42.029621 c -1.98484,-0.02912 -3.94422,0.449221 -5.6922,1.389956 -1.75266,1.080744 -2.90251,2.915619 -3.11086,4.964129 -0.0698,1.926195 0.70363,3.787101 2.11803,5.096506 1.48936,1.31319 3.19012,2.364977 5.03032,3.110856 4.22209,1.64719 8.70603,2.52156 13.23767,2.58134 2.73062,0.0146 5.45649,-0.22914 8.14117,-0.72807 3.94837,-0.55399 7.63853,-2.283735 10.59015,-4.964126 5.22601,-4.493616 4.83509,-12.702782 -0.79426,-16.679473 -1.26408,-0.960936 -2.6425,-1.761313 -4.10368,-2.382782 l -4.63319,-2.05184 -5.75839,-2.184216 c -1.78709,-0.728072 -7.21453,-2.978477 -5.89077,-7.082157 0.33386,-1.038904 1.074,-1.898433 2.05184,-2.38278 1.77255,-0.773603 3.78728,-0.773603 5.55983,0 3.68979,1.591996 6.56213,4.631881 7.9426,8.405923 1.69559,0.06288 3.37979,-0.301224 4.89794,-1.059015 1.27649,-0.670574 2.29908,-1.739649 2.91229,-3.044665 0.60013,-1.281579 0.74041,-2.730805 0.39713,-4.103678 -0.66188,-3.309419 -3.50798,-5.030317 -7.54547,-6.618838 -5.40266,-1.934614 -11.19004,-2.547393 -16.87804,-1.787087 -3.95238,0.368604 -7.72882,1.810498 -10.92108,4.169869 -3.17462,2.116267 -5.18136,5.591363 -5.42745,9.398748 -0.49959,4.649899 2.22918,9.04322 6.61884,10.65633 3.15286,1.53518 6.40308,2.8618 9.72969,3.971303 l 2.64754,0.992825 h 0.39713 c 2.2345,0.581267 4.22731,1.855711 5.6922,3.640362 0.39666,0.861097 0.39666,1.852626 0,2.713723 -0.68978,1.222228 -1.87071,2.089852 -3.24323,2.382782 -1.19527,0.29712 -2.4451,0.29712 -3.64037,0 -4.29181,-0.981911 -7.81459,-4.033335 -9.39875,-8.141171 h -0.5295 M 252.45005,0.00403227 c 0,0 -7.47876,28.72368973 17.07713,34.28351373 6.22171,1.389956 12.50185,-1.791223 11.90615,2.378645 0,1.522333 -1.0523,6.622458 -1.38324,8.674298 -0.17857,0.307729 -0.62296,0.307729 -0.80149,0 -6.13991,-6.635486 -15.12297,-9.870932 -24.08378,-8.674298 -16.41472,2.647536 -27.20757,20.790391 -24.09671,40.514527 0.6037,3.90669 1.73892,7.712456 3.37405,11.311489 0.46332,1.059014 1.06057,2.0565 1.59008,3.115514 5.60096,11.347049 17.66098,18.021289 30.25015,16.740999 5.85599,-0.974 11.21472,-3.88784 15.21557,-8.27355 3.21877,4.99328 8.90159,7.83716 14.82776,7.42034 5.32525,0.25225 10.57091,-1.36674 14.82774,-4.5763 3.06094,-2.20407 5.70494,-4.935615 7.80817,-8.06671 2.2504,-4.037491 0.80511,-5.631698 -2.10718,-5.830263 h -0.3361 c -3.30942,0 -7.34277,0.405933 -7.34277,-5.881976 V 42.03107 c -8.09552,-2.349704 -16.81493,-1.016258 -23.83817,3.645532 -0.31645,0.351626 -0.59735,0.549747 -0.74979,0.54295 h -0.0132 l -0.0132,-0.01291 h -0.0132 -0.0132 l -0.0132,-0.01291 -0.0132,-0.01291 -0.0132,-0.01291 v -0.01291 l -0.0132,-0.01291 v -0.01291 c -0.0271,-0.08562 -0.01,-0.229072 0.0649,-0.452457 1.39227,-7.376397 4.75611,-14.238087 9.73435,-19.856515 0.97196,-0.914691 0.97196,-2.459365 0,-3.374056 -0.99283,-0.926638 -4.64354,-3.642948 -5.63636,-2.650122 -2.0803,2.30463 -3.67612,5.003904 -4.69265,7.937436 h -0.59464 c 0,-1.389956 -0.52845,-2.508437 -0.59464,-3.037944 C 279.18847,-0.91935724 252.44784,0.00417789 252.44784,0.00417789 Z M 458.95264,55.540223 c -4.02895,-0.109012 -7.95917,1.256236 -11.05294,3.839443 l 1.06005,0.98248 c 2.44426,2.671469 3.62567,6.262783 3.24478,9.863623 v 21.718063 c -0.0251,5.419492 3.17661,10.334298 8.14427,12.500818 3.4841,1.12249 7.23273,1.12249 10.71683,0 4.06144,-1.24613 7.4055,-4.1534 9.20432,-8.00208 0,-0.595695 0.52229,-0.932323 0.85322,-0.866134 0.33094,0.06619 0.40077,0.60291 0.40077,0.801501 v 14.426993 c -0.12795,5.93301 -4.6256,10.85614 -10.52292,11.51834 -5.41871,0.73301 -10.89988,-0.80096 -15.15093,-4.2402 -0.67338,-0.58285 -1.40556,-1.0941 -2.18474,-1.52543 -0.15005,-0.0563 -0.31539,-0.0563 -0.46537,0 l -0.20684,-0.46537 c -0.14614,-0.0529 -0.30632,-0.0529 -0.45246,0 -0.28719,0.16481 -0.46458,0.4704 -0.46537,0.8015 -0.0172,0.81709 0.14131,1.62836 0.46537,2.37864 0,0.52951 0.45763,1.19812 0.78857,1.92619 1.13022,2.27814 2.65309,4.33927 4.49874,6.08882 2.1506,1.9944 4.70258,3.5062 7.48498,4.43409 5.16015,1.66977 10.6823,1.87562 15.95243,0.59464 6.11677,-1.07517 11.48341,-4.71094 14.75019,-9.99289 2.67406,-4.36022 4.05484,-9.3902 3.98164,-14.50457 V 57.854222 c 0,-0.316447 -0.0232,-0.521962 -0.14217,-0.646396 -0.10994,-0.0967 -0.31181,-0.16183 -0.6593,-0.219745 -5.69255,-0.992171 -11.51384,-0.992171 -17.20639,0 h -0.93078 V 81.21406 c -0.009,1.693218 -0.20895,3.380029 -0.59463,5.028768 -0.37953,2.212168 -1.61489,4.185925 -3.4387,5.494152 -1.17556,0.88934 -2.7162,1.136428 -4.11092,0.659303 -1.16143,-0.371714 -2.07158,-1.281844 -2.44327,-2.443278 -0.26635,-1.018825 -0.42235,-2.063331 -0.46537,-3.115514 V 66.515599 c 0.34596,-2.637857 -0.47544,-5.295446 -2.24938,-7.278132 -2.30892,-2.379374 -5.48812,-3.714539 -8.80357,-3.697244 z m -198.03513,3.74895 c 3.19286,0.0011 6.24855,1.298007 8.46746,3.593824 7.08216,7.942604 9.07505,28.660084 9.07505,28.660084 0,0 -18.07201,-1.189842 -25.81606,-9.992897 h -0.19393 c -5.13393,-5.163428 -5.13393,-13.50376 0,-18.667187 2.21892,-2.295817 5.27461,-3.592732 8.46746,-3.593824 z m 27.89737,1.124686 c 1.23143,-0.03309 2.45724,0.17765 3.60675,0.620516 4.10368,1.65471 6.09088,6.615216 3.24478,12.836924 l -0.32319,0.258532 c -3.83556,6.349465 -9.09282,11.721784 -15.35777,15.693881 -1.84305,-7.275261 -1.84305,-14.895259 0,-22.17052 0.95148,-4.142021 4.58124,-7.118109 8.82942,-7.239353 z" />
</svg>
