<svg
   viewBox="0 0 75.54061 20.73184"
   version="1.1"
   id="svg8"
   width="75.540611"
   height="20.73184"
   xmlns="http://www.w3.org/2000/svg"
   xmlns:svg="http://www.w3.org/2000/svg">
  <defs
     id="defs8" />
  <path
     id="path5"
     style="fill:#000000"
     d="m 38.141743,6.3120764e-4 c 0,0 -1.129922,4.33968699236 2.580078,5.17968699236 0.94,0.21 1.888828,-0.270625 1.798828,0.359375 0,0.23 -0.158985,1.000547 -0.208985,1.310547 a 0.07,0.07 0 0 1 -0.121093,0 4.2,4.2 0 0 0 -3.640625,-1.310547 c -2.48,0.4 -4.108672,3.141094 -3.638672,6.1210938 a 6.55,6.55 0 0 0 0.509766,1.708984 c 0.07,0.160001 0.160234,0.310704 0.240234,0.470704 a 4.58,4.58 0 0 0 4.570313,2.529297 4,4 0 0 0 2.298827,-1.25 2.46,2.46 0 0 0 2.240235,1.121094 3.45,3.45 0 0 0 2.240234,-0.691407 4.8,4.8 0 0 0 1.179688,-1.21875 c 0.34,-0.61 0.119687,-0.850859 -0.320313,-0.880859 h -0.04883 c -0.5,0 -1.111328,0.05938 -1.111328,-0.890625 V 6.3502402 a 4.33,4.33 0 0 0 -3.599609,0.550781 c -0.09,0.100001 -0.159141,0.120001 -0.119141,0 a 6.28,6.28 0 0 1 1.46875,-3 0.35,0.35 0 0 0 0,-0.511718 c -0.15,-0.14 -0.69961,-0.548438 -0.849609,-0.398438 a 3.5,3.5 0 0 0 -0.708985,1.199219 h -0.08984 c 0,-0.21 -0.07984,-0.378984 -0.08984,-0.458984 -0.54,-3.86999999 -4.580078,-3.73046899236 -4.580078,-3.73046899236 z M 27.049946,4.9693812 l 0.03125,0.04102 v 9.8906248 c 0,0.19 4.69e-4,0.259062 0.230469,0.289062 a 6.91,6.91 0 0 0 2.128906,0 c 0.18,0 0.210937,-0.08976 0.210937,-0.259765 v -3.189454 l 0.08984,0.199219 a 10.81,10.81 0 0 0 1.689453,2.720704 1.88,1.88 0 0 0 0.779297,0.519531 1.71,1.71 0 0 0 1,0 2.14,2.14 0 0 0 1.390625,-1.439454 c 0,-0.18 0.06,-0.301328 0,-0.361328 -0.06,-0.06 -0.13,-0.05859 -0.25,-0.05859 a 2.36,2.36 0 0 1 -1.669922,-0.601562 3.38,3.38 0 0 1 -0.830078,-1.429688 l 0.160156,-0.169922 a 3.34,3.34 0 0 0 0.84961,-0.71875 2.08,2.08 0 0 0 0.419922,-1.5117178 1.11,1.11 0 0 0 -0.638672,-0.878906 3.19,3.19 0 0 0 -1.410156,-0.330079 0.18,0.18 0 0 0 -0.13086,0 0.18,0.18 0 0 0 0,0.09961 v 0.349609 a 2.57,2.57 0 0 1 -1.40039,2.7011718 l -0.08008,0.04883 v -0.08984 -5.4492178 c 0,-0.19 10e-4,-0.239766 -0.208984,-0.259766 H 29.151503 A 19.57,19.57 0 0 0 27.049941,4.9693952 Z M 3.9210386,5.3600062 a 8.48,8.48 0 0 0 -2.460937,0.5 7.39,7.39 0 0 0 -1.318359,0.699219 c -0.18,0.15 -0.161797,0.210625 -0.0918,0.390625 a 1.47,1.47 0 0 1 0.07031,0.169921 12.52,12.52 0 0 1 0.570313,2.759766 21.44,21.44 0 0 1 0.09961,2.7109378 25.41,25.41 0 0 1 -0.197266,2.824219 32.69,32.69 0 0 0 3.947266,0.304687 7.89,7.89 0 0 0 2.830078,-0.539062 4.48,4.48 0 0 0 1.53125,-1.000001 3.53,3.53 0 0 0 0.888672,-1.859375 8.11,8.11 0 0 0 0.150391,-1.40039 8.19,8.19 0 0 0 -0.25,-1.8300778 4.55,4.55 0 0 0 -3.259766,-3.429688 7.62,7.62 0 0 0 -2.509766,-0.300781 z M 0.5929136,15.414694 a 32.69,32.69 0 0 1 -0.05273,-0.0039 l 0.05078,0.0293 a 25.41,25.41 0 0 0 0.002,-0.02539 z M 20.360493,5.3893032 a 11.67,11.67 0 0 0 -2.34961,0.18164 v 8.3496098 a 2.23,2.23 0 0 0 0.06055,0.419922 1.31,1.31 0 0 0 0.419922,0.71875 1.42,1.42 0 0 0 0.769531,0.361328 2.62,2.62 0 0 0 1.25,-0.140625 2.35,2.35 0 0 0 1.119141,-0.798828 c 0,-0.08 0.180625,-0.271563 0.140625,-0.351563 -0.04,-0.08 6.25e-4,0.0012 -0.109375,-0.04883 a 1.3,1.3 0 0 1 -0.75,-0.28125 1.07,1.07 0 0 1 -0.361328,-0.888672 V 5.6393012 a 0.37,0.37 0 0 0 -0.04883,-0.25 0.18,0.18 0 0 0 -0.140624,0 z m 3.589844,0.121094 a 1.27,1.27 0 0 0 -1.400391,1.070312 1.27,1.27 0 0 0 1.400391,1.070312 1.28,1.28 0 0 0 1.410156,-1.070312 1.28,1.28 0 0 0 -1.410156,-1.070312 z m 27.330077,0.759765 a 9.84,9.84 0 0 0 -2.378906,0.289063 v 7.3203118 a 2.23,2.23 0 0 0 0.05859,0.419922 1.31,1.31 0 0 0 0.419922,0.720704 1.42,1.42 0 0 0 0.771484,0.359375 2.56,2.56 0 0 0 1.240235,-0.138672 2.37,2.37 0 0 0 1.128906,-0.800782 c 0.06,-0.08 0.19039,-0.269609 0.15039,-0.349609 -0.04,-0.08 -0.05109,-7.82e-4 -0.121093,-0.05078 A 1.37,1.37 0 0 1 51.831192,13.77993 1.09,1.09 0 0 1 51.440567,12.940086 V 9.5807112 h 1.121093 v -1 h -1.101562 v -2.050781 c 0,-0.1 0.0012,-0.209766 -0.04883,-0.259766 a 0.2,0.2 0 0 0 -0.13086,0 z M 4.6163516,7.3033652 a 2.55,2.55 0 0 1 0.833984,0.296875 2.48,2.48 0 0 1 1.050781,1.38086 5.1,5.1 0 0 1 0,3.3183588 3.21,3.21 0 0 1 -0.5,0.890625 1.55,1.55 0 0 1 -1.210937,0.560547 3.93,3.93 0 0 1 -0.478516,0 v 0.0098 H 3.7315856 V 7.3092592 a 2.55,2.55 0 0 1 0.884766,-0.0059 z m 52.3144534,0.966797 v 0.06055 a 6,6 0 0 0 -0.810547,0.05859 3.22,3.22 0 0 0 -2.570312,1.7812498 3.78,3.78 0 0 0 -0.369141,1.839844 3.94,3.94 0 0 0 0.460938,1.699218 l 0.08984,0.150391 a 1.71,1.71 0 0 0 0.109375,0.140625 3.59,3.59 0 0 0 2.38086,1.330078 3.48,3.48 0 0 0 2.578125,-0.630859 2.38,2.38 0 0 0 0.890625,-1.240235 v -0.40039 c 0,-0.04 -3.13e-4,0 -0.07031,0 a 4.72,4.72 0 0 1 -0.509765,0.25 3.54,3.54 0 0 1 -1.5,0.361328 3.66,3.66 0 0 1 -0.570313,-0.05078 1.82,1.82 0 0 1 -0.849609,-0.40039 1.19,1.19 0 0 1 -0.400391,-0.708984 v -0.06055 h 0.431641 l 0.818359,0.06055 a 3.38,3.38 0 0 0 2,-0.519532 1.85,1.85 0 0 0 0.820313,-1.361328 v -0.04883 a 2.72,2.72 0 0 0 0,-0.28125 1.91,1.91 0 0 0 -0.429688,-0.9999998 2.85,2.85 0 0 0 -0.789062,-0.628906 3.51,3.51 0 0 0 -1.710938,-0.40039 z m -42.580078,0.06055 a 5.7,5.7 0 0 0 -0.800781,0.05859 3.22,3.22 0 0 0 -2.539063,1.7812498 3.89,3.89 0 0 0 -0.36914,1.839844 3.94,3.94 0 0 0 0.458984,1.699218 l 0.08984,0.150391 a 0.71,0.71 0 0 0 0.09961,0.140625 3.59,3.59 0 0 0 2.380859,1.330078 3.47,3.47 0 0 0 2.580078,-0.630859 2.38,2.38 0 0 0 0.890626,-1.240235 0.58,0.58 0 0 0 0,-0.40039 l -0.13086,0.06055 a 4.72,4.72 0 0 1 -0.509766,0.25 3.54,3.54 0 0 1 -1.5,0.361329 3.66,3.66 0 0 1 -0.570312,-0.05078 1.86,1.86 0 0 1 -0.849609,-0.40039 1.19,1.19 0 0 1 -0.400391,-0.708985 v -0.06055 h 0.429688 l 0.820312,0.06055 a 3.38,3.38 0 0 0 2,-0.521484 1.85,1.85 0 0 0 0.820312,-1.359375 v -0.05078 a 2.72,2.72 0 0 0 0,-0.279297 h 0.0293 A 1.73,1.73 0 0 0 16.850727,9.3600122 2.71,2.71 0 0 0 16.061664,8.7311062 3.51,3.51 0 0 0 14.350727,8.3307152 Z m 54.990234,0.05859 a 2.5,2.5 0 0 0 -1.669922,0.580078 l 0.160157,0.15039 a 1.91,1.91 0 0 1 0.490234,1.4902348 v 3.279297 a 2.05,2.05 0 0 0 1.228516,1.890625 2.64,2.64 0 0 0 1.621089,0 2.27,2.27 0 0 0 1.39063,-1.208984 c 0,-0.09 0.0789,-0.14086 0.12891,-0.13086 0.05,0.01 0.0605,0.08914 0.0605,0.119141 v 2.181641 a 1.79,1.79 0 0 1 -1.58984,1.740234 3,3 0 0 1 -2.291017,-0.640625 1.94,1.94 0 0 0 -0.330078,-0.230469 0.1,0.1 0 0 0 -0.06836,0 l -0.03125,-0.07031 a 0.1,0.1 0 0 0 -0.07031,0 0.14,0.14 0 0 0 -0.07031,0.121094 0.86,0.86 0 0 0 0.07031,0.359375 c 0,0.08 0.07109,0.179062 0.121094,0.289062 a 3.27,3.27 0 0 0 0.679687,0.921875 3.11,3.11 0 0 0 1.128907,0.669922 4.43,4.43 0 0 0 2.410157,0.08984 3.29,3.29 0 0 0 2.23047,-1.509766 4.08,4.08 0 0 0 0.59961,-2.191406 V 8.7408622 c 0,-0.09 8.5e-4,-0.110859 -0.11915,-0.130859 a 7.57,7.57 0 0 0 -2.5996,0 h -0.14063 v 3.6601558 a 3.42,3.42 0 0 1 -0.0898,0.759766 1.29,1.29 0 0 1 -0.51953,0.830078 0.67,0.67 0 0 1 -0.6211,0.09961 0.57,0.57 0 0 1 -0.36914,-0.36914 2.22,2.22 0 0 1 -0.0703,-0.470704 v -3.070312 a 1.38,1.38 0 0 0 -0.33985,-1.0996088 1.84,1.84 0 0 0 -1.330072,-0.560547 z m -4.898437,0.04297 a 5.43,5.43 0 0 0 -1.291016,0.01758 3.29,3.29 0 0 0 -1.650391,0.630859 1.85,1.85 0 0 0 -0.820312,1.4199218 1.54,1.54 0 0 0 1,1.609375 12.11,12.11 0 0 0 1.470703,0.599609 l 0.398438,0.150391 h 0.06055 a 1.65,1.65 0 0 1 0.861328,0.550781 0.49,0.49 0 0 1 0,0.410156 0.74,0.74 0 0 1 -0.490235,0.359375 1.14,1.14 0 0 1 -0.550781,0 2,2 0 0 1 -1.419922,-1.230468 h -0.08008 l -0.06055,-0.03906 a 1.76,1.76 0 0 0 -0.859375,0.208984 1,1 0 0 0 -0.470703,0.75 1,1 0 0 0 0.320313,0.769532 2.66,2.66 0 0 0 0.759765,0.470703 5.71,5.71 0 0 0 2,0.390625 6.54,6.54 0 0 0 1.230469,-0.111328 3,3 0 0 0 1.599609,-0.75 1.6,1.6 0 0 0 -0.11914,-2.519532 2.9,2.9 0 0 0 -0.621094,-0.359374 l -0.699219,-0.310547 -0.86914,-0.330079 C 63.87174,11.009777 63.051115,10.669464 63.251115,10.049464 a 0.61,0.61 0 0 1 0.310547,-0.3593748 1.05,1.05 0 0 1 0.839844,0 2.21,2.21 0 0 1 1.199219,1.2695308 1.53,1.53 0 0 0 0.740234,-0.160156 1,1 0 0 0 0.439453,-0.458984 0.93,0.93 0 0 0 0.06055,-0.6210938 c -0.1,-0.5 -0.530625,-0.76 -1.140625,-1 a 5.43,5.43 0 0 0 -1.257812,-0.28711 z m -40.5625,0.04883 a 7.37,7.37 0 0 0 -1.128906,0.08984 c -0.16,0 -0.201172,0.07828 -0.201172,0.238282 V 13.86977 a 2.4,2.4 0 0 0 0.06055,0.429688 1.38,1.38 0 0 0 0.419922,0.720704 1.66,1.66 0 0 0 0.78125,0.359375 2.62,2.62 0 0 0 1.25,-0.138672 2.36,2.36 0 0 0 1.138672,-0.810547 c 0.06,-0.08 0.19039,-0.26961 0.15039,-0.34961 -0.04,-0.08 -0.04914,-0.05078 -0.11914,-0.05078 a 1.41,1.41 0 0 1 -0.75,-0.279297 1.12,1.12 0 0 1 -0.371094,-0.900391 V 10.990865 8.8404752 c 0,-0.18 -4.69e-4,-0.239532 -0.230469,-0.269532 a 6.8,6.8 0 0 0 -1,-0.08008 z m 15.382813,0.482421 a 1.78,1.78 0 0 1 1.4375,0.53711 c 1.069999,1.1999998 1.371093,4.3300778 1.371093,4.3300778 0,0 -2.73039,-0.179766 -3.90039,-1.509766 h -0.0293 a 2,2 0 0 1 0,-2.8203118 1.78,1.78 0 0 1 1.121094,-0.53711 z m 4.326171,0.166016 a 1.41,1.41 0 0 1 0.591797,0.08984 c 0.62,0.25 0.920234,1.0014058 0.490234,1.9414058 l -0.05078,0.03906 a 7.24,7.24 0 0 1 -2.320312,2.371093 6.82,6.82 0 0 1 0,-3.351562 1.41,1.41 0 0 1 1.289062,-1.0898438 z m 12.941406,0.589844 a 0.84,0.84 0 0 1 0.541016,0.05078 0.65,0.65 0 0 1 0.279297,0.9999998 1.62,1.62 0 0 1 -0.650391,0.550781 3.06,3.06 0 0 1 -1,0.169922 l -0.0098,-0.07031 A 2,2 0 0 1 56.071395,10.0104 0.84,0.84 0 0 1 56.530379,9.7193842 Z m -42.621093,0.0039 a 0.82,0.82 0 0 1 0.511718,0.04687 0.62,0.62 0 0 1 0.259766,0.9101558 h 0.0293 a 1.42,1.42 0 0 1 -0.619141,0.519532 3.11,3.11 0 0 1 -1,0.169921 2,2 0 0 1 0.38086,-1.3789058 0.82,0.82 0 0 1 0.4375,-0.267578 z m 28.501953,8.1074218 v 0.03906 h -1.400391 a 0.27,0.27 0 0 0 -0.269531,0.259766 v 2.300781 a 0.27,0.27 0 0 0 0.269531,0.259765 h 1.400391 a 0.26,0.26 0 0 0 0.259765,-0.259765 0.27,0.27 0 0 0 -0.259765,-0.310547 h -1.080078 v -0.628906 h 1 a 0.26,0.26 0 0 0 0.259765,-0.259766 0.27,0.27 0 0 0 -0.259765,-0.271484 h -1 v -0.59961 h 1.080078 a 0.27,0.27 0 0 0 0.259765,-0.269531 0.26,0.26 0 0 0 -0.259765,-0.259766 z m -4.871094,0.0098 a 1.43,1.43 0 0 0 -1.449218,1.46875 1.38,1.38 0 0 0 0.410156,1 1.42,1.42 0 0 0 1,0.400391 1.56,1.56 0 0 0 1,-0.369141 0.27,0.27 0 0 0 0.0078,-0.390625 0.29,0.29 0 0 0 -0.298828,0 1,1 0 0 1 -0.648437,0.240234 0.87,0.87 0 0 1 -0.640625,-0.25 1,1 0 0 1 0,-1.310546 0.83,0.83 0 0 1 0.640625,-0.259766 0.9,0.9 0 0 1 0.61914,0.230469 0.26,0.26 0 0 0 0.359375,0 0.26,0.26 0 0 0 0,-0.390625 1.53,1.53 0 0 0 -1,-0.369141 z m 0.96875,2.109375 a 0.29,0.29 0 0 1 0.0625,0 l -0.07031,-0.0098 a 0.27,0.27 0 0 1 0.0078,0.0098 z m 8.351563,-2.089844 0.04102,0.0098 a 0.26,0.26 0 0 0 -0.259765,0.259766 v 1.480468 l -1.410157,-1.65039 a 0.21,0.21 0 0 0 -0.18164,-0.08984 0.25,0.25 0 0 0 -0.25,0.25 v 2.310547 a 0.26,0.26 0 0 0 0.261718,0.259765 0.26,0.26 0 0 0 0.259766,-0.259765 v -1.470703 l 1.378906,1.640625 a 0.21,0.21 0 0 0 0.179688,0.08984 0.24,0.24 0 0 0 0.240234,-0.240234 v -2.330078 a 0.26,0.26 0 0 0 -0.259765,-0.259766 z m 11.189453,0 a 0.26,0.26 0 0 0 -0.259766,0.259766 v 1.53125 a 1,1 0 0 0 0.310547,0.808594 1.17,1.17 0 0 0 0.791016,0.271484 1.14,1.14 0 0 0 0.779296,-0.271484 1,1 0 0 0 0.310547,-0.808594 v -1.53125 a 0.26,0.26 0 0 0 -0.259765,-0.259766 l -0.101563,0.0098 a 0.26,0.26 0 0 0 -0.259765,0.259766 v 1.490234 a 0.53,0.53 0 1 1 -1,0 v -1.5 A 0.26,0.26 0 0 0 58.100727,17.86007 Z m -8.519532,0.0098 a 0.26,0.26 0 0 0 -0.259765,0.259766 0.27,0.27 0 0 0 0.259765,0.271484 h 0.541016 v 2 a 0.26,0.26 0 0 0 0.259766,0.259766 0.26,0.26 0 0 0 0.259765,-0.259766 v -2 h 0.539063 a 0.26,0.26 0 0 0 0.261719,-0.271484 0.26,0.26 0 0 0 -0.261719,-0.259766 z m 4.28125,0 a 0.26,0.26 0 0 0 -0.261718,0.259766 v 2.300781 a 0.26,0.26 0 0 0 0.261718,0.259765 0.26,0.26 0 0 0 0.259766,-0.259765 v -0.769531 h 0.339844 l 0.509765,0.898437 a 0.26,0.26 0 0 0 0.230469,0.130859 0.27,0.27 0 0 0 0.228516,-0.40039 l -0.439453,-0.699219 a 0.84,0.84 0 0 0 0.570312,-0.830078 h 0.07031 a 0.88,0.88 0 0 0 -0.240235,-0.630859 1,1 0 0 0 -0.720703,-0.259766 z m 8.478516,0 a 0.25,0.25 0 0 0 -0.279297,0.25 v 2.310547 a 0.26,0.26 0 0 0 0.259766,0.259765 0.26,0.26 0 0 0 0.259765,-0.259765 v -1.310547 l 0.720703,1 a 0.23,0.23 0 0 0 0.390626,0 l 0.71875,-1 v 1.339844 a 0.26,0.26 0 0 0 0.259765,0.259765 0.26,0.26 0 0 0 0.259766,-0.259765 v -2.339844 a 0.25,0.25 0 0 0 -0.203125,-0.242188 0.23,0.23 0 0 0 -0.185547,0.103516 l -1,1.488281 -1,-1.488281 A 0.23,0.23 0 0 0 62.29018,17.869836 Z m 2.386719,0.0078 a 0.23,0.23 0 0 1 0.01367,-0.0078 h -0.04883 a 0.25,0.25 0 0 1 0.03516,0.0078 z m -10.566406,0.511719 h 0.509765 a 0.37,0.37 0 0 1 0.390625,0.38086 0.39,0.39 0 0 1 -0.439453,0.390625 h -0.06055 -0.40039 z" />
</svg>
