<svg
   width="1888.4501"
   height="274.20367"
   viewBox="0 0 1888.4501 274.20367"
   fill="none"
   version="1.1"
   id="svg2"
   xmlns="http://www.w3.org/2000/svg"
   xmlns:svg="http://www.w3.org/2000/svg">
  <g
     clip-path="url(#clip0_1796_768)"
     id="g2"
     style="fill:#000000"
     transform="translate(-4.1999523,-13.48932)">
    <path
       d="m 1630.09,183.127 c 0,-11.755 8.45,-17.172 25.35,-17.172 h 28.97 v 4.516 c 0,17.171 -12.07,28.025 -30.78,28.025 -15.7,0 -23.54,-5.119 -23.54,-15.369 z m -46.47,3.01 c 0,28.927 23.53,45.801 55.22,45.801 24.14,0 41.04,-9.041 49.79,-27.421 4.82,16.875 16.59,25.917 35.3,25.917 h 22.33 v -39.166 h -5.43 c -6.34,0 -9.66,-3.615 -9.66,-10.547 v -46.702 c 0,-38.8694 -23.53,-63.2809 -71.22,-63.2809 -41.33,0 -65.18,18.9844 -71.82,52.4259 h 46.17 c 2.12,-8.734 9.96,-14.458 24.45,-14.458 15.39,0 25.65,8.141 25.65,20.49 0,5.427 -3.02,8.141 -7.24,8.141 h -24.74 c -44.96,-0.011 -68.8,18.676 -68.8,48.8 z m -155.41,44.297 h 46.78 v -70.202 l 55.83,70.202 h 56.72 l -65.18,-82.858 60.96,-73.8166 h -52.21 l -56.12,67.7956 V 17.708 h -46.78 z m -172,-156.6856 59.15,152.7626 -3.62,8.734 c -3.62,9.339 -8.45,13.557 -19.62,13.557 h -26.86 v 38.87 h 38.93 c 23.54,0 38.32,-11.756 46.48,-32.542 l 70.91,-181.3925 h -46.77 l -34.1,99.7325 -34.7,-99.7325 h -49.8 z m -113.46,38.5726 h 23.85 v 70.806 c 0,30.728 13.57,47.307 45.26,47.307 h 37.42 v -38.87 h -20.82 c -10.25,0 -15.39,-5.723 -15.39,-16.875 v -62.368 h 36.21 V 73.7484 h -36.21 V 26.7386 h -46.47 v 47.0098 h -23.85 z m -152.397,68.696 c 4.225,37.365 35.907,52.426 75.447,52.426 43.45,0 73.33,-19.28 73.33,-50.316 0,-33.146 -22.63,-43.385 -60.95,-47.603 l -8.15,-0.901 c -23.54,-2.714 -31.09,-6.328 -31.09,-15.667 0,-8.734 9.06,-12.952 24.14,-12.952 19.02,0 28.07,6.031 30.48,17.171 h 44.36 c -4.83,-36.7594 -33.49,-52.426 -73.63,-52.426 -42.86,0 -71.216,18.6769 -71.216,49.713 0,28.322 18.706,42.791 61.556,46.702 l 9.35,0.901 c 22.03,2.406 29.27,5.724 29.27,15.666 0,10.239 -9.35,14.765 -28.07,14.765 -18.11,0 -28.67,-5.427 -30.48,-17.479 z M 861.81,152.091 c 0,-25.916 13.282,-42.484 36.21,-42.484 22.338,0 35.603,16.875 35.603,42.484 0,25.609 -13.281,42.484 -35.603,42.484 -22.939,0 -36.21,-16.568 -36.21,-42.484 z m -47.078,0 c 0,49.108 31.985,81.352 83.288,81.352 50.995,0 82.979,-32.244 82.979,-81.352 0,-49.108 -31.984,-81.3529 -82.979,-81.3529 -51.303,0 -83.288,32.2449 -83.288,81.3529 z m -169.891,78.343 h 46.77 v -86.176 c 0,-19.588 12.676,-31.937 31.378,-31.937 17.199,0 27.462,10.239 27.462,29.223 v 88.89 h 46.775 V 129.8 c 0,-38.265 -23.236,-58.7544 -57.038,-58.7544 -22.928,0 -41.041,9.9429 -50.703,28.6193 L 685.558,73.7484 H 644.815 V 230.434 Z M 500.594,148.18 c 0,-24.104 13.577,-39.166 35.603,-39.166 21.732,0 35.311,14.765 35.311,39.166 0,24.103 -13.281,38.869 -35.311,38.869 -22.62,0 -35.603,-14.469 -35.603,-38.869 z m -47.069,0.296 c 0,45.802 26.858,76.838 66.39,76.838 22.335,0 40.14,-8.437 51.296,-24.104 v 13.865 c 0,22.598 -11.464,33.749 -34.706,33.749 h -60.656 v 38.869 h 62.166 c 49.788,0 79.965,-26.817 79.965,-71.707 V 73.7484 h -40.136 l -3.928,26.8176 C 563.664,80.9775 544.945,70.7381 519.904,70.7381 c -39.225,0 -66.379,31.6409 -66.379,77.7379 z m -121.304,34.651 c 0,-11.755 8.45,-17.172 25.042,-17.172 h 29.267 v 4.516 c 0,17.171 -12.367,28.025 -30.775,28.025 -15.997,0 -23.534,-5.119 -23.534,-15.369 z m -46.783,3.01 c 0,28.927 23.843,45.801 55.222,45.801 24.14,0 41.04,-9.041 49.787,-27.113 4.83,16.567 16.9,25.609 35.308,25.609 h 22.335 v -39.166 h -5.436 c -6.337,0 -9.66,-3.615 -9.66,-10.547 v -46.702 c 0,-38.8694 -23.237,-63.2809 -71.22,-63.2809 -41.04,0 -65.179,18.9844 -71.814,52.4259 h 46.167 c 2.112,-8.734 9.957,-14.458 24.745,-14.458 15.393,0 25.35,8.141 25.35,20.49 0,5.427 -3.015,8.141 -6.943,8.141 h -25.042 c -44.956,-0.011 -68.799,18.676 -68.799,48.8 z M 219.664,54.1711 H 266.14 V 13.4893 h -46.476 z m 0,176.2629 H 266.14 V 73.7484 H 219.664 Z M 51.8743,188.246 V 59.8949 h 38.9272 c 38.6305,0 59.4475,23.2027 59.4475,63.8731 0,40.979 -21.125,64.478 -59.4475,64.478 z M 4.19995,230.434 H 90.8015 c 66.9955,0 108.3315,-42.484 108.3315,-106.666 0,-63.8731 -41.039,-106.06 -108.3315,-106.06 H 4.19995 Z"
       fill="#005146"
       id="path1"
       style="fill:#000000" />
    <path
       d="m 1752.91,111.981 h 52.51 v 54.238 h 38.92 v -54.238 h 52.51 V 73.7155 h -52.51 v -53.931 h -38.92 v 53.931 h -52.51 z"
       fill="#F55E32"
       id="path2"
       style="fill:#000000" />
  </g>
  <defs
     id="defs2">
    <clipPath
       id="clip0_1796_768">
      <rect
         width="1892.65"
         height="300"
         fill="#ffffff"
         transform="translate(0,0.458618)"
         id="rect2"
         x="0"
         y="0" />
    </clipPath>
  </defs>
</svg>
