<svg id="DIAGNOSTRYKA" width="500" height="78.70105" viewBox="0 0 500 78.70105" version="1.1" xml:space="preserve" xmlns:xlink="http://www.w3.org/1999/xlink" xmlns="http://www.w3.org/2000/svg" xmlns:svg="http://www.w3.org/2000/svg">
	<path id="DIAGNOSTRYKA" style="fill:#000000;stroke:#000000;stroke-width:0" d="m 466.65729,48.68883 c 0,-3.37388 2.42529,-4.92864 7.27587,-4.92864 h 8.31486 v 1.29616 c 0,4.92836 -3.46429,8.04364 -8.83436,8.04364 -4.50616,0 -6.75637,-1.46924 -6.75637,-4.41116 z m -13.33766,0.86392 c 0,8.30253 6.7535,13.14565 15.84905,13.14565 6.92858,0 11.77916,-2.59492 14.29055,-7.87028 1.38342,4.8434 4.76161,7.4386 10.13169,7.4386 H 500 V 51.02543 h -1.5585 c -1.81968,0 -2.77258,-1.03756 -2.77258,-3.02716 V 34.59401 c 0,-11.15616 -6.75349,-18.16266 -20.44132,-18.16266 -11.86239,0 -18.70774,5.44884 -20.61353,15.0471 h 13.25156 c 0.60847,-2.5068 2.85868,-4.14968 7.01755,-4.14968 4.41718,0 7.36197,2.3366 7.36197,5.88096 0,1.55764 -0.86679,2.33661 -2.078,2.33661 h -7.10078 c -12.90427,-0.003 -19.74674,5.36033 -19.74674,14.00641 z M 408.7144,62.26672 h 13.42664 V 42.11759 l 16.02413,20.14913 h 16.27957 L 435.737,38.4851 453.23352,17.29851 H 438.24839 L 422.14103,36.75697 V 1.21084 h -13.42664 z m -49.36685,-44.97136 16.97704,43.8454 -1.039,2.5068 c -1.039,2.68045 -2.4253,3.89108 -5.63126,3.89108 h -7.70927 v 11.15633 h 11.17354 c 6.75637,0 10.99849,-3.37416 13.34053,-9.34009 l 20.35235,-52.06265 h -13.42376 l -9.78727,28.62488 -9.95947,-28.62488 h -14.29343 z m -32.56489,11.07097 h 6.84535 v 20.3225 c 0,8.81945 3.89481,13.57789 12.99037,13.57789 h 10.74016 V 51.11039 h -5.97569 c -2.94191,0 -4.41718,-1.64259 -4.41718,-4.8434 V 28.36633 h 10.39287 V 17.29536 H 346.96567 V 3.80277 h -13.33766 v 13.49259 h -6.84534 z m -43.74045,19.7169 c 1.21265,10.72437 10.30591,15.04713 21.65454,15.04713 12.47086,0 21.04692,-5.53368 21.04692,-14.44153 0,-9.51346 -6.49518,-12.45222 -17.49366,-13.66286 l -2.33918,-0.2586 c -6.75637,-0.77896 -8.92335,-1.81624 -8.92335,-4.49669 0,-2.5068 2.60037,-3.71743 6.92858,-3.71743 5.45906,0 8.05656,1.73099 8.74827,4.92836 h 12.73205 c -1.38629,-10.55056 -9.61219,-15.04713 -21.13303,-15.04713 -12.30152,0 -20.44016,5.36058 -20.44016,14.26845 0,8.12888 5.36893,12.28174 17.66757,13.40426 l 2.68361,0.2586 c 6.32297,0.69056 8.40097,1.64288 8.40097,4.4964 0,2.93876 -2.6836,4.2378 -8.05655,4.2378 -5.19787,0 -8.22877,-1.55764 -8.74827,-5.01676 z m -36.89396,-8.30224 c 0,-7.43833 3.81215,-12.19362 10.39287,-12.19362 6.41137,0 10.21865,4.8434 10.21865,12.19362 0,7.3502 -3.81187,12.19361 -10.21865,12.19361 -6.58387,0 -10.39287,-4.75529 -10.39287,-12.19361 z m -13.51216,0 c 0,14.09481 9.18022,23.34937 23.90503,23.34937 14.6364,0 23.81634,-9.25456 23.81634,-23.34937 0,-14.09482 -9.17994,-23.34964 -23.81634,-23.34964 -14.72481,0 -23.90503,9.25482 -23.90503,23.34964 z m -48.76152,22.48573 h 13.42376 V 37.53278 c 0,-5.62208 3.63822,-9.16645 9.006,-9.16645 4.9364,0 7.88205,2.93876 7.88205,8.38748 v 25.51291 h 13.4252 V 33.38309 c 0,-10.98269 -6.66912,-16.86348 -16.37085,-16.86348 -6.58073,0 -11.77945,2.85378 -14.5526,8.21421 l -1.12711,-7.43846 H 183.8671 V 62.26672 Z M 142.47329,38.65846 c 0,-6.91825 3.89682,-11.24129 10.21864,-11.24129 6.23744,0 10.13484,4.2378 10.13484,11.24129 0,6.91797 -3.81186,11.15605 -10.13484,11.15605 -6.49231,0 -10.21864,-4.15284 -10.21864,-11.15605 z m -13.50958,0.085 c 0,13.14594 7.70869,22.05379 19.05502,22.05379 6.41052,0 11.52085,-2.42156 14.7228,-6.91825 v 3.97949 c 0,6.486 -3.29036,9.68652 -9.9612,9.68652 h -17.40927 v 11.15604 h 17.84267 c 14.28998,0 22.95128,-7.69692 22.95128,-20.58109 V 17.29541 h -11.5197 l -1.12739,7.69709 c -2.9425,-5.62222 -8.31516,-8.5611 -15.50235,-8.5611 -11.25822,0 -19.05186,9.08146 -19.05186,22.31206 z m -34.816251,9.94542 c 0,-3.37388 2.425287,-4.92864 7.187471,-4.92864 h 8.40011 v 1.29616 c 0,4.92836 -3.54953,8.04364 -8.83293,8.04364 -4.591407,0 -6.754651,-1.46924 -6.754651,-4.41116 z M 80.719963,49.5528 c 0,8.30253 6.843338,13.14565 15.849626,13.14565 6.928581,0 11.779161,-2.59492 14.289691,-7.78188 1.38629,4.755 4.85058,7.3502 10.13398,7.3502 h 6.41051 V 51.02548 h -1.56022 c -1.81882,0 -2.77258,-1.03756 -2.77258,-3.02716 V 34.59406 c 0,-11.15616 -6.6694,-18.16266 -20.44131,-18.16266 -11.779162,0 -18.707454,5.44884 -20.611808,15.0471 h 13.250691 c 0.606179,-2.5068 2.857824,-4.14968 7.102227,-4.14968 4.41804,0 7.27587,2.3366 7.27587,5.88096 0,1.55764 -0.86536,2.33661 -1.99276,2.33661 h -7.18747 C 87.563298,35.54339 80.719963,40.90672 80.719963,49.5528 Z M 61.841739,11.67635 H 75.181118 V 0 H 61.841739 Z m 0,50.59037 H 75.181118 V 17.29536 H 61.841739 Z M 13.683326,50.15807 v -36.8389 h 11.172749 c 11.087591,0 17.062413,6.65956 17.062413,18.33264 0,11.76166 -6.063223,18.50626 -17.062413,18.50626 z M 0,62.26672 h 24.856075 c 19.228816,0 31.092928,-12.19361 31.092928,-30.61491 0,-18.33264 -11.778871,-30.44097 -31.092928,-30.44097 H 0 Z" />
</svg>
