<svg id="DOZ" width="500" height="177.76254" viewBox="0 0 500 177.76254" version="1.1" xml:space="preserve" xmlns:xlink="http://www.w3.org/1999/xlink" xmlns="http://www.w3.org/2000/svg" xmlns:svg="http://www.w3.org/2000/svg">
	<path id="DOZ" style="fill:#000000;stroke:#000000;stroke-width:0" d="M 455.83538,174.87134 H 353.88607 c 0,-28.18514 1.80154,-40.03028 22.94265,-61.50467 L 441.9635,45.133232 h -36.03086 c -23.78036,0 -50.4432,1.387188 -49.7406,-29.473241 v -1.306118 0 -8.4402286 H 497.7843 c 0,36.0849036 -3.75621,44.3359696 -32.00441,74.0344036 l -52.60505,55.703702 h 57.07288 c 21.33928,0 30.31096,5.7199 29.72546,29.47324 v 1.30612 0 8.43122 H 455.78133 Z M 343.08582,88.829654 A 92.977626,92.977626 0 0 1 338.58196,118.23083 83.051125,83.051125 0 0 1 324.9623,143.5245 88.753008,88.753008 0 0 1 254.7922,177.75381 85.573285,85.573285 0 0 1 192.41378,152.04579 86.149779,86.149779 0 0 1 172.96613,123.38325 89.942027,89.942027 0 0 1 166.46256,88.8837 88.82507,88.82507 0 0 1 220.93221,6.3189915 89.176371,89.176371 0 0 1 254.7922,0.01359154 85.897563,85.897563 0 0 1 317.26971,25.370307 84.29419,84.29419 0 0 1 336.6453,53.978808 91.824639,91.824639 0 0 1 343.10383,88.8837 Z m -192.42279,0 a 78.997654,78.997654 0 0 1 -10.80926,41.624646 83.258303,83.258303 0 0 1 -32.14853,29.63538 v 0 a 92.572279,92.572279 0 0 1 -26.347565,9.35902 167.05707,167.05707 0 0 1 -33.544728,3.08064 H 0 V 5.1479886 h 47.812947 a 150.53692,150.53692 0 0 1 42.99382,5.6388294 92.311055,92.311055 0 0 1 32.950223,17.114657 v 0 a 72.575154,72.575154 0 0 1 20.17728,26.590772 84.29419,84.29419 0 0 1 6.70173,34.301376 z m -47.62379,0 A 38.012554,38.012554 0 0 0 89.869965,58.203426 44.480093,44.480093 0 0 0 73.782187,49.718159 77.097026,77.097026 0 0 0 51.560156,46.808667 h -4.882181 v 83.834793 h 4.882181 a 78.556276,78.556276 0 0 0 22.366155,-2.88246 43.858561,43.858561 0 0 0 16.051746,-8.4042 35.130085,35.130085 0 0 0 9.77337,-13.05218 43.849553,43.849553 0 0 0 3.278813,-17.474966 z m 191.72019,0 a 46.840114,46.840114 0 0 0 -11.65598,-32.679987 38.634086,38.634086 0 0 0 -12.845,-9.5752 39.633943,39.633943 0 0 0 -31.00455,0 38.850271,38.850271 0 0 0 -12.845,9.5752 43.11092,43.11092 0 0 0 -8.72848,14.538451 53.460784,53.460784 0 0 0 -2.92751,18.141536 52.65009,52.65009 0 0 0 2.92751,17.952376 43.561306,43.561306 0 0 0 8.72848,14.50242 38.832256,38.832256 0 0 0 12.845,9.5752 37.354991,37.354991 0 0 0 15.51128,3.16171 36.832543,36.832543 0 0 0 28.33827,-12.6108 42.750612,42.750612 0 0 0 8.73748,-14.41235 53.442768,53.442768 0 0 0 2.92751,-18.11451 z" />
</svg>
