<svg
   width="367.5"
   height="99"
   viewBox="214 -72 367.5 99"
   version="1.1"
   id="svg6"
   xmlns="http://www.w3.org/2000/svg"
   xmlns:svg="http://www.w3.org/2000/svg">
  <defs
     id="defs6" />
  <path
     fill="#78be20"
     d="m 574,-52.9 h -11.6 v -11.6 c 0,-4.1 -3.4,-7.5 -7.5,-7.5 -4.1,0 -7.5,3.4 -7.5,7.5 v 11.6 h -11.6 c -4.1,0 -7.5,3.400001 -7.5,7.500001 0,4.1 3.4,7.5 7.5,7.5 h 11.6 v 11.6 c 0,4.1 3.4,7.5 7.5,7.5 4.1,0 7.5,-3.4 7.5,-7.5 v -11.7 H 574 c 4.1,0 7.5,-3.4 7.5,-7.5 0,-4.1 -3.3,-7.400001 -7.5,-7.400001 z"
     id="path4"
     style="fill:#000000" />
  <path
     fill="#e4002b"
     d="m 237.6,-49.299999 h -21.3 c -1.3,0 -2.3,1.2 -2.3,2.7 v 69.8 c 0,1.5 1,2.7 2.3,2.7 h 21.3 c 22.4,0 38.9,-9.8 38.9,-37.9 0.1,-29.1 -16,-37.3 -38.9,-37.3 z m 0.4,60.3 h -6 v -45.4 h 6 c 15.9,0 20.1,7.7 20.1,22.7 0,14.9 -4.4,22.7 -20.1,22.7 z m 77.8,-27 c 1.2,0.3 2.4,-0.3 2.8,-1.4 l 3.4,-10.3 c 0.3,-0.9 -0.2,-1.8 -1,-2.1 -5.4,-2 -15.7,-3.1 -22,6.9 v -4.5 c 0,-1.5 -1,-2.6 -2.3,-2.6 H 285 c -1.3,0 -2.3,1.2 -2.3,2.6 v 50.6 c 0,1.5 1,2.6 2.3,2.6 h 11.7 c 1.3,0 2.3,-1.2 2.3,-2.6 v -22.8 c -0.1,-14.2 8.5,-18.7 16.8,-16.4 z m 94.7,-30.6 c -0.1,-1.5 -1.3,-2.6 -2.6,-2.6 h -17.3 c -1.3,0 -2.7,1.2 -3.1,2.6 l -12.3,44.5 -12.4,-44.5 c -0.4,-1.5 -1.8,-2.6 -3.1,-2.6 h -17.3 c -1.3,0 -2.4,1.2 -2.6,2.6 l -6.4,70.1 c -0.1,1.5 0.8,2.3 2.1,2.3 h 11.9 c 1.3,0 2.4,-0.8 2.6,-2.3 l 4.9,-45.7 12.6,45.7 c 0.3,1.2 0.9,2.3 2.3,2.3 h 10.9 c 1.4,0 1.9,-1.1 2.3,-2.3 l 12.6,-45.7 4.2,45.7 c 0.1,1.5 1.3,2.3 2.6,2.3 h 12.4 c 1.3,0 2.2,-0.8 2.1,-2.3 z"
     id="path5"
     style="fill:#000000" />
  <ellipse
     fill="#e4002b"
     cx="317.29993"
     cy="18.400003"
     rx="8"
     ry="8.3000002"
     id="ellipse5"
     style="fill:#000000" />
  <path
     fill="#e4002b"
     d="m 519.2,-2.899999 18.2,-25 c 0.7,-1.1 0.2,-2.1 -1.3,-2.1 h -13.8 c -1.5,0 -2.3,0.2 -3.4,1.7 l -9,12.3 -9,-12.3 c -1.1,-1.5 -1.9,-1.7 -3.4,-1.7 h -13.7 c -1.5,0 -2,1 -1.3,2.1 l 18.2,25 -19,26.1 c -0.9,1.2 -0.4,2.6 1,2.6 h 14 c 1.5,0 2.4,-0.7 3.3,-1.9 l 9.9,-13.7 9.9,13.7 c 0.9,1.2 1.8,1.9 3.3,1.9 h 14 c 1.4,0 2,-1.5 1,-2.6 z m -68.4,-28.6 c -7.7,0 -14.4,1 -20.8,3.4 -0.8,0.3 -1.3,1.1 -1.3,2 l 0.2,9.8 c 0,0.7 1,1.4 1.6,1.1 5,-2.5 10.5,-3.4 16.2,-3.4 6.9,0 12.6,2 12.7,9.7 -2.5,-0.4 -5.9,-0.8 -9,-0.8 -10.2,0 -28.7,2 -28.7,19.1 0,12.2 9.8,17.6 20.8,17.6 7.9,0 13.2,-3.1 17.6,-10.1 h 0.2 v 6.2 c 0,1.4 1.2,2.6 2.6,2.6 h 11.9 c 1.4,0 2.5,-1.1 2.5,-2.5 v -31.4 c 0,-17.1 -12.3,-23.3 -26.5,-23.3 z m -3.3,45.8 c -4.5,0 -7.9,-2.3 -7.9,-6.1 0,-5.4 5.1,-7.4 11.6,-7.4 2.9,0 5.7,0.2 8.1,0.3 0,6.5 -4.6,13.2 -11.8,13.2 z"
     id="path6"
     style="fill:#000000" />
</svg>
