<svg id="DRMAX" width="500" height="117.53051" viewBox="0 0 500 117.53051" version="1.1" xml:space="preserve" xmlns:xlink="http://www.w3.org/1999/xlink" xmlns="http://www.w3.org/2000/svg" xmlns:svg="http://www.w3.org/2000/svg">
	<path id="DRMAX" style="fill:#000000;stroke:#000000;stroke-width:0" d="m 470.12203,71.473336 28.0348,-38.509341 c 1.07826,-1.694411 0.30807,-3.234784 -2.00249,-3.234784 h -21.25715 c -2.31056,0 -3.54286,0.308075 -5.23727,2.618635 L 455.79655,51.294441 441.93319,32.347846 c -1.69441,-2.31056 -2.92671,-2.618635 -5.23727,-2.618635 H 415.5928 c -2.31056,0 -3.08075,1.540373 -2.00248,3.234784 l 28.0348,38.509341 -29.2671,40.203754 c -1.38634,1.84845 -0.61615,4.00497 1.54037,4.00497 h 21.56523 c 2.31056,0 3.6969,-1.07826 5.08323,-2.92671 l 15.2497,-21.10312 15.2497,21.10312 c 1.38634,1.84845 2.77267,2.92671 5.08324,2.92671 h 21.56523 c 2.15652,0 3.08074,-2.31056 1.54037,-4.00497 z M 364.76047,27.41865 c -11.86087,0 -22.18138,1.540374 -32.03977,5.237271 -1.2323,0.462112 -2.00248,1.694411 -2.00248,3.080747 l 0.30807,15.095661 c 0,1.078262 1.54037,2.156523 2.4646,1.694411 7.70187,-3.850934 16.17392,-5.23727 24.95405,-5.23727 10.62858,0 19.40871,3.080747 19.56275,14.941624 -3.85094,-0.616149 -9.08821,-1.232299 -13.86337,-1.232299 -15.71181,0 -44.20872,3.080748 -44.20872,29.421136 0,18.792559 15.09566,27.110579 32.03977,27.110579 12.16895,0 20.33293,-4.77516 27.11058,-15.55778 h 0.30807 v 9.55032 c 0,2.15652 1.84845,4.00497 4.00497,4.00497 h 18.33045 c 2.15652,0 3.85093,-1.69441 3.85093,-3.85093 V 63.309356 c 0,-26.340389 -18.94659,-35.890706 -40.8199,-35.890706 z m -5.08323,70.549112 c -6.93168,0 -12.16895,-3.542859 -12.16895,-9.396279 0,-8.318018 7.8559,-11.398765 17.86833,-11.398765 4.46709,0 8.78013,0.308075 12.47703,0.462112 0,10.012429 -7.08572,20.332932 -18.17641,20.332932 z m -188.23368,6.315548 a 12.322989,12.785101 0 0 1 -12.32299,12.78511 12.322989,12.785101 0 0 1 -12.32298,-12.78511 12.322989,12.785101 0 0 1 12.32298,-12.785097 12.322989,12.785101 0 0 1 12.32299,12.785097 z M 36.35282,0 H 3.54286 C 1.54037,0 0,1.848448 0,4.159009 V 111.67709 c 0,2.31056 1.54037,4.15901 3.54286,4.15901 h 32.80996 c 34.50437,0 59.92053,-15.09567 59.92053,-58.380164 C 96.42739,12.631064 71.62737,0 36.35282,0 Z m 0.61615,92.884529 H 27.72673 V 22.951567 h 9.24224 c 24.49194,0 30.96151,11.860877 30.96151,34.966481 0,22.951567 -6.77765,34.966481 -30.96151,34.966481 z M 156.81003,51.294441 c 1.84845,0.462113 3.6969,-0.462112 4.31305,-2.156523 l 5.23727,-15.865848 c 0.46211,-1.386336 -0.30807,-2.772672 -1.54037,-3.234784 -8.31802,-3.080748 -24.18387,-4.775159 -33.88822,10.628578 v -6.931682 c 0,-2.31056 -1.54038,-4.004971 -3.54286,-4.004971 h -18.02237 c -2.00249,0 -3.54286,1.848448 -3.54286,4.004971 v 77.942908 c 0,2.31056 1.54037,4.00497 3.54286,4.00497 h 18.02237 c 2.00248,0 3.54286,-1.84845 3.54286,-4.00497 V 76.556569 C 130.77772,54.683263 144.02493,47.751582 156.81003,51.294441 Z M 302.68342,4.159009 c -0.15404,-2.310561 -2.00249,-4.004972 -4.00498,-4.004972 h -26.64846 c -2.00248,0 -4.15901,1.848449 -4.77516,4.004972 L 248.30823,72.705635 229.20759,4.159009 c -0.61615,-2.310561 -2.77267,-4.004972 -4.77515,-4.004972 h -26.64847 c -2.00248,0 -3.69689,1.848449 -4.00497,4.004972 L 183.92061,112.1392 c -0.15404,2.31056 1.2323,3.54286 3.23478,3.54286 h 18.33045 c 2.00249,0 3.6969,-1.2323 4.00497,-3.54286 l 7.54783,-70.395075 19.40871,70.395075 c 0.46211,1.84845 1.38634,3.54286 3.54286,3.54286 h 16.79007 c 2.15653,0 2.92671,-1.69441 3.54286,-3.54286 l 19.40871,-70.395075 6.46957,70.395075 c 0.15404,2.31056 2.00248,3.54286 4.00497,3.54286 h 19.10063 c 2.00249,0 3.38882,-1.2323 3.23479,-3.54286 z" />
</svg>
