<svg id="DUZYBEN" width="500" height="393.41367" viewBox="0 0 500 393.41367" version="1.1" xml:space="preserve" xmlns:xlink="http://www.w3.org/1999/xlink" xmlns="http://www.w3.org/2000/svg" xmlns:svg="http://www.w3.org/2000/svg">
	<path id="DUZYBEN" style="fill:#000000;stroke:#000000;stroke-width:0" d="m 312.04442,0.06477313 c 6.33541,0.63983954 11.29008,6.02668907 11.29229,12.54933987 0.006,6.957583 -5.64451,12.620021 -12.58135,12.629671 -6.93677,0.0096 -12.5803,-5.657018 -12.58656,-12.614997 C 298.16788,5.8547329 304.00119,0.00548906 310.75782,5.1549769e-6 311.19141,-3.9114324e-4 311.62209,0.02206932 312.04441,0.06491237 Z M 500,34.719585 l -47.99494,79.746085 -0.0282,53.40136 -30.08538,-0.0134 0.0375,-53.03365 -48.45598,-80.08058 35.72565,-0.0021 31.3469,53.581222 24.63611,-41.514091 -4.74664,-12.063639 z m -139.1008,0.04016 -0.0141,11.142481 -61.30921,99.663064 65.26663,-0.001 -8.4048,22.29139 -97.54852,0.0296 0.0169,-11.16551 61.12109,-99.655041 -60.69772,0.0096 8.76858,-22.332401 z m -112.99676,0.08612 -0.0678,111.332275 c -5.82243,4.09497 -25.79819,15.78384 -25.79819,15.78384 l -0.0461,-0.005 c -10.23955,5.8553 -22.12797,9.18063 -34.74804,9.16894 -25.96906,-0.005 -45.35028,-19.04995 -45.32126,-43.44691 l 0.0507,-80.709283 -7.11414,-12.089827 37.31836,-0.01682 -0.057,84.37382 c -0.0116,15.76649 12.598,28.98097 28.50209,28.9775 4.01742,-0.004 7.87018,-0.54684 11.34048,-1.84874 1.84229,-0.53194 3.85578,-1.46088 5.48827,-2.20231 l 0.069,-97.208879 -6.93371,-12.098813 z M 67.17009,35.097386 c 32.84086,3.200129 57.50184,29.830641 57.48022,62.388585 -0.0342,37.788429 -36.542488,70.415389 -77.53458,70.418199 L 7.0150664,167.90632 7.0939726,46.85053 0,34.786624 60.502857,34.775913 c 2.257235,3e-4 4.477872,0.107964 6.66723,0.321312 z M 50.686895,57.127764 c -1.673344,-0.166413 -3.375649,-0.253556 -5.108,-0.254209 l -8.400503,0.01125 -0.05616,88.865955 21.68771,10e-4 c 6.388187,0.003 13.499947,-0.53999 17.514762,-3.28817 l 0.02649,-0.0208 C 87.828633,134.57175 93.865508,120.29829 93.880375,105.13115 93.881424,80.290548 75.787486,59.622236 50.6875,57.126607 Z m 444.871145,139.934576 -0.10453,196.30136 -39.79823,0.0159 -89.99253,-126.46197 -0.0753,126.47625 -34.96914,0.002 0.11746,-175.55549 -14.49925,-20.77374 54.31813,-0.008 L 460.25634,323.54 460.334,214.85266 449.85066,197.0608 Z m -190.01274,-0.001 -12.3941,32.65616 -70.4587,-0.0136 -0.003,45.84757 80.13027,0.003 -12.41434,32.63026 -67.74741,0.007 -0.0268,52.56705 85.50276,0.009 -12.38266,32.62638 -117.50245,0.007 0.0917,-178.51427 -10.46036,-17.78904 z m -211.30441,0.2641 c 27.00274,2.37117 46.37109,22.25533 46.36023,48.56585 -0.0239,16.70734 -8.62909,29.64624 -19.65458,36.39508 l -3.77028,2.43716 c -0.82435,0.55341 -1.61093,0.81875 -2.42592,1.08182 l 0.0539,0.006 c 18.00601,6.45615 32.77353,21.82772 33.04454,44.22122 0.39642,35.74917 -43.44706,63.35519 -75.887242,63.36821 L 10.655171,393.41368 10.769823,214.9022 0.28642686,197.11035 88.741341,197.08475 c 1.864551,-0.001 3.699465,0.0819 5.499644,0.24004 z m -23.52432,32.03517 c -0.979065,-0.10047 -1.974375,-0.1563 -2.983172,-0.15666 l -13.429283,7.4e-4 -0.02323,47.46727 30.640263,0.003 c 1.877511,-3e-4 4.034573,-0.80932 5.374115,-2.16179 3.775833,-3.77183 5.929842,-9.15842 6.205559,-15.63689 -0.0086,-15.42361 -11.098835,-28.00294 -25.784235,-29.51647 z m 2.922515,77.65156 c -1.078695,-0.11276 -2.169608,-0.17039 -3.277959,-0.16937 l -16.143376,0.002 -0.028,54.47759 35.748692,5.7e-4 c 2.163317,0.006 4.040978,-0.81018 5.660734,-1.89258 4.320368,-4.59523 6.722314,-11.59426 6.739374,-19.15069 0.0123,-17.18413 -12.52159,-31.55105 -28.699471,-33.26764 z" />
</svg>
