<svg id="DUZYBEN" width="500" height="90.982597" viewBox="0 0 500 90.982597" version="1.1" xml:space="preserve" xmlns:xlink="http://www.w3.org/1999/xlink" xmlns="http://www.w3.org/2000/svg" xmlns:svg="http://www.w3.org/2000/svg">
	<path id="DUZYBEN" style="fill:#000000;stroke:#000000;stroke-width:0" d="m 165.90458,0.03443327 c 3.36836,0.34018346 6.00262,3.20421693 6.00379,6.67212073 0.004,3.699148 -3.00103,6.709694 -6.68914,6.714825 -3.68809,0.0054 -6.68858,-3.007664 -6.69191,-6.7070203 C 158.52683,3.112788 161.62824,0.00291553 165.22054,2.7952465e-6 165.45106,-2.1022753e-4 165.68005,0.01175651 165.90458,0.03450392 Z m 99.93052,18.42495573 -25.51753,42.398676 -0.015,28.391948 -15.99552,-0.0071 0.0199,-28.196448 -25.76269,-42.576526 18.99428,-0.0011 16.66624,28.487573 13.0983,-22.071836 -2.52364,-6.413882 z m -73.95585,0.02137 -0.007,5.924134 -32.59631,52.987952 34.70037,-5.32e-4 -4.46858,11.851684 -51.86372,0.01573 0.008,-5.936381 32.49631,-52.983686 -32.27121,0.0054 4.66199,-11.873482 z m -60.07709,0.04578 -0.0361,59.192131 c -3.09562,2.17718 -13.71616,8.391809 -13.71616,8.391809 l -0.0245,-0.0027 c -5.44404,3.11305 -11.76477,4.881022 -18.474489,4.874804 -13.806973,-0.0018 -24.111405,-10.128268 -24.095976,-23.09942 l 0.02696,-42.910782 -3.782376,-6.427806 19.841082,-0.0089 -0.03028,44.859107 c -0.0063,8.382584 6.697995,15.408334 15.153739,15.40649 2.13594,-0.0022 4.18435,-0.29074 6.02941,-0.982921 0.97949,-0.282816 2.05,-0.776707 2.91796,-1.170903 l 0.0367,-51.683136 -3.68645,-6.432582 z M 500,0.00168089 499.9516,90.936308 l -18.43615,0.0073 -41.68813,-58.582233 -0.0349,58.588847 -16.1991,9.17e-4 0.0544,-81.3243099 L 416.9311,0.00366776 442.09344,0 l 41.5534,58.591214 0.0359,-50.3483171 -4.85631,-8.24190115782 z m -88.02149,-4.6351e-4 -5.74144,15.12763362 -32.63929,-0.0062 -9.4e-4,21.238424 37.11956,0.0014 -5.75083,15.115639 -31.3833,0.0033 -0.0124,24.351159 39.6083,0.0042 -5.73614,15.113845 -54.43183,0.0033 0.0425,-82.6949425 -4.84566,-8.24059348 z M 32.167125,18.489753 0,18.49507 3.7715407,24.909383 3.7289536,89.270637 25.04979,89.269549 C 46.844082,89.267979 66.254787,71.921404 66.27297,51.830397 66.284454,34.520279 53.172807,20.361556 35.712281,18.660148 c -1.164023,-0.113427 -2.345066,-0.17014 -3.545167,-0.1703 z M 24.232564,30.23843 c 0.921045,3.51e-4 1.825799,0.04652 2.715469,0.134992 l 0.0011,-0.0011 c 13.344932,1.326856 22.964144,12.316299 22.963612,25.523326 -0.0079,8.063927 -3.2176,15.652125 -9.319816,19.836933 l -0.0135,0.01143 c -2.134561,1.461125 -5.916139,1.749253 -9.312549,1.747658 H 19.736221 l 0.0301,-47.248104 z M 311.54604,0.0122943 l -40.97593,0.011747 4.85679,8.2415112 -0.0534,82.6937545 28.39968,-0.0055 c 15.02759,-0.0059 35.3374,-12.79467 35.15376,-29.355116 -0.1255,-10.373557 -6.96657,-17.494046 -15.30768,-20.484788 l -0.0244,-0.0028 c 0.37754,-0.121864 0.74185,-0.24488 1.12371,-0.501245 l 1.7462,-1.129145 c 5.10745,-3.126334 9.09359,-9.119892 9.10466,-16.859401 0.005,-12.188027 -8.96677,-21.3994206 -21.4755,-22.49783917 -0.83391,-0.07325732 -1.6841,-0.11175524 -2.54783,-0.11129181 z M 295.59321,14.891166 h 6.22117 c 0.46731,1.65e-4 0.92895,0.02584 1.38249,0.07238 6.80286,0.701128 11.93962,6.527988 11.9438,13.672819 -0.12772,3.001085 -1.12532,5.496291 -2.87444,7.243552 -0.62053,0.626516 -1.62017,1.001438 -2.48991,1.001575 l -14.19396,-0.0018 z m 7.43898,35.965335 c 0.51344,-4.58e-4 1.01852,0.02648 1.51821,0.07871 7.49423,0.795194 13.30031,7.450495 13.29462,15.410873 -0.008,3.500439 -1.12098,6.742531 -3.12235,8.871222 -0.75034,0.501415 -1.61988,0.879498 -2.62201,0.876717 l -16.55993,-9.19e-4 0.0127,-25.235716 z" />
</svg>
