<svg
   width="260.00037"
   height="262.00085"
   viewBox="0 0 260.00037 262.00085"
   fill="none"
   version="1.1"
   id="svg11"
   xmlns="http://www.w3.org/2000/svg"
   xmlns:svg="http://www.w3.org/2000/svg">
  <path
     id="path1"
     style="color:#000000;font-style:normal;font-variant:normal;font-weight:normal;font-stretch:normal;font-size:medium;line-height:normal;font-family:sans-serif;font-variant-ligatures:normal;font-variant-position:normal;font-variant-caps:normal;font-variant-numeric:normal;font-variant-alternates:normal;font-variant-east-asian:normal;font-feature-settings:normal;font-variation-settings:normal;text-indent:0;text-align:start;text-decoration-line:none;text-decoration-style:solid;text-decoration-color:#000000;letter-spacing:normal;word-spacing:normal;text-transform:none;writing-mode:lr-tb;direction:ltr;text-orientation:mixed;dominant-baseline:auto;baseline-shift:baseline;text-anchor:start;white-space:normal;shape-padding:0;shape-margin:0;inline-size:0;clip-rule:nonzero;display:inline;overflow:visible;visibility:visible;isolation:auto;mix-blend-mode:normal;color-interpolation:sRGB;color-interpolation-filters:linearRGB;solid-color:#000000;solid-opacity:1;vector-effect:none;fill:#000000;fill-opacity:1;fill-rule:nonzero;stroke:none;stroke-linecap:butt;stroke-linejoin:miter;stroke-miterlimit:4;stroke-dasharray:none;stroke-dashoffset:0;stroke-opacity:1;-inkscape-stroke:none;color-rendering:auto;image-rendering:auto;shape-rendering:auto;text-rendering:auto;enable-background:accumulate;stop-color:#000000"
     d="m 134.56809,0.00257352 c -1.05713,-0.0303 -2.11624,0.20639 -3.17774,0.74023 -1.208,0.61571998 -2.39787,1.29119998 -3.54687,2.01171998 -1.541,0.95633 -3.01578,2.01104 -4.55078,2.98047 -3.428,2.18122 -7.2421,2.96094 -11.2461,2.96094 -1.874,0.007 -3.69679,-0.34074 -5.46679,-0.94336 -1.698,-0.58297 -3.37636,-1.19886 -5.06836,-1.79493 -1.345,-0.47817 -2.716263,-0.87173 -4.126963,-1.08789 -2.3314,-0.36026 -4.36972,0.19103 -6.07421,1.86133 -0.6922,0.68777 -1.38351,1.36851 -2.00391,2.11524 -1.0775,1.2969405 -2.07084,2.6659905 -3.14844,3.9628905 -0.8424,1.0088 -1.6851,2.04343 -2.6582,2.92773 -2.8408,2.5873 -6.19746,4.22417 -9.93945,5.04297 -2.19431,0.4782 -4.42144,0.37483 -6.64844,0.30273 -1.8351,-0.0655 -3.66231,-0.17794 -5.50391,-0.0273 l -0.0332,0.0137 c -0.6988,0.1376 -1.4035,0.23521 -2.09571,0.41211 -1.56739,0.393 -2.82202,1.25152 -3.73632,2.60742 -0.7314,1.0873 -1.31961,2.24719 -1.78321,3.45899 -0.6335,1.6375 -1.23968,3.28094 -1.83398,4.93164 -1.1363,3.1244 -2.85454,5.85715 -5.27734,8.15625 -2.2335,2.1157 -4.72193,3.77188 -7.67383,4.67578 -1.6653,0.5175 -3.34959,1.00277 -5.02149,1.51367 -1.6783,0.5044 -3.31764,1.1128 -4.80664,2.0625 -1.3649,0.8778 -2.32486,2.06408 -2.75586,3.64258 -0.1632,0.6027 -0.31357,1.21168 -0.41797,1.83398 -0.3527,1.9454 -0.37277,3.91708 -0.45117,5.88868 -0.0653,1.821 -0.11197,3.64741 -0.54297,5.41601 -1.2278,5.0567 -3.72883,9.29462 -8.01953,12.35352 -1.3453,0.9564 -2.69693,1.87384 -4.04883,2.81054 -1.2082,0.8449 -2.37647,1.73635 -3.3886699,2.81055 -0.97961,1.0349 -1.77064,2.18855 -2.04492,3.62305 -0.21553,1.1266 -0.10986,2.24513 0.0469,3.36523 0.29388,2.1288 0.95917,4.16643 1.52734,6.236331 0.62041,2.3122 1.1689499,4.624015 1.0644499,7.041015 -0.1828699,4.323 -1.2013899,8.38502 -3.8593699,11.91602 -1.01878,1.343 -2.04372,2.67834 -3.0625,4.02734 -1.05797,1.409 -2.02534,2.86267 -2.67187995,4.51367 -0.64649,1.644 -0.72343,3.2935 -0.0508,4.9375 0.33307,0.793 0.66528995,1.60585 1.10937995,2.33985 1.04491,1.722 2.18165,3.38556 3.22656,5.10156 0.73144,1.199 1.44996,2.41664 2.05078,3.68164 1.12328,2.404 1.55359,4.99686 1.69727,7.63086 0.0653,1.179 -0.0186,2.37845 -0.12305,3.56445 -0.14367,1.578 -0.63514,3.09099 -1.14453,4.58399 -0.52899,1.559 -1.10322,3.10506 -1.61914,4.66406 -0.48327,1.467 -0.80384,2.96753 -0.86914,4.51953 -0.0653,1.54 0.3531,2.92242 1.32617,4.10742 0.62041,0.747 1.2549,1.49391 1.98633,2.12891 1.54124,1.35 3.1414399,2.64568 4.7480399,3.92968 2.6122,2.083 4.66167,4.5984 6.07227,7.6504 1.1951,2.587 2.01839,5.2599 2.02539,8.1289 0.007,1.801 -0.0397,3.59563 -0.0723,5.39063 -0.0327,1.932 0.006,3.85814 0.50196,5.74414 0.4115,1.546 1.22956,2.79131 2.56836,3.69531 1.0775,0.727 2.23906,1.30325 3.44726,1.78125 1.5608,0.622 3.13445,1.2186 4.71485,1.8086 3.1217,1.166 5.87119,2.90209 8.15039,5.37109 1.8155,1.959 3.37621,4.07323 4.25781,6.61524 0.6139,1.77499 1.15062,3.58376 1.69922,5.38476 0.4898,1.598 0.99105,3.19006 1.78125,4.66406 0.6727,1.257 1.45626,2.42333 2.75586,3.11133 1.0057,0.537 2.10464,0.77222 3.21484,0.94922 2.2661,0.354 4.55805,0.36684 6.84375,0.46484 3.3764,0.138 6.57026,0.91104 9.53516,2.58203 2.3837,1.34301 4.55149,2.92629 6.21679,5.11329 0.9535,1.258 1.85399,2.56223 2.74219,3.86523 1.0841,1.566 2.17561,3.125 3.50781,4.5 1.2735,1.323 2.76111,2.12891 4.62891,2.12891 1.4824,0 2.93382,-0.22285 4.35742,-0.58985 1.7829,-0.452 3.54465,-0.96259 5.31446,-1.43359 1.5347,-0.413 3.089923,-0.73356 4.669923,-0.72656 4.741,0.033 9.15676,1.15187 13.00976,4.04687 1.3,0.976 2.55405,2.00427 3.87305,2.94727 1.136,0.819 2.31153,1.60045 3.51953,2.31445 1.75,1.041 3.61825,1.25017 5.53125,0.45117 0.889,-0.38 1.80867,-0.72661 2.63867,-1.22461 1.704,-1.022 3.34949,-2.13693 5.02149,-3.21093 1.881,-1.212 3.82695,-2.26547 6.00195,-2.85547 1.704,-0.458 3.43555,-0.68769 5.18555,-0.80469 2.286,-0.158 4.53189,0.0902 6.71289,0.78516 1.339,0.419 2.65837,0.89046 3.98437,1.35546 1.737,0.61 3.47421,1.19807 5.28321,1.53907 1.985,0.373 3.76214,-0.0128 5.36914,-1.25782 1.032,-0.799 1.97178,-1.6894 2.80078,-2.6914 1.071,-1.303 2.12215,-2.61922 3.16015,-3.94922 2.057,-2.639 4.52618,-4.7502 7.57618,-6.1582 2.299,-1.061 4.64945,-1.90477 7.18945,-2.00977 1.914,-0.078 3.83976,-0.0259 5.75976,-0.006 1.711,0.026 3.40943,0.0435 5.10743,-0.18555 2.012,-0.275 3.65157,-1.16439 4.76757,-2.90039 0.51,-0.805 1.0313,-1.61142 1.4043,-2.48242 0.803,-1.893 1.53491,-3.82009 2.25391,-5.74609 1.143,-3.072 2.80108,-5.78297 5.20508,-8.04297 2.044,-1.919 4.26401,-3.54347 6.91601,-4.48047 1.462,-0.517 2.95046,-0.96987 4.43946,-1.42187 1.823,-0.557 3.63175,-1.11385 5.34375,-1.96485 1.802,-0.897 3.05626,-2.24579 3.57226,-4.2168 0.248,-0.937 0.50275,-1.89246 0.59375,-2.85546 0.176,-1.919 0.24185,-3.84549 0.33985,-5.77149 0.098,-1.926 0.24732,-3.85336 0.86132,-5.69336 1.482,-4.454 3.90549,-8.24005 7.77149,-10.99805 1.339,-0.956 2.71629,-1.85394 4.02929,-2.83594 1.143,-0.852 2.25855,-1.75607 3.31055,-2.70507 1.463,-1.337 2.17511,-3.0253 2.16211,-5.0293 -0.013,-1.29 -0.14989,-2.55483 -0.46289,-3.79883 -0.549,-2.142 -1.15122,-4.26425 -1.69922,-6.40625 -0.464,-1.788 -0.69883,-3.6167 -0.54883,-5.4707 0.333,-4.179 1.45172,-8.08828 4.01172,-11.48828 0.98,-1.297 1.99178,-2.56163 2.92578,-3.89063 0.829,-1.166 1.61822,-2.3577 2.32422,-3.5957 1.064,-1.867 1.28071,-3.84595 0.47071,-5.87695 -0.327,-0.825 -0.64066,-1.66383 -1.09766,-2.42383 -1.058,-1.762 -2.18155,-3.48322 -3.31055,-5.19922 -1.816,-2.752 -3.05836,-5.70567 -3.44336,-9.01367 -0.313,-2.731 -0.29376,-5.44938 0.49024,-8.10938 0.45,-1.513 0.98009,-3.00114 1.49609,-4.49414 0.647,-1.86 1.30028,-3.71327 1.61328,-5.671873 0.32,-1.9847 -0.0188,-3.798353 -1.29883,-5.376953 -0.595,-0.7467 -1.20206,-1.49499 -1.91406,-2.11719 -1.534,-1.3363 -3.1228,-2.60689 -4.7168,-3.87109 -2.56,-2.0371 -4.62867,-4.45313 -6.01367,-7.45313 -1.182,-2.5677 -2.04498,-5.20148 -2.08398,-8.05078 -0.026,-1.5197 0.008,-3.03182 0.0527,-4.54492 0.053,-1.9716 0.13761,-3.93724 -0.15039,-5.90234 -0.294,-2.0044 -1.18676,-3.63563 -2.88476,-4.79493 -1.078,-0.7337 -2.21583,-1.35642 -3.42383,-1.82812 -1.587,-0.6222 -3.18516,-1.22485 -4.78516,-1.81445 -3.089,-1.1397 -5.81469,-2.83536 -8.05469,-5.28516 -1.802,-1.965 -3.369,-4.06788 -4.25,-6.60938 -0.614,-1.75549 -1.13815,-3.55033 -1.66015,-5.33203 -0.496,-1.6572 -1.01207,-3.30818 -1.78907,-4.86718 -1.085,-2.1878 -2.76854,-3.56191 -5.18554,-3.97461 -0.64,-0.1179 -1.27992,-0.25684 -1.91992,-0.30274 -1.743,-0.1179 -3.48633,-0.19484 -5.23633,-0.27344 -1.613,-0.0786 -3.23331,-0.18415 -4.82031,-0.53125 -1.91401,-0.4193 -3.69607,-1.18503 -5.41407,-2.11523 -2.645,-1.4344 -4.91158,-3.30266 -6.64258,-5.78516 -1.24,-1.7751 -2.44064,-3.57525 -3.68164,-5.34375 -0.81,-1.1594 -1.74398,-2.2073905 -2.83398,-3.1113205 -1.156,-0.94978 -2.47052,-1.48035 -3.97852,-1.5 -1.418,-0.0197 -2.79434,0.22832 -4.15234,0.58203 -2.051,0.53712 -4.08295,1.12626 -6.12695,1.66992 -1.835,0.4847205 -3.69585,0.6954505 -5.58985,0.5644505 -4.199,-0.2882105 -8.11032,-1.4410405 -11.48633,-4.0742205 -1.267,-0.98909 -2.52792,-1.96473 -3.79492,-2.94726 -1.162,-0.89737 -2.3784,-1.71722 -3.6914,-2.39843998 -1.051,-0.53712 -2.10499,-0.83494 -3.16211,-0.86523 z M 123.9841,30.500614 l -4.18554,5.3711 c -24.673403,2.8494 -48.243103,15.20342 -64.746103,36.38672 -16.503,21.1834 -22.75216,47.109406 -19.53906,71.816406 l -4.17969,5.36523 c -4.8718,-27.367 1.41106,-56.613736 19.81446,-80.240236 18.41,-23.6332 45.17823,-36.81932 72.835933,-38.69922 z m 14.41797,46.4961 c 1.60639,-0.035 3.01328,1.16142 3.21485,2.79492 0.216,1.7423 -1.02472,3.33458 -2.76172,3.55078 -1.737,0.2161 -3.32502,-1.02908 -3.54102,-2.77148 -0.209,-1.6965 1.07167,-3.34119 2.76367,-3.55079 0.10857,-0.0135 0.21713,-0.0211 0.32422,-0.0234 z m 48.14063,2.88672 -9.5625,21.451166 1.63867,13.375 -7.53516,0.92383 -1.625,-13.2832 -14.60351,-18.562506 8.94726,-1.10156 9.50196,12.45313 4.89062,-11.15626 -1.56055,-2.875 z m -34.83594,4.29687 0.33984,2.79102 -12.2832,26.849606 16.3457,-2.01172 -1.41797,5.8418 -24.42968,3.01367 -0.33985,-2.79688 12.23633,-26.841796 -15.20117,1.87305 1.50781,-5.86328 z m -28.29688,3.50391 3.41407,27.884766 c -1.332,1.205 -5.97461,4.74804 -5.97461,4.74804 h -0.0117 c -2.384,1.782 -5.25892,2.98119 -8.41992,3.36719 -6.504,0.799 -11.94486,-3.37337 -12.689463,-9.48437 l -2.47461,-20.214846 -2.15429,-2.8086 9.345703,-1.15429 2.58594,21.132806 c 0.483,3.949 4.04825,6.86991 8.03125,6.37891 1.006,-0.125 1.9542,-0.3795 2.7832,-0.8125 0.445,-0.19 0.92064,-0.4847 1.30664,-0.7207 l -2.97851,-24.347656 -2.10938,-2.81641 z m -45.255863,5.63281 c 8.32347,-0.21063 15.3204,5.698859 16.31836,13.853516 1.156,9.465 -6.98184,18.76139 -17.24804,20.02539 l -10.04297,1.23633 -3.71094,-30.320315 -2.14844,-2.802731 15.15235,-1.86719 c 0.56531,-0.0696 1.12479,-0.11096 1.67968,-0.125 z m -3.44921,6.02539 c -0.42421,0.0099 -0.85323,0.04053 -1.28711,0.09375 l -2.10352,0.261719 2.72461,22.257817 5.43164,-0.66797 c 1.6,-0.196 3.36436,-0.55128 4.28516,-1.36328 l 0.006,-0.006 c 2.6319,-2.325 3.70393,-6.08577 3.24023,-9.88477 -0.76528,-6.22125 -5.93378,-10.839919 -12.29687,-10.691406 z M 228.74973,112.53577 c 4.872,27.367 -1.40445,56.60724 -19.81445,80.24024 -18.41001,23.633 -45.18594,36.81827 -72.83594,38.69727 l 4.18554,-5.36328 c 24.673,-2.856 48.24715,-15.20959 64.74414,-36.39259 16.49601,-21.177 22.74702,-47.10954 19.54102,-71.81054 z m -38.31641,8.14258 6.02344,49.16602 -9.9668,1.23047 -26.43554,-28.89844 3.8789,31.67773 -8.75781,1.07813 -5.38086,-43.97071 -4.27148,-4.75585 13.60351,-1.67579 26.36328,28.91211 -3.33008,-27.22265 -3.17382,-4.13282 z m -47.58789,5.85547 -2.09765,8.56055 -17.64649,2.16797 1.41211,11.48242 20.06836,-2.46875 -2.10352,8.55469 -16.96679,2.08984 1.61328,13.16601 21.41406,-2.63281 -2.0957,8.55274 -29.42774,3.62304 -5.47851,-44.71093 -3.16797,-4.13282 z m -52.912113,6.57813 c 6.83579,-0.23832 12.299303,4.14468 13.107423,10.73437 0.509,4.185 -1.24748,7.6907 -3.800783,9.7207 l -0.86914,0.72657 c -0.1894,0.164 -0.37822,0.2547 -0.57422,0.3457 h 0.0137 c 4.708493,1.062 8.880673,4.45664 9.638673,10.05664 1.201,8.941 -8.928643,17.20598 -17.052743,18.20898 l -15.35351,1.89258 -5.47266,-44.71094 -3.17383,-4.13281 22.15235,-2.73242 c 0.46694,-0.0577 0.92904,-0.0935 1.38476,-0.10937 z m -4.9043,8.74804 c -0.2483,0.005 -0.49929,0.0217 -0.75195,0.0527 l -3.36328,0.41406 1.45703,11.88868 7.67383,-0.94336 c 0.4702,-0.058 0.9855,-0.32703 1.2793,-0.70703 0.8294,-1.061 1.20286,-2.47643 1.07226,-4.10743 -0.47756,-3.8625 -3.64265,-6.67117 -7.36719,-6.59765 z m 3.125,19.35742 c -0.27363,0.005 -0.54862,0.0242 -0.82617,0.0586 l -4.04297,0.49805 1.67188,13.64453 8.95312,-1.10156 c 0.542,-0.065 0.98708,-0.32744 1.35938,-0.64844 0.9404,-1.284 1.32626,-3.1109 1.09766,-5.0039 -0.5265,-4.30407 -4.10832,-7.51593 -8.2129,-7.44727 z" />
  <defs
     id="defs11" />
</svg>
