<svg id="EMBARGO" width="500" height="66.353287" viewBox="0 0 500 66.353287" version="1.1" xml:space="preserve" xmlns:xlink="http://www.w3.org/1999/xlink" xmlns="http://www.w3.org/2000/svg" xmlns:svg="http://www.w3.org/2000/svg">
	<path id="EMBARGO" style="fill:#000000;stroke:#000000;stroke-width:0" d="M 14.940311,53.336473 V 38.489629 H 45.121023 V 26.948645 H 14.940311 V 13.016815 H 49.115222 V 1.1068722 H 0 V 65.246415 H 50.326158 V 53.336473 Z M 135.54394,65.246415 135.3642,1.1068722 H 123.01075 L 99.051224,40.969024 74.71896,1.1068722 H 62.276593 V 65.246415 H 76.393458 V 27.59801 l 19.038199,30.874349 h 6.775573 l 19.12901,-31.700815 0.0889,38.489629 h 14.11877 z m 63.14279,-33.353741 c 5.29407,-2.745044 8.62983,-7.703832 8.62983,-14.10893 0,-9.9913651 -8.36115,-16.6768718 -24.60284,-16.6768718 H 150.96257 V 65.246415 h 33.6054 c 17.07988,0 25.99352,-6.419857 25.99352,-17.503335 0.0147,-8.058027 -4.63563,-13.548115 -11.87476,-15.850406 z M 180.85947,12.293658 c 7.32806,0 11.32226,2.479394 11.32226,7.511972 0,5.032577 -3.9942,7.60052 -11.32226,7.60052 H 165.9044 V 12.293658 Z m 2.60162,41.780731 H 165.91954 V 38.22398 h 17.54155 c 7.80865,0 11.98071,2.567943 11.98071,7.96948 0,5.490084 -4.18719,7.880929 -11.98071,7.880929 z M 270.5199,65.246415 H 286.298 L 257.23933,1.1068722 H 242.38832 L 213.41854,65.246415 h 15.41863 l 5.75762,-13.739972 h 30.18073 z m -31.09271,-25.015307 10.30431,-24.5578 10.30431,24.5578 z m 111.1943,25.015307 -14.58046,-20.617334 c 8.45008,-3.571509 13.3695,-10.625972 13.3695,-20.248379 0,-14.3893373 -10.85681,-23.2738298 -28.2205,-23.2738298 H 293.05845 V 65.246415 h 15.04399 V 47.374122 h 13.08759 0.74738 l 12.53319,17.872293 z m -16.4366,-40.865713 c 0,6.965913 -4.6356,11.172026 -13.83306,11.172026 H 308.08732 V 13.208673 h 12.26451 c 9.19746,0 13.83306,4.117564 13.83306,11.172029 z m 71.07065,26.579686 c -3.81446,2.021886 -7.61188,2.745043 -11.69501,2.745043 -12.44425,0 -21.07219,-8.515535 -21.07219,-20.528786 0,-12.190352 8.62794,-20.528788 21.2652,-20.528788 6.59582,0 12.06962,2.287536 16.8112,7.231564 l 9.66101,-8.795943 C 413.91563,3.8519147 404.44761,0 393.0213,0 c -20.69755,0 -35.74345,13.828521 -35.74345,33.161887 0,19.333364 15.0459,33.161883 35.47478,33.161883 9.28825,0 19.129,-2.833591 26.27731,-8.161336 V 32.173081 h -13.74413 v 18.787307 z m 59.17886,15.3929 C 484.86517,66.353288 500,52.332909 500,33.191401 500,14.050085 484.86517,0.02970578 464.4344,0.02970578 c -20.51781,0 -35.56371,14.10892822 -35.56371,33.16169522 0,19.052958 15.0459,33.161887 35.56371,33.161887 z m 0,-12.647857 c -11.60416,0 -20.33807,-8.338437 -20.33807,-20.528786 0,-12.190352 8.73391,-20.528788 20.33807,-20.528788 11.60608,0 20.33996,8.338436 20.33996,20.528788 0,12.190349 -8.73388,20.528786 -20.33996,20.528786 z" />
</svg>
