<?xml version="1.0" encoding="UTF-8" standalone="no"?>
<svg
   width="200"
   height="27.496145"
   viewBox="0 0 200 27.496146"
   fill="none"
   version="1.1"
   id="svg3"
   sodipodi:docname="pobrane.svg"
   inkscape:version="1.4.2 (ebf0e94, 2025-05-08)"
   xmlns:inkscape="http://www.inkscape.org/namespaces/inkscape"
   xmlns:sodipodi="http://sodipodi.sourceforge.net/DTD/sodipodi-0.dtd"
   xmlns="http://www.w3.org/2000/svg"
   xmlns:svg="http://www.w3.org/2000/svg">
  <defs
     id="defs3" />
  <sodipodi:namedview
     id="namedview3"
     pagecolor="#ffffff"
     bordercolor="#000000"
     borderopacity="0.25"
     inkscape:showpageshadow="2"
     inkscape:pageopacity="0.0"
     inkscape:pagecheckerboard="0"
     inkscape:deskcolor="#d1d1d1"
     inkscape:zoom="4.7277945"
     inkscape:cx="165.82785"
     inkscape:cy="19.353633"
     inkscape:window-width="2560"
     inkscape:window-height="991"
     inkscape:window-x="2294"
     inkscape:window-y="-9"
     inkscape:window-maximized="1"
     inkscape:current-layer="svg3" />
  <path
     d="M 21.85399,0 H 5.6421563 C 2.5290429,0 0,2.5220966 0,5.6421563 V 21.853925 c 0,3.113178 2.5221609,5.642221 5.6421563,5.642221 H 21.85399 c 3.113177,0 5.642156,-2.522161 5.642156,-5.642221 V 5.6352743 C 27.496146,2.5220966 24.967167,0 21.85399,0 Z M 8.2536548,22.335023 c -1.3263631,0 -2.4052954,-1.078997 -2.4052954,-2.40536 0,-1.326298 1.0789323,-2.405295 2.4052954,-2.405295 1.326363,0 2.4052952,1.078997 2.4052952,2.405295 0,1.326363 -1.0789322,2.40536 -2.4052952,2.40536 z m 0,-6.185128 c -1.3263631,0 -2.4052954,-1.078932 -2.4052954,-2.405295 0,-1.326363 1.0789323,-2.405296 2.4052954,-2.405296 1.326363,0 2.4052952,1.078933 2.4052952,2.405296 0,1.326363 -1.0789322,2.405295 -2.4052952,2.405295 z m 0,-6.1850634 c -1.3263631,0 -2.4052954,-1.0789322 -2.4052954,-2.4052953 0,-1.3263631 1.0789323,-2.4053596 2.4052954,-2.4053596 1.326363,0 2.4052952,1.0789965 2.4052952,2.4053596 0,1.3263631 -1.0789322,2.4052953 -2.4052952,2.4052953 z M 19.249373,22.335023 c -1.326363,0 -2.405295,-1.078997 -2.405295,-2.40536 0,-1.326298 1.078932,-2.405295 2.405295,-2.405295 1.326363,0 2.405295,1.078997 2.405295,2.405295 0,1.326363 -1.078932,2.40536 -2.405295,2.40536 z m 0,-6.185128 c -1.326363,0 -2.405295,-1.078932 -2.405295,-2.405295 0,-1.326363 1.078932,-2.405296 2.405295,-2.405296 1.326363,0 2.405295,1.078933 2.405295,2.405296 0,1.326363 -1.078932,2.405295 -2.405295,2.405295 z m 0,-6.1850634 c -1.326363,0 -2.405295,-1.0789322 -2.405295,-2.4052953 0,-1.3263631 1.078932,-2.4053596 2.405295,-2.4053596 1.326363,0 2.405295,1.0789965 2.405295,2.4053596 0,1.3263631 -1.078932,2.4052953 -2.405295,2.4052953 z"
     fill="#ff4a60"
     id="path2"
     sodipodi:nodetypes="sssssssssssssssssssssssssssssssssssssss"
     style="stroke-width:0.643179;fill:#000000" />
  <path
     d="M 35.113429,20.178252 V 15.131357 H 45.372773 V 11.208225 H 35.113429 V 6.4723714 H 46.730523 V 2.4238189 H 30.034762 V 24.226804 h 17.107395 v -4.048552 z m 40.99685,4.048552 -0.0611,-21.8029851 H 71.849864 L 63.705292,15.974179 55.434014,2.4238189 h -4.22954 V 24.226804 h 4.798753 v -12.79784 l 6.471664,10.495132 h 2.303223 l 6.502536,-10.776073 0.03023,13.083798 h 4.799399 z M 97.574438,12.888851 c 1.799614,-0.933124 2.933542,-2.618767 2.933542,-4.7960552 0,-3.3963694 -2.842211,-5.6689769 -8.363256,-5.6689769 H 81.351542 V 24.226804 h 11.423497 c 5.805974,0 8.835991,-2.182305 8.835991,-5.949917 0.005,-2.739169 -1.57579,-4.605417 -4.036592,-5.388036 z M 91.514409,6.2265485 c 2.491031,0 3.848781,0.8428213 3.848781,2.553548 0,1.7107265 -1.35775,2.5836485 -3.848781,2.5836485 H 86.430724 V 6.2265485 Z m 0.88437,14.2025435 H 86.43587 v -5.388037 h 5.962909 c 2.654399,0 4.072608,0.872922 4.072608,2.709069 0,1.866247 -1.423355,2.678968 -4.072608,2.678968 z m 29.593941,3.797712 h 5.36346 L 117.47825,2.4238189 h -5.04831 l -9.84771,21.8029851 h 5.24126 l 1.95719,-4.670635 h 10.25935 z m -10.56936,-8.503465 3.50275,-8.3479447 3.50275,8.3479447 z m 37.79833,8.503465 -4.95634,-7.00846 c 2.87244,-1.214065 4.5447,-3.612092 4.5447,-6.883041 0,-4.8913743 -3.69056,-7.9114841 -9.59301,-7.9114841 h -9.56278 V 24.226804 h 5.11391 v -6.075337 h 4.44887 0.25406 l 4.26041,6.075337 z m -5.5873,-13.891501 c 0,2.367926 -1.57578,3.797712 -4.70228,3.797712 h -4.16908 V 6.5375897 h 4.16908 c 3.1265,0 4.70228,1.3996855 4.70228,3.7977133 z m 24.15908,9.035245 c -1.29665,0.687301 -2.58751,0.933124 -3.97549,0.933124 -4.23018,0 -7.16308,-2.89469 -7.16308,-6.97836 0,-4.143872 2.9329,-6.9783605 7.22869,-6.9783605 2.24212,0 4.10283,0.7776031 5.71464,2.458229 l 3.28407,-2.9900091 c -2.145,-2.4582289 -5.36347,-3.7676121 -9.24762,-3.7676121 -7.03573,0 -12.15029,4.7007357 -12.15029,11.2727357 0,6.572 5.11456,11.272735 12.05896,11.272735 3.15736,0 6.50253,-0.963224 8.93246,-2.774287 V 12.98417 h -4.67205 v 6.386378 z m 20.1167,5.232516 C 194.85521,24.603064 200,19.83711 200,13.330328 200,6.8236113 194.85521,2.0576572 187.91017,2.0576572 c -6.97463,0 -12.08919,4.7960548 -12.08919,11.2726708 0,6.476681 5.11456,11.272736 12.08919,11.272736 z m 0,-4.299392 c -3.94461,0 -6.91353,-2.834489 -6.91353,-6.97836 0,-4.143872 2.96892,-6.9783605 6.91353,-6.9783605 3.94526,0 6.91417,2.8344885 6.91417,6.9783605 0,4.143871 -2.96891,6.97836 -6.91417,6.97836 z"
     fill="#ff4a60"
     id="path3"
     sodipodi:nodetypes="cccccccccccccccccccccccccccccssccsccsssccssccssscccccccccccccccssccccccccssccsscsssccssscccccssssssssss"
     style="stroke-width:0.643179;fill:#000000" />
</svg>
