<svg
   class="inline-svg"
   viewBox="0 0 413.8 147.8"
   version="1.1"
   id="svg1"
   width="413.79999"
   height="147.8"
   xmlns="http://www.w3.org/2000/svg"
   xmlns:svg="http://www.w3.org/2000/svg"
   xmlns:rdf="http://www.w3.org/1999/02/22-rdf-syntax-ns#"
   xmlns:cc="http://creativecommons.org/ns#"
   xmlns:dc="http://purl.org/dc/elements/1.1/">
  <defs
     id="defs1" />
  <title
     id="title1">EMPIK.COM Sklep internetowy z darmową dostawą do ponad 200 salonów EMPIK w Polsce.</title>
  <path
     d="M 320.3,11.6 V 0 h -21.8 v 21.8 h 10.9 c -0.7,3.5 -2.9,7.4 -7.1,11.7 l 6.2,6.1 c 5.3,-5.5 8.5,-9.8 10.4,-15.7 1.2,-3.8 1.4,-8.7 1.4,-12.3 z M 72.6,80.4 v 8.8 H 21.4 c 1.7,14.7 10.2,18.3 17.8,18.3 9.5,0 13.6,-3.8 15.8,-9.3 l 17,6.9 C 67.1,117.7 55.8,124.6 38.4,124.6 14.3,124.6 0,108.8 0,83 0,60.7 13.2,43.4 37.8,43.4 c 21.8,0 34.8,16.2 34.8,37 z m -50.9,-5 H 53.5 C 53.2,66.7 47.2,60.3 38.4,60.3 29,60.2 23.5,66.1 21.7,75.4 Z m 131.3,48 h -21.3 v -48 c 0,-9.8 -3.5,-14.5 -11.5,-14.5 a 20.86,20.86 0 0 0 -14.5,5.5 v 57 H 84.4 V 44.6 h 20.5 v 5.8 c 6.9,-4.7 13.7,-7.1 20.8,-7.1 6.9,0 14.3,2.5 19.1,10.1 5.8,-6 14.5,-10.1 25.7,-10.1 13.7,0 29.8,6 29.8,31 v 49 H 179 V 75.4 c 0,-9.6 -3.3,-14.3 -11.2,-14.3 -9.1,0 -14.8,6.3 -14.8,14.8 z m 60.7,-78.8 h 20 v 5.7 c 6.3,-4.6 12.1,-6.5 20.6,-6.5 19.1,0 31.8,14.3 31.8,38.6 0,23 -14,41.1 -39.2,41.1 -3.9,0 -8,-0.2 -12,-0.6 v 24.9 H 213.6 V 44.6 Z m 21.2,21.1 v 40.7 c 3.8,0.3 7.1,0.3 12,0.3 11.7,0 17.8,-9.6 17.8,-25.2 0,-13.7 -5,-20 -15.9,-20 a 22.48,22.48 0 0 0 -13.9,4.2 z M 302.1,62 h -11 V 44.6 h 32.3 v 78.8 h -21.3 z m 37.8,-52 h 21.3 v 64.8 h 8.3 l 20,-30.1 h 22.8 l -24.7,35.9 26.2,42.9 H 390.2 L 370,91.8 h -8.8 v 31.6 h -21.3 z"
     id="path1" />
  <metadata
     id="metadata1">
    <rdf:RDF>
      <cc:Work
         rdf:about="">
        <dc:title>EMPIK.COM Sklep internetowy z darmową dostawą do ponad 200 salonów EMPIK w Polsce.</dc:title>
      </cc:Work>
    </rdf:RDF>
  </metadata>
</svg>
