<svg id="EMPIK" width="500" height="178.58868" viewBox="0 0 500 178.58868" version="1.1" xml:space="preserve" xmlns:xlink="http://www.w3.org/1999/xlink" xmlns="http://www.w3.org/2000/svg" xmlns:svg="http://www.w3.org/2000/svg">
	<path id="EMPIK" style="fill:#000000;stroke:#000000;stroke-width:0" d="M 387.02272,14.016433 V 0 h -26.34123 v 26.341228 h 13.17061 c -0.84582,4.229096 -3.50411,8.941517 -8.57902,14.137264 l 7.49154,7.370711 c 6.40406,-6.645723 10.27066,-11.84147 12.56646,-18.970518 1.44997,-4.59159 1.69164,-10.512324 1.69164,-14.862252 z M 87.723538,97.148381 V 107.78154 H 25.857902 c 2.054133,17.7622 12.324795,22.11213 21.507975,22.11213 11.478976,0 16.43306,-4.59159 19.091349,-11.23731 l 20.541324,8.33736 c -5.920735,15.22474 -19.574674,23.5621 -40.599323,23.5621 C 17.278879,150.55582 0,131.46448 0,100.29 0,73.344611 15.949734,52.440793 45.674239,52.440793 c 26.341227,0 42.049299,19.574673 42.049299,44.707588 z M 26.220396,91.106815 h 38.42436 C 64.282262,80.59449 57.032383,72.861286 46.399227,72.861286 35.041083,72.740454 28.39536,79.869502 26.220396,91.106815 Z M 184.87192,149.10585 H 159.13485 V 91.106815 c 0,-11.841469 -4.2291,-17.520541 -13.8956,-17.520541 A 25.205413,25.205413 0 0 0 127.7187,80.231996 V 149.10585 H 101.98163 V 53.890768 h 24.77042 v 7.008217 c 8.33737,-5.679072 16.55389,-8.579024 25.13292,-8.579024 8.33736,0 17.27888,3.020783 23.07878,12.203964 7.00822,-7.24988 17.52054,-12.203964 31.05365,-12.203964 16.55389,0 36.00773,7.24988 36.00773,37.457709 v 59.20735 H 216.28806 V 91.106815 c 0,-11.599807 -3.98743,-17.278879 -13.53311,-17.278879 -10.99565,0 -17.88303,7.612373 -17.88303,17.883035 z m 73.34461,-95.215082 h 24.16626 v 6.887386 c 7.61238,-5.558241 14.62059,-7.854036 24.89126,-7.854036 23.07878,0 38.42436,17.278879 38.42436,46.640889 0,27.791203 -16.91639,49.661673 -47.36588,49.661673 -4.71242,0 -9.66651,-0.24166 -14.49976,-0.72499 v 30.087 H 258.0957 V 53.890768 Z m 25.61624,25.495409 v 49.178343 c 4.59159,0.3625 8.57902,0.3625 14.49976,0.3625 14.13726,0 21.50797,-11.59981 21.50797,-30.449495 0,-16.55389 -6.04156,-24.166264 -19.21218,-24.166264 a 27.162881,27.162881 0 0 0 -16.79555,5.074916 z m 81.19865,-4.470759 h -13.29145 v -21.02465 h 39.02852 v 95.215082 h -25.73707 z m 45.67423,-62.832286 h 25.73708 v 78.298695 h 10.029 L 470.63799,54.0116 h 27.54954 L 468.34219,97.390043 500,149.22668 h -28.51619 l -24.40793,-38.30353 h -10.63315 v 38.1827 h -25.73708 z" />
</svg>
