<svg id="EOBUWIE" width="500" height="101.96046" viewBox="0 0 500 101.96046" version="1.1" xml:space="preserve" xmlns:xlink="http://www.w3.org/1999/xlink" xmlns="http://www.w3.org/2000/svg" xmlns:svg="http://www.w3.org/2000/svg">
	<path id="EOBUWIE" style="fill:#000000;stroke:#000000;stroke-width:0" d="m 17.359249,57.30563 c 2.060992,-8.562332 7.758043,-11.829759 19.068365,-11.829759 11.494638,0 17.124665,3.183646 19.135389,11.813003 H 17.359249 Z m 52.74799,29.624665 c -0.08378,-0.117292 -2.362601,-3.351207 -6.735925,-5.512735 -4.440349,-2.178284 -7.992628,-1.675603 -7.992628,-1.675603 -0.586461,0.06702 -1.072386,0.301609 -1.22319,0.469169 -2.831769,2.965818 -8.327748,5.294906 -17.711126,5.294906 -12.985925,0 -18.599196,-4.038204 -19.772118,-15.046917 h 55.914879 c 0,0 0.284853,-3.518766 0.284853,-4.959785 0,-23.843834 -12.600536,-36.461126 -36.427614,-36.461126 C 12.617292,29.038204 0,41.63874 0,65.49933 c 0,23.843834 12.600536,36.44437 36.44437,36.44437 17.258713,0 27.546917,-7.372654 33.612601,-14.963137 z M 114.35992,45.442359 c -14.745309,0 -19.973191,5.227882 -19.973191,19.989947 0,14.745308 5.227882,19.97319 19.973191,19.97319 14.74531,0 19.98995,-5.227882 19.98995,-19.97319 0,-14.946381 -5.02681,-19.989947 -19.97319,-19.989947 z m 0,56.367291 c -23.793566,0 -36.36059,-12.567023 -36.36059,-36.377344 0,-23.793566 12.567024,-36.394102 36.36059,-36.394102 23.79357,0 36.36059,12.58378 36.36059,36.394102 0,23.793565 -12.56702,36.360594 -36.36059,36.360594 z M 280.88137,31.719169 v 33.713137 c 0,18.012734 -3.0496,19.97319 -15.08043,19.97319 -12.01408,0 -15.06367,-1.960456 -15.06367,-19.97319 V 31.719169 c 0,0 -3.53553,-1.993968 -8.49531,-1.993968 -4.94303,0 -7.89209,1.993968 -7.89209,1.993968 v 33.746649 c 0,18.884048 3.82037,36.343832 31.45107,36.343832 27.6307,0 31.46783,-17.459784 31.46783,-36.343832 V 31.719169 c 0,0 -2.94906,-1.993968 -8.07641,-1.993968 -5.11059,0 -8.32775,1.993968 -8.32775,1.993968 z m 121.22989,2.764745 c 0,0 -1.1059,-2.530161 -6.73592,-4.071716 -5.84786,-1.591823 -9.7185,1.357239 -9.7185,1.357239 l -14.0248,39.091823 -11.77949,-32.791555 -1.67561,-4.641421 -0.53619,-1.742627 h -12.90214 l -0.63673,1.742627 -1.67561,4.641421 -11.77949,32.791555 -13.97453,-39.091823 c 0,0 -3.11662,-2.27882 -8.99799,-2.27882 -5.37868,0 -7.99262,2.27882 -7.99262,2.27882 l 23.81032,67.308981 c 0,0 1.89343,2.178282 7.0878,2.178282 5.19437,0 7.60724,-2.178282 7.60724,-2.178282 l 12.95241,-36.762734 13.3378,36.762734 c 0,0 2.93231,2.178282 7.10456,2.178282 4.17225,0 7.40617,-2.178282 7.40617,-2.178282 z M 192.2252,85.422252 c -14.74531,0 -19.97319,-5.227882 -19.97319,-19.97319 0,-14.745309 5.21113,-19.989947 19.95644,-19.989947 14.94638,0 19.98994,5.02681 19.98994,19.989947 0,14.745308 -5.22788,19.97319 -19.97319,19.97319 z m 0,-56.367292 c -7.94236,0 -14.57775,1.441019 -19.97319,4.189008 V 3.9376676 c 0,0 -1.92694,-2.6642092 -7.80831,-2.6642092 -5.86461,0 -8.59584,2.6642092 -8.59584,2.6642092 V 65.432306 c 0,23.793565 12.56702,36.360594 36.36059,36.360594 23.79356,0 36.36058,-12.567029 36.36058,-36.360594 0,-23.793566 -12.56702,-36.394102 -36.36058,-36.394102 z m 252.26207,28.267426 c 2.06099,-8.562332 7.75804,-11.829759 19.06836,-11.829759 11.49464,0 17.12466,3.183646 19.11863,11.813003 h -38.20375 z m 52.74798,29.624665 c -0.0838,-0.117292 -2.3626,-3.351206 -6.73592,-5.512735 -4.44035,-2.178284 -7.99263,-1.675603 -7.99263,-1.675603 -0.58646,0.06702 -1.07238,0.301609 -1.22319,0.469169 -2.83177,2.965818 -8.32775,5.294906 -17.71112,5.294906 -12.98593,0 -18.5992,-4.038204 -19.77212,-15.046917 h 55.91488 c 0,0 0.28485,-3.518766 0.28485,-4.959785 0,-23.843834 -12.60054,-36.461126 -36.44437,-36.461126 -23.84383,0 -36.42761,12.600536 -36.42761,36.44437 0,23.86059 12.60053,36.46113 36.44437,36.46113 17.25871,0 27.54691,-7.372658 33.6126,-14.963141 z m -76.29021,12.315684 c 0,0 -2.24531,2.647455 -7.87533,2.647455 -5.64679,0 -8.51207,-2.647455 -8.51207,-2.647455 v -67.52681 c 0,0 1.34048,-2.345845 7.99263,-2.345845 6.65214,0 8.39477,2.345845 8.39477,2.345845 z M 412.88539,0 c -7.74129,0 -10.47252,2.7479893 -10.47252,10.489276 0,7.741287 2.73123,10.489276 10.47252,10.489276 7.72453,0 10.47252,-2.747989 10.47252,-10.489276 C 423.35791,2.6474531 420.71046,0 412.88539,0 Z" />
</svg>
