<?xml version="1.0" encoding="UTF-8" standalone="no"?>
<svg
   viewBox="0 0 200 40.784183"
   fill="none"
   stroke="none"
   class="main-logo"
   data-v-c0d16a92=""
   data-v-06154ab9=""
   version="1.1"
   id="svg3"
   sodipodi:docname="EOBUWIE.svg"
   width="200"
   height="40.784184"
   inkscape:version="1.4.2 (ebf0e94, 2025-05-08)"
   xmlns:inkscape="http://www.inkscape.org/namespaces/inkscape"
   xmlns:sodipodi="http://sodipodi.sourceforge.net/DTD/sodipodi-0.dtd"
   xmlns="http://www.w3.org/2000/svg"
   xmlns:svg="http://www.w3.org/2000/svg">
  <defs
     id="defs3" />
  <sodipodi:namedview
     id="namedview3"
     pagecolor="#ffffff"
     bordercolor="#000000"
     borderopacity="0.25"
     inkscape:showpageshadow="2"
     inkscape:pageopacity="0.0"
     inkscape:pagecheckerboard="0"
     inkscape:deskcolor="#d1d1d1"
     inkscape:zoom="2.3771034"
     inkscape:cx="309.62053"
     inkscape:cy="-0.21034003"
     inkscape:window-width="2560"
     inkscape:window-height="991"
     inkscape:window-x="2294"
     inkscape:window-y="-9"
     inkscape:window-maximized="1"
     inkscape:current-layer="svg3" />
  <path
     d="m 45.743968,18.176944 c -5.898123,0 -7.989276,2.091153 -7.989276,7.995978 0,5.898124 2.091153,7.989276 7.989276,7.989276 5.898123,0 7.995978,-2.091152 7.995978,-7.989276 0,-5.978552 -2.010723,-7.995978 -7.989276,-7.995978 z m 0,22.546917 c -9.517426,0 -14.544236,-5.02681 -14.544236,-14.550939 0,-9.517426 5.02681,-14.55764 14.544236,-14.55764 9.517426,0 14.544236,5.033512 14.544236,14.55764 0,9.517427 -5.02681,14.544236 -14.544236,14.544236 z M 112.35255,12.687668 v 13.485254 c 0,7.205094 -1.21984,7.989276 -6.03217,7.989276 -4.80563,0 -6.02547,-0.784182 -6.02547,-7.989276 V 12.687668 c 0,0 -1.414213,-0.797588 -3.398127,-0.797588 -1.977212,0 -3.156837,0.797588 -3.156837,0.797588 v 13.498659 c 0,7.553619 1.528151,14.537534 12.580434,14.537534 11.05227,0 12.58713,-6.983915 12.58713,-14.537534 V 12.687668 c 0,0 -1.17963,-0.797588 -3.23057,-0.797588 -2.04423,0 -3.3311,0.797588 -3.3311,0.797588 z m 48.49195,1.105898 c 0,0 -0.44236,-1.012065 -2.69437,-1.628687 -2.33914,-0.636729 -3.8874,0.542896 -3.8874,0.542896 l -5.60991,15.636729 -4.7118,-13.116622 -0.67024,-1.856568 -0.21448,-0.697051 h -5.16086 l -0.25469,0.697051 -0.67024,1.856568 -4.7118,13.116622 -5.58981,-15.636729 c 0,0 -1.24665,-0.911528 -3.59919,-0.911528 -2.15148,0 -3.19706,0.911528 -3.19706,0.911528 l 9.52413,26.923592 c 0,0 0.75738,0.871314 2.83512,0.871314 2.07775,0 3.0429,-0.871314 3.0429,-0.871314 l 5.18096,-14.705094 5.33512,14.705094 c 0,0 1.17293,0.871314 2.84183,0.871314 1.6689,0 2.96246,-0.871314 2.96246,-0.871314 z M 76.89008,34.168901 c -5.898123,0 -7.989276,-2.091153 -7.989276,-7.989276 0,-5.898124 2.084451,-7.995979 7.982574,-7.995979 5.978552,0 7.995979,2.010724 7.995979,7.995979 0,5.898123 -2.091153,7.989276 -7.989277,7.989276 z m 0,-22.546917 c -3.176943,0 -5.831099,0.576407 -7.989276,1.675603 V 1.575067 c 0,0 -0.770777,-1.06568362 -3.123324,-1.06568362 -2.345845,0 -3.438338,1.06568362 -3.438338,1.06568362 v 24.597855 c 0,9.517427 5.02681,14.544236 14.544236,14.544236 9.517426,0 14.544236,-5.026809 14.544236,-14.544236 0,-9.517426 -5.02681,-14.55764 -14.544236,-14.55764 z m 100.90483,11.30697 c 0.82439,-3.424933 3.10321,-4.731903 7.62734,-4.731903 4.59786,0 6.84987,1.273458 7.64746,4.725201 H 177.7882 Z M 198.8941,34.77882 c -0.0335,-0.04692 -0.94504,-1.340482 -2.69437,-2.205093 -1.77614,-0.871314 -3.19705,-0.670242 -3.19705,-0.670242 -0.23458,0.02681 -0.42895,0.120644 -0.48928,0.187668 -1.1327,1.186327 -3.33109,2.117962 -7.08445,2.117962 -5.19437,0 -7.43967,-1.615281 -7.90884,-6.018766 h 22.36595 c 0,0 0.11394,-1.407507 0.11394,-1.983915 0,-9.537533 -5.04021,-14.58445 -14.57775,-14.58445 -9.53753,0 -14.57104,5.040214 -14.57104,14.577748 0,9.544236 5.04021,14.58445 14.57774,14.58445 6.90349,0 11.01877,-2.949061 13.44504,-5.985254 z m -30.51608,4.926274 c 0,0 -0.89813,1.058981 -3.15014,1.058981 -2.25871,0 -3.40482,-1.058981 -3.40482,-1.058981 V 12.69437 c 0,0 0.53619,-0.938338 3.19705,-0.938338 2.66086,0 3.35791,0.938338 3.35791,0.938338 z M 165.15416,0 c -3.09652,0 -4.18901,1.0991957 -4.18901,4.1957105 0,3.0965147 1.09249,4.1957104 4.18901,4.1957104 3.08981,0 4.189,-1.0991957 4.189,-4.1957104 C 169.34316,1.0589812 168.28418,0 165.15416,0 Z"
     fill="#289B38"
     data-v-c0d16a92=""
     id="path2"
     style="fill:#000000;stroke-width:0.670241" />
  <path
     d="m 6.9436997,22.922252 c 0.8243968,-3.424933 3.1032173,-4.731903 7.6273463,-4.731903 4.597855,0 6.849866,1.273458 7.654155,4.725201 H 6.9436997 Z M 28.042895,34.772118 c -0.03351,-0.04692 -0.94504,-1.340483 -2.69437,-2.205094 -1.776139,-0.871314 -3.19705,-0.670241 -3.19705,-0.670241 -0.234585,0.02681 -0.428955,0.120643 -0.489277,0.187667 -1.132707,1.186327 -3.331099,2.117963 -7.08445,2.117963 -5.19437,0 -7.4396783,-1.615282 -7.9088472,-6.018767 H 29.034853 c 0,0 0.113941,-1.407507 0.113941,-1.983914 0,-9.537534 -5.040215,-14.58445 -14.571046,-14.58445 C 5.0469169,11.615282 0,16.655496 0,26.199732 0,35.737265 5.0402145,40.77748 14.577748,40.77748 c 6.903485,0 11.018767,-2.949062 13.44504,-5.985255 z"
     fill="#005c38"
     data-v-c0d16a92=""
     id="path3"
     style="fill:#000000;stroke-width:0.670241" />
</svg>
