<svg
   version="1.1"
   id="svg1"
   width="574"
   height="85.478035"
   viewBox="0 0 574 85.478035"
   xmlns="http://www.w3.org/2000/svg"
   xmlns:svg="http://www.w3.org/2000/svg">
  <defs
     id="defs1" />
  <g
     id="g1"
     transform="translate(2.8288326,338.93166)">
    <path
       style="fill:#000000"
       d="m 24.109957,-254.16313 c -5.057853,-1.37581 -9.84339,-4.43773 -12.789478,-8.18307 -1.4068766,-1.78855 -2.9064596,-2.46269 -5.4781321,-2.46269 -4.5261638,0 -8.6711795,-1.56988 -8.6711795,-3.28412 0,-0.73349 0.5625,-2.09751 1.25,-3.03115 1.01111883,-1.37312 1.87109113,-1.51854 4.5,-0.76093 3.248069,0.93603 3.2499971,0.9344 3.2450539,-2.74361 -0.00854,-6.35641 3.0792861,-13.06169 8.0893447,-17.56616 l 4.599036,-4.13493 -4.594224,-4.10065 c -5.1333856,-4.58188 -8.6159968,-12.33587 -7.8585196,-17.49689 0.519353,-3.53858 -0.7477879,-4.39586 -4.4288393,-2.99632 -2.19473337,0.83443 -2.72824897,0.6208 -3.8952242,-1.55971 -1.2016056,-2.24522 -1.1390541,-2.68241 0.5617266,-3.92605 1.05264793,-0.76971 3.866645,-1.39948 6.253327,-1.39948 3.7428129,0 4.7808719,-0.50278 7.5502925,-3.65698 4.240253,-4.82938 9.900331,-7.2991 16.728026,-7.2991 7.041171,0 12.736968,2.58618 17.074502,7.75267 l 3.38698,4.03428 4.519259,-4.69296 c 9.167285,-9.51965 23.630158,-9.70096 32.680063,-0.40968 3.493673,3.58685 4.785807,4.27177 8.05887,4.27177 2.143936,0 4.753766,0.6257 5.799629,1.39045 1.62891,1.19109 1.732,1.76259 0.71901,3.98585 -1.03903,2.28044 -1.497213,2.47576 -3.775523,1.60955 -4.088046,-1.55427 -4.46279,-1.26158 -4.46279,3.48564 0,6.4378 -3.99447,14.85733 -8.404401,17.71476 -3.303582,2.14058 -4.800504,4.81375 -2.695599,4.81375 0.495,0 2.479094,1.57909 4.409098,3.5091 3.881976,3.88197 6.690902,10.84601 6.690902,16.58843 v 3.74125 l 3.59377,-0.99228 c 1.97658,-0.54576 3.664083,-0.84699 3.750003,-0.6694 0.0859,0.1776 0.69858,1.29702 1.36145,2.48762 1.62864,2.92526 -0.2518,4.41713 -6.447886,5.11552 -3.883383,0.43771 -5.466962,1.27912 -8.749453,4.64888 -9.095589,9.33739 -26.04051,8.42776 -33.854863,-1.81739 l -2.822617,-3.70064 -3.898856,4.42934 c -5.892472,6.6942 -14.152584,9.43796 -21.992758,7.30533 z m 13.56121,-4.88685 c 7.001885,-3.53187 10.5,-10.60654 10.5,-21.23543 0,-5.77671 -0.353171,-7.72177 -1.48062,-8.15442 -0.940368,-0.36085 -4.634589,2.35567 -10.124416,7.44492 -5.00818,4.64275 -11.345892,9.38461 -15.068118,11.27391 -3.533378,1.79345 -6.671473,3.66071 -6.973546,4.14947 -0.649702,1.05125 2.285417,4.49697 5.135511,6.02891 5.019585,2.69806 13.195636,2.92168 18.011189,0.49264 z m 42.480148,-0.74677 c 1.385919,-0.98796 3.331156,-2.69409 4.32275,-3.79141 1.770728,-1.95951 1.671532,-2.06003 -5.559088,-5.63274 -4.896244,-2.41928 -10.267931,-6.33154 -16.03829,-11.68085 -4.771968,-4.42378 -9.132879,-7.76105 -9.690913,-7.41617 -0.558034,0.34489 -1.014607,4.44343 -1.014607,9.10788 0,6.53612 0.463322,9.38901 2.020539,12.44141 2.059827,4.03759 7.717761,8.38416 12.065345,9.2689 3.987133,0.81139 11.208497,-0.38246 13.894264,-2.29702 z m -57.480148,-15.66607 c 4.742409,-2.35882 18.89626,-12.56018 20.076782,-14.47031 0.303772,-0.49151 0.254253,-1.83276 -0.110043,-2.98056 -0.61616,-1.94135 -1.265795,-2.06277 -9.314547,-1.74105 -6.322581,0.25273 -9.729196,0.90833 -12.652192,2.43491 -5.62004,2.93515 -9.659663,9.01719 -10.280491,15.47826 l -0.5004186,5.20796 3.8904546,-0.72113 c 2.13975,-0.39663 6.140455,-1.84026 8.890455,-3.20808 z m 66.5,-1.26833 c 0,-4.01047 -0.605713,-5.72392 -3.269925,-9.25 -4.652595,-6.1577 -9.409702,-8.23497 -19.838803,-8.66293 -8.216974,-0.33718 -8.635403,-0.25126 -9.194898,1.88825 -0.449282,1.71806 0.276695,3.0293 3.108728,5.61488 8.441989,7.70736 21.769372,15.12951 27.444898,15.28432 1.436114,0.0392 1.75,-0.83514 1.75,-4.87452 z m -46.43166,-23.29306 c 0.570413,-1.79721 -0.124623,-2.93371 -3.682612,-6.02165 -6.688909,-5.80524 -16.540077,-11.95335 -22.250471,-13.88651 -4.558709,-1.54327 -5.228641,-1.56759 -5.984365,-0.21718 -1.4342336,2.56283 0.292089,9.96187 3.28979,14.10008 4.287168,5.91826 9.847097,8.23884 19.74193,8.23979 7.5698,7.3e-4 8.23527,-0.16512 8.885728,-2.21453 z m 33.503521,0.67611 c 8.145518,-2.83136 12.928139,-9.11769 12.928139,-16.99289 v -4.72352 l -3.808746,0.60905 c -6.34142,1.01403 -17.169131,7.20907 -24.953131,14.27684 -3.377359,3.0666 -4.131435,4.3367 -3.633368,6.11973 0.577389,2.067 1.214539,2.25 7.833738,2.25 3.962876,0 9.197892,-0.69264 11.633368,-1.53921 z m -28.280446,-12.68559 c 0.41364,-10.93391 -2.965929,-17.76909 -10.787093,-21.8169 -3.217911,-1.66542 -12.790733,-1.66542 -16.008644,0 -2.979834,1.5422 -6.995678,5.08027 -6.995678,6.16339 0,0.42518 2.335228,1.94598 5.189396,3.37955 6.935119,3.48331 13.159036,8.18347 19.802795,14.95462 7.295817,7.43571 8.42958,7.09032 8.799224,-2.68066 z m 13.897915,1.11651 c 6.84364,-6.64028 15.04765,-12.42167 21.026514,-14.81744 3.156894,-1.26499 3.184391,-1.33132 1.5,-3.61832 -4.097346,-5.56321 -17.03881,-7.76764 -22.932087,-3.90622 -7.390194,4.84224 -9.283757,8.86728 -9.283757,19.73394 0,8.00966 0.465398,10.08566 2.12683,9.48716 0.413507,-0.14896 3.816632,-3.24456 7.5625,-6.87912 z m 174.310673,22.60829 v -22.5 h 3.41667 c 1.87916,0 3.58,0.49001 3.77963,1.08891 0.23938,0.71813 1.59081,0.50339 3.96899,-0.63069 3.20789,-1.52974 4.08788,-1.56715 7.97037,-0.33891 6.00748,1.90051 7.86195,5.76578 7.85905,16.38069 -0.003,10.0212 -1.93582,13.80286 -7.98156,15.61421 -3.47375,1.04076 -4.60428,0.97432 -7.58175,-0.44553 -1.92459,-0.91778 -3.70899,-1.66868 -3.96533,-1.66868 -0.25634,0 -0.46607,3.375 -0.46607,7.5 v 7.5 h -3.5 -3.5 z m 17.59501,1.39501 c 1.41161,-1.55981 1.90499,-3.60457 1.90499,-7.89501 0,-6.49014 -2.13484,-10 -6.08241,-10 -5.46093,0 -8.40411,10.25781 -4.89191,17.04966 1.87393,3.62379 6.19074,4.02616 9.06933,0.84535 z m -130.09501,7.89555 c -6.63685,-2.3263 -9.5,-7.08533 -9.5,-15.79056 0,-9.06915 2.90742,-13.59371 10.25,-15.95113 4.1729,-1.33975 9.69748,-0.15429 13.08255,2.80725 2.48991,2.17838 4.66745,7.66767 4.66745,11.766 v 3.37788 h -10.56739 c -10.49526,0 -10.56271,0.0154 -9.88172,2.25 1.21955,4.0019 3.53544,5.75 7.61767,5.75 2.12222,0 4.7273,-0.54253 5.78907,-1.20561 1.58971,-0.99279 2.29279,-0.87774 3.9829,0.65179 2.49029,2.25368 1.45888,3.94227 -3.73305,6.11159 -3.97113,1.65925 -7.44103,1.72824 -11.70748,0.23279 z m 11.5,-20.06805 c 0,-3.15227 -3.11449,-5.72251 -6.93426,-5.72251 -3.99435,0 -5.35998,0.99632 -6.51074,4.75 -0.6702,2.18616 -0.48924,2.25 6.37761,2.25 5.06837,0 7.06739,-0.36134 7.06739,-1.27749 z m 18.5,19.85742 c -5.06658,-2.26609 -5.91693,-4.79657 -6.32767,-18.82993 l -0.37318,-12.75 h 4.10043 4.10042 v 11.8 c 0,12.70265 0.52817,14.2 5.00887,14.2 5.63007,0 6.45971,-1.75202 6.82718,-14.41746 l 0.33606,-11.58254 h 3.41394 3.41395 v 16 16 h -3.5 c -2.42905,0 -3.5,-0.45448 -3.5,-1.4853 0,-1.21194 -0.59815,-1.12061 -3.25,0.49626 -3.77445,2.30133 -6.08944,2.42983 -10.25,0.56897 z m 57.8341,-0.64361 c -5.16387,-2.5561 -7.3341,-6.79269 -7.3341,-14.31721 0,-6.61695 2.16984,-12.61957 5.25916,-14.54888 5.61734,-3.5081 13.96118,-2.98369 18.44772,1.15943 3.17813,2.93485 4.74919,11.41653 3.3356,18.00785 -1.27519,5.94602 -3.10507,8.34397 -7.8943,10.34504 -4.58047,1.91385 -6.8983,1.78706 -11.81408,-0.64623 z m 11.1092,-7.15883 c 0.95538,-1.364 1.5567,-4.36826 1.5567,-7.77749 0,-6.61058 -1.94145,-10 -5.72796,-10 -4.65022,0 -6.27204,2.54087 -6.27204,9.82625 0,4.66013 0.47142,7.03718 1.65499,8.34501 2.31166,2.55435 6.8663,2.35028 8.78831,-0.39377 z m 48.45458,6.93888 c -4.6759,-3.14256 -6.09672,-8.62579 -3.23524,-12.48543 2.44123,-3.29278 7.18246,-5.09839 13.58736,-5.1745 3.92993,-0.0467 4.75,-0.37497 4.75,-1.90145 0,-2.98331 -3.27321,-5.15499 -7.76972,-5.15499 -2.26174,0 -4.41128,0.48384 -4.77676,1.0752 -0.42575,0.68888 -1.5138,0.27734 -3.0282,-1.14536 -2.81771,-2.6471 -2.46557,-3.46004 2.39306,-5.52444 6.51366,-2.7676 16.37741,-0.36815 18.88761,4.5946 0.81161,1.60458 1.26981,6.88758 1.27927,14.75 l 0.0147,12.25 h -3.41667 c -1.87916,0 -3.58649,-0.50948 -3.79406,-1.13218 -0.26094,-0.78284 -1.35125,-0.62857 -3.53367,0.5 -4.30187,2.22459 -7.33745,2.05047 -11.35772,-0.65145 z m 13.75855,-6.53267 c 0.70398,-0.92603 1.29427,-2.6962 1.31177,-3.9337 0.0286,-2.02525 -0.44767,-2.25 -4.7682,-2.25 -5.31872,0 -7.2,1.23648 -7.2,4.73222 0,4.24582 7.73159,5.29891 10.65643,1.45148 z m 22.29552,6.5629 c -10.01876,-6.75164 -9.71377,-22.62818 0.54805,-28.52916 5.44973,-3.13383 14.25418,-2.73645 18.03336,0.8139 3.28557,3.08663 3.1575,8.29913 -0.2157,8.77934 -3.20201,0.45585 -4.68518,-2.84096 -2.61059,-5.80285 1.49964,-2.14103 1.48301,-2.39567 -0.23869,-3.65461 -2.83874,-2.07574 -9.7077,-1.71056 -12.24237,0.65085 -2.91884,2.71931 -4.55359,9.35061 -3.94332,15.99593 0.66656,7.25819 2.50337,10.99646 6.19307,12.60406 3.02118,1.31632 3.02161,1.3177 0.42212,1.3568 -1.43116,0.0215 -4.10683,-0.97489 -5.94593,-2.21426 z m 13.73173,0.31002 c 2.53505,-1.15095 4.81103,-3.11261 5.77568,-4.97804 0.8756,-1.69322 1.817,-3.07858 2.092,-3.07858 0.275,0 -0.2084,1.3699 -1.07423,3.04422 -1.62718,3.14663 -6.84492,6.96206 -9.47713,6.93008 -0.825,-0.01 0.38266,-0.87298 2.68368,-1.91768 z m 18.92042,-0.32307 c -5.51195,-3.16005 -7.81778,-7.82468 -7.35837,-14.88578 0.6123,-9.41098 7.04454,-15.84777 15.83658,-15.84777 5.27143,0 10.20093,2.96977 12.31123,7.41689 3.07299,6.47585 2.90989,6.58311 -10.01004,6.58311 h -11.61649 l 0.42247,6.63473 c 0.36449,5.72423 0.79982,6.95932 3.17226,9 4.62152,3.97526 13.91444,2.45477 16.68964,-2.73073 0.61086,-1.14141 1.37144,-1.81451 1.69018,-1.49578 0.8231,0.82311 -2.74126,4.54026 -5.93954,6.19416 -4.04176,2.09007 -10.70082,1.70939 -15.19792,-0.86883 z m 15.6141,-22.68994 c -0.15498,-1.90102 -1.01223,-4.26352 -1.90498,-5.25 -1.61752,-1.78734 -6.60579,-2.38604 -9.76842,-1.17243 -1.96631,0.75454 -4.5448,5.50304 -4.5448,8.3696 0,1.97471 0.45548,2.07407 8.25,1.79966 l 8.25,-0.29044 z m 50.81698,23.02213 c -0.56935,-1.06384 -1.03518,-8.00895 -1.03518,-15.43358 v -13.49932 l -2.75,-0.41659 -2.75,-0.41659 2.75,-0.14983 c 2.63436,-0.14353 2.75,-0.37216 2.75,-5.43712 0,-5.15731 0.0738,-5.29292 3,-5.51589 2.96498,-0.22592 3,-0.17004 3,4.7873 v 5.01588 h 3.5 c 1.925,0 3.5,0.45 3.5,1 0,0.55 -1.575,1 -3.5,1 h -3.5 v 14.03138 c 0,15.70644 0.53712,16.84644 6.41842,13.62277 l 3.08158,-1.68909 -2.80576,2.51747 c -3.57704,3.2095 -10.07944,3.53476 -11.65906,0.58321 z m 43.0374,-0.7006 c -2.96852,-3.77386 -2.60963,-7.02809 1.19463,-10.83235 3.09651,-3.09651 10.04589,-5.53279 15.78201,-5.53279 1.64953,0 1.95078,-0.70507 1.95078,-4.56574 0,-6.94582 -1.20187,-8.43708 -6.78518,-8.41895 -6.20194,0.0201 -8.15625,1.21139 -6.46482,3.94061 1.71718,2.77077 1.5658,4.70892 -0.42754,5.47383 -2.38663,0.91584 -4.70727,-1.76041 -3.99328,-4.60519 0.93301,-3.71738 5.58977,-5.82671 12.82511,-5.80925 3.49014,0.008 6.84084,0.34592 7.44601,0.75 2.66152,1.77715 3.3997,5.61363 3.3997,17.66895 0,10.00856 0.28043,12.56574 1.37803,12.56574 0.75791,0 2.12875,-1.0125 3.04631,-2.25 0.91756,-1.2375 1.354,-1.575 0.96987,-0.75 -2.43719,5.23438 -7.988,6.75047 -10.55584,2.8831 l -1.40557,-2.11691 -3.4664,2.11317 c -2.21974,1.35318 -5.14859,2.11451 -8.14382,2.1169 -3.86446,0.003 -5.03765,-0.45421 -6.75,-2.63112 z m 14.8559,-0.82816 c 3.44104,-1.77943 4.07152,-3.2689 4.07152,-9.61877 0,-5.47418 -0.2736,-5.61805 -7.5,-3.94371 -6.9549,1.61144 -9.91166,8.61384 -5.5,13.0255 2.37301,2.37301 5.06492,2.53491 8.92848,0.53698 z m 77.1441,0.82816 c -2.44832,-3.11254 -2.60149,-5.44165 -0.611,-9.29085 1.68032,-3.24938 6.90056,-5.65548 14.43992,-6.65561 l 5.0985,-0.67634 -0.0153,-4.62117 c -0.0205,-6.19926 -0.99479,-7.39552 -6.66503,-8.18386 -4.81583,-0.66955 -4.8145,-0.67018 1.68034,-0.78838 3.575,-0.0651 6.99513,0.2123 7.6003,0.61638 2.63409,1.75883 3.3997,5.61198 3.3997,17.10993 0,12.35401 0.93083,15.30742 3.6517,11.58641 0.74156,-1.01415 1.34829,-1.37765 1.34829,-0.80777 0,1.87664 -3.6082,4.34612 -6.35018,4.34612 -1.86993,0 -3.02596,-0.73143 -3.78338,-2.39378 l -1.09067,-2.39378 -3.52743,2.39378 c -5.12714,3.47937 -12.33938,3.36479 -15.17576,-0.24108 z m 14.8559,-0.82816 c 3.45281,-1.78551 4.07152,-3.26444 4.07152,-9.73231 v -5.03176 l -4.75,0.69147 c -8.14905,1.18628 -12.02219,5.23556 -10.07732,10.53562 1.80328,4.91423 5.64775,6.17846 10.7558,3.53698 z m -374.92848,-13.53698 v -16 h 4 c 3.02306,0 4,0.39626 4,1.62244 0,1.27899 0.29703,1.37594 1.40308,0.45799 2.92581,-2.4282 7.68113,-3.07209 11.35418,-1.53739 l 3.52103,1.47119 -2.88914,2.85239 c -1.68908,1.66759 -3.28375,2.49537 -3.83915,1.99288 -1.64645,-1.48961 -6.17265,-0.93395 -7.89501,0.96924 -1.33209,1.47194 -1.65499,4.00835 -1.65499,13 v 11.17126 h -4 -4 z m 185.25,15.28375 2.75,-0.4166 v -14.43357 -14.43358 h -2.66667 c -3.85844,0 -2.55923,-0.63838 2.91667,-1.43314 l 4.75,-0.68941 v 4.06128 c 0,4.26179 1.42318,5.45402 2.49172,2.08735 1.77881,-5.60452 11.75703,-8.07202 16.6475,-4.11673 2.23681,1.80907 2.37792,2.61991 2.68715,15.44045 0.31287,12.97096 0.41636,13.54864 2.5,13.95447 1.1955,0.23285 -1.20137,0.42337 -5.32637,0.42337 -4.125,0 -6.4875,-0.19502 -5.25,-0.43337 2.19858,-0.42347 2.25,-0.73676 2.25,-13.70883 0,-11.59106 -0.23203,-13.48545 -1.82874,-14.93045 -2.42916,-2.19836 -4.35286,-2.08658 -7.5643,0.43954 -4.84018,3.80728 -6.60696,8.83441 -6.60696,18.79921 v 8.97341 l 2.75,0.4166 c 1.5125,0.22912 -0.85,0.41659 -5.25,0.41659 -4.4,0 -6.7625,-0.18747 -5.25,-0.41659 z m 58.25,-0.16069 3,-0.64031 0.27746,-14.24137 0.27745,-14.24138 h -3.19412 c -4.525,0 -3.25495,-0.61497 2.88921,-1.39898 l 5.25,-0.66991 v 3.60565 3.60564 l 3.43257,-3.63959 c 2.82642,-2.99687 4.0184,-3.58336 6.75,-3.3212 2.80392,0.26911 3.36751,0.75545 3.64095,3.14191 0.29428,2.56842 0.0684,2.79428 -2.5,2.5 -2.04206,-0.23398 -2.91189,-0.94572 -3.14282,-2.57162 -0.27275,-1.92033 -0.61319,-2.09081 -2.33502,-1.16931 -3.81861,2.04366 -5.79978,8.54366 -5.82372,19.10704 l -0.022,9.68964 3.75,0.39226 c 2.0625,0.21575 -0.525,0.41467 -5.75,0.44205 -5.225,0.0274 -8.15,-0.23835 -6.5,-0.59052 z m 59.25,0.15354 3.25,-0.40332 v -22.37328 -22.37328 l -3.25,-0.40332 c -1.79439,-0.22269 -0.45076,-0.475 3,-0.56336 l 6.25,-0.16004 v 22.93664 22.93664 l 3.25,0.40332 c 1.7875,0.22183 -1.025,0.40333 -6.25,0.40333 -5.225,0 -8.0375,-0.1815 -6.25,-0.40333 z m 20,0.0177 c 2.20937,-0.42554 2.25,-0.69397 2.25,-14.86381 0,-14.1338 -0.0445,-14.43045 -2.16667,-14.43045 -3.40128,0 -1.78418,-0.6783 3.41667,-1.43314 l 4.75,-0.68941 v 4.10338 4.10338 l 3.84516,-4.0421 c 3.39193,-3.56566 4.38079,-4.04211 8.38922,-4.04211 2.98305,0 5.35504,0.65642 6.90484,1.91083 2.23458,1.80868 2.37932,2.63421 2.70752,15.44312 0.33115,12.92345 0.44363,13.55123 2.5,13.95299 1.18429,0.23138 -1.44674,0.41455 -5.84674,0.40705 -4.4,-0.007 -6.7625,-0.20112 -5.25,-0.43024 l 2.75,-0.4166 v -12.93357 c 0,-11.60025 -0.20618,-13.13976 -2,-14.93358 -2.40993,-2.40993 -3.21221,-2.45875 -7.12824,-0.43368 -4.75701,2.45994 -6.82375,8.22712 -6.8498,19.11413 -0.0209,8.73352 0.0876,9.20155 2.22804,9.61382 1.2375,0.23835 -1.125,0.43337 -5.25,0.43337 -4.125,0 -6.4875,-0.19502 -5.25,-0.43337 z m 39.45,-21.49426 c -0.66,-0.66 -1.2,-2.01 -1.2,-3 0,-2.06678 3.39488,-5.80741 5.25,-5.78469 0.86335,0.0106 0.80361,0.29775 -0.19314,0.92839 -1.18812,0.75172 -1.22708,1.38729 -0.22045,3.59661 0.92516,2.03049 0.94236,3.02133 0.0707,4.07161 -1.41157,1.70084 -2.15655,1.73864 -3.70711,0.18808 z"
       id="path1" />
  </g>
</svg>
