<svg id="EUROPACENTRALNA" width="500" height="66.507278" viewBox="0 0 500 66.507278" version="1.1" xml:space="preserve" xmlns:xlink="http://www.w3.org/1999/xlink" xmlns="http://www.w3.org/2000/svg" xmlns:svg="http://www.w3.org/2000/svg">
	<path id="EUROPACENTRALNA" style="fill:#000000;stroke:#000000;stroke-width:0" d="M 131.19005,41.461915 V 16.41655 h 3.82095 c 2.10152,0 4.25747,0.70631 4.791,1.569577 0.64844,1.049197 1.94237,1.049197 3.90282,0 4.80327,-2.570625 9.30566,-1.806146 13.38442,2.272617 3.39382,3.393819 3.84218,5.207228 3.84218,15.539741 0,10.772622 -0.32612,11.954074 -4.12444,14.94183 -4.57546,3.599066 -11.45807,4.254331 -14.34652,1.36588 -1.46097,-1.460974 -1.8784,-0.0695 -1.8784,6.261342 0,8.000601 -0.0803,8.139743 -4.69601,8.139743 h -4.696 z m 18.18171,3.498039 c 5.1247,-3.376068 4.31064,-18.260262 -1.09253,-19.97515 -4.99758,-1.586186 -7.69717,1.954165 -7.69717,10.094378 0,9.280167 3.58465,13.30978 8.7897,9.880772 z M 7.2640811,51.590386 C -1.8858049,46.621339 -2.5487713,27.7325 6.1692386,20.396775 16.717814,11.520729 31.008606,19.17957 31.008606,33.708903 v 4.62234 H 20.051258 c -7.947082,0 -10.9573469,0.559059 -10.9573469,2.034937 0,5.218187 9.7191199,7.969169 13.7861429,3.902162 1.475877,-1.475892 2.486864,-1.282432 4.617739,0.883648 2.596438,2.639343 2.549744,2.919507 -0.967267,5.802933 -4.386117,3.59595 -13.275202,3.889138 -19.2664449,0.635463 z M 23.181929,30.61638 c 0,-2.41273 -4.738599,-6.373154 -7.625406,-6.373154 -3.198684,0 -6.4626119,2.925111 -6.4626119,5.791741 0,1.368228 2.3078679,2.034936 7.0440089,2.034936 3.874205,0 7.044009,-0.654075 7.044009,-1.453523 z M 40.182707,50.99454 C 36.819428,48.27322 36.438926,46.584943 35.949274,32.210517 L 35.411252,16.41655 h 4.842694 4.842671 v 12.992283 c 0,12.745164 1.357819,16.749088 5.679929,16.749088 4.920569,0 6.842738,-4.868255 6.842738,-17.3305 0,-12.194698 0.06809,-12.410871 3.913339,-12.410871 h 3.913338 v 18.784024 18.784024 h -3.913338 c -2.152336,0 -3.913339,-0.72918 -3.913339,-1.620404 0,-1.116992 -0.940641,-1.116992 -3.027749,0 -4.632657,2.479335 -10.320037,1.938715 -14.408828,-1.369654 z M 73.272638,35.200574 V 16.41655 h 3.782899 c 2.080596,0 4.051369,0.805412 4.379495,1.789804 0.447623,1.342854 1.43175,1.342854 3.940873,0 4.017777,-2.150238 8.209714,-2.259937 11.314525,-0.296052 3.36971,2.131424 -2.546409,8.399918 -6.862493,7.271233 -6.21305,-1.624755 -8.728623,3.13712 -8.728623,16.522991 0,12.055196 -0.07169,12.280072 -3.913338,12.280072 h -3.913338 z m 31.081412,16.410349 c -9.985591,-5.424701 -9.836462,-27.643227 0.22046,-32.843866 12.07373,-6.243559 23.48486,1.741373 23.48486,16.433517 0,14.667724 -11.8336,22.859703 -23.70532,16.410349 z m 12.43491,-7.331404 c 4.41243,-4.41243 0.99472,-20.036293 -4.38294,-20.036293 -5.26712,0 -8.25069,12.142025 -4.64092,18.88693 1.82624,3.412384 6.20334,3.969878 9.02386,1.149363 z m 51.11533,5.862901 c -8.41157,-8.411565 -2.51292,-18.072517 11.03445,-18.072517 5.00587,0 5.63028,-0.423705 5.19025,-3.522004 -0.56232,-3.959391 -7.78824,-5.784603 -11.31461,-2.857974 -1.48433,1.231888 -2.73213,0.881315 -4.73313,-1.329784 -2.6004,-2.873407 -2.54192,-3.117694 1.35838,-5.67326 2.98016,-1.952678 6.04969,-2.448075 11.41871,-1.842916 11.09364,1.250421 12.94512,4.460391 12.94512,22.443371 0,14.633521 -0.0169,14.697262 -3.91334,14.697262 -2.15233,0 -3.91333,-0.72918 -3.91333,-1.620404 0,-1.116992 -0.94064,-1.116992 -3.02777,0 -5.05755,2.706715 -10.99274,1.830221 -15.04473,-2.221774 z m 16.23889,-8.397524 c 0.46071,-3.251328 -0.0296,-3.578184 -4.696,-3.130672 -4.07538,0.390835 -5.32247,1.290527 -5.72481,4.130061 -0.46069,3.251326 0.0296,3.578184 4.69601,3.13067 4.07538,-0.390848 5.32247,-1.290525 5.7248,-4.130059 z m 32.35998,11.665297 c -2.62379,-1.15319 -5.96969,-3.92688 -7.43535,-6.163755 -3.26579,-4.984241 -3.4535,-15.330198 -0.38577,-21.262535 6.47792,-12.526909 30.19881,-11.504902 28.7213,1.237447 -0.3369,2.905551 -1.39263,4.10788 -3.60698,4.10788 -2.53151,0 -3.13067,-1.043557 -3.13067,-5.452709 0,-5.891719 -2.46805,-7.382309 -9.35941,-5.652692 -6.15033,1.543624 -9.14676,15.631402 -5.41335,25.450992 3.42497,9.008355 11.58616,9.426304 18.57214,0.95111 2.64548,-3.209429 4.80996,-4.981545 4.80996,-3.938034 0,3.435717 -8.51845,11.09677 -13.30535,11.966143 -2.5828,0.469075 -6.84274,-0.09066 -9.46652,-1.243847 z m 37.32645,1.100741 c -1.89573,-0.375302 -5.67249,-3.217312 -8.39281,-6.315576 -4.47961,-5.101997 -4.87474,-6.375099 -4.19006,-13.50058 0.63531,-6.611817 1.69056,-8.723883 6.61226,-13.234287 5.18547,-4.752124 6.58075,-5.269749 12.18038,-4.518669 7.1499,0.959002 12.94267,5.915042 14.52944,12.430739 l 1.04832,4.304672 h -12.69238 -12.69238 v 5.913045 c 0,7.496884 3.67473,12.870979 8.80102,12.870979 5.47305,0 9.5258,-2.475127 12.23896,-7.474698 2.03375,-3.747595 2.32232,-3.870937 2.37737,-1.016172 0.12773,6.623546 -10.65096,12.355788 -19.82012,10.540547 z m 12.05612,-27.564643 c 0,-4.796787 -2.81349,-7.35708 -8.08466,-7.35708 -4.36948,0 -7.56869,3.595606 -7.56869,8.50644 0,1.897536 1.76714,2.450912 7.82667,2.450912 7.12342,0 7.82668,-0.323504 7.82668,-3.600272 z m 57.91741,27.48902 c -4.06883,-1.521724 -4.64745,-3.93299 -4.67204,-19.4693 -0.0207,-13.09761 -0.39464,-15.244107 -2.7633,-15.863103 -2.6089,-0.681782 -2.6089,-0.724516 0,-0.897454 2.03335,-0.134775 2.73933,-1.546504 2.73933,-5.477766 0,-4.4062308 0.6576,-5.4218986 3.91334,-6.0442759 3.61818,-0.6916591 3.91334,-0.3000278 3.91334,5.1922169 0,5.278687 0.47945,6.012939 4.30467,6.59241 l 4.30467,0.652103 -4.30467,0.234534 -4.30467,0.234535 v 15.653358 c 0,14.030042 0.2922,15.653353 2.8176,15.653353 1.54968,0 3.66289,-0.845281 4.69601,-1.878403 1.22382,-1.223816 1.8784,-1.290609 1.8784,-0.191667 0,3.613904 -8.12589,7.253844 -12.52268,5.609459 z m 46.17739,-0.713874 c -1.72187,-0.97641 -3.64819,-2.539891 -4.28071,-3.474405 -4.07843,-6.025687 3.72156,-15.454493 14.16643,-17.124694 6.65739,-1.06456 6.72972,-1.144556 6.25148,-6.913731 -0.45448,-5.482462 -0.83094,-5.865672 -6.20263,-6.31353 -5.56442,-0.46395 -5.71228,-0.337204 -5.47867,4.696006 0.26695,5.751236 -2.90662,7.088001 -5.8289,2.455229 -4.0048,-6.348922 11.44216,-13.006998 21.33103,-9.194279 4.27111,1.646748 4.30467,1.773916 4.30467,16.308235 0,15.346779 0.69382,17.842288 4.16064,14.96507 1.54518,-1.282377 2.1007,-1.278785 2.1007,0.01362 0,0.966352 1.761,1.757002 3.91334,1.757002 h 3.91334 V 27.41593 c 0,-22.1984942 -0.16584,-23.4800342 -3.03829,-23.4800342 -6.35647,0 -4.45357,-2.8420541 2.26042,-3.37603697 L 414.59259,0 v 25.447985 25.447974 h 3.91334 c 2.15233,0 3.91333,0.741046 3.91333,1.646768 0,1.031222 -4.53457,1.556615 -12.13135,1.405582 -6.67224,-0.132647 -13.39028,0.268334 -14.92897,0.891081 -1.74457,0.70606 -3.86546,0.165907 -5.63443,-1.434981 -2.56159,-2.318207 -3.2772,-2.337559 -7.37703,-0.199489 -5.37267,2.801858 -8.13353,2.917176 -12.36695,0.516554 z m 13.40826,-4.445925 c 2.23578,-1.196552 3.02776,-3.29499 3.02776,-8.022344 0,-6.348175 -0.0415,-6.39364 -4.93815,-5.414304 -6.39215,1.278433 -9.14987,3.656921 -9.14987,7.891648 0,6.304729 4.97772,8.800277 11.06026,5.545 z m 86.48419,4.740155 c -4.31467,-1.738426 -7.05091,-6.725688 -5.72878,-10.441692 1.9716,-5.541447 5.68167,-8.206818 14.02129,-10.073146 7.55547,-1.690837 8.43003,-2.30893 8.40856,-5.942695 -0.0373,-6.295768 -2.06803,-8.256961 -7.96686,-7.693706 -4.72801,0.451458 -5.26113,0.966015 -4.83076,4.662617 0.59238,5.088171 -2.30176,7.220385 -5.48279,4.039351 -5.13131,-5.131313 3.21952,-12.107856 14.49294,-12.107856 9.36203,0 11.63811,3.979755 11.63811,20.349364 0,8.348454 0.63773,14.088018 1.56533,14.088018 0.86094,0 1.56534,-0.704401 1.56534,-1.565335 0,-0.860935 0.72918,-1.565336 1.62042,-1.565336 2.43076,0 -0.98577,5.682859 -4.14549,6.895359 -1.43664,0.551286 -4.09771,0.04258 -5.9135,-1.13047 -2.73082,-1.764167 -4.11312,-1.782508 -7.99745,-0.106114 -5.49716,2.372455 -6.67293,2.434309 -11.24636,0.591641 z m 13.86244,-5.710356 c 4.05566,-3.670319 3.93618,-13.062742 -0.16617,-13.062742 -5.82449,0 -10.96984,3.012074 -11.973,7.00897 -1.90018,7.570909 6.07049,11.545857 12.13917,6.053772 z m -208.45768,4.155946 c 0,-0.860934 1.0566,-1.565335 2.34801,-1.565335 1.92943,0 2.348,-2.770066 2.348,-15.538577 0,-13.482385 -0.36249,-15.633312 -2.73934,-16.254437 -1.73858,-0.454339 -1.21349,-0.782198 1.43731,-0.897454 2.29716,-0.09987 5.29086,-0.609134 6.65267,-1.131722 1.8607,-0.714012 2.47604,0.04633 2.47604,3.059527 v 4.009653 l 3.84219,-3.842178 c 4.74337,-4.743389 12.1558,-5.06289 16.50716,-0.711523 2.66687,2.666877 3.13068,5.217794 3.13068,17.218693 0,11.479125 0.43481,14.088018 2.348,14.088018 1.2914,0 2.348,0.704401 2.348,1.565335 0,0.860935 -3.8742,1.565336 -8.60934,1.565336 -4.73514,0 -8.60935,-0.704401 -8.60935,-1.565336 0,-0.860934 1.0566,-1.565335 2.34801,-1.565335 1.91078,0 2.348,-2.587596 2.348,-13.896352 0,-16.282551 -1.89871,-19.603269 -8.67138,-15.165653 -5.21778,3.418818 -6.98197,8.414769 -6.98197,19.771895 0,7.214319 0.52463,9.29011 2.348,9.29011 1.2914,0 2.348,0.704401 2.348,1.565335 0,0.860935 -3.8742,1.565336 -8.60934,1.565336 -4.73514,0 -8.60935,-0.704401 -8.60935,-1.565336 z m 62.61342,0 c 0,-0.860934 1.4088,-1.565335 3.13067,-1.565335 2.91171,0 3.13067,-1.043558 3.13067,-14.921127 0,-14.010752 -0.21489,-15.00751 -3.52201,-16.336809 -3.42267,-1.375742 -3.40419,-1.41846 0.65464,-1.514884 2.29716,-0.05463 5.29087,-0.526782 6.65268,-1.04937 1.78177,-0.683722 2.47603,-0.01252 2.47603,2.394869 v 3.345013 l 4.50328,-3.329422 c 5.75898,-4.25779 10.3674,-3.515305 10.3674,1.670354 0,5.149084 -5.02035,6.207656 -6.78731,1.431139 l -1.29373,-3.497288 -2.61215,3.72938 c -1.89573,2.706543 -2.61216,7.06836 -2.61216,15.903759 0,11.130828 0.26836,12.174386 3.13067,12.174386 1.72187,0 3.13068,0.704401 3.13068,1.565335 0,0.883009 -4.43512,1.565336 -10.17468,1.565336 -5.73957,0 -10.17468,-0.682327 -10.17468,-1.565336 z m 86.09344,0 c 0,-0.860934 1.0566,-1.565335 2.348,-1.565335 1.93058,0 2.34801,-2.782819 2.34801,-15.653353 0,-13.566234 -0.34785,-15.653358 -2.6089,-15.653358 -4.05308,0 -1.90156,-1.04206 4.56556,-2.211271 5.26944,-0.952679 5.87001,-0.722074 5.87001,2.253957 v 3.315208 l 4.12444,-3.244282 c 5.14164,-4.04442 10.08973,-4.128525 14.87751,-0.252896 3.3025,2.673311 3.75358,4.504112 4.2425,17.218684 0.30089,7.825021 1.18139,14.227311 1.95667,14.227311 0.77528,0 1.40958,0.704401 1.40958,1.565335 0,0.860935 -3.522,1.565336 -7.82667,1.565336 -4.30468,0 -7.82668,-0.704401 -7.82668,-1.565336 0,-0.860934 1.0566,-1.565335 2.348,-1.565335 3.15755,0 3.38941,-24.588134 0.27207,-28.851358 -2.81223,-3.84595 -8.22857,-1.996992 -11.24659,3.839189 -3.23619,6.258115 -3.22332,25.012169 0.0172,25.012169 1.2914,0 2.348,0.704401 2.348,1.565335 0,0.860935 -3.8742,1.565336 -8.60934,1.565336 -4.73514,0 -8.60934,-0.704401 -8.60934,-1.565336 z" />
</svg>
