<svg id="EUROPACENTRALNA" width="500" height="159.86925" viewBox="0 0 500 159.86925" version="1.1" xml:space="preserve" xmlns:xlink="http://www.w3.org/1999/xlink" xmlns="http://www.w3.org/2000/svg" xmlns:svg="http://www.w3.org/2000/svg">
	<path id="EUROPACENTRALNA" style="fill:#000000;stroke:#000000;stroke-width:0" d="M 231.25016,42.665992 V 0 h 6.50917 c 3.58004,0 7.25281,1.2032333 8.1617,2.6738504 1.10465,1.7873579 3.30892,1.7873579 6.64865,0 8.1826,-4.3791842 15.85264,-3.07685715 22.801,3.8715132 5.78154,5.7815354 6.54534,8.8707654 6.54534,26.4727014 0,18.351683 -0.55556,20.364344 -7.02618,25.454131 -7.79452,6.131183 -19.51938,7.247459 -24.43999,2.326843 -2.48884,-2.48884 -3.19995,-0.118397 -3.19995,10.666499 0,13.629412 -0.13679,13.866447 -7.99988,13.866447 h -7.99986 z m 30.97342,5.959079 c 8.73018,-5.751295 7.34339,-31.107241 -1.86118,-34.028635 -8.51362,-2.702145 -13.1125,3.329014 -13.1125,17.196262 0,15.809213 6.10663,22.673854 14.97368,16.832373 z M 20.136271,59.920333 C 4.5489973,51.455321 3.4196019,19.277269 18.271153,6.7805061 36.241163,-8.3402682 60.58622,4.7069384 60.58622,29.458361 v 7.87438 H 41.919847 c -13.538239,0 -18.666372,0.952384 -18.666372,3.466614 0,8.889434 16.556992,13.575865 23.485363,6.647522 2.514228,-2.514254 4.236493,-2.184685 7.866542,1.505337 4.423158,4.496248 4.343612,4.973521 -1.647787,9.885577 -7.471962,6.125875 -22.614949,6.625335 -32.821322,1.082542 z M 47.253096,24.190098 c 0,-4.110202 -8.072433,-10.856976 -12.990248,-10.856976 -5.449113,0 -11.009373,4.983068 -11.009373,9.866511 0,2.330843 3.931565,3.466612 11.999811,3.466612 6.599896,0 11.99981,-1.114248 11.99981,-2.476147 z M 76.214745,58.905281 C 70.485236,54.26938 69.837033,51.393319 69.002887,26.905788 L 68.08634,0 h 8.249764 8.249725 v 22.132983 c 0,21.712005 2.31311,28.532883 9.676034,28.532883 8.382427,0 11.656937,-8.293308 11.656937,-29.523346 C 105.9188,0.36826118 106.03479,0 112.58536,0 h 6.66656 v 31.999495 31.999494 h -6.66656 c -3.66661,0 -6.66656,-1.242193 -6.66656,-2.760436 0,-1.90285 -1.60243,-1.90285 -5.15792,0 -7.891954,4.223667 -17.580681,3.302695 -24.546135,-2.333272 z M 132.58505,31.999495 V 0 h 6.44435 c 3.54439,0 6.9017,1.3720584 7.46068,3.0490178 0.76255,2.2876168 2.43905,2.2876168 6.71347,0 6.84447,-3.66303458 13.98564,-3.84991214 19.27483,-0.5043389 5.74047,3.630984 -4.33792,14.3096671 -11.69058,12.3868971 -10.58423,-2.767848 -14.86963,5.344236 -14.86963,28.147716 0,20.53661 -0.12213,20.919697 -6.66656,20.919697 h -6.66656 z m 52.94868,27.955824 C 168.5228,50.714078 168.77685,12.863743 185.9093,4.0042025 c 20.56818,-10.6362051 40.00759,2.9665133 40.00759,27.9952925 0,24.987178 -20.15911,38.942611 -40.38316,27.955824 z M 206.7172,47.465917 c 7.51679,-7.516788 1.69456,-34.132795 -7.46655,-34.132795 -8.97279,0 -14.05545,20.684527 -7.90603,32.1748 3.11109,5.813161 10.56769,6.762879 15.37258,1.957995 z m 87.07744,9.987736 c -14.32951,-14.329508 -4.28088,-30.787408 18.79772,-30.787408 8.52775,0 9.59146,-0.721802 8.84185,-5.999904 -0.95794,-6.745015 -13.26765,-9.854352 -19.27499,-4.868698 -2.52863,2.098581 -4.65432,1.501363 -8.06312,-2.265351 -4.4299,-4.894988 -4.33028,-5.3111427 2.31407,-9.6646732 5.07685,-3.32648153 10.30594,-4.17041431 19.45233,-3.13949665 18.89855,2.13015275 22.05263,7.59849215 22.05263,38.23336985 0,24.928911 -0.0288,25.037497 -6.66656,25.037497 -3.6666,0 -6.66655,-1.242193 -6.66655,-2.760436 0,-1.90285 -1.60242,-1.90285 -5.15795,0 -8.61578,4.61102 -18.72666,3.11787 -25.62943,-3.7849 z m 27.66374,-14.305589 c 0.78484,-5.538795 -0.0504,-6.09561 -7.99986,-5.333251 -6.94261,0.665806 -9.06709,2.198475 -9.75249,7.035759 -0.78481,5.538791 0.0504,6.095609 7.99988,5.333248 6.9426,-0.665829 9.06708,-2.198472 9.75247,-7.035756 z M 17.049404,156.44314 C 12.579651,154.47862 6.879748,149.75351 4.3829254,145.94289 -1.1805061,137.45199 -1.5002792,119.82715 3.7257475,109.72113 14.761198,88.380934 55.170883,90.121973 52.653873,111.82918 c -0.573926,4.94975 -2.372413,6.99797 -6.144665,6.99797 -4.31255,0 -5.333248,-1.77775 -5.333248,-9.28895 0,-10.036829 -4.204443,-12.576121 -15.944208,-9.629635 -10.477385,2.629635 -15.5819489,26.628855 -9.221904,43.356995 5.834602,15.34618 19.737584,16.05816 31.63854,1.62026 4.506703,-5.46741 8.194,-8.4863 8.194,-6.70863 0,5.85291 -14.511593,18.90389 -22.666309,20.38491 -4.399925,0.79908 -11.656939,-0.15451 -16.126675,-2.11896 z m 63.587415,1.87516 c -3.229467,-0.63934 -9.663361,-5.48084 -14.297558,-10.75888 -7.631232,-8.6915 -8.304356,-10.86029 -7.13797,-22.99889 1.082281,-11.26355 2.879951,-14.86156 11.264305,-22.54525 8.833699,-8.095474 11.210627,-8.977274 20.749867,-7.697772 12.180197,1.633706 22.048467,10.076562 24.751607,21.176362 l 1.78586,7.33322 H 96.130848 74.508764 v 10.07316 c 0,12.7713 6.26008,21.92634 14.992964,21.92634 9.323606,0 16.227662,-4.2165 20.849662,-12.73351 3.46459,-6.38421 3.95618,-6.59433 4.04996,-1.7311 0.2176,11.28352 -18.144422,21.04867 -33.764531,17.95632 z M 101.175,111.36061 c 0,-8.17156 -4.792913,-12.533147 -13.772606,-12.533147 -7.443621,0 -12.89363,6.125287 -12.89363,14.491137 0,3.23254 3.010409,4.17524 13.333111,4.17524 12.135091,0 13.333125,-0.5511 13.333125,-6.13323 z m 98.66512,46.82887 c -6.93145,-2.59232 -7.91716,-6.70004 -7.95905,-33.16689 -0.0353,-22.31242 -0.67229,-25.969078 -4.70742,-27.023568 -4.44438,-1.161448 -4.44438,-1.234248 0,-1.528856 3.46391,-0.229596 4.66658,-2.634545 4.66658,-9.33164 0,-7.506228 1.12026,-9.236467 6.66657,-10.296717 6.16374,-1.178274 6.66656,-0.511112 6.66656,8.845193 0,8.992499 0.81677,10.243333 7.33322,11.23049 l 7.33321,1.110889 -7.33321,0.39954 -7.33322,0.399542 v 26.666257 c 0,23.90085 0.49778,26.66624 4.79992,26.66624 2.63996,0 6.23991,-1.43998 7.99988,-3.19995 2.08484,-2.08483 3.19995,-2.19861 3.19995,-0.32652 0,6.15647 -13.84285,12.35729 -21.33299,9.55599 z m 78.66542,-1.21611 c -2.93329,-1.66336 -6.21487,-4.32683 -7.2924,-5.91883 -6.9478,-10.26504 6.33986,-26.32747 24.1332,-29.17274 11.34118,-1.81353 11.4644,-1.94981 10.6497,-11.77788 -0.77423,-9.33963 -1.41555,-9.99245 -10.56648,-10.755399 -9.47926,-0.790362 -9.73115,-0.574444 -9.33318,7.999869 0.45476,9.79751 -4.95157,12.07476 -9.92982,4.18261 -6.82237,-10.8157 19.49228,-22.158055 36.33845,-15.662904 7.27604,2.805315 7.33321,3.021952 7.33321,27.781864 0,26.14399 1.18196,30.39521 7.08785,25.49373 2.63229,-2.1846 3.57865,-2.17848 3.57865,0.0232 0,1.64622 2.99995,2.99313 6.66656,2.99313 h 6.66656 v -39.99933 c 0,-37.816212 -0.28251,-39.999377 -5.17587,-39.999377 -10.82855,0 -7.58687,-4.841577 3.85074,-5.751243 l 11.99163,-0.953747 v 43.351877 43.35186 h 6.66656 c 3.6666,0 6.66655,1.26239 6.66655,2.80535 0,1.75673 -7.72486,2.65176 -20.66634,2.39447 -11.36648,-0.22597 -22.81099,0.45712 -25.43222,1.518 -2.97196,1.20281 -6.585,0.28264 -9.59853,-2.44456 -4.36379,-3.94918 -5.58287,-3.98214 -12.56713,-0.33984 -9.1526,4.77311 -13.85586,4.96956 -21.06769,0.87997 z m 22.84162,-7.57386 c 3.80876,-2.03838 5.15793,-5.61317 5.15793,-13.66645 0,-10.81442 -0.0707,-10.89187 -8.41238,-9.22353 -10.88933,2.17788 -15.58724,6.22975 -15.58724,13.44381 0,10.74041 8.47978,14.9917 18.84169,9.44617 z m 147.33,8.07509 c -7.35025,-2.9615 -12.01156,-11.45754 -9.75925,-17.78793 3.35871,-9.44012 9.679,-13.98071 23.88594,-17.16009 12.87111,-2.88042 14.36097,-3.93338 14.32439,-10.12367 -0.0635,-10.72515 -3.52299,-14.066134 -13.57193,-13.106602 -8.05439,0.769082 -8.96259,1.645652 -8.22943,7.942992 1.00915,8.66795 -3.92116,12.30028 -9.3402,6.88123 -8.74143,-8.74144 5.48461,-20.626317 24.68943,-20.626317 15.94867,0 19.82608,6.779707 19.82608,34.666127 0,14.222 1.0864,23.99962 2.66662,23.99962 1.46665,0 2.66663,-1.19998 2.66663,-2.66662 0,-1.46665 1.24219,-2.66663 2.76046,-2.66663 4.14092,0 -1.67931,9.68103 -7.06204,11.74658 -2.44739,0.93915 -6.98065,0.0726 -10.07394,-1.92581 -4.65208,-3.00535 -7.00689,-3.03659 -13.62404,-0.18076 -9.36468,4.04158 -11.36766,4.14694 -19.15872,1.00788 z m 23.61534,-9.72787 c 6.90901,-6.25257 6.70547,-22.25301 -0.28308,-22.25301 -9.9223,0 -18.68765,5.13121 -20.39658,11.94012 -3.23705,12.89741 10.34137,19.66893 20.67966,10.31289 z m -355.11775,7.07986 c 0,-1.46665 1.79997,-2.66663 3.99995,-2.66663 3.28687,0 3.99993,-4.71893 3.99993,-26.47072 0,-22.96789 -0.61752,-26.632101 -4.6666,-27.690218 -2.96176,-0.773988 -2.06724,-1.332512 2.44853,-1.528856 3.91332,-0.170133 9.01323,-1.037689 11.33314,-1.927943 3.1698,-1.216354 4.21806,0.07892 4.21806,5.212052 v 6.830635 l 6.54535,-6.54533 c 8.08056,-8.080596 20.708,-8.624881 28.12075,-1.212117 4.54314,4.543157 5.33326,8.888767 5.33326,29.332877 0,19.55525 0.74072,23.99962 3.99994,23.99962 2.19996,0 3.99993,1.19998 3.99993,2.66663 0,1.46664 -6.59989,2.66662 -14.66643,2.66662 -8.06654,0 -14.66644,-1.19998 -14.66644,-2.66662 0,-1.46665 1.79997,-2.66663 3.99994,-2.66663 3.25511,0 3.99994,-4.40809 3.99994,-23.67311 0,-27.73811 -3.23455,-33.395115 -14.77212,-25.83542 -8.88874,5.82412 -11.89412,14.33496 -11.89412,33.68238 0,12.28994 0.89373,15.82615 3.99993,15.82615 2.19996,0 3.99993,1.19998 3.99993,2.66663 0,1.46664 -6.59989,2.66662 -14.66643,2.66662 -8.06654,0 -14.66644,-1.19998 -14.66644,-2.66662 z m 106.66499,0 c 0,-1.46665 2.39996,-2.66663 5.33325,-2.66663 4.96024,0 5.33325,-1.77776 5.33325,-25.41886 0,-23.868 -0.36608,-25.56602 -5.99992,-27.830546 -5.83068,-2.343644 -5.7992,-2.416416 1.11521,-2.580679 3.91333,-0.09306 9.01326,-0.897398 11.33316,-1.787652 3.03534,-1.164754 4.21804,-0.02133 4.21804,4.079775 v 5.698392 l 7.67156,-5.671832 c 9.8107,-7.253351 17.66137,-5.988492 17.66137,2.845532 0,8.77171 -8.55241,10.57504 -11.56252,2.43801 l -2.20393,-5.957798 -4.44992,6.353178 c -3.22947,4.61073 -4.44994,12.0413 -4.44994,27.09283 0,18.96189 0.45716,20.73965 5.33325,20.73965 2.93328,0 5.33326,1.19998 5.33326,2.66663 0,1.50425 -7.55544,2.66662 -17.33306,2.66662 -9.77764,0 -17.33306,-1.16237 -17.33306,-2.66662 z m 146.66434,0 c 0,-1.46665 1.79997,-2.66663 3.99994,-2.66663 3.28883,0 3.99995,-4.74067 3.99995,-26.66624 0,-23.11074 -0.59258,-26.666257 -4.44439,-26.666257 -6.90462,0 -3.2394,-1.7752 7.77765,-3.767007 8.97675,-1.622935 9.99985,-1.230088 9.99985,3.839725 v 5.647619 l 7.02618,-5.526793 c 8.75903,-6.889866 17.18834,-7.033143 25.34456,-0.430821 5.62597,4.554114 6.3944,7.672974 7.2273,29.332864 0.51258,13.3303 2.01256,24.23691 3.33329,24.23691 1.32072,0 2.40128,1.19998 2.40128,2.66663 0,1.46664 -5.99989,2.66662 -13.33311,2.66662 -7.33323,0 -13.33313,-1.19998 -13.33313,-2.66662 0,-1.46665 1.79997,-2.66663 3.99993,-2.66663 5.37904,0 5.77403,-41.88708 0.46349,-49.14968 -4.79077,-6.551766 -14.01777,-3.401977 -19.15911,6.54024 -5.51301,10.661 -5.49108,42.60944 0.0293,42.60944 2.19996,0 3.99993,1.19998 3.99993,2.66663 0,1.46664 -6.59989,2.66662 -14.66643,2.66662 -8.06654,0 -14.66642,-1.19998 -14.66642,-2.66662 z" />
</svg>
