<?xml version="1.0" encoding="UTF-8" standalone="no"?>
<svg id="FACEBOOKSVG" width="1500.0024" height="269.35498" viewBox="102.28 102.2 1500.0024 269.35498" version="1.1" xml:space="preserve" xmlns:xlink="http://www.w3.org/1999/xlink" xmlns="http://www.w3.org/2000/svg" xmlns:svg="http://www.w3.org/2000/svg">
   <defs id="FACEBOOKDEFS" />
	 <path id="FACEBOOK1" style="fill:#000000;stroke:#000000;stroke-width:1.68998" d="m 1420.1225,366.26703 h 49.8208 v -80.60565 l 69.521,80.60565 h 60.9612 l -80.9333,-92.89694 69.1356,-80.54989 h -55.4739 l -63.2106,74.24116 V 103.16297 l -49.8208,6.53011 z m -114.8991,-177.8898 c -55.3098,0 -93.7181,37.2017 -93.7181,91.13934 0,53.93766 38.4083,91.13936 93.7181,91.13936 55.3084,0 93.7184,-37.2017 93.7184,-91.13936 0,-53.93764 -38.41,-91.13934 -93.7184,-91.13934 z m 0,139.8093 c -25.6252,0 -43.1826,-19.80834 -43.1826,-48.66996 0,-28.86161 17.5574,-48.66996 43.1826,-48.66996 25.6238,0 43.1827,19.80835 43.1827,48.66996 0,28.86162 -17.5589,48.66996 -43.1827,48.66996 z m -202.4723,-139.8093 c -55.3082,0 -93.7182,37.2017 -93.7182,91.13934 0,53.93766 38.41,91.13936 93.7182,91.13936 55.31,0 93.7183,-37.2017 93.7183,-91.13936 0,-53.93764 -38.4083,-91.13934 -93.7183,-91.13934 z m 0,139.8093 c -25.6237,0 -43.1826,-19.80834 -43.1826,-48.66996 0,-28.86161 17.5589,-48.66996 43.1826,-48.66996 25.6253,0 43.1827,19.80835 43.1827,48.66996 0,28.86162 -17.5574,48.66996 -43.1827,48.66996 z M 912.07656,188.37723 c -23.04467,0 -42.13985,9.05326 -54.10159,25.6236 V 103.16297 l -49.87661,6.47433 v 256.57396 h 44.22528 l 0.87712,-26.77617 c 11.79779,19.97228 32.92265,31.22084 58.8758,31.22084 47.29936,0 81.92215,-38.41003 81.92215,-91.13936 0,-52.73099 -34.45886,-91.13934 -81.92215,-91.13934 z m -11.79611,139.8093 c -25.62529,0 -43.18259,-19.80834 -43.18259,-48.66996 0,-28.86161 17.5573,-48.66996 43.18259,-48.66996 25.62357,0 43.18256,19.80835 43.18256,48.66996 0,28.86162 -17.55899,48.66996 -43.18256,48.66996 z m -192.04685,2.24938 c -26.44663,0 -45.43194,-12.29128 -51.90628,-33.47021 h 122.74381 c 1.20833,-6.47433 2.03136,-14.15702 2.03136,-19.31487 0,-55.80339 -31.22253,-89.2736 -83.67804,-89.2736 -52.94903,0 -89.60318,37.2017 -89.60318,91.13934 0,54.65084 38.41004,91.13936 95.4201,91.13936 29.51902,0 58.21671,-9.87629 76.15931,-26.28269 l -17.9426,-31.60445 c -17.39336,12.01579 -34.45886,17.66712 -53.22448,17.66712 z M 697.09487,227.11512 c 23.04638,0 37.75097,13.99141 37.75097,35.6655 v 0.16563 h -79.56125 c 4.77422,-22.9906 19.64272,-35.83113 41.81028,-35.83113 z M 529.79624,370.71001 c 25.78919,0 51.02917,-9.87629 68.80616,-26.99588 l -19.47881,-32.75702 c -13.82748,10.75508 -29.51902,16.57034 -44.38921,16.57034 -27.65498,0 -46.09105,-19.31487 -46.09105,-47.9568 0,-28.6419 18.43607,-47.95677 46.09105,-47.95677 13.66185,0 28.53205,4.93813 40.60363,13.66355 l 19.80836,-33.47192 c -16.02278,-14.48487 -40.82334,-23.3742 -65.40592,-23.3742 -54.10158,0 -92.346,37.75094 -92.346,91.13934 0.0541,53.22448 38.29849,91.13936 92.40179,91.13936 z M 371.38522,192.8202 l -0.87711,26.99756 c -11.79779,-20.1379 -32.92265,-31.38645 -58.8758,-31.38645 -47.4633,0 -81.92216,38.41003 -81.92216,91.13934 0,52.73101 34.67855,91.13936 81.92216,91.13936 25.95315,0 47.13208,-11.24855 58.8758,-31.22083 l 0.87711,26.77616 h 44.22529 V 192.8202 Z m -47.95679,135.36633 c -25.62359,0 -43.18257,-19.80834 -43.18257,-48.66996 0,-28.86161 17.55898,-48.66996 43.18257,-48.66996 25.62529,0 43.18257,19.80835 43.18257,48.66996 0,28.86162 -17.61306,48.66996 -43.18257,48.66996 z M 225.97866,193.14637 h -44.82861 v -14.81613 c 0,-22.16756 8.66963,-30.67159 31.16674,-30.67159 6.96783,0 12.61914,0.16393 15.85717,0.49349 v -38.02473 c -6.1465,-1.70182 -21.12485,-3.40195 -29.79449,-3.40195 -45.81725,0 -66.9421,21.61832 -66.9421,68.31269 v 18.05244 h -28.31238 v 41.92185 h 28.31238 v 131.19544 h 49.76676 V 235.06651 h 37.09353 z" />
	 <path id="FACEBOOK2" style="fill:#000000;stroke:#000000;stroke-width:0.853601" d="m 131.64495,300.1257 v -65.66156 h -14.11416 -14.11418 v -20.55759 -20.55762 h 14.03611 14.0361 l 0.32615,-15.80173 c 0.3507,-16.99323 1.12099,-23.38289 3.87793,-32.16901 1.7659,-5.62775 4.83975,-12.14736 7.57692,-16.07063 2.64142,-3.78593 9.03142,-9.76872 13.44654,-12.58961 14.29565,-9.13363 38.51964,-11.95384 64.82972,-7.54759 l 6.1366,1.02772 0.16189,18.71661 0.1619,18.71662 h -12.74192 c -11.43695,0 -13.18184,0.13875 -17.03753,1.35523 -13.49073,4.2562 -17.48928,12.30435 -17.48928,35.20191 v 9.16048 h 22.39857 c 12.31921,0 22.39856,0.11696 22.39856,0.25983 0,0.14296 -1.65688,9.29974 -3.68194,20.34856 -2.02508,11.04883 -3.68196,20.32091 -3.68196,20.60464 0,0.28372 -8.42248,0.51583 -18.71663,0.51583 h -18.7166 v 65.35473 65.35473 h -24.54638 -24.54639 z" />
	 <path id="FACEBOOK3" style="fill:#000000;stroke:#000000;stroke-width:0.853601" d="m 304.84538,370.02146 c -37.12854,-2.81827 -65.99411,-30.98724 -73.23988,-71.47246 -1.85564,-10.36818 -1.85564,-27.59362 0,-37.96181 3.56923,-19.94274 12.46305,-37.34843 25.55624,-50.01489 11.39656,-11.02512 24.79774,-17.82108 40.68003,-20.62954 6.89457,-1.21916 20.90165,-1.22579 27.71958,-0.0135 10.2391,1.82112 21.42003,6.54588 28.65008,12.10675 4.23735,3.25908 11.72271,11.16087 14.00489,14.78396 1.00945,1.60259 2.04247,2.91429 2.2956,2.91491 0.25314,5.9e-4 0.46127,-2.00099 0.4625,-4.44796 10e-4,-2.44696 0.18225,-8.3841 0.40228,-13.19365 l 0.40004,-8.74467 h 21.68945 21.68946 v 86.21916 86.21914 h -21.68946 -21.68945 l -0.40004,-8.74463 c -0.22003,-4.80955 -0.40104,-10.74671 -0.40228,-13.19369 -0.001,-2.44695 -0.20936,-4.44027 -0.4625,-4.42957 -0.25313,0.0102 -1.67935,1.82772 -3.16937,4.03787 -12.55966,18.62982 -35.96499,28.5782 -62.49717,26.56424 z m 28.38672,-42.59727 c 15.21618,-3.21825 26.8182,-14.88712 31.71823,-31.90092 1.25419,-4.35473 1.41096,-6.19173 1.38789,-16.262 -0.0241,-10.57026 -0.14061,-11.72473 -1.6904,-16.75082 -6.33294,-20.53921 -20.87433,-31.72827 -41.23426,-31.72827 -20.36231,0 -34.94341,11.22269 -41.22294,31.72827 -1.5389,5.02519 -1.65371,6.18242 -1.66205,16.75082 -0.008,9.82054 0.17256,12.00519 1.33568,16.18721 2.67668,9.62391 7.6702,17.75979 14.49573,23.61763 3.90551,3.35184 11.73279,7.19949 16.94399,8.32912 5.26764,1.14187 14.60203,1.15545 19.92813,0.0288 z" />
	 <path id="FACEBOOK4" style="fill:#000000;stroke:#000000;stroke-width:0.853601" d="m 522.23925,370.03506 c -17.17906,-1.09923 -33.24354,-6.4399 -46.9251,-15.60049 -6.33119,-4.23909 -16.26137,-13.95052 -20.85314,-20.39372 -6.9294,-9.72346 -12.0306,-21.63435 -14.90242,-34.79597 -1.15977,-5.31518 -1.34766,-8.05851 -1.34766,-19.67677 0,-14.82064 0.8127,-20.45792 4.57341,-31.72375 11.30296,-33.8599 41.72295,-56.35648 79.35022,-58.68208 19.84129,-1.22631 37.06894,2.15477 54.10673,10.61895 7.1541,3.55409 17.47794,10.40929 17.99009,11.94574 0.10798,0.32416 -4.12384,7.89718 -9.40417,16.82892 l -9.60062,16.23953 -2.25413,-1.54309 c -1.23975,-0.8487 -4.60136,-2.72337 -7.47021,-4.16592 -28.66854,-14.41556 -59.22285,-7.99887 -71.09037,14.92965 -3.2269,6.23445 -4.79053,11.56429 -5.6603,19.29371 -2.17859,19.36114 5.22945,37.56091 19.02079,46.72939 17.87777,11.8851 43.59282,9.93902 66.20569,-5.01036 2.8054,-1.85465 5.18268,-3.27414 5.28286,-3.15442 0.10022,0.11965 4.38333,7.3111 9.51813,15.98089 l 9.33598,15.76317 -2.5688,2.33978 c -3.96935,3.61542 -12.61503,9.64328 -17.7408,12.36909 -16.803,8.93552 -35.92474,12.96446 -55.56618,11.70775 z" />
	 <path id="FACEBOOK5" style="fill:#000000;stroke:#000000;stroke-width:0.853601" d="m 685.96431,369.12776 c -31.06155,-4.53002 -55.28342,-20.94968 -67.84305,-45.98984 -5.67686,-11.31793 -8.76701,-22.95768 -9.61204,-36.20589 -2.31246,-36.25381 11.75904,-66.99147 38.60974,-84.33883 15.91108,-10.27966 37.73114,-15.31958 58.6499,-13.54682 22.39845,1.89817 39.10261,9.20432 52.1575,22.81296 5.80835,6.05473 8.88752,10.42324 12.68901,18.00235 8.6249,17.19556 12.09021,41.03919 8.99198,61.87031 l -0.7008,4.71175 H 717.5385 656.17043 l 0.3619,1.80952 c 0.56359,2.81787 3.88266,9.2222 6.8665,13.24922 9.71161,13.10695 28.57402,20.3432 49.68853,19.06219 15.36792,-0.93237 28.44949,-5.1781 43.14765,-14.00398 2.80543,-1.68458 5.19062,-2.96493 5.30046,-2.84528 0.10986,0.11966 4.07833,7.05397 8.8189,15.4095 l 8.61923,15.19188 -2.67306,2.23436 c -13.95989,11.66902 -35.51432,20.18295 -57.98099,22.90232 -7.11522,0.86123 -25.48451,0.6763 -32.35524,-0.32572 z m 48.90796,-109.0986 c 0,-4.5387 -2.05487,-12.13134 -4.40317,-16.26973 -4.39746,-7.74947 -12.62916,-13.50821 -22.41216,-15.67911 -5.67843,-1.26009 -16.97201,-1.27227 -22.26813,-0.0239 -8.1656,1.92453 -16.03215,6.78401 -21.03649,12.9951 -3.9671,4.92369 -9.6558,17.53084 -9.6558,21.39889 0,0.72327 6.18004,0.85586 39.88787,0.85586 h 39.88788 z" />
	 <path id="FACEBOOK6" style="fill:#000000;stroke:#000000;stroke-width:0.853601" d="m 898.24981,369.16395 c -10.09088,-1.82916 -19.14277,-5.4606 -26.79165,-10.74827 -5.15043,-3.56048 -13.2403,-11.69563 -16.01021,-16.09978 -1.00791,-1.6026 -2.03969,-2.91428 -2.29282,-2.91489 -0.25314,-6.1e-4 -0.46135,2.41517 -0.46272,5.36842 -9.9e-4,2.95322 -0.18207,8.89039 -0.40152,13.19369 l -0.39907,7.82413 H 830.20163 808.51141 V 237.89321 109.99914 l 2.30122,-0.36513 c 4.11061,-0.65222 44.86987,-5.87936 45.84489,-5.87936 0.84608,0 0.94665,5.87127 0.94665,55.26866 v 55.26863 l 5.98318,-6.08582 c 6.58908,-6.70211 9.20439,-8.65563 16.45228,-12.28914 9.96623,-4.99627 19.65531,-7.09666 32.48707,-7.04249 41.60929,0.17565 73.42799,29.9694 80.14575,75.04532 1.24153,8.33044 0.94285,25.94755 -0.5845,34.47396 -6.77848,37.84163 -31.93977,64.75076 -66.13833,70.7327 -6.64444,1.16225 -21.38495,1.18218 -27.69981,0.0375 z m 11.73281,-41.72239 c 15.15494,-3.2109 26.38991,-14.17532 31.47162,-30.71383 1.57759,-5.13429 1.69215,-6.25514 1.72271,-16.85279 0.0259,-9.02864 -0.18867,-12.15405 -1.04877,-15.26722 -2.66496,-9.64611 -6.29197,-16.23843 -12.16587,-22.11234 -4.70051,-4.7005 -9.09308,-7.47663 -15.3891,-9.72602 -4.10749,-1.46746 -5.33303,-1.60984 -14.01287,-1.628 -8.74685,-0.0182 -9.91036,0.11408 -14.46912,1.64489 -14.66481,4.92464 -24.42096,16.82877 -28.00558,34.17159 -0.99334,4.80586 -1.15846,7.46067 -0.91796,14.75808 0.34616,10.50424 1.63404,16.11742 5.49111,23.93272 3.71984,7.53729 11.05703,14.90897 18.29685,18.38289 2.86841,1.37637 7.00315,2.89003 9.18829,3.3637 5.2382,1.1355 14.59485,1.15735 19.83869,0.0462 z" />
	 <path id="FACEBOOK7" style="fill:#000000;stroke:#000000;stroke-width:0.853601" d="m 1085.9829,369.11604 c -19.8369,-2.88942 -37.612,-11.46027 -50.7203,-24.45636 -7.1455,-7.08458 -11.0299,-12.37388 -15.5798,-21.21492 -14.3328,-27.85086 -13.6503,-65.03458 1.6751,-91.27544 14.925,-25.55509 40.3317,-40.49552 73.3473,-43.13181 35.5029,-2.83495 68.688,11.83508 86.286,38.14412 13.6884,20.46453 18.4684,48.01184 12.8394,73.9933 -7.9908,36.88141 -36.1634,62.47787 -74.8113,67.97032 -7.9692,1.13255 -25.1649,1.11737 -33.0364,-0.0292 z m 26.5968,-41.69185 c 15.2231,-3.21974 27.0467,-15.13458 31.7307,-31.97571 1.1631,-4.18202 1.3435,-6.36667 1.3358,-16.18721 -0.01,-10.5684 -0.1232,-11.72563 -1.6621,-16.75082 -5.1047,-16.66851 -15.1198,-26.72168 -30.4613,-30.57673 -7.1906,-1.80691 -18.4481,-1.41956 -25.0184,0.86084 -13.4107,4.65447 -22.2535,14.39498 -26.9774,29.71589 -1.5499,5.02609 -1.6663,6.18056 -1.6906,16.75082 -0.03,12.93229 0.779,17.01115 5.1701,26.08052 5.3684,11.08801 15.9614,19.51553 27.7453,22.07389 5.175,1.12351 14.5371,1.12754 19.8279,0.008 z" />
	 <path id="FACEBOOK8" style="fill:#000000;stroke:#000000;stroke-width:0.853601" d="m 1420.3299,237.83926 c 0,-70.37141 0.2073,-127.94965 0.4603,-127.95165 0.2533,-0.002 10.9236,-1.38275 23.7123,-3.0683 12.7889,-1.68557 23.6277,-3.06466 24.0862,-3.06466 0.6988,0 0.834,13.24342 0.834,81.61672 0,45.88849 0.2338,81.61672 0.5341,81.61672 0.2937,0 14.5843,-16.54993 31.7568,-36.77764 l 31.2229,-36.77764 27.1544,-0.0419 c 14.9349,-0.023 27.1545,0.0812 27.1545,0.23201 0,0.15057 -15.3367,18.13589 -34.0815,39.96719 -30.1507,35.11561 -33.9838,39.80795 -33.2372,40.68784 2.8095,3.30959 72.5356,83.41229 75.7824,87.0603 l 3.9599,4.44902 h -30.0754 -30.0751 l -34.5138,-40.04126 c -18.9826,-22.02269 -34.754,-40.13332 -35.0478,-40.24584 -0.2998,-0.11474 -0.5342,17.45622 -0.5342,40.04127 v 40.24583 h -24.5464 -24.5464 z" />
	 <path id="FACEBOOK9" style="fill:#000000;stroke:#000000;stroke-width:0.853601" d="m 1288.3973,369.13674 c -39.7594,-6.01052 -67.7862,-32.71857 -74.9945,-71.46566 -1.7212,-9.25243 -1.8603,-26.24582 -0.2859,-34.97861 6.0613,-33.62495 26.0895,-57.46714 57.4414,-68.37996 25.4449,-8.85683 57.3885,-7.00324 80.6831,4.68178 11.6398,5.83879 23.979,16.29731 30.9878,26.26496 21.199,30.14766 21.8561,75.33362 1.5444,106.16484 -12.5896,19.10981 -32.331,31.84841 -57.1498,36.87732 -8.5895,1.74045 -29.2526,2.19199 -38.2265,0.83533 z m 26.69,-41.70278 c 2.3626,-0.49434 6.6429,-2.0471 9.5117,-3.4506 4.2055,-2.0574 6.2308,-3.57543 10.4532,-7.83521 5.9603,-6.01301 9.4297,-12.1315 11.695,-20.62488 1.864,-6.9881 2.2874,-20.15491 0.8876,-27.59959 -3.3885,-18.02371 -13.7843,-30.64199 -29.1724,-35.40891 -3.9892,-1.2358 -5.8289,-1.4201 -13.8073,-1.38324 -8.3008,0.0383 -9.6468,0.19985 -13.706,1.64427 -11.6381,4.14133 -20.2485,12.50587 -25.0112,24.29692 -3.1793,7.87126 -3.6274,10.7154 -3.5926,22.80222 0.031,10.59765 0.1452,11.7185 1.7227,16.85279 2.9549,9.61593 7.6662,17.06345 14.2726,22.56152 3.8461,3.2006 11.7394,7.00498 16.8185,8.10598 5.2509,1.13824 14.5864,1.15637 19.9282,0.0387 z" />
</svg>
