<?xml version="1.0" encoding="UTF-8" standalone="no"?>
<svg id="FACEBOOKSVG" width="1500" height="268.20789" viewBox="0 0 1500 268.20789" version="1.1" xml:space="preserve" xmlns:xlink="http://www.w3.org/1999/xlink" xmlns="http://www.w3.org/2000/svg" xmlns:svg="http://www.w3.org/2000/svg">
	<path id="F1" style="fill:#000000;stroke:#000000;stroke-width:0.854952" d="M 28.700476,197.10922 V 131.34377 H 14.563991 0.42747599 V 110.75366 90.163503 H 14.485791 28.544096 l 0.326669,-15.826724 c 0.35125,-17.020124 1.12276,-23.419892 3.884059,-32.219908 1.768699,-5.636658 4.847408,-12.166586 7.588917,-16.096054 C 42.98934,22.228898 49.389448,16.23664 53.811556,13.411291 68.129831,4.2632046 92.392132,1.4385257 118.74385,5.8517441 l 6.14631,1.0293496 0.16215,18.7462233 0.16215,18.746243 h -12.76208 c -11.45504,0 -13.20269,0.13897 -17.064489,1.357369 -13.512075,4.262939 -17.516953,12.323816 -17.516953,35.257608 v 9.174966 h 22.434012 c 12.3387,0 22.43401,0.11715 22.43401,0.26024 0,0.14319 -1.6595,9.314467 -3.68777,20.380767 -2.02829,11.06632 -3.68779,20.35306 -3.68779,20.63724 0,0.28417 -8.43581,0.51665 -18.746239,0.51665 H 77.870938 v 65.45813 65.45813 H 53.285727 28.700496 Z" />
	<path id="A1" style="fill:#000000;stroke:#000000;stroke-width:0.854952" d="m 202.17496,267.11557 c -37.1873,-2.82273 -66.09854,-31.03627 -73.35577,-71.58554 -1.85858,-10.38459 -1.85858,-27.63728 0,-38.02187 3.57487,-19.9743 12.48277,-37.40752 25.59667,-50.09403 11.41459,-11.042559 24.83698,-17.849277 40.74439,-20.662186 6.90549,-1.221089 20.93473,-1.227729 27.76344,-0.0135 10.25531,1.824 21.45392,6.556248 28.69541,12.125916 4.24407,3.26423 11.74126,11.17853 14.02705,14.80735 1.01105,1.60512 2.0457,2.9189 2.29923,2.91952 0.25354,5.9e-4 0.462,-2.00416 0.46324,-4.455 0.001,-2.45083 0.18253,-8.39736 0.40291,-13.21452 l 0.40067,-8.758517 h 21.72377 21.72379 v 86.355597 86.35554 H 290.93597 269.2122 l -0.40067,-8.75845 c -0.22038,-4.81717 -0.40167,-10.76373 -0.40291,-13.21458 -10e-4,-2.45082 -0.2097,-4.44729 -0.46324,-4.43658 -0.25353,0.0102 -1.682,1.83062 -3.17438,4.04426 -12.57953,18.65931 -36.02188,28.62342 -62.59604,26.60627 z m 28.43163,-42.66466 c 15.24024,-3.22335 26.86063,-14.91068 31.7684,-31.9514 1.25618,-4.36162 1.4132,-6.20152 1.39009,-16.28772 -0.0241,-10.58699 -0.14083,-11.74329 -1.69307,-16.77733 -6.34295,-20.57171 -20.90736,-31.77847 -41.29951,-31.77847 -20.39451,0 -34.99869,11.24045 -41.28816,31.77847 -1.54132,5.03314 -1.65631,6.1922 -1.66467,16.77733 -0.008,9.83607 0.17284,12.02418 1.33779,16.21281 2.68091,9.63915 7.68233,17.78789 14.51866,23.655 3.91169,3.35714 11.75136,7.21088 16.9708,8.3423 5.27597,1.14368 14.62513,1.15728 19.95967,0.0289 z" />
	<path id="C1" style="fill:#000000;stroke:#000000;stroke-width:0.854952" d="m 419.91279,267.12919 c -17.20625,-1.10096 -33.29614,-6.45007 -46.99936,-15.62517 -6.3412,-4.2458 -16.2871,-13.97259 -20.88613,-20.42598 -6.94037,-9.73885 -12.04963,-21.66859 -14.92599,-34.85103 -1.16161,-5.32359 -1.34979,-8.07126 -1.34979,-19.70789 0,-14.8441 0.81398,-20.4903 4.58064,-31.77396 11.32084,-33.91347 41.78896,-56.445646 79.47577,-58.774925 19.87268,-1.22825 37.12758,2.158179 54.19234,10.635756 7.16541,3.559709 17.50558,10.425759 18.01854,11.964639 0.10815,0.32467 -4.13036,7.90967 -9.41905,16.85555 l -9.6158,16.26522 -2.25769,-1.54553 c -1.24172,-0.85004 -4.60864,-2.72768 -7.48204,-4.17251 -28.7139,-14.43836 -59.31656,-8.01153 -71.20284,14.95328 -3.23201,6.2443 -4.79811,11.58258 -5.66926,19.32423 -2.18204,19.39177 5.23773,37.62033 19.05088,46.80332 17.90606,11.90392 43.6618,9.95476 66.31045,-5.01829 2.80984,-1.85758 5.19088,-3.27932 5.29122,-3.15941 0.10037,0.11984 4.39025,7.32267 9.53318,16.00618 l 9.35076,15.78811 -2.57287,2.34348 c -3.97564,3.62114 -12.63499,9.65854 -17.76887,12.38867 -16.82959,8.94965 -35.98158,12.98496 -55.65409,11.72626 z" />
	<path id="E1" style="fill:#000000;stroke:#000000;stroke-width:0.854952" d="m 583.89689,266.22046 c -31.11069,-4.53719 -55.37089,-20.98283 -67.9504,-46.06261 -5.68584,-11.33583 -8.78087,-22.994 -9.62724,-36.26317 -2.31612,-36.31116 11.77764,-67.09747 38.67082,-84.47227 15.93627,-10.295936 37.79085,-15.343825 58.74271,-13.568265 22.43389,1.901179 39.16447,9.218896 52.24002,22.849065 5.81754,6.06431 8.90158,10.43973 12.70909,18.03083 8.63853,17.22277 12.10934,41.10412 9.00619,61.9682 l -0.70191,4.71921 h -61.46513 -61.46517 l 0.36247,1.81238 c 0.56449,2.82233 3.88881,9.2368 6.87737,13.27018 9.72696,13.12769 28.61923,20.3754 49.76715,19.09236 15.39223,-0.93384 28.4945,-5.1863 43.21591,-14.02614 2.80987,-1.68725 5.19884,-2.96962 5.30885,-2.84978 0.11003,0.11984 4.08478,7.06513 8.83285,15.43389 l 8.63286,15.2159 -2.67729,2.2379 c -13.98197,11.68749 -35.5705,20.21488 -58.07272,22.93855 -7.12647,0.8626 -25.52484,0.67737 -32.40643,-0.32623 z m 48.98534,-109.27122 c 0,-4.54588 -2.05812,-12.15053 -4.41013,-16.29547 -4.40443,-7.76173 -12.64914,-13.52958 -22.44762,-15.70392 -5.68742,-1.26208 -16.99887,-1.27428 -22.30337,-0.0239 -8.17852,1.92757 -16.05752,6.79474 -21.06977,13.01566 -3.97338,4.93148 -9.67108,17.55857 -9.67108,21.43274 0,0.72442 6.18982,0.85722 39.95097,0.85722 h 39.951 z" />
	<path id="B1" style="fill:#000000;stroke:#000000;stroke-width:0.854952" d="m 796.51827,266.25671 c -10.10685,-1.83206 -19.17306,-5.46923 -26.83404,-10.76527 -5.15858,-3.56612 -13.26126,-11.71414 -16.03554,-16.12526 -1.00951,-1.60514 -2.04292,-2.91889 -2.29645,-2.9195 -0.25354,-6.2e-4 -0.46208,2.41899 -0.46345,5.37691 -9.9e-4,2.95789 -0.18236,8.90446 -0.40216,13.21457 l -0.3997,7.8365 H 728.36241 706.63789 V 134.77827 6.6818438 l 2.30486,-0.3657099 c 4.11711,-0.6532498 44.94086,-5.88865791 45.91742,-5.88865791 0.84741,0 0.94814,5.88055791 0.94814,55.35610001 v 55.356084 l 5.99266,-6.09545 c 6.5995,-6.71272 9.21895,-8.669329 16.47831,-12.308598 9.982,-5.004168 19.68641,-7.107877 32.53846,-7.053627 41.67513,0.17593 73.54418,30.016825 80.27257,75.164065 1.2435,8.34362 0.94435,25.9886 -0.58543,34.5285 -6.7892,37.90152 -31.9903,64.85322 -66.24297,70.84462 -6.65496,1.16409 -21.41879,1.18405 -27.74364,0.0376 z m 11.75137,-41.78841 c 15.17892,-3.21598 26.43167,-14.19775 31.52142,-30.76242 1.58008,-5.14242 1.69482,-6.26504 1.72543,-16.87945 0.0259,-9.04293 -0.18897,-12.17329 -1.05043,-15.29138 -2.66917,-9.66137 -6.30192,-16.26413 -12.18511,-22.14733 -4.70795,-4.70794 -9.10747,-7.48846 -15.41345,-9.74141 -4.11399,-1.46978 -5.34147,-1.61238 -14.03504,-1.63057 -8.76069,-0.0182 -9.92604,0.11426 -14.49203,1.64749 -14.688,4.93243 -24.45959,16.85541 -28.04989,34.22566 -0.9949,4.81346 -1.16028,7.47247 -0.9194,14.78143 0.3467,10.52086 1.63661,16.14292 5.4998,23.97059 3.72572,7.54921 11.07452,14.93255 18.3258,18.41197 2.87295,1.37855 7.01423,2.8946 9.20282,3.36902 5.24649,1.1373 14.61795,1.15918 19.87008,0.0463 z" />
	<path id="O1" style="fill:#000000;stroke:#000000;stroke-width:0.854952" d="m 984.54844,266.20872 c -19.86829,-2.89399 -37.67148,-11.47839 -50.80058,-24.49505 -7.1569,-7.09579 -11.0474,-12.39345 -15.60449,-21.24849 -14.3555,-27.89493 -13.6719,-65.13748 1.6777,-91.41986 14.94879,-25.59552 40.39568,-40.559596 73.46347,-43.200055 35.55906,-2.839439 68.79666,11.853815 86.42246,38.204475 13.7101,20.49691 18.4976,48.08781 12.8597,74.11037 -8.0034,36.93977 -36.2206,62.57674 -74.9296,68.07787 -7.9818,1.13434 -25.20476,1.11913 -33.08866,-0.0292 z m 26.63886,-41.75781 c 15.2472,-3.22484 27.0895,-15.15853 31.7809,-32.02631 1.1649,-4.18863 1.3456,-6.37674 1.3379,-16.21281 -0.01,-10.58513 -0.1234,-11.74419 -1.6647,-16.77733 -5.1128,-16.69488 -15.1438,-26.76396 -30.5095,-30.62511 -7.202,-1.80977 -18.47726,-1.42181 -25.05796,0.8622 -13.43189,4.66184 -22.28869,14.41776 -27.02009,29.76291 -1.5524,5.03404 -1.6689,6.19034 -1.6933,16.77733 -0.03,12.95274 0.7803,17.03806 5.1783,26.12179 5.3769,11.10554 15.98669,19.54639 27.78919,22.1088 5.1832,1.12529 14.56006,1.12933 19.85926,0.008 z" />
	<path id="O2" style="fill:#000000;stroke:#000000;stroke-width:0.854952" d="m 1187.6911,266.9047 c -19.8686,-2.89404 -37.6722,-11.47857 -50.8016,-24.49544 -7.1569,-7.0959 -11.0475,-12.39364 -15.6047,-21.2488 -14.3558,-27.89537 -13.6721,-65.13851 1.6778,-91.42129 14.9489,-25.59592 40.3963,-40.560226 73.4648,-43.200725 35.5599,-2.839479 68.7981,11.853975 86.4241,38.205075 13.7104,20.49722 18.498,48.08853 12.86,74.1115 -8.0036,36.94036 -36.2213,62.57771 -74.9309,68.07894 -7.982,1.13437 -25.2054,1.11915 -33.0895,-0.0292 z m 26.6395,-41.75847 c 15.2475,-3.22489 27.0899,-15.15876 31.7814,-32.0268 1.1649,-4.1887 1.3456,-6.37684 1.3379,-16.21306 -0.01,-10.58529 -0.1233,-11.74436 -1.6647,-16.77759 -5.1129,-16.69515 -15.1439,-26.76437 -30.51,-30.62559 -7.2021,-1.8098 -18.4777,-1.42183 -25.0585,0.86222 -13.4322,4.6619 -22.2892,14.41798 -27.0207,29.76337 -1.5524,5.03412 -1.6689,6.19043 -1.6933,16.77759 -0.03,12.95293 0.7803,17.03832 5.1784,26.12219 5.377,11.10572 15.987,19.54671 27.7898,22.10915 5.1834,1.12532 14.5605,1.12935 19.8597,0.007 z" />
	<path id="K1" style="fill:#000000;stroke:#000000;stroke-width:0.854952" d="m 1319.4244,134.72423 c 0,-70.482757 0.2076,-128.1520962 0.461,-128.1540962 0.2537,-0.002 10.9409,-1.3849395 23.7498,-3.0731589 12.8092,-1.6882294 23.6651,-3.06949891 24.1243,-3.06949891 0.7,0 0.8354,13.26437501 0.8354,81.74585001 0,45.961094 0.2341,81.745854 0.5349,81.745854 0.2942,0 14.6074,-16.5761 31.8071,-36.83583 l 31.2723,-36.835837 27.1973,-0.042 c 14.9587,-0.023 27.1976,0.0813 27.1976,0.23238 0,0.1508 -15.361,18.164587 -34.1355,40.030427 -30.1984,35.17117 -34.0376,39.87094 -33.2898,40.75222 2.8139,3.31483 72.6504,83.54427 75.9024,87.19805 l 3.9661,4.45605 h -30.1229 -30.1228 l -34.5684,-40.10461 c -19.0127,-22.05752 -34.809,-40.19682 -35.1033,-40.30952 -0.3003,-0.11492 -0.535,17.48385 -0.535,40.10463 v 40.3095 h -24.5853 -24.5852 z" />
</svg>
