<?xml version="1.0" encoding="UTF-8" standalone="no"?>
<svg id="FACEBOOKSVG" width="499.9996" height="500" viewBox="0 0 499.99959 500" version="1.1" xml:space="preserve" xmlns:xlink="http://www.w3.org/1999/xlink" xmlns="http://www.w3.org/2000/svg" xmlns:svg="http://www.w3.org/2000/svg">
<defs id="FACEBOOKDEFS" />
	<path id="FACEBOOK1" style="fill:#000000;stroke-width:3.90935" d="m 281.12053,412.38583 v -85.14436 l 33.65243,-0.26692 33.65242,-0.26691 6.82826,-36.97622 c 3.75554,-20.33692 6.84679,-37.77399 6.86946,-38.74904 0.0385,-1.65956 -2.5481,-1.77284 -40.48069,-1.77284 h -40.52188 l 0.0176,-19.50115 c 0.0191,-21.17366 1.17791,-29.47466 5.40291,-38.70326 4.98132,-10.88065 13.12452,-17.04774 27.6813,-20.9639 6.96954,-1.87499 10.58699,-2.12288 29.96038,-2.05314 l 22.03377,0.0793 v -34.83268 c 0,-32.29158 -0.12932,-34.872311 -1.77283,-35.376116 -10.91631,-3.346272 -42.64839,-6.09424 -62.02558,-5.371346 -29.44643,1.098547 -52.0318,7.08748 -69.41727,18.407312 -9.07502,5.90882 -21.53724,19.09616 -26.78422,28.34271 -12.61609,22.23275 -17.25009,46.36864 -17.27286,89.96455 l -0.0104,20.00768 h -25.83269 -25.8327 v 39.00231 39.00231 h 25.8327 25.83269 v 82.0568 c 0,72.70803 -0.17525,82.0568 -1.5383,82.0568 -0.84607,0 -6.65842,-1.6526 -12.91635,-3.67246 C 45.058895,445.88284 -27.264782,309.92563 10.666578,179.71427 35.719749,93.711355 107.72053,26.228509 195.30126,6.6650983 221.699,0.76848503 256.00167,-0.87518437 281.62705,2.5286545 376.82436,15.173783 457.02706,81.319107 486.61966,171.59158 c 9.20772,28.08821 12.47962,48.72361 12.46751,78.63101 -0.0389,96.04756 -53.61561,181.49774 -140.41061,223.94246 -22.87169,11.18477 -49.17506,19.38959 -72.74406,22.69109 l -4.81197,0.67406 z" />
</svg>
