<svg id="FASIONCLUBWROCLAW" width="500" height="113.94482" viewBox="0 0 500 113.94482" version="1.1" xml:space="preserve" xmlns:xlink="http://www.w3.org/1999/xlink" xmlns="http://www.w3.org/2000/svg" xmlns:svg="http://www.w3.org/2000/svg">
	<path id="FASIONCLUBWROCLAW" style="fill:#000000;stroke:#000000;stroke-width:0" d="m 404.79784,61.307378 h 13.04035 L 387.26046,0 h -2.71188 l -30.57773,61.307378 h 7.58619 l 21.60901,-46.13246 11.6325,25.100778 h -19.89983 l -2.08393,5.276911 H 397.3104 Z M 242.23656,54.825183 c 7.18612,4.99838 16.12952,7.535551 26.58206,7.535551 8.1154,0 15.15213,-1.030567 20.95572,-3.038528 l 0.65328,-0.22789 V 52.00948 l -1.40785,0.703926 c -6.25684,3.114492 -9.67265,3.643702 -18.06405,3.643702 -8.39394,0 -15.37749,-2.311814 -20.22647,-6.710084 -4.87431,-4.421059 -6.96077,-9.849896 -6.96077,-18.140015 0,-6.760726 1.83325,-12.43771 5.42631,-16.909411 3.3677,-4.170381 8.74337,-6.7860475 15.98013,-7.7381198 5.73016,-0.7545679 10.17654,-0.4785683 14.4482,0.8786412 3.19046,1.0812097 5.50227,2.0864562 6.68223,2.9397766 l 1.25593,0.903962 1.40785,-8.3407609 -0.828,-0.2532107 c -16.48402,-4.821132 -31.50701,-3.01320747 -43.77,4.8515172 -3.91971,2.4865294 -7.11016,5.9301954 -9.49794,10.2499694 -2.41056,4.322307 -3.61838,9.323219 -3.61838,14.825487 0,9.470081 3.69435,16.833449 10.98175,21.907791 z M 188.69262,5.7276263 c -0.97992,0 -2.03328,0.050642 -3.13981,0.1519264 -7.89005,0.7545679 -12.5871,5.9555163 -14.67356,8.9940443 -2.76253,4.020986 -4.09442,9.497934 -4.09442,16.734696 0,7.236762 1.63321,13.366994 4.82367,18.190658 1.60788,2.410566 3.84373,4.322307 6.58347,5.654195 2.76253,1.354677 6.02895,2.058603 9.69797,2.058603 3.6665,0 6.91012,-0.802678 9.74862,-2.410566 2.83849,-1.607888 5.04902,-3.719665 6.63159,-6.307479 3.29173,-5.302232 4.95026,-11.105822 4.95026,-17.185411 0,-7.512762 -1.70917,-13.617672 -5.09966,-18.165336 -2.99042,-4.0716286 -6.98608,-7.7406518 -15.42813,-7.7406518 z m -1.65853,56.2811447 c -2.64483,0.0023 -5.28458,-0.232397 -7.88751,-0.701393 -8.86997,-1.534457 -14.67356,-4.724912 -19.39847,-10.604465 -3.81842,-4.747701 -6.95823,-14.64824 -5.22627,-23.616963 0.90396,-4.648949 2.48906,-8.743366 4.69959,-12.237674 2.23585,-3.491776 4.84898,-6.2543044 7.78876,-8.1913664 2.88913,-1.9345298 6.15555,-3.4158125 9.67265,-4.4463801 6.40876,-1.7826034 13.11631,-2.08392414 19.97579,-0.9039622 8.71805,1.5066037 15.52688,5.3503423 20.27712,11.3818217 4.49702,5.727626 6.07958,14.848276 4.24381,24.371531 -1.12932,5.904874 -2.98789,9.095329 -6.02895,12.939067 -3.11449,3.945023 -6.83416,6.836689 -11.00454,8.54333 -5.41243,2.264384 -11.21964,3.434775 -17.08666,3.443665 l -0.0253,0.02532 z M 57.889033,62.639266 h 2.889134 L 86.332192,1.4078516 H 79.196714 L 61.732772,47.087064 44.848681,1.4053195 H 31.833651 L 40.050338,20.598691 29.949763,47.084532 13.040352,1.4053195 H 0.02532107 L 25.827493,62.036624 l 0.25321,0.602642 h 2.889135 L 43.291435,28.265912 Z M 204.94875,95.35409 c 0,8.91808 -7.63683,15.19771 -16.78281,15.19771 -9.19661,0 -16.70937,-6.27963 -16.70937,-15.200242 0,-8.918082 7.53808,-15.301524 16.70937,-15.301524 9.1713,0 16.78281,6.38091 16.78281,15.301524 z m 4.77555,0 c 0,-10.556355 -9.22193,-18.671758 -21.55836,-18.671758 -12.41238,0 -21.50771,8.216688 -21.50771,18.669226 0,10.452542 9.17129,18.567942 21.50771,18.567942 12.33643,0 21.55836,-8.01412 21.55836,-18.567942 z M 90.226573,82.035206 l -0.03292,-0.01266 1.463557,-2.977758 c -2.109245,-1.154641 -6.077057,-2.286493 -9.973969,-2.286493 -8.039441,0 -11.581858,4.750233 -11.581858,8.768687 0,4.95027 3.967811,7.639367 10.049933,10.753859 5.325021,2.73974 8.743366,4.848989 8.743366,8.768689 0,2.53717 -2.889135,5.50227 -8.140725,5.50227 -4.195701,0 -7.386156,-1.53193 -9.69797,-2.91193 l -1.759814,3.06385 c 2.185208,1.63321 5.730158,3.16514 11.759105,3.21578 6.786047,0.0506 12.111068,-2.88913 12.285784,-9.01937 0.177247,-4.5983 -3.190455,-8.366078 -10.576612,-11.784423 -3.995665,-1.833245 -8.140724,-4.145059 -8.140724,-7.614046 0,-2.962565 2.737208,-5.350342 7.335514,-5.350342 3.3044,0 5.758012,0.797613 8.234413,1.871227 l -0.01772,0.03798 z M 51.282765,101.27922 H 35.1735 l 8.140724,-16.430843 7.966009,16.435903 z M 42.964794,76.960864 24.34621,113.21557 h 4.848985 l 4.423591,-8.81933 h 19.319978 l 4.372949,8.81933 h 4.848985 L 43.792793,76.958332 H 42.964794 Z M 0,77.411579 V 113.21557 H 4.4463801 V 94.346311 H 18.317263 V 91.130535 H 4.4463801 V 80.627355 H 21.758396 V 77.411579 H 0.00253211 Z m 109.1718,16.934732 h 19.01865 v 18.869259 h 4.4236 V 77.411579 h -4.4236 V 91.130535 H 109.1718 V 77.411579 h -4.44891 v 35.803991 h 4.44891 z m 43.99283,-16.934732 h -4.42106 v 35.803991 h 4.42106 z M 303.44265,110.5518 c 9.14597,0 16.78281,-6.27963 16.78281,-15.200242 0,-8.918082 -7.61152,-15.301524 -16.78281,-15.301524 -9.17129,0 -16.70937,6.38091 -16.70937,15.301524 0,8.920612 7.51276,15.200242 16.70937,15.200242 z m 0,-33.869468 c 12.33643,0 21.55836,8.117935 21.55836,18.669226 0,10.553822 -9.22193,18.567942 -21.55836,18.567942 -12.33642,0 -21.50772,-8.1154 -21.50772,-18.567942 0,-10.452538 9.09533,-18.669226 21.50772,-18.669226 z m 37.13589,0.729247 h -4.47424 v 23.467571 c 0,6.53283 4.37295,13.06567 14.47353,13.06567 10.10057,0 14.59759,-6.53284 14.59759,-13.06567 V 77.411579 h -4.49702 v 23.267531 c 0,5.35034 -3.79309,9.99929 -10.04993,9.99929 -6.25684,0 -10.04993,-4.64895 -10.04993,-10.00182 z m 59.14495,3.215776 h -10.9311 v 32.588215 h -4.42106 V 80.627355 h -10.88047 v -3.215776 h 26.23263 z m 12.03511,32.940185 h 21.02915 v -3.21578 H 416.17966 V 77.76101 H 411.7586 V 113.565 Z m 52.43741,-3.56774 v 3.21577 H 441.40704 V 77.411579 h 21.83436 v 3.215776 h -17.4133 v 10.50318 h 14.0456 v 3.215776 H 445.8281 V 109.9998 Z M 489.06889,80.627355 H 500 v -3.215776 h -26.23263 v 3.215776 h 10.88046 v 32.588215 h 4.42106 z M 250.10128,77.411579 v 35.803991 h -4.3223 V 96.782198 L 225.70443,83.995057 v 29.220513 h -4.24634 V 77.310295 l 0.65328,-0.374752 23.66761,15.250881 V 77.411579 Z m 224.0687,-14.772313 h -2.88914 l -14.5976,-34.373354 -14.32159,34.373354 h -2.88914 L 413.44245,1.4078516 h 12.98971 l 16.88409,45.6792124 10.1259,-26.48584 -8.21669,-19.1933724 h 13.01503 L 475.12458,47.087064 492.58852,1.4078516 h 7.11016 z M 316.759,30.552404 v 24.5741 l 33.1149,0.126605 -1.38253,6.051736 H 305.05054 V 35.350747 l -12.53899,5.152838 0.076,-3.744986 12.46303,-5.099664 V 1.4078516 H 316.759 V 26.860592 l 13.29103,-5.454158 -0.076,3.744986 z M 136.30586,61.40613 110.37708,28.995159 l 3.9197,0.07596 c 10.72854,-0.22789 15.95481,-3.970344 15.95481,-11.457785 0,-1.255925 -0.37728,-2.714419 -1.10653,-4.322307 -1.53193,-3.669023 -4.4717,-5.727626 -9.01937,-6.3049465 -3.69434,-0.4785682 -8.518,-0.354495 -12.26046,0.3013208 V 61.332699 H 96.156768 V 1.4078516 H 118.6672 c 6.85948,0 12.58964,1.3799983 17.0107,4.0690961 4.57298,2.8157031 6.88479,6.5834783 6.88479,11.2071063 0,4.623627 -1.85856,8.290119 -5.52758,10.953895 -3.16514,2.311814 -7.38616,3.970344 -12.53647,4.975591 l 27.00999,28.693838 -15.17745,0.101284 h -0.0253 z" />
</svg>
