<svg
   version="1.1"
   id="svg1"
   width="1792.3533"
   height="328.29388"
   viewBox="0 0 1792.3533 328.29389"
   xmlns="http://www.w3.org/2000/svg"
   xmlns:svg="http://www.w3.org/2000/svg">
  <defs
     id="defs1">
    <clipPath
       clipPathUnits="userSpaceOnUse"
       id="clipPath3">
      <path
         d="M 0,281.084 H 1392.935 V 0 H 0 Z"
         transform="translate(-741.26122,-252.13171)"
         id="path3" />
    </clipPath>
    <clipPath
       clipPathUnits="userSpaceOnUse"
       id="clipPath5">
      <path
         d="M 0,281.084 H 1392.935 V 0 H 0 Z"
         transform="translate(-902.89795,-137.8427)"
         id="path5" />
    </clipPath>
    <clipPath
       clipPathUnits="userSpaceOnUse"
       id="clipPath7">
      <path
         d="M 0,281.084 H 1392.935 V 0 H 0 Z"
         transform="translate(-1317.2524,-137.31341)"
         id="path7" />
    </clipPath>
    <clipPath
       clipPathUnits="userSpaceOnUse"
       id="clipPath9">
      <path
         d="M 0,281.084 H 1392.935 V 0 H 0 Z"
         transform="translate(-999.64315,-152.4374)"
         id="path9" />
    </clipPath>
    <clipPath
       clipPathUnits="userSpaceOnUse"
       id="clipPath11">
      <path
         d="M 0,281.084 H 1392.935 V 0 H 0 Z"
         transform="translate(-635.52692,-139.7762)"
         id="path11" />
    </clipPath>
    <clipPath
       clipPathUnits="userSpaceOnUse"
       id="clipPath13">
      <path
         d="M 0,281.084 H 1392.935 V 0 H 0 Z"
         transform="translate(-1203.5874,-139.9628)"
         id="path13" />
    </clipPath>
    <clipPath
       clipPathUnits="userSpaceOnUse"
       id="clipPath15">
      <path
         d="M 0,281.084 H 1392.935 V 0 H 0 Z"
         transform="translate(-176.626,-232.53991)"
         id="path15" />
    </clipPath>
    <clipPath
       clipPathUnits="userSpaceOnUse"
       id="clipPath17">
      <path
         d="M 0,281.084 H 1392.935 V 0 H 0 Z"
         transform="translate(-158.1948,-159.63071)"
         id="path17" />
    </clipPath>
    <clipPath
       clipPathUnits="userSpaceOnUse"
       id="clipPath19">
      <path
         d="M 0,281.084 H 1392.935 V 0 H 0 Z"
         transform="translate(-278.16021,-232.53991)"
         id="path19" />
    </clipPath>
    <clipPath
       clipPathUnits="userSpaceOnUse"
       id="clipPath21">
      <path
         d="M 0,281.084 H 1392.935 V 0 H 0 Z"
         transform="translate(-86.049302,-242.02141)"
         id="path21" />
    </clipPath>
    <clipPath
       clipPathUnits="userSpaceOnUse"
       id="clipPath23">
      <path
         d="M 0,281.084 H 1392.935 V 0 H 0 Z"
         transform="translate(-107.43021,-209.92571)"
         id="path23" />
    </clipPath>
    <clipPath
       clipPathUnits="userSpaceOnUse"
       id="clipPath25">
      <path
         d="M 0,281.084 H 1392.935 V 0 H 0 Z"
         transform="translate(-117.832,-174.5126)"
         id="path25" />
    </clipPath>
    <clipPath
       clipPathUnits="userSpaceOnUse"
       id="clipPath27">
      <path
         d="M 0,281.084 H 1392.935 V 0 H 0 Z"
         transform="translate(-226.9702,-206.7372)"
         id="path27" />
    </clipPath>
    <clipPath
       clipPathUnits="userSpaceOnUse"
       id="clipPath29">
      <path
         d="M 0,281.084 H 1392.935 V 0 H 0 Z"
         transform="translate(-200.15971,-175.911)"
         id="path29" />
    </clipPath>
    <clipPath
       clipPathUnits="userSpaceOnUse"
       id="clipPath31">
      <path
         d="M 0,281.084 H 1392.935 V 0 H 0 Z"
         transform="translate(-188.48781,-42.726404)"
         id="path31" />
    </clipPath>
    <clipPath
       clipPathUnits="userSpaceOnUse"
       id="clipPath33">
      <path
         d="M 0,281.084 H 1392.935 V 0 H 0 Z"
         transform="translate(-158.50881,-126.954)"
         id="path33" />
    </clipPath>
    <clipPath
       clipPathUnits="userSpaceOnUse"
       id="clipPath35">
      <path
         d="M 0,281.084 H 1392.935 V 0 H 0 Z"
         transform="translate(-360.59771,-19.200103)"
         id="path35" />
    </clipPath>
    <clipPath
       clipPathUnits="userSpaceOnUse"
       id="clipPath37">
      <path
         d="M 0,281.084 H 1392.935 V 0 H 0 Z"
         transform="translate(-432.63671,-48.262604)"
         id="path37" />
    </clipPath>
    <clipPath
       clipPathUnits="userSpaceOnUse"
       id="clipPath39">
      <path
         d="M 0,281.084 H 1392.935 V 0 H 0 Z"
         transform="translate(-546.03811,-95.214705)"
         id="path39" />
    </clipPath>
    <clipPath
       clipPathUnits="userSpaceOnUse"
       id="clipPath41">
      <path
         d="M 0,281.084 H 1392.935 V 0 H 0 Z"
         transform="translate(-624.53762,-65.158102)"
         id="path41" />
    </clipPath>
    <clipPath
       clipPathUnits="userSpaceOnUse"
       id="clipPath43">
      <path
         d="M 0,281.084 H 1392.935 V 0 H 0 Z"
         id="path43" />
    </clipPath>
    <clipPath
       clipPathUnits="userSpaceOnUse"
       id="clipPath45">
      <path
         d="M 0,281.084 H 1392.935 V 0 H 0 Z"
         transform="translate(-701.04542,-62.670802)"
         id="path45" />
    </clipPath>
    <clipPath
       clipPathUnits="userSpaceOnUse"
       id="clipPath47">
      <path
         d="M 0,281.084 H 1392.935 V 0 H 0 Z"
         transform="translate(-862.64012,-106.3944)"
         id="path47" />
    </clipPath>
    <clipPath
       clipPathUnits="userSpaceOnUse"
       id="clipPath49">
      <path
         d="M 0,281.084 H 1392.935 V 0 H 0 Z"
         transform="translate(-928.59235,-62.670802)"
         id="path49" />
    </clipPath>
    <clipPath
       clipPathUnits="userSpaceOnUse"
       id="clipPath51">
      <path
         d="M 0,281.084 H 1392.935 V 0 H 0 Z"
         transform="translate(-1029.4507,-106.3944)"
         id="path51" />
    </clipPath>
    <clipPath
       clipPathUnits="userSpaceOnUse"
       id="clipPath53">
      <path
         d="M 0,281.084 H 1392.935 V 0 H 0 Z"
         transform="translate(-1164.7104,-98.570205)"
         id="path53" />
    </clipPath>
    <clipPath
       clipPathUnits="userSpaceOnUse"
       id="clipPath55">
      <path
         d="M 0,281.084 H 1392.935 V 0 H 0 Z"
         transform="translate(-1228.4283,-19.200103)"
         id="path55" />
    </clipPath>
    <clipPath
       clipPathUnits="userSpaceOnUse"
       id="clipPath57">
      <path
         d="M 0,281.084 H 1392.935 V 0 H 0 Z"
         transform="translate(-1297.3629,-27.024298)"
         id="path57" />
    </clipPath>
    <clipPath
       clipPathUnits="userSpaceOnUse"
       id="clipPath59">
      <path
         d="M 0,281.084 H 1392.935 V 0 H 0 Z"
         transform="translate(-1368.7818,-98.570205)"
         id="path59" />
    </clipPath>
  </defs>
  <g
     id="layer-MC0"
     transform="translate(-146.17454,572.59313)">
    <path
       id="path1"
       d="m 757.7036,-404.1046 h -7.764 l -39.29066,-92.46667 -38.51467,92.46667 h -7.76133 l -0.67334,-1.59067 -69.41733,-163.12933 h 35.008 l 45.43333,122.876 27.18667,-71.20667 -22.06133,-51.66933 h 35.01466 l 45.42934,122.88 46.98133,-122.88 h 19.132 z"
       style="fill:#000000;fill-opacity:1;fill-rule:nonzero;stroke:none;stroke-width:1.33333" />
    <path
       id="path2"
       d="m 0,0 c -1.988,0 -4.097,-0.099 -6.34,-0.312 -15.929,-1.504 -25.374,-12.033 -29.585,-18.172 -5.568,-8.113 -8.271,-19.161 -8.271,-33.769 0,-14.623 3.273,-26.978 9.733,-36.73 3.267,-4.86 7.747,-8.708 13.31,-11.425 v -0.002 c 5.597,-2.74 12.178,-4.129 19.56,-4.129 7.335,0 13.947,1.639 19.653,4.871 5.711,3.232 10.211,7.517 13.372,12.737 6.625,10.72 9.978,22.381 9.978,34.678 0,15.16 -3.457,27.49 -10.275,36.64 C 25.084,-7.418 17.062,0 0,0 m -3.324,-113.612 c -5.267,0 -10.579,0.465 -15.928,1.393 -17.894,3.113 -29.597,9.507 -39.13,21.388 -7.71,9.608 -14.029,29.578 -10.547,47.653 1.803,9.356 4.998,17.659 9.499,24.682 4.514,7.041 9.8,12.601 15.707,16.533 5.841,3.885 12.403,6.907 19.501,8.985 12.928,3.615 26.477,4.219 40.29,1.822 17.563,-3.056 31.319,-10.788 40.889,-22.984 9.068,-11.551 12.266,-29.936 8.558,-49.175 -2.296,-11.914 -6.045,-18.361 -12.165,-26.091 -6.31,-7.963 -13.779,-13.77 -22.202,-17.257 -11.149,-4.63 -22.691,-6.949 -34.472,-6.949"
       style="fill:#000000;fill-opacity:1;fill-rule:nonzero;stroke:none"
       transform="matrix(1.3333333,0,0,-1.3333333,1101.8337,-557.19566)"
       clip-path="url(#clipPath3)" />
    <path
       id="path4"
       d="m 0,0 c -21.1,0 -39.141,5.113 -53.628,15.195 -14.705,10.237 -22.162,25.103 -22.162,44.19 0,11.126 2.453,21.196 7.285,29.929 4.834,8.729 11.282,15.685 19.176,20.671 24.724,15.864 55.04,19.51 88.308,9.765 l 1.67,-0.489 -2.82,-16.829 -2.554,1.829 c -2.388,1.713 -7.055,3.767 -13.487,5.945 -8.62,2.729 -17.618,3.271 -29.132,1.754 -14.613,-1.922 -25.472,-7.182 -32.268,-15.637 -7.257,-9.024 -10.935,-20.5 -10.935,-34.111 0,-16.742 4.195,-27.691 14.036,-36.615 9.765,-8.853 23.882,-13.533 40.822,-13.533 16.259,0 23.808,1.065 36.46,7.374 l 2.837,1.415 V 6.572 L 42.289,6.115 C 30.593,2.06 16.363,0 0,0"
       style="fill:#000000;fill-opacity:1;fill-rule:nonzero;stroke:none"
       transform="matrix(1.3333333,0,0,-1.3333333,1317.3494,-404.81033)"
       clip-path="url(#clipPath5)" />
    <path
       id="path6"
       d="M 0,0 H -5.818 L -35.284,69.35 -64.173,0 h -5.822 l -52.565,123.54 h 26.252 l 34.073,-92.157 20.395,53.405 -16.552,38.752 h 26.264 L 1.947,31.38 37.183,123.54 h 14.346 z"
       style="fill:#000000;fill-opacity:1;fill-rule:nonzero;stroke:none"
       transform="matrix(1.3333333,0,0,-1.3333333,1869.822,-404.1046)"
       clip-path="url(#clipPath7)" />
    <path
       id="path8"
       d="M 0,0 V 49.577 L 26.657,60.501 26.822,68.048 0,57.055 v 51.362 H -23.636 V 47.368 l -25.118,-10.294 -0.166,-7.547 25.284,10.364 v -52.367 h 87.651 l 2.793,12.259 z"
       style="fill:#000000;fill-opacity:1;fill-rule:nonzero;stroke:none"
       transform="matrix(1.3333333,0,0,-1.3333333,1446.343,-424.26993)"
       clip-path="url(#clipPath9)" />
    <path
       id="path10"
       d="m 0,0 -52.322,65.411 7.884,-0.144 c 21.623,0.441 32.172,7.999 32.172,23.107 0,2.533 -0.752,5.471 -2.237,8.728 -3.087,7.419 -9.025,11.563 -18.181,12.735 -7.46,0.954 -17.179,0.711 -24.751,-0.588 V 0.186 h -23.636 v 120.892 h 45.417 c 13.85,0 25.397,-2.774 34.319,-8.241 9.233,-5.657 13.912,-13.264 13.912,-22.61 0,-9.281 -3.759,-16.71 -11.17,-22.081 C -5,63.503 -13.499,60.131 -23.896,58.099 L 30.615,0.218 Z"
       style="fill:#000000;fill-opacity:1;fill-rule:nonzero;stroke:none"
       transform="matrix(1.3333333,0,0,-1.3333333,960.85467,-407.38833)"
       clip-path="url(#clipPath11)" />
    <path
       id="path12"
       d="m 0,0 h -26.33 l -15.092,31.803 h -49.439 l 4.229,10.636 h 40.16 L -69.965,93.091 -113.575,0 h -15.274 l 61.702,123.717 h 5.444 z"
       style="fill:#000000;fill-opacity:1;fill-rule:nonzero;stroke:none"
       transform="matrix(1.3333333,0,0,-1.3333333,1718.2687,-407.63713)"
       clip-path="url(#clipPath13)" />
    <path
       id="path14"
       d="m 0,0 2.844,-7.111 c 6.899,9.91 16.189,20.045 28.85,29.15 -13.33,0.116 -26.363,-5.1 -36.505,-13.663 -4.009,4.988 -10.371,11.42 -13.981,11.588 -3.614,-0.168 -9.975,-6.6 -13.985,-11.588 -10.14,8.563 -23.173,13.779 -36.506,13.663 12.925,-9.292 22.328,-19.661 29.254,-29.766 L -36.865,0 Z"
       style="fill:#000000;fill-opacity:1;fill-rule:nonzero;stroke:none"
       transform="matrix(1.3333333,0,0,-1.3333333,348.9868,-531.07326)"
       clip-path="url(#clipPath15)" />
    <path
       id="path16"
       d="m 0,0 v -0.008 l 53.882,-140.395 v -0.025 -0.003 L 133.226,59.306 H 99.101 L 53.884,-52.375 v 0.002 0.008 L 9.221,59.306 H 0 -9.226 L -53.933,-52.397 v 0.024 -0.002 L -99.554,59.306 h -34.124 l 79.745,-199.737 v 0.003 l 0.002,0.005 z"
       style="fill:#000000;fill-opacity:1;fill-rule:nonzero;stroke:none"
       transform="matrix(1.3333333,0,0,-1.3333333,324.41187,-433.861)"
       clip-path="url(#clipPath17)" />
    <path
       id="path18"
       d="m 0,0 c 0,1.238 -0.027,2.481 -0.17,3.732 -1.189,10.369 -7.497,20.228 -17.999,23.486 -13.247,4.106 -28.478,-3.657 -31.206,-17.737 -0.7,-3.612 0.004,-7.037 2.031,-10.17 3.102,-4.794 9.07,-6.173 14.002,-3.63 l 10e-4,-0.001 c 2.241,1.056 3.632,2.779 4.501,4.32 h 0.015 c 0.016,0.027 0.022,0.06 0.038,0.088 0.509,0.919 0.838,1.76 1.021,2.346 0.018,0.06 0.034,0.121 0.051,0.181 0.111,0.38 0.17,0.647 0.17,0.647 l -0.058,0.037 c 0.142,0.641 0.297,1.28 0.319,1.95 0.101,2.987 -1.078,5.925 -1.108,8.96 -0.054,5.279 5.954,7.853 10.684,6.055 6.837,-2.6 10.691,-9.206 11.594,-16.103 C -5.926,2.728 -5.899,1.347 -5.963,0 Z"
       style="fill:#000000;fill-opacity:1;fill-rule:nonzero;stroke:none"
       transform="matrix(1.3333333,0,0,-1.3333333,484.36574,-531.07326)"
       clip-path="url(#clipPath19)" />
    <path
       id="path20"
       d="M 0,0 C -2.728,14.079 -17.959,21.843 -31.204,17.735 -41.706,14.478 -48.016,4.619 -49.206,-5.749 -49.348,-7 -49.373,-8.243 -49.373,-9.482 h 5.961 c -0.062,1.347 -0.037,2.728 0.153,4.161 0.904,6.897 4.759,13.503 11.592,16.103 4.73,1.798 10.74,-0.775 10.687,-6.052 -0.033,-3.039 -1.212,-5.976 -1.111,-8.962 0.039,-1.163 0.322,-2.266 0.709,-3.331 l -0.05,-0.029 c 0,0 0.234,-0.742 0.826,-1.756 0.024,-0.043 0.034,-0.091 0.059,-0.134 h 0.026 c 0.745,-1.24 2.025,-2.832 4.124,-4.063 0.116,-0.091 0.23,-0.185 0.365,-0.256 0.262,-0.135 0.535,-0.214 0.802,-0.327 0.158,-0.071 0.286,-0.159 0.451,-0.226 l 0.016,0.036 c 4.652,-1.731 9.89,-0.245 12.734,4.146 C -0.002,-7.037 0.702,-3.612 0,0"
       style="fill:#000000;fill-opacity:1;fill-rule:nonzero;stroke:none"
       transform="matrix(1.3333333,0,0,-1.3333333,228.21787,-543.71526)"
       clip-path="url(#clipPath21)" />
    <path
       id="path22"
       d="m 0,0 c -6.39,-1.172 -11.977,-4.242 -18.588,-3.188 -4.308,0.684 -8.049,2.62 -11.54,5.044 2.474,-4.744 6.995,-7.96 11.422,-10.708 10.034,-6.232 20.068,-8.613 30.03,-15.372 0.975,-0.662 1.895,-1.364 2.816,-2.065 l 7.345,17.937 C 16.384,-1.591 8.344,1.534 0,0"
       style="fill:#000000;fill-opacity:1;fill-rule:nonzero;stroke:none"
       transform="matrix(1.3333333,0,0,-1.3333333,256.72574,-500.921)"
       clip-path="url(#clipPath23)" />
    <path
       id="path24"
       d="M 0,0 C -0.731,0.453 -1.438,0.958 -2.179,1.398 -12.668,7.616 -24.086,12.432 -36.68,17.903 V 17.902 L -14.702,-35.9 0,-0.001 v 0 z"
       style="fill:#000000;fill-opacity:1;fill-rule:nonzero;stroke:none"
       transform="matrix(1.3333333,0,0,-1.3333333,270.5948,-453.70353)"
       clip-path="url(#clipPath25)" />
    <path
       id="path26"
       d="m 0,0 c -6.611,-1.054 -12.198,2.017 -18.588,3.188 -8.344,1.535 -16.383,-1.59 -21.485,-8.351 l 7.344,-17.938 c 0.921,0.702 1.842,1.404 2.817,2.066 9.963,6.759 19.996,9.139 30.03,15.372 C 4.545,-2.915 9.066,0.301 11.541,5.045 8.049,2.62 4.309,0.685 0,0"
       style="fill:#000000;fill-opacity:1;fill-rule:nonzero;stroke:none"
       transform="matrix(1.3333333,0,0,-1.3333333,416.1124,-496.66966)"
       clip-path="url(#clipPath27)" />
    <path
       id="path28"
       d="m 0,0 c -0.741,-0.44 -1.448,-0.945 -2.179,-1.398 v -0.001 0 l 14.702,-35.9 21.978,53.803 v 10e-4 C 21.907,11.033 10.489,6.218 0,0"
       style="fill:#000000;fill-opacity:1;fill-rule:nonzero;stroke:none"
       transform="matrix(1.3333333,0,0,-1.3333333,380.36507,-455.56806)"
       clip-path="url(#clipPath29)" />
    <path
       id="path30"
       d="m 0,0 c -26.548,29.541 -28.397,61.344 -28.41,61.45 -0.512,4.528 -0.799,8.993 -1.034,13.471 h -0.004 l -0.531,9.34 h -0.674 -0.674 l -0.371,-6.51 -0.209,-3.78 v 0 c 0,-0.012 -0.001,-0.023 -0.002,-0.033 l -0.036,-0.642 -0.005,10e-4 C -32.173,69.36 -32.443,65.428 -32.894,61.45 -32.906,61.344 -34.687,30.49 -60.109,1.332 l -6.579,-17.141 c 8.068,2.239 15.64,6.304 22.052,11.719 4.011,-4.994 10.371,-11.423 13.983,-11.588 3.614,0.165 9.975,6.594 13.986,11.588 6.606,-5.582 14.453,-9.707 22.8,-11.89 z"
       style="fill:#000000;fill-opacity:1;fill-rule:nonzero;stroke:none"
       transform="matrix(1.3333333,0,0,-1.3333333,364.80254,-277.9886)"
       clip-path="url(#clipPath31)" />
    <path
       id="path32"
       d="M 0,0 C 0,0 -0.674,2.21 -0.674,2.186 -0.674,2.161 -1.348,0 -1.348,0 l 0.715,-0.348 z"
       style="fill:#000000;fill-opacity:1;fill-rule:nonzero;stroke:none"
       transform="matrix(1.3333333,0,0,-1.3333333,324.83054,-390.29206)"
       clip-path="url(#clipPath33)" />
    <path
       id="path34"
       d="M 0,0 V 87.194 H 45.708 V 79.37 H 9.315 V 53.783 H 38.504 V 45.958 H 9.315 V 0 Z"
       style="fill:#000000;fill-opacity:1;fill-rule:nonzero;stroke:none"
       transform="matrix(1.3333333,0,0,-1.3333333,594.2824,-246.6202)"
       clip-path="url(#clipPath35)" />
    <path
       id="path36"
       d="M 0,0 H 33.908 L 17.139,39.995 Z m -22.732,-29.062 39.128,88.314 h 1.737 L 56.761,-29.062 H 46.579 L 37.387,-7.577 H -3.231 l -9.316,-21.485 z"
       style="fill:#000000;fill-opacity:1;fill-rule:nonzero;stroke:none"
       transform="matrix(1.3333333,0,0,-1.3333333,690.3344,-285.3702)"
       clip-path="url(#clipPath37)" />
    <path
       id="path38"
       d="m 0,0 c -2.652,1.323 -5.343,2.425 -8.074,3.292 -2.732,0.867 -5.84,1.304 -9.315,1.304 -4.887,0 -8.676,-1.266 -11.366,-3.785 -2.691,-2.533 -4.036,-5.616 -4.036,-9.255 0,-2.153 0.497,-4.103 1.491,-5.837 0.99,-1.74 2.298,-3.374 3.912,-4.906 1.614,-1.539 3.434,-2.944 5.463,-4.222 2.029,-1.285 4.118,-2.469 6.274,-3.545 7.782,-4.223 13.477,-8.653 17.079,-13.287 3.602,-4.641 5.32,-9.775 5.153,-15.403 -0.083,-3.728 -0.808,-6.975 -2.172,-9.748 -1.367,-2.779 -3.212,-5.077 -5.529,-6.894 -2.317,-1.823 -5.03,-3.171 -8.135,-4.038 -3.105,-0.867 -6.438,-1.305 -9.998,-1.305 -6.378,0.083 -11.512,0.912 -15.402,2.482 -3.893,1.576 -6.998,3.355 -9.315,5.342 l 3.725,7.451 c 2.402,-1.658 5.28,-3.247 8.632,-4.779 3.355,-1.532 7.267,-2.298 11.739,-2.298 2.731,0 5.175,0.411 7.328,1.241 2.152,0.83 3.953,1.886 5.402,3.165 1.45,1.285 2.548,2.715 3.292,4.286 0.747,1.576 1.118,3.146 1.118,4.722 0,2.4 -0.434,4.551 -1.305,6.457 -0.867,1.906 -2.111,3.684 -3.725,5.343 -1.614,1.658 -3.539,3.247 -5.777,4.779 -2.234,1.532 -4.763,3.127 -7.577,4.786 -3.228,1.906 -6.128,3.766 -8.694,5.59 -2.567,1.817 -4.78,3.766 -6.644,5.836 -1.864,2.071 -3.292,4.305 -4.286,6.705 -0.994,2.405 -1.49,5.095 -1.49,8.077 0,2.481 0.474,4.988 1.43,7.513 0.949,2.527 2.421,4.799 4.409,6.831 1.988,2.026 4.511,3.704 7.574,5.033 3.064,1.323 6.707,1.988 10.933,1.988 4.14,0 8.112,-0.583 11.923,-1.741 3.808,-1.159 6.83,-2.444 9.068,-3.849 z"
       style="fill:#000000;fill-opacity:1;fill-rule:nonzero;stroke:none"
       transform="matrix(1.3333333,0,0,-1.3333333,841.53627,-347.973)"
       clip-path="url(#clipPath39)" />
    <path
       id="path40"
       d="m 0,0 h -39.995 v -45.958 h -9.315 v 87.194 h 9.315 V 7.825 H 0 V 41.236 H 9.315 V -45.958 H 0 Z"
       style="fill:#000000;fill-opacity:1;fill-rule:nonzero;stroke:none"
       transform="matrix(1.3333333,0,0,-1.3333333,946.20227,-307.89753)"
       clip-path="url(#clipPath41)" />
    <path
       id="path42"
       d="m 660.807,106.394 h 9.315 V 19.2 h -9.315 z"
       style="fill:#000000;fill-opacity:1;fill-rule:nonzero;stroke:none"
       transform="matrix(1.3333333,0,0,-1.3333333,113.48547,-221.02006)"
       clip-path="url(#clipPath43)" />
    <path
       id="path44"
       d="m 0,0 c 0,-5.463 0.935,-10.451 2.795,-14.965 1.864,-4.514 4.368,-8.407 7.515,-11.673 3.145,-3.273 6.852,-5.818 11.119,-7.64 4.263,-1.824 8.837,-2.736 13.723,-2.736 4.802,0 9.334,0.912 13.602,2.736 4.263,1.822 8.011,4.367 11.239,7.64 3.232,3.266 5.777,7.159 7.641,11.673 1.861,4.514 2.795,9.502 2.795,14.965 0,5.47 -0.934,10.477 -2.795,15.034 -1.864,4.552 -4.409,8.464 -7.641,11.737 -3.228,3.266 -6.976,5.836 -11.239,7.698 -4.268,1.867 -8.8,2.798 -13.602,2.798 -4.886,0 -9.46,-0.931 -13.723,-2.798 C 17.162,32.607 13.455,30.037 10.31,26.771 7.163,23.498 4.659,19.586 2.795,15.034 0.935,10.477 0,5.47 0,0 m -10.059,0 c 0,6.463 1.137,12.445 3.416,17.953 2.275,5.501 5.421,10.306 9.438,14.407 4.017,4.096 8.777,7.306 14.285,9.622 5.507,2.318 11.53,3.483 18.072,3.483 6.457,0 12.462,-1.165 18.01,-3.483 5.546,-2.316 10.351,-5.526 14.408,-9.622 4.058,-4.101 7.223,-8.906 9.502,-14.407 2.276,-5.508 3.415,-11.49 3.415,-17.953 0,-6.375 -1.139,-12.313 -3.415,-17.82 -2.279,-5.507 -5.444,-10.293 -9.502,-14.344 -4.057,-4.065 -8.862,-7.249 -14.408,-9.565 -5.548,-2.318 -11.553,-3.482 -18.01,-3.482 -6.542,0 -12.565,1.164 -18.072,3.482 -5.508,2.316 -10.268,5.5 -14.285,9.565 -4.017,4.051 -7.163,8.837 -9.438,14.344 -2.279,5.507 -3.416,11.445 -3.416,17.82"
       style="fill:#000000;fill-opacity:1;fill-rule:nonzero;stroke:none"
       transform="matrix(1.3333333,0,0,-1.3333333,1048.2127,-304.58113)"
       clip-path="url(#clipPath45)" />
    <path
       id="path46"
       d="m 0,0 v -87.194 h -9.068 v 39.995 l -42.23,31.177 v -71.172 h -8.941 V 0.247 l 1.364,0.873 49.807,-37.14 V 0 Z"
       style="fill:#000000;fill-opacity:1;fill-rule:nonzero;stroke:none"
       transform="matrix(1.3333333,0,0,-1.3333333,1263.6723,-362.87926)"
       clip-path="url(#clipPath47)" />
    <path
       id="path48"
       d="m 0,0 c 0,-5.463 0.934,-10.451 2.795,-14.965 1.864,-4.514 4.368,-8.407 7.515,-11.673 3.145,-3.273 6.852,-5.818 11.119,-7.64 4.263,-1.824 8.837,-2.736 13.723,-2.736 4.802,0 9.334,0.912 13.601,2.736 4.264,1.822 8.012,4.367 11.24,7.64 3.232,3.266 5.777,7.159 7.641,11.673 1.861,4.514 2.795,9.502 2.795,14.965 0,5.47 -0.934,10.477 -2.795,15.034 -1.864,4.552 -4.409,8.464 -7.641,11.737 -3.228,3.266 -6.976,5.836 -11.24,7.698 -4.267,1.867 -8.799,2.798 -13.601,2.798 -4.886,0 -9.46,-0.931 -13.723,-2.798 C 17.162,32.607 13.455,30.037 10.31,26.771 7.163,23.498 4.659,19.586 2.795,15.034 0.934,10.477 0,5.47 0,0 m -10.059,0 c 0,6.463 1.137,12.445 3.415,17.953 2.277,5.501 5.422,10.306 9.439,14.407 4.017,4.096 8.777,7.306 14.284,9.622 5.508,2.318 11.531,3.483 18.073,3.483 6.457,0 12.462,-1.165 18.01,-3.483 5.546,-2.316 10.351,-5.526 14.408,-9.622 4.058,-4.101 7.223,-8.906 9.502,-14.407 2.276,-5.508 3.415,-11.49 3.415,-17.953 0,-6.375 -1.139,-12.313 -3.415,-17.82 -2.279,-5.507 -5.444,-10.293 -9.502,-14.344 -4.057,-4.065 -8.862,-7.249 -14.408,-9.565 -5.548,-2.318 -11.553,-3.482 -18.01,-3.482 -6.542,0 -12.565,1.164 -18.073,3.482 -5.507,2.316 -10.267,5.5 -14.284,9.565 -4.017,4.051 -7.162,8.837 -9.439,14.344 -2.278,5.507 -3.415,11.445 -3.415,17.82"
       style="fill:#000000;fill-opacity:1;fill-rule:nonzero;stroke:none"
       transform="matrix(1.3333333,0,0,-1.3333333,1351.6086,-304.58113)"
       clip-path="url(#clipPath49)" />
    <path
       id="path50"
       d="m 0,0 h 9.438 v -56.638 c 0,-3.228 0.475,-6.317 1.428,-9.255 0.952,-2.937 2.339,-5.526 4.162,-7.76 1.82,-2.235 4.035,-4.02 6.644,-5.343 2.608,-1.323 5.57,-1.988 8.881,-1.988 3.311,0 6.273,0.665 8.882,1.988 2.608,1.323 4.824,3.108 6.643,5.343 1.823,2.234 3.21,4.823 4.162,7.76 0.95,2.938 1.428,6.027 1.428,9.255 V 0 h 9.441 v -57.138 c 0,-3.975 -0.6,-7.868 -1.8,-11.673 -1.203,-3.811 -3.064,-7.204 -5.59,-10.185 -2.529,-2.982 -5.713,-5.381 -9.565,-7.204 -3.849,-1.823 -8.425,-2.735 -13.724,-2.735 -5.302,0 -9.857,0.912 -13.664,2.735 -3.808,1.823 -6.954,4.222 -9.439,7.204 C 4.843,-76.015 3,-72.622 1.801,-68.811 0.598,-65.006 0,-61.113 0,-57.138 Z"
       style="fill:#000000;fill-opacity:1;fill-rule:nonzero;stroke:none"
       transform="matrix(1.3333333,0,0,-1.3333333,1486.0864,-362.87926)"
       clip-path="url(#clipPath51)" />
    <path
       id="path52"
       d="m 0,0 h -22.979 v -79.37 h -9.315 V 0 H -55.149 V 7.824 H 0 Z"
       style="fill:#000000;fill-opacity:1;fill-rule:nonzero;stroke:none"
       transform="matrix(1.3333333,0,0,-1.3333333,1666.4327,-352.447)"
       clip-path="url(#clipPath53)" />
    <path
       id="path54"
       d="m 0,0 h -44.217 v 87.194 h 9.315 V 7.824 H 0 Z"
       style="fill:#000000;fill-opacity:1;fill-rule:nonzero;stroke:none"
       transform="matrix(1.3333333,0,0,-1.3333333,1751.3898,-246.6202)"
       clip-path="url(#clipPath55)" />
    <path
       id="path56"
       d="M 0,0 V -7.824 H -47.942 V 79.37 h 45.954 v -7.824 h -36.64 V 45.959 h 29.56 v -7.825 h -29.56 V 0 Z"
       style="fill:#000000;fill-opacity:1;fill-rule:nonzero;stroke:none"
       transform="matrix(1.3333333,0,0,-1.3333333,1843.3026,-257.05246)"
       clip-path="url(#clipPath57)" />
    <path
       id="path58"
       d="m 0,0 h -22.979 v -79.37 h -9.315 V 0 H -55.15 V 7.824 H 0 Z"
       style="fill:#000000;fill-opacity:1;fill-rule:nonzero;stroke:none"
       transform="matrix(1.3333333,0,0,-1.3333333,1938.5278,-352.447)"
       clip-path="url(#clipPath59)" />
  </g>
</svg>
