<svg id="FOCUSMALL" width="500" height="166.28346" viewBox="0 0 500 166.28346" version="1.1" xml:space="preserve" xmlns:xlink="http://www.w3.org/1999/xlink" xmlns="http://www.w3.org/2000/svg" xmlns:svg="http://www.w3.org/2000/svg">
	<path id="FOCUSMALL" style="fill:#000000;stroke:#000000;stroke-width:0" d="m 398.82673,165.74938 c -4.42958,-0.88267 -7.33584,-2.96814 -8.89936,-6.38594 -1.16023,-2.53616 -1.15432,-8.05698 0.0115,-10.64586 2.45492,-5.45218 6.09114,-6.53737 21.96686,-6.55578 l 7.89567,-0.009 -0.007,-3.81476 c -0.009,-4.40681 -0.53008,-5.9835 -2.56896,-7.77362 -2.17113,-1.90629 -4.80708,-2.67444 -9.84344,-2.86848 -4.98701,-0.19214 -7.50116,0.16375 -10.74399,1.52092 -3.41637,1.4298 -3.1896,1.47019 -4.04237,-0.71985 l -0.76933,-1.97568 1.65648,-0.83879 c 3.12445,-1.58215 5.3244,-2.04109 10.70546,-2.23331 11.40473,-0.40741 18.1812,2.58648 20.04284,8.85504 0.77635,2.61441 0.78827,23.78489 0.0148,26.38941 -1.09361,3.68267 -4.30178,6.05689 -9.53802,7.05876 -3.43744,0.65768 -12.57374,0.65601 -15.88033,-0.003 z m 14.00668,-4.42427 c 3.13785,-0.51386 5.07517,-1.58996 5.99476,-3.32981 0.6661,-1.26014 0.79641,-2.17235 0.90979,-6.37002 l 0.13234,-4.89927 -10.41417,0.10863 c -10.06523,0.105 -10.47018,0.13624 -12.08637,0.93226 -2.50418,1.23338 -3.29587,2.74034 -3.29587,6.27362 0,4.28969 1.38803,6.18797 5.19872,7.10988 2.2628,0.54742 10.627,0.65518 13.5608,0.17471 z m 29.50166,4.62797 c -3.33496,-0.8067 -6.10362,-3.08179 -7.70336,-6.33008 l -1.16818,-2.3721 -0.10507,-16.5981 -0.10507,-16.5981 h 2.50039 2.50039 v 15.80275 c 0,13.46068 0.0814,15.99755 0.5492,17.11723 0.73273,1.75353 1.81386,2.87694 3.5317,3.66979 1.27436,0.58816 2.46223,0.65592 11.62172,0.66291 l 10.20228,0.008 v 2.48404 2.48404 l -10.37971,-0.0363 c -5.70883,-0.02 -10.85876,-0.1522 -11.44429,-0.29384 z m 35.48617,-0.16623 c -3.26547,-1.03274 -5.89874,-3.24831 -7.3412,-6.17683 -0.81822,-1.66118 -0.8209,-1.71536 -0.91931,-18.61068 l -0.0986,-16.94464 h 2.31649 2.31658 l 0.002,15.34776 c 0.002,16.24883 0.0912,17.27758 1.67728,19.37859 1.79103,2.3724 2.59705,2.51761 14.02341,2.52633 L 500,161.31514 v 2.48404 2.48404 l -10.3797,-0.0237 c -7.32531,-0.0168 -10.79741,-0.15585 -11.79915,-0.47265 z M 332.86026,144.44822 v -21.12529 l 20.49326,0.0997 20.49326,0.0997 1.86672,0.84373 c 2.3991,1.08437 5.36598,4.25102 6.20813,6.62622 0.55956,1.57827 0.62258,3.42137 0.62101,18.1688 l -0.002,16.41236 h -2.29292 -2.29292 l -0.1024,-16.0575 c -0.10156,-15.91857 -0.10941,-16.07053 -0.90785,-17.56525 -0.44302,-0.82927 -1.46861,-1.94708 -2.27925,-2.48403 -1.45419,-0.96328 -1.56037,-0.97774 -7.97736,-1.08693 l -6.50358,-0.11066 v 18.65219 18.65218 h -2.48403 -2.48403 v -18.63025 -18.63023 h -8.87154 -8.87155 v 18.63023 18.63025 h -2.3066 -2.3066 z M 133.02435,103.4472 C 122.91726,101.96266 112.88078,97.082718 105.25634,89.945829 93.98033,79.390949 88.14184,65.028839 88.829661,49.53825 c 0.35403,-7.972863 2.113645,-14.576145 5.7507,-21.580874 7.242869,-13.949362 20.142929,-23.7270158 35.764419,-27.10789553 4.85153,-1.04998387 15.45385,-1.14525129 20.21233,-0.18161708 6.92414,1.40219331 13.48169,4.13421221 19.46841,8.11089901 4.28717,2.8477506 10.75295,9.2968166 13.74331,13.7078486 13.99449,20.642792 11.59797,48.057638 -5.74848,65.759994 -4.28967,4.377664 -8.50753,7.414152 -14.25167,10.259902 -7.96544,3.946253 -14.13024,5.348623 -23.20121,5.277813 -3.04848,-0.0238 -6.44286,-0.1755 -7.54312,-0.33712 z m 15.48583,-24.292631 c 9.97734,-2.891291 17.25885,-10.417675 19.90257,-20.571847 0.95988,-3.686588 0.88438,-10.109426 -0.16265,-13.839605 -2.30549,-8.213411 -7.4277,-14.498002 -14.77241,-18.124789 -4.30861,-2.127572 -7.88708,-2.989479 -12.41175,-2.989479 -4.37995,0 -6.96212,0.445841 -10.52811,1.817862 -6.69053,2.574198 -12.63465,8.168841 -15.57945,14.663475 -1.89204,4.172665 -2.57145,7.893703 -2.36861,12.97218 0.26088,6.531432 1.85942,11.003807 5.7787,16.167562 3.99442,5.262653 10.46195,9.306006 16.65642,10.413119 1.17104,0.209294 2.52838,0.450887 3.01632,0.536867 2.02262,0.356423 7.52917,-0.193409 10.46897,-1.045345 z M 247.3386,102.25234 C 234.88489,100.44816 224.7012,95.406865 216.53189,87.002011 207.85553,78.075402 203.27781,67.231282 202.72343,54.291299 201.63408,28.862171 217.93711,7.9000547 243.16167,2.2965675 c 4.14181,-0.9200713 17.58201,-1.32802355 23.33946,-0.7084111 7.00667,0.7540533 17.68532,3.0023883 22.40221,4.7166843 l 1.28794,0.4680847 -4.26564,10.4684146 c -2.34606,5.75763 -4.30731,10.519337 -4.35823,10.581577 -0.051,0.06223 -2.14433,-0.447163 -4.65193,-1.131991 -9.28536,-2.535902 -14.31182,-3.223927 -21.59055,-2.955286 -6.21341,0.22933 -8.78366,0.784143 -12.94109,2.793464 -2.42165,1.170397 -3.59528,2.043633 -6.06231,4.51068 -2.53754,2.537501 -3.34235,3.634143 -4.71874,6.429575 -2.49595,5.069125 -3.15374,8.007832 -3.1773,14.193561 -0.0176,4.598101 0.0822,5.485255 0.93826,8.339248 3.16917,10.566699 9.58071,17.144254 19.23747,19.735566 3.81948,1.024941 12.98249,1.119764 17.70963,0.183262 3.74897,-0.742732 8.76462,-2.30709 12.64786,-3.944832 l 2.78151,-1.173077 4.80061,9.394353 c 2.6403,5.166896 4.80061,9.472137 4.80061,9.567201 0,0.302935 -5.87841,2.940509 -9.37213,4.205212 -4.45056,1.611026 -9.35856,2.875427 -14.58103,3.756397 -5.57558,0.94053 -15.40811,1.19853 -20.04968,0.52609 z m 92.97375,0.14827 c -6.12654,-0.74522 -12.12527,-2.506002 -17.21079,-5.051774 -3.77549,-1.889971 -5.55322,-3.132754 -8.46752,-5.919639 -5.90576,-5.647439 -8.9377,-12.166968 -9.8292,-21.136041 -0.21357,-2.14816 -0.31393,-16.152711 -0.25441,-35.486165 l 0.0983,-31.9375437 12.67208,-0.093188 12.67198,-0.093179 0.12789,31.8532917 c 0.099,24.646232 0.23224,32.254762 0.58913,33.627614 2.39717,9.221394 8.13012,12.58868 20.60323,12.101448 5.26341,-0.205598 7.67388,-0.49713 12.50887,-1.51282 l 2.75018,-0.577731 V 40.433443 2.6920164 h 12.77632 12.77631 l -0.09,47.0846936 -0.09,47.084709 -1.77431,0.464702 c -6.56106,1.718362 -17.57129,3.662679 -25.72747,4.543269 -6.18762,0.66807 -20.42829,0.98156 -24.13059,0.53122 z m 106.45849,0.12404 c -4.25769,-0.23355 -10.39633,-0.90776 -15.96877,-1.75386 -7.441,-1.129816 -20.58965,-3.929767 -21.1674,-4.507526 -0.12957,-0.12958 7.22402,-21.081602 7.53997,-21.483095 0.0546,-0.06941 2.14516,0.367162 4.64546,0.970168 14.55607,3.510386 24.74411,5.013474 33.94861,5.008558 7.38399,-0.004 11.26058,-0.782849 14.29889,-2.873021 3.72753,-2.564291 4.48503,-9.057576 1.43793,-12.324327 -2.21354,-2.372989 -5.07036,-2.986567 -19.23433,-4.131116 -12.55637,-1.014636 -17.63441,-1.776886 -22.24271,-3.338786 -10.32906,-3.500895 -16.19084,-9.279272 -18.44144,-18.17923 -0.64245,-2.540643 -0.71601,-3.643385 -0.56353,-8.449477 0.13215,-4.163803 0.36679,-6.222989 0.95101,-8.346596 3.31195,-12.039818 12.08351,-18.6976094 27.87651,-21.1589077 7.39582,-1.15263498 21.91068,-0.97762534 32.82471,0.3957539 7.8989,0.9939823 22.93358,3.9916207 23.65919,4.7172111 0.18806,0.1880304 -7.24694,20.4542297 -7.67499,20.9203277 -0.14185,0.154531 -2.15957,-0.198805 -4.48373,-0.785187 -10.28591,-2.595092 -21.1102,-4.254209 -29.59842,-4.536749 -8.26476,-0.27511 -12.76116,0.565118 -15.20046,2.840409 -3.13969,2.928662 -3.04959,8.743486 0.17207,11.103113 2.83483,2.076338 4.89802,2.49172 17.51242,3.525902 13.09735,1.07377 15.47761,1.371928 20.04969,2.51145 6.85659,1.708917 11.69537,4.265418 15.82627,8.361575 2.21622,2.197573 3.05347,3.355383 4.3623,6.032648 2.18416,4.467866 2.84916,7.930807 2.60796,13.580814 -0.76711,17.967588 -10.23166,27.684183 -30.07647,30.877538 -5.86704,0.9441 -16.16505,1.40067 -23.06074,1.02241 z M 0.00286477,67.720409 C 0.00471301,47.619059 0.14804384,33.188101 0.36521178,31.258375 1.2084703,23.766127 3.9214985,17.692189 8.6480893,12.71507 14.152881,6.9185296 20.738983,3.9060037 29.781422,3.0485045 31.863924,2.8510203 44.235473,2.6924785 57.57633,2.6923122 H 81.618207 V 14.035756 25.379204 l -23.332153,0.10084 c -22.865659,0.09882 -23.364498,0.115783 -24.947052,0.848055 -2.353545,1.088954 -4.036181,2.719867 -4.992829,4.839268 -0.781065,1.730339 -0.850467,2.386639 -0.958154,9.05156 l -0.115977,7.185949 h 22.559895 22.559867 v 10.645849 10.64585 H 49.85809 27.324347 V 84.84278 100.98899 H 13.662174 0 Z" />
</svg>
