<svg
   version="1.1"
   id="svg1"
   width="381.73203"
   height="381.73199"
   viewBox="0 0 381.73202 381.73199"
   xmlns="http://www.w3.org/2000/svg"
   xmlns:svg="http://www.w3.org/2000/svg">
  <defs
     id="defs1">
    <clipPath
       clipPathUnits="userSpaceOnUse"
       id="clipPath3">
      <path
         d="M 0,349 H 346 V 0 H 0 Z"
         transform="translate(-225.22171,-138.0469)"
         id="path3" />
    </clipPath>
  </defs>
  <g
     id="g1"
     transform="translate(790.90552,52.837304)">
    <g
       id="group-MC4"
       transform="translate(-830.70643,-94.637442)">
      <path
         id="path2"
         d="m 0,0 c 0,-9.258 -3.845,-11.221 -9.558,-11.221 -2.551,0 -4.606,0.137 -7.283,1.432 V -21.241 H -19.25 V 2.234 c 0,7.456 4.301,9.131 9.555,9.131 3.125,0 5.454,-0.855 6.959,-2.249 C -0.677,7.208 0,4.002 0,0 m -2.41,-0.712 c 0,7.291 -1.869,9.891 -7.479,9.833 -5.483,-0.055 -7.037,-2.069 -7.037,-9.097 l -0.011,-6.991 c 2.218,-1.323 4.596,-2.117 7.486,-2.117 5.576,0 7.041,3.497 7.041,8.372 M 21.633,-4.84 c 0,-3.706 -1.629,-6.367 -8.902,-6.367 -2.768,0 -9.87,-0.407 -9.87,6.224 0,5.533 3.649,6.268 7.939,6.268 h 8.423 V 3.979 C 19.223,7.451 17.072,9.3 11.744,9.3 9.714,9.3 7.851,9.138 5.188,7.714 L 4.387,9.722 c 2.822,1.386 4.398,1.607 7.357,1.607 6.974,0 9.889,-2.57 9.889,-7.125 z m -2.41,1.678 v 2.357 h -8.14 c -3.922,0 -5.812,-0.753 -5.812,-4.13 0,-3.386 2.337,-4.002 5.955,-4.002 2.078,0 5.54,-0.126 6.901,1.283 0.851,0.722 1.096,2.576 1.096,4.492 m 49.607,-7.706 h -3.092 l -8.361,10.085 h -5.549 v -10.085 h -2.503 v 21.871 h 2.503 V 1.197 h 5.857 l 7.007,9.806 h 2.664 L 59.74,0.195 Z M 26.075,4.661 c 0,5.044 2.145,6.686 8.975,6.686 3.004,0 9.797,0.195 9.797,-6.437 0,-4.244 -2.304,-5.701 -5.404,-6.121 l 6.851,-9.657 h -2.972 l -6.675,9.51 h -8.163 v -9.51 H 26.075 Z M 28.484,3.504 V 0.732 h 8.141 c 3.922,0 5.813,0.989 5.813,4.366 0,3.558 -3.465,4.24 -7.081,4.24 -2.666,0 -4.156,-0.006 -5.746,-1.072 C 28.419,7.271 28.484,5.42 28.484,3.504 m -65.808,58.832 -3.97,-9.718 c -5.023,1.474 -8.884,2.4 -13.766,1.909 -7.22,-0.723 -11.141,-6.552 -11.01,-13.494 0,0 -0.002,-0.954 0.16,-1.803 1.04,-6.213 5.287,-10.891 11.993,-11.231 5.204,-0.364 9.497,1.13 12.714,2.665 l 4.443,-8.681 c -5.689,-3.041 -12.251,-4.206 -17.211,-4.114 -13.135,0.242 -23.36,9.537 -23.814,22.556 -0.455,13.01 9.01,23.479 22.158,24.382 5.648,0.387 11.514,-0.286 18.303,-2.471 M -138.486,33.678 h -20.929 v -15 h -12.434 v 30.543 c 0,7.265 4.734,14.882 15.577,14.882 h 22.138 V 53.779 h -19.924 c -3.518,0 -5.357,-1.975 -5.357,-5.398 v -4.927 h 20.929 z M 10.021,20.607 c 0,0 -10.875,-3.124 -22.299,-2.697 -4.963,0.186 -18.168,2.644 -18.168,16.819 v 29.374 h 11.661 V 37.324 c 0,-5.47 1.829,-9.23 8.505,-9.23 3.097,0 5.747,0.274 8.639,1.072 V 64.103 H 10.021 Z M 60.156,32.905 C 59.696,19.599 48.584,17.913 38.015,17.913 c -5.573,0 -12.852,1.081 -19.739,2.92 l 3.551,9.889 c 6.807,-1.658 12.04,-2.701 16.465,-2.807 4.254,-0.103 9.655,-0.086 9.703,4.689 0.023,2.293 -1.397,3.741 -5.474,4.093 l -8.59,0.705 c -9.347,0.795 -15.376,4.914 -15.039,13.476 0.503,12.776 11.622,14.04 20.189,14.04 6.092,0 13.453,-1.099 19.448,-2.732 l -3.631,-9.752 c -4.221,1.25 -10.964,2.473 -15.176,2.634 -5.118,0.196 -8.133,-0.248 -8.762,-3.264 -0.457,-2.193 0.742,-4.347 5.316,-4.7 l 8.591,-0.706 C 55.107,45.517 60.425,40.664 60.156,32.905 M -130.721,41.4 c 0,13.318 10.796,24.114 24.114,24.114 13.318,0 24.114,-10.796 24.114,-24.114 0,-13.318 -10.796,-24.114 -24.114,-24.114 -13.318,0 -24.114,10.796 -24.114,24.114 m 37.395,0 c 0,7.334 -5.945,13.281 -13.281,13.281 -7.334,0 -13.282,-5.947 -13.282,-13.281 0,-7.335 5.948,-13.281 13.282,-13.281 7.336,0 13.281,5.946 13.281,13.281 m 41.105,138.203 c 79.06,0 143.149,-64.089 143.149,-143.15 0,-79.06 -64.089,-143.149 -143.149,-143.149 -79.06,0 -143.15,64.089 -143.15,143.149 0,79.061 64.09,143.15 143.15,143.15 m 64.7,-18.61 c 1.395,-7.676 2.439,-15.378 3.139,-23.083 16.019,-5.09 31.548,-11.742 46.342,-19.885 -12.835,17.934 -29.789,32.717 -49.481,42.968 m -166.318,-27.78 c 1.901,0.725 3.806,1.428 5.715,2.105 4.54,1.835 9.263,3.375 14.149,4.594 l 0.639,0.158 c 47.156,13.584 96.329,13.038 141.913,-0.032 -0.838,8.23 -2.079,16.453 -3.732,24.64 -17.435,7.771 -36.745,12.09 -57.066,12.09 -39.984,0 -76.06,-16.723 -101.618,-43.555 m -16.067,-173.201 c 23.217,-18.419 54.427,-26.238 85.405,-18.513 21.636,5.395 39.811,17.535 52.844,33.621 h 8.87 c -17.363,-28.1 -40.201,-53.227 -68.008,-73.612 12.255,-3.497 25.195,-5.369 38.574,-5.369 77.494,0 140.314,62.819 140.314,140.314 0,25.08 -6.579,48.623 -18.107,68.996 -16.935,10.513 -35.012,18.93 -53.804,25.128 1.277,-20.368 0.168,-40.712 -3.211,-60.622 H 6.067 c 3.592,20.609 4.687,41.706 3.147,62.809 -32.187,9.591 -66.277,12.746 -100.169,8.862 37.932,-6.374 70.668,-33.3 83.052,-71.671 h -7.175 c -16.514,47.529 -66.706,75.541 -116.479,63.546 -4.742,-1.368 -9.463,-2.884 -14.157,-4.547 -7.766,-3.153 -14.962,-7.225 -21.487,-12.056 -15.966,-22.777 -25.335,-50.517 -25.335,-80.445 0,-28.196 8.316,-54.449 22.63,-76.441 m 71.031,-55.932 c 18.791,13.224 35.344,28.633 49.503,45.683 -9.935,-6.695 -21.187,-11.799 -33.483,-14.865 -26.281,-6.553 -52.717,-2.64 -74.915,9.097 15.722,-17.933 35.941,-31.824 58.895,-39.915 m 36.699,108.744 c -9.4,-14.586 -25.787,-24.245 -44.431,-24.245 v 6.804 c 14.618,0 27.643,6.814 36.073,17.441 z m -88.876,57.131 c 9.399,14.598 25.792,24.266 44.445,24.266 18.652,0 35.046,-9.668 44.445,-24.266 h -8.356 c -8.429,10.639 -21.462,17.463 -36.089,17.463 -14.627,0 -27.661,-6.824 -36.089,-17.463 z"
         style="fill:#231f20;fill-opacity:1;fill-rule:evenodd;stroke:none"
         transform="matrix(1.3333333,0,0,-1.3333333,300.2956,281.2708)"
         clip-path="url(#clipPath3)" />
    </g>
  </g>
</svg>
