<svg
   version="1.1"
   id="svg1"
   width="5402.877"
   height="1791.7986"
   viewBox="0 0 5402.8769 1791.7986"
   xmlns="http://www.w3.org/2000/svg"
   xmlns:svg="http://www.w3.org/2000/svg">
  <defs
     id="defs1" />
  <g
     id="g1"
     transform="translate(6292.5036,104.90896)">
    <path
       style="fill:#000000"
       d="m -1984.8957,1681.1123 c -66.567,-16.7231 -98.967,-56.066 -98.967,-120.1718 0,-36.0906 9.602,-66.6312 27.255,-86.6861 29.692,-33.7319 65.951,-40.8048 209.183,-40.8048 h 97.642 v -38.9145 c 0,-46.4226 -4.498,-63.5052 -22.149,-84.1271 -24.455,-28.5695 -66.372,-41.9451 -131.451,-41.9451 -42.57,0 -77.316,6.5844 -109.159,20.686 -12.518,5.5432 -23.922,8.7426 -25.343,7.1096 -1.421,-1.6329 -5.444,-10.3705 -8.941,-19.4168 l -6.357,-16.4479 18.26,-7.8943 c 38.411,-16.6064 72.358,-22.5699 128.476,-22.5699 111.45,0 171.832,26.8314 195.242,86.7577 8.299,21.2456 8.964,29.2982 10.502,127.1402 2.403,152.906 -3.935,184.761 -42.29,212.5452 -30.86,22.3549 -57.56,27.7822 -143.11,29.0904 -57.352,0.877 -82.37,-0.2248 -98.793,-4.3508 z m 150.633,-40.4188 c 40.116,-5.1802 60.567,-16.4624 72.749,-40.1348 8.687,-16.8804 9.841,-24.3189 11.146,-71.8495 l 1.456,-53.0196 -103.156,0.06 c -109.993,0.064 -136.374,3.1461 -157.856,18.4427 -17.906,12.7503 -25.595,32.5838 -25.577,65.9774 0.03,52.0209 20.4,72.329 82.198,81.9409 19.533,3.0382 91.139,2.1858 119.04,-1.417 z m 312.93,39.2957 c -36.067,-12.4718 -63.382,-40.6396 -76.293,-78.6738 -5.396,-15.8944 -6.237,-41.9368 -6.237,-192.96 v -174.5858 h 23.04 23.04 l 0.02,168 c 0.01,105.3824 1.522,173.4063 4.049,182.5049 5.242,18.8763 24.537,40.5788 43.896,49.3735 13.71,6.2283 27.255,7.0021 123.873,7.0772 l 108.48,0.084 v 23.04 23.04 l -112.32,-0.1254 c -96.334,-0.1075 -115.056,-1.0717 -131.549,-6.775 z m 397.47,3.3095 c -35.054,-10.7015 -64.444,-36.1162 -80.22,-69.3691 l -10.02,-21.12 -1.169,-179.52 -1.169,-179.52 h 25.169 25.169 l 0.06,175.68 c 0.06,174.8654 0.103,175.7504 8.672,190.8803 4.735,8.3601 16.084,20.4561 25.219,26.88 l 16.609,11.6797 112.958,1.1733 112.95798,1.1733 v 22.8267 22.8267 l -112.31998,-0.3301 c -61.776,-0.1815 -116.64,-1.6489 -121.92,-3.2608 z m -1570.56,-228.8475 v -224.7584 l 223.68,1.0784 223.68,1.0784 19.613,10.3475 c 24.468,12.9089 52.365,43.4825 61.532,67.4347 6.296,16.4501 7.093,35.2644 8.214,193.8978 l 1.241,175.68 h -25.14 -25.14 v -172.953 c 0,-165.1077 -0.347,-173.6327 -7.645,-187.9376 -8.563,-16.7841 -26.167,-31.3896 -45.728,-37.9391 -7.7,-2.5778 -39.594,-4.3703 -77.76,-4.3703 h -64.707 v 201.6 201.6 h -23.04 -23.04 v -201.6 -201.6 h -97.92 -97.92 v 201.6 201.6 h -24.96 -24.96 z m -2136.9605,-443.4731 c -129.9493,-14.48265 -244.5073,-69.74005 -338.0822,-163.07505 -78.408,-78.2069 -127.5748,-168.1968 -152.136,-278.4536 -7.7801,-34.9254 -8.978,-50.5953 -8.9539,-117.12 0.022,-60.4678 1.5441,-83.7411 7.1581,-109.44 49.4433,-226.3358 214.0319,-390.915399 440.174,-440.150099 46.3133,-10.083101 172.09,-10.227001 218.88,-0.2504 231.2504,49.3074 398.6523,220.400399 444.0494,453.840499 9.033,46.4495 9.1402,143.9501 0.2119,192.8585 -41.995,230.0465 -219.2313,410.2085 -446.7382,454.11285 -46.5614,8.9855 -121.4686,12.4801 -164.5631,7.6773 z m 153.6,-262.57055 c 49.3623,-16.7512 83.9616,-38.5069 122.7728,-77.1981 53.4946,-53.3291 81.8779,-111.4758 90.1773,-184.7396 16.9147,-149.3161 -78.2251,-290.1097 -224.6873,-332.5059 -25.7154,-7.4438 -39.2417,-8.81 -86.1828,-8.7044 -52.7123,0.1186 -57.6243,0.794 -92.16,12.6738 -47.5113,16.3432 -82.5488,37.4161 -117.6515,70.7602 -33.9784,32.2761 -59.9066,69.9953 -75.215,109.4194 -68.3919,176.1312 28.6153,366.2536 212.0665,415.6245 24.1343,6.4951 37.8204,7.5356 84.48,6.4229 48.3152,-1.1523 59.7434,-2.7068 86.4,-11.7528 z m 1059.8401,246.984 c -217.5009,-29.8988 -389.1823,-167.3177 -455.1947,-364.3517 -6.2842,-18.7569 -15.0685,-55.408 -19.5207,-81.4469 -6.8862,-40.2743 -7.7777,-57.0908 -5.9703,-112.6235 2.3166,-71.1762 7.4179,-101.0915 27.607,-161.8949 60.887,-183.372499 213.1407,-315.663499 409.9731,-356.219699 94.4301,-19.456701 235.3113,-15.7795 358.5127,9.3577 34.4354,7.026 134.3063,33.231 140.1273,36.7677 1.328,0.8069 -17.98,51.1746 -42.907,111.9282 -36.7258,89.510499 -46.6518,110.377099 -52.3346,110.018699 -3.857,-0.2433 -30.4297,-6.6106 -59.0504,-14.1496 -89.8846,-23.6766 -116.6923,-27.3638 -197.5624,-27.1733 -62.6436,0.1475 -77.2723,1.3523 -103.4572,8.52 -53.3834,14.6129 -84.2716,32.522 -123.3096,71.4957 -29.3846,29.3363 -37.5278,40.3568 -52.6026,71.1895 -38.7501,79.2564 -45.9735,162.1131 -21.782,249.8545 23.893,86.6586 79.0333,154.2234 155.2314,190.2086 46.4888,21.9548 83.1382,29.1159 149.76,29.262 79.8282,0.1752 150.8408,-14.4776 226.4925,-46.7347 l 34.4926,-14.7072 50.8183,98.4584 c 27.95,54.1522 50.877,99.5038 50.948,100.7815 0.217,3.9164 -64.792,32.667 -106.9446,47.2968 -93.9596,32.6103 -159.2901,44.2593 -259.6468,46.2975 -42.24,0.8578 -88.896,-0.1031 -103.68,-2.1353 z m 993.0414,-0.1467 c -43.745,-5.8801 -110.124,-24.2261 -149.596,-41.3462 -50.118,-21.7374 -94.136,-52.3089 -130.253,-90.4643 -25.48,-26.9184 -34.557,-40.1531 -52.075,-75.9327 -21.972,-44.8783 -30.717,-73.7891 -37.03,-122.4217 -2.121,-16.3441 -3.741,-179.8409 -3.809,-384.5905 l -0.118,-356.159999 h 134.4 134.4 l 0.03,317.759999 c 0.02,184.5458 1.625,331.6666 3.832,350.9318 12.237,106.785 59.655,156.2798 161.597,168.6748 54.094,6.5771 159.963,-2.6397 221.904,-19.3187 l 15.835,-4.2639 v -406.892 -406.891999 h 134.4 134.4 v 506.545099 506.545 l -41.28,9.7249 c -82.244,19.3753 -158.829,32.7219 -246.72,42.996 -62.172,7.2678 -239.736,10.50575 -279.918,5.1044 z m 1126.639,0.1029 c -61.21,-4.9526 -133.511,-14.7313 -198.558,-26.8551 -70.105,-13.0665 -157.219,-33.2836 -161.39,-37.455 -2.514,-2.5137 73.507,-220.4277 78.714,-225.6349 1.086,-1.0858 25.064,3.4601 53.284,10.102 141.922,33.4024 239.305,48.8254 329.71,52.2172 154.763,5.8064 220.162,-24.1031 225.891,-103.3094 2.144,-29.6425 -6.749,-52.4533 -27.313,-70.055 -27.135,-23.2267 -50.98,-28.1143 -197.873,-40.5585 -147.189,-12.4693 -167.818,-15.1643 -218.616,-28.5587 -113.863,-30.0241 -187.703,-90.1079 -218.079,-177.4516 -26.46,-76.0861 -18.373,-186.1106 19.412,-264.099299 26.059,-53.7863 64.236,-91.2821001 124.974,-122.7444 138.037,-71.502501 405.228,-73.436001 707.28398,-5.1181 29.04,6.5682 52.799,13.1329 52.799,14.5882 0,3.1163 -80.53698,220.052299 -82.37698,221.892399 -0.69,0.6893 -26.069,-4.8202 -56.398,-12.2433 -124.109,-30.3755 -232.276,-45.4814 -329.704,-46.0443 -73.489,-0.4246 -99.016,3.0079 -126.72,17.0392 -55.785,28.2533 -63.045,109.6573 -12.704,142.4352 32.74,21.318 45.532,23.6918 193.184,35.8506 179.643,14.7932 225.383,23.9144 297.6,59.3456 72.76098,35.6982 119.87298,87.4644 142.53998,156.6186 10.554,32.1995 11.044,36.8091 10.73,100.9403 -0.387,78.9598 -6.322,107.4062 -34.05,163.2 -38.354,77.1768 -92.91298,121.9621 -186.78198,153.3224 -92.722,30.9768 -245.641,43.89705 -385.558,32.5759 z m -4794.225,-382.6983 c 0.017,-403.6551 0.2074,-407.544 23.0231,-470.0605 17.7199,-48.553599 39.261,-81.685299 78.3329,-120.481199 39.9878,-39.7053 81.2023,-63.7515 136.9452,-79.8995 56.7735,-16.4464 85.9237,-17.8566 369.3633,-17.868 l 267.84,-0.011 v 118.8822 118.882199 l -248.64,1.1554 c -272.4556,1.2661 -264.2007,0.5817 -295.5674,24.5062 -34.4338,26.264 -43.2054,56.3522 -43.267,148.414 l -0.046,68.16 h 243.84 243.84 v 113.28 113.28 h -243.84 -243.8399 v 174.72 174.7201 h -144 -144.0001 z"
       id="path1" />
  </g>
</svg>
