<?xml version="1.0" encoding="UTF-8" standalone="no"?>
<svg id="FSO" width="905.71149" height="500" viewBox="0 0 905.71149 500" version="1.1" xml:space="preserve" xmlns:xlink="http://www.w3.org/1999/xlink" xmlns="http://www.w3.org/2000/svg" xmlns:svg="http://www.w3.org/2000/svg">
  <path id="POLONEZ" style="fill:#000000;fill-opacity:1;fill-rule:nonzero;stroke:none;stroke-width:0.903027" transform="matrix(525.74153,-137.67714)" d="m 166.51799,498.7781 c -10.0151,-1.29184 -11.19526,-1.62406 -21.96691,-6.18383 -9.21922,-3.90255 -16.27597,-9.73943 -21.39806,-17.69862 -6.62011,-10.28727 -6.75315,-10.71542 -6.75315,-21.73187 0,-9.52547 0.16819,-10.43894 3.23875,-17.58641 7.68446,-17.88771 24.69593,-29.43209 47.92615,-32.52385 12.65904,-1.68484 20.4689,-1.66628 32.97657,0.0782 8.78321,1.2251 11.39558,2.02076 19.33754,5.88979 14.84443,7.23186 23.85634,16.66624 28.9872,30.34632 1.85749,4.95258 2.3133,7.80858 2.34977,14.72326 0.0401,7.61152 -0.26721,9.31593 -2.72746,15.11717 -4.90851,11.57484 -13.8483,19.97556 -26.43636,24.84231 -8.74019,3.37912 -12.82492,4.20695 -25.63945,5.19613 -14.16865,1.09372 -18.28301,1.02924 -29.89459,-0.46859 z m 32.50908,-17.04937 c 13.0156,-3.56833 21.8939,-13.19788 23.52348,-25.51408 1.81606,-13.72528 -10.50882,-29.44331 -26.83189,-34.21886 -9.72321,-2.8447 -24.4744,-1.40545 -33.2101,3.24027 -7.48611,3.9812 -13.63574,11.89322 -15.84922,20.3913 -2.43273,9.34001 -1.50513,14.52159 4.30476,24.04434 2.90321,4.75857 10.68409,10.00565 17.81148,12.01134 5.58025,1.57028 24.58583,1.59896 30.25149,0.0457 z m 227.56345,17.02447 c -10.44003,-1.54239 -13.22955,-2.28401 -20.3447,-5.40896 -12.82299,-5.63184 -21.0562,-13.04239 -26.33779,-23.70618 -2.41211,-4.87026 -2.86713,-6.91737 -3.21156,-14.44845 -0.37266,-8.15324 -0.19578,-9.33687 2.4987,-16.72234 1.75246,-4.80309 4.53642,-10.12505 7.03582,-13.45001 6.21426,-8.26677 17.95412,-16.32106 28.10241,-19.27998 5.49321,-1.60161 24.66981,-4.02281 31.82586,-4.01828 18.29608,0.0113 38.54188,7.10102 50.1922,17.5756 13.1619,11.8337 19.18469,33.72987 13.27695,48.26907 -4.2661,10.49888 -7.82445,14.69389 -18.72344,22.07365 -8.23797,5.57794 -17.60069,8.2679 -33.15987,9.52705 -14.95053,1.20983 -20.69564,1.13401 -31.15458,-0.41117 z m 33.28181,-17.18669 c 13.1616,-3.3719 21.5966,-12.61171 22.88186,-25.06495 0.57842,-5.60418 -1.99245,-15.06343 -5.59532,-20.5877 -2.39494,-3.67207 -8.36886,-8.79749 -12.99205,-11.14677 -4.54137,-2.30763 -19.45955,-5.08346 -23.88326,-4.44397 -5.87274,0.84896 -14.24394,3.07419 -17.2651,4.58945 -3.47373,1.74224 -11.06778,9.00034 -12.74015,12.17646 -9.70923,18.43998 -2.27584,37.35152 17.27924,43.96063 6.95161,2.34943 24.09166,2.6236 32.31478,0.51685 z m 255.23626,17.57031 c -26.3071,-2.33189 -43.35934,-12.01262 -51.67079,-29.33409 -4.18862,-8.72938 -5.06872,-14.95128 -3.41306,-24.12812 1.60395,-8.89021 5.55979,-16.04765 13.44332,-24.32338 7.57996,-7.95712 12.87923,-11.30721 23.95794,-15.14593 7.68589,-2.66309 7.90087,-2.68388 27.78228,-2.68388 23.40299,0 27.52736,0.71804 40.4699,7.04591 11.45926,5.60258 19.86811,13.73681 24.92255,24.10862 3.2759,6.7222 3.54202,7.86743 3.82972,16.48029 l 0.30916,9.25603 -51.3292,0.0151 c -28.23099,0.008 -51.87904,0.36208 -52.55115,0.78818 -1.54969,0.982 -0.51678,3.07053 5.02318,10.15676 3.36431,4.30322 5.05115,5.55062 10.9251,8.07859 6.35977,2.73706 7.89785,3.02109 18.21086,3.36242 6.90051,0.22829 13.19766,-0.0506 16.25454,-0.72079 6.08753,-1.3341 12.96408,-5.11915 17.13245,-9.43019 l 3.11195,-3.21849 h 15.17442 c 8.34588,0 15.17431,0.3496 15.17431,0.77699 0,1.2762 -4.45753,7.55705 -7.98946,11.25748 -5.11839,5.36266 -10.81081,9.17442 -18.19839,12.18618 -9.23671,3.76558 -12.28925,4.4451 -24.83331,5.52812 -12.02128,1.03786 -13.44575,1.03488 -25.73632,-0.0544 z m 48.76358,-55.14546 c 0,-2.63142 -4.06896,-9.04407 -8.17648,-12.88623 -13.35987,-12.49659 -35.74087,-13.87695 -52.98289,-3.26789 -5.21246,3.20731 -10.78821,10.10547 -11.64968,14.4127 l -0.56213,2.81083 h 36.68557 c 27.66063,0 36.68561,-0.26305 36.68561,-1.06941 z m -492.9694,53.51667 c -1.03737,-0.65673 -1.34869,-6.56269 -1.70098,-32.26953 -0.23735,-17.30604 -0.13039,-38.27221 0.23735,-46.5913 l 0.6683,-15.12578 h 13.89112 13.89117 l 0.23546,38.60451 0.23584,38.60455 32.96055,0.5435 c 18.12835,0.29896 33.06217,0.60374 33.18637,0.67729 0.12434,0.0737 0.22563,3.79105 0.22563,8.26099 v 8.12727 l -46.28024,-0.0151 c -25.46638,-0.008 -46.85132,-0.37531 -47.55001,-0.8177 z m 257.8807,0.22942 c -0.33108,-0.33109 -0.60204,-21.66516 -0.60204,-47.40904 v -46.80706 h 13.93172 13.93183 l 9.74657,11.06214 c 5.36058,6.08414 13.41558,15.15062 17.90003,20.14761 8.94463,9.9671 18.00276,20.41867 23.32411,26.91216 1.88723,2.30291 3.81743,4.18711 4.28938,4.18711 0.52464,0 0.86347,-11.66872 0.87194,-30.0257 0.008,-16.51415 0.34318,-30.54497 0.746,-31.17955 0.55291,-0.87126 4.03276,-1.0924 14.20891,-0.90308 l 13.4767,0.25058 0.23358,47.18332 0.23357,47.18329 h -14.10682 -14.10682 l -5.62375,-6.09544 c -3.09309,-3.35248 -9.56179,-10.76867 -14.37483,-16.48033 -11.52367,-13.67512 -23.17051,-26.92482 -30.11169,-34.25574 l -5.61396,-5.92906 -0.0302,29.06388 c -0.0151,16.6181 -0.40717,30.0559 -0.91072,31.38033 l -0.8807,2.31636 h -12.96579 c -7.13113,0 -13.23666,-0.271 -13.56778,-0.60205 z m 273.5641,-0.82639 c -0.3016,-0.78558 -0.54814,-4.69286 -0.54814,-8.68279 0,-6.79529 0.1576,-7.38924 2.4833,-9.38525 1.36585,-1.17195 6.34382,-5.35695 11.06215,-9.30002 4.71832,-3.94306 12.43922,-10.47307 17.15754,-14.51111 4.71833,-4.03805 15.40396,-13.11466 23.74583,-20.17017 l 15.16705,-12.82825 -33.60007,-0.23697 c -22.96668,-0.16177 -33.9823,-0.55412 -34.80794,-1.23935 -1.26032,-1.04598 -1.68654,-11.09386 -0.63677,-15.01141 l 0.5464,-2.03929 51.13969,0.23282 51.13973,0.2332 0.25739,8.72338 0.25776,8.72337 -5.61562,4.82204 c -3.08859,2.65221 -7.67444,6.67502 -10.19081,8.93968 -2.51634,2.26473 -8.43572,7.33304 -13.15401,11.26299 -14.49347,12.07181 -37.92726,33.01818 -37.92726,33.90138 0,0.48333 7.17971,0.83618 17.01283,0.83618 9.35702,0 24.39247,0.26722 33.41212,0.59407 l 16.3993,0.59399 v 7.98478 7.98474 h -51.37611 c -46.01529,0 -51.43332,-0.14891 -51.92424,-1.42839 z M 0.37891575,489.98647 c -0.8129764,-10.17422 -0.19729134,-83.93088 0.71217635,-85.33637 0.5665134,-0.87526 9.8060979,-1.12875 41.1497219,-1.12875 43.244977,0 45.714672,0.21959 53.389343,4.74497 9.337173,5.50575 12.620823,11.74885 12.633673,24.01995 0.008,7.96313 -0.17801,8.80192 -3.25152,14.65111 -4.00717,7.62558 -9.207728,12.55578 -16.228163,15.38472 -5.144202,2.07289 -6.336756,2.16371 -31.758464,2.41803 l -26.413645,0.26419 v 14.78759 c 0,8.13324 -0.246803,15.43041 -0.548145,16.21603 -0.467792,1.2192 -2.638866,1.42839 -14.818885,1.42839 H 0.97422915 Z M 71.457243,445.16482 c 6.065613,-2.60001 8.821455,-6.42455 8.821455,-12.24238 0,-11.06109 -8.224063,-13.99555 -35.624429,-12.71138 l -14.042231,0.65813 v 12.39685 c 0,6.81823 0.270992,12.66769 0.602041,12.99882 0.331086,0.33108 8.627868,0.602 18.437255,0.602 15.465373,0 18.362797,-0.22639 21.805909,-1.70204 z M 1.9408056,394.8739 c -0.6207875,-0.29329 -1.12875598,-1.04496 -1.12875598,-1.6704 0,-1.64425 21.76433438,-2.30105 79.91811338,-2.41172 26.820017,-0.0506 49.779517,-0.39405 51.021207,-0.76237 2.11196,-0.62638 1.93719,-0.82446 -2.70905,-3.07052 -10.23856,-4.94948 -21.70886,-16.14984 -26.77233,-26.14208 -4.134611,-8.15925 -7.542838,-20.72002 -7.542838,-27.79847 0,-4.28606 -1.874494,-5.35135 -9.416202,-5.35135 -4.460863,0 -15.209462,-2.86379 -27.48858,-7.32386 -5.054476,-1.83594 -7.727169,-1.65369 -8.586444,0.58549 -0.395528,1.03079 -2.398375,1.32019 -9.136101,1.32019 -8.432241,0 -8.649564,-0.0529 -9.510086,-2.3164 -0.484422,-1.27397 -0.880706,-3.63447 -0.880706,-5.24553 0,-4.19384 -1.404132,-5.55561 -9.030312,-8.75841 -8.509795,-3.57389 -8.614337,-3.66403 -11.9085735,-10.26498 -1.5019843,-3.00975 -3.7590804,-6.56813 -5.015849,-7.90745 -1.9833827,-2.11389 -2.2205859,-3.00623 -1.7972788,-6.76206 0.3775748,-3.34965 1.0944756,-4.83908 3.1741608,-6.59509 1.4775685,-1.24755 4.1630363,-5.21439 5.9677985,-8.81522 2.643213,-5.27388 3.684473,-6.54694 5.354873,-6.54694 3.448252,0 5.441537,-2.05171 4.901631,-5.04532 -2.322482,-12.8767 -3.83331,-18.18656 -5.772775,-20.28896 -1.170557,-1.26883 -2.128214,-2.98303 -2.128214,-3.80939 0,-0.82632 2.133884,-3.0788 4.741947,-5.00549 2.608063,-1.92673 5.323842,-4.20423 6.035036,-5.06113 0.711194,-0.85693 2.742539,-2.28125 4.514117,-3.16501 4.123238,-2.05709 24.876474,-6.66021 41.148247,-9.12681 6.953348,-1.05403 20.566489,-3.12782 30.251489,-4.6083 25.74214,-3.93513 50.95631,-7.65177 66.37266,-9.78353 7.45002,-1.03019 19.03136,-2.67844 25.7364,-3.66286 6.70495,-0.98445 15.03541,-2.04563 18.51208,-2.35827 5.76613,-0.51848 6.75697,-0.92319 11.2839,-4.60864 8.41999,-6.85501 17.6104,-10.38463 19.4191,-7.45807 0.3069,0.49663 1.14077,0.90304 1.85291,0.90304 1.09981,0 41.59922,-23.68399 58.65011,-34.29849 2.98,-1.85507 17.60908,-10.76421 32.50907,-19.79808 14.89996,-9.03378 28.16225,-17.26356 29.47167,-18.28826 7.60025,-5.947768 29.93444,-7.408442 113.207,-7.403831 61.01548,0.0033 80.40998,0.530457 127.32722,3.460271 11.42328,0.71331 29.10009,1.74837 39.2818,2.30007 14.81458,0.80277 19.95496,1.43339 25.73628,3.15734 3.97334,1.18477 9.19321,2.63792 11.59963,3.22934 2.40647,0.59131 6.28596,2.38942 8.62114,3.99568 2.33515,1.60634 18.27538,10.03298 35.42276,18.72605 27.47921,13.93085 31.97265,15.93135 37.88489,16.86678 14.89368,2.35639 30.1838,7.16251 39.65234,12.4639 3.23721,1.81255 7.9177,4.3578 10.40104,5.65618 2.48326,1.29838 9.39144,4.91588 15.35149,8.0389 11.18676,5.8619 15.51032,9.51413 15.98181,13.50036 0.22564,1.90602 2.0702,3.31503 10.65751,8.1402 8.00259,4.49665 12.068,7.51019 17.72187,13.13681 4.03533,4.01586 8.70852,8.11967 10.38478,9.11954 2.44755,1.45996 3.10243,2.47113 3.3247,5.13343 0.2109,2.52779 -0.13568,3.5362 -1.46048,4.24502 -1.36759,0.73194 -1.8666,2.32951 -2.3455,7.50905 -0.33449,3.61871 -1.21856,10.81156 -1.96434,15.98415 -1.10388,7.65627 -1.139,9.54251 -0.18897,10.14531 0.64195,0.40721 3.94099,0.74665 7.33126,0.75428 5.92414,0.0151 6.37225,0.17424 11.51365,4.13023 l 5.34958,4.1164 v 5.3791 c 0,4.2929 -0.54021,6.33626 -2.67526,10.11934 -1.47137,2.60712 -3.77193,9.13633 -5.11234,14.50938 -1.93954,7.77483 -2.87883,10.05865 -4.60093,11.18699 -1.60407,1.05105 -6.99769,1.73087 -20.84977,2.62802 -19.01484,1.2316 -35.44566,3.62472 -37.24577,5.42479 -1.35768,1.35772 -0.71785,5.84606 0.95074,6.66917 3.60189,1.77679 13.76508,2.92085 29.6442,3.33709 19.21614,0.50363 19.7173,0.6765 16.72732,5.76843 -2.9017,4.94162 -6.60291,6.21691 -17.91202,6.17186 -5.47105,-0.0189 -12.99511,-0.42637 -16.72014,-0.89908 -3.72495,-0.47266 -9.46994,-1.11949 -12.76652,-1.43735 l -5.99388,-0.57793 -0.61274,4.45501 c -1.01336,7.36788 0.22413,7.00467 -20.95249,6.14899 -10.35254,-0.41836 -26.89387,-0.78686 -36.75855,-0.81891 l -17.93571,-0.0586 -4.01889,7.67577 c -2.21038,4.22166 -5.31428,9.32663 -6.8976,11.34437 -5.48897,6.9953 -14.80819,14.52619 -23.09352,18.66213 l -8.07749,4.03215 14.14617,0.58677 c 7.78038,0.32277 39.95025,0.58885 71.48856,0.59138 75.16112,0.008 110.16964,0.77016 110.16964,2.40439 0,1.00804 -58.61719,1.20907 -352.48355,1.20907 -193.8659,0 -396.94601,0.20636 -451.28908,0.45796 -54.343107,0.25172 -99.3135526,0.21808 -99.9344156,-0.0752 z M 666.75131,390.08509 c -0.47183,-0.43669 -2.48334,-1.29974 -4.47001,-1.91804 -9.54724,-2.97105 -21.7556,-12.89226 -28.43622,-23.10886 -3.47818,-5.31923 -8.74329,-16.26682 -11.1425,-23.1685 -0.5034,-1.44798 -2.43088,-1.5803 -23.0236,-1.5803 h -22.47432 l -8.89349,4.68201 c -8.88979,4.67996 -13.44185,6.02483 -32.00251,9.45482 -6.65045,1.22899 -26.19061,1.51034 -146.29081,2.10618 -76.23827,0.37833 -145.54755,0.73879 -154.02072,0.80115 l -15.40558,0.11339 -3.93071,5.93544 c -7.52644,11.36523 -17.89622,21.00922 -26.60334,24.74154 -2.2684,0.97232 -4.12434,1.98546 -4.12434,2.2515 0,0.26571 108.37705,0.48363 240.83799,0.48363 138.54633,0 240.47369,-0.33713 239.98016,-0.794 z m 29.84516,-1.4273 c 12.63628,-1.99915 17.11109,-3.79741 27.15447,-10.91255 14.71861,-10.42738 23.39342,-24.96836 26.47309,-44.37506 1.61945,-10.20476 -1.4911,-23.72081 -7.95749,-34.57739 -4.34869,-7.30118 -15.77027,-18.47527 -23.45885,-22.95061 -11.75981,-6.8451 -27.42867,-10.30466 -39.15171,-8.64454 -6.96442,0.98631 -17.67213,4.70003 -22.76425,7.89532 -9.72192,6.10042 -18.76142,16.09002 -24.06281,26.59208 -5.28261,10.46479 -5.77096,12.76853 -5.69904,26.88495 0.0661,12.96476 0.0987,13.16727 3.29639,20.52892 8.91345,20.51955 26.04673,34.59968 47.55784,39.08292 9.73576,2.02908 8.92626,2.00844 18.61236,0.47596 z m -21.9196,-23.45609 c -7.56287,-2.80951 -11.76178,-5.71128 -16.63438,-11.49577 -11.53021,-13.68794 -13.47685,-28.93709 -5.70539,-44.69382 3.8911,-7.88928 10.98747,-14.73612 19.42602,-18.74291 5.54551,-2.63312 6.46824,-2.78706 16.70608,-2.78706 10.44317,0 11.05923,0.10885 16.97892,3.00348 8.25264,4.03521 15.72068,11.46504 19.67286,19.57224 2.98427,6.12182 3.08152,6.66316 3.08152,17.15759 0,10.36913 -0.12548,11.09215 -2.90305,16.76859 -7.42213,15.1666 -20.82025,23.47801 -37.67143,23.3692 -5.31802,-0.034 -8.81631,-0.6155 -12.95115,-2.15154 z m 28.24078,-5.30517 c 6.86166,-3.18769 14.241,-10.35084 17.8526,-17.32959 2.42608,-4.68794 2.85536,-6.58386 3.18512,-14.068 0.36775,-8.34921 0.2725,-8.88276 -2.74534,-15.35154 -4.87808,-10.45625 -13.99782,-18.2965 -24.06262,-20.68656 -7.29079,-1.73133 -17.81862,-0.75372 -23.89421,2.21877 -14.05202,6.87507 -21.12386,19.04069 -20.23488,34.81024 0.54784,9.71898 3.47668,16.31029 10.17782,22.90522 7.98837,7.86172 14.77837,10.51397 26.17602,10.2248 6.72061,-0.17084 9.06516,-0.64192 13.54549,-2.72334 z m -22.36396,-0.65049 c -12.8519,-3.22644 -22.81232,-14.80007 -24.6483,-28.63994 -2.32082,-17.4951 11.55175,-34.35508 29.65897,-36.046 9.30736,-0.86914 17.1628,1.9234 24.36639,8.66196 3.12072,2.91934 6.67994,7.27714 7.90931,9.68394 1.97756,3.87175 2.23517,5.52114 2.23517,14.30945 0,8.73263 -0.26872,10.47911 -2.2247,14.44849 -2.85937,5.8032 -10.04395,12.81917 -15.8205,15.44919 -5.20033,2.36765 -16.19282,3.45941 -21.47634,2.13291 z m 11.81016,-6.06845 c -0.22715,-1.19244 -1.51816,-1.7122 -5.25861,-2.11752 -5.72164,-0.62003 -6.31181,-0.43816 -6.31181,1.94506 0,1.55724 0.66221,1.75279 5.9359,1.75279 5.16605,0 5.89678,-0.20523 5.63452,-1.58033 z m 6.10148,-8.79364 c 4.52428,-2.65145 7.81478,-7.12713 9.50509,-12.92912 2.13627,-7.3321 -1.82195,-16.71621 -8.89443,-21.08731 -4.22635,-2.61203 -11.24795,-3.67585 -16.13662,-2.4449 -8.55375,2.15384 -15.51394,12.12975 -14.49075,20.76911 1.80287,15.22258 17.13812,23.23952 30.01671,15.69222 z m -17.21836,-0.98207 c -4.22188,-2.20131 -5.95986,-4.08964 -8.24848,-8.96217 -2.59279,-5.52015 -2.65281,-8.71185 -0.26267,-13.9807 2.32248,-5.12016 4.02156,-6.98581 8.39508,-9.21793 4.89649,-2.49902 10.54031,-2.31137 15.35566,0.51058 4.48361,2.62764 6.50192,5.3325 8.20732,10.99903 1.43637,4.77264 0.74128,8.64317 -2.5654,14.28559 -4.00032,6.82609 -14.09586,9.90369 -20.88132,6.3656 z m 13.11081,-4.45682 c 3.70594,-1.91637 7.20858,-7.40232 7.19051,-11.26197 -0.0189,-4.20586 -3.33048,-9.88022 -7.02319,-12.03685 -3.77976,-2.20751 -9.71301,-2.18087 -12.71048,0.0571 -4.53063,3.3826 -5.98999,6.32398 -5.95661,12.00601 0.0264,4.63959 0.37493,5.68543 2.70909,8.15202 1.4728,1.55634 3.49058,3.16804 4.48392,3.58163 2.92029,1.21588 8.46489,0.97172 11.30676,-0.49791 z m -8.81572,-4.49386 c -1.73986,-0.75628 -3.51945,-2.5146 -4.38754,-4.33489 -1.35084,-2.83272 -1.34691,-3.28192 0.0522,-5.98768 1.85651,-3.59002 6.6395,-5.85574 9.81396,-4.64882 1.20257,0.45721 3.06724,2.25649 4.1438,3.99832 1.81818,2.94188 1.86346,3.39164 0.63696,6.32705 -0.74808,1.79044 -2.5059,3.7731 -4.05569,4.57455 -3.21181,1.66087 -2.56445,1.65343 -6.20376,0.0711 z m 5.02171,-7.00078 c -0.32201,-2.25729 -3.29635,-3.29783 -4.38614,-1.53449 -1.13325,1.83364 0.054,3.5571 2.45099,3.5571 1.78696,0 2.16706,-0.39726 1.93515,-2.02261 z m 25.74388,3.08923 c 0.90005,-5.65455 0.41352,-7.38784 -2.07375,-7.38784 -1.67097,0 -1.83444,0.56916 -1.83444,6.3874 0,5.58682 0.1973,6.3495 1.57361,6.08444 1.13443,-0.21846 1.78594,-1.63737 2.33458,-5.084 z m -52.67177,-5.03361 c 0,-4.07176 -0.36661,-5.91386 -1.24448,-6.25066 -2.12296,-0.81464 -3.27069,1.35549 -3.27069,6.18414 0,5.06801 0.37795,5.83956 2.85963,5.83956 1.43274,0 1.65554,-0.77696 1.65554,-5.77304 z m 32.40964,-23.45556 c 1.77169,-2.13479 -1.01442,-3.40312 -6.81411,-3.10201 -4.06235,0.2109 -5.32524,0.61697 -5.54713,1.78367 -0.31522,1.65835 1.46638,2.22739 7.60917,2.43005 2.18691,0.0718 4.15083,-0.38729 4.75207,-1.11171 z m -512.36994,80.92173 c 10.96014,-4.16482 15.60691,-7.11353 23.13679,-14.68195 7.55513,-7.59372 11.2763,-14.18605 13.7881,-24.42645 3.12544,-12.74222 1.02599,-30.61285 -5.0789,-43.23133 -4.00905,-8.28658 -16.08302,-20.34312 -24.27885,-24.24382 -12.98309,-6.17923 -25.0043,-8.2958 -37.20975,-6.55143 -16.41101,2.34538 -25.14618,6.52168 -35.93405,17.17992 -8.49445,8.39247 -12.72575,15.68753 -15.72121,27.10439 -1.87453,7.14463 -2.730407,23.49978 -1.48861,28.4454 3.7406,14.89773 6.73093,20.47813 15.26453,28.48626 7.09259,6.65594 11.83945,9.43438 21.72979,12.71902 7.6608,2.54415 8.26337,2.60326 23.2164,2.27856 14.50174,-0.31483 15.7514,-0.48537 22.57576,-3.07857 z m -33.51137,-15.09506 c -14.4197,-3.52958 -26.61015,-16.26576 -30.07231,-31.41857 -4.17845,-18.28834 7.6184,-38.95873 26.18374,-45.87893 14.5948,-5.44014 30.63745,-1.80964 42.01629,9.50839 8.65897,8.61271 12.07245,16.79739 12.06678,28.93345 -0.008,11.68188 -3.13965,19.12687 -11.63368,27.63512 -6.87285,6.88433 -11.42503,9.46749 -19.81943,11.2467 -7.14119,1.51362 -12.48125,1.50614 -18.74139,-0.0265 z m 18.59047,-4.59114 c 10.30035,-2.42774 19.58604,-10.12868 24.24412,-20.10663 2.11665,-4.534 2.39203,-6.22515 2.37891,-14.60939 -0.0151,-8.93443 -0.18557,-9.81199 -2.9749,-15.20152 -4.31607,-8.33999 -9.2349,-13.21713 -17.23068,-17.08457 -6.33396,-3.06368 -7.46483,-3.31351 -15.06368,-3.32745 -7.67675,-0.0151 -8.66155,0.2056 -15.01323,3.3445 -11.26919,5.56951 -17.59937,13.61889 -20.09666,25.55475 -1.20888,5.77787 -0.98415,10.11904 0.93199,18.00219 2.46788,10.15313 15.33914,21.61474 26.81496,23.87819 5.8811,1.15997 9.62445,1.05471 16.00917,-0.45007 z m -22.10332,-4.84539 c -6.77106,-3.19363 -13.12339,-9.67786 -16.43558,-16.77668 -2.147,-4.60154 -2.52805,-6.57793 -2.52805,-13.11296 0,-6.84291 0.3224,-8.34909 2.91013,-13.60596 3.53185,-7.17426 8.94417,-12.7234 15.59591,-15.99027 4.39926,-2.16065 6.01418,-2.44207 14.003,-2.44037 8.38299,0.002 9.42263,0.20712 14.50269,2.86122 8.52148,4.45247 14.32275,11.71332 17.13049,21.4405 4.07263,14.10913 -3.97074,30.81645 -18.07699,37.54878 -5.03059,2.4009 -6.61036,2.70943 -13.6853,2.67276 -6.85001,-0.034 -8.77587,-0.4083 -13.4163,-2.59702 z m 17.60909,-3.58613 c 0,-2.15411 -1.69493,-2.80573 -7.29812,-2.80573 -4.13537,0 -4.44129,0.15571 -4.44129,2.25758 0,2.17656 0.21052,2.25759 5.86965,2.25759 5.15716,0 5.86976,-0.20749 5.86976,-1.70944 z m 2.70912,-7.39393 c 9.72507,-4.40224 14.64201,-13.32219 12.64524,-22.94045 -1.90295,-9.16633 -10.0713,-15.81675 -19.42688,-15.81675 -5.66257,0 -9.36813,1.53826 -13.83938,5.74503 -4.00608,3.7691 -5.25604,6.35255 -6.0158,12.43332 -0.51602,4.13008 -0.2914,5.82218 1.1983,9.02937 2.61637,5.63252 4.46267,7.58578 10.08699,10.67123 5.84972,3.20909 9.71388,3.43019 15.35153,0.87825 z m -12.06701,-2.15274 c -3.9171,-1.39639 -8.22712,-5.13404 -10.13786,-8.79145 -0.70984,-1.3587 -1.27393,-4.99755 -1.27393,-8.2176 0,-5.00084 0.3685,-6.28766 2.73641,-9.55646 3.934,-5.43076 7.49424,-7.32246 13.7887,-7.3265 5.96557,-0.003 9.33491,1.43369 12.68108,5.41043 8.22391,9.77352 3.44655,26.09722 -8.43651,28.82676 -5.07172,1.165 -5.12743,1.16292 -9.35789,-0.34507 z m 12.0683,-5.59435 c 3.19997,-1.89029 6.31986,-7.35847 6.31986,-11.07666 0,-4.75884 -3.07982,-9.58133 -7.47912,-11.71102 -4.90942,-2.3766 -6.32474,-2.37433 -11.26594,0.0151 -5.28805,2.55991 -7.95987,7.73964 -7.06624,13.69886 0.66981,4.46676 3.26623,8.46134 6.29514,9.68516 3.26211,1.31803 10.49541,0.9815 13.1963,-0.61391 z m -10.38618,-4.02175 c -2.94773,-1.67297 -4.06364,-3.65409 -4.06364,-7.21406 0,-2.6425 0.59282,-3.85803 2.77837,-5.69707 1.5281,-1.28584 3.79435,-2.33783 5.03611,-2.33783 3.21676,0 7.53706,4.58993 7.53706,8.00738 0,5.37502 -6.84242,9.76456 -11.2879,7.24158 z m 5.6917,-6.79023 c 0.35074,-2.44535 -2.36916,-3.58953 -4.19418,-1.76455 -1.11991,1.11995 -1.14451,1.58083 -0.14853,2.78098 1.59284,1.91928 4.00263,1.35523 4.34267,-1.01643 z m 25.79668,5.76401 c 0.97685,-3.64509 0.59799,-8.55954 -0.74578,-9.6748 -2.25747,-1.87355 -3.20016,-0.13833 -3.20016,5.89017 0,5.09431 0.21127,5.81643 1.70075,5.81643 1.00032,0 1.92491,-0.83671 2.24519,-2.0318 z m -52.89049,-7.81618 c 0.26079,-5.43356 0.19427,-5.6301 -1.80604,-5.34648 -1.83262,0.25965 -2.10932,0.86812 -2.3545,5.17565 -0.18708,3.29386 0.10583,5.12443 0.90304,5.62923 2.23937,1.41868 2.98776,0.16441 3.2575,-5.4584 z m 32.23847,-24.05023 c 0,-1.94842 -2.64571,-2.90286 -8.41584,-3.03602 -3.54988,-0.082 -3.87473,0.093 -3.61209,1.94181 0.24793,1.74811 0.98196,2.10471 5.25517,2.55413 6.34688,0.66746 6.77276,0.57566 6.77276,-1.45992 z m 75.40301,48.29001 c 0,-1.20783 -10.24792,-5.90295 -14.71226,-6.74041 -2.64231,-0.49573 -3.34836,-0.34507 -3.34836,0.71395 0,0.73822 -0.25399,2.61207 -0.56436,4.16417 l -0.56444,2.82195 h 9.59471 c 6.17193,0 9.59471,-0.34243 9.59471,-0.95966 z m 234.72331,0.0748 c -2.80837,-1.64307 -17.77519,-3.14098 -29.28408,-2.9308 -57.34231,1.04708 -104.11278,2.26451 -109.71812,2.85597 -3.85039,0.40626 24.98268,0.75568 66.82419,0.80976 45.13391,0.0586 73.04817,-0.22602 72.17801,-0.73493 z m 56.93817,-1.07679 c 13.128,-1.55845 14.40628,-3.74282 2.72618,-4.65845 -7.50176,-0.58806 -12.38329,0.90221 -15.80304,4.82453 l -1.80605,2.07148 3.14355,-0.60858 c 1.72894,-0.33487 7.01166,-1.06775 11.73936,-1.62898 z M 315.96948,347.5532 c 12.66497,-0.44421 43.95492,-1.2621 69.53319,-1.81762 48.25032,-1.04791 57.79393,-1.48448 57.79393,-2.64393 0,-2.54018 -5.96677,-3.03488 -45.15148,-3.74335 -51.70623,-0.93495 -160.87992,-0.92697 -166.15747,0.0151 -2.23498,0.39769 -3.4865,0.77394 -2.78109,0.83611 1.21206,0.10658 9.71713,3.70999 17.68109,7.49057 3.93347,1.86724 12.49682,1.85069 69.08183,-0.13379 z m 204.80676,-2.63622 c 3.7059,-1.89064 6.19381,-4.31381 5.32301,-5.18457 -0.29367,-0.29367 -16.91066,-0.21543 -36.92716,0.17386 l -36.39367,0.70726 5.41818,1.70306 c 13.92295,4.37635 20.64502,5.16786 40.39502,4.75661 16.31407,-0.3394 19.16765,-0.61701 22.18462,-2.15615 z m 34.58702,0.72147 c 4.64126,-1.50028 8.79825,-3.46704 9.40581,-4.45005 0.32202,-0.52094 -1.14089,-0.87889 -3.59176,-0.87889 -2.86031,0 -5.24273,0.69936 -7.72898,2.26892 -5.57299,3.51802 -4.5515,5.15033 1.91493,3.06002 z m 239.93436,-3.70348 c 1.94366,-1.94366 0.61028,-16.04674 -1.64923,-17.44317 -0.38759,-0.23962 -3.08051,-0.0737 -5.98439,0.36889 -2.90382,0.4425 -11.17199,1.69874 -18.37365,2.79167 -7.20166,1.093 -13.55452,2.45767 -14.11752,3.03269 -0.56288,0.57509 -1.29422,3.58534 -1.62512,6.68954 l -0.60159,5.64389 h 20.63396 c 14.84455,0 20.93794,-0.30425 21.71754,-1.08363 z m 19.98221,-5.58074 c 13.17944,-5.18612 13.44204,-5.42888 13.547,-12.52501 l 0.0635,-4.28939 -3.38638,0.0302 c -1.86248,0.0151 -6.63731,0.61886 -10.61057,1.33674 -3.97335,0.71788 -8.44339,1.31951 -9.93336,1.33689 -4.94196,0.0578 -5.21919,0.69045 -4.50066,10.2737 0.41431,5.52628 1.02395,8.67806 1.6732,8.65044 0.56175,-0.0227 6.47799,-2.19058 13.14727,-4.8149 z m -201.49384,-1.33051 c 0.83025,-0.52667 1.09319,-2.69189 0.90301,-7.43622 l -0.26797,-6.69313 -31.606,-0.57868 c -17.38329,-0.31824 -102.06164,-0.66263 -188.17402,-0.76524 -130.46176,-0.15572 -156.69648,0.0151 -157.33911,1.03019 -0.4241,0.6692 -0.77738,3.74883 -0.78494,6.84351 -0.0151,5.09031 0.17991,5.67443 2.01801,6.12722 5.9986,1.47768 372.9731,2.91757 375.25136,1.47235 z m 8.62636,-10.51725 c 1.78114,-28.89302 21.27821,-52.58797 48.67601,-59.15637 8.91832,-2.13808 22.72966,-2.35567 31.50198,-0.49633 14.1374,2.99652 29.19493,12.31774 37.54594,23.24232 7.11481,9.30746 13.80257,25.63117 13.80257,33.68987 0,2.94256 0.20145,3.17205 2.78846,3.17205 2.77542,0 2.78559,-0.0151 2.17081,-3.83785 -1.70177,-10.575 -8.75822,-26.94293 -15.45721,-35.85456 -8.13978,-10.82835 -21.80621,-19.64995 -35.55662,-22.95164 -20.49426,-4.92098 -35.9808,-3.80999 -51.01678,3.66006 -11.43311,5.68003 -25.19437,19.20767 -30.8072,30.28411 -3.2931,6.49852 -5.63081,16.59405 -6.32349,27.30837 -0.61387,9.49485 -0.0525,14.04476 1.39699,11.32483 0.39704,-0.74499 0.9724,-5.41818 1.27854,-10.38486 z m -389.99221,2.48334 c -1.03268,-13.23916 -3.21607,-21.87088 -8.16601,-32.28333 -7.19153,-15.12763 -18.12321,-25.52349 -33.37995,-31.74357 -9.01327,-3.67469 -14.02485,-4.7384 -25.65086,-5.44456 -29.73835,-1.80643 -55.37537,14.57227 -67.38607,43.05078 -4.146331,9.83135 -6.543874,21.83724 -4.464643,22.35708 0.496668,0.12435 1.225361,-0.89174 1.619339,-2.25759 5.617134,-19.47435 10.936104,-29.49373 20.973204,-39.50755 7.74588,-7.72796 14.21072,-12.0421 22.31233,-14.8896 16.37733,-5.75615 37.67716,-4.14006 54.09936,4.10464 4.97341,2.49691 8.73241,5.41675 14.90797,11.5801 6.99009,6.97621 8.7998,9.41918 11.78892,15.91404 3.64845,7.92741 5.72538,15.8053 7.55811,28.66809 1.05259,7.38766 1.08351,7.44998 3.69785,7.44998 h 2.63633 z M 88.25199,317.43505 c 0.660321,-3.38355 1.008831,-6.65163 0.774387,-7.26255 -0.239244,-0.62317 -4.531276,-1.8017 -9.779377,-2.68517 -5.144239,-0.86596 -13.530066,-2.28949 -18.635187,-3.16343 -5.105046,-0.87386 -9.473462,-1.39732 -9.707528,-1.16322 -0.776996,0.77696 -0.440013,7.4406 0.461518,9.12506 0.590287,1.10295 5.499591,3.17859 14.674205,6.20414 21.259843,7.01083 20.632101,7.04065 22.211982,-1.05483 z m 696.38986,3.35731 c 4.22165,-0.71845 12.55211,-1.90008 18.51209,-2.62582 5.96005,-0.72571 13.68094,-1.76353 17.15762,-2.30616 3.47663,-0.54266 10.28379,-1.48146 15.12691,-2.08633 4.84316,-0.60484 9.17809,-1.48524 9.63326,-1.9564 0.45517,-0.47116 1.11031,-2.78687 1.45588,-5.14609 l 0.62838,-4.28939 h -3.23082 c -3.56874,0 -15.61379,1.15839 -33.54697,3.22613 -6.45664,0.74449 -15.19344,1.73155 -19.41513,2.19349 -29.1529,3.19 -28.98826,3.14426 -28.28689,7.85873 0.28044,1.88523 1.10369,4.37813 1.82933,5.53969 1.22849,1.96649 1.70305,2.07016 6.89,1.5052 3.06384,-0.33411 9.02468,-1.19463 13.24634,-1.91305 z m -178.76176,-6.67075 c 0.37758,-0.74506 1.39899,-3.79275 2.27006,-6.77276 0.87103,-2.97997 2.35646,-7.65313 3.30089,-10.38482 3.90486,-11.29421 4.58336,-13.58733 4.14882,-14.0219 -0.85689,-0.85681 -131.3644,-1.64783 -131.86329,-0.79925 -0.26646,0.45331 -0.6361,7.93549 -0.82137,16.6272 l -0.33676,15.80303 4.96676,0.53345 c 2.73161,0.29367 30.32009,0.49659 61.30764,0.4515 49.11829,-0.0711 56.42907,-0.25587 57.02733,-1.43645 z m 10.75506,-2.93491 c 1.38732,-5.47514 6.72027,-17.39785 10.34627,-23.13098 2.84232,-4.49397 2.2266,-6.05563 -2.01974,-5.12296 -2.24496,0.49312 -3.20886,1.59504 -5.41168,6.18682 -2.74239,5.71646 -8.28983,22.66557 -8.28983,25.3279 0,0.94454 0.75512,1.48018 2.08679,1.48018 1.76296,0 2.27335,-0.73591 3.28819,-4.74096 z M 270.3327,309.38065 c -0.36019,-2.60746 -1.10944,-10.02357 -1.66507,-16.48025 l -1.01027,-11.73941 -21.22122,-0.2211 c -11.67167,-0.12132 -21.79086,0.14362 -22.48713,0.58957 -1.03899,0.66535 -0.80447,1.59568 1.30772,5.18778 4.46495,7.59337 7.49446,14.41448 9.02438,20.31866 0.81445,3.14287 1.67146,6.02287 1.9045,6.39999 0.23282,0.3772 8.15887,0.68568 17.61279,0.68568 h 17.18903 z m 208.18207,-11.51358 v -16.25454 l -34.54091,-6.8e-4 c -18.9975,-3.4e-4 -65.32286,-0.27061 -102.94536,-0.60003 l -68.4045,-0.5994 -0.0113,3.98638 c -0.008,3.45555 0.66909,10.78148 2.39089,25.88493 l 0.43756,3.83788 h 101.5355 101.53582 z M 45.963535,310.12378 c 0,-0.7087 -1.193915,-7.51533 -2.653266,-15.12571 -1.459276,-7.61042 -2.98371,-15.8507 -3.387629,-18.31177 -0.891099,-5.42918 -1.617222,-5.73014 -13.825739,-5.73014 -10.342375,0 -13.002785,0.62211 -13.367056,3.12567 -0.372283,2.55892 1.700296,2.98835 14.495812,3.00325 l 10.610609,0.0151 v 3.48632 3.48635 l -4.74089,0.56942 c -2.607533,0.31332 -7.25673,0.57301 -10.331565,0.57728 -3.074835,0.003 -5.799723,0.34621 -6.055295,0.75969 -0.569461,0.92141 2.697449,14.62087 3.700838,15.51893 0.396473,0.3549 3.474444,1.37235 6.84,2.26099 3.365556,0.88868 8.648278,2.94516 11.739403,4.56986 6.492095,3.41231 6.974778,3.53673 6.974778,1.79758 z M 871.33268,308.6563 c 6.20833,-0.51318 13.27284,-1.22056 15.69895,-1.57183 l 4.41105,-0.63863 1.9917,-7.93738 c 1.39151,-5.54532 1.695,-8.13063 1.00713,-8.57877 -0.54153,-0.35263 -9.03311,-0.77379 -18.87024,-0.93559 -18.53314,-0.30501 -20.49313,0.0189 -20.49313,3.4162 0,0.85047 -0.77314,3.95006 -1.71817,6.88793 -0.94499,2.93786 -2.00681,6.72427 -2.35956,8.41425 l -0.64142,3.07272 4.84293,-0.59789 c 2.66359,-0.32844 9.92244,-1.01775 16.13076,-1.53101 z m -89.39992,-4.89366 c 6.70499,-0.73663 16.45776,-1.76915 21.67268,-2.29447 10.78949,-1.08688 29.96096,-3.28154 39.19563,-4.4869 3.42928,-0.44761 6.52977,-1.29068 6.88993,-1.87344 0.91415,-1.47912 1.8949,-9.1612 1.25181,-9.805 -0.80972,-0.8106 -74.07152,-1.24967 -88.58574,-0.53099 l -12.803,0.63405 3.54698,5.79493 c 1.9508,3.18727 3.54689,5.95736 3.54689,6.15579 0,0.19843 0.82205,2.27856 1.8268,4.62255 l 1.82684,4.2618 4.72013,-0.5695 c 2.59609,-0.31333 10.20605,-1.17219 16.91105,-1.90882 z M 92.231039,301.25342 c 0.562129,-1.61416 2.808453,-6.32262 4.991886,-10.46317 2.183396,-4.14055 3.703785,-7.79433 3.378635,-8.11949 -0.32542,-0.32541 -12.650081,-0.59467 -27.388802,-0.59894 l -26.797721,-0.008 0.236977,4.46839 c 0.130394,2.45764 0.943068,5.89043 1.806085,7.62841 1.731704,3.48748 1.249285,3.32814 22.338823,7.37949 5.463345,1.0495 10.102601,2.07466 10.309568,2.27807 0.207118,0.20334 2.564674,0.37002 5.239408,0.37002 4.674936,0 4.90269,-0.11377 5.885178,-2.93488 z M 818.68436,279.24096 c 5.16139,-0.53949 5.46224,-0.70885 6.53654,-3.67971 0.61935,-1.71289 0.89548,-3.34481 0.61368,-3.62665 -1.75839,-1.75839 -88.36207,-3.00745 -89.42366,-1.28973 -0.64551,1.0444 2.66271,4.01779 7.59458,6.82606 l 4.06363,2.31379 32.60236,0.0113 c 17.93133,0.008 35.03709,-0.24378 38.01287,-0.55461 z m 27.71973,-0.0189 c 7.92287,-0.66973 8.17062,-0.90157 9.12197,-8.53792 l 0.63061,-5.06173 -3.83705,-0.51462 c -2.11038,-0.28271 -7.40039,-0.28384 -11.75554,-0.002 -6.17617,0.40014 -8.0202,0.83236 -8.38084,1.96429 -2.58901,8.12674 -3.16297,11.35949 -2.13294,12.01403 1.35443,0.86067 7.21656,0.91003 16.35379,0.13719 z m 52.3361,-1.42874 c 0.29027,-1.10891 0.11415,-2.42967 -0.39103,-2.93488 -0.56281,-0.563 -8.07961,-0.91861 -19.41811,-0.91861 -19.55063,0 -20.19058,0.13568 -20.2269,4.28942 -0.0151,1.45731 1.5239,1.5803 19.74746,1.5803 19.68855,0 19.76327,-0.008 20.28858,-2.01623 z m -278.6936,-1.48501 c 1.61949,-0.89518 5.66204,-6.58379 5.66204,-7.96755 0,-0.96937 -12.92107,-1.14255 -71.11363,-0.95335 l -71.11359,0.23093 v 4.51514 4.51521 l 23.93031,0.53431 c 28.56892,0.63795 111.057,-0.003 112.63487,-0.87496 z m 20.41546,-2.95998 c 2.56396,-2.01789 4.79717,-4.03094 4.96271,-4.47352 0.50101,-1.3392 -9.68629,-0.90097 -12.46552,0.53624 -2.71321,1.40303 -6.34761,5.82289 -6.34761,7.71938 0,0.80731 1.24022,0.94122 4.5944,0.49629 3.45471,-0.45831 5.75062,-1.51952 9.25602,-4.27839 z M 67.341148,272.80952 c -0.300472,-2.35914 -0.985965,-5.81321 -1.522809,-7.67569 l -0.976063,-3.38638 -9.66516,0.0151 c -11.295647,0.0151 -13.628636,0.46371 -13.235981,2.54887 0.155716,0.82636 0.773405,4.04225 1.372989,7.14637 l 1.090129,5.64397 h 11.741783 11.741783 l -0.546671,-4.28938 z m 44.317792,-0.32466 c 2.6075,-2.52537 4.74093,-4.75536 4.74093,-4.95556 0,-0.19994 -10.15907,-0.36397 -22.57576,-0.36397 -25.173091,0 -23.600845,-0.47044 -21.52974,6.4422 l 1.045947,3.49111 16.788851,-0.0113 16.788922,-0.0113 4.74085,-4.59168 z m 366.85583,-0.20598 v -4.81966 l -94.64905,-0.62861 c -52.05696,-0.34582 -98.58556,-0.35187 -103.39686,-0.0151 l -8.7479,0.61493 v 3.4255 c 0,1.88402 0.50797,3.73985 1.12879,4.12403 1.76436,1.09176 47.64329,1.7822 130.0363,1.95689 l 75.62872,0.16063 z m -211.32274,-0.37266 c -0.0227,-6.13006 1.36376,-5.87124 -29.59847,-5.51498 -15.4173,0.17764 -28.37004,0.66853 -28.78382,1.09134 -0.41382,0.42274 1.07629,2.35189 3.31128,4.28689 l 4.0636,3.51821 25.51064,0.003 25.5106,0.003 -0.0151,-3.38639 z m 625.58842,-4.0636 c -0.56357,-1.69402 -4.50739,-2.25974 -16.48109,-2.36421 -11.87225,-0.10318 -14.89999,0.35225 -14.89999,2.24376 0,1.01623 2.96126,1.2492 15.87825,1.2492 12.30088,0 15.7937,-0.25436 15.50283,-1.12875 z M 37.836266,264.59347 c 0,-1.48127 -1.075693,-1.73465 -9.57294,-2.25452 -10.210885,-0.62476 -10.676826,-0.5415 -12.12669,2.16759 -0.907465,1.69557 -0.551736,1.75574 10.379981,1.75574 10.407345,0 11.319649,-0.13455 11.319649,-1.66881 z m 816.602044,-4.31505 4.12728,-0.56572 0.98827,-6.43279 c 1.34892,-8.7806 2.65115,-16.03374 4.28478,-23.86503 0.75677,-3.62775 1.15007,-6.82179 0.87401,-7.09784 -2.76121,-2.76118 -178.96604,-7.6337 -188.02813,-5.19942 -1.48721,0.39949 -2.16741,1.95163 -3.45729,7.88919 -0.88324,4.06553 -1.98361,8.62689 -2.44524,10.13632 -1.1139,3.64229 -9.73142,11.93314 -17.30521,16.64916 -3.35252,2.08754 -6.09543,4.17093 -6.09543,4.62973 0,0.81339 1.46649,0.288 10.03574,-3.59769 2.2913,-1.03892 8.58996,-2.95597 13.99695,-4.2601 16.44219,-3.96578 33.12514,-2.32475 51.37028,5.05312 3.97331,1.60675 8.44331,3.31819 9.93328,3.80333 1.49004,0.48503 23.84001,1.39302 49.6667,2.01767 59.74571,1.44502 67.02142,1.52987 72.05401,0.84007 z M 798.791,253.7423 c -8.90256,-0.82825 -10.35764,-3.60299 -9.35323,-17.83552 0.8064,-11.42634 -0.11755,-10.79648 16.86833,-11.49672 12.50098,-0.51537 14.9342,-0.39167 17.42808,0.88596 1.59417,0.81676 3.19707,1.93622 3.56198,2.48776 1.03918,1.57062 0.80357,13.4719 -0.36699,18.5435 -1.59549,6.91226 -2.95979,7.72184 -13.25707,7.86656 -4.79158,0.0673 -11.48799,-0.13569 -14.88091,-0.45154 z m 22.32325,-4.68779 c 0.22299,-0.22299 0.68527,-1.52167 1.02781,-2.88646 0.51639,-2.05735 0.32844,-2.48153 -1.10053,-2.48153 -2.26095,0 -3.89064,-1.70211 -3.89064,-4.06359 0,-2.60315 1.68771,-4.06368 4.6958,-4.06368 2.08539,0 2.52842,-0.39001 2.52842,-2.2258 0,-1.27634 -0.74502,-2.62454 -1.74667,-3.16059 -0.9747,-0.52165 -7.55996,-0.93479 -14.89999,-0.93479 H 794.5752 l 0.0151,8.80456 c 0.0151,9.41662 0.33524,10.5727 3.14676,11.35684 2.06396,0.57562 22.7633,0.27061 23.37842,-0.34507 z m 54.16921,8.96769 c 0.98291,-4.91464 0.68327,-10.01027 -0.56439,-9.598 -0.71468,0.23622 -1.22673,2.58278 -1.39578,6.39643 -0.27478,6.19907 0.95799,8.21254 1.96017,3.20157 z m -7.30125,-2.37052 c 0.28233,-2.35915 0.80243,-5.03626 1.15593,-5.94917 0.52641,-1.35934 0.26192,-1.60448 -1.46124,-1.35451 -1.68458,0.24454 -2.33651,1.20533 -3.27031,4.82038 -1.59674,6.18134 -1.51548,6.77276 0.93063,6.77276 1.86916,0 2.19504,-0.52849 2.64499,-4.28946 z m -780.479285,0.60449 31.154495,-1.0035 9.03031,-4.37473 c 10.52156,-5.09722 17.66952,-7.0975 27.87016,-7.79913 13.48948,-0.92787 36.0429,3.90373 46.62981,9.98945 l 4.06364,2.33593 30.84185,0.0113 30.84189,0.0113 0.51628,-9.25606 c 1.68722,-30.25006 1.68768,-30.44795 0.0677,-31.06965 -3.62944,-1.39275 -127.67834,3.24242 -162.50389,6.07212 -5.96002,0.48423 -15.915934,1.2624 -22.124262,1.72928 -30.965178,2.32857 -47.860575,4.32533 -47.860575,5.65637 0,3.11009 4.84271,27.52906 5.653154,28.50561 0.769738,0.92753 2.690116,1.10192 7.842217,0.71218 3.75258,-0.28347 20.842357,-0.9676 37.977374,-1.51953 z m -32.304228,-2.86204 c -2.045593,-2.51176 -3.685984,-8.08256 -3.969033,-13.47931 l -0.299338,-5.71011 4.31622,-0.27628 4.316183,-0.27629 2.408429,5.243 c 1.385083,3.01516 2.570948,7.44934 2.790841,10.43543 l 0.382374,5.19243 h -4.513096 c -2.518224,0 -4.919509,-0.49901 -5.432428,-1.1288 z m -20.603302,3.29219 c 0.997002,-0.3826 1.272,-1.25968 0.92024,-2.93484 -0.276284,-1.31406 -0.687194,-3.30353 -0.913814,-4.42099 -0.360189,-1.77604 -0.971528,-2.0318 -4.856731,-2.0318 -2.444561,0 -4.658986,0.34696 -4.920983,0.77069 -0.261921,0.42387 -0.0189,2.15089 0.535181,3.83788 0.556233,1.68692 1.140208,3.57509 1.297663,4.19596 0.296693,1.16995 5.427137,1.54681 7.938444,0.5831 z m 608.527295,-3.84495 c 3.58386,-2.41489 8.34482,-5.44626 10.5798,-6.73644 8.57639,-4.95077 13.07585,-11.34784 15.46122,-21.98173 1.51434,-6.75088 0.90255,-7.67974 -4.84048,-7.34937 l -4.75098,0.27364 -0.45154,7.2243 -0.4515,7.22419 -15.0824,0.24718 c -17.57306,0.28838 -17.26284,0.45577 -16.8672,-9.1076 l 0.23093,-5.58826 -9.87719,-0.56236 c -5.43239,-0.30916 -36.75522,-0.61409 -69.6062,-0.67729 -49.5642,-0.0952 -59.80917,0.0941 -60.19967,1.11152 -0.77227,2.01249 -1.82858,38.19421 -1.14724,39.29655 0.45732,0.73999 21.00665,1.01646 75.55707,1.01646 h 74.92887 z m -162.49758,1.45576 c 0.27515,-1.11745 0.78712,-10.6817 1.1379,-21.25387 l 0.63787,-19.22211 -103.45894,0.25852 c -56.90243,0.14249 -103.6612,0.46159 -103.90841,0.70991 -0.63376,0.6367 -2.25412,36.97194 -1.73692,38.94966 0.56825,2.17303 0.25625,2.16646 113.23697,2.39799 l 93.59146,0.192 z m -36.42546,-21.29922 c -2.13929,-0.64041 -2.27135,-1.06417 -2.51985,-8.08751 l -0.26192,-7.41173 h 15.83954 15.83955 v 6.66221 c 0,5.04544 -0.35565,6.95735 -1.46612,7.87884 -1.65048,1.36978 -23.50556,2.13324 -27.43086,0.95819 z m 17.9046,-6.76611 c 0.17386,-0.90841 0.0688,-2.63547 -0.23282,-3.83785 -0.52286,-2.08339 -0.88592,-2.18615 -7.72392,-2.18615 -6.22624,0 -7.30182,0.23659 -8.13191,1.78752 -0.52619,0.98313 -0.69582,2.82686 -0.37682,4.09724 0.57248,2.2809 0.67687,2.30645 8.36473,2.05035 6.70746,-0.22374 7.82873,-0.48801 8.10089,-1.91111 z M 32.288901,241.9795 c 1.59806,-1.01261 0.559483,-6.06191 -1.401714,-6.81449 -0.781304,-0.29972 -2.788346,-0.28838 -4.460031,0.0227 -2.70361,0.50714 -3.039383,0.89155 -3.039383,3.47977 0,1.60029 0.270992,3.18051 0.602041,3.51164 0.863093,0.86305 6.847975,0.71739 8.299087,-0.20183 z m 837.809769,-5.12595 c 1.06722,-5.32766 0.94696,-6.71244 -0.58284,-6.71244 -1.05188,0 -2.68679,5.93851 -2.69326,9.78282 -0.008,4.86391 2.0784,2.90838 3.2761,-3.07038 z m 7.50735,-0.0454 c 1.04704,-6.01262 0.90312,-7.3022 -0.70435,-6.30875 -1.19294,0.73727 -3.16736,9.2773 -2.5293,10.94007 1.07312,2.79655 2.22826,1.1421 3.23365,-4.63132 z m -231.63799,-9.35377 c 2.29705,-0.87333 2.90196,-2.86367 1.76818,-5.81816 -0.44293,-1.15438 -2.08887,-1.4284 -8.57874,-1.4284 h -8.03066 v 3.46159 c 0,1.90387 0.27099,3.73252 0.602,4.06364 0.92379,0.92379 11.62745,0.71433 14.23922,-0.27855 z M 61.896625,220.22492 c 4.895169,-0.4873 19.262514,-1.50354 31.927485,-2.25838 12.66501,-0.75481 26.88771,-1.77755 31.60607,-2.27275 4.71833,-0.49523 24.63013,-1.51502 44.24844,-2.26624 19.61832,-0.75126 43.18738,-1.75359 52.37575,-2.22743 9.1883,-0.4738 24.32591,-1.13979 33.63916,-1.47991 11.481,-0.4193 17.22546,-0.97062 17.84103,-1.71239 0.49939,-0.6017 1.29956,-4.18277 1.7782,-7.95787 0.47864,-3.77522 1.44937,-8.24988 2.15712,-9.94382 2.3062,-5.51948 38.55512,-35.71699 65.21931,-54.33158 3.55725,-2.48334 11.90256,-8.38122 18.54519,-13.10646 16.16066,-11.49589 15.89965,-11.3449 22.04695,-12.75232 7.23557,-1.65645 132.21604,-1.72263 172.89397,-0.0915 54.58541,2.18884 104.30831,4.9423 105.41881,5.83763 2.04499,1.6489 0.19124,2.50341 -5.46157,2.51736 -8.05977,0.0189 -8.82592,0.89151 -4.08824,4.6507 4.35798,3.45804 17.34735,13.49405 25.49004,19.69448 13.30148,10.12876 50.55719,44.55938 53.59835,49.53404 2.51241,4.10967 2.54075,5.59196 0.16479,8.61241 l -1.87162,2.37936 h -26.53289 -26.53293 l -0.60555,3.22806 c -0.33298,1.77543 -0.24983,3.58076 0.18482,4.01185 0.43472,0.43106 10.94948,1.01904 23.36613,1.30655 93.16683,2.15728 151.89143,3.28524 158.03018,3.03545 l 7.22423,-0.29405 -3.64691,-3.61209 c -2.00583,-1.98671 -7.49174,-5.71253 -12.1909,-8.27963 -7.39873,-4.0419 -8.52325,-4.96486 -8.38938,-6.88596 0.18671,-2.67654 -1.7757,-3.72718 -9.61633,-5.149 -4.41135,-0.7999 -21.20183,-8.85702 -82.02429,-39.36038 -48.31831,-24.23229 -76.76599,-38.98397 -77.26099,-40.06397 -1.2652,-2.76049 -0.0767,-2.60727 -49.33463,-6.36227 -61.82884,-4.713259 -219.43647,-5.383143 -244.26953,-1.03827 -2.99751,0.52444 -3.56716,0.95531 -3.34768,2.53213 0.38827,2.79012 -7.86172,9.77488 -22.84022,19.3375 -6.95331,4.43909 -25.03649,17.12292 -40.18484,28.18632 -24.3761,17.80267 -27.57585,20.42336 -27.83342,22.79629 -0.20939,1.92745 -1.47848,3.62673 -4.5151,6.04494 -2.32332,1.85008 -7.37175,6.1324 -11.21878,9.51636 l -6.99473,6.15262 -13.32355,1.10525 c -16.38327,1.35912 -30.43669,2.42441 -62.53875,4.74058 -40.94056,2.95382 -44.9562,3.33086 -76.30598,7.16387 -18.142187,2.21821 -55.012424,8.11204 -59.59994,9.52728 -1.960894,0.60495 4.323705,0.37644 12.772461,-0.4648 z m 608.786115,-12.78316 0.27401,-3.28426 -20.14083,-0.6079 c -11.07742,-0.33449 -52.24355,-0.48189 -91.48018,-0.32806 l -71.33934,0.28006 -0.28574,2.4833 c -0.15722,1.36581 -0.15722,2.55032 0,2.63218 1.36245,0.70968 95.32177,2.24069 133.93414,2.18237 l 48.76358,-0.0737 0.27402,-3.28425 z m -368.25875,-0.59879 c 0,-1.39064 -0.48764,-3.0161 -1.08363,-3.61209 -1.48607,-1.48608 -19.82544,-1.48608 -21.31147,0 -1.1681,1.16806 -1.46279,4.55739 -0.48163,5.53859 0.33109,0.33109 5.61381,0.602 11.73937,0.602 h 11.13736 z m 180.6368,0.66474 c 2.46119,-4.5987 4.99506,-4.45746 -79.95425,-4.45746 H 324.3073 l -0.54444,2.03184 c -0.29934,1.11749 -0.55007,2.53976 -0.55687,3.16059 -0.0113,0.89458 16.47008,1.12879 79.42252,1.12879 79.3307,0 79.43615,-0.003 80.43228,-1.86376 z m -321.96097,-6.25708 c 16.86814,-1.43815 57.21751,-4.40852 72.69388,-5.35151 7.69837,-0.46904 14.98473,-1.2215 16.19187,-1.67202 2.16348,-0.80746 2.15332,-0.82749 -0.71077,-1.40036 -1.59814,-0.31975 -6.73282,-0.85013 -11.4104,-1.17891 -6.76422,-0.4755 -8.92883,-0.32239 -10.57708,0.74642 -1.40255,0.90977 -5.86662,1.54787 -13.81176,1.97424 -34.00841,1.82506 -66.14388,5.30744 -72.08084,7.81119 -2.08449,0.87908 -0.78569,0.81785 19.7051,-0.92905 z M 493.0867,190.40784 c 0.31635,-4.22165 0.72257,-23.52393 0.90301,-42.89389 l 0.32806,-35.21817 -2.81957,-0.27439 c -1.80302,-0.17537 -2.99671,0.18708 -3.31097,1.00633 -0.27062,0.70439 -1.14743,9.36148 -1.94914,19.23799 -0.80172,9.87647 -2.05229,23.84954 -2.77902,31.05124 -2.53768,25.14897 -3.17756,33.52089 -2.62972,34.40727 0.3035,0.49111 3.05621,0.77291 6.11713,0.62615 l 5.56528,-0.26683 z m 204.63856,7.46351 c -2.35914,-0.18595 -6.21967,-0.18595 -8.57881,0 -2.35918,0.18596 -0.42894,0.33827 4.28939,0.33827 4.71836,0 6.64856,-0.15194 4.28942,-0.33827 z m -361.88915,-5.04056 c 0,-0.65405 -2.43315,-4.41279 -5.40703,-8.35276 -5.5629,-7.37031 -9.9445,-14.94013 -9.9445,-17.18075 0,-0.69917 -0.23774,-1.27124 -0.52774,-1.27124 -1.1178,0 -11.11279,8.36829 -11.69257,9.78958 -1.09841,2.69257 -1.64742,17.30131 -0.65023,17.30131 0.50891,0 3.43733,-1.72705 6.50755,-3.83788 10.00641,-6.87965 10.80083,-7.28375 12.13788,-6.17412 0.67143,0.55725 1.48123,2.976 1.79943,5.37494 0.31824,2.39894 0.84378,4.62686 1.16784,4.95088 1.12701,1.12705 6.60937,0.62937 6.60937,-0.59996 z m 134.99258,0.30311 c 0.53544,-0.86641 1.89864,-14.8075 4.10755,-42.00763 0.60503,-7.45002 1.58098,-17.73411 2.16877,-22.8536 0.58783,-5.11948 0.84068,-9.44594 0.56198,-9.61443 -1.79921,-1.08741 -19.21206,-1.31762 -54.23706,-0.71706 l -40.18481,0.68901 -4.06359,2.38651 c -2.23497,1.31263 -9.92158,6.79563 -17.08118,12.18444 -7.15967,5.38881 -13.86467,10.40391 -14.89999,11.14458 -1.03537,0.74071 -6.25085,4.72282 -11.59004,8.84916 -9.14835,7.07025 -10.95485,9.24484 -8.79107,10.58211 0.50404,0.31143 4.83239,6.12616 9.61864,12.92149 4.78616,6.79529 9.73254,13.47254 10.99184,14.83835 l 2.28968,2.4833 h 60.28076 c 38.45182,0 60.4791,-0.32088 60.82852,-0.88623 z m 139.81398,-1.14557 c 0.26457,-1.11746 0.77005,-16.14047 1.12294,-33.38438 0.72268,-35.31666 0.75851,-35.08585 -5.69548,-36.69951 -5.44653,-1.36181 -33.43212,-2.74107 -68.17191,-3.35985 -30.90123,-0.55042 -32.30325,-0.50351 -32.96054,1.10339 -0.37758,0.92308 -0.68659,8.11151 -0.68659,15.97425 0,12.47664 0.19767,14.44048 1.55282,15.43094 1.37336,1.00381 1.56801,3.2815 1.6848,19.71058 0.0726,10.21655 -0.14249,19.01923 -0.47728,19.56144 -0.33525,0.54225 -1.39805,0.98585 -2.36206,0.98585 -1.75294,0 -2.28453,0.97338 -1.15075,2.10709 0.33109,0.33108 24.46564,0.602 53.63233,0.602 h 53.0304 z m 52.51197,-0.73474 c -1.72585,-3.33732 -13.1085,-18.40411 -24.17545,-32.00009 -4.44714,-5.46331 -9.76021,-12.04229 -11.8069,-14.61989 -2.04669,-2.57768 -4.12759,-4.57728 -4.62425,-4.44356 -1.19785,0.32278 -2.0213,14.09844 -2.1515,35.99528 l -0.10621,17.8348 h 22.14736 22.14742 z m 35.43609,2.09609 c -3.37315,-0.17462 -8.65591,-0.1731 -11.7394,0.003 -3.08353,0.17575 -0.32353,0.31862 6.133,0.31673 6.45668,-0.002 8.97956,-0.14552 5.6064,-0.31975 z m -396.71489,-1.6611 c 0.79786,-2.07912 0.67208,-11.21401 -0.15458,-11.21401 -0.60446,0 -12.59887,9.40433 -15.05533,11.80429 -0.52917,0.517 2.11506,0.83815 6.90187,0.83815 6.24287,0 7.8669,-0.27931 8.30789,-1.42843 z m 397.69836,-2.85411 c -3.8256,-0.16895 -10.32744,-0.16933 -14.44845,-0.002 -4.12112,0.16744 -0.99111,0.30577 6.95554,0.30728 7.94668,9.1e-4 11.31848,-0.13606 7.49291,-0.30501 z m -443.82265,-3.09355 c 1.65445,-0.88475 22.74519,-16.59696 37.64209,-28.04266 4.02712,-3.09411 30.12057,-22.24686 31.95462,-23.45488 0.52452,-0.34545 0.70677,-0.87507 0.40494,-1.1769 -0.30199,-0.30161 -3.65968,1.40307 -7.46192,3.78875 -9.10541,5.71305 -25.78477,15.89858 -52.89151,32.29923 -12.16834,7.36226 -22.69001,13.9078 -23.38148,14.54559 -1.04681,0.96552 -0.66886,1.25847 2.25755,1.75011 1.93316,0.32504 3.92122,0.72832 4.41789,0.89673 1.97567,0.67011 5.1874,0.39436 7.05782,-0.60597 z m 446.48885,-1.42503 c -5.33915,-0.15988 -14.07602,-0.15988 -19.41517,0 -5.33911,0.15987 -0.9707,0.29027 9.7076,0.29027 10.6783,0 15.04668,-0.13078 9.70757,-0.29027 z m -466.83522,-2.57205 c 1.18654,-0.77744 1.92797,-1.64299 1.64761,-1.92332 -0.67952,-0.67956 -8.49521,2.33813 -9.25981,3.57524 -0.85345,1.38093 4.88364,0.13569 7.6122,-1.65192 z m 591.67906,-0.209 c 0,-1.22344 -4.45742,-5.03135 -5.11718,-4.37163 -0.33524,0.33524 0.34356,1.62349 1.50841,2.86314 2.13275,2.27029 3.60877,2.88722 3.60877,1.50849 z M 701.05056,168.83381 c 0.27326,-0.44232 -0.55657,-1.49458 -1.84433,-2.33836 -1.28776,-0.84378 -8.29406,-6.64373 -15.5695,-12.88875 -7.27548,-6.24503 -20.51497,-16.82767 -29.42113,-23.5169 l -16.19293,-12.16233 -9.84567,-0.56433 c -5.41512,-0.3103 -10.29392,-0.28762 -10.8418,0.0514 -0.61777,0.3818 1.04065,2.87372 4.36588,6.56008 7.3903,8.19289 12.49368,14.27135 26.13177,31.12479 l 11.7394,14.50715 20.49063,0.0151 c 11.26984,0.0113 20.71431,-0.3462 20.98768,-0.78845 z M 106.81813,140.74164 c -10.333687,-2.45182 -16.213006,-4.81296 -24.728622,-9.93097 -17.105991,-10.281 -28.394685,-24.04313 -34.446389,-41.993769 -1.850834,-5.48984 -2.131086,-8.043289 -2.131086,-19.415132 0,-11.174853 0.288,-13.893543 1.965467,-18.54977 C 51.751353,38.988553 55.356531,33.092753 63.828153,24.11233 77.955347,9.136708 93.83216,1.597193 114.21557,0.1844812 c 33.56028,-2.3259213 66.06387,17.5666018 76.73375,46.9618418 1.14258,3.147704 2.7849,10.065109 3.64958,15.371906 1.49545,9.178016 1.49507,10.089185 -0.008,18.674873 -2.80376,16.01915 -7.78968,25.426128 -19.80363,37.363468 -11.66154,11.58727 -24.23368,18.16849 -41.23022,21.58314 -11.77878,2.36644 -18.65053,2.5211 -26.73925,0.60193 z m 4.88598,-9.21143 c 0.79593,-0.79593 1.08367,-8.46841 1.08367,-28.89698 V 74.819949 H 86.599883 60.412027 v 3.087685 c 0,8.677871 5.556586,22.188356 12.912227,31.394946 8.271836,10.35338 16.359081,16.31588 28.127656,20.7377 7.37133,2.76964 8.76934,2.97279 10.2522,1.48993 z m 23.11049,-0.82643 c 17.77285,-5.28892 31.76727,-17.3839 38.87853,-33.601588 2.81476,-6.419301 6.2863,-20.022085 5.57967,-21.863471 -0.5269,-1.373065 -2.84243,-1.481915 -25.3302,-1.190778 -13.61265,0.176126 -25.08881,0.658356 -25.50255,1.071307 -0.41375,0.412913 -0.96926,11.384731 -1.23443,24.381771 -0.48416,23.728059 -0.67246,25.225019 -3.72851,29.640149 -0.91249,1.3183 -1.65906,2.63898 -1.65906,2.93481 0,1.16821 6.9123,0.43838 12.99655,-1.3722 z M 110.4563,63.968623 c 0.61168,-0.61081 1.18715,-8.97755 1.53917,-22.378735 0.59063,-22.48014 1.00192,-24.818421 5.47223,-31.110767 l 1.76421,-2.4833768 h -5.89962 c -17.646876,0 -37.872679,14.9512448 -47.150852,34.8546168 -3.143244,6.742866 -6.258784,19.458482 -5.34875,21.83006 0.472441,1.231181 3.379729,1.329336 24.59127,0.829984 15.277492,-0.359811 24.411892,-0.92228 25.032342,-1.541782 z m 68.42956,-2.954192 C 178.27308,51.366166 172.40567,37.902468 164.6813,28.419934 155.04259,16.587518 136.08339,6.600078 128.66466,9.4468939 c -1.25586,0.4819653 -1.42843,3.6256631 -1.42843,26.0152821 0,26.645747 0.0612,27.085193 4.06363,29.293118 1.21308,0.669165 9.36617,0.928365 24.83332,0.789543 l 23.02722,-0.207118 z" />
</svg>
