<svg
   version="1.1"
   id="svg1"
   width="247.64635"
   height="80.036247"
   viewBox="0 0 247.64635 80.036247"
   xmlns="http://www.w3.org/2000/svg"
   xmlns:svg="http://www.w3.org/2000/svg">
  <defs
     id="defs1" />
  <g
     id="g1"
     transform="translate(123.9522,66.101053)">
    <path
       style="fill:#000000"
       d="m -108.70608,10.58224 c -10.24818,-5.1443104 -15.27827,-14.3869304 -15.24597,-28.01396 0.0483,-20.39333 11.55948,-38.16625 28.928399,-44.6648 9.432696,-3.52922 15.532269,-3.36052 24.188175,0.66903 8.610203,4.00826 9.125737,4.04129 10.200938,0.65364 0.84066,-2.64869 4.666666,-3.80967 4.666666,-1.41607 0,1.33603 -3.660015,17.8557 -4.818689,21.7494 -0.658372,2.21245 -4.690392,3.4464 -4.356749,1.33333 1.67279,-10.59433 -4.38745,-19 -13.698449,-19 -15.662428,0 -28.263801,18.91373 -28.395991,42.62028 -0.0736,13.1979496 1.96798,19.3046696 7.39147,22.1092696 4.599039,2.37825 10.654781,2.49972 13.483762,0.27045 1.189575,-0.93739 3.265952,-7.02366001 4.745335,-13.9095 2.741005,-12.7581096 2.336467,-15.0904996 -2.617355,-15.0904996 -1.32,0 -2.4,-0.9 -2.4,-2 0,-2.95598 27.347853,-2.95598 28.482168,0 0.464075,1.20936 0.0055,2 -1.159944,2 -2.810632,0 -5.51274,4.97787 -7.237663,13.3333396 -3.503892,16.97273 -3.468361,16.91118 -11.496375,19.9148504 -10.46712,3.91625 -22.169758,3.70297 -30.659728,-0.55876 z m 43.849319,0.066 c 0,-1.0511804 1.283585,-2.2333904 2.85241,-2.6271404 2.136004,-0.5361 6.585254,-8.00943001 17.71492,-29.7554396 21.566536,-42.13836 22.294986,-43.47511 24.001436,-44.04393 1.91496,-0.63832 2.41063,1.53125 4.95103,21.67107 1.11002,8.8 2.255251,17.2 2.544961,18.66667 0.28971,1.46667 1.26332,8.36081 2.16356,15.32032 2.0089104,15.5302196 3.1263404,18.6796796 6.6275704,18.6796796 1.51082,0 2.69967,0.88074 2.69967,2.0000004 0,1.66184 -2.59259,2 -15.3333314,2 -12.740744,0 -15.333337,-0.33816 -15.333337,-2 0,-1.1000004 1.126534,-2.0000004 2.503407,-2.0000004 3.528676,0 5.20447,-2.62441 4.89547,-7.66667001 C -25.312841,-11.2457 -24.281075,-10.1072 -34.53771,-10.1072 h -9.236505 l -3.526419,7.4542396 c -3.620133,7.65233 -3.633601,11.21243 -0.04242,11.21243 1.123015,0 2.041846,0.9 2.041846,2.0000004 0,1.59596 -1.975309,2 -9.777778,2 -7.600628,0 -9.777778,-0.42556 -9.777778,-1.91123 z m 38.210633,-31.08877 c -0.02001,-6.33134 -1.655133,-17.66667 -2.548418,-17.66667 -1.338678,0 -10.709536,19.61935 -9.803575,20.52531 0.444415,0.44441 3.408027,0.80803 6.585805,0.80803 5.416951,0 5.777054,-0.22899 5.766188,-3.66667 z m 29.3449244,31 c 0,-1.1000004 0.48532,-2.0000004 1.07849,-2.0000004 3.72705,0 5.87233,-4.61903 9.5984896,-20.6666696 10.36377,-44.63409 10.6622,-47.33333 5.23317,-47.33333 -1.41725,0 -2.57682,-0.9 -2.57682,-2 0,-1.66184 2.5926,-2 15.33334,-2 12.74074,0 15.33333,0.33816 15.33333,2 0,1.1 -0.80701,2 -1.79335,2 -3.87873,0 -6.50988,5.71881 -10.20879,22.18883 -2.11772,9.42948 -5.15781,22.66834 -6.75575,29.4197096 -3.77475,15.94839 -3.39584,16.86776 6.65238,16.14093 9.82834,-0.71091 16.09644,-4.7375 20.7896,-13.3551 2.19425,-4.0291 4.07233,-6.0204096 5.25135,-5.5679796 1.53834,0.59032 1.55477,1.6056196 0.10151,6.2722996 -0.95367,3.06239 -2.4262,8.11798 -3.2723,11.23464 l -1.53836,5.6666704 h -26.61315 c -22.7672396,0 -26.6131396,-0.28902 -26.6131396,-2 z m 57.3333296,0 c 0,-1.1000004 0.80701,-2.0000004 1.79335,-2.0000004 3.10301,0 5.36709,-3.79253 23.67665,-39.6605196 9.82483,-19.24661 18.576574,-34.99661 19.448314,-35 0.87173,-0.003 1.93254,2.54385 2.35734,5.66052 9.1245,66.9431796 9.69075,69.7556496 13.82642,68.6741496 1.59442,-0.41695 2.42025,0.18453 2.54603,1.8543604 0.17124,2.27323 -1.03722,2.47149 -15.0643,2.47149 -12.667084,0 -15.250464,-0.33879 -15.250464,-2 0,-1.1000004 1.12653,-2.0000004 2.5034,-2.0000004 3.95192,0 5.810554,-3.32676 4.996674,-8.94352001 -0.40298,-2.78105999 -0.75535,-6.10647999 -0.78305,-7.38980999 -0.043,-1.99466 -1.401804,-2.3333396 -9.361234,-2.3333396 h -9.31087 l -3.3558,6.6223496 c -4.05234,7.99692 -4.21427,10.73614 -0.68912,11.65799 1.46666,0.38354 2.66666,1.52737 2.66666,2.5418404 0,1.40648 -2.37471,1.84449 -10,1.84449 -8,0 -10,-0.4 -10,-2 z m 38.19731,-34.33333 c -0.46244,-3.85 -0.84601,-8.65 -0.85238,-10.66667 -0.006,-2.01667 -0.53028,-3.66667 -1.16424,-3.66667 -0.96318,0 -10.84735,18.89595 -10.84735,20.7373 0,0.32782 3.08357,0.59604 6.85238,0.59604 h 6.85239 z"
       id="path1" />
  </g>
</svg>
