<svg id="GALA" width="500" height="161.59384" viewBox="0 0 500 161.59384" version="1.1" xml:space="preserve" xmlns:xlink="http://www.w3.org/1999/xlink" xmlns="http://www.w3.org/2000/svg" xmlns:svg="http://www.w3.org/2000/svg">
	<path id="GALA" style="fill:#000000;stroke:#000000;stroke-width:0" d="M 30.782051,154.8242 C 10.090891,144.43779 -0.06490191,125.77686 3.120575e-4,98.263781 0.09783015,57.089481 23.338998,21.20581 58.406987,8.0851841 77.451678,0.95966013 89.766765,1.3002668 107.24311,9.4359611 c 17.38407,8.0927099 18.42494,8.1593979 20.59578,1.3197049 1.6973,-5.3477271 9.42203,-7.6917553 9.42203,-2.8590573 0,2.6974553 -7.3896,36.0508053 -9.72897,43.9122173 -1.32926,4.466955 -9.46994,6.95831 -8.79631,2.692004 3.37738,-21.390039 -8.8583,-38.361156 -27.65728,-38.361156 -31.622571,0 -57.064846,38.186976 -57.331739,86.050696 -0.148599,26.64677 3.973368,38.97628 14.923439,44.63879 9.285497,4.80171 21.51209,5.04696 27.223826,0.54604 2.401761,-1.89259 6.593983,-14.18082 9.58087,-28.08339 5.534111,-25.758726 4.717346,-30.467841 -5.284461,-30.467841 -2.665091,0 -4.84562,-1.817107 -4.84562,-4.038016 0,-5.968148 55.215535,-5.968148 57.505735,0 0.93697,2.441708 0.0111,4.038016 -2.34194,4.038016 -5.67469,0 -11.13027,10.050361 -14.6129,26.920121 -7.07439,34.26808 -7.00265,34.14381 -23.211277,40.20825 -21.133201,7.90694 -44.760923,7.47632 -61.902242,-1.12814 z m 88.532129,0.13325 c 0,-2.12234 2.59157,-4.50923 5.75904,-5.30422 4.31261,-1.08239 13.29569,-16.1711 35.76657,-60.076474 43.54302,-85.0776939 45.01376,-87.776603 48.4591,-88.92505519 3.86632,-1.2887733 4.86708,3.09160619 9.99617,43.75406819 2.24114,17.767272 4.55337,34.726941 5.13829,37.68816 0.58493,2.961218 2.55066,16.880543 4.36825,30.931851 4.056,31.35564 6.3121,37.71442 13.38112,37.71442 3.05035,0 5.45065,1.77823 5.45065,4.03802 0,3.35527 -5.23446,4.03802 -30.95812,4.03802 -25.72366,0 -30.95813,-0.68275 -30.95813,-4.03802 0,-2.22091 2.27448,-4.03802 5.0544,-4.03802 7.12443,0 10.50787,-5.2987 9.88399,-15.47906 -1.50183,-24.50773 0.58132,-22.20909 -20.12691,-22.20909 h -18.64858 l -7.11987,15.05017 c -7.30908,15.45011 -7.33627,22.63798 -0.0857,22.63798 2.26738,0 4.12251,1.81711 4.12251,4.03802 0,3.22226 -3.98817,4.03802 -19.74142,4.03802 -15.34573,0 -19.74141,-0.85921 -19.74141,-3.85879 z m 77.14759,-62.768481 c -0.0404,-12.783027 -3.34173,-35.669151 -5.14528,-35.669151 -2.7028,0 -21.62264,39.611628 -19.7935,41.440769 0.89728,0.897267 6.88083,1.631419 13.29679,1.631419 10.93687,0 11.66392,-0.462332 11.64199,-7.403037 z m 59.24764,62.589251 c 0,-2.22091 0.97986,-4.03802 2.17748,-4.03802 7.52494,0 11.85628,-9.32585 19.37943,-41.72617 20.92453,-90.116593 21.52706,-95.56638 10.56581,-95.56638 -2.86144,0 -5.20262,-1.817108 -5.20262,-4.0380167 0,-3.3552686 5.23448,-4.0380164 30.95814,-4.0380164 25.72365,0 30.95812,0.6827478 30.95812,4.0380164 0,2.2209087 -1.62936,4.0380167 -3.62079,4.0380167 -7.83119,0 -13.1435,11.546325 -20.61163,44.79943 -4.2757,19.038197 -10.41366,45.76756 -13.63992,59.39863 -7.62125,32.19993 -6.85623,34.05615 13.43121,32.58867 19.8435,-1.43533 32.49885,-9.56505 41.97437,-26.96405 4.43021,-8.13479 8.22207,-12.15526 10.60252,-11.2418 3.10592,1.19186 3.1391,3.24176 0.20495,12.66382 -1.92547,6.18299 -4.89852,16.39027 -6.6068,22.68283 l -3.10596,11.44106 h -53.73217 c -45.96724,0 -53.73214,-0.58353 -53.73214,-4.03802 z m 115.75646,0 c 0,-2.22091 1.62936,-4.03802 3.62079,-4.03802 6.265,0 10.83619,-7.65714 47.80335,-80.074908 C 442.72642,31.806229 460.39625,0.00684979 462.1563,5.3455462e-6 463.91633,-0.00605167 466.05812,5.1360592 466.91579,11.428641 c 18.42244,135.158829 19.5657,140.837229 27.91566,138.653669 3.21914,-0.84182 4.8865,0.37257 5.14045,3.74397 0.34574,4.58967 -2.09415,4.98996 -30.41494,4.98996 -25.57494,0 -30.79081,-0.68402 -30.79081,-4.03802 0,-2.22091 2.27448,-4.03802 5.05439,-4.03802 7.97896,0 11.73155,-6.71675 10.08832,-18.05704 -0.81362,-5.61498 -1.52506,-12.32903 -1.58099,-14.92008 -0.0868,-4.02724 -2.83024,-4.71103 -18.9004,-4.71103 h -18.79872 l -6.77539,13.37057 c -8.18171,16.14585 -8.50864,21.67636 -1.39134,23.53758 2.9612,0.77437 5.38401,3.08377 5.38401,5.132 0,2.83969 -4.79456,3.72404 -20.19008,3.72404 -16.15207,0 -20.19008,-0.8076 -20.19008,-4.03802 z m 77.12068,-69.319271 c -0.93367,-7.773182 -1.7081,-17.464421 -1.72096,-21.536094 -0.0121,-4.071673 -1.07064,-7.403037 -2.35061,-7.403037 -1.94467,0 -21.90089,38.151078 -21.90089,41.868779 0,0.661871 6.22575,1.203409 13.83501,1.203409 h 13.83503 z" />
</svg>
