<svg
   version="1.1"
   id="svg1"
   width="144.5188"
   height="144.72546"
   viewBox="0 0 144.5188 144.72546"
   xmlns="http://www.w3.org/2000/svg"
   xmlns:svg="http://www.w3.org/2000/svg">
  <defs
     id="defs1">
    <clipPath
       clipPathUnits="userSpaceOnUse"
       id="clipPath3">
      <path
         d="M 0,133.772 H 133.772 V 0 H 0 Z"
         transform="translate(-42.884701,-18.1913)"
         id="path3" />
    </clipPath>
    <clipPath
       clipPathUnits="userSpaceOnUse"
       id="clipPath5">
      <path
         d="M 0,133.772 H 133.772 V 0 H 0 Z"
         transform="translate(-74.638502,-19.0244)"
         id="path5" />
    </clipPath>
    <clipPath
       clipPathUnits="userSpaceOnUse"
       id="clipPath7">
      <path
         d="M 0,133.772 H 133.772 V 0 H 0 Z"
         transform="translate(-102.8583,-17.214898)"
         id="path7" />
    </clipPath>
    <clipPath
       clipPathUnits="userSpaceOnUse"
       id="clipPath9">
      <path
         d="M 0,133.772 H 133.772 V 0 H 0 Z"
         transform="translate(-82.333405,-23.609503)"
         id="path9" />
    </clipPath>
    <clipPath
       clipPathUnits="userSpaceOnUse"
       id="clipPath11">
      <path
         d="M 0,133.772 H 133.772 V 0 H 0 Z"
         transform="translate(-116.4093,-17.4722)"
         id="path11" />
    </clipPath>
    <clipPath
       clipPathUnits="userSpaceOnUse"
       id="clipPath13">
      <path
         d="M 0,133.772 H 133.772 V 0 H 0 Z"
         transform="translate(-28.401601,-42.547401)"
         id="path13" />
    </clipPath>
    <clipPath
       clipPathUnits="userSpaceOnUse"
       id="clipPath15">
      <path
         d="M 0,133.772 H 133.772 V 0 H 0 Z"
         transform="translate(-42.997201,-39.221001)"
         id="path15" />
    </clipPath>
    <clipPath
       clipPathUnits="userSpaceOnUse"
       id="clipPath17">
      <path
         d="M 0,133.772 H 133.772 V 0 H 0 Z"
         transform="translate(-51.485801,-50.118104)"
         id="path17" />
    </clipPath>
    <clipPath
       clipPathUnits="userSpaceOnUse"
       id="clipPath19">
      <path
         d="M 0,133.772 H 133.772 V 0 H 0 Z"
         transform="translate(-65.134001,-50.118104)"
         id="path19" />
    </clipPath>
    <clipPath
       clipPathUnits="userSpaceOnUse"
       id="clipPath21">
      <path
         d="M 0,133.772 H 133.772 V 0 H 0 Z"
         transform="translate(-83.625205,-42.547401)"
         id="path21" />
    </clipPath>
    <clipPath
       clipPathUnits="userSpaceOnUse"
       id="clipPath23">
      <path
         d="M 0,133.772 H 133.772 V 0 H 0 Z"
         id="path23" />
    </clipPath>
    <clipPath
       clipPathUnits="userSpaceOnUse"
       id="clipPath25">
      <path
         d="M 0,133.772 H 133.772 V 0 H 0 Z"
         transform="translate(-115.7958,-39.221001)"
         id="path25" />
    </clipPath>
    <clipPath
       clipPathUnits="userSpaceOnUse"
       id="clipPath27">
      <path
         d="M 0,133.772 H 133.772 V 0 H 0 Z"
         transform="translate(-66.888502,-82.199702)"
         id="path27" />
    </clipPath>
    <clipPath
       clipPathUnits="userSpaceOnUse"
       id="clipPath29">
      <path
         d="M 0,133.772 H 133.772 V 0 H 0 Z"
         transform="translate(-60.965801,-76.274002)"
         id="path29" />
    </clipPath>
    <clipPath
       clipPathUnits="userSpaceOnUse"
       id="clipPath31">
      <path
         d="M 0,133.772 H 133.772 V 0 H 0 Z"
         transform="translate(-55.052602,-70.360002)"
         id="path31" />
    </clipPath>
    <clipPath
       clipPathUnits="userSpaceOnUse"
       id="clipPath33">
      <path
         d="M 0,133.772 H 133.772 V 0 H 0 Z"
         transform="translate(-49.142101,-76.271902)"
         id="path33" />
    </clipPath>
    <clipPath
       clipPathUnits="userSpaceOnUse"
       id="clipPath35">
      <path
         d="M 0,133.772 H 133.772 V 0 H 0 Z"
         transform="translate(-43.215301,-82.196002)"
         id="path35" />
    </clipPath>
    <clipPath
       clipPathUnits="userSpaceOnUse"
       id="clipPath37">
      <path
         d="M 0,133.772 H 133.772 V 0 H 0 Z"
         transform="translate(-60.965801,-99.955402)"
         id="path37" />
    </clipPath>
    <clipPath
       clipPathUnits="userSpaceOnUse"
       id="clipPath39">
      <path
         d="M 0,133.772 H 133.772 V 0 H 0 Z"
         transform="translate(-66.888502,-105.8822)"
         id="path39" />
    </clipPath>
    <clipPath
       clipPathUnits="userSpaceOnUse"
       id="clipPath41">
      <path
         d="M 0,133.772 H 133.772 V 0 H 0 Z"
         transform="translate(-49.142101,-65.079301)"
         id="path41" />
    </clipPath>
    <clipPath
       clipPathUnits="userSpaceOnUse"
       id="clipPath43">
      <path
         d="M 0,133.772 H 133.772 V 0 H 0 Z"
         transform="translate(-37.304101,-76.935602)"
         id="path43" />
    </clipPath>
    <clipPath
       clipPathUnits="userSpaceOnUse"
       id="clipPath45">
      <path
         d="M 0,133.772 H 133.772 V 0 H 0 Z"
         transform="translate(-31.371801,-82.870902)"
         id="path45" />
    </clipPath>
    <clipPath
       clipPathUnits="userSpaceOnUse"
       id="clipPath47">
      <path
         d="M 0,133.772 H 133.772 V 0 H 0 Z"
         transform="translate(-60.969202,-112.474)"
         id="path47" />
    </clipPath>
    <clipPath
       clipPathUnits="userSpaceOnUse"
       id="clipPath49">
      <path
         d="M 0,133.772 H 133.772 V 0 H 0 Z"
         transform="translate(-66.892601,-118.4012)"
         id="path49" />
    </clipPath>
    <clipPath
       clipPathUnits="userSpaceOnUse"
       id="clipPath51">
      <path
         d="M 0,133.772 H 133.772 V 0 H 0 Z"
         transform="translate(-72.831002,-76.274002)"
         id="path51" />
    </clipPath>
    <clipPath
       clipPathUnits="userSpaceOnUse"
       id="clipPath53">
      <path
         d="M 0,133.772 H 133.772 V 0 H 0 Z"
         transform="translate(-78.742502,-70.363802)"
         id="path53" />
    </clipPath>
    <clipPath
       clipPathUnits="userSpaceOnUse"
       id="clipPath55">
      <path
         d="M 0,133.772 H 133.772 V 0 H 0 Z"
         transform="translate(-84.6547,-76.271902)"
         id="path55" />
    </clipPath>
    <clipPath
       clipPathUnits="userSpaceOnUse"
       id="clipPath57">
      <path
         d="M 0,133.772 H 133.772 V 0 H 0 Z"
         transform="translate(-90.577405,-82.199702)"
         id="path57" />
    </clipPath>
    <clipPath
       clipPathUnits="userSpaceOnUse"
       id="clipPath59">
      <path
         d="M 0,133.772 H 133.772 V 0 H 0 Z"
         transform="translate(-72.831002,-99.955402)"
         id="path59" />
    </clipPath>
    <clipPath
       clipPathUnits="userSpaceOnUse"
       id="clipPath61">
      <path
         d="M 0,133.772 H 133.772 V 0 H 0 Z"
         transform="translate(-84.650605,-65.083402)"
         id="path61" />
    </clipPath>
    <clipPath
       clipPathUnits="userSpaceOnUse"
       id="clipPath63">
      <path
         d="M 0,133.772 H 133.772 V 0 H 0 Z"
         transform="translate(-96.4927,-76.935602)"
         id="path63" />
    </clipPath>
    <clipPath
       clipPathUnits="userSpaceOnUse"
       id="clipPath65">
      <path
         d="M 0,133.772 H 133.772 V 0 H 0 Z"
         transform="translate(-102.4212,-82.874602)"
         id="path65" />
    </clipPath>
    <clipPath
       clipPathUnits="userSpaceOnUse"
       id="clipPath67">
      <path
         d="M 0,133.772 H 133.772 V 0 H 0 Z"
         transform="translate(-72.827602,-112.474)"
         id="path67" />
    </clipPath>
  </defs>
  <g
     id="g1"
     transform="translate(-476.7387,-23.587873)">
    <g
       id="group-MC0"
       transform="translate(459.80044,6.6500064)"
       style="fill:#000000">
      <path
         id="path2"
         d="M 0,0 2.499,1.103 V 2.976 L 0,1.867 v 5.28 H -2.704 V 0.672 L -3.994,0.1 v -1.865 l 1.29,0.567 v -4.293 h 6.425 v 2.726 H 0 Z m -9.544,0.833 c 0,1.174 -0.318,2.117 -0.955,2.829 -0.638,0.714 -1.49,1.079 -2.554,1.097 -1.049,0.02 -1.902,-0.346 -2.556,-1.097 -0.647,-0.752 -0.97,-1.721 -0.97,-2.906 0,-1.121 0.332,-2.054 0.987,-2.789 0.669,-0.74 1.503,-1.107 2.509,-1.107 1.059,0 1.912,0.364 2.566,1.092 0.646,0.729 0.973,1.687 0.973,2.881 m 1.023,4.613 c 1.226,-1.221 1.836,-2.764 1.836,-4.631 0,-1.857 -0.606,-3.394 -1.819,-4.619 -1.209,-1.227 -2.739,-1.84 -4.579,-1.84 -1.84,0 -3.361,0.612 -4.549,1.826 -1.187,1.222 -1.786,2.771 -1.786,4.651 0,1.866 0.616,3.41 1.853,4.625 1.236,1.218 2.701,1.825 4.396,1.825 1.871,0 3.418,-0.611 4.648,-1.837 M 15.9,-0.976 10.103,7.146 H 7.415 V -5.491 h 2.719 v 8.183 l 5.778,-8.183 h 2.655 V 7.146 H 15.9 Z m -40.701,4.273 c 0,0.513 -0.188,0.913 -0.548,1.193 -0.369,0.28 -0.886,0.425 -1.56,0.425 L -27.52,4.872 V 1.64 h 1.058 c 0.456,0 0.849,0.165 1.169,0.489 0.327,0.33 0.492,0.717 0.492,1.168 m 1.749,2.832 c 0.714,-0.678 1.07,-1.562 1.07,-2.668 0,-0.725 -0.178,-1.415 -0.529,-2.065 -0.346,-0.65 -0.877,-1.134 -1.578,-1.458 -0.708,-0.32 -1.313,-0.486 -1.812,-0.5 l -1.579,-0.041 v -4.888 h -2.701 V 7.146 h 4.317 c 1.161,0 2.102,-0.337 2.812,-1.017 m 9.711,2.104 h -1.625 l 1.274,2.729 h 2.854 z"
         style="fill:#000000;fill-opacity:1;fill-rule:nonzero;stroke:none"
         transform="matrix(1.3333333,0,0,-1.3333333,57.1796,154.1076)"
         clip-path="url(#clipPath3)" />
      <path
         id="path4"
         d="M 0,0 C 0,1.174 -0.325,2.117 -0.958,2.829 -1.603,3.543 -2.45,3.908 -3.505,3.926 -4.566,3.946 -5.422,3.58 -6.063,2.829 -6.718,2.077 -7.038,1.108 -7.038,-0.077 c 0,-1.121 0.329,-2.054 0.994,-2.789 0.657,-0.74 1.491,-1.107 2.498,-1.107 1.058,0 1.915,0.364 2.567,1.092 C -0.33,-2.152 0,-1.194 0,0 m 1.023,4.613 c 1.22,-1.222 1.833,-2.764 1.833,-4.631 0,-1.857 -0.606,-3.395 -1.821,-4.619 -1.214,-1.227 -2.738,-1.84 -4.581,-1.84 -1.841,0 -3.354,0.612 -4.546,1.826 -1.194,1.222 -1.791,2.771 -1.791,4.651 0,1.866 0.623,3.41 1.856,4.624 1.233,1.219 2.709,1.826 4.395,1.826 1.871,0 3.42,-0.611 4.655,-1.837"
         style="fill:#000000;fill-opacity:1;fill-rule:nonzero;stroke:none"
         transform="matrix(1.3333333,0,0,-1.3333333,99.518,152.9968)"
         clip-path="url(#clipPath5)" />
      <path
         id="path6"
         d="M 0,0 -5.793,8.122 H -8.489 V -4.514 h 2.72 V 3.669 L 0.016,-4.514 H 2.667 V 8.122 H 0 Z"
         style="fill:#000000;fill-opacity:1;fill-rule:nonzero;stroke:none"
         transform="matrix(1.3333333,0,0,-1.3333333,137.1444,155.40947)"
         clip-path="url(#clipPath7)" />
      <path
         id="path8"
         d="m 0,0 c -1.207,-1.267 -1.813,-2.816 -1.813,-4.642 0,-1.793 0.595,-3.318 1.782,-4.568 1.188,-1.248 2.633,-1.875 4.336,-1.875 0.985,0 2.213,0.252 3.702,0.743 v 3.06 c -1.326,-0.761 -2.456,-1.143 -3.41,-1.143 -1.085,0 -1.95,0.335 -2.598,1.014 -0.65,0.678 -0.976,1.582 -0.976,2.712 0,1.188 0.31,2.14 0.926,2.845 0.622,0.706 1.446,1.059 2.468,1.059 1.024,0 2.226,-0.406 3.59,-1.231 V 1.056 C 6.731,1.617 5.53,1.9 4.417,1.9 2.684,1.9 1.214,1.267 0,0"
         style="fill:#000000;fill-opacity:1;fill-rule:nonzero;stroke:none"
         transform="matrix(1.3333333,0,0,-1.3333333,109.77787,146.88333)"
         clip-path="url(#clipPath9)" />
      <path
         id="path10"
         d="M 0,0 -1.512,3.726 -3,0 Z M 4.683,-4.772 H 1.943 L 0.932,-2.288 H -3.92 l -0.986,-2.484 h -2.73 l 5.061,12.637 h 2.11 z"
         style="fill:#000000;fill-opacity:1;fill-rule:nonzero;stroke:none"
         transform="matrix(1.3333333,0,0,-1.3333333,155.2124,155.0664)"
         clip-path="url(#clipPath11)" />
      <path
         id="path12"
         d="m 0,0 v -8.466 c -1.679,-1.022 -4.42,-1.577 -6.504,-1.577 -5.824,0 -9.193,4.15 -9.193,9.021 0,5.098 3.7,9.028 8.948,9.028 3.154,0 5.07,-0.852 6.406,-2.232 L -1.989,4.003 c -1.418,1.359 -3.037,1.818 -4.76,1.818 -3.93,0 -6.472,-3.077 -6.472,-6.843 0,-3.878 2.883,-6.838 6.664,-6.838 1.63,0 3.181,0.315 4.221,0.898 v 4.776 H -6.142 V 0 Z"
         style="fill:#000000;fill-opacity:1;fill-rule:nonzero;stroke:none"
         transform="matrix(1.3333333,0,0,-1.3333333,37.8688,121.6328)"
         clip-path="url(#clipPath13)" />
      <path
         id="path14"
         d="M 0,0 -3.21,7.889 H -3.253 L -6.503,0 Z m -4.172,10.897 h 2.109 L 5.285,-6.281 h -2.72 l -1.721,4.25 h -8.18 l -1.694,-4.25 h -2.722 z"
         style="fill:#000000;fill-opacity:1;fill-rule:nonzero;stroke:none"
         transform="matrix(1.3333333,0,0,-1.3333333,57.3296,126.068)"
         clip-path="url(#clipPath15)" />
      <path
         id="path16"
         d="m 0,0 h 2.322 v -14.992 h 7.891 v -2.186 H 0 Z"
         style="fill:#000000;fill-opacity:1;fill-rule:nonzero;stroke:none"
         transform="matrix(1.3333333,0,0,-1.3333333,68.647733,111.53853)"
         clip-path="url(#clipPath17)" />
      <path
         id="path18"
         d="M 0,0 H 11.087 V -2.183 H 2.334 V -7.3 h 8.148 V -9.488 H 2.334 v -5.504 h 9.192 v -2.186 H 0 Z"
         style="fill:#000000;fill-opacity:1;fill-rule:nonzero;stroke:none"
         transform="matrix(1.3333333,0,0,-1.3333333,86.845333,111.53853)"
         clip-path="url(#clipPath19)" />
      <path
         id="path20"
         d="M 0,0 H 3.056 C 4.9,0 6.74,0.436 6.74,2.767 6.74,5.095 4.9,5.532 3.056,5.532 H 0 Z m -2.332,7.571 h 6.035 c 4.394,0 5.506,-2.641 5.506,-4.804 0,-2.187 -1.617,-4.246 -4.215,-4.535 L 9.873,-9.607 H 6.96 L 2.584,-2.039 H 0 v -7.568 h -2.332 z"
         style="fill:#000000;fill-opacity:1;fill-rule:nonzero;stroke:none"
         transform="matrix(1.3333333,0,0,-1.3333333,111.50027,121.6328)"
         clip-path="url(#clipPath21)" />
      <path
         id="path22"
         d="m 97.802,50.118 h 2.337 V 32.94 h -2.337 z"
         style="fill:#000000;fill-opacity:1;fill-rule:nonzero;stroke:none"
         transform="matrix(1.3333333,0,0,-1.3333333,0,178.36267)"
         clip-path="url(#clipPath23)" />
      <path
         id="path24"
         d="M 0,0 -3.191,7.889 H -3.246 L -6.495,0 Z m -4.166,10.897 h 2.11 L 5.297,-6.281 H 2.583 l -1.728,4.25 h -8.174 l -1.701,-4.25 h -2.719 z"
         style="fill:#000000;fill-opacity:1;fill-rule:nonzero;stroke:none"
         transform="matrix(1.3333333,0,0,-1.3333333,154.3944,126.068)"
         clip-path="url(#clipPath25)" />
      <path
         id="path26"
         d="m 0,0 c -0.518,0 -1.036,0.199 -1.428,0.596 -0.779,0.79 -0.774,2.057 0.016,2.836 0.576,0.569 1.441,0.74 2.189,0.427 C 1.524,3.546 2.014,2.82 2.014,2.01 2.014,1.135 1.453,0.389 0.672,0.115 0.454,0.038 0.227,0 0,0"
         style="fill:#000000;fill-opacity:1;fill-rule:nonzero;stroke:none"
         transform="matrix(1.3333333,0,0,-1.3333333,89.184667,68.763067)"
         clip-path="url(#clipPath27)" />
      <path
         id="path28"
         d="m 0,0 c -0.516,0 -1.032,0.198 -1.424,0.593 -0.782,0.786 -0.778,2.058 0.008,2.84 l 0.017,0.016 C -0.612,4.231 0.659,4.227 1.441,3.44 2.223,2.653 2.219,1.381 1.432,0.6 L 1.415,0.584 C 1.023,0.194 0.512,0 0,0"
         style="fill:#000000;fill-opacity:1;fill-rule:nonzero;stroke:none"
         transform="matrix(1.3333333,0,0,-1.3333333,81.287733,76.664)"
         clip-path="url(#clipPath29)" />
      <path
         id="path30"
         d="M 0,0 C -0.522,0 -1.035,0.203 -1.418,0.587 -2.203,1.371 -2.207,2.646 -1.422,3.431 -1.001,3.852 -0.44,4.048 0.11,4.018 0.589,3.993 1.06,3.799 1.425,3.434 2.18,2.68 2.212,1.478 1.515,0.69 1.315,0.46 1.063,0.275 0.77,0.153 0.521,0.05 0.259,0 0,0"
         style="fill:#000000;fill-opacity:1;fill-rule:nonzero;stroke:none"
         transform="matrix(1.3333333,0,0,-1.3333333,73.403467,84.549333)"
         clip-path="url(#clipPath31)" />
      <path
         id="path32"
         d="M 0,0 C -0.512,0 -1.024,0.195 -1.415,0.584 L -1.432,0.6 c -0.787,0.782 -0.791,2.053 -0.009,2.84 0.782,0.787 2.053,0.79 2.84,0.009 L 1.415,3.433 C 2.202,2.651 2.206,1.379 1.424,0.593 1.032,0.198 0.516,0 0,0"
         style="fill:#000000;fill-opacity:1;fill-rule:nonzero;stroke:none"
         transform="matrix(1.3333333,0,0,-1.3333333,65.5228,76.6668)"
         clip-path="url(#clipPath33)" />
      <path
         id="path34"
         d="m 0,0 c -0.512,0 -1.023,0.195 -1.414,0.586 l -0.008,0.008 c -0.784,0.784 -0.784,2.055 0,2.84 0.784,0.784 2.06,0.787 2.844,0.004 C 2,2.86 2.154,2.02 1.881,1.304 1.784,1.043 1.631,0.799 1.422,0.59 1.029,0.197 0.514,0 0,0"
         style="fill:#000000;fill-opacity:1;fill-rule:nonzero;stroke:none"
         transform="matrix(1.3333333,0,0,-1.3333333,57.6204,68.768)"
         clip-path="url(#clipPath35)" />
      <path
         id="path36"
         d="m 0,0 c -0.51,0 -1.019,0.192 -1.411,0.579 -0.789,0.779 -0.797,2.05 -0.018,2.84 l 0.017,0.017 c 0.778,0.789 2.05,0.797 2.839,0.018 0.79,-0.779 0.798,-2.05 0.019,-2.84 L 1.429,0.597 C 1.036,0.199 0.518,0 0,0 m -5.921,-5.921 c -0.516,0 -1.032,0.198 -1.424,0.593 -0.782,0.787 -0.778,2.058 0.009,2.84 l 0.017,0.016 c 0.786,0.782 2.058,0.778 2.84,-0.009 0.781,-0.787 0.777,-2.058 -0.009,-2.84 l -0.017,-0.016 c -0.392,-0.39 -0.904,-0.584 -1.416,-0.584 m -5.92,-5.921 c -0.516,0 -1.032,0.198 -1.424,0.593 -0.782,0.787 -0.778,2.059 0.009,2.84 l 0.017,0.017 c 0.786,0.781 2.058,0.777 2.839,-0.01 0.782,-0.786 0.778,-2.058 -0.009,-2.84 l -0.017,-0.016 c -0.391,-0.389 -0.903,-0.584 -1.415,-0.584"
         style="fill:#000000;fill-opacity:1;fill-rule:nonzero;stroke:none"
         transform="matrix(1.3333333,0,0,-1.3333333,81.287733,45.0888)"
         clip-path="url(#clipPath37)" />
      <path
         id="path38"
         d="m 0,0 c -0.518,0 -1.036,0.199 -1.428,0.596 -0.779,0.79 -0.774,2.057 0.016,2.836 L -1.404,3.44 C -0.925,3.913 -0.24,4.114 0.419,3.975 1.505,3.747 2.201,2.681 1.972,1.596 1.782,0.692 1.014,0.059 0.134,0.004 0.09,0.001 0.045,0 0,0"
         style="fill:#000000;fill-opacity:1;fill-rule:nonzero;stroke:none"
         transform="matrix(1.3333333,0,0,-1.3333333,89.184667,37.1864)"
         clip-path="url(#clipPath39)" />
      <path
         id="path40"
         d="m 0,0 c -0.339,0 -0.677,0.129 -0.936,0.389 l -0.008,0.008 c -0.521,0.52 -0.521,1.364 0,1.884 0.52,0.521 1.364,0.521 1.884,0 C 1.461,1.761 1.465,0.913 0.945,0.392 0.683,0.131 0.342,0 0,0"
         style="fill:#000000;fill-opacity:1;fill-rule:nonzero;stroke:none"
         transform="matrix(1.3333333,0,0,-1.3333333,65.5228,91.590267)"
         clip-path="url(#clipPath41)" />
      <path
         id="path42"
         d="m 0,0 c -0.34,0 -0.68,0.129 -0.94,0.387 l -0.016,0.017 c -0.522,0.519 -0.525,1.363 -0.006,1.885 0.519,0.522 1.363,0.525 1.885,0.006 L 0.939,2.278 C 1.461,1.759 1.464,0.915 0.945,0.393 0.685,0.131 0.342,0 0,0 m 5.926,-5.934 c -0.339,0 -0.679,0.129 -0.939,0.388 L 4.97,-5.53 c -0.522,0.519 -0.525,1.363 -0.006,1.885 0.519,0.522 1.363,0.525 1.885,0.006 L 6.866,-3.655 C 7.388,-4.174 7.391,-5.018 6.872,-5.54 6.611,-5.802 6.269,-5.934 5.926,-5.934"
         style="fill:#000000;fill-opacity:1;fill-rule:nonzero;stroke:none"
         transform="matrix(1.3333333,0,0,-1.3333333,49.7388,75.781867)"
         clip-path="url(#clipPath43)" />
      <path
         id="path44"
         d="m 0,0 c -0.339,0 -0.678,0.129 -0.937,0.389 l -0.007,0.007 c -0.25,0.25 -0.39,0.589 -0.39,0.942 0,0.354 0.14,0.693 0.39,0.943 0.52,0.521 1.368,0.525 1.889,0.004 C 1.33,1.9 1.432,1.34 1.248,0.864 1.184,0.691 1.082,0.53 0.945,0.392 0.683,0.131 0.342,0 0,0"
         style="fill:#000000;fill-opacity:1;fill-rule:nonzero;stroke:none"
         transform="matrix(1.3333333,0,0,-1.3333333,41.829067,67.868133)"
         clip-path="url(#clipPath45)" />
      <path
         id="path46"
         d="M 0,0 C -0.343,0 -0.685,0.131 -0.946,0.393 -1.465,0.916 -1.462,1.76 -0.94,2.278 l 0.017,0.017 C -0.401,2.813 0.443,2.811 0.962,2.289 1.481,1.767 1.478,0.923 0.956,0.404 L 0.939,0.387 C 0.679,0.129 0.34,0 0,0 m -5.922,-5.921 c -0.342,0 -0.685,0.131 -0.945,0.393 -0.519,0.522 -0.516,1.366 0.006,1.885 l 0.017,0.017 c 0.522,0.518 1.365,0.516 1.884,-0.007 0.519,-0.522 0.516,-1.366 -0.006,-1.884 l -0.016,-0.017 c -0.26,-0.258 -0.6,-0.387 -0.94,-0.387 m -5.921,-5.921 c -0.34,0 -0.679,0.129 -0.939,0.387 -0.523,0.519 -0.525,1.363 -0.007,1.885 l 0.017,0.017 c 0.519,0.522 1.363,0.525 1.885,0.006 0.522,-0.519 0.524,-1.363 0.006,-1.885 l -0.017,-0.017 c -0.26,-0.262 -0.602,-0.393 -0.945,-0.393 m -5.922,-5.921 c -0.342,0 -0.685,0.131 -0.945,0.393 -0.519,0.522 -0.516,1.366 0.006,1.885 l 0.016,0.016 c 0.523,0.519 1.367,0.517 1.885,-0.006 0.519,-0.522 0.516,-1.366 -0.006,-1.884 l -0.017,-0.017 c -0.26,-0.258 -0.599,-0.387 -0.939,-0.387 m -5.921,-5.921 c -0.343,0 -0.685,0.131 -0.946,0.393 -0.519,0.522 -0.516,1.366 0.006,1.885 l 0.017,0.016 c 0.522,0.519 1.366,0.516 1.885,-0.006 0.519,-0.522 0.516,-1.366 -0.006,-1.884 l -0.017,-0.017 c -0.26,-0.259 -0.6,-0.387 -0.939,-0.387"
         style="fill:#000000;fill-opacity:1;fill-rule:nonzero;stroke:none"
         transform="matrix(1.3333333,0,0,-1.3333333,81.292267,28.397333)"
         clip-path="url(#clipPath47)" />
      <path
         id="path48"
         d="m 0,0 c -0.344,0 -0.687,0.131 -0.947,0.395 -0.517,0.524 -0.514,1.364 0.009,1.881 L -0.93,2.283 C -0.406,2.8 0.438,2.795 0.955,2.271 1.472,1.746 1.466,0.903 0.941,0.386 0.681,0.129 0.34,0 0,0"
         style="fill:#000000;fill-opacity:1;fill-rule:nonzero;stroke:none"
         transform="matrix(1.3333333,0,0,-1.3333333,89.190133,20.4944)"
         clip-path="url(#clipPath49)" />
      <path
         id="path50"
         d="M 0,0 C -0.512,0 -1.024,0.194 -1.416,0.584 L -1.432,0.6 c -0.787,0.781 -0.791,2.053 -0.009,2.84 0.782,0.787 2.053,0.79 2.84,0.009 L 1.415,3.433 C 2.202,2.651 2.206,1.379 1.424,0.593 1.032,0.198 0.516,0 0,0"
         style="fill:#000000;fill-opacity:1;fill-rule:nonzero;stroke:none"
         transform="matrix(1.3333333,0,0,-1.3333333,97.108,76.664)"
         clip-path="url(#clipPath51)" />
      <path
         id="path52"
         d="m 0,0 c -0.258,0 -0.517,0.05 -0.765,0.152 -0.249,0.103 -0.47,0.253 -0.654,0.436 L -1.42,0.587 C -2.204,1.371 -2.208,2.646 -1.424,3.431 -0.739,4.115 0.314,4.205 1.092,3.695 1.209,3.62 1.321,3.53 1.423,3.427 2.208,2.643 2.212,1.375 1.428,0.591 1.043,0.206 0.526,0 0,0"
         style="fill:#000000;fill-opacity:1;fill-rule:nonzero;stroke:none"
         transform="matrix(1.3333333,0,0,-1.3333333,104.99,84.544267)"
         clip-path="url(#clipPath53)" />
      <path
         id="path54"
         d="m 0,0 c -0.517,0 -1.032,0.198 -1.425,0.593 -0.782,0.786 -0.778,2.058 0.009,2.84 l 0.017,0.016 C -0.612,4.231 0.659,4.227 1.441,3.44 2.222,2.653 2.218,1.382 1.432,0.6 L 1.415,0.584 C 1.023,0.195 0.511,0 0,0"
         style="fill:#000000;fill-opacity:1;fill-rule:nonzero;stroke:none"
         transform="matrix(1.3333333,0,0,-1.3333333,112.87293,76.6668)"
         clip-path="url(#clipPath55)" />
      <path
         id="path56"
         d="M 0,0 C -0.514,0 -1.027,0.195 -1.418,0.586 -1.996,1.164 -2.15,2.004 -1.877,2.72 -1.78,2.981 -1.628,3.225 -1.418,3.434 -0.634,4.219 0.634,4.222 1.418,3.438 2.202,2.653 2.21,1.374 1.426,0.59 1.033,0.197 0.516,0 0,0"
         style="fill:#000000;fill-opacity:1;fill-rule:nonzero;stroke:none"
         transform="matrix(1.3333333,0,0,-1.3333333,120.76987,68.763067)"
         clip-path="url(#clipPath57)" />
      <path
         id="path58"
         d="m 0,0 c -0.519,0 -1.037,0.199 -1.429,0.597 l -0.017,0.017 c -0.779,0.79 -0.771,2.061 0.018,2.84 0.79,0.779 2.061,0.771 2.84,-0.018 L 1.429,3.419 C 2.208,2.629 2.2,1.358 1.41,0.579 1.02,0.193 0.509,0 0,0 m 5.92,-5.921 c -0.512,0 -1.023,0.194 -1.415,0.584 l -0.017,0.016 c -0.787,0.782 -0.791,2.053 -0.01,2.84 0.783,0.787 2.055,0.791 2.841,0.009 L 7.336,-2.488 C 8.122,-3.27 8.126,-4.541 7.345,-5.328 6.952,-5.723 6.436,-5.921 5.92,-5.921 m 5.921,-5.921 c -0.512,0 -1.024,0.195 -1.416,0.584 l -0.016,0.016 c -0.787,0.782 -0.791,2.054 -0.01,2.84 0.782,0.787 2.054,0.791 2.84,0.01 l 0.017,-0.017 c 0.787,-0.781 0.791,-2.053 0.009,-2.84 -0.392,-0.395 -0.908,-0.593 -1.424,-0.593"
         style="fill:#000000;fill-opacity:1;fill-rule:nonzero;stroke:none"
         transform="matrix(1.3333333,0,0,-1.3333333,97.108,45.0888)"
         clip-path="url(#clipPath59)" />
      <path
         id="path60"
         d="m 0,0 c -0.341,0 -0.682,0.129 -0.94,0.388 -0.521,0.521 -0.525,1.361 -0.004,1.881 l 0.007,0.008 c 0.521,0.52 1.364,0.52 1.885,0 0.52,-0.52 0.52,-1.364 0,-1.885 C 0.686,0.131 0.343,0 0,0"
         style="fill:#000000;fill-opacity:1;fill-rule:nonzero;stroke:none"
         transform="matrix(1.3333333,0,0,-1.3333333,112.86747,91.5848)"
         clip-path="url(#clipPath61)" />
      <path
         id="path62"
         d="m 0,0 c -0.343,0 -0.685,0.131 -0.946,0.393 -0.519,0.522 -0.516,1.366 0.007,1.885 l 0.017,0.017 C -0.401,2.813 0.443,2.811 0.962,2.289 1.481,1.767 1.478,0.923 0.956,0.404 L 0.939,0.387 C 0.679,0.129 0.34,0 0,0 m -5.927,-5.934 c -0.342,0 -0.685,0.132 -0.945,0.394 -0.519,0.522 -0.516,1.366 0.007,1.885 l 0.015,0.016 c 0.523,0.519 1.367,0.516 1.886,-0.006 0.518,-0.522 0.515,-1.366 -0.007,-1.885 l -0.016,-0.016 c -0.26,-0.258 -0.6,-0.388 -0.94,-0.388"
         style="fill:#000000;fill-opacity:1;fill-rule:nonzero;stroke:none"
         transform="matrix(1.3333333,0,0,-1.3333333,128.65693,75.781867)"
         clip-path="url(#clipPath63)" />
      <path
         id="path64"
         d="m 0,0 c -0.341,0 -0.681,0.129 -0.941,0.388 -0.368,0.368 -0.477,0.895 -0.327,1.356 0.063,0.197 0.171,0.382 0.327,0.537 0.52,0.521 1.361,0.524 1.88,0.004 0.25,-0.25 0.399,-0.596 0.399,-0.95 0,-0.353 -0.14,-0.693 -0.39,-0.943 C 0.686,0.131 0.342,0 0,0"
         style="fill:#000000;fill-opacity:1;fill-rule:nonzero;stroke:none"
         transform="matrix(1.3333333,0,0,-1.3333333,136.5616,67.8632)"
         clip-path="url(#clipPath65)" />
      <path
         id="path66"
         d="M 0,0 C -0.34,0 -0.679,0.129 -0.94,0.387 L -0.956,0.404 C -1.478,0.923 -1.48,1.767 -0.962,2.289 -0.443,2.811 0.4,2.814 0.923,2.295 L 0.939,2.278 C 1.461,1.76 1.464,0.916 0.945,0.393 0.685,0.131 0.342,0 0,0 m 5.921,-5.921 c -0.339,0 -0.678,0.129 -0.939,0.387 l -0.017,0.017 c -0.521,0.518 -0.524,1.362 -0.006,1.884 0.519,0.523 1.363,0.526 1.885,0.007 L 6.861,-3.643 C 7.384,-4.162 7.386,-5.006 6.866,-5.528 6.607,-5.79 6.265,-5.921 5.921,-5.921 m 5.922,-5.921 c -0.342,0 -0.684,0.131 -0.945,0.393 l -0.017,0.017 c -0.519,0.522 -0.516,1.366 0.006,1.885 0.522,0.518 1.366,0.515 1.885,-0.006 l 0.017,-0.017 c 0.518,-0.522 0.516,-1.366 -0.006,-1.885 -0.261,-0.258 -0.6,-0.387 -0.94,-0.387 m 5.922,-5.921 c -0.34,0 -0.68,0.129 -0.94,0.387 l -0.016,0.017 c -0.522,0.518 -0.525,1.362 -0.006,1.884 0.518,0.523 1.362,0.526 1.884,0.006 l 0.017,-0.016 c 0.522,-0.519 0.525,-1.363 0.006,-1.885 -0.261,-0.262 -0.603,-0.393 -0.945,-0.393 m 5.921,-5.921 c -0.339,0 -0.679,0.128 -0.94,0.387 l -0.016,0.017 c -0.522,0.518 -0.525,1.362 -0.006,1.884 0.519,0.522 1.362,0.525 1.885,0.006 l 0.016,-0.016 c 0.522,-0.519 0.525,-1.363 0.007,-1.885 -0.261,-0.262 -0.604,-0.393 -0.946,-0.393"
         style="fill:#000000;fill-opacity:1;fill-rule:nonzero;stroke:none"
         transform="matrix(1.3333333,0,0,-1.3333333,97.103467,28.397333)"
         clip-path="url(#clipPath67)" />
    </g>
  </g>
</svg>
