<svg id="GALERIAWOLOMIN" width="500" height="39.323883" viewBox="0 0 500 39.323883" version="1.1" xml:space="preserve" xmlns:xlink="http://www.w3.org/1999/xlink" xmlns="http://www.w3.org/2000/svg" xmlns:svg="http://www.w3.org/2000/svg">
	<path id="GALERIAWOLOMIN" style="fill:#000000;stroke:#000000;stroke-width:0" d="M 18.767198,39.281134 C 18.552457,39.268526 17.945503,39.2082 17.418412,39.147093 12.757482,38.606691 8.9104944,36.832242 5.705274,33.744316 4.5391133,32.620834 3.8137573,31.760599 2.9979332,30.533537 0.97575464,27.492038 0.01250825,24.091514 1.2071476e-4,19.950399 -0.01023654,16.486142 0.64564987,13.574815 2.0609597,10.802896 3.9194454,7.163004 7.1750607,3.9801024 10.958435,2.1041394 c 2.21673,-1.0991615 4.644901,-1.7734837 7.311018,-2.03034232 1.025,-0.09875246 3.983421,-0.09829813 4.970037,7.8088e-4 3.209752,0.32228185 5.661981,1.00233994 10.240128,2.83980574 l 0.763129,0.3062881 V 6.0134334 8.8061949 L 33.321163,8.3443917 C 30.233882,6.797348 26.856065,5.7252048 23.665422,5.27958 22.389278,5.1013414 18.890285,5.0994034 17.879838,5.2763855 c -3.695866,0.6472826 -6.56663,2.3278278 -9.0596697,5.3035275 -0.8418627,1.004853 -1.8066638,2.714965 -2.2571159,4.000742 -0.595553,1.699967 -0.8144966,3.083155 -0.8162642,5.156806 -0.00199,2.294839 0.2735552,3.840186 1.0161402,5.699524 1.6302425,4.081924 5.5217756,7.297374 10.1121996,8.355398 2.856679,0.658427 6.402539,0.593238 9.494864,-0.174555 0.406112,-0.100832 1.273463,-0.333121 1.927447,-0.516187 l 1.189062,-0.332859 v -3.960066 -3.960065 h -3.691416 -3.691416 v -2.484982 -2.484976 l 6.477725,0.01812 6.477724,0.01812 0.01805,8.114781 0.01805,8.114782 -0.479476,0.217694 c -1.408256,0.639388 -3.330892,1.346018 -4.916272,1.806884 -2.815512,0.818464 -7.616399,1.306832 -10.932269,1.112088 z m 284.629412,-0.02292 c -4.89012,-0.357535 -8.86221,-1.952014 -11.97397,-4.806578 -3.68797,-3.383154 -5.92761,-7.684618 -6.47847,-12.442568 -0.12837,-1.108788 -0.14508,-3.213461 -0.0349,-4.401302 0.41488,-4.474584 2.37969,-8.5867712 5.71583,-11.962748 2.6299,-2.6613045 5.92649,-4.4185815 9.71905,-5.18080196 1.82196,-0.3661742 2.46757,-0.42040961 5.0402,-0.42337694 2.65002,-0.0030525 3.38721,0.06129879 5.34703,0.46682916 4.23361,0.87602964 7.70972,2.89727114 10.45858,6.08130144 2.55714,2.9619703 4.04589,6.1497773 4.63266,9.9197703 0.14256,0.91596 0.25071,2.973753 0.20886,3.974069 -0.16272,3.888999 -1.38528,7.478588 -3.60251,10.577325 -3.42468,4.786246 -7.7356,7.310585 -13.75928,8.057004 -1.31,0.16233 -3.99857,0.234255 -5.27303,0.141076 z m 3.34391,-5.040571 c 3.09619,-0.245153 5.64458,-1.174275 7.96236,-2.903014 0.80688,-0.601822 2.20304,-2.001748 2.80253,-2.81009 1.60256,-2.160884 2.496,-4.527471 2.74699,-7.276348 0.54643,-5.984514 -1.94627,-11.117086 -6.82896,-14.0610534 -1.75145,-1.0560216 -3.83987,-1.7397427 -6.05146,-1.9811684 -1.68181,-0.1835911 -4.0664,-0.063613 -5.6791,0.285744 -2.9894,0.6475949 -5.89607,2.4010171 -7.83911,4.7288948 -2.24656,2.69151 -3.28701,5.660515 -3.2923,9.394842 -0.005,3.252073 0.76541,5.941241 2.38307,8.322416 1.57019,2.311323 3.84609,4.170483 6.37022,5.203781 2.25795,0.924338 4.81927,1.302367 7.42576,1.095996 z m 70.39869,5.033649 c -6.52129,-0.441273 -11.57925,-3.29096 -15.15224,-8.53688 -2.51597,-3.693978 -3.64134,-7.903505 -3.33312,-12.467747 0.26367,-3.904367 1.48453,-7.214594 3.81099,-10.3330238 3.54611,-4.7532722 8.35742,-7.34915354 14.54,-7.84486802 1.31631,-0.10553899 4.44189,-0.04655443 5.57465,0.10520533 4.53328,0.60733009 8.12277,2.22330389 10.97097,4.93906399 3.54166,3.3769848 5.57027,7.3540445 6.15604,12.0687915 0.12169,0.979488 0.11897,4.076726 -0.004,4.969211 -0.52133,3.772541 -1.87648,6.956508 -4.19627,9.859266 -1.87841,2.350481 -3.87619,3.984983 -6.34452,5.19084 -3.35909,1.641019 -7.53764,2.35359 -12.02214,2.050141 z m 3.42218,-5.033195 c 3.64991,-0.298955 6.65695,-1.588636 9.05023,-3.88153 1.44049,-1.380064 2.24821,-2.455182 3.02308,-4.023834 1.01232,-2.049368 1.45563,-4.073477 1.45563,-6.646294 0,-1.665516 -0.15265,-2.884776 -0.5377,-4.294819 -1.16507,-4.266431 -4.5585,-7.8688902 -8.84136,-9.3859837 -1.70053,-0.602368 -3.42196,-0.8744253 -5.53416,-0.8746383 -3.12588,0 -5.6421,0.659372 -8.05913,2.1128738 -0.85719,0.5154778 -1.61508,1.1088373 -2.47174,1.9351464 -2.9267,2.8230098 -4.30578,6.2085488 -4.30578,10.5703028 0,5.063862 2.25524,9.354238 6.38121,12.139595 2.62881,1.774662 6.2625,2.642187 9.83972,2.349181 z M 241.4408,39.03136 c -0.0195,-0.05031 -0.97858,-2.439422 -2.13135,-5.309143 -1.15277,-2.86972 -3.45998,-8.619809 -5.12711,-12.777976 -1.66714,-4.158165 -4.19391,-10.457288 -5.61507,-13.9980509 -1.42114,-3.5407629 -2.58389,-6.45573872 -2.58389,-6.47772393 0,-0.0219852 1.24072,-0.0399738 2.75716,-0.0399738 h 2.75716 l 0.0816,0.17917562 c 0.0449,0.0985395 2.4158,6.01553041 5.26868,13.14886401 2.85287,7.133332 5.19602,12.978674 5.20699,12.989642 0.011,0.01097 0.74231,-1.77714 1.62519,-3.973575 0.8829,-2.196434 2.82585,-7.028283 4.31767,-10.737445 1.49182,-3.7091626 3.14829,-7.8300598 3.68105,-9.1575495 l 0.96864,-2.41361775 h 2.65081 2.65082 l 1.44855,3.58493215 c 0.7967,1.9717127 1.88141,4.6550877 2.41048,5.9630551 0.52906,1.307968 1.42676,3.528142 1.99488,4.933719 0.56813,1.405577 1.68518,4.168815 2.48235,6.140526 0.79716,1.971713 1.6308,4.039913 1.85253,4.596011 0.22174,0.55609 0.42231,1.011305 0.44574,1.011589 0.0234,0 0.38153,-0.854016 0.7958,-1.898438 1.27776,-3.221413 6.55829,-16.5645145 8.93382,-22.5744225 l 0.7085,-1.79246613 h 2.72814 c 1.67728,0 2.72813,0.0259961 2.72813,0.0674961 0,0.03712 -0.26803,0.73192253 -0.59562,1.54400543 -0.32759,0.812083 -1.28934,3.2015361 -2.13722,5.3099022 -0.84788,2.108366 -1.83823,4.5681259 -2.20079,5.4661339 -0.36255,0.898008 -1.50742,3.741108 -2.54416,6.317999 -1.03672,2.576891 -2.83023,7.03321 -3.98556,9.90293 -1.15533,2.869721 -2.53869,6.311291 -3.07415,7.647939 l -0.97354,2.430271 -0.56791,7.81e-4 -0.56791,7.81e-4 -0.29145,-0.727301 c -0.72798,-1.816666 -6.77913,-16.891242 -7.9431,-19.787774 -1.85034,-4.604557 -4.12917,-10.2916867 -4.22412,-10.5418298 -0.0632,-0.1664686 -0.0936,-0.1897174 -0.13951,-0.1064831 -0.0548,0.099441 -2.61241,6.3958029 -4.83005,11.8906149 -0.53575,1.32749 -1.62185,4.010865 -2.41355,5.963056 -0.79169,1.95219 -1.75038,4.316116 -2.13041,5.253168 -0.38004,0.937051 -0.95515,2.358601 -1.27804,3.158999 -0.3229,0.800398 -0.89908,2.221948 -1.28039,3.159 l -0.69331,1.70373 -0.56556,0.02048 c -0.41121,0.01489 -0.57521,-0.0045 -0.60096,-0.07099 z M 38.786028,38.770746 c 0,-0.06459 0.523697,-1.29475 8.057473,-18.92683 1.751127,-4.098343 5.565752,-13.0346845 6.424177,-15.0496151 0.515652,-1.2103583 1.170066,-2.7437154 1.454253,-3.4074603 l 0.516704,-1.20680885 1.949233,-0.0188475 1.949232,-0.0188546 1.206524,2.71642725 c 0.663588,1.4940294 4.518061,10.1647241 8.565495,19.2682141 4.047438,9.103484 7.358971,16.586586 7.358971,16.629116 0,0.05446 -0.829085,0.07732 -2.804823,0.07732 h -2.804831 l -0.176166,-0.37269 c -0.1766,-0.373607 -1.31753,-2.893729 -3.695701,-8.163168 l -1.273275,-2.821263 -8.126295,0.01721 -8.126294,0.01721 -2.415536,5.660047 -2.415535,5.660047 -2.821803,0.0013 c -1.584887,7.1e-4 -2.821803,-0.02616 -2.821803,-0.06135 z M 63.185517,22.381764 c -0.02046,-0.06833 -1.113186,-2.536074 -2.428278,-5.48388 -1.315091,-2.947808 -2.664641,-5.974591 -2.998999,-6.726185 -0.529567,-1.1903962 -0.728102,-1.5456665 -0.728102,-1.3028991 0,0.034997 -0.282681,0.7457723 -0.62818,1.5795001 -0.345499,0.833727 -0.924206,2.234626 -1.286015,3.113112 -0.36181,0.878486 -1.080855,2.619485 -1.597878,3.868887 -0.517024,1.249402 -1.15042,2.782758 -1.407547,3.407459 -0.257126,0.624701 -0.517654,1.255614 -0.57895,1.402028 l -0.111447,0.266208 h 5.901299 c 5.587131,0 5.899318,-0.0066 5.864097,-0.12423 z M 80.432979,38.7863 c -0.02614,-0.02615 -0.04754,-8.667351 -0.04754,-19.202679 V 0.4284924 h 2.804354 2.804347 l -9.23e-4,16.6646106 -9.23e-4,16.664609 8.643477,0.03549 8.643479,0.03549 v 2.484607 2.484606 l -11.399397,0.01796 c -6.26967,0.0099 -11.420792,-0.0034 -11.446937,-0.02957 z m 27.614411,0 c -0.026,-0.02602 -0.0473,-8.667131 -0.0473,-19.202459 V 0.42871246 h 10.89678 10.89677 V 2.9133189 5.3979253 h -8.09272 -8.09271 v 5.7855837 5.785583 h 7.80876 7.80876 v 2.484606 2.484606 h -7.80876 -7.80876 v 5.92727 5.92727 l 8.35892,0.01804 8.35893,0.01804 0.0198,2.342628 c 0.0109,1.288446 0.002,2.414505 -0.0191,2.502354 l -0.0389,0.159725 H 119.1913 c -6.1031,0 -11.11785,-0.0213 -11.14388,-0.04733 z m 28.18336,8.51e-4 c -0.0265,-0.02648 -0.0481,-8.667954 -0.0481,-19.203281 V 0.42874086 l 5.3774,7.8088e-4 c 5.57074,7.8087e-4 6.46792,0.0371413 7.86479,0.3186969 2.6909,0.54237536 4.67672,1.53901496 6.28195,3.15278106 1.72003,1.7291725 2.55717,3.6532162 2.77659,6.3815983 0.22016,2.737539 -0.46823,5.251641 -1.95719,7.147971 -0.65842,0.838548 -1.53542,1.635751 -2.41888,2.19879 -0.40053,0.255262 -1.6477,0.901153 -1.88101,0.97415 -0.079,0.02472 -0.0608,0.0575 0.071,0.127667 0.22241,0.118437 0.5788,0.393611 1.3481,1.040886 1.96318,1.651781 3.70418,4.010716 7.16961,9.714279 0.93492,1.538724 2.07983,3.206172 3.97254,5.785584 0.58731,0.800398 1.06797,1.47805 1.06813,1.505899 0,0.02785 -1.48023,0.05234 -3.28974,0.05443 l -3.29002,0.0038 -2.47332,-3.852333 c -4.08661,-6.365142 -5.08553,-7.803935 -6.6291,-9.54815 -1.4217,-1.606497 -3.05131,-2.701186 -4.52693,-3.040946 -0.33034,-0.07606 -1.0186,-0.123868 -2.16952,-0.150688 l -1.68569,-0.03929 -0.018,8.296761 -0.018,8.296761 -2.73816,0.01857 c -1.50599,0.01021 -2.75983,-0.0031 -2.78631,-0.02958 z m 11.5626,-21.771646 c 1.27905,-0.225886 2.35715,-0.674315 3.03243,-1.261328 0.70721,-0.614784 1.46735,-1.916917 1.76898,-3.03029 0.21488,-0.793136 0.21697,-2.362733 0.004,-3.2154571 -0.52654,-2.1112269 -1.8678,-3.4126993 -4.08459,-3.9634513 -1.05353,-0.2617498 -1.54803,-0.3022134 -4.15041,-0.3396174 l -2.57334,-0.036985 v 6.0144438 6.014452 l 2.67982,-0.03411 c 2.01434,-0.02563 2.8395,-0.06231 3.32282,-0.147657 z m 22.32187,2.615693 V 0.42874086 h 2.76857 2.76856 V 19.631198 38.833656 h -2.76856 -2.76857 z m 9.79645,19.129751 c 0,-0.05824 2.84778,-6.789314 3.40812,-8.055505 0.0691,-0.156176 0.40379,-0.938827 0.74372,-1.739225 0.60958,-1.435293 5.32581,-12.482001 6.74345,-15.794997 0.40097,-0.937051 1.61522,-3.7801508 2.69835,-6.3179988 1.08312,-2.537848 2.16759,-5.0774707 2.40993,-5.643606 l 0.4406,-1.02933698 1.91968,-0.0188688 c 1.48173,-0.0145669 1.93611,0.001633 1.9917,0.0709888 0.0396,0.0494224 0.37518,0.77667378 0.74571,1.61611588 0.70698,1.601627 12.59048,28.3422449 14.03857,31.5899949 1.75559,3.937419 2.34224,5.273392 2.34224,5.334066 0,0.03554 -1.2219,0.05467 -2.82077,0.04415 l -2.82077,-0.01856 -0.54795,-1.206809 c -0.30137,-0.663745 -0.62805,-1.382506 -0.72596,-1.597247 -0.9161,-2.009287 -3.183,-7.024451 -3.47289,-7.683205 l -0.36646,-0.832798 h -8.12821 -8.12822 l -2.41479,5.660132 -2.4148,5.66014 -2.82062,0.01856 c -1.92963,0.01269 -2.82063,-0.0049 -2.82063,-0.05578 z m 24.42013,-16.28849 c 0,-0.03855 -1.17898,-2.697289 -3.76248,-8.484866 -0.98472,-2.205975 -1.90341,-4.2744103 -2.04154,-4.5965218 -0.13812,-0.3221114 -0.27058,-0.5856572 -0.29434,-0.5856572 -0.0238,0 -0.17671,0.3274356 -0.33988,0.7276348 -0.16317,0.4001991 -0.72603,1.7658452 -1.2508,3.0347692 -1.08183,2.615921 -3.1553,7.631545 -3.68304,8.909087 -0.19355,0.468526 -0.36885,0.891797 -0.38957,0.940601 -0.03,0.07058 1.16949,0.08874 5.86199,0.08874 3.24481,0 5.89966,-0.01521 5.89966,-0.03378 z m 128.37725,16.296122 c -0.0163,-0.01626 -0.0296,-3.332212 -0.0296,-7.368768 v -7.339187 l -1.04708,0.852682 c -0.5759,0.46898 -1.68591,1.378069 -2.46669,2.020198 -0.78078,0.642129 -1.43565,1.157613 -1.45527,1.145517 -0.0196,-0.01209 -0.0197,-1.140747 0,-2.508118 l 0.0355,-2.486133 1.73922,-1.430792 c 0.95657,-0.786932 2.06511,-1.691762 2.46342,-2.010735 l 0.72419,-0.579956 0.003,-9.317274 0.003,-9.31727414 h 2.76823 2.76823 l 0.0181,7.28540564 0.0181,7.2854055 1.2778,-1.060842 c 3.38854,-2.813206 6.3886,-5.2752735 6.428,-5.2752735 0.024,0 0.0358,0.071876 0.026,0.1597247 -0.01,0.087849 -0.022,1.2139078 -0.0273,2.5023538 l -0.01,2.342629 -0.29804,0.236875 c -0.31475,0.250164 -2.47196,2.027304 -4.62419,3.809484 -0.70727,0.585657 -1.62844,1.346145 -2.04707,1.689978 l -0.76114,0.625155 v 6.881906 6.881913 h 8.66063 8.66062 v 2.484173 2.48418 l -11.39961,0.01817 c -6.26979,0.01 -11.41293,0.0049 -11.42919,-0.0114 z m 73.72771,-19.15513 3e-5,-19.18471014 2.60884,0.00433 2.60884,0.004259 0.57575,0.72333994 c 0.31666,0.3978352 1.33729,1.6657157 2.26808,2.8175082 0.93077,1.1517926 2.28392,2.8289019 3.007,3.7269097 0.72308,0.8980078 2.25657,2.7987313 3.40776,4.2238303 1.15118,1.4251 2.37973,2.95047 2.73009,3.389713 0.35036,0.439243 0.65531,0.79763 0.67766,0.796416 0.0224,-0.0012 0.49442,-0.568237 1.04905,-1.26005 0.55463,-0.691814 1.44984,-1.800907 1.98935,-2.464652 1.01415,-1.247677 2.39042,-2.9463451 3.53719,-4.3658079 0.36275,-0.4490039 1.10123,-1.3612946 1.64107,-2.0273182 0.53984,-0.6660165 1.77612,-2.1913874 2.74727,-3.3897131 l 1.76575,-2.17876558 h 2.58245 2.58244 l -0.0179,19.16865878 -0.0179,19.168654 -2.75082,0.01606 -2.75082,0.01605 V 23.872776 c 0,-8.208961 -0.024,-14.9237517 -0.0532,-14.921757 -0.0293,0.00199 -0.55117,0.6329074 -1.15976,1.402028 -0.60858,0.769121 -1.85629,2.340776 -2.77269,3.492569 -0.91641,1.151792 -2.55555,3.212241 -3.64253,4.578774 -1.08699,1.366533 -2.49071,3.131128 -3.11937,3.921318 l -1.14302,1.436706 -0.46934,8.52e-4 -0.46933,7.81e-4 -1.48286,-1.862418 c -0.81558,-1.024325 -2.18565,-2.7448 -3.04461,-3.823276 -0.85896,-1.078475 -2.21931,-2.787991 -3.023,-3.798935 -0.80368,-1.010943 -2.09745,-2.636699 -2.87504,-3.612795 l -1.4138,-1.7747188 -0.0179,14.9237658 -0.0179,14.923767 -2.76842,0.01937 -2.76842,0.01937 z m 44.08381,19.149216 c 0,-0.01952 -0.008,-8.652642 -0.0178,-19.184711 l -0.0175,-19.14921514 h 2.78644 2.78644 l -0.0179,19.17137814 -0.0179,19.171379 -2.7508,0.01333 c -1.51293,0.0073 -2.75092,-0.0026 -2.75107,-0.02216 z m 13.8904,0.02366 c -0.007,-0.0065 -0.004,-8.639623 0.006,-19.184711 l 0.018,-19.17287614 h 2.21134 2.21133 l 0.25526,0.30035341 c 0.23959,0.28189633 14.01532,16.02833773 14.42491,16.48848773 0.28779,0.323311 7.24514,8.270472 9.0424,10.328862 0.86932,0.995617 1.71109,1.953966 1.8706,2.129663 l 0.29002,0.319449 0.003,-14.783407 0.003,-14.78340814 H 497.37342 500 V 19.593829 38.758912 l -2.36038,0.01963 -2.36037,0.01962 -0.21297,-0.215607 c -0.11713,-0.11858 -1.04353,-1.169966 -2.05867,-2.336411 -1.01514,-1.166444 -1.87766,-2.155878 -1.9167,-2.198748 -0.039,-0.04287 -0.24849,-0.285255 -0.46544,-0.538635 -0.63766,-0.744722 -3.81066,-4.392017 -4.29151,-4.93298 -0.24294,-0.273307 -0.53307,-0.608729 -0.64474,-0.745382 -0.11166,-0.136653 -0.52494,-0.615827 -0.91839,-1.064831 -0.39345,-0.449004 -1.5593,-1.790692 -2.59078,-2.981528 -1.03149,-1.190836 -1.90828,-2.200339 -1.94842,-2.243337 -0.0401,-0.04301 -0.33308,-0.378427 -0.65097,-0.745382 -1.76771,-2.04057 -5.10824,-5.88628 -6.12929,-7.056188 -0.64745,-0.741833 -1.7671,-2.031429 -2.48812,-2.865774 l -1.31094,-1.51698 -0.0179,14.720887 -0.0179,14.720896 h -2.59682 c -1.42825,0 -2.60215,-0.0053 -2.60868,-0.01183 z" />
</svg>
