<svg id="GALERIATOMASZOW" width="500" height="128.44357" viewBox="0 0 500 128.44357" version="1.1" xml:space="preserve" xmlns:xlink="http://www.w3.org/1999/xlink" xmlns="http://www.w3.org/2000/svg" xmlns:svg="http://www.w3.org/2000/svg">
	<path id="GALERIATOMASZOW" style="fill:#000000;stroke:#000000;stroke-width:0" d="M 42.616879,59.571389 C 28.356276,54.884377 21.049696,45.165812 20.988809,30.803911 c -0.03854,-9.23702 1.800329,-14.003143 7.999802,-20.728776 9.043378,-9.81091081 24.801963,-12.8181916 38.870762,-7.4178838 6.25992,2.402835 6.331048,2.480108 6.331048,6.873062 0,3.8159378 -0.271849,4.3248648 -1.92684,3.6064628 -17.456187,-7.5776268 -29.867793,-6.1864478 -38.19769,4.281449 -3.100012,3.895633 -3.367016,4.906045 -3.367016,12.742507 0,7.391151 0.388891,9.099093 2.955222,12.97703 4.078516,6.163093 10.55259,9.136661 19.892263,9.136661 4.00849,0 8.559027,-0.483209 10.112391,-1.073802 2.509075,-0.953951 2.824307,-1.684862 2.824307,-6.548769 v -5.47497 l -5.780521,-0.332804 -5.780523,-0.332804 v -3.853681 -3.853682 l 10.220073,-0.317047 10.220074,-0.317049 -0.310607,12.94663 -0.310606,12.946631 -5.413213,2.007954 c -7.246791,2.688043 -20.783784,3.448418 -26.710856,1.500359 z M 74.28851,127.84135 c -9.826434,-2.04199 -16.697222,-7.32612 -21.475129,-16.51577 -2.031328,-3.90708 -2.575915,-6.70084 -2.575796,-13.212616 1.02e-4,-7.09502 0.460019,-9.088272 3.266148,-14.15464 5.944261,-10.732558 14.683627,-15.573761 28.113597,-15.573761 13.770315,0 22.86378,5.229049 28.28217,16.262986 7.46657,15.205095 1.56053,33.254751 -13.193232,40.320021 -6.485536,3.10582 -15.64859,4.28046 -22.417758,2.87378 z m 13.606478,-7.87806 c 10.677005,-2.68851 17.928422,-13.80285 16.403692,-25.142086 -2.96095,-22.019762 -35.476339,-25.89935 -44.099223,-5.26173 -4.95759,11.865076 1.666882,26.226546 13.850245,30.026486 6.087495,1.89863 7.63601,1.94083 13.845286,0.37733 z m 167.474702,7.48733 c -7.31076,-2.03648 -8.59458,-3.42491 -8.59458,-9.29495 v -5.01185 l 2.49245,2.34149 c 3.12203,2.93302 9.7464,5.74974 13.52213,5.74974 3.18172,0 9.30962,-5.36849 9.30962,-8.15583 0,-2.60177 -5.1973,-7.76512 -13.67673,-13.587236 -9.79605,-6.7262 -12.01941,-9.753567 -11.92152,-16.232343 0.14182,-9.378011 6.42354,-14.864034 17.02776,-14.870961 3.63668,-0.0022 7.93639,0.779226 10.18473,1.851386 3.55992,1.697592 3.89101,2.257002 3.89101,6.573126 v 4.717621 l -4.00729,-2.719444 c -8.25281,-5.60051 -19.1148,-3.319197 -19.1148,4.014622 0,3.52798 2.65366,6.3593 9.8912,10.553343 14.3424,8.311236 18.47058,16.521786 13.3357,26.523266 -3.73972,7.28405 -12.57289,10.26859 -22.33968,7.54802 z m 110.14593,-0.011 c -3.42591,-0.74894 -7.14197,-2.05399 -8.25788,-2.90013 -10.43997,-7.916 -14.67658,-15.55517 -14.65611,-26.426966 0.0221,-11.947823 6.46834,-22.224272 17.02336,-27.139488 7.79722,-3.631016 20.8525,-3.630245 28.63527,0.0022 11.41714,5.327913 17.65383,16.054469 16.86548,29.006838 -0.52652,8.651606 -2.76463,13.928616 -8.34399,19.673416 -7.24734,7.46244 -19.16579,10.42987 -31.26613,7.78463 z m 19.42707,-9.19699 c 8.02238,-4.05701 11.7676,-10.58355 11.72059,-20.424236 -0.0617,-12.983193 -9.0665,-21.726909 -22.3747,-21.726909 -7.80668,0 -12.39432,1.814633 -17.06542,6.750284 -4.43548,4.686672 -5.84813,8.441545 -5.84813,15.545325 0,10.527156 6.76431,19.321936 16.77518,21.810556 4.57003,1.13607 12.5074,0.21198 16.79248,-1.95502 z M 80.86863,59.218855 C 80.908273,58.729844 86.49919,45.447449 93.29334,29.702407 105.33775,1.7898312 105.7295,1.0668242 108.98366,0.74518619 l 3.3374,-0.3298756 12.86524,29.13062641 c 7.0758,16.021857 12.86513,29.424212 12.86513,29.783023 0,0.3588 -1.89777,0.652374 -4.21725,0.652374 -4.20899,0 -4.22529,-0.01751 -8.19524,-8.845069 l -3.97788,-8.845058 -12.43176,0.311906 -12.431643,0.311918 -3.5488,8.257888 c -3.515879,8.181388 -3.589979,8.261027 -8.000463,8.596462 -2.448408,0.18621 -4.419291,-0.06155 -4.379764,-0.550526 z m 34.50686,-30.892762 c -1.55612,-3.482076 -3.60914,-8.247957 -4.56221,-10.590841 L 109.08033,13.47547 104.848,23.643364 c -2.32774,5.592341 -4.23233,10.35821 -4.23233,10.590831 0,0.232618 3.95762,0.422946 8.79454,0.422946 h 8.79454 z m 29.28225,1.926841 V 0.52453489 h 4.40421 4.40421 V 26.399253 52.273971 h 13.21262 13.21263 v 3.853681 3.853682 h -17.61684 -17.61683 z m 42.94103,-0.02862 V 0.46723619 l 16.79103,0.303934 16.79105,0.30394601 0.34506,3.578417 0.34509,3.578419 h -12.73191 -12.73191 v 8.8084148 8.808415 h 12.17808 12.17807 l -0.34176,4.128944 -0.34177,4.128944 h -11.83763 -11.83774 v 9.083678 9.083677 h 12.6621 12.6621 v 3.853682 3.853681 h -17.06631 -17.0663 z m 42.94102,0.02862 V 0.52453489 h 9.7452 c 10.64684,0 15.8265,1.26085831 19.84986,4.83198731 2.97681,2.642139 5.6386,8.2369028 5.6386,11.8513268 0,3.876594 -4.16825,11.445664 -7.19527,13.065652 l -2.76903,1.481961 3.71572,3.928201 c 2.04355,2.160517 6.74119,8.511341 10.43918,14.112941 l 6.72346,10.18473 -5.18176,-0.01729 -5.18177,-0.01729 -6.50414,-9.940011 C 252.02209,38.089904 248.28677,34.65711 243.11744,34.65711 h -3.76924 v 12.662097 12.662096 h -4.4042 -4.40421 z m 18.44263,-4.278666 c 3.9684,-0.201106 6.88157,-3.949274 6.88157,-8.854041 0,-5.893293 -3.7601,-8.8883288 -11.15895,-8.8883288 h -5.35684 v 8.6249008 c 0,4.743695 0.29685,8.921769 0.65976,9.284587 0.3628,0.362818 1.97307,0.501893 3.57842,0.309054 1.60522,-0.192848 4.03347,-0.407125 5.39604,-0.476172 z m 34.40786,4.278666 V 0.52453489 h 4.40421 4.4042 v 29.72839911 29.7284 h -4.4042 -4.40421 z m 15.41473,28.954922 c 0,-0.425414 5.54049,-13.827858 12.31206,-29.78321 l 12.31197,-29.00974291 3.33575,0.3300841 c 3.24094,0.32069201 3.7046,1.15786701 16.31539,29.45791481 7.13877,16.020316 12.97953,29.274226 12.97953,29.453137 0,0.17891 -1.97309,0.325295 -4.38462,0.325295 h -4.38471 l -4.02644,-8.808415 -4.02645,-8.808415 h -12.37592 -12.37583 l -3.63676,8.808415 -3.63678,8.808415 h -4.2036 c -2.31198,0 -4.20359,-0.348065 -4.20359,-0.773478 z m 32.73118,-34.467503 c -2.49124,-5.454237 -4.87545,-9.541891 -5.29803,-9.083677 -0.92522,1.002981 -7.61422,16.950945 -7.61422,18.153823 0,0.465657 3.92448,0.846642 8.72099,0.846642 h 8.72088 z M 21.059492,101.96619 V 76.091474 H 10.529797 0 L 0.34506549,72.513055 0.69002907,68.934637 25.188422,68.638311 49.686832,68.341985 v 3.874745 3.874744 h -9.909474 -9.909457 v 25.874716 25.87472 H 25.463697 21.059492 Z M 123.4573,98.046044 V 68.251181 l 4.11178,0.341723 c 3.77242,0.313524 4.88579,1.313015 13.48787,12.108508 5.15689,6.471729 9.62386,11.777452 9.92665,11.790512 0.30279,0.0129 4.91168,-5.405864 10.24188,-12.042046 8.95341,-11.14717 9.98025,-12.065767 13.48787,-12.065767 h 3.79654 v 29.728403 29.728396 h -4.44747 -4.4476 l 0.31866,-22.57267 c 0.17518,-12.414956 0.0705,-22.571688 -0.232,-22.570521 -0.30279,0.0011 -4.4663,4.956406 -9.25236,11.011615 -4.78594,6.05522 -8.99745,11.009006 -9.35894,11.008436 -0.36136,-5.6e-4 -4.62089,-5.016776 -9.46553,-11.147116 l -8.80841,-11.146095 -0.29761,22.708161 -0.2975,22.70819 h -4.38197 -4.38186 z m 61.66244,29.519596 c 0,-0.15138 5.59102,-13.4053 12.42018,-29.453126 12.06985,-28.362768 12.50807,-29.186091 15.68647,-29.47198 3.26936,-0.294056 3.27177,-0.289575 15.9319,28.42757 6.96414,15.796936 12.82724,29.183176 13.02918,29.747236 0.20183,0.56406 -1.54798,1.02557 -3.88836,1.02557 -4.25183,0 -4.25888,-0.008 -8.25669,-8.80842 l -4.00122,-8.80841 h -12.55452 -12.55453 l -3.63666,8.80841 -3.63677,8.80842 h -4.2712 c -2.3492,0 -4.26967,-0.12387 -4.26778,-0.27527 z m 36.41618,-27.52629 c -0.52895,-1.362556 -2.65023,-6.179656 -4.71405,-10.704656 l -3.75237,-8.227291 -4.06719,10.161731 c -2.2369,5.58895 -4.06717,10.406046 -4.06717,10.704656 0,0.2986 3.95157,0.54292 8.78121,0.54292 8.65725,0 8.76758,-0.0349 7.81957,-2.47736 z m 63.37501,26.42524 c 0.4566,-0.75697 8.66108,-12.10124 18.23242,-25.20948 9.57122,-13.10823 17.40223,-24.132512 17.40223,-24.498403 0,-0.365879 -7.67983,-0.665233 -17.06631,-0.665233 h -17.0663 v -3.853681 -3.853682 h 25.39919 25.39917 l -2.19022,3.027892 c -1.20466,1.665342 -9.60117,13.185096 -18.65886,25.599451 l -16.46854,22.571566 18.58387,0.30126 18.58377,0.30127 v 3.82767 3.82769 h -26.4902 c -20.90081,0 -26.31503,-0.29041 -25.66022,-1.37632 z M 421.84234,98.955644 c -6.35857,-15.872932 -11.72619,-29.244997 -11.92801,-29.715697 -0.20183,-0.470709 1.56581,-0.855836 3.9281,-0.855836 h 4.29521 l 7.51799,18.993143 c 4.13499,10.44623 7.84808,19.631866 8.25138,20.412516 0.4118,0.79711 4.2865,-7.52966 8.83826,-18.993138 l 8.10506,-20.412521 h 3.98052 3.98041 l 8.32935,20.510735 8.32935,20.510734 8.03492,-20.510734 8.03493,-20.510735 h 4.23861 c 2.33126,0 4.23101,0.123871 4.22154,0.275263 -0.12466,2.012293 -24.01405,58.567026 -24.85823,58.848386 -0.64201,0.21402 -5.34109,-10.26124 -10.44226,-23.27836 -5.10128,-13.017116 -9.52278,-23.668371 -9.82557,-23.669462 -0.30279,-0.0011 -4.76204,10.629696 -9.90947,23.623982 -5.14741,12.99428 -9.85441,23.62724 -10.45999,23.62878 -0.60558,10e-4 -6.30352,-12.98413 -12.6621,-28.857056 z M 370.09291,64.126729 c 0,-0.524827 1.05701,-3.497667 2.34898,-6.606311 2.2608,-5.440111 2.51063,-5.652084 6.66093,-5.652084 4.8215,0 4.85675,-0.215707 -1.30254,7.991598 -3.40655,4.539407 -7.70737,6.920299 -7.70737,4.266797 z" />
</svg>
