<svg id="GALERIASANDECJA" width="500" height="174.24225" viewBox="0 0 500 174.24225" version="1.1" xml:space="preserve" xmlns:xlink="http://www.w3.org/1999/xlink" xmlns="http://www.w3.org/2000/svg" xmlns:svg="http://www.w3.org/2000/svg">
	<path id="GALERIASANDECJA" style="fill:#000000;stroke:#000000;stroke-width:0" d="m 32.577036,172.55585 c 0.513554,-0.51358 1.574049,-0.94684 2.356656,-0.9628 3.714429,-0.0757 8.980878,-7.06013 10.610802,-14.07199 2.57993,-11.09817 -2.289191,-20.96937 -12.400897,-25.14041 -19.023856,-7.84734 -21.652434,-10.06593 -20.716885,-17.48582 0.883574,-7.00767 6.012914,-11.21787 13.633609,-11.19065 3.70089,0.0132 10.02095,1.69985 11.350154,3.02902 1.434072,1.43404 3.667388,0.42375 5.717242,-2.5862 2.736199,-4.01788 1.985144,-5.098871 -5.175578,-7.448906 -7.507107,-2.463692 -18.73002,-2.331827 -23.627481,0.277636 -7.8375444,4.176 -11.4748715,10.44604 -11.4748715,19.78018 0,5.96048 2.1993541,11.75414 5.3944928,14.21039 1.61673,1.24285 9.6124937,5.19677 17.3864737,8.59763 6.621239,2.89656 11.185969,8.02135 11.181379,12.55335 0,4.0501 -2.563522,8.64132 -6.11193,10.96344 -3.827902,2.50502 -14.94698,2.14566 -20.8852014,-0.675 L 5.305229,160.2636 2.6525571,163.41834 0,166.57308 l 2.9966472,2.52449 c 1.6481675,1.38847 3.6527016,2.52449 4.4543547,2.52449 0.801653,0 1.8499862,0.38364 2.3295782,0.85254 0.4797069,0.46891 2.3179899,1.04887 4.0851379,1.28882 4.912262,0.667 17.659428,-0.15566 18.711318,-1.20757 z M 374.1791,172.43653 c 7.4058,-3.21049 14.22897,-9.99149 14.22897,-14.14103 0,-0.70823 -1.64519,-1.7806 -3.65603,-2.38306 -3.63538,-1.08917 -3.68173,-1.07137 -8.18267,3.13875 -5.33643,4.99156 -7.44687,5.70596 -16.61912,5.6255 -7.7375,-0.0679 -11.26147,-1.45636 -15.01353,-5.91535 -3.78258,-4.49539 -4.44265,-8.80456 -4.06208,-26.52089 0.38138,-17.76056 0.94381,-19.91144 6.22793,-23.81815 9.16365,-6.77501 20.64426,-6.14717 28.35273,1.5505 l 4.03006,4.02447 3.58937,-1.1846 c 1.97413,-0.65153 3.81436,-1.54859 4.08927,-1.99346 0.75151,-1.21594 -3.76939,-7.57628 -7.29864,-10.26811 -7.02441,-5.357824 -18.57971,-7.308169 -28.63612,-4.833347 -8.74188,2.151326 -14.36573,6.773017 -18.07924,14.857577 -1.89095,4.11685 -2.14176,6.24591 -2.43341,20.65491 -0.40731,20.12479 0.6346,26.56157 5.30087,32.75118 3.44193,4.56539 9.50877,8.2875 15.67003,9.61383 4.63048,0.9968 19.25769,0.24324 22.49161,-1.15872 z m 42.05908,0.60951 c 4.41155,-1.57334 6.72496,-3.65884 9.21688,-8.30894 1.88992,-3.52662 1.97907,-4.97568 2.25087,-36.60261 l 0.28305,-32.930624 -4.41396,0.660644 c -2.42779,0.363366 -4.72387,0.851356 -5.10261,1.08444 -0.37863,0.233084 -0.69002,13.92837 -0.69185,30.43398 0,28.09631 -0.11726,30.19672 -1.78688,32.93509 -0.98087,1.6087 -2.68687,3.40835 -3.79096,3.99925 -2.21611,1.18606 -8.71607,0.50982 -10.6676,-1.10984 -1.54215,-1.27984 -3.3467,0.1591 -4.89884,3.90616 -1.36213,3.28842 -0.76287,4.11656 4.27927,5.91383 4.52469,1.61282 10.83121,1.62048 15.32263,0.0186 z M 65.848563,172.35217 c 0.375987,-0.60823 1.976998,-4.84249 3.557816,-9.40946 l 2.874225,-8.30357 h 15.519507 15.519509 l 2.51051,7.34396 c 4.18691,12.24782 3.80106,11.76851 9.06751,11.26247 2.51785,-0.24194 4.79936,-0.66125 5.0699,-0.9318 0.27055,-0.27056 -1.22296,-5.18422 -3.31905,-10.91927 -4.69128,-12.83616 -6.3087,-17.32868 -10.03391,-27.86928 -1.60595,-4.54408 -3.26823,-9.08815 -3.69401,-10.09795 -0.42567,-1.00979 -0.97892,-2.66219 -1.22938,-3.67199 -0.9375,-3.77923 -8.056233,-22.877936 -8.911468,-23.908496 -1.200815,-1.446888 -9.930309,0.488484 -11.02488,2.444255 -0.434501,0.776504 -1.449791,3.445041 -2.256033,5.930061 -0.806243,2.48504 -1.819697,5.34443 -2.252247,6.35423 -1.451168,3.38812 -3.877812,10.03831 -6.53209,17.90092 -1.448758,4.29163 -3.930245,11.3143 -5.514276,15.60593 -6.03632,16.35311 -9.863878,27.97544 -9.439244,28.66236 0.71434,1.15594 9.338048,0.8205 10.087611,-0.39237 z M 76.63686,144.54118 c -0.959528,-0.73287 -0.01147,-4.43542 4.715033,-18.35992 3.254342,-9.59306 5.925256,-17.5452 5.935238,-17.67142 0.07917,-0.99988 1.854232,0.0773 1.854232,1.12544 0,0.74522 2.478619,8.87859 5.507965,18.07418 3.029462,9.19558 5.507962,16.82352 5.507962,16.95099 0,0.76059 -22.517876,0.6464 -23.52043,-0.11927 z m 65.23622,27.34713 c 0.33136,-0.86335 0.53834,-14.18577 0.45998,-29.60537 -0.078,-15.4196 0.21122,-28.10878 0.64331,-28.19817 0.43221,-0.0894 4.59938,5.69399 9.26049,12.85195 4.66099,7.15797 8.91169,13.53095 9.44578,14.1622 0.53421,0.63124 3.12366,4.55909 5.75431,8.72853 9.69189,15.36089 14.923,22.70071 16.56738,23.2459 0.9274,0.3075 3.09623,0.29458 4.81944,-0.0287 l 3.13318,-0.58778 V 133.94265 95.428414 h -2.23527 c -1.22938,0 -3.29484,0.402869 -4.58997,0.895277 l -2.3547,0.895277 v 28.975352 c 0,28.11795 -0.0505,28.92676 -1.68902,27.3331 -0.929,-0.90324 -1.92869,-2.26189 -2.22149,-3.01925 -0.29281,-0.75734 -8.53892,-13.35684 -18.32455,-27.99887 l -17.79218,-26.621889 -4.39217,0.155397 c -2.41574,0.08548 -4.52468,0.292012 -4.68657,0.458997 -0.34811,0.35896 -0.84881,55.069055 -0.62244,68.005805 l 0.15661,8.95047 h 4.03271 c 2.95798,0 4.19333,-0.41839 4.63517,-1.56975 z m 106.08164,-0.75424 c 6.54046,-2.27391 12.89792,-8.47531 14.99344,-14.62527 1.91309,-5.61452 2.22621,-37.32105 0.4212,-42.65531 -2.65233,-7.83872 -8.79627,-14.076564 -16.30981,-16.559015 -1.77965,-0.588017 -10.81686,-1.308174 -20.08251,-1.600335 -13.83554,-0.436256 -16.99167,-0.302384 -17.65737,0.749024 -0.44586,0.704117 -0.81702,18.079546 -0.82471,38.612056 -0.0115,28.9975 0.24209,37.44354 1.13335,37.83222 0.63116,0.27522 8.3768,0.38825 17.21242,0.25119 12.98352,-0.20138 17.03344,-0.58589 21.11399,-2.00456 z m -29.62973,-7.41586 c -1.18441,-1.18437 -0.79706,-57.08338 0.40066,-57.82361 0.5856,-0.36195 6.02645,-0.56528 12.09076,-0.45186 12.45609,0.233 16.29925,1.51534 20.17132,6.73061 3.65925,4.92861 4.3114,8.42993 4.30199,23.09536 -0.0115,12.65152 -0.19929,14.27108 -2.18719,18.54044 -2.2589,4.85116 -5.97104,7.91871 -11.1317,9.19892 -3.81918,0.9474 -22.83742,1.51857 -23.64584,0.71014 z m 100.61428,9.05134 c 0.22408,-0.37867 0.6961,-2.43401 1.04914,-4.56743 l 0.64171,-3.87894 -15.4533,-0.25204 -15.45331,-0.25205 -0.25471,-13.08144 -0.25471,-13.08144 h 11.84673 c 13.25555,0 13.79653,-0.23234 14.15072,-6.0775 l 0.21581,-3.56147 -13.08139,-0.2547 -13.0815,-0.2547 v -10.96855 -10.96855 l 15.37643,-0.25169 15.37643,-0.2517 v -4.58998 -4.589982 l -19.83916,-0.247047 -19.83928,-0.247047 -0.58618,4.276653 c -0.74314,5.421973 -0.74979,68.952743 -0.0115,71.722613 0.55164,2.05815 0.62152,2.06549 19.67027,2.06549 10.5142,0 19.29991,-0.30982 19.52387,-0.6885 z m 128.65424,-2.98349 c 0.626,-1.76713 1.63968,-4.86537 2.25271,-6.88496 0.61291,-2.01959 1.54869,-4.80801 2.07946,-6.19647 l 0.96492,-2.52449 h 14.92311 c 10.97176,0 15.18024,0.30979 15.89412,1.17 0.53409,0.6435 1.62063,3.22537 2.4146,5.73748 3.14591,9.95355 3.55999,11.01731 4.54212,11.66788 1.72653,1.14373 8.84251,0.79683 9.32268,-0.45447 0.38964,-1.01546 -8.24669,-27.48179 -10.55619,-32.34984 -0.47914,-1.00979 -2.5641,-6.79317 -4.63334,-12.85194 -2.06925,-6.05877 -4.11474,-11.84215 -4.54546,-12.85194 -0.43083,-1.0098 -1.69681,-4.52113 -2.81341,-7.80296 -1.1166,-3.28184 -2.58315,-7.227411 -3.25905,-8.767946 l -1.22893,-2.800978 -5.07025,0.928814 c -5.53057,1.013155 -5.77507,1.338383 -9.37866,12.47609 -0.73511,2.27204 -1.68867,4.95718 -2.11893,5.96698 -1.6274,3.81956 -8.17784,22.04916 -8.74142,24.32689 -0.18736,0.75735 -2.88799,8.31523 -6.00133,16.79529 -3.11344,8.48006 -5.4218,16.04085 -5.1298,16.80175 0.39836,1.03812 1.70588,1.31412 5.23788,1.10565 4.45964,-0.26324 4.76678,-0.44662 5.84517,-3.49083 z m 8.74625,-26.4415 c 0,-1.43023 5.33208,-18.28471 7.02706,-22.21228 0.32688,-0.75735 0.71812,-1.79009 0.86946,-2.29499 2.08932,-6.96968 3.03841,-9.17996 3.94206,-9.17996 1.02011,0 12.02939,31.10613 12.02939,33.9884 0,1.12447 -2.02634,1.35444 -11.93405,1.35444 -10.88857,0 -11.93392,-0.14502 -11.93392,-1.65561 z M 45.441233,76.613708 c 4.923161,-2.251891 9.498791,-6.577777 11.91224,-11.262072 1.786079,-3.466602 3.536934,-15.237764 3.172766,-21.331016 L 60.224486,38.97164 48.06109,38.715495 35.89758,38.459349 l 0.01377,3.469125 c 0.0218,5.364823 0.832861,5.991149 7.917515,6.113962 l 6.297342,0.109113 -0.319193,5.04898 C 49.205571,62.712216 43.173497,69.02733 33.539892,70.230969 22.204653,71.647211 13.638198,66.640362 10.748599,56.910093 9.0249358,51.105595 8.713201,31.126696 10.235619,24.027816 12.964131,11.305236 28.312568,5.0670056 40.163311,11.863938 c 2.598746,1.490499 5.549958,3.758671 6.558134,5.040364 1.008176,1.281704 2.124318,2.33037 2.480225,2.33037 0.557153,0 6.804127,-2.68668 7.647773,-3.28913 0.163382,-0.116731 -0.317701,-1.38664 -1.069215,-2.822032 C 53.58248,8.9257368 48.697181,4.8221613 42.78225,2.205367 37.807917,0.00467048 36.425476,-0.19763017 28.511977,0.1170763 21.046519,0.41396444 18.95949,0.86527433 14.411971,3.1660771 11.476363,4.6513668 7.7226942,7.445874 6.070511,9.3760829 1.2593307,14.996914 0.55451397,19.071863 0.55451397,41.26658 c 0,19.586253 0.0183576,19.771951 2.43352813,24.326894 2.8449676,5.365637 5.2961649,7.802527 10.6040329,10.541766 8.266767,4.266304 23.081228,4.488833 31.848928,0.478422 z M 268.35837,62.519335 268.60964,47.2336 l 2.37961,-0.2765 c 1.84769,-0.21468 2.96635,0.503664 5.0037,3.21298 17.8842,23.783452 23.06563,28.664093 30.48404,28.714221 3.15556,0.02134 2.98254,0.378465 3.36598,-6.950161 0.047,-0.910158 -1.2809,-1.928993 -3.51846,-2.698187 -3.94516,-1.356316 -4.20882,-1.610741 -14.67976,-14.164889 l -7.24505,-8.686457 3.1209,-0.757457 c 7.67393,-1.862469 13.0721,-6.055538 17.12029,-13.298525 0.63116,-1.129176 1.14758,-4.954829 1.14758,-8.501469 0,-10.586203 -3.93885,-16.7155049 -13.36043,-20.7903393 -2.75386,-1.1910864 -7.1995,-1.6639779 -18.54001,-1.9721789 L 258.97065,0.65923332 V 39.169856 c 0,21.180839 0.17738,38.688026 0.39423,38.904875 0.21685,0.216849 2.27255,0.244879 4.56817,0.0623 l 4.17394,-0.331962 z m 0.40422,-25.536694 c -1.14139,-1.141429 -0.69438,-25.560272 0.48957,-26.744279 2.26074,-2.2607145 16.4149,-0.4695873 21.64108,2.738551 9.35766,5.744217 6.78829,19.861995 -4.29017,23.572569 -3.34602,1.120685 -16.82565,1.447967 -17.84048,0.433159 z m -187.054675,31.82387 2.910023,-9.179965 h 13.661604 c 7.513878,0 14.302858,-0.246072 15.086608,-0.546838 1.67456,-0.642596 3.342,2.687975 7.16761,14.316775 l 1.35904,4.130985 5.19714,0.275307 c 6.12524,0.32447 6.10815,0.375447 2.85232,-8.541248 -1.28974,-3.532092 -3.93713,-10.966079 -5.88304,-16.51995 C 115.14868,27.310004 110.26843,13.657693 107.8178,7.3058744 l -2.65451,-6.87987427 -3.58294,0.30868289 C 95.893629,1.2246242 93.921679,2.3491528 92.959971,5.6505705 91.85863,9.4311671 85.637013,27.314536 84.561373,29.791675 c -0.881738,2.03028 -4.721687,12.819725 -7.351182,20.654917 -0.931877,2.776929 -3.003073,8.560305 -4.602478,12.851942 -3.076502,8.25487 -4.580219,12.848868 -4.580219,13.993372 0,0.38201 2.423317,0.69456 5.385085,0.69456 h 5.385199 z m 6.523141,-19.507418 c 0.01147,-1.514478 8.794433,-28.156551 9.524491,-28.886541 0.311162,-0.311207 0.565758,-1.711903 0.565758,-3.112644 0,-2.865253 1.334368,-4.201548 2.437205,-2.440642 1.18004,1.884395 11.27408,32.225925 11.30471,33.98083 0.0252,1.449045 -1.14149,1.606496 -11.90593,1.606496 -8.939225,0 -11.931971,-0.287962 -11.926234,-1.147499 z m 98.824304,24.994238 c 0.71732,-2.68723 0.70642,-3.869481 -0.0402,-4.340537 -0.56404,-0.356069 -7.84167,-0.656376 -16.17246,-0.667345 L 155.69574,69.265489 155.2368,35.299632 154.77774,1.3337746 152.14239,1.0326068 c -1.44956,-0.16565434 -3.61828,-0.0544991 -4.81955,0.2469784 l -2.1841,0.5481692 V 39.295101 c 0,20.607038 0.27548,37.742748 0.612,38.079345 0.33663,0.336598 9.54606,0.611997 20.46527,0.611997 h 19.85328 z m 53.00949,-0.101425 c 0.33377,-2.086994 0.44437,-3.956899 0.24599,-4.155333 -0.19849,-0.198434 -7.13158,-0.453111 -15.40695,-0.565941 L 209.8579,69.265486 V 55.954534 42.643594 l 12.19632,-0.256375 c 12.11016,-0.254551 12.20264,-0.272828 13.0815,-2.584244 0.48671,-1.280338 0.88507,-3.322391 0.88507,-4.537904 v -2.210025 l -13.0815,-0.2547 -13.08139,-0.2547 V 21.529692 10.513737 l 15.37643,-0.251694 15.37643,-0.251694 V 5.4246574 0.83897708 L 220.64436,1.08638 200.67795,1.3337716 200.43827,39.660107 200.19871,77.986443 h 19.62965 19.62966 z M 333.10892,39.20111 333.34849,0.87477439 h -3.95744 c -2.17663,0 -4.4532,0.49572381 -5.05912,1.10160461 -0.82012,0.8201942 -1.10157,10.51275 -1.10157,37.943832 0,20.263235 0.29441,37.136684 0.65433,37.496561 0.35981,0.359866 2.52865,0.531992 4.81945,0.382492 l 4.16522,-0.271818 z m 25.92023,30.073681 c 1.5962,-4.791412 3.31194,-8.964827 3.81253,-9.274255 0.5007,-0.309429 7.32755,-0.534745 15.17071,-0.500703 14.51914,0.06299 16.79582,0.560617 16.84539,3.68158 0.0126,0.821755 1.00691,4.385777 2.20853,7.920061 l 2.1849,6.425972 5.13542,0.275306 c 4.23957,0.22729 5.13531,0.01538 5.13531,-1.215135 0,-1.605314 -2.74595,-9.990292 -7.35818,-22.469071 -1.58633,-4.291626 -3.63412,-10.075002 -4.55085,-12.851943 -0.91673,-2.776941 -3.7313,-10.625798 -6.25455,-17.441926 -2.52325,-6.816116 -5.1384,-14.0453352 -5.81132,-16.0649226 -2.30445,-6.91532741 -3.06423,-7.58789216 -7.76549,-6.87441293 -4.62921,0.70253353 -6.10447,1.86744893 -7.54337,5.95640723 -0.53305,1.5146962 -2.6895,7.5046183 -4.79213,13.3109513 -2.10263,5.806323 -4.58435,12.828985 -5.51496,15.605926 -2.97852,8.888195 -5.17157,14.676641 -5.79768,15.302773 -0.33502,0.335037 -0.60912,1.548681 -0.60912,2.696971 0,1.148302 -0.41316,2.343128 -0.918,2.655173 -0.50495,0.312045 -0.91799,1.50686 -0.91799,2.655161 0,1.148302 -0.27032,2.358022 -0.60052,2.688263 -1.03859,1.038627 -5.63556,15.195473 -5.10605,15.724917 0.27743,0.27751 2.67366,0.504559 5.32484,0.504559 h 4.82025 z m 7.34706,-21.080022 c 0,-1.238483 0.36026,-3.200703 0.80062,-4.360478 0.44023,-1.159776 1.29375,-3.761081 1.89657,-5.780668 0.60293,-2.019599 1.42466,-4.498183 1.82623,-5.507977 0.40157,-1.009805 1.22778,-3.48839 1.83599,-5.507977 0.60821,-2.019599 1.45954,-4.498184 1.89175,-5.507977 0.43232,-1.009794 1.0325,-2.972014 1.33379,-4.360479 0.9951,-4.584877 2.78841,-2.652821 5.53837,5.966974 1.48995,4.670298 3.01111,9.111102 3.38044,9.868456 1.28354,2.632433 4.44609,13.706305 4.44609,15.568384 0,1.786137 -0.53535,1.873542 -11.47498,1.873542 h -11.47487 z" />
</svg>
