<svg id="GALERIATOMASZOW" width="500" height="45.130352" viewBox="0 0 500 45.130352" version="1.1" xml:space="preserve" xmlns:xlink="http://www.w3.org/1999/xlink" xmlns="http://www.w3.org/2000/svg" xmlns:svg="http://www.w3.org/2000/svg">
	<path id="GALERIATOMASZOW" style="fill:#000000;stroke:#000000;stroke-width:0" d="M 12.734043,44.488406 C 4.338002,41.728891 0.03619611,36.00701 3.4772995e-4,27.551329 -0.02234112,22.112961 1.060306,19.306869 4.7102936,15.3471 10.034653,9.5708498 19.312643,7.8002898 27.595758,10.979763 c 3.685577,1.414688 3.727454,1.460183 3.727454,4.046569 0,2.246663 -0.160053,2.546298 -1.134442,2.123333 -10.277466,-4.461387 -17.584896,-3.642319 -22.4891882,2.520737 -1.8251557,2.293584 -1.982357,2.888472 -1.982357,7.50225 0,4.351598 0.2289629,5.357162 1.7399104,7.640328 2.4012582,3.628569 6.2129198,5.37928 11.7117248,5.37928 2.36003,0 5.039194,-0.284493 5.953749,-0.632209 1.477238,-0.561646 1.662833,-0.991976 1.662833,-3.855639 V 32.480981 L 23.382115,32.28504 19.978787,32.089099 v -2.268885 -2.268885 l 6.017148,-0.186664 6.017148,-0.186665 -0.182872,7.622429 -0.182872,7.62243 -3.187071,1.182199 c -4.266605,1.582606 -12.236615,2.030283 -15.726225,0.883348 z m 236.624997,0.241617 c -5.78539,-1.202237 -9.83062,-4.313306 -12.64365,-9.723786 -1.19596,-2.300325 -1.51659,-3.94517 -1.51652,-7.779034 6e-5,-4.177245 0.27084,-5.35079 1.92297,-8.333654 3.49973,-6.318877 8.6451,-9.1691734 16.5521,-9.1691734 8.10738,0 13.46123,3.0786434 16.65135,9.5749604 4.396,8.952119 0.91877,19.578999 -7.76762,23.738728 -3.81841,1.828578 -9.21323,2.520154 -13.19863,1.691959 z m 8.01092,-4.638268 c 6.28617,-1.582878 10.5555,-8.126537 9.6578,-14.802602 C 265.28448,12.324848 246.14079,10.04071 241.064,22.19127 c -2.91882,6.985657 0.98139,15.441084 8.15444,17.678328 3.58406,1.117835 4.49576,1.142682 8.15152,0.222157 z m 98.60204,4.408223 c -4.30427,-1.198989 -5.06013,-2.016443 -5.06013,-5.472473 v -2.950763 l 1.46745,1.378568 c 1.83812,1.726836 5.73827,3.385202 7.96126,3.385202 1.87326,0 5.48111,-3.160738 5.48111,-4.801803 0,-1.531815 -3.05995,-4.571777 -8.05228,-7.999596 -5.7675,-3.960105 -7.07652,-5.742489 -7.01889,-9.556919 0.0835,-5.521377 3.78191,-8.7513165 10.02523,-8.755394 2.14112,-0.0013 4.67261,0.458775 5.99634,1.090018 2.09593,0.99947 2.29086,1.328827 2.29086,3.869979 v 2.777536 l -2.35932,-1.601094 c -4.85891,-3.297344 -11.25399,-1.954203 -11.25399,2.36364 0,2.077126 1.56236,3.744088 5.82352,6.213361 8.4442,4.893311 10.8747,9.727333 7.8515,15.615783 -2.20179,4.288542 -7.40239,6.045716 -13.15266,4.443955 z m 64.84927,-0.0065 c -2.01703,-0.440941 -4.20489,-1.209303 -4.86189,-1.707472 -6.14661,-4.660607 -8.64095,-9.158225 -8.6289,-15.559086 0.013,-7.034373 3.80829,-13.084712 10.02264,-15.978584 4.59067,-2.1377886 12.27707,-2.1373348 16.85924,0.0013 6.72193,3.13685 10.39383,9.452194 9.92968,17.078001 -0.30999,5.093705 -1.6277,8.200586 -4.91259,11.582884 -4.26693,4.393567 -11.28401,6.140666 -18.40818,4.583258 z m 11.43784,-5.414798 c 4.72324,-2.388597 6.92827,-6.231149 6.90059,-12.024928 -0.0363,-7.643958 -5.33797,-12.791889 -13.17328,-12.791889 -4.59624,0 -7.29725,1.068379 -10.0474,3.974282 -2.61142,2.759315 -3.44313,4.970025 -3.44313,9.15243 0,6.197952 3.98254,11.375943 9.87652,12.841137 2.69064,0.668873 7.36383,0.124808 9.8867,-1.151032 z M 35.25506,44.280849 C 35.2784,43.99294 38.570096,36.172826 42.570205,26.90281 49.661443,10.469063 49.892091,10.043387 51.808002,9.8540197 l 1.96492,-0.1942166 7.57451,17.1508839 c 4.165935,9.432993 7.574448,17.323734 7.574448,17.534987 0,0.211246 -1.117328,0.38409 -2.482938,0.38409 -2.478079,0 -2.487673,-0.01031 -4.825013,-5.207603 l -2.342008,-5.207597 -7.319293,0.183637 -7.319229,0.183644 -2.089384,4.861896 c -2.070001,4.816856 -2.113628,4.863744 -4.710335,5.061234 -1.441519,0.109633 -2.601892,-0.03624 -2.57862,-0.324126 z M 55.57124,26.092494 c -0.916176,-2.050099 -2.124908,-4.856049 -2.686036,-6.23544 l -1.020285,-2.50798 -2.491819,5.986427 c -1.370472,3.292534 -2.491819,6.098477 -2.491819,6.235434 0,0.136956 2.33008,0.249013 5.177855,0.249013 h 5.177854 z m 17.240157,1.134443 V 9.7241098 h 2.593012 2.593011 V 24.958052 40.191994 h 7.779034 7.779035 v 2.268885 2.268885 H 83.183443 72.811397 Z m 25.281862,-0.01685 V 9.6903747 l 9.885851,0.1789437 9.88586,0.1789506 0.20316,2.106821 0.20317,2.106822 h -7.49601 -7.49601 v 5.186023 5.186023 h 7.16994 7.16993 l -0.20121,2.430948 -0.20122,2.430948 h -6.9695 -6.96956 v 5.348086 5.348086 h 7.45491 7.45491 v 2.268885 2.268885 H 108.13956 98.091638 Z m 25.281861,0.01685 V 9.7241098 h 5.73756 c 6.26841,0 9.31798,0.7423402 11.68676,2.8448702 1.75262,1.55558 3.31977,4.849541 3.31977,6.977561 0,2.282375 -2.45409,6.738724 -4.23627,7.692505 l -1.63029,0.872516 2.18766,2.312759 c 1.20316,1.272021 3.96893,5.011118 6.14615,8.309104 l 3.95849,5.996339 -3.0508,-0.01018 -3.05081,-0.01018 -3.82936,-5.852259 c -4.59099,-7.016131 -6.79019,-9.037215 -9.83367,-9.037215 h -2.21917 v 7.454908 7.454908 h -2.59301 -2.59301 z m 10.85824,-2.519098 c 2.33643,-0.118403 4.05158,-2.325166 4.05158,-5.212886 0,-3.469722 -2.21379,-5.233073 -6.56992,-5.233073 h -3.15388 v 5.077978 c 0,2.792887 0.17477,5.252761 0.38844,5.466373 0.2136,0.213612 1.16166,0.295493 2.10682,0.181958 0.94509,-0.113541 2.37474,-0.239698 3.17696,-0.28035 z m 20.2579,2.519098 V 9.7241098 h 2.59301 2.59301 V 27.226937 44.729764 h -2.59301 -2.59301 z m 9.07554,17.047436 c 0,-0.250466 3.26201,-8.141259 7.24882,-17.535097 l 7.24877,-17.0797128 1.96395,0.1943398 c 1.90813,0.18881 2.18111,0.681703 9.60581,17.343577 4.20301,9.432086 7.6418,17.235429 7.6418,17.340764 0,0.105335 -1.16167,0.19152 -2.58148,0.19152 h -2.58153 l -2.3706,-5.186023 -2.3706,-5.186023 h -7.28642 -7.28637 l -2.14117,5.186023 -2.14118,5.186023 h -2.4749 c -1.3612,0 -2.4749,-0.204926 -2.4749,-0.455391 z m 19.27074,-20.293011 c -1.46674,-3.211225 -2.87046,-5.617863 -3.11926,-5.348086 -0.54473,0.590513 -4.48293,9.980001 -4.48293,10.688205 0,0.274159 2.31057,0.498467 5.13455,0.498467 h 5.13449 z m 35.1825,5.51446 V 14.26188 h -6.19944 -6.1995 l 0.20316,-2.106822 0.2031,-2.106822 14.42362,-0.1744641 14.42363,-0.1744643 v 2.2812864 2.281286 h -5.83428 -5.83427 v 15.233942 15.233942 h -2.59301 -2.59301 z m 60.28751,-2.30802 V 9.6458462 l 2.42084,0.2011918 c 2.22104,0.18459 2.87655,0.773048 7.94109,7.128979 3.03616,3.810281 5.66612,6.934069 5.84439,6.941758 0.17827,0.0076 2.89179,-3.182747 6.02999,-7.089851 5.27139,-6.562983 5.87595,-7.1038142 7.94109,-7.1038142 h 2.23524 V 27.226937 44.729764 h -2.61848 -2.61856 l 0.18761,-13.289832 c 0.10314,-7.309407 0.0415,-13.289261 -0.13659,-13.288574 -0.17827,6.48e-4 -2.62957,2.918123 -5.4474,6.483177 -2.81776,3.565053 -5.29732,6.48164 -5.51015,6.481303 -0.21275,-3.31e-4 -2.72058,-2.953667 -5.5729,-6.562957 l -5.18602,-6.562348 -0.17522,13.369612 -0.17516,13.369619 h -2.57992 -2.57985 z m 36.30424,17.379899 c 0,-0.08913 3.29176,-7.892479 7.31248,-17.340764 7.10622,-16.698799 7.36422,-17.183537 9.23553,-17.3518556 1.92486,-0.1731289 1.92628,-0.1704905 9.38003,16.7369556 4.10019,9.300568 7.55214,17.181825 7.67103,17.513918 0.11883,0.332094 -0.91138,0.603809 -2.2893,0.603809 -2.5033,0 -2.50745,-0.0045 -4.86119,-5.186023 l -2.35575,-5.186023 h -7.39157 -7.39158 l -2.14111,5.186023 -2.14118,5.186023 h -2.5147 c -1.38311,0 -2.5138,-0.07293 -2.51269,-0.162063 z M 336.0521,28.361379 c -0.31142,-0.802213 -1.56034,-3.638319 -2.77543,-6.30245 l -2.20924,-4.843882 -2.39459,5.982797 c -1.31699,3.290538 -2.39458,6.126645 -2.39458,6.302451 0,0.175806 2.32652,0.319653 5.17001,0.319653 5.09702,0 5.16198,-0.02055 4.60383,-1.458569 z m 37.31253,15.558069 c 0.26883,-0.445674 5.09928,-7.124701 10.73448,-14.842281 5.63513,-7.717573 10.2457,-14.208205 10.2457,-14.423626 0,-0.215414 -4.52156,-0.391661 -10.04792,-0.391661 H 374.24897 V 11.992995 9.7241098 h 14.95397 14.95396 l -1.28951,1.7826952 c -0.70925,0.980483 -5.65276,7.762828 -10.98555,15.071879 l -9.69598,13.289183 10.9414,0.177369 10.94134,0.177375 v 2.253573 2.25358 h -15.59631 c -12.30552,0 -15.49318,-0.170977 -15.10766,-0.810316 z m 80.61944,-16.196112 c -3.74366,-9.34531 -6.90389,-17.218218 -7.02271,-17.495346 -0.11883,-0.2771343 0.92188,-0.5038802 2.3127,-0.5038802 h 2.52884 l 4.42627,11.1823612 c 2.43451,6.150299 4.62062,11.558414 4.85807,12.018031 0.24245,0.469303 2.52371,-4.433148 5.20359,-11.182361 l 4.77192,-12.0180312 h 2.34356 2.3435 l 4.90397,12.0758552 4.90397,12.075855 4.73062,-12.075855 4.73063,-12.0758552 h 2.49551 c 1.37255,0 2.49104,0.072928 2.48547,0.1620632 -0.0734,1.184753 -14.13846,34.481794 -14.63548,34.647449 -0.37799,0.126007 -3.14461,-6.041386 -6.14796,-13.705316 -3.00342,-7.663931 -5.60661,-13.934941 -5.78488,-13.935583 -0.17827,-6.42e-4 -2.80369,6.258318 -5.83428,13.908803 -3.03058,7.650486 -5.80186,13.910722 -6.1584,13.91163 -0.35654,6.48e-4 -3.71125,-7.644509 -7.45491,-16.98982 z M 423.51619,7.2175429 c 0,-0.3089962 0.62232,-2.0592792 1.38298,-3.8895174 1.33106,-3.20290713 1.47815,-3.32770876872 3.92167,-3.32770876872 2.8387,0 2.85945,-0.12699922128 -0.76688,4.70511646872 -2.00563,2.6726106 -4.53777,4.0743796 -4.53777,2.5121097 z" />
</svg>
