`<svg
   version="1.1"
   id="svg1"
   width="535.85059"
   height="159.54306"
   viewBox="0 0 535.85059 159.54306"
   xmlns="http://www.w3.org/2000/svg"
   xmlns:svg="http://www.w3.org/2000/svg">
  <defs
     id="defs1" />
  <g
     id="g1"
     transform="translate(-882.59343,-198.30065)">
    <path
       style="fill:#000000;stroke-width:0.798935"
       d="m 927.23734,355.90241 c -28.52216,-7.36852 -46.13399,-28.68124 -44.54465,-53.90507 1.59913,-25.37913 20.57018,-47.59401 46.46843,-54.41402 7.70658,-2.02944 25.1604,-2.47873 32.75632,-0.84321 11.5451,2.48584 21.57116,6.70478 28.84009,12.13583 13.83987,10.34059 19.74927,37.38509 13.09017,59.90773 -8.01992,27.12553 -45.32608,45.20084 -76.61036,37.11874 z m 29.08124,-22.01393 c 2.24579,-0.84026 5.21007,-2.69706 6.58728,-4.12622 6.2632,-6.49943 9.61215,-19.40754 8.79404,-33.89553 -1.16654,-20.65842 -12.3577,-30.94535 -30.55476,-28.086 -14.20879,2.23266 -22.76964,15.94479 -22.76964,36.47068 0,16.69481 5.69682,26.73723 17.47971,30.81346 4.64036,1.60531 14.55145,1.03554 20.46337,-1.17639 z"
       id="path2" />
    <path
       style="fill:#000000;stroke-width:0.798935"
       d="m 1032.6957,356.52601 -9.9142,-0.25233 0.5249,-19.74803 c 0.2888,-10.86141 0.5258,-35.11753 0.5268,-53.90248 v -34.15446 l 15.3795,0.0122 c 8.4587,0.007 15.9188,0.35295 16.5779,0.76938 1.0347,0.65373 1.2295,6.3205 1.4259,41.48735 0.2267,40.59514 0.233,40.73195 1.9074,41.26337 0.9239,0.29325 8.8787,0.26968 17.6773,-0.0524 l 15.9974,-0.58556 -0.5278,11.61622 c -0.2903,6.38893 -0.7462,12.18509 -1.013,12.88037 -0.4296,1.11958 -3.2388,1.24439 -24.5673,1.09139 -13.2453,-0.095 -28.5437,-0.2863 -33.9965,-0.42508 z"
       id="path3" />
    <path
       style="fill:#000000;stroke-width:0.798935"
       d="m 1113.3156,303.59521 v -53.52863 h 15.9787 15.9787 v 53.52863 53.52862 h -15.9787 -15.9787 z"
       id="path4" />
    <path
       style="fill:#000000;stroke-width:0.798935"
       d="m 1285.5076,349.34403 c -15.6502,-39.99168 -18.1478,-45.74882 -19.847,-45.74882 -1.3513,0 -4.4211,4.17836 -18.7827,25.56591 -6.639,9.88682 -12.712,18.77847 -13.4957,19.75923 -1.4211,1.7785 -1.4509,1.74168 -11.3431,-13.98136 -13.0076,-20.67474 -19.8651,-30.54485 -21.2218,-30.54485 -1.3306,0 -2.7408,3.69012 -9.1597,23.96804 -5.9478,18.79007 -8.8582,27.08402 -9.6826,27.59354 -0.7198,0.44483 -22.9339,-7.91332 -24.0813,-9.06066 -0.5022,-0.50218 -0.053,-2.7803 1.2723,-6.45457 4.422,-12.25901 20.2415,-53.55712 28.6205,-74.71653 l 8.8275,-22.29203 1.4532,1.91919 c 0.7993,1.05555 6.0332,9.28936 11.6308,18.29735 16.4762,26.51439 24.351,38.34887 25.518,38.34887 1.5981,0 2.305,-1.6041 16.6287,-37.73369 7.1895,-18.13462 14.7891,-37.06112 16.888,-42.05889 l 3.8163,-9.08685 9.4989,27.86182 c 19.2519,56.46907 34.1971,101.31949 34.1971,102.62523 0,0.95424 -3.5213,2.9553 -12.1837,6.9236 -6.7011,3.06979 -12.9303,5.81397 -13.8427,6.09817 -1.4817,0.46155 -1.9847,-0.31596 -4.711,-7.2827 z"
       id="path5" />
    <path
       style="fill:#000000;stroke-width:0.798935"
       d="m 1331.4239,303.79494 9e-4,-53.72836 5.7922,0.0109 c 9.8106,0.0184 36.3301,1.5233 41.9814,2.38232 20.2786,3.08247 31.8745,9.23226 36.9388,19.59016 2.7187,5.56046 3.0764,14.24743 0.8489,20.61706 -5.2135,14.90839 -21.2406,28.91781 -39.7541,34.74932 -4.3218,1.36131 -9.206,2.68661 -10.8538,2.94511 l -2.996,0.46999 -0.01,8.9518 c 0,4.9235 -0.2319,10.82489 -0.5069,13.1142 l -0.5001,4.16238 -15.4726,0.23176 -15.4725,0.23176 z m 42.0652,4.53565 c 4.2268,-2.04616 11.0115,-9.33129 12.2855,-13.19181 0.5218,-1.58101 0.8095,-5.33811 0.6394,-8.34912 -0.264,-4.67184 -0.6699,-5.92046 -2.7685,-8.5156 -3.6467,-4.50948 -9.7698,-7.43518 -15.561,-7.43518 h -4.7023 v 19.5739 19.5739 h 3.3429 c 1.8386,0 4.8824,-0.74524 6.764,-1.65609 z"
       id="path6" />
    <path
       style="fill:#000000;stroke-width:0.282466"
       d="m 923.94658,233.42169 c -6.81338,-0.72482 -12.22307,-1.91465 -16.51815,-3.63308 -5.4686,-2.18795 -8.17624,-4.40976 -10.12926,-8.31178 -1.34479,-2.68679 -1.85694,-4.9023 -1.67042,-7.22596 0.55578,-6.92388 9.79027,-13.2765 22.38605,-15.39988 4.92501,-0.83025 13.08664,-0.70557 17.61312,0.26906 3.72032,0.80106 7.46065,2.03033 7.60776,2.50033 0.17885,0.57137 -3.46754,3.9026 -5.19918,4.74981 l -1.56526,0.76581 -7.27274,-0.19132 c -8.01446,-0.21083 -10.57482,6e-4 -12.9004,1.06529 -2.45482,1.12385 -3.98997,3.87509 -4.27803,7.66693 -0.41807,5.50324 2.60615,8.73572 9.25643,9.89383 5.9607,1.03803 10.4379,-0.29335 10.4379,-3.10393 0,-2.00798 -1.38438,-2.704 -5.38348,-2.70661 -1.4962,-9.7e-4 -2.59428,-0.13614 -2.88118,-0.35465 -0.42797,-0.32595 -0.42186,-0.46994 0.0795,-1.87377 0.77776,-2.17783 1.26078,-2.79067 2.46257,-3.12442 0.64385,-0.1788 4.93977,-0.29552 10.91184,-0.29648 l 9.84991,-0.002 -0.17769,4.44884 c -0.0977,2.44686 -0.25376,6.30551 -0.34671,8.57478 l -0.16901,4.12594 -3.28896,0.74165 c -1.80892,0.40791 -4.11516,0.88002 -5.12498,1.04913 -1.89825,0.3179 -11.70507,0.58423 -13.69961,0.37205 z"
       id="path7" />
    <path
       style="fill:#000000;stroke-width:0.282466"
       d="m 966.3165,233.45331 c -0.31071,-0.0556 -3.17068,-0.31798 -6.35549,-0.583 -3.1848,-0.26503 -5.99506,-0.55894 -6.24502,-0.65314 -0.365,-0.13756 1.39387,-3.39607 8.9357,-16.55431 l 9.39015,-16.38303 h 10.68573 10.68574 l 9.40199,16.61846 c 5.1711,9.14015 9.4019,16.65302 9.4019,16.69526 0,0.0422 -2.5104,0.15061 -5.5787,0.24083 -3.0683,0.0902 -6.68792,0.31583 -8.04366,0.50136 -3.20942,0.4392 -3.47059,0.27358 -4.90295,-3.10909 l -1.08358,-2.55898 h -10.05117 -10.05118 l -0.76901,2.36137 c -0.42296,1.29875 -1.00803,2.57768 -1.30017,2.84206 -0.51513,0.46618 -2.89219,0.80207 -4.12028,0.58221 z m 20.76126,-12.94064 c 1.25839,-0.32705 1.27194,-0.34353 1.35627,-1.64952 0.20303,-3.14459 -4.04272,-12.09797 -5.73693,-12.09797 -1.69635,0 -6.30229,9.53918 -6.01977,12.46726 0.0641,0.66385 0.29627,1.04059 0.79658,1.29236 0.90645,0.45615 7.83571,0.4474 9.60385,-0.0121 z"
       id="path8" />
    <path
       style="fill:#000000;stroke-width:0.282466"
       d="m 1017.9801,222.93636 c 0.096,-5.39863 0.2512,-12.89811 0.3448,-16.6655 l 0.1701,-6.8498 1.0275,-0.004 c 0.5651,-0.002 4.0781,-0.19177 7.8067,-0.42073 3.7285,-0.22897 7.1138,-0.41764 7.5229,-0.41927 l 0.7438,-0.003 0.1792,10.94556 c 0.098,6.02006 0.2493,11.84481 0.3349,12.94389 l 0.1558,1.99833 7.6777,0.3341 c 6.8437,0.2978 10.1829,0.62242 10.59,1.02952 0.074,0.0737 -0.3513,1.66244 -0.9444,3.53051 l -1.0784,3.39649 h -17.3527 -17.3526 z"
       id="path9" />
    <path
       style="fill:#000000;stroke-width:0.282466"
       d="m 1061.9313,215.94533 v -16.80674 h 17.2276 17.2276 l 0.8171,1.80207 c 1.1518,2.54017 1.516,3.75371 1.3159,4.38414 -0.329,1.03654 -1.6783,1.2321 -9.754,1.41365 -5.4842,0.1233 -7.9546,0.28038 -8.4033,0.53432 -0.544,0.30785 -0.6349,0.59233 -0.6312,1.97393 0,0.88783 0.1213,1.79924 0.2643,2.02535 0.3395,0.53671 3.2187,0.82014 8.5584,0.84252 l 4.1664,0.0175 v 3.24836 c 0,2.40749 -0.091,3.24977 -0.3531,3.25379 -3.3155,0.0509 -10.6328,0.64998 -11.184,0.91567 -0.8856,0.42675 -1.1092,1.16331 -1.1457,3.77325 l -0.028,2.01092 1.0592,0.17509 c 0.5826,0.0963 2.6482,0.17774 4.5901,0.18098 4.3493,0.007 11.3442,0.48669 12.8131,0.87818 1.015,0.27054 1.0791,0.34856 0.9239,1.12445 -0.092,0.45855 -0.606,1.7845 -1.1429,2.94654 l -0.9762,2.1128 h -17.6725 -17.6725 z"
       id="path10" />
    <path
       style="fill:#000000;stroke-width:0.282466"
       d="m 1136.6491,228.90043 c -3.6468,-5.18706 -5.89,-8.1311 -7.4495,-9.77736 l -1.0035,-1.05925 h 1.3146 c 1.6738,0 3.8901,-0.47425 5.4585,-1.168 5.0907,-2.25186 5.0803,-7.01357 -0.02,-9.32919 -1.1564,-0.52499 -2.0342,-0.66081 -4.8437,-0.74956 l -3.4314,-0.10839 -0.1412,11.53874 c -0.078,6.34631 -0.2544,11.98363 -0.3929,12.52738 -0.1585,0.62232 -0.5093,1.10952 -0.9469,1.31492 -0.7463,0.35025 -5.8437,0.813 -12.3469,1.12087 l -4.0252,0.19055 v -17.13127 -17.13128 h 13.3762 c 17.901,0 23.4439,0.49847 27.7024,2.49124 3.561,1.66641 5.6833,4.56927 5.6406,7.71515 -0.038,2.80763 -1.5169,4.68626 -5.2205,6.63247 -1.2759,0.67046 -2.131,1.32796 -2.3976,1.8436 -0.3867,0.74766 -0.3592,0.91072 0.4088,2.42877 0.4529,0.89501 2.4256,3.8347 4.3839,6.53264 1.9583,2.69794 3.5605,5.01526 3.5605,5.14962 0,0.13436 -0.286,0.31013 -0.6355,0.39061 -0.5934,0.13663 -7.232,0.72159 -13.0815,1.15268 l -2.5596,0.18863 z"
       id="path11" />
    <path
       style="fill:#000000;stroke-width:0.282466"
       d="m 1165.0314,216.54048 v -17.40189 h 8.3327 8.3328 v 16.76673 16.76672 l -6.5673,0.17184 c -5.9808,0.1565 -8.2104,0.36706 -9.6039,0.90696 -0.4675,0.18114 -0.4943,-0.75249 -0.4943,-17.21036 z"
       id="path12" />
    <path
       style="fill:#000000;stroke-width:0.282466"
       d="m 1201.6108,233.453 c -0.3108,-0.0536 -3.3283,-0.32028 -6.7057,-0.59257 -3.3773,-0.27229 -6.2727,-0.57672 -6.4342,-0.67651 -0.1737,-0.10735 3.5406,-6.89112 9.0962,-16.61338 l 9.3898,-16.43195 h 10.6116 10.6116 l 3.794,6.70857 c 11.6926,20.67472 14.5754,26.08417 14.0534,26.37068 -0.3183,0.17474 -6.9885,0.79628 -13.6641,1.27325 l -2.5783,0.18422 -0.561,-1.52088 c -0.3086,-0.83647 -0.7792,-2.18819 -1.0459,-3.00381 l -0.4847,-1.48295 h -10.1086 -10.1086 l -0.8921,2.36373 c -0.4907,1.30005 -1.1206,2.5705 -1.3999,2.82321 -0.5026,0.45491 -2.4832,0.78655 -3.5735,0.59839 z m 20.9024,-13.13936 c 0.5825,-0.28727 0.8755,-0.66122 0.9371,-1.19597 0.2935,-2.54548 -4.4871,-12.35249 -6.0214,-12.35249 -1.3798,0 -6.3555,9.80682 -6.3555,12.52624 0,1.40796 0.6948,1.5757 6.2142,1.50013 3.1946,-0.0437 4.6073,-0.17293 5.2256,-0.47791 z"
       id="path13" />
  </g>
</svg>
