<svg
   viewBox="0 0 293.6752 122.43293"
   height="122.43293"
   width="293.6752"
   xml:space="preserve"
   id="svg2"
   version="1.1"
   xmlns="http://www.w3.org/2000/svg"
   xmlns:svg="http://www.w3.org/2000/svg"
   xmlns:rdf="http://www.w3.org/1999/02/22-rdf-syntax-ns#"
   xmlns:cc="http://creativecommons.org/ns#"
   xmlns:dc="http://purl.org/dc/elements/1.1/"><metadata
     id="metadata8"><rdf:RDF><cc:Work
         rdf:about=""><dc:format>image/svg+xml</dc:format><dc:type
           rdf:resource="http://purl.org/dc/dcmitype/StillImage" /></cc:Work></rdf:RDF></metadata><defs
     id="defs6"><clipPath
       id="clipPath18"
       clipPathUnits="userSpaceOnUse"><path
         id="path16"
         d="M 0,294.686 H 264.413 V 0 H 0 Z" /></clipPath></defs><g
     transform="matrix(1.3333333,0,0,-1.3333333,-91.941707,277.80505)"
     id="g10"
     style="fill:#000000"><g
       id="g12"
       style="fill:#000000"
       transform="translate(47.086982,-18.050008)"><g
         clip-path="url(#clipPath18)"
         id="g14"
         style="fill:#000000"><g
           transform="translate(37.5835,194.7168)"
           id="g20"
           style="fill:#000000"><path
             id="path22"
             style="fill:#000000;fill-opacity:1;fill-rule:nonzero;stroke:none"
             d="m 0,0 c 4.233,0 7.584,1.15 9.961,3.417 2.382,2.272 3.59,5.521 3.59,9.655 0,0.241 -0.027,1.136 -0.08,2.688 l -0.013,0.362 H 1.422 V 11.459 H 8.289 V 11.435 C 8.289,9.405 7.59,7.848 6.151,6.675 4.709,5.499 2.68,4.902 0.12,4.902 c -2.995,0 -5.464,0.97 -7.338,2.882 -1.877,1.915 -2.828,4.473 -2.828,7.604 0,3.075 0.951,5.592 2.826,7.481 1.875,1.887 4.331,2.844 7.3,2.844 2.852,0 5.214,-1.071 7.022,-3.183 l 0.229,-0.267 3.988,3.002 -0.249,0.302 C 8.266,28.97 4.542,30.695 0,30.695 c -4.473,0 -8.234,-1.453 -11.181,-4.318 -2.95,-2.869 -4.446,-6.58 -4.446,-11.029 0,-4.448 1.434,-8.157 4.26,-11.024 C -8.539,1.455 -4.714,0 0,0" /></g><g
           transform="translate(71.8437,207.4448)"
           id="g24"
           style="fill:#000000"><path
             id="path26"
             style="fill:#000000;fill-opacity:1;fill-rule:nonzero;stroke:none"
             d="M 0,0 2.678,5.98 C 2.914,6.505 3.15,7.173 3.386,7.974 3.646,7.129 3.888,6.46 4.11,5.98 L 6.788,0 Z M -2.053,-4.623 H 8.759 l 3.234,-7.346 h 5.744 L 3.334,18.959 -11.069,-11.969 h 5.702 z" /></g><g
           transform="translate(117.6186,200.3779)"
           id="g28"
           style="fill:#000000"><path
             id="path30"
             style="fill:#000000;fill-opacity:1;fill-rule:nonzero;stroke:none"
             d="m 0,0 h -10.381 v 24.395 h -5.381 V -4.902 H 0 Z" /></g><g
           transform="translate(147.3037,200.3779)"
           id="g32"
           style="fill:#000000"><path
             id="path34"
             style="fill:#000000;fill-opacity:1;fill-rule:nonzero;stroke:none"
             d="M 0,0 H -11.3 V 8.473 H 0 v 4.822 h -11.3 v 6.397 H 0 v 4.703 H -16.68 V -4.902 H 0 Z" /></g><g
           transform="translate(167.9013,220.0302)"
           id="g36"
           style="fill:#000000"><path
             id="path38"
             style="fill:#000000;fill-opacity:1;fill-rule:nonzero;stroke:none"
             d="m 0,0 h 0.464 c 2.13,0 3.622,-0.25 4.427,-0.738 0.879,-0.571 1.306,-1.604 1.306,-3.159 0,-1.487 -0.43,-2.436 -1.323,-2.905 -0.765,-0.42 -2.248,-0.633 -4.41,-0.633 H 0 Z m -0.279,-11.839 9.458,-12.716 h 6.173 l -9.896,13.073 c 4.143,0.726 6.242,3.409 6.242,7.984 0,2.851 -0.975,5.059 -2.898,6.563 C 7.36,4.194 4.96,4.743 1.462,4.743 h -6.843 v -29.298 h 5.102 z" /></g><path
           id="path40"
           style="fill:#000000;fill-opacity:1;fill-rule:nonzero;stroke:none"
           d="m 200.801,224.773 h -5.382 v -29.297 h 5.382 z" /><g
           transform="translate(224.1816,207.4448)"
           id="g42"
           style="fill:#000000"><path
             id="path44"
             style="fill:#000000;fill-opacity:1;fill-rule:nonzero;stroke:none"
             d="M 0,0 2.678,5.98 C 2.913,6.504 3.149,7.172 3.386,7.975 3.646,7.129 3.888,6.46 4.11,5.98 L 6.787,0 Z M -2.054,-4.623 H 8.758 l 3.234,-7.346 h 5.744 L 3.334,18.959 -11.068,-11.969 h 5.701 z" /></g><g
           transform="translate(33.0063,153.4003)"
           id="g46"
           style="fill:#000000"><path
             id="path48"
             style="fill:#000000;fill-opacity:1;fill-rule:nonzero;stroke:none"
             d="m 0,0 c -0.88,-0.545 -2.378,-0.822 -4.454,-0.822 h -1.381 v 7.435 h 1.381 c 2.127,0 3.605,-0.25 4.4,-0.746 C 0.805,5.355 1.24,4.309 1.24,2.755 1.24,1.418 0.834,0.517 0,0 m 2.358,-9.303 c 0,-1.479 -0.535,-2.567 -1.634,-3.325 -0.784,-0.538 -2.579,-0.811 -5.337,-0.811 h -1.222 v 8.353 h 2.619 c 1.608,0 2.813,-0.201 3.578,-0.595 1.343,-0.709 1.996,-1.894 1.996,-3.622 m -0.711,-8.433 c 1.559,0.306 2.847,0.959 3.827,1.939 1.609,1.609 2.425,3.7 2.425,6.215 0,1.991 -0.51,3.667 -1.516,4.98 -0.776,1.01 -1.774,1.724 -2.978,2.129 2.136,1.052 3.217,3.02 3.217,5.867 0,2.748 -0.99,4.877 -2.942,6.331 -1.38,1.016 -3.759,1.51 -7.272,1.51 h -7.545 v -29.297 h 7.601 c 2.356,0 4.1,0.11 5.183,0.326" /></g><g
           transform="translate(56.0132,147.3076)"
           id="g50"
           style="fill:#000000"><path
             id="path52"
             style="fill:#000000;fill-opacity:1;fill-rule:nonzero;stroke:none"
             d="M 0,0 2.678,5.98 C 2.914,6.505 3.15,7.173 3.386,7.974 3.646,7.129 3.888,6.46 4.11,5.98 L 6.788,0 Z m -5.367,-11.97 3.314,7.347 H 8.759 l 3.234,-7.347 h 5.744 L 3.334,18.959 -11.069,-11.97 Z" /></g><g
           transform="translate(91.9824,154.2441)"
           id="g54"
           style="fill:#000000"><path
             id="path56"
             style="fill:#000000;fill-opacity:1;fill-rule:nonzero;stroke:none"
             d="M 0,0 V 5.231 L -6.548,0.6 v 9.792 h -5.382 v -12.96 l -2.435,-1.757 v -5.138 l 2.435,1.677 v -11.12 H 3.833 v 4.902 H -6.548 v 9.412 z" /></g><g
           transform="translate(106.3003,135.3378)"
           id="g58"
           style="fill:#000000"><path
             id="path60"
             style="fill:#000000;fill-opacity:1;fill-rule:nonzero;stroke:none"
             d="m 0,0 h 5.381 v 24.595 h 7.546 v 4.703 H -7.586 V 24.595 H 0 Z" /></g><g
           transform="translate(133.997,135.3378)"
           id="g62"
           style="fill:#000000"><path
             id="path64"
             style="fill:#000000;fill-opacity:1;fill-rule:nonzero;stroke:none"
             d="M 0,0 H 5.381 V 13.323 L 15.51,29.298 H 9.991 L 3.728,19.547 C 3.392,19.039 3.081,18.469 2.801,17.845 2.456,18.523 2.169,19.05 1.942,19.418 l -6.109,9.88 H -9.922 L 0,13.325 Z" /></g><g
           transform="translate(167.874,134.5791)"
           id="g66"
           style="fill:#000000"><path
             id="path68"
             style="fill:#000000;fill-opacity:1;fill-rule:nonzero;stroke:none"
             d="m 0,0 c 3.471,0 6.525,0.924 9.081,2.744 l 0.157,0.112 v 6.24 L 8.619,8.565 C 5.908,6.241 2.888,5.062 -0.359,5.062 c -2.756,0 -5.083,0.962 -6.917,2.861 -1.838,1.9 -2.77,4.385 -2.77,7.385 0,3.078 0.951,5.609 2.827,7.523 1.875,1.913 4.344,2.882 7.339,2.882 3.114,0 5.987,-1.098 8.541,-3.265 l 0.578,-0.49 0.289,5.636 -0.17,0.119 c -2.873,2.006 -6.048,3.022 -9.438,3.022 -4.394,0 -8.122,-1.473 -11.082,-4.379 -2.963,-2.908 -4.465,-6.611 -4.465,-11.008 0,-4.423 1.488,-8.127 4.425,-11.008 C -8.269,1.46 -4.5,0 0,0" /></g><g
           transform="translate(191.6338,149.1909)"
           id="g70"
           style="fill:#000000"><path
             id="path72"
             style="fill:#000000;fill-opacity:1;fill-rule:nonzero;stroke:none"
             d="m 0,0 10.741,-13.853 h 6.951 L 4.747,2.36 16.392,15.445 H 9.716 L 0,4.255 v 11.19 H -5.381 V -13.853 H 0 Z" /></g><g
           transform="translate(231.1767,147.3076)"
           id="g74"
           style="fill:#000000"><path
             id="path76"
             style="fill:#000000;fill-opacity:1;fill-rule:nonzero;stroke:none"
             d="m 0,0 h -6.787 l 2.678,5.98 c 0.235,0.524 0.471,1.192 0.708,1.995 0.259,-0.846 0.502,-1.515 0.724,-1.995 z m -17.855,-11.97 h 5.701 l 3.313,7.347 H 1.971 l 3.234,-7.347 h 5.744 L -3.453,18.959 Z" /></g><g
           transform="translate(28.0737,73.5058)"
           id="g78"
           style="fill:#000000" /><g
           transform="translate(41.7944,70.9863)"
           id="g82"
           style="fill:#000000" /><g
           transform="translate(54.1577,71.1806)"
           id="g86"
           style="fill:#000000" /><g
           transform="translate(70.6059,73.1181)"
           id="g90"
           style="fill:#000000" /><g
           transform="translate(77.081,69.3291)"
           id="g94"
           style="fill:#000000" /><g
           transform="translate(98.3652,77.4541)"
           id="g98"
           style="fill:#000000" /><g
           transform="translate(105.7524,69.3291)"
           id="g102"
           style="fill:#000000" /><g
           transform="translate(122.6435,73.1181)"
           id="g106"
           style="fill:#000000" /><g
           transform="translate(128.0459,77.3369)"
           id="g110"
           style="fill:#000000" /><g
           transform="translate(140.5205,77.3242)"
           id="g114"
           style="fill:#000000" /><g
           transform="translate(154.7265,73.2324)"
           id="g118"
           style="fill:#000000" /><g
           transform="translate(166.3144,73.5068)"
           id="g122"
           style="fill:#000000" /><g
           transform="translate(187.0488,73.5068)"
           id="g126"
           style="fill:#000000" /><g
           transform="translate(207.2461,73.4824)"
           id="g132"
           style="fill:#000000" /><g
           transform="translate(217.8252,75.1875)"
           id="g136"
           style="fill:#000000" /><g
           transform="translate(223.5234,77.3369)"
           id="g140"
           style="fill:#000000" /><g
           transform="translate(237.8047,73.4824)"
           id="g144"
           style="fill:#000000" /></g></g></g></svg>
