<svg id="GALERIAWARMINSKA" width="500" height="172.94669" viewBox="0 0 500 172.94669" version="1.1" xml:space="preserve" xmlns:xlink="http://www.w3.org/1999/xlink" xmlns="http://www.w3.org/2000/svg" xmlns:svg="http://www.w3.org/2000/svg">
	<path id="GALERIAWARMINSKA" style="fill:#000000;stroke:#000000;stroke-width:0" d="m 359.54202,172.55006 c -6.62896,-1.116 -12.52289,-4.80476 -16.18754,-10.13115 -1.30832,-1.90155 -3.54993,-6.89803 -3.54993,-7.91262 0,-0.46047 6.57264,-2.96668 7.78028,-2.96668 0.24189,0 0.82024,0.9941 1.28519,2.2091 2.38441,6.23094 6.56589,9.86764 12.54245,10.90841 6.83158,1.18967 13.12949,-1.34278 15.5381,-6.248 0.94107,-1.91651 1.13302,-2.8121 1.13219,-5.28281 0,-3.835 -1.13628,-6.22776 -3.96576,-8.36047 -2.35054,-1.77174 -4.2609,-2.5565 -12.02463,-4.93973 -8.29536,-2.54643 -11.64287,-4.27698 -14.85051,-7.67723 -3.34429,-3.54512 -4.32031,-5.94386 -4.5697,-11.23066 -0.14812,-3.1399 -0.0282,-4.34998 0.65297,-6.59276 2.1209,-6.98262 7.55825,-11.74786 15.20561,-13.32604 12.27647,-2.533479 23.40652,3.48723 26.64895,14.41553 0.35157,1.185 0.63924,2.28593 0.63924,2.44652 0,0.30362 -6.96626,2.73744 -7.83534,2.73744 -0.27216,0 -0.49485,-0.36871 -0.49485,-0.81935 0,-1.56066 -2.63817,-6.49886 -4.3841,-8.20629 -3.06305,-2.99551 -8.44035,-4.29008 -12.98438,-3.12595 -6.61628,1.69501 -10.10849,6.89867 -8.8141,13.13366 1.01359,4.8825 4.00976,6.9639 14.9185,10.36369 9.49161,2.95815 12.32939,4.36698 15.86349,7.87564 3.57865,3.5529 4.56947,5.88205 4.82787,11.34909 0.31388,6.64119 -1.34823,11.33161 -5.47956,15.46293 -4.96876,4.96875 -13.62839,7.30932 -21.89444,5.91773 z M 15.910112,171.27423 c -0.100196,-0.27272 -0.996271,-4.06593 -1.99128,-8.42936 -0.99501,-4.36343 -3.684816,-16.1447 -5.9773435,-26.1806 -2.2925316,-10.03589 -4.9678434,-21.80076 -5.9451372,-26.14414 -0.9772979,-4.34339 -1.87336045,-8.05314 -1.9912485,-8.24389 -0.11916931,-0.19282 1.8630746,-0.29707 4.4643667,-0.23478 l 4.6787104,0.11203 3.0589331,14.08199 c 1.682416,7.74509 4.097707,18.94622 5.367315,24.8914 1.269612,5.94517 2.405128,10.80941 2.523373,10.80941 0.118245,0 0.782645,-2.36518 1.476443,-5.25596 0.693798,-2.89077 3.445719,-14.13652 6.115382,-24.99056 l 4.85393,-19.73462 h 3.671162 3.671157 l 0.422321,1.48754 c 0.367714,1.29517 3.78644,15.33116 6.352622,26.08142 0.468712,1.96355 1.715884,7.14016 2.77149,11.5036 1.055605,4.36343 2.044089,8.6029 2.196631,9.42104 0.152538,0.81815 0.435982,1.48754 0.629873,1.48754 0.193892,0 0.35253,-0.14196 0.35253,-0.31546 0,-0.1735 1.346087,-6.55502 2.991304,-14.18115 1.645216,-7.62614 3.886033,-18.06055 4.979589,-23.18758 1.093559,-5.12704 2.164159,-9.99127 2.37911,-10.80941 l 0.39082,-1.48754 h 4.348141 c 2.391478,0 4.348145,0.15147 4.348145,0.33659 0,0.18512 -0.435451,2.28255 -0.967667,4.66094 -0.958487,4.28334 -10.797298,47.55717 -11.941136,52.52045 -0.326821,1.41811 -1.087677,4.72044 -1.69079,7.3385 l -1.096571,4.7601 -3.773837,0.11257 -3.773842,0.11257 -5.676762,-23.31809 c -5.910331,-24.27753 -6.839116,-27.95318 -7.018112,-27.77419 -0.05905,0.059 -1.893289,7.51198 -4.076084,16.56205 -6.293835,26.09488 -7.588636,31.43014 -8.012552,33.0159 l -0.397659,1.48753 H 19.85786 c -2.650853,0 -3.819507,-0.14678 -3.947748,-0.49584 z m 59.311744,-0.0552 c 0,-0.31739 0.787885,-3.13467 1.750859,-6.26064 1.442099,-4.68127 9.632162,-31.7463 17.414697,-57.54891 l 1.645114,-5.45429 h 5.038284 c 4.45549,0 5.06209,0.0803 5.24416,0.69418 0.11326,0.3818 4.66344,15.59928 10.11158,33.81661 5.44811,18.21733 10.02793,33.6133 10.17739,34.21327 l 0.27177,1.09086 h -4.55729 -4.55725 l -2.8945,-10.31357 -2.89451,-10.31356 H 101.00123 90.030291 l -1.072591,3.66925 c -0.589928,2.01808 -1.923897,6.61456 -2.964381,10.2144 l -1.891786,6.54514 -4.439841,0.11216 c -3.672102,0.0928 -4.439836,0.0124 -4.439836,-0.4649 z M 109.1681,142.67801 c 0.0989,-0.2576 -1.41569,-6.08943 -3.36563,-12.95961 -1.94998,-6.87018 -3.7589,-13.33913 -4.01979,-14.37544 -0.26093,-1.03632 -0.59471,-1.88421 -0.74174,-1.88421 -0.23251,0 -8.403367,28.31723 -8.375782,29.02741 0.02075,0.53419 1.526475,0.64508 8.861012,0.65258 5.37644,0.006 7.51246,-0.12328 7.64193,-0.46073 z m 25.90134,28.21247 c -0.0814,-0.498 -0.094,-16.21217 -0.0282,-34.92039 l 0.11963,-34.01494 13.76401,0.007 c 10.42123,0.005 14.41619,0.1451 16.44943,0.57594 6.90636,1.4635 11.57147,6.03145 13.37955,13.10095 0.92747,3.62638 0.99824,6.90533 0.22754,10.54097 -1.43038,6.74744 -4.61723,10.16269 -12.41337,13.30294 -0.86083,0.34674 -0.78998,0.54505 3.10216,8.68503 2.19068,4.58161 4.39846,9.22271 4.90612,10.31357 0.50767,1.09086 2.10163,4.46012 3.54216,7.48726 1.44053,3.02713 2.61913,5.57081 2.61913,5.65263 0,0.0818 -2.2313,0.14875 -4.95845,0.14875 -2.72714,0 -4.95844,-0.16279 -4.95844,-0.36177 0,-0.19896 -1.07103,-2.62448 -2.38006,-5.39003 -1.30903,-2.76555 -2.38005,-5.0859 -2.38005,-5.15634 0,-0.0704 -0.65666,-1.52738 -1.45929,-3.23766 -0.80259,-1.71029 -2.84218,-6.14418 -4.53238,-9.8531 l -3.07312,-6.74348 -6.78161,-0.10858 -6.78157,-0.10857 0.0278,15.38059 0.0278,15.38058 -4.13527,0.1121 c -4.03752,0.10944 -4.13875,0.0907 -4.28314,-0.79335 z m 29.50117,-39.26279 c 4.35169,-2.03555 6.00975,-4.88594 5.99333,-10.30318 -0.009,-2.99728 -0.15903,-3.73458 -1.16603,-5.73457 -2.45895,-4.8836 -4.8655,-5.68605 -17.07935,-5.69508 -6.87431,-0.005 -8.42582,0.0952 -8.60258,0.55581 -0.29477,0.76809 -0.30655,21.6618 -0.0127,22.13757 0.14328,0.23186 3.82221,0.32682 9.41197,0.24294 8.99053,-0.13492 9.22298,-0.15934 11.4552,-1.20349 z m 24.36493,39.87793 c -0.14542,-0.14544 -0.26443,-15.8538 -0.26443,-34.90746 v -34.64301 h 5.69163 5.69162 l 0.66899,1.68587 c 0.36796,0.92723 3.98524,10.16482 8.03848,20.52797 4.05319,10.36315 7.48463,18.96848 7.62537,19.12296 0.14074,0.15447 3.80694,-9.03849 8.14708,-20.4288 4.34019,-11.39031 7.95403,-20.78462 8.03082,-20.87624 0.0768,-0.0916 1.43315,-0.14622 3.01418,-0.12135 1.58103,0.0249 4.07953,0.0552 5.55219,0.0674 l 2.67756,0.0222 v 34.90746 34.90746 h -4.16509 -4.1651 l -0.0617,-26.87477 c -0.0337,-14.78113 -0.0202,-27.31971 0.0301,-27.86351 0.0505,-0.5438 0.004,-0.90081 -0.10329,-0.79335 -0.10731,0.10746 -3.98525,10.1916 -8.61763,22.40921 -4.63241,12.21762 -8.57323,22.40908 -8.75736,22.64771 -0.19807,0.2567 -0.92232,0.33769 -1.77362,0.19834 l -1.43886,-0.23553 -8.5801,-22.13845 -8.58005,-22.13845 -0.10191,27.3944 -0.10187,27.3944 h -4.09627 c -2.25296,0 -4.21527,-0.119 -4.36073,-0.26445 z m 70.74052,-34.64301 v -34.90746 h 4.36343 4.36344 v 34.90746 34.90746 h -4.36344 -4.36343 z m 24.98839,34.80829 c 0,-0.0545 -0.0459,-15.76753 -0.0992,-34.91774 l -0.097,-34.81858 5.47492,0.10945 5.47492,0.10946 8.03292,15.27201 c 4.41809,8.39961 10.0084,19.0206 12.42289,23.60221 2.41452,4.5816 4.99343,9.49046 5.73097,10.90858 l 1.34092,2.57839 0.10199,-26.27976 0.10202,-26.27977 h 4.36058 4.36062 v 34.90746 34.90746 h -4.27212 -4.27212 l -1.73542,-3.27257 c -0.95448,-1.79992 -2.22352,-4.1651 -2.82012,-5.25596 -0.59664,-1.09085 -3.5351,-6.62448 -6.53,-12.29694 -2.99486,-5.67246 -5.9376,-11.20609 -6.53943,-12.29695 -0.6018,-1.09086 -2.08156,-3.85767 -3.28833,-6.14847 -6.49683,-12.33306 -8.72055,-16.48923 -8.95666,-16.73998 -0.14395,-0.15287 -0.20583,11.6284 -0.13752,26.18059 0.0683,14.5522 0.0127,27.21718 -0.12349,28.14441 l -0.24764,1.68587 h -4.14078 c -2.27744,0 -4.14177,-0.0446 -4.14296,-0.0992 z m 110.6747,-34.80829 v -34.90746 h 4.36345 4.36343 l 0.0131,16.56121 c 0.0127,15.70847 0.0482,16.51858 0.69418,15.73319 0.37454,-0.45542 6.37149,-7.90796 13.32656,-16.56121 l 12.64574,-15.73319 h 5.31026 5.31026 l -10.28231,12.83725 c -5.65529,7.06048 -10.50619,13.19571 -10.77982,13.63383 -0.53754,0.86073 -1.22359,-0.44034 16.4315,31.16104 3.63081,6.49884 6.60143,11.89858 6.60143,11.99943 0,0.10086 -2.21329,0.18337 -4.91842,0.18337 h -4.91842 l -4.0898,-7.43767 c -2.24939,-4.09072 -6.54384,-11.90027 -9.54319,-17.35456 -2.99934,-5.45429 -5.59491,-10.15058 -5.76794,-10.43619 -0.21901,-0.36152 -1.78699,1.26555 -5.16067,5.35512 l -4.84615,5.87442 -0.0131,11.99944 -0.0131,11.99944 h -4.36343 -4.36346 z m 52.86046,34.41162 c 0.3749,-0.99147 20.92123,-68.92514 20.92123,-69.17311 0,-0.0803 2.27629,-0.14597 5.05837,-0.14597 h 5.05837 l 10.31281,34.34871 c 5.67207,18.89179 10.37054,34.60015 10.44106,34.90746 0.10461,0.45565 -0.71536,0.55875 -4.44383,0.55875 h -4.57213 l -0.73837,-2.47922 c -0.40612,-1.36357 -1.70868,-6.00325 -2.89466,-10.3104 l -2.15625,-7.83117 -10.99097,-0.003 -10.99093,-0.003 -0.78721,2.67756 c -0.43297,1.47266 -1.43259,4.90886 -2.22146,7.63601 -0.78887,2.72715 -1.78849,6.16335 -2.22146,7.63601 l -0.78721,2.67756 h -4.58739 c -3.50546,0 -4.54321,-0.11695 -4.39997,-0.49585 z m 34.18254,-28.41725 c 0.18671,-0.3021 -5.96517,-22.87668 -7.7952,-28.60488 -0.43289,-1.35492 -0.4503,-1.36448 -0.72393,-0.39668 -3.126,11.05792 -7.97675,28.12685 -8.13645,28.63066 -0.19235,0.60691 0.51592,0.66871 8.10543,0.70721 4.89871,0.0248 8.41234,-0.11336 8.55015,-0.33631 z M 305.4188,88.872823 l 5.23009,-7.925544 3.91614,-0.008 c 3.07308,-0.0063 3.83395,0.09878 3.53418,0.487876 -0.21008,0.272714 -2.94012,3.842795 -6.06672,7.933513 l -5.68472,7.43767 h -3.07955 -3.07955 z M 22.765314,70.572904 C 14.516007,69.692011 8.4920109,65.307979 4.4418847,57.23783 0.77552234,49.932357 -0.59150537,37.461842 1.0818948,26.586788 3.2032688,12.800404 10.302613,3.220567 20.334264,0.60762456 23.729165,-0.27660521 30.265492,-0.18156171 33.561458,0.80005194 41.611862,3.1975598 47.032753,10.401666 48.816215,21.072956 l 0.23866,1.427993 -3.676057,0.685614 c -2.021832,0.37708 -3.988439,0.772883 -4.37024,0.879589 -0.559888,0.156489 -0.695317,-0.06053 -0.700045,-1.121918 C 40.290603,18.924323 37.83732,12.989539 35.213648,10.619203 33.118641,8.7265049 31.858192,8.1065801 29.048979,7.587292 21.160785,6.1290725 14.612054,10.730153 11.505116,19.913473 c -2.8243946,8.348203 -2.8959708,23.208002 -0.151515,31.4551 2.80921,8.441679 9.26381,12.816298 17.242782,11.686335 4.331108,-0.613359 7.155431,-2.372457 9.663698,-6.018922 1.845291,-2.682643 2.329501,-4.362017 2.579993,-8.948135 l 0.221068,-4.04735 h -7.71187 -7.711875 V 40.272082 36.503664 H 37.542019 49.44664 l -0.103521,16.523866 -0.10352,16.523871 -3.570081,-0.03205 -3.570082,-0.03205 -0.11736,-2.846838 -0.117361,-2.846842 -2.064355,1.949716 c -4.049006,3.824152 -10.178066,5.56179 -17.035046,4.829574 z m 32.0688,-1.109299 C 54.731026,69.271768 61.560008,46.404197 66.453895,30.553529 67.093821,28.480898 69.358494,21.023253 71.4865,13.98095 l 3.869107,-12.8041355 4.941096,0.1105138 4.941095,0.1105536 10.183926,33.9157551 10.183916,33.91577 -4.38247,0.198338 c -2.729827,0.123545 -4.45466,0.04875 -4.573877,-0.198338 -0.105262,-0.218171 -1.444042,-4.770025 -2.975068,-10.11523 L 90.890546,49.395623 H 80.187331 69.484113 l -2.482329,8.528527 c -1.365282,4.69069 -2.669481,9.197918 -2.898216,10.016061 l -0.415886,1.487534 -2.860607,0.04139 c -1.573335,0.02277 -3.537074,0.08352 -4.363861,0.135029 -0.826787,0.0515 -1.559884,-0.01174 -1.6291,-0.140558 z M 88.162044,41.082792 C 88.26182,40.822775 86.83823,35.268127 84.998504,28.739126 80.007125,11.025201 80.314982,11.989718 79.959211,12.951458 79.789628,13.409856 77.92321,19.90193 75.811614,27.378263 72.728773,38.29337 72.077539,41.040507 72.506242,41.321428 c 0.846177,0.554482 15.436797,0.332081 15.655802,-0.238636 z m 24.210326,28.344953 c -0.0337,-0.109086 -0.0139,-15.505061 0.0443,-34.213277 l 0.10571,-34.014924 h 4.15609 4.15609 l 0.10163,30.246505 0.10167,30.24652 h 15.1728 c 13.20478,0 15.17797,0.07718 15.21256,0.595014 0.0218,0.327257 0.0493,2.074265 0.061,3.882237 l 0.021,3.287228 -19.53584,0.08452 c -10.74472,0.04648 -19.56345,-0.0047 -19.59721,-0.113822 z m 96.00028,0.132296 c -0.0365,-0.03634 -0.0194,-15.432299 0.0373,-34.213277 l 0.10358,-34.14722 h 13.42846 c 7.38566,0 14.3067,0.1665245 15.38015,0.3700984 7.43739,1.4104994 12.68676,6.5009196 14.23415,13.8032036 0.73778,3.481701 0.72699,5.789362 -0.0446,9.525016 -0.77582,3.755813 -1.69896,5.604892 -4.05664,8.125461 -2.03205,2.172438 -4.1841,3.567836 -6.96233,4.514483 -1.01232,0.344925 -1.84054,0.704658 -1.84054,0.799408 0,0.163423 3.55509,7.745164 8.53333,18.198572 4.80866,10.097312 6.06132,12.842073 5.92368,12.979732 -0.0784,0.07842 -2.22056,0.09388 -4.76027,0.03435 l -4.61766,-0.108245 -1.2821,-2.684495 c -0.70513,-1.476486 -3.83478,-8.262758 -6.95476,-15.080622 l -5.67262,-12.396114 h -6.49338 -6.49338 v 15.172844 15.172845 h -4.19818 c -2.30897,0 -4.22789,-0.02971 -4.26426,-0.06604 z m 27.6406,-38.743853 c 2.82647,-0.889212 4.76621,-2.411443 6.04228,-4.741746 1.0237,-1.869454 1.13009,-2.42468 1.11811,-5.834465 -0.0143,-4.096628 -0.4895,-5.662347 -2.41108,-7.946009 -1.61169,-1.915388 -3.87639,-2.7392836 -8.74562,-3.181577 -4.32218,-0.3926296 -13.73292,-0.4504649 -14.67177,-0.090204 -0.73238,0.2810448 -0.7463,22.158169 -0.0143,22.469373 0.27272,0.115936 4.15518,0.147512 8.6277,0.07017 5.84636,-0.101101 8.67228,-0.310641 10.05466,-0.74554 z m 25.24725,38.809895 c 0,-0.109086 -0.004,-15.505061 -0.005,-34.213277 l -0.004,-34.0149241 4.17033,-0.1126163 4.17033,-0.1125765 V 35.498555 69.824421 h -4.16509 c -2.29081,0 -4.16613,-0.08925 -4.16736,-0.198338 z m 58.68024,0 c -0.0155,0 -1.32315,-4.551853 -2.90561,-10.11523 l -2.87721,-10.11523 -10.28302,-0.09681 c -5.65573,-0.05324 -10.50394,0.04514 -10.77387,0.21862 -0.37205,0.239116 -6.05435,18.744763 -6.05435,19.717313 0,0.106146 -2.07191,0.192994 -4.60421,0.192994 -3.62217,0 -4.56189,-0.110335 -4.40572,-0.517281 0.10917,-0.284499 2.19401,-7.112284 4.63301,-15.172845 2.43896,-8.060561 5.12069,-16.886864 5.95938,-19.614009 0.83865,-2.727145 3.2456,-10.67056 5.3487,-17.652052 2.10313,-6.9814921 4.0061,-13.2737602 4.22892,-13.982818 l 0.40504,-1.289196 h 4.89692 4.89693 l 0.40833,1.289196 c 1.6662,5.260356 19.88365,66.181736 19.88365,66.493364 0,0.299792 -4.6803,0.643979 -8.75689,0.643979 z m -8.49382,-28.440861 c 0.10671,-0.284056 -1.64557,-6.992555 -3.89393,-14.907762 l -4.0879,-14.391314 -1.04992,3.681071 c -5.53121,19.392685 -7.06432,25.056586 -6.89906,25.487312 0.28469,0.741907 15.65393,0.86799 15.93081,0.130693 z M 158.12709,35.313637 V 1.199544 h 20.23046 20.23046 V 5.1663009 9.1330578 H 182.72098 166.85395 V 19.843301 30.553529 h 11.30526 11.30526 l 3.1e-4,3.867588 3.2e-4,3.867588 -11.30557,-0.124053 -11.30558,-0.124048 v 11.726811 11.726817 h 16.43388 16.43388 l 0.13399,3.66925 c 0.0737,2.018087 0.0758,3.803128 0.005,3.966757 -0.0711,0.163628 -9.49019,0.297506 -20.9313,0.297506 h -20.80207 z" />
</svg>
