<svg
   width="1299.21"
   height="259.84"
   viewBox="0 0 1299.21 259.84"
   version="1.1"
   xml:space="preserve"
   style="clip-rule:evenodd;fill-rule:evenodd;stroke-linejoin:round;stroke-miterlimit:2"
   id="svg14"
   xmlns="http://www.w3.org/2000/svg"
   xmlns:svg="http://www.w3.org/2000/svg"><defs
     id="defs14" /><path
     d="m 962.04799,137.833 c 0,1.83 -0.802,3.349 -2.436,4.51 -1.633,1.183 -3.974,2.21 -7.047,3.08 -3.492,1.004 -8.747,2.411 -15.763,4.197 -7.01399,1.785 -15.15499,4.018 -24.412,6.718 l -3.075,-2.679 c 6.37601,-4.218 11.21401,-7.521 14.54501,-9.866 3.301,-2.365 6.76,-4.865 10.315,-7.522 2.37099,-1.74 4.64499,-3.013 6.85699,-3.795 2.176,-0.78 4.483,-1.182 6.952,-1.182 4.067,0 7.432,0.603 10.091,1.808 2.659,1.206 3.973,2.767 3.973,4.731 z m 2.337,99.532 c 2.821,-3.951 4.84,-8.459 6.088,-13.46 1.28,-5.022 1.889,-10.691 1.889,-17.009 0,-5.357 -0.542,-10.581 -1.633,-15.67 -1.09,-5.066 -2.946,-9.598 -5.608,-13.572 -2.689,-3.949 -6.245,-7.142 -10.699,-9.53 -4.42,-2.411 -9.962,-3.594 -16.594,-3.594 -11.34199,0 -19.92799,3.729 -25.822,11.206 -5.862,7.476 -8.811,18.036 -8.811,31.674 0,5.804 0.643,11.272 1.923,16.428 1.282,5.134 3.301,9.62 6.055,13.461 2.82,3.883 6.37501,6.896 10.70001,9.062 4.324,2.164 9.644,3.237 15.95499,3.237 6.182,0 11.5,-1.095 15.954,-3.259 4.451,-2.187 7.977,-5.179 10.603,-8.974 z m 24.123,-66.362 c 6.569,4.175 11.79001,9.24 15.63601,15.157 3.843,5.937 5.766,12.7 5.766,20.29 0,6.74 -1.635,13.169 -4.87,19.286 -3.269,6.093 -7.94601,11.362 -14.09601,15.758 -6.438,4.576 -14.001,8.147 -22.714,10.693 -8.682,2.544 -19.062,3.817 -31.076,3.817 -9.67299,0 -18.83599,-1.117 -27.486,-3.327 -8.619,-2.231 -16.242,-5.446 -22.81,-9.687 -6.504,-4.13 -11.662,-9.174 -15.475,-15.112 -3.811,-5.915 -5.734,-12.523 -5.734,-19.798 0,-7.59 1.859,-14.465 5.574,-20.648 3.747,-6.161 8.842,-11.451 15.347,-15.849 6.47,-4.307 14.096,-7.634 22.969,-9.976 8.84101,-2.322 18.26101,-3.483 28.289,-3.483 9.93,0 19.287,1.116 28,3.393 8.745,2.253 16.305,5.423 22.68,9.486"
     style="fill:#000000;fill-rule:nonzero"
     id="path1" /><path
     d="M 864.91099,253.459 H 812.148 c -7.945,-8.504 -15.089,-15.604 -21.463,-21.317 -6.408,-5.715 -14.579,-12.88 -24.51,-21.517 h -4.869 v 29.173 c 0,1.563 0.384,2.901 1.217,3.973 0.801,1.094 2.436,2.009 4.87,2.745 1.121,0.358 2.787,0.715 5.028,1.05 2.212,0.357 4.423,0.625 6.6,0.782 v 5.111 h -70.767 v -5.111 c 1.698,-0.068 4.1,-0.201 7.176,-0.38 3.105,-0.179 5.286,-0.448 6.534,-0.781 2.243,-0.625 3.814,-1.474 4.712,-2.568 0.864,-1.071 1.312,-2.454 1.312,-4.106 v -65.782 c 0,-1.541 -0.384,-2.812 -1.154,-3.861 -0.736,-1.05 -2.371,-1.987 -4.87,-2.812 -1.952,-0.626 -4.293,-1.118 -7.047,-1.519 -2.756,-0.38 -4.965,-0.647 -6.663,-0.782 v -5.088 h 73.14 v 5.088 c -1.955,0.135 -4.294,0.314 -7.018,0.559 -2.721,0.245 -5.028,0.581 -6.983,1.026 -2.434,0.559 -4.069,1.45 -4.87,2.679 -0.833,1.204 -1.217,2.566 -1.217,4.04 v 31.272 h 3.941 c 4.867,-3.102 10.571,-6.83 17.075,-11.182 6.502,-4.375 11.534,-7.947 15.12,-10.738 5,-3.883 8.65,-6.94 11.023,-9.218 2.338,-2.255 3.523,-4.219 3.523,-5.87 0,-0.76 -1.153,-1.318 -3.396,-1.72 -2.243,-0.378 -5.703,-0.67 -10.317,-0.848 v -5.088 h 57.89099 v 5.088 c -6.984,0.536 -12.88,1.407 -17.62,2.656 -4.775,1.251 -9.483,3.327 -14.192,6.252 -6.69699,4.173 -12.20699,7.81 -16.56399,10.892 -4.357,3.058 -9.929,6.988 -16.755,11.786 6.024,5.111 13.232,11.361 21.689,18.749 8.459,7.389 16.85199,14.576 25.24599,21.608 2.145,1.785 4.581,3.505 7.335,5.133 2.756,1.629 5.767,2.947 9.099,3.952 1.569,0.49 3.331,0.847 5.349,1.115 1.987,0.268 3.717,0.425 5.158,0.448 z"
     style="fill:#000000;fill-rule:nonzero"
     id="path2" /><path
     d="m 700.564,222.142 -4.518,31.317 H 571.042 v -3.996 l 86.049,-82.789 h -29.185 c -5.928,0 -10.221,0.132 -12.848,0.356 -2.627,0.246 -5.092,0.736 -7.43,1.473 -2.693,0.714 -5.64,2.545 -8.907,5.535 -3.237,2.992 -7.593,7.97 -13.041,14.935 h -7.59 l 4.099,-28.304 h 115.844 v 3.973 l -86.08,82.79 h 33.509 c 10.507,0 17.651,-0.29 21.432,-0.87 3.812,-0.581 6.567,-1.653 8.329,-3.17 3.555,-3.014 6.857,-6.317 9.899,-9.91 3.044,-3.595 5.833,-7.388 8.396,-11.34 z"
     style="fill:#000000;fill-rule:nonzero"
     id="path3" /><path
     d="m 506.999,255.935 c -8.137,0 -15.697,-0.69 -22.746,-2.075 -7.046,-1.405 -13.006,-3.057 -17.875,-4.978 l -6.471,4.577 h -7.978 l -1.216,-33.549 h 8.04 c 1.825,3.192 4.133,6.539 6.952,10.066 2.82,3.528 6.087,6.697 9.772,9.486 3.811,2.925 8.072,5.292 12.813,7.123 4.71,1.829 10.252,2.743 16.564,2.743 8.521,0 15.025,-1.45 19.574,-4.328 4.516,-2.904 6.791,-6.564 6.791,-10.961 0,-3.617 -1.921,-6.652 -5.766,-9.129 -3.844,-2.455 -9.804,-4.577 -17.878,-6.363 -5.252,-1.183 -10.091,-2.275 -14.511,-3.28 -4.389,-1.005 -8.554,-2.031 -12.429,-3.081 -8.939,-2.478 -15.602,-6.027 -19.927,-10.647 -4.359,-4.621 -6.536,-9.799 -6.536,-15.513 0,-3.616 1.122,-7.076 3.365,-10.424 2.272,-3.327 5.541,-6.317 9.867,-8.997 4.131,-2.477 9.419,-4.508 15.857,-6.071 6.438,-1.562 13.456,-2.367 21.017,-2.367 7.398,0 14.318,0.716 20.759,2.144 6.438,1.407 11.501,2.835 15.184,4.285 l 5.734,-3.927 h 8.171 l 0.736,31.652 h -8.042 c -1.889,-3.416 -4.1,-6.876 -6.631,-10.448 -2.53,-3.548 -5.222,-6.495 -8.042,-8.862 -3.041,-2.521 -6.598,-4.529 -10.602,-6.048 -4.005,-1.495 -8.682,-2.255 -14.064,-2.255 -6.761,0 -12.272,1.341 -16.564,3.996 -4.291,2.656 -6.439,5.961 -6.439,9.866 0,3.728 1.86,6.741 5.607,9.107 3.715,2.345 9.515,4.42 17.396,6.205 4.645,1.094 9.353,2.188 14.159,3.283 4.839,1.07 9.131,2.119 12.88,3.124 9.065,2.454 15.953,5.803 20.696,10.113 4.708,4.285 7.079,9.618 7.079,15.98 0,4.018 -1.347,7.904 -4.038,11.653 -2.689,3.75 -6.31,6.851 -10.892,9.353 -4.997,2.744 -10.795,4.844 -17.363,6.337 -6.568,1.476 -14.224,2.21 -23.003,2.21"
     style="fill:#000000;fill-rule:nonzero"
     id="path4" /><path
     d="m 451.064,165.757 c -2.241,0.178 -4.325,0.47 -6.214,0.848 -1.86,0.402 -3.653,0.938 -5.351,1.654 -2.691,1.026 -5.061,2.388 -7.176,4.016 -2.081,1.63 -4.132,3.461 -6.151,5.448 -4.037,4.15 -8.33,8.659 -12.781,13.503 -4.486,4.866 -9.356,10.224 -14.609,16.071 -3.429,3.707 -5.542,6.542 -6.344,8.528 -0.77,1.986 -1.153,5.425 -1.153,10.29 v 13.147 c 0,1.585 0.416,2.947 1.249,4.13 0.864,1.183 2.467,2.144 4.837,2.878 1.059,0.292 3.334,0.694 6.761,1.206 3.426,0.492 5.989,0.804 7.592,0.872 v 5.111 h -74.23 v -5.111 c 1.762,-0.068 4.262,-0.247 7.563,-0.515 3.267,-0.267 5.573,-0.558 6.886,-0.915 2.306,-0.691 3.909,-1.629 4.743,-2.766 0.833,-1.162 1.28,-2.568 1.28,-4.22 V 223.57 c 0,-1.428 -0.031,-2.7 -0.096,-3.795 -0.063,-1.093 -0.287,-2.009 -0.671,-2.744 -0.449,-0.828 -1.185,-1.877 -2.243,-3.17 -1.058,-1.296 -2.437,-2.947 -4.132,-5.001 -4.807,-5.891 -9.483,-11.473 -14.001,-16.74 -4.487,-5.268 -8.779,-10.223 -12.848,-14.844 -2.114,-2.41 -4.259,-4.331 -6.438,-5.781 -2.146,-1.474 -4.357,-2.656 -6.6,-3.572 -1.698,-0.647 -3.749,-1.161 -6.15,-1.495 -2.404,-0.357 -4.581,-0.58 -6.536,-0.671 v -5.088 h 76.311 v 5.088 c -7.016,0.135 -11.726,0.47 -14.16,1.026 -2.436,0.538 -3.684,1.296 -3.684,2.256 0,0.469 0.481,1.429 1.377,2.88 0.898,1.428 2.531,3.66 4.838,6.651 2.114,2.834 5.223,6.741 9.322,11.719 4.101,4.978 9.033,10.781 14.801,17.455 11.884,-13.124 20.055,-22.277 24.476,-27.501 4.453,-5.2 6.662,-8.391 6.662,-9.574 0,-1.475 -1.28,-2.611 -3.875,-3.393 -2.595,-0.782 -6.824,-1.296 -12.622,-1.519 v -5.088 h 49.367 z"
     style="fill:#000000;fill-rule:nonzero"
     id="path5" /><path
     d="M 935.00499,78 921.79,39.035 908.75199,78 Z m 47.834,43.519 H 933.207 v -5.924 c 2.32299,-0.182 5.03999,-0.674 8.15199,-1.476 3.133,-0.776 4.689,-1.759 4.689,-2.897 0,-0.414 -0.021,-0.88 -0.088,-1.372 -0.066,-0.518 -0.24,-1.19 -0.547,-2.044 l -7.779,-22.303 h -31.445 c -0.723,2.07 -1.534,4.503 -2.411,7.297 -0.876,2.768 -1.643,5.252 -2.278,7.426 -0.811,2.819 -1.293,4.864 -1.447,6.131 -0.153,1.268 -0.218,2.147 -0.218,2.665 0,1.605 1.03,2.976 3.111,4.113 2.081,1.139 5.521,1.967 10.364,2.46 v 5.924 h -37.361 v -5.924 c 1.403,-0.078 3.003,-0.363 4.778,-0.778 1.774,-0.439 3.177,-1.034 4.207,-1.784 1.753,-1.217 3.242,-2.717 4.469,-4.477 1.206,-1.76 2.236,-3.855 3.046,-6.287 4.953,-14.204 9.928,-28.434 14.923,-42.691 4.997,-14.23 10.49601,-29.96 16.52201,-47.14 h 12.84099 c 8.392,24.372 14.967,43.622 19.722,57.775 4.755,14.126 8.786,25.873 12.117,35.162 0.57,1.525 1.271,2.897 2.126,4.139 0.855,1.216 2.081,2.406 3.659,3.519 1.206,0.802 2.585,1.423 4.186,1.81 1.577,0.415 3.002,0.674 4.294,0.752 z"
     style="fill:#000000;fill-rule:nonzero"
     id="path6" /><path
     d="m 875.48899,121.519 h -50.508 v -5.924 c 1.139,-0.078 2.848,-0.234 5.084,-0.441 2.257,-0.207 3.813,-0.517 4.668,-0.906 1.576,-0.776 2.65,-1.759 3.242,-3.001 0.57,-1.242 0.855,-2.819 0.855,-4.734 V 30.265 c 0,-1.734 -0.264,-3.234 -0.833,-4.554 -0.548,-1.32 -1.644,-2.381 -3.264,-3.183 -1.032,-0.517 -2.543,-1.034 -4.56,-1.552 -2.015,-0.543 -3.746,-0.906 -5.192,-1.112 v -5.9 h 50.508 v 5.9 c -1.271,0.154 -2.891,0.362 -4.799,0.647 -1.928,0.285 -3.572,0.672 -4.886,1.189 -1.666,0.648 -2.783,1.682 -3.331,3.053 -0.569,1.398 -0.854,2.976 -0.854,4.736 v 76.196 c 0,1.811 0.306,3.363 0.876,4.657 0.57,1.293 1.687,2.328 3.309,3.13 0.899,0.466 2.388,0.906 4.448,1.346 2.082,0.414 3.835,0.699 5.237,0.777 z"
     style="fill:#000000;fill-rule:nonzero"
     id="path7" /><path
     d="m 781.396,41.545 c 0,-7.167 -1.709,-12.419 -5.106,-15.731 -3.418,-3.311 -8.26,-4.968 -14.55,-4.968 h -5.061 v 45.045 h 4.865 c 6.289,0 11.175,-1.965 14.638,-5.846 3.461,-3.881 5.214,-10.065 5.214,-18.5 z m 43.71599,79.974 H 790.184 C 784.135,110.601 779.118,101.907 775.129,95.439 771.12,88.97 766.146,81.494 760.207,73.007 h -3.528 v 32.678 c 0,1.811 0.285,3.363 0.854,4.605 0.571,1.268 1.688,2.328 3.309,3.182 0.811,0.415 2.082,0.828 3.813,1.268 1.732,0.414 3.221,0.725 4.471,0.855 v 5.924 h -48.603 v -5.924 c 1.249,-0.13 2.87,-0.363 4.909,-0.622 2.038,-0.284 3.484,-0.621 4.338,-1.035 1.622,-0.803 2.718,-1.837 3.265,-3.078 0.57,-1.217 0.855,-2.821 0.855,-4.735 v -75.86 c 0,-1.837 -0.241,-3.338 -0.723,-4.554 -0.461,-1.216 -1.6,-2.277 -3.397,-3.183 -1.358,-0.672 -2.98,-1.215 -4.843,-1.682 -1.862,-0.439 -3.33,-0.776 -4.404,-0.982 v -5.9 h 51.101 c 11.438,0 20.115,2.097 26.031,6.313 5.939,4.218 8.898,10.609 8.898,19.147 0,7.529 -1.842,13.583 -5.501,18.163 -3.659,4.579 -9.225,8.15 -16.72,10.711 2.915,4.451 6.311,9.599 10.19,15.472 3.857,5.873 7.888,11.85 12.095,17.956 1.316,1.992 3.134,4.399 5.413,7.245 2.301,2.845 4.317,4.605 6.07,5.277 0.986,0.337 2.235,0.647 3.769,0.906 1.512,0.259 2.58599,0.414 3.24299,0.441 z"
     style="fill:#000000;fill-rule:nonzero"
     id="path8" /><path
     d="m 706.478,41.39 h -4.888 c -1.248,-4.088 -3.374,-8.228 -6.42,-12.419 -3.045,-4.191 -6.047,-6.675 -9.05,-7.425 -1.292,-0.363 -3.067,-0.57 -5.368,-0.648 -2.28,-0.078 -4.186,-0.128 -5.675,-0.128 h -13.214 v 41.551 h 9.357 c 2.366,0 4.493,-0.336 6.42,-0.983 1.929,-0.673 3.681,-1.914 5.28,-3.803 0.965,-1.165 1.973,-3.208 2.982,-6.132 1.007,-2.923 1.643,-5.485 1.95,-7.658 h 4.886 v 44.89 h -4.886 c -0.264,-2.149 -0.899,-4.813 -1.95,-8.021 -1.053,-3.208 -2.06,-5.407 -2.982,-6.624 -1.424,-1.81 -3.088,-3.079 -5.017,-3.751 -1.928,-0.673 -4.141,-1.01 -6.683,-1.01 h -9.357 v 30.997 c 0,3.234 0.197,5.794 0.592,7.683 0.416,1.89 1.183,3.364 2.279,4.374 1.073,0.956 2.542,1.578 4.404,1.888 1.863,0.311 4.405,0.44 7.604,0.44 1.512,0 3.308,-0.026 5.39,-0.078 2.104,-0.025 3.945,-0.181 5.523,-0.44 1.796,-0.258 3.484,-0.647 5.039,-1.138 1.578,-0.517 2.739,-1.242 3.506,-2.2 2.06,-2.483 4.36,-6.26 6.925,-11.332 2.585,-5.07 4.273,-8.874 5.083,-11.41 h 4.69 l -1.731,33.506 h -85.46 v -5.924 c 1.206,-0.078 2.828,-0.285 4.887,-0.596 2.059,-0.31 3.506,-0.647 4.361,-1.061 1.622,-0.803 2.716,-1.837 3.265,-3.078 0.569,-1.217 0.853,-2.821 0.853,-4.735 v -75.86 c 0,-1.837 -0.24,-3.338 -0.723,-4.527 -0.459,-1.191 -1.599,-2.252 -3.395,-3.21 -1.119,-0.621 -2.674,-1.164 -4.69,-1.682 -2.015,-0.491 -3.528,-0.828 -4.558,-0.982 v -5.9 h 80.771 z"
     style="fill:#000000;fill-rule:nonzero"
     id="path9" /><path
     d="m 621.281,87.03 -1.797,34.489 H 535.58 v -5.924 c 1.512,-0.13 3.266,-0.389 5.26,-0.7 2.016,-0.336 3.352,-0.647 3.987,-0.957 1.535,-0.699 2.608,-1.681 3.222,-2.95 0.592,-1.267 0.898,-2.897 0.898,-4.863 v -75.86 c 0,-1.837 -0.241,-3.338 -0.723,-4.527 -0.461,-1.191 -1.599,-2.252 -3.397,-3.21 -1.335,-0.724 -2.914,-1.267 -4.776,-1.708 -1.863,-0.439 -3.353,-0.75 -4.471,-0.956 v -5.9 h 50.006 v 5.9 c -1.359,0.154 -2.981,0.362 -4.844,0.647 -1.862,0.285 -3.462,0.672 -4.842,1.189 -1.665,0.648 -2.783,1.682 -3.331,3.053 -0.569,1.398 -0.833,2.976 -0.833,4.736 v 70.737 c 0,3.337 0.175,5.95 0.57,7.865 0.394,1.941 1.139,3.338 2.236,4.242 1.117,0.985 2.672,1.605 4.667,1.864 1.994,0.285 4.733,0.414 8.238,0.414 3.441,0 6.751,-0.233 9.993,-0.698 3.222,-0.493 5.544,-1.553 6.968,-3.158 2.169,-2.586 4.404,-6.209 6.705,-10.866 2.279,-4.683 4.12,-8.978 5.478,-12.859 z"
     style="fill:#000000;fill-rule:nonzero"
     id="path10" /><path
     d="M 486.913,78 473.699,39.035 460.662,78 Z m 47.835,43.519 h -49.633 v -5.924 c 2.324,-0.182 5.04,-0.674 8.153,-1.476 3.133,-0.776 4.688,-1.759 4.688,-2.897 0,-0.414 -0.021,-0.88 -0.087,-1.372 -0.066,-0.518 -0.241,-1.19 -0.548,-2.044 l -7.779,-22.303 h -31.444 c -0.723,2.07 -1.535,4.503 -2.411,7.297 -0.876,2.768 -1.643,5.252 -2.278,7.426 -0.811,2.819 -1.294,4.864 -1.447,6.131 -0.154,1.268 -0.219,2.147 -0.219,2.665 0,1.605 1.03,2.976 3.112,4.113 2.08,1.139 5.521,1.967 10.364,2.46 v 5.924 h -37.361 v -5.924 c 1.403,-0.078 3.002,-0.363 4.777,-0.778 1.775,-0.439 3.178,-1.034 4.208,-1.784 1.752,-1.217 3.243,-2.717 4.469,-4.477 1.206,-1.76 2.236,-3.855 3.046,-6.287 4.952,-14.204 9.927,-28.434 14.923,-42.691 4.997,-14.23 10.496,-29.96 16.521,-47.14 h 12.841 c 8.393,24.372 14.967,43.622 19.722,57.775 4.755,14.126 8.787,25.873 12.118,35.162 0.57,1.525 1.27,2.897 2.125,4.139 0.855,1.216 2.082,2.406 3.659,3.519 1.206,0.802 2.586,1.423 4.186,1.81 1.578,0.415 3.003,0.674 4.295,0.752 z"
     style="fill:#000000;fill-rule:nonzero"
     id="path11" /><path
     d="m 431.189,77.793 c -1.315,0.13 -2.498,0.311 -3.528,0.518 -1.03,0.207 -2.322,0.621 -3.856,1.216 -1.753,0.646 -2.915,1.734 -3.462,3.26 -0.548,1.526 -0.833,3.105 -0.833,4.761 v 12.522 c 0,2.536 0.021,4.553 0.065,6.106 0.044,1.527 0.11,3.441 0.197,5.718 -4.294,3.027 -10.605,5.874 -18.975,8.564 -8.371,2.691 -16.062,4.01 -23.074,4.01 -6.597,0 -12.776,-1.189 -18.56,-3.544 -5.786,-2.38 -10.848,-5.951 -15.208,-10.712 -4.383,-4.683 -7.801,-10.53 -10.32,-17.489 -2.499,-6.987 -3.748,-14.955 -3.748,-23.959 0,-8.384 1.183,-16.145 3.528,-23.26 2.367,-7.141 5.763,-13.273 10.212,-18.422 4.36,-5.123 9.685,-9.055 15.951,-11.823 6.267,-2.795 13.214,-4.192 20.84,-4.192 5.171,0 9.97,0.75 14.374,2.251 4.404,1.474 8.042,3.079 10.912,4.812 l 3.989,-4.166 h 5.587 l 0.57,39.251 h -5.653 c -3.243,-11.774 -7.144,-20.519 -11.68,-26.21 -4.535,-5.718 -10.277,-8.565 -17.202,-8.565 -8.216,0 -14.571,4.244 -19.041,12.73 -4.471,8.487 -6.705,20.181 -6.705,35.084 0,15.834 2.191,28.201 6.574,37.154 4.382,8.952 10.605,13.402 18.647,13.402 3.769,0 7.122,-0.672 10.058,-1.992 2.937,-1.346 5.215,-2.898 6.837,-4.658 V 88.324 c 0,-1.838 -0.285,-3.364 -0.833,-4.58 -0.569,-1.241 -1.666,-2.328 -3.352,-3.234 -1.271,-0.698 -2.893,-1.293 -4.8,-1.733 -1.928,-0.466 -3.55,-0.803 -4.82,-0.984 v -5.924 h 47.309 z"
     style="fill:#000000;fill-rule:nonzero"
     id="path12" /><path
     d="m 1299.21,14.462 c -2.933,0.373 -5.913,1.175 -8.893,2.471 -2.929,1.239 -5.861,2.842 -8.693,4.762 -4.396,3.153 -7.522,6.614 -9.381,10.319 -1.854,3.771 -3.565,8.283 -5.078,13.6 -5.276,18.357 -13.338,47.778 -24.276,88.203 -10.895,40.419 -22.276,82.45 -34.097,126.023 h -28.775 L 1126.334,68.793 1077.975,259.84 h -28.769 c -15.925,-58.653 -28.138,-103.839 -36.639,-135.547 -8.498,-31.706 -15.63,-58.281 -21.44201,-79.791 -1.858,-6.492 -3.908,-11.249 -6.155,-14.219 -2.298,-2.904 -5.274,-5.93 -8.892,-8.962 -2.589,-2.164 -5.325,-3.771 -8.253,-4.756 -2.884,-1.051 -6.255,-1.857 -10.063,-2.475 V 0 H 1066.105 v 13.722 c -6.397,0.986 -11.185,1.915 -14.31,2.843 -3.178,0.863 -5.667,1.853 -7.474,2.781 -1.711,0.986 -2.738,1.975 -3.125,3.088 -0.393,1.112 -0.59,2.042 -0.59,2.904 0,1.669 0.197,3.338 0.488,4.884 0.344,1.546 0.735,3.399 1.077,5.44 2.295,9.396 6.937,27.258 13.919,53.587 6.938,26.333 15.536,58.964 25.745,97.97 L 1128.044,0 h 30.335 l 53.683,193.026 c 7.913,-31.028 14.217,-56.368 18.957,-76.086 4.735,-19.654 8.691,-36.465 11.967,-50.498 1.903,-8.59 3.42,-15.76 4.589,-21.568 1.126,-5.751 1.711,-10.758 1.711,-15.019 0,-2.537 -0.929,-4.701 -2.784,-6.492 -1.906,-1.853 -4.396,-3.399 -7.521,-4.701 -2.687,-1.112 -6.155,-1.974 -10.406,-2.653 -4.252,-0.684 -7.914,-1.174 -11.088,-1.547 V 0 h 81.723 z"
     style="fill:#000000;fill-rule:nonzero"
     id="path13" /><path
     d="m 341.448,14.462 c -2.932,0.373 -5.913,1.175 -8.893,2.471 -2.929,1.239 -5.861,2.842 -8.693,4.762 -4.396,3.153 -7.522,6.614 -9.38,10.319 -1.856,3.771 -3.566,8.283 -5.079,13.6 -5.276,18.357 -13.338,47.778 -24.276,88.203 -10.895,40.419 -22.276,82.45 -34.098,126.023 H 222.255 L 168.572,68.793 120.213,259.84 H 91.443 C 75.52,201.187 63.307,156.001 54.805,124.293 46.306,92.587 39.175,66.012 33.363,44.502 31.505,38.01 29.455,33.253 27.208,30.283 24.91,27.379 21.933,24.353 18.315,21.321 15.727,19.157 12.991,17.55 10.063,16.565 7.179,15.514 3.808,14.708 0,14.09 V 0 h 108.343 v 13.722 c -6.397,0.986 -11.185,1.915 -14.31,2.843 -3.179,0.863 -5.668,1.853 -7.475,2.781 -1.71,0.986 -2.738,1.975 -3.125,3.088 -0.392,1.112 -0.589,2.042 -0.589,2.904 0,1.669 0.197,3.338 0.489,4.884 0.342,1.546 0.733,3.399 1.076,5.44 2.295,9.396 6.938,27.258 13.919,53.587 6.938,26.333 15.536,58.964 25.745,97.97 L 170.282,0 h 30.336 L 254.3,193.026 c 7.913,-31.028 14.218,-56.368 18.956,-76.086 4.736,-19.654 8.692,-36.465 11.967,-50.498 1.904,-8.59 3.421,-15.76 4.59,-21.568 1.126,-5.751 1.71,-10.758 1.71,-15.019 0,-2.537 -0.927,-4.701 -2.782,-6.492 -1.908,-1.853 -4.396,-3.399 -7.523,-4.701 -2.687,-1.112 -6.155,-1.974 -10.405,-2.653 -4.251,-0.684 -7.914,-1.174 -11.088,-1.547 V 0 h 81.723 z"
     style="fill:#000000;fill-rule:nonzero"
     id="path14" /></svg>
