<svg id="GALERIAPIASTOW" width="500" height="211.67342" viewBox="0 0 500 211.67342" version="1.1" xml:space="preserve" xmlns:xlink="http://www.w3.org/1999/xlink" xmlns="http://www.w3.org/2000/svg" xmlns:svg="http://www.w3.org/2000/svg">
	<path id="GALERIAPIASTOW" style="fill:#000000;stroke:#000000;stroke-width:0" d="m 409.6822,142.12358 c 7.10333,18.85662 14.83426,38.96845 22.10875,57.68243 l 14.69162,-27.35779 -9.72785,-21.0247 c -2.48188,-5.42021 -3.42329,-6.50425 -9.61374,-6.50425 v -2.76716 h 16.71707 l 8.81497,19.02778 9.44257,-19.02778 h 5.07788 c -4.02236,8.35853 -7.55976,15.74713 -12.20973,24.27683 l 15.46186,32.80653 18.08638,-42.53438 c 2.16808,-5.10641 2.65305,-6.64689 2.65305,-8.50117 0,-3.25213 -4.96377,-3.25213 -8.67234,-3.25213 v -2.76715 H 500 c -9.12877,22.27991 -20.42563,48.06869 -29.38324,69.26456 h -5.87664 l -15.77567,-33.54824 -17.8011,33.54824 h -5.87665 l -21.82347,-55.97079 c -3.39476,-8.81497 -3.8512,-9.89901 -12.3809,-10.52662 v -2.76715 h 18.59987 m -59.87904,-9.52816 8.5297,-11.5536 c 4.82113,-7.01775 8.13031,-11.98152 12.80881,-11.98152 2.73863,0 4.25058,1.91134 4.25058,3.8512 0,2.0825 -0.68466,4.27912 -9.18583,9.92754 l -14.60603,9.75638 h -1.79723 m 7.16038,6.81805 c -17.14497,0 -37.11416,11.61066 -37.11416,35.40252 0,25.98848 20.11182,36.34393 36.943,36.34393 17.00234,0 36.943,-10.35545 36.943,-36.34393 0.0285,-23.79186 -18.99926,-35.40252 -36.77184,-35.40252 m -0.3138,69.15045 c -6.04781,0 -11.61066,-2.16808 -16.2321,-6.81805 -4.33617,-4.30764 -8.50117,-11.12569 -8.50117,-28.12803 0,-16.2321 8.67234,-31.55132 24.59063,-31.55132 13.29378,0 25.18971,9.12877 25.18971,32.92064 0,24.73327 -13.29377,33.57676 -25.04707,33.57676 m -101.8714,-68.83665 h 2.16809 c 0.77024,1.08404 1.39784,1.71165 2.31072,2.02545 0.9414,0.3138 1.85428,0.3138 3.10948,0.3138 h 45.1589 c 4.165,0 4.96377,-0.45644 5.70549,-2.31072 h 2.16808 l 1.22668,17.31614 h -2.48189 c -2.16808,-9.75637 -3.56592,-11.15422 -10.66925,-11.15422 H 290.6373 v 50.86438 c 0,8.81497 1.08404,9.12878 12.6947,9.72785 v 2.79569 h -23.82039 v -63.38792 h -13.92138 c -6.01928,0 -6.50425,0.3138 -9.58521,11.15422 h -2.59599 l 1.36931,-17.34467 m -10.78336,12.20974 c -4.79261,-6.19045 -10.98306,-8.81497 -17.31614,-8.81497 -6.33309,0 -10.69778,4.7926 -10.69778,9.89901 0,6.33308 4.19353,9.10024 19.79802,19.31306 4.02237,2.62452 13.46494,8.81497 13.46494,20.11183 0,10.35545 -8.04473,19.17042 -20.73943,19.17042 -3.8512,0 -5.39168,-0.48497 -13.26524,-2.65305 -0.62761,-0.14264 -1.39785,-0.28528 -1.85429,-0.28528 -1.36931,0 -1.85428,0.45644 -2.16808,1.36932 h -2.48189 l -1.85428,-16.68854 h 3.08096 c 4.62144,13.29378 14.23518,15.14806 17.31614,15.14806 4.33617,0 13.00851,-2.79569 13.00851,-11.89593 0,-7.9021 -5.87665,-12.0671 -17.14498,-19.02779 -13.60758,-8.50117 -16.08946,-14.52045 -16.08946,-20.3971 0,-10.07018 8.78644,-17.31614 18.08638,-17.31614 7.87356,0 15.14806,2.16808 20.7109,9.72785 l -1.85428,2.33925 m -75.62618,-12.03857 21.19587,57.51127 c 2.76716,7.41712 3.08096,8.6438 11.12569,9.12877 v 2.79568 h -19.02778 c -3.8512,-11.89593 -5.56285,-16.83117 -9.72785,-28.89827 h -22.27991 c -3.56593,10.07018 -6.50425,18.40019 -9.89901,28.89827 h -12.52354 v -2.79568 c 7.90209,-1.54048 8.95761,-4.165 12.3809,-12.97998 l 19.17042,-49.18126 -1.54048,-4.4788 h 11.12569 m -17.00234,36.03012 h 19.02779 l -9.27141,-25.18971 z m -42.81965,18.85662 c 0,9.89902 2.13956,11.1257 11.7533,11.7533 v 2.79568 H 97.563759 v -52.74719 c 0,-9.89901 -2.168084,-11.12569 -11.753295,-11.75329 v -2.76716 h 22.736346 v 52.71866 M 27.842757,209.39122 H 2.4818851 V 206.4529 H 4.678496 c 8.016204,0 10.355452,-1.71164 10.355452,-8.95761 v -73.17282 c 0,-5.70548 -1.854282,-8.18736 -7.2744912,-8.18736 H 0 v -2.93833 c 4.3361671,-0.14263 11.924459,-0.59907 19.484224,-0.9414 7.559765,-0.28528 14.976893,-0.45644 19.170423,-0.45644 32.321561,0 39.738689,15.46186 39.738689,27.38632 0,18.08638 -14.520454,29.52587 -37.427968,29.52587 -4.621441,0 -8.50117,-0.28527 -13.151139,-1.22668 v 41.90677 m 0.02853,-44.84509 c 2.025446,0.45644 5.420209,1.22668 8.358532,1.22668 16.859703,0 27.671593,-11.4395 27.671593,-27.07252 0,-12.0671 -4.792606,-23.96303 -25.360872,-23.96303 -3.565927,0 -6.960689,0 -10.669253,0.62761 z M 462.45792,29.069436 483.65379,86.580704 c 2.76716,7.417128 3.08096,8.643807 11.12569,9.100245 v 2.795687 H 475.7517 c -3.87973,-11.895932 -5.56285,-16.831175 -9.75638,-28.898271 h -22.25138 c -3.5374,10.04165 -6.50425,18.400182 -9.89902,28.898271 h -12.52353 v -2.795687 c 7.90209,-1.54048 8.95761,-4.165002 12.3809,-12.979973 l 19.17042,-49.181264 -1.54048,-4.450276 h 11.12569 m -16.97381,36.030125 h 18.99926 l -9.27141,-25.189708 z m -46.29999,18.856621 c 0,9.870485 2.16808,11.125692 11.75329,11.753295 v 2.795686 h -22.73635 v -52.74719 c 0,-9.899013 -2.13955,-11.125691 -11.75329,-11.753295 v -2.767159 h 22.73635 v 52.718663 m -71.1759,14.520454 h -22.10875 v -2.795687 h 2.45336 c 7.58829,0 8.52969,-3.08096 8.52969,-8.957608 V 42.990814 c 0,-1.711645 0,-4.165002 -1.22667,-5.73401 -1.22668,-1.711645 -2.13956,-1.711645 -9.89902,-2.168084 v -2.795686 c 6.50425,-0.627604 16.2321,-1.854282 27.21516,-1.854282 13.60757,0 30.01084,3.109488 30.01084,19.341587 0,12.666172 -9.75638,16.089462 -14.69162,17.801107 2.93832,2.624522 3.8512,3.537399 9.44257,15.461859 4.96377,10.669253 7.87357,12.837336 13.60758,13.778741 v 2.767159 c -10.66925,-0.456438 -17.1735,-2.909796 -23.64923,-13.122611 -1.71164,-2.624522 -8.35853,-14.834255 -9.72785,-17.144976 h -9.92754 v 29.155018 m -0.0285,-31.979232 h 6.96069 c 8.18736,0 16.37473,-3.708564 16.37473,-16.403264 0,-12.979973 -9.75637,-16.517373 -16.5459,-16.517373 -2.62452,0 -5.27757,0.142637 -6.81805,0.313802 v 32.606835 z m -69.26457,-4.050893 h 16.71707 c 5.56284,0 7.41713,0 8.04473,-8.330005 h 3.08096 v 20.882068 h -3.08096 c -0.3138,-8.50117 -1.54048,-9.128773 -9.12877,-9.128773 h -15.63303 v 22.108746 c 0,6.646888 0.3138,6.646888 6.96069,6.646888 h 11.7533 c 6.96069,0 10.52661,-0.912877 13.46494,-12.523535 h 2.93832 l -1.39784,16.374736 H 247.58943 V 42.990814 c 0,-7.902094 -2.31072,-9.128773 -10.98305,-8.986136 v -2.795686 h 52.88983 l 0.6276,14.691618 h -2.79569 c -1.71164,-10.212814 -4.165,-11.296856 -11.75329,-11.296856 h -16.8597 V 62.446511 M 202.54465,31.237519 v 57.996235 c 0,3.565926 0,4.022365 1.08404,4.478804 2.31072,1.084042 7.10332,1.084042 9.58521,1.084042 11.58213,0 14.83425,-1.084042 20.88207,-12.067097 h 2.76716 l -6.64689,15.77566 H 180.4359 v -2.795686 c 9.89901,0 10.98305,-1.854282 10.98305,-8.957608 V 44.36013 c 0,-8.643807 -0.48496,-10.526616 -12.06709,-10.355452 v -2.795686 h 23.19279 m -61.59069,-2.139556 21.19587,57.511268 c 2.76716,7.417128 3.08096,8.643807 11.12569,9.100245 v 2.795687 H 154.24773 C 150.368,86.580704 148.68489,81.645461 144.51988,69.578365 H 122.2685 c -3.56593,10.04165 -6.50425,18.400182 -9.89901,28.898271 H 99.845952 v -2.795687 c 7.873568,-1.54048 8.957608,-4.165002 12.352368,-12.979973 l 19.17043,-49.181264 -1.54049,-4.450276 h 11.1257 M 123.98014,65.099561 H 142.9794 L 133.70799,39.909853 Z M 93.655503,91.230673 C 78.336281,99.132767 58.70942,100.98705 52.205169,100.98705 18.343128,100.98705 2.5674673,74.827409 2.5674673,52.262224 2.5674673,29.069436 18.799566,0 56.541336,0 c 16.545901,0 27.528956,5.2490443 30.781081,5.2490443 1.397843,0 2.624522,-0.3138015 3.565927,-1.0840417 h 2.168083 V 29.212073 H 89.946939 C 85.753409,9.899013 72.602271,3.851201 58.224454,3.851201 c -27.215154,0 -41.136533,22.593713 -41.136533,47.469618 0,31.693958 22.279911,45.757974 40.052491,45.757974 7.103326,0 15.00542,-1.540481 23.649227,-5.876648 V 71.717921 c 0,-8.814971 -0.77024,-14.520454 23.649231,-14.520454 v 2.795686 c -7.730934,0.456439 -10.811894,3.080961 -10.811894,9.727849 v 21.509671" />
</svg>
