<svg
   version="1.1"
   id="svg1"
   width="1404.5126"
   height="1294.417"
   viewBox="0 0 1404.5126 1294.417"
   xmlns="http://www.w3.org/2000/svg"
   xmlns:svg="http://www.w3.org/2000/svg">
  <defs
     id="defs1" />
  <g
     id="g1"
     transform="translate(2641.3826,248.52686)">
    <path
       style="fill:#000000"
       d="m -1908.4405,1044.9192 c -18.2195,-2.9883 -30.6158,-8.7563 -41.0242,-19.0888 -7.8556,-7.7983 -11.5847,-13.5511 -15.1483,-23.3688 -5.4943,-15.13652 -5.5333,-15.62482 -5.9847,-74.91162 l -0.4207,-55.25 h 31.527 31.5271 l 0.2909,53.75 c 0.2883,53.2809 0.3102,53.7895 2.5196,58.2718 2.6372,5.3507 6.4357,7.855 13.1136,8.6459 5.9204,0.7012 11.6508,-0.9691 15.4311,-4.4979 5.0933,-4.7545 5.7265,-9.4695 5.7265,-42.6412 0,-32.5674 -0.4871,-36.6361 -5.5921,-46.7104 -1.4349,-2.8315 -19.1992,-28.2114 -39.4763,-56.3998 -42.964,-59.7269 -43.9038,-61.1303 -47.9329,-71.5781 -6.1381,-15.9165 -6.4987,-19.3756 -6.4987,-62.3403 0,-40.64436 0.2216,-43.36805 4.678,-57.5 6.3484,-20.13169 21.6903,-35.47363 41.822,-41.82201 12.4061,-3.91217 18.0845,-4.63993 35.5,-4.54974 14.9766,0.0776 18.1749,0.39928 26.8709,2.70296 14.9191,3.95226 23.7302,8.71304 32.6495,17.64103 9.032,9.04083 13.974,17.89595 17.7413,31.78906 l 2.6408,9.7387 0.3639,51.25 0.3639,51.25 h -31.5222 -31.5222 l -0.293,-50.75 c -0.2727,-47.25616 -0.4219,-51.00952 -2.1662,-54.51969 -3.0045,-6.04608 -6.8893,-8.1752 -15.6267,-8.56435 -6.5341,-0.29102 -7.9507,-0.0318 -11,2.0132 -1.925,1.29098 -4.4,4.14129 -5.5,6.33404 -1.874,3.73557 -1.9994,5.97179 -1.9906,35.4868 0.01,33.97925 0.6404,39.2244 5.8225,48.46407 1.2449,2.21976 18.1105,25.74373 37.4791,52.27533 19.3686,26.5317 37.2579,51.3964 39.754,55.2549 6.1404,9.4923 10.9477,19.8838 13.6497,29.5057 2.1754,7.7466 2.2472,9.4254 2.2659,53 0.019,43.6337 -0.05,45.2733 -2.2688,54 -3.5787,14.07612 -9.0774,24.39832 -17.5371,32.92152 -10.3282,10.4057 -20.1879,15.4995 -37.1747,19.2053 -9.6561,2.1065 -32.9865,2.6442 -43.0579,0.9924 z m -629.816,-14.8692 c -0.2933,-3.4375 -1.0268,-16.6 -1.6302,-29.25 -2.2089,-46.31292 -5.6325,-86.56262 -22.5356,-264.93907 -6.3032,-66.51648 -11.4603,-121.30398 -11.4603,-121.75 0,-0.44602 13.9224,-0.81095 30.9387,-0.81095 h 30.9387 l 0.5518,4.25 c 0.6985,5.38054 11.2256,141.9958 12.5409,162.75 1.8056,28.4915 6.0115,126.3915 6.0252,140.25 0,4.0818 0.2861,4.75 2.0047,4.75 1.6127,0 2,-0.6667 2,-3.4424 0,-6.1581 3.9631,-104.5419 4.9771,-123.5576 0.9037,-16.9452 15.4768,-177.55196 16.5824,-182.75 l 0.4786,-2.25 h 33.9809 c 18.6896,0 33.981,0.1179 33.981,0.262 0,0.14409 2.9268,38.50659 6.5041,85.25 7.4795,97.7352 8.2103,111.031 8.9849,163.488 0.7568,51.242 1.3291,63 3.0664,63 1.9404,0 2.1925,-2.8429 3.4144,-38.5 1.3014,-37.9747 2.5456,-62.689 4.549,-90.3532 1.3467,-18.5964 16.7488,-172.31822 18.0247,-179.8968 l 0.5471,-3.25 h 24.8079 24.8079 l -0.5009,5.25 c -0.2756,2.8875 -9.5512,97.95 -20.6125,211.25 l -20.1115,206.00002 -34.7408,0.263 c -29.2375,0.2213 -34.7407,0.041 -34.7407,-1.1372 0,-0.77 -4.322,-58.93842 -9.6045,-129.26292 -8.1994,-109.1579 -9.6989,-132.7516 -10.25,-161.28111 -0.4732,-24.49985 -0.9638,-33.52389 -1.8381,-33.81421 -1.6731,-0.55553 -1.8335,1.04518 -4.7827,47.73242 -3.8025,60.1967 -18.0666,244.25812 -21.0983,272.25002 l -0.6228,5.75 h -37.3222 -37.3222 z m 358.3739,-205.25002 v -211.5 h 31.5 31.5 v 211.5 V 1036.3 h -31.5 -31.5 z m 518,0 v -211.5 h 31.5 31.5 v 76.5 c 0,61.6161 0.2498,76.5 1.2841,76.5 0.7062,0 8.5812,-2.4425 17.5,-5.4277 l 16.2159,-5.4278 v 30.2298 30.2298 l -17.25,6.9479 -17.25,6.948 -0.2564,74.25 -0.2564,74.25 h 38.5064 38.5064 v 29.00002 29 h -70 -70 z m 233.2479,208.25002 c 0.2802,-1.7875 11.6879,-96.96252 25.3504,-211.50002 l 24.8408,-208.25 h 47.7614 47.7614 l 0.489,2.25 c 0.4424,2.03531 45.591,418.22912 45.5616,420.00002 -0.01,0.4125 -14.3729,0.75 -31.9246,0.75 h -31.9121 l -0.5789,-3.75 c -0.3185,-2.0625 -3.0643,-26.025 -6.102,-53.25002 -3.0377,-27.225 -5.7812,-51.1875 -6.0969,-53.25 l -0.5738,-3.75 h -19.393 c -19.3024,0 -19.3953,0.011 -19.8734,2.25 -0.2642,1.2375 -3.2174,25.875 -6.5627,54.75 -3.3453,28.87502 -6.2963,53.51252 -6.5578,54.75002 l -0.4754,2.25 h -31.1118 -31.1118 z m 109.7433,-170.00002 c 0,-2.3375 -0.8911,-17.975 -1.9693,-34.75 -1.0782,-16.775 -2.8664,-45.8 -3.9737,-64.5 -2.646,-44.684 -6.0476,-85.75163 -7.2055,-86.99164 -1.8422,-1.97288 -2.5067,1.74751 -3.7093,20.76851 -1.8079,28.59424 -10.9633,158.40733 -11.5999,164.47313 l -0.551,5.25 h 14.5088 14.5087 z m -1241.6648,-315.7731 c -5.7813,-1.1726 -9.4988,-3.27032 -13.135,-7.41172 -6.1466,-7.00059 -6.1914,-7.54703 -6.1914,-75.56854 0,-69.63941 -0.1752,-67.8741 7.4964,-75.54572 5.6204,-5.62036 12.4099,-7.85903 23.5036,-7.74979 13.8164,0.13606 21.8007,4.1964 26.7646,13.61088 2.7015,5.12367 2.7394,5.45762 3.0553,26.93799 l 0.3199,21.75 h -12.0699 -12.0699 v -19.80887 c 0,-22.48816 -0.2509,-23.39113 -6.5,-23.39113 -4.59,0 -6.1598,1.69691 -7.017,7.58503 -0.3295,2.26323 -0.4605,29.1556 -0.2911,59.7608 0.2939,53.08078 0.3959,55.74283 2.2131,57.75 2.3949,2.64536 7.6631,2.79133 9.94,0.27543 1.4276,-1.57751 1.655,-4.6685 1.655,-22.5 v -20.67126 h -5.0362 -5.0362 l 0.2862,-9.75 0.2862,-9.75 16.75,-0.27418 16.75,-0.27418 v 41.02418 41.02418 h -5.8834 c -6.3829,0 -7.0704,-0.70177 -7.103,-7.25 -0.018,-3.70363 -0.9599,-3.39017 -4.5136,1.50271 -5.0783,6.992 -15.0215,10.58047 -24.1736,8.72419 z m 188.1355,-6.2269 c 0.633,-3.72281 18.5381,-154.10902 18.5381,-155.70231 0,-0.69204 6.1952,-1.04716 18.25,-1.04614 l 18.25,0.002 8.3514,77.74845 c 4.5933,42.76165 8.5832,78.77522 8.8664,80.03016 l 0.5149,2.28172 -12.3443,-0.28172 -12.3443,-0.28171 -1.1662,-10 c -0.6414,-5.5 -1.7221,-15.0625 -2.4016,-21.25 l -1.2354,-11.25045 h -7.3514 c -8.7126,0 -7.523,-2.61606 -10.4571,22.99637 -1.1654,10.173 -2.3285,18.8355 -2.5847,19.25 -0.2561,0.41449 -5.6346,0.75363 -11.952,0.75363 h -11.4863 z m 41.1033,-68 c -0.3331,-3.9875 -1.2783,-18.275 -2.1005,-31.75 -1.5206,-24.91881 -2.3463,-33.45175 -3.1585,-32.63957 -0.3726,0.37261 -5.1886,64.135 -5.2788,69.88957 -0.023,1.46106 0.8948,1.75 5.5579,1.75 h 5.5853 z m 181.1015,70.58333 c -0.3667,-0.36666 -0.6667,-36.36666 -0.6667,-80 v -79.33333 h 12 12 v 69 69 h 14.5 14.5 v 11 11 h -25.8333 c -14.2084,0 -26.1334,-0.3 -26.5,-0.66667 z m 200.3333,-79.33333 v -80 h 26 26 v 10.47254 10.47255 l -14.25,0.27745 -14.25,0.27746 v 20 20 l 14.25,0.27746 14.25,0.27745 v 10.47255 10.47254 h -14.5161 -14.516 l 0.266,27.25 0.2661,27.25 14.25,0.27746 14.25,0.27745 v 10.97255 10.97254 h -26 -26 z m 199,-0.0859 v -80.08593 l 21.25,0.33593 c 20.5077,0.32421 21.4459,0.42778 26.857,2.96513 11.4841,5.38507 14.2941,13.14203 13.6635,37.71707 -0.4879,19.01652 -1.3016,21.8846 -7.7826,27.43207 -2.2394,1.91686 -6.1903,4.05474 -8.7798,4.75085 -5.9156,1.59027 -7.5821,2.97082 -3.5862,2.97082 4.7055,0 11.8267,2.81507 14.6952,5.80909 5.051,5.27213 5.6793,9.23209 5.7226,36.06664 0.037,22.9508 1.0494,34.91942 3.4153,40.37427 0.6999,1.61385 -0.2142,1.75 -11.7502,1.75 h -12.5092 l -1.289,-3.25 c -0.922,-2.32447 -1.3825,-11.79336 -1.6171,-33.25 -0.1804,-16.5 -0.5564,-31.02646 -0.8356,-32.28102 -0.6529,-2.93424 -6.0317,-6.21044 -10.2039,-6.21524 l -3.25,-0.004 v 37.5 37.5 h -12 -12 z m 35.1392,-16.82356 c 2.291,-1.85305 2.3702,-2.41961 2.6786,-19.16162 0.1749,-9.48867 0.057,-18.29194 -0.2621,-19.56282 -0.9944,-3.96225 -4.4851,-6.3661 -9.2443,-6.3661 h -4.3114 v 23.5 23.5 h 4.3892 c 2.829,0 5.2284,-0.67877 6.75,-1.9095 z m 179.8608,16.90946 v -80 h 12 12 v 80 80 h -12 -12 z m 173.9626,78.25 c -0.021,-0.9625 4.142,-36.96243 9.25,-79.99985 l 9.2874,-78.24984 18.25,-1.6e-4 c 13.7139,-1.1e-4 18.25,0.30369 18.25,1.22228 0,0.67234 3.825,36.41282 8.5,79.42329 4.675,43.01046 8.5,78.46037 8.5,78.77756 0,0.3172 -5.3796,0.57672 -11.9547,0.57672 h -11.9547 l -0.5344,-3.25 c -0.2939,-1.7875 -1.2233,-9.775 -2.0653,-17.75 -0.8419,-7.975 -1.7864,-16.1875 -2.0988,-18.25 l -0.5679,-3.75 h -7.3508 -7.3509 l -0.5792,4.25 c -0.728,5.34147 -4.5433,37.39989 -4.5433,38.17537 0,0.31604 -5.175,0.57463 -11.5,0.57463 -10.2715,0 -11.504,-0.18695 -11.5374,-1.75 z m 41.0374,-64.40448 c 0,-8.40199 -4.3503,-67.63477 -5.0558,-68.83841 -0.699,-1.19247 -0.8897,-1.03977 -0.9138,0.73147 -0.047,3.4877 -3.8948,58.07009 -4.5472,64.51142 l -0.5825,5.75 h 5.5496 c 5.0157,0 5.5497,-0.20732 5.5497,-2.15448 z m -1236.5,-158.31778 c -24.666,-3.45326 -44.1598,-13.25217 -43.3067,-21.76885 0.4358,-4.35049 3.9387,-6.47675 13.6906,-8.31037 25.192,-4.73674 56.4607,-20.3325 92.1029,-45.93771 17.6438,-12.67527 36.3713,-27.5746 76.0132,-60.4751 42.1654,-34.99486 55.5644,-45.77256 73,-58.71898 57.3462,-42.581084 99.8679,-61.402734 139,-61.526464 20.35,-0.0643 31.1475,3.69211 43.2453,15.04501 13.3584,12.53581 24.5731,33.807604 28.2926,53.664724 2.5722,13.73232 0.6889,25.34107 -4.3717,26.94725 -1.0206,0.32394 -5.8631,-0.42293 -10.761,-1.65971 -7.6878,-1.94129 -11.5026,-2.24812 -27.9052,-2.24453 -17.0122,0.004 -20.1508,0.27784 -30,2.62001 -29.6492,7.05067 -61.7337,23.86166 -98.9156,51.8277 -7.1964,5.41274 -26.1344,20.53679 -42.0844,33.60901 -47.0463,38.55795 -60.4135,47.80275 -83.5724,57.79886 -32.6217,14.08056 -64.8511,20.7245 -99.4215,20.49528 -8.8033,-0.0584 -20.0561,-0.67313 -25.0061,-1.36613 z m 610.1584,-66.09672 c -27.2196,-4.23391 -59.1618,-17.17741 -78.8433,-31.94867 -27.8215,-20.88032 -50.6131,-57.69346 -73.3545,-118.48235 -2.572,-6.875004 -14.0082,-40.625004 -25.4137,-75.000004 -23.0526,-69.47797 -31.7563,-92.51749 -45.5218,-120.5 -29.882,-60.744296 -64.2829,-92.691666 -110.5251,-102.642286 -8.9872,-1.9339 -13.3816,-2.2527 -30.5,-2.21263 -11,0.0257 -22.1269,0.50606 -24.7265,1.06737 -2.5996,0.56131 -4.5119,0.67328 -4.2496,0.24883 0.8662,-1.40145 15.7978,-9.76686 26.4761,-14.83313 52.3383,-24.83177 104.9002,-25.45042 157.4641,-1.85335 39.5052,17.73476 66.606,46.24604 90.5145,95.2252 12.653,25.920936 23.4792,54.843526 37.9932,101.499996 20.6505,66.38272 24.4684,78.25915 30.5393,95 32.5312,89.705444 69.6779,131.428494 125.9933,141.515334 14.6552,2.62495 43.6495,2.0651 59.4956,-1.14879 3.3057,-0.67047 -8.9448,7.30972 -20.1846,13.1486 -19.5248,10.14271 -42.9469,17.89893 -63.3154,20.96686 -12.412,1.86951 -39.6671,1.8427 -51.8416,-0.051 z m -661.6624,-37.68102 c 0,-1.2375 -2.0107,-25.17893 -4.4634,-53.20318 -2.4528,-28.02425 -4.3635,-51.02716 -4.2461,-51.11759 0.1174,-0.0904 4.2635,-2.7586 9.2135,-5.9293 18.8803,-12.093684 39.0268,-26.918864 107.5,-79.106094 72.0721,-54.93012 110.1706,-77.03645 151,-87.61636 26.3575,-6.82988 60.1962,-4.1548 94,7.43107 41.7287,14.30204 73.6442,44.0046697 91.8582,85.48927 5.8392,13.29953 5.9663,13.96014 1.9615,10.19903 -17.5361,-16.46926 -39.5793,-29.13336 -59.1845,-34.0023303 -10.5017,-2.60811 -31.4512,-3.57721 -42.74,-1.9771 -34.0927,4.8324103 -70.7109,23.1905103 -119.3952,59.8573903 -15.657,11.79214 -25.826,19.9726 -73.5,59.126794 -63.4466,52.10804 -103.0452,77.33939 -140.8073,89.71926 -5.6691,1.85853 -10.5066,3.37914 -10.75,3.37914 -0.2435,0 -0.4445,-1.0125 -0.4467,-2.25 z m 755.225,-27.84049 c -22.269,-4.67629 -41.2225,-15.64401 -55.2598,-31.97705 -8.2474,-9.59608 -8.9223,-10.75331 -3.9045,-6.69428 9.4879,7.67491 24.5224,12.70894 38.0623,12.74446 46.2058,0.12121 114.1209,-44.48109 187.5046,-123.141024 l 10.8764,-11.65838 10.0335,1.32491 c 11.8212,1.56095 21.4551,3.92642 26.4065,6.48373 8.6921,4.48926 14.3521,13.86794 19.5291,32.35996 4.3988,15.71219 4.774,14.52017 -8.0593,25.60444 -17.2898,14.933264 -33.3017,27.078914 -53.4098,40.513274 -45.8728,30.64796 -85.2331,48.13667 -122.8494,54.58492 -15.2223,2.60943 -36.1074,2.54755 -48.9296,-0.14496 z m 291.113,-48.19495 c -7.67,-4.30086 -14.708,-22.32615 -25.4285,-65.126164 -9.9894,-39.88121 -13.3404,-48.86265 -21.4755,-57.55978 -10.002,-10.6930003 -22.0406,-14.1547203 -64.43,-18.5270503 -54.4811,-5.61955 -71,-10.5642097 -71,-21.2527397 0,-9.55894 12.8551,-20.44217 56.9718,-48.23264 34.539,-21.75722 41.0014,-27.13021 46.7411,-38.861706 2.2589,-4.61711 2.8007,-7.25243 3.1187,-15.17 0.4554,-11.33817 -0.439,-17.71212 -6.3125,-44.98448 -6.4904,-30.13725 -8.6329,-43.14454 -9.2239,-56 -0.8576,-18.65195 1.7899,-23.94552 11.3223,-22.63895 9.991,1.36941 24.4129,11.09443 58.8825,39.70581 26.3412,21.86441 33.9446,27.22393 43.3128,30.5306 15.3126,5.40484 26.7059,1.98943 62.1872,-18.64208 24.4142,-14.19628 48.3561,-26.50487 56.8648,-29.2344 7.4429,-2.3876 15.5689,-2.28727 18.0794,0.22324 6.7205,6.72052 2.9477,23.04724 -17.0472,73.77082 -16.0338,40.67494 -17.9964,49.3615 -14.031,62.102326 3.543,11.38369 10.5897,19.87875 33.134,39.94424 20.9161,18.61637 44.6244,42.2654197 48.8128,48.6907797 8.5231,13.0752803 6.1713,19.4798903 -8.3128,22.6377703 -8.2834,1.80598 -38.5119,1.53273 -67,-0.60566 -59.2479,-4.4473 -64.9259,-0.83402 -90.5741,57.63798 -22.5424,51.391674 -34.1617,67.440694 -44.5919,61.592084 z M -2628.8827,37.631536 c -10e-5,-0.45736 -2.6895,-31.4315603 -5.9765,-68.83156 -3.2871,-37.4 -6.0995,-69.753576 -6.2499,-71.896836 l -0.2735,-3.89683 13.5,-4.85219 c 32.9825,-11.85463 77.3097,-24.26709 111.5,-31.22212 133.6988,-27.19718 240.8052,-12.20022 297.0776,41.59657 5.2259,4.995986 10.9463,10.909206 12.712,13.140466 l 3.2104,4.05685 -6,-4.88714 c -7.3836,-6.01411 -28.2978,-16.275896 -42.8539,-21.026756 -5.9697,-1.94838 -16.5447,-4.75812 -23.5,-6.24386 -11.847,-2.53065 -14.2258,-2.70001 -37.6461,-2.68028 -22.9756,0.0194 -26.0932,0.23663 -38.5,2.68317 -57.5229,11.34311 -104.3301,35.583046 -204.8592,106.089926 -47.1866,33.09468 -72.1407,49.6881 -72.1409,47.97059 z"
       id="path1" />
  </g>
</svg>
