<svg
   version="1.1"
   id="svg1"
   width="527.55493"
   height="417.96484"
   viewBox="0 0 527.55493 417.96484"
   xmlns="http://www.w3.org/2000/svg"
   xmlns:svg="http://www.w3.org/2000/svg">
  <defs
     id="defs1" />
  <g
     id="g1"
     transform="translate(1039.5148,187.57268)">
    <path
       style="fill:#000000"
       d="m -824.56709,228.20777 c -1.43938,-1.43937 -1.89983,-3.49503 -1.41864,-6.33333 0.39183,-2.31125 2.22044,-13.75583 4.06357,-25.43241 1.84313,-11.67658 4.0346,-22.05366 4.86994,-23.06018 1.03808,-1.25082 3.87786,-1.70548 8.97225,-1.43652 l 7.45347,0.39351 5.26052,15.76073 5.26052,15.76073 4.54031,-14.4274 c 2.49717,-7.93507 5.1534,-15.1774 5.90274,-16.09406 0.77581,-0.94906 4.37931,-1.66667 8.36924,-1.66667 3.99487,0 7.58849,0.71643 8.35999,1.66667 1.35293,1.66635 8.33487,43.97896 8.31644,50.4 -0.0128,4.44385 -2.30962,6.6 -7.03075,6.6 -7.54274,0 -8.53287,-1.52379 -10.37312,-15.96405 -0.93707,-7.35311 -2.05675,-13.36434 -2.48816,-13.3583 -0.43142,0.006 -2.8844,6.45604 -5.45106,14.33333 l -4.66667,14.32235 -4.78079,0.40075 c -3.01046,0.25235 -5.38774,-0.33058 -6.41987,-1.57422 -0.9015,-1.08624 -3.40925,-8.12568 -5.57277,-15.6432 -2.16353,-7.51753 -4.13472,-13.86925 -4.38041,-14.11495 -0.2457,-0.24569 -1.23166,5.91562 -2.19103,13.6918 -1.02091,8.27501 -2.52563,14.91985 -3.62829,16.0225 -2.53811,2.53812 -10.33072,2.38963 -12.96743,-0.24708 z m 80.50611,0.009 c -1.49238,-1.79821 -0.57536,-5.71328 6.01189,-25.66666 10.99901,-33.31703 9.39637,-31.06939 21.81858,-30.59975 l 10.27068,0.38829 8.8914,26.1917 c 8.14321,23.98771 8.72589,26.42801 6.9244,28.99999 -1.94426,2.77582 -7.26991,3.70156 -11.64226,2.02373 -1.12451,-0.43151 -2.72812,-2.85577 -3.56358,-5.38723 l -1.51901,-4.60267 -10.19769,0.38724 c -8.98602,0.34123 -10.25536,0.70408 -10.68312,3.0539 -0.26699,1.46667 -1.41649,3.71667 -2.55444,5 -2.64893,2.98735 -11.34216,3.12098 -13.75685,0.21146 z m 32.58146,-25.54479 c -0.49711,-2.01667 -1.90985,-6.64918 -3.13943,-10.29447 l -2.2356,-6.62779 -2.88597,9.50144 c -1.58729,5.2258 -2.88598,9.85831 -2.88598,10.29447 0,0.43616 2.71143,0.79302 6.0254,0.79302 5.90339,0 6.0071,-0.0743 5.12158,-3.66667 z m 39.93931,25.71512 c -7.35619,-3.19942 -8.41962,-7.21829 -8.41962,-31.81898 0,-25.04655 0.0995,-25.28631 10.22974,-24.64009 l 6.43693,0.41062 0.36935,20.57345 c 0.22263,12.40061 0.94957,21.27257 1.82993,22.33333 0.92128,1.11008 4.50184,1.75988 9.69731,1.75988 4.62858,0 8.93763,0.70089 9.83674,1.6 2.53529,2.53529 1.94395,8.78877 -0.97901,10.35309 -3.76048,2.01255 -23.97614,1.61432 -29.00137,-0.5713 z m 43.00895,-0.14369 c -1.72369,-1.72369 -2.09524,-5.74315 -2.09524,-22.66667 v -20.57143 h -5.73333 c -3.15333,0 -6.45333,-0.72 -7.33333,-1.6 -2.36774,-2.36773 -2.01415,-9.95577 0.50905,-10.92401 1.15997,-0.44513 11.37284,-0.80932 22.69525,-0.80932 h 20.5862 l 1.51877,3.33333 c 1.13614,2.49355 1.13614,4.17313 0,6.66667 -1.32651,2.91137 -2.36631,3.33333 -8.21402,3.33333 h -6.69525 v 21.28642 c 0,19.68066 -0.19455,21.39055 -2.57901,22.66667 -3.81269,2.04049 -10.26822,1.67587 -12.65909,-0.71499 z m 31.50477,0.49524 c -0.88,-0.88 -1.6,-2.62716 -1.6,-3.88258 0,-3.1992 15.63349,-49.13591 17.47909,-51.35972 1.0115,-1.21878 4.54668,-1.82437 10.64993,-1.82437 8.6189,0 9.24286,0.20747 11.02744,3.66667 2.95917,5.736 16.84354,46.28849 16.84354,49.19542 0,3.91062 -2.64404,5.80458 -8.10341,5.80458 -5.38848,0 -7.21545,-1.48855 -8.60061,-7.00746 -0.9034,-3.59942 -1.08861,-3.65921 -11.33459,-3.65921 h -10.41618 l -0.88098,4.01109 c -0.48454,2.2061 -1.99277,4.6061 -3.35162,5.33333 -3.38849,1.81347 -9.77279,1.66207 -11.71261,-0.27775 z m 31.80193,-23.06667 c 0.11426,-2.14103 -4.63442,-18.00133 -5.38528,-17.98649 -0.80377,0.0159 -6.51958,18.37245 -5.91043,18.9816 1.07298,1.07298 11.23311,0.17791 11.29571,-0.99511 z m -242.25768,-49.93839 c -12.46582,-2.97266 -20.49633,-13.25356 -20.44831,-26.17856 0.0723,-19.46707 10.94605,-28.54952 34.1802,-28.54952 9.17025,0 11.3605,0.3986 12.049,2.19281 1.43371,3.73619 -3.31363,5.80719 -13.31182,5.80719 -16.38618,0 -23.60336,6.11538 -23.60336,20 0,13.29666 7.13253,20 21.28054,20 h 6.70949 l 0.0204,-9 c 0.0237,-10.42826 1.06542,-12.73855 5.4637,-12.11666 3.06291,0.43307 3.19702,0.91868 3.56769,12.91761 0.24857,8.04665 -0.16391,13.12919 -1.16326,14.33333 -1.69155,2.0382 -17.13329,2.40876 -24.74429,0.5938 z m 35.56325,-0.008 c -1.66452,-1.0527 -1.28848,-2.90443 2.50045,-12.31291 2.45278,-6.09064 5.25607,-12.87388 6.22954,-15.07388 0.97346,-2.2 4.11855,-9.4 6.98909,-16 2.87054,-6.6 6.02753,-12 7.01553,-12 2.18162,0 24.03646,49.48039 23.55664,53.33333 -0.23051,1.85098 -1.33168,2.66667 -3.59997,2.66667 -2.78027,0 -3.74267,-1.24341 -6.44997,-8.33333 l -3.1821,-8.33334 h -9.87008 -9.87009 l -3.92966,8.66667 c -3.87031,8.5358 -5.5202,9.8338 -9.38938,7.38679 z m 29.29249,-25.16029 c 0,-0.60876 -1.45324,-4.65876 -3.22942,-9 -2.64985,-6.47662 -3.40556,-7.41459 -4.21091,-5.2265 -0.53983,1.46667 -2.07783,5.51667 -3.41779,9 l -2.4363,6.33333 h 6.64721 c 3.65597,0 6.64721,-0.49807 6.64721,-1.10683 z m 33.85083,25.13341 c -1.54872,-0.62575 -4.11246,-2.78611 -5.69722,-4.8008 -2.73427,-3.47607 -2.86279,-4.82608 -2.51749,-26.44442 l 0.36388,-22.78136 3.18255,-0.44999 c 1.7504,-0.24749 3.69121,0.35251 4.31291,1.33334 0.62171,0.98083 1.13956,11.11332 1.15079,22.51665 0.0141,14.32369 0.51505,21.22797 1.62042,22.33334 0.97203,0.97203 5.69819,1.6 12.04185,1.6 10.99797,0 13.92478,1.70247 10.34406,6.01698 -1.84352,2.2213 -19.76819,2.71004 -24.80175,0.67626 z m 41.99721,0.36925 c -1.91691,-0.29587 -5.08151,-2.20405 -7.03245,-4.24039 l -3.54717,-3.70244 0.36579,-23.2265 0.36579,-23.2265 h 18 18 v 3.33334 c 0,3.31518 -0.0748,3.3354 -13.7347,3.71406 l -13.7347,0.38073 0.40137,6.9526 0.40137,6.95261 10.65379,0.66666 c 9.07175,0.56767 10.72469,1.03893 11.13119,3.17357 0.71114,3.7343 -2.0797,4.78341 -12.78498,4.80602 l -9.66667,0.0204 v 7.06667 c 0,3.88667 0.72,7.78667 1.6,8.66667 1.01505,1.01505 6.13333,1.6 14,1.6 12.18994,0 12.4,0.054 12.4,3.19068 0,1.75487 -0.94907,3.55487 -2.10905,4 -2.24108,0.85998 -18.86618,0.77373 -24.70958,-0.12819 z m 38.37419,0.0486 c -0.48889,-0.48889 -0.88889,-13.08889 -0.88889,-28 v -27.11111 l 13.66666,0.0196 c 15.37402,0.0221 18.78492,1.1736 23.29332,7.86362 5.04146,7.48102 3.23766,16.83654 -4.30563,22.33145 l -3.42031,2.49152 6.18468,9.66672 c 6.02451,9.41636 6.83504,13.62704 2.62313,13.62704 -2.75611,0 -5.70565,-3.40176 -12.02175,-13.86488 l -5.31323,-8.80179 h -6.35344 -6.35343 v 9.73333 c 0,9.41589 -1.28127,12.93334 -4.71111,12.93334 -0.83111,0 -1.91111,-0.4 -2.4,-0.88889 z m 26.19876,-31.31066 c 5.65111,-2.97451 6.63729,-8.74212 2.24568,-13.13373 -2.15873,-2.15873 -4.44444,-2.66666 -12,-2.66666 h -9.33333 v 8.66666 8.66667 h 8.08765 c 4.44821,0 9.39821,-0.68982 11,-1.53294 z m 26.55004,31.10134 c -1.2992,-0.83894 -1.61094,-7.30704 -1.33333,-27.665 l 0.36231,-26.57007 3.69399,-0.42453 3.694,-0.42453 -0.36066,27.74047 c -0.30454,23.42311 -0.67194,27.79481 -2.36067,28.08953 -1.1,0.19198 -2.76304,-0.14366 -3.69564,-0.74587 z m 17.18185,-0.11237 c -2.52806,-1.60105 -1.7696,-4.06143 9.3421,-30.30518 9.75014,-23.028 12.22942,-27.368923 14.33202,-25.09371 1.43565,1.55351 22.83967,51.87483 22.83967,53.69657 0,1.96801 -3.96321,3.06605 -6.31538,1.74971 -1.14741,-0.64212 -3.3809,-4.39308 -4.96331,-8.33546 l -2.87712,-7.16796 -10.07311,-0.38614 -10.07311,-0.38614 -2.9765,7.95909 c -1.63708,4.3775 -3.86819,8.30126 -4.95804,8.71947 -2.40865,0.92429 -2.04664,0.96239 -4.27722,-0.45025 z m 26.70525,-30.45603 c -1.33996,-3.48333 -2.87797,-7.53333 -3.41779,-9 -0.80535,-2.18809 -1.56106,-1.25012 -4.21091,5.2265 -1.77618,4.34124 -3.22942,8.39124 -3.22942,9 0,0.60876 2.99124,1.10683 6.64721,1.10683 h 6.64721 z m -66.37596,-54.333333 c -1.08572,-2.82935 0.39884,-6 2.80932,-6 2.13101,0 2.61162,2.2971 1.23253,5.89095 -1.02207,2.66347 -3.04072,2.71793 -4.04185,0.10905 z m 12.4345,1.13889 c -1.64836,-1.64837 -0.96252,-6.77432 1.13984,-8.51912 3.14598,-2.61093 5.48304,0.36693 3.86997,4.93108 -1.30072,3.68033 -3.40816,5.18969 -5.00981,3.58804 z m -26.25,-1.6423 c 0,-0.64354 0.84659,-1.87267 1.8813,-2.73141 2.08944,-1.73408 4.22651,0.23633 2.78537,2.56815 -1.01541,1.64297 -4.66667,1.7707 -4.66667,0.16326 z m 37.33334,-3.49659 c 0,-1.1 0.6,-2 1.33333,-2 0.73333,0 1.33333,0.9 1.33333,2 0,1.1 -0.6,2 -1.33333,2 -0.73333,0 -1.33333,-0.9 -1.33333,-2 z m -21.06667,-14.26667 c -2.2455,-2.2455 -1.99128,-5.99283 0.71766,-10.57871 3.35934,-5.68691 7.54898,-4.76078 8.09279,1.78893 0.69828,8.41008 -4.25175,13.34849 -8.81045,8.78978 z m 13.22914,-0.10419 c -2.11173,-2.11173 -1.85603,-6.5215 0.5798,-9.99913 2.54189,-3.62906 4.08071,-3.74163 5.85398,-0.42824 0.92549,1.72928 0.91078,3.81442 -0.0462,6.55977 -1.5803,4.53325 -4.15993,6.0952 -6.38753,3.8676 z m -26.61771,-1.90074 c -1.81557,-3.39243 1.61309,-11.42279 4.62414,-10.83031 4.00584,0.78823 5.39913,4.70667 3.1186,8.77065 -2.48395,4.42647 -5.97855,5.35607 -7.74274,2.05966 z m 37.69891,0.51873 c -1.34114,-3.49494 -0.026,-8.19784 2.42299,-8.66461 1.79555,-0.34222 2.33334,0.46211 2.33334,3.48979 0,4.66852 -3.4925,8.46832 -4.75633,5.17482 z m -52.22334,-1.20272 c -1.83326,-2.27326 0.2672,-7.71108 2.97855,-7.71108 2.69457,0 4.13139,3.77184 2.45139,6.43521 -1.79467,2.84514 -3.78689,3.31325 -5.42994,1.27587 z m 61.2104,-1.4192 c 0.23976,-2.03946 1.03593,-3.55719 1.76927,-3.37273 1.55743,0.39175 1.03177,3.82229 -0.8807,5.74752 -0.87872,0.88458 -1.17778,0.0853 -0.88857,-2.37479 z m -18.64877,-12.99883 c -2.2377,-2.4019 -2.71273,-2.47703 -4.2152,-0.66667 -2.31915,2.79441 -5.81761,2.55873 -8.66127,-0.58347 -1.88136,-2.07889 -2.9192,-2.33224 -4.9975,-1.21996 -3.92697,2.10165 -8.86748,0.33397 -9.83443,-3.51868 -1.22241,-4.87046 0.5319,-12.30343 3.37357,-14.29382 2.38438,-1.67008 2.36499,-1.85962 -0.53513,-5.2312 -2.09093,-2.4308602 -3.57408,-3.1405802 -4.86057,-2.3258802 -8.70503,5.5126702 -16.49636,-9.02349 -8.85144,-16.51397 l 3,-2.9393998 -3.48639,-3.63751 c -3.45708,-3.60694 -3.50647,-3.61535 -5.87332,-1 -1.3128,1.45063 -4.07055,2.63752 -6.12833,2.63752 -3.84366,0 -9.17862,-4.40855 -9.17862,-7.58475 0,-2.4697 -0.75383,-2.20688 -4.54546,1.58475 -5.93495,5.93494 -14.60339,3.03895 -16.23532,-5.42398 -0.61291,-3.17843 -0.0206,-5.00356 2.65587,-8.18443 l 3.44469,-4.09378 -3.16998,-2.07705 c -2.72148,-1.78318 -3.52227,-1.81574 -5.6599,-0.23012 -2.10961,1.56486 -2.23535,2.26387 -0.82324,4.57673 2.90436,4.75694 2.02593,10.61183 -2.23077,14.86852 -5.49238,5.49239 -12.62382,4.77203 -17.24426,-1.74186 -1.77925,-2.50838 -1.83744,-2.50793 -3.61357,0.0278 -4.33159,6.18422 -17.12415,7.0898 -21.04648,1.48988 -1.86377,-2.6609 -1.91743,-2.65529 -6.89105,0.7199 -2.75696,1.87092 -5.64207,3.40168 -6.41135,3.40168 -0.76927,0 -0.0855,1.22337 1.5194,2.71861 3.85865,3.59488 3.74453,9.5052198 -0.27374,14.17672978 -2.52414,2.93449002 -4.33346,3.71072002 -8.64935,3.71072002 -10.37987,0 -13.71834,-9.64438 -5.79049,-16.7279098 l 4.14611,-3.70456 -4.50076,-2.65551 c -4.43438,-2.61635 -4.57363,-2.61836 -9.44205,-0.1363 -2.71771,1.38557 -5.60812,2.77926 -6.42313,3.0971 -0.84362,0.32899 -0.18976,1.53139 1.51816,2.79177 4.09151,3.01939 3.96589,9.2179998 -0.27273,13.45661978 -1.8,1.80000002 -4.35,3.34182002 -5.66667,3.42627002 -12.28382,0.78784 -16.38579,-7.4072 -7.77334,-15.5297898 l 4.6206,-4.35779 -3.2704,-0.82082 c -1.79872,-0.45145 -4.29639,-2.46129 -5.55038,-4.46631 -1.254,-2.00502 -2.39482,-3.82873 -2.53516,-4.05268 -0.14034,-0.22395 -1.82546,1.04812 -3.74471,2.82682 -6.94706,6.43832 -17.89085,5.42096 -22.08012,-2.05262 -1.85842,-3.31537 -1.82263,-4.03003 0.4094,-8.17466 1.34523,-2.49793 3.88559,-5.3122 5.64525,-6.25395 l 3.19939,-1.71226 -3.87351,-2.35562 c -2.13043,-1.29559 -4.47699,-3.43399 -5.21458,-4.75199 -1.28537,-2.29683 -1.44983,-2.29794 -3.95936,-0.0268 -7.00718,6.34141 -20.52842,4.9768 -22.34348,-2.25499 -2.74493,-10.93667 16.4265,-19.95648 24.18806,-11.38004 2.36889,2.61758 2.41247,2.61049 5.41194,-0.8802 2.79847,-3.25678 2.87172,-3.75116 0.983,-6.63372 l -2.04081,-3.11467 -4.23287,2.58098 c -11.96304,7.29446 -25.73481,-1.98354 -17.73634,-11.94892 0.82691,-1.03026 3.52804,-2.71946 6.0025,-3.75378 l 4.49901,-1.88058 -4.49901,-2.24622 c -3.81736,-1.90588 -4.49902,-2.94909 -4.49902,-6.88532 0,-3.774267 0.79826,-5.141367 4.28197,-7.333327 5.20286,-3.27365 5.30688,-3.84601 1.05137,-5.78496 -1.83334,-0.83532 -3.35158,-2.58163 -3.37388,-3.88068 -0.0385,-2.24188 -0.10962,-2.24334 -1.39961,-0.0286 -3.40505,5.84613 -16.43711,8.33843 -22.26317,4.2577 -3.96049,-2.77403 -3.73372,-5.35915 0.87434,-9.9672 3.6119,-3.61191 3.70168,-3.96076 1.5261,-5.92963 -2.11225,-1.91157 -2.79546,-1.8171 -7.92343,1.09564 -4.95881,2.81666 -5.28085,3.27416 -2.76745,3.93143 2.30687,0.60326 2.76404,1.58179 2.41909,5.17793 -0.36392,3.79391 -1.33242,4.88414 -6.70804,7.55116 -13.26027,6.57886 -24.20895,-2.50496 -12.80587,-10.62467 3.83158,-2.72833 3.86019,-2.83448 1.25538,-4.65896 -2.35839,-1.65188 -3.18725,-1.51298 -7.19305,1.20543 -3.52301,2.39078 -4.23763,3.532 -3.22095,5.14376 4.21492,6.68204 -7.86301,16.08126 -17.57902,13.68023 -6.58651,-1.62767 -7.18799,-5.88945 -1.57166,-11.13589 3.84311,-3.59 3.94725,-3.91782 1.49211,-4.69705 -3.7896,-1.20277 -9.97815,3.03344 -7.96866,5.45473 2.673,3.22077 0.15437,8.2389 -5.92263,11.80025 -7.27221,4.261797 -15.86543,4.599557 -18.57569,0.73012 -1.82617,-2.60722 -1.91122,-2.59317 -5.0756,0.838507 -5.9791,6.48414 -17.72463,9.35611 -21.18952,5.18118 -1.41547,-1.70553 -2.18604,-1.55111 -5.82993,1.16832 -8.93643,6.66923 -19.46336,7.25193 -19.57275,1.0834 -0.0381,-2.1464 -0.12288,-2.14511 -1.38511,0.0211 -2.12188,3.64144 -12.79906,9.34582 -15.74372,8.41123 -4.42513,-1.40449 -4.36101,-4.54284 0.19438,-9.51364 5.10367,-5.56907 14.92126,-7.967177 16.43777,-4.0152 0.73678,1.92 1.21758,1.79874 3.76445,-0.94938 1.60589,-1.73278 4.04508,-3.780247 5.42043,-4.549927 2.3031,-1.28888 2.33034,-1.56971 0.34483,-3.55522 -1.34593,-1.34593 -2.47216,-1.6439 -2.99794,-0.79318 -1.29338,2.09274 -10.88133,6.65784 -13.98327,6.65784 -4.19769,0 -4.77448,-3.67981 -1.17996,-7.52786 6.36505,-6.81398 14.54943,-9.11911 17.06189,-4.80547 0.74747,1.28333 1.37729,1.59185 1.39959,0.68558 0.0223,-0.90626 2.44525,-3.23911 5.38434,-5.1841 3.89665,-2.57868 4.97803,-3.97708 3.99317,-5.16376 -3.45538,-4.16348 11.02074,-13.6171 18.51806,-12.0932 3.67427,0.74683 15.17499,-5.12341 12.06715,-6.15935 -2.82715,-0.94239 1.12838,-6.43643 6.14232,-8.53138 5.47406,-2.28721 12.09513,-2.45289 13.4038,-0.33541 0.55404,0.89644 -0.60381,2.89601 -2.74182,4.73505 -4.48545,3.85821 -3.35178,5.78147 1.62715,2.76043 2.21022,-1.34109 3.59201,-3.35906 3.61277,-5.27612 0.0246,-2.26865 1.46942,-3.82879 5.36694,-5.79513 3.97029,-2.00305 5.23254,-3.38947 4.93895,-5.42483 -0.26928,-1.8669 0.70217,-3.23374 3.06274,-4.30928 3.80323,-1.73287 9.05273,-2.0763 10.44566,-0.68337 1.4159,1.4159 -3.24468,5.7627 -6.32067,5.89512 -1.98481,0.0854 -1.58136,0.47145 1.39382,1.33358 3.19915,0.92703 5.51113,0.62058 9.79798,-1.2987 3.08595,-1.38162 4.84377,-2.76771 3.90628,-3.08021 -2.62488,-0.87496 -0.41378,-4.94233 3.49454,-6.42827 1.89986,-0.72232 5.55923,-1.31332 8.13193,-1.31332 3.71123,0 4.58613,0.47515 4.23472,2.29984 -0.2436,1.26492 -1.82712,2.98995 -3.51893,3.83341 l -3.07603,1.53357 3.28748,0.82511 c 4.01731,1.00828 13.00291,-2.31762 9.69302,-3.58775 -5.12134,-1.96524 0.24862,-6.73583 9.19517,-8.16887 3.8214,-0.6121 6.08931,-0.27018 8,1.2061 2.65185,2.04892 2.64985,2.07464 -0.35973,4.62792 -2.87633,2.44022 -2.90046,2.60752 -0.48655,3.37366 1.39693,0.44337 4.09831,0.096 6.00309,-0.77183 3.04181,-1.38594 3.2047,-1.76698 1.33868,-3.13145 -1.93967,-1.41832 -1.93391,-1.74414 0.0662,-3.74423 2.65543,-2.65543 10.19447,-4.23009 14.7629,-3.08349 3.90741,0.9807 4.55688,5.34517 1.00877,6.7789 -2.09684,0.84731 -2.04241,1.05526 0.53702,2.05173 3.20348,1.23755 8.46298,0.28579 8.46298,-1.53146 0,-0.6478 -0.6,-1.17783 -1.33333,-1.17783 -0.73334,0 -1.33334,-1.17591 -1.33334,-2.61314 0,-5.54693 18.54796,-7.094 20.6105,-1.7191 0.51829,1.35065 0.027,2.8768 -1.21938,3.7882 -1.82525,1.33466 -1.8424,1.72961 -0.13655,3.14534 1.09423,0.90813 3.19254,1.22491 4.77882,0.72144 2.74441,-0.87104 2.75636,-0.97675 0.40446,-3.57558 -2.36177,-2.60973 -2.32176,-2.75944 1.5693,-5.87262 2.19607,-1.75704 3.24285,-3.1976 2.32619,-3.20125 -0.91667,-0.004 -1.66667,-1.20662 -1.66667,-2.67329 0,-2.25156 0.88208,-2.66348 5.66667,-2.64625 3.11666,0.0112 6.54281,0.5746 7.61365,1.25194 1.67537,1.05971 1.62024,1.59255 -0.39514,3.81953 -2.25528,2.49205 -2.21624,2.6196 1.05302,3.44013 3.95607,0.99291 4.63682,5.3476 1.0618,6.79221 -2.04137,0.82489 -1.93378,1.09656 0.85991,2.17117 1.75628,0.67557 4.40401,0.84402 5.88385,0.37434 2.4135,-0.76601 2.46226,-0.98176 0.47343,-2.09477 -2.81223,-1.57381 -2.87943,-5.9022 -0.10814,-6.96564 5.89231,-2.26109 16.55762,0.73699 16.55762,4.65444 0,1.39493 -0.6,2.53624 -1.33334,2.53624 -2.41359,0 -1.39088,2.2124 1.66667,3.60545 1.85606,0.84563 4.22335,0.91425 6.20825,0.17995 3.03152,-1.1215 3.07467,-1.28454 0.78336,-2.96 -6.26284,-4.57949 3.35994,-8.53209 9.79632,-4.02387 2.89855,2.03022 2.93564,2.25896 0.75669,4.66666 -2.02188,2.23416 -2.04303,2.53181 -0.17984,2.53181 3.62002,0 6.61529,4.09968 5.8373,7.98962 -0.49902,2.49507 0.0599,4.21288 1.87698,5.7687 3.348,2.86664 3.30787,7.09571 -0.0845,8.91128 l -2.67217,1.4301 2.67217,2.86823 c 3.58834,3.85163 3.36466,6.96047 -0.73269,10.18344 -3.34975,2.63491 -3.36079,2.70184 -0.68241,4.13526 5.72769,3.06537 4.68201,10.92616 -1.771,13.31328 -2.37821,0.87976 -2.23007,1.19715 1.62037,3.47166 5.91396,3.49346 6.27506,10.106907 0.80092,14.668517 l -3.28823,2.74008 3.13723,2.94727 3.13722,2.94727 2.43202,-2.68736 c 1.33762,-1.47804 3.29237,-2.68735 4.3439,-2.68735 1.34096,0 0.91562,-1.18399 -1.42434,-3.96487 -3.8706,-4.59995 -3.4579,-8.50517 1.22295,-11.572177 3.81807,-2.50169 10.26963,-1.36033 13.81375,2.443827 2.48612,2.66853 2.48718,2.66851 5.27454,-0.11886 1.79453,-1.794517 4.4962,-2.787917 7.5821,-2.787917 5.37172,0 12.53916,4.361787 12.53916,7.630767 0,1.89916 0.24973,1.88986 2.43832,-0.0908 7.50146,-6.788727 20.99025,2.36211 15.60253,10.58481 -1.88199,2.87227 -1.80341,3.32476 1.07763,6.2058 2.69895,2.69896 3.58895,2.91089 6.76766,1.6116 l 3.66004,-1.49604 -3.51545,-2.30341 c -2.91735,-1.91152 -3.44586,-3.14043 -3.10642,-7.22308 0.36862,-4.43366 0.82187,-4.9598 4.58818,-5.32597 7.21053,-0.70104 13.04597,9.70292 7.41475,13.21968 -2.23977,1.39876 -2.13483,1.7739 1.51795,5.42668 2.76768,2.76769 4.34114,3.50696 5.33943,2.50867 2.48069,-2.4807 8.2887,-1.55219 11.46947,1.83359 2.45294,2.61103 3.5111,2.96242 5.38913,1.78957 3.14325,-1.96299 6.19047,-0.59128 9.01905,4.05995 1.94196,3.19329 2.74402,3.60252 4.6743,2.38493 3.78601,-2.38815 6.93183,0.57883 7.40677,6.9857 0.37519,5.06135 0.13868,5.53087 -2.78598,5.53087 -2.18644,0 -3.71952,-1.14904 -4.85339,-3.63761 -1.52323,-3.34313 -1.76837,-3.43931 -3.02824,-1.18805 -2.09069,3.73586 1.14664,9.15727 4.42156,7.40458 2.92589,-1.56589 7.46469,0.81721 8.64615,4.53967 0.51866,1.63414 1.63925,2.23391 3.34189,1.78866 3.40368,-0.89008 6.51468,2.41511 6.51468,6.92132 0,5.66991 -2.58073,7.38367 -6.11668,4.06182 -1.80757,-1.69813 -3.26287,-2.22765 -3.78783,-1.37823 -1.35243,2.18828 2.26988,6.82117 5.33326,6.82117 2.62648,0 4.5262,2.50034 6.48703,8.538 0.80842,2.48922 0.85974,2.48948 2.67035,0.0133 1.76465,-2.4133 1.92051,-2.36134 3.53311,1.17792 1.44651,3.17475 1.36251,4.0270998 -0.58917,5.9787798 -2.14602,2.14603 -2.32093,2.10509 -3.05864,-0.71592 -0.92205,-3.5259098 -2.51482,-3.8728498 -3.69235,-0.80426 -1.42105,3.70321 0.44767,7.35902 3.29908,6.45402 1.82401,-0.57892 3.1889,0.24247 4.89246,2.94427998 1.29949,2.06096002 3.26271,3.74719002 4.36271,3.74719002 1.21192,0 2.17242,1.50882 2.43757,3.8291 0.53291,4.6633602 -1.53726,7.2446102 -4.10267,5.1155202 -1.35241,-1.12241 -2.17126,-0.84618 -3.42026,1.1538 -1.2988,2.07969 -2.17505,2.34431 -4.19074,1.26555 -3.56016,-1.90534 -4.05723,-1.74 -4.05723,1.34961 0,2.2847 0.41426,2.49187 2.62115,1.31078 2.15615,-1.15394 2.99487,-0.83243 4.72776,1.81229 1.42606,2.17645 2.94833,2.99497 4.71218,2.53371 2.26404,-0.59206 2.60557,0.0167 2.60557,4.64421 0,5.94234 -2.52525,9.26018 -5.09339,6.69204 -1.19549,-1.19549 -2.0159,-0.95275 -3.48707,1.03172 -1.67616,2.26098 -2.29394,2.36875 -4.79939,0.83728 -2.43371,-1.48763 -3.23065,-1.43641 -5.18619,0.33333 -2.97025,2.68804 -3.48597,2.63932 -6.51866,-0.61589 z m -11.74709,-19.34352 c 0.45309,-1.18074 -0.0763,-2.3817 -1.24819,-2.83138 -2.63856,-1.01251 -3.52628,-0.0475 -2.47542,2.69102 1.05581,2.75139 2.69791,2.81329 3.72361,0.14036 z m -13.45203,-27.43335 c -2.25041,-2.25041 -4.92458,-0.10883 -2.9041,2.3256998 1.11575,1.3444 2.03385,1.5122 2.99808,0.54797 0.96423,-0.96424 0.93545,-1.8442298 -0.094,-2.8736698 z m -29.50336,-23.84951 c 0.87194,0 0.17301,-1.50336 -1.55318,-3.34081 l -3.13852,-3.3408 -3.00245,2.82065 c -2.88604,2.71129 -2.91943,2.99476 -0.8612,7.31093 l 2.14126,4.49026 2.41437,-3.97011 c 1.3279,-2.18357 3.12778,-3.97012 3.99972,-3.97012 z m 15.91291,-0.9581 c -2.51425,-3.49876 -2.70161,-3.53009 -6.03394,-1.00921 -2.52305,1.90866 -2.51177,2.01506 0.56031,5.28514 2.9751,3.16685 3.24917,3.21841 5.36728,1.00972 2.04991,-2.13758 2.05859,-2.56898 0.10635,-5.28565 z m 14.54094,2.71615 c 0,-1.69492 -0.3711,-1.77659 -1.98532,-0.4369 -1.09193,0.90622 -1.65047,2.18947 -1.2412,2.85168 1.05187,1.70196 3.22652,0.0744 3.22652,-2.41478 z m -77.06138,-7.35276 c -2.25516,-2.25516 -6.05315,1.54283 -4.80236,4.80236 0.83731,2.18197 1.09602,2.15266 3.66381,-0.41513 2.17191,-2.17191 2.41545,-3.11033 1.13855,-4.38723 z m -85.14135,2.38366 c 2.92811,-4.46887 0.31292,-6.71918 -5.46704,-4.70428 l -4.06453,1.41691 2.86715,3.10842 c 3.69714,4.00827 4.14742,4.02036 6.66442,0.17895 z m 59.53606,-0.88469 c 0,-1.07886 -4.27859,-3.90426 -5.91235,-3.90426 -1.32054,0 -0.81103,3.40996 0.74149,4.96248 1.59093,1.59093 5.17086,0.8583 5.17086,-1.05822 z m -28.16252,-1.10894 c 1.01062,-0.64011 1.43281,-1.81864 0.93819,-2.61894 -0.95567,-1.54631 -6.10901,0.82497 -6.10901,2.81102 0,1.35709 2.89475,1.24957 5.17082,-0.19208 z m 132.01458,-13.73841 c -0.99181,-1.85322 -1.85904,-2.24993 -2.81929,-1.28968 -1.97143,1.97143 -0.22881,5.68555 2.22567,4.74368 1.5862,-0.60868 1.71508,-1.35854 0.59362,-3.454 z m -16.056,-3.55465 c -0.97397,-1.55957 -2.18609,-2.83559 -2.6936,-2.83559 -1.86865,0 -2.60412,5.52394 -0.99382,7.46423 1.43788,1.73255 1.91851,1.74672 3.56028,0.10494 1.59271,-1.5927 1.61316,-2.3541 0.12714,-4.73358 z m -17.57638,1.46888 c 1.15292,-0.73349 1.06576,-1.65438 -0.33833,-3.57459 -1.405,-1.92145 -2.27844,-2.19946 -3.39672,-1.08117 -0.82796,0.82796 -1.14454,2.44571 -0.70352,3.595 0.87849,2.2893 2.06268,2.57231 4.43857,1.06076 z m -22.08128,-6.03274 c -1.71132,-1.71131 -3.44674,-0.38867 -2.17978,1.66131 0.49077,0.79409 1.50313,1.06628 2.24969,0.60489 0.91067,-0.56283 0.88766,-1.30862 -0.0699,-2.2662 z m -48.42499,-7.28371 c -1.23609,-1.4894 -1.80862,-1.46424 -3.42331,0.15045 -2.7521,2.7521 -0.9024,5.26651 2.37059,3.2225 1.93407,-1.20785 2.18427,-2.00952 1.05272,-3.37295 z m 49.42723,-10.84071 c 1.48751,-0.94256 1.39674,-1.77179 -0.513,-4.68642 -2.31139,-3.52761 -2.32774,-3.5306 -4.25636,-0.77711 -1.52794,2.18143 -1.59618,3.17364 -0.32374,4.70683 1.85306,2.23281 2.59061,2.34239 5.0931,0.7567 z m -24.152,-7.91523 c -0.84072,-1.96097 -1.64347,-3.75178 -1.78387,-3.97955 -0.1404,-0.22778 -1.71545,1.04603 -3.5001,2.83068 l -3.24483,3.24483 3.41631,2.07289 c 4.70928,2.85742 7.24008,0.79374 5.11249,-4.16885 z m -106.95108,2.39308 c 2.12011,-2.3427 2.19298,-2.95005 0.53998,-4.50056 -1.60474,-1.50525 -2.73821,-1.41605 -7.07497,0.55676 l -5.1641,2.34917 3.83076,2.00996 c 5.11452,2.68354 5.06135,2.68635 7.86833,-0.41533 z m 62.54276,-1.15211 c 0.40573,-0.65649 -0.13964,-1.53029 -1.21195,-1.94177 -2.08356,-0.79954 -3.86298,0.863 -2.44323,2.28275 1.20534,1.20535 2.79091,1.05743 3.65518,-0.34098 z m -213.95556,-21.806377 c 0.0657,-1.56865 -4.30294,-1.08385 -7.82587,0.86845 -3.00678,1.66627 -3.05166,1.85759 -0.73927,3.15167 1.84155,1.03058 3.22543,0.82367 5.49253,-0.82121 1.66689,-1.2094 3.04956,-2.64891 3.07261,-3.19891 z m 155.30357,2.28593 c 4.0818,-3.08704 0.77743,-5.51126 -4.52082,-3.31666 -4.30985,1.7852 -5.16124,3.36987 -2.40751,4.48102 2.78818,1.12506 4.21917,0.88457 6.92833,-1.16436 z m 59.13478,0.90929 c 1.37666,-0.87328 1.29708,-1.45639 -0.38984,-2.85641 -2.39581,-1.98834 -5.63206,0.0311 -4.07841,2.54501 1.06296,1.7199 2.13056,1.7943 4.46825,0.3114 z M -916.23,-113.82812 c -0.88508,-0.54701 -3.22374,-0.0408 -5.19703,1.1248 -2.71221,1.60215 -3.22135,2.51164 -2.08625,3.72676 1.16185,1.24377 2.33753,0.98932 5.19703,-1.1248 2.56177,-1.894 3.2018,-3.03731 2.08625,-3.72676 z m 108.2943,-12.7662 c -2.07142,-1.45088 -3.12081,-1.36268 -6.43795,0.5411 -3.78308,2.17119 -3.86482,2.40488 -1.799,5.14359 l 2.16414,2.86906 4.27381,-3.41016 c 4.03419,-3.21896 4.13506,-3.50735 1.799,-5.14359 z m 80.04424,1.36432 c -1.5723,-1.10128 -3.7445,-1.66242 -4.82712,-1.24698 -1.67185,0.64155 -1.61232,1.12994 0.39517,3.24176 1.7421,1.83263 3.01134,2.16052 4.82712,1.24698 2.3451,-1.17985 2.32611,-1.3357 -0.39517,-3.24176 z m -208.22158,1.71162 c 2.07438,-1.14982 2.64941,-2.09074 1.65379,-2.70607 -0.83948,-0.51883 -3.10146,0.29566 -5.02661,1.80999 -3.87937,3.05151 -1.60561,3.6556 3.37282,0.89608 z m 153.83466,-0.01 c 2.01641,-1.53032 2.07826,-2.00603 0.43781,-3.36748 -2.67962,-2.22389 -8.01005,0.95609 -5.88822,3.51274 1.76447,2.12606 2.48285,2.10691 5.45041,-0.14526 z m 25.59494,-2.041 c 1.33592,-2.16156 -1.56705,-2.81843 -3.28858,-0.74412 -1.33968,1.61423 -1.25802,1.98532 0.4369,1.98532 1.14652,0 2.42977,-0.55854 2.85168,-1.2412 z m -155.2764,-2.7588 c 0,-0.73333 -0.26459,-1.33333 -0.58798,-1.33333 -0.32338,0 -0.95879,0.6 -1.41202,1.33333 -0.45322,0.7337 -0.18863,1.3337 0.58798,1.3337 0.77661,0 1.41202,-0.6 1.41202,-1.33334 z m 26.30556,-3.47222 c -0.44306,-0.44306 -1.59306,-0.49043 -2.55556,-0.10527 -1.06364,0.42564 -0.7477,0.74158 0.80556,0.80556 1.40555,0.0579 2.19305,-0.25724 1.75,-0.70029 z m 27.73429,-4.26572 c -1.02643,-1.02642 -6.05246,1.3055 -5.33073,2.4733 0.42522,0.68801 1.84545,0.52456 3.29206,-0.37886 1.39932,-0.87389 2.31672,-1.81638 2.03867,-2.09444 z m 25.78328,-0.77329 c 2.72917,-1.51316 2.85146,-1.86709 0.90341,-2.61463 -2.69951,-1.0359 -7.79472,1.3975 -6.68519,3.19276 1.01385,1.64044 1.94895,1.54694 5.78178,-0.57813 z m 102.64595,-3.24391 c -3.45728,-2.42157 -6.46953,-0.12522 -3.89886,2.97225 1.3077,1.57569 2.17763,1.67179 4.12492,0.45568 2.38028,-1.48651 2.37227,-1.60799 -0.22606,-3.42793 z m -75.30068,-0.51173 c -0.88741,-1.43587 -3.39846,-1.31224 -5.83506,0.28729 -1.70595,1.11988 -1.72349,1.49096 -0.1193,2.52388 2.07875,1.3385 7.06429,-1.01527 5.95436,-2.81117 z m 24.67444,1.72555 c 1.44006,-0.91205 1.19953,-1.37133 -1.10048,-2.10132 -3.30595,-1.04927 -4.78177,-0.24518 -3.46385,1.88726 1.0581,1.71204 2.12048,1.76186 4.56433,0.21406 z m 25.29952,0.0209 c 1.26107,-0.79906 1.36204,-1.4225 0.33333,-2.05827 -1.69123,-1.04524 -4.14235,0.13271 -4.14235,1.99071 0,1.55034 1.42889,1.57568 3.80902,0.0676 z m -125.18097,-8.09381 c 1.07876,-0.68223 1.51448,-1.68732 0.96825,-2.23355 -0.54622,-0.54622 -2.00741,0.0212 -3.2471,1.26084 -2.40984,2.40984 -0.96725,3.02561 2.27885,0.97271 z m 26.0746,-3.99384 c -0.43343,-0.70131 -1.66884,-0.93712 -2.74535,-0.52402 -2.75615,1.05763 -2.43137,1.79912 0.78805,1.79912 1.50995,0 2.39073,-0.5738 1.9573,-1.2751 z m 124.03582,-0.17441 c 1.29453,-2.09459 -1.23819,-4.12002 -3.88288,-3.10516 -1.75301,0.6727 -1.9152,1.27791 -0.72636,2.71038 1.84111,2.2184 3.39968,2.35189 4.60924,0.39478 z m -98.73847,-1.21716 c 0.45322,-0.73333 -0.076,-1.33333 -1.17596,-1.33333 -1.1,0 -2.37082,0.6 -2.82404,1.33333 -0.45323,0.73333 0.076,1.33333 1.17595,1.33333 1.1,0 2.37082,-0.6 2.82405,-1.33333 z m 26,-1.3973 c 0,-1.82121 -2.00223,-2.50406 -3.90115,-1.33046 -2.29768,1.42005 -0.61947,4.17718 1.94385,3.19354 1.07651,-0.41309 1.9573,-1.25148 1.9573,-1.86308 z m 24,-1.55467 c 0,-0.73333 -0.94907,-0.96914 -2.10905,-0.52401 -1.15998,0.44512 -2.39539,0.80931 -2.74536,0.80931 -0.34996,0 -0.28168,0.5738 0.15175,1.2751 0.95669,1.54795 4.70266,0.30499 4.70266,-1.5604 z m 25.33333,1.69733 c 0,-1.80049 -2.43058,-3.04865 -4.02175,-2.06525 -0.74529,0.46062 -1.00988,1.39603 -0.58797,2.07869 1.0009,1.61949 4.60972,1.60896 4.60972,-0.0134 z m 199.21234,184.753417 c -1.12963,-2.94374 0.37321,-4.44658 2.40989,-2.40989 1.20254,1.20254 1.20765,1.9479 0.0215,3.13406 -1.18616,1.18617 -1.76441,1.01394 -2.43138,-0.72417 z m -67.78376,-1.59402 c -3.06393,-3.06394 -2.5611,-8.22678 1.16405,-11.95193 7.34596,-7.34596 13.37969,3.73845 6.37635,11.71383 -2.53673,2.88883 -4.81764,2.96085 -7.5404,0.2381 z m -206.09525,-4.57143 c 0,-2.0082 0.69621,-2.72812 2.33334,-2.41284 1.28333,0.24715 2.33333,1.33293 2.33333,2.41284 0,1.07991 -1.05,2.16569 -2.33333,2.41284 -1.63713,0.31528 -2.33334,-0.40464 -2.33334,-2.41284 z m 29.84326,0.73898 c -1.11633,-2.90911 2.00861,-6.28408 5.37341,-5.80332 1.97396,0.28203 2.78334,1.36699 2.78334,3.73101 0,2.64689 -0.75664,3.42036 -3.67425,3.75596 -2.40677,0.27683 -3.95307,-0.30396 -4.4825,-1.68365 z m 31.04564,1.0388 c -0.48889,-0.48889 -0.88889,-2.27746 -0.88889,-3.9746 0,-2.16029 0.97695,-3.33091 3.25755,-3.9033 3.95465,-0.99255 6.07578,0.14048 6.07578,3.24548 0,4.20272 -5.73052,7.34635 -8.44444,4.63242 z m 29.23076,-2.61344 c -1.05835,-2.75801 1.44607,-5.83101 4.75212,-5.83101 3.21763,0 4.60678,3.41517 2.44747,6.01698 -2.18161,2.62868 -6.15894,2.52594 -7.19959,-0.18597 z m 98.36066,0.16415 c -1.1339,-2.95488 2.93422,-7.11396 4.96854,-5.07964 2.07492,2.07492 0.96056,6.30245 -1.80153,6.83438 -1.27713,0.24595 -2.70228,-0.54368 -3.16701,-1.75474 z m -68.28031,-1.92849 c 0.29333,-0.88 0.96833,-1.555 1.5,-1.5 1.59427,0.16492 1.28551,1.99372 -0.43333,2.56667 -0.88,0.29333 -1.36,-0.18667 -1.06667,-1.06667 z m 155.13334,-9.4 c -0.53221,-0.86113 -0.36765,-2.16569 0.36568,-2.89902 0.88889,-0.8888902 1.65589,-0.8114402 2.30098,0.23235 0.53221,0.86113 0.36765,2.16569 -0.36568,2.89902 -0.88889,0.88889 -1.65588,0.81144 -2.30098,-0.23235 z M -792.6265,3.9851368 c -5.87332,-1.18476 -7.83719,-8.43633 -3.66667,-13.53914 3.28651,-4.0211798 11.612,-5.1732498 15.03017,-2.0798598 3.26379,2.9536998 3.4158,8.8541498 0.30073,11.67324978 -3.12218,2.82553002 -8.3876,4.60670002 -11.66423,3.94575002 z m 154.26667,-0.57963 c -2.74446,-2.74446002 -1.94072,-10.01014 1.36334,-12.32439 1.62984,-1.1415898 3.42984,-2.0756098 4,-2.0756098 2.2307,0 6.36999,5.4974198 6.36999,8.4600198 0,5.85126 -7.84867,9.82464 -11.73333,5.93998 z m -187.50477,-1.82857 c -4.15466,-4.15466 -1.47465,-10.33911 5.20715,-12.0161298 7.94967,-1.99525 11.7031,6.2203698 5.18447,11.34792978 -4.19544,3.30013002 -7.54435,3.51547002 -10.39162,0.66820002 z m 119.2381,0.37826 c -4.74249,-2.38690002 -5.4081,-10.47887 -1.10959,-13.4896598 4.04368,-2.83231 9.51721,-2.69291 12.23628,0.31163 3.93449,4.3475598 2.53576,9.9668398 -3.22205,12.9443198 -4.49047,2.32211 -3.79601,2.30158 -7.90464,0.23371 z m 23.42857,-0.37826 c -2.36622,-2.36623002 -2.73601,-7.54944 -0.79707,-11.17238 3.41373,-6.3786098 14.70184,-3.5127098 14.70184,3.7326 0,7.26058 -9.17491,12.16964 -13.90477,7.43978 z m 23.23469,0.0911 c -0.91479,-1.10226002 -1.66326,-3.50041 -1.66326,-5.32923 0,-4.74367 2.67086,-7.3333298 7.56326,-7.3333298 7.19391,0 9.71051,5.4937298 5.36114,11.70332978 -2.426,3.46360002 -8.73658,4.00114002 -11.26114,0.95923002 z M -855.81958,0.50780678 c -3.60953,-4.34921998 4.58775,-10.01241998 8.63474,-5.96541998 1.6213,1.62129 1.59514,2.2931 -0.18845,4.83952998 -2.34104,3.34230002 -6.18192,3.85429002 -8.44629,1.12589 z m 297.42865,-8.23941998 c 0.60303,-2.8961498 2.96936,-3.0733698 3.51061,-0.26291 0.28107,1.45947 -0.3729,2.33333 -1.74617,2.33333 -1.28097,0 -2.01596,-0.86244 -1.76444,-2.07042 z m -294.1491,-15.1673598 c -3.19555,-3.53104 -1.5973,-7.73614 3.94479,-10.37898 4.13889,-1.9737 4.73085,-1.96072 7.99062,0.17516 2.19689,1.43946 3.23061,3.06243 2.74935,4.31657 -0.42418,1.10539 -0.77123,2.54532 -0.77123,3.19985 0,1.42389 -7.09324,5.25852 -9.72714,5.25852 -1.02276,0 -2.90663,-1.157 -4.18639,-2.57112 z m 29.3421,0.47588 c -6.79643,-6.79642 3.79595,-17.88665 13.75867,-14.40535 2.75513,0.96273 3.56367,2.21977 3.88413,6.03863 0.32835,3.91288 -0.27158,5.35477 -3.17981,7.64238 -4.23357,3.33012 -11.49361,3.69372 -14.46299,0.72434 z m -57.68706,-1.4309 c -0.99471,-2.59217 2.9459,-5.97136 5.72142,-4.9063 2.29279,0.87983 2.4145,3.355 0.2704,5.49911 -2.25739,2.25738 -5.00231,1.98581 -5.99182,-0.59281 z m 315.03576,-4.29491 c -0.57436,-0.92933 -0.68421,-2.04978 -0.24411,-2.48988 1.19328,-1.19328 2.49436,0.56174 1.84985,2.49526 -0.45164,1.3549 -0.76569,1.35385 -1.60574,-0.005 z m -281.79255,-17.06705 c -0.92507,-0.37269 -2.29328,-1.8199 -3.04047,-3.21603 -2.90287,-5.42407 4.64026,-13.22917 12.78515,-13.22917 3.99112,0 9.09708,4.79169 8.04036,7.54547 -0.42337,1.10328 -0.76976,2.56571 -0.76976,3.24984 0,0.68414 -1.95,2.43282 -4.33334,3.88597 -4.14649,2.52816 -9.08125,3.21453 -12.68194,1.76392 z m -179.33732,-1.24222 c -1.4924,-1.49242 0.6293,-4.53632 3.1619,-4.53632 2.8909,0 3.2414,1.41599 0.924,3.73334 -1.7764,1.77644 -2.893,1.99587 -4.0859,0.80298 z m 150.4734,-1.67418 c -2.52553,-4.0864 5.3093,-9.23397 9.41294,-6.18441 1.95771,1.45484 2.1636,2.32999 0.99846,4.24418 -1.59592,2.62192 -9.12315,4.02466 -10.4114,1.94023 z m 298.36137,-0.86214 c -0.42211,-1.1 -0.38123,-3.00652 0.0908,-4.23672 0.78679,-2.05033 1.03609,-2.05894 2.99165,-0.10339 2.19902,2.19903 1.6125,6.34011 -0.89799,6.34011 -0.77936,0 -1.76239,-0.9 -2.1845,-2 z m -427.74117,-1.87967 c -1.3049,-2.11149 0.8363,-5.61242 4.2194,-6.89867 5.9558,-2.26439 8.04129,2.32495 2.74292,6.03607 -3.34452,2.34259 -5.85532,2.65367 -6.96232,0.8626 z m 25.35236,-6.63592 c -1.12488,-1.8201 2.93475,-4.5535 5.37315,-3.6178 1.75598,0.67383 1.85471,1.20808 0.52039,2.81584 -1.83483,2.21083 -4.7755,2.61098 -5.89354,0.80196 z m -58.81196,-1.56842 c -1.0583,-1.7123 3.0791,-6.58265 5.5919,-6.58265 2.5688,0 2.2117,3.20815 -0.645,5.79335 -2.8491,2.57846 -3.7521,2.72253 -4.9469,0.7893 z m 17.349,-3.97462 c -2.2378,-3.6209 7.4745,-11.87636 11.9512,-10.15849 3.0628,1.17531 2.5656,3.27507 -1.8124,7.65302 -3.9312,3.93126 -8.5519,5.0731 -10.1388,2.50547 z m 22.36959,-3.49145 c -2.67479,-1.07871 -1.92339,-6.41125 1.33334,-9.46201 6.56335,-6.14827 14.33333,-6.67072 14.33333,-0.96378 0,2.85518 -6.65723,9.97587 -9.32658,9.97587 -0.61709,0 -1.92106,0.25247 -2.8977,0.56103 -0.97665,0.30857 -2.52572,0.25857 -3.44239,-0.11111 z m 156.00001,-1.1586 c -3.45937,-1.46032 -4.33334,-2.6021 -4.33334,-5.6612 0,-9.62006 16.80295,-15.51278 23.41158,-8.21032 6.83041,7.54751 -8.18929,18.46813 -19.07824,13.87152 z m -53.97315,-1.37558 c -1.55659,-1.55658 0.56537,-4.5824 3.21356,-4.5824 1.77264,0 2.4772,0.75076 2.17537,2.31802 -0.45478,2.36151 -3.86068,3.79264 -5.38893,2.26438 z m 25.71055,-1.16384 c -3.37845,-4.07078 3.38859,-9.83935 10.01423,-8.53664 1.26273,0.24828 2.92992,1.45829 3.70485,2.68891 3.10276,4.92729 -9.88759,10.4644 -13.71908,5.84773 z m 281.20352,-0.15642 c -1.20409,-1.45085 -1.28145,-2.45494 -0.26725,-3.46914 1.70886,-1.70886 4.32634,-0.3736 4.32634,2.207 0,2.84934 -2.17941,3.52701 -4.05909,1.26214 z m -13.88699,-3.65938 c -2.45559,-3.74771 -1.47927,-7.60276 1.92547,-7.60276 3.24695,0 5.64629,3.23769 5.12296,6.91299 -0.60027,4.21561 -4.48887,4.59615 -7.04843,0.68977 z m -373.09599,0.0639 c -1.71609,-4.78601 5.92349,-11.77817 12.37539,-11.32661 6.42439,0.44964 7.00498,4.68296 1.30057,9.48291 -4.45703,3.75034 -12.59874,4.84795 -13.67596,1.8437 z m 357.8055,-3.17981 c -3.14799,-4.00202 -3.30602,-4.98167 -1.38319,-8.57451 1.93477,-3.61515 5.93068,-3.20897 9.18965,0.93414 3.12178,3.9687 3.51547,7.20148 1.16344,9.55352 -2.58338,2.58338 -6.00737,1.8531 -8.9699,-1.91315 z m -330.80407,-1.20247 c -2.38137,-2.86937 -0.99322,-6.26406 3.9137,-9.57082 5.22443,-3.52075 6.7103,-3.71007 10.03549,-1.27863 2.98114,2.17986 1.84354,6.89034 -2.18471,9.04619 -5.60874,3.0017 -10.1874,3.70352 -11.76448,1.80326 z m -76.98717,-0.86772 c 0.8241,-2.47229 3.6945,-2.88234 3.6945,-0.52777 0,1.16111 -0.95,2.11111 -2.1112,2.11111 -1.1611,0 -1.8736,-0.7125 -1.5833,-1.58334 z m 16.0278,-0.73175 c -2.6822,-0.92343 -1.938,-3.5927 2.073,-7.43546 3.8968,-3.73345 10.92699,-4.94264 10.92699,-1.87946 0,4.71407 -8.55619,10.84484 -12.99999,9.31492 z m 89.48216,-5.01825 c -1.23008,-3.20555 0.33993,-5.56091 4.72589,-7.08986 3.3276,-1.16001 4.4927,-1.0189 6.27109,0.75949 2.02336,2.02336 1.92113,2.41046 -1.3885,5.25728 -4.08488,3.51367 -8.48343,4.00491 -9.60848,1.07309 z m 28.16589,-2.87575 c -3.57783,-3.57784 1.02221,-8.45758 7.9728,-8.45758 4.33693,0 5.74561,3.31509 2.7944,6.57614 -2.96199,3.27297 -8.42166,4.22698 -10.7672,1.88144 z m 26.78052,-1.21948 c -2.83948,-2.83948 -2.63377,-5.29917 0.70319,-8.40802 3.68085,-3.429227 8.21359,-4.473037 12.44237,-2.865257 5.82191,2.213487 3.76243,9.394047 -3.41162,11.894937 -5.63813,1.96546 -7.24975,1.86253 -9.73394,-0.62166 z m 27.61132,0.79554 c -4.55017,-1.9238 -5.34013,-7.49921 -1.62314,-11.45577 8.21445,-8.743877 26.18644,-5.411517 22.55728,4.18257 -2.20557,5.83065 -14.35901,10.05315 -20.93414,7.2732 z m 232.45858,-3.41744 c -1.02709,-2.67656 3.05374,-4.27725 4.61568,-1.81049 1.80245,2.84659 1.45964,3.86096 -1.30483,3.86096 -1.3882,0 -2.87809,-0.92271 -3.31085,-2.05047 z m -14.0902,-4.47619 c -1.98864,-3.71581 1.48569,-6.388907 4.45047,-3.42413 1.1777,1.1777 2.14126,2.99841 2.14126,4.04603 0,2.79582 -5.01589,2.3226 -6.59173,-0.6219 z m -380.67567,-2.69991 c -0.8537,-1.381407 5.42844,-6.773427 7.89165,-6.773427 3.16194,0 3.34731,1.8584 0.48885,4.90108 -2.97497,3.166707 -7.0217,4.070827 -8.3805,1.872347 z m 363.25266,-1.467647 c -1.72902,-3.23071 -0.7134,-5.30578 2.59684,-5.30578 3.13192,0 5.93568,3.39419 4.94225,5.983017 -1.11535,2.90656 -5.84866,2.48136 -7.53909,-0.677237 z m -18.35525,-2.04805 c -3.38684,-2.37224 -3.93129,-6.96999 -0.96036,-8.11004 5.69491,-2.18534 13.32667,4.17366 9.92629,8.27087 -2.06379,2.486707 -5.2681,2.429227 -8.96593,-0.16083 z m -18.49077,-1.5138 c -6.91258,-1.35213 -8.68241,-8.76577 -2.62735,-11.00569 7.183,-2.65716 15.17598,5.93423 9.42989,10.13588 -1.3483,0.9859 -2.78678,1.71084 -3.19662,1.61097 -0.40983,-0.0999 -2.0325,-0.43339 -3.60592,-0.74116 z m -25.83569,-5.49994 c -2.57638,-2.08623 -2.76995,-2.83733 -1.39384,-5.40862 2.29057,-4.27997 10.6713,-3.56216 12.98947,1.11255 1.16354,2.34632 1.22073,3.77098 0.20074,5 -2.0615,2.48395 -8.32077,2.11044 -11.79637,-0.70393 z m -289.01329,-5.78332 c 0.32856,-0.9867 1.66676,-2.00131 2.97378,-2.25468 1.52002,-0.29466 2.16113,0.18584 1.77902,1.33334 -0.32856,0.9867 -1.66676,2.0013 -2.97378,2.25467 -1.52002,0.29466 -2.16112,-0.18583 -1.77902,-1.33333 z m 17.14084,-3.00953 c -2.90871,-3.50478 10.34774,-11.22785 13.63309,-7.9425 1.45754,1.45754 -1.6519,5.71538 -5.70418,7.81089 -4.81905,2.49203 -5.9543,2.51088 -7.92891,0.13161 z m 315.16377,-2.23398 c -0.49272,-0.79723 -0.37311,-1.97225 0.26579,-2.61115 1.57691,-1.57691 5.0475,0.71856 3.89814,2.57825 -1.16473,1.88457 -3.01052,1.89915 -4.16393,0.0329 z m -20.29819,-1.95943 c -3.66331,-2.56588 -3.8168,-5.47382 -0.34704,-6.57508 3.0785,-0.97708 8.05036,1.34771 8.05036,3.76426 0,1.71824 -2.574,4.88642 -3.96999,4.88642 -0.42349,0 -2.10349,-0.93402 -3.73333,-2.0756 z m -23.29668,-1.3537 c -7.83307,-4.24951 -2.77887,-12.32618 6.11693,-9.7749 7.36821,2.11317 9.42706,5.80307 5.4545,9.77563 -2.59988,2.59989 -6.77823,2.59962 -11.57143,-7.3e-4 z m -259.34001,-10.23737 c 0.65243,-1.98111 6.34,-3.08937 6.34,-1.23538 0,1.29309 -3.07898,2.90205 -5.55349,2.90205 -0.73447,0 -1.0884,-0.75 -0.78651,-1.66667 z m 281.34001,-2.44392 c -4.04072,-1.53118 -3.9205,-5.22274 0.17008,-5.22274 1.74354,0 3.85094,0.82039 4.6831,1.82309 2.19965,2.65041 -0.97036,4.871 -4.85318,3.39965 z m -263.41699,-0.81875 c -1.61704,-2.61643 4.99992,-7.07066 10.50378,-7.07066 2.4145,0 2.48846,3.19606 0.11946,5.16216 -2.48597,2.06317 -9.724,3.36351 -10.62324,1.9085 z m 240.75033,-1.05848 c -8.65209,-3.76056 -3.47017,-11.69427 5.66825,-8.67832 5.49799,1.8145 7.46565,6.29571 3.90697,8.89788 -2.98355,2.18163 -4.11013,2.15579 -9.57522,-0.21956 z m -228.98657,-11.32376 c -0.9834,-1.59117 0.26476,-4.02175 2.06525,-4.02175 1.6224,0 1.63293,3.60882 0.0134,4.60972 -0.68266,0.42191 -1.61807,0.15732 -2.07869,-0.58797 z m 247.78,-0.74592 c -0.43424,-1.13163 -0.44129,-2.40575 -0.0157,-2.83139 1.3454,-1.3454 4.88889,0.71816 4.88889,2.84704 0,2.6614 -3.85069,2.64903 -4.87323,-0.0157 z m -21.93629,-2.08536 c -2.50096,-2.50095 -2.58923,-3.02981 -0.80374,-4.8153 1.65447,-1.65447 2.82651,-1.73492 6.69162,-0.45932 5.11828,1.68918 6.88794,4.25118 4.55078,6.58834 -2.37389,2.37389 -7.38123,1.74371 -10.43866,-1.31372 z m -207.19306,-1.19464 c -1.44416,-2.3367 2.01812,-5.32917 6.16584,-5.32917 2.1102,0 3.83674,0.52654 3.83674,1.17008 0,2.9719 -8.54135,6.52341 -10.00258,4.15909 z m 226.89147,-6.21806 c -1.53418,-1.53417 -0.97099,-3.11111 1.11111,-3.11111 1.1,0 2,0.9 2,2 0,2.0821 -1.57693,2.64529 -3.11111,1.11111 z m -20.87774,-3.076 c -1.51703,-0.9591 -1.61927,-1.62699 -0.43096,-2.8153 2.04691,-2.0469 8.41981,-0.42796 8.41981,2.13893 0,2.22802 -4.88093,2.64126 -7.98885,0.67637 z m -197.09449,-1.45177 c 0.32084,-0.9625 1.37084,-2.0125 2.33334,-2.33334 1,-0.33333 1.5,0.16667 1.16666,1.16667 -0.32083,0.9625 -1.37083,2.0125 -2.33333,2.33333 -1,0.33334 -1.5,-0.16666 -1.16667,-1.16666 z m 21.08334,-5.25 c 0,-0.73334 1.2,-1.33334 2.66666,-1.33334 1.46667,0 2.66667,0.6 2.66667,1.33334 0,0.73333 -1.2,1.33333 -2.66667,1.33333 -1.46666,0 -2.66666,-0.6 -2.66666,-1.33333 z m 21.33333,-3.33334 c 0,-1.33333 1.33333,-2 4,-2 4.27427,0 5.37327,1.8544 1.89095,3.19069 -3.5732,1.37116 -5.89095,0.9027 -5.89095,-1.19069 z m 152.66085,0.65725 c -1.04568,-1.69194 2.68693,-3.21772 4.75099,-1.94206 1.12341,0.6943 1.05057,1.2613 -0.26948,2.09773 -2.38363,1.51034 -3.47529,1.47242 -4.48151,-0.15567 z m -17.89533,-1.16026 c -1.77896,-0.49713 -3.45432,-1.5634 -3.72302,-2.36949 -0.74649,-2.23949 3.2336,-3.20999 7.114,-1.73466 2.87279,1.09223 3.18546,1.65687 1.82517,3.29593 -0.90284,1.08784 -1.71805,1.91809 -1.81159,1.84499 -0.0935,-0.0731 -1.62559,-0.53964 -3.40456,-1.03677 z m -113.43219,-2.01911 c 0,-2.27888 6.56271,-4.11517 8.34335,-2.33453 2.06783,2.06783 -0.17187,4.18999 -4.42203,4.18999 -2.46096,0 -3.92132,-0.691 -3.92132,-1.85546 z m 22.89523,-1.7181 c 0.31354,-1.65406 1.87269,-2.56219 4.89806,-2.85288 3.68684,-0.35426 4.36025,-0.0157 3.97816,2 -0.31354,1.65405 -1.87269,2.56218 -4.89806,2.85288 -3.68685,0.35425 -4.36025,0.0157 -3.97816,-2 z m 65.11787,0.256 c -1.32812,-1.60029 -1.25528,-2.13445 0.37648,-2.76061 3.92583,-1.50648 10.90218,-0.0261 11.36394,2.4115 0.36051,1.90309 -0.52933,2.33333 -4.82582,2.33333 -3.03731,0 -5.96512,-0.84016 -6.9146,-1.98422 z m -43.7751,-1.60023 c 0.61286,-3.18234 11.09534,-3.57494 11.09534,-0.41555 0,1.40632 -1.71583,2.12336 -5.78027,2.41555 -4.97738,0.35783 -5.71565,0.08 -5.31507,-2 z m 66.42867,-4.41555 c 0,-0.73333 0.6,-1.33333 1.33334,-1.33333 0.73333,0 1.33333,0.6 1.33333,1.33333 0,0.73334 -0.6,1.33334 -1.33333,1.33334 -0.73334,0 -1.33334,-0.6 -1.33334,-1.33334 z m -83.07486,-0.85264 c -1.06524,-1.06524 0.13891,-3.14736 1.82022,-3.14736 0.69005,0 1.25464,0.9 1.25464,2 0,2.06189 -1.57328,2.64894 -3.07486,1.14736 z m 62.07486,-0.81402 c 0.30556,-0.91667 1.35556,-1.66667 2.33334,-1.66667 0.97778,0 2.02778,0.75 2.33333,1.66667 0.33048,0.99145 -0.61481,1.66666 -2.33333,1.66666 -1.71852,0 -2.66382,-0.67521 -2.33334,-1.66666 z m -41.66666,-1 c 0,-0.73334 1.2,-1.33334 2.66666,-1.33334 1.46667,0 2.66667,0.6 2.66667,1.33334 0,0.73333 -1.2,1.33333 -2.66667,1.33333 -1.46666,0 -2.66666,-0.6 -2.66666,-1.33333 z m 21.26755,-0.58741 c 0.87675,-1.05641 2.45021,-1.59222 3.4966,-1.19069 3.13175,1.20177 2.15337,3.11143 -1.59408,3.11143 -2.89278,0 -3.22132,-0.33168 -1.90252,-1.92074 z"
       id="path1" />
  </g>
</svg>
