<svg id="GALERIAOLIMP" width="500" height="150.70493" viewBox="0 0 500 150.70493" version="1.1" xml:space="preserve" xmlns:xlink="http://www.w3.org/1999/xlink" xmlns="http://www.w3.org/2000/svg" xmlns:svg="http://www.w3.org/2000/svg">
	<path id="GALERIAOLIMP" style="fill:#000000;stroke:#000000;stroke-width:0" d="M 40.647086,148.30234 C 24.743109,144.02855 9.7402299,132.49885 3.5757077,119.81299 -0.50824098,111.40871 -1.2293292,93.238624 2.1152792,83.01305 7.5035647,66.539306 19.916524,53.808874 37.23085,46.999332 c 12.844778,-5.051698 34.618985,-5.002435 49.586663,0.112212 21.034017,7.187592 31.160817,22.767568 31.195057,47.993275 0.0217,15.956251 -3.93029,26.389131 -13.6906,36.142171 -16.407265,16.39506 -41.310116,23.0653 -63.674884,17.05535 z M 71.751308,123.14218 C 79.592725,118.01012 84.327814,99.72801 81.430388,85.771256 78.044709,69.462455 65.05754,62.312778 51.095842,69.071519 39.049571,74.903017 32.919936,93.221204 37.432329,109.90434 c 2.01141,7.43651 8.883744,15.12105 14.611928,16.33884 5.435995,1.15566 15.66171,-0.4534 19.707051,-3.101 z m 302.606522,22.51887 c -1.15266,-2.77413 -5.51765,-14.06418 -9.69998,-25.089 -4.18232,-11.0248 -8.17506,-19.85264 -8.87272,-19.61739 -0.69765,0.23525 -7.8607,10.54151 -15.91788,22.90281 l -14.6494,22.47508 -9.22512,-14.62813 c -5.07381,-8.04547 -11.66256,-18.47258 -14.64165,-23.17136 l -5.41655,-8.543244 -7.30874,24.138634 c -4.0198,13.27624 -8.03346,24.3802 -8.91924,24.67546 -2.94638,0.98213 -27.41375,-9.23218 -26.91988,-11.23814 1.42454,-5.78617 38.31197,-98.097743 39.21352,-98.132709 0.59028,-0.02291 8.63195,12.317321 17.87039,27.422713 9.23843,15.105392 17.23019,27.457914 17.75945,27.450052 0.52928,-0.0078 8.37768,-18.683667 17.44092,-41.50177 9.06323,-22.818103 16.94668,-40.996991 17.51874,-40.397515 1.11235,1.165603 41.78066,118.303339 42.48411,122.367799 0.28965,1.6735 -4.05719,4.50186 -14.10076,9.17494 l -14.51948,6.75564 z M 130.06434,97.458906 V 45.668991 h 17.2633 17.2633 v 38.450088 38.450091 h 16.47861 16.47861 v 8.43548 c 0,4.63951 -0.44139,10.64243 -0.98087,13.33982 l -0.98087,4.90435 h -32.76105 -32.76103 z m 83.17773,0.784695 V 47.238382 h 16.47861 16.47861 v 51.005219 51.005219 h -16.47861 -16.47861 z m 200.8821,0 V 47.238382 h 16.36505 c 20.04076,0 37.95554,2.368133 48.90432,6.46459 9.75777,3.650844 18.84611,12.89798 20.30158,20.656235 2.00802,10.703688 -6.14595,27.823673 -17.30632,36.336103 -6.43797,4.91048 -24.03084,13.44027 -27.72444,13.44201 -6.73775,0.003 -7.58297,1.50894 -7.58297,13.50897 v 11.60253 h -16.47861 -16.47861 z m 47.85182,-2.622939 c 4.24736,-5.047681 5.2233,-13.229985 2.24238,-18.799881 -1.56376,-2.921924 -10.15683,-7.61092 -13.94779,-7.61092 -1.01483,0 -1.6198,6.417022 -1.6198,17.181665 v 17.181664 l 4.69356,-1.63618 c 2.58146,-0.89991 6.4657,-3.742264 8.63165,-6.316348 z M 24.92632,32.183242 C 16.153971,28.379053 12.359984,23.921777 12.359984,17.419946 c 0,-6.601504 3.881214,-11.0582925 12.918492,-14.8343109 6.837116,-2.85673176 23.653191,-3.19408813 31.030037,-0.6224991 l 5.182099,1.806495 -5.196428,4.2411075 C 51.663209,11.790367 50.45732,12.089304 45.212288,10.757974 34.397879,8.0129827 25.426218,16.137439 32.00597,22.717191 c 2.764451,2.764467 13.311232,3.541191 13.311232,0.98032 0,-0.863165 -2.103534,-1.569391 -4.674526,-1.569391 -4.416613,0 -4.57589,-0.216482 -2.886864,-3.923478 1.67046,-3.666287 2.542728,-3.923479 13.306179,-3.923479 h 11.518516 v 9.23331 c 0,8.248627 -0.37656,9.334222 -3.53113,10.179606 -6.927451,1.856496 -28.567522,0.898336 -34.123057,-1.510837 z m 39.652415,1.322965 c 0.337733,-0.647373 4.752054,-8.415861 9.80959,-17.263305 L 83.583844,0.15664095 h 10.463666 10.46367 l 8.85309,15.57495405 c 4.86921,8.56624 8.85311,16.334727 8.85311,17.263305 0,1.017279 -3.74276,1.688351 -9.41635,1.688351 -7.32382,0 -9.41635,-0.523141 -9.41635,-2.354087 0,-1.808802 -2.0108,-2.354087 -8.680897,-2.354087 -6.26862,0 -8.93194,0.654169 -9.584258,2.354087 -0.673818,1.755945 -3.476186,2.354087 -11.029102,2.354087 -5.569173,0 -9.849437,-0.52967 -9.511688,-1.177044 z M 96.87196,15.850555 c -0.902699,-2.589496 -2.209327,-4.708174 -2.903626,-4.708174 -0.694283,0 -2.000911,2.118678 -2.903609,4.708174 -1.577521,4.525277 -1.464744,4.708174 2.903609,4.708174 4.368354,0 4.481146,-0.182897 2.903626,-4.708174 z m 28.4842,1.569391 V 0.15664095 h 9.35034 9.35034 l 0.45836,12.11466605 0.45835,12.114649 7.41649,-0.460412 c 9.60557,-0.596306 10.8454,0.259436 8.81486,6.084216 l -1.62919,4.673491 h -17.10976 -17.10979 z m 40.80417,0 V 0.15664095 h 17.10979 17.10977 l 1.64128,4.70817415 1.64127,4.7081741 h -9.3347 c -5.17688,0 -9.33471,0.6990228 -9.33471,1.5693918 0,0.863165 2.8249,1.569391 6.27756,1.569391 5.92882,0 6.27757,0.261555 6.27757,4.708174 0,4.446604 -0.34875,4.708174 -6.27757,4.708174 -3.45266,0 -6.27756,0.706226 -6.27756,1.569391 0,0.871876 4.18505,1.569392 9.41635,1.569392 9.69827,0 10.74698,0.858802 7.79174,6.380737 -1.45456,2.717872 -3.42576,3.035611 -18.8327,3.035611 h -17.20809 z m 42.71205,0.468636 0.44621,-16.94724536 15.31458,-0.44933245 c 17.48366,-0.51298695 27.02024,1.47113181 29.51984,6.14167191 2.30406,4.3051859 0.72746,9.9343729 -3.28365,11.7241849 -3.17736,1.417773 -3.14622,1.57873 1.49163,7.709651 2.6052,3.443904 4.75637,6.791322 4.78038,7.438695 0.024,0.647374 -4.1326,1.177044 -9.23692,1.177044 -9.05168,0 -9.39745,-0.158932 -14.01983,-6.444392 l -4.73926,-6.444392 -0.49703,6.052044 -0.49704,6.052044 -9.86256,0.468636 -9.86257,0.468621 z m 27.48738,-3.19889 c 0.48431,-1.262089 -0.10515,-2.918833 -1.30986,-3.681667 -4.0544,-2.5672419 -6.11391,-1.5141646 -6.11391,3.126212 0,3.850313 0.50992,4.427896 3.27161,3.70571 1.79939,-0.470551 3.66786,-1.888167 4.15216,-3.150255 z m 24.30331,3.122602 0.44544,-16.87095736 9.024,-0.47067617 L 279.15651,0 v 17.341618 17.341633 h -9.46944 -9.46944 z m 21.66918,15.693913 c 0.0204,-0.647373 4.11471,-8.239304 9.09863,-16.870957 l 9.06168,-15.69391336 h 10.83647 10.83648 L 331.22719,16.63525 c 4.98393,8.631653 9.07832,16.223584 9.09864,16.870957 0.0202,0.647374 -4.22257,1.177044 -9.42865,1.177044 -6.96612,0 -9.70415,-0.62162 -10.36896,-2.354087 -0.64533,-1.681697 -3.27285,-2.354087 -9.19919,-2.354087 -5.92632,0 -8.55386,0.67239 -9.19917,2.354087 -0.66481,1.732467 -3.40284,2.354087 -10.36896,2.354087 -5.20608,0 -9.44897,-0.52967 -9.42865,-1.177044 z m 32.92026,-13.497989 c 0,-0.302783 -0.80579,-2.86199 -1.79063,-5.687129 -1.84882,-5.3035231 -2.90571,-4.7521018 -5.18754,2.706509 -0.92561,3.025504 -0.50335,3.531131 2.94895,3.531131 2.21607,0 4.02922,-0.247729 4.02922,-0.550511 z" />
</svg>
