<svg
   version="1.1"
   id="svg1"
   width="195.7211"
   height="75.784668"
   viewBox="0 0 195.7211 75.784668"
   xmlns="http://www.w3.org/2000/svg"
   xmlns:svg="http://www.w3.org/2000/svg">
  <defs
     id="defs1" />
  <g
     id="g1"
     transform="translate(-352.39714,-13.430056)">
    <path
       style="fill:#000000"
       d="m 398.71824,88.417298 c -3.53886,-1.506518 -1.74101,-3.671799 1.97355,-2.376896 1.61888,0.564344 3.04191,0.561504 4.54262,-0.0091 1.85213,-0.70418 2.14705,-1.227285 1.93455,-3.431355 -0.21463,-2.226198 -0.82554,-2.888395 -4.24418,-4.600515 -4.73411,-2.370934 -6.44006,-5.155614 -5.18336,-8.460977 1.17471,-3.089731 3.05946,-4.286005 6.77682,-4.30133 3.83795,-0.01582 5.60882,0.943025 4.94354,2.676706 -0.40169,1.046798 -0.84294,1.114884 -2.45758,0.379207 -2.83163,-1.290179 -5.95963,-0.275507 -6.56311,2.128966 -0.62468,2.488901 0.60015,4.029917 4.12863,5.194419 5.28096,1.742873 7.56946,7.403978 4.51695,11.173666 -1.62155,2.002525 -7.36823,2.904384 -10.36843,1.627175 z m 15.05215,-0.559173 c 0.0287,-0.802263 1.76333,-6.138659 3.85477,-11.858659 5.2697,-14.412419 5.8264,-14.404255 10.9057,0.159929 2.11763,6.072039 4.00962,11.490071 4.2044,12.040071 0.20534,0.579796 -0.30314,0.999999 -1.21008,0.999999 -1.08544,0 -1.95397,-0.99215 -2.83748,-3.241358 l -1.27324,-3.241359 -4.58021,0.241359 c -4.44709,0.234344 -4.60749,0.322738 -5.51893,3.041359 -1.00818,3.007179 -3.63524,4.384587 -3.54493,1.858659 z m 12.74785,-8.103322 c 0,-0.354565 -0.77956,-2.953059 -1.73235,-5.774431 l -1.73235,-5.129769 -1.35061,3.974431 c -2.82146,8.302727 -2.93313,7.574432 1.1614,7.574432 2.00965,0 3.65391,-0.290099 3.65391,-0.644663 z m 10.4,-2.555337 c 0,-15.308864 0.45919,-15.464385 8.8,-2.98041 l 5.99999,8.98041 0.2262,-9 c 0.18284,-7.274603 0.45123,-9 1.4,-9 0.97957,0 1.1738,1.985714 1.1738,12 0,10.246949 -0.17912,11.999999 -1.22612,11.999999 -0.68163,0 -3.96776,-4.17427 -7.39999,-9.399999 l -6.17388,-9.4 -0.22539,9.4 c -0.18294,7.629585 -0.44662,9.399999 -1.4,9.399999 -0.98061,0 -1.17461,-1.981942 -1.17461,-11.999999 z m 22.79137,11.066008 c -0.24202,-0.630702 -0.33909,-5.988568 -0.21571,-11.906369 l 0.22433,-10.759639 h 6.18312 c 5.68076,0 6.36199,0.178969 8.3846,2.202776 1.92124,1.92238 2.23748,2.940714 2.48437,7.999999 0.48404,9.919316 -1.71287,12.543317 -11.06175,13.212226 -4.35735,0.311767 -5.65403,0.149871 -5.99896,-0.748993 z m 12.40862,-3.866008 c 1.29524,-1.295238 1.6,-2.666667 1.6,-7.2 0,-7.164473 -1.33816,-8.8 -7.2,-8.8 h -4 v 8.8 8.8 h 4 c 2.93334,0 4.42667,-0.426667 5.6,-1.6 z m 9.1641,3.79492 c -0.22702,-0.591604 -0.31181,-5.91748 -0.18843,-11.835281 l 0.22433,-10.759639 6.2,-0.233651 c 5.78552,-0.218032 6.2,-0.124439 6.2,1.4 0,1.463351 -0.50037,1.633651 -4.8,1.633651 h -4.8 v 3.2 3.2 h 4 c 3.46667,0 4,0.213333 4,1.6 0,1.386666 -0.53333,1.6 -4,1.6 h -4 v 4 4 h 4.85866 c 4.19573,0 4.82221,0.19102 4.59152,1.4 -0.22001,1.152969 -1.2911,1.441515 -6.07023,1.635281 -4.29238,0.174031 -5.91054,-0.04474 -6.21585,-0.840361 z m 19.9215,0.211815 c -3.33953,-1.347669 -4.2856,-3.874483 -4.2856,-11.446279 0,-6.762501 0.10599,-7.189514 2.33847,-9.421995 3.16077,-3.16077 9.20506,-3.349574 12.61692,-0.394112 1.77845,1.540542 2.04086,2.151355 1.26352,2.941097 -0.7823,0.794782 -1.2686,0.737638 -2.4,-0.28202 -2.97104,-2.677613 -8.04895,-2.415596 -10.00666,0.516337 -0.77379,1.158869 -0.76031,12.608842 0.0163,13.830188 0.93206,1.465843 4.98951,2.749545 6.87713,2.175797 0.93188,-0.283248 2.31093,-1.056078 3.06454,-1.717398 0.8102,-0.710975 1.95457,-0.975933 2.8,-0.648289 1.25792,0.487499 1.11572,0.835759 -1.18283,2.897024 -2.05152,1.839738 -3.34011,2.332024 -6,2.292205 -1.86305,-0.02789 -4.15886,-0.36204 -5.10178,-0.742555 z m 16.24774,0.259931 c -0.29333,-0.293333 -0.53333,-1.05236 -0.53333,-1.686726 0,-0.821648 0.5586,-1.013191 1.94213,-0.665948 3.71249,0.931776 4.45787,-1.002963 4.45787,-11.571135 0,-9.131087 0.0718,-9.542857 1.66357,-9.542857 1.61347,0 1.65564,0.315426 1.4,10.472508 -0.24876,9.883832 -0.36974,10.55837 -2.1522,11.999999 -1.84409,1.491473 -5.71323,2.058972 -6.77804,0.994159 z m 11.46667,-0.170754 c 0,-0.599402 5.94497,-17.69371 7.61484,-21.895912 0.30599,-0.77 1.19931,-1.4 1.98516,-1.4 0.78585,0 1.67916,0.63 1.98515,1.4 1.66988,4.202202 7.61485,21.29651 7.61485,21.895912 0,0.387248 -0.66302,0.704087 -1.47337,0.704087 -1.02581,0 -1.76461,-0.972056 -2.43212,-3.199999 l -0.95874,-3.2 h -4.64654 -4.64653 l -1.257,3.2 c -0.72798,1.853274 -1.7891,3.199999 -2.52135,3.199999 -0.69539,0 -1.26435,-0.316839 -1.26435,-0.704087 z m 11.76442,-13.295912 c -0.92986,-2.86 -1.90385,-5.2 -2.16442,-5.2 -0.26058,0 -1.23457,2.34 -2.16443,5.2 l -1.69064,5.2 h 3.85507 3.85506 z M 353.77569,73.64087 c 4.67404,-4.503387 13.66621,-11.010133 16.15235,-11.687867 1.65539,-0.451268 5.76343,-0.715423 9.12897,-0.587012 l 6.11917,0.233475 -6.14047,5.37226 c -6.86181,6.00336 -8.54404,6.64263 -19.26002,7.319091 -6.07572,0.383538 -6.97189,0.286461 -6,-0.649947 z m 48.34255,-13.997689 c -3.78558,-1.549406 -4.8,-3.832187 -4.8,-10.801522 0,-7.25717 1.0307,-10.143728 4.12553,-11.553827 4.10278,-1.869349 11.38979,-0.347705 12.52701,2.615839 0.73087,1.904619 -1.83959,2.222114 -4.0315,0.497958 -2.7283,-2.146086 -5.47627,-2.019669 -7.85741,0.361474 -1.70111,1.701117 -1.96363,2.693367 -1.96363,7.421995 0,6.194628 1.17865,8.594369 4.53646,9.236255 2.41014,0.460728 5.89662,-0.596148 6.835,-2.071936 0.33222,-0.522473 0.60955,-1.759951 0.61629,-2.749951 0.01,-1.389933 -0.44338,-1.8 -1.98775,-1.8 -1.46667,0 -2,-0.426666 -2,-1.6 0,-1.362963 0.53333,-1.6 3.6,-1.6 h 3.6 v 3.652593 c 0,2.008927 -0.37068,4.3452 -0.82372,5.19172 -1.73971,3.250686 -8.182,4.916087 -12.37628,3.199402 z m 15.78437,-0.243715 c 0.19556,-0.55 2.10598,-5.95 4.24538,-12 3.28671,-9.29445 4.14414,-10.999716 5.53004,-10.998172 1.38887,0.0015 2.22419,1.687136 5.45122,11 2.09605,6.048995 3.80605,11.474569 3.8,12.056831 -0.0222,2.133554 -2.69692,0.459182 -3.60809,-2.258659 -0.91144,-2.718621 -1.07184,-2.807015 -5.51893,-3.041358 l -4.58021,-0.241359 -1.27325,3.241359 c -0.88351,2.249207 -1.75204,3.241358 -2.83748,3.241358 -0.90768,0 -1.415,-0.419725 -1.20868,-1 z m 12.95249,-9.6 c -0.31402,-0.99 -1.17873,-3.588494 -1.92156,-5.774431 l -1.3506,-3.974432 -1.73235,5.129769 c -0.9528,2.821373 -1.73235,5.419867 -1.73235,5.774432 0,0.354564 1.64426,0.644662 3.65391,0.644662 3.42508,0 3.61815,-0.112727 3.08295,-1.8 z m 10.4137,9.559639 c -0.21958,-0.572199 -0.29828,-5.877754 -0.17489,-11.790123 0.19819,-9.49742 0.38743,-10.781047 1.62433,-11.018298 1.27563,-0.244682 1.4,0.660529 1.4,10.190123 v 10.458659 h 5.22814 c 4.98025,0 5.18754,0.07587 4.37185,1.6 -0.73103,1.36594 -1.67506,1.6 -6.45325,1.6 -3.85538,0 -5.72118,-0.323724 -5.99618,-1.040361 z m 16.98277,0.507028 c -0.29334,-0.293334 -0.53334,-5.693333 -0.53334,-12 V 36.399467 h 6.45866 c 5.71927,0 6.42816,0.160272 6.19223,1.4 -0.21017,1.104352 -1.23621,1.450666 -4.85866,1.639923 l -4.59223,0.239923 v 3.160076 3.160077 h 4.05866 c 3.43334,0 4.0177,0.215701 3.79281,1.4 -0.20032,1.054888 -1.20082,1.460107 -4.05866,1.643833 l -3.79281,0.243833 v 3.956167 3.956167 h 4.88559 c 4.12635,0 4.81013,0.196654 4.4,1.26543 -0.26707,0.695987 -0.48559,1.415987 -0.48559,1.6 0,0.561039 -10.89573,0.372173 -11.46666,-0.198763 z M 476.11823,48.30627 V 36.213073 l 5.15472,0.328228 c 6.55312,0.417271 8.44528,1.9238 8.44528,6.724091 0,2.739606 -0.41834,3.747012 -2.10788,5.07601 -1.15934,0.911935 -2.62344,1.658064 -3.25356,1.658064 -0.72694,0 -0.0675,1.315789 1.80425,3.6 1.62247,1.98 3.44657,3.6 4.05356,3.6 1.26168,0 1.49828,2.061667 0.32017,2.789782 -1.36557,0.84397 -3.89719,-1.100362 -7.29855,-5.605428 -1.81372,-2.402252 -3.61724,-4.170225 -4.00783,-3.928829 -0.39058,0.241396 -0.71016,2.577656 -0.71016,5.191689 0,3.691365 -0.26799,4.752786 -1.2,4.752786 -1.01374,0 -1.2,-1.877022 -1.2,-12.093196 z m 9.422,-1.952167 c 3.70793,-2.597137 1.32031,-6.754637 -3.87914,-6.754637 h -3.14286 v 4 c 0,3.98637 0.009,4 2.622,4 1.4421,0 3.4221,-0.560413 4.4,-1.245363 z m 10.328,13.528696 c -0.3025,-0.3025 -0.55,-5.709999 -0.55,-12.016666 0,-10.983749 0.0683,-11.466666 1.62139,-11.466666 1.56489,0 1.61367,0.408918 1.4,11.734314 -0.20667,10.954197 -0.73839,13.482014 -2.47139,11.749018 z m 6.51948,0.119475 c -0.24888,-0.248877 1.39152,-5.571322 3.64533,-11.827655 5.57998,-15.489449 6.04027,-15.52254 11.24363,-0.808307 2.1459,6.068235 4.06163,11.483154 4.25719,12.033154 0.20632,0.580275 -0.30099,1 -1.20868,1 -1.08544,0 -1.95397,-0.992151 -2.83748,-3.241358 l -1.27324,-3.241359 -4.58021,0.241359 c -4.44709,0.234343 -4.6075,0.322737 -5.51894,3.041358 -0.86324,2.574877 -2.62834,3.902066 -3.7276,2.802808 z m 12.93053,-9.04747 c 0,-0.354565 -0.77956,-2.953059 -1.73235,-5.774432 l -1.73235,-5.129769 -1.35061,3.974432 c -2.82146,8.302726 -2.93313,7.574431 1.16139,7.574431 2.00966,0 3.65392,-0.290098 3.65392,-0.644662 z m -142.44925,7.105912 c -6.80741,-0.482299 -6.88959,-0.514319 -13.45812,-5.243694 -3.63488,-2.617138 -6.78397,-5.041735 -6.99797,-5.387994 -0.57628,-0.93244 14.81993,-0.755444 18.29753,0.210349 2.56214,0.711551 15.00781,9.642661 15.00781,10.769717 0,0.437586 -2.84414,0.360474 -12.84925,-0.348378 z m 4.59596,-10.520664 c -6.32497,-5.494696 -10.7626,-10.011567 -11.76355,-11.973594 -1.58103,-3.099071 -5.96644,-21.45038 -5.2881,-22.128721 0.35108,-0.35108 16.91528,11.43482 20.38095,14.501628 3.25751,2.882606 4.35467,6.161881 5.77478,17.260101 0.76007,5.94 1.30776,10.881825 1.21708,10.981832 -0.0907,0.100008 -4.7352,-3.788553 -10.32116,-8.641246 z"
       id="path1" />
  </g>
</svg>
