<svg id="GALERIAWYSZKOW" width="500" height="99.999229" viewBox="0 0 500 99.999229" version="1.1" xml:space="preserve" xmlns:xlink="http://www.w3.org/1999/xlink" xmlns="http://www.w3.org/2000/svg" xmlns:svg="http://www.w3.org/2000/svg">
	<path id="GALERIAWYSZKOW" style="fill:#000000;stroke:#000000;stroke-width:0" d="m 131.40601,5.5656899 c -1.12838,0.1435488 -2.27562,0.4521979 -3.42247,0.9509625 -1.12722,0.4768283 -2.2556,1.0937416 -3.34549,1.8326522 -1.6918,1.2134297 -2.89484,2.5453934 -3.60989,3.9712594 -0.71428,1.451267 -1.37237,3.187706 -1.95465,5.23395 -2.03046,7.064678 -5.13312,18.387328 -9.3426,33.944859 -4.19293,15.555222 -8.5729,31.730821 -13.122586,48.499857 H 85.534671 L 64.874809,26.474935 46.263883,99.99923 H 35.19177 C 29.063816,77.426667 24.363652,60.036869 21.091663,47.834068 17.82083,35.632038 15.07647,25.404669 12.839726,17.126562 12.124676,14.62812 11.335735,12.797392 10.470979,11.65439 9.5865949,10.536788 8.4408987,9.3722339 7.0485141,8.205371 6.0525242,7.3725572 4.9995767,6.7541044 3.872738,6.3750279 2.7628328,5.9705513 1.465506,5.6603628 0,5.422526 V 0 H 41.695723 V 5.2809015 C 39.233842,5.6603628 37.391184,6.0178878 36.18853,6.3750279 34.965094,6.7071528 34.007204,7.0881536 33.311782,7.4452937 32.65369,7.824755 32.258065,8.205371 32.109128,8.6337082 c -0.150861,0.4279523 -0.226676,0.7858622 -0.226676,1.1176022 0,0.6423136 0.07581,1.2846266 0.188191,1.8796036 0.131618,0.594977 0.282094,1.308103 0.414098,2.09358 0.883229,3.616044 2.670084,10.490221 5.356717,20.622917 2.670084,10.134236 5.979018,22.692252 9.907944,37.703682 L 65.532901,0 h 11.674787 l 20.659477,74.285912 c 3.045315,-11.941102 5.471785,-21.693183 7.295205,-29.28164 1.82264,-7.563827 3.34511,-14.033528 4.60549,-19.434118 0.73275,-3.305855 1.31657,-6.065224 1.76646,-8.300429 0.43334,-2.213268 0.65809,-4.140208 0.65809,-5.780051 0,-0.976362 -0.35676,-1.8091759 -1.07065,-2.4984409 -0.73429,-0.7131256 -1.6918,-1.3081026 -2.89522,-1.8091763 -1.03409,-0.4279524 -2.36875,-0.7596924 -4.00436,-1.0210051 -1.63599,-0.2632369 -3.0457,-0.451813 -4.267207,-0.5953618 V 0 h 31.451037 z m 368.59399,0 c -1.12876,0.1435488 -2.27561,0.4521979 -3.42246,0.9509625 -1.12723,0.4768283 -2.25561,1.0937416 -3.3455,1.8326522 -1.6918,1.2134297 -2.89484,2.5453934 -3.61027,3.9712594 -0.71351,1.451267 -1.37199,3.187706 -1.95426,5.23395 -2.03047,7.064678 -5.13312,18.387328 -9.3426,33.944859 C 474.13197,67.054595 469.752,83.230194 465.2027,99.99923 H 454.12866 L 433.4688,26.474935 414.85788,99.99923 h -11.07173 c -6.12873,-22.572563 -10.82889,-39.962361 -14.10049,-52.165162 -3.27045,-12.20203 -6.0152,-22.429399 -8.25194,-30.707506 -0.71505,-2.498442 -1.50399,-4.32917 -2.36875,-5.472172 -0.88438,-1.117602 -2.02969,-2.2821561 -3.42208,-3.449019 C 374.64652,7.3725572 373.59357,6.7541044 372.46673,6.3750279 371.35682,5.9705513 370.0595,5.6603628 368.59399,5.422526 V 0 h 41.69572 v 5.2809015 c -2.46188,0.3794613 -4.30453,0.7369863 -5.50719,1.0941264 -1.22305,0.3321249 -2.18094,0.7131257 -2.87636,1.0702658 -0.65848,0.3794613 -1.05372,0.7600773 -1.20266,1.1884145 -0.15124,0.4279523 -0.22706,0.7858622 -0.22706,1.1176022 0,0.6423136 0.0758,1.2846266 0.18781,1.8796036 0.13239,0.594977 0.28286,1.308103 0.41448,2.09358 0.88323,3.616044 2.6697,10.490221 5.35672,20.622917 2.67008,10.134236 5.97902,22.692252 9.90794,37.703682 L 434.12689,0 h 11.6744 l 20.65987,74.285912 c 3.04531,-11.941102 5.4714,-21.693183 7.29558,-29.28164 1.82227,-7.563827 3.34473,-14.033528 4.6055,-19.434118 0.73236,-3.305855 1.31618,-6.065224 1.76607,-8.300429 0.43334,-2.213268 0.65848,-4.140208 0.65848,-5.780051 0,-0.976362 -0.35753,-1.8091759 -1.07142,-2.4984409 -0.73353,-0.7131256 -1.6918,-1.3081026 -2.89446,-1.8091763 -1.03409,-0.4279524 -2.36874,-0.7596924 -4.00474,-1.0210051 -1.63638,-0.2632369 -3.04569,-0.451813 -4.26721,-0.5953618 V 0 H 500 Z M 165.94277,29.938578 c -0.50608,0.05003 -0.96136,0.119688 -1.35775,0.199352 -0.3964,0.07966 -0.89362,0.238991 -1.48398,0.467977 -0.67464,0.248612 -1.12184,0.667328 -1.33235,1.254608 -0.2109,0.58728 -0.32058,1.194957 -0.32058,1.832268 v 4.819082 c 0,0.975978 0.008,1.752219 0.025,2.349889 0.0169,0.587665 0.0423,1.324267 0.0758,2.200568 -1.65254,1.164939 -4.08133,2.260605 -7.30251,3.29585 -3.22158,1.035629 -6.18145,1.543245 -8.88002,1.543245 -2.53885,0 -4.91683,-0.457586 -7.1428,-1.363906 -2.22673,-0.915941 -4.17484,-2.290238 -5.85278,-4.122505 -1.6868,-1.802249 -3.00221,-4.052463 -3.97165,-6.730629 -0.96174,-2.688941 -1.44241,-5.75542 -1.44241,-9.220603 0,-3.226576 0.45527,-6.213391 1.35774,-8.951594 0.91094,-2.748208 2.21789,-5.108104 3.93008,-7.089692 1.67795,-1.9715832 3.72727,-3.4848105 6.13874,-4.5500732 2.41185,-1.0756537 5.08539,-1.6132881 8.02025,-1.6132881 1.99006,0 3.83695,0.2886369 5.53183,0.8662957 1.69487,0.5672678 3.09495,1.1849508 4.19947,1.8518946 l 1.53517,-1.603282 h 2.15015 l 0.21936,15.105718 h -2.17555 c -1.24807,-4.531215 -2.74936,-7.896722 -4.49504,-10.086899 -1.74529,-2.2005679 -3.9551,-3.2962337 -6.62018,-3.2962337 -3.16192,0 -5.60763,1.6333002 -7.32791,4.8991307 -1.72066,3.266216 -2.58042,7.766643 -2.58042,13.502052 0,6.093703 0.84321,10.853133 2.53,14.298689 1.68641,3.44517 4.08133,5.157749 7.17629,5.157749 1.45049,0 2.74089,-0.258618 3.87081,-0.766619 1.1303,-0.518007 2.00699,-1.115293 2.63122,-1.792628 v -8.403568 c 0,-0.707353 -0.10969,-1.294633 -0.32058,-1.76261 -0.21898,-0.477598 -0.64116,-0.895929 -1.29002,-1.244603 -0.48914,-0.268624 -1.11337,-0.49761 -1.84727,-0.666943 -0.74199,-0.17934 -1.36622,-0.309034 -1.85498,-0.378692 v -2.279847 h 18.20684 z m 21.44534,0.07966 -5.0854,-14.995651 -5.01728,14.995651 z m 18.40926,16.748255 H 186.69615 V 44.48665 c 0.89439,-0.07004 1.93964,-0.259389 3.13767,-0.568038 1.20573,-0.298643 1.80418,-0.67695 1.80418,-1.114908 0,-0.159328 -0.008,-0.338668 -0.0335,-0.528013 -0.0254,-0.199352 -0.0927,-0.457971 -0.21089,-0.786632 l -2.99375,-8.583293 h -12.1012 c -0.27824,0.796638 -0.59074,1.732976 -0.92787,2.808245 -0.33713,1.065263 -0.63231,2.021228 -0.87668,2.85789 -0.31212,1.08489 -0.498,1.871907 -0.55688,2.359511 -0.0593,0.487989 -0.0843,0.826272 -0.0843,1.025623 0,0.617683 0.39639,1.145312 1.19765,1.582885 0.80048,0.438344 2.12475,0.756999 3.98858,0.94673 v 2.279847 H 164.66083 V 44.48665 c 0.53995,-0.03002 1.15532,-0.139701 1.83843,-0.299413 0.6831,-0.168949 1.22305,-0.397934 1.61944,-0.686571 0.67426,-0.468362 1.24807,-1.045636 1.71989,-1.72297 0.46413,-0.677335 0.86053,-1.483594 1.17226,-2.419548 1.90577,-5.466398 3.82039,-10.942803 5.7431,-16.429599 1.92309,-5.476405 4.03938,-11.530084 6.3581,-18.141794 h 4.94184 c 3.23004,9.379546 5.76004,16.787894 7.59,22.234666 1.82996,5.43638 3.38167,9.957204 4.6636,13.532069 0.21937,0.586895 0.48876,1.114908 0.81781,1.592891 0.32905,0.467977 0.80126,0.925948 1.40816,1.354285 0.46413,0.308649 0.99522,0.54764 1.61098,0.696577 0.60729,0.159712 1.1557,0.259388 1.65293,0.289407 z m 33.30216,-13.273066 -0.69157,13.273066 h -32.2904 V 44.48665 c 0.5819,-0.05003 1.25692,-0.149707 2.02431,-0.269395 0.77586,-0.129309 1.29002,-0.248997 1.53439,-0.368301 0.59075,-0.269009 1.00369,-0.646931 1.23999,-1.135305 0.22783,-0.487604 0.34559,-1.114908 0.34559,-1.871522 V 11.647463 c 0,-0.706968 -0.0927,-1.284627 -0.27824,-1.7422129 -0.17742,-0.4583554 -0.61538,-0.8666805 -1.30734,-1.2353661 -0.51377,-0.2786309 -1.12145,-0.487604 -1.83804,-0.6573225 -0.71697,-0.1689488 -1.29039,-0.288637 -1.72066,-0.3679159 V 5.374035 h 19.24478 v 2.2706106 c -0.52301,0.059267 -1.14724,0.1393154 -1.86421,0.2489975 -0.71659,0.109682 -1.33235,0.2586187 -1.86344,0.4575857 -0.64078,0.2493823 -1.07104,0.6473165 -1.28194,1.1749448 -0.21898,0.5380194 -0.32058,1.1453114 -0.32058,1.8226464 v 27.223081 c 0,1.284242 0.0674,2.289853 0.21937,3.02684 0.15163,0.746992 0.43834,1.284627 0.86052,1.63253 0.42988,0.379077 1.02832,0.617683 1.79609,0.717359 0.76739,0.109682 1.82149,0.159328 3.17039,0.159328 1.32427,0 2.59812,-0.08967 3.8458,-0.268625 1.23998,-0.189731 2.1336,-0.597671 2.68163,-1.215354 0.83474,-0.99522 1.69487,-2.389529 2.58041,-4.181772 0.87707,-1.802249 1.58558,-3.455176 2.10821,-4.948776 z m 32.788,-17.56452 h -1.88114 c -0.48029,-1.573264 -1.29848,-3.16654 -2.47073,-4.779443 -1.17187,-1.6129035 -2.32719,-2.568869 -3.48289,-2.857506 -0.49722,-0.1397002 -1.18033,-0.219364 -2.06587,-0.2493823 -0.87746,-0.030018 -1.61098,-0.049261 -2.18402,-0.049261 h -5.0854 V 23.98419 h 3.60104 c 0.91055,0 1.72912,-0.129309 2.47073,-0.378306 0.74237,-0.259004 1.41663,-0.736602 2.032,-1.463582 0.37138,-0.44835 0.75931,-1.234597 1.14762,-2.359896 0.38755,-1.124914 0.63231,-2.110898 0.75046,-2.947175 h 1.88037 v 17.275883 h -1.88037 c -0.1016,-0.827041 -0.34598,-1.85228 -0.75046,-3.086876 -0.40524,-1.234597 -0.79279,-2.08088 -1.14762,-2.549242 -0.54802,-0.696577 -1.18841,-1.184951 -1.93079,-1.443569 -0.74199,-0.259004 -1.59366,-0.388698 -2.57194,-0.388698 h -3.60104 v 11.929172 c 0,1.244603 0.0758,2.229817 0.22783,2.956797 0.1601,0.727365 0.45528,1.294633 0.87707,1.683331 0.41295,0.367916 0.97829,0.607292 1.69488,0.726595 0.71697,0.119688 1.69526,0.169334 2.92639,0.169334 0.5819,0 1.27309,-0.01001 2.07434,-0.03002 0.80972,-0.0096 1.51823,-0.06966 2.12552,-0.169334 0.69119,-0.09929 1.34082,-0.248997 1.93926,-0.437958 0.60729,-0.198968 1.0541,-0.477983 1.34928,-0.846669 0.79279,-0.955581 1.67794,-2.409156 2.66508,-4.361112 0.99484,-1.951185 1.64446,-3.415152 1.95619,-4.39113 h 1.80494 l -0.66617,12.89476 H 240.80287 V 44.48665 c 0.46413,-0.03002 1.08836,-0.109682 1.88076,-0.229371 0.79241,-0.119303 1.34928,-0.248997 1.67833,-0.408325 0.62422,-0.309034 1.04525,-0.706968 1.25653,-1.184566 0.21898,-0.468361 0.32828,-1.085659 0.32828,-1.822261 V 11.647463 c 0,-0.706968 -0.0924,-1.284627 -0.27825,-1.7422129 -0.17664,-0.4583554 -0.61537,-0.8666805 -1.30656,-1.2353661 -0.43065,-0.2389914 -1.02909,-0.4479645 -1.80494,-0.6473164 -0.77548,-0.188961 -1.35775,-0.3186552 -1.75415,-0.377922 V 5.374035 h 31.08466 z m 28.83214,0.05965 c 0,-2.758214 -0.65771,-4.779443 -1.96504,-6.0540633 -1.31542,-1.2742359 -3.17886,-1.9119311 -5.59956,-1.9119311 h -1.94772 V 25.358102 h 1.87229 c 2.42032,0 4.30069,-0.756229 5.63342,-2.249829 1.33197,-1.493599 2.00661,-3.873507 2.00661,-7.119711 z m 16.82407,30.777935 h -13.44202 c -2.32795,-4.201785 -4.25874,-7.547664 -5.7939,-10.036869 -1.54286,-2.48959 -3.4571,-5.366723 -5.74272,-8.632938 h -1.35775 v 12.576103 c 0,0.696962 0.10968,1.294249 0.32866,1.772231 0.21975,0.487989 0.64963,0.895929 1.27347,1.224591 0.31211,0.159712 0.80125,0.318655 1.46743,0.487988 0.66656,0.159328 1.2396,0.279016 1.72066,0.329047 v 2.279847 H 277.29274 V 44.48665 c 0.48068,-0.05003 1.10452,-0.139701 1.88922,-0.239377 0.78433,-0.109297 1.34082,-0.238991 1.66948,-0.398319 0.62423,-0.309034 1.04602,-0.706968 1.25653,-1.184566 0.21937,-0.468361 0.32905,-1.085659 0.32905,-1.822261 V 11.647463 c 0,-0.706968 -0.0928,-1.284627 -0.27825,-1.7526038 -0.17741,-0.4679767 -0.61576,-0.8763018 -1.30733,-1.2249752 -0.52262,-0.2586187 -1.14685,-0.4675918 -1.86382,-0.6473164 -0.71659,-0.1689489 -1.28155,-0.2986431 -1.69488,-0.377922 V 5.374035 h 19.66618 c 4.40191,0 7.74124,0.8070289 10.01801,2.4295533 2.28562,1.6232942 3.42439,4.0828657 3.42439,7.3687087 0,2.89753 -0.70889,5.227407 -2.11705,6.990017 -1.40817,1.762225 -3.55024,3.136521 -6.43468,4.12212 1.12183,1.712964 2.42878,3.694168 3.92161,5.954388 1.48436,2.26022 3.03569,4.560464 4.65475,6.910353 0.50646,0.76662 1.20612,1.692952 2.08319,2.788233 0.88554,1.094896 1.66139,1.772231 2.33604,2.03085 0.37946,0.129694 0.86013,0.248997 1.45049,0.348673 0.58189,0.09968 0.99522,0.159328 1.24807,0.169719 z m 19.38755,0 H 317.49332 V 44.48665 c 0.43835,-0.03002 1.09605,-0.09005 1.95658,-0.169719 0.8686,-0.07966 1.46743,-0.198967 1.79647,-0.348673 0.60653,-0.298643 1.01985,-0.67695 1.24768,-1.154933 0.21937,-0.477983 0.32905,-1.08489 0.32905,-1.821876 V 11.647463 c 0,-0.667329 -0.1016,-1.244603 -0.32058,-1.7526038 -0.2109,-0.508001 -0.63269,-0.9163261 -1.25615,-1.2249752 -0.39716,-0.1989671 -0.97867,-0.3979341 -1.75491,-0.597286 -0.77547,-0.2089732 -1.44165,-0.3486735 -1.99814,-0.4279524 V 5.374035 h 19.43797 v 2.2706106 c -0.48914,0.059267 -1.1126,0.1393154 -1.84689,0.2489975 -0.74199,0.109682 -1.37468,0.2586187 -1.88038,0.4575857 -0.64115,0.2493823 -1.07103,0.6473165 -1.28193,1.1749448 -0.21898,0.5380194 -0.32866,1.1453114 -0.32866,1.8226464 v 29.323973 c 0,0.696962 0.11776,1.294249 0.33713,1.792243 0.21936,0.497611 0.64924,0.89593 1.27346,1.204579 0.34598,0.179339 0.91902,0.348673 1.71181,0.518007 0.80126,0.159327 1.4759,0.269009 2.01546,0.299028 z m 22.90469,-16.748255 -5.08579,-14.995651 -5.01766,14.995651 z m 18.40888,16.748255 H 359.14402 V 44.48665 c 0.894,-0.07004 1.93964,-0.259389 3.13729,-0.568038 1.20573,-0.298643 1.80456,-0.67695 1.80456,-1.114908 0,-0.159328 -0.008,-0.338668 -0.0339,-0.528013 -0.0254,-0.199352 -0.0924,-0.457971 -0.21051,-0.786632 l -2.99374,-8.583293 h -12.10159 c -0.27824,0.796638 -0.59036,1.732976 -0.92787,2.808245 -0.33713,1.065263 -0.63231,2.021228 -0.87669,2.85789 -0.31211,1.08489 -0.49761,1.871907 -0.55687,2.359511 -0.0589,0.487989 -0.0839,0.826272 -0.0839,1.025623 0,0.617683 0.39639,1.145312 1.19726,1.582885 0.80088,0.438344 2.12476,0.756999 3.98858,0.94673 v 2.279847 H 337.10832 V 44.48665 c 0.53994,-0.03002 1.1557,-0.139701 1.83881,-0.299413 0.68272,-0.168949 1.22267,-0.397934 1.61906,-0.686571 0.67464,-0.468362 1.24768,-1.045636 1.71989,-1.72297 0.46413,-0.677335 0.86052,-1.483594 1.17225,-2.419548 1.90616,-5.466398 3.82079,-10.942803 5.74311,-16.429599 1.92309,-5.476405 4.03938,-11.530084 6.35848,-18.141794 h 4.94185 c 3.22965,9.379546 5.76004,16.787894 7.58999,22.234666 1.82996,5.43638 3.38129,9.957204 4.66322,13.532069 0.21937,0.586895 0.48915,1.114908 0.81819,1.592891 0.32905,0.467977 0.80087,0.925948 1.40816,1.354285 0.46413,0.308649 0.99484,0.54764 1.61098,0.696577 0.60691,0.159712 1.15532,0.259388 1.65255,0.289407 z M 173.59164,63.791458 c -0.86244,0.0685 -1.66447,0.180879 -2.39145,0.326352 -0.71582,0.154709 -1.40585,0.360989 -2.05933,0.636541 -1.03563,0.394855 -1.94772,0.91902 -2.76168,1.545554 -0.80087,0.627305 -1.59019,1.331964 -2.3672,2.096659 -1.55364,1.597124 -3.2058,3.33241 -4.91876,5.19662 -1.72644,1.872676 -3.60065,3.934698 -5.62226,6.184912 -1.31965,1.426636 -2.13284,2.517684 -2.44149,3.281994 -0.29633,0.764311 -0.44373,2.087808 -0.44373,3.960099 v 5.059613 c 0,0.609986 0.1601,1.134151 0.48068,1.589428 0.33251,0.455276 0.94942,0.825117 1.86151,1.107596 0.40756,0.112376 1.28309,0.267085 2.60197,0.464128 1.31849,0.189346 2.30486,0.309419 2.92177,0.335589 v 1.966964 h -28.56736 v -1.966964 c 0.67811,-0.02617 1.64023,-0.09506 2.91062,-0.198198 1.2573,-0.102754 2.14476,-0.214746 2.65007,-0.352137 0.88746,-0.265931 1.50438,-0.626919 1.82534,-1.064493 0.32058,-0.447195 0.49261,-0.988293 0.49261,-1.624064 v -6.296903 c 0,-0.549565 -0.0119,-1.039093 -0.0369,-1.460503 -0.0242,-0.42064 -0.11045,-0.773162 -0.25823,-1.056026 -0.1728,-0.318656 -0.45605,-0.722362 -0.86322,-1.219973 -0.40717,-0.498764 -0.93788,-1.13415 -1.5902,-1.924631 -1.84997,-2.267147 -3.64952,-4.415375 -5.38827,-6.442376 -1.72682,-2.027386 -3.37859,-3.934314 -4.94454,-5.712703 -0.81357,-0.927486 -1.63908,-1.666782 -2.47766,-2.224813 -0.82589,-0.567268 -1.67679,-1.02216 -2.54001,-1.374682 -0.65347,-0.248997 -1.4428,-0.44681 -2.36682,-0.575349 -0.92518,-0.137391 -1.76299,-0.223213 -2.51537,-0.258234 v -1.958113 h 29.36823 v 1.958113 c -2.70011,0.05195 -4.51275,0.180879 -5.44947,0.394855 -0.93749,0.207049 -1.41778,0.498765 -1.41778,0.86822 0,0.180494 0.18511,0.54995 0.52993,1.108366 0.3456,0.549565 0.97406,1.408548 1.8619,2.559632 0.81358,1.090663 2.01007,2.594269 3.58757,4.510049 1.57827,1.915779 3.47634,4.14906 5.69615,6.717544 4.57355,-5.050762 7.71815,-8.573287 9.41957,-10.58374 1.71374,-2.001216 2.56387,-3.22927 2.56387,-3.684547 0,-0.567652 -0.49261,-1.004841 -1.49129,-1.305793 -0.99869,-0.300952 -2.62621,-0.498765 -4.85757,-0.584586 v -1.958113 h 18.99885 z m 21.52655,34.704936 c -3.13152,0 -6.04098,-0.265546 -8.75378,-0.798562 -2.71165,-0.540713 -5.00535,-1.176484 -6.87918,-1.91578 l -2.49036,1.761455 h -3.07033 L 173.45656,84.6322 h 3.09419 c 0.70235,1.228438 1.59058,2.516529 2.67547,3.873892 1.08528,1.357748 2.34258,2.577336 3.76075,3.65068 1.46666,1.125684 3.1065,2.036622 4.93107,2.741281 1.81264,0.70389 3.94548,1.055642 6.37465,1.055642 3.2793,0 5.78236,-0.558031 7.53303,-1.665628 1.73798,-1.117602 2.61352,-2.52615 2.61352,-4.218332 0,-1.392 -0.7393,-2.560018 -2.21904,-3.513289 -1.47937,-0.944805 -3.77307,-1.761455 -6.88034,-2.448796 -2.02123,-0.455277 -3.88351,-0.875532 -5.58455,-1.262306 -1.6891,-0.386773 -3.292,-0.781628 -4.78329,-1.18572 -3.44017,-0.953657 -6.00442,-2.319487 -7.66889,-4.09749 -1.67756,-1.778388 -2.51537,-3.771138 -2.51537,-5.970167 0,-1.391614 0.4318,-2.723193 1.29501,-4.011668 0.87438,-1.280394 2.13245,-2.431093 3.79731,-3.462489 1.58981,-0.953272 3.6249,-1.7349 6.10256,-2.33642 2.47766,-0.601134 5.17853,-0.910938 8.08837,-0.910938 2.84712,0 5.51027,0.275552 7.98909,0.825117 2.47766,0.541483 4.42615,1.091047 5.84355,1.649079 l 2.20672,-1.511303 h 3.14461 l 0.28325,12.181248 h -3.09496 c -0.72698,-1.314645 -1.57788,-2.646223 -2.55194,-4.020905 -0.97366,-1.365445 -2.00968,-2.499595 -3.09495,-3.410534 -1.17033,-0.970205 -2.53924,-1.742982 -4.08018,-2.327568 -1.54132,-0.57535 -3.34126,-0.867835 -5.41252,-0.867835 -2.60196,0 -4.72287,0.516083 -6.37464,1.537858 -1.65139,1.022159 -2.47804,2.294086 -2.47804,3.796922 0,1.434718 0.71582,2.594269 2.15785,3.504823 1.42971,0.902471 3.66184,1.701033 6.69483,2.387989 1.78763,0.421025 3.5995,0.84205 5.44909,1.26346 1.86228,0.411789 3.51405,0.815496 4.95685,1.202269 3.48866,0.94442 6.1395,2.233281 7.96484,3.891981 1.81187,1.649079 2.72435,3.70148 2.72435,6.149891 0,1.546324 -0.51839,3.041848 -1.55402,4.484648 -1.03486,1.443185 -2.4284,2.636603 -4.19178,3.599495 -1.92309,1.056027 -4.15445,1.86421 -6.68214,2.43879 -2.52769,0.568038 -5.47409,0.850517 -8.85268,0.850517 m 74.49334,-13.005211 -1.73875,12.052324 H 219.76509 V 96.00565 l 33.11589,-31.861285 h -11.23182 c -2.28139,0 -3.93355,0.0508 -4.94455,0.137006 -1.011,0.09467 -1.95965,0.283249 -2.85943,0.566883 -1.0364,0.274782 -2.17055,0.979441 -3.42785,2.130141 -1.24576,1.151469 -2.92216,3.067248 -5.01882,5.747723 h -2.921 L 224.055,61.833345 h 44.58248 v 1.529006 l -33.12782,31.86167 h 12.89591 c 4.04361,0 6.79297,-0.111607 8.24809,-0.334819 1.46704,-0.223598 2.5273,-0.636156 3.20541,-1.219972 1.36814,-1.159936 2.63891,-2.431093 3.80962,-3.813856 1.17148,-1.383533 2.24483,-2.843267 3.2312,-4.364191 z m 63.24882,12.052324 h -20.3058 c -3.05762,-3.272758 -5.80699,-6.005188 -8.26002,-8.203831 -2.46611,-2.199414 -5.61071,-4.956859 -9.43265,-8.280802 h -1.87383 v 11.227208 c 0,0.601519 0.14778,1.116447 0.46836,1.529006 0.30826,0.421025 0.93749,0.773162 1.87421,1.056411 0.43142,0.137776 1.07258,0.275167 1.93503,0.404092 0.85128,0.137391 1.70218,0.24053 2.54,0.300952 v 1.966964 h -27.23463 v -1.966964 c 0.65348,-0.02617 1.57789,-0.07735 2.76168,-0.146243 1.19496,-0.06889 2.03432,-0.172413 2.51461,-0.300567 0.86321,-0.240531 1.46781,-0.567268 1.81341,-0.988293 0.33251,-0.412174 0.50492,-0.94442 0.50492,-1.580191 V 67.245095 c 0,-0.593053 -0.14778,-1.082196 -0.44412,-1.485903 -0.28325,-0.404092 -0.91247,-0.764695 -1.87421,-1.082196 -0.75123,-0.240916 -1.65216,-0.430261 -2.71204,-0.584586 -1.06064,-0.146243 -1.91077,-0.248997 -2.56425,-0.300952 v -1.958113 h 28.14788 v 1.958113 c -0.75238,0.05195 -1.65254,0.120843 -2.70087,0.215131 -1.04718,0.09429 -1.93503,0.223597 -2.68741,0.394855 -0.93672,0.215131 -1.56595,0.558031 -1.87421,1.031011 -0.32058,0.463359 -0.46836,0.987523 -0.46836,1.554791 v 12.035006 h 1.51669 c 1.87306,-1.193802 4.06824,-2.62852 6.5713,-4.303384 2.50229,-1.683716 4.43885,-3.058397 5.81892,-4.132512 1.92425,-1.494369 3.32895,-2.670854 4.24219,-3.54754 0.89978,-0.867835 1.35583,-1.623679 1.35583,-2.259065 0,-0.292486 -0.44373,-0.507232 -1.30695,-0.661941 -0.86322,-0.145473 -2.1948,-0.257849 -3.97049,-0.326352 v -1.958113 h 22.27931 v 1.958113 c -2.68779,0.206279 -4.95686,0.541483 -6.78105,1.02216 -1.83765,0.481446 -3.64952,1.280393 -5.46178,2.406077 -2.57733,1.605976 -4.69785,3.005673 -6.37464,4.191778 -1.67679,1.176869 -3.82117,2.689327 -6.44815,4.535833 2.31833,1.966965 5.09233,4.372273 8.347,7.215539 3.25544,2.843651 6.48548,5.609563 9.7159,8.315823 0.8255,0.686956 1.76299,1.348896 2.82287,1.975431 1.06064,0.626919 2.21942,1.134151 3.50174,1.520924 0.60383,0.188576 1.28194,0.325968 2.05856,0.429107 0.7647,0.10314 1.43049,0.163561 1.98505,0.172413 z m 37.38311,-44.49858 c 0,0.704274 -0.30865,1.28886 -0.9375,1.73567 -0.62846,0.455277 -1.52939,0.850517 -2.71203,1.185336 -1.34389,0.386389 -3.36628,0.927872 -6.06638,1.615212 -2.69933,0.686956 -5.83239,1.546325 -9.39494,2.585418 l -1.18341,-1.031011 c 2.4538,-1.623295 4.3157,-2.894452 5.59763,-3.796923 1.27039,-0.910169 2.60158,-1.872292 3.96972,-2.894836 0.91248,-0.669638 1.78763,-1.159551 2.63891,-1.460503 0.83744,-0.300183 1.72528,-0.454892 2.67548,-0.454892 1.56518,0 2.8602,0.232064 3.88351,0.695807 1.02331,0.464129 1.52901,1.064878 1.52901,1.820722 z m 0.89939,38.304816 c 1.08566,-1.520539 1.86267,-3.25544 2.34296,-5.180071 0.49261,-1.932713 0.72698,-4.114423 0.72698,-6.545901 0,-2.061637 -0.20859,-4.07209 -0.62846,-6.030587 -0.41948,-1.949647 -1.13376,-3.693784 -2.15823,-5.223175 -1.03486,-1.519769 -2.40339,-2.748593 -4.1175,-3.667613 -1.70104,-0.927871 -3.83387,-1.383148 -6.38619,-1.383148 -4.36496,0 -7.66928,1.435103 -9.93758,4.312621 -2.25599,2.877133 -3.39091,6.941141 -3.39091,12.189715 0,2.233665 0.24746,4.338021 0.74007,6.322303 0.49337,1.975817 1.27038,3.70225 2.33026,5.180456 1.08527,1.49437 2.45341,2.653921 4.11789,3.487504 1.66409,0.832814 3.71148,1.245757 6.14027,1.245757 2.37913,0 4.42576,-0.42141 6.13988,-1.254223 1.71297,-0.841666 3.06994,-1.993135 4.08056,-3.453638 z m 9.28372,-25.539366 c 2.52807,1.606746 4.53737,3.556007 6.0175,5.83316 1.47898,2.28485 2.21904,4.887586 2.21904,7.808592 0,2.593884 -0.62923,5.068079 -1.87422,7.422202 -1.25807,2.344887 -3.05801,4.372658 -5.42483,6.064455 -2.47766,1.76107 -5.38827,3.135367 -8.74147,4.115193 -3.34126,0.979056 -7.33599,1.46897 -11.95957,1.46897 -3.72265,0 -7.24902,-0.429877 -10.57797,-1.280394 -3.31701,-0.858599 -6.25072,-2.095889 -8.77841,-3.728035 -2.50306,-1.589427 -4.48811,-3.530607 -5.95554,-5.815842 -1.46666,-2.276383 -2.20673,-4.819467 -2.20673,-7.619245 0,-2.921006 0.71544,-5.566845 2.14515,-7.946368 1.44203,-2.371056 3.40284,-4.406908 5.90628,-6.099475 2.48998,-1.657546 5.42484,-2.93794 8.83961,-3.839257 3.40245,-0.893619 7.02773,-1.340429 10.887,-1.340429 3.82155,0 7.42258,0.429491 10.77578,1.305793 3.3655,0.867065 6.27496,2.087038 8.72838,3.65068" />
</svg>
