<svg id="GALERIAWOLOMIN" width="500" height="158.13615" viewBox="0 0 500 158.13615" version="1.1" xml:space="preserve" xmlns:xlink="http://www.w3.org/1999/xlink" xmlns="http://www.w3.org/2000/svg" xmlns:svg="http://www.w3.org/2000/svg">
	<path id="GALERIAWOLOMIN" style="fill:#000000;stroke:#000000;stroke-width:0" d="M 58.438891,75.650473 C 58.025327,75.626192 56.856411,75.510012 55.8413,75.392327 46.864941,74.351582 39.456132,70.934218 33.283285,64.987265 31.037407,62.823582 29.640464,61.166878 28.06929,58.803713 24.174831,52.946172 22.319741,46.397195 22.295884,38.421934 22.275938,31.750215 23.539092,26.143369 26.264798,20.805005 29.844006,13.795036 36.113907,7.6651715 43.400205,4.0523051 c 4.269141,-2.1168454 8.94549,-3.41550424 14.080092,-3.91018131 1.97402,-0.19018469 7.671563,-0.18930971 9.57166,0.001504 6.181574,0.62067389 10.904256,1.93037931 19.721185,5.46910501 l 1.46969,0.589872 v 5.3785042 5.378503 L 86.467978,16.070238 C 80.522267,13.090829 74.017021,11.026017 67.872248,10.1678 65.414557,9.8245354 58.675941,9.820803 56.729948,10.1616 49.61218,11.408184 44.083453,14.644701 39.282175,20.37552 c -1.62132,1.935219 -3.479405,5.228678 -4.346918,7.704921 -1.146959,3.27392 -1.568617,5.937765 -1.572021,9.931353 -0.0038,4.419568 0.526832,7.39571 1.956957,10.976559 3.13964,7.861267 10.634238,14.053815 19.474811,16.091435 5.501601,1.268047 12.330477,1.142501 18.285902,-0.336171 0.78212,-0.194189 2.452528,-0.641548 3.712018,-0.99411 l 2.289982,-0.641044 V 55.481879 47.855297 H 71.973708 64.86451 v -4.78576 -4.785748 l 12.475275,0.0349 12.475274,0.0349 0.03476,15.628037 0.03476,15.628039 -0.92341,0.419251 c -2.712122,1.23138 -6.414875,2.592259 -9.468115,3.479829 -5.422319,1.576258 -14.668217,2.516792 -21.054161,2.14174 z m 82.817189,82.367537 c -8.92301,-0.68857 -16.17089,-3.75933 -21.84893,-9.25686 -6.72944,-6.51552 -10.81612,-14.79959 -11.82128,-23.9628 -0.23423,-2.13539 -0.26472,-6.18872 -0.0637,-8.47635 0.75704,-8.61748 4.34223,-16.53703 10.4297,-23.038733 4.79878,-5.125333 10.81407,-8.509626 17.73437,-9.977566 3.32453,-0.705205 4.50258,-0.809657 9.19686,-0.815371 4.8355,-0.006 6.18065,0.118056 9.75673,0.899054 7.72508,1.687122 14.06795,5.579775 19.0838,11.711815 4.66602,5.704381 7.38254,11.843691 8.45322,19.104221 0.26013,1.76402 0.45747,5.72707 0.38111,7.65355 -0.29692,7.48972 -2.52773,14.40281 -6.57351,20.37058 -6.24902,9.2177 -14.11516,14.07926 -25.10659,15.51677 -2.39035,0.31262 -7.29619,0.45114 -9.6217,0.27169 z m 6.10164,-9.7075 c 5.64962,-0.47213 10.29968,-2.2615 14.52894,-5.59083 1.47231,-1.15904 4.01989,-3.85512 5.11378,-5.41188 2.92419,-4.16159 4.55445,-8.71933 5.01243,-14.01332 0.99708,-11.52542 -3.55136,-21.4101 -12.46081,-27.079803 -3.19588,-2.033764 -7.00662,-3.350524 -11.04211,-3.81548 -3.06881,-0.353573 -7.41997,-0.122505 -10.36267,0.550307 -5.45476,1.247185 -10.75857,4.624053 -14.30404,9.107246 -4.0993,5.18351 -5.99781,10.90144 -6.00746,18.09328 -0.009,6.26308 1.39664,11.44207 4.34839,16.02791 2.86513,4.45132 7.01797,8.03182 11.62375,10.02182 4.12009,1.78016 8.79373,2.5082 13.5498,2.11075 z m 128.45663,9.69417 c -11.89939,-0.84983 -21.12867,-6.33797 -27.64831,-16.44095 -4.59092,-7.11413 -6.64438,-15.22114 -6.08197,-24.01129 0.48113,-7.51932 2.70884,-13.89439 6.95393,-19.900093 6.4706,-9.154198 15.24981,-14.153535 26.53117,-15.108219 2.40189,-0.203255 8.10511,-0.08965 10.17208,0.202613 8.27189,1.16964 14.82163,4.281799 20.01873,9.51201 6.46248,6.503642 10.1641,14.162959 11.23296,23.242959 0.22204,1.88637 0.21707,7.85126 -0.008,9.57007 -0.95126,7.26543 -3.42401,13.39735 -7.65692,18.98769 -3.42754,4.52673 -7.07289,7.67457 -11.57687,9.9969 -6.12934,3.16039 -13.75395,4.53271 -21.93681,3.94831 z m 6.24445,-9.69329 c 6.66002,-0.57575 12.14695,-3.05951 16.51398,-7.47534 2.62847,-2.65782 4.10234,-4.72837 5.51624,-7.74939 1.84718,-3.94682 2.65607,-7.845 2.65607,-12.79992 0,-3.20757 -0.27852,-5.55571 -0.98114,-8.27127 -2.12589,-8.21661 -8.3179,-15.154486 -16.13285,-18.076216 -3.10296,-1.160084 -6.24404,-1.684031 -10.09819,-1.684442 -5.70379,0 -10.29514,1.269867 -14.70551,4.069127 -1.56412,0.992745 -2.94705,2.135479 -4.51018,3.726841 -5.34035,5.43676 -7.85675,11.95688 -7.85675,20.35707 0,9.75235 4.11512,18.01507 11.64377,23.37931 4.79681,3.41778 11.42722,5.08852 17.95456,4.52423 z m -253.853615,9.26973 c -0.03558,-0.0969 -1.785617,-4.69802 -3.889079,-10.22474 -2.103461,-5.52671 -6.313432,-16.60065 -9.355447,-24.60875 C 11.918625,114.73953 7.3080224,102.60822 4.7148293,95.789159 2.1216707,88.970099 0,83.356226 0,83.313886 c 0,-0.04235 2.2639445,-0.07698 5.0309952,-0.07698 h 5.0309958 l 0.148904,0.345071 c 0.08193,0.189775 4.408115,11.585146 9.61377,25.323043 5.205638,13.73789 9.481189,24.99528 9.501206,25.0164 0.02007,0.0211 1.354494,-3.42255 2.965487,-7.6526 1.61103,-4.23005 5.156334,-13.53558 7.878462,-20.67896 2.722126,-7.143374 5.74469,-15.079698 6.716818,-17.636273 l 1.76748,-4.648322 h 4.836939 4.836957 l 2.643172,6.904124 c 1.45374,3.797269 3.433011,8.965108 4.398407,11.484091 0.965377,2.51898 2.603413,6.79475 3.640062,9.50171 1.036668,2.70697 3.074951,8.02861 4.529549,11.82588 1.454579,3.79726 2.975722,7.78036 3.380315,8.85133 0.404609,1.07096 0.77059,1.94764 0.813343,1.94819 0.0427,0 0.696178,-1.64473 1.452098,-3.65615 2.331531,-6.20403 11.966924,-31.901151 16.30156,-43.47547 l 1.292801,-3.452064 h 4.978039 c 3.06054,0 4.97803,0.05007 4.97803,0.129997 0,0.07149 -0.48908,1.409589 -1.08683,2.973557 -0.59776,1.563969 -2.35266,6.165752 -3.89979,10.226197 -1.54713,4.060443 -3.354225,8.797633 -4.015787,10.527083 -0.661547,1.72945 -2.750592,7.2049 -4.642334,12.16766 -1.891704,4.96277 -5.164329,13.54507 -7.27246,19.07179 -2.108134,5.52671 -4.632355,12.15474 -5.609408,14.72896 l -1.776419,4.68039 -1.036266,0.002 -1.036266,0.002 -0.531811,-1.40069 C 74.499674,152.84718 63.458128,123.81546 61.334229,118.23711 57.95791,109.36932 53.799725,98.416625 53.626467,97.934882 53.511146,97.614286 53.4557,97.569511 53.371904,97.729809 c -0.09999,0.191509 -4.766871,12.317511 -8.813403,22.899811 -0.977583,2.55658 -2.959393,7.72442 -4.40401,11.48409 -1.444598,3.75967 -3.193922,8.31229 -3.887363,10.11694 -0.69346,1.80464 -1.742864,4.54236 -2.332042,6.08383 -0.589197,1.54146 -1.640553,4.27919 -2.336331,6.08383 l -1.265084,3.28117 -1.031978,0.0394 c -0.750336,0.0287 -1.049587,-0.009 -1.096573,-0.13672 z M 96.992614,74.667531 c 0,-0.124392 1.008574,-2.493524 15.517676,-36.45067 3.37244,-7.892888 10.71893,-25.103146 12.37214,-28.9836466 0.99308,-2.3309963 2.2534,-5.2840473 2.80071,-6.5623356 l 0.99511,-2.32416053 3.75397,-0.0362979 3.75398,-0.0363116 2.32361,5.23149373 c 1.27798,2.8773108 8.70121,19.5759675 16.49605,37.1081325 7.79485,17.532153 14.17245,31.943657 14.17245,32.025564 0,0.104883 -1.59672,0.148909 -5.40174,0.148909 h -5.40175 l -0.33927,-0.717754 C 157.69544,73.350935 155.49816,68.4975 150.9181,58.34923 l -2.45216,-5.433394 -15.65022,0.03314 -15.65021,0.03314 -4.65201,10.900532 -4.65202,10.900531 -5.43443,0.0025 c -3.052293,0.0014 -5.434436,-0.05038 -5.434436,-0.118153 z M 143.98293,43.104434 c -0.0394,-0.131595 -2.14385,-4.884157 -4.67655,-10.561256 -2.5327,-5.677104 -5.13176,-11.506304 -5.77569,-12.953778 -1.01988,-2.292552 -1.40224,-2.976757 -1.40224,-2.509218 0,0.0674 -0.5444,1.436262 -1.20979,3.041916 -0.66539,1.605653 -1.7799,4.303606 -2.4767,5.995458 -0.6968,1.691853 -2.08159,5.044796 -3.07731,7.450985 -0.99572,2.40619 -2.21556,5.359239 -2.71076,6.562333 -0.49519,1.203095 -0.99693,2.418153 -1.11498,2.700128 l -0.21464,0.512683 h 11.36516 c 10.7601,0 11.36133,-0.01271 11.2935,-0.239251 z m 33.21642,31.593052 c -0.0503,-0.05036 -0.0916,-16.692217 -0.0916,-36.98192 V 0.82522191 h 5.40083 5.40081 l -0.002,32.09392309 -0.002,32.093919 16.64624,0.06835 16.64624,0.06835 v 4.785037 4.785035 l -21.95379,0.03459 c -12.07459,0.01907 -21.995,-0.0065 -22.04535,-0.05695 z m 53.18185,0 c -0.0501,-0.05011 -0.0911,-16.691793 -0.0911,-36.981497 V 0.82564572 h 20.98581 20.98579 V 5.610682 10.395718 h -15.58555 -15.58553 v 11.142299 11.142298 h 15.03868 15.03868 v 4.785036 4.785035 h -15.03867 -15.03868 v 11.415169 11.415169 l 16.09822,0.03474 16.09824,0.03474 0.0381,4.511604 c 0.021,2.481384 0.004,4.65003 -0.0368,4.819216 l -0.0749,0.30761 h -21.37057 c -11.75379,0 -21.41156,-0.04102 -21.46169,-0.09115 z m 54.27757,0.0016 c -0.051,-0.051 -0.0926,-16.693378 -0.0926,-36.98308 V 0.82570042 l 10.35618,0.001504 c 10.72854,0.001504 12.4564,0.0715294 15.14659,0.61376968 5.18233,1.0445461 9.00677,2.9639473 12.09824,6.0718558 3.31256,3.3301661 4.92478,7.0356301 5.34736,12.2901471 0.424,5.272153 -0.90175,10.113994 -3.7693,13.766084 -1.26803,1.614937 -2.95702,3.150249 -4.65846,4.23459 -0.77137,0.491603 -3.17326,1.735507 -3.62258,1.87609 -0.15215,0.04761 -0.1171,0.110737 0.13673,0.24587 0.42834,0.228095 1.1147,0.758045 2.59627,2.004614 3.78084,3.18112 7.13378,7.72413 13.80776,18.708467 1.80054,2.963387 4.00549,6.17468 7.65061,11.1423 1.13108,1.541465 2.05677,2.846536 2.05708,2.90017 0,0.05364 -2.85073,0.1008 -6.33562,0.104825 l -6.33616,0.0073 -4.7633,-7.419104 c -7.87029,-12.258455 -9.79409,-15.029388 -12.7668,-18.388524 -2.73802,-3.093909 -5.87644,-5.202141 -8.7183,-5.856476 -0.63619,-0.146482 -1.96169,-0.238554 -4.17822,-0.290206 l -3.24642,-0.07567 -0.0347,15.978507 -0.0347,15.978508 -5.27335,0.03576 c -2.90035,0.01966 -5.31508,-0.006 -5.36608,-0.05697 z m 22.2681,-41.929424 c 2.46329,-0.435028 4.53957,-1.298645 5.84007,-2.429158 1.362,-1.183996 2.82593,-3.691738 3.40683,-5.835953 0.41384,-1.527479 0.41786,-4.550324 0.008,-6.192562 -1.01405,-4.065955 -3.59715,-6.572425 -7.8664,-7.633104 -2.02897,-0.504097 -2.98131,-0.582024 -7.99317,-0.65406 L 295.36628,9.953597 V 21.53669 33.119761 l 5.16099,-0.06569 c 3.87936,-0.04936 5.46852,-0.120001 6.39933,-0.284368 z m 42.98908,5.037492 V 0.82570042 h 5.33192 5.33189 V 37.807193 74.788687 h -5.33189 -5.33192 z m 18.86672,36.84147 c 0,-0.112163 5.48446,-13.075356 6.56361,-15.513879 0.13308,-0.300775 0.77765,-1.808062 1.43231,-3.349527 1.17397,-2.764192 10.25683,-24.038748 12.98703,-30.419157 0.77221,-1.804641 3.1107,-7.28009 5.19668,-12.167663 2.08595,-4.8875727 4.1745,-9.7785633 4.64121,-10.868868 l 0.84854,-1.98237221 3.69706,-0.0363389 c 2.85363,-0.028054 3.72871,0.003145 3.83577,0.13671541 0.0763,0.0951813 0.72254,1.495775 1.43614,3.1124338 1.36155,3.0845301 24.24766,54.5835629 27.0365,60.8383169 3.38104,7.582968 4.51086,10.155883 4.51086,10.272733 0,0.06844 -2.35323,0.105287 -5.43245,0.08503 l -5.43244,-0.03574 -1.05528,-2.324161 c -0.5804,-1.278288 -1.20955,-2.662531 -1.39811,-3.076095 -1.76429,-3.869631 -6.13005,-13.5282 -6.68835,-14.796876 L 420.256,52.919313 h -15.6539 -15.65392 l -4.65058,10.900695 -4.6506,10.90071 -5.43215,0.03574 c -3.71622,0.02444 -5.43218,-0.0094 -5.43218,-0.107425 z m 47.03007,-31.369562 c 0,-0.07424 -2.27057,-5.194636 -7.24606,-16.340774 -1.89644,-4.248428 -3.66572,-8.231971 -3.93175,-8.852317 -0.266,-0.620346 -0.5211,-1.127901 -0.56686,-1.127901 -0.0458,0 -0.34032,0.630599 -0.65456,1.401332 -0.31425,0.770732 -1.39824,3.400793 -2.40888,5.84458 -2.08347,5.037931 -6.07671,14.697386 -7.09307,17.157769 -0.37275,0.902322 -0.71036,1.717488 -0.75026,1.811478 -0.0578,0.135928 2.25229,0.170902 11.28944,0.170902 6.2491,0 11.362,-0.02929 11.362,-0.06506 z M 194.74255,157.07504 c -0.0297,-0.0313 -0.054,-6.41742 -0.054,-14.19131 v -14.13434 l -1.91061,1.64216 c -1.05084,0.90319 -3.07628,2.65398 -4.50097,3.89064 -1.42469,1.23666 -2.61963,2.22942 -2.65544,2.20612 -0.0358,-0.0233 -0.036,-2.19693 0,-4.83032 l 0.0648,-4.78797 3.17356,-2.75553 c 1.74545,-1.51553 3.76821,-3.25811 4.49501,-3.87242 l 1.32143,-1.11692 0.006,-17.94388 0.006,-17.94389 h 5.0512 5.05119 l 0.0331,14.030767 0.0331,14.030763 2.3316,-2.04305 c 6.18308,-5.41787 11.65728,-10.159502 11.72919,-10.159502 0.0439,0 0.0653,0.138432 0.0476,0.307609 -0.0173,0.169188 -0.0401,2.337833 -0.0499,4.819213 l -0.0173,4.51161 -0.54384,0.45619 c -0.57432,0.48178 -4.51059,3.90433 -8.43777,7.33658 -1.29055,1.1279 -2.97142,2.59251 -3.73529,3.25468 l -1.38885,1.20397 v 13.25368 13.25369 h 15.80306 15.80304 v 4.7842 4.78422 l -20.80087,0.035 c -11.4405,0.0193 -20.8252,0.009 -20.85487,-0.022 z m 134.53109,-36.89035 6e-5,-36.94731 4.76035,0.0083 4.76037,0.0083 1.05057,1.393061 c 0.57784,0.766179 2.44015,3.207957 4.13858,5.426162 1.69839,2.218207 4.16748,5.448106 5.48687,7.177555 1.3194,1.72945 4.11758,5.390002 6.21815,8.134562 2.10056,2.74456 4.3423,5.68223 4.98159,6.52816 0.63932,0.84592 1.19576,1.53613 1.23653,1.53379 0.0408,-0.002 0.90217,-1.09435 1.9142,-2.42669 1.01205,-1.33235 2.64553,-3.46832 3.62998,-4.74661 1.85052,-2.40287 4.3618,-5.67429 6.45433,-8.407994 0.66189,-0.864724 2.0094,-2.621679 2.99445,-3.904356 0.98504,-1.282665 3.2409,-4.220333 5.01297,-6.528157 l 3.22196,-4.196026 h 4.71219 4.71219 l -0.0327,36.916403 -0.0325,36.91639 -5.01944,0.0309 -5.0194,0.0309 v -28.74442 c 0,-15.80941 -0.0439,-28.74125 -0.0971,-28.737408 -0.0535,0.0039 -1.00572,1.218898 -2.11622,2.700128 -1.11046,1.48123 -3.38717,4.50804 -5.05933,6.72625 -1.67218,2.2182 -4.66313,6.18636 -6.64653,8.81813 -1.98344,2.63177 -4.54479,6.03016 -5.69192,7.55196 l -2.08568,2.76692 -0.8564,0.002 -0.8564,0.002 -2.70575,-3.58678 c -1.4882,-1.97272 -3.98818,-5.28613 -5.55553,-7.36314 -1.56733,-2.07701 -4.04957,-5.36932 -5.51606,-7.31627 -1.46648,-1.94695 -3.82723,-5.07795 -5.2461,-6.95778 l -2.57975,-3.417889 -0.0325,28.741279 -0.0327,28.74128 -5.05155,0.0373 -5.05156,0.0373 z m 80.43982,36.87896 c 0,-0.0376 -0.0154,-16.66389 -0.0326,-36.94731 l -0.032,-36.87896 h 5.08443 5.08442 l -0.0327,36.92164 -0.0327,36.92164 -5.01939,0.0257 c -2.76064,0.0141 -5.01961,-0.005 -5.01988,-0.0427 z m 25.34586,0.0456 c -0.0135,-0.0125 -0.008,-16.63882 0.0115,-36.94732 l 0.0329,-36.924522 h 4.03502 4.03503 l 0.46577,0.578442 c 0.43717,0.542898 25.5738,30.86854 26.32118,31.75473 0.52512,0.62266 13.22019,15.92788 16.49968,19.89208 1.58625,1.91743 3.12223,3.76309 3.41328,4.10146 l 0.52919,0.61522 0.006,-28.47097 0.006,-28.470962 h 4.79277 4.79272 v 36.909522 36.90952 l -4.307,0.0378 -4.30698,0.0378 -0.38861,-0.41523 c -0.21371,-0.22837 -1.90411,-2.25321 -3.75645,-4.49963 -1.85232,-2.24643 -3.42617,-4.15195 -3.49739,-4.23451 -0.0712,-0.0826 -0.45344,-0.54937 -0.84932,-1.03734 -1.16352,-1.43424 -6.95331,-8.45847 -7.8307,-9.5003 -0.4433,-0.52635 -0.9727,-1.17233 -1.17648,-1.43551 -0.20374,-0.26317 -0.95785,-1.186 -1.67578,-2.05073 -0.71792,-0.86472 -2.84526,-3.44864 -4.7274,-5.74204 -1.88215,-2.2934 -3.48203,-4.23757 -3.55528,-4.32038 -0.0732,-0.0828 -0.60778,-0.72881 -1.18782,-1.43551 -3.22556,-3.92988 -9.32103,-11.33623 -11.18414,-13.58933 -1.18139,-1.42867 -3.22445,-3.91227 -4.54007,-5.51911 l -2.39209,-2.92151 -0.0325,28.35055 -0.0327,28.35058 h -4.73842 c -2.60613,0 -4.74815,-0.0102 -4.76007,-0.0228 z" />
</svg>
