<svg id="GALERIAWISLA" width="500" height="247.6167" viewBox="0 0 500 247.6167" version="1.1" xml:space="preserve" xmlns:xlink="http://www.w3.org/1999/xlink" xmlns="http://www.w3.org/2000/svg" xmlns:svg="http://www.w3.org/2000/svg">
	<path id="GALERIAWISLA" style="fill:#000000;stroke:#000000;stroke-width:0" d="m 252.8942,247.48336 c -9.00991,-0.8659 -15.3228,-3.69545 -19.6165,-8.79245 -2.6644,-3.16289 -4.35391,-6.73754 -5.61802,-11.88662 l -0.67813,-2.76218 -0.0963,-20.62617 -0.0963,-20.62617 h 11.80086 11.80087 v 18.94106 c 0,12.56179 0.0962,19.4617 0.28575,20.48691 0.71242,3.85372 2.52925,5.36028 6.46431,5.36028 3.41897,0 5.23008,-1.25648 6.29318,-4.36599 0.3763,-1.10066 0.43343,-2.78171 0.43908,-12.9207 0.006,-11.33281 -0.01,-11.71192 -0.58497,-13.69617 -0.8186,-2.82425 -1.99731,-5.05154 -4.53471,-8.56867 -2.67592,-3.70915 -6.19408,-8.59942 -13.28304,-18.46366 -3.00225,-4.17761 -7.28055,-10.1301 -9.50734,-13.22772 -4.3416,-6.03953 -6.05393,-9.03062 -7.28605,-12.72735 -1.68962,-5.06922 -1.72802,-5.55189 -1.72802,-21.71429 0,-14.3034 0.0149,-14.73447 0.59708,-17.36587 2.54879,-11.518912 8.87538,-17.958022 20.14421,-20.502466 3.23386,-0.730206 11.91058,-1.010408 15.64549,-0.505243 10.20206,1.379818 17.04533,5.795521 20.90812,13.491216 1.11382,2.219009 2.10537,5.287843 2.71876,8.414533 0.4006,2.042 0.46789,4.57396 0.55422,20.85498 l 0.0983,18.53081 H 275.8242 264.03342 l -0.0831,-18.53081 c -0.0909,-20.2523 -0.0639,-19.88957 -1.6354,-21.94999 -1.17108,-1.53537 -2.51771,-2.06455 -5.24529,-2.06123 -2.73751,0.003 -3.95454,0.46549 -5.15217,1.95644 -1.31088,1.63192 -1.51738,3.46279 -1.52008,13.47692 -0.003,8.99206 0.20087,12.32287 0.92715,15.19133 0.76577,3.02428 1.19307,3.74438 6.52782,11.00062 0.74136,1.00839 2.81123,3.83713 4.59971,6.28607 1.7885,2.44895 3.34283,4.5705 3.4541,4.71456 0.26535,0.34356 7.36478,10.07319 8.69997,11.9231 5.21888,7.23089 6.53419,9.10928 7.54595,10.77642 2.42533,3.99629 3.52426,6.624 4.58239,10.95715 0.669,2.73967 0.67198,2.80306 0.78199,16.63189 0.12161,15.28945 -0.0262,18.00247 -1.2431,22.82752 -2.73611,10.84832 -10.16211,17.29932 -21.96966,19.08525 -3.23474,0.48924 -8.48932,0.66734 -11.40946,0.38669 z M 15.613981,241.78942 c -0.08394,-1.26172 -0.220693,-3.94415 -0.303826,-5.96093 -0.376981,-9.14322 -1.528511,-25.42191 -3.140469,-44.39537 C 11.510016,183.66833 7.822764,144.10792 7.3482705,139.704 7.2085626,138.4075 7.0292262,136.58061 6.9497336,135.64425 6.8702149,134.70788 6.5684835,131.46663 6.2792195,128.44146 4.3895482,108.67955 2.352783,87.056513 2.352783,86.757165 c 0,-0.291831 2.0418464,-0.353801 11.655422,-0.353801 10.922021,0 11.65605,0.02884 11.665322,0.458359 0.0055,0.252098 0.06407,0.870883 0.130305,1.375078 0.06624,0.504195 0.530517,6.22059 1.031727,12.703099 0.85577,11.06836 1.54302,19.86026 2.763985,35.35915 0.467448,5.93386 1.316617,19.99971 1.691948,28.02539 0.08083,1.72867 0.200866,4.26274 0.266739,5.63127 0.06585,1.36853 0.179782,4.02047 0.253171,5.89319 0.07339,1.87273 0.19809,5.05505 0.277138,7.07183 0.07907,2.01678 0.25435,7.19423 0.389526,11.50542 0.247645,7.89785 0.327269,8.42727 1.215831,8.0863 0.261265,-0.10026 0.36289,-0.8987 0.396992,-3.11881 0.02514,-1.64124 0.06713,-3.30817 0.09314,-3.70433 0.02593,-0.39615 0.124988,-3.25435 0.21996,-6.35155 0.09495,-3.0972 0.227897,-6.45631 0.295446,-7.4647 0.06755,-1.00839 0.185229,-3.54247 0.261526,-5.63128 0.935603,-25.61605 0.593458,-21.03214 5.242504,-70.23656 0.934556,-9.891004 1.699178,-18.347733 1.699178,-18.792734 v -0.809122 h 12.89954 12.89954 l 0.06886,1.112791 c 0.08808,1.423428 2.117122,28.256305 3.461032,45.770055 1.878959,24.4866 1.916544,25.38263 2.516157,59.97959 0.08615,4.96992 0.244083,9.12847 0.350972,9.24126 0.106889,0.11275 0.374152,0.13601 0.593903,0.0517 0.334549,-0.12836 0.430124,-1.14239 0.587092,-6.22915 0.103144,-3.34173 0.229285,-6.60624 0.280359,-7.2545 0.05107,-0.64825 0.162626,-3.18232 0.247933,-5.63127 0.537328,-15.42785 1.611984,-32.51841 2.626923,-41.77617 0.329102,-3.00199 2.422992,-23.27072 4.978698,-48.193207 0.361921,-3.529366 0.658047,-6.56436 0.658047,-6.744429 0,-0.25587 2.065341,-0.3274 9.453674,-0.3274 h 9.453697 l -0.15789,1.244118 c -0.0868,0.684265 -0.62766,6.135467 -1.20184,12.113781 -0.57421,5.978317 -1.754308,18.118287 -2.622493,26.977717 -2.130664,21.74281 -4.356299,44.53631 -4.987028,51.07432 -0.284916,2.95315 -0.924445,9.49459 -1.421202,14.53654 -0.496783,5.04195 -1.791818,18.36056 -2.877894,29.59691 -1.086102,11.23635 -2.038389,20.81279 -2.116258,21.28097 L 87.45292,244.0782 H 74.535779 61.618638 l -0.171662,-2.16084 c -0.09442,-1.18846 -0.518889,-6.87539 -0.943277,-12.63762 -0.424389,-5.76223 -0.891994,-12.06794 -1.03914,-14.0127 -0.147147,-1.94475 -0.443666,-5.95212 -0.658964,-8.90526 -0.215298,-2.95315 -0.451785,-6.13547 -0.525515,-7.07183 -0.07373,-0.93636 -0.314828,-4.17762 -0.53573,-7.20279 -0.22093,-3.02517 -0.573919,-7.79866 -0.78445,-10.60774 -0.424781,-5.66821 -1.168894,-15.64161 -1.954156,-26.19196 -0.28413,-3.81748 -0.587485,-8.53203 -0.674128,-10.47679 -0.08667,-1.94475 -0.197802,-4.24309 -0.24699,-5.10743 -0.04919,-0.86433 -0.0994,-5.01903 -0.111552,-9.23266 -0.02148,-7.47917 -0.03457,-7.66115 -0.545971,-7.66115 -0.456029,0 -0.52384,0.17462 -0.52384,1.34891 0,1.31471 -1.695719,27.99881 -1.961568,30.8672 -0.07342,0.7923 -0.4307,5.56579 -0.793957,10.60774 -1.072587,14.8872 -2.879858,37.72232 -4.736632,59.84863 -0.513782,6.12237 -1.071356,12.78167 -1.239089,14.79846 l -0.30498,3.66687 -14.050205,0.0677 -14.050178,0.0678 z M 149.02775,165.24116 V 86.403364 h 11.78639 11.78638 v 78.837796 78.8378 h -11.78638 -11.78639 z m 192.77282,0 V 86.403364 h 11.78522 11.78523 l 0.0666,28.515136 0.0666,28.51511 6.15511,-2.05558 c 3.38531,-1.13057 6.24351,-2.05813 6.35155,-2.06125 0.10804,-0.003 0.19644,5.11102 0.19644,11.36474 v 11.3704 l -6.41703,2.55301 -6.41703,2.55301 v 27.59611 27.59611 l 14.20914,-0.033 14.20913,-0.0329 0.0684,10.89734 0.0684,10.89738 h -26.06388 -26.06388 z m 86.53485,78.11752 c 0.15066,-0.75875 0.3499,-2.40434 3.30611,-27.30512 1.01758,-8.57132 2.25753,-18.94333 2.75544,-23.04892 0.49791,-4.10559 1.85026,-15.42052 3.00522,-25.14428 1.15496,-9.72377 2.4491,-20.56724 2.87585,-24.09661 0.42677,-3.52936 1.19616,-9.95294 1.70978,-14.27461 1.1893,-10.0074 2.98641,-25.05146 4.17694,-34.966269 0.51027,-4.249645 0.92769,-7.815026 0.92761,-7.923068 -5e-5,-0.108042 8.06634,-0.196439 17.92533,-0.196439 h 17.92544 l 0.15446,1.113158 c 0.0849,0.612237 0.38284,3.293639 0.66202,5.958671 0.27916,2.665032 1.21492,11.328027 2.07946,19.251087 0.86455,7.92307 2.63717,24.24721 3.93917,36.27587 1.302,12.02865 2.66238,24.58115 3.02307,27.89443 0.36072,3.31329 0.8289,7.61532 1.04043,9.56007 0.21152,1.94475 1.09204,10.01842 1.95669,17.94149 2.99387,27.43351 4.20156,38.69776 4.20156,39.18817 0,0.4751 -0.42897,0.49265 -12.0483,0.49265 -10.80853,0 -12.0483,-0.0426 -12.0483,-0.41404 0,-0.22772 -0.40899,-3.96989 -0.90889,-8.31595 -0.4999,-4.34603 -1.50415,-13.20578 -2.23169,-19.68829 -0.72753,-6.48251 -1.39267,-12.2873 -1.47811,-12.89954 l -0.15535,-1.11316 h -7.16806 -7.16805 l -0.12552,0.58932 c -0.069,0.32413 -0.55259,4.30203 -1.07457,8.83979 -0.52201,4.53776 -1.34208,11.49172 -1.82239,15.45326 -0.48031,3.96153 -1.14097,9.5306 -1.46814,12.3757 l -0.59481,5.17291 h -11.75771 -11.7577 z m 40.72829,-62.36704 c 0.30736,-0.20427 0.21545,-2.60864 -0.59841,-15.65705 -0.98374,-15.77178 -1.60221,-25.95856 -1.85827,-30.60706 -0.18111,-3.28859 -0.25191,-4.22639 -1.05758,-14.0127 -0.85286,-10.35921 -0.87473,-10.5217 -1.40234,-10.42016 -0.45553,0.0877 -0.48067,0.3543 -1.45166,15.39663 -0.23712,3.67343 -0.54694,8.21118 -0.68848,10.08391 -0.14155,1.87272 -0.54323,7.47125 -0.89263,12.44118 -0.3494,4.96992 -1.00794,14.2518 -1.46342,20.6264 -0.45548,6.3746 -0.76913,11.74403 -0.69697,11.93206 0.10019,0.26106 1.26801,0.35566 4.93894,0.40003 2.64424,0.032 4.97113,-0.0505 5.17082,-0.18324 z M 6.6037641,61.917522 C 5.8446163,61.703874 4.9017058,61.360184 4.5084073,61.153739 3.3853223,60.564262 1.9065767,58.88816 1.3030616,57.520626 0.02706792,54.629164 0.00490953,54.182303 6.401282e-5,31.251898 -0.0028171,17.182992 0.09160491,9.2372163 0.27371761,8.2521891 1.330537,2.5352439 5.6856311,-0.35145052 12.671996,0.0341737 17.694147,0.3113632 20.692,2.252135 22.332167,6.2880278 c 0.535992,1.3188438 0.577978,1.9044698 0.659854,9.2006072 l 0.08743,7.792107 H 18.624485 14.169521 L 14.08885,15.95252 14.008205,8.6242982 13.33164,7.9481528 C 12.823464,7.4402907 12.376734,7.2681833 11.536731,7.2565803 10.18156,7.237984 9.4903275,7.8280103 9.1502773,9.2939743 8.856744,10.559465 8.8510342,50.419933 9.1442532,52.205884 c 0.2550311,1.554022 0.9760168,2.243289 2.3465638,2.243289 1.266119,0 2.043078,-0.580911 2.374904,-1.775684 0.154401,-0.556003 0.271243,-3.926908 0.272082,-7.849861 l 0.0026,-6.875389 h -1.9716 -1.971573 l 0.07266,-3.732354 0.07268,-3.732355 6.35155,-0.07014 6.35155,-0.07014 V 45.539245 60.735243 H 20.704467 18.36322 l -0.163385,-1.244118 c -0.08984,-0.684265 -0.252019,-1.470181 -0.360349,-1.74648 -0.174936,-0.446153 -0.262181,-0.396912 -0.77942,0.440025 -1.96149,3.173759 -6.581044,4.823119 -10.4550447,3.732852 z M 77.261786,60.517248 c 0,-0.119907 0.290757,-2.565581 0.646129,-5.434832 0.355373,-2.86925 0.825099,-6.749065 1.043854,-8.62179 0.218756,-1.872726 0.989978,-8.355236 1.713819,-14.405578 0.723841,-6.050342 1.787418,-15.007992 2.363484,-19.905888 0.576092,-4.8978967 1.115646,-9.3472558 1.199015,-9.8874649 L 84.37966,1.2794966 h 6.786887 c 3.732799,0 6.786887,0.0346 6.786887,0.076873 0,0.064982 1.034792,9.5978604 3.929446,36.1989894 1.80164,16.556802 2.35382,21.822617 2.35513,22.459606 l 0.003,0.720278 H 99.722517 95.204404 L 94.45864,53.860326 c -0.410166,-3.781203 -0.809252,-7.37584 -0.886833,-7.988077 l -0.14107,-1.113158 h -2.714561 c -1.49302,0 -2.714561,0.04639 -2.714561,0.103118 0,0.05671 -0.412523,3.562971 -0.916718,7.791715 -0.504195,4.228744 -0.916719,7.777205 -0.916719,7.885456 0,0.108225 -2.003685,0.196806 -4.452633,0.196806 -2.448948,0 -4.452633,-0.09809 -4.452633,-0.217995 z M 92.714754,36.442201 c 0,-0.5878 -1.25119,-20.433368 -1.47335,-23.376323 -0.238714,-3.1621287 -0.525621,-3.358097 -0.72633,-0.496049 -0.09489,1.353234 -0.460323,6.644612 -0.812029,11.758592 -0.351706,5.113979 -0.711243,10.034793 -0.798986,10.935142 L 88.74455,36.90056 h 1.985246 c 1.716202,0 1.985193,-0.06213 1.984958,-0.458359 z M 160.02838,31.007369 V 1.2794966 h 4.45263 4.45263 v 25.5371594 25.53716 h 5.36936 5.36935 v 4.190714 4.190713 h -9.82199 -9.82198 z m 74.38516,0 V 1.2794966 h 9.95976 9.95978 l -0.0723,3.9942738 -0.0723,3.9942738 -5.43889,0.070797 -5.43892,0.070823 0.0696,7.3938858 0.0695,7.393911 5.30387,0.0709 5.30387,0.0709 v 3.923371 3.923373 h -5.36935 -5.36935 v 10.078587 10.078587 l 5.43483,0.0708 5.43483,0.0708 0.0721,4.125234 0.0721,4.125233 h -9.9596 -9.9596 z m 74.12324,-0.02043 V 1.2385586 l 7.7921,0.1017819 c 7.11599,0.092955 7.91996,0.1493466 9.26544,0.6499273 2.09831,0.7806775 3.50749,1.7918705 4.42274,3.1736273 1.36062,2.054183 1.61367,3.3410726 1.75982,8.9497139 0.19018,7.298678 -0.36211,10.165021 -2.36543,12.276589 -0.9989,1.052839 -3.50189,2.306622 -5.07615,2.54269 -1.57671,0.236461 -1.41015,0.535913 0.38879,0.699037 3.0599,0.277451 5.23559,1.72901 6.3801,4.256612 0.57481,1.269446 0.5982,1.638884 0.76281,12.048302 0.13824,8.742588 0.24838,11.006463 0.59254,12.179261 0.23254,0.792307 0.49836,1.705751 0.59076,2.029877 l 0.16802,0.589319 h -4.70365 -4.70363 l -0.30818,-1.028532 c -0.63756,-2.128045 -0.80647,-5.136401 -0.81433,-14.503222 -0.009,-10.684093 -0.0197,-10.756933 -1.67747,-11.54366 -0.49869,-0.236645 -1.44679,-0.504274 -2.1069,-0.594767 l -1.2002,-0.164512 v 13.917359 13.917334 h -4.58359 -4.58359 z m 12.91211,-5.993086 c 1.0948,-0.717346 1.23154,-1.625342 1.23154,-8.177601 0,-6.9973657 -0.14159,-7.6986292 -1.68464,-8.3433443 -0.50474,-0.2108976 -1.45189,-0.3834503 -2.10478,-0.3834503 h -1.18705 v 8.8106866 8.810687 l 1.53823,-0.139498 c 0.846,-0.07672 1.83904,-0.336593 2.2067,-0.57748 z m 67.23528,6.013568 V 1.279549 h 4.45264 4.45263 v 29.727873 29.727874 h -4.45263 -4.45264 z m 64.53414,28.745675 c 0.0814,-0.540209 0.62171,-4.989568 1.20077,-9.887464 0.57905,-4.897897 2.11398,-17.774178 3.41097,-28.613929 1.297,-10.839778 2.35817,-19.7679625 2.35817,-19.8404095 0,-0.072473 3.05726,-0.1317455 6.79388,-0.1317455 h 6.79386 l 0.14719,1.1131583 c 0.081,0.612237 0.43867,3.824026 0.7949,7.1373089 0.35621,3.3132828 1.23695,11.4458858 1.9572,18.0724508 0.72025,6.626566 1.78323,16.468195 2.36217,21.870286 0.57895,5.402092 1.10955,10.146111 1.17909,10.542264 l 0.12642,0.720279 h -4.65229 -4.65229 l -0.0611,-0.851239 c -0.0336,-0.468181 -0.41223,-3.940868 -0.84147,-7.717068 -0.42923,-3.776199 -0.78041,-6.987988 -0.78041,-7.137309 0,-0.170117 -1.02678,-0.271479 -2.75016,-0.271479 -1.51258,0 -2.75015,0.08303 -2.75015,0.184522 0,0.167969 -1.3556,11.590466 -1.72655,14.548455 l -0.15605,1.244118 h -4.45107 -4.45108 z m 15.35134,-23.525382 c 0,-0.900087 -0.68495,-11.884103 -1.2075,-19.36395 -0.23146,-3.313283 -0.51124,-6.121454 -0.62172,-6.240339 -0.11048,-0.118912 -0.27737,0.882931 -0.37085,2.226316 -0.0935,1.34336 -0.45904,6.626671 -0.81232,11.740651 -0.3533,5.113979 -0.70986,9.975861 -0.79239,10.804182 l -0.15002,1.506038 h 1.97741 c 1.94879,0 1.97739,-0.0097 1.97739,-0.672898 z" />
</svg>
