<svg
   version="1.1"
   id="svg1"
   width="970.81976"
   height="158.10858"
   viewBox="0 0 970.81976 158.10858"
   xmlns="http://www.w3.org/2000/svg"
   xmlns:svg="http://www.w3.org/2000/svg">
  <defs
     id="defs1" />
  <g
     id="g1"
     transform="translate(526.23896,280.40483)">
    <path
       style="fill:#000000"
       d="m -484.23896,-142.79625 v -20.5 h -21 -21 v -5 -5 h 21 21 v -11.5 -11.5 l -20.75,10e-4 -20.75,0.001 v -4.2507 -4.2513 l 20.5,-0.5 20.5,-0.5 0.26222,-37.30429 0.26223,-37.30429 4.73777,0.30429 4.73778,0.30429 0.2622,37.28264 0.2622,37.28264 11.2378,-0.28264 11.2378,-0.28264 0.28275,-11.25 0.28275,-11.25 h -5.53275 -5.53275 v -5 -5 h 5.5 5.5 v -20.5 -20.5 h 4.5 4.5 v 20.5 20.5 h 11.5 11.5 v -21 -21 h 5 5 v 21 21 h 20.5 20.5 v 5 5 h -20.5 -20.5 v 11.5 11.5 h 20.5 20.5 v 4.5 4.5 h -20.5 -20.5 v 11.5 11.5 h 20.5 20.5 v 5 5 h -20.5 -20.5 v 20.5 20.5 h -5 -5 v -20.5 -20.5 h -11.5 -11.5 v 20.5 20.5 h -4.5 -4.5 v -20.5 -20.5 h -11.5 -11.5 v 20.5 20.5 h -5 -5 z m 32.78275,-41.75 -0.28275,-11.25 -11.25,-0.28275 -11.25,-0.28275 v 11.53275 11.53275 h 11.53275 11.53275 z m 32.21725,-0.25 v -11.5 h -11.5 -11.5 v 11.5 11.5 h 11.5 11.5 z m 0,-32 v -11.5 h -11.5 -11.5 v 10.83334 c 0,5.95833 0.3,11.13333 0.66667,11.5 0.36666,0.36666 5.54166,0.66666 11.5,0.66666 h 10.83333 z m 112.95056,44.19694 c -8.90103,-2.5159 -14.52319,-7.21589 -17.98019,-15.03102 -5.74344,-12.98399 -0.0885,-29.48369 12.26485,-35.78592 7.98363,-4.07294 20.00156,-4.16979 29.82225,-0.24032 3.66967,1.46831 3.94253,1.85421 3.94253,5.57589 0,3.43074 -0.24845,3.89056 -1.75,3.23874 -15.10775,-6.5582 -25.82024,-5.85204 -33.43638,2.20411 -3.61342,3.82218 -4.81362,7.36545 -4.81362,14.2109 0,11.66361 8.52496,19.39562 21.29718,19.31621 3.41155,-0.0212 7.44032,-0.5105 8.95282,-1.0873 2.4907,-0.94984 2.75,-1.51759 2.75,-6.02122 v -4.97249 l -5.18606,-0.30226 -5.18606,-0.30226 0.004,-3.5 0.004,-3.5 h 8.93182 8.93182 v 11.46869 11.4687 l -4.66438,1.73184 c -6.40407,2.37779 -18.20677,3.13269 -23.88506,1.52771 z m 34.04944,0.0482 c 0,-0.14017 5.07178,-12.17767 11.27062,-26.74999 10.98092,-25.81412 11.34783,-26.50277 14.27477,-26.79171 l 3.00415,-0.29656 11.72523,26.4445 c 6.44888,14.54447 11.72523,26.71543 11.72523,27.04656 0,0.33113 -1.70167,0.60206 -3.7815,0.60206 -3.75737,0 -3.80469,-0.051 -7.41553,-8 l -3.63403,-8 -11.33447,0.0131 -11.33447,0.013 -3.35598,7.98695 -3.35599,7.98695 h -3.89401 c -2.14171,0 -3.89402,-0.11469 -3.89402,-0.25486 z m 30.46175,-30.8345 c -1.90432,-4.44915 -3.83188,-8.7496 -4.28347,-9.55656 -0.57995,-1.0363 -1.784,0.97232 -4.09983,6.83937 -1.8033,4.5686 -3.50682,8.86905 -3.78558,9.55655 -0.38058,0.9386 1.50331,1.25 7.56221,1.25 h 8.06906 z m 27.53825,4.08936 v -27 h 4 4 v 23.5 23.5 h 12 12 v 3.5 3.5 h -16 -16 z m 39,0 v -27 h 14.83333 c 8.15834,0 15.05578,0.22244 15.32765,0.49431 0.27187,0.27187 0.29579,1.84687 0.0532,3.5 l -0.44118,3.00569 h -10.8865 -10.8865 v 7.96617 7.96617 l 10.75,0.28383 10.75,0.28383 0.31336,3.25 0.31336,3.25 h -11.06336 -11.06336 v 8.5 8.5 h 11.5 11.5 v 3.5 3.5 h -15.5 -15.5 z m 39,0 v -27 h 9.03212 c 13.40609,0 19.90996,3.35747 22.07434,11.39536 1.4617,5.42834 -0.15557,10.56257 -4.53971,14.4119 l -3.40855,2.99274 2.51961,2.35 c 1.38578,1.2925 5.56649,6.9625 9.29046,12.6 l 6.770847,10.25 h -4.6395 -4.639497 l -4.45088,-7.2129 c -2.44799,-3.9671 -6.29938,-9.1421 -8.55865,-11.5 -3.37763,-3.5251 -4.76032,-4.2871 -7.77917,-4.2871 h -3.67142 v 11.5 11.5 h -4 -4 z m 17.32988,-4.07463 c 2.9464,-0.81816 4.15597,-1.84391 5.24344,-4.44659 2.71014,-6.48629 -1.55038,-11.47878 -9.79583,-11.47878 h -4.77749 v 7.83334 c 0,4.30833 0.3,8.13333 0.66667,8.5 0.96597,0.96597 4.27677,0.81006 8.66321,-0.40797 z m 30.670117,4.07463 v -27 h 4 4 v 27 27 h -4 -4 z m 14,26.33642 c 0,-0.36497 5.05763,-12.53546 11.23919,-27.04552 l 11.23919,-26.38193 2.98041,0.29552 c 2.88034,0.28559 3.3759,1.18539 14.75775,26.79551 6.47753,14.575 11.77871,26.63837 11.78039,26.8075 0.002,0.16912 -1.81816,0.16912 -4.04411,0 -3.99081,-0.30322 -4.09468,-0.41196 -7.45738,-7.8075 l -3.4102,-7.5 -11.40923,-0.28058 -11.40922,-0.28058 -3.31559,8.03058 -3.31559,8.03058 h -3.81781 c -2.09979,0 -3.8178,-0.29861 -3.8178,-0.66358 z m 30.11805,-30.58642 c -2.08472,-4.5375 -4.03672,-8.925 -4.3378,-9.75 -0.43443,-1.19045 -0.70252,-1.08726 -1.29908,0.5 -0.41342,1.1 -2.23148,5.4875 -4.04012,9.75 l -3.28844,7.75 h 8.37791 8.37791 z m 53.8819496,7.81037 v -23.56037 H 0.76103663 -8.2389634 v -3.5 -3.5 h 22.0000004 22 v 3.5 3.5 h -8.98157 -8.98157 l -0.26843,23.25 -0.26843,23.25 -3.75,0.31037 -3.7500004,0.31036 z m 41.2734704,20.93274 c -19.40645,-9.83448 -20.02608,-37.55745 -1.0741,-48.05662 4.82069,-2.6706 6.1608,-2.93649 14.80063,-2.93649 8.62135,0 9.98597,0.26927 14.75433,2.91129 7.63257,4.229 11.58268,9.8198 13.28677,18.80544 2.05119,10.81586 -3.07452,22.39782 -12.50356,28.25284 -4.27568,2.65501 -5.80209,3.00678 -14.4099,3.32086 -8.80972,0.32145 -10.07166,0.12628 -14.85417,-2.29732 z m 20.00386,-4.55324 c 14.01422,-3.89178 19.37602,-23.10539 9.42494,-33.77354 -5.17923,-5.55244 -16.52803,-8.10319 -23.75864,-5.33999 -7.41676,2.83434 -12.88313,11.0649 -12.92167,19.45578 -0.0278,6.05464 1.80362,10.32727 6.23356,14.54266 5.78181,5.50179 13.16243,7.29766 21.02181,5.11509 z m 31.722673,-19.93987 v -27 h 3.44241 c 3.17642,0 4.12296,0.84499 12.25,10.93562 4.84417,6.01459 9.09981,10.85209 9.45697,10.75 0.35716,-0.10209 4.57513,-5.02312 9.37327,-10.93562 7.97075,-9.82195 9.01539,-10.75 12.10062,-10.75 h 3.37673 v 27.06037 27.06036 l -3.5838,-0.31036 -3.58379,-0.31037 0.12047,-20.83168 c 0.0663,-11.45743 -0.25227,-20.60131 -0.70785,-20.31975 -0.45558,0.28156 -4.40958,5.0429 -8.78668,10.58074 -4.37709,5.53784 -8.19622,10.06923 -8.48696,10.06975 -0.29073,5.2e-4 -4.11573,-4.70202 -8.5,-10.45008 -4.38426,-5.74807 -8.19639,-10.47356 -8.47139,-10.50109 -0.275,-0.0275 -0.36224,9.40043 -0.19387,20.95102 l 0.30613,21.00109 h -4.05613 -4.05613 z m 56.01163,26.75 c 0.006,-0.1375 5.11925,-12.175 11.36189,-26.75 15.17719,-35.43493 13.05579,-35.43447 28.83017,-0.006 6.48797,14.57153 11.79631,26.60903 11.79631,26.74996 0,0.14093 -1.69919,0.25624 -3.77599,0.25624 -3.76294,0 -3.78799,-0.0276 -7.25,-7.98841 l -3.47401,-7.98842 -11.62923,-0.0116 -11.62923,-0.0116 -3.30297,8 -3.30296,8 h -3.81781 c -2.09979,0 -3.81257,-0.1125 -3.80617,-0.25 z m 32.48464,-26.41316 c -3.56987,-8.54392 -6.8132,-15.35324 -7.15165,-15.01479 -0.19997,0.19998 -2.12482,4.48433 -4.27744,9.52077 l -3.91385,9.15718 h 8.43676 8.43675 z m 27.75373,24.69009 c -4.1037,-1.86274 -4.25,-2.08736 -4.25,-6.52516 v -4.59602 l 3.89215,3.12782 c 6.79773,5.46281 17.14401,4.65486 18.67839,-1.45862 1.11432,-4.43977 -0.72855,-6.64931 -11.79502,-14.14182 -9.12548,-6.17838 -10.77552,-8.46506 -10.77552,-14.93313 0,-6.10079 2.4196,-9.94172 7.63578,-12.12118 4.54389,-1.89855 12.16509,-1.72496 16.36422,0.37274 3.02602,1.51166 3.51398,2.25628 3.60326,5.49844 0.0568,2.0625 -0.03,3.75 -0.19284,3.75 -0.16285,0 -1.78432,-0.85639 -3.60326,-1.90309 -6.94882,-3.99868 -13.16889,-3.52686 -16.28939,1.23563 -2.4053,3.67095 -0.32661,6.98663 7.40025,11.80399 3.62009,2.25698 8.05317,5.49626 9.8513,7.19842 6.49506,6.14841 6.35401,15.71555 -0.31806,21.5737 -3.13634,2.75374 -4.19961,3.08895 -9.73606,3.06939 -3.96249,-0.014 -7.75562,-0.72119 -10.4652,-1.95111 z m 30.32587,0.8503 c 0.38165,-0.61752 8.05267,-11.19252 17.04671,-23.5 l 16.35279,-22.37723 h -15.98768 -15.98769 v -3.5 -3.5 h 23.06809 23.0681 l -2.0021,2.75 c -1.10115,1.5125 -8.75908,11.975 -17.01762,23.25 l -15.01552,20.5 16.94952,0.27361 16.94953,0.27362 v 3.47638 3.47639 h -24.05902 c -17.53849,0 -23.87095,-0.30429 -23.36511,-1.12277 z m 67.91685,-1.22854 c -8.89147,-4.14055 -14.44916,-12.23695 -15.25022,-22.2164 -1.01397,-12.63196 6.26384,-24.1147 17.68923,-27.90961 7.01066,-2.32857 18.86694,-1.73787 24.56827,1.22403 16.95769,8.80969 19.66316,32.13735 5.20335,44.86538 -5.58644,4.91738 -10.16529,6.39091 -19.81937,6.37814 -5.62112,-0.007 -8.57943,-0.56646 -12.39126,-2.34154 z m 19.89126,-4.87853 c 5.80308,-1.73391 11.98101,-8.19122 13.46132,-14.07005 3.41237,-13.55176 -5.82516,-25.76606 -19.53615,-25.83164 -13.05882,-0.0625 -21.50076,7.88038 -21.44196,20.17426 0.0712,14.88148 12.91581,24.0901 27.51679,19.72743 z m 36.61602,-19.00551 c -5.775,-14.41554 -10.65,-26.55985 -10.83333,-26.98736 -0.18334,-0.42751 1.39166,-0.77345 3.5,-0.76877 l 3.83333,0.008 7.43455,18.66146 c 6.62876,16.63886 7.55002,18.40563 8.5,16.30107 0.586,-1.29821 3.99045,-9.5872 7.56545,-18.41997 l 6.5,-16.05958 3.51057,-0.29609 3.51058,-0.29609 7.43515,18.55037 c 4.08933,10.2027 7.71193,18.21093 8.05021,17.79608 0.33828,-0.41485 3.7377,-8.739 7.55427,-18.49812 l 6.93922,-17.74385 3.65987,-0.006 3.65987,-0.006 -10.68748,26.67587 c -5.8781,14.67172 -11.12504,26.81794 -11.65986,26.99158 -0.53482,0.17364 -4.7974,-9.35204 -9.4724,-21.16819 -4.675,-11.81614 -8.725,-21.47898 -9,-21.47295 -0.275,0.006 -4.325,9.52808 -9,21.16013 -4.675,11.63205 -8.95,21.29298 -9.5,21.46873 -0.55,0.17574 -5.725,-11.47499 -11.5,-25.89052 z m -47.00603,-31.60313 c -0.003,-0.36383 1.00918,-3.01634 2.25,-5.89445 2.15306,-4.99409 2.43002,-5.23371 6.06817,-5.25 l 3.81213,-0.0171 -3.26409,4.54516 c -1.79524,2.49984 -3.8936,5.06762 -4.66301,5.70617 -1.60348,1.33077 -4.19425,1.89179 -4.2032,0.91019 z"
       id="path1" />
  </g>
</svg>
