<svg
   version="1.1"
   id="svg1"
   width="2476.8162"
   height="940"
   viewBox="0 0 2476.8162 940"
   xmlns="http://www.w3.org/2000/svg"
   xmlns:svg="http://www.w3.org/2000/svg">
  <defs
     id="defs1" />
  <g
     id="g1"
     transform="translate(1059.6128,1360.899)">
    <path
       style="fill:#000000"
       d="m -621.65836,-423.78431 c -9.92607,-3.28005 -24.02075,-10.09639 -23.95319,-11.58401 0.0257,-0.56689 6.60914,-6.43071 14.62977,-13.03071 18.5265,-15.24506 28.02041,-24.01337 29.86705,-27.58437 2.04176,-3.94834 1.81202,-9.60411 -0.54506,-13.41794 -1.19241,-1.92936 -7.76098,-7.20735 -16.25,-13.05724 -7.83671,-5.40037 -33.59857,-23.5477 -57.24857,-40.3274 -49.03644,-34.79141 -41.76684,-31.18541 -78.84758,-39.11144 -29.1055,-6.22132 -82.62923,-19.90819 -139.65242,-35.71135 -9.075,-2.515 -17.45015,-4.77472 -18.61145,-5.02159 -1.56602,-0.3329 -4.15157,1.44723 -10.00914,6.89124 -4.34373,4.03705 -11.04357,10.02647 -14.88855,13.30982 -3.84497,3.28335 -11.378,9.96061 -16.74006,14.83835 l -9.7492,8.86862 -6.40567,-4.571 c -3.52312,-2.51404 -9.12521,-7.95157 -12.44909,-12.08339 -6.30557,-7.83828 -13.55735,-19.82968 -12.98119,-21.46543 0.18389,-0.52209 4.38435,-4.39516 9.33435,-8.60682 4.95,-4.21167 13.27931,-11.59484 18.50958,-16.40706 l 9.50958,-8.74949 2.81373,-20.39676 c 3.16201,-22.9214 11.79965,-84.49171 17.63785,-125.72507 l 3.8694,-27.32831 -2.01897,-6.1501 c -4.27679,-13.02776 -8.18575,-19.13752 -23.83248,-37.2505 -6.14927,-7.11853 -27.22483,-31.57656 -46.83463,-54.35119 -19.6097,-22.77463 -39.5777,-45.94963 -44.3732,-51.5 l -8.7192,-10.09158 -0.016,-6.5 c -0.018,-7.38389 1.833,-16.19657 4.9384,-23.50867 2.6212,-6.1723 11.2843,-21.4836 12.1579,-21.4881 0.3529,0 3.9529,3.9281 8,8.7331 4.047,4.8049 14.3511,16.8424 22.898,26.74997 8.5469,9.90754 19.34688,22.48023 23.99997,27.93932 4.6531,5.45909 12.0155,14.00909 16.36089,19 4.3454,4.99091 10.25131,11.77438 13.12424,15.07438 41.69638,47.89464 43.91294,50.11717 51.33614,51.4746 10.30563,1.88452 26.36734,-6.79966 32.83608,-17.75369 l 2.52695,-4.27908 -1.29375,-80.53334 -1.29376,-80.53336 -3.43454,-3.3359 c -1.889,-1.8348 -8.44474,-6.3518 -14.56831,-10.0377 -11.68854,-7.0356 -67.76792,-35.033 -90.34902,-45.1063 -7.26838,-3.2424 -13.22517,-6.3452 -13.23729,-6.8952 -0.0878,-3.9843 19.25803,-35.5 21.79162,-35.5 1.38038,0 26.13218,10.396 88.66092,37.2387 24.83235,10.6601 28.67878,12.033 34,12.1353 7.53762,0.1449 14.22039,-2.3212 21.5,-7.934 6.98991,-5.3894 25.9608,-24.8025 33.1669,-33.94 l 5.52041,-7 5.17717,-20.5 c 2.84745,-11.275 8.34273,-32.65 12.21174,-47.5 5.20251,-19.9682 6.86893,-27.8955 6.39855,-30.4383 -1.44933,-7.8348 -12.00638,-24.5636 -23.93975,-37.9352 -3.12839,-3.5055 -5.31607,-6.7141 -4.8615,-7.1304 0.45456,-0.4163 6.79082,-3.7699 14.08056,-7.4526 l 13.25408,-6.6958 5.08324,5.5619 c 2.79578,3.059 8.08145,7.814 11.74592,10.5665 5.57029,4.1841 7.36603,5.0062 10.95252,5.0143 9.50324,0.021 12.03504,-2.3744 37.64522,-35.6215 6.24964,-8.1133 4.25992,-7.4258 27.35721,-9.4518 7.31074,-0.6413 13.58501,-0.8732 13.94281,-0.5154 0.35781,0.3578 -1.88155,3.2263 -4.97634,6.3744 -7.7481,7.8816 -24.35996,28.8467 -26.77351,33.7896 -2.79026,5.7144 -2.59834,10.5097 0.53856,13.4566 l 2.52379,2.371 45.22621,-2.7849 c 42.91719,-2.6427 45.34766,-2.8953 47.60509,-4.9467 6.31689,-5.7403 6.55072,-13.715 1.1137,-37.981 -2.19592,-9.8007 -3.99258,-18.2382 -3.99258,-18.75 0,-0.5119 1.63096,-0.9307 3.62436,-0.9307 3.84808,0 26.61772,4.3359 32.18633,6.129 l 3.31069,1.0661 -3.97103,3.6661 c -2.75675,2.545 -4.19456,4.8575 -4.70201,7.5624 -1.19705,6.3809 1.09318,20.2618 5.48976,33.2732 7.07984,20.9523 32.3678,75.9202 37.26077,80.993 3.43432,3.5605 10.52184,6.6665 18.80113,8.2393 7.86524,1.4942 26.12826,3.0691 35.60212,3.07 13.10561,10e-4 12.46514,0.7764 28.53952,-34.5333 14.68037,-32.2476 20.82956,-47.6254 21.57944,-53.9658 0.36568,-3.092 -0.46651,-6.3553 -3.66573,-14.3749 -2.27634,-5.7061 -4.00752,-10.747 -3.84707,-11.202 0.67062,-1.9016 38.38671,14.5471 42.68473,18.6157 1.17978,1.1168 -0.90866,5.9599 -13.64363,31.6399 -23.93645,48.2677 -35.24938,74.0062 -35.24938,80.1973 0,4.5042 3.6975,9.3523 15.39031,20.1796 14.58409,13.5046 17.25832,14.1662 25.03652,6.1944 2.81736,-2.8875 6.9676,-7.5 9.22276,-10.25 2.25515,-2.75 16.0144,-19.2213 30.5761,-36.6029 27.66841,-33.0265 30.28385,-36.4308 35.83808,-46.6471 1.86884,-3.4375 3.76796,-6.25 4.22028,-6.25 1.08259,0 14.62638,9.9763 22.21595,16.3643 3.3,2.7775 6.19027,5.1845 6.42282,5.349 0.23254,0.1644 -1.56746,1.9597 -4,3.9896 -6.86733,5.7304 -11.291,10.5181 -27.10101,29.331 -12.25202,14.5791 -29.68416,35.2561 -60.83312,72.1569 -2.64208,3.13 -5.09136,7.0001 -5.44284,8.6004 -0.68966,3.14 -0.71272,3.0654 7.94434,25.7088 6.61373,17.2988 13.86358,37.0223 23.52478,64 7.29897,20.3814 10.33533,25.4949 16.72375,28.1642 6.10556,2.551 8.12429,1.0828 32.90248,-23.9298 40.07231,-40.4515 52.64107,-53.633 55.14734,-57.8359 1.6681,-2.7973 3.64951,-9.9801 6.27386,-22.7435 2.10966,-10.2603 5.91833,-28.7772 8.4637,-41.1487 2.54537,-12.3715 4.81822,-22.684 5.05079,-22.9165 0.23256,-0.2326 2.1104,1.3395 4.17298,3.4936 2.06257,2.1541 6.40235,6.3658 9.64396,9.3592 l 5.89383,5.4427 -3.16234,17.0573 c -3.20056,17.2635 -5.80835,33.2301 -6.80924,41.6908 -0.30459,2.5747 -9e-5,6.294 0.68534,8.3709 1.15806,3.5089 2.00585,4.1027 13.86603,9.711 26.89374,12.7173 47.3528,22.0297 52.33085,23.8194 3.11582,1.1202 4.09552,2.2456 6.22027,7.1448 2.62746,6.0584 5.272,18.4632 4.17087,19.5644 -0.34918,0.3491 -2.98714,-0.1944 -5.86215,-1.2079 -6.06328,-2.1374 -38.78004,-16.7499 -56.18718,-25.0952 -6.57793,-3.1536 -13.83707,-5.9454 -16.13142,-6.204 -8.42225,-0.9493 -9.19148,-0.3298 -45.46581,36.618 -18.73965,19.0876 -35.39302,36.6716 -37.00749,39.07544 -4.23693,6.30864 -3.73119,10.27393 2.04735,16.05247 0.8823,0.8823 7.20962,3.55161 14.06072,5.9318 25.00336,8.68662 59.7972,21.42548 73.45654,26.89421 16.13013,6.45795 23.12732,7.34537 28.19899,3.57634 1.65134,-1.22719 12.62984,-18.39155 26.74748,-41.81838 21.10821,-35.02698 24.05363,-39.46008 24.85067,-37.40178 4.28645,11.0695 8.81482,25.6277 9.76933,31.40751 l 1.15773,7.01036 -5.75562,8.9586 c -3.1656,4.92723 -11.11869,16.97329 -17.67354,26.76902 -12.42587,18.56953 -15.80152,24.93467 -15.96746,30.10832 -0.0543,1.6947 1.95579,10.05626 4.46699,18.58126 2.51119,8.525 7.11283,24.275 10.22586,35 11.16734,38.47367 17.97013,58.0811 24.98212,72.00507 3.61108,7.17064 3.72894,7.72812 3.13058,14.80681 -0.93249,11.03135 -3.2396,18.54198 -8.0898,26.33573 l -4.36896,7.02047 -5.09846,-7.55559 c -6.38084,-9.45599 -8.27911,-11.27521 -14.85442,-14.2358 -7.0635,-3.18039 -10.0955,-3.01233 -21.78915,1.20779 -51.84315,18.70968 -97.49699,34.47315 -118.43234,40.89262 -17.6413,5.4094 -26.77326,9.77038 -33.01159,15.76473 -4.81325,4.625 -15.05447,24.87911 -32.34718,63.97314 -13.46867,30.44896 -15.86052,37.51105 -16.01488,47.28503 -0.21192,13.41796 -0.26264,13.37124 31.10419,28.64947 14.51047,7.06779 26.55341,12.85053 26.76209,12.85053 0.20868,0 9.52071,4.44012 20.69339,9.86694 11.17269,5.42682 21.11253,10.14193 22.08854,10.47804 1.37767,0.47442 1.61942,1.23107 1.08089,3.38306 -1.91835,7.66581 -10.97601,22.78529 -17.13384,28.60062 l -2.99526,2.82866 -9.86317,-6.40273 c -14.64849,-9.50915 -22.70531,-14.06903 -34.26512,-19.39286 -5.72107,-2.63482 -17.19607,-8.32409 -25.5,-12.64284 -38.63822,-20.09511 -40.16544,-20.55937 -50.51601,-15.35625 -6.02479,3.02859 -24.78561,16.02721 -38.58205,26.73196 -4.95,3.84074 -14.85,11.44314 -22,16.89424 -15.91558,12.13389 -21.58259,16.51743 -77.17754,59.69827 l -44.17754,34.31289 -9.82246,-0.0382 c -8.01219,-0.0312 -11.38901,-0.55592 -18.32246,-2.84708 z m 81.64501,-97.00618 c 1.17975,-0.8847 18.50475,-14.39709 38.5,-30.02755 46.58951,-36.41942 52.0988,-40.69092 59.35499,-46.01951 6.29907,-4.62574 14.2108,-13.1415 20.03211,-21.56148 4.27385,-6.18174 33.73371,-68.34555 37.04829,-78.17632 4.96254,-14.71845 2.45008,-23.80568 -9.15689,-33.11937 -10.16974,-8.16042 -80.27519,-63.30066 -93.77048,-73.75357 -7.06584,-5.47291 -15.84084,-12.31162 -19.5,-15.19713 -9.1963,-7.25194 -12.24557,-8.56609 -18.03018,-7.77051 -2.59811,0.35733 -6.36027,1.63232 -8.36036,2.8333 -3.94361,2.368 -59.96922,53.9392 -81.60862,75.12019 -7.34037,7.18488 -15.36441,15.66421 -17.83119,18.84297 -8.04966,10.37298 -33.03259,64.41706 -42.39956,91.72044 -5.08953,14.83525 -5.46577,20.19326 -1.93032,27.48975 3.41784,7.05378 13.60665,16.74246 27.0072,25.68152 31.83074,21.23322 54.72529,37.19134 74.93076,52.22875 11.77676,8.76456 15.89372,11.06507 23.31991,13.03089 5.72777,1.51622 9.08697,1.15782 12.39434,-1.32237 z m -189.96404,-111.60644 c 6.80206,-2.01999 9.66882,-4.49615 11.81259,-10.20309 0.9915,-2.63946 8.51739,-22.12401 16.72421,-43.29901 13.75996,-35.50303 14.87956,-38.88043 14.38274,-43.38715 -0.29632,-2.68793 -1.30844,-5.73762 -2.24915,-6.77709 -0.94071,-1.03947 -8.7171,-7.18717 -17.28087,-13.66155 -14.13434,-10.68585 -31.81041,-24.79885 -101.54828,-81.07858 -12.63779,-10.19893 -24.54544,-19.34273 -26.46145,-20.31957 -5.52942,-2.81906 -10.96478,-2.26758 -20.29262,2.05892 -13.5324,6.27667 -25.12423,14.34547 -27.88143,19.40759 -0.93699,1.72029 -7.19562,44.2405 -16.49563,112.06887 -4.24613,30.96861 -4.63885,35.32901 -3.55754,39.5 2.26006,8.71788 4.62307,9.80209 44.95431,20.62621 26.1862,7.02787 96.80979,24.88608 102.21215,25.84584 6.08414,1.08089 20.9312,0.62914 25.68097,-0.78139 z m 418.64326,-129.41127 c 42.59607,-12.57617 73.1413,-21.9192 95.17577,-29.11192 42.56712,-13.89521 50.13819,-18.58736 49.17953,-30.47891 -0.43849,-5.43927 -20.42155,-72.16603 -23.25115,-77.63949 -2.41072,-4.66319 -7.18147,-10.4348 -11.08865,-13.41496 -3.05313,-2.32873 -52.58136,-20.59796 -101.82784,-37.56072 -22.16759,-7.63554 -26.26661,-8.21912 -31.72292,-4.51637 -1.91957,1.30266 -12.44486,7.45663 -23.38955,13.6755 -127.21232,72.28324 -133.39942,76.00658 -133.39942,80.27866 0,3.10972 1.35077,4.26039 33.5,28.53735 15.4,11.62905 34.975,26.45 43.5,32.93543 33.88731,25.77993 52.64029,39.86256 55.47905,41.66224 3.83197,2.42935 10.1177,4.39039 14.34518,4.47546 1.82833,0.0368 16.90333,-3.94223 33.5,-8.84227 z m -335.57109,-18.34083 c 8.31629,-4.47977 58.26584,-52.41596 72.74619,-69.81394 8.198,-9.84981 11.89364,-16.26517 13.50071,-23.43624 0.93245,-4.16077 0.20375,-8.92379 -6.93423,-45.32459 -10.08851,-51.44733 -16.56048,-85.2321 -18.47088,-96.4212 -1.1177,-6.5463 -2.2701,-9.875 -4.58201,-13.2352 -4.74276,-6.8934 -14.35191,-14.0872 -27.01292,-20.223 -20.07058,-9.7266 -40.23697,-19.4076 -48.5,-23.2826 -9.03759,-4.2383 -53.1029,-25.431 -76.5,-36.7919 -25.26405,-12.2674 -28.62314,-11.741 -52.04387,8.1553 -7.40087,6.2871 -17.23435,15.2624 -21.85217,19.945 -7.52727,7.6328 -8.4722,9.0138 -9.13199,13.3461 -0.74125,4.8671 0.4198,104.08222 1.49008,127.33227 0.84621,18.38241 2.47416,36.97722 3.60947,41.22819 1.16428,4.35942 6.41493,8.96251 37.42848,32.81238 59.48895,45.74788 109.88956,82.87294 116.70986,85.96839 6.00495,2.7254 14.2048,2.61674 19.54328,-0.25896 z m 138.74686,-122.6234 c 5.33316,-2.43922 134.87405,-77.27256 140.64569,-81.24837 1.98924,-1.37029 2.34877,-2.45575 2.3186,-7 -0.0299,-4.50971 -3.14524,-13.5896 -19.29118,-56.2267 -10.5905,-27.9667 -20.184,-52.8239 -21.31889,-55.2383 -3.65789,-7.7818 -8.99695,-11.1899 -16.35422,-10.4395 -2.85505,0.2911 -120.30201,59.7021 -124.4353,62.946 -1.88941,1.4828 -4.29381,3.8459 -5.3431,5.2513 -2.14447,2.8723 -2.60797,0.2758 16.30312,91.32897 10.10276,48.64274 9.97802,48.12582 12.18469,50.4944 2.41946,2.59699 9.76272,2.66048 15.29059,0.1322 z m -75.44578,-185.95297 c 2.44518,-1.5545 5.00396,-3.917 5.68617,-5.25 0.68222,-1.333 6.17762,-29.5649 12.212,-62.7375 12.04246,-66.2005 11.71307,-62.5643 6.96586,-76.9009 -3.30314,-9.9755 -11.56475,-27.4748 -14.8389,-31.431 -1.65949,-2.0052 -5.0333,-4.6217 -7.49735,-5.8145 l -4.48009,-2.1688 -30.30096,1.5871 c -57.04904,2.9882 -96.30121,5.5237 -99.30095,6.4145 -5.31454,1.5781 -8.24655,3.2934 -10.23963,5.9903 -1.07188,1.4505 -4.92259,13.6622 -8.55712,27.1372 -11.64622,43.1782 -13.94139,53.9157 -13.50301,63.1711 l 0.29976,6.3289 52,26.173 c 69.48513,34.9738 101.36757,50.327 104.50882,50.327 1.42979,0 4.60022,-1.2719 7.0454,-2.8264 z m 103.44578,-30.3218 c 39.19611,-19.4564 41.08194,-20.5196 42.86237,-24.1646 1.62729,-3.3316 1.70805,-4.3641 0.63981,-8.1795 -1.00299,-3.5823 -3.53433,-6.6602 -14.09391,-17.137 -7.07923,-7.0238 -13.45524,-13.0973 -14.1689,-13.4967 -3.0304,-1.6959 -33.05395,-7.0877 -42.26968,-7.591 -8.91735,-0.487 -10.49482,-0.3109 -14.21657,1.5878 -2.30243,1.1747 -4.68292,3.0637 -5.28995,4.198 -1.26463,2.363 -8.07767,36.2942 -10.42725,51.9312 -0.86774,5.775 -1.84648,14.775 -2.17496,20 -0.57163,9.0924 -0.49566,9.5922 1.77089,11.6501 6.38791,5.8 10.58207,4.4256 57.36815,-18.7983 z m 1543.25716,462.18309 c -17.2456,-3.15278 -31.5193,-12.1081 -40.8009,-25.5984 -3.3038,-4.80201 -8.9563,-17.39756 -8.9563,-19.95767 0,-1.15079 16.5574,-7.47885 19.5685,-7.47885 0.5849,0 2.1209,2.5875 3.4134,5.75 6.5587,16.04857 16.8307,24.89779 31.6642,27.2784 17.5112,2.81032 32.9805,-3.45877 39.0542,-15.82705 2.3183,-4.72104 2.7969,-6.99093 2.7835,-13.20135 -0.019,-8.77902 -1.9134,-13.47823 -7.6959,-19.08991 -5.1624,-5.00996 -11.7765,-7.94777 -32.2787,-14.33746 -22.0699,-6.87825 -29.5391,-10.74103 -37.8933,-19.59688 -8.2867,-8.78435 -10.7611,-14.90602 -11.3868,-28.17078 -0.372,-7.88647 -0.069,-10.9722 1.6223,-16.54152 5.3961,-17.76571 18.955,-29.66894 38.3564,-33.67279 31.0021,-6.39786 58.9925,8.74337 67.1807,36.34084 0.8863,2.98733 1.6115,5.76272 1.6115,6.16754 0,0.74204 -17.5292,6.90096 -19.6412,6.90096 -0.6249,0 -1.4154,-1.4625 -1.7566,-3.25 -1.7907,-9.38076 -10.1959,-20.93538 -17.9337,-24.65351 -9.904,-4.759 -23.7271,-4.70463 -33.4104,0.1314 -14.9616,7.47221 -19.591,27.91087 -9.2881,41.0072 3.5626,4.52847 14.3132,9.74829 29.4062,14.27775 26.4525,7.93851 35.8373,12.62995 44.946,22.46851 7.5408,8.14491 9.8837,14.45507 10.4506,28.14658 0.4773,11.52545 -0.8208,18.12847 -5.2744,26.82936 -5.4007,10.55147 -17.3942,20.04834 -30.4984,24.14975 -7.35,2.30044 -25.46,3.35071 -33.2428,1.92788 z m -866.10266,-2.78499 c -0.379,-0.6132 -11.8065,-50.35001 -32.6834,-142.24993 -1.5618,-6.875 -3.9334,-17.12626 -5.2703,-22.78057 l -2.4307,-10.28056 11.5924,0.28056 11.5924,0.28057 5.6278,26 c 3.0953,14.3 8.9197,41.075 12.9431,59.5 4.0234,18.425 7.5127,34.9625 7.7541,36.75 0.2414,1.7875 0.7272,3.24953 1.0795,3.24896 0.3523,-5.7e-4 1.4824,-3.48807 2.5113,-7.75 3.9643,-16.42087 24.7727,-101.18563 26.8803,-109.49896 l 2.2183,-8.75 h 9.7653 c 7.9382,0 9.7654,0.27587 9.7654,1.47434 0,0.81089 3.6575,16.67339 8.1278,35.25 11.7158,48.68611 13.4678,55.99927 17.6144,73.52566 2.0494,8.6625 3.9926,15.75 4.3183,15.75 0.3256,0 1.9991,-6.6375 3.7189,-14.75 6.4773,-30.55483 23.2734,-107.81969 23.8034,-109.5 0.4814,-1.52629 1.9495,-1.75 11.4846,-1.75 7.3761,0 10.9326,0.36287 10.9326,1.11545 0,0.6135 -2.9013,13.776 -6.4473,29.25 -3.5461,15.474 -8.7353,38.25955 -11.5317,50.63455 -2.7963,12.375 -5.9719,26.325 -7.0569,31 -1.085,4.675 -4.7862,20.875 -8.2248,36 l -6.2521,27.5 -9.6185,0.2847 -9.6186,0.28471 -5.7389,-23.78471 c -13.505,-55.97154 -25.7407,-105.38785 -26.0226,-105.09759 -0.1671,0.17209 -2.349,8.86289 -4.8487,19.31289 -6.7378,28.1677 -24.5489,101.42912 -25.7096,105.75 l -1.0074,3.75 h -9.4024 c -5.1714,0 -9.6111,-0.33753 -9.866,-0.75007 z m 149.3455,-0.76418 c 0,-0.86886 1.8317,-7.5211 4.0704,-14.78275 4.0209,-13.04279 8.8174,-28.86568 34.9979,-115.453 l 13.3794,-44.25 h 12.7087 c 11.2386,0 12.7691,0.20245 13.2296,1.75 0.2864,0.9625 12.0167,40.14736 26.0673,87.07746 14.0507,46.93011 25.5467,85.74261 25.5467,86.25 0,0.50969 -5.1255,0.92254 -11.453,0.92254 h -11.453 l -1.0195,-3.75 c -0.5608,-2.0625 -3.8127,-13.7625 -7.2265,-26 l -6.207,-22.25 h -27.6579 -27.6579 l -5.2483,18.25 c -2.8867,10.0375 -6.256,21.625 -7.4875,25.75 l -2.2391,7.5 -11.1751,0.28275 c -9.6369,0.24383 -11.1752,0.0653 -11.1752,-1.297 z m 85.6555,-73.73575 c -3.3896,-13.20095 -20.2899,-71.74455 -20.7117,-71.7469 -0.4762,-0.003 -19.3399,65.39022 -20.6967,71.7469 l -0.4803,2.25 h 21.2333 21.2332 z m 65.0642,74.63641 c -0.3724,-0.37248 -0.6914,-39.98679 -0.7089,-88.03182 l -0.0316,-87.35459 35.2604,0.0174 c 38.2425,0.0188 44.1541,0.61476 53.6046,5.40367 14.0866,7.13825 22.6539,21.37765 23.813,39.57897 0.6169,9.68554 -1.2473,20.44397 -4.8307,27.87848 -4.2782,8.87616 -14.8471,17.42801 -25.9986,21.03683 l -3.672,1.18834 2.3137,5.19818 c 1.2726,2.85899 6.6375,14.14659 11.9221,25.08355 5.2846,10.93697 9.6083,19.99402 9.6083,20.1268 0,0.13277 3.15,6.84562 7,14.91744 3.85,8.07182 7,14.87726 7,15.12321 0,0.24594 -5.5947,0.44717 -12.4326,0.44717 -12.015,0 -12.4566,-0.0756 -13.1461,-2.25 -0.3924,-1.2375 -3.1227,-7.35871 -6.0674,-13.6027 -2.9446,-6.24398 -5.3539,-11.4868 -5.3539,-11.65071 0,-0.1639 -1.8723,-4.28018 -4.1606,-9.1473 -2.2884,-4.86715 -7.4226,-16.04933 -11.4094,-24.84933 l -7.2487,-16 -16.5906,-0.27418 -16.5907,-0.27418 -0.1153,37.27418 c -0.063,20.5008 -0.176,37.94918 -0.25,38.77418 -0.1087,1.21035 -2.1722,1.55442 -10.6862,1.78182 -5.8033,0.155 -10.8563,-0.0229 -11.2288,-0.39541 z m 74.5242,-100.5834 c 10.8698,-5.08447 14.8892,-11.96123 14.9845,-25.63711 0.048,-6.90993 -0.4029,-9.73852 -2.2259,-13.9594 -2.5692,-5.94879 -8.0191,-11.17954 -13.7275,-13.17562 -4.7393,-1.6572 -50.2148,-2.74518 -51.1571,-1.22391 -0.3398,0.54864 -0.4916,13.68344 -0.3372,29.18845 l 0.2808,28.19091 23.2192,-0.34828 c 22.7563,-0.34133 23.3338,-0.40185 28.9632,-3.03504 z m 60.7561,13.19699 v -88 h 14.4028 14.4028 l 2.4367,6.25 c 24.9138,63.90083 38.1196,97.38136 38.6282,97.93385 0.3462,0.37612 9.6852,-23.02388 20.7532,-52 18.4489,-48.29916 20.3215,-52.7025 22.5,-52.90792 1.307,-0.12324 7.6638,0.0471 14.1263,0.37849 l 11.75,0.60256 v 87.87151 87.87151 h -10.393 c -8.4489,0 -10.5039,-0.28892 -10.9857,-1.54453 -0.326,-0.84949 -0.5958,-31.11199 -0.5996,-67.25 0,-36.13801 -0.024,-66.60547 -0.044,-67.70547 -0.039,-2.07603 -4.8402,10.14471 -28.914,73.59809 l -14.2644,37.59808 -3.8425,-0.0924 -3.8425,-0.0924 -12.6122,-32.50568 c -6.9368,-17.87812 -16.7499,-43.17347 -21.8069,-56.21188 l -9.1952,-23.70623 -0.2568,68.95621 -0.2569,68.95621 h -10.9931 -10.9932 z m 179,0 v -88 h 11 11 v 88 88 h -11 -11 z m 62.7196,87.38624 c -0.3726,-0.37257 -0.6915,-39.98689 -0.7088,-88.03182 l -0.0313,-87.35442 h 13.9271 13.9271 l 6.2298,11.75 c 7.2256,13.62835 11.6434,22.02542 22.491,42.75 4.3182,8.25 10.0045,19.05 12.6363,24 2.6317,4.95 10.0779,19.09908 16.5471,31.4424 l 11.7621,22.4424 0.2571,-66.1924 0.2572,-66.1924 h 10.9928 10.9929 v 88 88 h -10.8698 -10.8698 l -29.3149,-55.25 c -16.1232,-30.3875 -32.8677,-62 -37.2099,-70.25 -4.3423,-8.25 -8.1967,-15.31495 -8.5653,-15.69988 -0.3687,-0.38493 -0.6703,31.11507 -0.6703,70 v 70.69988 l -10.5515,0.28182 c -5.8033,0.155 -10.8564,-0.023 -11.2289,-0.39558 z m 279.28036,-87.38624 v -88 h 10.989 10.9891 l 0.2609,41.45591 0.261,41.45592 11.0276,-13.70592 c 6.0652,-7.53825 21.0891,-26.19341 33.3864,-41.45591 l 22.3587,-27.75 h 13.4067 13.4068 l -5.4228,6.75 c -30.6653,38.17055 -47.9458,59.96169 -48.3638,60.9879 -0.2774,0.68085 12.8168,25.09197 29.0981,54.24694 16.2812,29.15497 29.6023,53.24886 29.6023,53.54197 0,0.29312 -5.6584,0.407 -12.5742,0.25307 l -12.5742,-0.27988 -24.3629,-44.35376 c -13.3996,-24.39457 -24.5392,-44.5301 -24.7547,-44.74562 -0.2156,-0.21552 -2.8294,2.64367 -5.8086,6.35376 -2.9793,3.71009 -8.4562,10.34562 -12.171,14.74562 l -6.7542,8 -10e-5,30.25 -10e-5,30.25 h -11 -11 z m 133.2478,86.78277 c 0.2678,-0.70552 4.4077,-14.33277 9.1997,-30.28277 4.792,-15.95 10.4495,-34.625 12.5722,-41.5 3.2667,-10.58019 29.087,-95.9907 30.6087,-101.25 0.448,-1.54817 1.9704,-1.75 13.2009,-1.75 h 12.6946 l 25.8871,86.25 c 14.2379,47.4375 26.1014,87.05227 26.3633,88.03282 0.44,1.64769 -0.4151,1.76138 -11.282,1.5 l -11.7581,-0.28282 -7.1171,-25.74198 -7.1171,-25.74198 -27.7221,-0.008 -27.722,-0.008 -1.6723,5.75 c -0.9198,3.1625 -4.24,14.75 -7.3783,25.75 l -5.706,20 -11.7692,0.28277 c -9.2503,0.22225 -11.665,0.008 -11.2823,-1 z m 86.7522,-72.1851 c 0,-0.35291 -19.1192,-67.90549 -20.6869,-73.09155 -0.6352,-2.10149 -0.9888,-0.95825 -14.6122,47.24388 l -7.4191,26.25 h 21.3591 c 11.7475,0 21.3591,-0.18105 21.3591,-0.40233 z M 14.341642,-874.96239 v -215.06331 l 3.25,0.3133 3.25,0.3134 0.2523,214.74997 0.2523,214.75 h -3.5023 -3.5023 z m 912.278698,7.08776 13.2213,-19.9756 9.8724,-0.0244 c 7.7476,-0.0192 9.6652,0.24464 8.9095,1.2256 -0.5296,0.6875 -7.4119,9.6875 -15.2939,20 l -14.3309,18.75 h -7.7999 -7.7999 z m -712.5191,-46.15828 c -31.8556,-3.30351 -51.5149,-28.34129 -55.8423,-71.11986 -3.0098,-29.75313 3.121,-61.00123 15.6725,-79.88143 12.0973,-18.1968 28.8342,-27.2383 50.4102,-27.232 16.2644,0.01 30.048,5.8571 39.8957,16.9392 7.0415,7.9241 13.2371,22.2865 15.5419,36.0287 l 0.6877,4.1007 -8.8126,1.7219 c -4.847,0.947 -9.8252,1.963 -11.0627,2.2577 -1.9912,0.4742 -2.2517,0.1495 -2.2648,-2.8226 -0.025,-5.6902 -2.8799,-15.8809 -6.1873,-22.0863 -6.2954,-11.8114 -15.7926,-17.1746 -30.1507,-17.0265 -6.6732,0.069 -8.8038,0.5492 -14.1848,3.1983 -19.2928,9.4978 -28.4665,34.668 -27.1686,74.54334 0.8583,26.36579 5.5648,41.35877 16.4215,52.31183 8.0131,8.08425 12.3935,9.7009 26.2847,9.7009 10.5088,0 11.9309,-0.22802 16.5,-2.6456 6.0973,-3.22618 9.0816,-5.92998 13.2767,-12.02874 4.8642,-7.0715 5.5188,-9.36971 6.1456,-21.57731 l 0.5777,-11.25164 -19.25,0.002 -19.25,10e-4 v -9.5 -9.5 h 30.011 30.0109 l -0.2609,41.75 -0.261,41.75 h -9 -9 l -0.2959,-7.35168 -0.2958,-7.35169 -5.2042,4.91514 c -10.3855,9.80877 -25.1815,13.99641 -42.9445,12.15435 z m 80.8445,-2.77432 c -0.1751,-0.32549 2.2739,-9.1418 5.4422,-19.5918 3.1683,-10.45 14.804,-48.79977 25.8571,-85.22167 11.0531,-36.422 20.0966,-66.4729 20.0966,-66.7799 0,-0.307 5.6927,-0.4322 12.6505,-0.2783 l 12.6504,0.2799 25.7079,85.5 c 14.1393,47.02497 25.5072,85.85818 25.2621,86.296 -0.2452,0.43781 -5.3387,0.72336 -11.3189,0.63454 l -10.8731,-0.16148 -0.9822,-3.13454 c -0.5402,-1.724 -2.8452,-9.88455 -5.1222,-18.13455 -6.5957,-23.89751 -8.5007,-30.01684 -9.2616,-29.75 -0.3921,0.1375 -12.5521,0.25 -27.0223,0.25 h -26.3095 l -6.9196,24.06157 c -3.8058,13.23387 -7.154,24.44027 -7.4405,24.90313 -0.594,0.95941 -21.93,2.03218 -22.4169,1.1271 z m 84.1365,-71.49902 c 0.2584,-0.25847 -3.22,-13.66005 -7.7298,-29.78135 -10.0003,-35.7478 -12.1431,-43.0125 -12.5633,-42.5923 -0.2989,0.299 -18.4047,63.77618 -19.9685,70.00791 l -0.6843,2.72705 18.3527,0.27295 c 18.7264,0.27852 21.7657,0.1932 22.5932,-0.63426 z m 60.9354,71.74987 c -0.3718,-0.37179 -0.676,-39.30098 -0.676,-86.50932 v -85.8333 h 10.9938 10.9937 l 0.2563,76.0069 0.2562,76.00698 38.5,0.24305 38.5,0.24304 v 10 10 l -49.074,0.25932 c -26.9907,0.14263 -49.3782,-0.0449 -49.75,-0.41667 z m 115.324,-85.84262 v -86.5 h 51 51 v 10 10 h -40 -40 v 27 27 h 28.5 28.5 v 9.9727 9.97264 l -27.25,0.008 c -14.9875,0.004 -27.8125,0.0165 -28.5,0.0273 -0.9708,0.0152 -1.25,6.49671 -1.25,29.01959 v 29 h 41.393 c 36.8225,0 41.46,0.17466 42,1.58179 0.7881,2.05365 0.7881,15.78277 0,17.83642 -0.5428,1.41454 -6.1469,1.58179 -53,1.58179 h -52.393 z m 126.7038,85.8704 c -0.3871,-0.38707 -0.7038,-39.32876 -0.7038,-86.5371 v -85.8333 h 34.3635 c 35.5088,0 40.2311,0.3798 49.9547,4.0178 23.3241,8.7267 33.8206,43.2279 20.8729,68.6075 -3.9029,7.6504 -14.6626,16.1542 -24.4411,19.3169 -2.0625,0.66708 -3.75,1.3468 -3.75,1.51048 0,0.48668 6.289,14.04919 13.7013,29.54729 3.8142,7.975 9.3755,19.675 12.3583,26 2.9829,6.325 6.6134,13.975 8.0679,17 1.4544,3.025 2.4659,5.80236 2.2477,6.17191 -0.2182,0.36955 -5.6225,0.59455 -12.0095,0.5 l -11.6128,-0.17191 -17.5018,-38.25 -17.5019,-38.25 h -16.3746 -16.3746 v 38.38635 38.38634 l -10.2962,0.15075 c -5.663,0.0829 -10.613,-0.16594 -11,-0.55301 z m 71.7962,-98.3727 c 7.3724,-3.5242 10.5273,-6.3538 13.2374,-11.8723 5.1614,-10.5101 3.2383,-27.1669 -4.0362,-34.958 -5.5055,-5.8964 -11.8642,-7.1721 -35.9618,-7.2146 -10.5817,-0.019 -20.2519,-0.016 -21.4894,0.01 l -2.25,0.04 v 27.9304 27.9305 l 2.25,0.3195 c 1.2375,0.1758 11.925,0.079 23.75,-0.2145 15.6878,-0.3898 22.311,-0.9219 24.5,-1.9682 z m 61.0593,98.09829 c -0.3072,-0.49719 -0.4463,-39.30969 -0.309,-86.24999 l 0.2497,-85.346 10.75,-0.2839 10.75,-0.2838 v 86.5338 86.53387 h -10.441 c -5.7425,0 -10.6924,-0.40679 -10.9997,-0.90398 z m 45.6445,0.0872 c -2.8848,-0.27727 -3.209,-0.58925 -2.5973,-2.5 1.6681,-5.2106 11.4795,-37.53008 24.4934,-80.6832 7.7127,-25.57499 15.7631,-52.12499 17.8896,-58.99999 2.1265,-6.875 5.051,-16.4375 6.4989,-21.25 l 2.6326,-8.75 h 12.4074 12.4073 l 2.4902,8.25 c 25.3279,83.90992 48.5741,161.93137 48.5741,163.02955 0,1.12814 -2.199,1.38673 -11.1625,1.31266 l -11.1625,-0.0922 -7.0875,-25.24845 -7.0875,-25.24844 -24.5,-0.14296 c -26.0402,-0.15195 -29.0821,-0.11142 -29.5877,0.39424 -0.1762,0.17616 -3.5117,11.31168 -7.4123,24.74561 -3.9006,13.43393 -7.1838,24.50696 -7.296,24.60674 -0.45,0.40022 -16.4214,0.87236 -19.5002,0.57646 z m 81.7962,-71.84715 c 0,-0.36516 -4.5301,-16.67764 -10.0668,-36.25004 -5.5368,-19.5723 -10.1646,-35.9695 -10.2841,-36.4382 -0.1195,-0.4687 -1.4195,3.3563 -2.8889,8.5 -7.8167,27.3623 -16.5841,58.74763 -17.2083,61.60217 l -0.7108,3.25 h 20.5794 c 11.3187,0 20.5795,-0.29877 20.5795,-0.66393 z"
       id="path1" />
  </g>
</svg>
