<svg id="GALERIAPOLNOCNA" width="500" height="175.26076" viewBox="0 0 500 175.26076" version="1.1" xml:space="preserve" xmlns:xlink="http://www.w3.org/1999/xlink" xmlns="http://www.w3.org/2000/svg" xmlns:svg="http://www.w3.org/2000/svg">
	<path id="GALERIAPOLNOCNA" style="fill:#000000;stroke:#000000;stroke-width:0" d="m 0,145.73172 v -29.47916 h 11.458665 c 8.458911,0 12.417771,0.32032 15.122426,1.22359 7.064968,2.35947 10.897259,7.97944 10.913569,16.00449 0.02297,11.42689 -8.058531,18.75946 -20.676148,18.75946 H 12.25108 v 11.48539 11.48539 H 6.1255399 0 Z m 21.23763,-5.6911 c 5.731361,-4.78212 2.80588,-12.1301 -5.13305,-12.89294 l -3.8535,-0.37027 v 7.3715 7.3715 l 3.637039,-0.0255 c 2.398149,-0.0168 4.220421,-0.51219 5.349511,-1.45432 z m 45.377617,33.47565 c -5.871024,-2.25123 -12.960647,-9.40583 -15.164081,-15.30311 -8.73479,-23.37748 8.611897,-46.13112 32.098519,-42.10361 2.933215,0.50299 6.955704,1.7467 8.938924,2.7638 4.765976,2.44425 11.174361,9.1018 13.210721,13.72434 3.50442,7.95498 3.31131,19.29862 -0.46064,27.05246 -2.59677,5.33813 -9.786086,11.91187 -15.272043,13.96442 -5.972861,2.23474 -17.392322,2.18667 -23.3514,-0.0983 z m 20.983496,-12.60534 c 9.237238,-6.39989 9.402781,-23.54113 0.291117,-30.14158 -3.425632,-2.4815 -8.14069,-3.44453 -12.915242,-2.63787 -4.499975,0.76027 -10.034477,6.2812 -11.288375,11.26069 -1.957722,7.77498 -0.113705,15.98037 4.555947,20.27221 5.098211,4.68568 13.602298,5.23334 19.356553,1.24655 z m 38.740517,4.33567 v -9.96428 l -2.77341,1.15882 c -1.52542,0.63734 -2.90366,1.15881 -3.06277,1.15881 -0.15911,0 -0.28936,-2.0151 -0.28936,-4.47801 v -4.478 l 3.06277,-1.20309 3.06277,-1.20309 v -14.9926 -14.9926 h 6.50842 6.50838 v 11.86823 c 0,6.52753 0.19119,11.86823 0.42486,11.86823 0.23367,0 1.95537,-0.69723 3.82599,-1.5494 1.87064,-0.85217 4.28004,-1.88355 5.35425,-2.29196 l 1.9531,-0.74257 -0.22783,4.75376 -0.22782,4.75377 -5.54086,2.32378 -5.54086,2.32378 -0.0104,6.31696 -0.0104,6.31697 h 8.42262 8.42262 v 6.50838 6.50839 h -14.931 -14.93104 z m 46.70727,-19.51488 v -29.47916 h 6.442 6.44198 l 12.89175,18.11373 12.89174,18.11374 0.20529,-18.11374 0.20528,-18.11373 h 6.49453 6.49452 v 29.47916 29.47916 l -6.31696,-0.024 c -5.6319,-0.0214 -6.44947,-0.2083 -7.53888,-1.72281 -2.22301,-3.09052 -14.65091,-20.71918 -19.77387,-28.04873 l -5.03776,-7.20767 -0.20503,18.50163 -0.20504,18.50163 h -6.49477 -6.49478 z m 86.06101,28.43309 c -1.72819,-0.56281 -4.68966,-2.088 -6.58104,-3.3893 -7.08606,-4.87533 -10.68307,-10.75199 -12.18397,-19.90566 -3.42593,-20.89416 13.48717,-38.25463 33.86455,-34.7603 16.88769,2.89592 27.30572,17.71874 24.47985,34.83003 -1.63787,9.91771 -6.87741,17.16867 -15.76352,21.81503 -3.34114,1.74701 -4.90057,2.0293 -12.25108,2.21766 -5.50859,0.14116 -9.50974,-0.1382 -11.56479,-0.80746 z m 19.14866,-13.28279 c 4.95002,-3.4752 6.92671,-7.79139 6.9384,-15.1503 0.0139,-8.75089 -3.02931,-14.01208 -9.72255,-16.80869 -11.55624,-4.8285 -23.04643,5.06223 -21.81504,18.77835 0.92284,10.27945 7.54592,16.42509 16.94226,15.72097 3.3812,-0.25338 5.31173,-0.89387 7.65693,-2.54033 z m 51.76549,12.63571 c -5.12812,-1.96841 -11.67911,-8.41299 -14.23478,-14.00355 -7.18425,-15.71568 -1.03728,-34.08253 13.85351,-41.39362 4.17258,-2.04866 5.27219,-2.24701 12.24131,-2.20812 5.67467,0.0316 8.74716,0.44074 11.86823,1.58013 l 4.21131,1.53741 0.21882,7.38934 0.21882,7.38935 -5.19582,-2.45704 c -4.41841,-2.08941 -6.06295,-2.45764 -10.99125,-2.46109 -5.00902,-0.004 -6.21726,0.27482 -8.90412,2.05108 -4.58047,3.0281 -6.74387,7.90942 -6.72464,15.17294 0.0214,8.07304 3.02526,13.17731 9.29712,15.79786 4.91158,2.05219 13.87905,0.80438 19.94656,-2.77554 l 2.57258,-1.51786 -0.21904,7.43048 -0.21903,7.43049 -4.21131,1.31867 c -6.26396,1.9614 -18.25644,1.81941 -23.72827,-0.28093 z m 46.69905,-27.78601 v -29.47916 h 6.41338 6.41339 l 12.92035,18.07309 12.92035,18.07309 0.20528,-18.07309 0.20528,-18.07309 h 6.49453 6.49453 v 29.47916 29.47916 h -6.43623 -6.43624 l -2.1778,-3.26353 c -1.1978,-1.79494 -7.00168,-10.07619 -12.89751,-18.40277 l -10.71969,-15.13925 -0.20504,18.40278 -0.20504,18.40277 h -6.49477 -6.49477 z m 66.94189,28.1392 c 0.26976,-0.73698 5.54118,-14.0026 11.71419,-29.47916 l 11.22375,-28.1392 h 5.1064 5.10641 l 5.21291,12.82535 c 2.86713,7.05394 8.08349,19.82521 11.59197,28.38061 3.5084,8.5554 6.37898,16.06355 6.37898,16.68478 0,0.92168 -1.15336,1.08859 -6.26841,0.90712 l -6.2685,-0.22239 -2.25144,-5.57118 -2.25144,-5.57118 -11.14688,0.21133 -11.14687,0.21134 -2.24471,5.55127 -2.24463,5.55127 h -6.50111 c -5.86792,0 -6.45334,-0.13051 -6.01062,-1.33996 z m 34.12953,-22.1514 c 0,-1.47075 -5.80043,-14.655 -6.24261,-14.18935 -0.45253,0.47648 -6.00847,13.86221 -6.00847,14.47588 0,0.12873 2.75649,0.23405 6.12554,0.23405 3.36905,0 6.12554,-0.23426 6.12554,-0.52058 z M 70.737429,109.1699 c 0.593948,-1.36867 1.890648,-4.28932 2.881607,-6.49034 l 1.801674,-4.001836 6.745062,-0.01807 c 7.795822,-0.02083 7.759758,-0.486361 0.575265,7.433676 -5.014367,5.52772 -5.030293,5.53751 -9.053395,5.55127 l -4.030146,0.0138 z M 29.58184,82.16016 C 16.523644,78.86246 6.3921541,69.49303 1.8612453,56.524764 0.31385735,52.095685 0,49.737475 0,42.538481 0,28.579436 2.6535839,21.291378 10.992588,12.347308 19.365129,3.3672591 31.289335,-0.85855798 45.425013,0.14481773 53.813021,0.74021714 59.733815,2.4122591 64.701016,5.5884105 c 5.988021,3.8288484 6.320868,4.5018455 3.721878,7.5250945 -1.204741,1.401425 -2.948912,3.132454 -3.875859,3.846731 -1.623498,1.251039 -1.852899,1.190383 -6.252645,-1.653322 -5.56735,-3.598358 -11.784697,-5.056051 -19.463138,-4.563278 -15.982758,1.025711 -27.345865,13.846522 -27.345865,30.8539 0,16.074435 9.990679,28.180424 25.64442,31.074182 5.384579,0.995393 15.972728,-0.206553 20.871399,-2.369282 l 3.254193,-1.436707 v -10.76275 -10.76275 h -8.805463 -8.805464 v -5.359846 -5.359848 h 14.150763 c 14.039355,0 14.154055,0.01356 14.572583,1.722808 0.232081,0.947545 0.324807,9.820006 0.206048,19.716581 l -0.215925,17.993774 -4.211309,2.085297 C 61.290927,81.533708 55.628708,82.69495 44.410165,83.006954 36.982258,83.213538 32.809387,82.975255 29.58184,82.16016 Z m 55.636059,-1.289702 c 0.878402,-2.097898 16.096081,-36.429799 17.916901,-40.42146 1.05658,-2.31622 3.40679,-7.656925 5.22279,-11.868234 3.4339,-7.963569 9.4602,-21.5677252 11.02344,-24.885006 0.85949,-1.8237088 1.14287,-1.8961264 5.99407,-1.531385 l 5.09186,0.3828463 8.89006,20.6736977 c 15.16191,35.258905 24.51921,57.402291 24.51002,58.001208 -0.005,0.315848 -2.85145,0.568718 -6.32578,0.561927 l -6.31696,-0.01233 -3.94003,-9.750239 -3.94004,-9.750237 -18.70282,-0.204501 -18.7028,-0.204501 -3.87303,9.775657 -3.873098,9.775661 -6.694143,0.222602 c -5.234887,0.17408 -6.604022,0.0069 -6.28044,-0.765693 z M 138.59037,51.145621 c 0,-0.433818 -0.86437,-2.842403 -1.92081,-5.352404 -2.12256,-5.042981 -10.07747,-24.53214 -11.24477,-27.549302 -0.70765,-1.828865 -0.81852,-1.726426 -2.48666,2.297078 -2.05205,4.949281 -11.92137,29.043558 -12.46716,30.436276 -0.29188,0.744835 2.78483,0.957115 13.87221,0.957115 9.26548,0 14.24719,-0.275802 14.24719,-0.788763 z m 39.81601,-9.154327 V 2.164373 h 5.74269 5.7427 v 34.456162 34.456162 l 18.1852,5.36e-4 18.18519,5.28e-4 -0.0555,5.167896 -0.0555,5.167891 -23.87242,0.202334 -23.87242,0.202327 z m 63.54551,39.613677 c -0.004,-0.105282 -0.09,-18.02249 -0.19142,-39.816012 l -0.18446,-39.6245921 25.84212,3e-6 25.84213,3.1e-6 2.7e-4,5.1684243 2.8e-4,5.1684247 H 273.1611 253.0614 l -0.21137,11.67681 -0.21136,11.676811 18.97083,-0.0018 18.97083,-0.0018 -0.24595,5.170151 -0.24595,5.170151 -16.95135,-0.234111 c -9.32325,-0.128759 -17.74047,-0.03606 -18.70495,0.20601 -1.73613,0.435748 -1.75358,0.561873 -1.75358,12.676613 v 12.236494 h 21.43939 21.43939 v 5.359847 5.359851 H 268.7581 c -14.73959,0 -26.80238,-0.08614 -26.80621,-0.191424 z M 316.23103,41.931853 V 2.0673169 l 18.95089,0.2399512 c 17.57729,0.2225592 19.21298,0.3610309 22.56695,1.9104257 9.6319,4.4495478 14.33029,15.4663202 11.28002,26.4493872 -1.6774,6.039783 -7.98372,12.126337 -14.32181,13.822712 -1.78981,0.479033 -3.2542,1.127743 -3.2542,1.44157 0,0.313826 4.82387,8.307396 10.7197,17.763484 5.89583,9.456088 10.71969,17.39734 10.71969,17.647224 0,0.249876 -3.06473,0.454323 -6.81051,0.454323 h -6.81052 L 354.21353,72.990928 344.09809,55.38 339.04037,46.574537 h -5.66198 -5.66197 v 17.610927 17.61093 h -5.7427 -5.74269 z m 35.20621,-7.034126 c 4.89665,-2.502067 6.46552,-5.035016 6.49753,-10.490373 0.0286,-4.882931 -1.2025,-7.307753 -5.24357,-10.327436 -1.8685,-1.396233 -3.43386,-1.608937 -13.54373,-1.840346 l -11.43105,-0.26165 v 12.321307 12.321306 h 10.1746 c 9.04199,0 10.54993,-0.19178 13.54622,-1.722808 z m 41.36304,7.145488 V 2.2900377 l 5.36157,-0.2542551 5.36158,-0.2542558 -0.002,40.0074322 -0.002,40.007435 h -5.35984 -5.35985 z m 29.09631,39.004187 c 0,-0.446008 2.09843,-5.542231 4.66318,-11.324932 2.56474,-5.782709 8.98345,-20.334013 14.26379,-32.336242 5.28034,-12.00223 10.62847,-24.061887 11.88474,-26.799238 1.2562,-2.7373502 2.58161,-5.7522644 2.94532,-6.6998089 0.59586,-1.5524553 1.17419,-1.7225225 5.84859,-1.7199268 l 5.18741,0.00291 16.65657,38.8560097 c 9.16113,21.370809 16.65534,39.300658 16.65381,39.8441 0,0.743702 -1.5346,0.933081 -6.19629,0.765693 l -6.19353,-0.222388 -3.9519,-9.755201 -3.95189,-9.755198 -18.75946,-0.0015 -18.75949,-0.0015 -3.85945,9.756477 -3.85944,9.756487 -6.28598,0.222388 c -4.05394,0.143422 -6.28598,-0.06554 -6.28598,-0.588534 z m 52.85577,-30.835826 c -0.38759,-0.947544 -3.62693,-8.958601 -7.1985,-17.80235 l -6.49376,-16.079542 -1.12527,2.679924 c -1.52326,3.627735 -10.21525,24.765206 -12.0435,29.287737 l -1.4702,3.637039 h 14.51799 14.51806 z" />
</svg>
