<svg id="GALERIABALTYCKA" width="500" height="208.45" viewBox="0 0 500 208.45" version="1.1" xml:space="preserve" xmlns:xlink="http://www.w3.org/1999/xlink" xmlns="http://www.w3.org/2000/svg" xmlns:svg="http://www.w3.org/2000/svg">
	<path id="GALERIABALTYCKA" style="fill:#000000;stroke:#000000;stroke-width:0" d="m 475.14488,179.55521 h -15.40706 l 6.07928,-13.57512 c 0.53346,-1.18953 1.06922,-2.70593 1.60723,-4.52881 0.58795,1.92048 1.13958,3.43915 1.64353,4.52881 z m -40.5323,27.17293 h 12.94173 l 7.52077,-16.67833 h 24.54412 l 7.34145,16.67833 H 500 l -32.69372,-70.21149 z m -49.23331,-31.44819 24.38294,31.44751 h 15.77934 l -29.3862,-36.80492 26.43509,-29.70407 h -15.15507 l -22.0561,25.40226 v -25.40226 h -12.21531 v 66.50899 h 12.21531 z M 331.44256,208.45 c 7.87947,0 14.81231,-2.09755 20.61463,-6.22913 l 0.3564,-0.25425 V 187.8013 l -1.40517,1.20541 c -6.1542,5.27568 -13.00984,7.9521 -20.38081,7.9521 -6.25635,0 -11.53882,-2.1838 -15.70215,-6.49471 -4.17241,-4.31316 -6.28812,-9.95432 -6.28812,-16.76457 0,-6.98734 2.15884,-12.73292 6.41752,-17.07787 4.25641,-4.34268 9.86122,-6.54239 16.66013,-6.54239 7.06904,0 13.59097,2.49255 19.38877,7.41182 l 1.31211,1.11235 0.65605,-12.79421 -0.38592,-0.27014 c -6.52195,-4.55378 -13.72945,-6.8602 -21.42504,-6.8602 -9.97473,0 -18.43758,3.34385 -25.15704,9.94072 -6.72624,6.60142 -10.1359,15.00753 -10.1359,24.9891 0,10.04059 3.37788,18.44901 10.0451,24.98913 6.65815,6.53784 15.21409,9.85216 25.42944,9.85216 m -76.90353,-1.72232 h 12.2153 V 176.48332 L 289.748,140.2187 h -12.52858 l -14.21754,22.13561 c -0.76275,1.15319 -1.46873,2.44714 -2.10436,3.86369 -0.78318,-1.53914 -1.4347,-2.73547 -1.94999,-3.57085 L 245.0796,140.2187 h -13.06432 l 22.52375,36.26009 z m -62.87376,0 h 12.21529 V 150.8949 h 17.13003 v -10.6762 h -46.56617 v 10.6762 h 17.22085 z m -32.5028,-42.91893 v -11.87482 l -14.86452,10.51277 v -22.22868 h -12.21757 v 29.42032 l -5.52766,3.98854 v 11.6637 l 5.52766,-3.80693 V 206.727 h 35.7833 v -11.12797 h -23.56573 v -21.36604 z m -81.65303,15.74646 6.07928,-13.57512 c 0.53573,-1.1918 1.07148,-2.7082 1.60721,-4.52654 0.59022,1.91821 1.13958,3.43688 1.64353,4.52654 l 6.07928,13.57512 z m -12.18354,27.17293 7.52306,-16.67833 h 24.54412 l 7.34145,16.67833 h 13.03935 L 85.07789,136.51665 52.3819,206.72814 Z M 25.28189,165.72426 c -1.99766,1.23719 -5.39825,1.86601 -10.11093,1.86601 h -3.13499 v -16.87811 h 3.13499 c 4.82845,0 8.18364,0.56753 9.98836,1.69348 1.95,1.1623 2.93747,3.53681 2.93747,7.06453 0,3.03511 -0.92165,5.08044 -2.8149,6.25409 m 5.35286,21.11861 c 0,3.35744 -1.21449,5.82731 -3.70931,7.54804 -1.77975,1.22129 -5.85455,1.84102 -12.11543,1.84102 H 12.03597 V 177.2699 h 5.94535 c 3.65029,0 6.38574,0.45629 8.12235,1.35071 3.04871,1.6095 4.53108,4.29954 4.53108,8.22226 m -1.61404,19.14363 c 3.53908,-0.69464 6.46292,-2.17703 8.68761,-4.40169 3.65257,-3.65259 5.50496,-8.39932 5.50496,-14.10859 0,-4.51976 -1.15775,-8.3244 -3.44146,-11.30504 -1.76157,-2.29277 -4.02711,-3.91361 -6.76029,-4.83301 4.8489,-2.38812 7.30285,-6.85567 7.30285,-13.3186 0,-6.2382 -2.24738,-11.0712 -6.67858,-14.37191 -3.1327,-2.3064 -8.53324,-3.42783 -16.50804,-3.42783 H 0 v 66.50672 h 17.2549 c 5.34829,0 9.30732,-0.24971 11.76581,-0.74005 M 459.26542,43.03857 465.3447,29.46346 c 0.53346,-1.18954 1.06921,-2.70595 1.60722,-4.52883 0.59023,1.92049 1.13959,3.43917 1.64355,4.52883 l 6.077,13.57511 z m -4.66274,10.4946 h 24.54411 l 7.34145,16.67606 H 499.5276 L 466.83388,0 434.14015,70.20923 h 12.94173 z M 406.18957,3.70206 h -12.2176 v 66.50671 h 12.2176 z m -74.68503,10.76655 h 1.05333 c 4.83527,0 8.22223,0.56752 10.04966,1.67532 1.99539,1.29624 2.96471,3.64123 2.96471,7.17123 0,3.3756 -0.97613,5.52989 -3.0033,6.5946 -1.73662,0.95342 -5.10316,1.43696 -10.01107,1.43696 h -1.05333 z m -0.63335,26.87556 21.47044,28.86643 h 14.01321 L 343.89011,40.53374 c 9.40496,-1.64807 14.16985,-7.73872 14.16985,-18.12436 0,-6.47202 -2.21333,-11.48435 -6.57869,-14.89858 -3.26891,-2.56292 -8.71712,-3.80919 -16.65785,-3.80919 H 319.28924 V 70.2106 h 11.58195 z M 284.74633,59.08104 H 259.09441 V 39.8466 h 25.65192 V 28.90023 H 259.09441 V 14.37849 h 25.65192 V 3.70229 H 246.88135 V 70.209 h 37.86498 z m -67.38761,0 H 193.79301 V 3.70229 H 181.5777 V 70.209 h 35.78102 z M 113.44596,43.03857 119.52524,29.46346 c 0.53574,-1.19181 1.07148,-2.70822 1.60723,-4.52656 0.59021,1.91822 1.13957,3.4369 1.64353,4.52656 l 6.07928,13.57511 z m -4.66047,10.4946 h 24.54413 l 7.34143,16.67606 h 13.03936 L 121.01443,0 88.31844,70.20923 h 12.944 z M 35.67251,71.93223 c 9.60926,0 17.2163,-2.61061 22.61229,-7.75689 5.40733,-5.15764 8.1496,-12.53314 8.1496,-21.91768 0,-0.54711 -0.0613,-2.57882 -0.18162,-6.10199 l -0.0295,-0.82179 H 38.90057 V 45.9193 h 15.58864 v 0.0545 c 0,4.60828 -1.58677,8.1428 -4.85342,10.80562 -3.27346,2.66961 -7.87948,4.02485 -13.69085,4.02485 -6.79892,0 -12.40374,-2.20197 -16.65787,-6.54239 -4.26095,-4.3472 -6.41979,-10.15409 -6.41979,-17.26172 0,-6.98052 2.15884,-12.69433 6.41525,-16.98252 4.25641,-4.28366 9.83172,-6.45613 16.5716,-6.45613 6.47428,0 11.8362,2.43126 15.94051,7.22568 l 0.51984,0.60612 9.05309,-6.8148 -0.56526,-0.68558 C 54.43701,6.16784 45.98322,2.25194 35.67251,2.25194 c -10.15407,0 -18.69184,3.29844 -25.38177,9.80224 -6.69675,6.51288 -10.09279,14.93715 -10.09279,25.03679 0,10.09733 3.25531,18.51709 9.67055,25.02542 6.4198,6.51288 15.10285,9.81585 25.80401,9.81585" />
</svg>
