<?xml version="1.0" encoding="UTF-8" standalone="no"?>
<svg id="GITHUBSVG" width="513.2674" height="500" viewBox="0 0 513.26739 500" version="1.1" xml:space="preserve" xmlns:xlink="http://www.w3.org/1999/xlink" xmlns="http://www.w3.org/2000/svg" xmlns:svg="http://www.w3.org/2000/svg">
   <defs id="GITHUBDEFS" />
      <g id="GITHUBG" transform="matrix(0.15589629,0,0,-0.15589629,-8.1423604,361.38577)">
         <path id="GITHUB" style="fill:#000000;stroke:none;stroke-width:1.43396" d="M 1368.6058,2292.8332 C 931.24761,2195.3238 572.75727,1952.9843 326.11592,1585.8902 -105.50648,939.17365 -19.468776,71.626951 531.17239,-481.88208 c 164.90556,-166.33952 415.84879,-326.9432 605.13171,-388.60353 70.2641,-22.94338 78.8678,-22.94338 110.415,-1.43396 34.415,22.94338 35.849,28.67923 35.849,193.58478 v 169.20744 l -126.1886,-7.16981 c -147.698,-7.16981 -262.41488,18.6415 -331.24504,77.43392 -24.37734,20.07546 -71.69805,88.9056 -104.67917,151.99991 -54.49053,106.11313 -94.64145,154.86782 -206.49043,253.811141 -37.283,32.98114023 -38.71696,34.4150403 -12.90566,53.05654 61.66035,45.8868 186.41498,1.434 265.28285,-93.207446 137.66029,-167.773485 190.71686,-212.226285 269.58475,-229.433825 70.2641,-14.33962 134.7923,-8.60377 232.3017,20.07546 12.9056,4.30189 30.1132,34.41508 38.717,68.83015 8.6037,32.98111 31.5471,83.16976 50.1886,110.41503 l 34.4151,50.188631 -116.1509,22.9434 c -243.7734,50.1886 -394.33934,137.660299 -493.28268,286.792299 -91.77352,137.6602 -121.88671,256.679 -123.32066,478.9431 0,209.3582 22.94338,295.39605 113.28294,412.98085 40.15092,51.6227 44.4528,67.3962 32.98111,97.5094 -21.50942,51.6226 -15.77358,269.5847 7.16981,335.547 18.64149,48.7547 28.67921,57.3583 67.39618,61.6603 64.52825,7.1697 184.981,-34.4151 306.8677,-103.2452 l 104.6792,-60.2264 91.7735,21.5094 c 130.4905,30.1131 521.9619,28.6792 639.5467,0 l 88.9057,-22.9434 83.1698,50.1887 c 110.415,65.9622 250.9431,117.5848 321.2072,117.5848 55.9246,0 55.9246,-1.4339 78.868,-74.5659 24.3773,-84.6038 28.6791,-238.0377 7.1698,-311.1697 -11.4717,-43.0189 -8.6038,-55.9245 22.9433,-97.5093 156.3017,-206.49065 173.5094,-549.20725 41.5849,-830.26375 -88.9057,-184.981 -276.7545,-314.037499 -529.1317,-361.358249 l -120.4527,-22.94337 44.4527,-78.867881 45.8867,-80.30184 4.302,-319.77338 5.7358,-319.77338 35.849,-22.94338 c 32.9812,-21.50942 40.1509,-21.50942 108.9811,2.86792 114.717,38.71695 311.1696,144.8301 418.7167,226.5659 639.5467,478.94308 846.0373,1337.88596 491.8487,2051.99871 -207.9243,420.1507 -600.8297,742.792 -1051.0937,863.2447 -196.4526,51.6226 -566.4147,63.0943 -752.8296,21.5095 z" />
      </g>
</svg>
