<svg id="H&M" width="500" height="329.83456" viewBox="0 0 500 329.83456" version="1.1" xml:space="preserve" xmlns:xlink="http://www.w3.org/1999/xlink" xmlns="http://www.w3.org/2000/svg" xmlns:svg="http://www.w3.org/2000/svg">
	<path id="H&M" style="fill:#000000;stroke:#000000;stroke-width:0" d="m 213.9732,244.01198 a 105.74373,105.74373 0 0 1 3.9043,-3.60166 c 8.92661,-7.73606 17.45054,-0.0625 8.62648,13.016 a 148.24331,148.24331 0 0 1 -6.39545,8.81906 c 1.11551,3.17897 2.11097,5.91523 2.90134,7.94366 4.5646,11.7004 -7.41842,14.63425 -11.2802,4.94228 a 221.21193,221.21193 0 0 1 -1.05049,-2.69624 c -7.28585,6.45297 -15.70723,10.51484 -24.71138,7.71605 -14.80683,-4.60712 -18.57606,-25.45673 -4.74969,-41.51913 5.54755,-6.44547 9.72198,-10.91753 13.21109,-14.48917 -1.05049,-3.43909 -1.90088,-6.32292 -2.45864,-8.34135 -1.79582,-6.50299 -3.41657,-14.08149 3.09143,-21.80755 12.20562,-14.48167 40.51867,-1.62574 26.19707,20.66953 -3.45159,5.36997 -7.48345,10.44231 -11.69039,15.58468 a 1327.2741,1327.2741 0 0 0 4.40453,13.76384 z m -17.60811,2.87383 c -7.28336,9.9996 -2.97137,13.55874 2.43862,10.24722 a 43.870215,43.870215 0 0 0 5.09235,-3.71671 1015.9156,1015.9156 0 0 1 -3.81176,-11.44778 188.42933,188.42933 0 0 0 -3.72171,4.91727 z m 8.2613,-32.9827 a 133.07632,133.07632 0 0 0 3.86679,-4.17693 c 9.01665,-10.17969 -8.80906,-14.43915 -4.70467,1.13052 0.2301,0.87791 0.51774,1.91089 0.83788,3.04641 z M 236.05338,0.15461206 c -3.47661,-0.83788608 -10.66992,1.87086204 -18.24591,4.72217594 -5.82769,2.1935107 -11.87797,4.4720606 -16.63267,5.284935 -3.4741,0.595274 -6.80313,4.301982 -7.94866,6.920689 A 3126.5232,3126.5232 0 0 0 146.42207,130.60473 1190.8112,1190.8112 0 0 0 85.924202,142.59525 C 102.18919,100.77598 118.66929,59.536974 134.74419,19.838682 142.65284,0.30468121 121.83324,-1.5386682 113.75452,18.262956 l -0.51524,1.25808 C 102.6419,45.513012 83.265477,93.019903 61.865616,148.25536 a 1291.0124,1291.0124 0 0 0 -50.65334,13.51873 c -12.8709313,3.71671 -13.4261871,7.14579 -7.8536193,14.86685 1.723294,2.3886 4.4420468,3.31653 7.0157333,4.19443 2.058448,0.70282 4.026855,1.37563 5.314949,2.73626 1.615744,1.70579 3.091424,3.48161 4.549596,5.23491 5.332457,6.41046 10.404795,12.50827 20.967162,13.63629 -12.013036,32.06477 -23.996057,65.12751 -34.8485585,96.96468 -6.81313939,19.98421 12.6033075,24.07359 20.0617445,2.92885 12.025541,-34.08821 24.71889,-68.59411 37.732387,-102.99496 9.22425,-2.14349 29.606142,-6.55552 50.43073,-11.0651 l 0.0125,-0.002 10.94754,-2.37109 c -19.27388,52.75931 -31.944712,92.83527 -36.716911,112.33676 -0.807872,3.31153 0.285131,5.32245 1.090503,6.80063 0.107549,0.19759 0.207595,0.38518 0.300138,0.56526 3.116436,4.5421 6.160338,6.99072 9.411837,9.60693 3.516613,2.8288 7.270843,5.8502 11.622853,11.9255 2.27605,3.18896 9.85454,4.90726 12.45074,-2.93886 17.82571,-53.88233 36.16666,-104.43562 53.28705,-149.75901 7.10577,-1.55571 19.89917,-4.64213 27.73778,-16.32502 8.71151,-12.99098 13.54124,-16.19246 16.75522,-18.32094 1.91588,-1.27059 3.2565,-2.15849 4.50208,-4.51458 4.18442,-7.91115 1.41565,-15.34207 -13.4487,-13.50622 0,0 -5.61259,0.40018 -15.96736,1.58072 6.92819,-17.84072 13.49372,-34.540916 19.54651,-49.943013 v -0.0075 c 8.33134,-21.199769 15.69473,-39.935902 21.71,-55.788207 3.51912,-9.2792751 3.98934,-16.0724053 -1.77081,-17.45804378 z M 351.37151,10.021658 c 18.14837,-8.9466218 27.15752,-7.7535721 27.35261,1.28059 0.25261,11.525311 -1.41566,26.727316 -2.65123,37.985003 l -0.075,0.685316 c -2.24854,20.496945 -5.0023,39.743313 -7.70605,58.637023 -5.39499,37.70988 -10.58738,74.0091 -11.15764,116.02346 29.66117,-76.79288 54.54513,-130.16498 86.56489,-195.912776 7.83611,-16.099918 13.48371,-17.500564 19.47647,-18.988749 1.79333,-0.4452052 3.61667,-0.8979138 5.54005,-1.753308 32.55751,-14.4866752 33.77807,-5.5875746 29.52361,12.100576 -15.79978,65.640246 -56.16338,272.255457 -62.34623,304.067617 -1.79333,9.20424 -11.78043,5.30494 -14.38913,1.70328 -5.14487,-7.11077 -10.57738,-11.11512 -14.89937,-14.30159 -5.41499,-3.99184 -9.08918,-6.70059 -8.27631,-12.62832 7.26335,-53.04194 33.40789,-186.12076 40.22353,-217.482714 -34.77102,71.242834 -70.80262,160.298864 -89.30114,210.792134 -3.93182,10.72244 -11.07011,9.93708 -15.52216,2.09096 -2.44612,-4.30698 -5.79016,-7.79109 -9.07668,-11.21266 -5.12486,-5.33496 -10.10716,-10.52235 -11.32772,-18.45351 -4.1194,-26.82736 0.14507,-69.39947 4.17693,-109.63301 2.19101,-21.86758 4.31198,-43.04484 4.97979,-60.627944 -18.91872,54.537634 -50.68586,160.433934 -64.59977,208.278474 -5.75515,19.79662 -24.85145,16.56513 -19.77661,-2.72876 21.14975,-80.29199 66.68823,-222.297432 86.41232,-273.365963 3.29152,-8.521427 10.36978,-10.779968 17.8057,-13.156062 3.0339,-0.970448 6.12783,-1.958403 9.04917,-3.399067 z" />
</svg>
