<?xml version="1.0" encoding="UTF-8" standalone="no"?>
<svg id="HASLA" width="562.47906" height="500" viewBox="0 0 562.47906 500.00001" version="1.1" xml:space="preserve" xmlns:xlink="http://www.w3.org/1999/xlink" xmlns="http://www.w3.org/2000/svg" xmlns:svg="http://www.w3.org/2000/svg">
   <defs id="HASLADEFS" />
	 <polygon id="HASLAP" style="fill:#000000;stroke:#000000" points="202.29999,287 256,193.98999 309.70001,287 " transform="matrix(1.5243335,0,0,1.5243335,-108.98985,-140.22635)" />
	 <path id="HASLA1" style="fill:#000000;stroke:#000000;stroke-width:1.52434" d="m 561.7169,250.00303 v 0 c 0,26.09812 -21.15622,47.25434 -47.25434,47.25434 H 351.35887 L 281.23953,155.47911 356.92422,24.394035 C 369.97251,1.7927466 398.87083,-5.9508661 421.47212,7.0959018 v 0 C 444.07494,20.144193 451.82007,49.044036 438.77178,71.646853 L 363.08709,202.74259 h 151.36633 c 26.09811,0 47.25434,21.15623 47.25434,47.25434 z" />
	 <path id="HASLA2" style="fill:#000000;stroke:#000000;stroke-width:1.52434" d="m 421.48127,492.90405 v 0 c -22.6013,13.04677 -51.49961,5.30315 -64.54791,-17.29813 L 281.24868,344.52238 205.56399,475.60744 c -13.04828,22.59976 -41.9466,30.34338 -64.54789,17.29661 v 0 C 118.4148,479.85576 110.66967,450.9544 123.71796,428.3531 l 75.68315,-131.09573 81.85671,-3.04867 81.85671,3.04867 75.68316,131.09573 c 13.04982,22.6013 5.30469,51.50266 -17.29813,64.55095 z" />
	 <path id="HASLA3" style="fill:#000000;stroke:#000000;stroke-width:1.52434" d="M 281.23953,155.47911 259.89887,213.41903 199.38282,202.74869 123.69967,71.65295 C 110.65138,49.050133 118.39651,20.150289 140.99781,7.1019986 v 0 C 163.5991,-5.9447693 192.49742,1.7988433 205.54723,24.400132 Z" />
	 <path id="HASLA4" style="fill:#000000;stroke:#000000;stroke-width:1.52434" d="m 269.04486,202.74869 -54.876,94.50868 H 48.01651 c -26.098114,0 -47.25433998,-21.15622 -47.25433998,-47.25434 v 0 c 0,-26.09811 21.15622598,-47.25434 47.25433998,-47.25434 z" />
</svg>
