<svg id="HEBE" width="500" height="183.4463" viewBox="0 0 500 183.4463" version="1.1" xml:space="preserve" xmlns:xlink="http://www.w3.org/1999/xlink" xmlns="http://www.w3.org/2000/svg" xmlns:svg="http://www.w3.org/2000/svg">
	<path id="HEBE" style="fill:#000000;stroke:#000000;stroke-width:0" d="m 93.44798,183.4463 h 26.30861 v -74.75693 c 0,-38.831115 -31.77828,-50.63303 -58.23876,-50.594667 -18.99079,0 -35.22183,10.151917 -35.22183,10.151917 V 0 H 0 v 183.4463 h 26.3217 v -72.90444 c 0,-3.59068 0,-38.209399 33.58845,-38.209399 33.58806,0 33.53783,28.070539 33.53783,38.209399 z m 60.45392,-69.55422 v -3.37513 l 0.0886,0.0759 c 0,-3.59147 0,-38.2094 33.58885,-38.2094 33.58845,0 33.53783,28.07053 33.53783,38.2094 l -0.0759,3.2992 z m 0,14.37816 h 93.4606 c 0,-17.76595 0,-70.200848 -59.88441,-70.200848 -59.8848,0 -59.8848,52.523488 -59.8848,63.195878 0,10.67199 0,62.09165 62.27753,62.09165 23.54847,0 36.71562,-8.59091 36.63969,-8.59091 -0.0763,0 -5.46928,-10.6973 -5.46928,-10.68504 0,0.0127 -9.69789,5.07616 -30.25919,5.07616 -36.88014,0 -36.88014,-40.7983 -36.88014,-40.7983 z m 193.70667,2.62687 c 0,10.15152 0,38.2094 -33.53783,38.2094 -33.53783,0 -33.60111,-34.61872 -33.60111,-38.2094 v -20.30423 c 0,-3.60373 0,-38.2094 33.60111,-38.2094 33.60111,0 33.53783,28.05748 33.53783,38.2094 z m 26.2568,-9.63184 v -10.6977 c 0,-41.54697 -31.09368,-52.447951 -58.23638,-52.447951 -18.99159,0 -35.2345,10.152313 -35.2345,10.152313 V 0 h -26.29674 v 121.26527 c 0,13.4262 0,62.09165 61.69339,62.09165 48.81969,0 58.07423,-29.70669 58.07423,-62.09165 z m 99.86601,-10.62137 -0.0752,3.2992 h -67.09934 v -3.37553 l 0.0791,0.0763 c 0,-3.59148 0,-38.209797 33.60111,-38.209797 33.60111,0 33.53783,28.070137 33.53783,38.209797 z m 26.26866,17.67697 c 0,-17.76556 0,-70.201251 -59.86977,-70.201251 -59.86977,0 -59.88164,52.498971 -59.88164,63.145651 0,10.64707 0,62.09165 62.29019,62.09165 23.53581,0 36.71364,-8.59091 36.62663,-8.59091 l -5.46967,-10.68504 c 0,-0.0886 -9.69749,5.07616 -30.25523,5.07616 -36.88371,0 -36.88371,-40.7983 -36.88371,-40.7983 z" />
</svg>
