<svg
   version="1.1"
   id="svg1"
   width="512.4043"
   height="225.33334"
   viewBox="0 0 512.4043 225.33335"
   xmlns="http://www.w3.org/2000/svg"
   xmlns:svg="http://www.w3.org/2000/svg">
  <defs
     id="defs1" />
  <g
     id="g1"
     transform="translate(631.48541,84.012426)">
    <path
       style="fill:#000000"
       d="m -549.21777,138.35756 c -1.14158,-1.62984 -2.0756,-3.75703 -2.0756,-4.72709 0,-1.30376 -1.25513,-1.52828 -4.81267,-0.86088 -3.43325,0.64408 -5.14714,0.37478 -5.97959,-0.93958 -2.863,-4.52042 0.033,-20.85806 6.02216,-33.973716 l 3.10423,-6.79794 -6.83373,4.63772 c -13.62841,9.248926 -36.21708,17.624826 -47.5318,17.624826 -9.56535,0 -10.63527,-0.74144 -10.63527,-7.37005 0,-5.25049 -0.33379,-5.82472 -3.83256,-6.593166 -2.1079,-0.46298 -5.15112,-2.24532 -6.76269,-3.96076 l -2.93014,-3.11899 3.39953,-6.70866 c 3.50246,-6.91178 15.26122,-19.58265 19.38869,-20.89266 2.00699,-0.63699 2.33459,-2.54522 2.35445,-13.7145 0.0362,-20.32482 6.10835,-45.1259519 15.74483,-64.307875 8.66501,-17.248142 15.54331,-20.351221 24.38266,-11 6.69989,7.08787 15.44146,26.4064481 20.38403,45.048015 3.66993,13.84164 4.24201,18.24507 4.32432,33.28532 0.0704,12.86717 -0.45934,18.81801 -2.05605,23.09542 -1.99674,5.34909 -1.99249,5.69524 0.0593,4.82948 15.53463,-6.55475 32.33098,-9.38839 46.87693,-7.90841 8.83209,0.89862 18.88108,4.4277 20.62012,7.24153 5.22429,8.45308 -28.14774,34.234036 -47.80103,36.927816 -5.06868,0.69474 -5.78682,1.28715 -7.97562,6.57914 -2.35545,5.69495 -11.60875,16.56835 -14.09972,16.56835 -0.69257,0 -2.19323,-1.33351 -3.33482,-2.96334 z M -525.96004,-9.3457609 V -84.012426 h 10.66667 10.66667 v 28.030737 28.030736 l 3,-1.917086 c 5.37508,-3.434833 17.28155,-6.144388 27,-6.144388 22.64462,0 38.94522,10.365238 43.86285,27.8915491 1.69721,6.048807 2.13715,14.391845 2.13715,40.5292519 v 32.91253 h -10.66667 -10.66667 v -33.09133 c 0,-25.6374579 -0.45374,-34.6192529 -2.01438,-39.8745089 -6.16834,-20.7710441 -36.24361,-23.9186871 -47.98562,-5.0221201 l -4,6.4372551 -0.41286,35.7753539 -0.41286,35.77535 h -10.58714 -10.58714 z m 140.06041,73.2988249 c -16.80003,-3.54397 -28.90754,-14.22778 -33.58852,-29.6389 -3.98295,-13.11297 -3.15894,-34.34048889 1.74918,-45.061229 7.83228,-17.107957 19.01045,-23.995736 40.53977,-24.979857 16.02279,-0.732414 25.4684,1.511785 34.15058,8.113894 10.56837,8.036405 15.57609,19.3560761 17.66642,39.933933 l 0.77879,7.666669 h -38.01165 -38.01164 v 3.83236 c 0,10.29468 7.77312,22.98172 16.51188,26.95015 6.62358,3.00789 21.07616,3.37159 31.06067,0.78164 l 6.82036,-1.76918 2.0798,4.3614 2.07981,4.3614 -7.6096,2.84827 c -8.70043,3.25658 -26.90622,4.56333 -36.21585,2.59945 z m 39.51986,-56.7948549 c 1.27008,-3.309787 -1.89349,-18.0577061 -4.68146,-21.8239921 -8.3797,-11.320183 -27.15584,-13.708371 -39.37423,-5.008114 -5.20131,3.703657 -10.16194,14.7483531 -10.17822,22.6614691 l -0.013,6.333333 h 26.70851 c 23.40391,0 26.8112,-0.267587 27.53842,-2.162696 z m 61.75307,56.4079249 c -15.39578,-3.58925 -24.454,-10.55604 -30.50692,-23.46325 l -3.49308,-7.44865 -0.39836,-58.333328 -0.39837,-58.333332 h 10.7317 10.73169 v 28.030737 28.030736 l 3,-1.917086 c 9.89834,-6.325324 30.90528,-7.940096 45.33079,-3.484511 17.42266,5.381313 25.93217,17.398654 27.24467,38.4756381 1.87763,30.1521459 -6.66378,49.5047059 -24.85443,56.3135559 -9.24343,3.45985 -27.27571,4.48692 -37.38769,2.12949 z m 27.59788,-13.03996 c 3.96152,-1.91774 6.87917,-4.68203 9.29774,-8.809 3.15124,-5.37719 3.59049,-7.72937 4.14664,-22.20527 0.82595,-21.4986489 -1.0115,-30.473957 -7.58433,-37.046786 -11.2947,-11.294708 -32.59487,-9.858828 -41.10613,2.771034 -4.53789,6.7337801 -5.66957,12.6303931 -5.6777,29.583784 -0.0105,21.778678 4.10128,31.600958 15.3259,36.611158 6.26625,2.79699 18.87124,2.35139 25.59788,-0.90492 z m 76.86056,13.49485 c -17.61771,-3.76739 -29.16956,-13.84792 -33.96629,-29.64012 -4.00382,-13.18169 -3.19168,-34.37997588895 1.72891,-45.127969 7.74753,-16.922825 19.17583,-24.157493 39.56955,-25.049444 15.03355,-0.657515 24.35309,1.181828 32.65085,6.444108 11.41289,7.237845 18.0958,20.6091061 20.16176,40.339973 l 0.94236,9.000002 h -38.10612 -38.10613 v 3.94998 c 0,5.99217 4.88826,17.79147 9.00384,21.73351 2.01456,1.92961 5.89356,4.44021 8.62,5.57911 6.10604,2.55064 20.71133,2.6977 29.94871,0.30155 l 6.82036,-1.76918 2.07981,4.3614 2.0798,4.3614 -7.60959,2.84827 c -8.57289,3.20884 -26.90249,4.57387 -35.81782,2.66741 z m 38.50802,-63.27534789 c -0.66601,-14.35707411 -8.53171,-23.62286411 -21.57636,-25.41696311 -8.1285,-1.117953 -19.6178,1.93379 -23.72004,6.300424 -5.42205,5.771513 -9.48669,18.59994111 -8.46592,26.7193761 0.0711,0.565184 12.27919,0.865184 27.12919,0.666666 l 27,-0.36094 z"
       id="path1" />
  </g>
</svg>
