<svg id="IKEA" width="500" height="91.307068" viewBox="0 0 500 91.307068" version="1.1" xml:space="preserve" xmlns:xlink="http://www.w3.org/1999/xlink" xmlns="http://www.w3.org/2000/svg" xmlns:svg="http://www.w3.org/2000/svg">
	<path id="IKEA" style="fill:#000000;stroke:#000000;stroke-width:0" d="m 224.14009,83.489681 c 1.81363,2.689181 3.93996,5.190744 6.50406,7.817386 h -66.54159 c 0,-2.626642 -2.50156,-8.005003 -5.37836,-12.257661 l -18.13633,-27.39212 v 31.832395 c 0,2.626642 0,5.190744 1.31332,7.817386 H 86.429018 c 1.313321,-2.626642 1.313321,-5.190744 1.313321,-7.817386 V 7.8173859 c 0,-2.6266417 0,-5.1907442 -1.313321,-7.8173859 h 55.472172 c -1.31332,2.6266417 -1.31332,5.1907442 -1.31332,7.8173859 V 40.838024 c 0,0 17.7611,-23.014384 21.7636,-28.455285 C 165.41588,8.2551595 169.29331,2.5641026 169.29331,0 h 57.78611 c -4.0025,2.6266417 -8.38023,7.4421513 -12.0075,11.819887 L 193.87117,37.64853 224.01501,83.489681 Z M 241.58849,7.8173859 V 83.489681 c 0,2.626642 0,5.190744 -1.31332,7.817386 h 107.00438 v -25.32833 c -2.62664,1.313321 -5.19074,1.313321 -7.81739,1.313321 H 294.43402 V 55.284553 h 43.27705 v -19.1995 H 294.43402 V 24.077548 h 45.02814 c 2.62665,0 5.19075,0 7.81739,1.250782 V 0 H 240.27517 c 1.31332,2.6266417 1.31332,5.1907442 1.31332,7.8173859 z M 495.6848,83.427142 c 1.00063,2.626642 2.00125,5.253283 4.3152,7.879925 h -58.03627 c 0.31269,-2.626642 -0.75047,-5.190744 -1.7511,-7.817386 l -2.06379,-5.253283 -0.50031,-1.37586 h -33.39587 l -0.50031,1.37586 -1.87618,5.253283 c -0.93808,2.626642 -1.87617,5.190744 -1.50094,7.817386 h -45.77861 c 2.25141,-2.626642 3.1895,-5.190744 4.12758,-7.817386 L 386.17886,7.8173859 C 387.11695,5.1907442 388.05503,2.6266417 387.74234,0 h 77.29831 c -0.68793,2.6266417 0.68793,5.1907442 1.68856,7.8173859 z M 430.20638,57.661038 422.13884,36.522827 c -0.71095,-1.967555 -1.31635,-3.971658 -1.81364,-6.003753 0,0 -0.62539,3.377111 -1.56347,6.003753 l -7.69231,21.138211 h 19.07442 z M 60.28768,0 H 0 C 1.3133208,2.6266417 1.3133208,5.1907442 1.3133208,7.8173859 V 83.489681 c 0,2.626642 0,5.190744 -1.3133208,7.817386 H 60.28768 C 58.974359,88.680425 58.974359,86.116323 58.974359,83.489681 V 7.8173859 c 0,-2.6266417 0,-5.1907442 1.313321,-7.8173859 z" />
</svg>
