<svg
   width="96"
   height="36"
   version="1.1"
   id="svg3"
   xmlns="http://www.w3.org/2000/svg"
   xmlns:svg="http://www.w3.org/2000/svg">
  <defs
     id="defs3" />
  <path
     id="path2"
     style="fill:#000000;fill-rule:evenodd"
     d="M 48.007811,-3.8598633e-7 C 20.131209,-3.8598633e-7 -1.3134766e-6,8.1674986 -1.3134766e-6,18 -1.3134766e-6,27.8325 20.116909,36 48.007811,36 75.898611,36 95.999998,27.8325 95.999998,18 95.999998,8.1674986 75.884311,-3.8598633e-7 48.007811,-3.8598633e-7 Z M 87.38867,9.9999996 h 0.128906 c 1.0606,-0.014 1.934919,0.7986844 1.949219,1.8339844 v 0.07031 c 0.0287,1.0493 -0.81705,1.929032 -1.90625,1.957032 -1.075,0.028 -1.977259,-0.796075 -2.005859,-1.859375 0.0143,-0.028 0.01367,-0.06966 0.01367,-0.09766 -0.043,-1.0213 0.774012,-1.876296 1.820312,-1.9042964 z m 0.128906,0.3789064 c -0.8313,-0.028 -1.5338,0.600709 -1.5625,1.412109 v 0.113281 c 0,0.839401 0.7025,1.523438 1.5625,1.523438 0.86,0 1.5625,-0.684037 1.5625,-1.523438 0,-0.8394 -0.7026,-1.52539 -1.5625,-1.52539 z m -40.447265,0.363281 h 17.40039 v 4.015625 c -0.43,-0.1959 -0.845391,-0.195312 -1.275391,-0.195312 h -7.324218 v 1.916015 h 7.037109 v 3.048828 h -7.037109 v 1.904297 h 7.324218 c 0.4299,0 0.845391,-0.0011 1.275391,-0.210937 V 25.25 h -17.40039 c 0.215,-0.4198 0.216797,-0.824441 0.216797,-1.244141 V 12.001953 c 0,-0.4197 -0.0018,-0.826066 -0.216797,-1.259766 z m 39.716797,0 h 0.875 c 0.4157,0.014 0.730468,0.336388 0.730468,0.742188 0,0.2798 -0.158015,0.531975 -0.416015,0.671875 l 0.501953,0.880859 h -0.386719 l -0.458984,-0.8125 h -0.501953 v 0.8125 h -0.34375 z m -78.7871093,0.01367 h 9.8046903 c -0.215,0.4197 -0.2168,0.826394 -0.2168,1.246094 v 12.003906 c 0,0.4197 0.002,0.824341 0.2168,1.244141 H 7.9999987 c 0.215,-0.4198 0.21484,-0.824441 0.21484,-1.244141 V 12.001953 c 0,-0.4197 1.6e-4,-0.826394 -0.21484,-1.246094 z m 14.0742203,0 h 9.015623 c -0.215,0.4197 -0.214844,0.826394 -0.214844,1.246094 v 5.246093 c 0,0 2.881716,-3.66603 3.541016,-4.519531 0.5016,-0.6435 1.117187,-1.553056 1.117187,-1.972656 h 9.402344 c -0.645,0.4197 -1.361519,1.1755 -1.949219,1.875 -0.516,0.615601 -3.439453,4.099609 -3.439453,4.099609 0,0 4.327091,6.449991 4.900391,7.275391 h 0.002 c 0.3153,0.4477 0.659247,0.866341 1.060547,1.244141 H 34.687545 c 0,-0.4198 -0.4163,-1.27186 -0.875,-1.94336 -0.4586,-0.6716 -2.9375,-4.351562 -2.9375,-4.351562 v 5.050781 c 0,0.4197 -1.56e-4,0.824341 0.214844,1.244141 h -9.01562 c 0.215,-0.4198 0.21484,-0.824441 0.21484,-1.244141 V 12.001953 c 0,-0.4197 1.6e-4,-0.826394 -0.21484,-1.246094 z m 48.947263,0.01367 h 12.56836 c -0.1146,0.4197 0.115737,0.826394 0.273438,1.246094 0.372599,0.9094 4.399443,11.178734 4.714843,11.990234 0.1433,0.4617 0.387825,0.880341 0.703125,1.244141 h -9.43164 c 0.043,-0.4198 -0.11511,-0.824441 -0.28711,-1.244141 0,0 -0.14315,-0.336572 -0.34375,-0.826172 l -0.08594,-0.208984 h -5.431641 l -0.08594,0.222656 c 0,0 -0.157482,0.406472 -0.300782,0.826172 -0.1433,0.4197 -0.30154,0.82444 -0.24414,1.244141 h -7.437501 a 3.6406,3.6406 0 0 0 0.671875,-1.244141 l 4.458985,-12.003906 c 0.1577,-0.4197 0.315112,-0.826394 0.257812,-1.246094 z m 16.109376,0.335937 v 0.798828 h 0.472656 c 0.2293,0.014 0.429687,-0.155106 0.429687,-0.378906 0,-0.2238 -0.157418,-0.419922 -0.386718,-0.419922 z m -10.792969,4.492188 a 5.5011,5.5011 0 0 1 -0.257813,0.951172 c -0.043,0.14 -0.601093,1.608622 -1.246093,3.357422 h 3.109375 l -1.31836,-3.357422 c -0.1147,-0.3077 -0.215409,-0.629372 -0.287109,-0.951172 z" />
</svg>
