<svg
   version="1.1"
   id="layer"
   x="0px"
   y="0px"
   viewBox="-153 -46 598.90002 148.60001"
   xml:space="preserve"
   width="598.90002"
   height="148.60001"
   xmlns="http://www.w3.org/2000/svg"
   xmlns:svg="http://www.w3.org/2000/svg"><defs
   id="defs3" />
<style
   type="text/css"
   id="style1">
	.st0{fill:#FF6200;}
	.st1{fill:#000066;}
</style>
<g
   id="g3"
   transform="translate(-21.1,-191.2)"
   style="fill:#000000">
	
	<path
   class="st1"
   d="m 199.9,253 v 28.8 c -15.8,8 -30.9,12 -45.9,12 -41.6,0 -66.5,-24.8 -66.5,-56 0,-33.6 28.5,-61.6 64.9,-61.6 9.1,0 15.8,1.6 23,4 5.2,1.6 8.3,3.6 11.5,3.6 2.8,0 3.6,-4.8 4,-7.6 h 4 l 3.6,38.8 h -4.8 c -2,-7.6 -5.5,-14 -10.3,-18.4 -7.5,-7.6 -17.8,-11.6 -29.7,-11.6 -24.9,0 -39.6,20 -39.6,50 0,29.6 17.8,50 41.6,50 7.1,0 13.5,-1.6 21.4,-5.2 v -29.6 c 0,-9.6 -1.6,-13.2 -15,-13.2 v -4.4 h 50.3 v 4.4 c -12.8,0 -12.5,4 -12.5,16 z M 61.7,205.8 v 86 H 55 L -30.2,203 c 0.4,2.4 0.4,4.4 0.4,6.8 v 54 c 0,16.8 0,22.8 15.1,22.8 v 4.4 h -40 v -4.4 c 15,0 15,-7.2 15,-22.8 v -61.6 c 0,-9.2 0,-19.2 -15.8,-19.2 v -4.4 h 37.6 l 70.1,72.8 c -0.4,-2 -0.4,-3.2 -0.4,-6 v -39.6 c 0,-16 0.4,-22.8 -14.7,-22.8 v -4.4 h 40 v 4.4 c -14.6,0 -15.4,6.4 -15.4,22.8 z M -131.9,291 v -4.4 c 9.5,0 16.2,-0.8 16.2,-14.8 v -74 c 0,-14.4 -5.1,-14.8 -16.2,-14.8 v -4.4 h 56.2 v 4.4 c -11.5,0 -16.2,0.4 -16.2,14.8 v 74 c 0,14 5.9,14.8 16.2,14.8 v 4.4 z"
   id="path2"
   style="fill:#000000" />
	<path
   class="st0"
   d="m 300,199 c -0.8,-1.6 -2.8,0 -4.8,-0.8 0,0.8 0,1.6 1.2,2.4 1.1,-1.1 3.2,-1.6 3.6,-1.6 z m 3.1,-20.9 c 0,-0.8 -0.8,-1.6 -2,-2.4 h -9.6 c 0,1.6 1.2,2.4 2.4,2.4 0,1.6 1.2,1.9 1.6,2.4 1.2,0.8 1.6,0.8 2.8,0 1.2,0.8 1.6,-0.7 2,0 0,2.4 0,3.5 -0.4,5.4 -0.4,2.8 -2.8,2.4 -4.8,3.6 0,1.2 -1.2,3.2 0,4.4 1.2,-0.8 2,-1.2 4,-2 0,-1.2 1.2,-2.4 2.8,-3.2 0,-3.6 1.2,-7.1 1.2,-10.6 z m 18,22.9 v -2 h -4 l -0.4,0.4 z m -23.6,-36.5 c -0.4,-3.9 -4.8,-4.3 -6.8,-5.8 h -1.6 c -3.1,1.2 -3.9,4.4 -4.2,7 1.1,3.6 3.4,1.2 5,3.6 1.7,-1.2 5.7,-4 7.6,-4.8 z m 8.9,4.4 c -0.8,-0.8 -3.2,0.4 -4.4,0.8 -1.6,0.4 -2.8,1.6 -2.8,2.8 h 4.4 c 0.4,-1.2 2,-2.8 2.8,-3.6 z m 19.6,8.4 c 0,0 0.8,0 0,-0.4 l -8.4,-1.2 c -0.8,1.2 -2.8,1.2 -2.8,2.4 H 314 c 0.8,3.2 0.8,6.6 0.8,10.2 1.6,0.4 3.2,1.2 3.2,3.6 1.6,0.8 3.2,1.2 4.7,2.4 0.7,-0.4 1.1,-1.6 1.5,-2.8 -1.5,-2 -5,-0.8 -5,-4.4 l -2.4,-0.8 c 0,-2.3 0,-4.6 -0.4,-6.3 l 0.4,-0.3 c 0,0.3 0.4,0.7 1.2,1.5 1.6,0 3.2,0.4 4.7,-0.8 0.7,-0.4 0.7,-2.4 1.5,-2.4 0.7,0.1 1.4,0.1 1.8,-0.7 z m -6.1,-4.8 c 0,-1.2 -0.4,-1.2 -0.8,-1.2 -2,0 -2,-3.2 -3.6,-2.4 -0.8,0 -1.6,-0.8 -2.8,0 0,0.4 0,0.4 0.8,0.4 2,0 1.2,2.8 2.8,3.2 z m 13.3,-2.4 c 0.8,-2 0.8,-5.5 -0.8,-7.4 -0.8,-1.6 -2.8,-2.4 -4.8,-4 l -2.8,1.6 c -1.4,0.8 -2.2,2.4 -2.2,4.3 2.6,1.1 5.3,4.4 6.5,6.7 h 1.2 c 1.3,-1.2 2.1,0 2.9,-1.2 z m -81.9,110.2 c -0.4,0 -1.6,-1.2 -2.8,-1.2 -1.1,2.4 0,4 0,6.8 0,1.2 -0.4,2.4 -0.4,2.4 -0.7,0 -2.2,-1.6 -2.5,-3.2 v -6.4 l 3.3,-4.3 c 2.4,1.5 3.2,3.9 2.4,5.9 z m 10.2,-4.4 c 0,1.6 -0.4,3.2 -1.2,4.4 -0.4,-1.6 -1.5,-3.6 -3.5,-3.6 -1.6,3.2 -2,4.4 -0.4,9.2 -1.2,1.2 -2,1.6 -3.6,2.4 -0.8,-1.6 -0.8,-4.4 -0.8,-6 0,-2.8 0.4,-5.6 1.2,-7.9 1.2,-1.2 2,-3.2 3.2,-4.1 h 4.2 c -1.9,0 -1.9,1.7 -1.9,2.9 1.2,0.4 2.8,0.8 2.8,2.7 z m 14,2.4 c 0,3.2 -5.2,7.6 -5.2,7.6 0,-2 1.2,-4.4 1.2,-6.8 0,0 -1.6,-1.6 -3.2,-1.6 -1.2,0.8 -1.2,1.6 -1.6,2.8 -1.2,2.4 -3.6,4.8 -4,7.2 -0.4,0 -0.4,-0.4 -0.4,-0.4 0,-4 0.4,-10.8 2.8,-13.5 2,-2.4 3.6,-2.4 6,-2.8 l 2,0.4 -1.6,2.4 c 1.6,0.8 4,2.3 4,4.7 z m 10.9,-3.9 -1.1,3.9 -2.6,-7.1 c -3.2,-2.8 -6.8,-3.2 -8.8,-4.9 -1.6,-0.4 -1.6,0.8 -2.4,0 0,-0.8 0,-2 1.2,-3.2 h 2.4 l 2.4,1.2 c 1.2,1.2 4,1.2 4,3.6 0,0.4 -0.4,0.8 0.8,2.4 l 3.7,0.9 z m 6,-5.6 -2.8,2.4 c -0.8,-0.9 0,-2.8 -1.2,-4 0,-0.8 0.8,-1.2 0.4,-1.6 -0.4,-0.8 -4.9,-2.4 -4.9,-2.4 -1.5,-1.2 -3.5,-2.4 -5.1,-4 -1.6,-0.4 -2.8,0.4 -4.8,0.8 v -0.8 c 0.8,-1.6 0.8,-3.6 3.2,-3.6 1.2,0 2.8,0 3.6,1.2 1.6,0 2.4,1.6 3.5,2 1.8,2 3.4,2.8 4.5,3.6 0,1.2 0.4,2 1.2,2.4 2.4,0 1.6,2.4 2.4,4 z m 2,-12.4 c 0,1.2 -0.4,6 -0.4,6 -0.8,-2.8 -2.8,-5.6 -5.2,-5.6 -1.2,-1.2 -2.4,-2.4 -2.7,-3.6 -1.1,-1.2 -2.2,0 -3.7,-1.2 -1.6,0 -3.6,0 -5.2,1.2 V 252 l 2.8,-3.2 c 2.8,0.4 6.1,0 6.9,2 2,1.2 4,2.4 4.4,3.2 v 1.2 c 0.7,0.4 2.3,0.8 3.1,1.2 z m -2,-20.2 -1.6,5.8 c -2,1.6 -4.7,0.8 -6.9,0.8 2.9,-0.8 5.3,-4.2 6.9,-6.6 0.4,-0.4 0.8,0 1.6,0 z m -5.6,-4.8 c 0,1.6 -0.7,3.6 -2.5,5.6 -0.4,0.4 -1.5,1.2 -1.5,1.2 0,-2.4 1.1,-4.4 1.1,-6.4 1.1,-0.4 2.1,-1.2 2.9,-0.4 z m -4.5,-6 c -2,2 -4,2.8 -4.8,5.2 0,-1.1 -0.3,-2.2 -0.8,-3.2 0.4,-1.6 1.6,-2.4 2,-2.8 1.2,0.4 2,0.4 3.6,0.8 z m 28.8,30.2 c -1.6,1.2 -2.8,1.2 -4.8,0.8 l -2.4,-3.2 h 6 c 0.1,0 1.2,2.4 1.2,2.4 z m -8,-18.2 c -1.2,2.4 -2.4,4.6 -4.8,5.4 -1.2,0 -3.2,0.8 -5.6,0 1.2,-0.8 2.4,-1.2 4,-2.2 l 3.2,-3.2 c 0.1,0 3.2,0 3.2,0 z m 36.5,41.7 -1.2,1.2 c -1.2,-1.2 -0.4,-4.4 -2.4,-4.8 -2,0 -3.6,-1.9 -4.4,-2.3 l 1.6,-0.8 c 0,0 0.8,-0.4 1.6,0 0.8,0.8 1.6,1.2 1.6,2 0.8,1.1 2,0 2.8,1.1 0.4,1.3 0.8,2.8 0.4,3.6 z m -29.3,-38.5 c -0.4,2.2 -1.6,3 -3.6,5.8 -1.2,0.8 -3.6,1.2 -6,2.4 0.4,-1.2 1.6,-1.6 2.4,-2.8 0.8,-1.2 2.4,-3.2 2.8,-4.3 2.1,-1.1 2.9,-1.1 4.4,-1.1 z m -19.1,-14 c -2.4,-0.8 -5.1,-3.2 -6.2,-5 -0.7,-1.5 -1,-3.1 -1.1,-4.8 1.5,0 2.5,1.2 2.9,2 v 0.4 c 2,2.4 4,4.2 4.4,7.4 z m 30.7,28.6 h -0.8 c -0.4,0 -3.2,-1.2 -4,-2 -0.4,-1.2 -0.4,-2.4 -0.4,-2.4 h 3.2 z m 31.5,18.4 c -0.4,0.8 -1.2,3.1 -1.6,4.7 -0.8,-2.4 -1.6,-5.9 -4.4,-5.9 -0.4,-1.6 -0.8,-2.1 -2.4,-3.2 l -3.1,-0.4 c 0.4,1.6 2.7,1.6 1.1,3.6 1.5,1.2 2.7,1.2 3.5,3.1 0.8,1.2 0,2.8 0.4,3.6 l -2.4,1.2 c 0,-2 0.4,-5.9 -2.2,-6.7 -2.4,0.8 -2.8,-2.4 -4.4,-3.3 -0.8,0 -0.8,-2 -2,-1.2 -2,1.2 -4.4,0 -6.4,1.2 l 2,-3.2 c 1.6,-1.2 3.2,-0.8 4.8,-1.2 l 3.2,-0.4 c 3.2,0 5.8,1.6 9,2.8 1.6,0.8 2.4,2 2.4,3.7 0.9,0.4 2.5,0.4 2.5,1.6 z m -57,-53.2 -1.2,5 c -1.2,-2.4 -2.4,-4.6 -2.8,-7.4 z m 7.6,11.4 c -2.4,-2.4 -4.4,-4.4 -4.4,-6.8 1.2,0 2.4,0 3.6,0.8 -0.1,2 0.8,3.6 0.8,6 z m 45.4,33.8 c -1.6,-1.2 -4,-1.2 -4.8,-3.2 -1.5,-0.4 -2.7,-0.4 -4.6,-0.4 -1.6,0.4 -3.6,0.4 -5.2,0.4 -0.4,0 0,-0.4 -0.8,-0.8 -2.4,0.8 -4.8,0.8 -7.2,3.2 l 2,-4.8 c 1.6,0 2.8,-0.8 3.6,-0.8 1.6,-0.4 2.8,-0.4 4,-0.4 v 0.4 c 4.4,0 9.4,-0.4 12.6,3.2 z m -23.8,-22.8 c -0.8,0.8 -2.9,1.6 -4.5,1.6 -2.4,-2 -4,-4.2 -6.4,-7.4 l 6.4,1.2 c 1.2,0.8 3.4,3.5 4.5,4.6 z m -13.3,-17.4 c 0,2.8 -0.4,6.4 -3.2,7.6 l -0.8,-4 c 1.2,-0.8 2.4,-1.6 4,-3.6 z m 36.3,32.2 c -2,0 -3.6,0 -4.8,-2 -0.4,0 -1.1,-1.2 -1.5,-0.4 -2,1.6 -4,-1.2 -6.4,-0.8 -1.2,1.2 -2.4,2 -4.4,2.4 v -0.4 c 0,-1.2 0.8,-2.4 2.4,-3.2 2.4,0.8 4.4,-4.4 6.8,-1.6 1.2,0.4 2.3,0.4 3.1,0.4 2.8,1.2 3.6,3.6 4.8,5.6 z m 9.2,14.8 h -0.4 c -0.8,-1.2 -1.2,-2.1 -2,-2.1 1.2,-4.4 -1.2,-8 -2,-11.6 v -1.2 c 1.2,2 4.4,4 4,6 0.4,3.7 0.4,6.9 0.4,8.9 z m -36.7,-40.6 c -2,-1.2 -5.6,-1.6 -4.8,-4 0.8,-2 2,-2.4 2.8,-3.2 0.4,2.8 0.8,4.8 2,7.2 z m -40.8,-51.4 -2,2.4 c 0.4,3.8 -1.2,6.6 -1.2,10.2 l -2,-6.4 c 0.4,-1.6 0.8,-3.1 2,-5 z m 59.3,60.2 h -1.2 c -4.4,1.4 -8,-1.2 -11.6,-3.6 2,-0.8 4.8,-1.2 7.2,-1.2 l 1.2,2.4 c 1.2,0.4 3.2,1.6 4.4,2.4 z m -20.5,-32.2 c -0.4,2.4 -1.2,6 -3.6,7.6 0,-1.6 -0.8,-2.4 -1.6,-3.6 -0.4,0 0,1.2 -0.4,1.2 0,0.8 -0.8,2.4 -0.8,4 -0.8,0.4 -2.4,1.2 -4,0.4 v -1.2 c -0.4,-0.8 -0.4,-2.4 -0.4,-3.2 l -0.4,-0.4 c -1.2,0.4 -1.2,1.2 -1.2,2 -0.4,0.8 -1.2,1.6 -1.2,2.8 -1.6,0 -2.4,-0.4 -3.6,-1.2 v -3.6 c 0,-0.8 0,-0.8 -0.4,-0.8 l -2,2 c -1.6,-1.2 -2,-4.4 -2,-6.4 6.4,-3.6 14.4,-2.4 19.2,-0.4 0.8,0.4 1.6,0.4 2.4,0.8 z m 11.3,21.8 c -1.6,0.4 -4.4,1.2 -5.2,-0.8 -2.2,-3.6 -1.1,-6.8 0,-9.4 0.8,2.3 1.2,4.6 1.6,6.6 0.4,1.6 2.8,2.4 3.6,3.6 z m -50.9,-55.3 -2.8,0.8 0.4,-2 c 0.8,-1.2 1.2,-2.4 2.4,-3.6 z m 66.7,61.3 c -1.6,0 -4.3,0 -5.8,-1.2 -2.4,-1.2 -3.2,-2 -4.4,-3.2 1.6,-1.2 3.6,-1.2 4.4,-1.6 1.6,1.6 3,4.4 5.8,6 z m -11,-11.2 c -2,0.4 -3.6,-1.6 -5.6,-2.4 -0.8,-2.2 -0.8,-4.6 -1.6,-5.8 1.6,1.2 5.2,1.2 4.4,4.8 0,1 1.6,1.8 2.8,3.4 z m 32.7,28.2 c 0,2.4 -1.6,4.4 -2,6.8 0,-2.4 -0.4,-4.4 -2,-6 0,-0.8 1.1,-0.8 0.4,-2 0,0 -2.2,-1.2 -2.2,-2.8 0,-1.6 1.5,-2.8 2.2,-4 0,-0.4 1.6,0.8 1.6,3.2 0,0.4 0,1.6 -0.4,2.4 -0.4,1.2 2.4,1.2 2.4,2.4 z m 9.2,4.4 c 0,2 -2.4,4.4 -3.2,6 0.8,-2 0.8,-6 0,-6 -0.8,-0.4 -2.4,0 -2.4,-0.8 0,-1.2 0.4,-2.8 0.4,-3.6 0,-1.6 -1.2,-2.4 -1.2,-3.2 0,-2.4 2.8,-2.8 3.6,-4.4 0.4,1.6 0.4,3.2 0.4,5.2 0,0.8 1.2,3.2 0,5.2 0,1.2 2.4,0.4 2.4,1.6 z m -32.5,-37.2 c -2.2,0 -5,1.2 -6.2,-1.2 0.8,-0.4 1.6,-1.6 2.4,-2.4 z m 11.2,9 -2,0.8 c -4.4,0 -6.4,-1.2 -8.4,-2.8 1.6,0 3.6,-2 3.6,-2 2,2 4.8,3.6 6.8,4 z m -16.2,-25 c -4.8,-2.6 -10,-4.6 -15.8,-5 0,1.2 0,2.4 -0.4,2.8 4.6,2.2 9,4.2 13,7.8 v 3.6 c -4,-4 -8.4,-8 -13.4,-9.2 -0.4,0.8 -1.9,1.6 -2.3,3.2 -2.8,-2 -6,-4 -9.2,-4.4 -1.2,0 -2,-4.2 -2,-4.2 2,-0.8 3.2,-2 4,-4 h 1.6 c 1.2,0 1.2,-0.8 1.2,-2 0,-2.4 -5.2,-2.4 -7.6,-2.4 -2.8,0 -4.8,0 -6.4,1.2 -0.8,0 -0.4,1.2 -0.4,2 0,0.4 1.2,1.2 1.2,1.2 0.8,0 1.6,-0.8 2.4,-0.8 -0.4,2.4 0.4,3.6 2.8,4.8 l -0.4,3.9 c -4.8,0 -8,1.9 -11.6,3.5 -1.2,-0.8 -2,-2 -2.8,-3.2 -4.8,1.6 -12.9,8 -12.9,8 v -2.8 c 3.5,-3.2 8.1,-4.8 11.7,-6.6 V 199 c -1.6,-0.8 -3.2,0 -4.8,0 -3.4,0.5 -6.6,1.8 -9.3,3.9 0,-1.1 -0.4,-2.7 -0.4,-2.7 4.4,-2.4 9.7,-4.4 14.8,-3.6 V 195 c -0.4,-0.8 -0.4,-2 -1.2,-2 -2.4,-2.4 -4.8,-6 -4.8,-8.4 l 1.6,-0.8 c -0.8,-2.3 -1.6,-8.2 0,-10.2 -2.3,-1.2 -4.5,-3.2 -5.3,-4.8 -0.8,-2 -1.6,-3.2 -2,-5.4 1.2,-2.4 2,-3.2 3.1,-5.6 0.7,0 1.8,-0.4 2.2,-1.2 2,-0.4 3.2,-2.4 5.6,-1.2 1.6,0 3.2,0.8 4.4,1.2 0,0.8 0,1.2 0.8,2 2.4,0 2.4,2.4 3.6,4.4 1.2,0.4 2.4,0.4 3.2,0.4 2.4,0.7 4.4,0.7 5.2,1.8 3.2,-1.8 6.4,-2.2 10,-1.8 0.4,-1.2 1.2,-2.8 1.6,-4.8 0.4,1.2 0.4,0 1.2,0 1.5,-1.2 3.3,-3.2 6.1,-2.4 1.6,1.2 4.4,0.4 6,2.4 1.2,1.6 2,4 3.2,5.8 -1.2,2.3 0,5.5 -2.4,6.7 l -2.4,2.4 c -0.8,0 -0.8,0.8 -2,0.8 1.2,2.8 0.4,6.7 -0.8,9.4 0.8,-0.3 2,-0.3 2,-1.5 0.4,0.4 0,1.1 0,1.5 v 1.2 c 0,2 -1.2,4 -2.8,5.6 -0.8,2.4 -2.8,5.6 -5.4,6 v 0.8 c 5.8,0 10.6,1.6 16.2,4.4 z m 30.7,38.4 c 0,0.8 -1.2,1.6 -1.6,1.6 0,0 -2,-2 -2.4,-3.8 -0.4,-1.6 1.2,-4.4 1.2,-4.4 0.4,0 0.8,0.8 1.2,0.8 0.4,0.4 0,1.6 0.4,2.8 1.2,0.8 2,2.2 1.2,3 z m 32.1,27.6 c 0,0.2 -0.8,0.9 -0.8,0.9 -1.8,-0.9 -3,-1.2 -5.4,-1.2 0,-1.6 -1.2,-3.6 -2,-3.6 -2.4,0 -2,1.6 -4,1.6 l 3.6,-3.6 c 0.4,-0.8 0.4,-0.8 1.2,-0.8 1.2,0.8 1.6,1.2 2.8,1.2 0,0.8 0,1.2 -0.4,2.4 1.2,0.8 1.9,-0.4 2.7,0.8 1.2,0.3 2.3,0.7 2.3,2.3 z m -37.3,-36.2 c 0,1.2 -0.8,1.6 -1.5,2.4 0,0 -1.5,-2 -1.5,-2.8 0,-1.6 0,-2.4 0.4,-3.6 1.1,1.2 2.6,2.8 2.6,4 z m 15.6,11.8 c 0,2.4 -0.4,5.2 -0.4,8 -1.2,0 -1.2,-0.8 -1.2,-2.4 -0.4,-2.4 -1.2,-4.4 -2,-6.8 -0.8,-3.1 -2.8,-5.8 -4.4,-9.4 -0.4,-1.6 -2.4,-2.4 -4,-3.6 2,0 4,0 5.6,1.6 0,0.8 0.4,1.2 1.6,2.4 2.8,0 2,3.6 4.4,5.2 -1.2,1 -1.6,1.8 -2.4,2.6 1.2,0.8 2.4,1.2 2.8,2.4 z m -20.5,-22.6 c -1.2,1.2 -4.4,1.6 -6.8,-0.4 l 3.2,-1.4 c 1.2,1 2.8,1.4 3.6,1.8 z m -8.8,-9 c -0.4,1.6 -2,0 -2.4,0 h -3.6 c -0.4,-0.8 -0.8,-1.2 -0.8,-2 1.6,-0.4 2.8,-1.2 4,-0.4 0.8,1.2 1.6,2.4 2.8,2.4 z m 34.9,31.2 c 0,1.6 -0.8,2.8 -0.4,4.4 -0.8,-2.4 -2.4,-4.8 -3.2,-7.2 0,-0.4 -0.4,-0.4 0.4,-0.8 0.4,0 2,0 2,0.4 0.4,0.8 1.2,2 1.2,3.2 z m 20,16.4 c 0,1.6 -0.4,2 -0.8,4 -2.7,-0.4 -2.7,-3.6 -3.1,-4 -1.9,-2.4 -4.5,-0.4 -6.5,-0.4 -0.8,-2.4 0.4,-2.4 0.4,-4 1.2,0 2.4,-0.8 3.5,0 1.8,-0.8 3,1.2 4.9,1.2 0.4,0.8 1.2,2.8 1.6,3.2 z m 8,11.2 c -0.8,1.2 -0.8,1.2 -1.2,2.3 0,-1.9 -2.4,-3.1 -4,-6.4 l 1.6,-2.8 c 1.2,0.8 2.8,2 2.8,4 0,0 -0.4,0.9 0,1.7 0,0.4 0.8,0.4 0.8,1.2 z m -65.7,-67.6 c -2.4,0 -3.6,-1.2 -4.8,-3.4 0,-1.2 -0.4,-2.8 0,-4.8 0.8,1.6 0.8,2.4 1.6,3.2 1.6,-0.8 1.6,1.2 2,1.6 0.4,1.1 1.2,2.2 1.2,3.4 z m 34,29.4 c -3.6,-2 -5.6,-5.6 -8.8,-9.2 3.2,0 4,3.2 6.4,3.6 0.8,0.8 1.6,1.2 2.4,2.4 z m 24.9,22.6 c -2.8,0 -1.2,-5.6 -7,-5.6 -1.1,0 -1.9,2 -3.5,2.4 0,-0.4 0.4,-2.8 0.4,-2.8 0,-0.8 0.4,-2.4 1.9,-3.2 3,0 2.2,1.2 4.5,2 1.2,0.4 2,1.2 3.6,1.2 z m 9.6,5.2 c 0,2.4 0,3.2 -1.2,5.2 l -2.4,-3.6 c 0.8,-1.2 0.8,-2.8 2,-4.8 0.4,0 1.6,2.8 1.6,3.2 z m -76.7,-76.1 c 0,0.4 -0.8,4 -0.8,4 l -3.2,0.8 2,-8.6 c 0.8,1.4 2,2.9 2,3.8 z m 69.1,62.1 c -1.2,-0.4 -4,-0.8 -4,-2 0,-1.6 -0.8,-2 -2.7,-2 -1.5,0 -2.6,0.4 -4.9,1.2 0,0 -1.2,-1.6 -1.6,-3.2 0.8,-0.4 3.9,-1.2 5.4,-1.2 2.7,0 5.5,0 5.5,1.2 -0.1,1.6 2.3,2 2.3,6 z m 3.6,-8.6 c -2.8,0 -5.6,-0.8 -6,-2 -0.8,-0.8 0,-2.4 -2,-2.4 -0.8,0 -2,1.2 -2,1.2 -0.7,0.4 -3,-1.2 -3,0 0,2 -1.5,2.8 -3.5,2.8 -0.8,0 -1.6,0 -2.4,-0.4 v -4 c 5.1,0 4.8,-1.6 7,-1.6 1.5,0 2.6,0.8 3.8,0.8 2,0 0.8,-0.8 2.8,-0.8 2,0 2.8,1.6 4,2 0.1,1.2 1.3,2.8 1.3,4.4 z m -1.2,-8.8 c -3.2,-2 -8,-3.2 -10.6,-3.2 -1.5,0 -6.2,2 -7.8,3.6 l -0.8,-3.6 c 2.4,-0.4 2.4,-2.4 4,-2.4 1.2,0 2.8,-0.4 3.9,-0.4 1.1,0 1.9,-0.8 2.3,-0.8 1.9,0 1.1,2 2.3,2 1.2,0 2,-0.8 2.8,-0.8 1.9,0 3.5,3.2 3.9,5.6 z m -9.1,-8.8 c -2.3,0 -2.6,-0.3 -4.1,-0.3 -2,0 -4.4,0.7 -5.6,2.7 -0.8,-1.6 -0.4,-2.4 0,-3.4 1.2,-1.2 3.2,-2.8 4.8,-2.8 2.6,0 4.9,2 4.9,3.8 z m 0.3,-5.8 c -2.6,-0.8 -4.1,-2 -6.5,-2 -0.8,0 -4.4,1.2 -4.8,2 -1.2,-1.6 0.8,-4.8 2.4,-5.6 1.6,-0.8 2.4,-0.4 3.2,0 0,2.4 2.7,1.2 4.2,2 0.8,1.2 1.2,2 1.5,3.6 z m 9.6,-45.5 h -4.4 c -0.8,-1.2 -2,0 -2.8,0 -0.8,0 -1.2,0 -2.7,-1.2 2.3,0 3.5,-1.2 5.6,-2 1.5,1.2 3.1,1.6 4.3,3.2 z m 12,8.4 c -0.8,-1.6 -2.4,-2.4 -3.6,-2.4 -1.2,-1.6 -2.8,-3.6 -4.4,-3.6 1.2,0 2.8,-1.2 4.8,-1.2 0.8,2 2.4,3.2 2.8,4.8 z M 320.3,279.9 c -0.4,0 0.4,0.8 -3.6,-3.2 -0.8,0 -2,2.4 -2,3.2 0,3.2 0.8,7.6 2,10.8 h 3.2 c 0,-3.6 0.4,-7.6 0.4,-10.8 z m 8.5,0.4 c 0,-1.6 -1.2,-2 -2.8,-2 -0.8,0 -2.6,1.2 -2.6,2 0,1.6 -0.7,10.4 -0.7,10.4 h 2.6 c 1.1,-3.6 3.5,-8.4 3.5,-10.4 z m 52.3,-4.8 -4,0.4 c 1.6,0.8 1.6,2.8 1.6,3.2 0,1.2 -0.8,2.4 -1.6,3.2 -0.8,-0.8 -0.8,-2 -1.6,-3.2 -0.8,0 -1.2,2 -1.2,2.8 0,3.6 1.6,6.4 2.8,8.8 h 3.6 c -0.4,-3.2 -1.2,-6 -1.2,-9.6 -0.1,-2 1.2,-4.3 1.6,-5.6 z M 467,239.4 c 0,-17.4 -7.2,-35 -20,-47.6 -5.6,-5.6 -11.6,-8.3 -16.5,-13.8 -2.4,-2.4 -4.2,-4.8 -5.8,-8 -2,-2 -3.2,-3.2 -5.6,-4.4 0.4,1.2 0.8,2.4 1.2,3.6 h -0.4 c -2,0 -4,-1.2 -5.6,-2.4 l 1.6,-1.6 c -0.4,-0.8 -1.6,-0.8 -2.4,-0.8 -6.4,-1.1 -12.2,2.3 -18.4,3.6 v 0.8 c 4,1.2 4.7,6 6.9,8.4 h 2.3 c 0.8,0 2,0.8 2.8,0.8 0,-0.8 -0.8,-2.4 -0.8,-2.4 0.8,-0.8 1.6,-0.8 2.4,0 2,1.2 4.8,-0.8 6.8,2.4 -2.4,0 -4.8,0 -6.8,1.2 0,0.4 1.2,1.1 0.8,1.9 -2,-0.8 -4.4,0 -5.2,-1.5 l -0.4,0.3 c 2.4,2.8 6,5.1 9.6,6.3 5.2,0.8 9.6,-1.6 14.6,-0.4 18,8.8 30.8,29.4 30.8,49.9 0,29.4 -16.8,41 -27.2,41 -2,0 -5.1,-1.2 -6.3,-2.3 1.2,-4.1 1.9,-8.9 1.9,-16.1 0,-17 -6.7,-35.4 -15.9,-44.8 -4.4,-4.4 -9.1,-8 -14.1,-8 -2.4,0 -4.8,0 -6.4,2 -2,1.6 -3.2,4.8 -2.8,6.8 -3.2,2.4 -8.4,3.6 -12.4,3.6 -4.4,0 -10,-1.6 -14.9,-5.6 v -6 c -1.2,-0.4 -5.1,-2.8 -3.2,-4.6 1.2,0.4 2,1.1 2.4,1.4 -0.4,-2.6 -0.4,-5.8 -2.4,-8.2 -0.8,0 -2,0 -3.2,-0.8 -1.2,-1.2 -2.4,-2.8 -2.4,-4.8 1.2,2 3.2,1.2 4.4,2.4 -2,-4.8 -1.2,-6.8 -4.8,-13.8 -0.8,-3.6 -4.4,-5.6 -6.8,-8 -1.2,-0.8 -1.6,-2 -3.1,-2 -1.6,-0.4 -1.6,-2.4 -1.6,-3.6 0.4,0 1.6,0.8 2.4,1.1 -2.4,-5.4 -4,-11.4 -9.2,-14.6 l -1.2,0.8 H 326 c 0.8,-0.8 2.4,-1.2 3.6,-2 -1.2,-1.2 -2,-1.6 -4.4,-1.6 -1.1,0.4 -2.6,1.6 -4.1,1.6 h -0.4 c 0,-1.2 -0.4,-2.8 1.9,-3.6 -2.3,-0.4 -4.3,-0.4 -7.1,0 -0.4,2 -1.6,3.2 -1.6,4.8 -1.2,0.8 -1.6,2 -2.8,3.2 0,-2.4 1.2,-4.8 1.6,-7.2 -1.6,0.4 -3.6,1.6 -4.4,1.6 -3.2,-1.6 -7.2,-3.2 -8.8,-3.2 2.4,1.6 1.2,4.4 1.6,6.4 l -1.6,-0.8 c -0.4,-1.6 -2.4,-2.8 -2.8,-4.8 -2.4,0 -4,0.8 -6,2 v 0.4 c 1.2,0 2.8,1.2 3.6,2.4 -2.8,0 -4.8,-1.2 -7.6,-1.2 0,0 0,-0.4 -0.4,-0.4 -1.1,0.4 -2.2,1.6 -2.9,2.4 -2.8,2.4 -4.8,4.4 -6,8 0.8,0 2,0 2.4,0.4 -1.6,0.4 -2.4,2.4 -4,2.8 v 5.8 c -1.2,1.2 -2.8,2.4 -3.6,4.8 -2,6.3 -2.4,13.4 -2.4,21.4 -0.4,1.6 -1.2,2 -2,2.4 v 6.2 c 0,0 2.4,-2.2 3.6,-3 v 5 c -1.6,0 -2.8,2 -2.8,3.2 0,1.6 0.4,3.2 0.4,4.8 0,0.8 0,0.8 0.4,1.6 0,-0.8 0.8,-1.6 2,-2 0,0 0.8,-0.8 2.4,-0.8 -1.2,1.2 -1.6,2.8 -2.4,4.4 l -1.2,1.2 c 0,0 -0.4,0.8 -0.4,1.2 1.6,8.2 4,15.4 7.2,23.2 -3.2,5.2 -6.8,15.2 -9.2,24.7 -2,-2 -4.8,-2.4 -7.2,-2.4 -2.2,0.4 -4.6,1.2 -6.2,3.6 -2.4,-1.2 -5.6,-0.8 -7.1,0.8 -3.3,2.9 -3.3,4.4 -3.3,6.8 -0.8,0.8 -2.4,2.8 -2.4,5.6 0,3.6 0.4,6 2.4,9.2 h 60 c -0.4,-1.2 -1.2,-2.8 -2,-3.6 -1.2,-2.4 -0.4,-5.6 -0.4,-8 1.2,-2.4 2.4,-4.7 4,-6.7 0.4,-1.2 0,-1.2 0.4,-1.6 l 2.8,-0.5 c 1.6,0 2.8,-1.2 4.8,-1.2 1.2,1.7 1.2,-1.2 3.2,-2 4.4,-0.8 8.5,0 10.9,3.2 0,0.5 0.4,0.5 0.4,0.9 h -2 c -2.2,-0.9 -4.9,-2 -7.7,-0.9 0,0.9 -0.4,0.9 -0.4,2.1 v 2 c 1.6,0 2.8,1.5 4.3,2.3 0.7,-1.2 2.9,-2.3 4.5,-2.3 2,0 4.8,1.1 4.8,4.3 v 4.4 c 1.6,1.6 3.6,2 5.6,2.8 -0.8,1.6 -2,1.6 -3.2,1.6 h -3.2 c -0.4,-0.4 -1.2,-0.4 -1.2,-1.6 -1.2,1.6 -2,3.2 -2.8,4.8 h 46.3 c -0.8,-1.6 -1.6,-2.8 -2,-3.6 -0.8,-2.4 -0.8,-5.6 -0.8,-8 l 4.4,-5.9 c 2.4,0 4.4,-0.8 8.8,-1.2 0.8,-1.2 0,-1.7 3.6,-1.7 2.8,0 4.8,0.5 5.6,0.9 0.4,0.8 0.4,0.8 0,1.6 -0.8,0.8 -2.4,-0.8 -3.6,-0.4 -0.8,0.8 0.4,1.2 0.4,2 0.8,0.7 -3.6,-0.8 -3.6,-0.8 0,0 -0.8,2.3 -1.2,3.1 0,0 1.6,1.6 2.4,2.4 0.8,1.2 -1.2,2.4 -1.2,3.6 -0.8,-0.4 -2.4,-1.6 -2.4,-1.2 -0.8,3.2 0,6 -0.4,9.2 h 4.4 l 0.4,-6.8 c 0.4,-4 5.2,-11.1 8,-11.1 1.6,0 2.8,0.8 3.9,1.6 0.7,1.5 2.6,2.3 2.6,3.1 0,0.8 -1.1,1.2 -3,1.2 -0.8,0 -0.8,-1.2 -1.9,-2 l -2.4,2.4 c 0,0 2.8,2.4 2.8,4 0,2 -0.4,2.8 -1.6,4 l -2.4,-4.8 c -1.2,0 -3.2,2.4 -3.2,3.6 0,1.6 -0.8,2.4 -0.8,4.8 h 24.5 c 2.8,0 5.2,-0.8 8,-2.4 h 4.8 c 9.9,0 17.5,-2.8 24.7,-10 9.5,-8.9 15.1,-24.1 15.1,-38.7 z m -153.5,51.3 c -2,-3.6 -2.4,-9.2 -2.4,-10.4 0,-2 0,-4.8 1.2,-6.7 l -4.4,0.8 c -1.2,1.5 -1.6,2.3 -1.6,3.1 l 2,-0.8 c 0.4,0 0.8,0.8 1.2,1.6 -0.4,2 -2.8,2 -3.6,2.8 -1.2,4 2.4,6.4 2.8,9.6 0.1,0 4.8,0 4.8,0 z"
   id="path3"
   style="fill:#000000" />
</g>
</svg>
