<svg id="INTERMARCHE" width="500" height="93.457248" viewBox="0 0 500 93.457248" version="1.1" xml:space="preserve" xmlns:xlink="http://www.w3.org/1999/xlink" xmlns="http://www.w3.org/2000/svg" xmlns:svg="http://www.w3.org/2000/svg">
	<path id="INTERMARCHE" style="fill:#000000;stroke:#000000;stroke-width:0" d="m 405.63093,24.099038 0.58778,-2.938907 c 0.58778,-2.351125 0.58778,-4.11447 -2.93891,-4.702251 l -11.16784,-1.175563 c -15.28232,0 -21.74792,5.877814 -23.51126,15.282317 l -2.35113,17.045662 c -1.17556,9.404503 4.11447,15.282316 19.39679,15.282316 l 12.34341,-1.175562 c 1.76334,-0.587782 2.93891,-1.175563 3.52669,-4.702251 v -2.938907 c -3.52669,1.175562 -8.81672,1.763344 -14.69454,1.763344 -4.11447,0 -5.29003,-2.351126 -4.70225,-5.290033 l 3.52669,-22.335695 c 0,-2.938907 1.76334,-5.290032 5.87781,-5.290032 9.40451,-0.587782 14.10676,1.175562 14.10676,1.175562 z M 47.672042,62.304831 52.374294,28.80129 c 0.587781,-2.938907 -0.587782,-7.053377 -8.816722,-4.702252 L 38.26754,62.304831 H 21.80966 l 5.877814,-43.495825 c 5.290033,-1.763345 12.34341,-3.526689 21.160131,-3.526689 15.282317,0 20.572349,5.877814 19.396787,15.282317 L 63.54214,62.304831 Z M 492.0348,59.953705 c 0,-1.763343 -0.58778,-3.526688 -2.93891,-3.526688 H 476.1647 c -4.11447,0 -5.29003,-2.938907 -4.70225,-5.290033 l 0.58778,-4.114469 h 4.70225 c 15.28232,0 21.74791,-5.877815 22.92348,-14.694537 v -1.763344 c 1.76334,-9.404503 -3.52669,-15.282317 -19.39679,-15.282317 -8.22894,0 -15.8701,1.763344 -20.57235,3.526689 l -4.11447,28.213509 c -1.17556,8.816721 3.52669,14.694535 18.22122,15.282316 h 17.63345 z m -8.22894,-31.152415 -0.58778,5.290033 c -0.58778,2.351125 -2.35113,4.702251 -6.4656,4.702251 h -3.52669 l 1.76335,-14.694536 4.11447,-0.587781 c 4.11447,0 5.29003,2.351126 4.70225,5.290033 z M 492.0348,4.7022514 h -22.3357 l -0.58778,5.8778146 h 18.22123 c 2.35112,0 4.11447,-2.3511261 4.70225,-5.8778146 z M 432.08109,15.282317 h -4.70225 L 429.72997,0 c -11.75563,1.1755628 -17.04566,7.0533771 -18.22123,14.694536 l -7.05337,47.610295 h 16.45788 l 5.29003,-38.205793 4.11447,-0.587781 c 4.11447,0 5.29003,2.351126 4.70225,5.290033 l -4.70225,33.503541 h 16.45788 l 4.70225,-31.740197 c 1.17556,-9.404503 -4.11447,-15.282317 -19.39679,-15.282317 z m -149.88426,0 c -2.35113,0 -4.70225,2.351126 -5.29003,5.877814 h 17.04566 c 4.11447,0 4.70225,2.938907 4.70225,5.877815 l -1.17556,4.114469 h -5.29004 c -14.69453,0.587782 -21.16013,5.877815 -22.33569,15.282318 v 1.175563 c -1.76334,9.404503 3.52669,15.282316 19.39679,15.282316 8.22894,0 15.8701,-1.175562 20.57235,-3.526688 l 4.11447,-28.80129 c 1.17556,-8.816721 -3.52669,-14.694536 -18.22123,-15.282317 z m 12.34341,38.793575 -4.11447,0.587781 c -4.11447,0 -5.29003,-2.351126 -4.70225,-5.290033 l 0.58778,-4.702251 c 0.58778,-2.938908 2.35113,-5.290034 6.4656,-5.290034 h 4.11447 z M 248.10551,15.282317 c -5.29004,0 -9.99229,0.587781 -14.69454,1.763344 -2.93891,-1.175563 -6.46559,-1.763344 -11.16785,-1.763344 -8.22894,0 -15.87009,1.763344 -20.57235,3.526689 l -4.70225,32.91576 5.87782,10.580065 h 8.81672 l 5.29003,-38.205793 4.11447,-0.587781 c 3.52669,0 4.70225,1.763344 4.70225,4.11447 l -4.70225,34.679104 h 16.45788 l 5.29003,-38.205793 4.11447,-0.587781 c 3.52669,0 4.70226,1.763344 4.70226,4.11447 l -4.70226,34.679104 h 16.45788 l 4.11447,-31.740197 c 1.17557,-9.404503 -4.11447,-15.282317 -19.39678,-15.282317 z M 139.36594,59.953705 c 0,-1.763343 -0.58778,-3.526688 -2.9389,-3.526688 h -12.93119 c -4.11447,0 -5.29004,-2.938907 -4.70226,-5.290033 l 0.58779,-4.114469 h 4.70225 c 15.28231,0 21.74791,-5.877815 22.92347,-14.694537 v -1.763344 c 1.76335,-9.404503 -3.52669,-15.282317 -19.39678,-15.282317 -8.22894,0 -15.8701,1.763344 -20.57235,3.526689 l -4.11447,28.213509 c -1.17557,8.816721 3.52668,14.694535 18.22122,15.282316 h 17.63344 z M 131.137,28.80129 l -0.58778,5.290033 c -0.58778,2.351125 -2.35112,4.702251 -6.46559,4.702251 h -4.11447 l 2.35112,-14.694536 4.11447,-0.587781 c 4.11447,0 5.29004,2.351126 4.70225,5.290033 z M 98.221244,59.953705 c 0.587782,-2.351125 -0.587781,-3.526688 -2.938907,-3.526688 h -1.763344 c -4.11447,0 -5.290033,-2.938907 -4.702252,-5.290033 L 92.34343,25.274601 h 4.702251 c 2.351126,0 4.702249,-2.938907 4.702249,-6.465595 H 92.931211 L 95.870119,0 C 84.11449,1.7633443 78.824457,7.0533771 77.648894,15.282317 l -4.702251,31.740198 c -1.175563,9.404502 3.526689,14.694535 18.221224,15.282316 h 7.053377 z M 194.6174,29.976853 c 1.17556,-8.816722 -4.11447,-14.694536 -19.39679,-14.694536 -8.81672,0 -16.45788,1.763344 -21.16013,3.526689 l -6.4656,43.495825 h 16.45788 l 2.35113,-15.282316 h 4.11447 l 30.56463,41.144699 c 1.76335,2.938907 4.70225,5.290032 7.64116,5.290032 h 4.70225 L 185.2129,44.083607 c 5.29003,-2.351126 8.22893,-6.465596 8.81672,-12.34341 z m -15.8701,-1.175563 -1.17556,5.290033 c -0.58778,2.351125 -1.76335,4.702251 -5.87782,4.702251 h -4.11447 l 1.76335,-14.694536 4.11447,-0.587781 c 4.11447,0 5.29003,2.351126 5.29003,5.290033 z M 22.985223,0 H 7.1151241 L 0.06174699,47.610296 C -0.52603443,55.251454 3.0006541,61.129268 14.168501,62.304831 Z M 348.02835,62.304831 h 15.8701 L 353.31838,44.083607 c 5.29004,-2.351126 8.22894,-6.465596 9.40451,-12.34341 v -1.175563 c 1.17556,-9.404503 -4.11447,-15.282317 -19.39679,-15.282317 -8.22894,0 -15.8701,1.763344 -21.16013,3.526689 l -5.87782,43.495825 h 16.45788 l 1.76335,-15.282316 h 4.11447 z m -9.99228,-38.205793 4.11447,-0.587781 c 4.11447,0 5.29003,2.351126 4.70225,5.290033 l -0.58778,5.290033 c -0.58779,2.351125 -2.35113,4.702251 -6.4656,4.702251 h -4.11447 z" />
</svg>
