<svg
   clip-rule="evenodd"
   stroke-linejoin="round"
   stroke-miterlimit="1.414"
   viewBox="0 0 361.39999 74.900002"
   version="1.1"
   id="svg13"
   width="361.39999"
   height="74.900002"
   xmlns="http://www.w3.org/2000/svg"
   xmlns:svg="http://www.w3.org/2000/svg">
  <defs
     id="defs13" />
  <g
     fill="#3b3a40"
     transform="translate(-64.825592,58.42273)"
     id="g9"
     style="fill:#000000">
    <path
       d="m 181.22559,-43.622725 v 31.3 c 0,2.7999997 0.2,5.3999997 -2.3,7.2999997 -2.3,1.9 -6.2,2.5 -10.4,2.5 -6.4,0 -13.2,-1.5 -13.2,-1.5 l -1.5,3.99999997 c 0,0 9.5,2.00000003 16.4,2.10000003 5.8,0.1 10.9,-1.20000003 13.7,-4.4 2.3,-2.6 3,-5.6 2.9,-10.6999997 v -30.6 z"
       id="path1"
       style="fill:#000000" />
    <path
       d="m 227.92559,-26.322725 c -4.2,-2.3 -9.3,-3.5 -15.1,-3.5 -5.7,0 -10.8,1.2 -15.1,3.5 -5.4,2.9 -8.1,7.2 -8.1,12.6 0,5.3999997 2.7,9.6999997 8.1,12.5999997 4.3,2.3 9.3,3.5 15.1,3.5 5.7,0 10.8,-1.2 15,-3.5 5.4,-2.9 8.1,-7.2 8.1,-12.5999997 0,-5.5 -2.7,-9.7 -8,-12.6 m -3.3,21.9999997 c -3.3,1.9 -7.2,2.8 -11.8,2.8 -4.7,0 -8.7,-0.9 -11.9,-2.7 -3.9,-2.2 -5.8,-5.3 -5.8,-9.4999997 0,-4.1 2,-7.3 5.8,-9.5 3.2,-1.8 7.2,-2.7 11.9,-2.7 4.6,0 8.6,0.9 11.9,2.7 3.8,2.2 5.8,5.4 5.8,9.5 -0.1,3.9999997 -2,7.1999997 -5.9,9.3999997 z"
       id="path2"
       style="fill:#000000" />
    <path
       d="m 277.12559,-26.322725 c -4.2,-2.3 -9.3,-3.5 -15.1,-3.5 -5.7,0 -10.8,1.2 -15.1,3.5 -5.4,2.9 -8.1,7.2 -8.1,12.6 0,5.3999997 2.7,9.6999997 8.1,12.5999997 4.3,2.3 9.3,3.5 15.1,3.5 5.7,0 10.8,-1.2 15,-3.5 5.4,-2.9 8.1,-7.2 8.1,-12.5999997 0,-5.5 -2.7,-9.7 -8,-12.6 m -3.3,21.9999997 c -3.3,1.9 -7.2,2.8 -11.8,2.8 -4.7,0 -8.7,-0.9 -11.9,-2.7 -3.9,-2.2 -5.8,-5.3 -5.8,-9.4999997 0,-4.1 2,-7.3 5.8,-9.5 3.2,-1.8 7.2,-2.7 11.9,-2.7 4.6,0 8.6,0.9 11.9,2.7 3.8,2.2 5.8,5.4 5.8,9.5 -0.1,3.9999997 -2,7.1999997 -5.9,9.3999997 z"
       id="path3"
       style="fill:#000000" />
    <path
       d="m 345.02559,-27.122725 c -3,-1.8 -6.9,-2.7 -11.5,-2.7 -5.9,0 -10.6,1.8 -14.2,5.4 -3.4,-3.6 -8.2,-5.4 -14.1,-5.4 -4.8,0 -8.7,1 -11.7,2.9 v -2.5 h -5.3 V 1.6772747 h 5.3 V -19.522725 c 0.4,-1.5 1.4,-2.9 3,-4.1 2.2,-1.5 5,-2.3 8.5,-2.3 3.1,0 5.7,0.6 7.9,1.9 2.6,1.5 3.8,3.5 3.8,6.3 V 1.8772747 h 5.2 V -17.822725 c 0,-2.8 1.2,-4.8 3.8,-6.3 2.2,-1.2 4.9,-1.9 8,-1.9 3.1,0 5.8,0.6 8,1.9 2.6,1.5 3.8,3.5 3.8,6.3 V 1.7772747 h 5.3 V -17.122725 c -0.1,-4.4 -2.1,-7.8 -5.8,-10"
       id="path4"
       style="fill:#000000" />
    <path
       d="M 354.92559,-43.622725 V 1.7772747 h 5.3 V -43.622725 Z"
       id="path5"
       style="fill:#000000" />
    <path
       d="m 419.32559,-43.622725 v 35.0999997 h 5.3 V -43.622725 Z"
       id="path6"
       style="fill:#000000" />
    <path
       d="m 405.42559,-29.422725 v 5.3 c -4.5,-3.8 -10.5,-5.8 -17.9,-5.8 -5.9,0 -11,1.1 -15.2,3.4 -5.2,2.9 -7.9,7.1 -7.9,12.7 0,5.4999997 2.7,9.7999997 8.1,12.5999997 4.2,2.3 9.3,3.4 15.2,3.4 2.9,0 5.8,-0.3 8.4,-1 3.7,-1.00000003 6.8,-2.4 9.2,-4.3 v 4.8 h 5.3 V -29.422725 Z m -35.4,15.7 c 0,-4.1 2,-7.3 5.8,-9.5 3.2,-1.8 7.3,-2.7 12,-2.7 5.8,0 10.3,1.4 13.5,4.2 2.8,2.5 4.2,5.7 4.2,9.6 v 3.6999997 c -2.2,2.5 -5.5,4.4 -9.7,5.7 -2.5,0.8 -5.2,1.2 -8,1.2 -4.8,0 -8.8,-0.9 -12,-2.6 -3.9,-2.3 -5.8,-5.4 -5.8,-9.5999997 z"
       id="path7"
       style="fill:#000000" />
    <path
       d="m 422.02559,-4.1227253 c -3.7,0 -4.2,1.9 -4.2,3.1 0,1.19999997 0.6,3.1 4.2,3.1 3.7,0 4.2,-2.00000003 4.2,-3.1 0,-1.1 -0.6,-3.1 -4.2,-3.1 z"
       id="path8"
       style="fill:#000000" />
  </g>
  <g
     transform="translate(-37.6,-37.5)"
     id="g13"
     style="fill:#000000">
    <path
       d="M 51,75.2 49.6,73.8 C 45.1,69.3 43.8,63 45.4,57.3 c -4.5,-1 -7.8,-5 -7.8,-9.8 0,-5.5 4.5,-10 10,-10 5,0 9.1,3.6 9.9,8.4 5.4,-1.3 11.3,0.2 15.5,4.4 l 0.6,0.6 -7.4,7.4 -0.6,-0.6 c -2.4,-2.4 -6.3,-2.4 -8.7,0 -2.4,2.4 -2.4,6.3 0,8.7 L 73.5,83 66.1,90.4 58.3,82.6 Z"
       fill="#7ac143"
       id="path10"
       style="fill:#000000" />
    <path
       d="M 59.3,67 75.9,50.4 c 4.4,-4.4 10.8,-5.8 16.4,-4.2 0.7,-4.9 4.9,-8.6 9.9,-8.6 5.5,0 10,4.5 10,10 0,5.1 -3.8,9.3 -8.7,9.9 1.6,5.6 0.2,11.9 -4.2,16.3 l -0.6,0.6 -7.2,-7.4 0.6,-0.6 c 2.4,-2.4 2.4,-6.3 0,-8.7 -2.4,-2.4 -6.3,-2.4 -8.7,0 L 66.8,74.3 Z"
       fill="#f9a541"
       id="path11"
       style="fill:#000000" />
    <path
       d="M 92.6,104.3 C 86.9,106 80.5,104.7 76,100.2 l -0.6,-0.6 7.4,-7.4 0.6,0.6 c 2.4,2.4 6.3,2.4 8.7,0 2.4,-2.4 2.4,-6.3 0,-8.7 L 75.5,67.5 82.9,60.1 99.6,76.8 c 4.2,4.2 5.7,10.2 4.4,15.7 4.9,0.7 8.6,4.9 8.6,9.9 0,5.5 -4.5,10 -10,10 -5,-0.1 -9.1,-3.6 -10,-8.1 z"
       fill="#f44321"
       id="path12"
       style="fill:#000000" />
    <path
       d="m 89.7,83.5 -16.6,16.6 c -4.3,4.3 -10.3,5.7 -15.7,4.4 -1,4.5 -5,7.8 -9.8,7.8 -5.5,0 -10,-4.5 -10,-10 0,-4.7 3.3,-8.7 7.7,-9.7 -1.4,-5.6 0,-11.6 4.3,-15.9 l 0.6,-0.6 7.4,7.4 -0.6,0.6 c -2.4,2.4 -2.4,6.3 0,8.7 2.4,2.4 6.3,2.4 8.7,0 L 82.3,76.2 Z"
       fill="#5091cd"
       id="path13"
       style="fill:#000000" />
  </g>
</svg>
