<svg id="JULA" width="500" height="130.03995" viewBox="0 0 500 130.03995" version="1.1" xml:space="preserve" xmlns:xlink="http://www.w3.org/1999/xlink" xmlns="http://www.w3.org/2000/svg" xmlns:svg="http://www.w3.org/2000/svg">
	<path id="JULA" style="fill:#000000;stroke:#000000;stroke-width:0" d="M 437.69512,0 C 409.72124,0 419.88845,22.580329 406.5194,43.476481 l -38.25188,63.474489 c 1.96604,-12.41411 2.13411,-23.816359 -8.25779,-23.816359 -19.82888,0 -10.78607,24.940289 -36.68158,22.468709 -6.57217,-0.67407 -12.18824,-2.0783 -12.74997,-7.021473 -0.11234,-2.359242 -0.0567,-4.718869 0.16796,-7.078112 0.39321,-8.313522 3.70788,-35.78064 4.04492,-41.341719 0.56172,-7.807966 1.68396,-15.616372 3.36913,-23.255818 4.26911,-9.661662 16.45989,-0.112178 16.57223,-14.042943 0.0562,-6.1227974 -2.41594,-11.2907379 -14.83005,-11.96481666 -14.15546,-0.56171896 -25.1655,-0.39319927 -37.29875,0 -2.19073,0.0561999 -4.38153,0.28163946 -6.57226,0.56249896 -1.17962,0.2246896 -2.30232,0.5047491 -3.42577,0.8417885 -3.31418,0.7302386 -6.06787,2.9769145 -7.41601,6.0663988 -1.06728,3.1456664 -1.51518,6.4597154 -1.45898,9.8300584 0.16851,3.258004 1.62871,3.539033 4.88672,4.94335 1.79751,0.561719 3.48287,1.460533 4.94335,2.583981 2.24689,3.033314 0.28031,8.819627 0.16797,12.021461 -0.67407,4.549972 -2.63959,21.794791 -4.15625,35.613216 -0.6179,7.976484 -2.41597,15.839569 -5.2246,23.310504 -5.33638,13.425215 -13.93198,9.044045 -15.61716,15.503875 -0.56172,2.41542 -0.72907,4.88777 -0.56055,7.35936 -0.28086,11.85239 19.09786,8.08788 19.8281,8.08788 h 72.07017 c 1.46049,0 6.00966,1.6289 7.63866,1.6289 1.84689,0.22462 3.7156,0.22462 5.56249,0 2.92097,-0.84259 3.64982,-3.65116 5.22265,-2.80858 5.12887,2.57619 10.84022,3.77598 16.57223,3.48241 l 13.08786,0.11328 c 4.4938,0.0562 24.04098,-1.96543 24.04098,-11.17771 0,-11.45918 -12.07631,-6.68428 -11.62693,-12.86326 0.56173,-7.583276 11.62618,-6.853504 15.0527,-6.853504 7.86414,0 11.51701,-0.168517 18.48239,0 6.29132,0.168517 8.59295,2.021994 9.43553,4.662104 2.75246,8.70672 -11.62693,5.44813 -11.62693,16.57028 0,8.42586 14.09964,8.98725 16.68356,9.09959 10.53594,0.44934 21.08481,0.50696 31.62495,0.16992 9.88635,-0.39321 20.11043,-2.86636 19.7734,-11.91013 -0.56173,-14.15545 -10.61741,2.1352 -16.74021,-27.580028 C 480.27453,78.135178 477.35329,66.057445 474.54467,53.980368 468.19718,26.624378 462.97273,0 437.69512,0 Z m -6.56834,47.820223 c 4.24344,0.189781 9.041,16.859034 9.041,21.945271 0,8.088837 -7.47089,6.740222 -11.00975,6.740223 h -0.89843 c -3.37034,0.112344 -10.50554,-0.897755 -9.99998,-5.503897 0.95493,-8.819074 7.58376,-21.346031 12.24607,-23.031207 v -0.05664 c 0.20538,-0.07373 0.4124,-0.103084 0.62109,-0.09375 z M 257.55068,2.8081048 c 2.47159,0.9549383 4.60614,2.5839353 6.17897,4.7184913 1.23579,3.2018239 1.12345,6.7406909 -0.28087,9.8863549 -1.06727,2.527755 -3.48269,4.212932 -6.23513,4.381442 -2.69628,0.280869 -5.16787,1.685177 -6.7407,3.875903 -2.35924,3.595033 -3.48269,27.973878 -3.70737,29.827575 l -1.62901,12.526447 c -5.05552,39.096032 -18.98629,58.419352 -52.24038,60.610072 -6.79686,0.39321 -13.6499,0.39321 -20.44677,0 -16.5147,-0.56172 -44.15155,-10.56042 -43.87068,-29.041153 l 0.11234,-9.774006 6.17897,-53.532345 c 0.70359,-3.466067 0.70359,-7.038173 0,-10.504241 -0.44938,-1.966036 -2.41541,-2.303075 -4.38145,-2.696285 -2.35924,-0.561719 -4.71848,-1.123447 -4.887,-4.381451 -0.0562,-3.370344 0.44938,-6.684518 1.46049,-9.8301754 1.62899,-3.3703537 4.77465,-5.7857693 8.48203,-6.4036582 5.69588,-1.4120074 11.54526,-2.11016607 17.41346,-2.07838612 6.62835,-0.22468959 13.31287,-0.16851969 19.94122,0.28085948 8.20118,0.33703934 23.59243,1.12345794 23.59243,11.62770124 0,15.447432 -16.34618,0 -18.7616,33.871988 -1.12345,15.896801 -3.93207,32.411504 -3.93207,33.759643 0,0 -0.16852,4.100588 -0.11234,7.470935 0,0.337035 0.0562,2.078381 0.16851,2.583933 1.42444,6.720486 6.46952,12.090341 13.08819,13.930771 l 2.92096,0.39321 c 2.68391,0.15751 5.37697,0.0257 8.03267,-0.39321 11.57151,-2.07838 22.01959,-22.412811 23.48007,-51.622483 0.73024,-14.773353 2.2469,-24.266496 0.28086,-26.738081 -3.87589,-3.201834 -14.0431,-4.100593 -14.0431,-14.941876 0,-8.7067335 11.45918,-9.94253124 19.26714,-9.94253124 h 18.7616 c 4.03702,0.26256951 8.03167,0.97859824 11.90856,2.13455604 z M 118.8609,4.1000724 c 6.4447,1.3387076 9.5737,8.6976406 6.06663,14.2678066 -1.12345,3.033315 -3.53886,3.314174 -6.17897,3.763553 -1.57283,0.22469 -3.08948,0.786419 -4.38145,1.685177 -2.42507,3.573506 -3.78837,7.760804 -3.93207,12.077078 -1.40431,9.436962 -1.79752,22.525148 -6.17897,48.701507 -5.392552,32.018306 -37.354683,44.207716 -57.520596,44.207716 -3.370344,0.22469 -6.796868,0.22469 -10.223381,0 C 21.73874,128.24119 0,118.86039 0,101.05372 0.12270977,88.124453 10.60655,77.690652 23.536257,77.62981 c 2.022206,-0.168517 4.044412,0 6.066618,0.393207 7.961156,0.947408 14.016395,7.600989 14.211634,15.615941 -0.561729,6.235142 -5.33638,8.032662 -3.763553,11.009802 1.460488,2.13455 3.932073,3.20183 6.515998,2.86479 6.965387,-1.29196 11.0098,-9.774003 15.166562,-34.939261 1.404318,-8.482034 3.314174,-29.209676 3.314174,-32.4115 0.730249,-4.943181 0.842589,-9.998702 0.28087,-14.998042 -1.685177,-1.404318 -6.572178,-0.842589 -8.762904,-1.179628 -2.575135,-0.643139 -4.451852,-2.85902 -4.662312,-5.5049 -0.132659,-1.83954 -0.0383,-3.688414 0.28086,-5.5049 C 52.408893,5.44821 62.126726,1.3476275 83.079057,0.95441824 h 21.008493 c 5.05552,0.16851966 10.05487,1.17961786 14.71718,3.14565416 z" />
</svg>
