<svg
   width="496"
   height="203"
   viewBox="0 0 496 203"
   version="1.1"
   id="svg3"
   xmlns="http://www.w3.org/2000/svg"
   xmlns:svg="http://www.w3.org/2000/svg">
  <defs
     id="defs3" />
  <g
     fill="none"
     id="g3"
     transform="translate(-1.1073,-0.9929)">
    <path
       fill="#e80724"
       d="m 260.40154,56.168655 c -0.11252,0.363426 -0.23562,0.731842 -0.36724,1.106845 -1.019,2.732 -3.26,3.552 -5.625,3.999 -2.27,0.501 -4.647,1.101 -6.149,3.478 -2.07,3.278 -3.108,25.337 -3.328,27.051 l -1.458,11.321 c -4.556,35.379 -17.218,52.869 -47.338,54.879 -7.5,0.5 -10.985,0.246 -18.5,0 -14.931,-0.496 -39.949,-9.539 -39.737,-26.297 l 0.112,-8.828 5.625,-48.501 c 0.25,-4.625 1.018,-5.054 0,-9.5 -0.41,-1.788 -2.188,-2.106 -4.003,-2.486 -2.098,-0.439 -4.246,-0.961 -4.39,-3.934 0,0 -0.0149,-1.068377 0.0665,-2.514443 -0.16576,0.720966 -0.38768,1.454338 -0.65244,2.206543 -1.016,2.733 -3.251,2.965 -5.618,3.412 -1.356,0.257 -2.756,0.585 -3.995,1.496 -1.699,1.2 -2.783,5.82 -3.588,10.958 -1.282,8.538 -1.604,20.392 -5.57,44.113 -4.854,29.022 -33.832,40.022 -52.104,40.022 0,0 -6.25,0.375 -9.25,0 -13.375,-0.5 -33.023,-8.989 -33.023,-25.155 0,-13.795 11.648,-21.095 21.273,-21.22 2.75,-0.125 3.125,0 5.5,0.375 8.625,1.375 13.374,8.74 12.882,14.15 -0.515,5.664 -4.824,7.26 -3.403,9.953 1.396,2.647 4.951,2.795 5.875,2.625 6.309,-1.174 9.993,-8.842 13.751,-31.633 1.285,-7.714 3.02,-26.511 3.02,-29.345 0,-2.835 1.397,-9.854 0.25,-13.626 -1.5,-1.25 -5.928,-0.766 -7.906,-1.062 -2.076,-0.346 -4.353,-2.887 -4.24,-4.96 0,0 -0.229,-2.978 0.271,-4.978 0.185,-6.819 8.981,-10.524 27.917,-10.92 l 19.083,0.045 c 6.75,0.375 10.015,1.537 13.34,2.838 2.273,0.89 3.785,1.538 5.41,3.537 0.70177,1.349565 1.03781,2.665186 1.09938,3.99084 0.19151,-1.218769 0.47657,-2.393036 0.90052,-3.24094 0.94,-2.311 2.899,-4.369 7.706,-5.78 3.512,-1.03 8.543,-1.716 15.806,-1.904 11.668,-0.297 12.685,0.059 18.025,0.257 7.416,0.297 21.372,1.065 21.372,10.558 0,13.991 -14.804,-0.026 -16.995,30.642 -1.03,14.42 -3.535,29.366 -3.539,30.603 0,0 -0.158,3.695 -0.097,6.737 0.006,0.33 0.066,1.901 0.127,2.378 0.646,5.056 6.084,11.498 11.876,12.597 0.571,0.108 2.074,0.299 2.626,0.346 1.042,0.089 2.778,0.109 4.123,0.03 0.587,-0.036 2.855,-0.334 3.166,-0.389 10.462,-1.865 19.97,-20.276 21.283,-46.722 0.642,-13.398 2.021,-21.978 0.25,-24.25 -3.5,-2.875 -12.75,-3.71 -12.75,-13.5 0,-7.91 10.413,-9.03 17.483,-9.03 h 16.995 c 4.14,0 10.698,1.956 10.698,1.956 2.272,0.89 5.156,3.052 5.657,4.269 0.36011,0.874552 0.58103,1.712684 0.68868,2.534413 0.1648,-0.688396 0.37027,-1.319822 0.62642,-1.832113 0.887,-2.186 2.492,-4.043 6.718,-5.467 0.836,-0.282 2.872,-0.685 3.138,-0.723 1.503,-0.217 3.646,-0.402 5.949,-0.48 10.976,-0.395 20.927,-0.593 33.732,0 11.272,0.544 13.485,5.235 13.439,10.773 -0.101,12.647 -11.125,3.965 -15,12.75 -1.489,3.381 -3.074,21.025 -3.074,21.025 -0.296,5.043 -3.311,29.929 -3.676,37.476 0,2.834 -0.375,2.125 -0.124,6.375 0.499,4.5 5.619,5.793 11.526,6.361 23.473,2.264 15.27,-20.342 33.217,-20.342 9.444,0 9.257,10.356 7.506,21.606 l 34.625,-57.501 c 12.113,-18.936 2.887,-39.375 28.251,-39.375 22.891,0 27.589,24.079 33.375,48.875 2.625,11.25 7.875,32.751 7.875,32.751 5.523,26.896 14.648,12.146 15.124,25 0.307,8.201 -8.926,10.402 -17.875,10.75 -10.579,0.394 -21.999,0.17 -28.625,-0.125 -2.373,-0.1 -15.124,-0.637 -15.124,-8.25 0,-10.086 12.997,-7.09 10.5,-15 -0.75,-2.375 -2.813,-4.104 -8.501,-4.25 -6.328,-0.148 -9.625,0 -16.75,0 -3.127,0 -13.125,-0.625 -13.625,6.25 -0.404,5.574 10.5,1.242 10.5,11.625 0,8.355 -17.695,10.166 -21.75,10.125 l -11.875,-0.125 c -8.205,-0.088 -12.249,-1.625 -15,-3.125 -1.432,-0.781 -2.101,1.771 -4.726,2.521 -2.875,0.375 -5.012,0.024 -5.012,0.024 -1.483,0.006 -5.587,-1.485 -6.921,-1.485 h -65.262 c -0.634,0 -18.207,3.366 -17.937,-7.343 0.014,-0.542 -0.277,-3.815 0.538,-6.686 1.433,-5.82 9.252,-1.89 14.07,-14.031 3.412,-8.555 4.204,-16.148 4.752,-21.125 1.373,-12.501 3.147,-28.104 3.75,-32.251 0.123,-2.875 1.897,-8.103 -0.127,-10.875 -1.341,-1.156 -3.014,-1.821 -4.476,-2.353 -2.977,-1.242 -4.272,-1.469 -4.415,-4.442 0,0 -0.01,-0.725112 0.0321,-1.789145 z M 43.6273,0.9929 h 408.959 c 23.485,0 42.522,19.036 42.522,42.519 v 116.461 c 0,23.483 -19.037,42.519 -42.522,42.519 H 43.6273 c -23.483,0 -42.52,-19.036 -42.52,-42.519 V 43.5119 c 0,-23.483 19.037,-42.519 42.52,-42.519 z m 0,11.338 c -17.221,0 -31.181,13.96 -31.181,31.181 v 116.461 c 0,17.22 13.96,31.181 31.181,31.181 h 408.959 c 17.223,0 31.182,-13.961 31.182,-31.181 V 43.5119 c 0,-17.221 -13.959,-31.181 -31.182,-31.181 z m 367.7821,72.5689 c -4.231,1.565 -10.245,12.897 -11.125,20.875 -0.462,4.184 5.982,5.076 9.074,5.01 0.104,-0.002 0.654,0.023 0.813,0.024 3.198,0.02 9.948,1.218 9.948,-6.139 0,-4.845 -4.769,-21.229 -8.71,-19.77 z"
       id="path2"
       style="fill:#000000" />
  </g>
</svg>
