<svg id="KAMELEON" width="500" height="84.790787" viewBox="0 0 500 84.790787" version="1.1" xml:space="preserve" xmlns:xlink="http://www.w3.org/1999/xlink" xmlns="http://www.w3.org/2000/svg" xmlns:svg="http://www.w3.org/2000/svg">
	<path id="KAMELEON" style="fill:#000000;stroke:#000000;stroke-width:0" d="m 397.60202,84.486046 c -6.61767,-1.183637 -12.45758,-4.097622 -17.44969,-8.706982 -17.16916,-15.852867 -13.30397,-44.16424 7.50769,-54.991659 12.97766,-6.75172 29.31229,-4.237906 39.65253,6.102304 11.24157,11.241572 13.11254,29.075566 4.46317,42.542805 -5.99437,9.333381 -15.74037,14.881995 -26.91247,15.321889 -2.59682,0.102249 -5.86435,-0.01852 -7.26123,-0.268357 z m 5.75351,-8.703052 c 8.71873,-2.270932 14.90315,-8.952244 16.37752,-17.693324 1.43367,-8.499709 -2.74611,-17.413852 -9.79155,-20.882313 -5.9682,-2.938142 -12.77603,-1.815099 -17.44253,2.877385 -6.00057,6.033975 -6.06948,16.123723 -0.14671,21.474589 7.83705,7.080297 18.88815,-1.94289 13.97968,-11.414349 -0.97741,-1.886002 -2.74469,-2.689338 -4.21445,-1.915712 -1.93307,1.01749 -2.26894,2.729817 -1.01221,5.160101 0.61112,1.181792 0.62981,1.610298 0.11696,2.680394 -1.35542,2.827979 -4.63379,2.336031 -6.34044,-0.951435 -1.01806,-1.961027 -1.03587,-6.258362 -0.034,-8.187981 1.59002,-3.062274 5.39377,-5.371499 8.86035,-5.37907 1.99348,-0.0044 5.9029,2.240358 7.21767,4.144254 2.84646,4.12185 3.64642,8.269968 2.47603,12.838553 -2.46282,9.613346 -12.89696,14.519137 -21.71,10.207323 -6.34823,-3.105901 -10.85907,-12.024618 -9.98793,-19.747904 1.33818,-11.863963 11.33142,-20.403534 22.92321,-19.588626 6.89918,0.485022 12.73906,3.848129 16.66866,9.599313 6.61474,9.680992 6.62072,22.020486 0.0152,31.668595 l -2.10135,3.069332 1.9641,-1.578319 c 4.21161,-3.384392 8.00354,-9.736951 9.21009,-15.429559 3.78347,-17.850272 -10.76615,-34.719265 -28.82564,-33.420943 -4.56552,0.328219 -7.22178,1.111941 -11.64296,3.435203 -6.20524,3.260766 -11.26339,9.63534 -13.42957,16.92479 -1.12982,3.801871 -1.13078,10.837465 -0.004,14.611772 3.86378,12.919682 15.45961,20.47045 26.87186,17.497931 z M 71.824278,78.575272 C 62.570521,76.086373 55.118635,68.420463 52.812979,59.01796 51.877023,55.201117 52.013506,46.225473 53.060667,42.729002 56.734517,30.462022 66.440339,22.987536 79.575524,22.30982 c 13.022922,-0.671923 23.086166,4.892488 28.056386,15.513618 2.53704,5.421514 2.83245,8.005399 2.84153,24.853638 l 0.008,15.226634 h -6.13786 -6.137872 l -0.01891,-4.839474 c -0.01845,-4.725285 -0.03684,-4.806053 -0.779097,-3.423043 -2.160592,4.02572 -6.255927,7.306221 -10.91902,8.746505 -3.650677,1.127578 -10.828314,1.219388 -14.664598,0.187574 z M 88.182336,65.641025 C 97.642889,61.52795 100.1388,47.612751 92.895674,39.363286 89.564593,35.569393 82.854442,33.750161 77.364737,35.15259 c -7.224716,1.84566 -11.235861,6.929312 -11.649062,14.763798 -0.425886,8.074918 3.468015,14.11225 10.560319,16.373345 3.278082,1.045085 8.688455,0.750305 11.906342,-0.648708 z M 233.5489,78.599274 c -10.13056,-2.547307 -18.19016,-10.953779 -20.37061,-21.247359 -4.02637,-19.007794 9.16647,-35.193717 28.65249,-35.152962 8.55442,0.01788 15.32345,2.666569 20.90467,8.179868 5.56959,5.501815 8.27504,12.563248 8.27504,21.598517 v 3.735617 h -22.22257 -22.22257 l 0.3204,1.062324 c 1.2151,4.028698 3.64927,6.955101 7.30459,8.781688 6.14046,3.068422 14.18712,2.218882 19.23791,-2.031073 1.38925,-1.168981 1.6242,-1.202926 8.32556,-1.202926 3.79278,0 6.89596,0.129607 6.89596,0.288017 0,0.15841 -0.66425,1.534275 -1.4761,3.057473 -2.85875,5.363554 -8.27814,9.848867 -14.63305,12.110904 -2.98775,1.063499 -4.39397,1.259915 -9.85875,1.377044 -4.4474,0.09533 -7.20786,-0.07307 -9.13297,-0.557132 z m 22.58079,-35.49075 c -2.50246,-5.989223 -8.04656,-8.99404 -15.76974,-8.546954 -4.20197,0.243251 -7.03152,1.402384 -9.66377,3.958787 -1.62585,1.579013 -3.59505,4.779166 -3.59505,5.842339 0,0.329459 4.89436,0.490953 14.87886,0.490953 h 14.87886 z m 67.86334,35.527343 c -4.05151,-0.981009 -9.33543,-3.87304 -12.51805,-6.851472 -7.1106,-6.654404 -10.18626,-16.81445 -8.15733,-26.94667 2.66605,-13.313875 12.99578,-21.869533 27.18295,-22.514417 9.40523,-0.427518 16.50966,2.1301 22.46817,8.088611 5.58093,5.58092 8.19542,12.320033 8.21298,21.169778 l 0.008,4.131258 h -22.22256 -22.22257 l 0.32847,1.062324 c 1.16804,3.777625 3.53586,6.789804 6.66023,8.472697 6.08861,3.279531 14.74003,2.705139 19.40556,-1.288385 l 1.91203,-1.636623 h 6.92088 6.9209 l -0.32546,1.062324 c -0.67815,2.213573 -4.64298,7.533742 -7.11548,9.547829 -3.07708,2.506569 -7.40276,4.685487 -11.25354,5.668596 -3.43971,0.878162 -12.63956,0.89755 -16.20535,0.03414 z m 22.31611,-35.527343 c -1.58021,-3.781973 -4.50243,-6.450575 -8.66771,-7.915456 -2.72144,-0.9571 -8.29999,-0.927135 -11.35961,0.06102 -3.70733,1.19733 -7.70138,5.097321 -8.74316,8.537241 l -0.32172,1.062323 h 14.91068 14.91068 z M 0,38.951855 V 0 H 6.6055972 13.21123 l 0.122415,23.390582 0.12245,23.390585 10.509919,-11.58699 10.509919,-11.586991 h 8.532676 8.532688 l -5.114358,5.387445 C 43.614042,31.957727 37.88223,37.96382 33.689601,42.341502 l -7.62302,7.959422 13.201627,13.801393 13.201623,13.801393 H 43.732448 34.995055 L 24.225575,66.031645 13.456095,54.159584 13.329962,66.031645 13.203829,77.90371 H 6.6019145 0 Z m 120.98121,20.184143 c 0.15791,-16.489644 0.283,-19.082917 1.03059,-21.364504 3.36921,-10.282504 10.78135,-15.580739 21.79717,-15.580739 6.66779,0 11.748,2.014331 16.02942,6.35576 l 2.85059,2.890557 1.3987,-1.718453 c 2.01923,-2.480851 4.98172,-4.623511 8.3621,-6.047991 2.69492,-1.135631 3.48541,-1.241353 9.08948,-1.215624 5.17753,0.02376 6.55297,0.191679 8.79094,1.073142 5.84292,2.301343 10.22387,6.799574 12.25751,12.58567 1.43321,4.077728 1.84253,9.913343 1.84664,26.327187 l 0.004,15.462707 h -6.84608 -6.84608 V 60.688177 c 0,-16.216667 -0.0563,-17.366094 -0.97088,-19.810439 -1.17741,-3.1469 -2.95009,-4.735735 -6.40398,-5.739808 -6.08257,-1.768251 -11.81623,1.15482 -13.39189,6.827319 -0.27746,0.998842 -0.47555,8.814493 -0.47709,18.82325 l -0.002,17.115211 h -6.84608 -6.84608 V 60.754572 c 0,-19.152496 -0.15041,-20.269143 -3.13172,-23.250455 -4.13308,-4.133078 -12.53005,-3.682427 -15.89755,0.853198 -2.32807,3.135646 -2.40122,3.764449 -2.58189,22.195114 l -0.1701,17.351281 h -6.61233 -6.61234 z M 280.45336,38.951855 V 0 h 6.61002 6.61001 V 38.951855 77.90371 h -6.61001 -6.61002 z M 446.1758,61.218134 c 0,-15.070968 0.0903,-17.038465 0.93272,-20.332372 2.46274,-9.629342 9.02985,-15.982379 18.5545,-17.949752 13.74409,-2.838921 25.99417,1.961956 31.05221,12.169551 2.90219,5.856883 3.24922,8.733991 3.26848,27.099369 L 500,77.90371 h -6.57224 -6.57221 l -0.17429,-16.170923 c -0.16788,-15.580256 -0.21416,-16.271496 -1.26653,-18.924443 -2.12469,-5.356128 -5.98435,-7.981303 -11.85479,-8.063048 -6.1517,-0.08566 -10.58208,2.467224 -12.80011,7.375739 -1.11048,2.457483 -1.13038,2.756934 -1.27373,19.13961 l -0.14557,16.643065 h -6.5823 -6.58243 z" />
</svg>
