<svg
   version="1.1"
   id="svg1"
   width="1412.2756"
   height="238.40648"
   viewBox="0 0 1412.2756 238.40648"
   xmlns="http://www.w3.org/2000/svg"
   xmlns:svg="http://www.w3.org/2000/svg">
  <defs
     id="defs1" />
  <g
     id="g1"
     transform="translate(-1641.702,732.99543)">
    <path
       style="fill:#000000"
       d="m 2756.6668,-496.93383 c -42.9215,-11.61633 -70.9647,-47.99649 -70.9647,-92.0616 0,-43.90856 27.8158,-80.40382 70.2677,-92.19348 14.4348,-4.00881 34.4397,-3.98726 48.9902,0.0528 26.8506,7.45528 48.4119,24.84748 59.9641,48.36962 8.2023,16.70111 10.5815,26.57361 10.5485,43.7711 -0.081,42.0342 -25.477,77.05265 -65.7705,90.68917 -12.7447,4.31317 -39.6016,5.00816 -53.0353,1.37243 z m 28.914,-22.58768 c 16.6369,-5.17798 29.0332,-16.25401 37.1428,-33.18693 10.7262,-22.39619 5.7922,-50.84632 -11.8058,-68.0735 -2.502,-2.44924 -7.5491,-6.04636 -11.2157,-7.99359 -5.8648,-3.11454 -8.1904,-3.54075 -19.3334,-3.54314 -14.4509,-0.003 -19.7772,2.04257 -30.1052,11.56262 -20.0255,18.45887 -17.4129,54.88664 4.7403,66.09395 20.673,10.45853 43.6587,-8.52104 37.3984,-30.88047 -3.3633,-12.01262 -13.2789,-16.36712 -19.1832,-8.42441 -2.4614,3.31127 -2.565,4.14232 -0.9967,8 3.0999,7.6256 3.2566,10.27152 0.7708,13.01827 -3.5705,3.94534 -9.1096,3.3461 -13.1195,-1.4193 -9.2948,-11.04625 -4.6433,-30.61115 8.8281,-37.13256 21.4544,-10.38588 42.5367,8.43707 40.7062,36.34386 -1.4902,22.71873 -19.205,39.45037 -41.8016,39.48159 -12.5945,0.0174 -20.5001,-2.90007 -29.0617,-10.72494 -27.0558,-24.72741 -23.208,-71.93901 7.5255,-92.3388 10.3972,-6.90125 21.5247,-10.25657 34.0146,-10.25657 28.1362,0 49.1512,15.5774 60.2585,44.66667 4.1855,10.96137 5.2282,32.51797 2.1614,44.68333 -2.8104,11.1483 -8.6859,23.14378 -14.8807,30.38042 -8.6994,10.16245 -3.6417,7.66719 7.838,-3.86693 17.9182,-18.0033 24.3108,-34.41796 23.2779,-59.77259 -1.0892,-26.73515 -13.2789,-48.15874 -35.6163,-62.59611 -12.2314,-7.90551 -22.3949,-10.9975 -38.7714,-11.79517 -24.9893,-1.21719 -41.7439,5.25224 -59.3318,22.90971 -16.0743,16.13792 -23.3393,33.26211 -23.2985,54.91646 0.061,32.53337 19.0397,61.16119 46.3295,69.88506 10.3894,3.3212 26.9715,3.34907 37.5295,0.0631 z m -939.0773,8.40082 c -13.4616,-3.25723 -24.6043,-9.58488 -34.912,-19.82557 -15.3009,-15.2015 -22.28,-33.00845 -22.2287,-56.71584 0.054,-25.14 6.953,-42.86829 22.8786,-58.7939 16.3696,-16.3696 33.634,-23.06714 59.4606,-23.06714 16.6693,0 27.2573,2.2808 40.6667,8.76017 11.5042,5.55882 25.8076,19.95439 31.564,31.76754 8.3912,17.22005 8.7916,20.21164 9.4149,70.33333 l 0.5678,45.66667 h -17.44 -17.44 v -13.64887 -13.64887 l -4.5258,6.72035 c -8.1123,12.04612 -17.7616,18.77604 -32.3804,22.58374 -9.4362,2.45783 -25.164,2.39973 -35.6257,-0.13161 z m 42.2543,-35.21874 c 10.1818,-3.8095 17.3904,-10.52666 22.5549,-21.01726 4.0784,-8.28439 4.3893,-9.86252 4.3893,-22.27737 0,-11.63898 -0.4485,-14.3067 -3.4791,-20.6947 -4.5009,-9.48696 -11.8159,-16.83211 -21.0988,-21.18573 -6.4019,-3.00246 -9.1632,-3.47489 -20.0887,-3.43695 -11.2694,0.0391 -13.5204,0.47139 -20.4057,3.91842 -13.1492,6.58302 -20.908,17.38281 -23.6019,32.85265 -4.1919,24.07126 8.7717,46.58485 30.6742,53.27144 6.921,2.11289 23.644,1.34259 31.0558,-1.4305 z m 413.1797,34.72536 c -29.68,-8.03651 -49.4885,-27.50678 -57.1196,-56.14435 -3.0557,-11.46699 -3.0082,-32.41883 0.099,-43.90368 10.1272,-37.42652 45.8716,-61.51691 86.2768,-58.14725 36.7822,3.06752 63.9244,25.0853 72.5023,58.81392 1.119,4.4 2.4182,13.85 2.8871,21 l 0.8526,13 h -62.8671 c -62.3209,0 -62.8671,0.0236 -62.8671,2.71099 0,4.35425 6.0123,14.88007 11.5515,20.22321 8.8649,8.55123 16.2883,11.07265 32.4485,11.02139 15.7801,-0.05 24.5223,-2.84645 31.426,-10.05235 l 3.7396,-3.90324 h 19.7697 19.7697 l -3.977,7.87846 c -8.1949,16.23396 -23.5143,28.96672 -42.9481,35.69646 -13.794,4.77671 -37.5058,5.60772 -51.5445,1.80644 z m 64.369,-97.71469 c -2.9222,-9.64926 -14.4161,-20.91395 -25.0438,-24.54452 -10.9798,-3.75086 -26.3193,-3.17186 -36.2234,1.36727 -11.1412,5.10609 -17.0375,11.01405 -21.3909,21.43324 l -1.9822,4.74401 h 42.7744 42.7745 z m 190.3496,97.6418 c -23.2263,-6.08526 -41.3076,-20.41135 -50.7206,-40.18677 -6.7127,-14.10226 -8.6959,-22.75066 -8.6653,-37.78837 0.047,-23.35366 7.1746,-40.96536 22.9837,-56.7939 16.1316,-16.15149 33.5174,-22.98549 58.7815,-23.10583 16.7197,-0.0796 24.9649,1.74393 39.7883,8.79985 13.8806,6.60711 25.4115,17.66384 32.4337,31.09988 6.3973,12.24049 8.985,22.32438 10.008,39 l 0.8385,13.66667 h -62.8677 c -71.4471,0 -65.8144,-1.10384 -59.4579,11.65199 4.018,8.06308 11.8366,15.52607 20.4272,19.49824 5.0766,2.34735 8.6314,2.84438 20.1632,2.81919 15.6843,-0.0343 23.7198,-2.60958 31.4349,-10.07469 l 4.1017,-3.96867 19.6025,0.3703 19.6026,0.37031 -3.6168,7.33333 c -5.3774,10.90317 -20.2124,25.13298 -32.4582,31.13405 -18.241,8.93903 -42.6179,11.3519 -62.3793,6.17442 z m 65.0459,-96.04135 c 0,-5.25839 -12.3239,-20.02469 -19.94,-23.89184 -23.5153,-11.94006 -55.0842,-1.40681 -63.6288,21.2303 l -1.5329,4.06109 h 42.5509 c 28.8204,0 42.5508,-0.45161 42.5508,-1.39955 z m -980,-15.26712 v -110 h 18.6667 18.6667 v 66.74535 66.74535 l 30.2994,-33.41202 30.2994,-33.41201 h 23.1972 c 21.8912,0 23.0955,0.13136 21.3923,2.33333 -0.9927,1.28333 -15.6162,16.74497 -32.4966,34.3592 -16.8805,17.61422 -32.0884,33.60255 -33.7954,35.52962 l -3.1037,3.50375 32.3181,33.80372 c 17.775,18.59204 34.4434,36.05371 37.0409,38.80371 l 4.7229,5 h -23.9472 -23.9472 l -30.6567,-33.93985 -30.6568,-33.93985 -0.3558,33.93985 -0.3559,33.93985 h -18.6441 -18.6442 z m 341.6945,58.33333 c 0.5234,-43.51769 0.9818,-52.91699 2.9064,-59.59406 3.3372,-11.5772 8.1472,-20.28012 15.5138,-28.06913 20.1012,-21.25406 60.1175,-23.70999 85.2205,-5.23026 4.399,3.23837 8.0181,6.33918 8.0425,6.8907 0.024,0.55151 1.247,2.44715 2.7169,4.21253 l 2.6726,3.20977 6.691,-7.50714 c 17.6483,-19.8009 51.7687,-25.16924 78.0199,-12.27524 15.4573,7.59229 25.0947,20.08241 29.8539,38.69101 2.4377,9.53106 2.668,14.78782 2.668,60.88511 v 50.45338 h -17.9 -17.9 l -0.4333,-49.66667 c -0.4102,-47.01829 -0.5815,-49.9866 -3.211,-55.66666 -10.7849,-23.29697 -44.9931,-23.29697 -55.7781,0 -2.6303,5.68184 -2.7999,8.63365 -3.1984,55.66666 l -0.4208,49.66667 h -17.8125 -17.8125 l -0.4334,-49.66667 c -0.4258,-48.81081 -0.4866,-49.77479 -3.5239,-55.9414 -6.1142,-12.4136 -16.559,-17.9853 -31.2433,-16.66659 -10.7793,0.96803 -18.1256,5.58864 -23.0665,14.50818 l -3.9329,7.09981 -0.407,50.33334 -0.4069,50.33333 h -18.7232 -18.7232 z m 450.3055,-58.33333 v -110 h 18 18 v 110 110 h -18 -18 z m 468.3247,61 c 0.4208,-41.10695 0.8663,-50.25194 2.7657,-56.77206 3.7683,-12.93585 9.1627,-22.4177 17.5763,-30.89409 8.6544,-8.7189 18.099,-13.98264 31.6088,-17.61635 11.5458,-3.10545 36.0775,-3.03137 47.7246,0.14411 25.4304,6.93341 42.0618,24.05064 48.784,50.20891 1.7822,6.93499 2.333,17.80747 2.8503,56.26281 l 0.6412,47.66667 h -18.713 -18.713 l -0.4248,-47 c -0.4137,-45.77576 -0.5047,-47.17365 -3.493,-53.66667 -3.6905,-8.01859 -9.7123,-14.56387 -16.9317,-18.40363 -4.3366,-2.30649 -7.7006,-2.84532 -18,-2.88316 -11.3165,-0.0416 -13.4142,0.34737 -19.6792,3.64892 -4.0832,2.15175 -8.6837,6.00247 -11.0131,9.21819 -7.4648,10.30486 -7.9744,14.39417 -7.9744,63.99502 v 45.09133 h -18.7551 -18.7551 z"
       id="path1" />
  </g>
</svg>
