<svg
   version="1.1"
   id="svg1"
   width="234.09621"
   height="26.618874"
   viewBox="0 0 234.0962 26.618874"
   xmlns="http://www.w3.org/2000/svg"
   xmlns:svg="http://www.w3.org/2000/svg">
  <defs
     id="defs1" />
  <g
     id="g1"
     transform="translate(-20.887182,-117.76542)">
    <path
       style="fill:#000000"
       d="m 188.21571,142.95625 c -0.32268,-1.02162 -0.96513,-3.57485 -1.42768,-5.67383 -0.78561,-3.56498 -0.99745,-3.67475 -3.21635,-1.66667 -5.93668,5.37262 -5.52185,0.74637 0.60334,-6.72862 4.65878,-5.68542 8.63007,-6.8934 5.90155,-1.79512 -2.06312,3.85498 -1.73291,4.10157 4.21804,3.14998 4.89967,-0.78349 5.45096,-0.61722 4.67326,1.40944 -0.69545,1.81232 -0.24935,2.2079 2.11169,1.87252 2.43358,-0.34568 2.9934,-1.27502 2.9934,-4.96924 0,-6.60386 2.89236,-6.6787 4.00322,-0.10358 0.86169,5.10027 1.09058,5.34104 3.23371,3.40154 1.26851,-1.14799 2.70914,-2.08725 3.20139,-2.08725 1.66638,0 0.90743,3.66318 -1.10498,5.33333 -1.1,0.91292 -2,2.28639 -2,3.05215 0,0.76576 0.39479,0.9975 0.87732,0.51497 1.41439,-1.41438 4.36609,1.78244 3.56744,3.8637 -0.96995,2.52763 -4.32612,2.42978 -5.31802,-0.15505 -0.70593,-1.83962 -1.04054,-1.83042 -3.15911,0.0869 -2.64657,2.39511 -4.46692,0.91078 -2.56674,-2.09295 1.90395,-3.0097 1.60711,-3.26968 -3.73335,-3.26968 -3.44275,0 -4.88695,-0.54949 -4.63522,-1.76363 0.23707,-1.14342 -0.70072,-1.61232 -2.66667,-1.33334 -2.42445,0.34405 -3.03232,1.2758 -3.03232,4.64798 0,4.59006 -1.58186,7.28914 -2.52392,4.3065 z m 37.37656,0.5507 c -0.46895,-0.46896 -0.85264,-2.51723 -0.85264,-4.55173 0,-4.47331 -1.77138,-5.87513 -4.01218,-3.17512 -2.00829,2.41983 -4.00203,2.58075 -3.94803,0.31865 0.0615,-2.57664 10.27149,-13.79983 11.4667,-12.60462 0.58258,0.58257 0.33194,2.2238 -0.55696,3.64717 -2.30982,3.6986 -2.20021,3.78203 3.89471,2.96453 4.34588,-0.5829 5.38116,-0.34468 4.89717,1.12688 -0.33755,1.02632 -2.21745,2.05589 -4.17757,2.28794 -3.07549,0.36408 -3.56384,1.03844 -3.56384,4.92131 0,4.41062 -1.457,6.75534 -3.14736,5.06499 z m 17.31403,-0.13853 c -0.36156,-0.58501 -0.10616,-1.93501 0.56756,-3 1.89091,-2.98908 1.60149,-3.26967 -3.37252,-3.26967 -5.71972,0 -6.65163,-2.41965 -1.28611,-3.33932 3.4261,-0.58725 3.97695,-1.30678 4.33822,-5.66667 0.64645,-7.80134 4.25285,-5.54988 4.25285,2.65502 0,3.23938 0.13614,3.30774 2.43832,1.22429 5.65458,-5.11733 5.65593,-1.29713 0.002,6.57538 -4.19278,5.83834 -5.6754,6.86817 -6.94064,4.82097 z m 6.42092,-0.39762 c -0.49672,-0.8037 -0.0306,-2.33382 1.03585,-3.40025 1.6964,-1.6964 2.1475,-1.6877 3.60589,0.0695 0.9168,1.10468 1.27985,2.6348 0.80677,3.40025 -1.12694,1.82343 -4.30365,1.78288 -5.44851,-0.0695 z M 21.288716,141.27315 c -0.385301,-1.00408 -0.51647,-5.05408 -0.291487,-9 0.302563,-5.30655 0.92976,-7.1744 2.409061,-7.1744 1.100001,0 2.200146,1.41421 2.444768,3.1427 l 0.444767,3.14269 3.897356,-3.7339 c 2.64176,-2.53097 4.33423,-3.29704 5.253405,-2.37786 0.919175,0.91917 0.505212,2.12604 -1.284937,3.74611 -2.625687,2.37621 -2.622108,2.41783 0.617827,7.18583 2.299117,3.38345 2.838966,5.20295 1.833152,6.17843 -0.994713,0.96472 -2.532147,0.0705 -5.086141,-2.9583 -3.900309,-4.62538 -5.45353,-4.46498 -5.45353,0.56319 0,3.40418 -3.600035,4.3715 -4.784241,1.28551 z m 19.50401,-0.11042 c -0.883713,-1.0648 -1.21719,-3.16341 -0.741059,-4.66356 0.794994,-2.50481 2.411213,-3.27783 9.091719,-4.34851 1.322069,-0.21188 2.395836,-0.98524 2.386148,-1.71858 -0.02577,-1.95068 -5.304951,-2.45235 -7.411262,-0.70427 -1.347015,1.11792 -2.060052,1.09245 -2.796978,-0.0999 -2.439531,-3.94724 10.680534,-7.30095 13.806372,-3.52914 0.759675,0.91667 1.555691,4.96374 1.768926,8.99349 0.319219,6.03266 -0.01367,7.40412 -1.884634,7.76443 -1.249783,0.24069 -2.272333,-0.22749 -2.272333,-1.0404 0,-1.04809 -0.750168,-1.07653 -2.579012,-0.0978 -3.630965,1.94323 -7.48359,1.71467 -9.367887,-0.55577 z m 10.101076,-3.06398 c 2.236427,-2.22563 2.202952,-2.35393 -0.725209,-2.77955 -3.500961,-0.50888 -6.164984,1.50996 -4.834103,3.66337 1.270389,2.05554 2.859571,1.80289 5.559312,-0.88382 z m 11.179156,-4.23557 c 0,-7.49431 0.410724,-9.4311 2,-9.4311 1.1,0 2,0.67347 2,1.4966 0,1.0397 0.605389,0.99416 1.983021,-0.14917 1.090661,-0.90517 2.958235,-1.27154 4.150165,-0.81415 1.755977,0.67383 1.854709,1.20808 0.520387,2.81583 -0.905717,1.09133 -2.440417,1.98423 -3.410444,1.98423 -1.157542,0 -1.903353,2.17252 -2.170074,6.32134 -0.30621,4.76308 -0.981574,6.43056 -2.739721,6.76443 -2.044066,0.38816 -2.333334,-0.7261 -2.333334,-8.98801 z m 13.430108,5.72243 c -1.519893,-1.93223 -2.763441,-4.65951 -2.763441,-6.06061 0,-3.39808 5.845404,-9.09292 9.333334,-9.09292 3.48793,0 9.33333,5.69484 9.33333,9.09292 0,1.4011 -1.24354,4.12838 -2.76344,6.06061 -3.71321,4.72058 -9.42657,4.72058 -13.139783,0 z m 9.903223,-5.82019 c 0,-4.08889 -0.4127,-4.66667 -3.33333,-4.66667 -2.47289,0 -3.4466,0.79943 -3.77211,3.09697 -0.67989,4.79882 0.759,7.13756 4.09948,6.66321 2.46519,-0.35006 3.00596,-1.26638 3.00596,-5.09351 z m 9.23153,7.54881 c -0.37664,-0.98149 -0.5078,-6.52498 -0.29149,-12.31887 0.32805,-8.78678 0.78038,-10.60827 2.72663,-10.97992 2.09076,-0.39923 2.33333,0.88143 2.33333,12.31888 0,10.57354 -0.35046,12.76443 -2.04184,12.76443 -1.12302,0 -2.35,-0.80303 -2.72663,-1.78452 z m 10.101811,-7.54881 c 0,-7.40741 0.4127,-9.33334 2,-9.33334 1.5873,0 2,1.92593 2,9.33334 0,7.4074 -0.4127,9.33333 -2,9.33333 -1.5873,0 -2,-1.92593 -2,-9.33333 z m 10.25,8.47222 c -1.59131,-1.5913 -1.02238,-16.24951 0.67131,-17.29627 0.87339,-0.53978 1.80237,-0.33825 2.0644,0.44785 0.33588,1.00765 1.64739,0.98729 4.44594,-0.069 6.43602,-2.42933 8.56835,-0.12556 8.56835,9.25723 0,6.09305 -0.44856,7.85468 -2,7.85468 -1.42222,0 -2.19259,-1.92592 -2.66667,-6.66666 -0.55555,-5.55556 -1.11111,-6.66667 -3.33333,-6.66667 -2.21522,0 -2.77953,1.11111 -3.33334,6.56327 -0.62584,6.16135 -2.31543,8.67685 -4.41666,6.57562 z m 21.75,-8.47222 c 0,-7.40741 0.4127,-9.33334 2,-9.33334 1.28158,0 2,1.28698 2,3.58279 v 3.58279 l 4.00879,-3.84066 c 3.06041,-2.93206 4.37778,-3.47168 5.56849,-2.28096 1.19072,1.19071 0.9763,2.20436 -0.90637,4.28469 -2.40633,2.65896 -2.39257,2.82442 0.5678,6.82854 2.30399,3.1163 2.66048,4.47315 1.48179,5.63985 -1.17473,1.16277 -2.43109,0.46323 -5.16732,-2.87713 -3.82712,-4.67211 -5.55318,-4.47454 -5.55318,0.63565 0,1.87654 -0.79365,3.11111 -2,3.11111 -1.5873,0 -2,-1.92593 -2,-9.33333 z m 18.71358,6.75432 c -1.78506,-3.33541 -1.7638,-3.51363 0.71499,-5.99242 1.15238,-1.15238 3.81697,-2.09524 5.92131,-2.09524 2.10434,0 4.19951,-0.60423 4.65594,-1.34275 1.30988,-2.11943 -3.18225,-3.15677 -6.7099,-1.54947 -2.33175,1.06241 -3.44991,1.05509 -4.11867,-0.027 -2.37533,-3.84336 10.87486,-7.11572 13.82418,-3.41412 1.78372,2.23869 2.92638,15.5539 1.41494,16.48803 -0.65992,0.40785 -2.02015,0.0608 -3.02274,-0.77132 -1.25311,-1.03999 -2.09297,-1.07587 -2.68695,-0.11479 -1.50971,2.44276 -8.49558,1.61721 -9.9931,-1.18093 z m 9.85785,-2.18289 c 3.02771,-3.02772 2.58027,-4.29436 -1.2578,-3.56067 -3.74379,0.71567 -5.21921,2.31797 -3.9803,4.32257 1.17106,1.89481 2.82144,1.65475 5.2381,-0.7619 z m 11.86772,-9.3502 c -0.95543,-2.48982 1.41469,-5.2143 3.44467,-3.9597 2.117,1.30837 1.77045,4.33001 -0.60096,5.24 -1.18822,0.45597 -2.38404,-0.0824 -2.84371,-1.2803 z m 38.48069,0.41716 c -1.9128,-2.30479 0.21698,-5.58826 2.94559,-4.5412 2.61568,1.00373 2.72997,2.74882 0.31148,4.75599 -1.37316,1.13962 -2.177,1.08661 -3.25707,-0.21479 z m -110.91984,-9.63839 c 0,-1.1 0.9,-2 2,-2 1.1,0 2,0.9 2,2 0,1.1 -0.9,2 -2,2 -1.1,0 -2,-0.9 -2,-2 z"
       id="path2" />
  </g>
</svg>
