<svg id="KAROLINKA" width="500" height="85.952133" viewBox="0 0 500 85.952133" version="1.1" xml:space="preserve" xmlns:xlink="http://www.w3.org/1999/xlink" xmlns="http://www.w3.org/2000/svg" xmlns:svg="http://www.w3.org/2000/svg">
	<path id="KAROLINKA" style="fill:#000000;stroke:#000000;stroke-width:0" d="M 5.2345325,85.449896 C 2.8260441,84.80449 1.1171487,83.131288 0.4639458,80.778933 -0.18131052,78.455241 -0.14124463,30.32057 0.50779777,28.154366 1.8687898,23.611701 8.9971479,21.69505 12.890445,24.824961 c 2.607528,2.096249 2.709586,2.567687 2.939455,13.575467 l 0.208027,9.962315 5.18406,-5.801786 c 13.499125,-15.10764 15.918264,-17.629445 17.773277,-18.527436 4.600129,-2.22689 10.152728,1.386596 10.104133,6.575507 -0.0233,2.48034 0.147366,2.261505 -10.070516,12.916139 -2.690946,2.805981 -4.892656,5.281462 -4.892656,5.501068 0,0.219605 4.157533,5.974427 9.238993,12.788486 10.078588,13.515014 10.762954,14.777597 9.856957,18.184754 -0.566373,2.129932 -2.114464,4.200873 -3.786746,5.065639 -1.879477,0.971932 -6.374637,0.657738 -8.092726,-0.565657 -0.7117,-0.506769 -3.235019,-3.650344 -5.607394,-6.985723 -2.372375,-3.335379 -5.00836,-7.035965 -5.857691,-8.223517 -0.84933,-1.187557 -2.010117,-2.814473 -2.579486,-3.615375 -0.56941,-0.800901 -1.894455,-2.636809 -2.944614,-4.079801 l -1.909349,-2.623613 -1.335863,1.109334 c -0.734749,0.610138 -2.225217,1.943974 -3.312155,2.964086 l -1.976251,1.854747 -0.0042,7.148482 c -0.0042,7.743617 -0.307089,9.583864 -1.899531,11.476343 -1.668497,1.982937 -5.3972037,2.808785 -8.6935071,1.925476 z m 70.7297705,0.165477 c -3.486647,-0.531691 -8.135289,-2.850229 -10.543902,-5.258842 -2.995747,-2.995746 -4.30028,-5.98826 -4.55453,-10.447993 -0.554848,-9.730652 4.727067,-15.863142 15.804391,-18.349582 2.120704,-0.476018 7.600328,-1.300814 12.176909,-1.832875 9.078855,-1.055484 11.002933,-1.644711 12.344829,-3.780447 0.64263,-1.022837 0.77623,-1.860909 0.66181,-4.152599 -0.13833,-2.771714 -0.20286,-2.92399 -1.863121,-4.397345 -2.781813,-2.468658 -8.132918,-3.502595 -13.085112,-2.528307 -3.664718,0.72099 -6.030935,2.045652 -9.652716,5.403794 -1.727452,1.601732 -3.626858,3.034227 -4.220898,3.18332 -2.007538,0.503865 -5.147489,-0.05678 -6.288722,-1.122856 -3.357005,-3.135982 -2.770995,-7.251381 1.65639,-11.63253 5.111999,-5.058595 14.941081,-7.889718 25.440174,-7.32768 12.558725,0.672291 20.876495,4.808035 23.159785,11.515502 0.33742,0.991221 0.58456,7.567152 0.77407,20.594615 0.23532,16.179775 0.38464,19.454165 0.96587,21.180805 1.30611,3.87995 0.56483,6.533048 -2.27061,8.126651 -1.93631,1.088261 -5.46406,1.29945 -7.95797,0.476397 -2.93196,-0.967634 -5.30996,-4.90436 -5.30996,-8.790493 v -1.313046 l -3.0906,2.886267 c -5.127396,4.788423 -10.918436,7.227632 -18.336117,7.723263 -1.830632,0.12232 -4.445108,0.05211 -5.80997,-0.156019 z M 90.707718,75.417011 c 4.306812,-1.278984 7.720401,-4.25439 9.712502,-8.465739 1.07109,-2.264272 1.30241,-3.34202 1.50324,-7.003684 0.13056,-2.380188 0.16493,-4.400033 0.0763,-4.488548 -0.0886,-0.08851 -0.65029,0.18583 -1.24816,0.609654 -1.679398,1.190423 -4.493829,2.002933 -9.448644,2.727759 -5.977556,0.874439 -9.131735,1.695948 -11.227685,2.924248 -2.050849,1.201881 -2.928679,2.437217 -3.47999,4.897371 -1.456893,6.500896 6.062846,11.189391 14.112387,8.798939 z m 49.340702,10.185988 c -2.46736,-0.591839 -4.19231,-2.110436 -4.76697,-4.196646 -0.36329,-1.31887 -0.46211,-8.677755 -0.37324,-27.797043 l 0.12083,-26.003302 0.99898,-1.400654 c 1.16682,-1.635999 3.78059,-2.945779 5.90446,-2.958764 2.23449,-0.01365 4.941,1.596149 5.95808,3.543817 0.68495,1.311619 0.89193,2.612983 1.01488,6.380096 l 0.15444,4.732384 1.12434,-2.65212 c 1.47732,-3.4848 2.82791,-5.565572 5.19017,-7.996178 2.58852,-2.663391 5.1125,-3.776757 8.60294,-3.794893 2.33106,-0.01211 3.04063,0.172313 4.7846,1.243524 2.59002,1.590886 3.50234,3.333058 3.50317,6.689751 0,1.948654 -0.21693,2.858524 -0.93545,3.914246 -1.76469,2.592849 -2.71171,2.994107 -7.87376,3.336111 -6.83301,0.452707 -8.78504,1.567454 -10.90729,6.228873 -1.61507,3.547437 -1.91105,6.712201 -1.91446,20.470124 -0.004,13.703282 -0.27185,16.241229 -1.92608,18.207162 -1.55533,1.84844 -5.55776,2.797556 -8.65964,2.053512 z m 57.18051,0.03166 c -11.63471,-1.210884 -20.92217,-9.191294 -24.27123,-20.855505 -4.48646,-15.625497 2.10627,-31.71738 15.73583,-38.408879 6.34534,-3.115283 12.38963,-3.848705 18.88518,-2.291544 17.62632,4.225516 27.5164,23.770405 21.33556,42.163618 -1.64133,4.884373 -3.44933,7.800142 -7.19813,11.608373 -2.57325,2.614044 -3.85244,3.545702 -6.70161,4.880866 -5.58605,2.617725 -11.40355,3.567287 -17.7856,2.903071 z m 9.08939,-12.230501 c 11.77787,-5.968299 11.62755,-31.667458 -0.22047,-37.69774 -2.68508,-1.366622 -7.03774,-1.420571 -9.5044,-0.11781 -5.40356,2.853881 -8.73078,9.040574 -9.21349,17.131654 -0.57652,9.66432 3.15156,18.159936 9.1679,20.891855 2.61489,1.18739 7.20986,1.089589 9.77046,-0.207959 z m 42.49517,12.283627 c -2.31466,-0.467922 -4.10461,-1.756804 -4.9955,-3.597093 -0.80148,-1.655712 -0.82324,-2.684182 -0.82324,-38.925882 V 5.9395702 l 0.93611,-1.8546678 c 1.41421,-2.8018953 3.45541,-3.81554563 7.26217,-3.60637091 2.49024,0.13683145 3.25473,0.36082181 4.51671,1.32337671 2.81513,2.1472195 2.67896,0.054873 2.67896,41.1576268 0,25.355691 -0.1415,37.596415 -0.44376,38.394238 -1.24479,3.28534 -5.15007,5.138876 -9.13145,4.334014 z m 32.13763,-0.04166 c -2.17924,-0.327429 -3.81287,-1.474874 -4.7819,-3.358728 -0.68233,-1.326484 -0.72614,-3.319656 -0.62408,-28.398197 l 0.10975,-26.971582 1.52093,-1.393619 c 4.24561,-3.890269 11.90281,-2.580439 13.24924,2.266398 0.6081,2.188979 0.55451,51.907895 -0.0579,53.736398 -0.26054,0.77784 -0.84975,1.830075 -1.30936,2.3383 -1.35609,1.499508 -4.85875,2.26904 -8.10667,1.78103 z m 32.98064,0.226936 c -0.22883,-0.08519 -0.9275,-0.267576 -1.55258,-0.405314 -0.62508,-0.137734 -1.78391,-0.818863 -2.5752,-1.513613 -2.34801,-2.061587 -2.39419,-2.693642 -2.24595,-30.760862 0.12831,-24.295546 0.16189,-25.22034 0.96504,-26.583891 1.4415,-2.44731 2.80083,-3.160271 6.02903,-3.162189 2.25118,-0.0012 3.09992,0.182789 4.02826,0.873898 1.92433,1.432608 2.74329,3.274919 2.96055,6.659883 0.10847,1.690626 0.38098,3.073869 0.60552,3.073869 0.22451,0 1.83813,-1.475947 3.58571,-3.279882 2.33751,-2.412803 3.97539,-3.67928 6.19557,-4.790682 10.8559,-5.434307 24.31558,-2.327607 29.14122,6.726243 2.58119,4.842822 2.66594,5.590257 2.88877,25.485104 0.21302,19.016153 -0.0225,22.98228 -1.48185,24.940262 -1.39299,1.86913 -3.1273,2.582927 -6.27578,2.582927 -3.53017,0 -5.50176,-0.849226 -6.79323,-2.92607 -0.93375,-1.501543 -0.94465,-1.691313 -1.15072,-20.030257 l -0.20803,-18.514351 -1.1079,-2.36345 c -1.97018,-4.202783 -5.36592,-5.9618 -10.94398,-5.669028 -2.8047,0.147208 -3.7803,0.391348 -5.43203,1.359303 -2.55718,1.498622 -4.86715,3.922313 -6.09946,6.399791 -0.95026,1.910494 -0.96666,2.181998 -1.17177,19.411815 -0.20794,17.468169 -0.20836,17.474818 -1.19919,19.204079 -0.63851,1.114389 -1.5267,1.960312 -2.49632,2.377571 -1.51651,0.652596 -4.89419,1.192033 -5.66568,0.904844 z m 72.23626,-0.224023 c -2.03583,-0.48719 -3.45711,-1.669812 -4.53373,-3.772476 l -0.94614,-1.847882 0.11404,-26.003302 c 0.11038,-25.158361 0.14112,-26.048173 0.94618,-27.384211 2.36743,-3.928857 9.2796,-4.539078 12.5182,-1.105136 1.92641,2.04257 2.25101,4.056865 2.25721,14.007721 l 0.005,8.864913 2.38673,-2.662834 c 18.80878,-20.984411 19.6475,-21.819429 22.44392,-22.344038 4.01986,-0.754129 8.44246,3.06432 8.44246,7.289191 0,1.883671 -1.26539,3.535126 -8.43955,11.014375 l -6.98331,7.280342 9.2109,12.349925 c 5.06602,6.792462 9.47227,12.975415 9.79172,13.739903 1.44033,3.447169 0.0981,7.850435 -2.97129,9.747411 -1.24254,0.767917 -1.93993,0.88814 -4.35894,0.75145 -2.04594,-0.115605 -3.21492,-0.407562 -4.03721,-1.008309 -1.18783,-0.867786 -4.24274,-4.808102 -8.6464,-11.152483 -6.90352,-9.945855 -9.90767,-13.979533 -10.41151,-13.979533 -0.30522,0 -1.87877,1.150694 -3.49676,2.557102 l -2.94187,2.557098 -0.004,6.284025 c -0.004,9.884163 -0.763,12.671438 -3.83788,14.089904 -1.77376,0.818238 -4.74279,1.149741 -6.50993,0.726844 z m 70.8859,-0.02039 c -7.10223,-0.932229 -12.64542,-5.14119 -14.94952,-11.35119 -0.58693,-1.581883 -0.7112,-2.908284 -0.58697,-6.264882 0.14054,-3.796049 0.30547,-4.55837 1.51972,-7.024931 3.21334,-6.527224 9.52507,-9.303283 25.2502,-11.105732 8.70183,-0.997424 9.56609,-1.151064 11.21308,-1.993355 2.36031,-1.207098 3.14074,-2.663025 3.14074,-5.859209 0,-5.533449 -6.71517,-8.673088 -15.19678,-7.105176 -3.40303,0.62908 -5.72402,1.911497 -9.35325,5.167884 -3.52775,3.16538 -4.25643,3.533112 -6.99305,3.529264 -5.11421,-0.0072 -7.46478,-4.955331 -4.66928,-9.829319 3.925,-6.843395 14.92756,-11.011117 27.47525,-10.407499 11.37302,0.547105 18.38692,3.281254 22,8.576005 2.37005,3.473088 2.53256,4.986884 2.54783,23.729087 0.0112,13.962649 0.12839,17.349211 0.68295,19.762509 1.13794,4.952231 1.14493,5.673579 0.0706,7.280925 -1.8023,2.696525 -6.14352,3.807174 -9.9591,2.547916 -2.88,-0.950477 -5.35701,-4.591297 -5.35701,-7.873896 0,-0.884528 -0.11125,-1.71948 -0.24722,-1.855446 -0.13596,-0.13597 -0.80731,0.390703 -1.49188,1.170382 -1.84806,2.104823 -5.80439,4.947912 -8.9602,6.438958 -4.43395,2.094943 -11.1505,3.122111 -16.13611,2.467705 z m 16.30736,-10.989494 c 5.90075,-2.694467 9.27989,-8.388387 9.27989,-15.636743 0,-3.386832 -0.33617,-4.451848 -1.04379,-3.306871 -0.14346,0.232099 -0.96653,0.782021 -1.82905,1.222047 -1.45768,0.743649 -3.72979,1.234949 -11.68901,2.5275 -6.02203,0.977957 -9.10452,2.622722 -10.44446,5.572995 -1.98844,4.378103 0.12806,8.539251 5.33434,10.487668 2.43008,0.909442 7.41256,0.493955 10.39208,-0.866596 z M 279.81542,15.474386 c -5.83477,-3.070586 -6.48801,-9.8728753 -1.3458,-14.0140697 1.24054,-0.9990302 2.06998,-1.29803489 3.9852,-1.436568 6.87823,-0.49752846 11.18658,6.9258609 7.28209,12.5473127 -2.19006,3.15314 -6.8536,4.517831 -9.92149,2.903325 z" />
</svg>
