<svg
   width="2426.4485"
   height="505.56149"
   viewBox="0 0 187.085 38.980004"
   version="1.1"
   id="svg2"
   xmlns="http://www.w3.org/2000/svg"
   xmlns:svg="http://www.w3.org/2000/svg">
  <defs
     id="defs2" />
  <path
     d="m 153.767,16.289005 -6.026,0.006 0.039,15.527 5.993,-0.005 -0.007,-8.13 c -0.011,-2.214 0.831,-3.594 3.095,-3.562 2.23,0.04 2.675,1.53 2.677,3.59 l 0.007,8.096 6.054,-0.005 -0.026,-9.569 c 0.013,-4.58 -2.347,-6.493 -6.646,-6.489 -2.239,0.002 -3.737,0.54 -5.157,2.499 z M 123.538,6.68 l -6.027,0.005 0.023,25.156005 6.027,-0.006 z m -11.105,14.193005 4.171,-0.004 -0.004,-4.546 -4.188,0.003 0.015,-2.596005 c 0.023,-2.792 2.186,-3.186 4.178,-1.945 l -0.004,-4.852 c -5.365,-2.286 -10.112,1.507 -10.132,7.364 l 0.001,2.034005 -2.094,0.002 0.004,4.546 2.095,-0.002 0.01,10.974 5.942,-0.006 z m -27.288,-4.521 -0.018,9.33 c 0.031,5.32 4.178,6.713 9.056,6.734 5.057,-0.03 9.092,-0.536 9.018,-6.742 l -0.009,-9.338 -6.095,0.005 0.008,8.309 c 0.002,2.29 -0.61,3.372 -2.926,3.374 -2.367,-0.007 -3.015,-1.164 -3.017,-3.369 l -0.008,-8.308 z m -38.281,1.601 -0.009,-9.875005 -6.691,0.006 0.021,23.836005 6.768,-0.006 v -10.275 l 8.718,10.268 8.632,-0.008 -11.156,-12.462 L 63.514,8.063 55.145,8.071 Z m 88.306,2.636 c 2.12,-0.002 3.858,1.554 3.859,3.478 0.002,1.915 -1.733,3.483 -3.853,3.485 -2.128,0.002 -3.858,-1.562 -3.86,-3.479 0,-1.923 1.726,-3.483 3.854,-3.484 z m 9.642,-4.291 -5.942,0.005 0.002,1.66 c -1.449,-1.353 -3.237,-2.151 -5.28,-2.2 -4.674,-0.174 -8.45,3.558 -8.488,8.309 0.013,4.647 3.771,8.287 8.129,8.283 2.647,-0.002 4.604,-1.179 5.65,-2.252 l 0.002,1.719 5.942,-0.005 z m 32.668,4.252 c 2.12,-0.002 3.857,1.555 3.859,3.479 0.002,1.915 -1.733,3.483 -3.853,3.485 -2.12,0.002 -3.858,-1.563 -3.86,-3.479 -0.001,-1.923 1.734,-3.483 3.854,-3.485 z M 187.061,6.622 l -5.916,0.006 0.035,11.296005 c -1.439,-1.352 -3.236,-2.151 -5.271,-2.2 -4.682,-0.175 -8.458,3.558 -8.496,8.308 0.013,4.648 3.778,8.288 8.129,8.284 2.646,-0.003 4.604,-1.179 5.65,-2.253 l 0.001,1.72 5.892,0.003 z M 72.694,20.646005 c 2.12,-0.002 3.858,1.554 3.86,3.478 0.001,1.916 -1.734,3.483 -3.854,3.485 -2.128,0.002 -3.858,-1.562 -3.859,-3.479 -0.002,-1.924 1.725,-3.483 3.853,-3.484 z m 9.641,-4.291 -5.942,0.005 0.001,1.66 c -1.448,-1.352 -3.245,-2.151 -5.28,-2.2 -4.674,-0.175 -8.458,3.557 -8.497,8.308 0.021,4.647 3.779,8.287 8.137,8.283 2.647,-0.002 4.604,-1.179 5.65,-2.252 l 0.002,1.719 5.942,-0.005 z m -42.147,19.09 146.856,-0.133 0.004,3.523 -146.857,0.134 z M 2.983,3.019 16.714,3.006 l 0.015,15.809005 -13.731,0.012 z M 18.553,3.004 34.881,2.989 18.567,18.813005 Z m 0.016,17.375005 16.342,15.87 -16.328,0.016 z m -15.57,0.091 13.731,-0.012 0.015,15.808 -13.731,0.013 z M 0.776,0.799 36.598,0.766 36.632,38.181005 0.81,38.213005 Z M 0,0.034 37.363,0 l 0.036,38.947005 -37.363,0.033 z"
     fill="#cc2229"
     id="path2"
     style="clip-rule:evenodd;fill:#000000;fill-rule:evenodd" />
</svg>
