<svg id="KAUFLAND" width="500" height="90.277043" viewBox="0 0 500 90.277043" version="1.1" xml:space="preserve" xmlns:xlink="http://www.w3.org/1999/xlink" xmlns="http://www.w3.org/2000/svg" xmlns:svg="http://www.w3.org/2000/svg">
	<path id="KAUFLAND" style="fill:#000000;stroke:#000000;stroke-width:0" d="m 114.3333,30.585809 v 6.159459 c -3.51592,-3.383737 -9.5432,-7.401924 -17.923233,-7.401924 -16.284234,0 -27.572169,13.534947 -27.572169,30.717986 0,16.918685 11.155757,30.215713 27.572169,30.215713 8.908743,0 14.777413,-4.150364 17.923233,-7.269747 v 6.027282 h 16.91868 V 30.612245 H 114.3333 Z m 0,39.732474 c -2.37919,2.617109 -6.39738,5.525008 -12.42466,5.525008 -9.014488,0 -15.411865,-6.50312 -15.411865,-16.046315 0,-9.543196 6.397377,-16.046315 15.411865,-16.046315 6.02728,0 10.01903,2.881463 12.42466,5.525008 z M 483.08132,1.2689013 V 37.221106 a 25.533996,25.533996 0 0 0 -18.55769,-7.904198 c -16.41641,0 -27.57217,13.534948 -27.57217,30.717987 0,17.183039 11.39368,30.215713 27.57217,30.215713 9.38459,0 15.54404,-4.626203 18.55769,-7.904198 v 6.635297 H 500 V 1.2424659 Z m 0,68.3091887 a 16.27366,16.27366 0 0 1 -13.03268,6.265201 c -9.04092,0 -15.41186,-6.50312 -15.41186,-16.046315 0,-9.543196 6.39737,-16.046315 15.41186,-16.046315 a 16.315956,16.315956 0 0 1 13.03268,6.2652 z M 405.09675,29.343344 a 24.600825,24.600825 0 0 0 -18.55768,8.274294 v -7.031829 h -17.05086 v 58.422333 h 17.05086 v -38.35783 c 2.14127,-3.013641 6.13302,-6.635297 12.5304,-6.635297 7.13757,0 11.28794,4.652639 11.28794,12.292482 v 32.727081 h 17.18304 V 52.92376 c 0,-13.799302 -7.9042,-23.580416 -22.4437,-23.580416 M 246.35191,14.169398 c 5.76293,0 9.14666,2.511368 9.14666,2.511368 L 258.24786,3.6480914 C 258.24786,3.6480914 253.62166,0 242.57164,0 228.2965,0 219.38776,8.2742942 219.38776,23.686158 v 6.899651 h -8.6444 v 14.037222 h 8.6444 v 44.358676 h 17.42095 V 44.623031 h 19.80015 V 30.585809 h -19.80015 v -5.39283 c 0.0264,-7.375489 3.41018,-11.023581 9.5432,-11.023581 M 266.46928,1.2689013 h 17.42096 V 89.008142 h -17.42096 z m -195.675159,0 H 48.482605 L 19.667971,41.503648 V 1.2689013 H 0 V 89.008142 H 19.667971 V 49.513588 L 48.482605,89.008142 H 71.296394 L 37.459025,44.120757 Z M 184.46653,68.94364 c -2.27345,2.881463 -6.2652,6.635296 -12.5304,6.635296 -7.13757,0 -11.39367,-4.626203 -11.39367,-12.292482 v -32.72708 h -17.18304 v 36.110817 c 0,13.799302 7.90419,23.553982 22.44369,23.553982 9.64894,0 15.67622,-5.022735 18.66342,-8.274295 v 7.031829 h 16.91869 V 30.559374 H 184.46653 Z M 340.1713,30.585809 v 6.159459 c -3.51591,-3.383737 -9.54319,-7.401924 -17.92323,-7.401924 -16.28423,0 -27.57217,13.534947 -27.57217,30.717986 0,16.918685 11.15576,30.215713 27.57217,30.215713 8.90875,0 14.77741,-4.150364 17.92323,-7.269747 v 6.027282 h 16.91869 V 30.612245 H 340.1713 Z m 0,39.732474 c -2.37919,2.617109 -6.39738,5.525008 -12.42466,5.525008 -9.04092,0 -15.41186,-6.50312 -15.41186,-16.046315 0,-9.543196 6.39738,-16.046315 15.41186,-16.046315 6.00085,0 10.01904,2.881463 12.42466,5.525008 z" />
</svg>
