<svg
   version="1.1"
   id="svg1"
   width="491.20004"
   height="408.19675"
   viewBox="0 0 491.20004 408.19675"
   xmlns="http://www.w3.org/2000/svg"
   xmlns:svg="http://www.w3.org/2000/svg">
  <defs
     id="defs1" />
  <g
     id="g1"
     transform="translate(-457.56797,22.03456)">
    <path
       style="fill:#000000;stroke:none"
       d="m 752.60798,-1.4330062 c -1.71769,5.811015 -0.30238,14.1910552 0.26569,20.1600002 0.2583,2.71418 -0.0929,5.393906 1.77925,7.667149 3.02297,3.670664 9.97459,3.544414 12.79086,-0.311836 1.77051,-2.424336 1.65182,-6.092422 1.45557,-8.955313 -0.75406,-11.0006252 -5.69066,-26.0842586 -14.69137,-33.062461 -8.99695,-6.975274 -22.15535,-7.195508 -32.64,-4.496055 -4.61994,1.189492 -9.8174,2.899766 -12.16125,7.478516 -3.54699,6.9291014 3.78809,9.4916408 9.28125,10.1486328 2.94865,0.352656 5.76027,0.09016 8.64,1.076563 6.43912,2.20558601 12.38213,7.050038 19.52,4.65875 2.5035,-0.838711 3.85781,-2.70820299 5.76,-4.363946 m -30.72,16.3200002 -10.60519,15.36 -5.39481,8.64 13.44,1.92 c -0.79797,-2.406211 -9.13016,-2.777344 -11.52,-2.88 l 15.36,-22.72 -1.28,-0.32 m -13.72519,3.154805 c -2.71696,1.222265 -0.24108,4.644883 2.18642,3.647422 2.80828,-1.153946 0.40735,-4.814297 -2.18642,-3.647422 m 2.52519,1.645195 c -2.17564,2.213203 -3.03574,-1.589805 0,0 m 21.76149,1.199023 c -2.96166,0.522071 -1.81596,4.59879 0.95703,4.072071 2.9356,-0.557617 1.86765,-4.57 -0.95703,-4.072071 m 0.3474,1.252579 c 1.12564,-0.130039 1.44404,1.431406 0.26223,1.533828 -1.10461,0.09574 -1.4476,-1.396875 -0.26223,-1.533828 m -19.86889,28.588398 v 0.64 c 8.8926,3.647266 19.08365,3.13504 27.84,-0.96 l -0.32,-0.96 -16.32,3.2 -11.2,-1.92 m -41.52691,-0.717539 c -1.97133,0.847461 -0.4428,3.774844 1.49211,3.033829 2.25857,-0.864961 0.56433,-3.917891 -1.49211,-3.033829 m -11.91309,0.397539 5.12,22.400001 h -7.04 v 1.28 h 8.64 l -5.44,-24.000001 -1.28,0.32 m -11.76691,0.87875 c -2.07084,0.935899 -0.19407,3.795625 1.77382,2.765196 2.07457,-1.08625 0.14536,-3.632539 -1.77382,-2.765196 m 25.20691,-0.23875 -1.6,0.64 1.6,-0.64 m -24,0.96 0.32,0.32 v 0.64 l -0.32,0.32 h -0.64 l -0.32,-0.32 v -0.64 l 0.32,-0.32 h 0.64 m 68.8,31.359999 c -6.04353,2.027149 -11.60908,2.214959 -17.92,2.825669 -2.91004,0.2816 -7.05172,0.16644 -9.52814,1.97605 -1.71356,1.25215 -2.28348,4.51696 -3.08866,6.39828 -1.66865,3.89891 -4.05171,7.296528 -6.2632,10.879998 5.09432,-2.82496 9.9757,-5.696788 15.68,-7.158508 4.04455,-1.03641 8.02471,-1.39434 12.16,-0.79953 24.83709,3.572538 23.6761,34.803238 18.4242,52.758038 -1.34715,4.60555 -4.06623,8.85803 -5.29779,13.44 -0.61826,2.30022 2.25099,3.21422 2.45336,5.25581 0.32097,3.23826 -2.25258,8.26105 -3.1894,11.3842 -0.32826,1.09433 -0.48431,2.79685 -1.37062,3.60246 -2.75735,2.50623 -8.83489,-0.96157 -11.97506,1.07062 -3.81715,2.47029 -6.97682,7.06219 -10.56469,10.02 -9.51111,7.84088 -22.61762,14.28572 -35.2,11.54223 -3.63893,-0.79344 -7.1766,-2.62242 -9.92,-5.1452 -1.50795,-1.3867 -2.78436,-3.68877 -4.53555,-4.71752 -1.53484,-0.90166 -3.96894,-1.04355 -5.70445,-1.39631 -3.66322,-0.74457 -7.45973,-2.01529 -11.2,-2.17628 0.0939,-2.40493 -2.4527,-4.73239 -4.16469,-6.21112 -5.59959,-4.83664 -11.12889,-5.29322 -17.91531,-6.90888 v -0.32 c 5.12686,0 10.0791,0.63906 14.72,2.95951 2.11963,1.05982 4.45316,3.719 6.72,2.16049 v -0.32 c -9.91263,-8.57133 -23.84136,-7.63881 -35.52,-3.84 l -0.32,-1.92 c -8.36741,1.73169 -14.65189,7.19037 -17.92,15.04 l 2.24,0.64 c 0.76934,-2.66545 2.58672,-5.05608 4.48,-7.04 -2.32784,3.7755 -4.46738,7.25914 -4.48,11.84 h 1.92 c 0.20844,-1.61397 0.27559,-3.7503 2.24,-3.84 l 2.24,-3.52 -2.24,8 h 2.24 c 0.2085,-4.78188 2.73877,-8.89198 6.08,-12.15532 1.39688,-1.36431 3.34488,-3.73861 5.12,-1.92468 l 3.2,-0.96 c 0.4229,2.53406 8.46779,1.82337 10.88,2.44148 7.06123,1.80937 12.27853,6.20521 14.26295,13.23852 3.02828,10.73304 1.47224,23.27021 -4.68814,32.64 -1.71609,2.61013 -3.90697,4.96343 -6.37481,6.87554 -1.2318,0.95442 -3.26424,1.58655 -4.17976,2.8494 -1.30646,1.80211 -1.08759,6.00754 -1.26024,8.19506 1.53998,-0.60202 2.33032,-2.37442 3.85383,-2.77829 9.93218,-2.63289 18.07847,4.52206 22.70271,12.37829 9.16489,15.57043 13.32996,34.25361 16.64346,51.84 h 48.32 l -3.57309,-28.8 -3.14691,-25.6 c 13.40111,0 26.92901,0.38623 40.32,0.97259 3.81465,0.16704 7.70826,0.075 11.52,0.33604 1.62444,0.11125 4.0802,0.85557 5.62594,0.0983 1.16207,-0.56932 1.46769,-2.85191 1.84072,-3.96691 1.21922,-3.6444 2.52293,-7.28022 3.86914,-10.88 4.5067,-12.05088 8.89034,-26.59366 19.0642,-35.06075 2.831,-2.35607 5.80744,-4.44527 8.96,-6.34691 1.04758,-0.6319 2.5566,-1.9434 3.83532,-1.92914 1.02328,0.0114 1.82632,1.14687 2.56468,1.7368 0.68977,-1.82827 2.4093,-6.01258 1.71434,-7.90864 -0.51067,-1.39314 -2.2693,-2.50269 -3.21828,-3.61136 -1.77871,-2.07803 -3.34485,-4.54852 -4.47606,-7.04 -2.75713,-6.07264 -3.4482,-13.60956 -2.36568,-20.16001 0.50662,-3.06568 1.21068,-6.03988 2.28271,-8.96 0.35875,-0.97718 0.75733,-2.63576 1.93754,-2.90271 1.74942,-0.3957 4.68473,1.20604 6.36543,1.71234 5.50039,1.657 11.015,3.86623 16.64,5.03037 l 4.16,-8.96 -0.64,10.24 c 3.65301,0.4919 7.18051,1.59602 10.88,1.92 3.07934,0.26967 8.55723,-0.69691 11.18618,0.96297 3.4505,2.17858 2.69457,7.80657 -0.31903,9.97975 -1.14304,0.82428 -2.99929,0.25828 -3.87383,1.10297 -1.19878,1.15787 -1.54253,4.03424 -2.27605,5.55432 -1.85434,3.84275 -3.96027,7.48291 -6.96195,10.56 -2.03891,2.09011 -4.20329,3.87777 -6.71532,5.37382 -1.0423,0.62077 -3.16148,1.10049 -3.81851,2.14594 -0.77196,1.2283 -0.0215,4.73887 -0.0215,6.24024 l 1.92,-2.24 9.92,3.92197 4.16,-1.36197 v -0.32 c -3.11484,-0.80588 -7.32601,-0.91508 -9.88515,-3.05829 -3.7402,-3.13234 2.52027,-5.98521 5.08515,-6.40146 6.76782,-1.09832 13.12079,0.76414 19.84,0.81975 -1.39757,-7.20659 -2.45074,-14.45829 -3.14566,-21.76 -1.15715,-12.15813 -1.42242,-23.78655 -9.40176,-33.92001 -3.54254,-4.4989 -8.26726,-7.43162 -13.69258,-9.16988 -1.98617,-0.63637 -7.41718,-0.33625 -8.46172,-2.07752 -1.53371,-2.55679 -2.2873,-5.84576 -3.46816,-8.5926 -3.06809,-7.13685 -6.02559,-14.28441 -9.73133,-21.119998 -2.02488,-3.73511 -4.43332,-9.02183 -8.41879,-11.02148 -8.37361,-4.201369 -19.26033,-1.01934 -28.16,-2.48543 -2.55146,-0.42031 -5.58646,-4.486799 -8,-4.017029 -2.26189,0.44027 -4.65836,3.065429 -6.72,4.154059 -8.53453,4.50652 -18.98295,7.41027 -24.96,-2.310119 m -70.08,0 -0.64,0.64 v 0.32 c 6.44836,5.575859 14.14125,5.984139 21.12,1.279999 v -0.64 c -2.39959,-0.36043 -5.16451,2.27785 -7.68,2.73137 -4.89445,0.88242 -8.87891,-1.91156 -12.8,-4.331369 m -46.08,52.159997 12.48,7.69606 4.6116,3.53383 0.59976,5.09011 1.37284,15.36 0.78469,5.85532 5.75111,2.35802 15.36,5.22667 c -0.0562,-6.79168 -0.0681,-13.12155 1.4158,-19.84001 1.06926,-4.84107 3.04647,-9.33521 4.3442,-14.08 -13.47082,-5.63814 -16.37639,-23.60261 -15.36,-36.48 -4.6009,0.36366 -9.20727,1.51161 -13.76,2.26569 -1.72494,0.2857 -4.49294,0.23613 -5.95506,1.2506 -1.63031,1.13118 -2.68281,4.34569 -3.56691,6.08371 -2.50745,4.92934 -6.84264,10.28077 -8.07803,15.68 m 91.30643,-17.57234 c -1.20391,0.71979 0.24646,2.579 1.29923,1.86469 1.06188,-0.72049 -0.18492,-2.53092 -1.29923,-1.86469 m -8.10643,17.25234 h 0.64 c 2.40479,-2.87892 7.13986,-3.91224 8.43555,0.64 0.50851,1.78663 -0.45926,3.39823 -0.75555,5.12 4.49572,1.07032 10.44231,-2.97345 7.35703,-7.99505 -1.4982,-2.4385 -3.67381,-1.38297 -5.68888,-2.57383 -1.55874,-0.92117 -1.66827,-2.95739 -3.59284,-3.57383 -5.16683,-1.65494 -7.66511,4.37697 -6.39531,8.38271 m 18.75309,-8.29259 c -1.03731,0.70949 0.20843,2.34855 1.20914,1.55777 0.89715,-0.70895 -0.29408,-2.18365 -1.20914,-1.55777 m 86.57433,36.14174 c -2.14339,1.25476 0.19946,4.20904 2.14516,3.12863 2.24633,-1.24735 -0.0457,-4.3577 -2.14516,-3.12863 m 2.19258,1.27085 c -0.76047,1.04422 -1.51914,0.89522 -1.92,-0.32 l 1.92,0.32 m 14.12743,1.61012 c -2.13985,1.2352 0.15433,4.16731 2.11949,3.03877 2.18125,-1.25264 -0.11555,-4.19551 -2.11949,-3.03877 m 1.87257,0.94988 c -0.40875,1.22993 -1.19121,1.22997 -1.6,0 h 1.6 m -20.16,2.56 0.32,1.28001 h 0.64 l 0.32,-1.28001 h -1.28 m 10.24,13.12001 v -1.28 l -6.72,-0.64 5.76,-10.56 -0.32,-0.32 c -2.55867,1.30736 -4.43461,5.48 -5.67258,8 -0.45554,0.92726 -1.24109,2.40839 -0.50546,3.38246 1.29125,1.70978 5.5539,1.41732 7.45804,1.41754 m -9.28,-9.6 -0.32,0.96 1.28,0.32 -0.32,-1.28 h -0.64 m 13.12,0.32 -0.32,0.32 v 0.64 l 1.28,0.32 -0.32,-1.28 h -0.64 m 5.44,0.96 -0.32,1.28 h 1.28 l -0.32,-1.28 h -0.64 m -2.56,2.24 -0.32,1.28 h 1.28 l -0.32,-1.28 h -0.64 m 6.4,6.72 c -2.2591,2.96498 -5.39429,5.92197 -9.28,6.34445 -2.04273,0.22211 -6.50914,-1.54768 -7.68,0.0556 4.93438,1.60503 9.7195,1.91046 14.08,-1.44938 1.3409,-1.03318 4.37227,-3.22156 2.88,-4.95062 m -187.52,7.04 h 0.32 l 0.64,-1.28 c 1.69822,0.48669 2.80213,1.95287 3.52,3.52 -9.21886,-1.78784 -16.26206,-9.06508 -26.24,-8 1.41873,-1.07483 3.72029,-0.64278 5.44,-0.64 5.53569,0.009 12.54823,2.15363 16.32,6.4 m -39.36,-4.48 -1.6,1.6 1.6,-1.6 m 24.71334,16.01037 c -1.88649,1.12 0.0596,3.5567 1.77332,2.53925 1.88645,-1.11998 -0.0595,-3.55671 -1.77332,-2.53925 m 1.52666,0.94963 v 0.64 h -1.28 v -0.64 h 1.28 m -15.34124,0.5716 c -2.19569,0.77037 -0.95308,3.92078 1.24272,3.07383 2.15687,-0.83194 0.83202,-3.80176 -1.24272,-3.07383 m 1.26124,1.0284 -0.96,1.28 -0.32,-1.28 h 1.28 m 8,2.24 4.8,11.2 h -3.2 v 1.28 l 5.12,-0.32 c -1.2074,-2.90004 -3.63274,-11.19457 -6.72,-12.16 m -12.16,18.24 c 3.10606,6.64318 8.1882,8.5408 15.04,8 l -0.32,-1.28 c -3.59794,0.4547 -6.65465,0.34779 -9.59877,-2.06963 -1.56848,-1.28787 -2.95529,-4.97293 -5.12123,-4.65037 m 248,4.48 c 0.66875,2.45011 2.08317,9.45287 4.24891,10.82296 1.84727,1.16866 5.14781,0.82569 7.27109,1.33704 l -4.16,-16.96 -7.36,4.8 m -64,7.36 -11.84,23.36 9.6,0.32 1.69112,-15.68 0.54888,-8 m -1.92,35.52 -6.08,40.32 h 62.08 l -5.44,-40.32 h -50.56 m -149.12,11.2 c 0.0194,7.04218 1.23498,14.07654 1.28025,21.12 0.01,1.52144 -0.32488,6.69847 0.87729,7.67109 1.68859,1.36621 7.53015,0.32891 9.68246,0.32891 l -7.55211,-19.2 -4.28789,-9.92 m 61.76,52.35531 c -4.96795,0.30934 -3.6582,6.72273 1.27975,6.16988 4.23316,-0.47394 2.80185,-6.42402 -1.27975,-6.16988 m 106.56,8.90172 c -11.83711,1.69957 -16.26939,17.99 -9.15506,27.06297 3.46112,4.41398 9.22588,5.72511 14.59506,5.02742 12.44922,-1.61781 16.58821,-19.18492 8.58098,-28.06274 -3.42074,-3.79265 -9.15324,-4.72656 -14.02098,-4.02765 m -336.32,0.18297 v 31.68 h 6.72 c 0,-3.28676 -0.4809,-6.98504 0.0474,-10.22742 0.16968,-1.04133 1.2878,-2.43157 2.47926,-2.29036 1.13668,0.13473 1.92815,2.06747 2.45778,2.91778 1.76551,2.83445 3.35546,6.39086 5.60543,8.85828 1.45353,1.59398 5.96004,0.74172 7.97013,0.74172 l -7.69605,-12.48 -2.78445,-5.12 2.8642,-4.16 7.2963,-9.92 -7.02741,0.3289 -3.6684,4.1511 -7.22419,9.92 -0.32,-10.24 -0.51309,-3.8311 -6.20691,-0.3289 m 27.84,31.68 c 1.61226,0 5.85852,0.75648 7.0116,-0.51309 1.5478,-1.70418 0.71707,-5.50347 2.72247,-6.83801 1.8095,-1.20418 7.31628,-0.50289 9.46099,-0.31015 3.17371,0.28527 2.1892,5.29386 3.87333,7.14816 1.15308,1.26957 5.39935,0.51309 7.01161,0.51309 -1.13909,-7.71309 -5.42478,-15.63574 -7.89334,-23.04 -0.66793,-2.0034 -1.50983,-7.03496 -3.21136,-8.3111 -1.18622,-0.88968 -5.98739,-0.64882 -7.38345,-0.22718 -1.93712,0.58507 -2.78145,5.84843 -3.38198,7.57828 -2.65841,7.65765 -7.02573,15.98179 -8.20987,24 m 34.56,-31.68 v 31.68 h 6.72 v -12.16 c 6.56351,7e-4 6.50659,8.05844 10.75481,11.64691 1.51765,1.28195 5.58254,0.51309 7.48519,0.51309 l -8.96,-14.08 c 6.55291,-1.94633 7.66655,-11.61211 2.23975,-15.42395 -4.72708,-3.32035 -12.76805,-2.17605 -18.23975,-2.17605 m 25.92,0 v 5.76 h 8.64 v 25.92 l 6.39111,-0.51309 0.32889,-6.84691 v -18.56 h 8.32 v -5.76 h -23.68 m 22.08,31.68 h 7.36 c 0.43345,-1.89071 0.92571,-5.84235 2.4042,-7.16692 1.33297,-1.19418 9.12451,-1.10707 10.64296,-0.18418 2.14403,1.30309 1.28014,5.14813 2.90617,6.83801 1.2228,1.27082 5.42351,0.51309 7.08667,0.51309 l -10.88,-31.68 -8.1568,0.3289 -3.26469,8.3111 -8.09851,23.04 m 45.76,0 c 4.96886,0 10.16496,0.43078 15.04,-0.71555 10.88266,-2.55902 15.00832,-17.32312 7.8948,-25.8432 -2.81918,-3.37664 -6.92439,-4.43836 -11.0948,-4.85532 -2.77943,-0.27792 -5.5243,-0.26609 -8.32,-0.26593 -0.89695,8e-5 -2.55207,-0.29375 -3.19111,0.51308 -1.22344,1.54473 -0.32889,6.51598 -0.32889,8.44692 v 22.72 m 32,-31.68 v 16 c 0,3.06695 -0.34522,6.35984 0.78963,9.28 3.10506,7.98984 16.09789,8.94804 21.87482,3.42371 5.07043,-4.84875 3.25555,-14.69106 3.25555,-21.02371 0,-1.68891 0.75184,-5.80239 -0.32889,-7.16692 -0.95455,-1.20519 -4.9739,-0.51308 -6.39111,-0.51308 v 11.2 c 0,3.74023 0.951,9.12402 -1.03309,12.47875 -2.32894,3.93789 -9.16087,3.69117 -10.93062,-0.63899 -1.85555,-4.54011 -0.51629,-11.77593 -0.51629,-16.63976 0,-1.56844 0.51008,-4.22926 -0.19309,-5.65828 -0.72255,-1.46844 -5.12197,-0.74172 -6.52691,-0.74172 m 30.72,0 v 5.76 h 14.4 c -5.11726,7.52265 -14.72,16.61168 -14.72,25.92 h 23.36 v -5.44 h -15.36 c 4.35065,-8.74559 14.72,-16.08051 14.72,-26.24 h -22.4 m 27.84,31.68 h 18.24 v -5.44 h -8 l -3.19111,-0.74172 -0.32889,-7.57828 h 10.56 v -5.44 h -10.56 v -6.72 h 11.52 v -5.76 h -12.8 c -1.25732,0 -3.88791,-0.49403 -4.92691,0.3289 -1.36178,1.07852 -0.51309,6.35973 -0.51309,7.9911 v 23.36 m 24.64,-31.68 v 23.68 c 0,2.97726 0.7776,7.2982 -1.00617,9.8864 -1.50115,2.17813 -4.11979,1.59594 -6.35383,1.3136 0,1.33828 -0.53377,4.14965 0.32889,5.24715 2.51387,3.19824 10.2739,-0.5861 11.84099,-3.00739 2.01018,-3.1059 1.91012,-7.01343 1.91012,-10.55976 v -17.28 c 0,-1.99121 0.92998,-7.17746 -0.32888,-8.76692 -0.95456,-1.20519 -4.97391,-0.51308 -6.39112,-0.51308 m 25.92,31.68 h 6.72 v -12.16 c 6.79139,7.4e-4 6.44737,8.17844 10.9852,11.64691 1.60363,1.22574 5.31746,0.51309 7.2548,0.51309 -1.47539,-4.62227 -5.99629,-9.9043 -8.96,-13.76 5.60178,-2.44848 8.30217,-10.68914 3.14446,-15.14223 -3.106,-2.68168 -8.20748,-2.77629 -12.10446,-2.77777 -1.5665,-6.3e-4 -5.25406,-0.67922 -6.52691,0.3289 -1.36176,1.07852 -0.51309,6.35977 -0.51309,7.9911 v 23.36 m 63.04,-31.68 v 31.68 c 6.57086,0 14.43934,0.99011 20.16,-2.95063 8.22649,-5.66687 7.98372,-21.12035 -0.64,-26.33601 -5.57121,-3.36953 -13.29308,-2.39336 -19.52,-2.39336 m 29.12,0 v 5.76 h 14.4 c -4.65136,8.16551 -14.72,16.21594 -14.72,25.92 h 23.36 v -5.44 h -15.36 c 3.62829,-6.36946 8.48243,-12.16375 12.58567,-18.24 1.16762,-1.72907 3.90441,-5.24082 2.12547,-7.48692 -0.89774,-1.13347 -4.44332,-0.51308 -5.75114,-0.51308 h -16.64 m 28.16,0 v 31.68 h 6.72001 v -23.04 l -0.32887,-8.12692 -6.39114,-0.51308 m 14.08001,31.68 h 6.08 l -0.32,-23.68 h 0.32 c 1.85464,5.85836 6.46476,11.61535 9.51011,16.96 1.0266,1.80172 2.2234,5.29273 4.03508,6.39109 1.87317,1.13567 6.05824,0.32891 8.21481,0.32891 v -31.68 h -5.76 c 0,7.62676 -1.07247,16.17957 0.32,23.68 -3.83102,-5.02465 -6.7052,-11.14699 -9.83012,-16.64 -1.0675,-1.87649 -2.41352,-5.59899 -4.31707,-6.7111 -1.1925,-0.69672 -7.3841,-0.96027 -8.05973,0.41282 -1.04492,2.12355 -0.19308,6.50203 -0.19308,8.85828 v 22.08 m 32.32,-31.68 10.03605,19.52 0.20395,8.32 0.32886,3.32691 6.39114,0.51309 c 0,-3.74153 -0.92786,-8.93336 0.30914,-12.48 2.29398,-6.57727 8.6105,-12.35293 9.9309,-19.2 l -6.6519,0.3289 -2.22912,3.5111 -4.55902,8.96 -4.72098,-8.96 -2.12395,-3.5111 -6.91507,-0.3289 m -338.24001,5.12 3.84,13.44 h -8 l 4.16,-13.44 m 212.48,0.0928 c 11.42145,-1.44754 12.28012,19.98902 1.6,21.25332 -11.21562,1.32769 -11.99562,-19.93582 -1.6,-21.25332 m -295.04,0.22715 3.84,13.12 h -8.32 l 3.84,-13.12 h 0.64 m 25.92,8.64 v -8.32 c 1.9252,0 4.29576,-0.3634 6.07852,0.5032 2.57323,1.2509 2.93295,5.12023 0.58098,6.81063 -1.86715,1.34195 -4.4947,1.00617 -6.6595,1.00617 m 93.76,-8.32 c 2.90248,0 6.41471,-0.53227 8.95877,1.18468 4.6135,3.1136 4.845,12.31383 1.43185,16.38543 -1.36584,1.62934 -8.24654,4.68868 -10.06173,2.3968 -0.89828,-1.13418 -0.32889,-4.18461 -0.32889,-5.56691 v -14.4 m 141.12,8.32 v -8.32 c 2.14977,0 4.76004,-0.3902 6.68643,0.77359 2.26543,1.36859 2.12521,5.15141 0,6.58469 -1.89959,1.28109 -4.51873,0.96172 -6.68643,0.96172 m 63.04,12.16 v -20.48 c 3.11778,0 6.60762,-0.50871 9.26715,1.48422 4.47481,3.35312 4.33899,13.07484 0.31903,16.68761 -2.56395,2.30426 -6.33524,2.30817 -9.58618,2.30817"
       id="path1" />
  </g>
</svg>
