<svg id="KDR" width="500" height="530.20245" viewBox="0 0 500 530.20245" version="1.1" xml:space="preserve" xmlns:xlink="http://www.w3.org/1999/xlink" xmlns="http://www.w3.org/2000/svg" xmlns:svg="http://www.w3.org/2000/svg">
	<path id="KDR" style="fill:#000000;stroke:#000000;stroke-width:0" d="m 419.3757,300.32895 c -0.0693,0.69307 -0.5891,0.84785 -1.12969,0.86172 -0.54059,0.0139 -1.15511,-0.0716 -1.23135,-0.74389 -0.0913,-0.84323 0.53713,-1.11006 1.22904,-1.06848 a 1.1678143,1.1678143 0 0 1 1.132,0.95065 m -27.02837,-5.71547 c 0.65841,0.0774 1.27062,0.30033 1.33877,1.06039 0.0797,0.79587 -0.51518,1.13778 -1.18168,1.1759 a 1.1551081,1.1551081 0 0 1 -1.35032,-1.03267 c -0.0913,-0.80857 0.50709,-1.06847 1.19323,-1.20362 M 255.95332,237.58233 a 1.4115421,1.4115421 0 0 1 -1.683,1.49355 1.7673154,1.7673154 0 0 1 -1.82391,-1.88167 1.4461954,1.4461954 0 0 1 1.6853,-1.54553 c 1.19554,0.0473 1.69685,0.80857 1.82045,1.93365 M 237.77307,225.3093 a 2.104607,2.104607 0 0 1 -2.26863,-2.04685 1.644874,1.644874 0 0 1 1.77886,-1.84817 2.2074116,2.2074116 0 0 1 2.27557,2.2617 c 0.03,1.19785 -0.87904,1.60907 -1.78811,1.6391 m -13.6684,23.96849 a 29.988917,29.988917 0 0 1 2.8485,-2.70988 c 2.83464,-2.09306 6.19831,-2.25015 8.58014,-0.53944 a 7.6733832,7.6733832 0 0 1 2.46847,8.5478 c -0.35577,1.15511 -0.80858,2.2721 -1.21517,3.40411 -2.16814,1.74421 -3.79569,4.20574 -7.13973,4.1838 -5.93379,-0.0416 -9.24086,-5.19799 -6.42586,-10.51149 a 11.240357,11.240357 0 0 0 0.88365,-2.3749 m 0,0 a 9.2466405,9.2466405 0 0 1 5.69931,-13.51476 c 3.46532,-0.82591 5.89105,0.30263 7.79813,3.85344 0.88135,1.64141 1.70263,2.92242 3.92737,2.68793 3.37176,-0.34653 6.18445,0.84554 7.42388,4.15839 a 9.0283251,9.0283251 0 0 1 -2.31022,9.97205 7.7045712,7.7045712 0 0 1 -8.97172,1.98101 c -0.30264,-0.11551 -0.58911,-0.28646 -0.88481,-0.43201 -0.69307,-1.23943 0.10742,-2.31599 0.40544,-3.43529 0.88366,-3.33018 0.0196,-6.10359 -2.48464,-7.812 -2.20625,-1.50164 -4.83182,-1.25098 -7.59483,0.70231 -0.96105,0.67805 -1.68069,1.75692 -3.00328,1.83778 M 301.88273,71.409623 a 1.7742461,1.7742461 0 0 1 -2.03877,1.197847 c -0.89521,-0.06007 -1.83778,-0.374255 -1.70263,-1.468143 0.1236,-1.010719 1.0627,-1.270619 1.97177,-1.205933 0.90907,0.06469 1.65296,0.429701 1.76847,1.476229 M 264.3059,66.605528 a 1.6575802,1.6575802 0 0 1 -1.99949,1.264843 c -0.99108,-0.115511 -1.73266,-0.693065 -1.53167,-1.707249 0.20907,-1.068476 1.22903,-1.096198 2.12655,-0.991083 0.82937,0.09356 1.45428,0.462043 1.40461,1.434644 m -83.73956,83.924387 q 5.19799,0.0127 10.40637,0.0196 c -3.40179,1.21171 -6.89715,0.37195 -10.35208,0.4736 a 0.54752125,0.54752125 0 0 1 -0.0555,-0.49323 m 10.46528,-2.31137 c 0.4736,0.78778 1.12392,1.58134 -0.0577,2.32754 a 45.496244,45.496244 0 0 1 -10.40637,-0.0162 c 2.50658,-1.52821 5.25805,-0.37772 7.87784,-0.70462 1.15511,-0.14323 2.54123,0.24835 2.58628,-1.6056 m 12.70157,-34.30671 c 1.73267,0.11551 3.07144,0.85131 3.03794,2.72721 a 2.7422267,2.7422267 0 0 1 -3.04256,2.75378 2.6394221,2.6394221 0 0 1 -2.98826,-2.76533 c -0.0243,-1.87821 1.21748,-2.66946 2.99404,-2.71913 m -34.38064,4.11912 a 2.8438762,2.8438762 0 0 1 -2.85658,3.18694 2.7006428,2.7006428 0 0 1 -3.22044,-2.49041 c -0.17096,-2.04916 1.19784,-3.02407 2.98364,-3.11302 a 2.7976719,2.7976719 0 0 1 3.09338,2.41534 m 12.60454,58.16315 a 29.197668,29.197668 0 0 1 -16.72481,-6.40738 c -0.633,-0.48746 -1.78811,-0.88712 -0.983,-2.00296 0.87326,-1.2094 1.50164,-0.0277 2.1023,0.42162 a 29.707071,29.707071 0 0 0 10.84415,5.36085 20.636007,20.636007 0 0 0 17.20534,-3.46532 c 0.7,-0.48168 1.54784,-1.832 2.46847,-0.61105 1.11814,1.48431 -0.71386,1.81583 -1.41848,2.31021 a 23.490279,23.490279 0 0 1 -13.49397,4.39403 m 9.07337,-27.97209 -5.75937,-26.30875 c -0.37656,-1.71302 -0.72309,-3.42951 -1.09042,-5.146 -0.19059,-0.9033 -0.9726,-2.12887 0.54868,-2.40494 1.52128,-0.27607 1.18745,1.36072 1.36072,2.10692 2.57473,11.09943 4.99584,22.2289 7.60176,33.31794 0.55908,2.37144 -0.21254,2.78265 -2.32523,2.67985 -2.95823,-0.14092 -5.92801,-0.0139 -8.89433,-0.052 -0.89521,-0.0139 -2.18431,0.32227 -1.84817,-1.39422 3.09337,-1.19784 6.3323,-0.21254 9.47188,-0.63069 1.23135,-0.32805 1.44851,-1.09042 0.93333,-2.17391 M 397.14334,322.1836 h 6.37966 l 0.0936,0.63877 c -2.14619,-0.34653 -4.42406,0.66073 -6.4686,-0.64455 m -0.005,0.006 q -0.78894,-0.32228 -1.58366,-0.64224 c 2.65675,0.17327 5.39667,-0.63646 7.96332,0.64686 a 14.292153,14.292153 0 0 1 -6.37966,0 m 13.08968,-10.0506 c -1.09851,-0.0243 -1.24289,-0.782 -1.2094,-1.58365 0.0358,-0.88943 0.74043,-0.9391 1.4127,-0.95065 0.79587,-0.0115 1.19785,0.36617 1.15511,1.18745 -0.0439,0.8929 -0.38234,1.46814 -1.36072,1.34685 m 6.53098,3.96665 a 5.7755406,5.7755406 0 0 1 -1.73266,1.09619 c -0.87557,0.19868 -1.32722,-0.78547 -1.6056,-1.34916 -0.46782,-0.94488 0.57755,-0.95066 1.11815,-1.0396 0.73811,-0.11551 1.51781,-0.0693 2.2178,1.29488 m -27.13233,-7.48626 a 1.5305183,1.5305183 0 0 1 1.23943,1.63563 c 0,0.65264 -0.26221,1.70841 -1.13432,1.59521 a 2.2697875,2.2697875 0 0 1 -1.56517,-1.38613 c -0.22293,-0.94488 1.01419,-1.16551 1.46006,-1.84817 m 28.4376,-5.38512 c -1.7985,-0.0959 -3.14073,-0.93102 -3.14882,-2.94206 -0.0115,-2.04339 1.40808,-2.93397 3.24816,-2.90625 1.84009,0.0277 3.25625,1.00841 3.25856,2.97787 0.002,1.96946 -1.33299,2.87044 -3.3579,2.87044 m -22.2647,-7.41695 a 3.0852938,3.0852938 0 0 1 -3.28629,3.02985 c -1.9117,-0.022 -3.40757,-0.99686 -3.42143,-3.19849 a 2.8450313,2.8450313 0 0 1 3.1985,-2.99404 3.2343027,3.2343027 0 0 1 3.50922,3.16268 m 7.81661,27.01336 c 0.19291,0.74389 0.0716,1.33068 -0.83976,1.34108 a 25.308419,25.308419 0 0 1 -9.73179,-1.18167 c -1.63332,-0.63647 -2.21203,-1.58712 -1.55593,-3.30592 2.04916,-5.38281 5.46251,-9.96859 8.52817,-14.75651 0.40544,-0.633 0.96451,-0.95874 1.65527,-0.56485 1.14009,0.65033 0.23102,1.30874 -0.1236,1.86781 -2.65675,4.14337 -5.37703,8.24747 -7.64913,12.63226 -1.07656,2.0792 -0.52904,2.79537 1.66105,2.67754 0.60065,0.37426 1.32491,0.2807 1.96368,0.52096 2.00296,0.47937 4.19535,-0.53713 6.0932,0.76815 m 2.55856,14.72993 a 18.060115,18.060115 0 0 1 -7.02999,-1.57325 c -0.65032,-0.26452 -1.5952,-0.44587 -1.08233,-1.5698 0.48514,-1.06385 1.20593,-0.57062 1.9117,-0.3061 9.55044,3.58084 17.05864,0.38812 23.32048,-7.00226 0.55676,-0.65611 0.87326,-2.17045 2.16005,-1.14356 1.27062,1.01072 -0.12359,1.74421 -0.63877,2.35757 -4.60542,5.50409 -10.15571,9.2582 -18.63998,9.24087 M 249.09197,313.61963 a 6.4766912,6.4766912 0 0 1 3.99668,0.58679 c -1.5259,1.00033 -2.80691,0.65033 -4.04288,0.62261 l 0.0416,-1.2094 m -4.09139,-1.24983 c 1.4023,0.28416 3.34404,-1.21171 4.08446,1.24174 a 23.065199,23.065199 0 0 1 -4.23924,-0.14323 c -1.05462,-0.22294 0.2391,-0.69307 0.15478,-1.09851 m 10.76676,-109.80804 -8.07074,-0.0358 c -0.17673,-0.34653 -0.52326,-0.97838 -0.50709,-0.98646 1.38035,-0.80858 7.43774,-0.0578 8.57783,1.02227 m -8.00374,97.86076 c 2.40724,-0.46205 3.88116,2.10692 6.30804,1.86434 -3.9008,0.96105 -7.75655,0.71848 -11.60537,0.63069 0.39621,-1.71302 1.80428,-1.07194 2.87045,-1.23134 0.95296,-0.14324 2.28365,0.43778 2.42572,-1.26485 m 8.0049,-97.86076 c 7.86629,1.17821 14.21938,4.59271 18.83982,11.37897 a 39.997929,39.997929 0 0 1 5.08247,11.94151 c 2.90279,10.02403 -0.40198,18.69196 -5.08247,27.11039 a 34.871559,34.871559 0 0 1 -19.75235,16.66243 c -12.12055,3.95047 -23.71091,2.47309 -32.70458,-7.67107 a 28.702127,28.702127 0 0 1 -7.34418,-17.44213 c -0.15478,-2.41302 -0.052,-4.84222 -0.0219,-7.26101 0.0797,-6.50095 2.82308,-12.11709 6.07125,-17.4918 a 36.286566,36.286566 0 0 1 17.57497,-14.97136 c 2.98826,-1.24174 5.95227,-2.43728 9.26627,-2.29174 a 12.572197,12.572197 0 0 1 8.07074,0.0358 M 98.49475,330.06375 h -7.854735 a 10.319736,10.319736 0 0 1 7.854735,0 m 15.80765,-9.81611 c 0.1675,1.01418 -0.57062,1.15511 -1.27061,1.3226 l -3.63051,-0.30264 c 1.59983,-1.28102 3.26087,-1.0858 4.90575,-1.01881 m 2.73645,1.11468 c -0.69307,0.21254 -1.41616,0.38812 -1.23943,1.38036 -1.10775,0.0358 -2.3853,0.48745 -2.77226,-1.17013 0.23102,-0.633 0.86171,-0.87326 1.27061,-1.3226 1.05462,0.0277 2.38877,-0.63877 2.74108,1.11237 m -12.02006,4.70938 -10.365939,0.03 a 18.069356,18.069356 0 0 1 10.365939,-0.03 m 0.13746,0.6226 c -0.97838,0.32228 -2.31715,-0.23679 -2.85658,1.16551 -2.955925,-0.76815 -5.996169,-0.20099 -9.015622,-0.54868 0.107425,-0.88135 0.900984,-0.8594 1.368803,-1.2094 a 38.868233,38.868233 0 0 1 10.365939,-0.03 c 0.0381,0.20907 0.0832,0.41584 0.13746,0.6226 m 15.82498,-2.60361 c -1.92787,0.32227 -3.22044,-1.80659 -5.18412,-1.35263 -0.74967,-1.50164 0.0554,-1.61715 1.24174,-1.38036 q 1.97061,0.45396 3.94469,0.91138 v 1.82045 m -21.846559,-6.51019 c 2.864669,-1.45659 5.922239,-0.41814 8.883939,-0.65263 2.04338,-0.16287 4.11218,0 6.17058,0.0139 a 1.6506495,1.6506495 0 0 1 0.22294,0.5094 l -15.276304,0.12937 m -0.0035,0 a 1.2706189,1.2706189 0 0 1 -0.611053,-0.15131 c 0.137458,-0.28878 0.256434,-0.81782 0.415839,-0.83168 5.092868,-0.42393 10.197288,-1.15511 15.247418,0.34653 -3.8569,0.57062 -7.73922,0.0855 -11.59959,0.27492 -1.15511,0.0577 -2.37144,-0.38235 -3.45377,0.36039 m 111.82259,26.49002 c 0.0115,0.40776 1.34686,1.0962 -0.19521,1.16782 -1.86435,0.0878 -3.73793,0.03 -5.60574,0.0855 -0.91138,0.0277 -2.11501,-0.35809 -2.20048,1.2117 a 21.586661,21.586661 0 0 0 -5.03512,-1.78002 c 4.32472,-1.28101 8.70143,-0.62491 13.0377,-0.68613 M 465.1099,304.18819 465.066,297.9379 a 6.3426987,6.3426987 0 0 1 0.0439,6.25029 m -0.65264,0.7693 0.008,-7.36612 0.60065,0.34653 a 12.102068,12.102068 0 0 1 0.0439,6.24683 l -0.65264,0.76814 m -6.76085,38.33342 -15.47844,0.03 a 36.561482,36.561482 0 0 1 15.47844,-0.03 m 2.32524,0.63993 H 441.1414 l 1.08234,-0.60643 a 75.497867,75.497867 0 0 1 15.47845,-0.03 c 0.77392,0.21254 1.54553,0.42739 2.31946,0.63877 m -339.56829,-59.56777 -0.15941,-7.52322 c 1.36072,2.51236 0.51749,5.18413 0.57756,7.79005 a 1.207088,1.207088 0 0 1 -0.42162,-0.26683 m 0.005,0 c -1.50164,-2.8046 -0.58679,-5.81481 -0.75197,-8.73493 l 0.59257,1.21518 a 22.240452,22.240452 0 0 1 0.1594,7.51975 m -21.95976,45.70416 0.727718,0.58911 -9.304396,0.008 c 0.239108,-0.19867 0.481681,-0.39389 0.724253,-0.59257 a 21.205475,21.205475 0 0 1 7.854735,0 m 9.94433,26.54901 a 2.8947009,2.8947009 0 0 1 -3.02408,2.79883 2.5562543,2.5562543 0 0 1 -2.86466,-2.51236 c -0.0554,-1.89554 1.36649,-2.70527 2.98826,-2.78728 a 2.6140097,2.6140097 0 0 1 2.90048,2.50081 m -22.116859,2.98364 a 3.0737427,3.0737427 0 0 1 -3.31054,2.87276 c -1.798503,-0.0416 -2.977868,-0.96683 -2.928199,-2.80114 0.04967,-1.83431 1.346856,-2.66946 3.071433,-2.74338 a 2.7722595,2.7722595 0 0 1 3.167306,2.67176 m 16.397919,22.51999 c -0.76815,0 -1.53745,0.008 -2.31022,0 -0.589105,-0.008 -1.107749,-0.19521 -1.189762,-0.85709 -0.105114,-0.86518 0.462044,-1.12623 1.201312,-1.17012 0.54868,-0.03 1.0962,-0.0959 1.64487,-0.0797 1.93597,0.0497 2.20395,-0.69306 1.38036,-2.37721 -2.0688,-4.2277 -4.042879,-8.50622 -5.977686,-12.79744 -0.308413,-0.68614 -1.270618,-1.64488 -0.176731,-2.28596 1.366493,-0.80165 1.617151,0.63877 1.999492,1.43002 2.112695,4.44832 4.158385,8.93361 6.244515,13.39926 2.1485,4.59155 2.15659,4.58924 -2.82077,4.74634 m -6.148645,22.39754 c -7.607542,0.0855 -15.70947,-5.37703 -18.176781,-11.86065 -0.231022,-0.61105 -0.710392,-1.26138 0.06006,-1.71649 0.90907,-0.53943 1.330685,0.11551 1.744214,0.86518 a 28.562358,28.562358 0 0 0 2.102296,3.33595 c 4.010536,5.3135 9.194661,7.97025 15.987852,7.07966 0.924086,-0.1236 2.496184,-0.99686 2.759544,0.58448 0.27839,1.66105 -1.484305,1.15511 -2.418787,1.4023 a 13.491663,13.491663 0 0 1 -2.057248,0.31073 m 324.188025,-28.932 q 0.0451,2.66946 0.0936,5.34122 c -1.30527,-1.75691 -2.58629,-3.51499 -0.0936,-5.34122 m -52.61171,46.47231 a 24.875253,24.875253 0 0 1 -0.0635,-4.21961 c 0.21716,-1.48431 0.73234,0.0474 1.12392,0.0358 -0.14901,1.4462 0.98877,3.22044 -1.06039,4.1838 m 73.79177,-43.87447 a 13.217902,13.217902 0 0 1 7.5082,-3.46532 7.5786644,7.5786644 0 0 1 -5.94418,3.61895 l -1.56171,-0.14901 M 299.45584,74.606962 a 3.2031148,3.2031148 0 0 1 -3.32209,-3.506908 c 0.0878,-2.128865 1.7188,-3.234303 3.86153,-3.173082 2.23975,0.06584 3.94123,1.1759 3.84766,3.545026 -0.0878,2.168138 -1.69685,3.162686 -4.38941,3.134964 m -36.79597,-4.692049 c -2.1947,-0.298018 -4.0602,-1.1759 -4.02439,-3.553113 0.0335,-2.162362 1.67721,-3.278197 3.80146,-3.234303 2.15658,0.04389 3.94123,0.839764 3.90542,3.415655 -0.0335,2.374902 -1.80197,2.99173 -3.68249,3.371761 m 23.97081,50.481697 a 38.386553,38.386553 0 0 1 -16.9697,-3.44338 c -0.65841,-0.32227 -1.61715,-0.47359 -1.00032,-1.57788 0.41584,-0.73812 0.98069,-0.61105 1.67722,-0.30842 13.11972,5.66581 26.03036,3.18926 38.88902,-1.03959 0.20677,-0.0693 0.40776,-0.15941 0.61105,-0.23911 0.80858,-0.3165 1.79273,-0.89752 2.19471,0.35808 0.41584,1.31914 -0.89521,1.23366 -1.62524,1.51782 a 68.740484,68.740484 0 0 1 -23.7779,4.73594 M 260.07243,94.799407 c 5.67158,0.974911 10.84185,1.856259 16.00633,2.763019 0.90099,0.157094 2.36913,-0.127062 2.28134,1.23712 -0.0993,1.525894 -1.56748,0.881348 -2.38761,0.751976 -5.74088,-0.895209 -11.46444,-1.900153 -17.19724,-2.856583 -1.58943,-0.264519 -2.05263,-0.724252 -0.95528,-2.294044 7.97025,-11.414779 15.84462,-22.890778 23.78252,-34.324038 0.43201,-0.628379 0.75429,-1.949823 1.89784,-1.255603 1.39884,0.84785 0.13515,1.784642 -0.32227,2.45114 q -10.03674,14.643305 -20.17165,29.224235 c -0.86518,1.253292 -1.71649,2.520446 -2.93398,4.305088 M 205.41272,211.26319 c -6.42587,6.44897 -13.04002,12.71196 -18.53256,20.03073 a 152.56437,152.56437 0 0 0 -14.35337,22.44259 c -2.31022,4.54766 -4.56961,9.11727 -6.85326,13.67648 -7.84549,-3.05179 -13.241,-8.77882 -16.92926,-16.09758 -6.26416,-12.43128 -8.09847,-25.7335 -7.16167,-39.5047 3.22275,0.2033 6.0955,-1.68299 9.34598,-1.5259 1.18167,0.0578 1.74074,-1.01072 1.84817,-2.31022 0.14323,-1.73266 0.64686,-3.44568 0.83514,-5.18412 0.60874,-5.64386 1.15511,-11.29696 1.69455,-16.9489 a 2.6567487,2.6567487 0 0 0 -0.85941,-2.68332 c -6.479,-4.80063 -10.35438,-11.56379 -13.56905,-18.6781 -3.91813,-8.65176 -6.61299,-17.6616 -6.83015,-27.29174 a 36.370889,36.370889 0 0 0 -1.10429,-5.79864 c -0.13515,-0.71386 -0.34653,-1.07194 -1.23943,-1.11814 -4.13991,-0.21485 -7.24715,-2.43266 -7.86398,-6.17521 -0.82936,-5.03858 -0.40775,-10.00786 2.44883,-14.51394 1.24521,-1.96368 2.9721,-2.62787 5.02703,-1.73266 5.19799,2.26748 10.13954,0.52904 14.99562,-0.97838 8.46232,-2.62787 15.29594,-7.993346 21.53468,-14.034562 2.95246,-2.858892 5.26729,-0.306103 7.39269,0.493231 a 154.02674,154.02674 0 0 0 21.92395,6.574876 c 7.14781,1.537445 14.18358,0.746195 21.26554,0.911385 1.46006,0.0335 2.92243,-0.823597 4.41021,-1.148182 2.25015,-0.489766 3.77373,0.278381 3.69634,2.779192 -0.26683,8.08575 0.81551,16.15303 -0.84323,24.28731 -1.01418,4.96696 -1.6749,10.03789 -2.92011,14.99561 a 90.413778,90.413778 0 0 1 -10.34861,24.20991 57.293363,57.293363 0 0 1 -18.34312,19.53519 c -2.465,1.57326 -2.05725,3.91697 -1.50164,5.88065 1.4485,5.10096 1.30527,10.39598 2.26979,15.55238 0.45395,2.43497 1.36302,3.51153 3.72984,3.5947 2.29405,0.0797 4.63314,-0.17096 6.83709,0.76006 m 54.54074,116.29166 18.11094,-0.0381 c -3.9447,1.26485 -7.99913,0.35578 -11.99349,0.58449 -2.0792,0.11551 -4.15839,0 -6.23759,-0.0162 a 0.5544519,0.5544519 0 0 1 0.11552,-0.52904 m -0.17443,-0.57178 18.51061,-0.11551 -0.22293,0.64686 a 141.36444,141.36444 0 0 1 -18.10863,0.0381 1.453126,1.453126 0 0 1 -0.17905,-0.57063 m 123.96043,4.91268 c 2.63365,4.1838 5.46251,8.20127 9.40374,11.29696 a 2.008733,2.008733 0 0 1 0.8929,2.49041 c -1.14587,3.76565 -2.11039,7.58906 -3.14305,11.39052 -3.1985,-4.01631 -3.20658,-4.02671 -7.59946,-1.47623 -2.51814,1.46237 -5.00739,2.96979 -7.51398,4.45641 0.88943,-6.05508 3.10955,-11.75669 4.72093,-17.61771 0.9726,-3.53925 1.61715,-7.19517 3.2343,-10.53921 M 247.75898,300.42136 c -2.99404,-0.27029 -5.32505,-2.08843 -7.83394,-3.44568 -1.91171,-1.03267 -1.6495,-3.00329 -1.22326,-4.66895 a 3.322091,3.322091 0 0 1 3.34172,-2.53431 c 5.77554,-0.25874 11.46445,0 16.87498,2.37144 a 4.2149895,4.2149895 0 0 0 3.27473,-0.0497 c -1.34108,-1.91748 -2.43728,-3.73562 -3.78529,-5.34353 a 6.4928627,6.4928627 0 0 1 -1.01072,-7.00458 c 0.49901,-1.24289 5.89105,-0.61105 7.69071,0.46205 6.12207,3.66053 10.42601,9.30208 15.49116,14.10849 0.39966,0.38003 0.6561,0.85131 1.27061,0.87095 0.022,1.96368 1.44851,3.02176 2.71335,4.15839 a 4.3281901,4.3281901 0 0 1 1.53168,4.65277 q -3.27704,11.193 -6.72389,22.33633 c -0.0797,0.26221 -0.70808,0.35577 -1.08233,0.52904 -2.74107,1.16204 -5.6196,0.53135 -8.42074,0.52326 -3.36021,-0.0115 -6.76547,0.57756 -10.08987,-0.40775 -2.95246,-0.0716 -5.90838,-0.16749 -8.86084,-0.21254 a 31.547158,31.547158 0 0 1 -11.16527,-2.60015 3.3706055,3.3706055 0 0 1 -2.54124,-3.31978 3.2758866,3.2758866 0 0 1 2.28943,-3.18694 c 3.07374,-1.28102 5.99616,-3.14883 9.55043,-2.83464 a 5.4128367,5.4128367 0 0 1 1.15511,-0.60643 2.6867815,2.6867815 0 0 1 -1.10775,-0.60066 l -0.008,-0.008 c -1.0985,-1.28333 -2.92242,-0.17904 -4.08792,-1.2429 a 15.349077,15.349077 0 0 1 -5.95228,-1.21517 c -2.36335,-1.15511 -3.72638,-2.65675 -2.98595,-4.997 a 4.8861073,4.8861073 0 0 1 4.42637,-3.13727 c 0.6561,-0.052 1.31683,-0.0693 1.97755,-0.10165 2.75147,-1.00033 5.60227,-0.53944 8.37107,-0.70462 a 11.939198,11.939198 0 0 1 -3.07375,-1.79042 m 216.69136,4.53496 c -1.84818,4.6805 -3.46533,6.00656 -8.21398,5.84484 -2.16005,-0.0716 -1.92556,1.42079 -2.28018,2.50428 -4.18727,12.76741 -11.04052,23.59539 -22.45761,31.14056 a 6.3530947,6.3530947 0 0 1 -1.69455,0.99686 c -5.95227,1.55939 -7.70688,5.44633 -6.32999,11.15603 a 10.184588,10.184588 0 0 1 0.10512,1.97524 23.053648,23.053648 0 0 1 -13.70421,10.19498 c -2.69717,0.69307 -5.04089,-0.88135 -7.37421,-1.91979 -4.79023,-2.13464 -7.84203,-6.40161 -11.61923,-9.77914 -0.46204,-3.3914 1.07425,-6.41547 1.84009,-9.56661 a 4.4968359,4.4968359 0 0 0 -1.49009,-4.86416 c -3.11879,-3.0876 -6.54715,-6.0932 -7.50012,-10.74251 a 74.51949,74.51949 0 0 1 -5.48445,-16.42563 57.791214,57.791214 0 0 1 -0.86171,-15.55238 78.796856,78.796856 0 0 1 5.35161,-22.31784 c 0.43548,-1.1759 1.47392,-1.12623 2.44883,-1.20363 10.79218,3.33827 21.62016,6.57257 32.35805,10.0841 2.76533,0.90329 3.89502,0.32458 4.78792,-2.34141 a 81.165982,81.165982 0 0 1 4.55575,-10.51148 c 0.96105,3.46532 -0.0993,6.82322 -0.39621,10.17766 -0.46204,5.16218 -0.60874,5.21762 4.30278,6.3219 a 96.891624,96.891624 0 0 0 27.44884,2.73299 c 3.30592,-0.20676 5.31349,1.60907 6.21679,4.7267 a 9.5954832,9.5954832 0 0 1 -0.008,7.36844 m -97.79838,161.26811 q 38.70652,-0.0451 77.41419,-0.0855 c 0.75197,0 1.5594,-0.11551 2.10692,0.62029 l -79.47144,-0.0855 a 0.68382401,0.68382401 0 0 1 -0.0474,-0.44933 M 328.32084,454.8674 c -0.2368,1.40231 0.99108,3.22853 -1.18168,4.0683 0.23103,-1.40462 -1.03959,-3.24239 1.18168,-4.0683 m 1.39653,43.64923 c -0.47937,-2.07111 1.34454,-3.2343 1.7188,-4.96696 l 0.91138,0.0358 v 10.18344 c -1.77425,-0.32805 -1.1297,-1.78002 -1.33069,-2.8485 -0.17673,-0.93333 0.49901,-2.3414 -1.30065,-2.40493 m 38.43045,-76.44622 a 148.58849,148.58849 0 0 1 -2.80923,26.02806 c -4.95772,0.73811 -9.71561,-1.10429 -14.61327,-1.13779 0.49901,-3.85921 2.97209,-6.87866 4.58925,-10.21924 4.15839,-8.57783 8.80654,-16.92118 13.42582,-25.67805 1.12969,2.39916 0.41353,4.647 0.46782,6.82322 -1.36303,1.13778 0.10742,2.99751 -1.06039,4.1838 m -39.58325,28.87655 c 4.54189,0.9726 8.71529,2.98596 13.02038,4.63545 0.99686,0.38234 1.96368,0.85709 2.94437,1.2891 -0.30033,4.82373 -2.79883,8.95787 -4.59733,13.21906 -1.74075,4.11565 -0.63877,7.02652 1.41847,10.43756 2.3518,3.90542 5.90838,7.39269 5.60574,12.50058 -0.0577,0.99454 0.43201,2.39107 -1.0985,2.72143 a 3.0887591,3.0887591 0 0 1 -3.23431,-0.94257 9.9189134,9.9189134 0 0 1 -2.96978,-4.62043 c -0.79009,3.38793 -1.54553,5.99155 -1.97177,8.64598 a 9.7849209,9.7849209 0 0 1 -2.56434,5.37934 c -1.0396,1.10198 -2.17391,1.75461 -2.76302,-0.43778 -1.4127,-2.37953 -0.11551,-5.08248 -1.10428,-7.45161 -0.65841,0.46205 -0.72772,1.60561 -1.52821,2.19471 0.41584,1.82623 -1.18167,2.9282 -1.64718,4.45179 -0.34654,1.11583 -1.66913,0.99108 -2.58051,0.78778 a 2.9108725,2.9108725 0 0 1 -2.36913,-2.71566 c -0.17673,-1.58365 0.39389,-3.24239 -0.57756,-5.17835 -0.93679,1.52012 -1.52012,2.99404 -2.78265,3.94123 -0.8594,0.64224 -1.61715,1.79042 -2.78497,1.09389 a 3.7887546,3.7887546 0 0 1 -1.83431,-2.86467 c -0.47359,-3.17077 1.18399,-5.89798 1.6056,-8.8747 a 43.734704,43.734704 0 0 1 2.67523,-9.28822 c 1.48432,-3.87885 3.56467,-7.5752 5.28924,-11.40669 1.37227,-3.0518 2.57243,-6.10359 2.42573,-9.52502 1.08234,-1.15511 0.0936,-2.91203 1.18167,-4.0683 q 0.11552,-1.96368 0.24258,-3.91928 M 124.7261,337.99819 c -4.24733,-2.66946 -8.05457,-6.00657 -12.91873,-7.7323 a 32.024218,32.024218 0 0 0 -9.50885,-2.40724 c 0.17904,-2.29751 1.5155,-1.74653 2.86236,-1.16204 a 44.501695,44.501695 0 0 1 18.54642,6.96876 c 1.56401,0.97838 2.95245,3.98859 5.57224,1.25099 0.55907,-0.5868 1.05461,0.46782 1.47623,0.8929 1.23943,1.2452 2.82308,2.21434 3.30823,4.07175 l -9.3379,-1.88167 m 40.64941,8.71414 c 4.63545,1.19322 9.38526,1.87358 13.97681,3.30245 a 117.46525,117.46525 0 0 0 11.43557,2.87853 c 5.24997,1.07194 10.59927,2.34949 16.0895,1.66913 1.16204,-0.14554 2.62556,0.17096 2.64982,-1.61715 0.0196,-1.31913 0.60066,-2.9744 -1.27062,-3.63282 -1.90939,-0.66649 -2.90625,-3.04602 -5.29386,-2.77225 -0.69999,-1.9891 0.8259,-1.72458 1.91979,-1.89785 2.01682,-0.32458 4.15146,0.63647 6.08164,-0.56716 1.43465,0 2.66946,-0.25065 2.58398,-2.10691 -0.0635,-1.37227 0.21716,-2.66946 -1.69685,-3.40411 a 43.316555,43.316555 0 0 0 -9.97436,-3.10146 8.65407,8.65407 0 0 1 5.32158,-0.69307 c 2.23167,0.21254 4.00014,-0.91138 5.86449,-1.64718 0.98877,-0.39158 2.21203,-1.52012 1.54553,-2.86467 a 6.8936853,6.8936853 0 0 0 -4.28661,-3.54272 c -4.90343,-1.63909 -9.97204,-0.84553 -15.19082,-1.31335 0.92408,-2.49273 3.50922,-2.60246 4.82026,-4.19767 1.21749,-1.47969 2.5759,-3.00328 0.97492,-4.79832 -1.44851,-1.61715 -3.04949,-1.52358 -5.39898,-0.73233 a 69.190976,69.190976 0 0 0 -12.12864,5.81481 42.659298,42.659298 0 0 0 -6.13131,4.01862 c -1.94982,1.61715 -3.81186,1.57788 -6.01349,0.79356 -4.89997,-1.74883 -9.85076,-3.36598 -14.77846,-5.03858 -0.0335,-3.60625 -0.14554,-7.21134 -0.0855,-10.81412 0.23102,-14.05882 3.60624,-27.46616 8.56628,-40.53275 0.3061,-0.80857 0.48168,-1.65873 0.71617,-2.49041 0.24834,-3.83149 2.82886,-6.76547 4.04287,-10.23888 0.71617,-2.04107 2.26748,-3.8569 3.27012,-5.89105 a 128.38218,128.38218 0 0 1 10.776,-17.08058 157.37078,157.37078 0 0 1 18.18256,-20.59558 8.0453281,8.0453281 0 0 1 3.46532,-2.34372 140.8227,140.8227 0 0 1 13.14975,-9.95818 c 4.89535,-2.03877 9.28591,-5.10674 14.29331,-6.94105 3.88347,-1.42078 7.77388,-2.72143 11.77055,-3.84304 4.35822,-1.22326 8.63559,-1.13432 12.96609,-1.07425 a 34.754893,34.754893 0 0 1 24.82096,10.5831 c 6.26069,6.28263 9.66826,14.18357 11.71511,22.81916 2.37144,9.9963 1.50164,20.0804 0.983,30.07093 -0.27492,5.21762 -1.78234,10.53112 -3.2782,15.71755 a 168.84562,168.84562 0 0 1 -5.72703,16.93735 c -1.3226,3.2447 -2.83117,6.41316 -4.25888,9.61281 -1.78811,0.42162 -2.47655,-1.12392 -3.47919,-2.01681 -4.33281,-3.85345 -7.78427,-8.68757 -12.94645,-11.62963 a 6.8648076,6.8648076 0 0 0 -1.67722,-1.02227 c -1.81236,-0.42739 -3.96664,-1.15511 -5.25805,0.44933 -1.29141,1.60445 -0.55098,3.58084 0.7462,5.12637 0.99686,1.18976 1.53399,2.66599 2.50428,3.86962 0.53943,0.6688 1.26138,1.41269 0.68267,2.3414 a 2.2559262,2.2559262 0 0 1 -2.66599,0.80858 c -2.11039,-0.59258 -4.32473,-0.87096 -6.36003,-1.59983 -3.56697,-1.28332 -7.17553,-0.69306 -10.77023,-0.74158 a 2.7041081,2.7041081 0 0 0 -2.96631,2.11269 3.2816622,3.2816622 0 0 0 1.73266,3.88348 c 2.17622,1.27062 4.63545,2.00758 6.62223,3.62473 0.36386,1.73266 -0.91138,1.91401 -2.07919,2.11038 a 6.1301588,6.1301588 0 0 0 -3.03794,0.77739 23.02708,23.02708 0 0 0 -6.40392,2.63826 c 0.10512,3.75411 2.85081,4.86416 6.03198,5.45904 a 5.9349455,5.9349455 0 0 1 2.50081,0.61106 c 0.61452,0 -0.58449,1.55939 0.88135,0.94719 a 3.7933751,3.7933751 0 0 1 2.87621,0.1929 1.2197942,1.2197942 0 0 1 0.1906,2.11038 c -3.11879,0.0497 -5.59419,1.88398 -8.32371,3.00328 -1.14009,0.46205 -2.20972,1.14356 -2.21203,2.58975 a 2.7803452,2.7803452 0 0 0 2.18662,2.60593 33.678332,33.678332 0 0 0 11.4887,2.48464 c 2.40147,-0.008 4.84221,-0.36617 7.21365,0.39158 a 1.3861297,1.3861297 0 0 1 0.68036,0.75775 1.3560969,1.3560969 0 0 1 -0.17327,1.01072 116.17615,116.17615 0 0 1 -20.67066,18.94377 c -2.09652,1.49587 -4.53726,2.72375 -6.12207,4.91383 -6.26069,3.14305 -12.33193,6.65458 -19.09971,8.73493 -13.27104,4.07407 -26.16782,4.40674 -38.32187,-3.43183 A 31.129009,31.129009 0 0 1 165.3732,346.72156 M 320.3737,161.72753 c -1.52937,-1.53745 -1.28102,-3.46532 -1.1759,-5.35739 1.55593,1.52821 1.30296,3.45724 1.1759,5.35739 M 95.978925,302.99263 c 2.021439,2.43728 1.026891,5.30542 1.137781,8.0153 -1.985631,-2.44305 -1.052303,-5.30195 -1.137781,-8.0153 M 490.93696,505.15619 c 1.23943,-2.9282 -0.76815,-5.95574 0.21716,-9.1704 1.32722,0.58448 1.18745,1.80428 1.60907,2.65675 -1.08003,1.20131 -0.37426,2.65675 -0.54521,3.97703 -0.12938,1.01419 0.23102,2.23398 -1.28102,2.532 M 11.277156,345.25342 c -0.07739,2.70526 0.47937,5.46482 -0.652636,8.69334 l -1.7927273,-4.80987 c 2.0907453,-0.49323 0.8455392,-3.08529 2.4465193,-3.88347 M 482.98404,505.12616 c 0.16287,-2.89817 -0.59257,-5.88412 0.85709,-9.19235 0.64224,2.0688 1.14587,3.68017 1.64488,5.29155 -2.182,0.43778 -0.84901,3.12688 -2.50081,3.9008 M 20.475283,350.43177 a 4.5626771,4.5626771 0 0 1 -1.529364,4.49799 c -0.471284,-3.40179 -1.2891,-6.47554 -0.950654,-9.70291 a 4.5349545,4.5349545 0 0 1 1.270619,3.4376 c 0.02195,0.80858 -0.09934,1.79851 1.205933,1.76847 M 366.65888,466.23251 c 0.99108,-1.35494 2.43728,-0.72771 3.66054,-0.72771 q 42.43405,-0.0289 84.86463,0.0242 c -1.46005,1.43465 -3.27819,0.44934 -4.90921,0.72426 -1.24174,0.20907 -2.62209,-0.44357 -3.73215,0.60296 a 1.0211156,1.0211156 0 0 1 -0.36039,-0.0878 7.47817,7.47817 0 0 0 -3.55889,-0.29801 q -36.19069,-0.0243 -72.37908,-0.0243 a 10.145315,10.145315 0 0 1 -3.58083,-0.21485 m 104.2254,-67.91112 10.76215,-7.75424 c 1.98101,1.9117 1.73266,4.60888 2.34949,6.96877 1.68299,6.45359 3.15344,12.96262 4.78445,19.76621 -4.11218,-0.46205 -8.00489,-0.90907 -11.89761,-1.35263 -2.04916,-5.85871 -4.4206,-11.60768 -5.99617,-17.62926 M 24.313707,374.39911 c -7.04616,0.65841 -13.899416,-1.59752 -20.9178531,-1.39422 A 87.352741,87.352741 0 0 1 0.91121644,347.15126 c 0.095874,-1.68877 0.62260316,-3.69634 2.52622136,-4.45178 1.5778777,-0.62838 2.6833162,0.5094 3.5392513,1.66913 0.5036271,0.67805 0.6930649,1.58712 1.1759001,2.27787 a 6.2248777,6.2248777 0 0 1 0.6722729,2.49041 c 0.42739,0.7 1.2706189,1.00033 1.6749069,1.86781 0.159405,-2.01913 0.0335,-3.94469 0.768147,-5.75128 0,-2.32523 1.093887,-4.24502 3.365985,-4.2635 2.303285,-0.0196 3.391397,1.89553 3.349813,4.23693 1.046528,2.18431 0.02195,4.78793 1.633323,6.83131 0.278381,-0.39158 0.4297,-1.09389 0.84785,-1.62524 -0.278382,-2.39338 0.799334,-4.48413 1.55593,-6.63032 0.393892,-1.11583 1.193227,-2.36335 2.468466,-2.18431 a 3.3498135,3.3498135 0 0 1 2.758398,2.79999 c 1.155109,4.41828 1.710716,8.77882 0.173267,13.21674 a 1.998337,1.998337 0 0 0 0.264519,2.01682 c 1.796194,-0.45396 3.107241,-1.82391 4.525714,-2.89816 1.699164,-1.2891 3.732154,-1.683 5.057063,-0.42393 1.187452,1.13201 0.825903,3.21236 -0.143233,4.86185 -3.191564,5.45096 -8.029157,9.29285 -12.811304,13.20751 M 471.8719,463.73748 c 4.83182,-2.04685 9.5874,-4.30855 14.88588,-4.96697 1.76616,10.0841 7.24715,18.81094 10.34861,28.39718 a 110.03906,110.03906 0 0 1 2.81269,12.35966 2.8958561,2.8958561 0 0 1 -1.61715,3.31632 3.012522,3.012522 0 0 1 -3.24239,-1.01419 26.574417,26.574417 0 0 1 -2.29751,-3.17655 c -1.98563,-0.78201 -1.20593,0.94719 -1.15511,1.49587 0.14901,1.74306 0.65264,3.47572 -0.66418,5.01086 -0.95874,2.09652 -2.05494,1.30296 -3.22507,0.18712 -1.19784,-1.13778 -2.30328,-2.30328 -2.22589,-4.11796 -1.12161,-1.23134 -2.1023,-2.50889 -1.69108,-3.91119 -0.20099,2.31599 0.21716,5.14831 -0.80857,7.81199 -1.67722,2.42573 -2.80692,2.50081 -4.0579,0.0358 a 30.748978,30.748978 0 0 1 -2.80922,-11.80058 c -1.9556,0.90907 -2.81846,2.63595 -4.22308,3.72984 -0.88712,0.69307 -1.87358,2.07111 -3.07374,0.89521 a 3.5461819,3.5461819 0 0 1 -1.21979,-3.82572 c 1.47392,-4.6031 4.12604,-8.53625 6.75738,-12.49134 1.85972,-2.79305 2.71104,-5.49485 0.90907,-8.85043 -1.5155,-2.82078 -2.29173,-6.03776 -3.39371,-9.07915 M 120.98586,324.09299 a 46.192774,46.192774 0 0 1 14.10387,10.88343 c 1.37458,1.59174 3.20081,3.15691 3.03332,5.66927 -1.56402,0.87095 -2.96632,0.87095 -4.0579,-0.76814 -2.1947,-1.71303 -4.08793,-3.91698 -7.39269,-3.48728 a 4.5661424,4.5661424 0 0 1 -2.93859,-1.36302 c -4.79024,-3.87886 -10.5808,-5.55376 -16.24891,-7.4955 -0.71617,-0.24488 -1.53745,-0.0277 -2.27788,-0.29802 a 4.7521148,4.7521148 0 0 1 -0.85362,-0.44587 c -2.9744,-0.80857 -5.979996,-0.39389 -8.930142,-0.27491 2.531997,0.23102 5.068612,-0.14555 7.508202,0.63068 8.41496,0.82591 15.49462,4.54998 21.77495,10.00786 0.28877,0.25066 0.20676,0.55907 0.0196,0.84554 1.74884,2.09075 3.58084,4.12027 5.20608,6.30458 0.63068,0.84785 2.10229,1.87821 0.22062,3.16269 -1.50164,1.02458 -2.26748,0.48976 -3.04602,-0.84323 -0.23102,-0.40545 -0.88135,-0.57063 -1.33877,-0.84554 -3.03793,-6.51712 -9.13922,-9.36562 -15.07301,-12.26378 a 35.668584,35.668584 0 0 0 -11.472532,-2.85659 7.3418672,7.3418672 0 0 0 -1.261378,-0.47937 53.750646,53.750646 0 0 0 -6.793191,0 6.100126,6.100126 0 0 0 -1.253292,0.48977 c -2.027215,-1.19554 -3.811857,-3.56697 -6.552928,-1.37458 -2.842721,-2.97209 -4.567298,0.0474 -6.353095,1.38035 -6.556394,4.87803 -9.996306,11.71742 -11.43557,19.58486 -0.534815,2.92012 -2.526222,1.10198 -3.793375,1.57788 a 46.674454,46.674454 0 0 1 2.641732,-11.126 c -1.848173,1.60329 -1.732662,4.19189 -4.398652,4.08793 -0.577554,-0.022 -1.062699,2.21434 -1.162039,3.55311 -0.09587,1.28679 0.15132,2.65675 -2.068798,2.4188 -2.333319,-0.25297 -1.983321,-1.74422 -1.691078,-3.05989 a 38.78622,38.78622 0 0 1 2.437278,-7.83163 c 0.38234,-0.83745 1.215173,-1.55362 0.924086,-3.24239 -1.080026,2.05263 -1.955598,3.63628 -2.751467,5.26152 -0.586795,1.20362 -1.233656,1.43811 -2.600149,0.9726 -1.732662,-0.5891 -1.231345,-1.54553 -0.773922,-2.51236 5.313497,-11.23343 13.660308,-18.87678 25.989932,-21.73913 0.507093,-0.11551 1.376889,-0.32228 1.523588,-0.10743 2.854272,4.19304 6.310356,0.41353 9.421062,0.58911 2.611699,0.14901 5.197986,-1.57326 7.970246,-1.73267 0.43201,0.0196 0.865176,0.0381 1.297186,0.0601 a 3.183478,3.183478 0 0 1 1.140092,-0.46782 c 4.917294,0.13515 9.864624,-0.67805 14.748424,0.48977 7.69648,0.62491 14.38109,3.8569 20.56092,8.22783 0.53713,0.38003 2.68332,0.87326 1.23135,2.6117 -1.1297,1.35494 -1.96369,1.35494 -3.44338,0.16749 a 41.50419,41.50419 0 0 0 -11.77517,-6.18445 c -1.33646,0.80858 -2.52853,-0.12937 -3.78529,-0.30264 a 4.6423795,4.6423795 0 0 0 -2.91434,-0.9391 c -0.42392,0 -0.83514,-0.11551 -1.25329,-0.1594 a 6.0631625,6.0631625 0 0 0 -0.633,-0.0243 c 0.11551,0.22294 0.37772,0.11551 0.54867,0.25643 a 4.2935369,4.2935369 0 0 0 2.74108,0.90676 9.0964764,9.0964764 0 0 1 5.29386,2.08497 m 339.0173,19.83206 c 4.2277,-0.25875 8.26596,1.37457 12.47517,1.26137 3.78182,-0.34653 5.54452,1.95329 7.17784,4.96697 4.93924,9.09301 10.0737,18.0786 15.23588,27.04454 a 2.5239112,2.5239112 0 0 1 -0.60874,3.76566 101.2741,101.2741 0 0 1 -12.64844,9.6105 c -2.60015,3.95509 -6.40738,6.23758 -10.76445,7.75424 -7.26332,4.66317 -14.43885,9.50076 -22.67246,12.38738 -1.91979,0.67227 -3.68018,1.13547 -5.45904,-0.49554 -1.69455,-1.55362 -1.49587,-3.20312 -0.85132,-5.07093 1.48778,-4.30855 4.74287,-7.41002 7.39269,-10.92732 0.94488,-1.25329 2.46038,-2.05263 3.22044,-4.00014 -2.86235,0.44587 -4.47604,2.532 -6.65804,3.49305 -3.83958,1.68876 -7.40193,4.10756 -11.76246,4.40211 -2.1462,0.14324 -4.18958,0.0196 -5.28924,-2.26401 -1.11006,-2.31022 -0.17905,-4.21499 1.22556,-6.02735 3.31632,-4.26697 7.80969,-7.13395 12.16907,-10.14185 0.56485,-0.38812 1.07656,-0.68267 1.30296,-1.33646 a 18.884863,18.884863 0 0 1 4.40443,-2.56434 c -2.04339,0.68613 -3.90889,1.79041 -5.96614,2.41533 -3.5173,1.14356 -7.04615,2.26748 -10.55306,3.43182 a 20.536667,20.536667 0 0 1 -9.90275,0.34654 c -0.25874,-0.0416 -0.42392,-0.67459 -0.63068,-1.0396 a 6.1290037,6.1290037 0 0 1 -0.0959,-5.34122 c 2.65675,-4.6805 7.22289,-6.9191 11.7821,-9.17271 q 4.73595,-2.34256 9.4511,-4.70707 l 6.37158,-2.37721 v -0.65264 c -2.66599,-0.56485 -5.35509,-1.03266 -7.98527,-1.72111 a 23.61503,23.61503 0 0 1 -6.77586,-2.43266 c -2.66946,-1.6749 -3.17655,-4.18957 -1.15511,-6.63032 2.23398,-2.69371 5.3135,-3.70443 8.69565,-3.9805 a 60.215786,60.215786 0 0 1 18.88256,0 M 355.17248,75.838307 A 13.328793,13.328793 0 0 1 342.41316,81.044379 11.219565,11.219565 0 0 1 331.89128,70.232567 C 330.95449,58.961022 330.42314,47.659445 330.44277,36.34054 a 35.10027,35.10027 0 0 1 0.38812,-3.618954 c -7.61332,10.070233 -17.84411,9.02717 -25.74736,5.66003 -2.82077,-1.203623 -5.58033,-2.553944 -8.34335,-3.889249 a 36.011651,36.011651 0 0 0 -15.51079,-3.73793 c -6.51134,-0.0797 -12.90833,-1.060389 -18.32579,-5.214158 -2.75147,-4.389411 -2.10692,-8.663311 0.86749,-12.55256 A 22.483024,22.483024 0 0 1 274.68224,4.8453619 C 286.36847,1.03235 298.03159,-1.350638 310.55643,0.83136119 325.40881,3.4211136 337.1655,9.8053962 344.55011,23.380227 c 7.56365,13.905192 12.44282,28.495362 12.38969,44.491299 a 17.885694,17.885694 0 0 1 -1.76847,7.970246 M 92.632577,250.20188 c 8.275193,5.11482 16.527283,10.27122 24.848683,15.30981 a 3.6189537,3.6189537 0 0 1 1.81468,3.21697 c 0.1594,2.29405 0.27029,4.59502 0.40198,6.89138 1.09619,2.60592 0.36039,5.37125 0.70808,8.04301 a 3.4514631,3.4514631 0 0 0 0.46204,0.96105 c 0.56716,7.42388 1.25329,14.83852 1.6391,22.27049 0.13515,2.58051 1.63332,3.2343 3.58084,3.90311 q 15.20122,5.1899 30.37934,10.44795 a 3.6547621,3.6547621 0 0 1 3.17308,0.0497 c 2.88777,1.0396 5.93841,1.69686 8.72107,2.99173 4.11796,1.91171 7.5417,1.29488 11.25191,-1.36072 4.48759,-3.21466 9.08146,-6.46167 14.79693,-7.47354 1.0396,-0.18482 1.87012,-1.47046 3.27242,-1.41039 1.9221,0.0832 3.48496,0.71039 4.2739,2.52853 a 4.1653199,4.1653199 0 0 1 -0.83168,4.59733 18.869846,18.869846 0 0 1 -3.96895,3.15922 12.032761,12.032761 0 0 0 4.74288,0.18713 c 3.5069,-0.60643 6.48708,1.24752 9.7029,1.89784 a 4.6758777,4.6758777 0 0 1 3.6744,4.23116 c 0.15941,2.09883 -1.5952,2.92012 -3.15113,3.81186 a 9.1138031,9.1138031 0 0 1 -6.72158,0.85131 c -0.42392,-0.0139 -0.16287,0.58449 -0.17326,0.14324 0,-0.0716 0.10742,-0.0878 0.31996,-0.0358 a 37.062799,37.062799 0 0 1 6.53329,2.20394 c 2.09884,0.97838 2.34718,2.70758 2.12078,4.69321 -0.22293,1.96368 -1.55362,2.47886 -3.25625,2.52853 a 100.91371,100.91371 0 0 1 -10.64085,-0.23102 c 0.98068,-0.0658 2.00295,0.91715 3.2805,1.08234 2.34949,0.25643 3.91467,1.95328 5.64964,3.22852 1.50972,1.11006 1.30065,2.93051 0.88943,4.57308 -0.39389,1.58711 -1.7523,1.7881 -3.10146,1.93596 -5.76515,0.63069 -11.38128,-0.46782 -16.93504,-1.71303 -6.94682,-1.55593 -13.74579,-3.77605 -20.79195,-4.91729 -1.5952,-0.25875 -2.3853,-1.84009 -3.92737,-2.0792 l -27.24669,-6.07471 c -1.88398,-1.58943 -2.50658,-4.06252 -4.23693,-5.83445 a 49.630375,49.630375 0 0 0 -11.32931,-8.91628 4.8757114,4.8757114 0 0 1 -1.92556,-1.76039 1.998337,1.998337 0 0 1 0.0878,-1.84817 c 2.89816,-0.85363 4.88957,1.35263 7.22289,2.2721 a 17.620019,17.620019 0 0 1 4.78446,2.85658 c 0.56715,0.47706 1.3584,1.15511 1.98909,0.31419 0.60297,-0.80165 -0.19059,-1.52012 -0.81781,-1.84817 -2.99751,-1.5698 -5.66003,-3.81186 -8.85622,-4.93116 a 59.515791,59.515791 0 0 0 -10.75406,-3.01945 5.544519,5.544519 0 0 1 -0.88134,-0.4736 c -4.92192,-0.36386 -9.84153,-0.90676 -14.717236,0.3604 a 1.2579127,1.2579127 0 0 1 -1.457747,-0.44588 l -0.115511,-6.36349 c -1.068475,-2.57589 -0.06584,-5.44287 -1.137781,-8.01529 -1.088112,-14.4146 -2.054938,-28.83497 -3.795685,-43.19411 -0.377721,-3.1188 -1.165505,-6.46861 0.449337,-9.5874 M 441.98925,361.71602 c -3.92736,-2.47309 -8.40456,-3.72984 -12.541,-5.72125 -3.1188,-1.50164 -3.87308,1.81467 -5.8564,2.5782 -1.81814,-3.16731 -0.78201,-6.58412 -0.81782,-9.90274 -0.008,-0.76815 0.91485,-1.17013 1.63101,-1.48778 14.56014,-6.40969 23.1218,-18.05087 28.18464,-32.61679 0.97491,-2.8046 2.11038,-4.58347 5.39089,-4.62043 3.05526,-0.0381 4.32704,-2.66368 5.77554,-4.85954 0.24488,-0.39967 0.50363,-0.79356 0.73581,-1.20131 a 6.7296599,6.7296599 0 0 0 -0.23911,-5.65195 8.5778329,8.5778329 0 0 1 -0.57756,-0.79356 c -1.46814,-2.76301 -3.75179,-3.6305 -6.84286,-3.53463 a 99.772464,99.772464 0 0 1 -27.43497,-3.18694 c -3.8338,-0.95874 -4.48413,-1.9556 -3.88347,-5.89105 0.41584,-2.72144 0.29224,-5.49832 0.86517,-8.24401 -1.14586,2.83464 -2.3749,5.61614 -3.57044,8.41265 -0.8952,2.09306 -2.28942,3.21698 -4.66086,2.49504 -10.42023,-3.17886 -20.83584,-6.36349 -31.19485,-9.73179 a 2.4603803,2.4603803 0 0 1 -1.76269,-1.36072 c -0.71386,-0.27491 -1.41848,-0.57755 -2.14619,-0.81781 -6.31382,-2.0353 -5.45442,-1.32491 -2.74338,-6.5691 5.85062,-11.32006 13.69611,-20.83584 25.849,-25.98069 3.86731,-1.63564 8.00721,-1.96369 12.07088,-2.67754 21.39492,0.73811 36.88607,12.98803 44.31226,34.97782 a 83.605571,83.605571 0 0 1 4.647,24.46635 c 0.43201,15.29363 2.69949,30.3574 5.3135,45.38997 -1.01881,1.18399 -2.34718,0.89521 -3.61087,0.68614 a 189.4874,189.4874 0 0 0 -8.65176,-1.21171 c -0.90098,-0.25066 -1.79619,-0.52095 -2.70526,-0.74389 a 69.856319,69.856319 0 0 0 -14.75073,-0.0913 14.669873,14.669873 0 0 1 -1.42425,0.64455 22.133027,22.133027 0 0 0 -6.12207,2.26747 c -1.59983,1.05808 -3.00328,2.28365 -2.79883,4.45988 0.19868,2.08497 1.82623,2.84849 3.47341,3.5173 2.95823,1.20131 6.15673,1.48778 9.19697,2.36913 1.28333,0.37194 3.32209,0.24488 3.37754,1.91979 0.052,1.57556 -1.93596,1.84817 -3.19272,2.40724 -1.02689,0.45165 -2.1023,1.37689 -3.30592,0.30611 M 110.3658,214.59914 c 7.02652,-0.36963 13.84975,-2.12078 20.75845,-3.25856 2.79536,-0.46204 5.69121,-0.44356 8.42651,-1.38613 1.63101,-0.56138 1.70725,0.83976 2.02144,1.85626 1.20362,1.7985 0.77392,3.83958 0.75429,5.78132 a 73.98814,73.98814 0 0 0 5.62768,29.9173 c 3.31632,7.85473 8.35952,14.15007 15.98439,18.2045 a 4.6758777,4.6758777 0 0 1 2.28134,1.81814 c 0.38003,1.5155 -0.41584,2.77919 -0.89752,4.09832 -4.37671,12.01313 -7.62372,24.24341 -7.80391,37.1529 a 63.155536,63.155536 0 0 0 0.0162,8.84235 5.1829701,5.1829701 0 0 1 -0.67227,3.80377 c -1.23135,0.73581 -2.34372,0.022 -3.44916,-0.34653 -9.06298,-3.01021 -18.02892,-6.31035 -27.12656,-9.2143 -2.88777,-0.92408 -4.58347,-2.63595 -4.6932,-5.59418 -0.27492,-7.23098 -1.82854,-14.3707 -1.53745,-21.63749 -0.0797,-2.44305 0.3061,-4.90574 -0.27029,-7.33263 a 9.9096726,9.9096726 0 0 1 -0.61683,-1.38613 2.2339791,2.2339791 0 0 1 -0.21716,-0.95527 c 0.96451,-6.38544 -2.54124,-9.78146 -7.74847,-12.54101 -5.61614,-2.9744 -10.84416,-6.66035 -16.23851,-10.04366 -0.91138,-0.57063 -2.011043,-0.96683 -2.333319,-2.182 -1.247516,-0.96105 -0.503627,-1.94521 0,-2.88777 q 8.855059,-16.36673 17.730909,-32.71844 m -8.45193,217.97352 c -5.178345,3.90311 -15.307488,3.61665 -20.458115,-0.57755 1.170125,-0.79587 1.140092,-2.01913 1.197847,-3.24239 0.107425,-2.29982 0.242573,-4.59733 0.435476,-6.89138 a 2.2882692,2.2882692 0 0 0 -1.394216,-2.6117 c -10.324356,-5.17834 -16.2928,-13.99298 -20.028419,-24.52641 a 45.758453,45.758453 0 0 1 -1.788108,-6.61646 c -0.346532,-1.79619 -0.16518,-5.03858 -4.11565,-4.0267 -1.305272,0.33613 -2.916648,-0.75429 -3.785289,-2.56434 -2.310216,-4.84568 -1.963684,-14.15585 5.597654,-15.10073 0.754285,-0.0936 1.255602,-0.40198 1.270619,-1.20131 0.09356,-4.65278 2.052627,-8.89434 2.930509,-13.37616 2.656749,-0.90329 3.445688,-3.25278 3.986278,-5.57224 1.479694,-6.36349 5.051288,-11.34893 9.818419,-15.60435 a 10.334752,10.334752 0 0 1 7.933283,-2.91434 13.023844,13.023844 0 0 1 7.073882,2.05263 c 2.699488,0.0913 5.396665,0.0162 8.085757,0.0358 9.702903,0.60296 17.929593,4.58924 25.047363,11.04052 1.41848,1.28332 2.52276,2.78727 2.04339,4.90343 7.13741,19.14361 6.31613,37.83326 -3.4041,55.91994 a 39.181267,39.181267 0 0 1 -17.18339,17.0956 3.268956,3.268956 0 0 0 -2.05725,2.98365 c -0.32459,3.60278 -0.79934,7.19516 -1.21171,10.78986 m 226.35499,14.3014 c 1.44388,-4.6112 2.75147,-9.26859 4.36631,-13.81741 1.96368,-5.51448 4.26697,-10.90537 6.26992,-16.40253 a 262.76746,262.76746 0 0 1 16.17152,-36.31314 c 3.72407,-6.80936 9.51462,-12.02352 15.80534,-16.58273 1.65874,-1.20131 3.27242,-2.46038 4.90575,-3.69635 2.62209,-3.64436 6.83131,-4.9531 10.48953,-7.04616 1.10198,-0.63068 2.11039,0.0739 2.91665,0.9033 0.84323,0.86171 1.61715,1.79273 2.49041,2.61978 3.14536,2.87622 5.73281,6.34617 9.48922,8.58015 7.00226,4.15839 10.61313,3.58083 17.11177,-1.96369 a 58.424214,58.424214 0 0 0 5.08248,-5.15871 c 2.5008,-3.18117 5.45904,-3.52077 9.00175,-1.73266 2.33563,1.17936 4.87571,1.9452 7.23676,3.10146 1.06616,0.52096 2.26747,0.91138 2.67523,2.22821 -0.0416,1.41269 -1.28333,1.6391 -2.19471,2.12078 -2.59784,1.37226 -5.17835,2.81499 -7.88592,3.94123 a 28.20081,28.20081 0 0 0 -10.83376,8.15852 c -1.60329,1.7962 -1.07656,3.4018 0.44934,4.91152 a 15.620527,15.620527 0 0 0 9.34944,-0.0358 c 3.57044,-1.01072 6.91679,-2.76533 10.66511,-3.17886 a 2.8531171,2.8531171 0 0 1 1.41848,0.50131 c 1.04999,1.61716 -0.42393,2.04108 -1.30066,2.77226 -3.19271,2.65675 -6.89484,4.6574 -9.71561,7.81431 -2.77226,3.10147 -3.71829,5.44518 -2.22012,7.1917 2.1127,2.45692 4.82027,1.58943 7.31068,0.72772 a 58.896653,58.896653 0 0 0 11.22996,-5.4729 c 0.46782,-0.28647 0.8929,-0.64455 1.38613,-0.88712 0.92409,-0.44357 1.93365,-0.8594 2.67177,0.1594 0.66072,0.91485 -0.0555,1.73266 -0.69307,2.28943 -2.49619,2.21203 -4.12604,5.11828 -6.25837,7.61678 a 14.582085,14.582085 0 0 0 -2.94784,5.46828 c -0.90907,3.15345 1.20593,5.35508 4.33859,4.41829 a 37.063954,37.063954 0 0 0 8.23014,-3.32787 c 4.34898,-2.54817 8.76265,-4.98891 13.00652,-7.71612 0.88712,-0.56716 1.70263,-1.49009 2.96401,-0.94257 2.30328,5.1899 3.80377,10.67089 5.80442,15.96822 a 1.848173,1.848173 0 0 1 -0.17096,1.87012 c 4.13182,12.5052 7.53939,25.22294 11.19415,37.87022 0.5533,1.9117 0.73812,3.72984 -1.32491,4.94155 a 53.31517,53.31517 0 0 1 -14.88241,4.96696 c -2.02952,-0.77392 -2.31599,-2.87044 -3.11879,-4.44254 -5.96382,-11.62732 -11.77517,-23.33319 -17.65698,-34.99978 -0.43201,-0.85709 -1.0396,-1.62755 -1.97177,-3.07952 1.50164,10.47799 3.01945,20.2144 4.25888,29.97506 0.60643,4.77868 1.84817,9.48113 1.80659,14.34067 -4.36284,0.39389 -8.74301,0.56138 -13.11741,0.57755 -24.73317,0.0993 -49.46404,-0.0658 -74.19721,0.0936 a 3.1349634,3.1349634 0 0 0 -1.16204,0.4736 0.80857568,0.80857568 0 0 1 -0.40776,0.12937 c -3.32209,-1.08811 -2.42572,-3.81186 -2.02721,-5.99386 a 52.183164,52.183164 0 0 0 1.06039,-12.71543 c -0.86171,-0.98877 -0.47937,-2.04107 -0.1236,-3.07143 a 11.263459,11.263459 0 0 0 0.48168,-3.86152 c -0.0832,-6.29996 1.77887,-12.4255 1.67722,-18.72546 a 6.9306487,6.9306487 0 0 0 1.07656,-4.33281 c 0.0162,-1.30296 0.0196,-2.60593 0.0635,-3.95047 -5.98577,9.35637 -10.54152,19.40581 -15.5466,29.22423 a 9.369082,9.369082 0 0 1 -2.23975,3.58084 c -2.60593,2.64173 -3.86962,6.02966 -5.16218,9.38987 -0.23911,0.62838 -0.34653,1.00841 -1.03036,0.52096 -2.12886,0.57755 -3.81763,-0.69307 -5.5526,-1.47046 -3.45147,-1.53976 -7.42388,-1.85626 -10.41446,-4.45178 -1.60329,-1.25099 -1.28679,-2.64405 -0.30264,-4.08447 m -7.71958,-279.42412 a 56.199475,56.199475 0 0 1 -19.38618,8.98559 31.418941,31.418941 0 0 1 -10.56347,1.04653 15.824981,15.824981 0 0 1 -11.14448,-5.30195 c 0.0196,-4.40211 -0.0277,-8.80654 0.0936,-13.20288 a 3.5958516,3.5958516 0 0 0 -2.05724,-3.7183 c -11.33277,-5.78709 -18.81325,-15.21393 -24.27922,-26.32838 -8.41843,-17.11524 -10.83492,-35.481456 -9.07684,-54.194208 1.57326,-16.755998 6.48709,-32.724213 15.79148,-47.039468 0.67227,-1.032667 1.34108,-2.34718 2.99173,-2.142726 a 2.9732483,2.9732483 0 0 1 2.47886,0.584485 c 5.38743,2.87853 11.26115,3.707897 17.22729,3.845355 a 33.825031,33.825031 0 0 1 13.06542,3.021763 c 5.21763,2.29982 10.14532,5.34353 15.87697,6.373887 6.51712,1.170124 12.2245,-0.190593 16.75599,-5.293861 a 12.544474,12.544474 0 0 1 1.1401,-1.187451 c 1.2891,-1.112369 2.0249,-0.652636 2.07919,0.889433 0.052,1.644874 -0.28878,3.283973 -0.23911,4.939242 0.30033,10.208846 0.6561,20.416537 1.43811,30.59997 0.33036,4.294692 2.00758,7.903249 6.26415,9.729475 a 12.426653,12.426653 0 0 0 12.81477,-1.33877 c 1.05231,-0.74389 1.87359,-1.923255 3.37407,-1.859724 1.40462,1.542069 3.58084,1.702629 5.13446,3.266646 5.99386,6.051611 4.54188,19.196742 -1.84817,24.118662 -1.9221,1.48431 -4.20344,2.52275 -6.67422,0.96451 -1.41616,-0.8929 -1.9117,-0.6226 -2.41879,1.06848 a 106.72159,106.72159 0 0 1 -10.33476,24.45248 c -4.77406,7.97718 -10.32666,15.26822 -18.09477,20.54129 -2.54816,1.73266 -1.65873,3.94701 -1.74652,6.12207 0.7462,1.70725 0.42162,3.65246 1.1759,5.3574 l 0.16518,5.70161 m -88.74696,7.34533 c -2.05724,2.29982 -2.48463,5.38743 -3.59238,8.08576 a 79.227711,79.227711 0 0 1 -8.0488,15.04182 c -0.71616,1.03959 -1.64718,1.99949 -1.59173,3.40757 -1.03267,2.56434 -3.65246,3.36829 -5.57802,4.91383 -2.54124,2.04107 -4.96119,4.30855 -8.08576,5.51448 -1.97754,-0.0993 -3.95509,-0.20907 -5.93032,-0.3061 -3.12919,-0.15132 -4.24503,-1.35263 -4.89997,-4.28892 -1.19554,-5.36894 -1.10429,-10.91577 -2.47309,-16.26277 -0.73234,-2.85889 0.52096,-5.12868 2.88777,-6.84517 16.54115,-12.02121 24.24341,-29.23116 28.79569,-48.44754 2.3853,-10.06561 2.63365,-20.20169 2.46269,-30.42093 -0.0739,-4.50492 -0.81781,-5.1102 -5.09633,-3.8673 -2.93051,0.84784 -5.90838,0.36385 -8.85853,0.57062 -11.22187,0.7797 -21.79689,-2.032991 -32.17091,-5.826367 -9.57239,-3.501132 -9.69598,-3.751791 -17.28504,2.699488 a 47.766031,47.766031 0 0 1 -21.31521,10.580789 18.338497,18.338497 0 0 1 -9.12536,-0.23102 c -2.95592,-0.8594 -4.10987,-0.20676 -5.53643,2.54124 a 18.749715,18.749715 0 0 0 -1.64718,11.24729 7.3152997,7.3152997 0 0 0 6.35309,6.54484 2.8588926,2.8588926 0 0 1 2.75147,2.33332 37.141346,37.141346 0 0 1 1.31913,6.44897 69.783547,69.783547 0 0 0 13.59909,37.56643 30.549144,30.549144 0 0 0 5.88065,6.61415 c 2.17854,1.63678 2.0792,4.29469 1.48201,6.40738 -1.69108,5.99617 -0.76006,12.26032 -2.30329,18.27959 -0.72772,2.83117 -1.90015,4.37093 -4.76251,4.36861 -2.60015,0 -4.99931,2.06303 -7.71496,0.73234 -2.45692,-1.69107 -5.15641,-0.86748 -7.60755,-0.34653 -6.18445,1.31913 -12.47516,1.98563 -18.64575,3.3683 -1.56518,0.34653 -3.25625,0.60643 -4.68281,-0.60644 -3.15922,-3.58083 -3.68595,-8.26133 -5.15987,-12.52252 -2.97209,-8.5917 -4.6574,-17.53223 -6.222568,-26.45198 -2.45114,-13.96295 -4.022087,-27.94784 -2.148501,-42.25501 1.380354,-10.54729 2.329853,-21.1662 4.424059,-31.59221 3.33827,-16.646264 6.85904,-33.335266 17.01244,-47.510753 8.3907,-11.70702 24.37971,-17.689325 38.93176,-7.197478 1.78811,1.291411 2.55626,0.330361 3.58084,-0.443562 a 35.600432,35.600432 0 0 1 21.88814,-7.775033 c 11.92765,-0.01964 21.83155,4.465648 29.23463,13.756183 6.94105,8.712981 13.58292,17.656983 17.97926,28.061042 a 107.68264,107.68264 0 0 1 8.59054,36.248451 c 0.64455,11.75092 0.65264,23.53533 -1.38613,35.1869 a 163.85786,163.85786 0 0 1 -4.51185,19.1748 c -0.34653,1.14356 -0.53135,2.33563 -0.79356,3.50691 m 96.46885,272.0811 c -17.40054,-0.0774 -34.7572,-1.58135 -52.1797,-1.38613 -13.20519,0.15131 -26.38844,-1.84818 -39.63291,-1.05 -1.04999,-7.80044 -2.14273,-15.59396 -3.1315,-23.40249 a 4051.7716,4051.7716 0 0 1 -3.58083,-29.38017 c -0.66072,-5.5503 -1.58712,-11.09828 -1.78002,-16.66821 -0.17674,-5.05476 2.11038,-9.79763 3.00328,-14.74842 0.50709,-2.79306 1.37226,-5.52258 2.07919,-8.28328 -0.44125,-1.0627 0.23102,-1.6056 0.98069,-2.13464 a 153.74489,153.74489 0 0 0 24.46634,-21.03914 4.4321499,4.4321499 0 0 1 1.84818,-1.31683 c 4.35822,-0.55907 8.72915,-0.11551 13.09199,-0.26683 a 10.610823,10.610823 0 0 0 3.5612,-0.30032 7.178997,7.178997 0 0 0 0.76353,-0.68267 11.75438,11.75438 0 0 0 2.39685,-4.97967 c 1.36649,-5.61383 3.2343,-11.08904 4.73594,-16.66244 a 4.4702684,4.4702684 0 0 0 -1.29719,-4.7706 6.0065622,6.0065622 0 0 1 -2.31021,-4.85145 7.2263564,7.2263564 0 0 1 0.94718,-3.45724 128.74373,128.74373 0 0 0 11.16181,-34.60588 c 1.82854,-9.75374 1.50165,-19.54905 0.7104,-29.1711 A 43.227611,43.227611 0 0 0 282.01375,200.8349 35.318586,35.318586 0 0 0 259.45911,190.39272 c -10.25852,-0.91138 -19.73618,1.8759 -28.94817,6.08165 -3.85113,1.75692 -7.25292,4.56961 -11.6458,5.08247 -1.34916,-1.36071 -0.65841,-2.62209 0.25297,-3.80146 4.90344,-6.34385 7.73923,-13.72268 10.627,-21.08072 0.37194,-0.95296 0.36963,-2.3518 2.05494,-1.89207 5.94418,-2.88777 12.40124,-3.38215 18.81324,-3.7102 5.78709,-0.29456 11.55108,-0.73581 17.30121,-1.38613 0.54521,-0.0601 1.21979,0.0693 1.61715,-0.20677 4.4206,-3.1315 7.63065,-1.96368 9.92238,2.68332 2.54124,0.24488 4.07984,2.41071 6.37735,3.2343 8.30176,2.97209 15.92663,0.36039 23.48797,-2.63596 3.84767,-1.52358 7.30259,-3.93314 11.23343,-5.32504 4.2739,-4.45988 8.22552,-3.46533 12.45899,0.32458 2.85428,2.55394 6.55871,3.15114 10.45373,3.18117 10.51957,0.0855 21.04492,-0.42393 31.54485,1.21748 6.69039,1.0396 11.85834,3.5612 15.65749,9.42915 8.6275,13.3184 14.84429,27.7792 20.92594,42.32663 2.27787,5.45442 4.43215,10.96313 6.64072,16.44412 -0.0381,1.28101 -1.08234,1.2787 -1.89207,1.32491 -11.38128,0.68613 -19.63684,6.96068 -26.82392,15.05683 a 62.589533,62.589533 0 0 0 -9.44648,14.61789 c -0.79009,1.64141 -0.36386,2.17045 1.23135,2.82078 1.39883,0.57062 4.04288,-0.008 3.63859,2.92242 -3.05526,4.06598 -4.25311,8.97173 -5.10096,13.7146 a 77.475412,77.475412 0 0 0 -1.71649,11.31313 63.688041,63.688041 0 0 0 5.68313,27.71104 4.9276912,4.9276912 0 0 1 0.53135,1.88629 c -1.9221,8.27982 -4.63545,16.34016 -6.83362,24.54259 a 20.366866,20.366866 0 0 0 -0.77969,3.49882 c -0.68036,2.43266 -3.10956,2.98018 -4.79601,4.26119 -7.06811,5.37356 -13.22715,11.49217 -17.39247,19.4578 a 326.38504,326.38504 0 0 0 -17.78173,41.77217 q -3.32209,9.29631 -6.56101,18.62035 a 5.2511215,5.2511215 0 0 1 -1.93943,2.98018 m -195.38654,83.33296 -2.9744,-44.34807 c 0.3165,-0.052 0.63646,-0.10165 0.95527,-0.15132 q 8.93245,22.2497 17.87183,44.49939 z m 223.25468,0.001 c 1.47623,-8.87239 3.00328,-17.739 4.4206,-26.61947 1.96368,-12.24415 3.83958,-24.51255 5.75705,-36.77056 a 2.3910738,2.3910738 0 0 1 1.08003,-0.70808 14.409974,14.409974 0 0 1 3.60856,-0.23102 q 35.44334,-0.0127 70.88552,0 a 13.107012,13.107012 0 0 1 3.60625,0.25066 2.5989933,2.5989933 0 0 1 1.06385,0.7358 c 2.11847,16.21656 4.28892,32.42389 6.31844,48.64853 0.61452,4.88958 1.73266,9.72602 1.67722,14.69298 z m -109.64518,-0.001 c -0.0115,-6.72966 -1.34108,-13.32879 -2.08497,-19.98337 -1.53976,-13.75849 -3.37407,-27.48464 -5.05475,-41.22696 -0.99686,-8.18164 -1.92787,-16.37366 -2.88777,-24.55991 1.18976,-1.3226 2.8046,-1.11006 4.31086,-1.12161 6.26647,-0.0497 12.62996,-0.73234 18.77744,0.12359 15.56046,2.16814 31.18215,0.19522 46.69294,1.38613 6.9884,0.53713 13.9872,0.87326 20.97099,1.38036 2.52853,0.93679 0.70808,3.52885 1.88975,4.98544 a 6.7319701,6.7319701 0 0 1 -0.23102,3.58084 6.0238888,6.0238888 0 0 0 -0.90329,4.15839 20.420001,20.420001 0 0 1 -2.79537,11.01049 88.219072,88.219072 0 0 0 -6.32768,14.41228 c -1.12161,3.58084 -1.84817,7.37999 -2.62787,11.10059 -0.30841,1.45428 -0.53481,3.36368 1.23366,4.04288 1.68876,0.65033 2.39107,-1.07656 3.2343,-2.17045 0.57062,-0.7358 0.82359,-2.03876 2.11847,-1.59751 1.11814,0.38234 1.02689,1.56748 1.14355,2.53084 0.0658,0.54521 0.0439,1.0962 0.11552,1.64141 0.14554,1.132 0.44933,2.21781 1.68876,2.58051 1.43003,0.4193 1.87012,-0.76584 2.44075,-1.6853 0.51517,-0.83168 0.72771,-1.84818 1.53976,-2.4985 1.55362,-0.37772 1.82853,0.71848 2.08843,1.81814 0.23911,1.02458 -0.0832,2.21434 0.88366,3.01945 2.04916,1.27062 2.532,-0.53712 3.05757,-1.72111 1.24174,-2.80691 1.55593,-5.90029 2.48233,-8.81463 0.25874,-0.80858 0.16749,-1.90362 1.18398,-2.17622 1.11584,-0.29456 1.40808,0.782 1.87821,1.47969 a 5.0200999,5.0200999 0 0 0 0.35577,0.55676 c 0.99224,1.10429 1.79042,2.77226 3.68018,1.96369 1.03959,-0.44126 0.75775,-4.16994 0,-5.48446 -2.24207,-3.87539 -4.69898,-7.64681 -6.64996,-11.66659 -1.18399,-2.44652 -0.6665,-5.07092 0.45165,-7.62371 a 75.74275,75.74275 0 0 0 4.75211,-12.5387 c 1.65527,-2.57589 2.64751,-5.49023 4.17341,-8.13427 0.78547,-1.3665 1.52821,-2.69141 3.33248,-2.83117 4.76483,0.0739 9.38988,1.1551 14.05651,1.9452 1.91171,3.81763 0.59489,7.67454 0,11.48062 -0.39389,2.56203 -0.54521,4.95772 1.15511,7.12817 0.80858,2.54124 -0.0219,5.02934 -0.40544,7.48741 q -4.0244,25.86518 -8.15044,51.71419 c -0.25066,1.57326 -0.16749,3.37176 -1.91748,4.31664 z M 101.90925,432.56458 a 3.3347971,3.3347971 0 0 0 3.16269,-1.98101 c 1.24174,-2.34949 3.09915,-2.55048 5.3828,-2.34949 4.26119,0.37772 8.58823,-0.1906 12.81362,0.77161 7.88938,1.79619 13.03193,7.30837 17.37629,13.52747 7.27718,10.42832 11.96807,22.12956 16.15534,34.07569 3.46532,9.90274 6.17521,20.01456 8.77882,30.14832 1.98332,7.72652 3.31632,15.61822 4.93924,23.43599 h -21.79689 a 7.5082028,7.5082028 0 0 1 -2.465,-3.42143 c -5.01317,-12.78358 -10.26313,-25.47129 -15.16426,-38.06543 -0.23102,8.10077 1.81237,16.2928 1.38613,24.63152 -0.21254,4.19189 0.60875,8.31678 1.0396,12.459 0.16287,1.53167 0.49901,3.07143 -0.65841,4.39634 H 46.339308 c 0.0081,-17.04247 0.167491,-34.08724 -0.410063,-51.12509 a 85.923873,85.923873 0 0 1 -0.01964,-10.55306 c 0.31419,-3.54272 -1.07194,-5.40475 -4.042878,-7.28874 C 30.485449,454.01956 19.581229,446.1267 10.147461,436.41224 5.75805,431.88884 1.7382738,427.05587 0.87887341,420.5272 A 92.466405,92.466405 0 0 1 0.19735962,401.77055 C 0.76798303,393.88694 1.5060971,386.01719 2.2661582,378.15321 a 42.615404,42.615404 0 0 1 1.1296957,-5.14485 c 2.1739135,-1.54554 4.6828084,-1.2891 6.9306481,-0.70808 a 40.924326,40.924326 0 0 0 10.348614,1.0523 c 1.289101,0 2.649818,-0.0774 3.636281,1.04999 0.05198,10.67089 0.151319,21.34294 0.11551,32.01382 a 4.7960089,4.7960089 0 0 0 2.361041,4.55575 c 8.225525,5.58379 16.328609,11.33508 25.479375,15.39759 a 21.452668,21.452668 0 0 0 9.805713,2.21434 c 3.73562,-0.16287 7.492031,0.10165 11.219565,-0.13514 3.427206,-0.21716 6.459365,0 8.164304,3.54271 3.09569,0.49554 5.798643,2.41302 9.125355,2.24438 3.363674,-0.17327 6.771243,0.21485 9.82881,-1.68299 a 1.1909165,1.1909165 0 0 1 1.50165,0.0139 m 144.56409,97.62743 h -75.95876 c -1.12623,-0.56716 -1.33646,-1.60907 -1.53744,-2.73299 -2.04686,-11.46445 -4.75443,-22.77758 -7.86167,-33.99714 -3.93661,-14.21938 -8.63559,-28.16847 -15.61822,-41.22466 -3.63281,-6.79319 -7.60523,-13.39232 -13.92945,-18.1583 a 21.013727,21.013727 0 0 0 -14.40073,-4.7163 37.835566,37.835566 0 0 1 -5.27192,-0.008 c -2.73529,-0.2033 -5.21415,-0.0601 -7.01843,2.48464 a 2.2039463,2.2039463 0 0 1 -3.19503,0.69999 c -0.68036,-4.07637 0.17327,-8.04879 0.91138,-12.01312 0.2368,-1.27062 1.37227,-1.93134 2.43728,-2.54124 13.42351,-7.62371 20.01456,-19.85746 23.02477,-34.41529 a 64.917076,64.917076 0 0 0 -1.89207,-34.09879 5.3412199,5.3412199 0 0 1 -0.39158,-2.88777 c 0.38812,-1.07656 1.06039,-0.87557 1.76847,-0.36386 0.70808,0.51171 1.44042,1.34686 2.18662,0.30033 0.65033,-0.91485 -0.24488,-1.63563 -0.79356,-2.24553 -1.37689,-1.53745 -2.62556,-3.18464 -3.99436,-4.7267 -0.77623,-0.87558 -1.17937,-1.67722 0.43778,-2.05494 a 28.772588,28.772588 0 0 1 8.74533,1.76038 c 1.3688,1.06617 2.98018,0.81782 4.54766,0.82591 7.79582,1.27754 15.41954,3.37753 23.19341,4.74287 a 9.5204011,9.5204011 0 0 1 3.39371,1.20362 c 3.17308,3.17886 5.78709,6.93065 9.50885,9.55852 9.32403,6.6026 19.65648,8.311 30.75476,6.2861 a 78.696361,78.696361 0 0 0 23.9812,-9.04103 c 1.1551,-0.63878 2.40724,-2.31022 4.01053,-0.57756 -0.63069,5.92224 -2.48695,11.58343 -3.78529,17.35897 a 26.091582,26.091582 0 0 0 -0.60874,9.15077 c 1.6056,12.30767 3.0414,24.6373 4.55344,36.95537 1.17936,9.5874 2.28364,19.19328 3.63628,28.76219 3.33248,27.00065 6.55639,54.01401 9.94086,81.00658 0.2033,1.63563 0.42739,3.29437 -0.77393,4.71053" />
</svg>
