<svg
   version="1.1"
   id="svg1"
   width="1168"
   height="1049.7242"
   viewBox="0 0 1168 1049.7242"
   xmlns="http://www.w3.org/2000/svg"
   xmlns:svg="http://www.w3.org/2000/svg">
  <defs
     id="defs1" />
  <g
     id="g1"
     transform="translate(-1257.8469,16.226785)">
    <path
       style="fill:#000000"
       d="m 2099.4827,1031.4702 c -14.3812,-3.1092 -23.0944,-8.2873 -27.4381,-16.3062 -2.702,-4.9881 -2.2898,-16.8905 0.7943,-22.9354 6.6019,-12.9402 23.2014,-19.2637 53.3658,-20.3295 l 16.8579,-0.5957 -0.412,-10.1001 c -0.5716,-14.0114 -3.9752,-20.2123 -13.1758,-24.0042 -7.3524,-3.0302 -26.9132,-1.622 -28.3179,2.0386 -0.3187,0.8304 0.4305,2.8759 1.6649,4.5454 4.7464,6.4199 3.3541,14.4224 -3.1808,18.2827 -6.0739,3.5879 -15.0479,-1.0864 -16.2987,-8.4894 -0.548,-3.244 -0.2001,-4.8014 1.8567,-8.3111 4.8878,-8.3404 14.6808,-12.6177 30.6479,-13.3861 28.2097,-1.3575 46.6775,8.6196 54.0963,29.2253 1.9249,5.3465 2.2274,8.8305 2.7817,32.046 0.7096,29.7164 0.9112,30.5 8.3679,32.5256 2.3398,0.6355 4.8166,1.315 5.5041,1.5099 0.6875,0.1949 1.25,1.0436 1.25,1.8858 0,1.322 -2.6247,1.5314 -19.1953,1.5314 h -19.1953 l -2.6621,-2.5504 -2.662,-2.5505 -3.4601,2.0415 c -10.6676,6.294 -24.2492,7.5887 -41.1894,3.9264 z m 32.3642,-4.0768 c 1.925,-0.6035 5.1957,-2.164 7.2683,-3.4679 l 3.7684,-2.3706 -0.2684,-23.1097 -0.2683,-23.1097 -10.5,0.1616 c -13.0029,0.2002 -18.9462,2.0621 -24.6392,7.719 -6.6389,6.5967 -9.2377,20.0479 -6.2022,32.1029 1.4349,5.6984 7.0555,11.6037 12.4613,13.0927 4.2623,1.174 12.9167,0.6946 18.3801,-1.0183 z m 224.5,3.8505 c -25.435,-7.0277 -36.9848,-24.6219 -35.1838,-53.5966 1.8692,-30.0728 19.8144,-46.051 51.6838,-46.0189 17.8579,0.018 30.4379,4.3013 39.6488,13.5001 8.946,8.934 13.3512,21.0562 13.3512,36.7394 0,14.3656 -3.211,25.2939 -9.9124,33.7353 -4.7865,6.0293 -6.6016,7.5381 -13.1946,10.9677 -13.4831,7.0138 -31.3923,8.8177 -46.393,4.673 z m 28.3392,-4.3859 c 8.199,-3.8484 11.1616,-15.6985 11.1594,-44.6358 0,-29.1024 -2.8767,-40.4452 -11.2809,-44.5136 -5.9175,-2.8646 -17.1844,-2.9283 -22.6733,-0.128 -9.3621,4.7761 -11.4066,13.9705 -10.7898,48.5226 0.4809,26.9319 1.4771,32.6932 6.5263,37.7425 5.5546,5.5546 18.5579,7.0022 27.0583,3.0123 z m -1038.1177,4.2521 c -10.2265,-2.8126 -14.8298,-7.7574 -23.6934,-25.4508 -3.829,-7.6434 -7.3444,-14.1335 -7.8119,-14.4225 -0.4676,-0.2889 -3.6174,2.9378 -6.9996,7.1705 -5.5022,6.8857 -6.1472,8.1697 -6.1267,12.1959 0.013,2.475 0.5601,6.0594 1.2165,7.9654 1.3891,4.0331 6.7352,8.0346 10.7345,8.0346 2.578,0 4.5473,2.0784 3.2235,3.4022 -0.3288,0.3288 -13.8308,0.5978 -30.0044,0.5978 -27.3698,0 -29.3835,-0.1202 -29.0726,-1.7348 0.2121,-1.1015 1.6079,-1.9465 3.8233,-2.3148 5.1608,-0.858 7.5351,-2.4736 9.395,-6.393 1.4772,-3.1129 1.634,-7.6016 1.3804,-39.5165 l -0.2861,-36.0046 -3.0934,-3.0923 c -2.1047,-2.104 -4.4219,-3.2705 -7.25,-3.6498 -3.1934,-0.4283 -4.1566,-0.9905 -4.1566,-2.4259 0,-1.782 1.3571,-1.8683 29.393,-1.8683 24.2938,0 29.4863,0.2433 29.9311,1.4022 0.7313,1.9059 -0.159,2.5978 -3.3429,2.5978 -3.9461,0 -9.2938,4.0251 -10.6748,8.0346 -1.7372,5.0439 -1.7887,52.2859 -0.056,51.7335 2.2863,-0.7291 42.75,-53.1488 42.75,-55.3817 0,-2.1088 -2.8383,-3.8491 -7.4885,-4.5918 -1.0937,-0.1747 -2.1415,-1.1115 -2.3283,-2.0819 -0.3149,-1.6349 0.8207,-1.7441 15.4885,-1.4885 12.7102,0.2215 15.8283,0.5495 15.8283,1.6651 0,0.813 -1.8875,1.8686 -4.5495,2.5445 -2.5022,0.6354 -6.1353,2.1353 -8.0736,3.3332 -3.44,2.1261 -23.0581,25.97 -23.7003,28.8053 -0.1978,0.8736 0.4632,1.4277 1.703,1.4277 6.0795,0 7.1934,1.5351 21.0429,29 10.0697,19.9692 12.4809,23.334 17.9924,25.1072 4.3504,1.3997 6.4437,2.9449 5.3775,3.9695 -2.8343,2.7237 -22.5193,3.6447 -30.5709,1.4302 z m 195.9545,0.06 c -10.6392,-3.0811 -15.4825,-8.6352 -25.6449,-29.4083 -3.0078,-6.1484 -5.7983,-11.0618 -6.201,-10.9186 -0.4026,0.1432 -3.2291,3.3985 -6.2811,7.2339 l -5.549,6.9732 v 7.1416 c 0,9.7899 2.4072,12.6945 12.321,14.8669 1.5855,0.3474 2.6441,1.1495 2.4171,1.8313 -0.3019,0.9065 -7.921,1.2801 -30.1473,1.4781 -27.868,0.2483 -29.722,0.1547 -29.4063,-1.4848 0.2153,-1.1176 1.5977,-1.9598 3.8262,-2.3311 4.7661,-0.7942 7.7086,-2.8379 9.4896,-6.591 2.2837,-4.8126 2.216,-71.0463 -0.078,-75.8797 -1.6959,-3.5738 -6.5488,-6.4784 -10.8239,-6.4784 -1.9386,0 -2.5989,-0.5119 -2.5989,-2.0149 0,-1.9806 0.5058,-2.0104 29.75,-1.75 25.5075,0.2271 29.75,0.4764 29.75,1.7479 0,0.9325 -1.3601,1.7042 -3.6639,2.0786 -4.2071,0.6839 -8.327,3.1188 -9.7381,5.7553 -1.2363,2.3101 -1.9144,54.1852 -0.7082,54.184 0.4894,-5e-4 1.3894,-0.6325 2,-1.4044 0.6106,-0.7718 5.2397,-6.7343 10.2867,-13.25 5.0471,-6.5156 13.9538,-17.9202 19.7926,-25.3437 12.3822,-15.7427 12.9622,-17.7967 5.5309,-19.5868 -2.8565,-0.6882 -4.6199,-1.7019 -4.8283,-2.7758 -0.2989,-1.5408 1.0843,-1.6672 15.5,-1.416 13.1985,0.23 15.8283,0.5222 15.8283,1.7588 0,0.9162 -1.3377,1.7079 -3.5,2.0713 -8.3405,1.4016 -12.3423,5.0202 -27.8322,25.167 -5.6418,7.3379 -6.1694,8.7787 -3.2148,8.7787 5.98,0 7.7301,2.4392 21.5238,30 4.8172,9.625 9.7181,18.5553 10.8909,19.845 2.5833,2.8409 6.8369,5.155 9.4757,5.155 3.1623,0 3.5125,2.9142 0.4884,4.064 -4.5563,1.7323 -23.2756,2.0605 -28.6557,0.5025 z m 497.824,0.9797 c -0.55,-0.2414 -2.8845,-0.9229 -5.1878,-1.5145 -2.3033,-0.5916 -6.3852,-2.8127 -9.071,-4.9357 -4.1709,-3.2968 -6.0084,-6.06 -12.5953,-18.9396 -4.2416,-8.2938 -8.057,-15.2928 -8.4787,-15.5534 -0.4216,-0.2606 -3.5886,2.9845 -7.0377,7.2114 l -6.2711,7.6852 0.6136,6.3957 c 0.3374,3.5176 1.073,7.2542 1.6346,8.3035 1.3179,2.4626 6.7865,5.7923 9.5209,5.7971 2.285,0 4.7805,2.2623 3.6971,3.3457 -0.3619,0.3619 -13.891,0.658 -30.0646,0.658 -27.3698,0 -29.3835,-0.1202 -29.0726,-1.7348 0.2121,-1.1015 1.6079,-1.9465 3.8233,-2.3148 5.1387,-0.8543 7.5339,-2.471 9.3589,-6.317 2.4047,-5.0675 2.4507,-71.1024 0.053,-76.155 -1.6959,-3.5738 -6.5487,-6.4784 -10.8238,-6.4784 -1.9386,0 -2.5989,-0.5119 -2.5989,-2.0149 0,-1.9806 0.5058,-2.0104 29.75,-1.75 25.5075,0.2271 29.75,0.4764 29.75,1.7479 0,0.9325 -1.3601,1.7042 -3.6639,2.0786 -4.173,0.6783 -8.3298,3.1173 -9.6948,5.6884 -0.511,0.9625 -1.1294,13.5625 -1.3742,28 -0.445,26.2474 -0.097,29.2102 2.8737,24.4535 1.0081,-1.6141 6.4357,-8.5477 32.5502,-41.5816 4.4133,-5.5826 7.809,-10.8397 7.809,-12.0895 0,-2.4401 -3.4839,-4.5324 -7.5471,-4.5324 -1.7965,0 -2.4529,-0.542 -2.4529,-2.0254 0,-1.9598 0.5102,-2.0165 15.75,-1.75 13.1295,0.2296 15.75,0.5222 15.75,1.7584 0,0.9162 -1.3378,1.7079 -3.5,2.0713 -4.4639,0.7501 -8.8559,3.0603 -12.6062,6.6307 -4.0276,3.8345 -20.3938,24.8859 -20.3938,26.2321 0,0.5956 0.8788,1.0829 1.9529,1.0829 2.8655,0 6.4843,1.8691 7.8486,4.0538 0.6566,1.0513 5.9798,11.2568 11.8294,22.6788 5.8496,11.4221 11.5882,21.8227 12.7524,23.1124 2.5598,2.836 6.8156,5.155 9.46,5.155 3.2225,0 3.4978,2.9189 0.3876,4.1089 -2.784,1.0652 -22.9133,2.2354 -24.7309,1.4377 z m -655.3155,-3.2664 c 0.2153,-1.1179 1.597,-1.9592 3.8262,-2.3298 1.9191,-0.3191 4.5399,-1.1496 5.8239,-1.8457 4.8228,-2.6145 5.1654,-5.428 5.1654,-42.4234 0,-21.318 -0.3959,-35.4845 -1.0418,-37.2821 -1.3597,-3.7842 -5.153,-6.4815 -10.0364,-7.1365 -2.9879,-0.4008 -3.9218,-0.9745 -3.9218,-2.4092 0,-1.8081 1.1879,-1.8727 29.75,-1.6184 25.5074,0.2271 29.75,0.4764 29.75,1.7479 0,0.9174 -1.3349,1.705 -3.5,2.0649 -4.7264,0.7857 -7.352,2.3327 -9.6084,5.6615 -1.7334,2.5572 -1.9191,5.3413 -2.2203,33.2906 -0.1807,16.775 -0.028,33.35 0.3385,36.8333 0.8529,8.0965 3.9051,11.8703 10.4902,12.9703 2.9553,0.4937 4.5,1.2571 4.5,2.2241 0,1.2576 -4.3499,1.5109 -29.8262,1.7373 -27.947,0.2483 -29.805,0.1547 -29.4893,-1.4848 z m 196,0 c 0.2153,-1.1179 1.597,-1.9592 3.8262,-2.3298 5.2481,-0.8725 8.005,-2.7439 9.5739,-6.4988 2.1763,-5.2086 2.0632,-71.2841 -0.1299,-75.9057 -1.6906,-3.5628 -4.3859,-5.3754 -9.5696,-6.4356 -2.0354,-0.4162 -3.5048,-1.374 -3.7053,-2.4151 -0.3095,-1.6072 1.7075,-1.7071 29.494,-1.4602 25.5747,0.2272 29.8262,0.4764 29.8262,1.748 0,0.9174 -1.3349,1.705 -3.5,2.0649 -4.6437,0.7719 -7.3664,2.3361 -9.3584,5.3763 -1.4475,2.2091 -1.6416,6.8835 -1.6416,39.5248 v 37.0194 l 2.75,3.0418 c 1.9243,2.1285 4.101,3.2674 7.25,3.7934 2.9553,0.4937 4.5,1.2571 4.5,2.2241 0,1.2576 -4.3499,1.5109 -29.8262,1.7373 -27.947,0.2483 -29.805,0.1547 -29.4893,-1.4848 z m 95.3155,0.7198 c -1.0243,-1.6573 0.4547,-2.9998 3.309,-3.0037 3.674,-0.01 9.0313,-3.4462 10.2159,-6.5619 0.5676,-1.4928 0.9735,-17.4779 0.9713,-38.2495 0,-33.6064 -0.1172,-35.871 -1.9521,-38.8804 -1.3949,-2.2877 -3.1694,-3.5276 -6.2463,-4.3642 -2.3638,-0.6428 -4.8977,-1.3426 -5.631,-1.555 -0.7332,-0.2125 -1.1461,-0.9486 -0.9175,-1.6358 0.3085,-0.9274 5.2858,-1.3199 19.3066,-1.5224 17.794,-0.257 19.0542,-0.1521 21.703,1.8062 l 2.8121,2.0791 5.7145,-2.8062 c 5.3098,-2.6075 6.5642,-2.8045 17.7145,-2.7822 16.2528,0.032 25.3523,2.4651 34.0835,9.112 l 3.0835,2.3474 2.2534,-2.3987 c 1.2395,-1.3193 5.0269,-3.9031 8.4166,-5.7417 6.0585,-3.2863 6.3749,-3.3428 18.663,-3.3313 22.0646,0.021 34.8009,5.3228 41.2094,17.1556 4.0242,7.4302 4.7906,14.3894 4.7906,43.5006 v 26.8005 l 2.75,3.0418 c 1.9243,2.1285 4.101,3.2674 7.25,3.7934 2.9553,0.4937 4.5,1.2571 4.5,2.2241 0,1.2561 -4.2215,1.5113 -28.75,1.7376 -28.2441,0.2607 -28.75,0.2299 -28.75,-1.75 0,-1.5702 0.6591,-2.0153 2.9842,-2.0153 1.8848,0 4.1874,-1.0754 6.25,-2.9188 l 3.2658,-2.9188 v -32.8312 c 0,-29.6835 -0.1825,-33.3585 -1.9035,-38.3312 -3.769,-10.8901 -7.7259,-14.0124 -17.7146,-13.978 -7.53,0.026 -12.848,2.1456 -18.7422,7.4707 l -4.0863,3.6917 2.2233,4.1578 c 2.1272,3.9782 2.2449,5.5187 2.7233,35.6578 0.4311,27.1579 0.7347,31.9286 2.2028,34.6091 1.6117,2.9427 4.8353,4.8856 9.2857,5.5963 1.0937,0.1747 2.1405,1.107 2.3263,2.0718 0.3166,1.6439 -1.4426,1.7375 -27.9885,1.4885 -23.6353,-0.2217 -28.3263,-0.5001 -28.3263,-1.6812 0,-0.8424 1.784,-1.8545 4.4063,-2.5 2.8726,-0.707 5.135,-2.0685 6.5,-3.9116 2.0263,-2.7362 2.0926,-3.8784 2.0589,-35.5 -0.034,-31.6179 -0.1082,-32.8578 -2.3128,-38.3987 -1.509,-3.7929 -3.668,-6.9156 -6.3952,-9.25 -3.8226,-3.272 -4.5873,-3.5211 -10.6872,-3.4815 -5.1358,0.033 -7.7707,0.6482 -12.07,2.8168 l -5.5,2.7741 v 39.7658 39.7658 l 3.2658,2.9174 c 1.7961,1.6046 4.2711,2.9243 5.5,2.9327 2.9609,0.02 5.1592,1.4879 4.3033,2.8729 -0.905,1.4643 -57.1663,1.5726 -58.0691,0.1118 z m 203.679,-0.6913 c 0.2084,-1.0817 1.7454,-2.0151 4.136,-2.5118 10.6501,-2.2128 10.6862,-2.36 10.6794,-43.5148 0,-19.7915 -0.4246,-35.2316 -1.0173,-37.2821 -1.2339,-4.2687 -4.8311,-7.0366 -10.0553,-7.7373 -2.9879,-0.4008 -3.9218,-0.9745 -3.9218,-2.4092 0,-1.8081 1.1879,-1.8727 29.75,-1.6184 25.5074,0.2271 29.75,0.4764 29.75,1.7479 0,0.9325 -1.3601,1.7042 -3.6639,2.0786 -4.7308,0.769 -8.6758,3.3864 -9.8808,6.5558 -0.5436,1.43 -0.9553,18.207 -0.9553,38.9319 v 36.4191 l 2.75,3.0418 c 1.9243,2.1285 4.101,3.2674 7.25,3.7934 2.9553,0.4937 4.5,1.2571 4.5,2.2241 0,1.2576 -4.3499,1.5109 -29.8262,1.7373 -27.7605,0.2466 -29.8033,0.1458 -29.4948,-1.4563 z m 316.4846,0.956 c -0.9889,-1.6001 0.8185,-2.9526 4.7826,-3.579 5.0997,-0.8059 8.5653,-4.3429 9.6237,-9.8219 1.3496,-6.9862 1.0317,-66.7515 -0.3764,-70.7701 -1.4713,-4.1992 -5.3475,-7.1897 -10.3788,-8.0076 -2.4261,-0.3943 -3.8147,-1.1599 -3.8147,-2.1031 0,-1.2767 4.7993,-1.5213 34.5,-1.7587 44.8062,-0.358 52.9896,0.9373 64.3306,10.1822 11.2762,9.1921 15.6488,18.3306 16.4307,34.3395 1.2931,26.4735 -8.5709,42.0593 -31.6619,50.0275 -3.8108,1.315 -11.3121,1.6526 -43.7518,1.9692 -21.5339,0.2102 -39.3917,0 -39.684,-0.478 z m 74.8364,-4.9668 c 3.4683,-1.9323 6.1738,-5.6298 7.9007,-10.7979 2.6353,-7.8865 3.9065,-29.726 2.6568,-45.6437 -2.1241,-27.0547 -5.5581,-30.7952 -28.3075,-30.8343 l -12.75,-0.022 v 44.4167 c 0,28.2439 0.3584,44.538 0.9842,44.75 2.2578,0.7646 27.6778,-0.8448 29.5158,-1.8688 z M 1825.1303,812.3532 c -6.5727,-11.1375 -26.2643,-44.325 -43.7592,-73.75 -17.4949,-29.425 -41.031,-69.025 -52.3024,-88 -11.2714,-18.975 -21.7262,-36.525 -23.2329,-39 -1.5067,-2.475 -10.0621,-16.875 -19.012,-32 -8.9499,-15.125 -19.646,-33.125 -23.7692,-40 -4.1231,-6.875 -12.6649,-21.275 -18.9818,-32 -6.3168,-10.725 -16.981,-28.725 -23.6981,-40 -6.7171,-11.275 -20.2264,-34 -30.0207,-50.5 -9.7943,-16.5 -21.0455,-35.4 -25.0027,-42 -3.9572,-6.6 -12.5066,-21 -18.9986,-32 -6.4921,-11 -14.3744,-24.275 -17.5162,-29.5 -3.1419,-5.225 -13.0429,-21.875 -22.0023,-37 -8.9593,-15.125 -23.8717,-40.20516 -33.1385,-55.7337 -9.2669,-15.52853 -16.8488,-28.46603 -16.8488,-28.75 0,-0.28396 57.7125,-0.53754 128.25,-0.56351 l 128.25,-0.0472 9.4649,-16.20279 c 5.2057,-8.91154 13.3487,-22.7278 18.0957,-30.7028 19.7536,-33.1866 34.5335,-58.051824 49.9299,-84.000004 30.1465,-50.8074282 44.2718,-74.48906 45.4337,-76.17175 1.2773,-1.849606 0.6143,-2.870689 27.059,41.67175 7.5102,12.65 15.1338,25.475 16.9413,28.5 4.8478,8.11338 47.3629,79.672214 50.7979,85.500004 1.6209,2.75 9.1435,15.35 16.7168,28 l 13.7696,23 128.1456,0.25379 c 70.4801,0.13958 128.1456,0.45304 128.1456,0.69658 0,0.24354 -3.3105,5.97933 -7.3566,12.74621 -4.0462,6.76688 -14.0217,23.55342 -22.1679,37.30342 -8.1462,13.75 -20.9656,35.35 -28.4874,48 -7.5219,12.65 -22.3723,37.625 -33.0009,55.5 -10.6285,17.875 -23.5823,39.7 -28.786,48.5 -11.591,19.60143 -15.2583,25.49401 -17.2012,27.63949 -0.825,0.91098 -3.9667,5.92249 -6.9816,11.13669 l -5.4816,9.48037 -5.86,-9.62827 c -3.223,-5.29556 -7.0563,-11.37621 -8.5184,-13.51256 -4.7686,-6.96754 -7.6454,-11.68655 -27.1984,-44.61572 -10.614,-17.875 -27.7707,-46.675 -38.1259,-64 l -18.8277,-31.5 v 165.36833 165.36833 l -13.1457,22.13167 c -7.2301,12.17242 -22.242,37.43167 -33.3598,56.13167 -18.107,30.4558 -31.4087,52.85322 -66.5163,112 -5.8763,9.9 -12.6016,21.2625 -14.9452,25.25 -2.3435,3.9875 -4.3821,7.25 -4.5301,7.25 -0.148,0 -5.6468,-9.1125 -12.2195,-20.25 z m 18.2455,-62.95415 c 2.6776,-4.56272 9.4259,-15.94585 14.9963,-25.29585 5.5703,-9.35 16.7909,-28.25 24.9345,-42 8.1437,-13.75 18.0439,-30.4 22.0005,-37 18.9168,-31.55483 21.7374,-36.63615 21.2888,-38.35164 -0.2593,-0.99148 -9.6826,-15.49297 -20.9408,-32.22553 -11.2581,-16.73256 -43.3323,-64.62283 -71.2759,-106.42283 -27.9436,-41.8 -51.0824,-76.30633 -51.4195,-76.68073 -0.337,-0.3744 -4.4878,2.7756 -9.224,7 -4.7361,4.2244 -13.8559,12.34533 -20.2661,18.04651 l -11.655,10.36578 0.2661,86.63422 0.2662,86.63422 17.0938,28.5 c 16.0219,26.71283 36.2991,60.79152 54.7409,92 7.2874,12.33212 17.9114,30.12868 21.3608,35.78187 0.7658,1.25502 1.7462,2.06315 2.1787,1.79584 0.4326,-0.26731 2.9772,-4.21915 5.6547,-8.78186 z m 89.4711,-347.87918 c 0,-82.57223 -0.3758,-143.94103 -0.8803,-143.75 -0.4841,0.18333 -4.4216,3.5291 -8.75,7.43504 -9.717,8.76868 -103.6479,92.37997 -111.6833,99.41337 -0.4475,0.39169 22.4776,35.53603 50.9446,78.09854 69.4032,103.76808 68.763,102.82227 69.619,102.85644 0.4125,0.0165 0.75,-64.80756 0.75,-144.05339 z m -228.2427,-57.95098 -0.2573,-64.0343 -8.4713,14.2843 c -4.6592,7.85637 -14.3639,24.18431 -21.5661,36.28431 -7.2022,12.1 -18.4169,31 -24.9216,42 -6.5047,11 -13.8236,23.24585 -16.2643,27.21301 -2.4407,3.96715 -4.2889,7.873 -4.1072,8.67965 0.1818,0.80666 17.2055,29.86544 37.8305,64.57507 l 37.5,63.10843 0.2573,-64.03808 c 0.1416,-35.22094 0.1416,-92.85352 0,-128.07239 z m 52.0807,19.88198 c 7.5141,-6.68378 15.462,-13.7753 17.662,-15.75894 2.2,-1.98364 10.3,-9.21118 18,-16.0612 7.7,-6.85003 17.825,-15.86653 22.5,-20.03668 36.9432,-32.95373 49.4332,-44.06939 78,-69.41704 17.875,-15.86074 33.3121,-29.60292 34.3046,-30.53819 1.9883,-1.87353 4.3647,2.4775 -32.5163,-59.53562 -6.8692,-11.55 -19.1557,-32.25 -27.3035,-46 -23.9329,-40.388754 -29.6216,-49.533514 -30.4824,-49.001504 -0.4471,0.27633 -2.0467,2.63971 -3.5546,5.25196 -2.5727,4.45699 -24.1778,40.902924 -48.461,81.749544 -5.8855,9.9 -17.8527,29.925 -26.5939,44.5 l -15.8929,26.5 -0.2675,80.25 c -0.147,44.1375 0,80.25 0.3381,80.25 0.333,0 6.7533,-5.46855 14.2674,-12.15233 z m -144.219,-2.59767 c 3.1547,-5.3625 17.6442,-29.775 32.1989,-54.25 38.5605,-64.84269 45.2463,-76.26911 44.8552,-76.6602 -0.1932,-0.19325 -37.7697,-0.23626 -83.5033,-0.0956 l -83.1519,0.25578 5.344,9 c 2.9392,4.95 10.2852,17.325 16.3244,27.5 6.0392,10.175 18.8605,31.775 28.4918,48 9.6312,16.225 21.0445,35.4625 25.3628,42.75 4.3183,7.2875 7.9619,13.25 8.0969,13.25 0.135,0 2.8266,-4.3875 5.9812,-9.75 z m 473.8712,-22.25 c 9.2543,-15.675 20.2721,-34.35 24.4841,-41.5 7.334,-12.44984 25.6621,-43.39925 35.3837,-59.75 l 4.6079,-7.75 h -83.0181 -83.0182 l 1.1928,2.25 c 1.6398,3.09312 76.4977,128.3114 79.5768,133.11182 1.3624,2.12399 2.8119,3.47399 3.221,3 0.4092,-0.474 8.3157,-13.68682 17.57,-29.36182 z"
       id="path1" />
  </g>
</svg>
