<svg
   width="1249.8605"
   height="335.00024"
   viewBox="0 0 1249.8605 335.00024"
   fill="none"
   version="1.1"
   id="svg21"
   xmlns="http://www.w3.org/2000/svg"
   xmlns:svg="http://www.w3.org/2000/svg">
  <defs
     id="defs21" />
  <path
     fill-rule="evenodd"
     clip-rule="evenodd"
     d="m 467.04046,188.93571 c -33.382,0 -52.243,19.236 -52.243,52.417 0,33.181 18.861,52.417 52.243,52.417 33.382,0 52.244,-19.236 52.244,-52.417 0,-33.181 -18.852,-52.417 -52.244,-52.417 z m 0,85.319 c -18.996,0 -22.904,-17.565 -22.904,-32.48 0,-15.75 3.908,-33.315 22.904,-33.315 18.996,0 22.905,17.565 22.905,33.315 0,14.915 -3.909,32.48 -22.905,32.48 z"
     fill="#004494"
     id="path1"
     style="fill:#000000" />
  <path
     fill-rule="evenodd"
     clip-rule="evenodd"
     d="m 570.43346,219.60971 c -7.961,0 -16.48,3.208 -21.368,9.479 h -0.279 v -38.06 h -26.544 v 100.647 h 25.843 l 0.701,-10.314 h 0.557 c 1.816,7.107 11.448,12.408 19.553,12.408 23.193,0 32.691,-16.864 32.691,-38.194 0,-19.793 -9.642,-35.966 -31.154,-35.966 z m -9.642,58.823 c -9.642,0 -12.014,-12.965 -12.014,-20.773 0,-9.335 0.979,-22.722 12.993,-22.722 11.313,0 12.572,12.821 12.572,21.464 0,8.643 -1.96,22.021 -13.551,22.021 z"
     fill="#004494"
     id="path2"
     style="fill:#000000" />
  <path
     fill-rule="evenodd"
     clip-rule="evenodd"
     d="m 774.37246,221.69371 -12.293,49.354 h -0.279 l -12.148,-49.354 h -29.339 l -12.292,49.632 h -0.279 l -11.313,-49.632 h -21.051 -5.772 -18.669 l -15.087,48.653 h -0.279 l -13.829,-48.653 h -28.359 l 29.339,72.076 -9.921,24.672 h 24.441 l 34.88,-88.498 18.862,61.733 h 28.772 l 13.685,-48.787 h 0.279 l 12.715,48.787 h 29.339 l 22.069,-69.983 z"
     fill="#004494"
     id="path3"
     style="fill:#000000" />
  <path
     fill-rule="evenodd"
     clip-rule="evenodd"
     d="m 861.33746,277.31871 v -35.966 c 0.279,-15.75 -16.902,-21.743 -31.144,-21.743 -7.817,0 -16.902,0.836 -24.163,4.188 -7.125,3.207 -12.292,8.921 -12.148,18.823 h 25.008 c -0.145,-4.187 1.949,-10.459 8.383,-10.737 10.612,-0.413 9.22,8.499 9.22,14.636 h -8.384 c -22.914,0 -38.549,6.972 -38.837,23.981 -0.278,14.357 8.384,23.279 24.998,23.279 13.128,0 19.14,-6.55 22.348,-11.572 h 0.278 c 0,5.013 0,7.241 0.557,9.478 h 25.421 c -0.98,-8.364 -1.537,-11.428 -1.537,-14.357 z m -37.29,1.114 c -5.033,0 -9.076,-4.177 -9.076,-9.2 0,-5.023 3.073,-7.385 6.982,-9.335 3.63,-1.805 8.941,-1.527 14.53,-1.527 0,9.335 -0.979,20.072 -12.436,20.072 z"
     fill="#004494"
     id="path4"
     style="fill:#000000" />
  <path
     fill-rule="evenodd"
     clip-rule="evenodd"
     d="m 862.13546,221.69471 v 16.729 h 13.685 v 31.366 c -1.393,21.474 9.498,23.981 27.514,23.981 3.918,0 8.249,-0.279 14.252,-1.393 v -15.75 c -3.074,0.423 -6.704,0.423 -10.199,0.423 -6.147,0 -5.033,-9.066 -5.033,-10.872 v -27.735 h 15.366 v -16.73 h -15.366 v -20.629 l -26.544,10.036 v 10.593 h -13.685 z"
     fill="#004494"
     id="path5"
     style="fill:#000000" />
  <path
     fill-rule="evenodd"
     clip-rule="evenodd"
     d="m 954.41046,278.85571 c -9.921,0 -12.293,-7.808 -12.158,-16.864 h 50.284 c 0,-26.065 -9.075,-42.382 -37.579,-42.382 -21.089,0 -37.723,12.543 -37.723,34.708 0,27.467 11.179,39.452 39.25,39.452 8.24,0 16.067,-1.536 22.213,-5.435 6.703,-3.899 12.437,-10.459 13.272,-19.515 h -24.585 c -0.979,6.55 -5.589,10.036 -12.993,10.036 z m 0.557,-46.002 c 4.053,-0.279 7.116,1.527 9.219,4.456 2.094,2.929 3.217,6.694 3.217,10.459 h -24.585 c 0.701,-7.952 2.939,-14.502 12.158,-14.915 z"
     fill="#004494"
     id="path6"
     style="fill:#000000" />
  <path
     d="m 1023.2405,191.02871 h -26.54504 v 100.647 h 26.54504 z"
     fill="#004494"
     id="path7"
     style="fill:#000000" />
  <path
     fill-rule="evenodd"
     clip-rule="evenodd"
     d="m 1093.3105,243.30271 c -1.11,-19.371 -16.48,-23.702 -33.1,-23.702 -13.97,0 -32.41,4.744 -32.41,22.021 0,25.373 41.48,17.988 41.48,30.396 0,4.456 -3.77,6.415 -8.94,6.415 -2.51,0 -4.75,-1.392 -6.29,-3.208 -1.53,-1.805 -2.24,-4.177 -1.81,-6.271 h -25.15 c -0.13,21.33 16.63,24.816 33.81,24.816 16.07,0 33.52,-4.744 33.52,-23.279 0,-11.429 -5.73,-16.586 -14.11,-19.236 -16.63,-5.158 -27.38,-4.879 -27.38,-10.036 0,-4.044 2.37,-6.272 6.29,-6.272 3.63,0 5.87,0.98 7.26,2.507 1.26,1.392 1.68,3.486 1.68,5.849 h 25.14 z"
     fill="#004494"
     id="path8"
     style="fill:#000000" />
  <path
     d="m 1124.4105,191.02871 h -26.53 v 100.647 h 26.53 z"
     fill="#004494"
     id="path9"
     style="fill:#000000" />
  <path
     fill-rule="evenodd"
     clip-rule="evenodd"
     d="m 1149.5705,291.67671 h 31.42 l -27.24,-40.566 23.74,-29.417 h -28.9 l -24.18,30.953 z"
     fill="#004494"
     id="path10"
     style="fill:#000000" />
  <path
     fill-rule="evenodd"
     clip-rule="evenodd"
     d="m 1248.3205,277.31871 v -35.966 c 0.28,-15.75 -16.9,-21.743 -31.14,-21.743 -7.83,0 -16.91,0.836 -24.17,4.188 -7.12,3.207 -12.29,8.921 -12.14,18.823 h 24.99 c -0.13,-4.187 1.96,-10.459 8.39,-10.737 10.61,-0.413 9.22,8.499 9.22,14.636 h -8.39 c -22.9,0 -38.54,6.972 -38.82,23.981 -0.28,14.357 8.37,23.279 24.99,23.279 13.13,0 19.14,-6.55 22.35,-11.572 h 0.28 c 0,5.013 0,7.241 0.56,9.478 h 25.42 c -0.98,-8.364 -1.54,-11.428 -1.54,-14.357 z m -37.3,1.114 c -5.03,0 -9.07,-4.177 -9.07,-9.2 0,-5.023 3.07,-7.385 6.98,-9.335 3.63,-1.805 8.94,-1.527 14.53,-1.527 0,9.335 -0.98,20.072 -12.44,20.072 z"
     fill="#004494"
     id="path11"
     style="fill:#000000" />
  <path
     d="m 449.36246,81.94991 v 43.7448 l 31.663,-43.7448 h 33.891 l -34.996,43.7448 38.328,56.797 h -36.1 l -32.777,-53.608 v 53.608 h -28.465 V 81.94991 h 28.465 z"
     fill="#004494"
     id="path12"
     style="fill:#000000" />
  <path
     d="m 510.46846,133.40671 c 1.527,-4.12 3.678,-8.029 6.453,-11.736 2.776,-3.697 6.781,-6.482 12.005,-8.336 5.224,-1.853 11.687,-2.775 19.37,-2.775 6.022,0 11.505,0.72 16.461,2.151 4.955,1.44 9.373,3.544 13.262,6.319 3.89,2.872 6.828,6.502 8.816,10.9 1.988,4.399 2.987,9.604 2.987,15.626 0,6.021 -0.787,11.246 -2.362,15.692 -1.575,4.447 -3.89,8.144 -6.944,11.112 -3.15,2.871 -6.415,5.253 -9.786,7.154 -3.38,1.902 -6.924,3.17 -10.621,3.823 -1.018,0.182 -2.036,0.365 -3.054,0.557 -1.018,0.192 -2.036,0.326 -3.054,0.422 -0.932,0.183 -1.873,0.298 -2.852,0.346 -0.97,0.048 -1.921,0.067 -2.843,0.067 -6.022,0 -11.457,-0.854 -16.317,-2.564 -4.869,-1.709 -9.19,-4.283 -12.984,-7.712 -3.707,-3.515 -6.511,-7.587 -8.403,-12.225 -1.901,-4.629 -2.852,-9.815 -2.852,-15.549 v -0.278 c 0.279,-4.533 1.181,-8.865 2.708,-12.985 z m 50.889,12.638 v -1.872 c -0.096,-2.219 -0.394,-4.37 -0.903,-6.454 -0.509,-2.084 -1.181,-4.101 -2.016,-6.041 -0.932,-1.853 -2.219,-3.265 -3.89,-4.235 -1.671,-0.97 -3.755,-1.46 -6.252,-1.46 -2.218,0 -4.139,0.442 -5.762,1.316 -1.623,0.883 -2.987,2.199 -4.101,3.957 -1.114,1.757 -1.949,3.841 -2.506,6.252 -0.557,2.41 -0.836,5.09 -0.836,8.057 0,3.89 0.327,7.27 0.98,10.132 0.643,2.872 1.565,5.282 2.775,7.222 1.297,1.95 2.709,3.381 4.235,4.303 1.527,0.922 3.266,1.392 5.206,1.392 1.94,0 3.793,-0.394 5.282,-1.181 1.479,-0.788 2.679,-1.921 3.611,-3.4 0.921,-1.575 1.69,-3.198 2.295,-4.859 0.595,-1.662 1.047,-3.419 1.325,-5.273 0.096,-0.643 0.163,-1.277 0.211,-1.872 0.048,-0.596 0.116,-1.23 0.212,-1.873 v -0.836 c 0,-0.278 0.048,-0.595 0.134,-0.97 v -2.295 z"
     fill="#004494"
     id="path13"
     style="fill:#000000" />
  <path
     d="m 638.58146,174.44271 c -0.096,0.183 -0.144,0.327 -0.144,0.413 -0.097,0.193 -0.183,0.346 -0.279,0.481 -0.096,0.144 -0.182,0.307 -0.278,0.489 -0.183,0.279 -0.394,0.557 -0.625,0.836 -0.23,0.278 -0.48,0.557 -0.758,0.835 -0.836,0.922 -1.825,1.825 -2.987,2.709 -1.162,0.883 -2.526,1.642 -4.101,2.295 -1.479,0.74 -3.188,1.297 -5.138,1.671 -1.949,0.365 -4.024,0.557 -6.252,0.557 -4.532,0 -8.422,-0.413 -11.658,-1.248 -3.246,-0.836 -5.791,-2.036 -7.645,-3.611 -1.949,-1.671 -3.495,-3.448 -4.648,-5.35 -1.162,-1.901 -1.969,-3.87 -2.43,-5.906 -0.182,-0.643 -0.345,-1.296 -0.48,-1.95 -0.134,-0.643 -0.211,-1.296 -0.211,-1.939 -0.096,-0.644 -0.135,-1.278 -0.135,-1.873 v -1.873 c 0.183,-4.907 1.566,-8.999 4.159,-12.293 2.593,-3.284 6.3,-5.666 11.111,-7.155 4.908,-1.575 10.084,-2.756 15.548,-3.543 5.455,-0.788 11.198,-1.182 17.219,-1.182 0,-1.853 -0.096,-3.611 -0.278,-5.282 -0.192,-1.671 -0.423,-3.198 -0.701,-4.581 -0.365,-1.392 -1.104,-2.449 -2.218,-3.198 -1.105,-0.739 -2.593,-1.114 -4.447,-1.114 -1.479,0 -2.727,0.212 -3.755,0.625 -1.018,0.422 -1.853,0.998 -2.497,1.738 -0.643,0.835 -1.133,1.671 -1.45,2.497 -0.327,0.835 -0.586,1.709 -0.768,2.641 0,0.096 -0.019,0.23 -0.067,0.413 -0.049,0.192 -0.068,0.326 -0.068,0.422 -0.096,0.183 -0.134,0.346 -0.134,0.481 v 2.151 l -26.247,-0.279 c 0,-3.976 0.836,-7.433 2.497,-10.343 1.671,-2.919 4.216,-5.253 7.645,-7.011 3.332,-1.853 7.077,-3.217 11.245,-4.1 4.168,-0.884 8.701,-1.316 13.609,-1.316 4.35,0 8.451,0.413 12.292,1.248 3.842,0.836 7.385,2.084 10.622,3.746 3.236,1.671 5.685,3.726 7.356,6.185 1.671,2.458 2.497,5.301 2.497,8.537 v 35.832 c 0,1.2 0.019,2.43 0.067,3.678 0.048,1.249 0.115,2.574 0.212,3.957 0.096,1.392 0.297,2.823 0.624,4.302 0.326,1.479 0.758,2.968 1.315,4.447 h -26.246 c -0.096,0 -0.135,-0.048 -0.135,-0.135 v -0.278 c -0.096,-0.183 -0.163,-0.423 -0.211,-0.692 -0.048,-0.269 -0.115,-0.595 -0.211,-0.97 -0.096,-0.365 -0.163,-0.768 -0.211,-1.181 -0.048,-0.413 -0.116,-0.903 -0.212,-1.46 -0.096,-0.557 -0.134,-1.152 -0.134,-1.805 v -2.219 c -0.096,0.279 -0.192,0.509 -0.279,0.692 z m -1.46,-24.374 c -0.605,0.048 -1.229,0.067 -1.873,0.067 -0.643,0 -1.277,0.02 -1.873,0.068 -0.595,0.048 -1.229,0.115 -1.872,0.211 -1.575,0.192 -3.102,0.461 -4.581,0.835 -1.479,0.375 -2.91,0.836 -4.303,1.393 -1.382,0.557 -2.448,1.248 -3.188,2.084 -0.749,0.836 -1.21,1.806 -1.392,2.92 v 0.278 c -0.096,0.096 -0.135,0.192 -0.135,0.279 v 0.413 c -0.096,0.096 -0.134,0.192 -0.134,0.278 v 0.692 c 0,1.2 0.249,2.362 0.758,3.466 0.509,1.114 1.278,2.181 2.296,3.199 1.018,1.018 2.103,1.786 3.265,2.295 1.152,0.509 2.382,0.768 3.678,0.768 h 0.835 c 0.279,0 0.596,-0.048 0.97,-0.134 0.279,-0.096 0.557,-0.183 0.836,-0.279 0.278,-0.086 0.557,-0.182 0.835,-0.278 0.557,-0.183 1.114,-0.461 1.671,-0.836 0.557,-0.365 1.105,-0.835 1.672,-1.392 0.739,-0.74 1.334,-1.508 1.805,-2.296 0.461,-0.787 0.836,-1.642 1.104,-2.564 0.279,-0.922 0.529,-1.853 0.759,-2.775 0.231,-0.922 0.394,-1.854 0.49,-2.776 v -0.768 c 0,-0.231 0.048,-0.49 0.134,-0.768 v -4.726 c -0.557,0.183 -1.133,0.298 -1.738,0.346 z"
     fill="#004494"
     id="path14"
     style="fill:#000000" />
  <path
     d="m 696.01246,81.94991 v 100.5418 h -26.246 V 81.94991 Z"
     fill="#004494"
     id="path15"
     style="fill:#000000" />
  <path
     d="m 729.19546,81.94991 v 17.498 h -27.351 v -17.498 z m 0,29.4448 v 71.106 h -27.351 v -71.115 h 27.351 z"
     fill="#004494"
     id="path16"
     style="fill:#000000" />
  <path
     d="m 808.87846,153.97771 c 0,5.369 -0.932,9.978 -2.776,13.82 -1.853,3.841 -4.677,7.011 -8.47,9.517 -3.707,2.497 -7.731,4.351 -12.081,5.551 -4.351,1.201 -8.98,1.806 -13.887,1.806 -5.743,0 -10.718,-0.577 -14.934,-1.739 -4.216,-1.152 -7.663,-2.89 -10.343,-5.205 -2.679,-2.41 -4.926,-4.927 -6.732,-7.568 -1.805,-2.641 -3.169,-5.397 -4.101,-8.268 -0.461,-1.393 -0.835,-2.757 -1.114,-4.101 -0.278,-1.335 -0.509,-2.66 -0.691,-3.957 -0.096,-1.296 -0.183,-2.545 -0.279,-3.755 -0.096,-1.2 -0.134,-2.363 -0.134,-3.467 0.278,-5.743 1.364,-10.833 3.265,-15.28 1.902,-4.446 4.61,-8.24 8.125,-11.39 3.524,-3.14 7.519,-5.502 12.014,-7.078 4.494,-1.575 9.459,-2.362 14.933,-2.362 0.836,0 1.729,0.019 2.709,0.067 0.97,0.048 1.92,0.115 2.842,0.211 1.018,0.097 2.017,0.164 2.987,0.212 0.97,0.048 1.921,0.163 2.843,0.346 3.236,0.557 6.338,1.459 9.305,2.708 2.958,1.248 5.791,2.852 8.471,4.792 2.679,1.95 4.696,4.514 6.04,7.712 1.335,3.198 2.017,6.972 2.017,11.323 l -27.36,-0.279 c 0,-1.757 -0.212,-3.352 -0.625,-4.792 -0.413,-1.431 -1.046,-2.66 -1.872,-3.678 -0.836,-1.018 -1.873,-1.806 -3.121,-2.363 -1.249,-0.557 -2.67,-0.835 -4.236,-0.835 -1.671,0 -3.102,0.48 -4.302,1.459 -1.21,0.97 -2.218,2.382 -3.054,4.236 -0.835,1.949 -1.45,4.072 -1.873,6.386 -0.413,2.315 -0.624,4.812 -0.624,7.501 v 2.775 c 0,2.593 0.163,5.042 0.48,7.357 0.327,2.314 0.817,4.542 1.46,6.665 0.643,2.036 1.613,3.591 2.91,4.657 1.296,1.066 2.967,1.595 5.003,1.595 1.566,0 2.987,-0.279 4.236,-0.836 1.248,-0.557 2.295,-1.431 3.121,-2.641 0.835,-1.114 1.459,-2.564 1.872,-4.37 0.413,-1.805 0.625,-3.956 0.625,-6.453 v -0.279 h 27.36 z"
     fill="#004494"
     id="path17"
     style="fill:#000000" />
  <path
     d="m 840.45046,111.43271 v 69.992 c 0,3.698 -0.279,7.174 -0.836,10.42 -0.557,3.237 -1.383,6.243 -2.497,9.028 -1.104,2.775 -3.563,4.859 -7.356,6.252 -3.794,1.393 -8.989,2.122 -15.548,2.218 h -2.363 c -0.365,-0.096 -0.739,-0.134 -1.104,-0.134 h -1.249 c -0.835,-0.096 -1.661,-0.163 -2.497,-0.211 -0.835,-0.048 -1.709,-0.116 -2.641,-0.212 v -17.498 h 0.279 c 0.096,0 0.182,0.048 0.278,0.135 h 1.527 c 1.671,0 2.987,-0.279 3.957,-0.836 0.97,-0.557 1.594,-1.392 1.873,-2.497 0.278,-1.104 0.48,-2.314 0.624,-3.611 0.134,-1.296 0.211,-2.593 0.211,-3.889 v -69.157 h 27.361 z m 0,-29.4447 v 17.498 h -27.361 v -17.498 z"
     fill="#004494"
     id="path18"
     style="fill:#000000" />
  <path
     d="m 892.35446,174.38571 c -0.096,0.182 -0.144,0.326 -0.144,0.413 -0.096,0.192 -0.182,0.346 -0.279,0.48 -0.096,0.144 -0.182,0.307 -0.278,0.49 -0.182,0.278 -0.394,0.557 -0.624,0.835 -0.231,0.279 -0.48,0.557 -0.759,0.836 -0.835,0.922 -1.825,1.825 -2.987,2.708 -1.162,0.884 -2.525,1.642 -4.1,2.295 -1.479,0.74 -3.189,1.297 -5.138,1.671 -1.95,0.365 -4.024,0.557 -6.252,0.557 -4.533,0 -8.422,-0.412 -11.659,-1.248 -3.246,-0.836 -5.791,-2.036 -7.644,-3.611 -1.95,-1.671 -3.496,-3.448 -4.648,-5.349 -1.162,-1.902 -1.969,-3.871 -2.43,-5.907 -0.183,-0.643 -0.346,-1.296 -0.48,-1.949 -0.135,-0.644 -0.212,-1.297 -0.212,-1.94 -0.096,-0.644 -0.134,-1.277 -0.134,-1.873 v -1.873 c 0.182,-4.907 1.565,-8.998 4.158,-12.292 2.593,-3.285 6.3,-5.667 11.112,-7.155 4.907,-1.575 10.083,-2.756 15.548,-3.544 5.455,-0.787 11.197,-1.181 17.219,-1.181 0,-1.854 -0.096,-3.611 -0.279,-5.282 -0.192,-1.671 -0.422,-3.198 -0.701,-4.581 -0.365,-1.393 -1.104,-2.449 -2.218,-3.198 -1.104,-0.74 -2.593,-1.114 -4.446,-1.114 -1.479,0 -2.728,0.211 -3.756,0.624 -1.017,0.423 -1.853,0.999 -2.496,1.738 -0.644,0.836 -1.134,1.671 -1.451,2.497 -0.326,0.836 -0.585,1.71 -0.768,2.641 0,0.096 -0.019,0.231 -0.067,0.413 -0.048,0.192 -0.067,0.327 -0.067,0.423 -0.096,0.182 -0.135,0.345 -0.135,0.48 v 2.151 l -26.246,-0.278 c 0,-3.976 0.835,-7.434 2.497,-10.344 1.671,-2.919 4.216,-5.253 7.644,-7.01 3.333,-1.854 7.078,-3.218 11.246,-4.101 4.168,-0.884 8.701,-1.316 13.608,-1.316 4.351,0 8.451,0.413 12.293,1.249 3.841,0.835 7.385,2.084 10.621,3.745 3.237,1.671 5.686,3.726 7.357,6.185 1.671,2.459 2.496,5.301 2.496,8.538 v 35.831 c 0,1.201 0.02,2.43 0.068,3.678 0.048,1.249 0.115,2.574 0.211,3.957 0.096,1.393 0.298,2.824 0.624,4.303 0.327,1.479 0.759,2.967 1.316,4.446 h -26.247 c -0.096,0 -0.134,-0.048 -0.134,-0.134 v -0.279 c -0.096,-0.182 -0.163,-0.422 -0.211,-0.691 -0.048,-0.269 -0.116,-0.596 -0.212,-0.97 -0.096,-0.365 -0.163,-0.768 -0.211,-1.181 -0.048,-0.413 -0.115,-0.903 -0.211,-1.46 -0.096,-0.557 -0.135,-1.153 -0.135,-1.806 v -2.218 c -0.096,0.278 -0.192,0.509 -0.278,0.691 z m -1.46,-24.374 c -0.605,0.048 -1.229,0.067 -1.872,0.067 -0.644,0 -1.278,0.019 -1.873,0.067 -0.595,0.048 -1.229,0.115 -1.873,0.211 -1.575,0.192 -3.102,0.461 -4.581,0.836 -1.479,0.374 -2.91,0.835 -4.302,1.392 -1.383,0.557 -2.449,1.249 -3.188,2.084 -0.75,0.836 -1.211,1.806 -1.393,2.92 v 0.278 c -0.096,0.096 -0.134,0.193 -0.134,0.279 v 0.413 c -0.096,0.096 -0.135,0.192 -0.135,0.278 v 0.692 c 0,1.2 0.25,2.362 0.759,3.467 0.509,1.114 1.277,2.18 2.295,3.198 1.018,1.018 2.103,1.786 3.265,2.295 1.153,0.509 2.382,0.768 3.678,0.768 h 0.836 c 0.278,0 0.595,-0.048 0.97,-0.134 0.278,-0.096 0.557,-0.182 0.835,-0.278 0.279,-0.087 0.557,-0.183 0.836,-0.279 0.557,-0.182 1.114,-0.461 1.671,-0.836 0.557,-0.364 1.104,-0.835 1.671,-1.392 0.739,-0.74 1.335,-1.508 1.805,-2.295 0.461,-0.788 0.836,-1.643 1.105,-2.565 0.278,-0.922 0.528,-1.853 0.759,-2.775 0.23,-0.922 0.393,-1.854 0.489,-2.776 v -0.768 c 0,-0.23 0.048,-0.49 0.135,-0.768 v -4.725 c -0.557,0.182 -1.133,0.298 -1.738,0.346 z"
     fill="#004494"
     id="path19"
     style="fill:#000000" />
  <path
     id="path20"
     style="fill:#000000"
     d="M 102.2304,0 C 45.7806,0 0,45.78196 0,102.25196 c 0,104.441 122.005,188.70329 178.291,228.77929 7.424,5.292 17.36287,5.292 24.79687,0 56.276,-40.076 178.27083,-124.33829 178.29883,-228.77929 C 381.3867,45.78196 335.61623,0 279.15623,0 c -34.995,0 -65.79389,17.60421 -84.21289,44.40821 -2.055,2.9771 -6.45305,2.9771 -8.49805,0 C 168.02529,17.60421 137.20641,0 102.2304,0 Z m 139.77544,73.90235 c 32.786,0 59.36914,26.5829 59.36914,59.3789 -0.019,60.648 -70.85587,109.57842 -103.54687,132.85742 v -0.008 c -4.321,3.073 -10.09253,3.073 -14.39453,0 -31.068,-22.118 -96.61228,-67.42754 -103.02738,-123.93555 -3.9663,-34.92899 21.6084,-67.0246 56.73831,-68.2539 20.09,-0.7011 38.00986,8.60324 49.25586,23.30664 2.161,2.8239 6.32924,2.81413 8.49024,-0.01 10.833,-14.1752 27.88823,-23.33593 47.11523,-23.33593 z" />
</svg>
