<svg
   version="1.1"
   id="svg1"
   width="555.84882"
   height="93.550812"
   viewBox="0 0 555.84882 93.550813"
   xmlns="http://www.w3.org/2000/svg"
   xmlns:svg="http://www.w3.org/2000/svg">
  <defs
     id="defs1" />
  <g
     id="g1"
     transform="translate(-871.41961,-373.80404)">
    <path
       style="fill:#000000"
       d="m 1120.753,438.02151 v -29.33333 h 4.6666 c 3.0987,0 4.6667,0.62371 4.6667,1.85627 0,1.46638 1.0394,1.32636 4.9486,-0.66667 9.1063,-4.64263 18.6902,-2.31473 25.1073,6.09844 7.7223,10.12446 4.9888,27.63131 -5.3079,33.99502 -6.0157,3.71795 -16.4782,3.69504 -21.2348,-0.0465 l -3.5132,-2.76344 v 10.09677 10.09678 h -4.6667 -4.6666 z m 29.7706,2.6089 c 4.257,-3.34854 5.8261,-10.47795 3.5275,-16.02733 -1.6645,-4.01846 -7.2265,-7.9149 -11.2981,-7.9149 -4.0717,0 -9.6336,3.89644 -11.2981,7.9149 -3.6974,8.92622 2.2226,18.75177 11.2981,18.75177 2.3689,0 5.8656,-1.226 7.7706,-2.72444 z m -241.36045,12.51134 c -3.5256,-4.15053 -8.96017,-10.47056 -12.07684,-14.0445 -8.18005,-9.38023 -7.81887,-11.09154 5.92641,-28.08034 l 11.59308,-14.32873 h 11.07359 c 6.09047,0 11.07359,0.35814 11.07359,0.79586 0,0.43772 -4.9893,6.88772 -11.08734,14.33333 -6.09803,7.44561 -11.53095,14.28345 -12.07315,15.19519 -0.62247,1.04671 3.70981,7.08942 11.754,16.3946 7.0069,8.1053 12.73982,15.30933 12.73982,16.00896 0,0.70674 -5.00253,1.27206 -11.25649,1.27206 h -11.2565 z m 100.03895,-3.72791 c -6.1135,-3.75051 -11.13546,-12.27262 -11.08651,-18.81329 0.0426,-5.68966 4.28861,-14.15423 9.15361,-18.24781 10.2889,-8.6576 27.1121,-5.16865 33.763,7.00211 3.3337,6.10051 2.7517,18.42362 -1.1146,23.6022 -4.8034,6.43358 -9.3311,8.86239 -17.48,9.37694 -6.4227,0.40555 -8.5962,-0.074 -13.2355,-2.92015 z m 20.9868,-9.95643 c 9.0531,-9.05311 1.1242,-24.54681 -11.3631,-22.2042 -8.6712,1.62673 -13.2253,10.53174 -9.4523,18.48281 4.0139,8.45848 14.2485,10.28825 20.8154,3.72139 z m 150.6589,10.95948 c -8.6165,-4.51448 -10.0414,-8.00535 -10.5398,-25.82127 l -0.445,-15.90744 h 4.6604 4.6603 l 0.4513,14.78705 c 0.4168,13.65531 0.6922,14.98194 3.599,17.33334 1.7313,1.40045 4.2148,2.54628 5.519,2.54628 1.3042,0 3.7877,-1.14583 5.5189,-2.54628 2.9068,-2.3514 3.1823,-3.67803 3.5991,-17.33334 l 0.4513,-14.78705 h 4.5487 4.5487 l -0.029,13.66667 c -0.044,20.40472 -4.194,27.80392 -16.6374,29.66132 -3.7886,0.56551 -6.6576,0.10228 -9.9052,-1.59928 z m 41.6462,-0.94416 c -3.5939,-3.08901 -3.7589,-3.77056 -4.1957,-17.33333 -0.4137,-12.84581 -0.6841,-14.11788 -3,-14.11788 -2.02,0 -2.5453,-0.96307 -2.5453,-4.66667 0,-3.77778 0.5079,-4.66667 2.6667,-4.66667 2.074,0 2.6666,-0.88889 2.6666,-4 0,-3.68254 0.3704,-4 4.6667,-4 4.2963,0 4.6667,0.31746 4.6667,4 0,3.77778 0.2962,4 5.3333,4 5.2063,0 5.3333,0.11111 5.3333,4.66667 0,4.55555 -0.127,4.66667 -5.3333,4.66667 h -5.3333 v 11.17007 c 0,12.11033 1.2937,14.714 6.9205,13.9272 2.5851,-0.36149 3.1444,0.23702 3.4843,3.72852 0.3298,3.38828 -0.1645,4.3116 -2.6667,4.9818 -5.6075,1.50191 -8.8842,0.89222 -12.6638,-2.35638 z m 60.8212,0.18372 c -7.1154,-4.79505 -10.5622,-10.94747 -10.5622,-18.85292 0,-15.23268 12.4663,-25.65905 27.3425,-22.86826 6.6203,1.24198 14.6581,9.30599 16.6459,16.70023 2.7306,10.15701 -2.344,20.99369 -12.2555,26.17172 -5.6618,2.95782 -15.8997,2.40132 -21.1707,-1.15077 z m 20.3501,-10.13266 c 3.333,-2.97806 4.2877,-4.90585 4.2877,-8.65819 0,-8.74353 -8.0763,-15.58515 -16.0387,-13.58671 -9.9762,2.50385 -13.2736,14.83545 -5.9305,22.17852 5.2971,5.29716 11.7999,5.32158 17.6815,0.0664 z M 871.41964,425.44165 c 0,-14.25226 0.6049,-27.5042 1.34421,-29.44875 1.11686,-2.93756 7.18586,-11.42817 15.65864,-21.90665 1.34682,-1.66564 1.60454,3.61573 1.33334,27.32366 l -0.33619,29.3884 -8,10.21689 c -4.4,5.61929 -8.45,10.24452 -9,10.27827 -0.55,0.0338 -1,-11.59956 -1,-25.85182 z m 92,4.57986 v -21.33333 h 4.60826 4.60825 l 0.39175,9.36244 0.39174,9.36245 7.13161,-9.36245 c 6.68475,-8.7758 7.45753,-9.36244 12.33333,-9.36244 2.86095,0 5.20173,0.34717 5.20173,0.77148 0,0.42432 -3.5185,5.07741 -7.81889,10.34021 l -7.81889,9.56873 9.15476,10.65979 9.15481,10.65979 -5.56908,0.42139 c -5.20515,0.39386 -5.92406,0.005 -11.00254,-5.95763 -2.98843,-3.50846 -6.76454,-7.89809 -8.39137,-9.75473 l -2.95786,-3.3757 -0.0421,9.66667 -0.0421,9.66667 h -4.66667 -4.66667 z m 86.66666,0 v -21.33333 h 3.8889 c 2.1389,0 4.1153,0.67931 4.3921,1.50957 0.3479,1.0438 1.8017,0.8381 4.7116,-0.66667 2.3146,-1.19693 5.7679,-2.17623 7.6741,-2.17623 4.1119,0 10.8432,3.24498 11.6966,5.63861 0.4234,1.18756 1.6317,0.75073 4.0375,-1.4597 2.1176,-1.94572 5.6909,-3.4089 9.3252,-3.81854 5.1129,-0.57631 6.447,-0.15921 10.0894,3.15442 5.0047,4.55296 6.8513,12.45925 6.8513,29.33386 v 11.15135 h -5.3334 -5.3333 v -15.12669 c 0,-12.96116 -0.349,-15.44258 -2.4383,-17.33333 -3.2786,-2.96707 -7.6526,-2.78238 -10.895,0.46002 -2.3434,2.34343 -2.6667,4.44444 -2.6667,17.33333 v 14.66667 h -4.6666 -4.6667 l -0.032,-11 c -0.036,-12.44807 -1.6078,-20.86118 -4.2051,-22.50797 -3.0439,-1.92991 -7.6592,-1.2626 -10.4298,1.50797 -2.3434,2.34343 -2.6666,4.44444 -2.6666,17.33333 v 14.66667 h -4.6667 -4.6667 z m 196,0 v -21.33333 h 4.6667 c 3.754,0 4.6667,0.51368 4.6667,2.62649 0,2.49097 0.2503,2.45658 4.8527,-0.66667 6.3018,-4.27651 11.1548,-4.40437 11.1268,-0.29315 -0.029,4.27725 -1.6556,6.29902 -6.0029,7.46167 -6.8363,1.82832 -9.1222,6.72977 -9.7414,20.88784 l -0.5533,12.65049 h -4.5077 -4.5076 z m 78.6667,0 v -21.33333 h 4 c 2.529,0 4,0.68264 4,1.85627 0,1.45267 1.0871,1.28943 5,-0.75075 10.0121,-5.22038 20.5461,-0.49215 23.0612,10.35118 0.6647,2.86548 1.2228,11.05997 1.2403,18.20997 l 0.032,13 h -4.5192 -4.5191 l -0.5068,-14.80547 c -0.4655,-13.60185 -0.7605,-15.01096 -3.6285,-17.33333 -4.0384,-3.27006 -8.8053,-3.21565 -12.1597,0.1388 -2.3435,2.34343 -2.6667,4.44444 -2.6667,17.33333 v 14.66667 h -4.6667 -4.6666 z m 46.6667,0 v -21.33333 h 4.6666 4.6667 v 21.33333 21.33334 h -4.6667 -4.6666 z m 18.6666,0 v -21.33333 h 4.6667 4.6667 v 9.53305 9.53306 l 7.5427,-9.53306 c 7.082,-8.95069 7.8657,-9.53305 12.8293,-9.53305 6.079,0 6.3098,-0.65271 -4.6117,13.04431 l -6.2397,7.82537 9.1641,10.56516 9.164,10.56516 -5.5804,0.42576 c -4.521,0.34494 -6.0886,-0.16931 -8.2577,-2.70903 -1.4725,-1.72414 -5.2234,-6.11573 -8.3354,-9.7591 l -5.658,-6.6243 -0.01,9.66667 -0.01,9.66667 h -4.6667 -4.6667 z m -18.4396,-28.99999 c -1.3308,-2.58765 -0.608,-5.81188 1.6396,-7.31292 4.749,-3.17171 10.1817,1.90655 7.4667,6.97958 -1.7727,3.31233 -7.4669,3.52077 -9.1063,0.33334 z"
       id="path1" />
  </g>
</svg>
