<svg id="KOMPUTRONIK" width="500" height="79.308144" viewBox="0 0 500 79.308144" version="1.1" xml:space="preserve" xmlns:xlink="http://www.w3.org/1999/xlink" xmlns="http://www.w3.org/2000/svg" xmlns:svg="http://www.w3.org/2000/svg">
	<path id="K" style="fill:#000000;stroke:#000000;stroke-width:0" d="M 36.804452,17.227648 H 26.271871 L 9.112488,38.825761 V 17.345615 H 0 v 44.966316 h 9.112488 v -22.30621 l 19.171406,22.30621 H 39.526372 L 19.408238,38.943721 Z" />
	<path id="O" style="fill:#000000;stroke:#000000;stroke-width:0" d="m 61.778389,15.812645 c -13.254202,0 -24.141881,10.739771 -24.141881,23.958346 0,13.21827 10.769113,23.95834 24.141881,23.95834 13.254202,0 24.023315,-10.74007 24.023315,-23.95834 0,-13.218575 -10.769113,-23.958346 -24.023315,-23.958346 z m 0,38.829046 c -8.284026,0 -15.029393,-6.60943 -15.029393,-14.8707 0,-8.26157 6.745367,-14.870709 15.029393,-14.870709 8.16546,0 14.911126,6.727099 14.911126,14.870709 0,8.26127 -6.6271,14.8707 -14.911126,14.8707 z" />
	<path id="M" style="fill:#000000;stroke:#000000;stroke-width:0" d="m 144.13211,15.812645 c -6.86393,0 -12.18951,3.304568 -15.26623,9.087637 -2.60365,-6.845369 -7.69239,-9.087637 -13.37276,-9.087637 -5.79864,0 -10.41402,2.242268 -13.49104,6.373202 l -0.35509,-4.839035 h -8.520564 v 44.966019 h 9.112484 v -24.07631 c 0,-8.851404 3.55009,-13.336239 10.41402,-13.336239 5.9172,0 9.11249,3.422535 9.11249,12.864369 v 24.54818 h 9.11219 v -24.54818 c 0,-8.733734 3.90518,-12.864369 10.41401,-12.864369 6.03547,0 9.23076,3.658469 9.23076,13.336239 v 24.07631 h 9.11249 V 38.236521 C 159.5163,20.887614 152.65267,15.812645 144.13211,15.812645 Z" />
	<path id="P" style="fill:#000000;stroke:#000000;stroke-width:0" d="m 194.43598,15.812645 c -6.50734,0 -11.95118,2.832401 -15.50126,7.789403 l -0.47337,-6.373203 h -8.28402 v 62.079296 h 8.87565 v -23.01431 c 3.55039,4.83903 8.87566,7.55347 15.383,7.55347 13.49133,0 22.01249,-11.44817 22.01249,-23.95835 0,-13.454501 -9.34753,-24.076306 -22.01249,-24.076306 z m -1.4186,38.947016 c -8.16576,0 -13.9644,-6.3732 -13.9644,-14.87071 0,-8.8517 6.27201,-14.870702 13.9644,-14.870702 7.92773,0 14.3201,6.373202 14.3201,14.870702 0.11677,8.02534 -5.9193,14.87071 -14.3201,14.87071 z" />
	<path id="U" style="fill:#000000;stroke:#000000;stroke-width:0" d="m 252.89543,17.227648 v 25.138613 c 0,7.4352 -4.49711,11.6841 -10.41342,11.6841 -5.67977,0 -10.06012,-4.2489 -10.06012,-11.6841 V 17.227648 h -9.11099 v 25.256573 c 0,12.27424 8.28463,20.41785 19.17111,20.41785 11.00625,0 19.40764,-8.26157 19.40764,-20.41785 V 17.227648 Z" />
	<path id="T" style="fill:#000000;stroke:#000000;stroke-width:0" d="M 284.13568,47.798121 V 26.082046 h 10.76971 V 17.230642 H 284.13568 V 8.496905 h -8.52116 v 3.894702 c 0,3.540801 -1.77549,5.547135 -5.08694,5.547135 h -1.53896 v 8.261271 h 6.03607 v 21.716078 c 0,9.9137 4.02105,15.34287 11.59608,15.34287 2.72162,0 6.15283,-0.59013 8.40139,-1.29823 v -8.37954 c -1.89226,0.59013 -4.02405,1.062 -5.56001,1.062 -3.67075,-0.23593 -5.32647,-2.71443 -5.32647,-6.84507 z" />
	<path id="R" style="fill:#000000;stroke:#000000;stroke-width:0" d="m 314.67232,24.313143 -0.47606,-7.081004 h -8.51816 v 45.083982 h 9.11099 v -19.35554 c 0,-14.162603 7.69179,-17.467171 14.20093,-17.585138 0.47306,0 0.94613,0 1.30242,0 l 1.4192,-9.913705 c -5.91631,0 -12.66197,2.360235 -17.03932,8.851405 z" />
	<path id="O" style="fill:#000000;stroke:#000000;stroke-width:0" d="m 357.51464,15.812645 c -13.2548,0 -24.14129,10.739771 -24.14129,23.958346 0,13.21827 10.76672,23.95834 24.14129,23.95834 13.2548,0 24.02152,-10.74007 24.02152,-23.95834 -0.11677,-13.218575 -10.88649,-23.958346 -24.02152,-23.958346 z m 0,38.829046 c -8.28463,0 -15.03029,-6.60943 -15.03029,-14.8707 0,-8.26157 6.74566,-14.870709 15.03029,-14.870709 8.16486,0 14.91052,6.727099 14.91052,14.870709 -0.11676,8.26127 -6.74566,14.8707 -14.91052,14.8707 z" />
	<path id="N" style="fill:#000000;stroke:#000000;stroke-width:0" d="m 412.41712,16.058159 c -5.91631,0 -10.64995,2.242268 -13.9644,6.373203 l -0.47307,-5.310902 h -8.52115 v 45.201951 h 9.11398 v -24.31224 c 0,-8.733739 4.25759,-13.100308 10.88648,-13.100308 6.50914,0 10.41342,3.540502 10.41342,13.100308 v 24.31224 h 9.11399 v -24.31224 c 0,-17.113276 -7.57503,-21.952012 -16.56925,-21.952012 z" />
	<path id="I" style="fill:#000000;stroke:#000000;stroke-width:0" d="m 445.19932,0 c -2.95815,0 -5.44324,2.360534 -5.44324,5.429169 0,2.950368 2.36532,5.428869 5.44324,5.428869 2.95815,0 5.44324,-2.360534 5.44324,-5.428869 C 450.52579,2.478501 448.15747,0 445.19932,0 Z m 4.50609,17.227648 h -9.11398 v 45.084283 h 9.11398 z" />
	<path id="K" style="fill:#000000;stroke:#000000;stroke-width:0" d="M 479.763,38.943721 497.27838,17.227648 H 486.7452 L 469.58612,38.825761 V 17.345615 h -9.111 v 44.966316 h 9.111 v -22.30621 l 19.1711,22.30621 H 500 Z" />
</svg>
