<svg id="KROKUS" width="500" height="105.3432" viewBox="0 0 500 105.3432" version="1.1" xml:space="preserve" xmlns:xlink="http://www.w3.org/1999/xlink" xmlns="http://www.w3.org/2000/svg" xmlns:svg="http://www.w3.org/2000/svg">
	<path id="KROKUS" style="fill:#000000;stroke:#000000;stroke-width:0" d="M 49.628947,6.4352216e-5 37.233585,0.00627446 25.968462,30.288796 C 10.763211,71.161235 1.8400856,94.980612 0.58778062,98.038926 0.01625889,99.434662 -0.17147114,101.02954 0.17170387,101.58489 v 0.002 c 0.34328416,0.55536 5.76239293,1.01018 12.04345613,1.01018 10.803791,0 11.477683,-0.1337 12.471952,-2.45713 0.57807,-1.350767 5.025821,-13.262088 9.88441,-26.469519 C 41.470279,54.917303 58.272618,9.8060751 61.504729,1.3580064 61.903462,0.31568987 59.099005,-0.00523493 49.628947,6.4352216e-5 Z M 113.04029,0.01455459 98.357537,0.03525492 92.768447,5.1979187 C 89.694388,8.0377849 77.783065,18.635181 66.298927,28.746621 54.81479,38.858062 45.420568,47.716549 45.420568,48.432641 c 0,1.342203 18.800521,50.819065 20.124867,52.961809 0.890137,1.44035 28.992891,1.69522 28.992891,0.26289 0,-0.78713 -2.342009,-6.165325 -9.81196,-22.530241 C 77.201511,62.642143 71.616844,49.623556 71.616844,48.569263 c 0,-0.722632 6.700159,-6.913447 14.889751,-13.757443 C 104.13339,20.081225 125.22255,2.3096316 126.68388,0.95434984 127.28586,0.39608066 121.56246,0.00226024 113.04029,0.01455459 Z M 293.76457,0.22776805 282.06475,0.53827309 276.69301,14.728353 c -2.9542,7.804397 -6.80585,18.118783 -8.55752,22.921483 -1.75179,4.8027 -6.20399,16.83719 -9.89476,26.742763 -3.69078,9.905574 -8.38474,22.570781 -10.43091,28.144178 l -3.71984,10.132813 11.5425,-0.3105 11.54458,-0.30844 3.52527,-9.27789 c 1.93942,-5.102873 5.45831,-14.528927 7.81852,-20.94667 2.3602,-6.417743 4.61554,-11.085402 5.01154,-10.370868 0.39613,0.714535 3.26399,8.422564 6.37364,17.127458 3.10975,8.704904 6.29493,17.545501 7.07745,19.646689 l 1.4221,3.821281 12.21527,0.30844 c 11.30338,0.28632 12.16973,0.16395 11.58806,-1.6374 -0.34569,-1.07069 -4.05861,-10.542183 -8.24909,-21.048102 l -7.61772,-19.10227 3.08021,-2.728304 c 1.69372,-1.500843 10.83803,-9.113989 20.32151,-16.918385 l 17.24131,-14.190081 -12.70379,-0.308434 -12.70379,-0.306366 -18.73588,16.409157 c -10.30563,9.025182 -18.90762,16.239474 -19.1147,16.03241 -0.20705,-0.207064 0.58864,-2.786145 1.76781,-5.731923 1.17906,-2.945788 5.79944,-15.17899 10.26737,-27.185752 4.46793,-12.006751 8.47904,-22.7068432 8.91357,-23.7784754 0.73351,-1.8090278 -0.0478,-1.92627123 -10.91115,-1.63739655 z M 171.50839,24.051785 c -3.72841,-0.13855 -9.3213,0.444713 -12.63134,1.612556 -2.58571,0.912283 -6.2082,2.789594 -8.05037,4.171118 -5.83692,4.377158 -6.13775,4.399691 -4.44643,0.351906 0.85555,-2.047167 1.24784,-4.028623 0.87149,-4.405032 -0.37646,-0.376429 -5.18902,-0.68518 -10.69587,-0.68518 H 126.54311 L 112.5559,62.481959 c -7.69305,20.561579 -14.210168,37.998541 -14.481958,38.748961 -0.375593,1.03699 2.292648,1.36415 11.118158,1.36415 8.33225,0 11.73248,-0.38511 12.04138,-1.36415 2.93554,-9.301849 15.57732,-41.625902 17.68844,-45.228166 5.72405,-9.767443 18.07226,-16.085553 26.85662,-13.740883 2.34427,0.625729 4.38196,0.687161 4.71967,0.140761 0.75108,-1.215391 4.81283,-15.807879 4.81283,-17.29099 0,-0.633832 -1.56561,-0.976726 -3.80265,-1.059857 z m 44.60716,0.175953 c -27.79784,0.810972 -51.40539,19.843461 -57.79121,47.378929 -3.03301,13.077991 1.0724,24.008554 10.78281,28.709293 5.64088,2.73072 17.94963,4.1293 23.02913,4.14421 l 11.79347,-0.54648 6.11852,-1.48008 c 0.1857,0.3318 7.17995,-2.931137 7.9158,-3.301708 20.74311,-10.446037 35.7465,-37.787212 31.6177,-56.236602 -2.56726,-11.471725 -11.81672,-17.642899 -27.85438,-18.584762 -1.88657,-0.110794 -3.75867,-0.136866 -5.61185,-0.08281 z m 0.25461,16.150402 c 3.74481,-0.03185 4.49146,0.630852 7.03604,3.175432 3.30513,3.305154 3.43006,3.753422 3.01604,10.778665 -0.54761,9.294333 -4.02063,16.41795 -10.64825,21.838854 -2.72161,2.226093 -6.55899,5.751151 -8.52647,7.833008 -3.29989,3.491784 -4.16752,3.819582 -11.19474,4.216657 -7.48797,0.423106 -7.68306,0.365241 -11.45143,-3.403134 -4.65273,-4.652636 -5.02193,-9.327409 -1.55046,-19.6322 2.8383,-8.425281 7.97714,-15.542167 14.71588,-20.38155 4.58036,-3.289319 6.14758,-3.770208 13.68085,-4.206308 2.0925,-0.121131 3.67427,-0.208806 4.92254,-0.219424 z M 482.80004,25.266895 c -8.29331,-0.146821 -17.24026,0.300319 -21.08743,1.442813 -11.59504,3.44336 -20.0577,11.937222 -21.60701,21.685672 -0.93042,5.854757 2.01951,11.908481 9.95686,20.435371 8.17048,8.777356 9.36585,10.949258 8.00068,14.539916 -2.85499,7.509311 -17.20859,8.923405 -29.63253,2.920819 -2.33609,-1.128695 -4.48641,-1.665643 -4.77764,-1.19441 -0.64411,1.042264 -3.80253,14.269943 -3.82542,16.019984 -0.0482,3.74206 35.63383,6.70613 42.76275,1.16336 l 11.94291,-11.209187 6.02599,-13.717178 c -0.86654,-0.266874 -6.08877,-16.61589 -8.88352,-19.724255 -8.57348,-9.53579 -8.76449,-12.452793 -1.05779,-16.183522 5.25951,-2.546085 10.64093,-2.344459 20.48712,0.767982 2.89047,0.913703 5.37343,1.488472 5.51871,1.27721 0.68417,-0.995259 3.73672,-15.707104 3.34104,-16.102791 -1.23244,-1.232428 -8.8714,-1.974964 -17.16472,-2.121784 z m -117.83667,0.933585 -11.18853,0.01242 -2.91667,7.901318 c -1.60443,4.345944 -6.39449,17.293524 -10.64411,28.771396 -4.24964,11.477882 -8.00027,23.01973 -8.33602,25.649786 -0.86308,6.760109 2.09232,11.82352 8.37535,14.34326 3.76575,1.51035 7.12117,1.83312 15.70534,1.5132 12.21797,-0.45536 17.74981,-2.17748 25.92303,-8.068993 2.85161,-2.055529 5.18544,-3.425317 5.18544,-3.045019 0,0.380309 -0.95114,2.659486 -2.11351,5.065371 -2.62696,5.437151 -2.43872,5.526231 10.90908,5.115051 l 10.26943,-0.31671 5.1192,-13.643594 c 15.88341,-42.345673 22.74966,-61.118444 22.74966,-62.185879 0,-0.813398 -3.58473,-1.09903 -11.14299,-0.888044 l -11.14298,0.310504 -4.70933,12.552684 c -10.73732,28.62687 -12.45539,32.534576 -16.25804,36.97701 -7.24411,8.463151 -20.64688,12.942879 -28.11727,9.397953 -4.19592,-1.991069 -5.46823,-5.124809 -4.02207,-9.900971 0.52994,-1.750131 4.69354,-13.158468 9.25305,-25.351701 4.55951,-12.193223 8.29048,-22.630766 8.29048,-23.194727 0,-0.573542 -4.9304,-1.020675 -11.18854,-1.014316 z" />
</svg>
