<svg
   version="1.1"
   id="svg1"
   width="290.3298"
   height="94.571609"
   viewBox="0 0 290.3298 94.571609"
   xmlns="http://www.w3.org/2000/svg"
   xmlns:svg="http://www.w3.org/2000/svg">
  <defs
     id="defs1" />
  <g
     id="g1"
     transform="translate(-319.9696,47.413947)">
    <path
       style="fill:#000000"
       d="m 491.69343,46.963668 c -26.39856,-1.898768 -47.44341,-8.940631 -57.76,-19.327194 -4.64467,-4.676181 -6.5947,-8.771783 -6.63699,-13.939536 -0.0122,-1.496 0.0702,-3.008 0.18321,-3.36 0.19819,-0.6172911 0.0552,-0.6409011 -4.03037,-0.6653971 -8.17641,-0.049022 -13.20804,-2.434337 -15.66409,-7.425789 -1.02149,-2.07596504 -1.05149,-2.25280304 -1.04233,-6.143155 0.009,-3.684294 0.0937,-4.249552 1.06048,-7.0456599 3.05752,-8.843358 8.79645,-15.441809 16.85009,-19.373728 12.89064,-6.293425 28.0957,-4.092424 31.57091,4.570034 0.631,1.572851 0.73881,2.407801 0.73391,5.683694 -0.005,3.500672 -0.0985,4.108635 -1.05577,6.88 -2.5201,7.2961589 -6.92931,13.17047186 -12.95202,17.2557409 -1.39894,0.948918 -7.20362,3.86426 -7.69405,3.86426 -0.11164,0 -0.20298,-0.837864 -0.20298,-1.86192 0,-3.256857 1.34071,-6.71586104 4.11555,-10.61808 0.81349,-1.144 1.48029,-2.193253 1.48176,-2.331672 0.001,-0.13842 0.16381,-0.35442 0.36073,-0.48 0.48485,-0.309205 1.98927,-3.3349889 2.73312,-5.4970179 2.62565,-7.631577 0.41875,-12.321384 -5.99529,-12.740395 -6.69192,-0.437164 -12.55926,3.415737 -16.21466,10.647649 -2.16107,4.275517 -3.06214,8.4031179 -2.46371,11.2857369 0.86578,4.17044196 5.31771,6.103577 11.16723,4.84908 1.42799,-0.30624904 1.97235,-0.69757504 4.67402,-3.36 1.68178,-1.65736 3.20671,-3.013381 3.38872,-3.013381 0.18201,0 -0.71486,1.18485 -1.99303,2.633001 -3.03711,3.44098496 -5.62446,7.445437 -6.64606,10.286147 -1.07264,2.9825991 -1.11396,7.0928181 -0.0996,9.9033771 4.29317,11.895042 21.78486,20.828664 46.77119,23.887694 19.54993,2.393462 41.81126,0.883296 61.36215,-4.16269 15.12911,-3.904749 28.12827,-9.609582 37.20179,-16.326449 3.0586,-2.264188 5.75567,-4.522115 5.75591,-4.818707 8e-5,-0.108694 -0.63398,-1.143284 -1.40903,-2.299089 -1.26826,-1.89131 -2.75082,-5.1409261 -2.75082,-6.0295251 0,-0.201996 -0.22947,-0.246076 -0.56,-0.107572 -4.16196,1.744012 -9.27005,2.5611281 -14.32,2.2907001 -3.39695,-0.1819091 -10.33558,-1.3155091 -10.7735,-1.7601221 -0.11742,-0.119221 0.22909,-2.189289 0.77004,-4.600152 l 0.98354,-4.38338604 1.14996,0.504739 c 2.79508,1.22681004 6.36312,2.31820404 8.2337,2.51852704 5.22588,0.559644 10.03626,-1.92561604 10.03626,-5.185184 0,-1.272441 -1.53505,-3.509738 -4.82547,-7.032996 -4.42136,-4.7342509 -5.2545,-6.3005109 -5.2545,-9.8783139 0,-3.146423 0.87632,-5.253302 3.22619,-7.756531 5.06856,-5.399359 14.02904,-7.158653 26.37381,-5.178214 1.32,0.211764 2.50502,0.476929 2.63337,0.589254 0.23611,0.206627 -1.58468,7.657014 -1.9824,8.11169 -0.11845,0.135409 -0.85337,0.01942 -1.63316,-0.257763 -3.77885,-1.343202 -9.23331,-1.831442 -11.97059,-1.071513 -0.7086,0.196724 -1.8079,0.888471 -2.48,1.560569 -2.18029,2.180291 -1.71045,3.52373 3.06371,8.760215 l 2.58718,2.837707 0.48689,-0.757707 c 0.78579,-1.222875 2.33245,-2.577413 3.506,-3.070506 0.97377,-0.409151 1.22358,-0.398623 2.32483,0.09797 l 1.23383,0.556381 1.4195,-1.019407 c 5.83749,-4.192163 10.65056,-2.532563 13.77084,4.748336 0.528,1.23204 1.07384,2.2421959 1.21296,2.2447939 0.13913,0.0026 0.68656,-0.315854 1.21652,-0.7076689 0.89271,-0.66001 1.02671,-0.676945 1.82241,-0.230327 1.43745,0.8068149 1.69465,1.7091749 1.49446,5.2429579 -0.33132,5.84835196 -1.4826,10.155096 -3.54502,13.261325 -1.59897,2.4082191 -5.04579,5.7309571 -7.85293,7.5702271 -1.29162,0.846284 -2.6364,1.871023 -2.9884,2.277197 -0.85804,0.990104 -3.30096,2.017562 -5.36031,2.254474 -1.5895,0.182859 -1.84528,0.351595 -4.76387,3.142712 -12.28262,11.74615 -36.036,20.178908 -64.91582,23.045956 -5.92645,0.58835 -23.45583,0.862005 -29.12,0.454599 z m 94.59828,-30.531072 c 0.098,-0.255389 -0.17841,-0.939389 -0.61425,-1.52 -2.55304,-3.401092 -3.83651,-7.9891261 -3.87601,-13.8556581 -0.0154,-2.288 0.044,-4.948428 0.13198,-5.912061 0.13416,-1.469107 0.0725,-1.769484 -0.38175,-1.85995 -0.80719,-0.160751 -1.05995,1.578521 -1.03647,7.13201096 0.0274,6.49441704 1.02305,10.44405514 3.66176,14.52666314 1.27574,1.973805 1.7898,2.335761 2.11474,1.488995 z m 11.79324,-3.135658 c 4.66145,-4.7193221 8.12921,-10.2049451 9.7312,-15.3937081 0.85649,-2.774131 0.86341,-3.406292 0.0373,-3.406292 -0.40746,0 -0.64,0.213333 -0.64,0.58715 0,0.97332 -1.25484,4.54532896 -2.46847,7.026706 -1.67411,3.422879 -3.97032,6.529532 -7.54416,10.2068721 -2.85006,2.932591 -3.46199,3.939272 -2.39457,3.939272 0.19526,0 1.67068,-1.332 3.27872,-2.96 z m -5.678,-3.5200001 c 0.52829,-1.804 1.51343,-5.763235 2.18921,-8.79830004 0.94912,-4.26272896 1.14213,-5.60484396 0.84831,-5.89866696 -0.2092,-0.209202 -0.46438,-0.296357 -0.56706,-0.193678 -0.10268,0.102679 -0.59556,2.037079 -1.09529,4.29866696 -1.1592,5.24606604 -2.40099,10.11844204 -3.04036,11.92935414 -0.39909,1.130365 -0.4182,1.469564 -0.0944,1.6751 0.22332,0.141748 0.49447,0.259929 0.60254,0.262624 0.10807,0.0027 0.62873,-1.4711 1.15702,-3.2751001 z m 5.88835,-17.822549 c 0.28235,-0.809957 0.57183,-0.993047 2.05778,-1.301529 0.95106,-0.197439 1.82024,-0.506291 1.93151,-0.6863369 0.29731,-0.481051 -2.0364,-2.736303 -3.62955,-3.507536 -1.93709,-0.937728 -2.17152,-0.628678 -2.11613,2.789641 0.0373,2.2986149 0.14965,2.8825779 0.62116,3.2273599 0.76442,0.558953 0.75743,0.562164 1.13523,-0.521599 z m -87.72187,17.87438 c -6.30498,-0.753817 -9.1393,-4.230622 -8.03299,-9.85392204 0.20365,-1.03508896 2.94195,-8.77506496 6.08513,-17.19994486 l 5.71487,-15.317965 5.9565,-0.08706 c 3.27607,-0.04788 5.95649,0.03484 5.95649,0.183821 0,0.148985 -2.24975,6.308162 -4.99945,13.687061 -2.7497,7.378899 -5.06212,13.9201799 -5.13872,14.5361799 -0.18805,1.512269 0.76394,3.176047 2.33149,4.07473496 2.27193,1.30251904 7.08553,0.886135 10.97906,-0.94970696 2.68483,-1.265921 5.8645,-4.454469 7.43428,-7.455026 0.64166,-1.226501 3.00089,-7.1620029 5.24273,-13.1900029 l 4.07607,-10.96 h 6.03049 6.03048 l -0.80433,2.16 c -0.44238,1.188 -3.94458,10.584 -7.78266,20.8799999 l -6.97833,18.720001 -5.97056,0.08706 c -3.55815,0.05188 -5.97055,-0.034 -5.97055,-0.212551 0,-0.164786 0.504,-1.620316 1.12,-3.23451 0.616,-1.614195 1.12,-3.064125 1.12,-3.222066 0,-0.157942 -0.684,0.377765 -1.52,1.190458 -1.96079,1.90613 -4.7923,3.751928 -7.07333,4.610944 -3.82525,1.440557 -9.45147,2.0731981 -13.80667,1.552495 z m -56.32,-1.024387 c 0,-0.05091 4.66669,-12.614906 10.37042,-27.9199999 l 10.37042,-27.827445 6.06331,-0.08675 6.06331,-0.08675 -10.43373,28.005771 -10.43373,28.0057699 -6,9.78e-4 c -3.3,5.38e-4 -6,-0.04067 -6,-0.09158 z m 29.60823,-0.467444 c -0.72736,-1.849423 -7.83064,-21.9030159 -7.91082,-22.3334019 -0.0641,-0.344126 3.40273,-3.625076 10.14259,-9.598749 l 10.24,-9.075911 6.81114,-0.01597 6.81113,-0.01597 -1.05113,0.905352 c -0.57813,0.497945 -5.55114,4.608953 -11.05114,9.135574 -5.5,4.526622 -10,8.294149 -10,8.372282 0,0.07813 2.016,5.2663909 4.48,11.5294609 2.464,6.26307 4.48,11.448135 4.48,11.522366 0,0.07423 -2.86459,0.134967 -6.36576,0.134967 -5.7654,0 -6.38654,-0.05281 -6.58601,-0.56 z m -163.85274,-0.32 c 0.12318,-0.308 4.80775,-12.849164 10.41015,-27.8692519 5.60241,-15.020088 10.24808,-27.371137 10.32371,-27.446774 0.0756,-0.07564 3.01077,-0.09848 6.52252,-0.05075 l 6.38499,0.08677 -10.40421,27.92 -10.40421,27.9200009 h -6.52846 c -6.08957,0 -6.5134,-0.03765 -6.30449,-0.56 z m 30.54973,-14.075497 c -3.07187,-8.0495229 -5.58522,-14.7468669 -5.58522,-14.8829869 0,-0.13612 6.696,-6.145759 14.88,-13.354753 l 14.88,-13.107263 7.50857,-0.0097 c 6.4292,-0.0083 7.44121,0.05434 7.04,0.436082 -0.32303,0.307355 -27.97963,23.456321 -30.67247,25.673292 -0.10219,0.08413 2.84369,6.821685 12.33035,28.2008759 l 0.74548,1.68 h -7.77074 -7.77074 z m 24.1237,12.635497 c 0.40888,-1.1 3.894,-10.46 7.74471,-20.8000009 l 7.00128,-18.8 h 5.69254 c 3.1309,0 5.69255,0.06283 5.69255,0.139619 0,0.07679 -0.432,1.261505 -0.96,2.632701 -0.528,1.371195 -0.96,2.536045 -0.96,2.588555 0,0.05251 0.95941,-0.718421 2.13202,-1.713181 2.41936,-2.052403 5.85159,-3.804106 8.39165,-4.282832 3.15965,-0.5955 6.43633,-0.315327 6.43633,0.550338 0,0.523782 -2.20161,8.793077 -2.39166,8.983127 -0.0653,0.06527 -1.14248,-0.04018 -2.39379,-0.234325 -5.31612,-0.824823 -10.53399,1.3018 -13.82533,5.634719 -1.8531,2.439541 -3.10806,5.299119 -7.312,16.6612799 l -3.93675,10.64 h -6.02749 -6.02748 z"
       id="path1" />
  </g>
</svg>
