<svg id="KROKUS" width="500" height="162.3896" viewBox="0 0 500 162.3896" version="1.1" xml:space="preserve" xmlns:xlink="http://www.w3.org/1999/xlink" xmlns="http://www.w3.org/2000/svg" xmlns:svg="http://www.w3.org/2000/svg">
	<path id="KROKUS" style="fill:#000000;stroke:#000000;stroke-width:0" d="m 483.1389,73.96466 c -0.25447,-0.273307 -0.71435,-0.849018 -1.02197,-1.27936 -1.27885,-1.789029 -3.96961,-3.883381 -6.16168,-4.795944 -1.5978,-0.665164 -2.64084,-0.896727 -4.73451,-1.051101 -1.01601,-0.07491 -2.00229,-0.219166 -2.19175,-0.320559 -0.43905,-0.234975 -0.77727,-1.041219 -0.77727,-1.852865 0,-1.388863 -0.74411,-3.431721 -2.22363,-6.104697 -1.04599,-1.889731 -1.4013,-2.911576 -1.23828,-3.561116 0.25725,-1.02496 1.61635,-2.019287 4.54866,-3.327841 5.96478,-2.661797 9.49848,-2.103369 13.87439,2.192558 3.06887,3.012768 6.41269,8.843456 6.46753,11.277548 0.0274,1.213954 -1.17014,3.47598 -3.57113,6.745794 -1.09993,1.497952 -2.09937,2.574503 -2.39012,2.574503 -0.0647,0 -0.32578,-0.223614 -0.58024,-0.49692 z m -24.71842,0.847161 c -0.0393,-0.06649 -0.15708,-0.636926 -0.26172,-1.267632 -0.27373,-1.649941 -0.80773,-3.182338 -1.83821,-5.274999 -1.12092,-2.276305 -2.21275,-3.735679 -3.54221,-4.734593 -1.34767,-1.012602 -1.48413,-1.339573 -1.04698,-2.50852 0.77057,-2.060469 2.89872,-4.434796 4.82495,-5.383077 3.05097,-1.501985 6.06295,0.29785 8.24608,4.927517 0.37084,0.786408 1.09204,2.530289 1.60268,3.875289 l 0.92843,2.445456 -3.17223,3.183679 c -3.90459,3.918685 -5.46387,5.20529 -5.74079,4.73688 z m 4.40915,34.318749 c -0.64892,-1.55308 -3.06755,-27.819652 -2.75505,-29.920139 0.26532,-1.783403 1.65495,-4.016937 3.76659,-6.053986 2.74692,-2.649885 5.44584,-4.039751 7.85384,-4.044499 3.27345,-0.0065 8.22814,3.050458 9.82066,6.059079 0.63165,1.193329 0.62875,1.686581 -0.0213,3.628798 -1.16908,3.492828 -3.74458,8.590486 -8.77757,17.373347 -4.01013,6.99791 -6.64065,11.05545 -8.15304,12.5759 -1.02267,1.02812 -1.42678,1.11703 -1.7341,0.3815 z m -3.30369,5.55114 c -4.48914,-0.94722 -8.80482,-4.46816 -12.7535,-10.40492 -1.40054,-2.10568 -3.36953,-6.038255 -4.13393,-8.256519 -1.40059,-4.064484 -1.96165,-7.247455 -1.96744,-11.161592 -0.008,-5.336392 1.0378,-9.025132 3.9226,-13.837316 1.81159,-3.02193 4.03774,-5.827092 5.27438,-6.646209 0.85086,-0.563583 1.01312,-0.570817 1.66422,-0.0742 1.48356,1.131567 3.61106,5.643168 4.71363,9.995771 1.28895,5.08837 3.99542,26.064765 4.59809,35.637315 0.12496,1.98474 0.28499,2.29347 1.18884,2.29347 2.90785,0 7.12217,-5.34709 13.73783,-17.430429 2.08859,-3.814769 2.41699,-4.433644 4.8681,-9.173911 2.70871,-5.23843 4.18495,-7.915578 5.77539,-10.473549 3.89538,-6.265133 7.60098,-10.313564 9.44537,-10.319215 1.53212,-0.0047 2.32719,3.067077 2.15646,8.331534 -0.2268,6.993536 -1.94164,14.922738 -4.2326,19.571011 -2.72501,5.528947 -12.36107,14.497399 -20.27441,18.869759 -5.26492,2.90902 -9.92527,3.93521 -13.98303,3.079 z m -170.01567,47.42843 c -1.6993,-0.23418 -7.49237,-0.93031 -12.87348,-1.54697 -14.39903,-1.6501 -34.11646,-6.34167 -46.90332,-11.16021 -29.55935,-11.13902 -45.27075,-26.58767 -45.27075,-44.51371 v -6.845139 l -3.17666,0.51549 c -4.73075,0.7677 -16.40689,-1.33308 -21.72919,-3.90958 -9.162,-4.43526 -13.03527,-14.74775 -10.17355,-27.08714 6.42685,-27.71238 31.34145,-46.29789 59.8219,-44.62529 15.1319,0.88867 23.8596,6.71196 26.28187,17.5358 3.89562,17.40743 -10.07385,41.70309 -29.64545,51.55917 -4.08326,2.0563 -7.73232,3.73873 -8.10884,3.73873 -1.40908,0 0.54078,-11.22949 2.67685,-15.41655 3.4192,-6.70206 1.83525,-5.98866 -3.83681,1.72808 -6.4322,8.75091 -7.20049,10.24402 -8.5796,16.67475 -2.1335,9.948039 3.61827,22.120599 14.35145,30.372529 26.87446,20.66158 81.96552,29.81594 136.59972,22.69846 34.21172,-4.45693 66.23412,-14.46423 88.04776,-27.51568 8.4484,-5.05485 20.79993,-14.17724 20.34339,-15.02489 -0.19053,-0.35378 -1.85914,-3.73643 -3.70797,-7.51702 l -3.36142,-6.873789 -3.80149,1.60753 c -7.84736,3.31847 -40.39233,2.43316 -40.34681,-1.09756 0.0216,-1.65121 3.00158,-14.13295 3.60931,-15.11635 0.27478,-0.44462 2.30302,0.0629 4.50716,1.12785 11.72228,5.66358 25.26466,4.32811 27.95841,-2.7571 1.28807,-3.38787 0.16086,-5.43641 -7.54818,-13.71805 -7.48907,-8.04532 -10.27242,-13.75809 -9.39455,-19.28219 1.46181,-9.19789 9.44563,-17.2105 20.38582,-20.45939 7.25981,-2.15594 33.76681,-1.68668 36.09248,0.63897 0.37333,0.37334 -2.5061,14.25527 -3.15163,15.19432 -0.13708,0.19933 -2.48057,-0.34295 -5.20779,-1.20505 -9.29011,-2.93666 -14.36782,-3.12703 -19.33029,-0.72474 -7.27145,3.52003 -7.09164,6.27207 0.99764,15.26931 4.73754,5.26917 4.92828,5.36898 6.3594,3.32588 2.1648,-3.09067 7.22294,-5.45811 9.24449,-4.32681 1.20053,0.67185 2.89828,0.10442 6.04816,-2.02143 4.73095,-3.19284 9.82071,-3.81522 14.34456,-1.75402 2.55677,1.16498 9.81854,10.8816 9.81854,13.13782 0,0.62369 1.45079,1.00133 3.28603,0.85536 2.6059,-0.20728 3.56204,0.27156 4.61932,2.3133 3.00549,5.80427 0.26282,22.39109 -5.02169,30.36922 -5.4257,8.191359 -21.84536,20.094799 -27.71875,20.094799 -2.02309,0 -4.40139,1.52698 -8.30988,5.33528 -18.64882,18.17128 -56.91363,32.90043 -101.2541,38.97541 -8.16951,1.1193 -61.00708,2.24845 -66.94206,1.4306 z m 186.08102,-51.60495 c 7.1247,-4.39766 15.60996,-12.492019 18.06066,-17.228839 4.16895,-8.05775 6.04878,-25.75807 3.00395,-28.28506 -2.24627,-1.86427 -8.68877,6.0573 -14.98195,18.42147 -7.17134,14.08962 -12.14184,22.496609 -15.37463,26.004409 -2.74596,2.97953 -5.29615,3.71715 -5.34095,1.54482 -0.11802,-5.71941 -2.70652,-27.126789 -4.22466,-34.938769 -1.15635,-5.95059 -4.20283,-12.17815 -5.95743,-12.17815 -1.86923,0 -7.29906,7.70674 -8.96612,12.72592 -3.17326,9.55379 -0.29908,21.79942 7.2904,31.061409 7.30688,8.91712 15.29472,9.78335 26.49073,2.87279 z m -4.24578,-11.750039 c 7.66219,-13.11956 11.30044,-20.82326 10.71115,-22.68006 -1.06613,-3.35904 -6.563,-7.08063 -10.45821,-7.08063 -4.67327,0 -11.64339,6.45805 -11.64339,10.78806 0,4.39943 2.16223,27.663999 2.73042,29.377179 0.66478,2.00489 3.1712,-1.0064 8.66003,-10.404549 z M 195.54358,79.260101 c 1.85636,-1.96428 5.47617,-5.2899 8.04407,-7.39027 6.25332,-5.11475 9.5308,-11.83632 10.04749,-20.60574 0.39063,-6.62848 0.27199,-7.05224 -2.84648,-10.17073 -3.20117,-3.20116 -3.38459,-3.24651 -11.2819,-2.78935 -7.10781,0.41147 -8.58712,0.86645 -12.9088,3.97 -6.35816,4.56607 -11.2062,11.28098 -13.8842,19.23043 -3.27542,9.72281 -2.92722,14.13237 1.46274,18.52224 3.55555,3.55555 3.73938,3.61019 10.80445,3.21098 6.63035,-0.37465 7.44911,-0.68298 10.56263,-3.97756 z M 465.6472,62.229631 c -2.3268,-6.09242 -5.79172,-8.49941 -9.43131,-6.55157 -1.43864,0.76999 -3.23691,2.60095 -3.99593,4.06881 -1.23616,2.39052 -1.16541,2.80293 0.67879,3.95467 2.09622,1.30911 5.03271,7.16307 5.28709,10.53996 0.10865,1.44271 1.16901,0.821 4.68862,-2.74908 l 4.54825,-4.61342 z m 24.17433,3.12815 c 0,-2.58276 -3.70077,-9.02454 -6.85734,-11.9363 -4.18327,-3.85875 -7.81482,-4.43434 -13.13363,-2.08161 -5.784,2.55853 -6.22334,3.44974 -3.72259,7.55137 1.14316,1.87496 2.08014,4.45177 2.08231,5.72624 0,1.92553 0.56962,2.31837 3.35091,2.32401 3.69592,0.007 8.27414,2.60173 10.69765,6.06187 1.56985,2.24123 1.5786,2.23759 4.57771,-1.90265 1.65275,-2.28149 3.00498,-4.86581 3.00498,-5.74293 z m -168.78351,31.71045 c -5.92818,-2.37744 -8.71833,-7.15458 -7.904,-13.5329 0.31679,-2.48152 3.85658,-13.37248 7.86621,-24.20213 4.00962,-10.82964 8.52872,-23.04521 10.04254,-27.14571 l 2.75225,-7.45546 10.55625,-0.0111 c 5.9047,-0.006 10.55624,0.41514 10.55624,0.95629 0,0.53211 -3.51981,10.38032 -7.82182,21.88491 -4.302,11.5046 -8.23088,22.2685 -8.73089,23.91979 -1.36448,4.50642 -0.16272,7.46406 3.79623,9.34268 7.04849,3.34472 19.69446,-0.88213 26.52945,-8.86731 3.58789,-4.19154 5.20902,-7.87886 15.33993,-34.88898 l 4.44228,-11.8436 10.51413,-0.2935 c 7.13139,-0.19907 10.51423,0.0707 10.51423,0.83816 0,1.00715 -6.4802,18.71919 -21.46657,58.67332 l -4.82869,12.87348 -9.68992,0.2985 c -12.59396,0.38796 -12.77223,0.3044 -10.29363,-4.82568 1.09672,-2.27001 1.99405,-4.42086 1.99405,-4.77969 0,-0.35882 -2.20136,0.93441 -4.89192,2.87385 -7.71162,5.55878 -12.93166,7.18355 -24.4596,7.61319 -8.09937,0.30185 -11.26367,-0.003 -14.81675,-1.42805 z M 0.16225136,95.848471 c -0.32379363,-0.52399 -0.14758151,-2.03019 0.39166258,-3.3471 C 1.7354929,89.615781 10.154539,67.142561 24.501048,28.578461 L 35.130418,0.00606084 46.826742,6.083893e-5 C 55.761963,-0.00493916 58.406792,0.29724084 58.030578,1.2806908 54.981006,9.2516408 39.128404,51.816041 32.619266,69.510111 c -4.584192,12.46152 -8.781151,23.70006 -9.326574,24.97454 -0.938116,2.19221 -1.572933,2.31722 -11.766562,2.31722 -5.926329,0 -11.03998203,-0.42871 -11.36387864,-0.9527 z M 61.843907,95.668721 c -1.249551,-2.02173 -18.989405,-48.70509 -18.989405,-49.97149 0,-0.67565 8.865499,-9.03422 19.70105,-18.5746 C 73.391104,17.582251 84.629647,7.5841808 87.530093,4.9047008 l 5.27349,-4.87178996 13.851857,-0.0201 c 8.04087,-0.0116 13.44145,0.36054 12.87347,0.88728 C 118.15011,2.1788308 98.252049,18.947361 81.620756,32.846021 c -7.727071,6.45747 -14.049183,12.29871 -14.049183,12.98053 0,0.99475 5.269988,13.27833 12.369864,28.83227 7.048073,15.44068 9.257573,20.51385 9.257573,21.25653 0,1.35143 -26.515238,1.11241 -27.355103,-0.24659 z m 30.690671,-0.1549 c 0.25644,-0.70804 6.40512,-17.16034 13.663692,-36.56067 l 13.19748,-35.27332 h 9.44707 c 5.19584,0 9.7376,0.29059 10.0928,0.64576 0.3551,0.35515 -0.0144,2.22611 -0.82163,4.15766 -1.5958,3.81918 -1.31279,3.79669 4.19448,-0.33326 1.73813,-1.3035 5.1564,-3.07425 7.59607,-3.93501 4.99697,-1.76302 15.50543,-2.11687 15.50543,-0.52211 0,1.39935 -3.83248,15.16734 -4.54114,16.31409 -0.31864,0.51554 -2.24163,0.45866 -4.4535,-0.13173 -8.28825,-2.21225 -19.93844,3.74822 -25.33922,12.96403 -1.99189,3.39882 -13.91942,33.89805 -16.68917,42.67456 -0.29146,0.92375 -3.50076,1.28735 -11.36244,1.28735 -8.327075,0 -10.844303,-0.30892 -10.489922,-1.28735 z m 141.279892,-8.20424 c 1.93061,-5.25863 6.35949,-17.208 9.84182,-26.55414 3.48233,-9.34614 7.68382,-20.70055 9.33667,-25.23201 1.65274,-4.53146 5.28564,-14.26381 8.073,-21.62744 l 5.06803,-13.38841016 11.03978,-0.29357 c 10.24986,-0.27256 10.98643,-0.16204 10.29435,1.54481996 -0.40999,1.01111 -4.19449,11.1072902 -8.41009,22.4359402 -4.2156,11.32866 -8.57497,22.87164 -9.68744,25.65106 -1.11258,2.77941 -1.86305,5.21333 -1.66768,5.4087 0.19537,0.19537 8.3108,-6.612 18.0344,-15.12747 l 17.67909,-15.48269 11.98654,0.29014 11.98665,0.29014 -16.26878,13.38841 c -8.94789,7.36363 -17.57641,14.54703 -19.17447,15.96311 l -2.9056,2.5747 7.18855,18.02286 c 3.95381,9.91258 7.4556,18.84941 7.78176,19.85963 0.54882,1.69962 -0.26746,1.81497 -10.93246,1.54482 l -11.52557,-0.29195 -1.34235,-3.60457 c -0.73832,-1.98252 -3.74298,-10.32453 -6.67711,-18.53781 -2.93402,-8.21327 -5.64043,-15.48483 -6.01418,-16.15901 -0.37364,-0.67418 -2.50147,3.72855 -4.72837,9.78384 -2.22691,6.05529 -5.5461,14.94891 -7.37599,19.76359 l -3.32712,8.75396 -10.89189,0.29225 -10.89188,0.29226 z" />
</svg>
