<?xml version="1.1" encoding="UTF-8" standalone="no"?>
<svg id="KSGROUP" width="645" height="290" viewBox="0 0 645 290" version="1.1" xml:space="preserve" xmlns:xlink="http://www.w3.org/1999/xlink" xmlns="http://www.w3.org/2000/svg" xmlns:svg="http://www.w3.org/2000/svg">
	<path id="RAMKA" style="fill:none;stroke:#000000;stroke-width:10" d="M 10,4.9999985 635,5 c 5.4562,0 5,-0.3536322 5,5 v 270 c 0,5.35362 0.4562,5 -5,5 H 10 c -5.4562067,0 -5,0.35362 -5,-5 V 9.9999985 c 0,-5.3536317 -0.4562067,-5 5,-5 z" />
	<path id="K" d="M 94.891713,274.99979 73.404113,145.18545 94.891713,15.000009 H 60.842133 L 47.618993,127.38232 V 14.999999 H 14.891723 V 275 h 32.72727 V 162.6177 l 13.22314,112.38209 z" />
	<path id="S" d="M 269.89172,111.26929 V 51.100978 c 0,-20.056101 -14.72803,-36.100979 -33.13807,-36.100979 h -13.72386 c -18.41004,0 -33.13807,16.044878 -33.13807,36.100979 V 238.89903 c 0,20.0561 14.72803,36.10097 33.13807,36.10097 h 13.72386 c 18.41004,0 33.13807,-16.04487 33.13807,-36.10097 V 138.61852 H 229.0549 v 34.64236 h 7.69875 v 60.16829 c 0,3.64658 -3.01256,6.92848 -6.69457,6.92848 h -0.66945 c -3.34728,0 -6.35984,-3.2819 -6.35984,-6.92848 V 56.570824 c 0,-3.646565 3.01256,-6.928472 6.35984,-6.928472 h 0.66945 c 3.68201,0 6.69457,3.281907 6.69457,6.928472 v 54.698466 z" />
	<path id="G" d="M 270,111.26929 V 51.100979 C 270,31.044878 255.27197,14.999998 236.86193,14.999998 H 223.13807 C 204.72803,14.999998 190,31.044878 190,51.100979 V 238.89903 C 190,258.95513 204.72803,275 223.13807,275 h 13.72386 C 255.27197,275 270,258.95513 270,238.89903 V 138.61852 h -40.83682 v 34.64236 h 7.69875 v 60.16829 c 0,3.64658 -3.01256,6.92848 -6.69457,6.92848 h -0.66945 c -3.34728,0 -6.35984,-3.2819 -6.35984,-6.92848 V 56.570825 c 0,-3.646565 3.01256,-6.928472 6.35984,-6.928472 h 0.66945 c 3.68201,0 6.69457,3.281907 6.69457,6.928472 v 54.698465 z" />
	<path id="R" d="m 340.2251,145.74285 h -0.66667 c 11.00001,0 20.33335,-10.02857 20.33335,-22.65714 V 43.971425 c 0,-15.971429 -12.00001,-28.971426 -26.33335,-28.971426 H 279.89172 V 275 h 33.00002 V 163.19999 h 3.66667 c 5.66667,0 10.00001,5.20001 10.00001,11.14287 V 275 h 33.33336 V 167.65713 c 0,-12.25714 -9.00001,-21.91428 -19.66668,-21.91428 z M 326.55842,57.342854 v 62.028576 c 0,4.82856 -3.33334,8.54284 -7.66667,8.54284 h -6.00001 V 50.28571 h 7.33334 c 3.33334,0 6.33334,3.342858 6.33334,7.057144 z" />
	<path id="O" d="M 369.89172,51.100975 V 238.89902 c 0,20.05611 14.72802,36.10098 33.13804,36.10098 h 13.72384 c 18.41002,0 33.13802,-16.04487 33.13802,-36.10098 V 51.100975 c 0,-20.056098 -14.728,-36.100976 -33.13802,-36.100976 h -13.72384 c -18.41002,0 -33.13804,16.044878 -33.13804,36.100976 z M 403.02976,233.42917 V 56.570823 c 0,-3.646565 3.01255,-6.928471 6.35983,-6.928471 h 0.66945 c 3.68201,0 6.69456,3.281906 6.69456,6.928471 V 233.42917 c 0,3.64658 -3.01255,6.92848 -6.69456,6.92848 h -0.66945 c -3.34728,0 -6.35983,-3.2819 -6.35983,-6.92848 z" />
	<path id="U" d="M 506.75352,14.999999 V 232.64872 c 0,4.05099 -3.0125,7.36544 -6.6945,7.36544 h -0.6695 c -3.3472,0 -6.3598,-3.31445 -6.3598,-7.36544 V 14.999999 h -33.138 V 238.17281 c 0,20.25494 14.728,36.82719 33.138,36.82719 h 13.7238 c 18.41,0 33.138,-16.57225 33.138,-36.82719 V 14.999999 ZM 506.75352,14.999999 V 232.64872 c 0,4.05099 -3.0125,7.36544 -6.6945,7.36544 h -0.6695 c -3.3472,0 -6.3598,-3.31445 -6.3598,-7.36544 V 14.999999 h -33.138 V 238.17281 c 0,20.25494 14.728,36.82719 33.138,36.82719 h 13.7238 c 18.41,0 33.138,-16.57225 33.138,-36.82719 V 14.999999 Z" />
	<path id="P" d="m 602.22502,14.999999 h -52.3333 V 275 h 33 V 172.85715 h 19.3333 c 15.3334,0 27.6667,-14.11431 27.6667,-30.82857 V 45.828567 c 0,-17.085713 -12.3333,-30.828568 -27.6667,-30.828568 z m -5.6666,115.142851 c 0,4.08571 -2.6667,7.05714 -6.3334,7.05714 h -7.3333 V 50.285711 h 7.3333 c 3.6667,0 6.3334,3.342856 6.3334,7.057143 z" />
</svg>
