<?xml version="1.0" encoding="UTF-8" standalone="no"?>
<svg id="KSGROUP" width="645" height="290" viewBox="0 0 645 290" xmlns:xlink="http://www.w3.org/1999/xlink" xmlns:svg="http://www.w3.org/2000/svg">
<metadata>
	<rdf:RDF xmlns:rdf="http://www.w3.org/1999/02/22-rdf-syntax-ns#" xmlns:dc="http://purl.org/dc/elements/1.1/">
		<cc:Work rdf:about="KSGROUPSVG">
			<dc:creator><cc:Agent><dc:title>KOZŁOWSKI SEBASTIAN</dc:title></cc:Agent></dc:creator>
			<dc:identifier>https://kozlowskisebastian.pl/</dc:identifier>
		</cc:Work>
	</rdf:RDF>
</metadata>
	<rect id="RAMKA" width="645" height="290" x="0" y="0" rx="1" ry="1" fill="none" stroke="#000000" stroke-width="10" />
	<path id="K" d="M95 274.9998 73.5124 145.1855 95 15H60.9504L47.7273 127.3823V15H15V275h32.7273V162.6177l13.2231 112.3821z" />
	<path id="S" d="M180 51.101C180 31.0449 165.2962 15 146.9166 15h-13.7012c-18.3797 0-33.153 16.0449-33.153 36.101v64.9088c0 0-1.6013 15.3156 11.4316 26.2553l31.4126 26.6199c3.6759 2.9173 4.0101 7.6578 4.0101 8.7517v55.7924c0 3.6466-3.0076 6.9285-6.6835 6.9285h-.3342c-3.6759 0-6.6835-3.2819-6.6835-6.9285v-59.439h-33.153v64.9088c0 20.0561 14.7733 36.101 33.153 36.101h13.7012C165.2962 275 180 258.9551 180 238.899v-64.9088c0-22.2441-13.0329-31.7251-13.0329-31.7251l-28.405-23.7027-1.6709-1.4586c-1.6709-1.4586-3.6759-4.7405-3.6759-10.2104V56.5708c0-3.6466 3.0076-6.9285 6.6835-6.9285h.3342c3.6759 0 6.6835 3.2819 6.6835 6.9285V111.2693H180Z" />
	<path id="G" d="M270 111.2693V51.101C270 31.0449 255.272 15 236.8619 15H223.1381C204.728 15 190 31.0449 190 51.101V238.899C190 258.9551 204.728 275 223.1381 275h13.7239C255.272 275 270 258.9551 270 238.899V138.6185h-40.8368v34.6424h7.6988v60.1683c0 3.6466-3.0126 6.9285-6.6946 6.9285h-.6694c-3.3473 0-6.3598-3.2819-6.3598-6.9285V56.5708c0-3.6466 3.0126-6.9285 6.3598-6.9285h.6694c3.682 0 6.6946 3.2819 6.6946 6.9285v54.6985Z" />
	<path id="R" d="M340 145.7429h-.6667c11 0 20.3333-10.0286 20.3333-22.6571V43.9714c0-15.9714-12-28.9714-26.3333-28.9714H280V275h33V163.2h3.6667c5.6667 0 10 5.2 10 11.1429V275h33.3334V167.6571c0-12.2571-9-21.9143-19.6667-21.9143zM326.6667 57.3429v62.0286c0 4.8286-3.3333 8.5428-7.6667 8.5428h-6V50.2857h7.3333c3.3333 0 6.3333 3.3429 6.3333 7.0571Z" />
	<path id="O" d="M370 51.101V238.899C370 258.9551 384.728 275 403.138 275h13.7238c18.41 0 33.138-16.0449 33.138-36.101V51.101c0-20.0561-14.728-36.101-33.138-36.101H403.138C384.728 15 370 31.0449 370 51.101ZM403.138 233.4292V56.5708c0-3.6466 3.0126-6.9285 6.3598-6.9285h.6694c3.682 0 6.6946 3.2819 6.6946 6.9285V233.4292c0 3.6466-3.0126 6.9285-6.6946 6.9285h-.6694c-3.3473 0-6.3598-3.2819-6.3598-6.9285Z" />
	<path id="U" d="M506 15V232.6487c0 4.051-3.0125 7.3654-6.6945 7.3654h-.6695c-3.3473 0-6.3598-3.3144-6.3598-7.3654V15H460V238.1728C460 258.4278 474.728 275 493.138 275h13.7238c18.41 0 33.138-16.5723 33.138-36.8272V15Z" />
	<path id="P" d="M602 15H550V275h33V172.8571h19.3333C617.6667 172.8571 630 158.7428 630 142.0286V45.8286c0-17.0857-12.3333-30.8286-27.6667-30.8286zm-5.6667 115.1429c0 4.0857-2.6667 7.0571-6.3333 7.0571H583V50.2857h7.3333c3.6667 0 6.3333 3.3429 6.3333 7.0571Z" />
</svg>
