<svg id="KSGROUP" width="645" height="290" viewBox="0 0 645 290">
	<rect id="RAMKA" width="645" height="290" x="0" y="0" rx="1" ry="1" fill="none" stroke="#000000" stroke-width="10" />
	<path id="K" d="M 94.999988,274.99979 73.512388,145.18545 94.999988,15.000012 H 60.950408 L 47.727268,127.38232 V 14.999998 H 14.999998 V 275 h 32.72727 V 162.6177 l 13.22314,112.38209 Z" />
	<path id="S" d="M 180,51.10098 C 180,31.044879 165.29625,14.999998 146.91656,14.999998 h -13.70122 c -18.37969,0 -33.15303,16.044881 -33.15303,36.100982 v 64.90884 c 0,0 -1.6013,15.31557 11.43158,26.25526 l 31.41256,26.61992 c 3.67594,2.91725 4.01011,7.65778 4.01011,8.75175 v 55.79243 c 0,3.64656 -3.00758,6.92846 -6.68352,6.92846 h -0.33418 c -3.67593,0 -6.68352,-3.2819 -6.68352,-6.92846 v -59.43899 h -33.15303 v 64.90883 c 0,20.0561 14.77334,36.10098 33.15303,36.10098 h 13.70122 C 165.29625,275 180,258.95512 180,238.89902 v -64.90883 c 0,-22.24405 -13.03287,-31.72511 -13.03287,-31.72511 l -28.40498,-23.70266 -1.67087,-1.45863 c -1.67088,-1.45862 -3.67594,-4.74053 -3.67594,-10.21038 V 56.570825 c 0,-3.646564 3.00759,-6.92847 6.68352,-6.92847 h 0.33418 c 3.67594,0 6.68352,3.281906 6.68352,6.92847 V 111.26929 H 180 Z" />
	<path id="G" d="M 270,111.26929 V 51.100979 C 270,31.044878 255.27197,14.999998 236.86193,14.999998 H 223.13807 C 204.72803,14.999998 190,31.044878 190,51.100979 V 238.89903 C 190,258.95513 204.72803,275 223.13807,275 h 13.72386 C 255.27197,275 270,258.95513 270,238.89903 V 138.61852 h -40.83682 v 34.64236 h 7.69875 v 60.16829 c 0,3.64658 -3.01256,6.92848 -6.69457,6.92848 h -0.66945 c -3.34728,0 -6.35984,-3.2819 -6.35984,-6.92848 V 56.570825 c 0,-3.646565 3.01256,-6.928472 6.35984,-6.928472 h 0.66945 c 3.68201,0 6.69457,3.281907 6.69457,6.928472 v 54.698465 Z" />
	<path id="R" d="M 340.33338,145.74285 h -0.66667 c 11.00001,0 20.33335,-10.02857 20.33335,-22.65714 V 43.971426 c 0,-15.971429 -12.00001,-28.971428 -26.33335,-28.971428 H 280 V 275 h 33.00002 V 163.19999 h 3.66667 c 5.66667,0 10.00001,5.20001 10.00001,11.14287 V 275 h 33.33336 V 167.65713 c 0,-12.25714 -9.00001,-21.91428 -19.66668,-21.91428 z M 326.6667,57.342855 v 62.028575 c 0,4.82856 -3.33334,8.54284 -7.66667,8.54284 h -6.00001 V 50.285711 h 7.33334 c 3.33334,0 6.33334,3.342858 6.33334,7.057144 Z" />
	<path id="O" d="M 370,51.100976 V 238.89902 C 370,258.95513 384.72802,275 403.13804,275 h 13.72384 c 18.41002,0 33.13804,-16.04487 33.13804,-36.10098 V 51.100976 c 0,-20.056098 -14.72802,-36.100978 -33.13804,-36.100978 H 403.13804 C 384.72802,14.999998 370,31.044878 370,51.100976 Z M 403.13804,233.42917 V 56.570824 c 0,-3.646565 3.01255,-6.928471 6.35983,-6.928471 h 0.66945 c 3.68201,0 6.69456,3.281906 6.69456,6.928471 V 233.42917 c 0,3.64658 -3.01255,6.92848 -6.69456,6.92848 h -0.66945 c -3.34728,0 -6.35983,-3.2819 -6.35983,-6.92848 Z" />
	<path id="U" d="M 506.86183,14.999998 V 232.64872 c 0,4.05099 -3.01254,7.36544 -6.69454,7.36544 h -0.66946 c -3.34727,0 -6.35982,-3.31445 -6.35982,-7.36544 V 14.999998 H 460 V 238.17281 C 460,258.42775 474.728,275 493.13801,275 h 13.72382 c 18.41001,0 33.13801,-16.57225 33.13801,-36.82719 V 14.999998 Z" />
	<path id="P" d="M 602.33333,14.999998 H 550 V 275 h 33 V 172.85715 h 19.33333 C 617.66667,172.85715 630,158.74284 630,142.02858 V 45.828568 c 0,-17.085713 -12.33333,-30.82857 -27.66667,-30.82857 z m -5.66666,115.142852 c 0,4.08571 -2.66667,7.05714 -6.33334,7.05714 H 583 V 50.285712 h 7.33333 c 3.66667,0 6.33334,3.342856 6.33334,7.057143 Z" />
</svg>
