<?xml version="1.0" encoding="UTF-8" standalone="no"?>
<svg id="LAPASVG" width="417.50729" height="499.99994" viewBox="0 0 12.525219 14.999998" version="1.1" xml:space="preserve" xmlns:xlink="http://www.w3.org/1999/xlink" xmlns="http://www.w3.org/2000/svg" xmlns:svg="http://www.w3.org/2000/svg">
   <defs id="LAPADEFS" />
	 <path id="LAPA1" style="fill:none;stroke:#000000;stroke-width:1.04651;stroke-linecap:round;stroke-linejoin:round" d="M 3.6298711,9.2939992 2.3581223,8.0828364 C 1.9102571,7.6562783 1.1972827,7.6887201 0.79000832,8.1542085 v 0 C 0.42193625,8.5748364 0.43277113,9.2060225 0.81506181,9.6138132 L 4.9606083,14.035743 c 0.2637977,0.281372 0.6316116,0.441 1.0172861,0.441 0.7569767,0 2.001488,0 3.2333718,0 1.6744188,0 2.7906978,-1.395349 2.7906978,-2.790697 0,0 0,0 0,0 0,0 0,-4.7840235 0,-5.9800538" />
	 <path id="LAPA2" style="fill:none;stroke:#000000;stroke-width:1.04651;stroke-linecap:round;stroke-linejoin:round" d="m 9.9089406,6.1046155 c 0,0 0,-0.087293 0,-0.3986721 0,-1.5946884 2.0930234,-1.5946884 2.0930234,0" />
  	 <path id="LAPA3" style="fill:none;stroke:#000000;stroke-width:1.04651;stroke-linecap:round;stroke-linejoin:round" d="m 7.8159173,6.1046364 c 0,0 0,-0.5732512 0,-1.1960093 0,-1.5946884 2.0930233,-1.5946884 2.0930233,0 0,0.1556861 0,0.6416512 0,0.7973372 0,0.3113861 0,0.3986721 0,0.3986721" />
	 <path id="LAPA4" style="fill:none;stroke:#000000;stroke-width:1.04651;stroke-linecap:round;stroke-linejoin:round" d="m 5.7228944,6.1047201 c 0,0 0,-0.9657628 0,-1.7442209 0,-1.5946814 2.0930229,-1.5946814 2.0930229,0 0,0 0,0 0,0 0,0 0,0.3924837 0,0.5481767 0,0.6227582 0,1.1960442 0,1.1960442" />
	 <path id="LAPA5" style="fill:none;stroke:#000000;stroke-width:1.04651;stroke-linecap:round;stroke-linejoin:round" d="M 3.6298711,9.2939992 V 1.5697666 c 0,-0.5779744 0.4685372,-1.04651161 1.0465116,-1.04651161 v 0 c 0.5779535,0 1.0465117,0.46783255 1.0465117,1.04580701 0,0.8307139 0,1.9831884 0,2.7914023 0,0.7784512 0,1.7441861 0,1.7441861" />
</svg>
