<svg
   version="1.1"
   id="svg1"
   width="442.02515"
   height="46.826355"
   viewBox="0 0 442.02515 46.826355"
   xmlns="http://www.w3.org/2000/svg"
   xmlns:svg="http://www.w3.org/2000/svg">
  <defs
     id="defs1" />
  <g
     id="g1"
     transform="translate(-157.27252,188.62477)">
    <path
       style="fill:#000000;stroke:none"
       d="m 174.28418,-145.08462 3,-1 c 0.62421,5.30572 7.96682,-0.33194 12,-0.5 8.59011,-0.35791 20.22257,9.9685 27.66667,1.33334 3.25388,-3.77451 5.61929,-11.97546 4,-16.83334 -0.97569,-2.92704 -3.47953,-5.15085 -4.66667,-8 -1.23682,-2.96837 -1.34353,-6.16034 -3,-9 -1.80029,-3.08623 -4.96072,-4.6932 -6,-8 l 2,2 c 4.00421,-5.87282 -7.17914,-2.66668 -9.66666,-2.66668 -6.70786,0 -12.92365,-0.093 -19.33334,2.66668 -3.73924,1.60995 -6.23391,5.3067 -10,6.66667 -4.37445,1.57966 -13.37998,0.49368 -13,7.33333 0.44314,7.97647 8.46127,9.21716 12.83333,14.16665 2.29717,2.60057 3.23373,8.56803 4.16667,11.83335 m 40,-6 5,-8 -12,-1 c 1.41212,1.93512 6,4.6779 6,7 0,5.23474 -6.53987,3.89605 -8.66666,1 -5.03463,-6.85567 3.66445,-21.19475 -9.33334,-23 -2.23456,-0.31037 -4.73868,0 -7,0 1.38821,2.39781 3.12805,4.95578 6,5.83333 2.18192,0.6667 4.79428,-0.65006 6.5,1.33334 5.1262,5.96069 -4.61777,13.7003 2.5,19.66667 1.39035,1.16544 3.08576,2.2587 5,1.83331 3.42549,-0.7612 5.18534,-2.66665 9,-2.66665 -7.18926,12.41783 -17.29305,0.70593 -27,0.16665 -3.59736,-0.19984 -7.6282,1.76856 -11,2.83335 l -3,-2 -4.66667,-16 -0.83333,-8 -6.5,-2 c 2.01631,2.84115 5.00149,3.88307 2,7 l 3,5 c -4.43779,-0.11679 -13.87413,-8.15062 -7.83333,-12.5 2.2525,-1.6218 6.24828,0.0643 8.83333,-0.83333 3.77436,-1.31053 6.68741,-5.17095 10,-7.33335 5.49375,-3.58619 12.59994,-3.95556 19,-3.33332 3.37863,0.32847 10.02392,2.57338 11.5,6 0.94933,2.20379 -1.32165,3.9338 -0.33333,6.16667 2.00157,4.52206 6.48433,7.46864 8.66667,11.83333 2.56801,5.13601 1.37011,10.83676 -4.83334,11 m -24.66666,-33.33333 0.33333,0.66665 -0.33333,-0.66665 m 5.66666,-0.66667 1,1 -1,-1 m 2,0 1,1 -1,-1 m -6,1 v 2 h 2 v -2 h -2 m 9.66667,0.33332 0.66667,0.33335 -0.66667,-0.33335 m 93.33333,38.66668 c 3.30208,-8.36533 -4.97415,-9 -11,-9 v -7 l 8.66667,-0.5 -0.83334,-7 -7.83333,-0.5 v -6 h 12 l -1.16667,-7.5 -7.83333,-0.5 -17,-1 -5.66667,0.5 -2.16666,7.5 -1.16667,22 h -11 v -17 l -2.33333,-11.83333 -14.66667,-0.33335 -4.83333,0.66668 -2.16667,8.5 1,11 -0.33333,10 2.5,7.5 11.83333,0.5 h 37 17 m 80,-1 20,1.83334 7,-6.83334 7,5.5 13,-2.5 c 2.53427,6.2511 7.65335,3.07425 13,3 2.40784,-0.0334 5.95578,0.71089 7.83335,-1.16666 2.50305,-2.50308 1.16665,-9.51993 1.16665,-12.83334 l 7,14.83334 4,-0.66669 5.66666,-1.33331 1,-13.83334 -2,-5 1.5,-14 -11.16666,-4 -17,-1 -9.66665,2 -1.33335,10 v 22 c -4.1557,-8.31137 -6.86014,-16.95188 -11.66665,-25 -1.49018,-2.49518 -2.82926,-5.97159 -5.33335,-7.66668 -2.23492,-1.51287 -11.70157,-1.13174 -13.66665,0.83335 -2.15607,2.15606 -3.10215,6.18477 -4.5,8.83333 -4.62317,8.75966 -11.83335,16.73837 -11.83335,27 m 135,-23 h -1 c -4.4415,-14.06478 -17.52768,-14 -30,-14 -3.29278,0 -10.33636,-1.3303 -12.83334,1.16667 -1.5802,1.5802 -1.66977,5.6719 -2,7.83333 -0.65317,4.27525 0.25095,8.70467 -0.16666,13 -0.36349,3.73895 -1.37463,7.14651 -1,11 0.73184,7.52743 8.26966,6 14,6 12.70496,0 27.1673,-1.88274 32,-15 1.64261,3.28518 2.32123,7.05835 5.16666,9.66665 8.09561,7.42099 26.81454,7.77106 34.83334,0.33335 5.64438,-5.23538 6.01886,-12.15605 8,-19 2.88431,4.05939 5.91342,6.59842 11,7 v 1 c -2.80652,0 -7.45608,-0.87828 -9.83334,0.83334 -3.58463,2.58092 1.40115,10.07086 3.83334,11.83331 8.33567,6.04035 22.49283,3.75359 31,-0.5 2.91037,-1.45517 6.78971,-3.38104 7,-7.16665 0.42798,-7.70374 -9.44366,-10.59535 -15,-12.83333 -1.92434,-0.77509 -7.91571,-1.93886 -6.5,-5.16667 2.36209,-5.38558 5.62436,2.24876 6.5,4 2.78321,-0.5127 8.86353,-0.15665 10.83335,-2.16667 1.78744,-1.82394 0.87216,-4.89893 -0.33335,-6.83333 -2.58383,-4.14617 -8.8721,-5.74289 -13.5,-6 -8.3822,-0.46569 -18.9396,3.41806 -25,9 -0.64419,-8.15982 -7.60257,-7 -14,-7 0,7.69882 2.89954,25.71316 -8,26 l -1,-26 -14,-1 -6.83334,0.33332 -3.16666,13.66668 m -324,-14 1,1 -1,-1 m 19,0 1,1 -1,-1 m 134,23 h 1 c 0,4.00985 -1.19793,10.2637 0.33333,14 1.51955,3.7077 11.29277,2.04686 14.66667,2 1.67414,-0.0233 3.40068,0.18013 4.66667,-1.16666 3.1448,-3.34552 -0.94021,-9.81125 3.33333,-12.33334 1.67693,-0.98966 4.14157,-0.39453 6,-0.83335 4.98856,-1.17785 12.4339,-3.84403 13,-9.66665 1.57184,-16.16713 -18.57364,-15 -29,-15 -2.96106,0 -10.45378,-1.33812 -12.5,1.33332 -1.74356,2.27633 -0.5,8.8738 -0.5,11.66668 -1.71609,-3.43219 -2.70219,-7.27695 -6,-9.66668 -8.58694,-6.22242 -30.4783,-5.81337 -36.66667,3.66668 -2.67871,4.10356 -2.423,16.34289 -1,21 2.36919,7.75372 8.8048,8.99908 15.66667,10.33334 12.15465,2.3634 26.60436,-0.29953 27,-15.33334 m -156.33333,-21.66668 0.66666,0.33335 -0.66666,-0.33335 m 5.33333,-0.33332 2,2 v -2 h -2 m 9,0 1,1 -1,-1 m 49,0 1,21 2,8.5 11,0.5 c -1.31549,4.06605 -4.34703,2.60858 -8,3.16665 -7.4834,1.14331 -15.2815,-0.16665 -23,-0.16665 v -32 l 17,-1 m 47,1 v 2 c -2.6499,0 -7.53476,-0.95173 -9.83333,0.5 -2.981,1.88273 -3.30529,9.14769 -0.16667,11 2.03537,1.20121 5.71672,0.5 8,0.5 v 1 l -8,1.5 -2,12.5 12,2 h -10 l -20,1 1,-24 2.16667,-8.5 6.83333,-0.5 20,1 m 160,16 c 4.90119,1.93467 9.41147,9.40075 5.5,14.83334 -1.22119,1.69608 -5.53766,1.5986 -7.5,2.16666 -1.58288,-3.75931 -0.18551,-8.33988 -2.5,-12 -1.3934,-2.20352 -5.33716,-4.65072 -6.83334,-1 -0.52332,1.2769 0.28561,2.71104 0.33334,4 0.10166,2.74469 -0.78683,5.30005 -1,8 -3.28064,0 -6.76013,-0.32831 -10,0.16665 -1.77694,0.27149 -4.12408,1.52982 -5.83334,0.33335 -1.9707,-1.37949 -1.16666,-5.43515 -1.16666,-7.5 v -18 c 0,-2.53228 -0.315,-5.93262 2.16666,-7.5 2.64899,-1.67305 8.76984,-0.5 11.83334,-0.5 6.719,0 27.32267,-0.31868 20.5,12 -1.08502,1.95909 -3.86242,3.49172 -5.5,5 m 141,-9 -8,1 c -1.22018,-2.31835 -2.13589,-5.10723 -5,-5.83333 -4.21441,-1.06845 -7.39239,4.25877 -5.5,7.83333 2.75135,5.19697 12.79642,5.95262 17.5,9 2.15329,1.39508 4.62241,3.04178 3.66666,6 -1.11185,3.44137 -6.58103,5.3905 -9.66666,6.33334 -9.36267,2.86081 -24.47711,3.82248 -28,-7.33334 1.86722,-0.54052 4.01529,-1.47455 6,-0.83335 5.06476,1.63633 4.50516,7.18616 11,4 0.89499,-0.43904 2.10663,-1.15963 2.5,-2.16665 1.06824,-2.73468 -2.51602,-5.00803 -4.5,-6 -4.4303,-2.21514 -17.01367,-3.62846 -14.83334,-11 0.99945,-3.37912 4.78809,-4.94263 7.83334,-6 7.19525,-2.49834 25.80924,-6.31257 27,5 m -402,-4 -3,-1 c 1.5017,3.68597 5.61373,1.28329 6,-2 l -3,3 m 7.66667,-2.66668 0.66667,0.33335 -0.66667,-0.33335 m 3.66667,0.33335 0.33333,0.66665 -0.33333,-0.66665 m 106.66666,-0.5 c 7.36353,-1.12499 19.82035,-1.69301 24.83333,4.83333 7,9.1132 0.6868,26.87999 -10.83333,28 -6.90121,0.67096 -18.85267,0.59231 -23.83333,-5 -2.57383,-2.88991 -2.16667,-6.39109 -2.16667,-10 0,-9.65569 1.07096,-16.16362 12,-17.83333 m 32,32.83333 v -23 c 0,-2.26896 -0.88498,-6.90975 0.5,-8.83333 1.59477,-2.21497 7.10349,-1.16667 9.5,-1.16667 7.53389,0 23.41043,-2.24775 26.66667,7 4.11303,11.68097 -12.09681,9.67223 -17.66667,12.5 -4.30641,2.18634 -0.70598,8.75125 -3.5,12.33334 -2.21138,2.83508 -12.11822,1.16666 -15.5,1.16666 m 77,-3 -9.66665,1.5 -9.33335,-5.5 -6.16665,6.5 -16.83335,-1.5 c 2.83737,-7.70148 7.50305,-14.86238 11.66666,-22 1.30878,-2.24364 2.34436,-7.03579 4.5,-8.5 2.16632,-1.47146 9.62338,-1.03936 11.5,0.66667 7.05279,6.41163 11.54034,19.98881 14.33334,28.83333 m 51,-29.83333 c 9.1222,-2.01224 25.83597,-1.49242 33,5 9.33469,8.45956 1.2482,23.22261 -9,25.49998 -7.01181,1.5582 -13.81891,2.33335 -21,2.33335 -2.12967,0 -5.98886,0.63952 -7.5,-1.33335 -1.58148,-2.06472 -0.26437,-6.44998 0.16666,-8.66665 1.07574,-5.53237 0.31238,-11.4081 1.16669,-17 0.43689,-2.85958 -0.26627,-5.07607 3.16665,-5.83333 m 62,0.83333 v 18 c 0,2.18681 -0.53573,5.13095 1.16666,6.83334 3.24835,3.24832 8.02209,0.41017 9.66669,-2.83334 3.31686,-6.54158 2.16665,-14.88837 2.16665,-22 2.08255,0 6.06897,-0.77034 7.83335,0.5 1.81588,1.30743 1.16665,4.57553 1.16665,6.5 0,5.65135 -1.09829,12.02563 -4,17 -4.28085,7.33862 -13.1557,8.76263 -21,8 -8.59549,-0.83567 -17.05774,-4.30809 -18,-14 -0.27405,-2.81894 0.69617,-5.26554 1,-8 0.28882,-2.59954 0.0259,-8.73261 2.33335,-10.5 3.42343,-2.62221 13.80679,-0.21103 17.66665,0.5 m -352,0 1,1 -1,-1 m 6,0 2,2 v -2 h -2 m -2.33333,1.33332 0.66666,0.33335 -0.66666,-0.33335 m 135.33333,1.16668 c -2.41353,1.37321 -1.09057,4.32634 -1,6.5 0.2011,4.82617 -1.31994,11.40503 0.16667,16 0.90352,2.79269 4.21766,3.8647 6.83333,2.5 4.85976,-2.53553 6.30202,-16.11122 3.83333,-20.5 -1.3791,-2.45176 -6.92935,-6.15227 -9.83333,-4.5 m 124,-0.5 v 11 c 2.43335,0 5.84073,0.21364 7.83335,-1.5 6.14761,-5.28696 -3.70652,-9.5 -7.83335,-9.5 m 43,0 v 26 c 11.46701,-0.30176 18.39313,-17.5873 8,-24.66668 -2.39053,-1.62834 -5.25732,-1.33332 -8,-1.33332 m -304.66667,1.66667 0.33334,0.66665 -0.33334,-0.66665 m 4.66667,-0.66667 1,1 -1,-1 m 27,0 v 3 h -1 l 1,-3 m 148,0 -1,11 c 2.62889,0 5.76715,0.38706 8,-1.33333 5.98941,-4.61481 -2.73102,-9.55432 -7,-9.66667 m -179,3 -1,2 h 2 l -1,-2 m 3,0 v 2 h 2 v -2 h -2 m 9,0 3,1 -1,-1 h 1 l 1,2 c -2.32251,0.91678 -5.69772,0.97102 -4,-2 m 127,20 v -20 c 2.00292,0.63249 4.35794,1.15588 5.66667,3 1.40432,1.9788 0.51227,3.8528 0.33333,6 -0.44357,5.3229 0.86849,10.27701 -6,11 m 129,-19 v 3 l -4,1 v -5 l 4,1 m 39,18 v -19 c 11.48166,0.90644 9.25772,16.32014 0,19 m -310.33333,-17.66668 0.66666,0.33335 -0.66666,-0.33335 m 185.33333,-0.33332 3,4 -4,1 1,-5 m -189,1 1,1 -1,-1 m 7,4 3,-3 -3,3 m -5,0 1,1 2,-3 -3,2 m -1.66667,-0.33333 0.33334,0.66666 -0.33334,-0.66666 m 10.66667,-0.66667 v 2 h 2 v -2 h -2 m -6,2 -1,5 h 3 l -2,-5 m 219,0 -2,9 7,-1 -3,-8 h -2 m -223,1 v 2 h 2 v -2 h -2 m 8,0 v 2 h 2 v -2 h -2 m 7.66667,1.33333 0.66667,0.33333 -0.66667,-0.33333 m -4.66667,1.66667 v 2 h 2 v -2 h -2 m -12,1 v 2 h 2 v -2 h -2 m 8,0 v 2 l 2,-2 h -2 m -5,8 3,-1 3,3 -3,-3 v -5 c -4.07184,0.4402 -4.4779,2.48999 -3,6 m 14.33334,-5.33335 0.33333,0.66669 -0.33333,-0.66669 m 383.66666,1.33335 v 2 c -4.51404,2.73217 -6.93521,1.05764 -8,-4 l 8,2 m -392,-1 v 3 l 3,-1 v -1 l -3,-1 m 4,0 2,3 1,-1 -1,-2 h -2 m 3,4 -1,3 3,-2 -2,-1 m -5,1 v 3 h 3 v -3 h -3 m -8,1 v 3 h 2 v -3 h -2 m 16,1 1,1 -1,-1 m -11,1 2,2 v -2 z"
       id="path3" />
  </g>
</svg>
