<svg id="LEOPARDUS" width="500" height="51.504486" viewBox="0 0 500 51.504486" version="1.1" xml:space="preserve" xmlns:xlink="http://www.w3.org/1999/xlink" xmlns="http://www.w3.org/2000/svg" xmlns:svg="http://www.w3.org/2000/svg">
	<path id="LEOPARDUS" style="fill:#000000;stroke:#000000;stroke-width:0" d="M 123.19105,0.7243754 C 120.7957,0.6701573 118.36792,0.7516906 116.02102,0.98608576 106.14529,1.9715453 101.89458,3.5138738 97.8005,7.5984726 94.189227,11.201397 93.426072,13.607503 93.094631,22.42675 c -0.756373,20.125156 4.880166,26.844948 23.949099,28.552301 6.59255,0.590269 15.75041,0.244033 18.79126,-0.710658 3.37157,-1.058541 4.36955,-1.657362 7.26063,-4.361616 2.86598,-2.680805 4.19479,-5.008934 5.62389,-9.850627 1.31283,-4.447582 1.82986,-14.797974 0.93011,-18.61308 -1.31149,-5.560752 -4.5697,-10.3467844 -8.83597,-12.980174 -3.54256,-2.186606 -10.43654,-3.57576335 -17.6226,-3.7385206 z m 2.76213,11.0957876 c 1.67668,0 6.62737,2.075953 8.29339,3.477841 l 1.58742,1.335764 -0.36943,8.029632 c -0.42802,9.282884 -1.33315,12.643579 -3.79791,14.099529 -1.98154,1.170533 -5.31828,1.160432 -6.38589,-0.01907 -0.69664,-0.769824 -0.83536,-2.786715 -0.92003,-13.340528 -0.0549,-6.838123 0.0601,-12.691818 0.25568,-13.008314 0.19563,-0.316495 0.79721,-0.574804 1.33677,-0.574804 z M 180.57246,0.74854676 C 174.20045,0.35922813 156.19938,1.195588 154.1592,1.9756168 l -1.4173,0.5415106 V 25.214033 c 0,12.952292 0.20545,23.079988 0.47814,23.59073 0.26274,0.492189 0.60242,1.301749 0.75595,1.797803 0.25414,0.821259 1.24139,0.901916 11.03841,0.901916 9.5967,0 10.84815,-0.09761 11.57695,-0.902895 1.56186,-1.725908 2.09011,-4.030227 2.39068,-10.435482 l 0.30198,-6.44226 4.12305,-0.311032 c 6.00068,-0.451576 17.20792,-4.545246 20.63133,-7.536413 3.11708,-2.723426 3.59456,-6.00197 1.71022,-11.742023 C 202.97875,5.6969237 195.37363,1.6529885 180.57246,0.74854676 Z m 0.81736,7.00799314 c 3.71535,0.0201 8.46967,3.1917531 10.27339,6.9928411 0.72896,1.536092 0.78132,2.191347 0.30299,3.787842 -0.62155,2.074511 -1.83672,3.108313 -4.69379,3.992191 -2.45563,0.759723 -7.91432,1.304171 -8.38198,0.836515 -0.44771,-0.447711 -0.40999,-7.900324 0.0624,-12.318837 0.30691,-2.870826 0.42988,-3.1043966 1.70921,-3.2523109 0.23727,-0.027315 0.48008,-0.039684 0.72777,-0.038138 z m 166.6814,-6.5862055 c -7.8544,-0.3108777 -25.64534,0.526513 -26.35992,1.24114 -1.95798,1.9579315 -4.00492,40.7773386 -2.42791,46.0409746 0.57285,1.911908 0.66598,1.973444 3.47882,2.278962 1.58964,0.172653 3.35379,0.400193 3.92071,0.505331 0.56692,0.105138 4.7415,0.113538 9.27685,0.01907 5.63569,0.0052 11.21371,-0.741066 16.74988,-1.72431 11.89241,-2.171556 14.44674,-3.234838 19.39218,-8.076995 4.59967,-4.503655 5.56194,-7.254706 5.58565,-15.976804 0.018,-6.697786 0.0177,-6.701497 -1.89243,-10.608598 C 371.46477,6.0117698 362.84992,1.7552916 348.07122,1.1702828 Z m 2.31922,10.3921376 2.83459,0.122816 c 3.35765,0.145646 5.9643,1.735184 8.6769,5.291723 1.68674,2.211396 1.74235,2.430794 1.51697,5.94198 -0.3721,5.798652 -3.40909,11.562516 -7.74782,14.705462 -2.20063,1.594125 -3.8921,1.941182 -4.2237,0.866665 -0.20605,-0.667728 -0.9682,-18.398218 -1.02473,-23.836361 z m 72.48541,38.413906 c 4.34652,-1.343288 7.43519,-3.372909 10.38193,-6.822095 4.32559,-5.063204 7.70886,-14.215645 8.43637,-22.822246 0.18173,-2.149602 0.52765,-4.030278 0.7687,-4.179223 0.24109,-0.148996 0.45461,0.148636 0.47451,0.66144 0.0319,0.826825 0.0823,0.815693 0.44353,-0.09844 0.32995,-0.83502 0.59089,-0.443537 1.37411,2.061523 0.7152,2.287312 1.58145,3.696053 3.32766,5.411498 2.06049,2.02421 3.33967,2.671889 10.05688,5.09222 10.33133,3.722492 12.70393,4.937709 12.49587,6.400153 -0.18837,1.324065 -4.15871,3.431199 -7.24527,3.845205 -2.32339,0.311599 -3.43816,-0.693961 -5.36393,-4.838704 l -1.2282,-2.643337 -5.78881,0.256557 c -3.18387,0.141111 -5.97332,0.425086 -6.19885,0.631083 -0.51986,0.474821 0.8576,7.176523 1.87439,9.119354 1.23908,2.367556 4.04285,5.140202 6.37949,6.308621 4.1048,2.052607 7.64011,2.628649 16.13255,2.628649 9.30803,0 13.43572,-0.833835 20.50571,-4.142322 5.00461,-2.341942 7.83802,-4.451241 9.42178,-7.013817 1.12188,-1.815274 1.12518,-1.878202 0.24208,-4.679709 -1.79971,-5.709233 -5.4651,-8.219911 -20.59127,-14.104168 -4.22169,-1.642312 -7.93243,-3.242621 -8.24609,-3.556333 -0.31371,-0.313661 -0.57032,-1.615616 -0.57032,-2.893193 0,-3.066464 1.48218,-4.29776 5.19277,-4.314047 3.15268,-0.01392 4.36857,1.064468 5.36259,4.75578 l 0.65927,2.448058 3.15413,-0.0052 c 4.45954,-0.0052 9.05715,-0.84641 10.183,-1.865318 2.22753,-2.01586 0.0856,-8.8549118 -3.51093,-11.2104081 -4.41687,-2.8926776 -7.60367,-3.67363411 -14.85626,-3.6405982 -14.86621,0.0677726 -28.70264,5.6090951 -31.50714,12.6181703 -0.69071,1.726165 -0.90789,1.909538 -1.52774,1.289689 -0.39741,-0.39741 -0.72607,-1.608864 -0.73035,-2.692091 -0.0191,-4.7992777 -2.60014,-8.5775341 -6.29094,-9.2084117 -2.49754,-0.4268899 -9.42693,-0.4501336 -10.10043,-0.034015 -0.24414,0.1509035 -0.59006,5.6756823 -0.76874,12.2772977 -0.34974,12.91972 -0.898,16.361278 -3.18336,19.981519 -0.75668,1.198621 -1.84898,2.190935 -2.62664,2.386109 -1.38982,0.34881 -6.05582,-0.04174 -6.92651,-0.579906 -0.30933,-0.191206 -0.50306,-6.34109 -0.50306,-15.969228 0,-9.88289 -0.19012,-15.775702 -0.51538,-15.9767521 -0.28346,-0.1751779 -0.51538,-0.7366853 -0.51538,-1.2477368 0,-1.2913896 -3.82897,-2.0002959 -14.53111,-2.69028766 -7.99948,-0.51579308 -8.74039,-0.48744713 -10.5417,0.40318236 -2.1344,1.0552937 -2.15914,1.1138409 -3.77403,8.9463402 -4.6109,22.363454 -0.57671,34.250144 13.12773,38.680409 4.35924,1.409206 8.53094,1.913918 16.30901,1.973187 6.67975,0.05102 8.6249,-0.11225 11.33838,-0.950826 z m -381.456295,0.04123 c 3.512887,-0.304797 5.630741,-0.290675 6.036397,0.0402 0.41246,0.336441 5.142263,0.309074 13.915281,-0.08055 7.309697,-0.324638 16.998186,-0.635722 21.529929,-0.69128 9.638496,-0.118228 9.493984,-0.01031 7.040977,-5.252348 -1.804399,-3.855976 -1.716115,-3.818199 -9.353645,-3.998118 l -5.411498,-0.127454 -0.14642,-5.239722 -0.14642,-5.239773 3.496395,-0.323711 c 1.922989,-0.178064 4.887923,-0.491054 6.588679,-0.695609 l 3.092285,-0.371847 -0.142554,-2.310761 c -0.215327,-3.491344 -1.060139,-5.623011 -2.34555,-5.918736 -0.615777,-0.141679 -3.206854,-0.315516 -5.757988,-0.38633 l -4.638427,-0.128742 -0.152192,-3.469079 c -0.24527,-5.591057 -0.388031,-5.499113 8.795797,-5.665478 L 91.66918,10.016021 91.827505,7.2366753 C 91.914553,5.7080559 91.740612,4.2121632 91.44097,3.9124693 91.141276,3.6128269 90.896109,2.9545826 90.896109,2.4497672 c 0,-0.5382637 -0.479613,-1.0156094 -1.159607,-1.1541437 C 87.8231,0.9057379 51.864416,-0.05421033 51.038982,0.26254269 49.142278,0.99036342 48.449555,5.5519471 47.260881,25.141983 l -0.91779,15.126013 -2.590613,-0.39004 C 42.327604,39.663454 38.61073,39.456941 35.492676,39.419112 L 29.823488,39.350206 29.515135,25.198468 C 29.211937,11.280559 28.895132,8.248007 27.204529,3.0793048 L 26.35482,0.48147645 h -7.334486 c -10.8456734,0 -16.3959636,0.4867256 -17.8226406,1.56289215 L 0,2.9477796 0.11884681,22.611927 c 0.10993071,18.187839 0.19847313,19.923641 1.17924279,23.118641 0.5832048,1.8999 1.2916472,3.738469 1.5742821,4.085733 0.9120178,1.120541 26.4173363,1.253715 38.5471833,0.201308 z m 44.58054,-29.178644 0.169148,1.480071 c 0.09303,0.814044 -0.169148,-1.480071 -0.169148,-1.480071 z M 235.62761,0.65907666 c -1.05866,-0.0859655 -2.83758,0.0355613 -6.34563,0.28284097 -3.90467,0.27505867 -7.27615,0.68999177 -7.49214,0.92206777 -0.21605,0.2320759 -1.26513,2.4706323 -2.3313,4.9746098 -1.06616,2.5039259 -3.5506,7.2583138 -5.52121,10.5653058 -8.36505,14.037838 -15.18822,27.743205 -14.26961,28.663005 0.26893,0.269286 0.48921,0.993448 0.48921,1.608555 0,0.886918 0.48325,1.253045 2.33532,1.771621 3.08126,0.862696 9.24812,1.376634 17.61455,1.46765 l 6.80866,0.07447 1.07203,-3.47279 c 1.72467,-5.583893 1.96414,-5.803806 6.3255,-5.810093 l 3.72443,-0.0052 4.12304,4.370686 4.12305,4.371666 6.83685,-1.453528 c 3.76032,-0.799253 6.9871,-1.603814 7.17104,-1.787701 0.45951,-0.459514 -1.02948,-5.630535 -3.25938,-11.318278 -2.6419,-6.738552 -8.7395,-18.906795 -12.37619,-24.697974 -0.66396,-1.057355 -1.20691,-2.0607499 -1.20691,-2.2296401 0,-0.4790465 -4.37831,-6.0197505 -5.79602,-7.3351053 -0.62833,-0.5829988 -0.96663,-0.8763535 -2.02529,-0.96231902 z M 233.05373,20.779027 c 1.03648,0.02886 1.93872,1.485842 3.61672,5.729591 1.86805,4.724392 1.97976,5.706863 0.72274,6.354696 -1.17409,0.605006 -8.5866,1.249902 -9.04936,0.787141 -0.60129,-0.601294 -0.39639,-2.735538 0.37848,-3.938797 0.40432,-0.627786 1.11839,-2.649006 1.58641,-4.491492 0.89305,-3.515773 1.31269,-4.248542 2.53563,-4.428049 0.0706,-0.01031 0.14028,-0.01495 0.20938,-0.01288 z m 37.959,-20.75108563 c -2.18248,0.06648412 -3.13403,0.25485579 -3.94488,0.59789323 -3.25545,1.3773036 -3.41413,1.9637038 -4.00527,14.8041064 -0.91831,19.946267 -0.70111,25.60556 1.31563,34.214429 l 0.34929,1.49079 5.72354,-0.421736 c 3.14816,-0.231973 8.27921,-0.449051 11.4018,-0.483169 3.12254,-0.03401 5.96559,-0.24058 6.31744,-0.458019 1.85099,-1.143991 2.41889,-3.602099 2.46718,-10.671011 0.0263,-3.845359 0.2183,-7.266199 0.42579,-7.601866 0.61908,-1.001746 3.25485,-0.692826 4.69178,0.549602 1.57588,1.362564 2.42896,5.866786 1.96388,10.373069 -0.32427,3.141864 0.93224,7.765448 2.24775,8.270212 0.44194,0.16956 3.35606,0.15312 6.47648,-0.03608 l 5.67422,-0.345253 1.22202,-2.624216 c 1.07282,-2.30401 1.22142,-3.379506 1.219,-8.808785 -0.005,-7.023248 -0.57382,-9.269639 -2.99163,-11.764185 -1.97313,-2.035754 -2.03023,-2.722241 -0.3352,-4.055583 2.02205,-1.590516 2.96042,-3.925758 3.37514,-8.403128 0.4137,-4.465569 -0.36765,-8.2314044 -2.01522,-9.7147218 -3.1983,-2.8794324 -12.39398,-4.33285769 -30.25043,-4.78036282 -5.73261,-0.14368816 -9.14584,-0.19837006 -11.32831,-0.1318344 z M 289.83319,6.666458 h 2.85472 c 5.6144,0 10.53442,3.931325 10.54216,8.42426 0.007,4.361512 -2.92059,6.516268 -9.40268,6.920429 l -3.9942,0.24862 v -7.797144 z" />
</svg>
