<svg
   version="1.1"
   id="Layer_1"
   x="0px"
   y="0px"
   width="175.748"
   height="105.583"
   viewBox="6.504 4.295 175.748 105.583"
   enable-background="new 6.504 4.295 175.748 105.654"
   xml:space="preserve"
   xmlns="http://www.w3.org/2000/svg"
   xmlns:svg="http://www.w3.org/2000/svg"><defs
   id="defs9" />
<g
   id="g9"
   style="fill:#000000">
	<polygon
   fill="#7BB51C"
   points="163.222,109.878 94.323,40.98 24.689,109.878 "
   id="polygon1"
   style="fill:#000000" />
	<polygon
   points="32.835,95.961 29.24,92.274 22.461,98.89 10.519,86.646 6.504,90.563 22.042,106.49 "
   id="polygon2"
   style="fill:#000000" />
	<polygon
   points="29.654,79.795 26.765,76.834 33.556,70.207 30.521,67.097 19.497,77.853 35.204,93.563 46.263,82.771 43.226,79.66 36.204,86.51 32.832,83.053 38.459,77.563 35.281,74.308 "
   id="polygon3"
   style="fill:#000000" />
	<path
   d="m 71.401,42.402 c -4.46,-4.572 -12.197,-4.025 -15.923,-0.389 -3.727,3.636 -5.629,10.886 -0.366,16.281 5.781,5.925 12.659,3.773 16.386,0.139 5.495,-5.361 3.539,-12.304 -0.097,-16.031 z m -3.278,12.9 c -2.467,2.407 -5.483,1.754 -8.929,-1.779 -2.896,-2.968 -2.722,-5.95 -0.616,-8.005 1.448,-1.413 4.389,-2.677 7.888,0.91 3.992,4.092 4.124,6.467 1.657,8.874 z"
   id="path3"
   style="fill:#000000" />
	<polygon
   points="63.234,35.151 77.248,39.651 83.84,46.199 87.92,42.217 81.782,35.926 78.108,20.64 73.431,25.204 75.864,33.876 67.644,30.849 "
   id="polygon4"
   style="fill:#000000" />
	<path
   d="m 62.086,67.447 c 0,0 -9.93,-3.388 -10.402,-3.306 -0.153,0.025 2.133,-6.058 -3.003,-8.754 0,0 -3.811,-2.063 -7.625,1.402 l -8.129,8.011 15.671,15.782 4.146,-4.045 -8.48,-8.69 13.708,3.614 z M 46.706,65.28 c -2.304,2.244 -2.615,2.421 -2.615,2.421 0,0 -3.612,-3.702 -3.74,-3.833 -0.128,-0.131 2.583,-2.455 3.01,-2.872 0.181,-0.177 1.869,-1.278 3.266,0.153 0,0 2.382,1.883 0.079,4.131 z"
   id="path4"
   style="fill:#000000" />
	<polygon
   points="95.038,36.219 91.217,32.367 99.573,24.08 88.142,29.266 85.779,26.883 91.092,15.463 82.574,23.652 78.948,19.996 94.778,4.295 99.959,9.518 94.256,20.742 105.883,15.491 110.868,20.518 "
   id="polygon5"
   style="fill:#000000" />
	<polygon
   points="118.688,39.957 115.358,43.259 109.952,37.808 106.492,41.239 113.323,48.126 110.06,51.364 99.084,40.299 114.915,24.598 125.922,35.696 122.724,38.868 115.828,31.916 113.249,34.473 "
   id="polygon6"
   style="fill:#000000" />
	<polygon
   points="150.332,60.308 138.353,72.188 145.054,78.942 141.202,82.765 130.422,71.896 146.253,56.194 "
   id="polygon7"
   style="fill:#000000" />
	<polygon
   points="148.033,89.651 144.051,85.638 159.882,69.937 163.864,73.951 "
   id="polygon8"
   style="fill:#000000" />
	<polygon
   points="166.422,108.19 161.694,103.426 165.765,86.312 155.252,96.933 151.528,93.178 167.36,77.478 172.767,82.926 168.147,99.228 178.626,88.834 182.252,92.49 "
   id="polygon9"
   style="fill:#000000" />
	<path
   d="m 139.099,48.981 -9.615,-9.695 -15.864,15.669 4.079,4.112 8.649,-8.578 -3.113,14.16 4.176,4.211 c 0,0 3.292,-10.129 3.393,-10.551 0,0 3.567,1.965 7.481,-1.4 0,0 3.754,-3.658 0.814,-7.928 z m -5.871,4.592 c 0,0 -2.021,1.357 -3.802,-0.438 l -2.782,-2.938 c 0,0 3.361,-3.334 3.785,-3.755 0,0 2.59,2.612 2.914,2.938 0.323,0.326 2.365,1.862 -0.115,4.193 z"
   id="path9"
   style="fill:#000000" />
</g>
</svg>
