<svg id="LEROYMERLIN" width="500" height="50.033003" viewBox="0 0 500 50.033003" version="1.1" xml:space="preserve" xmlns:xlink="http://www.w3.org/1999/xlink" xmlns="http://www.w3.org/2000/svg" xmlns:svg="http://www.w3.org/2000/svg">
	<path id="LEROY" style="fill:#000000;stroke:#000000;stroke-width:0" d="M 53.279582,19.340185 C 53.085457,16.039033 52.950412,13.129261 52.818034,10.555338 59.645119,10.277254 66.41667,10.055597 73.355712,9.7766346 73.221556,6.978804 73.14115,3.9006637 73.004341,0.7669895 62.144433,0.7411985 51.060642,0.71718864 40.256275,0.63497487 L 40.639986,48.99675 c 10.859897,0.02579 21.888171,0.106224 33.083912,0.12935 -0.137711,-3.24562 -0.273641,-6.267341 -0.354933,-9.457431 -6.717804,-0.05865 -13.715025,-0.05912 -20.376412,-0.06224 -0.140367,-3.581468 -0.278968,-6.93904 -0.415788,-10.072711 5.764019,-0.213659 11.359674,-0.48197 17.123696,-0.695636 -0.135937,-3.021722 -0.272754,-6.155386 -0.416674,-10.184655 -5.42818,0.211006 -11.023832,0.479317 -16.004205,0.686758 z M 186.99017,2.661493 c -0.5122,-1.0595146 -1.0755,-1.5028626 -2.25051,-1.4375666 -3.414,0.083067 -6.88528,-0.00135 -10.30016,-0.030224 -0.44779,0.00396 -0.8947,0.1190534 -1.50997,0.179914 2.89954,5.6307554 5.74089,10.9820776 8.58313,16.4453486 2.04615,3.90221 4.81865,7.630729 5.91547,11.820359 1.04041,4.134107 0.46155,8.784855 0.44066,13.207265 -0.0378,2.295389 -0.18748,4.591667 -0.3363,6.999894 4.64453,-0.204784 8.67378,-0.348709 12.815,-0.493522 0.0128,-5.429948 -0.0333,-11.251273 0.0889,-17.017957 0.0485,-0.952008 0.26433,-1.961313 0.76144,-2.804927 3.03817,-5.118085 6.18829,-10.237064 9.22645,-15.355142 2.48642,-4.106111 4.97197,-8.3241636 7.62409,-12.7114815 -4.75826,-0.018191 -9.18067,-0.03909 -13.54667,-0.00443 -0.44779,0.00396 -1.05862,0.6241494 -1.3345,1.1301399 -1.21456,2.1367949 -2.31716,4.2727 -3.53172,6.4094916 -1.71078,3.092355 -3.42156,6.184704 -5.35356,9.614682 -2.45264,-5.74625 -4.89994,-10.8208182 -7.29173,-15.9517997 z M 0,48.983329 c 11.028263,0.08043 21.88816,0.106224 32.860004,0.131127 -0.197671,-3.748944 -0.338932,-7.442357 -0.536612,-11.1913 -6.38196,-0.06132 -13.155286,-0.06356 -20.096987,-0.120437 C 12.295292,25.31912 12.309539,13.003898 12.379314,0.63224695 8.2381007,0.77705416 4.2643737,0.86456388 0.17958617,1.0649096 0.13645456,16.795011 0.03957583,32.805434 0,48.983329 Z m 167.21562,-5.804946 c -9.05142,9.196197 -25.84637,8.993585 -35.43749,-0.446543 -9.13978,-8.99589 -9.2166,-25.732641 -0.16519,-34.9288409 10.05097,-10.2117243 24.93923,-10.4418065 35.09455,-0.4464155 10.15441,9.8834854 10.33608,25.7237604 0.50813,35.8217634 z m -8.46277,-8.329528 c 2.41757,-5.728907 2.70457,-11.888743 0.80989,-17.863335 -1.20521,-3.740953 -3.96617,-6.014143 -7.83326,-6.59921 -4.03549,-0.6397198 -7.66626,0.34071 -10.3828,3.664955 -4.32425,5.296218 -3.60328,18.557239 1.30424,23.276414 4.569,4.385997 13.7399,3.193679 16.10193,-2.478824 z m -37.22514,14.121872 c -3.91731,0.143035 -7.7782,0.341602 -11.63999,0.428221 -0.55974,0.0044 -1.23854,-0.885818 -1.63524,-1.498427 -4.53835,-7.576972 -9.021153,-15.210365 -13.559499,-22.787335 -0.283867,-0.501548 -0.623267,-0.946678 -1.242092,-1.333608 -0.04441,8.508973 -0.08978,16.906003 -0.137774,24.967187 -4.196738,0.20123 -8.337943,0.346043 -12.143304,0.488191 L 80.283663,1.0451065 c 0.727223,-0.0617148 1.230543,-0.12172203 1.678331,-0.12527799 7.61251,-0.0604402 15.225906,-0.008866 22.782876,-0.012848 4.98215,0.0164657 9.30594,1.71744969 12.47248,5.72272589 4.07101,5.1176656 3.79111,12.1730836 -0.81612,17.0797106 -1.60948,1.748081 -3.61301,3.219399 -5.50282,4.913722 3.63654,6.800443 7.16202,13.713718 10.6293,20.347566 z M 107.3885,16.615784 c -0.024,-3.022609 -1.60903,-5.249145 -4.4104,-5.562788 -3.081693,-0.367385 -6.21625,-0.342518 -9.408128,-0.485133 0.200351,4.084801 0.342495,7.890155 0.54283,11.974947 1.735652,0.04217 3.975512,0.13639 6.158958,0.175044 0.89559,-0.007 1.73565,0.04217 2.57393,-0.132373 2.96175,-0.639259 4.56857,-2.723188 4.54281,-5.969697 z" />
	<path id="MERLIN" style="fill:#000000;stroke:#000000;stroke-width:0" d="m 240.66297,48.375407 c -3.75038,0.05598 -7.33285,0.0561 -10.63544,0.112111 -0.16815,-16.065117 -0.33631,-32.130243 -0.56043,-48.13938769 5.31772,-0.0560547 10.35556,-0.16807057 15.39341,-0.0561813 0.44781,-4.512e-5 1.06355,0.83961589 1.23149,1.45534799 l 7.22121,21.998486 c 0.22391,0.671714 0.39186,1.287446 0.78371,2.350987 0.39182,-0.951598 0.61571,-1.511362 0.89558,-2.127108 2.74273,-7.332902 5.5974,-14.6657976 8.28415,-22.0546752 0.44779,-1.23147527 0.95157,-1.73527219 2.40694,-1.7352904 4.47809,-8.47e-5 8.95616,-0.11211012 12.93046,-0.16810778 0.22414,16.45696138 0.33632,32.57804538 0.50447,48.53122338 -3.9743,0.05602 -7.78068,0.05609 -11.41911,0.11214 -0.0561,-7.892623 -0.11217,-16.009145 -0.11229,-24.069698 l -0.50379,-0.167917 c -0.2239,0.559757 -0.50377,1.175502 -0.72767,1.735258 l -7.89233,20.99113 c -0.44779,1.119528 -0.89559,1.791247 -2.23901,1.679308 -1.84721,-0.167898 -4.19819,0.503846 -5.42969,-0.391752 -1.23148,-0.895599 -1.56737,-3.246583 -2.18313,-4.981838 -2.40706,-6.437203 -4.75815,-12.930398 -7.50106,-19.367603 -0.11184,8.172502 -0.27965,16.289029 -0.44748,24.293616 z M 488.74858,33.146453 c -0.39183,-0.615732 -0.50385,-0.839635 -0.67173,-1.00756 C 482.59101,22.287188 477.10526,12.435488 471.56346,2.6397559 471.22763,2.079997 470.61191,1.240366 470.05209,1.240374 c -5.31771,-0.055881 -10.57948,0.056102 -16.06507,0.1681568 0.1681,15.9531642 0.33626,32.1302382 0.50443,48.0834002 3.30262,-0.05602 7.05302,-0.112049 10.97129,-0.112078 0.11184,-10.299598 0.27959,-20.879063 0.44738,-31.010728 -0.16789,-0.167933 0,0 0.11193,0.223898 5.70973,9.291949 11.47534,18.527912 17.01717,27.875834 1.51137,2.518897 3.02271,3.806324 6.10145,3.526408 3.47045,-0.335908 7.05293,-0.112054 10.85933,-0.112071 -0.16816,-16.177074 -0.33636,-32.242198 -0.50449,-48.307309 -3.19059,0.055991 -6.82904,0.1120381 -11.19518,0.1121077 0.16805,10.1316673 0.28014,20.5432053 0.44825,31.4585313 z M 325.29873,48.598124 c -0.0557,-2.854794 -0.0561,-6.101389 -0.11208,-9.851781 -6.66113,0.05609 -13.54618,0.224094 -20.0394,0.336136 -5e-5,-3.694417 -0.056,-7.108963 -0.11206,-10.859356 5.26175,-3.4e-5 10.74739,-1.07e-4 16.0651,-0.05592 -0.0559,-3.190639 -0.056,-6.437244 -0.0561,-10.355572 -5.31776,0.05605 -10.85939,0.22406 -15.84125,0.280101 -0.1123,-2.686831 -0.16803,-5.205764 -0.27998,-7.780661 6.997,-0.05606 13.93801,-0.168127 20.82304,-0.224199 2e-5,-3.0227067 -0.056,-6.2133419 -0.11204,-9.403974 -11.08327,0.11210221 -22.33445,0.28019337 -33.75356,0.3923098 0.16814,15.6173092 0.33629,31.6824362 0.50445,47.9714502 10.7474,-0.224043 21.94261,-0.336161 32.91389,-0.448261 z M 401.03365,1.1853658 c -3.9743,0.056023 -8.06055,0.1120587 -12.3707,0.1680943 0.16815,15.8412219 0.39231,31.8503569 0.56042,48.1393889 10.63544,-0.112111 21.66276,-0.280189 32.57806,-0.448264 -0.056,-3.526487 -0.0561,-7.332866 -0.11207,-11.53106 -6.54919,0.05607 -13.37824,0.168113 -20.20737,0.280154 -0.22406,-12.538625 -0.33616,-24.741396 -0.44826,-36.6083164 z m 29.72327,0.2794595 c 0.16815,15.8412137 0.39231,31.8503647 0.56048,47.8035267 3.58243,-4e-5 7.61272,-1.35e-4 11.92286,-0.05613 -0.16814,-15.841222 -0.33627,-31.906333 -0.56043,-47.9154838 -3.58242,3.96e-5 -7.61276,0.112061 -11.92291,0.1680967 z M 377.57989,15.123722 c -0.72761,5.877498 -3.52637,10.243665 -9.17992,12.762666 3.63856,7.108905 7.16513,14.105856 10.80369,21.214761 -4.1982,0.05606 -8.11651,0.168047 -12.14676,0.05616 -0.61573,-0.05599 -1.3435,-1.007544 -1.73533,-1.623277 -5.03796,-7.836574 -10.07591,-15.673148 -15.11381,-23.621674 -0.16792,-0.279879 -0.39188,-0.503774 -0.9516,-0.727683 0.16801,8.564339 0.3361,17.128666 0.44818,25.525073 -4.64608,0.05605 -8.73233,0.112082 -12.25875,0.168095 -0.28013,-15.953162 -0.56028,-32.018279 -0.84035,-47.7475464 10.35556,-0.16807064 20.1514,-0.56003293 29.94717,-0.28029633 6.43728,0.0558805 11.81103,7.44464973 11.02748,14.27373773 z m -17.01676,-4.813706 c -3.63844,-0.167874 -7.33287,0.168036 -10.91534,0.280033 0.056,3.526488 0.0561,7.220911 0.11214,11.195205 2.29502,0.05592 4.75792,0.167872 7.1649,0.223808 0.50378,0.05591 1.00757,0.111937 1.45541,1.47e-4 0.89555,-0.111958 1.79119,-0.223927 2.57489,-0.559794 2.57485,-1.007609 4.03017,-3.582521 3.69429,-6.269375 -0.27988,-2.854768 -1.67931,-4.813914 -4.08628,-4.869858 z" />
</svg>
