<svg id="LEWIATAN" width="500" height="101.89413" viewBox="0 0 500 101.89413" version="1.1" xml:space="preserve" xmlns:xlink="http://www.w3.org/1999/xlink" xmlns="http://www.w3.org/2000/svg" xmlns:svg="http://www.w3.org/2000/svg">
	<path id="LEWIATAN" style="fill:#000000;stroke:#000000;stroke-width:0" d="m 208.44934,0.00122019 c -0.55083,-0.0150182 -1.09661,0.10880274 -1.58703,0.3600612 l -19.9754,8.82954201 c -1.81182,0.7984656 -2.2146,1.7230896 -2.10305,3.6969456 0.40511,7.121612 -0.0269,15.183769 -1.22925,22.897186 -1.82826,11.724533 -5.50375,27.169601 -14.3268,38.038132 -3.05766,-2.761754 -5.22804,-6.087094 -5.85272,-10.471611 -0.56362,-3.959452 0.1004,-8.512868 1.4907,-13.755737 l 8.72863,-33.011026 c 0.21019,-0.912365 -0.48544,-2.009128 -1.5939,-2.004431 -1.96212,0.0058 -15.92512,0 -17.39994,0 -0.97812,0 -1.95132,0.772973 -2.21082,1.747571 L 137.36578,73.15571 c -8.03281,-3.863166 -9.8564,-10.677556 -7.28839,-20.482249 l 9.54507,-36.038304 c 0.27125,-1.035658 -0.54308,-2.060747 -1.58931,-2.054875 h -16.94126 c -0.95698,0 -2.44172,0.954683 -2.71766,2.004431 -3.46864,13.092494 -6.97491,25.823999 -10.32025,38.916493 -1.43841,5.622139 -2.6804,11.706672 -1.33475,16.938961 1.09084,4.254192 3.86542,7.735562 7.39159,10.574814 4.62171,3.731653 8.81138,6.127039 14.57677,8.318126 1.6897,0.587106 2.40753,0.363816 2.77271,0.105444 l 17.60634,-12.216872 c 4.55007,4.08194 9.15407,8.103365 13.81078,12.063215 0.68692,0.650511 1.29656,0.416736 1.89893,0.151362 10.44229,-4.934046 18.14589,-12.815246 25.31212,-21.972946 5.71608,-7.309485 10.25094,-15.396654 13.59979,-23.665474 3.57197,-8.813656 5.76604,-19.103828 6.67606,-27.669724 0.57419,-5.444833 0.87185,-10.8784762 0.51372,-16.1225191 -0.0517,-0.7761558 -0.96869,-1.95398715 -2.39889,-2.00212995 z M 21.804287,14.577991 c -1.231752,0 -2.497896,1.026006 -2.823165,2.26128 L 0.08819486,88.094844 C -0.25467583,89.32777 0.4296565,90.351531 1.6637562,90.351531 H 36.624167 c 1.2341,0 2.493198,-1.022587 2.823153,-2.256687 L 42.424142,76.799909 C 42.754096,75.564635 42.01265,74.591376 40.782074,74.591376 H 24.918714 L 40.215608,16.836981 c 0.331129,-1.234099 -0.405668,-2.25899 -1.639778,-2.25899 z m 48.562489,0 c -1.234099,0 -2.496673,1.026006 -2.825454,2.26128 L 48.588769,88.094844 c -0.326432,1.232926 0.409144,2.256687 1.642069,2.256687 h 36.345608 c 1.230577,0 2.49321,-1.022587 2.823164,-2.256687 l 3.029571,-11.294935 c 0.325251,-1.235274 -0.407916,-2.208533 -1.644363,-2.208533 H 73.433039 l 4.004259,-15.145537 h 14.88868 c 1.234098,0 2.496717,-0.969843 2.823147,-2.203943 l 2.873628,-10.985329 c 0.329949,-1.235275 -0.357516,-2.26128 -1.591614,-2.26128 H 81.542459 L 85.188947,30.34274 h 17.351773 c 1.23644,0 2.49555,-0.974434 2.82316,-2.208534 l 2.97682,-11.297225 c 0.32643,-1.232925 -0.40797,-2.256699 -1.64206,-2.256699 H 70.366776 Z m 153.854234,0 c -1.23527,0 -2.49432,1.026006 -2.82545,2.26128 l -18.95715,71.306017 c -0.32643,1.231752 0.41272,2.208538 1.63978,2.208538 h 16.7853 c 1.23762,0 2.49784,-0.976774 2.82545,-2.208538 l 18.9411,-71.306017 c 0.32995,-1.235274 -0.4092,-2.26128 -1.63977,-2.26128 z m 53.59189,0 c -1.04035,0 -2.11066,0.728437 -2.61675,1.694815 l -42.04239,71.15236 c -0.69397,1.170692 -0.40345,2.442719 0.66509,2.823162 0.20666,0.07398 0.4408,0.105444 0.66507,0.105444 h 16.06749 c 1.09906,0 2.25842,-0.803406 2.72225,-1.848458 l 7.54754,-14.014898 h 18.17508 v 14.219 c 0,0.995734 0.75547,1.64207 1.74299,1.64207 h 17.60634 c 1.23528,0 2.49555,-1.024891 2.82316,-2.25899 0.0822,-0.305296 0.0951,-0.558057 0.0505,-0.818733 l -4.20149,-71.154661 c -0.0505,-0.944069 -0.79298,-1.541158 -1.74527,-1.541158 z m 43.68904,0 c -1.24701,0 -2.51624,1.026006 -2.8415,2.26128 l -3.02727,11.294935 c -0.3276,1.232925 0.40913,2.206244 1.64206,2.206244 h 10.62298 l -15.29919,57.80714 c -0.34406,1.228229 0.34727,2.206236 1.57784,2.206236 h 16.84036 c 1.23292,0 2.5003,-0.976774 2.82086,-2.208538 L 349.13957,30.33816 h 10.62756 c 1.23409,0 2.49561,-0.975608 2.82087,-2.208533 l 3.02957,-11.292646 c 0.32408,-1.234099 -0.41261,-2.25899 -1.64437,-2.25899 z m 122.49216,0 -0.0229,0.0023 h 0.0161 c 0.003,0 0.005,-0.0023 0.007,-0.0023 z m -0.007,0.0023 c -1.23534,0.0035 -2.49623,1.026099 -2.82087,2.258989 L 422.2251,88.145347 c -0.32878,1.231752 0.4068,2.208533 1.64208,2.208533 h 14.11809 c 1.2341,0 2.49555,-0.97677 2.82316,-2.208533 l 10.0588,-38.040422 12.8338,39.173363 c 0.23132,0.704529 0.88117,1.075592 1.64206,1.075592 h 12.83381 c 1.23526,0 2.49678,-0.976781 2.82087,-2.208533 l 18.92502,-71.306018 c 0.32526,-1.236447 -0.40689,-2.258989 -1.63747,-2.258989 h -14.2213 c -1.2341,0 -2.49907,1.023716 -2.82316,2.258989 l -9.24005,34.756298 -11.70546,-35.937393 c -0.23131,-0.705703 -0.88353,-1.077894 -1.64206,-1.077894 z m -53.75243,0 c -1.04162,0.0035 -2.10958,0.728354 -2.61216,1.692525 l -42.05158,71.154662 c -0.69044,1.169517 -0.40345,2.442659 0.66508,2.825454 0.21136,0.07281 0.44193,0.100863 0.66738,0.100863 h 16.06748 c 1.09906,0 2.20563,-0.802292 2.67179,-1.84617 l 7.59801,-14.014898 h 18.11776 l 0.0482,14.216711 c 0.005,0.998083 0.76117,1.642071 1.74985,1.642071 h 17.60634 c 1.60398,0 3.08381,-1.65575 2.87362,-3.077724 l -4.15562,-71.152372 c -0.0517,-0.946417 -0.80595,-1.541157 -1.74298,-1.541157 z M 279.0925,40.864816 279.0398,60.370085 h -10.57711 z m 112.42418,0 -0.0505,19.505269 h -10.57711 z" />
</svg>
