<svg
   width="515.4621"
   height="85.197708"
   xml:space="preserve"
   version="1.1"
   id="svg3"
   viewBox="0 0 572.73566 94.664121"
   xmlns="http://www.w3.org/2000/svg"
   xmlns:svg="http://www.w3.org/2000/svg"><defs
     id="defs3" /><path
     id="path1"
     style="fill:#000000"
     d="m 53.779407,1.6761572e-6 c -5.489,0 -10.59538,4.0382199238428 -11.98438,9.3242199238428 l -1.34179,5.1054694 -0.18946,0.0859 c -33.5940004,15.726 -49.2594204,43.61343 -34.9824204,62.273429 4.303,5.627 10.8411004,9.76282 18.7871104,12.38282 1.855,3.22 5.28477,5.48828 9.38477,5.48828 l 59.45703,0.004 c 5.367,0 10.692583,-4.02942 12.058583,-9.23242 h 0.002 l 3.40625,-12.93555 c 21.879,-15.911999 30.28004,-37.385919 18.58203,-52.669919 -6.024,-7.875 -16.41926,-12.8490594 -28.947253,-14.7890594 -1.927,-2.984 -5.25247,-5.037109923843 -9.10547,-5.037109923843 z M 324.44151,2.8300816 a 2.797,2.797 0 0 0 -1.35157,0.30664 l -17.01171,7.5195294 c -1.543,0.68 -1.88602,1.46744 -1.79102,3.14844 0.345,6.065 -0.0229,12.931 -1.04687,19.5 -1.55701,9.985 -4.68718,23.13853 -12.20118,32.394529 -2.604,-2.352 -4.45237,-5.18397 -4.98437,-8.917969 -0.48,-3.372 0.0855,-7.24984 1.26953,-11.71484 l 7.43359,-28.11328 c 0.179,-0.777 -0.41342,-1.71104 -1.35742,-1.70704 -1.671,0.005 -13.56236,0 -14.81836,0 -0.833,0 -1.66181,0.65829 -1.88281,1.48829 A 36720.78,36720.78 0 0 1 263.9044,65.13086 c -6.841,-3.29 -8.39403,-9.093359 -6.20703,-17.443359 l 8.1289,-30.69141 c 0.231,-0.882 -0.46251,-1.755 -1.35351,-1.75 h -14.42774 c -0.815,0 -2.07945,0.81304 -2.31445,1.70704 -2.954,11.15 -5.94006,21.99257 -8.78906,33.14257 -1.225,4.788 -2.28272,9.969789 -1.13672,14.425779 0.929,3.62301 3.29192,6.58786 6.29492,9.00586 3.936,3.178 7.50406,5.21799 12.41406,7.08399 1.439,0.5 2.05033,0.30984 2.36133,0.0898 l 14.99414,-10.40429 a 588.876,588.876 0 0 0 11.76172,10.27343 c 0.585,0.554 1.10419,0.35491 1.61719,0.12891 8.893,-4.202 15.45364,-10.91389 21.55664,-18.71289 4.868,-6.224999 8.73003,-13.112299 11.58203,-20.154299 3.042,-7.506 4.91055,-16.26945 5.68555,-23.56445 0.489,-4.637 0.7425,-9.2644694 0.4375,-13.7304694 -0.044,-0.661 -0.82497,-1.66408 -2.04297,-1.70508 z m -270.664063,3.07422 h 35.13086 c 3.334,0 5.68469,3.11418 4.80469,6.3671794 l -14.84765,56.447269 17.80664,-0.002 c 3.369993,-0.053 5.815113,2.99053 4.953113,6.26953 l -2.351553,8.94531 c -0.698,2.654 -3.65728,4.83008 -6.36328,4.83008 -4.417,-0.003 -59.45703,-0.0259 -59.45703,-0.006 -3.343,0 -5.65769,-3.11419 -4.80469,-6.36719 l 18.84765,-71.564449 c 0.718,-2.7379994 3.43425,-4.9199194 6.28125,-4.9199194 z m 0.002,2.85156 c -1.537,0 -3.12925,1.2540194 -3.53125,2.7910194 L 31.402487,83.11133 c -0.404,1.54 0.51974,2.79492 2.05274,2.79492 19.82,0.011 39.63903,0.002 59.45703,0.002 1.589,0 3.01437,-1.26945 3.60937,-2.68945 l 2.34961,-8.95312 c 0.389,-1.486 -0.58306,-2.73004 -2.16406,-2.70704 l -21.53711,0.004 15.78906,-60.015619 c 0.42401,-1.528 -0.51478,-2.7910194 -2.05078,-2.7910194 z M 165.48842,15.244141 c -1.049,0 -2.12729,0.87378 -2.4043,1.92578 L 146.99428,77.85352 c -0.292,1.05 0.2908,1.92187 1.3418,1.92187 h 29.77344 c 1.051,0 2.12329,-0.87087 2.40429,-1.92187 l 2.53516,-9.61914 c 0.281,-1.052 -0.35044,-1.88086 -1.39844,-1.88086 h -13.50976 l 13.02734,-49.185549 c 0.282,-1.051 -0.34548,-1.92383 -1.39649,-1.92383 z m 41.35742,0 c -1.051,0 -2.12625,0.87378 -2.40625,1.92578 L 188.29897,77.85352 c -0.278,1.05 0.34844,1.92187 1.39844,1.92187 h 30.95312 c 1.048,0 2.1233,-0.87087 2.4043,-1.92187 l 2.58008,-9.61914 c 0.277,-1.052 -0.34739,-1.88086 -1.40039,-1.88086 h -14.77735 l 3.41016,-12.898439 h 12.67969 c 1.051,0 2.12629,-0.82595 2.40429,-1.87695 l 2.44727,-9.35547 c 0.281,-1.052 -0.30447,-1.92578 -1.35547,-1.92578 h -12.67969 l 3.10547,-11.62696 h 14.77734 c 1.053,0 2.1253,-0.82986 2.4043,-1.88086 l 2.53516,-9.62109 c 0.278,-1.05 -0.34744,-1.92188 -1.39844,-1.92188 h -30.94141 z m 131.02735,0 c -1.052,0 -2.12425,0.87378 -2.40625,1.92578 L 319.32241,77.89648 c -0.278,1.049 0.35148,1.88086 1.39648,1.88086 h 14.29492 c 1.054,0 2.12725,-0.83185 2.40625,-1.88086 l 16.13086,-60.726559 c 0.281,-1.052 -0.34848,-1.92578 -1.39648,-1.92578 z m 45.64062,0 c -0.886,0 -1.79751,0.62036 -2.22851,1.44336 L 345.48061,77.2832 c -0.591,0.997 -0.34359,2.0803 0.56641,2.4043 0.176,0.063 0.3754,0.0898 0.5664,0.0898 h 13.6836 c 0.936,0 1.92335,-0.68421 2.31836,-1.57421 l 6.42773,-11.93555 h 15.47851 v 12.10937 c 0,0.848 0.64338,1.39844 1.48438,1.39844 h 14.99414 c 1.052,0 2.1253,-0.87283 2.4043,-1.92383 0.07,-0.26 0.081,-0.47526 0.043,-0.69726 l -3.57813,-60.597659 c -0.043,-0.804 -0.67533,-1.3125 -1.48633,-1.3125 z m 37.20703,0 c -1.062,0 -2.14292,0.87378 -2.41992,1.92578 l -2.57812,9.61914 c -0.279,1.05 0.34843,1.87891 1.39843,1.87891 h 9.04688 l -13.0293,49.230469 c -0.293,1.046 0.29575,1.8789 1.34375,1.8789 h 14.3418 c 1.05,0 2.12934,-0.83185 2.40234,-1.88086 l 13.03125,-49.230459 h 9.05078 c 1.051,0 2.12535,-0.83086 2.40235,-1.88086 l 2.58008,-9.61719 c 0.276,-1.051 -0.35139,-1.92383 -1.40039,-1.92383 z m 104.31837,0 -0.0195,0.002 h 0.0137 c 0.002,0 0.004,-0.002 0.006,-0.002 z m -0.006,0.002 c -1.05205,0.003 -2.12587,0.87386 -2.40234,1.92383 L 506.50001,77.89653 c -0.28,1.049 0.34644,1.88086 1.39844,1.88086 h 12.02344 c 1.051,0 2.12529,-0.83185 2.40429,-1.88086 l 8.56641,-32.396479 10.92969,33.361329 c 0.197,0.6 0.75043,0.91601 1.39843,0.91601 h 10.92969 c 1.052,0 2.12634,-0.83186 2.40235,-1.88086 l 16.11718,-60.726559 c 0.277,-1.053 -0.34653,-1.92383 -1.39453,-1.92383 h -12.11133 c -1.051,0 -2.12829,0.87183 -2.40429,1.92383 l -7.86914,29.59961 -9.96875,-30.60547 c -0.197,-0.601 -0.75244,-0.91797 -1.39844,-0.91797 z m -45.77734,0 c -0.88708,0.003 -1.79659,0.62029 -2.22461,1.44141 L 441.21875,77.28521 c -0.588,0.996 -0.34359,2.08025 0.56641,2.40625 0.18,0.062 0.37636,0.0859 0.56836,0.0859 h 13.68359 c 0.936,0 1.87839,-0.68326 2.27539,-1.57226 l 6.47071,-11.93555 h 15.42969 l 0.041,12.10742 c 0.004,0.85 0.64823,1.39844 1.49023,1.39844 h 14.99414 c 1.366,0 2.62627,-1.41009 2.44727,-2.62109 l -3.53907,-60.595709 c -0.044,-0.806 -0.68637,-1.3125 -1.48437,-1.3125 z m -94.65235,22.38477 -0.0449,16.61133 h -9.00781 z m 95.74415,0 -0.043,16.61133 h -9.00781 z" />
</svg>
