<svg
   version="1.1"
   width="46.292969"
   height="18.259766"
   viewBox="0 0 46.292969 18.259766"
   id="svg9"
   xmlns="http://www.w3.org/2000/svg"
   xmlns:svg="http://www.w3.org/2000/svg">
  <defs
     id="defs9" />
  <path
     id="path4"
     style="fill:#000000"
     d="m 16.248046,0 c -1.611,0 -2.917969,1.305016 -2.917969,2.916016 v 0.0098 c 0,1.617 1.311734,2.927734 2.927735,2.927734 1.616999,0 2.925781,-1.310734 2.925781,-2.927734 0,-1.617 -1.309782,-2.925782 -2.925781,-2.925782 z M 0,5.523438 v 1.775391 h 1.376953 v 6.162109 H 0 v 1.783203 h 11.61328 v -1.626953 l 1.341797,-1.345703 3.714844,3.724609 -1.373047,1.367188 0.892578,0.896484 7.429688,-7.439453 V 9.03711 L 21.552733,11.111329 16.935546,6.496094 11.61328,11.828125 V 10.386719 L 6.849608,13.03711 V 7.298829 H 8.222655 V 5.523438 Z m 22.261718,0 v 1.775391 h 1.373047 v 6.162109 h -1.388672 v 1.783203 h 7.826172 c 5.812,0 5.884625,-9.720703 0.01563,-9.720703 z m 12.408203,0 v 1.775391 h 1.376953 v 6.162109 h -1.376953 v 1.783203 H 46.292968 V 10.386719 L 41.523436,13.03711 V 7.298829 H 42.90039 V 5.523438 Z m -6.074219,3.027344 h 0.330078 c 1.717,0 1.7165,3.652343 0.0625,3.652343 h -0.002 -0.390625 z" />
</svg>
