<svg id="LIDL" width="500" height="197.22858" viewBox="0 0 500 197.22858" version="1.1" xml:space="preserve" xmlns:xlink="http://www.w3.org/1999/xlink" xmlns="http://www.w3.org/2000/svg" xmlns:svg="http://www.w3.org/2000/svg">
	<path id="L" style="fill:#000000;stroke:#000000;stroke-width:0" d="M 0,59.67296 H 88.812805 V 78.83311 H 73.99447 v 61.98427 l 51.44295,-28.62142 v 52.45821 H 0 V 145.38601 H 14.872338 V 78.83311 H 0 Z" />
	<path id="I" style="fill:#000000;stroke:#000000;stroke-width:0" d="m 175.59511,0 c 17.45367,0 31.61317,14.148702 31.61317,31.613168 0,17.464466 -14.1487,31.613168 -31.61317,31.613168 -17.45367,0 -31.61317,-14.148702 -31.61317,-31.613168 0,-0.0432 0,-0.0756 0,-0.118806 v 0.0108 c 0,0 0,0 0,0 C 143.98194,14.1055 158.08744,0 175.4871,0 c 0.0432,0 0.0756,0 0.11881,0 z m 57.18884,120.02635 -49.86608,-49.86607 -57.48045,57.58846 v 19.33296 l 14.48352,-14.53753 40.12399,40.232 -14.81833,14.76433 9.63407,9.68808 80.24798,-80.35598 V 97.604441 l -22.3139,22.432709 z" />
	<path id="D" style="fill:#000000;stroke:#000000;stroke-width:0" d="m 240.44386,59.675628 v 19.15408 h 14.82964 v 66.554082 h -14.9984 v 19.28065 h 84.52685 c 62.77271,0 63.5571,-104.988812 0.16881,-104.988812 z m 68.41043,32.675843 h 3.56502 c 18.54452,0 18.53912,39.447269 0.67503,39.447269 h -4.24005 z" />
	<path id="L" style="fill:#000000;stroke:#000000;stroke-width:0" d="m 374.45457,59.67296 v 19.16015 h 14.87234 v 66.5529 h -14.87234 v 19.26816 H 500 v -52.45821 l -51.50775,28.62142 V 78.83311 h 14.87233 V 59.67296 h -88.92081 z" />
</svg>
