<svg
   version="1.1"
   id="Layer_1"
   x="0px"
   y="0px"
   width="366.03024"
   height="228.54512"
   viewBox="0 0 366.03024 228.54513"
   enable-background="new 0 0 395.785 267.318"
   xml:space="preserve"
   xmlns="http://www.w3.org/2000/svg"
   xmlns:svg="http://www.w3.org/2000/svg"><defs
   id="defs11" />

<linearGradient
   id="SVGID_1_"
   gradientUnits="userSpaceOnUse"
   x1="81.954102"
   y1="30.497101"
   x2="342.9541"
   y2="174.4971"
   gradientTransform="translate(-773.12208,-95.394437)">
	<stop
   offset="0"
   style="stop-color:#FFDD00"
   id="stop1" />
	<stop
   offset="1"
   style="stop-color:#F6881F"
   id="stop2" />
</linearGradient>
<path
   fill="url(#SVGID_1_)"
   d="m 311.67027,150.775 c -3.054,7.705 -5.806,15.899 -8.583,23.345 -8.683,0.513 -17.309,0.705 -24.801,0.854 -0.541,0.013 -0.825,0.45 -0.158,0.914 5.927,3.779 11.428,6.744 18.755,11.972 -4.48,9.045 -9.823,17.124 -15.04,25.733 -0.731,1.124 -0.88,1.943 0.95,1.096 9.747,-4.433 19.85,-10.438 27.989,-15.886 5.004,4.368 9.604,9.426 13.938,14.866 0.09,0.111 0.296,0.189 0.323,-0.043 0.943,-8.272 0.584,-17.34 -0.353,-24.837 6.986,-5.46 13.729,-11.237 19.77,-17.795 0.495,-0.527 0.001,-0.673 -0.328,-0.629 -7.156,0.87 -15.691,1.906 -22.703,2.444 -2.513,-8.314 -4.823,-15.062 -7.911,-22.096 -0.345,-0.729 -0.624,-1.095 -0.905,-1.095 -0.288,0.002 -0.579,0.384 -0.943,1.157 m -56.075,-104.073 c -12.118,0 -23.909,0.825 -34.648,2.199 -27.181,3.635 -54.303,10.785 -78.711,22.069 -1.419,0.693 -0.786,1.631 0.368,1.422 117.392,-20.53 219.152,0.355 183.642,88.489 -0.455,0.817 0.291,0.801 0.592,0.619 56.41,-28.736 51.128,-86.937 -10.696,-106.499 -18.862,-5.969 -40.166,-8.3 -60.534,-8.3 -0.008,10e-4 -0.009,10e-4 -0.013,10e-4"
   id="path2"
   style="fill:#000000" />
<radialGradient
   id="SVGID_2_"
   cx="199.69141"
   cy="111.9736"
   r="137.2079"
   gradientUnits="userSpaceOnUse"
   gradientTransform="translate(-773.12208,-95.394437)">
	<stop
   offset="0"
   style="stop-color:#00ACEE"
   id="stop3" />
	<stop
   offset="1"
   style="stop-color:#273B97"
   id="stop4" />
</radialGradient>
<path
   fill="url(#SVGID_2_)"
   d="m 148.19227,144.079 c -0.962,-5.312 -4.418,-23.642 2.926,-24.334 7.836,-0.732 10.388,18.791 11.177,23.543 0.721,4.346 3.801,23.684 -2.809,24.802 -0.214,0.035 -0.424,0.054 -0.631,0.054 -6.883,-0.003 -9.81,-19.351 -10.663,-24.065 m 1.207,-40.768 c -0.247,0 -0.499,0.003 -0.749,0.008 -23.764,0.94 -26.196,26.584 -23.124,44.455 3.091,18.313 14.351,42.711 37.264,38.213 20.153,-3.957 23.033,-26.381 20.468,-43.379 -2.869,-19.066 -12.461,-39.295 -33.854,-39.297 -0.003,0 -0.002,0 -0.005,0 m -60.754003,84.907 c 14.409003,1.014 28.840003,1.069 43.268003,0.428 -1.177,-6.888 -2.369,-13.773 -3.589,-20.655 -5.954,0.273 -11.911,0.362 -17.87,0.318 -3.916,-21.311 -7.553,-42.672 -11.370003,-64 -8.66,-0.468 -17.309,-1.059 -25.953,-1.747 4.972,28.588 10.296,57.113 15.514,85.656 m 88.251003,-85.819 c 1.065,6.302 2.109,12.607 3.125,18.918 3.14,-0.45 6.278,-0.913 9.415,-1.371 3.002,18.566 6.095,37.118 9.32,55.646 6.021,-1.83 12.043,-3.662 18.037,-5.58 -2.98,-17.74 -5.924,-35.484 -8.873,-53.229 2.863,-0.549 5.723,-1.112 8.574,-1.731 l -2.896,-17.438 c -12.198,1.859 -24.433,3.452 -36.702,4.785 m 39.013,-5.061 2.9,17.387 c 2.754,-0.592 5.506,-1.2 8.257,-1.813 2.812,16.895 5.565,33.797 8.502,50.669 5.403,-2.094 10.772,-4.27 16.091,-6.569 -2.784,-16.101 -5.381,-32.231 -8.132,-48.338 2.54,-0.739 5.069,-1.521 7.599,-2.301 -0.896,-5.345 -1.789,-10.692 -2.68,-16.039 -10.774,2.657 -21.62,4.998 -32.537,7.004 m 53.667,17.084 c -0.944,-4.616 -3.169,-17.517 1.478,-19.063 4.475,-1.489 6.763,12.864 7.424,16.326 0.756,3.974 3.382,16.97 -1.38,18.906 -0.257,0.104 -0.508,0.153 -0.752,0.153 -4.122,0.001 -6.277,-14.179 -6.77,-16.322 m 4.223,-32.238 c -2.401,0 -5.013,0.626 -7.824,2.023 -14.051,6.979 -13.296,25.035 -11.163,37.805 2.065,12.43 9.002,30.406 24.67,22.123 13.921,-7.358 15.189,-23.111 12.816,-38.403 -1.628,-11.73 -8.071,-23.547 -18.499,-23.548 v 0"
   id="path4"
   style="fill:#000000" />
<linearGradient
   id="SVGID_3_"
   gradientUnits="userSpaceOnUse"
   x1="37.681599"
   y1="110.7412"
   x2="298.68161"
   y2="254.7412"
   gradientTransform="translate(-773.12208,-95.394437)">
	<stop
   offset="0"
   style="stop-color:#FFDD00"
   id="stop5" />
	<stop
   offset="1"
   style="stop-color:#F6881F"
   id="stop6" />
</linearGradient>
<path
   fill="url(#SVGID_3_)"
   d="M 36.782267,108.58 C 8.6542669,132.656 -5.4247331,160.169 1.9332669,183.938 15.214267,226.837 93.286267,241.309 176.27427,216.256 c 48.622,-14.681 88.161,-39.676 109.899,-66.486 0.407,-0.502 0.105,-1.102 -0.584,-0.537 -20.225,16.932 -46.965,31.719 -77.938,41.819 -80.23,26.165 -158.514003,10.986 -174.813003,-33.894 -5.449,-15.003 -3.279,-31.431 5.02,-47.63 0.362,-0.694 0.193,-1.298 -0.303,-1.298 -0.205,10e-4 -0.467,0.105 -0.773,0.35 m 55.023,-108.336 c -5.865,9.156 -11.995,18.46 -17.156,28.489 -18.185,-1.689 -36.707,-2.184 -55.539,-1.574 -0.471,0.016 -0.562,0.455 -0.145,0.645 16.08,8.24 28.479,15.567 42.708,25.323 -6.135,12.578 -14.377,28.722 -19.203,45.711 -0.127,0.408 0.164,0.617 0.514,0.384 14.768,-9.811 30.208,-18.344 46.169,-25.892 12.373003,10.27 23.961003,21.499 34.444003,33.696 0.333,0.369 0.581,0.162 0.598,-0.203 0.795,-15.782 -0.75,-31.299 -4.54,-46.557 12.708,-4.935 25.668,-9.395 38.807,-13.512 0.426,-0.134 0.386,-0.507 0.006,-0.649 -15.61,-5.209 -31.533,-9.302 -47.75,-12.347 -4.849,-11.352 -10.929003,-22.515 -18.267003,-33.584 -0.09,-0.125 -0.189,-0.174 -0.285,-0.174 -0.147,0 -0.282,0.112 -0.361,0.244"
   id="path6"
   style="fill:#000000" />
</svg>
