<svg id="LOTTO" width="500" height="168.97891" viewBox="0 0 500 168.97891" version="1.1" xml:space="preserve" xmlns:xlink="http://www.w3.org/1999/xlink" xmlns="http://www.w3.org/2000/svg" xmlns:svg="http://www.w3.org/2000/svg">
	<path id="LOTTO" style="fill:#000000;stroke:#000000;stroke-width:0" d="m 382.4359,102.95449 c -0.93999,-19.201997 3.73195,-39.010146 18.05323,-51.882784 11.81194,-10.820978 25.05911,-13.756807 39.87158,-13.853837 12.6961,-0.08315 24.76266,3.092646 35.55636,10.672639 18.2339,12.821212 23.4199,34.111641 24.04515,54.943082 0.42603,15.29872 -2.73605,29.48164 -10.23718,39.86716 -11.04769,15.61803 -28.97188,25.25825 -50.86848,24.83227 -16.03518,-0.13847 -29.10138,-6.88928 -39.26541,-17.72883 -12.13554,-13.75683 -16.22912,-29.76407 -17.15525,-46.8497 z M 0.24130423,166.91457 0,6.2520662 45.974225,4.566889 46.429008,135.68319 c 12.209981,0.24501 24.498552,0.0833 36.708526,0.32822 l -0.212818,29.54632 z M 90.170849,103.97934 c -0.93999,-19.201994 3.732066,-39.010791 18.053871,-51.88265 11.81129,-10.821103 25.05912,-13.756813 39.87106,-13.854617 12.69675,-0.08301 24.76319,3.093427 35.55623,10.673294 18.23455,12.821331 23.42002,34.110973 24.04514,54.943083 0.42663,15.2982 -2.73593,29.48099 -10.31578,40.27403 -11.04767,15.61804 -28.97188,25.25825 -50.86859,24.83292 -16.0344,-0.139 -29.10127,-6.88992 -39.26463,-17.72935 C 95.19069,137.07157 91.096978,121.06497 90.170849,103.97934 Z M 140.32662,69.709889 c -3.87599,4.746133 -4.64921,10.937116 -5.57976,17.942513 -0.22213,3.338293 -0.037,6.755969 -0.25901,10.094262 -0.22214,3.338296 0.0416,6.347786 -0.18096,9.686616 0.0277,4.23208 -0.10166,9.27921 0.74139,13.66874 1.43524,7.88514 4.51449,18.20155 14.27995,17.97435 5.04713,0.12954 9.0151,-2.90791 11.26086,-7.96829 3.0464,-7.02007 2.58366,-15.56282 3.18542,-23.05447 0.22213,-3.3383 0.037,-6.75597 -0.0697,-10.58051 -0.47666,-10.659123 -1.86108,-23.18387 -7.1075,-28.84678 -2.37982,-2.99547 -4.9037,-3.060287 -7.01929,-3.04691 -3.6671,-0.708407 -6.42716,0.449364 -9.25129,4.130479 z m 78.41394,-31.768392 11.88117,-0.241304 0.16173,-24.906079 45.41899,-11.93740138 -0.73651,36.63031838 14.81248,-0.09702 -0.37019,30.360738 -14.81246,0.09702 -0.18037,46.882031 c 0.0278,4.23209 0.13443,8.05664 0.64876,11.95991 0.4347,4.31132 2.17145,8.45077 6.49628,10.13103 3.10212,1.44473 6.67646,0.44493 11.30216,-1.62062 l 0.25955,27.10116 c -8.60758,2.98663 -14.37713,4.40849 -21.61857,4.69988 -12.28936,0.16239 -22.97576,-3.59293 -30.43063,-10.95 -9.91374,-9.94642 -11.37691,-22.06365 -11.46005,-34.75975 l 1.03242,-53.480554 -12.20998,-0.245005 z m 81.22477,-0.37111 11.88104,-0.240643 L 311.67962,11.936767 357.0985,0 l -0.48559,37.523594 15.21935,-0.01851 -0.37012,30.360737 -14.81259,0.09768 -0.43053,45.988259 c 0.0278,4.23208 0.13443,8.05663 0.64877,11.9599 0.43482,4.31067 2.17156,8.45012 6.49627,10.13103 3.10212,1.44473 6.67659,0.44434 11.30217,-1.62062 l 0.25955,27.10117 c -8.60761,2.98668 -14.37705,4.40789 -21.61862,4.69992 -12.28922,0.16173 -22.97574,-3.59293 -30.43049,-10.95064 -9.91329,-9.94565 -11.37698,-22.06365 -11.46011,-34.75975 l 0.38856,-52.336047 -12.20985,-0.245667 z m 132.62558,31.115179 c -3.87534,4.746258 -4.64845,10.936593 -5.57912,17.942638 -0.22213,3.338293 -0.037,6.755322 -0.25888,10.093608 -0.22293,3.338828 0.041,6.348318 -0.18096,9.686618 0.0277,4.23208 -0.10165,9.27921 0.74073,13.6686 1.43576,7.88593 4.59374,17.79481 14.28047,17.97513 5.04648,0.12935 9.01511,-2.90789 11.26034,-7.96906 3.04692,-7.01929 2.58352,-15.56216 3.18606,-23.05434 0.22213,-3.3383 0.037,-6.75532 -0.0699,-10.579871 -0.47666,-10.65911 -1.86109,-23.183863 -7.10749,-28.846767 -2.3797,-2.996105 -4.90359,-3.060928 -7.01929,-3.04691 -3.26023,-0.629863 -6.42717,0.449364 -9.25193,4.13036 z" />
</svg>
