<svg id="M1" width="500" height="466.284" viewBox="0 0 500 466.284" version="1.1" xml:space="preserve" xmlns:xlink="http://www.w3.org/1999/xlink" xmlns="http://www.w3.org/2000/svg" xmlns:svg="http://www.w3.org/2000/svg">
	<path id="M" style="fill:#000000;stroke:#000000;stroke-width:0" d="M 0,224.42574 V 59.195836 h 39.585801 39.585781 l 47.298788,54.597704 c 26.01432,30.02873 47.62266,54.5977 48.01855,54.5977 0.39584,0 22.60545,-24.56897 49.35456,-54.5977 l 48.63478,-54.597704 h 39.04822 39.04824 v 26.233967 26.233967 l -20.60439,20.16304 -20.60442,20.16303 0.25006,39.7483 0.25006,39.74831 18.67817,-9.97953 c 10.27299,-5.48873 19.00143,-9.98688 19.39656,-9.99587 0.39506,-0.009 0.71839,40.06986 0.71839,89.06412 v 89.08045 h -47.89284 -47.89272 v -81.49744 c 0,-53.63023 -0.32593,-81.38828 -0.95301,-81.17817 -0.52411,0.17562 -18.21426,20.79343 -39.31136,45.81737 -21.09709,25.02397 -38.73077,45.62815 -39.18597,45.78709 -0.45524,0.15888 -17.92062,-20.62925 -38.81208,-46.19598 -20.89144,-25.56673 -38.389243,-46.73513 -38.884003,-47.04091 -0.558219,-0.345 -0.899596,30.72533 -0.899596,81.87602 v 82.43202 H 47.413804 0 Z" />
	<path id="1" style="fill:#000000;stroke:#000000;stroke-width:0" d="m 310.51827,451.85225 c -5.95046,-7.93743 -11.03725,-15.00043 -11.30399,-15.69557 -0.8298,-2.16246 26.54561,-20.93213 49.08609,-33.65534 l 12.81076,-7.23116 v -101.4663 c 0,-73.17219 -0.2939,-101.46628 -1.05393,-101.46628 -0.57962,0 -5.32165,2.39531 -10.53774,5.3229 -9.57774,5.37558 -28.50931,14.75286 -29.83553,14.77828 -0.39506,0.007 -0.71839,-12.23019 -0.71839,-27.19506 v -27.20881 l 8.2798,-7.51341 C 357.31245,123.23753 400.78002,70.40023 437.56024,16.427418 L 448.75484,0 l 0.47884,176.5546 0.47897,176.55461 15.32567,-6.23206 c 16.48941,-6.70528 30.95248,-11.81922 33.42672,-11.81922 1.37201,0 1.53496,2.88709 1.53496,27.19391 v 27.19392 l -7.9023,2.07787 c -66.90052,17.59109 -116.93911,38.95783 -161.66608,69.03215 -4.68548,3.15051 -8.64852,5.72822 -8.80671,5.72822 -0.15836,0 -5.15621,-6.49429 -11.10667,-14.43175 z" />
</svg>
