<svg
   width="2426.4885"
   height="2303.625"
   viewBox="0 0 187.08809 177.61502"
   version="1.1"
   id="svg4"
   xmlns="http://www.w3.org/2000/svg"
   xmlns:svg="http://www.w3.org/2000/svg">
  <defs
     id="defs4" />
  <path
     id="path2"
     style="clip-rule:evenodd;fill-rule:evenodd"
     d="m 161.89412,0 c -9.798,14.918 -19.59511,28.90396 -29.85911,41.95696 V 30.76897 l -5.13288,-5.12791 H 96.57604 l -32.658,36.8289 -32.19191,-36.8289 H 0 v 120.27598 l 7.93206,7.92393 h 37.79102 v -52.67795 l 24.26,29.36698 18.66194,-21.91004 v 37.29498 l 7.93102,7.92408 h 15.86307 l -8.86497,5.59594 13.998,18.18006 c 19.127,-12.586 41.98894,-22.37696 69.51595,-28.90196 v -20.04707 l -7.46493,-6.99193 c -3.733,0.932 -6.99811,1.8659 -10.26411,3.2639 V 7.45905 Z m -1.86597,6.99403 v 124.00491 c 6.06401,-2.332 11.66389,-5.1289 17.72889,-6.5269 v 19.57994 c -27.05901,6.992 -43.855,13.986 -62.518,27.039 l -8.39603,-11.18904 c 6.064,-4.662 13.06214,-9.32399 21.92614,-13.98399 V 75.05601 c -4.664,2.797 -9.33002,5.12806 -14.46302,7.45906 V 62.93604 h -10e-4 c 16.33,-14.918 31.26008,-34.03101 45.72308,-55.94201 z M 2.80008,28.43798 H 30.79307 L 63.91804,66.66495 97.97713,28.43798 h 27.52496 v 18.64704 c -4.664,4.662 -9.79703,9.79005 -14.46303,13.98505 v 27.50386 l 13.99801,-7.458 v 62.93515 H 90.97812 V 87.17796 l -27.526,32.63209 -27.06009,-33.09907 v 57.341 H 2.80008 Z" />
</svg>
