<svg
   version="1.1"
   id="svg1"
   width="537.17554"
   height="108"
   viewBox="0 0 537.17554 108"
   xmlns="http://www.w3.org/2000/svg"
   xmlns:svg="http://www.w3.org/2000/svg">
  <defs
     id="defs1" />
  <g
     id="g1"
     transform="translate(-110.60285,-228.50333)">
    <path
       style="fill:#000000"
       d="m 448.10223,330.50333 c -2.56268,-3.3 -5.26514,-6 -6.00548,-6 -2.21999,0 -4.47855,3.27473 -4.82785,7 -0.27923,2.97803 -0.7006,3.5 -2.82543,3.5 h -2.49726 l -0.21339,-11 c -0.27397,-14.12334 0.21021,-16.71213 3.04999,-16.30749 1.90925,0.27205 2.19222,1.02769 2.45563,6.55749 0.16375,3.4375 0.59028,6.25 0.94785,6.25 0.35757,0 3.74075,-3.17762 7.51818,-7.06137 3.77744,-3.88375 7.37278,-6.89312 7.98966,-6.6875 2.44425,0.81475 1.68638,2.89892 -2.79711,7.69214 -2.5782,2.7563 -4.46722,5.58588 -4.19781,6.28794 0.2694,0.70206 2.6121,3.88179 5.20599,7.06607 4.51715,5.54526 5.32526,8.70272 2.22737,8.70272 -0.754,0 -3.46766,-2.7 -6.03034,-6 z m -136.99484,4.33333 c -0.36667,-0.36667 -0.66667,-6.18452 -0.66667,-12.92857 0,-14.66654 0.41391,-15.40476 8.63717,-15.40476 8.74989,0 14.36283,3.90796 14.36283,10 0,5.63714 -5.61363,10 -12.86687,10 -3.1141,0 -4.1381,0.44032 -4.63029,1.99105 -0.34756,1.09508 -0.37642,2.40447 -0.0641,2.90976 1.558,2.52089 -2.65398,5.55057 -4.77203,3.43252 z m 14.1797,-13.90657 c 5.94247,-2.9645 3.10248,-9.08742 -4.70045,-10.13402 -3.94913,-0.52969 -4.01951,-0.48347 -4.68768,3.07818 -1.0762,5.73663 0.0659,8.62908 3.40718,8.62908 1.55502,0 4.24645,-0.70796 5.98095,-1.57324 z m 18.15363,13.43731 c 0,-1.00585 4.01453,-9.89955 10.20776,-22.61407 1.53209,-3.14536 2.66066,-4.25 4.342,-4.25 2.13927,0 3.61409,2.16142 6.82338,10 0.33777,0.825 1.00655,2.175 1.48616,3 2.61396,4.49634 6.10215,13.25337 5.60174,14.06304 -1.13883,1.84267 -3.58269,0.88664 -5.25755,-2.05672 -1.63741,-2.87755 -1.97501,-2.99368 -8.70349,-2.99368 -6.72847,0 -7.06607,0.11613 -8.70349,2.99368 -1.66622,2.92818 -5.79651,4.25192 -5.79651,1.85775 z m 18.47097,-10.8171 c 0.7071,-1.1441 -2.55083,-8.27915 -3.97097,-8.69664 -1.28593,-0.37804 -4.84723,7.27881 -4.01316,8.62837 0.79709,1.28972 7.19542,1.34443 7.98413,0.0683 z m 27.23027,11.32093 c -0.38568,-0.38568 -0.70124,-6.4604 -0.70124,-13.49939 0,-11.6297 0.1766,-12.89266 1.93426,-13.83333 2.91375,-1.55939 13.73323,-1.25849 17.08576,0.47517 5.83516,3.01748 6.74232,9.42704 1.97998,13.98965 -3.36931,3.228 -3.54212,3.8022 -1.70907,5.67857 1.89776,1.94261 4.70907,6.14782 4.70907,7.04393 0,0.42762 -1.10338,0.7775 -2.45196,0.7775 -1.77999,0 -3.29885,-1.23092 -5.54222,-4.49155 -5.04883,-7.33823 -10.67738,-7.49989 -11.19566,-0.32155 -0.29617,4.10213 -2.22506,6.06486 -4.10892,4.181 z m 17.09876,-15.5679 c 0.66,-0.66 1.2,-2.25797 1.2,-3.55103 0,-2.84581 -5.49042,-5.52687 -10.35141,-5.05477 -2.99635,0.29101 -3.16332,0.53545 -3.45338,5.0558 l -0.30479,4.75 h 5.85479 c 3.2204,0 6.39474,-0.53995 7.05479,-1.2 z m -126.92,-40.15715 c -8.42591,-2.08432 -15.84627,-9.11809 -18.00115,-17.06332 -1.35868,-5.00958 -0.53632,-14.98791 1.58392,-19.21874 3.87921,-7.7408 14.95982,-14.36079 24.03723,-14.36079 4.76561,0 13.14285,2.78872 16.15162,5.37676 l 2.68438,2.309 -2.918,3.65709 c -3.38601,4.24364 -3.76165,4.30963 -9.55879,1.67911 -5.52065,-2.50506 -7.97867,-2.51183 -12.83296,-0.0353 -5.64298,2.87883 -7.02625,5.39309 -7.02625,12.77108 0,7.49908 1.62041,10.49784 7.21479,13.35188 5.15556,2.63017 12.14954,1.79021 14.46044,-1.73666 1.29027,-1.96921 1.33592,-2.65455 0.26292,-3.94744 -0.72015,-0.86773 -2.15675,-1.34006 -3.22561,-1.06055 -1.05995,0.27718 -3.00388,0.0946 -4.31986,-0.40573 -1.95939,-0.74496 -2.39268,-1.61635 -2.39268,-4.812 0,-5.61285 1.34464,-6.26982 12.14929,-5.93605 l 9.35071,0.28886 0.28137,11.10152 c 0.31288,12.3451 0.60557,11.7149 -7.28137,15.67741 -5.9512,2.98996 -14.24533,3.94082 -20.62,2.36392 z m 153.45729,0.0301 c -6.9641,-1.58225 -14.572,-7.68317 -17.28148,-13.85835 -3.00622,-6.85148 -2.80089,-15.92675 0.51071,-22.57226 6.86405,-13.77435 26.01681,-18.08495 39.34276,-8.85465 9.34986,6.47623 12.94903,20.55331 7.9656,31.1551 -2.76428,5.88075 -10.92388,13.049 -15.73099,13.81976 -2.00414,0.32133 -4.99389,0.78655 -6.64389,1.0338 -1.65,0.24726 -5.32322,-0.0783 -8.16271,-0.7234 z m 14.29705,-12.59167 c 9.1557,-5.58287 8.20374,-19.76111 -1.67731,-24.98143 -5.41517,-2.86093 -10.26092,-2.39793 -14.79013,1.41315 -6.71299,5.64861 -6.28356,18.47004 0.77801,23.22883 4.25989,2.87074 11.28881,3.02281 15.68943,0.33945 z m -336.18471,11.64801 c -0.26819,-0.69888 -0.36657,-11.83638 -0.21862,-24.75 l 0.26899,-23.47931 5,-0.29338 c 3.0252,-0.1775 5.71937,0.23277 6.82135,1.03875 1.00174,0.73267 3.9899,4.91469 6.64037,9.29338 2.65046,4.37869 5.20586,7.89684 5.67865,7.81812 0.4728,-0.0787 2.29369,-2.32872 4.04643,-5 8.2901,-12.63463 8.495,-12.83187 13.67632,-13.16484 7.78436,-0.50024 7.63688,-0.97782 7.63688,24.73041 0,24.45525 -0.13067,25.07756 -5.26574,25.07756 -6.40009,0 -6.73426,-0.74607 -6.73426,-15.03519 0,-7.25147 -0.40657,-12.96481 -0.9226,-12.96481 -0.50743,0 -3.29758,3.6 -6.20034,8 -2.90275,4.4 -5.81095,8 -6.46266,8 -0.65171,0 -3.07334,-3.12543 -5.3814,-6.94539 -4.6035,-7.61905 -6.94668,-10.21226 -7.16277,-7.92706 -0.0714,0.75485 -0.0253,6.61944 0.10247,13.03242 0.21578,10.83289 0.0878,11.73729 -1.80448,12.75 -2.79104,1.49372 -9.12123,1.37605 -9.71859,-0.18066 z m 78.30037,0.58136 c -2.3133,-0.60453 -2.26137,-0.95096 1.34135,-8.9484 1.70024,-3.77425 3.45368,-7.76227 3.89652,-8.86227 0.44284,-1.1 1.97674,-4.5998 3.40865,-7.77734 1.43192,-3.17753 2.60348,-6.02975 2.60348,-6.33825 0,-0.62855 5.53813,-13.05373 6.85711,-15.38441 0.54175,-0.95729 2.7223,-1.60975 6.0268,-1.80333 l 5.17791,-0.30334 2.5659,5.80334 c 3.6905,8.34682 4.5346,10.30947 10.88258,25.30333 3.14354,7.425 6.16982,14.0625 6.72506,14.75 2.81867,3.49007 -6.43736,5.89809 -10.83402,2.81855 -1.12403,-0.7873 -2.59222,-3.2623 -3.26265,-5.5 l -1.21897,-4.06855 h -9.93418 -9.93418 l -1.52568,2.95034 c -0.83912,1.62268 -1.52568,3.63185 -1.52568,4.46481 0,2.87924 -5.6992,4.34609 -11.25,2.89552 z m 28.25,-23.35051 c 0,-2.57607 -3.92048,-10.37301 -4.78239,-9.5111 -0.73054,0.73054 -4.21555,9.65709 -4.21679,10.80094 -4.5e-4,0.4125 2.02418,0.75 4.49918,0.75 3.86263,0 4.5,-0.28892 4.5,-2.03984 z m 123.35714,22.80868 c -0.80505,-1.3026 -0.53974,-46.66437 0.2807,-47.99187 0.91639,-1.48274 8.1225,-0.79265 10.1606,0.97303 1.111,0.9625 5.92123,6.925 10.68941,13.25 4.76818,6.325 9.07074,11.64557 9.56125,11.82348 0.49051,0.17792 1.01762,-5.67208 1.17137,-13 l 0.27953,-13.32348 4.58759,-0.29816 c 3.05339,-0.19845 4.98271,0.17794 5.7691,1.12547 0.85058,1.0249 1.10613,7.80001 0.91241,24.18992 -0.304,25.71945 -0.29575,25.69291 -7.44079,23.92826 -3.226,-0.79674 -4.90305,-2.36147 -10.65941,-9.94549 -3.75711,-4.95 -7.92525,-10.6875 -9.26254,-12.75 -1.3373,-2.0625 -3.1008,-3.75 -3.9189,-3.75 -1.23964,0 -1.48746,2.14644 -1.48746,12.88337 0,12.5152 -0.0643,12.9006 -2.25,13.48634 -3.69553,0.99036 -7.58136,0.71217 -8.39286,-0.60087 z m 154.09547,0.15448 c -0.80387,-1.30069 -0.71311,-46.69281 0.096,-48.00194 0.85341,-1.38084 9.21128,-1.11004 10.1424,0.32862 0.44496,0.6875 1.03401,9.35 1.30901,19.25 l 0.5,18 11.5,0.5 11.5,0.5 0.31453,3.81978 c 0.53216,6.46286 -0.0658,6.68022 -18.37795,6.68022 -10.57512,0 -16.55274,-0.37895 -16.98397,-1.07668 z m 62.79739,0.4144 c -1.75718,-0.70904 -1.80462,-46.3831 -0.05,-48.13772 0.66,-0.66 2.82,-1.2 4.8,-1.2 1.98,0 4.14,0.54 4.8,1.2 0.86305,0.86305 1.2,7.59218 1.2,23.96481 0,21.48345 -0.10887,22.82309 -1.93425,23.8 -1.9935,1.06689 -6.61175,1.26224 -8.81575,0.37291 z m 39.10674,-0.85046 c -0.31927,-0.832 -0.12174,-2.0695 0.43895,-2.75 0.5607,-0.68049 3.04049,-6.18726 5.51065,-12.23726 2.47016,-6.05 5.25463,-12.8 6.18772,-15 0.93308,-2.2 2.35455,-5.575 3.15883,-7.5 4.1783,-10.00062 4.67636,-10.5 10.47217,-10.5 h 5.3319 l 8.13723,19 c 4.47548,10.45 9.06881,21.13711 10.2074,23.74913 2.01053,4.61233 2.01629,4.77797 0.20003,5.75 -2.33762,1.25106 -7.0267,1.27057 -8.97683,0.0374 -0.81137,-0.51309 -2.39129,-2.8687 -3.51093,-5.23469 l -2.03573,-4.30179 -9.77923,-0.2867 -9.77923,-0.2867 -2.05504,4.94496 c -2.15273,5.18005 -3.58748,6.08957 -9.64601,6.11478 -2.01636,0.008 -3.50517,-0.56953 -3.86188,-1.49908 z m 29.8863,-21.06363 c 0.77357,-0.77358 -3.77377,-10.97393 -4.78721,-10.73839 -0.75186,0.17474 -4.45326,8.95236 -4.45501,10.56476 -9.5e-4,0.87234 8.38594,1.0299 9.24222,0.17363 z"
       id="path1" />
  </g>
</svg>
