<svg id="MAGNOLIA" width="500" height="83.284248" viewBox="0 0 500 83.284248" version="1.1" xml:space="preserve" xmlns:xlink="http://www.w3.org/1999/xlink" xmlns="http://www.w3.org/2000/svg" xmlns:svg="http://www.w3.org/2000/svg">
	<path id="MAGNOLIA" style="fill:#000000;stroke:#000000;stroke-width:0" d="M 35.211268,45.774648 V 16.325224 L 22.40717,35.851472 9.603073,16.645327 V 45.774648 H 0 V 0.64020487 H 10.56338 L 22.40717,19.846351 34.571063,0.64020487 h 10.56338 V 45.774648 Z M 95.070423,12.483995 89.628681,26.888604 H 101.47247 L 95.070423,12.804097 Z M 108.83483,45.774648 104.6735,35.851472 H 85.46735 l -3.84123,9.923176 H 71.382843 L 90.588988,0.32010243 h 9.603072 L 119.39821,45.774648 Z m 54.41741,0.960307 c -14.08451,0 -23.68758,-9.923175 -23.68758,-23.367477 C 139.56466,10.56338 149.48784,0 163.25224,0 c 8.00256,0 12.8041,2.240717 17.60563,6.4020487 l -6.40204,7.3623563 c -3.20103,-3.201025 -6.40205,-4.4814344 -11.52369,-4.4814344 -7.36236,0 -12.8041,6.4020484 -12.8041,14.0845074 0,8.322663 5.44174,14.404609 13.4443,14.404609 3.84123,0 7.04226,-0.960307 9.60308,-2.880922 v -6.081946 h -10.24328 v -8.962868 h 19.52625 v 19.526248 c -5.30906,4.682774 -12.12729,7.296428 -19.20615,7.362356 z M 245.19846,45.774648 223.4315,17.285531 v 28.489117 h -9.92318 V 0.64020487 h 9.28297 L 243.91805,28.489117 V 0.64020487 h 9.60308 V 45.774648 Z m 74.26377,-22.40717 c 0,-7.682459 -5.76185,-14.0845074 -13.76441,-14.0845074 -8.00256,0 -13.4443,6.4020484 -13.4443,13.7644044 0,8.002561 5.76184,14.40461 13.76441,14.40461 8.00256,0 13.4443,-6.402049 13.4443,-14.084507 z M 305.69782,46.734955 C 292.7942,46.732286 282.33519,36.271091 282.33519,23.367478 282.33519,10.463864 292.7942,0.00266935 305.69782,0 c 14.08451,0 24.00769,10.243278 24.00769,23.367478 0,12.804097 -9.92318,23.367477 -24.00769,23.367477 z m 51.8566,-0.960307 V 0.64020487 h 9.92317 V 36.81178 h 22.40717 v 8.962868 z M 415.49296,0.64020487 h 9.92317 V 45.774648 h -9.92317 z m 60.49936,11.84379013 -6.08195,14.404609 h 12.16389 l -6.08194,-14.084507 z m 13.7644,33.290653 -4.16133,-9.923176 h -19.20615 l -4.16133,9.923176 h -9.92317 L 471.51088,0.32010243 h 9.28297 L 500,45.774648 Z M 196.22279,59.276569 h -6.40205 v 11.84379 h 6.40205 c 4.16133,0 7.04225,-2.56082 7.04225,-6.081947 0,-3.841229 -2.88092,-5.761843 -7.04225,-5.761843 z m 0,14.404609 h -6.40205 v 9.603073 h -3.20102 V 56.715749 h 9.60307 c 6.40205,0 10.24328,3.201025 10.24328,8.322663 0,5.761844 -4.80154,8.642766 -10.56338,8.642766 z m 33.61076,-13.764404 -5.76185,13.764404 h 12.1639 l -6.08195,-13.444302 z m 13.4443,23.367477 h -3.20103 l -3.20102,-7.042253 h -14.08451 l -3.20102,7.042253 h -3.20103 l 12.1639,-26.568502 h 2.88092 z m 27.20871,-24.007682 h -8.32267 v 11.203585 h 8.32267 c 3.84122,0 6.40204,-2.240717 6.40204,-5.441742 0,-3.201024 -2.24071,-5.441741 -6.40204,-5.441741 z m 7.04225,23.68758 -7.68246,-10.243278 h -7.68246 v 10.56338 h -2.88092 V 57.035852 h 11.20359 c 6.08194,0 9.60307,3.201024 9.60307,7.682458 0,4.481434 -3.20103,7.042254 -7.04225,8.002561 l 8.00256,10.56338 h -3.52113 z m 44.81434,0 h -3.84123 l -9.92317,-12.804098 -5.76185,5.761844 v 7.042254 h -2.88092 v -26.2484 h 2.88092 v 15.685019 l 15.04482,-15.685019 h 3.84122 L 310.49936,68.239437 Z M 35.211268,45.774648 V 16.325224 L 22.40717,35.851472 9.603073,16.645327 V 45.774648 H 0 V 0.64020487 H 10.56338 L 22.40717,19.846351 34.571063,0.64020487 h 10.56338 V 45.774648 Z" />
</svg>
