<svg id="MAKRO" width="500" height="122.86822" viewBox="0 0 500 122.86822" version="1.1" xml:space="preserve" xmlns:xlink="http://www.w3.org/1999/xlink" xmlns="http://www.w3.org/2000/svg" xmlns:svg="http://www.w3.org/2000/svg">
	<path id="MAKRO" style="fill:#000000;stroke:#000000;stroke-width:0" d="m 205.03876,84.496124 c 0,12.790698 -8.13954,18.217056 -17.82946,18.217056 -7.75194,0 -14.34108,-4.651164 -14.34108,-10.077521 0,-7.364341 5.81395,-8.914729 15.89147,-10.852713 9.68992,-1.937985 14.34109,-5.03876 15.50388,-5.426357 l 0.77519,-0.775194 z m -11.24031,-61.24031 c -14.34109,0 -28.68217,5.03876 -34.88372,12.015504 -2.71318,3.100775 -3.87597,6.589147 -3.48837,10.077519 0.77519,6.201551 3.87597,9.689923 8.13953,10.465116 0.7752,0 1.55039,0 1.93799,0 5.42635,0 9.68992,-3.100775 11.6279,-5.038759 4.65117,-4.263566 8.13954,-7.751938 17.05427,-7.751938 7.36434,0 11.24031,3.100775 11.24031,8.527132 0,7.364341 -5.42636,7.751938 -13.56589,8.914728 -22.48063,2.325582 -43.79845,6.589148 -43.79845,29.844962 0,15.116282 8.91472,25.968992 24.8062,29.844962 3.48837,0.77519 7.36434,1.16279 10.85271,1.16279 10.07752,0 18.60465,-2.71318 21.31783,-7.36434 l 0.77519,-0.7752 0.3876,1.1628 c 1.16279,3.48837 2.32558,4.65116 3.87597,5.42635 1.93798,1.16279 4.26357,1.93799 6.58915,1.93799 6.97674,0 13.95349,-5.42636 13.95349,-13.95349 V 48.062016 C 231.00775,32.55814 217.05426,23.255814 193.79845,23.255814 Z M 94.186047,48.449612 c 6.589143,0 13.565893,4.263566 13.565893,14.341086 v 45.348832 c 0,9.30233 6.58915,13.95349 13.17829,13.95349 6.58915,0 13.1783,-5.03876 13.1783,-13.95349 V 55.426357 c 0,-20.930233 -13.95349,-32.170543 -31.00775,-32.170543 -13.565896,0 -24.806206,5.426357 -27.131788,10.077519 l -0.387597,1.162791 -0.387597,-1.162791 C 72.48062,28.294574 62.403101,23.643411 50.387597,23.643411 c -10.852713,0 -20.930233,2.713178 -24.031008,8.139535 l -0.387597,1.16279 -0.387597,-1.550387 C 24.806202,26.356589 18.992248,23.643411 13.953488,23.643411 6.9767442,23.255814 0,27.906977 0,36.821705 v 70.930235 c 0,9.30232 6.5891473,13.95349 13.565891,13.95349 6.589148,0 13.565892,-5.03876 13.565892,-13.95349 V 62.790698 c 0,-9.689923 6.976744,-14.341086 13.565891,-14.341086 6.589148,0 13.565892,4.651163 13.565892,14.341086 v 45.348832 c 0,9.30233 6.589147,13.95349 13.565891,13.95349 6.589148,0 13.178295,-5.03876 13.178295,-13.95349 V 62.790698 C 80.620155,52.713178 87.209302,48.449612 94.186047,48.449612 Z M 450.77519,122.86822 c -28.68217,0 -49.2248,-20.54264 -49.2248,-48.837212 0,-13.565892 4.65116,-26.356589 13.56589,-35.658915 9.30232,-10.077519 21.70543,-15.503876 35.65891,-15.503876 13.95349,0 26.74419,5.426357 35.65892,14.728682 C 495.34884,46.899225 500,59.302326 500,72.868217 c 0,13.565892 -4.65116,25.968992 -13.56589,35.271313 -8.91473,9.30233 -21.70543,14.72869 -35.65892,14.72869 z m 0,-76.356592 c -12.0155,0 -22.09302,12.015504 -22.09302,26.744186 0,14.341085 9.68992,25.193798 22.09302,25.193798 12.7907,0 22.09303,-10.852713 22.09303,-25.193798 0,-14.728682 -10.07752,-26.744186 -22.09303,-26.744186 z M 356.58915,23.255814 c -6.58915,0 -13.56589,5.03876 -13.56589,14.728682 v 70.542634 c 0,8.91473 6.58914,13.1783 13.17829,13.1783 6.58915,0 13.17829,-4.65117 13.17829,-13.1783 V 68.604651 c 0,-15.116279 9.68993,-16.666667 14.34109,-17.44186 9.30233,-1.550388 15.11628,-6.589148 15.89147,-13.565892 0.3876,-6.20155 -2.32558,-10.852713 -8.52713,-13.565891 -1.55039,-0.775194 -3.48837,-1.162791 -5.42636,-1.162791 -6.20155,0 -13.95348,3.100775 -16.66666,9.302326 l -0.7752,1.550387 -0.38759,-1.550387 c -0.7752,-5.813954 -6.20155,-8.914729 -11.24031,-8.914729 z m -51.55039,92.248066 c 3.10077,4.26356 7.36434,6.58914 12.0155,6.58914 2.71318,0 5.03876,-0.77519 7.36434,-1.93798 5.03876,-3.10078 8.52714,-10.46512 3.87597,-18.60465 L 305.81395,64.341085 324.8062,45.736434 c 6.97675,-6.976744 5.42636,-14.341085 1.16279,-18.604651 -2.32558,-2.325581 -5.42635,-3.488372 -8.91473,-3.488372 -3.48837,0 -6.58914,1.550387 -9.30232,4.263566 L 275.96899,59.302326 V 13.565891 C 275.96899,4.6511628 269.37984,0 262.4031,0 255.81395,0 248.83721,4.6511628 248.83721,13.565891 v 94.961239 c 0,8.91473 6.58915,13.95349 13.56589,13.95349 6.58915,0 13.56589,-4.65116 13.56589,-13.95349 V 93.410853 l 9.68992,-9.689923 z" />
</svg>
