<svg
   version="1.1"
   id="Warstwa_1"
   x="0px"
   y="0px"
   viewBox="0 0 859.45001 459.23999"
   xml:space="preserve"
   width="859.45001"
   height="459.23999"
   xmlns:xlink="http://www.w3.org/1999/xlink"
   xmlns="http://www.w3.org/2000/svg"
   xmlns:svg="http://www.w3.org/2000/svg"><defs
   id="defs90"><defs
     id="defs2">
			<rect
   id="SVGID_00000074411528688926086320000001726100697372839300_"
   x="96.269997"
   y="196.7"
   width="887.46002"
   height="686.59998" />
		</defs><clipPath
     id="SVGID_00000170265252629506668880000011841195322357702030_">
			<use
   xlink:href="#SVGID_00000074411528688926086320000001726100697372839300_"
   style="overflow:visible"
   id="use2" />
		</clipPath></defs>
<style
   type="text/css"
   id="style1">
	.st0{clip-path:url(#SVGID_00000020370251756509392260000002427579882478991264_);}
	.st1{clip-path:url(#SVGID_00000071556200967564398370000000746209568558519231_);fill:#2EA648;}
	
		.st2{clip-path:url(#SVGID_00000071556200967564398370000000746209568558519231_);fill-rule:evenodd;clip-rule:evenodd;fill:#2EA648;}
	.st3{opacity:0.9;clip-path:url(#SVGID_00000071556200967564398370000000746209568558519231_);}
	.st4{clip-path:url(#SVGID_00000096750736542002576350000018044159621241886348_);}
	
		.st5{clip-path:url(#SVGID_00000020357451722489724140000003485752653474893995_);fill-rule:evenodd;clip-rule:evenodd;fill:#FFFFFF;}
	
		.st6{clip-path:url(#SVGID_00000020357451722489724140000003485752653474893995_);fill-rule:evenodd;clip-rule:evenodd;fill:#E2161C;}
	.st7{opacity:0.9;clip-path:url(#SVGID_00000020357451722489724140000003485752653474893995_);}
	.st8{clip-path:url(#SVGID_00000019650699520232572000000002999711279418267056_);}
	
		.st9{clip-path:url(#SVGID_00000000941487959921898160000001645110960216105116_);fill-rule:evenodd;clip-rule:evenodd;fill:#E2161C;}
	.st10{clip-path:url(#SVGID_00000044867938226723518820000014001522478113814705_);}
	
		.st11{clip-path:url(#SVGID_00000032611335898241389940000003007157150383866775_);fill-rule:evenodd;clip-rule:evenodd;fill:#E2161C;}
	.st12{clip-path:url(#SVGID_00000083809873360159761950000017911207255685632663_);}
	
		.st13{clip-path:url(#SVGID_00000127726695947823181900000000687399525893902774_);fill-rule:evenodd;clip-rule:evenodd;fill:#E2161C;}
	.st14{clip-path:url(#SVGID_00000151519052686741638660000001203665947218739103_);}
	
		.st15{clip-path:url(#SVGID_00000051366503108848169910000009509097742318606222_);fill-rule:evenodd;clip-rule:evenodd;fill:#E2161C;}
	.st16{clip-path:url(#SVGID_00000137091049512105299590000005568397679198380983_);}
	
		.st17{clip-path:url(#SVGID_00000052096547208796951520000015433435379092670349_);fill-rule:evenodd;clip-rule:evenodd;fill:#E2161C;}
	.st18{clip-path:url(#SVGID_00000037672523186571164860000007752401418726038929_);}
	
		.st19{clip-path:url(#SVGID_00000059272401222315990970000008437376378418670515_);fill-rule:evenodd;clip-rule:evenodd;fill:#FFFFFF;}
	
		.st20{clip-path:url(#SVGID_00000059272401222315990970000008437376378418670515_);fill-rule:evenodd;clip-rule:evenodd;fill:#E2161C;}
	.st21{opacity:0.9;clip-path:url(#SVGID_00000059272401222315990970000008437376378418670515_);}
	.st22{clip-path:url(#SVGID_00000009564397174390670220000002243821240281303218_);}
	
		.st23{clip-path:url(#SVGID_00000104680872983569036800000017318155402584997535_);fill-rule:evenodd;clip-rule:evenodd;fill:#E2161C;}
	.st24{clip-path:url(#SVGID_00000142875347519107419460000001685971363167295898_);}
	
		.st25{clip-path:url(#SVGID_00000020400121344032108400000007504780402043894455_);fill-rule:evenodd;clip-rule:evenodd;fill:#E2161C;}
	.st26{clip-path:url(#SVGID_00000112598079390831894230000008664525972012541858_);}
	
		.st27{clip-path:url(#SVGID_00000085209597776693849690000003605451844187733393_);fill-rule:evenodd;clip-rule:evenodd;fill:#E2161C;}
	.st28{clip-path:url(#SVGID_00000162327505732057720070000000663001018232377528_);}
	
		.st29{clip-path:url(#SVGID_00000003819509643189733160000016014361326954936491_);fill-rule:evenodd;clip-rule:evenodd;fill:#E2161C;}
	.st30{clip-path:url(#SVGID_00000047047696073082600760000006839366528942930085_);}
	
		.st31{clip-path:url(#SVGID_00000061437332245774546020000005152223877277456308_);fill-rule:evenodd;clip-rule:evenodd;fill:#E2161C;}
	.st32{clip-path:url(#SVGID_00000071556200967564398370000000746209568558519231_);fill:#13110C;}
</style>
<g
   id="g90"
   transform="translate(-110.27,-230.43)">
	<defs
   id="defs1" />
	
	<path
   style="clip-rule:evenodd;fill:#000000;fill-rule:evenodd"
   d="m 280.92,369.32 v -48.7 H 212.47 L 196.3,465.77 h -0.74 L 178.72,320.62 h -68.45 v 48.7 h 5.3 v 272.04 h -5.3 v 48.3 h 54.93 v -48.3 h -5.57 c -0.01,-4.56 -0.41,-149.79 -0.59,-200.84 5.61,54.92 21.41,240.6 21.41,240.6 h 30.27 c 0,0 15.81,-185.68 21.42,-240.6 -0.18,51.05 -0.58,191.86 -0.59,196.42 h -10.21 v 48.31 h 59.58 v -48.31 h -5.31 V 369.32 Z"
   clip-path="url(#SVGID_00000170265252629506668880000011841195322357702030_)"
   id="path26" /><path
   style="clip-rule:evenodd;fill:#000000;fill-rule:evenodd"
   d="M 428.96,578.46 397.77,320.62 h -71.72 c 0,0 -31.56,265.86 -32.09,270.83 -5.86,61.9 7.12,47.41 55.6,48.21 -3.17,-6.63 7.9,-57.09 -7.9,-48.21 0.54,-5.41 5.89,-97.52 6.34,-101.96 7.03,0.02 21.14,0.01 28.17,0 0.45,4.45 4.55,83.55 5.09,88.98 -15.77,-9.39 -4.81,44.45 -7.9,48.31 51.79,-0.56 55.6,-48.32 55.6,-48.32 M 353.58,440.53 c 0,-0.01 6.21,-48.94 8.43,-71.5 2.25,22.56 8.44,71.47 8.44,71.5 z"
   clip-path="url(#SVGID_00000170265252629506668880000011841195322357702030_)"
   id="path27" /><path
   style="clip-rule:evenodd;fill:#000000;fill-rule:evenodd"
   d="m 442.39,320.62 v 48.7 h 10.28 v 137.79 l -0.01,40.38 h 45.76 l 0.07,-40.38 v -42.03 h 0.69 c 11.97,0 14.27,9.86 14.27,33.94 l -0.65,48.47 h 51.07 v -40.38 h -5.74 V 490.4 c 0,-20.63 -3.15,-34.48 -17.7,-42.83 13.61,-9.82 16.45,-25.34 16.45,-49.73 0,-51.21 -6.77,-77.21 -43.79,-77.21 h -70.7 z m 56.1,48.7 c 14.97,0 14.97,11.25 14.97,31.63 0,28.44 0,39.58 -14.78,39.58 z"
   clip-path="url(#SVGID_00000170265252629506668880000011841195322357702030_)"
   id="path28" /><path
   style="clip-rule:evenodd;fill:#000000;fill-rule:evenodd"
   d="m 583.56,405.74 v 124.32 c 0,72.99 15.77,102.76 54.46,102.76 33.34,0 50.25,-27.55 50.25,-81.9 V 465.1 h -42.59 v 94.64 c 0,5.77 -0.73,19.16 -7.42,19.16 -6.49,0 -7.64,-8.58 -7.64,-32.8 V 402.92 c 0,-22.22 1.07,-32.8 7.16,-32.8 1.96,0 7.9,0 7.9,19.17 v 19.33 h 39.86 v -88 H 648.9 v 7.92 c -7.99,-7.92 -15.67,-7.92 -27.15,-7.92 -27.79,0 -38.19,24.06 -38.19,85.12"
   clip-path="url(#SVGID_00000170265252629506668880000011841195322357702030_)"
   id="path29" /><polygon
   style="clip-rule:evenodd;fill:#000000;fill-rule:evenodd"
   points="717.84,369.32 717.84,587.94 707.65,587.94 707.65,636.24 773.11,636.24 773.11,587.94 764.91,587.94 764.91,489.65 783.45,489.65 783.45,616.15 775.49,616.15 775.49,664.46 840.46,664.46 840.46,616.15 830.51,616.15 830.51,369.32 835.81,369.32 835.81,320.62 781.75,320.62 781.75,369.32 783.45,369.32 783.45,440.53 764.91,440.53 764.91,369.32 766.4,369.32 766.4,320.62 712.29,320.62 712.29,369.32 "
   clip-path="url(#SVGID_00000170265252629506668880000011841195322357702030_)"
   id="polygon29" /><polygon
   style="clip-rule:evenodd;fill:#000000;fill-rule:evenodd"
   points="919.01,300.69 950.83,230.44 913.51,230.44 892.89,300.69 "
   clip-path="url(#SVGID_00000170265252629506668880000011841195322357702030_)"
   id="polygon30" /><polygon
   style="clip-rule:evenodd;fill:#000000;fill-rule:evenodd"
   points="932.59,641.37 915.07,641.37 915.07,489.65 949.1,489.65 949.1,440.53 915.07,440.53 915.07,369.32 932.59,369.32 932.59,408.62 969.72,408.62 969.72,320.62 966.94,320.62 862.44,320.62 862.44,369.32 867.98,369.32 867.98,641.37 857.8,641.37 857.8,689.67 969.72,689.67 969.72,563.26 932.59,563.26 "
   clip-path="url(#SVGID_00000170265252629506668880000011841195322357702030_)"
   id="polygon31" /><rect
   x="110.28"
   y="263.91"
   style="fill:#000000"
   width="251.74001"
   height="14.62"
   clip-path="url(#SVGID_00000170265252629506668880000011841195322357702030_)"
   id="rect81" /><path
   style="fill:#000000"
   d="m 425.83,287.87 c -1.83,2.58 -3.56,4.47 -5.17,5.65 -0.78,0.58 -1.29,0.7 -1.57,0.7 -0.18,0 -0.67,-0.15 -1.35,-1.58 -0.41,-0.86 -1.34,-3.65 -3.44,-12 -0.96,-3.83 -1.79,-6.95 -2.48,-9.26 l 3.84,-3.4 c 1.03,-0.93 3.21,-2.62 6.3,-4.92 1.57,-1.17 3.22,-2.07 4.88,-2.66 1.69,-0.6 3.7,-0.96 6.02,-1.09 l 0.4,-0.03 0.77,-2.9 h -21.97 l -0.85,2.93 h 2.41 c 1.34,0 2.27,0.07 2.77,0.21 0.58,0.18 0.77,0.34 0.83,0.42 0.12,0.17 0.17,0.31 0.17,0.48 0,0.1 -0.05,0.52 -0.74,1.48 -1.74,2.36 -5.61,6.08 -11.49,11.06 l -4.03,3.43 13.02,-45.07 0.24,-0.86 -17.83,3.03 v 2.82 l 0.67,-0.14 c 1.55,-0.31 2.68,-0.46 3.37,-0.46 0.97,0 1.71,0.21 2.19,0.62 0.46,0.4 0.69,0.89 0.69,1.49 0,0.54 -0.07,1.2 -0.22,1.94 l -17.16,59.01 -0.21,0.72 h 8.6 l 4.97,-17.17 5.72,-4.95 c 2.88,12.53 4.92,19.56 6.22,21.45 0.83,1.2 2.03,1.82 3.55,1.82 1.66,0 3.43,-0.72 5.38,-2.18 1.88,-1.41 4.6,-4.34 8.07,-8.7 l 0.36,-0.46 -2.6,-1.86 z"
   clip-path="url(#SVGID_00000170265252629506668880000011841195322357702030_)"
   id="path81" /><path
   style="fill:#000000"
   d="m 477.17,256.37 h -8.41 l -1.16,4.02 c -2.05,6.82 -3.99,11.86 -5.79,14.96 -1.81,3.13 -4.13,6.53 -6.91,10.1 -2.76,3.54 -4.98,5.85 -6.61,6.85 -2.47,1.54 -4.19,1.84 -5.02,1.08 -0.29,-0.26 -0.42,-0.59 -0.42,-1.04 0,-0.73 0.31,-2.66 1.83,-7.8 l 4.49,-15.39 c 1.3,-4.53 1.93,-7.59 1.93,-9.36 0,-1.31 -0.44,-2.41 -1.28,-3.28 -0.86,-0.85 -1.97,-1.28 -3.28,-1.28 -1.83,0 -3.82,0.73 -5.93,2.15 -2.73,1.78 -5.33,4.58 -7.74,8.3 l -0.3,0.45 2.35,1.66 0.32,-0.42 c 2.88,-3.73 3.99,-4.88 4.42,-5.17 0.58,-0.41 1.13,-0.61 1.68,-0.61 0.11,0 0.28,0.03 0.49,0.24 0.16,0.16 0.24,0.36 0.24,0.58 0,0.78 -0.51,2.95 -1.5,6.43 l -4.14,14.73 c -1.41,4.95 -2.13,8.68 -2.13,11.11 0,1.69 0.57,3.13 1.69,4.26 1.13,1.12 2.51,1.69 4.12,1.69 3.25,0 6.78,-1.76 10.5,-5.2 3.15,-2.91 6.99,-7.92 11.46,-14.92 -1.67,5.6 -2.73,9.42 -3.15,11.38 -0.42,1.78 -0.64,3.27 -0.64,4.41 0,1.26 0.41,2.31 1.21,3.11 0.8,0.8 1.92,1.21 3.3,1.21 1.73,0 3.53,-0.65 5.38,-1.91 2.68,-1.91 5.33,-4.91 7.88,-8.92 l 0.27,-0.43 -2.28,-1.75 -0.33,0.44 c -3.23,4.19 -4.4,5.46 -4.82,5.79 -0.8,0.58 -1.52,0.85 -1.85,0.44 -0.09,-0.11 -0.19,-0.38 -0.19,-0.93 0,-1.05 0.61,-3.69 1.84,-7.85 z"
   clip-path="url(#SVGID_00000170265252629506668880000011841195322357702030_)"
   id="path82" /><path
   style="fill:#000000"
   d="m 510.5,255.22 c -4.51,0 -9.16,1.52 -13.81,4.5 -4.65,2.97 -8.39,6.9 -11.15,11.65 -2.75,4.76 -4.15,9.69 -4.15,14.63 0,4.42 1.33,8 3.95,10.64 2.62,2.64 6.3,3.98 10.95,3.98 3.83,0 7.52,-0.96 10.95,-2.86 3.41,-1.88 6.82,-4.86 10.17,-8.87 l 0.34,-0.41 -2.19,-1.97 -0.38,0.4 c -2.94,3.15 -5.6,5.35 -7.93,6.53 -2.31,1.17 -4.67,1.77 -7.01,1.77 -3.01,0 -5.41,-0.89 -7.13,-2.66 -1.73,-1.77 -2.6,-4.23 -2.6,-7.31 0,-4.78 1.3,-9.63 3.84,-14.41 2.11,-3.94 4.68,-7.02 7.65,-9.15 2.94,-2.11 5.93,-3.18 8.92,-3.18 1.56,0 2.77,0.29 3.58,0.84 0.46,0.35 0.68,0.73 0.68,1.21 0,0.27 -0.05,0.52 -0.17,0.76 -0.07,0.14 -0.33,0.52 -1.25,1.39 -0.8,0.77 -1.31,1.42 -1.6,2 -0.27,0.58 -0.41,1.22 -0.41,1.9 0,1.1 0.39,2.04 1.15,2.79 0.76,0.73 1.72,1.11 2.84,1.11 1.48,0 2.73,-0.62 3.7,-1.82 1.3,-1.49 1.96,-3.32 1.96,-5.42 0,-2.25 -0.94,-4.18 -2.78,-5.74 -1.8,-1.52 -4.53,-2.3 -8.12,-2.3"
   clip-path="url(#SVGID_00000170265252629506668880000011841195322357702030_)"
   id="path83" /><path
   style="fill:#000000"
   d="m 565.49,287.93 c -1.78,2.47 -3.51,4.34 -5.26,5.69 -0.56,0.42 -0.9,0.51 -1.09,0.51 -0.2,0 -0.37,-0.08 -0.54,-0.26 -0.16,-0.17 -0.24,-0.41 -0.24,-0.71 0.01,-0.17 0.21,-0.98 1.07,-3.86 l 5.82,-19.96 c 0.89,-3.04 1.28,-5.57 1.36,-7.79 0.07,-1.9 -0.7,-3.54 -1.7,-4.58 -1.12,-1.16 -2.53,-1.75 -4.21,-1.75 -3.08,0 -6.32,1.5 -9.66,4.43 -2.87,2.54 -6.79,7.41 -11.64,14.51 l 12.4,-42.87 0.24,-0.86 -17.83,2.99 v 2.98 l 1.65,-0.25 c 1.15,-0.18 2,-0.27 2.53,-0.27 0.86,0 1.55,0.26 2.13,0.8 0.54,0.51 0.82,1.06 0.84,1.71 l -17.32,60.36 -0.21,0.72 h 8.3 l 3.17,-10.16 c 0.83,-2.56 1.95,-5.28 3.29,-7.45 4.48,-7.27 6.79,-10.63 7.53,-11.59 2.75,-3.54 5.23,-6 7.33,-7.3 1.11,-0.65 2.05,-0.97 2.87,-0.97 0.49,0 0.87,0.13 1.17,0.43 0.28,0.26 0.41,0.62 0.41,1.11 0,1.31 -0.34,3.15 -1.02,5.47 l -5.48,19.06 c -1.14,3.91 -1.69,6.52 -1.69,7.97 0,1.33 0.44,2.43 1.28,3.28 0.85,0.85 1.95,1.29 3.28,1.29 1.18,0 2.52,-0.42 3.97,-1.24 1.43,-0.8 3.13,-2.25 5.09,-4.29 1.94,-2.04 3.48,-3.93 4.58,-5.65 l 0.3,-0.48 -2.41,-1.46 z"
   clip-path="url(#SVGID_00000170265252629506668880000011841195322357702030_)"
   id="path84" /><path
   style="fill:#000000"
   d="m 614.35,287.92 c -1.94,2.67 -3.76,4.68 -5.4,5.99 -0.56,0.42 -0.88,0.51 -1.05,0.51 -0.04,0 -0.18,0 -0.39,-0.25 -0.18,-0.21 -0.24,-0.45 -0.24,-0.77 0,-0.25 0.12,-1.13 0.98,-4.09 l 5.8,-20.06 c 0.94,-3.29 1.42,-5.83 1.42,-7.79 0,-1.82 -0.58,-3.33 -1.71,-4.49 -1.14,-1.15 -2.6,-1.74 -4.34,-1.74 -3.04,0 -6.24,1.46 -9.49,4.34 -2.85,2.53 -6.71,7.33 -11.77,14.68 l 5.35,-18.3 0.24,-0.86 -17.9,3.21 0.46,2.81 2.34,-0.37 c 0.86,-0.12 1.56,-0.18 1.92,-0.18 0.7,0 1.24,0.2 1.69,0.63 0.46,0.42 0.67,0.89 0.67,1.43 0,0.39 -0.19,1.74 -1.52,6.33 l -8.67,29.83 -0.19,0.72 h 8.31 l 2.5,-8.25 c 0.96,-3.14 2.2,-6.08 3.67,-8.77 2.8,-5.05 5.49,-9.26 8.01,-12.53 2.48,-3.22 4.91,-5.55 7.2,-6.95 1.8,-1.12 3.22,-1.42 4.02,-0.63 0.31,0.31 0.45,0.68 0.45,1.16 0,1.28 -0.35,3.09 -1.03,5.42 l -5.52,19.16 c -1.1,3.8 -1.64,6.42 -1.64,8.02 0,1.35 0.4,2.46 1.21,3.28 0.82,0.81 1.89,1.23 3.22,1.23 1.57,0 3.3,-0.64 5.28,-1.96 2.69,-1.85 5.56,-4.95 8.53,-9.2 l 0.35,-0.48 -2.43,-1.48 z"
   clip-path="url(#SVGID_00000170265252629506668880000011841195322357702030_)"
   id="path85" /><path
   style="fill:#000000"
   d="m 643.23,255.93 0.23,-0.84 -17.78,2.89 v 2.98 l 0.65,-0.1 c 2.17,-0.34 3.6,-0.52 4.27,-0.52 0.72,0 1.26,0.17 1.66,0.53 0.37,0.32 0.54,0.75 0.54,1.29 0,0.58 -0.26,2.16 -1.5,6.42 l -6.21,21.35 c -0.8,2.83 -1.21,4.81 -1.21,6.03 0,1.33 0.47,2.45 1.42,3.34 0.93,0.87 2.13,1.32 3.58,1.32 2.08,0 4.28,-0.89 6.52,-2.65 2.99,-2.3 5.59,-5.15 7.76,-8.47 l 0.3,-0.46 -2.57,-1.71 -0.31,0.44 c -1.85,2.65 -3.62,4.61 -5.38,5.99 -0.96,0.73 -1.59,0.85 -2.03,0.33 -0.14,-0.12 -0.3,-0.35 -0.3,-0.85 0,-0.22 0.12,-1.01 0.93,-3.9 z"
   clip-path="url(#SVGID_00000170265252629506668880000011841195322357702030_)"
   id="path86" /><path
   style="fill:#000000"
   d="m 642.08,236.3 c -1.49,0 -2.75,0.52 -3.79,1.55 -1.01,1.02 -1.54,2.3 -1.54,3.78 0,1.44 0.52,2.7 1.57,3.75 1.05,1.04 2.31,1.57 3.76,1.57 1.43,0 2.69,-0.53 3.74,-1.57 1.05,-1.02 1.57,-2.29 1.57,-3.75 0,-1.48 -0.52,-2.76 -1.54,-3.78 -1.03,-1.03 -2.29,-1.55 -3.77,-1.55"
   clip-path="url(#SVGID_00000170265252629506668880000011841195322357702030_)"
   id="path87" /><path
   style="fill:#000000"
   d="m 684.42,288.26 9.3,-32.32 0.23,-0.84 -8.78,1.33 -1.31,4.14 c -0.67,-1.64 -1.52,-2.88 -2.57,-3.7 -1.36,-1.09 -3.11,-1.65 -5.17,-1.65 -3.34,0 -6.94,1.39 -10.68,4.11 -4.74,3.43 -8.67,8.03 -11.71,13.66 -3.08,5.66 -4.63,11.13 -4.63,16.25 0,3.5 0.91,6.29 2.68,8.3 1.78,2.04 3.93,3.08 6.42,3.08 2.5,0 5.09,-0.81 7.69,-2.42 3.04,-1.88 6.37,-5.02 9.91,-9.36 l -0.26,0.92 c -0.72,2.61 -1.07,4.68 -1.07,6.29 0,1.47 0.4,2.6 1.19,3.37 0.79,0.79 1.96,1.19 3.46,1.19 2.1,0 4.37,-0.92 6.76,-2.71 2.36,-1.75 4.68,-4.34 6.91,-7.69 l 0.31,-0.44 -2.54,-1.78 -0.31,0.45 c -2.01,2.83 -3.64,4.7 -4.84,5.59 -0.77,0.59 -1.16,0.65 -1.28,0.65 -0.23,0 -0.38,-0.07 -0.54,-0.23 -0.23,-0.27 -0.33,-0.59 -0.33,-0.97 0,-0.23 0.03,-0.53 0.12,-0.92 z m -2.92,-22.32 c 0,6.99 -2.69,13.91 -8.03,20.58 -3.95,4.96 -7.6,7.46 -10.85,7.46 -1.24,0 -2.33,-0.55 -3.3,-1.7 -0.98,-1.13 -1.47,-2.73 -1.47,-4.76 0,-4.19 1.24,-8.95 3.72,-14.16 2.48,-5.2 5.35,-9.18 8.5,-11.82 2.19,-1.81 4.25,-2.73 6.14,-2.73 1.66,0 2.94,0.52 3.86,1.62 0.96,1.1 1.43,2.96 1.43,5.51"
   clip-path="url(#SVGID_00000170265252629506668880000011841195322357702030_)"
   id="path88" /><polygon
   style="fill:#000000"
   points="884.23,278.53 889,263.91 716.22,263.91 716.22,278.53 "
   clip-path="url(#SVGID_00000170265252629506668880000011841195322357702030_)"
   id="polygon88" /><polygon
   style="fill:#000000"
   points="969.72,278.53 969.72,263.91 951.16,263.91 944.77,278.53 "
   clip-path="url(#SVGID_00000170265252629506668880000011841195322357702030_)"
   id="polygon89" />
		
	
</g>
</svg>
