<svg id="MATARNIA" width="500" height="116.33675" viewBox="0 0 500 116.33675" version="1.1" xml:space="preserve" xmlns:xlink="http://www.w3.org/1999/xlink" xmlns="http://www.w3.org/2000/svg" xmlns:svg="http://www.w3.org/2000/svg">
	<path id="MATARNIA" style="fill:#000000;stroke:#000000;stroke-width:0" d="m 383.60227,112.03032 c 0.58079,0.14983 1.45239,0.30047 2.73159,0.30047 3.89319,0 5.63718,-3.40502 7.38038,-7.91123 L 383.48627,79.682968 h 5.92718 l 3.31239,9.063158 c 1.2204,3.655545 2.61479,7.311099 3.77719,10.965847 1.0464,-2.854037 2.8484,-7.861286 3.83599,-10.965847 l 3.25439,-9.063158 h 5.92718 l -9.70436,23.885142 c -3.4292,8.26244 -6.39359,12.76864 -12.78557,12.76864 -1.3944,0 -2.8476,-0.19977 -3.42839,-0.4511 z m -17.43412,-14.170536 6.33399,-18.177066 h 5.63718 l -10.34397,25.638002 h -3.31239 l -5.75318,-17.075079 -5.69519,17.075079 H 349.7222 L 339.37823,79.682718 h 5.75318 l 6.21799,18.177066 5.81118,-17.826646 h 3.25439 z m -39.45908,-5.658532 c 0,-5.307718 -3.3124,-9.063159 -7.72919,-9.063159 -4.35878,0 -7.67037,3.755441 -7.67037,9.063159 0,5.307717 3.31159,9.063968 7.67037,9.063968 4.41679,0 7.72919,-3.756251 7.72919,-9.063968 m 5.17158,0 c 0,7.560826 -5.46239,13.119068 -12.90077,13.119068 -7.38037,0 -12.84276,-5.558242 -12.84276,-13.119068 0,-7.560818 5.46239,-13.11906 12.84276,-13.11906 7.43838,0 12.90077,5.558242 12.90077,13.11906 M 286.90238,68.666774 h 5.40438 v 28.691808 c 0,2.704208 0.87241,3.806178 2.7316,3.806178 0.92959,0 1.86,-0.20058 2.26599,-0.30046 v 4.00596 c -0.40599,0.0999 -1.7432,0.4503 -3.71919,0.4503 -3.77719,0 -6.68278,-1.95263 -6.68278,-7.010638 z m -33.87934,23.534478 c 0,5.20783 2.90559,9.063968 7.14758,9.063968 3.48719,0 7.26438,-2.804903 7.26438,-9.063968 0,-6.259058 -3.77719,-9.063159 -7.26438,-9.063159 -4.24199,0 -7.14758,3.755441 -7.14758,9.063159 m 19.87434,12.518128 h -4.93958 l -0.116,-2.95392 c 0,-1.10198 0.116,-1.852746 0.116,-1.852746 h -0.058 c -1.2784,2.804096 -4.64879,5.407606 -8.54278,5.407606 -6.50878,0 -11.50556,-5.357662 -11.50556,-13.119068 0,-7.861286 4.99678,-13.11906 11.38956,-13.11906 3.83519,0 6.97358,2.203157 8.30998,4.55695 h 0.1168 c 0,0 -0.1748,-0.751573 -0.1748,-2.053325 V 68.666525 h 5.40438 z m -54.04488,-25.036582 0.1748,3.504917 c 0,1.052041 -0.1748,1.802809 -0.2328,1.902696 h 0.116 c 0.98839,-2.252294 4.18398,-6.008541 9.12357,-6.008541 5.92799,0 8.54278,3.655554 8.54278,9.914611 v 15.723389 h -5.40439 V 89.947829 c 0,-3.454964 -0.6396,-6.559533 -4.30079,-6.559533 -4.47478,0 -7.61237,3.906077 -7.61237,9.013214 v 12.31836 h -5.40439 V 79.682798 Z m -23.53554,13.820456 c -7.67118,-1.301752 -10.28597,0.901396 -10.28597,4.306433 0,2.203153 1.3952,3.755433 3.54439,3.755433 3.77799,0 6.74158,-4.155789 6.74158,-8.061866 M 181.31181,80.934373 c 1.39519,-0.750767 4.70678,-1.851939 8.83357,-1.851939 7.14758,0 10.63397,3.405029 10.63397,9.664095 v 15.973091 h -4.93959 c 0,-1.00129 -0.058,-1.95263 -0.058,-2.95472 -0.058,-1.20107 0.116,-2.002581 0.116,-2.002581 h -0.058 c -0.4068,0.701631 -3.02159,5.558241 -8.25197,5.558241 -4.53279,0 -7.90318,-2.75415 -7.90318,-7.36105 0,-6.109234 5.40438,-9.163037 15.74835,-7.711454 V 88.99624 c 0,-4.35637 -2.38279,-5.857897 -6.10198,-5.857897 -3.31239,0 -6.44998,1.201059 -8.01917,2.103269 z M 145.86319,68.666774 h 5.34638 v 13.920577 c 0,1.15192 -0.116,2.103269 -0.116,2.503624 1.1036,-2.253108 4.01,-6.008541 8.94958,-6.008541 5.92718,0 8.54197,3.65474 8.54197,9.913806 v 15.72338 h -5.40438 V 89.947588 c 0,-3.454168 -0.6388,-6.559534 -4.29999,-6.559534 -4.47479,0 -7.61318,3.906078 -7.61318,9.01402 v 12.317546 h -5.40438 z m -38.93558,21.331402 9.41438,14.721284 h -6.15998 l -7.32238,-12.116966 -3.893189,4.705975 v 7.410991 H 93.620058 V 68.666613 h 5.404382 v 23.584663 l 10.34397,-12.568067 h 6.33398 z M 68.631483,79.682798 h 4.997591 c 0,1.151929 0.058,2.353802 0.058,3.504917 0.115999,0.951348 -0.058,1.702921 0,1.853558 h 0.058 c 1.511193,-3.555666 4.067984,-5.959403 7.496374,-5.959403 0.697601,0 1.2204,0.09989 1.511201,0.150637 v 4.506201 c -0.290801,-0.04994 -0.638796,-0.149832 -1.337204,-0.149832 -4.473978,0 -7.37957,5.357661 -7.37957,10.215087 V 104.71987 H 68.631483 Z M 50.383538,93.503254 c -7.671186,-1.301752 -10.285976,0.901396 -10.285976,4.306433 0,2.203153 1.395204,3.755433 3.544389,3.755433 3.777996,0 6.741587,-4.155789 6.741587,-8.061866 M 36.378371,80.934373 c 1.395203,-0.750767 4.706789,-1.851939 8.833578,-1.851939 7.147581,0 10.63397,3.405029 10.63397,9.664095 v 15.973091 h -4.939591 c 0,-1.00129 -0.058,-1.95263 -0.058,-2.95472 -0.058,-1.20107 0.11599,-2.002581 0.11599,-2.002581 h -0.058 c -0.406792,0.701631 -3.021582,5.558241 -8.251975,5.558241 -4.532784,0 -7.903174,-2.75415 -7.903174,-7.36105 0,-6.109234 5.404383,-9.163037 15.748357,-7.711454 V 88.99624 c 0,-4.35637 -2.382801,-5.857897 -6.101985,-5.857897 -3.312391,0 -6.449979,1.201059 -8.01918,2.103269 z m -16.50403,11.266879 c 0,-5.207024 -2.905592,-9.063159 -7.147574,-9.063159 -3.4871944,0 -7.2063858,2.804101 -7.2063858,9.063159 0,6.259065 3.7191914,9.063968 7.2063858,9.063968 4.241982,0 7.147574,-3.756251 7.147574,-9.063968 M 0,79.683129 h 4.9395835 l 0.1748032,2.603512 c 0,1.101985 -0.1748032,1.852744 -0.1748032,1.852744 h 0.1159984 c 1.2204001,-2.603512 4.6495955,-5.057193 8.5427761,-5.057193 6.450786,0 11.448368,5.357662 11.448368,13.11906 0,7.861288 -4.997582,13.119068 -11.332369,13.119068 -3.8931811,0 -7.0315749,-2.35299 -8.3679735,-4.90656 h -0.057999 c 0,0 0.1159985,0.75076 0.1159985,2.05252 v 13.2697 H 0 Z M 467.35137,35.212675 h 10.93282 l -5.50428,-12.742878 z m -4.44821,11.536978 -3.01595,6.559534 H 445.48492 V 51.424213 L 469.68825,0 h 6.33397 L 500,51.424213 v 1.884974 h -14.25085 l -3.09087,-6.559534 z M 427.69033,42.149848 V 53.309026 H 400.47024 V 42.149848 h 6.71017 V 11.687454 h -6.10682 V 0.52827616 h 26.01258 V 11.687454 h -6.10682 V 42.149848 Z M 344.29551,26.089021 V 53.309106 H 330.49656 V 0.30119313 h 4.29838 L 362.31629,26.315379 V 0.52835672 h 13.79895 V 53.459735 h -4.07122 z m -58.13616,-0.603273 c 3.84566,0 5.73063,-3.31803 5.73063,-6.635247 0,-3.31803 -1.81006,-6.408897 -5.73063,-6.408897 h -9.57548 v 13.044144 z m 21.56517,25.787836 v 1.960687 h -14.62784 l -9.04866,-16.513624 h -7.2386 V 53.234271 H 263.01129 V 0.45271608 c 7.84114,0 15.45754,-0.0757212 23.22378,0 12.74287,0 19.00113,9.42484792 19.00113,18.69905092 -0.0749,6.032708 -2.63895,11.838252 -7.84195,15.381834 z M 210.3798,35.212675 h 10.93282 l -5.50427,-12.742878 z m -4.44821,11.536978 -3.01675,6.559534 H 188.51335 V 51.424213 L 212.71668,0 h 6.33398 l 23.97777,51.424213 v 1.884974 h -14.25085 l -3.09087,-6.559534 z M 137.91772,12.591919 V 0.52730951 h 39.20897 V 12.591919 H 164.23318 V 53.308865 H 150.88614 V 12.591919 Z M 93.806622,35.212675 H 104.73944 L 99.235171,22.469797 Z m -4.44821,11.536978 -3.015951,6.559534 H 71.940169 V 51.424213 L 96.143499,0 h 6.333981 l 23.97778,51.424213 v 1.884974 H 112.2044 l -3.09087,-6.559534 z M 47.207444,0.37699488 h 4.901723 V 53.309187 H 38.310228 V 28.954415 L 27.075329,40.716946 h -1.5837 L 14.257536,28.954415 V 53.309187 H 0.45859655 V 0.37699488 H 5.3587084 L 26.320534,23.223787 Z" />
</svg>
