<svg id="MATARNIA" width="500" height="106.43293" viewBox="0 0 500 106.43293" version="1.1" xml:space="preserve" xmlns:xlink="http://www.w3.org/1999/xlink" xmlns="http://www.w3.org/2000/svg" xmlns:svg="http://www.w3.org/2000/svg">
	<path id="MATARNIA" style="fill:#000000;stroke:#000000;stroke-width:0" d="m 301.22169,80.671496 9.42302,14.734799 h -6.16563 l -7.3291,-12.12809 -3.89677,4.710295 v 7.417795 h -5.35129 V 59.32035 h 5.40935 v 23.606314 l 10.35346,-12.579605 h 6.3398 z M 262.8904,70.346648 h 5.00218 c 0,1.152986 0.058,2.355963 0.058,3.508135 0.11611,0.952221 -0.058,1.704484 0,1.855259 h 0.0581 c 1.51257,-3.55893 4.07172,-5.964874 7.50326,-5.964874 0.69824,0 1.22152,0.09998 1.51259,0.150776 v 4.510337 c -0.29107,-0.04999 -0.63939,-0.149969 -1.33844,-0.149969 -4.47809,0 -7.38635,5.362579 -7.38635,10.224465 v 10.925928 h -5.40935 z m -18.26469,13.833144 c -7.67823,-1.302947 -10.29542,0.902223 -10.29542,4.310386 0,2.205176 1.39648,3.758881 3.54764,3.758881 3.78146,0 6.74778,-4.159604 6.74778,-8.069267 m -14.01803,-12.58042 c 1.39648,-0.751456 4.71111,-1.853639 8.84169,-1.853639 7.15414,0 10.64374,3.408155 10.64374,9.672967 v 15.987755 h -4.94413 c 0,-1.002209 -0.0581,-1.954423 -0.0581,-2.957433 -0.0581,-1.202172 0.11609,-2.004419 0.11609,-2.004419 h -0.0581 c -0.40717,0.702275 -3.02436,5.563343 -8.25956,5.563343 -4.53694,0 -7.91042,-2.756678 -7.91042,-7.367807 0,-6.114843 5.40934,-9.171449 15.76281,-7.718534 V 79.66864 c 0,-4.360369 -2.38499,-5.863275 -6.10758,-5.863275 -3.31544,0 -6.45591,1.202162 -8.02655,2.1052 z M 214.0885,82.876594 c 0,-5.211804 -2.90826,-9.071479 -7.15414,-9.071479 -3.49039,0 -7.213,2.806675 -7.213,9.071479 0,6.264811 3.72261,9.07229 7.213,9.07229 4.24588,0 7.15414,-3.7597 7.15414,-9.07229 M 194.19592,70.346979 h 4.94411 l 0.17496,2.605902 c 0,1.102997 -0.17496,1.854445 -0.17496,1.854445 h 0.11611 c 1.22152,-2.605902 4.65386,-5.061835 8.55062,-5.061835 6.4567,0 11.45887,5.36258 11.45887,13.131103 0,7.868505 -5.00217,13.131112 -11.34277,13.131112 -3.89676,0 -7.03803,-2.35515 -8.37566,-4.911064 h -0.0581 c 0,0 0.11611,0.751449 0.11611,2.054404 v 13.281884 h -5.40934 z M 467.3214,35.245002 h 10.94285 l -5.50933,-12.754577 z m -4.4523,11.547569 -3.01872,6.565556 H 445.43487 V 51.471423 L 469.66042,0 h 6.33979 L 500,51.471423 v 1.886704 h -14.26393 l -3.09371,-6.565556 z M 427.62395,42.188543 V 53.357966 H 400.37887 V 42.188543 h 6.71633 V 11.698184 h -6.11243 V 0.52876114 h 26.03646 V 11.698184 h -6.11242 V 42.188543 Z M 344.15257,26.112972 V 53.358046 H 330.34095 V 0.30146964 h 4.30232 L 362.18989,26.339538 V 0.52884177 h 13.81162 V 53.508813 h -4.07496 z m -58.18953,-0.603827 c 3.84919,0 5.73589,-3.321076 5.73589,-6.641338 0,-3.321077 -1.81173,-6.414781 -5.73589,-6.414781 h -9.58428 v 13.056119 z m 21.58496,25.81151 v 1.962487 h -14.64127 l -9.05696,-16.528784 h -7.24525 v 16.528784 h -13.8108 V 0.45313169 c 7.84834,0 15.47174,-0.0757907 23.2451,0 12.75457,0 19.01858,9.43350031 19.01858,18.71621731 -0.075,6.038246 -2.64137,11.84912 -7.84915,15.395955 z M 210.11392,35.245002 h 10.94285 l -5.50932,-12.754577 z m -4.4523,11.547569 -3.01952,6.565556 H 188.22739 V 51.471423 L 212.45294,0 h 6.3398 l 23.99978,51.471423 v 1.886704 h -14.26393 l -3.09371,-6.565556 z M 137.58531,12.603479 V 0.5277936 h 39.24497 V 12.603479 H 163.92493 V 53.357805 H 150.56564 V 12.603479 Z M 93.433722,35.245002 H 104.37657 L 98.867255,22.490425 Z m -4.452293,11.547569 -3.01872,6.565556 H 71.547195 V 51.471423 L 95.772745,0 h 6.339795 l 23.99979,51.471423 v 1.886704 h -14.26394 l -3.09371,-6.565556 z M 46.791764,0.37734098 h 4.906223 V 53.358127 H 37.88638 V 28.980996 L 26.641167,40.754326 H 25.056013 L 13.811607,28.980996 V 53.358127 H 0 V 0.37734098 H 4.9046103 L 25.885679,23.245107 Z" />
</svg>
