<svg
   version="1.1"
   id="svg2"
   width="1041.9241"
   height="192.56052"
   viewBox="0 0 1041.9241 192.56052"
   xmlns="http://www.w3.org/2000/svg"
   xmlns:svg="http://www.w3.org/2000/svg">
  <defs
     id="defs6">
    <clipPath
       clipPathUnits="userSpaceOnUse"
       id="clipPath1">
      <path
         d="m -636.9474,139.0746 h 781.444 V -5.3464 h -781.444 z"
         id="path1"
         style="stroke-width:0.999998" />
    </clipPath>
    <clipPath
       clipPathUnits="userSpaceOnUse"
       id="clipPath2">
      <path
         d="m -615.3047,121.4833 h 781.444 v -144.421 h -781.444 z"
         id="path2"
         style="stroke-width:0.999998" />
    </clipPath>
    <clipPath
       clipPathUnits="userSpaceOnUse"
       id="clipPath3">
      <path
         d="m -566.3202,114.4588 h 781.444 v -144.421 h -781.444 z"
         id="path3"
         style="stroke-width:0.999998" />
    </clipPath>
    <clipPath
       clipPathUnits="userSpaceOnUse"
       id="clipPath4">
      <path
         d="m -516.9042,85.243101 h 781.444 V -59.1779 h -781.444 z"
         id="path4"
         style="stroke-width:0.999998" />
    </clipPath>
    <clipPath
       clipPathUnits="userSpaceOnUse"
       id="clipPath5">
      <path
         d="m -474.8464,114.4588 h 781.444 v -144.421 h -781.444 z"
         id="path5"
         style="stroke-width:0.999998" />
    </clipPath>
    <clipPath
       clipPathUnits="userSpaceOnUse"
       id="clipPath6">
      <path
         d="m -432.4271,98.918401 h 781.444 V -45.5026 h -781.444 z"
         id="path6"
         style="stroke-width:0.999998" />
    </clipPath>
    <clipPath
       clipPathUnits="userSpaceOnUse"
       id="clipPath7">
      <path
         d="m -403.2101,116.0751 h 781.444 v -144.421 h -781.444 z"
         id="path7"
         style="stroke-width:0.999998" />
    </clipPath>
    <clipPath
       clipPathUnits="userSpaceOnUse"
       id="clipPath8">
      <path
         d="m -341.8182,85.243101 h 781.444 V -59.1779 h -781.444 z"
         id="path8"
         style="stroke-width:0.999998" />
    </clipPath>
    <clipPath
       clipPathUnits="userSpaceOnUse"
       id="clipPath9">
      <path
         d="m -293.4836,111.7239 h 781.444 v -144.421 h -781.444 z"
         id="path9"
         style="stroke-width:0.999998" />
    </clipPath>
    <clipPath
       clipPathUnits="userSpaceOnUse"
       id="clipPath10">
      <path
         d="m -245.9428,98.918401 h 781.444 V -45.5026 h -781.444 z"
         id="path10"
         style="stroke-width:0.999998" />
    </clipPath>
    <clipPath
       clipPathUnits="userSpaceOnUse"
       id="clipPath11">
      <path
         d="m -223.2898,116.0751 h 781.444 v -144.421 h -781.444 z"
         id="path11"
         style="stroke-width:0.999998" />
    </clipPath>
    <clipPath
       clipPathUnits="userSpaceOnUse"
       id="clipPath12">
      <path
         d="m -185.4157,114.4588 h 781.444 v -144.421 h -781.444 z"
         id="path12"
         style="stroke-width:0.999998" />
    </clipPath>
    <clipPath
       clipPathUnits="userSpaceOnUse"
       id="clipPath13">
      <path
         d="M -740.9135,43.713201 H 40.530502 V -100.7078 H -740.9135 Z"
         id="path13"
         style="stroke-width:0.999998" />
    </clipPath>
    <clipPath
       clipPathUnits="userSpaceOnUse"
       id="clipPath14">
      <path
         d="M -691.6783,52.325001 H 89.765702 V -92.096 H -691.6783 Z"
         id="path14"
         style="stroke-width:0.999998" />
    </clipPath>
    <clipPath
       clipPathUnits="userSpaceOnUse"
       id="clipPath15">
      <path
         d="M -588.152,32.387101 H 193.292 V -112.0339 h -781.444 z"
         id="path15"
         style="stroke-width:0.999998" />
    </clipPath>
    <clipPath
       clipPathUnits="userSpaceOnUse"
       id="clipPath16">
      <path
         d="m -515.9818,31.638201 h 781.444 V -112.7828 h -781.444 z"
         id="path17"
         style="stroke-width:0.999998" />
    </clipPath>
    <clipPath
       clipPathUnits="userSpaceOnUse"
       id="clipPath17">
      <path
         d="m -421.9091,43.713201 h 781.444 V -100.7078 h -781.444 z"
         id="path18"
         style="stroke-width:0.999998" />
    </clipPath>
    <clipPath
       clipPathUnits="userSpaceOnUse"
       id="clipPath18">
      <path
         d="m -331.9547,15.631801 h 781.444 V -128.7892 h -781.444 z"
         id="path19"
         style="stroke-width:0.999998" />
    </clipPath>
    <clipPath
       clipPathUnits="userSpaceOnUse"
       id="clipPath19">
      <path
         d="m -277.1952,43.713201 h 781.444 V -100.7078 h -781.444 z"
         id="path20"
         style="stroke-width:0.999998" />
    </clipPath>
    <clipPath
       clipPathUnits="userSpaceOnUse"
       id="clipPath20">
      <path
         d="M -219.347,0.46820111 H 562.097 V -143.9528 h -781.444 z"
         id="path21"
         style="stroke-width:0.999998" />
    </clipPath>
    <clipPath
       clipPathUnits="userSpaceOnUse"
       id="clipPath27">
      <path
         d="m -123.7064,124.0745 h 781.444 v -144.421 h -781.444 z"
         id="path28"
         style="stroke-width:0.999998" />
    </clipPath>
  </defs>
  <g
     id="g10"
     transform="matrix(1.3333333,0,0,-1.3333333,-5.352411e-4,192.56105)">
    <g
       id="g12">
      <g
         id="g20"
         transform="translate(123.7064,20.3465)"
         clip-path="url(#clipPath27)"
         style="fill:#000000">
        <path
           d="m 0,0 c -1.624,-1.645 -3.805,-2.558 -6.133,-2.558 h -105.562 c -2.846,0 -5.418,1.327 -7.042,3.635 -1.604,2.27 -1.966,5.05 -0.988,7.627 12.148,31.943 33.149,59.72 60.811,80.476 C -31.251,68.424 -10.251,40.647 1.898,8.704 2.26,7.762 2.445,6.906 2.465,6.088 2.533,3.867 1.633,1.645 0,0 m -120.332,16.293 c 0.049,3.973 0.108,8.522 0.049,8.407 v 94.614 c 18.585,-5.155 35.996,-13.033 51.93,-23.497 1.105,-0.731 2.211,-1.472 3.306,-2.222 0.108,-0.077 2.201,-1.577 3.228,-2.357 0.01,0 0.02,-0.009 0.02,-0.009 -0.92,-0.702 -1.839,-1.414 -2.749,-2.126 -0.92,-0.712 -1.819,-1.443 -2.719,-2.183 -0.91,-0.75 -1.819,-1.501 -2.719,-2.27 -0.901,-0.76 -1.79,-1.539 -2.681,-2.328 -0.812,-0.711 -1.623,-1.433 -2.425,-2.173 -0.196,-0.173 -0.382,-0.347 -0.568,-0.52 -0.567,-0.529 -1.144,-1.058 -1.712,-1.596 -0.401,-0.375 -0.792,-0.751 -1.173,-1.135 -0.313,-0.289 -0.617,-0.577 -0.9,-0.876 -0.587,-0.557 -1.154,-1.125 -1.722,-1.692 -0.146,-0.145 -0.303,-0.299 -0.45,-0.452 -0.635,-0.645 -1.271,-1.289 -1.897,-1.943 -0.108,-0.116 -0.215,-0.222 -0.313,-0.327 -0.685,-0.712 -1.35,-1.424 -2.025,-2.145 -2.22,-2.395 -4.392,-4.857 -6.485,-7.368 -0.704,-0.846 -1.389,-1.683 -2.074,-2.539 -0.332,-0.404 -0.655,-0.808 -0.958,-1.212 -0.558,-0.692 -1.096,-1.394 -1.634,-2.097 -0.46,-0.596 -0.91,-1.192 -1.349,-1.789 -0.255,-0.356 -0.519,-0.721 -0.783,-1.077 -0.479,-0.654 -0.949,-1.308 -1.409,-1.952 -0.381,-0.529 -0.753,-1.049 -1.115,-1.568 -0.293,-0.414 -0.577,-0.827 -0.861,-1.231 -0.156,-0.231 -0.312,-0.452 -0.459,-0.674 -0.245,-0.355 -0.489,-0.711 -0.734,-1.058 -0.235,-0.355 -0.479,-0.711 -0.714,-1.067 -0.538,-0.789 -1.056,-1.587 -1.565,-2.386 -0.616,-0.942 -1.223,-1.904 -1.81,-2.866 -2.748,-4.472 -5.311,-9.06 -7.678,-13.773 -0.196,-0.385 -0.381,-0.769 -0.567,-1.164 -0.284,-0.577 -0.568,-1.154 -0.842,-1.741 -0.078,-0.173 -0.156,-0.346 -0.234,-0.519 -0.215,-0.452 -0.44,-0.914 -0.646,-1.375 -0.215,-0.481 -0.44,-0.953 -0.655,-1.434 -0.646,-1.433 -1.281,-2.895 -1.917,-4.376 0.009,0.029 0.009,0.058 0.009,0.096 m 64.46,74.84 c 0.528,0.365 3.668,2.847 4.138,3.174 16.628,11.291 34.812,19.679 54.189,25.017 V 16.293 c -0.606,1.53 -1.261,3.049 -1.946,4.55 -0.206,0.471 -0.421,0.942 -0.646,1.414 -0.235,0.519 -0.479,1.029 -0.734,1.538 -0.048,0.126 -0.117,0.251 -0.185,0.376 -0.265,0.538 -0.519,1.077 -0.802,1.615 -1.888,3.771 -3.943,7.455 -6.035,11.1 -2.397,4.145 -4.96,8.185 -7.679,12.128 -0.45,0.664 -0.919,1.318 -1.389,1.972 -0.362,0.52 -0.744,1.049 -1.125,1.558 -0.43,0.597 -0.87,1.193 -1.311,1.78 -0.195,0.269 -0.4,0.538 -0.596,0.808 -0.528,0.692 -1.047,1.375 -1.585,2.058 -0.401,0.519 -0.802,1.039 -1.213,1.548 -0.469,0.597 -0.949,1.193 -1.428,1.789 -0.606,0.741 -1.223,1.482 -1.839,2.222 -0.616,0.731 -1.242,1.462 -1.878,2.193 -0.734,0.847 -1.487,1.693 -2.249,2.539 -0.627,0.693 -1.262,1.385 -1.898,2.078 -0.567,0.606 -1.154,1.202 -1.731,1.808 -0.323,0.346 -0.646,0.683 -0.969,1.029 -0.332,0.337 -0.655,0.683 -0.988,1.02 -0.46,0.462 -0.909,0.923 -1.369,1.375 -0.44,0.462 -0.9,0.914 -1.379,1.366 -0.46,0.443 -0.93,0.895 -1.389,1.337 -0.46,0.442 -0.93,0.885 -1.39,1.318 -0.469,0.452 -0.939,0.885 -1.408,1.308 -0.47,0.433 -0.939,0.865 -1.418,1.289 -0.626,0.577 -1.262,1.135 -1.908,1.692 -0.587,0.51 -1.164,1.01 -1.751,1.501 -0.41,0.365 -0.831,0.721 -1.251,1.058 -0.48,0.413 -0.959,0.817 -1.448,1.202 -0.783,0.654 -1.565,1.289 -2.367,1.914 -0.998,0.789 -2.006,1.568 -3.023,2.347 z M 5.879,6.338 V 123.7 c -23.916,-5.973 -45.553,-16.274 -64.793,-30.297 0,0 -0.009,0 -0.009,-0.01 0.009,0 0.009,-0.01 0.019,-0.01 0,0 -0.01,0 -0.01,-0.009 -0.009,0 -0.009,0.009 -0.019,0.009 l 0.01,0.01 c -19.133,13.966 -41.034,24.315 -64.783,30.307 V 6.261 c 0.02,0.116 0.029,0.231 0.049,0.347 -0.47,-6.541 4.832,-12.533 11.962,-12.533 H -6.133 c 6.954,0 12.207,5.762 12.021,12.11 0,0.048 0,0.105 -0.009,0.153"
           style="fill:#000000;fill-opacity:1;fill-rule:nonzero;stroke:none"
           id="path22" />
      </g>
      <g
         id="g40"
         transform="translate(219.347,143.9528)"
         clip-path="url(#clipPath20)"
         style="fill:#000000">
        <path
           d="m 0,0 h 6.085 v -65.71 h -17.13 v 30.234 l -13.947,-14.602 h -1.966 l -13.946,14.602 V -65.71 h -17.13 V 0 h 6.083 l 26.022,-28.362 z"
           style="fill:#000000;fill-opacity:1;fill-rule:nonzero;stroke:none"
           id="path42" />
      </g>
      <g
         id="g44"
         transform="translate(277.1952,100.7078)"
         clip-path="url(#clipPath19)"
         style="fill:#000000">
        <path
           d="M 0,0 H 13.572 L 6.739,15.819 Z m -5.522,-14.322 -3.744,-8.143 h -17.879 v 2.34 L 2.901,43.713 h 7.863 L 40.53,-20.125 v -2.34 H 22.839 l -3.837,8.143 z"
           style="fill:#000000;fill-opacity:1;fill-rule:nonzero;stroke:none"
           id="path46" />
      </g>
      <g
         id="g48"
         transform="translate(331.9547,128.7892)"
         clip-path="url(#clipPath18)"
         style="fill:#000000">
        <path
           d="M 0,0 V 14.977 H 48.674 V 0 H 32.668 V -50.546 H 16.099 V 0 Z"
           style="fill:#000000;fill-opacity:1;fill-rule:nonzero;stroke:none"
           id="path50" />
      </g>
      <g
         id="g52"
         transform="translate(421.9091,100.7078)"
         clip-path="url(#clipPath17)"
         style="fill:#000000">
        <path
           d="M 0,0 H 13.572 L 6.739,15.819 Z m -5.522,-14.322 -3.745,-8.143 h -17.878 v 2.34 L 2.901,43.713 h 7.863 L 40.53,-20.125 v -2.34 H 22.839 l -3.837,8.143 z"
           style="fill:#000000;fill-opacity:1;fill-rule:nonzero;stroke:none"
           id="path54" />
      </g>
      <g
         id="g56"
         transform="translate(515.9818,112.7828)"
         clip-path="url(#clipPath16)"
         style="fill:#000000">
        <path
           d="m 0,0 c 4.774,0 7.114,4.119 7.114,8.237 0,4.119 -2.247,7.956 -7.114,7.956 H -11.887 V 0 Z m 26.771,-32.013 v -2.434 H 8.612 l -11.233,20.5 h -8.986 v -20.5 h -17.129 v 65.523 c 9.734,0 19.189,0.094 28.83,0 15.819,0 23.588,-11.7 23.588,-23.213 -0.093,-7.489 -3.276,-14.696 -9.735,-19.095 z"
           style="fill:#000000;fill-opacity:1;fill-rule:nonzero;stroke:none"
           id="path58" />
      </g>
      <g
         id="g60"
         transform="translate(588.152,112.0339)"
         clip-path="url(#clipPath15)"
         style="fill:#000000">
        <path
           d="m 0,0 v -33.791 h -17.13 v 65.804 h 5.336 L 22.371,-0.281 v 32.012 h 17.13 v -65.709 h -5.054 z"
           style="fill:#000000;fill-opacity:1;fill-rule:nonzero;stroke:none"
           id="path62" />
      </g>
      <g
         id="g64"
         transform="translate(691.6783,92.096)"
         clip-path="url(#clipPath14)"
         style="fill:#000000">
        <path
           d="M 0,0 V -13.853 H -33.791 V 0 h 8.33 v 37.816 h -7.581 V 51.669 H -0.75 V 37.816 H -8.331 V 0 Z"
           style="fill:#000000;fill-opacity:1;fill-rule:nonzero;stroke:none"
           id="path66" />
      </g>
      <g
         id="g68"
         transform="translate(740.9135,100.7078)"
         clip-path="url(#clipPath13)"
         style="fill:#000000">
        <path
           d="M 0,0 H 13.572 L 6.739,15.819 Z m -5.522,-14.322 -3.744,-8.143 h -17.879 v 2.34 L 2.901,43.713 h 7.863 L 40.53,-20.125 v -2.34 H 22.839 l -3.837,8.143 z"
           style="fill:#000000;fill-opacity:1;fill-rule:nonzero;stroke:none"
           id="path70" />
      </g>
      <g
         id="g72"
         transform="translate(185.4157,29.9622)"
         clip-path="url(#clipPath12)"
         style="fill:#000000">
        <path
           d="m 0,0 c 0,6.464 -3.607,11.251 -8.873,11.251 -4.329,0 -8.946,-3.481 -8.946,-11.251 0,-7.77 4.617,-11.252 8.946,-11.252 C -3.607,-11.252 0,-6.589 0,0 m -24.672,15.54 h 6.132 l 0.217,-3.232 c 0,-1.368 -0.217,-2.3 -0.217,-2.3 h 0.144 c 1.515,3.232 5.772,6.278 10.605,6.278 8.008,0 14.212,-6.651 14.212,-16.286 0,-9.759 -6.204,-16.286 -14.068,-16.286 -4.833,0 -8.729,2.921 -10.388,6.091 h -0.072 c 0,0 0.144,-0.932 0.144,-2.548 v -16.473 h -6.709 z"
           style="fill:#000000;fill-opacity:1;fill-rule:nonzero;stroke:none"
           id="path74" />
      </g>
      <g
         id="g76"
         transform="translate(223.2898,28.3459)"
         clip-path="url(#clipPath11)"
         style="fill:#000000">
        <path
           d="m 0,0 c -9.523,1.616 -12.769,-1.119 -12.769,-5.346 0,-2.735 1.732,-4.662 4.4,-4.662 C -3.679,-10.008 0,-4.849 0,0 m -17.386,15.603 c 1.732,0.932 5.843,2.299 10.966,2.299 8.873,0 13.201,-4.227 13.201,-11.997 V -13.924 H 0.649 c 0,1.243 -0.072,2.424 -0.072,3.668 -0.072,1.491 0.144,2.486 0.144,2.486 H 0.649 c -0.505,-0.871 -3.751,-6.9 -10.244,-6.9 -5.627,0 -9.811,3.419 -9.811,9.138 0,7.584 6.709,11.375 19.55,9.573 v 1.554 c 0,5.408 -2.958,7.272 -7.575,7.272 -4.112,0 -8.007,-1.491 -9.955,-2.611 z"
           style="fill:#000000;fill-opacity:1;fill-rule:nonzero;stroke:none"
           id="path78" />
      </g>
      <g
         id="g80"
         transform="translate(245.9428,45.5026)"
         clip-path="url(#clipPath10)"
         style="fill:#000000">
        <path
           d="m 0,0 h 6.204 c 0,-1.43 0.072,-2.922 0.072,-4.351 0.144,-1.181 -0.072,-2.114 0,-2.301 h 0.072 c 1.876,4.414 5.05,7.398 9.306,7.398 0.866,0 1.515,-0.124 1.876,-0.187 v -5.594 c -0.361,0.062 -0.793,0.186 -1.66,0.186 -5.554,0 -9.161,-6.651 -9.161,-12.681 V -31.081 H 0 Z"
           style="fill:#000000;fill-opacity:1;fill-rule:nonzero;stroke:none"
           id="path82" />
      </g>
      <g
         id="g84"
         transform="translate(293.4836,32.6971)"
         clip-path="url(#clipPath9)"
         style="fill:#000000">
        <path
           d="M 0,0 11.687,-18.275 H 4.04 l -9.09,15.042 -4.833,-5.842 v -9.2 h -6.637 v 44.756 h 6.709 V -2.797 L 3.03,12.805 h 7.863 z"
           style="fill:#000000;fill-opacity:1;fill-rule:nonzero;stroke:none"
           id="path86" />
      </g>
      <g
         id="g88"
         transform="translate(341.8182,59.1779)"
         clip-path="url(#clipPath8)"
         style="fill:#000000">
        <path
           d="m 0,0 h 6.637 v -17.281 c 0,-1.43 -0.144,-2.611 -0.144,-3.108 1.37,2.797 4.978,7.459 11.11,7.459 7.358,0 10.604,-4.537 10.604,-12.307 v -19.519 h -6.709 v 18.338 c 0,4.288 -0.793,8.143 -5.338,8.143 -5.555,0 -9.451,-4.849 -9.451,-11.19 V -44.756 H 0 Z"
           style="fill:#000000;fill-opacity:1;fill-rule:nonzero;stroke:none"
           id="path90" />
      </g>
      <g
         id="g92"
         transform="translate(403.2101,28.3459)"
         clip-path="url(#clipPath7)"
         style="fill:#000000">
        <path
           d="m 0,0 c -9.523,1.616 -12.769,-1.119 -12.769,-5.346 0,-2.735 1.732,-4.662 4.4,-4.662 C -3.679,-10.008 0,-4.849 0,0 m -17.386,15.603 c 1.732,0.932 5.843,2.299 10.966,2.299 8.873,0 13.201,-4.227 13.201,-11.997 V -13.924 H 0.649 c 0,1.243 -0.072,2.424 -0.072,3.668 -0.072,1.491 0.144,2.486 0.144,2.486 H 0.649 c -0.505,-0.871 -3.751,-6.9 -10.244,-6.9 -5.627,0 -9.811,3.419 -9.811,9.138 0,7.584 6.709,11.375 19.55,9.573 v 1.554 c 0,5.408 -2.958,7.272 -7.575,7.272 -4.112,0 -8.007,-1.491 -9.955,-2.611 z"
           style="fill:#000000;fill-opacity:1;fill-rule:nonzero;stroke:none"
           id="path94" />
      </g>
      <g
         id="g96"
         transform="translate(432.4271,45.5026)"
         clip-path="url(#clipPath6)"
         style="fill:#000000">
        <path
           d="M 0,0 0.217,-4.351 C 0.217,-5.657 0,-6.589 -0.072,-6.713 h 0.144 c 1.227,2.796 5.194,7.459 11.326,7.459 7.359,0 10.605,-4.538 10.605,-12.308 v -19.519 h -6.709 v 18.338 c 0,4.289 -0.794,8.143 -5.339,8.143 -5.555,0 -9.45,-4.849 -9.45,-11.189 V -31.081 H -6.204 V 0 Z"
           style="fill:#000000;fill-opacity:1;fill-rule:nonzero;stroke:none"
           id="path98" />
      </g>
      <g
         id="g100"
         transform="translate(474.8464,29.9622)"
         clip-path="url(#clipPath5)"
         style="fill:#000000">
        <path
           d="m 0,0 c 0,-6.465 3.607,-11.252 8.873,-11.252 4.329,0 9.018,3.482 9.018,11.252 0,7.77 -4.689,11.251 -9.018,11.251 C 3.607,11.251 0,6.589 0,0 M 24.672,-15.54 H 18.54 l -0.144,3.667 c 0,1.368 0.144,2.3 0.144,2.3 h -0.072 c -1.587,-3.481 -5.771,-6.713 -10.605,-6.713 -8.08,0 -14.283,6.651 -14.283,16.286 0,9.759 6.203,16.286 14.139,16.286 4.761,0 8.657,-2.735 10.316,-5.657 h 0.145 c 0,0 -0.217,0.933 -0.217,2.549 v 16.038 h 6.709 z"
           style="fill:#000000;fill-opacity:1;fill-rule:nonzero;stroke:none"
           id="path102" />
      </g>
      <g
         id="g104"
         transform="translate(516.9042,59.1779)"
         clip-path="url(#clipPath4)"
         style="fill:#000000">
        <path
           d="m 0,0 h 6.709 v -35.618 c 0,-3.357 1.083,-4.725 3.391,-4.725 1.154,0 2.309,0.249 2.813,0.373 v -4.973 c -0.504,-0.124 -2.164,-0.559 -4.617,-0.559 -4.689,0 -8.296,2.424 -8.296,8.703 z"
           style="fill:#000000;fill-opacity:1;fill-rule:nonzero;stroke:none"
           id="path106" />
      </g>
      <g
         id="g108"
         transform="translate(566.3202,29.9622)"
         clip-path="url(#clipPath3)"
         style="fill:#000000">
        <path
           d="m 0,0 c 0,6.589 -4.112,11.251 -9.595,11.251 -5.411,0 -9.522,-4.662 -9.522,-11.251 0,-6.589 4.111,-11.252 9.522,-11.252 C -4.112,-11.252 0,-6.589 0,0 m 6.42,0 c 0,-9.386 -6.781,-16.286 -16.015,-16.286 -9.162,0 -15.943,6.9 -15.943,16.286 0,9.386 6.781,16.286 15.943,16.286 C -0.361,16.286 6.42,9.386 6.42,0"
           style="fill:#000000;fill-opacity:1;fill-rule:nonzero;stroke:none"
           id="path110" />
      </g>
      <g
         id="g112"
         transform="translate(615.3047,22.9377)"
         clip-path="url(#clipPath2)"
         style="fill:#000000">
        <path
           d="m 0,0 7.863,22.565 h 6.998 L 2.02,-9.262 h -4.112 l -7.142,21.197 -7.07,-21.197 h -4.112 l -12.841,31.827 h 7.142 L -18.396,0 l 7.214,22.13 h 4.04 z"
           style="fill:#000000;fill-opacity:1;fill-rule:nonzero;stroke:none"
           id="path114" />
      </g>
      <g
         id="g116"
         transform="translate(636.9474,5.3464)"
         clip-path="url(#clipPath1)"
         style="fill:#000000">
        <path
           d="m 0,0 c 0.721,-0.186 1.803,-0.373 3.391,-0.373 4.833,0 6.998,4.227 9.162,9.821 L -0.144,40.156 h 7.358 l 4.112,-11.251 c 1.515,-4.538 3.246,-9.076 4.689,-13.613 1.299,3.543 3.536,9.759 4.762,13.613 l 4.04,11.251 h 7.358 L 20.128,10.505 C 15.871,0.248 12.191,-5.346 4.256,-5.346 2.525,-5.346 0.721,-5.098 0,-4.786 Z"
           style="fill:#000000;fill-opacity:1;fill-rule:nonzero;stroke:none"
           id="path118" />
      </g>
    </g>
  </g>
</svg>
