<svg id="MAXIZOO" width="500" height="97.637268" viewBox="0 0 500 97.637268" version="1.1" xml:space="preserve" xmlns:xlink="http://www.w3.org/1999/xlink" xmlns="http://www.w3.org/2000/svg" xmlns:svg="http://www.w3.org/2000/svg">
	<path id="MAXIZOO" style="fill:#000000;stroke:#000000;stroke-width:0" d="m 249.92667,40.246715 v 50.217173 c 0,3.525679 1.94528,5.592983 5.59298,5.592983 h 9.96929 c 3.52685,0 5.59415,-2.067304 5.59415,-5.592983 V 40.246715 c 0,-3.525679 -2.0673,-5.592982 -5.59415,-5.592982 h -9.96929 c -3.6477,0 -5.59298,2.067303 -5.59298,5.592982 M 100.55519,90.463888 V 60.187629 c 0,-16.172367 -10.457363,-26.507711 -25.535068,-26.507711 -8.632928,0 -15.3194,3.406005 -19.818894,8.391234 -4.255454,-5.350116 -10.821079,-8.391234 -18.967099,-8.391234 -6.465897,0 -11.468725,2.258546 -15.260736,5.740815 -0.301531,-2.991841 -2.184631,-4.769347 -5.409953,-4.769347 l -10.091304,0.0012 C 1.9452833,34.652559 0,36.719863 0,40.245542 v 50.217173 c 0,3.525679 1.9441101,5.592983 5.472136,5.592983 H 15.56344 c 3.526853,0 5.472136,-2.067304 5.472136,-5.592983 V 61.769199 c 0,-6.201911 3.768546,-10.214498 9.484723,-10.214498 5.83585,0 9.240682,4.011414 9.240682,10.214498 v 28.694689 c 0,3.525679 1.945284,5.592983 5.472136,5.592983 h 10.091304 c 3.52568,0 5.46979,-2.067304 5.46979,-5.592983 V 61.769199 c 0,-6.201911 3.769719,-10.214498 9.484722,-10.214498 5.83585,0 9.240683,4.011414 9.240683,10.214498 v 28.694689 c 0,3.525679 1.945283,5.592983 5.470963,5.592983 h 10.092477 c 3.526853,0 5.472134,-2.067304 5.472134,-5.592983 m 51.97943,-24.804123 c 0,8.390061 -5.83585,13.983044 -13.00923,13.983044 -7.66029,0 -13.0104,-6.07989 -13.0104,-13.983044 0,-7.903153 5.35011,-13.983043 13.0104,-13.983043 7.41742,0 13.00923,5.470962 13.00923,13.983043 m 20.0641,24.804123 V 40.278394 c 0,-3.52568 -1.94645,-5.592983 -5.47213,-5.592983 h -10.09248 c -2.76892,0 -4.54525,1.290598 -5.1882,3.545625 -4.51006,-2.853395 -9.78391,-4.551118 -15.72418,-4.551118 -17.63192,0 -30.39711,13.983043 -30.39711,31.978674 0,17.994458 12.88721,31.977502 30.39711,31.977502 6.20308,0 11.48867,-1.906566 15.75116,-5.016907 0.66759,2.190497 2.43571,3.436511 5.16239,3.436511 h 10.09248 c 3.52451,0.0012 5.47096,-2.066131 5.47096,-5.59181 m 70.557,-50.217173 c 2.67506,-3.525679 0.7286,-5.592982 -2.79707,-5.592982 h -12.98577 c -3.52568,0 -5.35011,1.945283 -7.7823,5.350115 l -7.43502,10.992376 -7.54414,-10.992376 c -2.31017,-3.404832 -4.25545,-5.350115 -7.7823,-5.350115 h -14.93105 c -3.52568,0 -5.35011,2.067303 -2.67506,5.592982 l 19.33316,25.29103 -19.454,24.926143 c -2.67506,3.525679 -0.72978,5.592983 2.7959,5.592983 h 12.86492 c 3.64652,0 5.47096,-1.946457 7.77996,-5.350116 l 7.66498,-10.79644 7.55821,10.79644 c 2.309,3.403659 4.13343,5.350116 7.65911,5.350116 h 15.05424 c 3.52568,0 5.2281,-2.189324 2.67506,-5.592983 L 223.82139,65.537745 Z m 29.99468,-27.6012 C 273.1504,5.5941562 267.55741,0 260.50488,0 c -6.93168,0 -12.64551,5.5941562 -12.64551,12.645515 0,6.931685 5.715,12.644342 12.64551,12.644342 7.05253,0.0012 12.64552,-5.712657 12.64552,-12.644342 m 84.9894,77.818373 v -5.289106 c 0,-3.525679 -2.0673,-5.470963 -5.59298,-5.470963 h -23.2906 l 21.70903,-24.379398 c 3.64887,-3.768546 5.47331,-5.715003 5.47331,-8.753775 v -6.322757 c 0,-3.52568 -2.0673,-5.592983 -5.59298,-5.592983 h -41.94914 c -3.52685,0 -5.59415,1.945283 -5.59415,5.592983 v 5.287932 c 0,3.404833 1.82444,5.472136 5.59415,5.472136 l 22.17365,0.01643 -23.02544,24.60584 c -3.6477,3.768546 -5.35012,5.470962 -5.35012,8.510907 v 6.322758 c 0,3.525679 1.94529,5.592983 5.47214,5.592983 h 44.38015 c 3.76855,0 5.59298,-2.067304 5.59298,-5.592983 m 48.60041,-24.804123 c 0,8.025174 -5.47214,13.983044 -13.13243,13.983044 -7.65911,0 -13.25326,-5.95787 -13.25326,-13.983044 0,-8.025173 5.59415,-13.983043 13.25326,-13.983043 7.66146,0 13.13243,5.95787 13.13243,13.983043 m 20.79153,0 c 0,-18.360518 -14.22591,-31.978674 -33.92396,-31.978674 -19.69804,0 -33.92395,13.618156 -33.92395,31.978674 0,18.360519 14.22591,31.977502 33.92395,31.977502 19.69805,0 33.92396,-13.616983 33.92396,-31.977502 m 51.67672,0 c 0,8.025174 -5.47096,13.983044 -13.13242,13.983044 -7.66028,0 -13.25327,-5.95787 -13.25327,-13.983044 0,-8.025173 5.59299,-13.983043 13.25327,-13.983043 7.66029,0 13.13242,5.95787 13.13242,13.983043 m 20.79154,0 c 0,-18.360518 -14.22591,-31.978674 -33.92396,-31.978674 -19.69804,0 -33.92396,13.618156 -33.92396,31.978674 0,18.360519 14.22592,31.977502 33.92396,31.977502 C 485.77409,97.637267 500,84.020284 500,65.659765" />
</svg>
