<svg
   version="1.1"
   id="svg1"
   width="783.58655"
   height="142.93608"
   viewBox="0 0 783.58655 142.93608"
   xmlns="http://www.w3.org/2000/svg"
   xmlns:svg="http://www.w3.org/2000/svg">
  <defs
     id="defs1" />
  <g
     id="g1"
     transform="translate(-1170.0614,788.71423)">
    <path
       style="fill:#000000"
       d="m 1205.8371,-646.17174 c -7.7166,-1.45039 -15.962,-5.58135 -22.1194,-11.0819 -4.889,-4.36743 -6.0441,-6.31243 -6.0462,-10.18059 0,-3.13135 0.8136,-5.59545 2.8566,-8.63409 2.6384,-3.924 5.5992,-5.18944 9.4849,-4.05379 2.2577,0.65983 6.2811,3.17607 9.0866,5.68272 4.8525,4.33571 7.9496,5.70798 13.44,5.9551 5.7725,0.25981 11.2593,-1.39238 14.1182,-4.25131 1.6375,-1.63751 3.9309,-6.22091 5.033,-10.05863 0.7837,-2.72915 1.6133,-8.17959 1.3178,-8.65783 -0.087,-0.14051 -0.6959,-0.42987 -1.3535,-0.64302 -3.8811,-1.25811 -9.6235,-5.09797 -11.3274,-7.57458 -2.9323,-4.26195 -3.8737,-8.61042 -2.4893,-11.49856 0.4075,-0.85031 1.5951,-2.38709 2.6389,-3.41508 3.0161,-2.97015 7.1265,-4.73765 18.7823,-8.07645 6.3089,-1.80722 7.6083,-2.07763 10.88,-2.26426 10.0609,-0.5739 15.3029,3.03783 15.9108,10.96259 0.2966,3.86558 -1.1429,8.65675 -3.7313,12.41879 -0.5279,0.76725 -1.8642,2.27781 -2.9696,3.35681 l -2.0099,1.96181 1.2671,2.46422 c 2.6023,5.061 7.2178,10.17567 11.0033,12.19333 4.1304,2.20149 7.6572,2.44112 12.4326,0.84476 5.7743,-1.9303 10.5758,-6.23841 13.649,-12.24657 2.0845,-4.07509 3.8998,-5.97758 7.1765,-7.52094 1.8844,-0.88756 2.4899,-1.01409 4.8772,-1.01919 2.432,-0.005 2.9523,0.10568 4.8294,1.02934 7.4288,3.65539 8.3958,8.42071 3.6357,17.91713 -5.4109,10.79466 -14.1873,18.82066 -24.7161,22.6025 -2.3489,0.84373 -8.6758,2.2708 -8.9319,2.01466 -0.076,-0.0763 0.085,-1.00338 0.3592,-2.06025 0.721,-2.78232 0.6537,-7.32223 -0.1422,-9.58652 -1.6886,-4.80441 -5.6404,-6.63593 -10.4419,-4.83945 -1.0044,0.37577 -3.1775,1.60589 -4.8292,2.73359 -5.595,3.82002 -8.7723,5.0569 -12.8887,5.01747 -1.496,-0.0143 -3.0755,-0.16873 -3.51,-0.34312 -0.7433,-0.29836 -0.8789,-0.17355 -2.2977,2.11588 -5.488,8.85555 -14.3528,15.20504 -25.152,18.01528 -3.3846,0.88077 -4.3358,0.9895 -9.5203,1.08828 -4.1655,0.0794 -6.4638,-0.0225 -8.3025,-0.36813 z m 305.7425,-25.46011 c -5.6603,-0.64762 -12.4665,-3.40403 -17.1669,-6.95229 -7.125,-5.37857 -11.9635,-13.37509 -14.0679,-23.25009 -0.7626,-3.57837 -0.7742,-12.10828 -0.022,-15.90714 1.6195,-8.17496 5.5458,-15.57083 11.0335,-20.78361 10.8167,-10.27472 27.0351,-12.69446 40.5428,-6.04886 1.76,0.8659 3.2457,1.44744 3.3016,1.29232 0.3335,-0.92633 1.6573,-2.45016 2.6195,-3.0154 1.0304,-0.60529 1.7306,-0.66525 8.8491,-0.75766 5.1633,-0.067 8.1879,0.0229 9.1084,0.27075 2.008,0.54069 3.6244,2.28679 4.0782,4.40536 0.4878,2.27756 0.5143,62.04809 0.029,64.31342 -0.4754,2.21664 -1.8659,3.7793 -3.9007,4.38357 -2.0131,0.59782 -14.6794,0.69563 -16.7246,0.12915 -1.7061,-0.47257 -2.9312,-1.38291 -3.6056,-2.67925 l -0.5544,-1.06584 -2.24,1.36209 c -6.2158,3.77967 -13.3132,5.21499 -21.28,4.30348 z m 12.826,-21.98903 c 6.9184,-1.80601 11.5038,-8.27176 11.4892,-16.20058 -0.01,-3.02506 -0.6257,-5.91147 -1.8127,-8.43637 -1.0586,-2.25178 -4.4828,-5.74159 -6.5941,-6.72047 -6.4353,-2.98361 -13.1109,-1.93694 -17.8568,2.79977 -3.323,3.31659 -4.8676,7.23373 -4.8676,12.3443 0,5.11277 1.5454,9.03067 4.8676,12.3405 3.0863,3.07473 6.2548,4.39557 10.5884,4.41384 1.144,0.005 3.0277,-0.23862 4.186,-0.54099 z m 296.0007,21.98466 c -18.2398,-2.18176 -31.8099,-14.41989 -34.71,-31.30283 -1.0244,-5.9635 -0.502,-13.67274 1.3016,-19.20674 2.5112,-7.70548 8.0747,-14.89356 15.0427,-19.4356 10.6084,-6.91491 25.6765,-8.64616 38.3938,-4.41129 14.8843,4.95648 24.4945,16.90989 26.0758,32.43374 1.1496,11.28706 -2.7915,22.59641 -10.6107,30.44814 -5.6202,5.64358 -13.3371,9.58043 -21.6,11.01934 -3.7078,0.64569 -10.4533,0.86672 -13.8932,0.45524 z m 9.3999,-21.88799 c 5.6454,-1.47044 10.0068,-6.04002 11.3678,-11.91037 0.2142,-0.92419 0.3895,-2.90403 0.3895,-4.39965 0,-4.88466 -1.4143,-8.73697 -4.3863,-11.94704 -6.0185,-6.50075 -16.6648,-6.44652 -22.7575,0.11592 -2.9157,3.14063 -4.3762,7.0889 -4.3762,11.83112 0,4.65595 1.4909,8.76001 4.2895,11.80829 3.7732,4.10975 10.0108,5.92451 15.4732,4.50173 z m 78.11,21.89695 c -18.7192,-1.97176 -32.5791,-14.67177 -35.2344,-32.28564 -1.7734,-11.76391 1.823,-23.69143 9.6431,-31.98108 9.7055,-10.28834 26.2072,-14.77737 41.2753,-11.22827 11.6327,2.73993 20.9591,9.70928 25.9651,19.40289 3.0777,5.95976 4.0826,10.36196 4.0826,17.88513 0,7.52317 -1.0049,11.92537 -4.0826,17.88513 -7.3202,14.17502 -23.7763,22.20445 -41.6491,20.32184 z m 8.5276,-21.75952 c 8.1936,-1.70346 13.4336,-9.98866 12.1537,-19.21694 -1.3491,-9.72741 -10.2182,-15.90786 -19.4307,-13.54037 -7.3461,1.88784 -11.9873,8.2026 -11.9873,16.30986 0,10.97791 8.9242,18.59717 19.2643,16.44745 z m -559.8273,19.73517 c -2.0639,-0.7365 -3.2058,-1.91377 -3.7465,-3.86262 -0.2523,-0.90915 -0.3284,-10.60438 -0.2628,-33.4635 l 0.092,-32.18349 0.8787,-1.32758 c 1.6021,-2.42081 1.8124,-2.46543 11.6247,-2.46543 h 8.6635 l 1.1725,0.8 c 1.0549,0.71982 2.1136,2.32624 2.6082,3.95763 0.1685,0.55582 0.2536,0.53902 1.2168,-0.24009 8.1855,-6.62132 20.8377,-7.7614 31.1156,-2.80381 2.9201,1.40853 6.0526,3.67181 7.6259,5.50978 0.5915,0.69107 1.1516,1.25649 1.2446,1.25649 0.093,0 0.7271,-0.52186 1.4093,-1.15969 6.8433,-6.39902 16.1698,-9.46552 25.8142,-8.4876 7.6751,0.77824 13.1556,3.16054 18.1025,7.86895 4.3199,4.11159 6.9227,8.93922 8.5499,15.85834 0.5025,2.13676 0.5779,4.75797 0.6874,23.89756 0.089,15.58251 0.021,21.87474 -0.2462,22.86839 -0.4828,1.79305 -2.3124,3.61988 -4.1102,4.10397 -0.9195,0.24761 -3.9023,0.33786 -8.9484,0.27075 -8.6135,-0.11456 -9.3434,-0.28947 -10.8776,-2.60676 l -0.8514,-1.28606 -0.1649,-20.34392 c -0.152,-18.74857 -0.2113,-20.4694 -0.756,-21.94393 -0.3251,-0.88 -0.7308,-1.86474 -0.9015,-2.18831 -0.6721,-1.27377 -2.697,-3.18362 -4.2373,-3.99654 -1.4843,-0.78336 -1.9293,-0.85515 -5.3003,-0.85515 -3.3786,0 -3.8139,0.0706 -5.3145,0.8623 -2.2496,1.18689 -4.3825,3.65062 -5.2816,6.1008 -0.7269,1.98118 -0.7341,2.15562 -0.9083,22.1569 -0.1934,22.20313 -0.1118,21.35347 -2.1934,22.83572 -1.6648,1.18541 -3.4165,1.38244 -11.2958,1.27057 -7.9584,-0.11299 -8.1991,-0.15674 -9.9739,-1.81247 -1.7882,-1.66818 -1.8325,-2.22676 -1.8325,-23.09382 0,-20.97315 0,-20.9567 -1.9659,-24.05544 -1.8832,-2.96651 -4.8027,-4.42456 -8.8595,-4.42456 -1.3741,0 -3.2086,0.21375 -4.0765,0.47499 -3.4628,1.04225 -6.3411,4.43043 -7.139,8.40366 -0.2407,1.19847 -0.3597,7.91702 -0.3609,20.37472 -10e-4,12.57364 -0.1161,18.99839 -0.3551,19.85942 -0.4529,1.63119 -2.3391,3.51743 -3.9703,3.97029 -1.899,0.5272 -15.3412,0.44718 -16.8759,-0.10046 z m 212.553,0.16688 c -2.2782,-0.72207 -3.1263,-2.06233 -2.5761,-4.07075 0.2355,-0.85954 4.0666,-6.0122 12.5148,-16.83189 l 12.1754,-15.59313 -11.8032,-15.44686 c -6.4918,-8.49578 -12.0412,-15.90771 -12.332,-16.47097 -0.5944,-1.15107 -0.6869,-2.72264 -0.2125,-3.60907 0.174,-0.32511 0.93,-0.82533 1.68,-1.1116 1.1815,-0.45096 2.8173,-0.50812 12.2437,-0.42786 10.0726,0.0858 10.975,0.13944 12.16,0.72339 2.1126,1.04107 3.9158,3.17193 9.0794,10.72924 2.7057,3.96 5.0879,7.38113 5.2939,7.6025 0.2928,0.31472 1.174,-0.79757 4.0406,-5.10022 6.6372,-9.96232 8.3076,-11.97092 11.0261,-13.25831 1.5707,-0.74383 1.7743,-0.75777 11.1135,-0.76084 11.9232,-0.004 12.7265,0.21392 12.7265,3.45118 0,0.80102 -0.2804,1.66956 -0.7736,2.39637 -0.4255,0.62699 -5.8975,7.84366 -12.16,16.03704 -6.2626,8.19338 -11.3864,15.05678 -11.3864,15.252 0,0.19522 5.1815,7.0311 11.5145,15.19085 6.333,8.15974 11.8044,15.31144 12.1588,15.89266 0.3723,0.61062 0.6448,1.61893 0.6455,2.38832 0,1.08792 -0.1748,1.4796 -0.9603,2.14062 -0.5289,0.44499 -1.5729,0.89994 -2.32,1.01101 -0.7472,0.11107 -5.9665,0.15579 -11.5985,0.0994 -9.7968,-0.0981 -10.2954,-0.1326 -11.52,-0.79671 -2.0583,-1.11624 -3.9305,-3.3369 -9.262,-10.98585 -2.7602,-3.96 -5.1266,-7.23905 -5.2586,-7.28678 -0.1321,-0.0477 -2.8043,3.51806 -5.9383,7.924 -5.7948,8.14652 -6.6112,9.09015 -8.9439,10.33808 -1.2649,0.6767 -1.6987,0.70721 -10.9172,0.76783 -5.28,0.0347 -9.9646,-0.0524 -10.4101,-0.19363 z m 88.0559,-0.18724 c -1.5538,-0.48472 -2.7217,-1.44205 -3.5162,-2.88226 -0.4812,-0.87217 -0.5376,-3.88202 -0.6171,-32.89802 -0.059,-21.56355 0.022,-32.34322 0.2484,-33.18545 0.4414,-1.63925 1.7434,-3.14713 3.3458,-3.87503 1.1394,-0.51756 2.2176,-0.58828 9.0636,-0.59447 8.4476,-0.008 9.2509,0.12607 11.0372,1.83703 1.8652,1.78653 1.8325,1.16133 1.8325,35.03232 0,22.43637 -0.1025,31.40699 -0.3708,32.47269 -0.4933,1.95899 -2.2412,3.70688 -4.2002,4.20016 -2.1442,0.53992 -15.0118,0.4581 -16.8232,-0.10697 z m 63.6459,0.10627 c -1.6353,-0.47543 -2.8169,-1.43475 -3.6159,-2.93548 -0.6569,-1.23382 -0.7099,-1.7618 -0.7128,-7.09305 0,-5.61779 0.018,-5.80358 0.8639,-7.5251 0.5335,-1.08631 2.1436,-3.11677 4.187,-5.28 1.826,-1.93319 9.0429,-9.6349 16.0374,-17.1149 l 12.7173,-13.6 -13.8643,-0.24184 c -7.6254,-0.13301 -14.3354,-0.32011 -14.9112,-0.41578 -1.293,-0.21485 -3.2226,-1.86338 -3.8008,-3.2471 -0.3042,-0.72808 -0.4302,-2.5788 -0.4253,-6.245 0.01,-6.15113 0.3489,-7.30962 2.5843,-8.78911 l 1.3616,-0.90117 27.1633,-0.087 c 17.8261,-0.0571 27.5821,0.0258 28.3817,0.24109 1.6223,0.43683 2.7679,1.38217 3.631,2.99619 0.6592,1.2327 0.7111,1.75012 0.7111,7.08975 0,5.21597 -0.064,5.89601 -0.6825,7.2 -0.8208,1.73187 -0.6211,1.4997 -17.943,20.86421 l -13.8255,15.45579 15.1055,0.16 c 16.6479,0.17634 16.1474,0.11387 17.9351,2.23844 1.2101,1.43819 1.4868,2.86768 1.4868,7.68156 0,4.81388 -0.2767,6.24337 -1.4868,7.68156 -1.8648,2.21617 0.2438,2.07246 -31.3096,2.13382 -18.3388,0.0357 -28.8747,-0.0594 -29.5883,-0.26685 z m -534.7317,-57.04601 c -6.6293,-1.40765 -11.587,-5.15414 -14.442,-10.91384 -2.7759,-5.60007 -1.9922,-11.22054 2.1408,-15.35355 2.1337,-2.13379 7.0421,-4.66694 10.5587,-5.44932 8.1045,-1.80307 15.8599,1.86036 22.3854,10.57419 4.2723,5.70497 3.8789,12.83248 -0.9608,17.40968 -3.1211,2.95182 -5.9433,3.83097 -12.9621,4.03778 -3.207,0.0945 -5.2824,3.1e-4 -6.72,-0.30494 z m 79.4515,-15.02405 c -4.6024,-1.51587 -8.0076,-5.48791 -8.799,-10.26355 -0.4428,-2.6724 0.2045,-5.59918 2.1442,-9.69377 3.361,-7.09517 7.7578,-11.20893 13.6033,-12.72767 2.5295,-0.65722 8.08,-0.50498 11.04,0.30281 5.6708,1.5476 9.275,5.30385 10.1488,10.57688 0.7113,4.29241 -1.5293,10.73141 -5.0618,14.54696 -4.1052,4.43408 -10.8758,7.21815 -18.367,7.55251 -2.3639,0.10551 -3.7598,0.0183 -4.7085,-0.29417 z m 396.8198,-13.1328 c -7.5552,-1.83262 -12.7353,-9.31143 -11.654,-16.82567 1.1,-7.6444 7.3864,-13.12 15.0627,-13.12 12.1679,0 19.2445,13.18387 12.6247,23.52 -3.3367,5.20983 -10.0138,7.8858 -16.0334,6.42567 z"
       id="path1" />
  </g>
</svg>
