<svg id="MCDONALDS" width="500" height="57.563869" viewBox="0 0 500 57.563869" version="1.1" xml:space="preserve" xmlns:xlink="http://www.w3.org/1999/xlink" xmlns="http://www.w3.org/2000/svg" xmlns:svg="http://www.w3.org/2000/svg">
	<path id="MCDONALDS" style="fill:#000000;stroke:#000000;stroke-width:0" d="m 335.13147,5.9069114 c 12.11586,-0.00995 22.10257,4.4456196 22.88141,14.2281846 V 56.1758 h -17.08744 v -4.859036 c -4.149,3.555426 -8.28347,6.222798 -15.75167,6.222798 -8.69837,0 -15.70801,-6.876803 -15.70801,-14.937531 0,-8.062543 4.96425,-17.018934 24.83948,-17.014583 5.12439,0.0011 6.61656,-2.014808 6.6202,-4.415766 0.007,-2.948719 -3.39198,-4.593393 -6.23808,-4.593393 -2.8461,0 -6.07428,1.185391 -6.07428,4.267671 h -16.00636 c 0,-7.232019 4.86235,-14.9218903 22.52475,-14.9389242 z m -0.94628,27.6545906 c -3.94157,0 -7.58834,2.104007 -7.58834,6.134346 0,2.610252 1.54317,4.863449 5.57206,4.862343 a 8.5274585,8.5274585 0 0 0 8.75659,-7.026007 v -4.489672 c -1.30295,0.712244 -4.2509,0.51899 -6.74031,0.51899 M 132.69041,0.0054832 h 29.3335 c 18.35245,0 30.86026,11.3992138 30.86026,28.7762338 0,17.375616 -12.5049,28.777366 -30.86026,28.777366 h -29.3335 V 0.00547077 Z m 19.40463,43.9481998 h 8.86831 c 5.74639,0 12.74111,-3.504088 12.74111,-15.171916 0,-11.653604 -6.99472,-15.17081 -12.74111,-15.17081 h -8.86831 v 30.342726 m 44.95597,-12.219206 c 0.0142,-15.25598 9.90776,-25.8159153 25.75149,-25.8301269 15.84996,-0.014212 25.74208,10.5741469 25.75297,25.8301269 0.0142,15.273063 -9.90665,25.827565 -25.75297,25.827565 -15.82811,0.0015 -25.76425,-10.554477 -25.75149,-25.827565 z m 35.53443,0 c 0.004,-5.895585 -2.03811,-13.364835 -9.78294,-13.364835 -7.743,-0.0029 -9.78472,7.469313 -9.78327,13.364897 0.002,5.894503 2.04027,13.363815 9.78327,13.363815 7.74487,0 9.78294,-7.469312 9.78294,-13.363815 M 421.20157,11.974626 V 0 h 17.07282 v 56.173238 h -17.07282 v -2.725623 c -2.24193,2.024632 -5.1826,4.092954 -12.54164,4.092954 -8.27984,0 -21.4329,-4.600305 -21.44383,-24.363065 -0.01,-19.73435 13.14946,-24.8565545 22.51018,-24.8565545 6.79852,0 10.00857,2.3470465 11.47529,3.6536765 z m -17.71698,21.202878 c 0,7.68113 3.57399,12.58898 9.44445,12.58898 a 9.0470944,9.0470944 0 0 0 8.27982,-4.734227 V 26.296746 c -0.90985,-3.252993 -4.06892,-5.651414 -8.27982,-5.652484 -5.88139,-0.0029 -9.44445,4.853242 -9.44445,12.533266 M 270.60346,28.655131 V 56.183036 H 253.72354 V 7.1068495 h 16.87992 v 3.8341875 c 4.27278,-3.3293973 8.13426,-5.0410511 16.89448,-5.0410511 9.51363,0 17.17836,6.3578271 17.182,13.0322871 v 37.250813 h -17 V 29.169744 a 8.4391181,8.4391181 0 0 0 -8.38536,-8.144791 8.964722,8.964722 0 0 0 -8.69106,7.630178 M 8.9465566,0.0054832 H 29.346214 L 38.226263,33.190273 47.10579,0.0054832 h 20.413869 l 8.91965,57.5537118 H 59.608146 L 55.162539,23.923925 45.964116,57.559158 H 30.487938 l -9.196969,-33.63527 -4.448181,33.63527 H 0 L 8.946569,0.00550807 M 126.74096,39.14994 a 23.792204,23.792204 0 0 1 -23.65112,18.409193 c -13.949412,0 -24.56071,-10.555945 -24.546499,-25.831557 0.0099,-15.255979 9.442631,-25.8134034 24.546499,-25.8276025 12.52346,-0.00995 21.14611,7.2647805 23.73487,18.4474515 l -15.97804,0.0014 c -1.22543,-3.360692 -3.5798,-5.982209 -7.75683,-5.985118 -7.050054,-0.0014 -8.909455,7.470767 -8.906546,13.363815 0.0014,5.897052 1.856492,13.36491 8.906546,13.36491 4.15991,0 6.50994,-2.598615 7.7397,-5.941092 l 15.91147,-0.0014 M 476.42709,8.3209744 c 11.35883,0 22.02978,2.8660726 22.08076,14.0163536 h -16.21391 c 0,-3.841498 -2.2419,-5.587369 -6.02696,-5.587369 -2.24558,0 -5.28089,0.932803 -5.28089,4.452931 0.002,5.841362 9.24062,4.673092 17.08371,7.001637 7.04604,2.08977 11.9302,6.293756 11.9302,13.082095 0,10.399431 -8.15971,16.153124 -23.5729,16.21426 -16.16296,0.06412 -22.24449,-5.762024 -22.29545,-16.21426 h 16.4286 c 0,3.945169 2.45302,6.293782 5.91778,6.293782 4.149,0 6.03065,-1.575183 6.03065,-4.507875 0,-6.106333 -11.32608,-5.948402 -18.00453,-8.133538 -4.54205,-1.488546 -8.66923,-4.855057 -8.66923,-12.00336 0,-5.972399 4.48019,-14.6147064 20.59218,-14.6147064 M 444.76358,0 h 11.62817 l -3.94882,15.3084 h -8.45451 L 444.76363,0 M 364.89881,56.173238 H 381.9731 V 0 h -17.07429 z" />
</svg>
