<svg id="MEDIAEXPERT" width="500" height="80.202126" viewBox="0 0 500 80.202126" version="1.1" xml:space="preserve" xmlns:xlink="http://www.w3.org/1999/xlink" xmlns="http://www.w3.org/2000/svg" xmlns:svg="http://www.w3.org/2000/svg">
	<path id="MEDIAEXPERT" style="fill:#000000;stroke:#000000;stroke-width:0" d="M 195.31576,9.3091015 186.32493,0.2386963 C 186.20651,0.11933754 186.02913,0 185.85174,0 c -0.23659,0 -0.41422,0.11935877 -0.5324,0.2386963 l -8.99083,9.0704052 c -0.2958,0.2983733 -0.2958,0.7160815 0,1.0144555 l 8.99083,9.070393 c 0.11818,0.119359 0.29581,0.179015 0.5324,0.179015 0.17739,0 0.35477,-0.05966 0.47319,-0.179015 l 8.99083,-9.070393 c 0.2958,-0.298374 0.2958,-0.7160822 0,-1.0144555 z M 65.716436,24.467004 C 63.705264,22.139838 60.866129,20.707651 57.139588,20.230263 L 56.31139,20.110928 c -0.05921,0 -0.413982,-0.05968 -0.413982,-0.05968 l -1.301388,-0.05968 c -3.371531,0 -6.565676,0.656426 -9.464018,1.849896 -1.833784,0.775761 -4.19973,2.327378 -5.382703,3.162654 -1.360595,-2.028864 -3.312559,-3.520707 -5.974307,-4.296468 -1.301388,-0.358029 -2.720955,-0.596723 -4.436324,-0.656402 -3.016522,-0.119335 -6.861432,0.417708 -9.345745,1.312828 -1.597072,0.537068 -3.608196,1.491843 -5.678457,2.923889 V 21.66245 c 0,-0.417733 -0.354916,-0.716082 -0.709808,-0.716082 H 0.70980723 C 0.29575262,20.946369 0,21.244718 0,21.662451 v 42.845645 c 0,0.417755 0.29575262,0.716152 0.70980723,0.716152 H 14.432763 c 0.354892,0 0.709807,-0.298397 0.709807,-0.716152 v -29.95622 c 1.242157,-0.835275 3.726494,-2.028863 6.092509,-2.26758 1.71537,-0.119359 3.075895,0.179038 4.022274,1.014549 1.478774,1.253031 1.596954,3.460933 1.715369,4.415803 0,0.179038 0.118179,5.370672 0.118179,5.370672 v 21.422776 c 0,0.417755 0.35501,0.716152 0.71002,0.716152 h 13.60454 c 0.413982,0 0.709784,-0.298397 0.709784,-0.716152 v -29.95622 c 1.24218,-0.835275 3.785749,-2.028863 6.151694,-2.26758 1.715369,-0.119359 3.075729,0.179038 4.022343,1.014549 1.478539,1.253031 1.596954,3.460933 1.656162,4.415803 0,0.179038 0.177387,5.370672 0.177387,5.370672 v 21.422776 c 0,0.417755 0.295802,0.716152 0.709784,0.716152 h 13.782163 c 0.354774,0 0.709783,-0.298397 0.709783,-0.716152 V 36.640419 c 0,-5.549475 -1.123765,-9.30904 -3.608125,-12.173415 z M 219.56564,36.282342 c -1.12377,0.119359 -2.36595,0.298397 -3.60813,0.417756 -3.78575,0.537115 -7.03886,1.37239 -9.58243,2.506298 -2.48436,1.073993 -4.61371,2.864375 -6.2109,5.131955 -1.59696,2.267581 -2.18856,5.668834 -2.18856,8.055774 v 0.238717 c 0,2.924054 0.65081,6.862421 3.90393,9.846155 2.72095,2.506298 6.2109,3.819244 10.64722,3.878924 2.36595,0.05968 4.73189,-0.179039 7.03887,-0.716153 v -9.965513 c -0.5324,0.119358 -1.0648,0.179038 -1.59696,0.238717 -2.24776,0.05968 -3.78575,-0.298397 -4.79133,-2.148222 -0.2958,-0.477435 -0.47319,-1.193587 -0.47319,-2.028863 0,-1.074229 0.23659,-2.207901 1.00559,-3.28213 0.82819,-1.133908 2.72095,-2.148222 5.32349,-2.804695 0.17739,-0.05968 0.35501,-0.05968 0.5324,-0.119359 z m 0,-16.589311 c -2.78016,0.05968 -5.67851,0.358053 -8.63606,0.835441 l -5.97407,1.253149 -1.06479,0.238694 c -0.2958,0.05965 -0.59161,0.358029 -0.59161,0.656402 v 9.130144 c 0,0.179038 0.11842,0.417755 0.29581,0.537114 0.23659,0.178802 0.47319,0.178802 0.65081,0.119123 1.00558,-0.357841 3.60812,-1.253031 6.68385,-1.790146 1.893,-0.358076 4.25894,-0.596794 6.62489,-0.656473 0.70978,0 1.41956,0 2.01117,0.05968 z m 21.88582,17.305464 c -0.17692,-6.086825 -2.13006,-10.920383 -5.44191,-13.546017 -2.07039,-1.551522 -4.61371,-2.625633 -7.92627,-3.22238 -2.42516,-0.417708 -5.20508,-0.596746 -8.51764,-0.537067 v 10.383127 c 2.12935,0.05968 3.66733,0.477436 4.7911,1.253267 1.36059,0.835512 2.01117,2.327261 2.12958,4.356124 -2.30697,0.179038 -4.55474,0.358076 -6.92068,0.596793 v 9.249361 c 1.83378,-0.417755 4.19973,-0.716152 6.92068,-0.954634 v 8.055773 c -1.00558,0.775832 -3.84495,2.506298 -6.92068,3.043413 v 9.965513 c 1.47877,-0.298397 2.95755,-0.775832 4.37711,-1.312711 0,0 2.12936,-1.014549 3.37154,-1.551663 v 1.730466 c 0,0.417755 0.2958,0.716152 0.70978,0.716152 h 12.71737 c 0.35619,0 0.71002,-0.298397 0.71002,-0.716152 0,-0.238482 0.11794,-22.019569 0,-27.509365 z M 96.474906,19.573413 c -6.68409,0.238694 -12.066793,2.32726 -16.325731,6.385104 -4.258702,4.177085 -6.565676,10.144551 -6.624647,17.30537 -0.05921,7.160818 2.60254,13.90388 7.038864,17.663446 4.19973,3.580291 9.050037,5.251314 15.911514,5.430352 V 55.138904 c -1.951964,-0.298397 -3.430739,-0.89519 -4.613711,-1.790145 -1.183209,-0.95487 -2.661748,-3.103092 -3.016758,-6.206184 h 7.630469 v -9.428399 h -7.748884 c 0.177623,-2.38694 1.24218,-5.072276 2.543568,-6.205948 1.597191,-1.372626 2.95755,-1.909741 5.205316,-1.96942 z m 0,46.784272 h 2.129351 c 5.086903,-0.05968 9.345843,-0.775832 15.142523,-2.446619 0.2958,-0.05968 0.5324,-0.358076 0.5324,-0.716153 v -9.428399 c 0,-0.238717 -0.11818,-0.477435 -0.29581,-0.596793 -0.17738,-0.119359 -0.41398,-0.179039 -0.65057,-0.119359 -4.19973,1.432069 -8.93186,2.207901 -11.5344,2.32726 -2.070142,0.05968 -3.844719,0 -5.323494,-0.238718 z M 113.39201,25.600441 c -3.54916,-4.117477 -8.57685,-6.027028 -15.793339,-6.027028 h -1.123765 v 9.965395 h 0.413982 c 2.425153,0 4.022342,0.596794 5.323492,2.029099 1.00559,1.073993 1.95197,3.639971 1.95197,6.02691 v 0.119359 h -7.689444 v 9.428399 h 21.116834 c 0.41398,0 0.70978,-0.298397 0.70978,-0.715917 l 0.17739,-3.938603 v -0.715917 c 0,-6.982016 -1.59719,-12.173651 -5.0869,-16.171697 z m 32.59249,-5.309767 c -0.5324,-0.05968 -1.06456,-0.05968 -1.65616,-0.05968 -2.95755,0.05968 -6.56568,0.775761 -8.81345,1.790216 -2.66174,1.13379 -4.8503,2.685218 -6.80227,4.83344 -1.89299,2.029099 -3.31256,4.416039 -4.31814,7.220734 -1.06456,2.864138 -1.65616,6.504345 -1.65616,10.323353 0,6.027146 1.65616,11.517178 4.49553,14.97811 3.31232,4.057962 8.10366,6.265864 14.19614,6.504581 1.47878,0.05968 3.01653,-0.05968 4.55451,-0.238717 V 54.244893 c -2.77993,-0.05968 -4.73213,-0.954634 -6.1517,-2.804459 -1.30115,-1.611343 -1.95196,-4.29668 -1.95196,-7.876971 -0.059,-3.819245 0.8282,-6.922101 2.54357,-8.9512 1.30139,-1.551428 3.13493,-2.506298 5.56009,-2.864138 z M 168.52089,6.0286697 h -13.66374 c -0.41398,0 -0.70979,0.2983497 -0.70979,0.7160818 V 21.722838 c -0.8874,-0.358053 -1.95196,-0.656426 -2.83937,-0.835441 -1.41956,-0.238694 -3.07573,-0.537067 -5.32349,-0.596723 v 11.457451 c 0.8874,-0.119359 1.83378,-0.179038 2.83937,-0.119359 2.07014,0 4.14052,0.536878 5.32349,1.014314 v 19.513271 c -1.124,0.596793 -2.30697,1.133908 -3.48994,1.432305 -1.30139,0.41752 -3.13494,0.656237 -4.37712,0.656237 h -0.2958 v 11.397819 c 1.77457,-0.179039 3.48994,-0.537115 5.0869,-1.074229 1.30139,-0.417756 2.66198,-1.014314 3.84495,-1.670787 v 1.611107 c 0,0.417756 0.35478,0.775832 0.70979,0.775832 h 12.89475 c 0.41399,0 0.70979,-0.358076 0.70979,-0.775832 V 6.7447515 c 0,-0.4177321 -0.2958,-0.7160818 -0.70979,-0.7160818 z M 192.299,20.945189 h -13.66398 c -0.41398,0 -0.70979,0.298374 -0.70979,0.716082 v 42.845645 c 0,0.417756 0.29581,0.716153 0.70979,0.716153 H 192.299 c 0.41398,0 0.76899,-0.298397 0.76899,-0.716153 V 21.661271 c 0,-0.417708 -0.35501,-0.716082 -0.76899,-0.716082 z m 223.35257,-1.371776 c -6.68268,0.238694 -12.00665,2.327283 -16.26676,6.385104 -4.31673,4.177085 -6.62371,10.144551 -6.68268,17.30537 -0.059,7.160818 2.66081,13.90388 7.03887,17.663446 4.25775,3.580291 9.10995,5.251314 15.91057,5.430352 V 55.138904 c -1.89182,-0.298397 -3.37083,-0.89519 -4.55498,-1.790145 -1.24076,-0.95487 -2.6608,-3.103092 -3.07361,-6.206184 h 7.62859 v -9.428399 h -7.68992 c 0.12031,-2.38694 1.18416,-5.072276 2.54522,-6.205948 1.53799,-1.372626 2.89669,-1.909741 5.1447,-1.96942 z m 0,46.784272 h 2.18903 c 5.08808,-0.05968 9.28686,-0.775832 15.14394,-2.446619 0.29485,-0.05968 0.53074,-0.358076 0.53074,-0.716153 v -9.428399 c 0,-0.238717 -0.11794,-0.477435 -0.35383,-0.596793 -0.17691,-0.119359 -0.41516,-0.179039 -0.59208,-0.119359 -4.19878,1.432069 -8.93067,2.207901 -11.53486,2.32726 -2.13006,0.05968 -3.84496,0 -5.38294,-0.238718 z m 16.97678,-40.757244 c -3.60907,-4.117477 -8.63582,-6.027028 -15.8516,-6.027028 h -1.12518 v 9.965395 h 0.47413 c 2.36594,0 3.9629,0.596794 5.32397,2.029099 1.00487,1.073993 1.95078,3.639971 1.95078,6.02691 v 0.119359 h -7.74888 v 9.428399 h 21.17556 c 0.35619,0 0.71002,-0.298397 0.71002,-0.715917 l 0.17928,-3.938603 v -0.775596 c 0,-6.922337 -1.65829,-12.113972 -5.08808,-16.112018 z M 269.90414,19.573413 c -6.68504,0.238694 -12.06798,2.327283 -16.32574,6.385104 -4.25775,4.177085 -6.56473,10.144551 -6.68503,17.30537 -0.059,7.160818 2.66316,13.90388 7.03886,17.663446 4.26012,3.580291 9.10996,5.251314 15.97191,5.430352 V 55.138904 c -1.95315,-0.298397 -3.4298,-0.89519 -4.61395,-1.790145 -1.24313,-0.95487 -2.66081,-3.162772 -3.017,-6.206184 h 7.63095 v -9.428399 h -7.74889 c 0.17692,-2.38694 1.24313,-5.072276 2.54286,-6.205948 1.59696,-1.372626 2.95802,-1.909741 5.20603,-1.96942 z m 0,46.784272 h 2.13005 c 5.08573,-0.05968 9.34584,-0.775832 15.14158,-2.446619 0.29486,-0.05968 0.53311,-0.358076 0.53311,-0.716153 v -9.428399 c 0,-0.238717 -0.11795,-0.477435 -0.29722,-0.596793 -0.17691,-0.119359 -0.4128,-0.179039 -0.64869,-0.119359 -4.20114,1.432069 -8.93304,2.207901 -11.53487,2.32726 -2.07108,0.05968 -3.84495,0 -5.32396,-0.238718 z m 16.9178,-40.757244 c -3.55009,-4.117477 -8.57684,-6.027028 -15.79498,-6.027028 h -1.12282 v 9.965395 h 0.4128 c 2.42727,0 4.02423,0.596794 5.32396,2.029099 1.00724,1.073993 1.95315,3.639971 1.95315,6.086589 v 0.05968 h -7.68991 v 9.428399 h 21.11659 c 0.35383,0 0.71002,-0.298397 0.71002,-0.715917 l 0.17691,-3.938603 v -0.715917 c 0,-6.982016 -1.59695,-12.173651 -5.08572,-16.171697 z m 212.8832,29.359661 c -0.17927,-0.179038 -0.41516,-0.238717 -0.59207,-0.179038 -0.35619,0.119359 -3.5501,0.358076 -4.26012,0.358076 -1.95079,0.05968 -3.31185,-0.119359 -3.90393,-0.477435 -0.71002,-0.41752 -1.06385,-0.835275 -1.41768,-1.611107 -0.35619,-0.835512 -0.41516,-2.028863 -0.41516,-2.983734 l -0.059,-3.878688 V 32.522777 h 9.58172 c 0.35619,0 0.71002,-0.298161 0.71002,-0.715916 v -9.309159 c 0,-0.417708 -0.35383,-0.716081 -0.71002,-0.716081 h -9.81761 V 9.3694885 c 0,-0.2386939 -0.059,-0.4177085 -0.23825,-0.5370673 -0.17691,-0.1790145 -0.47177,-0.1790145 -0.65104,-0.1193351 l -13.48566,4.1174759 c -0.29486,0.05968 -0.47177,0.35803 -0.47177,0.656403 v 37.47509 c 0,5.728749 1.24076,9.30904 4.13981,11.69598 2.71978,2.26758 6.86195,3.461168 12.24489,3.461168 l 6.14957,-0.358076 0.65105,-0.05968 2.248,-0.358076 C 499.76411,65.283692 500,64.985295 500,64.627219 v -9.130002 c 0,-0.238718 -0.11794,-0.417756 -0.29486,-0.537115 z M 366.2026,20.528448 c -1.7149,0.238694 -3.4298,0.596723 -5.02911,1.13379 -1.35871,0.417732 -2.71978,1.014455 -3.90393,1.670881 v -1.670881 c 0,-0.417708 -0.29486,-0.716082 -0.70766,-0.716082 h -12.89593 c -0.35384,0 -0.71002,0.298374 -0.71002,0.716082 v 57.823731 c 0,0.358077 0.35618,0.716153 0.71002,0.716153 h 13.72389 c 0.35383,0 0.71002,-0.358076 0.71002,-0.716153 V 64.50786 c 0.88694,0.298397 1.89182,0.596794 2.77875,0.775832 1.42004,0.298397 3.13494,0.537114 5.32397,0.656473 V 54.482667 c -0.88694,0.119359 -1.83284,0.179038 -2.84008,0.119359 -2.06873,-0.05968 -4.13981,-0.536879 -5.26264,-1.014314 V 34.074441 c 1.06385,-0.656473 2.24565,-1.133908 3.4298,-1.491984 1.36107,-0.358077 3.13494,-0.596558 4.37806,-0.596558 h 0.29486 z m 18.80962,6.265816 c -3.37082,-4.057891 -8.16169,-6.206137 -14.25465,-6.444831 -1.47901,-0.05968 -3.01699,0 -4.55497,0.179015 v 11.457451 c 2.77875,0.05968 4.73189,0.954634 6.2109,2.804459 1.24077,1.611343 1.89181,4.237 1.95078,7.817291 0,3.819245 -0.88693,6.922101 -2.54286,9.010879 -1.30209,1.551429 -3.1939,2.506299 -5.61882,2.864139 v 11.457498 h 1.7149 c 2.89905,-0.05968 6.50576,-0.775832 8.75376,-1.730702 2.72213,-1.193352 4.85219,-2.74478 6.80298,-4.833558 1.89181,-2.088543 3.31185,-4.415803 4.37806,-7.280177 1.00488,-2.864139 1.59695,-6.504345 1.59695,-10.323354 0,-6.027146 -1.59695,-11.517177 -4.43703,-14.97811 z M 340.29278,64.09034 c 0,0 -15.0826,-21.363096 -15.67468,-22.198607 0.59208,-0.775596 14.72878,-19.811598 14.72878,-19.811598 0.059,-0.119335 0.11794,-0.298373 0.11794,-0.417708 0,-0.119359 0,-0.238694 -0.059,-0.358053 -0.11795,-0.238694 -0.35619,-0.358029 -0.65105,-0.358029 H 324.5591 c -0.23825,0 -0.41516,0.119335 -0.59208,0.298373 0,0 -6.97989,10.204302 -7.98477,11.696051 -1.00724,-1.491749 -7.9258,-11.696051 -7.9258,-11.696051 -0.1203,-0.179038 -0.35619,-0.298373 -0.59208,-0.298373 h -15.20291 c -0.23588,0 -0.47177,0.119335 -0.58971,0.358029 -0.0613,0.119359 -0.1203,0.238694 -0.1203,0.358053 0,0.119335 0.059,0.298373 0.17927,0.417708 0,0 14.78775,19.334398 15.37747,20.109995 -0.58972,0.89519 -15.67469,21.90021 -15.67469,21.90021 -0.059,0.119359 -0.11794,0.298397 -0.11794,0.417756 0,0.119358 0,0.238717 0.059,0.358076 0.11794,0.238717 0.41516,0.358076 0.65105,0.358076 h 14.84672 c 0.29486,0 0.47413,-0.119359 0.65105,-0.358076 0,0 7.21578,-11.69598 8.27963,-13.426682 1.0662,1.730702 8.0461,13.426682 8.0461,13.426682 0.17691,0.238717 0.35383,0.358076 0.65105,0.358076 h 15.20055 c 0.29486,0 0.5331,-0.119359 0.65104,-0.358076 0.059,-0.119359 0.059,-0.238718 0.059,-0.358076 0,-0.119359 0,-0.298397 -0.11795,-0.417756 z M 469.36065,21.065704 c -0.17691,-0.119359 -0.35383,-0.179015 -0.5331,-0.179015 -1.41768,0.119336 -3.60671,0.656403 -5.26264,1.312805 -2.13006,0.954776 -4.31909,2.506228 -6.2109,4.23693 v -4.773973 c 0,-0.417733 -0.29722,-0.716106 -0.71002,-0.716106 h -12.89594 c -0.35383,0 -0.71002,0.298373 -0.71002,0.716106 v 42.845645 c 0,0.417755 0.35619,0.716152 0.71002,0.716152 h 13.7239 c 0.35383,0 0.71002,-0.298397 0.71002,-0.716152 V 36.282578 c 0.4128,-0.179038 1.00488,-0.417755 1.00488,-0.417755 1.18415,-0.477435 2.36595,-1.01455 4.37806,-1.372626 2.1277,-0.358076 4.08084,-0.41752 5.26264,-0.298397 0.17927,0 0.41516,-0.05968 0.5331,-0.178802 0.17692,-0.179038 0.23589,-0.358077 0.23589,-0.537115 V 21.602771 c 0,-0.179038 -0.059,-0.417732 -0.23589,-0.537067 z" />
</svg>
