<svg id="MEDIAMARKT" width="500" height="75.319275" viewBox="0 0 500 75.319275" version="1.1" xml:space="preserve" xmlns:xlink="http://www.w3.org/1999/xlink" xmlns="http://www.w3.org/2000/svg" xmlns:svg="http://www.w3.org/2000/svg">
	<path id="MEDIAMARKT" style="fill:#000000;stroke:#000000;stroke-width:0" d="m 252.97745,28.077211 c -3.30178,-2.451218 -7.41506,-3.848894 -11.95103,-3.808419 -11.89122,0.121425 -23.07463,9.723721 -26.8011,21.635075 l 3.86804,-21.29074 h -11.26315 l -8.97365,49.367888 h 11.26256 l 3.80822,-20.98688 c -0.66793,12.417986 7.112,22.445568 18.81979,22.323944 4.65958,-0.04047 9.25736,-1.519301 13.37064,-3.990855 l -0.4865,2.653791 h 11.26316 l 8.97423,-49.367888 H 253.6055 Z m -2.34873,22.040222 c -1.76255,8.406994 -9.13774,14.160198 -16.69236,14.160198 -6.76707,0 -11.58816,-6.482547 -10.13067,-13.755051 1.68279,-8.406795 8.32625,-14.727244 16.28762,-14.727244 7.67824,0 12.21621,6.279975 10.53541,14.322097 z m -54.53451,-40.06955 -3.34266,18.373664 c -3.3626,-2.67393 -7.63697,-4.213567 -12.35717,-4.152755 -11.56702,0.121425 -22.46571,9.338712 -26.39555,20.90593 0.081,-12.053314 -8.14362,-20.90593 -19.6905,-20.90593 -10.81753,0 -21.53398,7.616838 -26.3756,17.664557 L 115.54976,6.7873244e-5 h -13.3499 L 66.911021,46.856122 75.419302,6.7873244e-5 H 63.852083 L 0,73.981015 H 16.04407 L 59.962714,23.093826 50.64414,73.981015 H 61.21863 L 99.505593,23.154639 90.268169,73.981015 h 11.830401 l 3.22104,-17.765845 c 1.01287,10.817538 8.69052,19.102909 19.97401,19.102909 11.10126,0 21.25027,-7.576364 25.95013,-18.029429 h -11.91156 c -2.91717,4.355526 -7.41426,7.029455 -12.55974,7.029455 -4.78081,0 -9.96677,-3.382935 -10.43273,-9.703384 h 36.05866 c 0.0609,11.648169 7.61684,20.824982 18.75857,20.703358 4.84162,-0.06081 9.6021,-1.640925 13.836,-4.314853 l -0.5469,2.998125 h 11.26315 l 11.6075,-63.933232 h -11.22249 z m -76.49298,33.465579 c 3.0386,-4.638851 7.75861,-7.677651 12.92443,-7.677651 5.38852,0 8.83227,3.079274 9.86547,7.677651 z m 70.25349,6.624308 c -1.76235,8.406995 -8.81195,14.160197 -16.38831,14.160197 -5.71273,0 -12.15461,-4.821485 -10.23016,-13.75505 1.80283,-8.386657 8.60937,-14.727243 16.08445,-14.727243 7.67764,0 12.21541,6.279774 10.53402,14.322096 z m 299.57,-25.504458 2.65378,-14.585521 h -11.26315 l -2.6538,14.585521 h -17.64342 l -11.42666,14.079048 5.2079,-28.664569 h -11.26316 l -2.5541,14.038613 h -1.33587 c -2.73553,0 -6.2387,1.053341 -9.52055,2.977789 l 0.44462,-2.451217 h -11.26316 l -8.97423,49.368086 h 11.26316 l 5.14608,-28.340533 c 1.78248,-7.941035 6.48195,-10.837874 11.68784,-10.837874 h 0.58819 l -7.11001,39.15807 h 11.26316 l 3.72647,-20.541258 12.33783,20.541258 h 21.71483 l 7.0502,-38.813736 h 10.57528 L 500,24.592837 h -10.57528 z m -19.50766,45.356895 -13.91695,-23.154575 15.63962,-19.183858 -1.37774,7.53569 h 5.97552 z m -64.54036,-45.356895 -0.62806,3.464084 c -3.30178,-2.451217 -7.41505,-3.848894 -11.95302,-3.808419 -10.99998,0.101281 -21.41177,8.36632 -25.84805,19.021959 L 374.8272,0 H 361.4785 L 326.16972,46.876307 334.6774,0.0202554 H 323.10919 L 259.2587,74.0012 h 16.04238 L 319.22121,23.114012 309.90204,74.0012 h 10.57529 L 358.78284,23.174824 349.54541,74.0012 h 11.8314 l 3.32173,-18.292615 c 0.50643,11.141734 7.9813,19.730965 18.83971,19.609342 4.6596,-0.04047 9.25737,-1.519301 13.37064,-3.990656 l -0.48649,2.653791 h 11.26317 l 8.97423,-49.368086 h -11.2831 z m -2.97878,25.504306 c -1.76255,8.406994 -9.13574,14.160198 -16.69236,14.160198 -6.76508,0 -11.58617,-6.482547 -10.12868,-13.755051 1.6828,-8.406794 8.32625,-14.727244 16.28762,-14.727244 7.67825,0 12.21622,6.279975 10.53342,14.322097 z M 218.3366,23.255925 220.72721,10.027606 h -11.26316 l -2.3906,13.228319 z" />
</svg>
