<svg id="MEDIAMARKT" width="500" height="67.329857" viewBox="0 0 500 67.329857" version="1.1" xml:space="preserve" xmlns:xlink="http://www.w3.org/1999/xlink" xmlns="http://www.w3.org/2000/svg" xmlns:svg="http://www.w3.org/2000/svg">
	<path id="MEDIAMARKT" style="fill:#000000;stroke:#000000;stroke-width:0" d="m 262.87674,45.686632 c 4.81597,-1.217187 9.66666,-4.674479 9.77257,-9.89566 -0.21181,0.723264 -0.84723,2.734028 -2.69966,4.568577 -2.875,2.83993 -7.23264,3.527777 -11.11284,2.998611 -8.60764,-1.164236 -17.58507,-7.708334 -22.93056,-17.956597 -0.97049,3.827604 -1.25174,7.761111 -0.86458,11.64184 7.76215,7.320139 18.04514,11.18316 27.83507,8.643229 z m -42.59896,-19.72066 c -2.875,-2.134375 -6.4566,-3.351389 -10.40625,-3.316146 -10.35417,0.10573 -20.09202,8.466841 -23.33681,18.838542 l 3.36806,-18.538715 h -9.80729 l -7.81372,42.986632 h 9.80677 l 3.31597,-18.274132 c -0.58159,10.812847 6.19271,19.544271 16.38716,19.438368 4.05729,-0.03524 8.06076,-1.322917 11.64236,-3.475 l -0.42361,2.310764 h 9.80729 l 7.81423,-42.986632 h -9.80729 z m -2.04514,19.19132 c -1.53472,7.320312 -7.9566,12.329861 -14.53472,12.329861 -5.89236,0 -10.09028,-5.644618 -8.82118,-11.977083 1.46527,-7.320139 7.25,-12.823612 14.18229,-12.823612 6.68576,0 10.63715,5.46823 9.17361,12.470834 z m 53.67535,1.411284 c 2.89236,-4.039409 4.40972,-9.789756 1.12847,-13.864409 0.30035,0.687847 1.11111,2.645833 0.86458,5.22118 -0.36979,4.021702 -3.26389,7.355556 -6.57986,9.436979 -7.33681,4.639063 -18.43229,5.39757 -29.12153,0.970139 1.65799,3.457292 3.93403,6.667535 6.80903,9.472223 10.67188,0.652604 21.02604,-2.998612 26.89931,-11.236112 z m 7.47916,-5.132986 c -0.37153,-4.95677 -2.91146,-10.336632 -8.0434,-11.342014 0.67014,0.33507 2.55729,1.305209 4.02083,3.439584 2.29341,3.316146 2.22223,7.725868 1.02431,11.465451 -2.64583,8.272743 -10.65452,15.981077 -21.67882,19.456077 3.61632,1.640451 7.44271,2.592882 11.30555,2.875173 8.59028,-6.350173 14.16494,-15.804687 13.37153,-25.894271 z M 170.74722,10.267101 167.83663,26.265799 c -2.92795,-2.328299 -6.64982,-3.668924 -10.75989,-3.615973 -10.07188,0.10573 -19.56181,8.131598 -22.98368,18.203646 0.0705,-10.495312 -7.09098,-18.203646 -17.14532,-18.203646 -9.41927,0 -18.750518,6.632292 -22.966316,15.38125 L 100.61389,1.5180591 H 88.989583 L 58.262153,42.317535 65.67066,1.5180591 H 55.598611 L 0,65.936285 H 13.970226 L 52.211979,21.626736 44.097917,65.936285 h 9.207639 L 86.643576,21.679688 78.600174,65.936285 H 88.901389 L 91.706076,50.46684 c 0.881945,9.419271 7.567188,16.633681 17.392184,16.633681 9.66632,0 18.50348,-6.597049 22.59584,-15.698958 h -10.37188 c -2.5401,3.792534 -6.4559,6.120833 -10.93628,6.120833 -4.16285,0 -8.67847,-2.94566 -9.0842,-8.449132 h 31.39774 c 0.053,10.142535 6.63229,18.13316 16.33385,18.027257 4.2158,-0.05295 8.36094,-1.42882 12.04757,-3.757118 l -0.47621,2.61059 h 9.80729 L 180.5191,10.284722 h -9.77188 z m -66.60555,29.139844 c 2.64583,-4.039237 6.75573,-6.685244 11.25382,-6.685244 4.69201,0 7.69062,2.68125 8.59027,6.685244 z M 165.31424,45.175 c -1.53455,7.320313 -7.67292,12.329861 -14.26997,12.329861 -4.9743,0 -10.58351,-4.198264 -8.90781,-11.977083 1.56979,-7.302604 7.49653,-12.823611 14.00538,-12.823611 6.68524,0 10.63646,5.468055 9.1724,12.470833 z m 325.47743,-22.225347 2.31076,-12.700208 h -9.80729 l -2.31077,12.700208 h -15.36284 l -9.94966,12.259201 4.53473,-24.959409 h -9.80729 l -2.22396,12.223993 h -1.1632 c -2.38194,0 -5.43229,0.917187 -8.28993,2.592882 l 0.38715,-2.134375 h -9.80729 l -7.81423,42.986805 h 9.80729 l 4.4809,-24.677257 c 1.55208,-6.914583 5.6441,-9.436979 10.17708,-9.436979 h 0.51216 l -6.19097,34.096528 h 9.80729 l 3.24479,-17.886111 10.74305,17.886111 h 18.90799 l 6.13889,-33.796702 h 9.20833 L 500,22.91441 h -9.20833 z M 473.80556,62.44375 461.6875,42.282118 475.30556,25.577951 474.1059,32.139583 h 5.20313 z M 268.38021,29.193924 c 0.72222,-0.176389 2.78646,-0.63507 5.29166,0.05295 3.89757,1.076042 6.66667,4.497917 8.14931,8.114063 3.29861,8.043402 2.11632,19.08559 -4.09201,28.83993 3.72222,-1.040625 7.28472,-2.734028 10.51215,-5.044792 2.47049,-10.389409 0.67014,-21.2375 -6.42014,-28.434375 -3.4566,-3.580729 -8.87326,-6.067881 -13.44097,-3.527777 z m 149.22743,-6.244271 -0.54688,3.016319 c -2.875,-2.134375 -6.45659,-3.351389 -10.40798,-3.316146 -9.57813,0.08819 -18.6441,7.284896 -22.50695,16.563195 L 391.00694,1.5004237 H 379.38368 L 348.63889,42.317535 356.04687,1.5180609 H 345.97396 L 290.37674,65.936285 h 13.96875 l 38.24305,-44.309549 -8.11458,44.309549 h 9.20833 l 33.35417,-44.256597 -8.0434,44.256597 h 10.30208 L 382.1875,50.00816 c 0.44097,9.701562 6.94965,17.180555 16.40451,17.074653 4.0573,-0.03524 8.06077,-1.322917 11.64236,-3.474827 l -0.42361,2.310764 h 9.8073 l 7.81423,-42.986805 h -9.82465 z m -2.59375,22.207639 c -1.53472,7.320312 -7.95486,12.329861 -14.53472,12.329861 -5.89063,0 -10.08855,-5.644618 -8.81945,-11.977083 1.46528,-7.320139 7.25,-12.823612 14.18229,-12.823612 6.68577,0 10.63716,5.46823 9.17188,12.470834 z m -153.9184,-22.36632 c -1.34028,4.780209 -0.79341,10.706945 3.68576,13.405729 -0.51042,-0.529166 -1.93924,-2.099131 -2.61111,-4.621527 -1.02257,-3.898264 0.56597,-8.025868 2.94618,-11.112674 5.30903,-6.861597 15.47049,-11.3596006 27.00521,-10.8833332 -2.78646,-2.716441 -6.03125,-4.9566146 -9.61285,-6.5794097 C 272.29514,6.0513196 263.7934,13.036441 261.09549,22.790972 Z m 8.78472,-2.257812 c -4.11111,2.804514 -7.49827,7.690625 -5.80382,12.647222 -0.0538,-0.740799 -0.14063,-2.857639 0.97048,-5.203646 1.72744,-3.651215 5.59028,-5.78559 9.40105,-6.614583 8.48437,-1.852083 19.15625,1.234722 27.67534,9.03125 -0.38715,-3.863021 -1.42882,-7.67309 -3.13889,-11.218577 -9.77256,-4.268628 -20.76215,-4.374461 -29.10416,1.358334 z m -2.61111,17.533333 c -0.74132,-0.08819 -2.84028,-0.352778 -4.9566,-1.869792 -3.29861,-2.328472 -4.72743,-6.508854 -4.88715,-10.407118 -0.35243,-8.678489 4.53472,-18.6446176 13.70659,-25.70029296 -3.8993,-0.28222743 -7.83159,0.1058316 -11.60763,1.14654166 -5.87327,8.9077793 -7.88369,19.7205923 -3.68577,28.9105223 2.02778,4.551042 6.26215,8.731424 11.43056,7.920139 z m -1.76389,-7.67309 c 0.44097,-0.599827 1.72743,-2.275521 4.09201,-3.369097 3.6684,-1.675695 8.00868,-0.846702 11.46528,0.970139 7.69097,4.039409 13.88194,13.264756 15.39931,24.7125 2.25694,-3.298612 3.86284,-6.896875 4.81597,-10.61875 C 296.49653,32.545313 288.15278,25.401563 278.0816,24.431424 273.125,23.9375 267.39236,25.525 265.50521,30.393403 Z m -8.97917,8.819618 c 4.4809,2.15191 10.40799,2.645833 13.84722,-1.305382 -0.61805,0.405729 -2.41666,1.552257 -4.99132,1.763889 -4.02257,0.317535 -7.81423,-1.940278 -10.4427,-4.83316 -5.83855,-6.42066 -8.50174,-17.19809 -6.01563,-28.48717 -3.26215,2.3283681 -5.97917,5.168281 -8.1493,8.343333 1.21701,10.601129 6.63194,20.161545 15.75173,24.51849 z m -66.41146,-17.445139 2.0816,-11.518437 h -9.80729 l -2.0816,11.518437 z" />
</svg>
