<?xml version="1.0" encoding="UTF-8" standalone="no"?>
<svg
   role="img"
   aria-labelledby="Media Expert | Sklep internetowy RTV, AGD, komputery"
   width="200"
   height="32.080849"
   viewBox="0 0 200 32.080849"
   fill="none"
   class="desktop"
   data-v-858cada0=""
   version="1.1"
   id="svg15"
   sodipodi:docname="EMBARGO.svg"
   inkscape:version="1.4.2 (ebf0e94, 2025-05-08)"
   xmlns:inkscape="http://www.inkscape.org/namespaces/inkscape"
   xmlns:sodipodi="http://sodipodi.sourceforge.net/DTD/sodipodi-0.dtd"
   xmlns="http://www.w3.org/2000/svg"
   xmlns:svg="http://www.w3.org/2000/svg"
   xmlns:rdf="http://www.w3.org/1999/02/22-rdf-syntax-ns#"
   xmlns:cc="http://creativecommons.org/ns#"
   xmlns:dc="http://purl.org/dc/elements/1.1/">
  <defs
     id="defs15" />
  <sodipodi:namedview
     id="namedview15"
     pagecolor="#ffffff"
     bordercolor="#000000"
     borderopacity="0.25"
     inkscape:showpageshadow="2"
     inkscape:pageopacity="0.0"
     inkscape:pagecheckerboard="0"
     inkscape:deskcolor="#d1d1d1"
     showguides="false"
     inkscape:zoom="4.8528226"
     inkscape:cx="97.675114"
     inkscape:cy="-2.9879518"
     inkscape:window-width="2560"
     inkscape:window-height="991"
     inkscape:window-x="2294"
     inkscape:window-y="-9"
     inkscape:window-maximized="1"
     inkscape:current-layer="svg15" />
  <title
     data-v-858cada0=""
     id="title1">Media Expert | Sklep internetowy RTV, AGD, komputery</title>
  <desc
     data-v-858cada0=""
     id="desc1">Media Expert | Sklep internetowy RTV, AGD, komputery</desc>
  <path
     d="m 187.74426,8.4262816 c -0.0708,-0.047743 -0.14153,-0.071606 -0.21324,-0.071606 -0.56707,0.047734 -1.44269,0.262561 -2.10506,0.525122 -0.85202,0.3819103 -1.72763,1.002491 -2.48436,1.6947724 V 8.6649802 c 0,-0.1670928 -0.11888,-0.2864421 -0.284,-0.2864421 h -5.15838 c -0.14153,0 -0.28401,0.1193493 -0.28401,0.2864421 V 25.803238 c 0,0.167103 0.14248,0.286461 0.28401,0.286461 h 5.48956 c 0.14153,0 0.28401,-0.119358 0.28401,-0.286461 V 14.513031 c 0.16512,-0.07161 0.40195,-0.167102 0.40195,-0.167102 0.47366,-0.190974 0.94638,-0.40582 1.75122,-0.54905 0.85108,-0.143231 1.63234,-0.167008 2.10506,-0.119359 0.0717,0 0.16606,-0.02387 0.21324,-0.07152 0.0708,-0.07162 0.0944,-0.14323 0.0944,-0.214846 V 8.6411085 c 0,-0.071615 -0.0236,-0.1670929 -0.0944,-0.2148269 z"
     fill="#ffffff"
     data-v-858cada0=""
     data-darkreader-inline-fill=""
     id="path1"
     style="fill:#000000;stroke-width:0.943548" />
  <path
     d="m 136.11711,25.636136 c 0,0 -6.03304,-8.545238 -6.26987,-8.879443 0.23683,-0.310238 5.89151,-7.9246388 5.89151,-7.9246388 0.0236,-0.047734 0.0472,-0.1193493 0.0472,-0.1670834 0,-0.047744 0,-0.095478 -0.0236,-0.1432211 -0.0472,-0.095478 -0.14248,-0.1432116 -0.26042,-0.1432116 h -5.67827 c -0.0953,0 -0.16606,0.047734 -0.23683,0.1193493 0,0 -2.79196,4.0817206 -3.19391,4.6784206 -0.40289,-0.5967 -3.17032,-4.6784206 -3.17032,-4.6784206 -0.0481,-0.071615 -0.14247,-0.1193493 -0.23683,-0.1193493 h -6.08116 c -0.0944,0 -0.18871,0.047734 -0.23589,0.1432116 -0.0245,0.047743 -0.0481,0.095478 -0.0481,0.1432211 0,0.047734 0.0236,0.1193493 0.0717,0.1670834 0,0 5.9151,7.7337588 6.15099,8.0439978 -0.23589,0.358076 -6.26988,8.760084 -6.26988,8.760084 -0.0236,0.04774 -0.0472,0.119359 -0.0472,0.167102 0,0.04774 0,0.09549 0.0236,0.143231 0.0472,0.09549 0.16607,0.14323 0.26042,0.14323 h 5.93869 c 0.11794,0 0.18965,-0.04774 0.26042,-0.14323 0,0 2.88631,-4.678392 3.31185,-5.370673 0.42649,0.692281 3.21844,5.370673 3.21844,5.370673 0.0708,0.09549 0.14154,0.14323 0.26042,0.14323 h 6.08022 c 0.11795,0 0.21324,-0.04774 0.26042,-0.14323 0.0236,-0.04774 0.0236,-0.09549 0.0236,-0.143231 0,-0.04774 0,-0.119359 -0.0472,-0.167102 z"
     fill="#ffffff"
     data-v-858cada0=""
     data-darkreader-inline-fill=""
     id="path2"
     style="fill:#000000;stroke-width:0.943548" />
  <path
     d="m 146.48104,8.2113792 c -0.68596,0.095478 -1.37192,0.2386892 -2.01164,0.4535161 -0.54349,0.1670928 -1.08791,0.4057821 -1.56158,0.6683525 V 8.6648953 c 0,-0.1670834 -0.11794,-0.2864327 -0.28306,-0.2864327 h -5.15837 c -0.14154,0 -0.28401,0.1193493 -0.28401,0.2864327 V 31.794388 c 0,0.14323 0.14247,0.286461 0.28401,0.286461 h 5.48956 c 0.14153,0 0.284,-0.143231 0.284,-0.286461 v -5.991244 c 0.35478,0.119359 0.75673,0.238717 1.1115,0.310333 0.56802,0.119358 1.25398,0.214845 2.12959,0.262589 v -4.582999 c -0.35477,0.04774 -0.73314,0.07161 -1.13603,0.04774 -0.82749,-0.02387 -1.65593,-0.214751 -2.10506,-0.405725 v -7.805309 c 0.42554,-0.262589 0.89826,-0.453563 1.37192,-0.596793 0.54443,-0.143231 1.25398,-0.238624 1.75123,-0.238624 h 0.11794 z m 7.52385,2.5063268 c -1.34833,-1.6231569 -3.26468,-2.4824551 -5.70186,-2.5779326 -0.5916,-0.023872 -1.2068,0 -1.82199,0.071606 v 4.5829796 c 1.1115,0.02387 1.89276,0.381854 2.48436,1.121784 0.49631,0.644537 0.75673,1.6948 0.78031,3.126917 0,1.527698 -0.35477,2.76884 -1.01714,3.604351 -0.52084,0.620572 -1.27756,1.00252 -2.24753,1.145656 v 4.582999 h 0.68596 c 1.15962,-0.02387 2.6023,-0.310333 3.5015,-0.692281 1.08886,-0.477341 1.94088,-1.097912 2.72119,-1.933423 0.75673,-0.835417 1.32475,-1.766321 1.75123,-2.912071 0.40195,-1.145655 0.63878,-2.601738 0.63878,-4.129341 0,-2.410859 -0.63878,-4.606871 -1.77481,-5.991244 z"
     fill="#ffffff"
     data-v-858cada0=""
     data-darkreader-inline-fill=""
     id="path3"
     style="fill:#000000;stroke-width:0.943548" />
  <path
     d="m 199.88206,21.984041 c -0.0717,-0.07162 -0.16607,-0.09549 -0.23683,-0.07162 -0.14248,0.04774 -1.42004,0.14323 -1.70405,0.14323 -0.78031,0.02387 -1.32474,-0.04774 -1.56157,-0.190974 -0.28401,-0.167008 -0.42554,-0.33411 -0.56707,-0.644443 -0.14248,-0.334204 -0.16607,-0.811545 -0.16607,-1.193493 l -0.0236,-1.551475 v -5.46616 h 3.83269 c 0.14248,0 0.28401,-0.119265 0.28401,-0.286367 V 8.999081 c 0,-0.1670834 -0.14153,-0.2864327 -0.28401,-0.2864327 h -3.92704 V 3.7477954 c 0,-0.095478 -0.0236,-0.1670834 -0.0953,-0.2148269 -0.0708,-0.071606 -0.18871,-0.071606 -0.26042,-0.047734 l -5.39426,1.6469906 c -0.11794,0.023872 -0.18871,0.1432116 -0.18871,0.262561 V 20.384822 c 0,2.2915 0.49631,3.723616 1.65593,4.678392 1.08791,0.907032 2.74478,1.384467 4.89795,1.384467 l 2.45983,-0.14323 0.26042,-0.02387 0.8992,-0.143231 C 199.90565,26.113477 200,25.994118 200,25.850887 v -3.652 c 0,-0.09549 -0.0472,-0.167103 -0.11794,-0.214846 z"
     fill="#ffffff"
     data-v-858cada0=""
     data-darkreader-inline-fill=""
     id="path4"
     style="fill:#000000;stroke-width:0.943548" />
  <path
     d="m 107.96165,7.8293651 c -2.67401,0.095478 -4.82719,0.9309134 -6.53029,2.5540419 -1.703102,1.670834 -2.625891,4.05782 -2.674012,6.922148 -0.02359,2.864327 1.065265,5.561552 2.815542,7.065378 1.70405,1.432117 3.64398,2.100526 6.38876,2.172141 v -4.487512 c -0.78125,-0.119359 -1.37191,-0.358077 -1.84557,-0.716058 -0.49725,-0.381949 -1.06433,-1.265109 -1.2068,-2.482474 h 3.05237 v -3.77136 h -3.09955 c 0.0708,-0.954775 0.49725,-2.02891 1.01714,-2.482379 0.63879,-0.54905 1.18321,-0.763896 2.08241,-0.787768 z m 0,18.7137089 h 0.85203 c 2.03429,-0.02387 3.73833,-0.310333 6.05663,-0.978648 0.11794,-0.02387 0.21324,-0.14323 0.21324,-0.286461 v -3.771359 c 0,-0.09549 -0.0472,-0.190974 -0.11889,-0.238718 -0.0708,-0.04774 -0.16512,-0.07161 -0.25947,-0.04774 -1.68046,0.572827 -3.57322,0.88316 -4.61395,0.930904 -0.82843,0.02387 -1.53798,0 -2.12959,-0.09549 z m 6.76713,-16.302898 c -1.42004,-1.6469903 -3.43074,-2.4108109 -6.318,-2.4108109 h -0.44913 v 3.9861579 h 0.16513 c 0.97091,0 1.60969,0.238718 2.12958,0.81164 0.4029,0.429597 0.78126,1.455988 0.78126,2.434636 v 0.02387 h -3.07597 v 3.77136 h 8.44664 c 0.14153,0 0.28401,-0.119359 0.28401,-0.286367 l 0.0708,-1.575441 v -0.286367 c 0,-2.792806 -0.63879,-4.86946 -2.03429,-6.468679 z"
     fill="#ffffff"
     data-v-858cada0=""
     data-darkreader-inline-fill=""
     id="path5"
     style="fill:#000000;stroke-width:0.943548" />
  <path
     d="m 166.26063,7.8293651 c -2.67307,0.095478 -4.80266,0.9309134 -6.50671,2.5540419 -1.72669,1.670834 -2.64948,4.05782 -2.67307,6.922148 -0.0236,2.864327 1.06432,5.561552 2.81555,7.065378 1.7031,1.432117 3.64398,2.100526 6.36423,2.172141 v -4.487512 c -0.75673,-0.119359 -1.34833,-0.358077 -1.82199,-0.716058 -0.49631,-0.381949 -1.06433,-1.241237 -1.22945,-2.482474 h 3.05144 v -3.77136 h -3.07597 c 0.0481,-0.954775 0.47366,-2.02891 1.01809,-2.482379 0.61519,-0.54905 1.15868,-0.763896 2.05788,-0.787768 z m 0,18.7137089 h 0.87561 c 2.03523,-0.02387 3.71475,-0.310333 6.05757,-0.978648 0.11795,-0.02387 0.2123,-0.14323 0.2123,-0.286461 v -3.771359 c 0,-0.09549 -0.0472,-0.190974 -0.14153,-0.238718 -0.0708,-0.04774 -0.16606,-0.07161 -0.23683,-0.04774 -1.67951,0.572827 -3.57227,0.88316 -4.61395,0.930904 -0.85202,0.02387 -1.53798,0 -2.15317,-0.09549 z m 6.79071,-16.302898 C 171.60771,8.5931857 169.59701,7.8293651 166.7107,7.8293651 h -0.45007 v 3.9861579 h 0.18965 c 0.94638,0 1.58516,0.238718 2.12959,0.81164 0.40195,0.429597 0.78031,1.455988 0.78031,2.410764 v 0.04774 h -3.09955 v 3.77136 h 8.47022 c 0.14248,0 0.28401,-0.119359 0.28401,-0.286367 l 0.0717,-1.575441 V 16.68498 c 0,-2.768934 -0.66331,-4.845588 -2.03523,-6.444807 z"
     fill="#ffffff"
     data-v-858cada0=""
     data-darkreader-inline-fill=""
     id="path6"
     style="fill:#000000;stroke-width:0.943548" />
  <path
     d="m 76.9196,8.3780757 h -5.465593 c -0.165593,0 -0.283914,0.1193494 -0.283914,0.2864328 V 25.802766 c 0,0.167103 0.118321,0.286462 0.283914,0.286462 H 76.9196 c 0.165593,0 0.307597,-0.119359 0.307597,-0.286462 V 8.6645085 c 0,-0.1670834 -0.142004,-0.2864328 -0.307597,-0.2864328 z"
     fill="#fff200"
     data-v-858cada0=""
     data-darkreader-inline-fill=""
     id="path7"
     style="fill:#000000;stroke-width:0.943548" />
  <path
     d="m 58.393799,8.1162696 c -0.212959,-0.023872 -0.425823,-0.023872 -0.662465,-0.023872 -1.18302,0.023872 -2.62627,0.3103045 -3.525376,0.7160866 -1.064699,0.4535161 -1.940123,1.0740873 -2.720909,1.9333758 -0.757196,0.81164 -1.325023,1.766416 -1.727258,2.888294 -0.425823,1.145655 -0.662464,2.601738 -0.662464,4.129341 0,2.410859 0.662464,4.606871 1.798213,5.991244 1.324929,1.623185 3.241463,2.506346 5.678457,2.601833 0.59151,0.02387 1.206609,-0.02387 1.821802,-0.09549 v -4.559128 c -1.111971,-0.02387 -1.892851,-0.381853 -2.460678,-1.121783 -0.52046,-0.644538 -0.780785,-1.718672 -0.780785,-3.150789 -0.02359,-1.527698 0.331279,-2.76884 1.017427,-3.58048 0.520555,-0.620571 1.253975,-1.002519 2.224036,-1.145655 z m 9.014559,-5.7048017 h -5.465499 c -0.165593,0 -0.283914,0.1193399 -0.283914,0.2864327 V 8.689135 C 61.303983,8.545914 60.87816,8.4265646 60.523197,8.3549588 59.95537,8.2594812 59.292905,8.1401319 58.393799,8.1162696 V 12.69925 c 0.354963,-0.04774 0.733514,-0.07161 1.135748,-0.04774 0.828058,0 1.656209,0.214752 2.129398,0.405726 v 7.805308 c -0.4496,0.238718 -0.922789,0.453564 -1.395978,0.572922 -0.520555,0.167008 -1.253975,0.262495 -1.750847,0.262495 h -0.118321 v 4.559128 c 0.709831,-0.07162 1.395979,-0.214846 2.03476,-0.429692 0.520555,-0.167102 1.064794,-0.405725 1.537983,-0.668315 v 0.644443 c 0,0.167103 0.141909,0.310333 0.283913,0.310333 h 5.157903 c 0.165593,0 0.283913,-0.14323 0.283913,-0.310333 V 2.6979006 c 0,-0.1670928 -0.11832,-0.2864327 -0.283913,-0.2864327 z"
     fill="#fff200"
     data-v-858cada0=""
     data-darkreader-inline-fill=""
     id="path8"
     style="fill:#000000;stroke-width:0.943548" />
  <path
     d="m 38.589963,7.8293651 c -2.673637,0.095478 -4.826718,0.930904 -6.530293,2.5540419 -1.703481,1.670834 -2.62627,4.05782 -2.649859,6.922148 -0.02368,2.864327 1.041016,5.561552 2.815546,7.065378 1.679892,1.432117 3.620014,2.100526 6.364606,2.172141 V 22.055562 C 37.809177,21.936203 37.217667,21.697485 36.744478,21.339504 36.271194,20.957555 35.679779,20.098267 35.537775,18.85703 h 3.052188 v -3.77136 h -3.099554 c 0.07105,-0.954775 0.496872,-2.02891 1.017427,-2.482379 0.638876,-0.54905 1.18302,-0.763896 2.082127,-0.787768 z m 0,18.7137089 h 0.85174 c 2.03476,-0.02387 3.738335,-0.310333 6.057009,-0.978648 0.118321,-0.02387 0.212959,-0.14323 0.212959,-0.286461 v -3.771359 c 0,-0.09549 -0.04727,-0.190974 -0.118321,-0.238718 -0.07095,-0.04774 -0.165593,-0.07161 -0.260231,-0.04774 -1.679892,0.572827 -3.572742,0.88316 -4.613758,0.930904 -0.828058,0.02387 -1.537888,0 -2.129398,-0.09549 z m 6.76684,-16.302898 C 43.937141,8.5931857 41.926064,7.8293651 39.039469,7.8293651 h -0.449506 v 3.9861579 h 0.165592 c 0.970061,0 1.608937,0.238718 2.129398,0.81164 0.402235,0.429597 0.780786,1.455988 0.780786,2.410764 v 0.04774 h -3.075776 v 3.77136 h 8.446732 c 0.165592,0 0.283913,-0.119359 0.283913,-0.286367 l 0.07095,-1.575441 v -0.286367 c 0,-2.792806 -0.638876,-4.86946 -2.03476,-6.468679 z"
     fill="#fff200"
     data-v-858cada0=""
     data-darkreader-inline-fill=""
     id="path9"
     style="fill:#000000;stroke-width:0.943548" />
  <path
     d="m 87.826255,14.512937 c -0.449506,0.04774 -0.946378,0.119359 -1.44325,0.167102 -1.5143,0.214846 -2.815546,0.548956 -3.832973,1.00252 -0.993745,0.429597 -1.845485,1.145749 -2.484361,2.052782 -0.638782,0.907032 -0.875424,2.267533 -0.875424,3.222309 v 0.09549 c 0,1.169621 0.260325,2.744968 1.561572,3.938462 1.088382,1.002519 2.48436,1.527697 4.25889,1.551569 0.946378,0.02387 1.892757,-0.07162 2.815546,-0.286461 v -3.986205 c -0.212959,0.04774 -0.425917,0.07161 -0.638782,0.09549 -0.899106,0.02387 -1.514299,-0.119359 -1.916533,-0.859289 -0.118321,-0.190974 -0.189276,-0.477435 -0.189276,-0.811545 0,-0.429692 0.09464,-0.883161 0.402234,-1.312852 0.33128,-0.453563 1.088382,-0.859289 2.129398,-1.121878 0.07095,-0.02387 0.142004,-0.02387 0.212959,-0.04774 z m 0,-6.6357246 c -1.112065,0.023872 -2.271402,0.1432211 -3.454422,0.3341762 l -2.389628,0.5012597 -0.425918,0.095477 c -0.118321,0.023862 -0.236641,0.1432117 -0.236641,0.262561 v 3.6520577 c 0,0.07161 0.04737,0.167102 0.11832,0.214846 0.09464,0.07152 0.189276,0.07152 0.260325,0.04765 0.402235,-0.143136 1.443251,-0.501212 2.673542,-0.716058 0.757197,-0.143231 1.703575,-0.238718 2.649954,-0.262589 0.283913,0 0.567826,0 0.804468,0.02387 z m 8.754329,6.9221856 C 96.509818,12.364668 95.72856,10.431245 94.403819,9.3809913 93.575668,8.7603823 92.558335,8.3307379 91.233311,8.0920393 90.26325,7.9249559 89.151279,7.8533406 87.826255,7.8772124 v 4.1532506 c 0.851741,0.02387 1.466934,0.190974 1.91644,0.501307 0.544238,0.334205 0.804468,0.930904 0.851834,1.742449 -0.922789,0.07162 -1.821896,0.143231 -2.768274,0.238718 v 3.699744 c 0.733514,-0.167102 1.679892,-0.286461 2.768274,-0.381853 v 3.222309 c -0.402234,0.310333 -1.537982,1.002519 -2.768274,1.217365 v 3.986205 c 0.59151,-0.119359 1.18302,-0.310333 1.750847,-0.525084 0,0 0.85174,-0.40582 1.348613,-0.620666 v 0.692187 c 0,0.167102 0.11832,0.286461 0.283913,0.286461 h 5.086948 c 0.142476,0 0.284008,-0.119359 0.284008,-0.286461 0,-0.09539 0.04718,-8.807828 0,-11.003746 z"
     fill="#fff200"
     data-v-858cada0=""
     data-darkreader-inline-fill=""
     id="path10"
     style="fill:#000000;stroke-width:0.943548" />
  <path
     d="M 26.286574,9.7868017 C 25.482106,8.8559354 24.346452,8.2830605 22.855835,8.0921053 l -0.331279,-0.047734 c -0.02368,0 -0.165593,-0.023872 -0.165593,-0.023872 l -0.520555,-0.023872 c -1.348612,0 -2.62627,0.2625704 -3.785607,0.7399583 C 17.319287,9.0468905 16.372909,9.6675372 15.89972,10.001647 15.355482,9.1901022 14.574696,8.593365 13.509997,8.2830605 12.989442,8.1398488 12.421615,8.0443713 11.735467,8.0204995 10.528858,7.9727654 8.9908948,8.1875829 7.9971694,8.5456309 7.3583405,8.7604578 6.5538907,9.1423681 5.7257862,9.7151864 V 8.6649802 c 0,-0.1670928 -0.1419662,-0.2864327 -0.2839229,-0.2864327 H 0.28392289 C 0.11830105,8.3785475 0,8.4978874 0,8.6649802 V 25.803238 c 0,0.167103 0.11830105,0.286461 0.28392289,0.286461 H 5.7731051 c 0.1419567,0 0.2839229,-0.119358 0.2839229,-0.286461 V 13.82075 c 0.4968627,-0.33411 1.4905976,-0.811545 2.4370041,-0.907032 0.6861477,-0.04774 1.2303577,0.07162 1.6089089,0.40582 0.59151,0.501212 0.638782,1.384373 0.686148,1.766321 0,0.07162 0.04727,2.148269 0.04727,2.148269 v 8.56911 c 0,0.167103 0.142003,0.286461 0.284007,0.286461 h 5.441817 c 0.165592,0 0.283913,-0.119358 0.283913,-0.286461 V 13.82075 c 0.496872,-0.33411 1.514299,-0.811545 2.460678,-0.907032 0.686147,-0.04774 1.230291,0.07162 1.608937,0.40582 0.591416,0.501212 0.638782,1.384373 0.662465,1.766321 0,0.07162 0.07095,2.148269 0.07095,2.148269 v 8.56911 c 0,0.167103 0.118321,0.286461 0.283914,0.286461 h 5.512865 c 0.14191,0 0.283914,-0.119358 0.283914,-0.286461 V 14.656167 c 0,-2.219789 -0.449506,-3.723616 -1.443251,-4.8693653 z"
     fill="#fff200"
     data-v-858cada0=""
     data-darkreader-inline-fill=""
     id="path11"
     style="fill:#000000;stroke-width:0.943548" />
  <path
     d="M 78.126303,3.7236406 74.529972,0.09547852 C 74.482606,0.04773501 74.411651,0 74.340696,0 74.246058,0 74.175009,0.04774351 74.127737,0.09547852 L 70.531406,3.7236406 c -0.118321,0.1193493 -0.118321,0.2864327 0,0.405782 L 74.127737,7.75758 c 0.04727,0.047744 0.118321,0.071606 0.212959,0.071606 0.07096,0 0.14191,-0.023862 0.189276,-0.071606 l 3.596331,-3.6281574 c 0.118321,-0.1193493 0.118321,-0.2864327 0,-0.405782 z"
     fill="#ffffff"
     data-v-858cada0=""
     data-darkreader-inline-fill=""
     id="path12"
     style="fill:#000000;stroke-width:0.943548" />
  <metadata
     id="metadata15">
    <rdf:RDF>
      <cc:Work
         rdf:about="">
        <dc:title>Media Expert | Sklep internetowy RTV, AGD, komputery</dc:title>
      </cc:Work>
    </rdf:RDF>
  </metadata>
</svg>
