<?xml version="1.0" encoding="UTF-8" standalone="no"?>
<svg id="MESSENGERSVG" width="500" height="500" viewBox="0 0 500 500" version="1.1" xml:space="preserve" xmlns:xlink="http://www.w3.org/1999/xlink" xmlns="http://www.w3.org/2000/svg" xmlns:svg="http://www.w3.org/2000/svg">
	<path id="MESSENGER" style="fill:#000000;fill-rule:evenodd;stroke:none;stroke-width:0" d="M 250,0 C 109.1675,0 0,103.16018 0,242.5004 c 0,72.88414 29.8705,135.86325 78.5144,179.36433 4.0835,3.65501 6.5488,8.77537 6.7163,14.25538 l 1.3612,44.47029 c 0.435,14.18504 15.0863,23.41558 28.0663,17.68558 l 49.6215,-21.90554 c 4.2065,-1.85501 8.9208,-2.20024 13.3534,-0.98023 22.8025,6.27 47.0709,9.6106 72.3669,9.6106 140.8325,0 250,-103.16017 250,-242.50041 C 500,103.16018 390.8325,0 250,0 Z m 141.023,168.31449 c 7.977,0.6971 14.3873,9.88171 9.1028,18.26785 l -73.4375,116.51021 c -11.6826,18.53403 -36.6984,23.15092 -54.2249,10.00489 L 214.054,269.28999 c -5.3585,-4.01899 -12.7328,-3.9975 -18.0689,0.0525 l -78.8843,59.86705 c -10.5285,7.98951 -24.2716,-4.61003 -17.2241,-15.79105 l 73.4375,-116.5102 c 11.6815,-18.53503 36.6962,-23.14992 54.2236,-10.00489 l 58.4082,43.80623 c 5.359,4.01999 12.7324,3.99874 18.0689,-0.0512 l 78.8843,-59.86826 c 2.6323,-1.99751 5.4648,-2.70796 8.1238,-2.4756 z" />
</svg>
