<?xml version="1.0" encoding="UTF-8" standalone="no"?>
<svg id="MESSENGERSVG" width="1500" height="290.38953" viewBox="0 0 1500 290.38953" version="1.1" xml:space="preserve" xmlns:xlink="http://www.w3.org/1999/xlink" xmlns="http://www.w3.org/2000/svg" xmlns:svg="http://www.w3.org/2000/svg">
  <path id="M0" style="fill:#000000;fill-opacity:1;fill-rule:nonzero;stroke:none" transform="matrix(7.1612705,0,0,7.1612705,99.756498,226.08131)" d="M 0,0 -7.85,-20.67 V 0 h -6.08 v -31.57 h 7.68 l 8.49,22.28 8.49,-22.28 h 7.68 V 0 H 12.17 V -20.67 L 4.48,0 Z" />
  <path id="E1" style="fill:#000000;fill-opacity:1;fill-rule:nonzero;stroke:none" transform="matrix(7.1612705,0,0,7.1612705,402.53502,172.15687)"	d="m 0,0 c -0.97,4.97 -4.49,8.01 -10.25,8.01 -6.73,0 -11.209999,-4.8 -11.209999,-12.02 0,-6.89 4.639999,-12.020001 11.049999,-12.020001 6.72,0 10.57,4.650001 10.57,11.540001 v 1.93 h -15.38 c 0.16,3.36 2.08,5.45 4.97,5.45 2.08,0 3.68,-0.97 4.32,-2.89 z m -15.06,-6.41 h 8.81 c 0,-2.56 -1.44,-4.33 -4,-4.33 -2.57,0 -4.33,1.45 -4.81,4.33 z" />
  <path id="S1" style="fill:#000000;fill-opacity:1;fill-rule:nonzero;stroke:none" transform="matrix(7.1612705,0,0,7.1612705,457.53372,176.74009)" d="m 0,0 c 0.64,1.76 2.08,2.57 4.01,2.57 1.92,0 3.2,-0.81 3.2,-2.25 0,-1.12 -0.8,-1.6 -2.4,-1.92 L 0.32,-2.72 c -3.52,-0.8 -6.08,-2.57 -6.08,-6.41 0,-4.49 4,-7.54 9.13,-7.54 5.92,0 9.12,2.89 9.76,7.22 H 7.21 c -0.48,-1.29 -1.6,-2.41 -3.68,-2.41 -1.61,0 -3.05,0.8 -3.05,2.25 0,0.96 0.64,1.44 2.08,1.76 l 4.81,1.12 c 4,0.96 6.08,3.21 6.08,6.73 0,4.65 -4.16,7.37 -9.44,7.37 C -1.6,7.37 -5.6,4.81 -6.24,0 Z" />
  <path id="S2" style="fill:#000000;fill-opacity:1;fill-rule:nonzero;stroke:none" transform="matrix(7.1612705,0,0,7.1612705,610.06872,176.74009)" d="m 0,0 c 0.48,1.76 1.92,2.57 3.84,2.57 1.93,0 3.21,-0.81 3.21,-2.25 0,-1.12 -0.64,-1.6 -2.24,-1.92 L 0.16,-2.72 c -3.52,-0.8 -5.92,-2.57 -5.92,-6.41 0,-4.49 4,-7.54 9.12,-7.54 5.77,0 8.97,2.89 9.77,7.22 H 7.05 c -0.48,-1.29 -1.44,-2.41 -3.69,-2.41 -1.44,0 -2.88,0.8 -2.88,2.25 0,0.96 0.48,1.44 1.92,1.76 l 4.81,1.12 c 4,0.96 6.08,3.21 6.08,6.73 0,4.65 -4,7.37 -9.45,7.37 C -1.76,7.37 -5.6,4.81 -6.4,0 Z" />
  <path id="E2" style="fill:#000000;fill-opacity:1;fill-rule:nonzero;stroke:none" transform="matrix(7.1612705,0,0,7.1612705,870.3808,172.15687)" d="m 0,0 c -0.97,4.97 -4.49,8.01 -10.25,8.01 -6.73,0 -11.209999,-4.8 -11.209999,-12.02 0,-6.89 4.639999,-12.020001 11.049999,-12.020001 6.72,0 10.57,4.650001 10.57,11.540001 v 1.93 h -15.38 c 0.16,3.36 2.08,5.45 4.97,5.45 2.08,0 3.68,-0.97 4.32,-2.89 z m -15.06,-6.41 h 8.81 c 0,-2.56 -1.44,-4.33 -4,-4.33 -2.57,0 -4.33,1.45 -4.81,4.33 z" />
  <path id="N0" style="fill:#000000;fill-opacity:1;fill-rule:nonzero;stroke:none" transform="matrix(7.1612705,0,0,7.1612705,888.78522,60.870705)" d="m 0,0 h 6.4 v 2.24 c 1.28,-1.44 3.53,-2.73 6.25,-2.73 5.12,0 8.159999,3.37 8.159999,8.5 V 23.07 H 14.41 V 9.45 C 14.41,6.89 13.13,5.28 10.57,5.28 8.64,5.28 6.88,6.57 6.4,8.49 V 23.07 H 0 Z" />
  <path id="G0" style="fill:#000000;fill-opacity:1;fill-rule:nonzero;stroke:none" transform="matrix(7.1612705,0,0,7.1612705,1169.7222,205.45685)" d="m 0,0 c -1.12,1.28 -3.2,2.4 -5.76,2.4 -6.57,0 -10.41,-5.45 -10.41,-11.54 0,-6.09 3.84,-11.54 10.41,-11.54 2.56,0 4.64,1.130001 5.76,2.25 v -1.760001 H 6.25 V 0.32 c 0,7.85 -4.81,11.54 -11.21,11.54 -5.93,0 -10.09,-3.05 -10.73,-8.18 h 6.24 c 0.48,2.25 1.92,3.21 4.49,3.21 C -1.76,6.89 0,5.13 0,1.28 Z m 0,-12.98 c -0.96,-1.45 -2.56,-2.25 -4.32,-2.25 -3.53,0 -5.45,2.57 -5.45,6.09 0,3.53 1.92,6.09 5.45,6.09 1.76,0 3.36,-0.8 4.32,-2.4 z" />
  <path id="E3" style="fill:#000000;fill-opacity:1;fill-rule:nonzero;stroke:none" transform="matrix(7.1612705,0,0,7.1612705,1383.0563,172.15687)" d="m 0,0 c -0.96,4.97 -4.49,8.01 -10.25,8.01 -6.73,0 -11.209999,-4.8 -11.209999,-12.02 0,-6.89 4.639999,-12.020001 11.049999,-12.020001 C -3.69,-16.030001 0,-11.38 0,-4.49 v 1.93 h -15.22 c 0.16,3.36 2.09,5.45 4.97,5.45 2.08,0 3.68,-0.97 4.32,-2.89 z m -15.06,-6.41 h 8.81 c 0,-2.56 -1.44,-4.33 -4,-4.33 -2.56,0 -4.32,1.45 -4.81,4.33 z" />
  <path id="R0" style="fill:#000000;fill-opacity:1;fill-rule:nonzero;stroke:none" transform="matrix(7.1612705,0,0,7.1612705,1500,106.77454)" d="m 0,0 c -0.96,-0.65 -2.08,-0.81 -3.2,-0.81 -2.24,0 -4,1.13 -4.32,3.21 v 14.26 h -6.41 V -6.41 h 6.41 v 2.24 c 0.96,-1.6 2.88,-2.73 5.12,-2.73 0.96,0 2.08,0.17 2.4,0.49 z" />
</svg>
