<svg id="MIUIPOLSKA" width="500" height="360.42078" viewBox="0 0 500 360.42078" version="1.1" xml:space="preserve" xmlns:xlink="http://www.w3.org/1999/xlink" xmlns="http://www.w3.org/2000/svg" xmlns:svg="http://www.w3.org/2000/svg">
	<path id="M" style="fill:#000000;stroke:#000000;stroke-width:0" d="M 22.605719,0.03896904 C 1.3236877,0.03896904 1.24813,0.04609579 0.63252171,2.3440295 -0.1779318,5.3679503 -0.2019917,226.84745 0.60743557,228.95785 c 0.54006473,1.4076 3.48778663,1.62022 22.42141243,1.62022 21.74142,0 21.802438,-0.006 22.418617,-2.30506 0.339803,-1.26796 0.624388,-35.15737 0.631943,-75.30966 0.01568,-47.97703 0.36506,-73.004604 1.038396,-73.004604 0.563582,0 1.02447,0.46092 1.02447,1.024474 0,0.563554 0.806476,1.848303 1.792818,2.853473 0.986056,1.005156 3.178557,3.871525 4.869021,6.36953 1.690749,2.498026 3.79857,5.282846 4.685278,6.188583 0.886854,0.905737 3.845565,4.840874 6.575536,8.744184 2.730114,3.90332 5.461881,7.55705 6.071643,8.12059 0.609767,0.56354 2.493722,3.07335 4.184182,5.5789 4.099736,6.07578 7.118368,9.2787 8.746973,9.2787 1.814611,0 5.083382,-3.06996 5.083382,-4.77159 0,-0.75797 0.476037,-1.37801 1.057864,-1.37801 0.581683,0 1.391238,-0.80665 1.795609,-1.79284 0.694574,-1.69335 8.3306,-13.50164 9.44294,-14.60147 0.28493,-0.28179 1.89953,-2.58641 3.58843,-5.12235 1.68918,-2.535938 3.41978,-5.071037 3.84454,-5.634577 2.11236,-2.803771 8.48346,-12.603403 9.66009,-14.857597 1.11148,-2.128739 1.34171,9.990432 1.35852,71.724014 0.0157,40.85672 0.30057,75.32913 0.64308,76.60697 l 0.62081,2.32453 24.72368,-0.2756 24.7237,-0.27283 0.2589,-113.62148 C 172.05998,33.333315 171.81981,2.4485075 170.97563,1.4309222 170.0664,0.33517085 164.96634,0.03896904 146.95905,0.03896904 h -22.86126 l -2.88411,4.20924126 c -1.58613,2.3159073 -3.69073,4.9568371 -4.67693,5.8656397 -0.9862,0.908817 -1.79282,2.254902 -1.79282,2.992677 0,0.737746 -0.69132,1.607637 -1.53669,1.932018 -0.84524,0.324381 -1.53672,1.049085 -1.53672,1.61187 0,0.562771 -1.16064,2.473467 -2.57787,4.245431 -3.32605,4.1579 -3.51717,4.422545 -7.15737,9.882787 -1.69061,2.535925 -3.5343,5.15329 -4.097883,5.818316 -0.563438,0.665039 -2.637566,3.575987 -4.610106,6.469758 -1.972251,2.893759 -4.373101,6.268472 -5.333925,7.499789 l -1.748278,2.241018 -3.630195,-4.028277 c -1.997625,-2.21565 -3.645043,-4.29261 -3.658011,-4.612902 -0.01571,-0.320289 -1.511071,-2.305201 -3.329531,-4.412453 -1.818316,-2.10725 -4.22639,-5.026334 -5.353413,-6.486462 -1.127166,-1.460127 -2.512607,-3.193693 -3.076189,-3.852889 -0.563298,-0.659167 -2.372808,-3.043576 -4.019941,-5.297737 -1.647261,-2.254176 -3.721401,-4.88148 -4.610107,-5.840597 C 56.478913,16.129664 55.559561,14.973393 51.697294,9.7714379 50.023649,7.5172488 48.193614,5.1140244 47.630031,4.4291584 43.862121,-0.150018 44.938916,0.03896904 22.605689,0.03896904 Z" />	
	<path id="I" style="fill:#000000;stroke:#000000;stroke-width:0" d="M 244.62613,0 221.95417,0.27560551 199.27944,0.55121101 199.01497,114.28405 c -0.14497,62.55304 -0.0428,114.309 0.22548,115.01343 0.36987,0.97081 5.92205,1.28059 22.94199,1.28059 22.41988,0 22.4558,-0.003 23.07284,-2.30506 h -0.006 c 0.81059,-3.02458 0.8056,-222.9227767 0,-225.9484651 z" />
	<path id="U" style="fill:#000000;stroke:#000000;stroke-width:0" d="m 376.27047,0 -0.62358,2.3245449 c -0.34251,1.2783813 -0.62703,39.7510741 -0.63473,85.4931111 -0.0157,93.313114 0.50536,87.067894 -7.62783,91.375454 -3.80327,2.01436 -5.71747,2.20742 -21.79226,2.20484 -17.0241,-0.003 -17.70949,-0.083 -20.19429,-2.38579 -5.33466,-4.94392 -5.18135,-2.46585 -5.72926,-93.418819 L 319.15629,0.55121101 296.74045,0.27560551 c -20.43352,-0.252073 -22.53384,-0.1167361 -23.7883,1.53669739 -1.12645,1.4845724 -1.38199,17.9200591 -1.40865,90.6377341 -0.0185,48.853923 0.36218,89.067963 0.84354,89.365503 0.48148,0.29755 1.17544,3.43509 1.54503,6.97084 0.93889,8.98157 6.58814,19.898 14.2702,27.57995 3.30939,3.30943 7.13072,6.29747 8.49364,6.63957 1.36306,0.34207 2.48045,1.03426 2.48045,1.5367 0,0.50245 0.57604,0.91523 1.28059,0.91868 0.7044,0.003 2.66352,0.7339 4.35399,1.623 5.61146,2.95102 11.00747,3.33522 44.05775,3.13188 32.10072,-0.19751 32.91646,-0.25321 38.93543,-2.68645 3.38121,-1.36691 6.37991,-2.74086 6.66183,-3.05113 0.28165,-0.31029 1.87767,-1.25464 3.54946,-2.09906 4.18866,-2.11553 15.91825,-13.72777 15.91825,-15.75957 0,-0.91203 0.35167,-1.65641 0.78228,-1.65641 1.32585,0 5.28666,-9.47614 5.99648,-14.34536 0.36974,-2.53594 1.072,-5.12098 1.56176,-5.74594 0.49331,-0.62962 0.77427,-41.97565 0.62916,-92.728424 l -0.26168,-91.59260499 -23.1842,-0.2756055 z" />	
	<path id="I" style="fill:#000000;stroke:#000000;stroke-width:0" d="m 493.60288,0 -22.15972,0.27560551 -22.1625,0.2756055 -0.25891,114.93825899 c -0.24686,108.82609 -0.16516,114.96447 1.53669,115.43659 0.98864,0.27425 10.92207,0.42285 22.07343,0.33128 16.78106,-0.13784 20.44109,-0.43166 21.24384,-1.70374 1.06615,-1.68944 1.40823,-223.282192 0.35077,-227.2290551 z" />
	<path id="P" style="fill:#000000;stroke:#000000;stroke-width:0" d="M 22.856223,263.40225 C 6.3247248,263.37146 2.9502107,263.62063 1.5957014,264.97516 0.18118491,266.38961 -0.01186438,271.96273 5.3615459e-4,310.82852 0.016215,335.16142 0.29267572,356.1071 0.63247896,357.37509 c 0.55745404,2.07978 1.24489994,2.30505 7.03766174,2.30505 5.7926183,0 6.4829863,-0.22527 7.0404403,-2.30505 0.339803,-1.26799 0.624247,-8.83867 0.631943,-16.82302 0.01568,-7.98436 0.292495,-15.24681 0.634722,-16.13819 0.516546,-1.34643 2.641799,-1.6261 12.552536,-1.65641 16.424584,-0.0503 27.142084,-2.83435 33.412193,-8.67459 3.125507,-2.91124 6.692457,-9.08636 6.692457,-11.58651 0,-1.16819 0.460887,-2.40777 1.02447,-2.75606 0.56344,-0.34829 1.02447,-3.34714 1.02447,-6.66183 0,-3.31474 -0.46103,-6.31078 -1.02447,-6.65906 -0.563583,-0.3483 -1.02447,-1.58787 -1.02447,-2.75604 0,-2.42489 -3.463029,-8.53828 -6.592239,-11.63108 -7.124465,-7.0418 -14.13275,-8.5835 -39.18597,-8.63005 z m -6.904035,13.39049 H 29.9941 c 13.018156,0 14.222804,0.10063 16.541848,1.40308 3.371662,1.89375 6.912387,5.87379 6.912387,7.76704 0,0.84874 0.302615,1.54227 0.670926,1.54227 0.832974,0 0.898013,9.60942 0.07512,11.22464 -0.325264,0.63946 -0.953801,1.94394 -1.397511,2.90081 -1.171779,2.528 -3.411658,4.83468 -5.709749,5.87677 -1.104788,0.50097 -2.534215,1.178 -3.173626,1.5033 -0.639412,0.32531 -7.192169,0.59017 -14.562507,0.59017 H 15.952145 V 293.1954 Z" />
	<path id="O" style="fill:#000000;stroke:#000000;stroke-width:0" d="m 121.40297,262.34159 c -10.68955,0 -18.64847,2.99038 -25.475327,9.57379 -6.057729,5.84173 -10.898916,13.98651 -10.898916,18.33744 0,1.55422 -0.460884,2.82566 -1.024467,2.82566 -0.644829,0 -1.024474,6.81269 -1.024474,18.38477 0,11.14984 0.403159,18.62985 1.024474,19.01394 0.563583,0.34829 1.030623,1.64382 1.035612,2.87853 0.01564,2.57678 3.860049,10.87616 6.13847,13.23458 0.845374,0.87508 2.406184,2.79639 3.471494,4.2677 1.065015,1.47131 2.51498,2.67254 3.220958,2.67254 0.705978,0 1.533331,0.64987 1.83736,1.44205 0.303886,0.79217 1.965416,1.74996 3.694216,2.12967 1.72867,0.37966 3.14301,1.0822 3.14301,1.56176 0,1.48844 4.17065,1.88939 16.3943,1.57568 9.792,-0.25129 12.55447,-0.69019 16.34975,-2.60572 5.88242,-2.96908 14.19643,-11.53415 17.46333,-17.99226 2.42295,-4.79008 2.57881,-6.12991 2.89525,-24.76264 0.31898,-18.80917 -0.80478,-31.02082 -2.85629,-31.02084 -0.46252,0 -1.10722,-1.0566 -1.43092,-2.34681 -0.68388,-2.72398 -10.68769,-13.02302 -12.64997,-13.02302 -0.73007,0 -1.32792,-0.41798 -1.32792,-0.92981 0,-1.91921 -12.62999,-5.21701 -19.97994,-5.21701 z m -1.57846,13.00353 c 3.81654,0.0902 9.05092,0.97256 11.55312,2.26052 6.82058,3.51072 7.24417,3.94342 10.66785,10.90448 3.02959,6.15964 3.29492,7.99106 3.34067,23.10067 0.0342,11.46061 -0.40156,17.05904 -1.53671,19.75168 -0.31044,0.73653 -0.96415,2.31917 -1.45319,3.51604 -0.48904,1.19686 -1.11929,2.17421 -1.39751,2.17421 -0.27852,0 -0.50388,0.46258 -0.50388,1.02725 0,0.95557 -4.17827,5.67079 -5.02492,5.67079 -0.20939,0 -1.1853,0.52493 -2.16864,1.16922 -3.18081,2.08409 -6.41952,2.82716 -12.22682,2.80338 -4.44253,-0.0182 -6.35046,-0.34332 -8.70243,-1.48104 -1.65711,-0.80165 -3.57246,-1.91666 -4.25378,-2.47766 -3.47586,-2.86168 -5.12235,-4.67389 -5.12235,-5.64015 0,-0.58876 -0.29996,-1.07179 -0.66813,-1.07179 -0.36831,0 -0.67091,-0.55251 -0.67091,-1.2277 0,-0.67516 -0.20413,-1.43187 -0.45656,-1.68424 -0.25228,-0.25238 -0.85207,-1.58513 -1.330704,-2.95927 -1.081126,-3.10393 -1.279235,-37.33146 -0.219915,-37.98611 0.368309,-0.22759 0.668129,-0.99045 0.668129,-1.69539 0,-0.70493 0.76685,-2.57018 1.70374,-4.14521 0.93688,-1.57502 1.87695,-3.38935 2.08791,-4.03384 0.21095,-0.64447 0.57428,-1.17396 0.80733,-1.17481 0.23333,-7.2e-4 1.47823,-0.90409 2.76717,-2.00718 1.28894,-1.10306 2.7216,-2.00631 3.18199,-2.00718 0.46039,-7.2e-4 0.83516,-0.30267 0.83516,-0.67092 0,-0.36827 0.73504,-0.66813 1.63415,-0.66813 0.89896,0 1.82131,-0.30264 2.04893,-0.67092 0.37025,-0.59908 2.15037,-0.83084 4.4403,-0.7767 z" />	
	<path id="L" style="fill:#000000;stroke:#000000;stroke-width:0" d="m 184.95076,263.29428 c -5.09244,-0.0587 -4.63238,2.55659 -4.63238,48.16678 0,25.76865 0.30927,47.15917 0.68485,47.53485 0.37571,0.37568 13.51505,0.68483 29.20016,0.68483 h 28.51811 v -5.51767 c 0,-4.85406 -0.2762,-5.58921 -2.30506,-6.13289 -1.26783,-0.33982 -10.62639,-0.62427 -20.79839,-0.63194 -13.00161,-0.009 -18.85949,-0.37723 -19.72383,-1.24162 -0.9145,-0.91449 -1.23048,-11.52021 -1.23048,-41.388 0,-44.66692 0.56664,-41.40196 -7.17129,-41.40196 -0.97166,0 -1.81419,-0.064 -2.54169,-0.0724 z" />		
	<path id="S" style="fill:#000000;stroke:#000000;stroke-width:0" d="m 284.48021,262.3422 c -10.99785,0 -18.70904,2.836 -25.38066,9.33436 -6.12458,5.96584 -7.05716,8.27017 -7.05716,17.47166 0,8.10555 1.64019,12.53257 6.34727,17.13482 3.58575,3.50563 16.18161,9.91864 21.31899,10.85436 1.97225,0.35926 4.5074,1.03778 5.63458,1.50887 1.12701,0.47113 4.30173,1.65873 7.05436,2.63913 7.77813,2.77052 11.05641,6.26513 11.56425,12.32704 0.54293,6.48213 -1.04478,9.40746 -6.73976,12.41334 -8.82791,4.65962 -24.34036,2.52329 -29.98802,-4.13129 -1.02368,-1.20624 -2.37231,-4.12022 -2.99547,-6.47532 -1.03181,-3.8989 -1.48825,-4.34415 -5.10564,-4.95531 -2.18506,-0.36917 -5.41748,-0.35213 -7.1852,0.0362 -3.2116,0.70536 -3.21428,0.71118 -2.73935,6.43913 0.26155,3.15294 1.00495,5.90829 1.65363,6.12454 0.64882,0.21623 1.18036,1.04676 1.18036,1.84573 0,2.1214 7.59323,9.1446 12.04587,11.1411 5.23374,2.34671 7.6566,3.37795 9.47079,4.03663 0.84523,0.3069 7.07068,0.42344 13.83311,0.2589 9.15274,-0.2227 13.08173,-0.73642 15.36984,-2.01275 1.69061,-0.94298 3.58372,-1.71696 4.20645,-1.72044 0.62259,-0.003 3.46029,-2.47026 6.30828,-5.48146 4.55071,-4.8118 5.2662,-6.1679 5.89349,-11.18844 1.42863,-11.43451 -0.49518,-17.27583 -8.07047,-24.52045 -3.91203,-3.74112 -17.266,-10.04201 -21.30231,-10.05262 -1.32358,-0.003 -3.58974,-0.62598 -5.03605,-1.38081 -1.44644,-0.7548 -3.95471,-1.70391 -5.57334,-2.11018 -3.21545,-0.80709 -8.51816,-4.22323 -10.41729,-6.71194 -4.42571,-5.79919 -0.98553,-15.70039 6.43356,-18.52119 3.83404,-1.4577 16.36433,-1.19246 20.24441,0.42872 4.20535,1.75714 7.57159,5.92633 8.41568,10.42564 0.99219,5.28935 7.3864,8.19684 13.15665,5.98258 2.46571,-0.94621 2.0939,-8.96814 -0.6737,-14.50961 -5.24585,-10.5039 -16.98835,-16.63094 -31.86715,-16.63094 z" />
	<path id="K" style="fill:#000000;stroke:#000000;stroke-width:0" d="m 344.10268,263.28315 c -5.49617,-0.10904 -4.96644,2.31982 -4.96644,48.17791 0,25.76865 0.30633,47.15917 0.68204,47.53485 0.37572,0.37568 3.35526,0.68483 6.62287,0.68483 4.82481,0 6.13999,-0.37253 7.00147,-1.98214 0.62174,-1.162 1.06066,-9.8509 1.06066,-21.00441 v -19.02228 h 3.99487 c 4.1911,0 5.10532,0.76076 12.91167,10.74859 1.69089,2.16305 4.1134,5.03099 5.38126,6.37231 1.26799,1.34127 2.30503,2.6562 2.30503,2.92029 0,0.78031 9.44471,12.20211 10.39783,12.5748 0.48049,0.18785 0.87135,0.80455 0.87135,1.36967 0,0.56514 1.4843,2.59997 3.29891,4.52382 3.2012,3.39391 3.5349,3.49935 11.21069,3.49935 4.35102,0 8.16879,-0.41666 8.4825,-0.92425 0.57641,-0.93285 -6.1151,-10.01045 -17.06521,-23.15358 -3.28671,-3.94478 -6.31538,-7.63499 -6.73144,-8.19853 -0.4162,-0.56354 -3.70933,-4.61361 -7.31604,-9.00031 l -6.55605,-7.97582 2.38023,-3.29612 c 1.30961,-1.81226 3.00395,-3.98473 3.76381,-4.83005 5.0359,-5.60005 8.4901,-9.83199 8.51033,-10.42844 0.0157,-0.38241 0.63343,-1.30703 1.37803,-2.05172 0.74432,-0.74468 4.5228,-5.27087 8.39619,-10.06097 3.87324,-4.79009 7.34441,-8.94124 7.71415,-9.223 1.41864,-1.0811 3.09438,-5.21182 2.5027,-6.16908 -0.34108,-0.5519 -3.64503,-1.00221 -7.34109,-1.00221 -6.41736,0 -6.88921,0.1726 -10.46184,3.84176 -2.05777,2.1133 -4.88512,5.39932 -6.28323,7.30214 -1.39799,1.90287 -3.24927,4.22364 -4.1146,5.15853 -0.86547,0.93484 -2.93959,3.51369 -4.61009,5.72923 -1.67066,2.21557 -3.73135,4.76657 -4.57671,5.67078 -0.84523,0.9042 -2.91922,3.39357 -4.61012,5.53158 -5.62485,7.11368 -7.66892,8.77481 -10.80426,8.77481 h -3.02887 V 286.6483 c 0,-22.04562 -0.40629,-23.28164 -7.65846,-23.28164 -1.05022,0 -1.95697,-0.068 -2.74214,-0.0835 z" />	
	<path id="A" style="fill:#000000;stroke:#000000;stroke-width:0" d="m 458.88501,263.36606 c -4.75919,4e-5 -8.21756,3.00666 -10.01363,8.708 -1.33641,4.24236 -3.68559,10.13178 -5.11122,12.80866 -0.45026,0.84533 -1.43769,3.95655 -2.1937,6.91517 -0.75601,2.95858 -1.71189,5.38124 -2.12411,5.38124 -0.4122,0 -1.05969,1.41164 -1.43925,3.14022 -0.37973,1.72858 -1.33768,4.38172 -2.1269,5.89349 -0.78907,1.51177 -1.71801,4.2457 -2.06565,6.07722 -0.34736,1.8315 -1.00543,3.33231 -1.46154,3.33231 -0.45597,0 -1.15502,1.49801 -1.5534,3.32953 -0.39852,1.83152 -1.35641,4.23903 -2.12967,5.35062 -0.77324,1.11158 -1.42281,2.72486 -1.44205,3.58566 -0.0185,0.86078 -0.9267,3.40824 -2.01554,5.66241 -1.08868,2.25417 -1.99365,4.7016 -2.01274,5.43693 -0.0342,1.32561 -3.2939,9.3157 -5.19473,12.73628 -0.54365,0.97855 -0.98828,3.17073 -0.98828,4.869 v 3.08734 h 6.54212 c 5.65735,0 6.74601,-0.31156 8.04266,-2.30505 h -0.009 c 0.82457,-1.26799 2.07241,-4.15157 2.76997,-6.40573 0.69757,-2.25418 1.92045,-5.55141 2.71707,-7.32718 0.79663,-1.77583 1.44762,-3.70263 1.44762,-4.28162 0,-0.57903 0.72338,-1.77583 1.60909,-2.66139 1.33256,-1.33251 4.50078,-1.6091 18.37085,-1.6091 17.82271,0 19.97995,0.55951 19.97995,5.19474 0,1.08684 0.38642,1.97656 0.86021,1.97656 0.47393,0 1.43482,2.41988 2.13524,5.37846 0.70055,2.9586 2.07993,6.76404 3.06228,8.45467 1.66665,2.8679 2.24269,3.09418 8.62169,3.37684 L 500,359.77201 v -2.86463 c 0,-1.5755 -0.69489,-4.18468 -1.5367,-5.79881 -0.84181,-1.61416 -1.53343,-3.45787 -1.53671,-4.09789 0,-0.64003 -0.68716,-2.47065 -1.51999,-4.06726 -0.83269,-1.59665 -2.03054,-4.82316 -2.6614,-7.17128 -0.631,-2.34819 -1.46445,-4.50094 -1.85129,-4.78272 -0.38683,-0.28177 -1.22907,-2.1255 -1.87077,-4.09789 -2.06604,-6.34807 -4.4391,-12.72306 -5.96865,-16.03517 -0.82014,-1.7758 -1.49216,-3.87805 -1.49216,-4.67135 0,-0.79333 -0.67602,-2.33862 -1.50329,-3.43254 -0.82756,-1.09391 -1.536,-2.67905 -1.5729,-3.52439 -0.0371,-0.84531 -0.95748,-3.38323 -2.04615,-5.63737 -1.08898,-2.25418 -2.01075,-4.78925 -2.04894,-5.6346 -0.0385,-0.84526 -0.95997,-3.38041 -2.04894,-5.63457 -1.08884,-2.25415 -1.99644,-4.87933 -2.01554,-5.83224 -0.0185,-0.95296 -0.45968,-1.99471 -0.97993,-2.3162 -0.52011,-0.32151 -1.25314,-1.98243 -1.62857,-3.69141 -0.98234,-4.47279 -4.26351,-7.11559 -8.83327,-7.11563 z m -0.44819,23.18698 c 0.5822,0.0265 1.23558,0.75782 1.58959,2.1241 0.31029,1.19689 0.85614,2.17423 1.21377,2.17423 0.35776,0 0.65143,0.90515 0.65143,2.00995 0,1.10482 0.29982,2.00998 0.66812,2.00998 0.36832,0 0.67093,0.90237 0.67093,2.00717 0,1.1048 0.29997,2.00997 0.66814,2.00997 0.3683,0 0.67091,0.73521 0.67091,1.63415 0,0.89891 0.30259,1.82133 0.67091,2.04893 0.3683,0.22759 0.66812,1.14723 0.66812,2.04617 0,0.89891 0.30263,1.63412 0.67093,1.63412 0.36832,0 0.66814,0.84518 0.66814,1.87635 0,1.03113 0.24967,2.16122 0.55398,2.51106 0.30418,0.34984 0.9714,1.99245 1.48381,3.64967 0.51241,1.6572 1.31733,3.76461 1.78726,4.68527 1.7184,3.36618 1.78652,3.34902 -12.39386,3.34902 h -13.25686 l 0.27281,-2.34403 c 0.15052,-1.28895 0.54061,-2.34402 0.86858,-2.34402 0.32798,0 0.59576,-0.90237 0.59576,-2.00719 0,-1.10479 0.3026,-2.00997 0.67091,-2.00997 0.36832,0 0.67092,-0.75246 0.67092,-1.67312 0,-0.92067 0.29982,-1.67311 0.66812,-1.6731 0.36832,0 0.67093,-0.90517 0.67093,-2.00996 0,-1.10482 0.29982,-2.00998 0.66814,-2.00998 0.36817,0 0.67091,-0.54484 0.67091,-1.21099 0,-0.66617 0.44207,-1.7962 0.98271,-2.51107 0.54078,-0.71484 0.99329,-1.83094 1.00497,-2.48043 0.02,-1.14347 0.28295,-1.82863 1.92368,-5.00264 0.42588,-0.82362 0.77391,-2.04365 0.77391,-2.71151 0,-0.66789 0.27538,-1.50143 0.61247,-1.85128 0.3371,-0.34986 0.71465,-1.38996 0.83794,-2.31062 0.14993,-1.11993 0.60819,-1.64365 1.12192,-1.62023 z" />
</svg>
