<svg id="MOL" width="500" height="196.41241" viewBox="0 0 500 196.41241" version="1.1" xml:space="preserve" xmlns:xlink="http://www.w3.org/1999/xlink" xmlns="http://www.w3.org/2000/svg" xmlns:svg="http://www.w3.org/2000/svg">
	<path id="M" style="fill:#000000;stroke:#000000;stroke-width:0" d="M 120.76257,94.298523 120.3489,2.4506901 H 61.622298 L 0,194.79611 h 57.486567 l 22.746031,-86.49354 3.722061,86.49354 h 35.153221 l 36.39424,-86.49354 -9.92516,86.49354 h 57.89925 L 214.64239,2.4506901 h -58.7266 z" />
	<path id="O" style="fill:#000000;stroke:#000000;stroke-width:0" d="M 362.28868,9.0351193 C 324.23975,-13.617984 269.64889,7.7994973 240.2851,56.812275 210.92229,106.23813 218.36641,164.31188 256.41436,187.37748 c 38.04892,22.6529 92.63978,1.23513 122.00259,-47.77804 C 407.36707,90.174555 400.33662,32.099835 362.28868,9.0351193 Z M 340.36901,98.411711 c -4.13573,21.006059 -21.09232,38.304769 -38.04794,38.304769 -16.95659,0 -27.29543,-16.88699 -23.1597,-38.304769 4.13573,-21.005086 21.09135,-38.303791 38.04794,-38.303791 16.95659,0.411711 27.29543,17.298705 23.1597,38.303791 z" />
	<path id="L" style="fill:#000000;stroke:#000000;stroke-width:0" d="M 460.29737,136.31065 485.93812,2.4506901 H 426.79785 L 389.98994,194.79611 H 455.3343 L 500,136.31065 Z" />
</svg>
