<svg
   version="1.0"
   id="Layer_1"
   x="0px"
   y="0px"
   viewBox="0 0 750.07031 459.47626"
   xml:space="preserve"
   width="750.07031"
   height="459.47626"
   xmlns="http://www.w3.org/2000/svg"
   xmlns:svg="http://www.w3.org/2000/svg"><defs
   id="defs4" />
<style
   type="text/css"
   id="style1">
	.st0{fill:#ABCC58;}
	.st1{fill:#E7332C;}
	.st2{fill:#FFFFFF;}
</style>
<path
   id="path1"
   style="fill:#000000"
   class="st0"
   d="m 87.604317,0 c -20.9,0 -46.0996,13.4 -60.0996,29 -16.1,17.9 -25.6996003,53.399999 -27.0996003,77.5 -6.4,114.2 63.8000003,263.29844 155.9999833,330.89844 31.1,22.8 78.3,30.50078 111.5,10.80078 L 389.0047,382.5 c 75.4,-38.4 206.29883,-128.30039 272.29883,-181.40039 24.7,-19.9 68.00039,-69.39961 82.40039,-102.599608 C 758.70392,64 746.70509,23.79961 712.9051,7.09961 705.4051,2.89961 691.40431,0 682.60431,0 Z m -0.1992,25.79883 H 682.5047 c 5.4,-0.3 14.3,1.80039 19,4.40039 21.1,10.4 28.59922,35.499608 19.19922,57.099611 -13.2,30.399999 -50.2,72.499999 -75.5,93.999999 -63.6,54 -194.00039,140.90078 -268.40039,178.80078 -18.6,9.4 -54.09844,26.29883 -73.89843,32.79883 -9.1,3 -23.70001,2.80078 -33,0.30078 -56.9,-15.3 -135.90122,-69.29961 -170.701183,-116.59961 -28.5,-38.9 -62.8988,-107.20078 -65.2988,-155.30078 -0.7,-15.2 -0.5012,-41.899999 3.7988,-56.499999 6.4,-21.900001 27.0012,-39.000001 49.7012,-39.000001 z m -42.1016,3.5 c -13.8,18.5 -21.9992,54.099607 -23.1992,77.09961 -1.7,33.7 15.2,88.3 28,119.5 16.9,41.3 67.399303,106.4 102.699213,132 27.4,19.8 77.10156,49.10156 110.10157,56.60156 l -19.5,10.59961 c -13.10001,8.1 -33.3004,5.5 -47.9004,0.5 -37.7,-13 -78.60078,-56.2 -101.800783,-84.5 -46.7,-56.7 -87.0988003,-161.59961 -81.7988,-234.59961 1.8,-25.600001 13.9984,-60.60117 33.3984,-77.20117 z M 151.20392,68.699221 102.80352,219.09961 h 45.10158 l 18.0996,-67.70117 2.69922,67.70117 h 27.80078 l 28.5,-67.70117 -7.70117,67.70117 h 45.10157 l 9,-150.400389 H 225.20392 L 197.60431,140.39844 197.4051,68.699221 Z m 286.5,0 -28.69922,150.400389 h 51 l 35.29883,-45.80078 H 464.0047 l 20,-104.599609 z m -78.41601,0.05859 c -24.26231,0.442621 -50.38438,16.516013 -66.48438,43.541019 -22.4,37.6 -16.89883,82.20117 12.20117,99.70117 29.1,17.5 71,0.99844 93.5,-36.60156 22.5,-37.6 16.89922,-82.29922 -12.30078,-99.699223 -8.2125,-4.89375 -17.42207,-7.114606 -26.91601,-6.941406 z m -7.48438,46.041019 c 13,0 20.80078,12.89961 17.80078,29.09961 -3.1,16.1 -16.1,29.20117 -29,29.20117 -12.9,0 -21.00039,-13.10117 -17.90039,-29.20117 3.1,-16.1 16.09961,-29.09961 29.09961,-29.09961 z" />
</svg>
