<svg
   viewBox="0 0 749.29072 137.82028"
   version="1.1"
   id="svg3"
   width="749.29071"
   height="137.82028"
   xmlns="http://www.w3.org/2000/svg"
   xmlns:svg="http://www.w3.org/2000/svg"
   xmlns:rdf="http://www.w3.org/1999/02/22-rdf-syntax-ns#"
   xmlns:cc="http://creativecommons.org/ns#"
   xmlns:dc="http://purl.org/dc/elements/1.1/">
  <defs
     id="defs3" />
  <title
     id="title1">logo</title>
  <g
     fill-rule="evenodd"
     id="g3"
     transform="translate(-169.87036,12.338579)">
    <path
       d="m 917.34104,80.674121 1.82,11.17 a 47.4,47.4 0 0 1 -9.54,1.13 c -4.6,0 -8.15,-0.72 -10.69,-2.18 a 12.18,12.18 0 0 1 -5.32,-5.73 c -1,-2.34 -1.56,-7.34 -1.56,-14.9 v -42.96 h -9.28 v -9.83 h 9.28 V -1.1058787 l 12.58,-7.57 V 17.374121 h 12.7 v 9.83 h -12.7 v 43.59 c 0,3.61 0.21,5.92 0.64,7 a 5.42,5.42 0 0 0 2.18,2.46 8.43,8.43 0 0 0 4.31,0.92 40.21,40.21 0 0 0 5.56,-0.5 z m -86,-33.14 h 41.58 c -0.55,-6.26 -2.16,-11 -4.77,-14.1 a 19.39,19.39 0 0 0 -15.65,-7.3 20.11,20.11 0 0 0 -14.65,5.82 c -4,3.89 -6.13,9.09 -6.57,15.58 z m 41.49,20.44 13.06,1.61 q -3.09,11.48 -11.43,17.78 -8.34,6.3 -21.35,6.3 -16.35,0 -25.93,-10.06 -9.58,-10.06 -9.58,-28.26 0,-18.84 9.68,-29.21 9.68,-10.37 25.09,-10.46 15,0 24.42,10.19 9.42,10.19 9.49,28.64 c 0,0.77 0,1.89 -0.07,3.38 h -55.6 q 0.69,12.29 7,18.81 a 20.64,20.64 0 0 0 15.58,6.54 19.3,19.3 0 0 0 11.86,-3.67 c 3.29,-2.42 5.87,-6.3 7.79,-11.65 z m -119,24 v -74.6 h 11.36 v 10.6 q 8.18,-12.3 23.67,-12.3 a 31.21,31.21 0 0 1 12.39,2.42 19.39,19.39 0 0 1 8.46,6.37 24.22,24.22 0 0 1 4,9.33 74.15,74.15 0 0 1 0.69,12.29 v 45.84 h -12.69 v -45.36 c 0,-5.12 -0.48,-9 -1.46,-11.55 a 12.13,12.13 0 0 0 -5.22,-6.08 16.54,16.54 0 0 0 -8.83,-2.26 20.59,20.59 0 0 0 -14,5.13 q -5.86,5.14 -5.85,19.46 v 40.72 h -12.57 z m -24.39,-14.4 h 14.4 v 14.4 h -14.4 v -14.44 z m 0,14.4 z m -26.52,-43.7 q -0.22,-8.59 -4.41,-13 a 14.22,14.22 0 0 0 -20.92,0.26 c -2.81,3.12 -4.2,7.39 -4.15,12.78 h 29.48 z m -1.1,19.93 19.67,3.29 q -3.81,10.82 -12,16.46 c -5.44,3.79 -12.27,5.65 -20.47,5.65 q -19.45,0 -28.78,-12.7 c -4.89,-6.77 -7.32,-15.36 -7.32,-25.68 q 0,-18.56 9.7,-29 9.7,-10.44 24.47,-10.55 16.64,0 26.27,11 9.63,11 9.2,33.67 h -49.45 q 0.22,8.77 4.77,13.64 a 14.94,14.94 0 0 0 11.39,4.89 12.11,12.11 0 0 0 7.79,-2.51 c 2.11,-1.7 3.72,-4.41 4.77,-8.15 z m -71.13,-79.21 h 19.73 v 102.94 h -19.73 z m 0,102.94 z m -23.69,-43.66 q -0.22,-8.59 -4.41,-13 a 13.57,13.57 0 0 0 -10.26,-4.46 13.71,13.71 0 0 0 -10.67,4.72 c -2.8,3.12 -4.19,7.39 -4.14,12.78 h 29.48 z m -1.08,19.93 19.67,3.29 q -3.81,10.82 -12,16.46 c -5.45,3.79 -12.28,5.65 -20.47,5.65 q -19.45,0 -28.78,-12.7 c -4.95,-6.77 -7.42,-15.36 -7.42,-25.68 q 0,-18.56 9.71,-29 9.71,-10.44 24.5,-10.55 16.64,0 26.26,11 9.62,11 9.2,33.67 h -49.44 q 0.22,8.77 4.77,13.64 a 15,15 0 0 0 11.39,4.89 12.11,12.11 0 0 0 7.79,-2.51 c 2.11,-1.7 3.71,-4.41 4.77,-8.15 z m -68.3,23.73 h -19.7 v -74.56 h 18.31 v 10.6 q 4.71,-7.52 8.46,-9.9 a 15.64,15.64 0 0 1 8.53,-2.4 25,25 0 0 1 13,3.74 l -6.11,17.18 c -3.31,-2.13 -6.4,-3.21 -9.25,-3.21 a 10.85,10.85 0 0 0 -7,2.28 c -1.95,1.52 -3.43,4.27 -4.53,8.25 -1.1,3.98 -1.65,12.32 -1.65,25 v 23 z m -79.09,-37.26 q 0,11.1 5.28,17 a 17.2,17.2 0 0 0 25.93,0 q 5.24,-5.9 5.24,-17.13 c 0,-7.29 -1.75,-12.92 -5.24,-16.85 a 17.21,17.21 0 0 0 -25.93,0 c -3.52,3.93 -5.28,9.61 -5.28,17 z m -20.22,-1.05 a 40.6,40.6 0 0 1 4.84,-19 33.25,33.25 0 0 1 13.73,-14 40.74,40.74 0 0 1 19.84,-4.95 q 16.9,0 27.73,11 10.83,11 10.8,27.78 0,16.89 -10.9,28 c -7.28,7.43 -16.44,11.12 -27.49,11.12 a 43.17,43.17 0 0 1 -19.56,-4.62 31.82,31.82 0 0 1 -14.16,-13.59 c -3.21,-6 -4.84,-13.23 -4.84,-21.81 z m -112.79,-36.25 h 18.19 v 10.17 q 9.75,-11.87 23.21,-11.87 a 24.93,24.93 0 0 1 12.42,3 22.64,22.64 0 0 1 8.65,8.91 34.17,34.17 0 0 1 10.63,-8.91 25.93,25.93 0 0 1 12.15,-3 27,27 0 0 1 13.9,3.36 20.38,20.38 0 0 1 8.48,9.78 q 2,4.77 2,15.46 v 47.67 h -19.68 v -42.62 c 0,-7.41 -0.67,-12.18 -2,-14.33 -1.82,-2.8 -4.63,-4.22 -8.42,-4.22 a 13.37,13.37 0 0 0 -7.81,2.54 14,14 0 0 0 -5.32,7.36 q -1.62,4.89 -1.63,15.41 v 35.81 h -19.69 v -40.82 c 0,-7.26 -0.36,-11.94 -1.05,-14 a 9,9 0 0 0 -3.26,-4.7 10.38,10.38 0 0 0 -6,-1.56 14.17,14.17 0 0 0 -8.2,2.47 13.4,13.4 0 0 0 -5.25,7.09 c -1.05,3.09 -1.58,8.2 -1.58,15.37 v 36.23 h -19.74 z"
       fill="#1d1d1b"
       id="path1" />
    <path
       d="m 178.92104,22.524121 v 68.15 a 68.67,68.67 0 0 1 0,-68.15 z m 114.76,-7.55 a 29.45,29.45 0 0 0 -11.47,-2.07 32.28,32.28 0 0 0 -14,2.72 q -5.68,2.71 -12.56,10.26 a 24.29,24.29 0 0 0 -8.73,-9.72 q -5.28,-3.27 -14.4,-3.26 a 32.27,32.27 0 0 0 -14.47,3 c -4,2 -7.94,5.31 -11.88,10 v -11.23 h -22 a 68.77,68.77 0 0 1 109.51,0.3 z m 4.44,76.63 a 68.83,68.83 0 0 1 -118.59,0 h 28.7 v -39.28 q 0,-8.76 3.23,-12.61 a 10.31,10.31 0 0 1 8.25,-3.83 8.49,8.49 0 0 1 5.39,1.79 9.49,9.49 0 0 1 3.23,4.67 27.4,27.4 0 0 1 0.59,6.86 v 42.4 h 29.27 v -39.7 c 0,-5.57 1,-9.59 3.13,-12.12 a 10.39,10.39 0 0 1 8.33,-3.76 8.85,8.85 0 0 1 7.32,4 c 1.35,1.69 2,4.28 2,7.77 v 43.83 h 19.15 z"
       fill="#e30613"
       id="path2" />
  </g>
  <metadata
     id="metadata6">
    <rdf:RDF>
      <cc:Work
         rdf:about="">
        <dc:title>logo</dc:title>
      </cc:Work>
    </rdf:RDF>
  </metadata>
</svg>
