<svg
   viewBox="0 0 749.40333 137.45445"
   version="1.1"
   id="svg3"
   width="749.40332"
   height="137.45445"
   xmlns="http://www.w3.org/2000/svg"
   xmlns:svg="http://www.w3.org/2000/svg"
   xmlns:rdf="http://www.w3.org/1999/02/22-rdf-syntax-ns#"
   xmlns:cc="http://creativecommons.org/ns#"
   xmlns:dc="http://purl.org/dc/elements/1.1/">
  <defs
     id="defs3" />
  <title
     id="title1">logo</title>
  <g
     fill-rule="evenodd"
     id="g3"
     transform="translate(-169.75777,12.176216)">
    <path
       d="m 917.34104,80.674121 1.82,11.17 a 47.4,47.4 0 0 1 -9.54,1.13 c -4.6,0 -8.15,-0.72 -10.69,-2.18 a 12.18,12.18 0 0 1 -5.32,-5.73 c -1,-2.34 -1.56,-7.34 -1.56,-14.9 v -42.96 h -9.28 v -9.83 h 9.28 V -1.1058787 l 12.58,-7.57 V 17.374121 h 12.7 v 9.83 h -12.7 v 43.59 c 0,3.61 0.21,5.92 0.64,7 a 5.42,5.42 0 0 0 2.18,2.46 8.43,8.43 0 0 0 4.31,0.92 40.21,40.21 0 0 0 5.56,-0.5 z m -86,-33.14 h 41.58 c -0.55,-6.26 -2.16,-11 -4.77,-14.1 a 19.39,19.39 0 0 0 -15.65,-7.3 20.11,20.11 0 0 0 -14.65,5.82 c -4,3.89 -6.13,9.09 -6.57,15.58 z m 41.49,20.44 13.06,1.61 q -3.09,11.48 -11.43,17.78 -8.34,6.3 -21.35,6.3 -16.35,0 -25.93,-10.06 -9.58,-10.06 -9.58,-28.26 0,-18.84 9.68,-29.21 9.68,-10.37 25.09,-10.46 15,0 24.42,10.19 9.42,10.19 9.49,28.64 c 0,0.77 0,1.89 -0.07,3.38 h -55.6 q 0.69,12.29 7,18.81 a 20.64,20.64 0 0 0 15.58,6.54 19.3,19.3 0 0 0 11.86,-3.67 c 3.29,-2.42 5.87,-6.3 7.79,-11.65 z m -119,24 v -74.6 h 11.36 v 10.6 q 8.18,-12.3 23.67,-12.3 a 31.21,31.21 0 0 1 12.39,2.42 19.39,19.39 0 0 1 8.46,6.37 24.22,24.22 0 0 1 4,9.33 74.15,74.15 0 0 1 0.69,12.29 v 45.84 h -12.69 v -45.36 c 0,-5.12 -0.48,-9 -1.46,-11.55 a 12.13,12.13 0 0 0 -5.22,-6.08 16.54,16.54 0 0 0 -8.83,-2.26 20.59,20.59 0 0 0 -14,5.13 q -5.86,5.14 -5.85,19.46 v 40.72 h -12.57 z m -24.39,-14.4 h 14.4 v 14.4 h -14.4 v -14.44 z m 0,14.4 z m -26.52,-43.7 q -0.22,-8.59 -4.41,-13 a 14.22,14.22 0 0 0 -20.92,0.26 c -2.81,3.12 -4.2,7.39 -4.15,12.78 h 29.48 z m -1.1,19.93 19.67,3.29 q -3.81,10.82 -12,16.46 c -5.44,3.79 -12.27,5.65 -20.47,5.65 q -19.45,0 -28.78,-12.7 c -4.89,-6.77 -7.32,-15.36 -7.32,-25.68 q 0,-18.56 9.7,-29 9.7,-10.44 24.47,-10.55 16.64,0 26.27,11 9.63,11 9.2,33.67 h -49.45 q 0.22,8.77 4.77,13.64 a 14.94,14.94 0 0 0 11.39,4.89 12.11,12.11 0 0 0 7.79,-2.51 c 2.11,-1.7 3.72,-4.41 4.77,-8.15 z m -71.13,-79.21 h 19.73 v 102.94 h -19.73 z m 0,102.94 z m -23.69,-43.66 q -0.22,-8.59 -4.41,-13 a 13.57,13.57 0 0 0 -10.26,-4.46 13.71,13.71 0 0 0 -10.67,4.72 c -2.8,3.12 -4.19,7.39 -4.14,12.78 h 29.48 z m -1.08,19.93 19.67,3.29 q -3.81,10.82 -12,16.46 c -5.45,3.79 -12.28,5.65 -20.47,5.65 q -19.45,0 -28.78,-12.7 c -4.95,-6.77 -7.42,-15.36 -7.42,-25.68 q 0,-18.56 9.71,-29 9.71,-10.44 24.5,-10.55 16.64,0 26.26,11 9.62,11 9.2,33.67 h -49.44 q 0.22,8.77 4.77,13.64 a 15,15 0 0 0 11.39,4.89 12.11,12.11 0 0 0 7.79,-2.51 c 2.11,-1.7 3.71,-4.41 4.77,-8.15 z m -68.3,23.73 h -19.7 v -74.56 h 18.31 v 10.6 q 4.71,-7.52 8.46,-9.9 a 15.64,15.64 0 0 1 8.53,-2.4 25,25 0 0 1 13,3.74 l -6.11,17.18 c -3.31,-2.13 -6.4,-3.21 -9.25,-3.21 a 10.85,10.85 0 0 0 -7,2.28 c -1.95,1.52 -3.43,4.27 -4.53,8.25 -1.1,3.98 -1.65,12.32 -1.65,25 v 23 z m -79.09,-37.26 q 0,11.1 5.28,17 a 17.2,17.2 0 0 0 25.93,0 q 5.24,-5.9 5.24,-17.13 c 0,-7.29 -1.75,-12.92 -5.24,-16.85 a 17.21,17.21 0 0 0 -25.93,0 c -3.52,3.93 -5.28,9.61 -5.28,17 z m -20.22,-1.05 a 40.6,40.6 0 0 1 4.84,-19 33.25,33.25 0 0 1 13.73,-14 40.74,40.74 0 0 1 19.84,-4.95 q 16.9,0 27.73,11 10.83,11 10.8,27.78 0,16.89 -10.9,28 c -7.28,7.43 -16.44,11.12 -27.49,11.12 a 43.17,43.17 0 0 1 -19.56,-4.62 31.82,31.82 0 0 1 -14.16,-13.59 c -3.21,-6 -4.84,-13.23 -4.84,-21.81 z m -112.79,-36.25 h 18.19 v 10.17 q 9.75,-11.87 23.21,-11.87 a 24.93,24.93 0 0 1 12.42,3 22.64,22.64 0 0 1 8.65,8.91 34.17,34.17 0 0 1 10.63,-8.91 25.93,25.93 0 0 1 12.15,-3 27,27 0 0 1 13.9,3.36 20.38,20.38 0 0 1 8.48,9.78 q 2,4.77 2,15.46 v 47.67 h -19.68 v -42.62 c 0,-7.41 -0.67,-12.18 -2,-14.33 -1.82,-2.8 -4.63,-4.22 -8.42,-4.22 a 13.37,13.37 0 0 0 -7.81,2.54 14,14 0 0 0 -5.32,7.36 q -1.62,4.89 -1.63,15.41 v 35.81 h -19.69 v -40.82 c 0,-7.26 -0.36,-11.94 -1.05,-14 a 9,9 0 0 0 -3.26,-4.7 10.38,10.38 0 0 0 -6,-1.56 14.17,14.17 0 0 0 -8.2,2.47 13.4,13.4 0 0 0 -5.25,7.09 c -1.05,3.09 -1.58,8.2 -1.58,15.37 v 36.23 h -19.74 z"
       fill="#1d1d1b"
       id="path1" />
  </g>
  <path
     id="path4"
     style="fill:#000000;stroke-width:0.220105"
     d="m 70.234399,0.01388841 c -1.16836,-0.0233 -2.34015,-0.0176 -3.51367,0.0195 -6.36345,0.20142 -12.06862,1.13033999 -18.02344,2.93554999 -7.82709,2.37278 -16.0971,6.7257497 -22.69727,11.9453096 -2.56167,2.02581 -8.98422,8.37962 -10.63476,10.52148 l -1.05859,1.375 h 11.01953 11.01953 v 5.324217 5.32422 l 2.25586,-2.30859 c 5.7883,-5.922597 10.82584,-8.652387 18.08789,-9.804687 3.42491,-0.54344 10.87935,-0.3108 14.04297,0.43945 2.48267,0.58877 5.36712,1.81204 7.125,3.02149 2.43074,1.67239 5.31434,4.806477 6.92383,7.523427 0.41235,0.69608 0.79019,1.26563 0.83789,1.26563 0.0477,0 1.34391,-1.21794 2.88085,-2.70703 5.7261,-5.547777 9.65768,-7.831807 15.857431,-9.212887 2.09069,-0.46576 2.82679,-0.51446 7.70507,-0.50196 5.33352,0.0137 5.42072,0.0218 8.01954,0.71094 1.44517,0.38324 2.67246,0.65371 2.72656,0.59961 0.18119,-0.1812 -3.10769,-3.93907 -5.78516,-6.60937 C 104.58172,7.4667584 87.759819,0.36375841 70.234399,0.01385841 Z M 8.8261981,35.064665 l -0.75977,1.32226 c -1.20935,2.09871 -3.54834,7.54466 -4.60547,10.72461 -2.43597,7.32769 -3.46593007,13.82488 -3.460940065171,21.84961 C 0.00701803,79.801195 2.4768881,90.157265 7.3340081,99.720915 c 0.72241,1.422425 1.35535,2.585945 1.40625,2.585945 0.0509,0 0.0918,-15.129535 0.0898,-33.621105 z m 41.2070309,13.15039 c -2.94768,-0.1513 -5.97422,1.01714 -8.04688,3.25586 -1.45446,1.57099 -2.40625,3.47266 -3.05078,6.09375 -0.46814,1.90365 -0.47698,2.26038 -0.55078,24.10547 l -0.0742,22.175785 -14.3164,0.0566 -14.3183609,0.0566 1.9804709,2.9707 c 2.43036,3.64564 3.77591,5.35049 6.6914,8.47461 4.23286,4.53575 7.45885,7.278 12.60547,10.71875 3.85377,2.57642 10.2419,5.80257 14.52734,7.33789 5.05244,1.81011 11.63895,3.28851 17.05664,3.82618 3.53298,0.35061 12.19049,0.12063 15.73829,-0.41797 12.74114,-1.93427 23.623921,-6.6515 33.566401,-14.54883 2.98982,-2.37482 7.97063,-7.36224 10.42383,-10.4375 1.92231,-2.40976 5.42383,-7.47234 5.42383,-7.8418 0,-0.10876 -4.15621,-0.19336 -9.46485,-0.19336 h -9.46484 l -0.004,-23.054695 c -0.004,-25.10503 0.0123,-24.76426 -1.24609,-27.3457 -0.78747,-1.61546 -2.71515,-3.50904 -4.36328,-4.28906 -1.87819,-0.88891 -4.870571,-1.03779 -6.933591,-0.34375 -3.41961,1.15044 -5.58943,3.37973 -6.85938,7.04101 -1.01348,2.92174 -1.0615,4.09694 -1.0625,26.69727 v 21.294925 h -14.74023 -14.73829 l -0.0801,-23.605475 c -0.058,-17.07128 -0.15066,-23.91116 -0.33789,-24.70703 -0.70645,-3.00304 -2.95372,-5.75937 -5.47852,-6.7207 -0.92725,-0.35306 -1.90025,-0.54918 -2.88281,-0.59961 z" />
  <metadata
     id="metadata6">
    <rdf:RDF>
      <cc:Work
         rdf:about="">
        <dc:title>logo</dc:title>
      </cc:Work>
    </rdf:RDF>
  </metadata>
</svg>
