<svg id="MOYA" width="500" height="175.6008" viewBox="0 0 500 175.6008" version="1.1" xml:space="preserve" xmlns:xlink="http://www.w3.org/1999/xlink" xmlns="http://www.w3.org/2000/svg" xmlns:svg="http://www.w3.org/2000/svg">
	<path id="MOYA" style="fill:#000000;stroke:#000000;stroke-width:0" d="m 355.46529,120.1134 c -19.14777,31.33876 -30.44602,43.66683 -50.87919,55.48739 18.62916,-19.52931 29.92,-38.54371 30.96833,-58.19156 l 0.64456,-5.92695 A 115.49779,115.49779 0 0 0 315.63246,47.656404 l -6.55299,-8.731142 A 161.00197,161.00197 0 0 0 261.16747,0 c 36.999,9.8943067 77.98017,36.095142 92.4901,73.216388 13.86907,-18.892162 18.37355,-41.488669 18.11425,-64.4815414 a 116.16457,116.16457 0 0 1 2.68935,63.9703414 96.312982,96.312982 0 0 1 -2.556,10.268446 149.37773,149.37773 0 0 1 -12.59477,30.068176 z M 349.80505,14.258026 A 14.96926,14.96926 0 0 1 364.84099,29.293964 14.96926,14.96926 0 0 1 349.80505,44.318789 15.05446,15.05446 0 0 1 334.76911,29.293964 15.058164,15.058164 0 0 1 349.80505,14.258026 M 0.01852,36.743403 h 27.8752 v 11.809453 h 1.41877 C 33.6725,39.310514 44.34842,34.683787 61.42546,34.683787 a 55.535547,55.535547 0 0 1 22.73727,3.84511 28.208591,28.208591 0 0 1 13.23192,12.720723 23.574455,23.574455 0 0 1 11.56126,-12.720723 53.257375,53.257375 0 0 1 22.59651,-3.84511 71.99025,71.99025 0 0 1 20.04051,2.315216 29.594016,29.594016 0 0 1 12.84296,7.83469 26.500887,26.500887 0 0 1 6.66783,11.953923 99.424632,99.424632 0 0 1 1.67436,22.092716 V 115.86822 H 143.23222 V 78.876628 a 81.04367,81.04367 0 0 0 -0.64455,-12.076166 11.853905,11.853905 0 0 0 -2.69677,-5.526884 c -2.96347,-2.826415 -8.48295,-4.371127 -16.7066,-4.371127 -8.60889,0 -14.51362,1.67066 -17.59564,5.00457 a 15.799033,15.799033 0 0 0 -3.46726,7.201248 75.061152,75.061152 0 0 0 -0.90757,13.998722 V 115.86822 H 71.67908 V 78.876628 A 110.41543,110.41543 0 0 0 71.16048,66.548566 10.112863,10.112863 0 0 0 68.59337,61.40323 c -2.81901,-2.963476 -8.21624,-4.500779 -16.43619,-4.500779 -8.86449,0 -15.02482,1.67066 -18.11795,4.886031 a 12.261383,12.261383 0 0 0 -3.45986,7.067892 74.5055,74.5055 0 0 0 -1.02981,14.250617 V 115.86822 H 0 Z m 239.70079,20.151639 h -0.37044 V 34.668969 h 0.12225 a 216.44491,216.44491 0 0 1 30.19412,1.544712 36.750811,36.750811 0 0 1 15.66938,5.645423 21.333326,21.333326 0 0 1 7.96804,11.179714 80.654714,80.654714 0 0 1 2.05592,21.70376 c 0,7.334605 -0.13336,12.857784 -0.51491,16.569538 a 45.330075,45.330075 0 0 1 -2.31892,9.905424 22.515012,22.515012 0 0 1 -17.20668,14.10985 176.57133,176.57133 0 0 1 -35.84695,2.59304 h -0.12225 V 95.583226 h 0.25931 q 16.75475,0 21.57781,-3.489493 c 3.09313,-2.433755 4.62673,-7.69763 4.62673,-16.047225 a 34.450413,34.450413 0 0 0 -1.41877,-11.427906 9.8572633,9.8572633 0 0 0 -5.39723,-5.267579 55.224382,55.224382 0 0 0 -19.26259,-2.448572 m -0.37044,0 a 54.890991,54.890991 0 0 0 -19.5256,2.307807 10.183246,10.183246 0 0 0 -5.26388,5.786188 34.261491,34.261491 0 0 0 -1.54101,11.820566 32.124084,32.124084 0 0 0 1.28541,11.046358 9.3349506,9.3349506 0 0 0 5.00457,5.130519 54.294592,54.294592 0 0 0 20.04051,2.593041 v 22.34091 a 199.74572,199.74572 0 0 1 -31.48694,-1.67066 30.375633,30.375633 0 0 1 -15.28413,-6.29739 20.744335,20.744335 0 0 1 -7.32719,-11.831679 106.80739,106.80739 0 0 1 -1.92626,-24.404228 86.103806,86.103806 0 0 1 0.90756,-14.895173 24.996923,24.996923 0 0 1 2.96348,-9.371994 23.037324,23.037324 0 0 1 15.15818,-11.694618 q 10.77965,-3.08572 36.9916,-3.082016 z m 206.92474,42.007277 a 66.530045,66.530045 0 0 0 17.96607,-1.937372 6.9382391,6.9382391 0 0 0 5.5343,-7.038257 6.6678218,6.6678218 0 0 0 -4.75638,-6.5641 121.87297,121.87297 0 0 0 -18.74399,-0.896452 V 65.655819 h 0.37043 a 64.248168,64.248168 0 0 1 14.63958,1.15946 15.758286,15.758286 0 0 1 7.85321,4.993458 h 1.29652 v -4.115528 c 0,-6.297387 -1.17057,-10.138793 -3.47838,-11.683506 -2.31892,-1.670659 -7.95693,-2.437459 -16.81773,-2.437459 a 35.780273,35.780273 0 0 0 -3.84881,0.129652 V 34.683787 c 2.55599,-0.129652 5.37871,-0.129652 8.21623,-0.129652 a 149.95931,149.95931 0 0 1 26.58239,1.541007 22.744681,22.744681 0 0 1 12.07987,6.42704 19.399657,19.399657 0 0 1 5.40093,9.375698 73.835014,73.835014 0 0 1 1.39284,16.29912 v 47.67122 h -28.37158 v -10.78705 h -1.42988 a 20.029396,20.029396 0 0 1 -10.37217,9.8869 33.105735,33.105735 0 0 1 -10.53516,2.32262 26.830574,26.830574 0 0 0 -2.96347,0.24449 z M 445.64017,82.45873 c -9.8906,0 -16.1954,0.514904 -18.4995,1.807721 a 6.712274,6.712274 0 0 0 -4.37854,6.430743 6.4826046,6.4826046 0 0 0 4.24518,6.545579 49.827151,49.827151 0 0 0 16.1954,1.674364 h 3.08572 v 18.621743 c -4.50449,0.26301 -10.67222,0.37044 -18.63656,0.37044 a 84.866555,84.866555 0 0 1 -18.36615,-1.5299 23.578159,23.578159 0 0 1 -10.4055,-5.13793 c -3.84882,-3.73027 -5.66024,-9.63129 -5.66024,-17.992002 0,-9.112689 2.18556,-15.802737 6.66782,-19.907152 a 28.07153,28.07153 0 0 1 14.26173,-6.297387 248.03556,248.03556 0 0 1 32.12038,-1.418765 v 16.817729 z m 0.64826,-47.786056 v 19.014405 a 64.529698,64.529698 0 0 0 -15.92869,1.155756 7.2975606,7.2975606 0 0 0 -4.48596,6.667821 h -29.42732 a 27.956695,27.956695 0 0 1 3.85622,-13.998721 27.112104,27.112104 0 0 1 16.42507,-10.279559 150.18898,150.18898 0 0 1 29.56068,-2.563407" />
</svg>
