<svg
   width="134.97661"
   height="47.403999"
   viewBox="0 0 134.97661 47.404"
   version="1.1"
   id="svg1"
   xmlns="http://www.w3.org/2000/svg"
   xmlns:svg="http://www.w3.org/2000/svg">
  <defs
     id="defs1" />
  <g
     id="logo"
     transform="translate(187.194,-39.135)"
     style="fill:#000000">
    <path
       id="Path_1"
       data-name="Path 1"
       d="m -90.572,63.75 a 17.96,17.96 0 0 0 4.85,-0.523 1.873,1.873 0 0 0 1.494,-1.9 1.8,1.8 0 0 0 -1.284,-1.772 32.9,32.9 0 0 0 -5.06,-0.242 v -4.54 h 0.1 a 17.344,17.344 0 0 1 3.952,0.313 4.254,4.254 0 0 1 2.12,1.348 h 0.35 v -1.111 c 0,-1.7 -0.316,-2.737 -0.939,-3.154 -0.626,-0.451 -2.148,-0.658 -4.54,-0.658 a 9.659,9.659 0 0 0 -1.039,0.035 v -5.134 c 0.69,-0.035 1.452,-0.035 2.218,-0.035 a 40.482,40.482 0 0 1 7.176,0.416 6.14,6.14 0 0 1 3.261,1.735 5.237,5.237 0 0 1 1.458,2.531 19.932,19.932 0 0 1 0.376,4.4 v 12.869 h -7.659 v -2.912 h -0.386 a 5.407,5.407 0 0 1 -2.8,2.669 8.937,8.937 0 0 1 -2.844,0.627 7.243,7.243 0 0 0 -0.8,0.066 z m -0.175,-4.441 c -2.67,0 -4.372,0.139 -4.994,0.488 a 1.812,1.812 0 0 0 -1.182,1.736 1.75,1.75 0 0 0 1.146,1.767 13.451,13.451 0 0 0 4.372,0.452 h 0.833 v 5.027 c -1.216,0.071 -2.881,0.1 -5.031,0.1 a 22.91,22.91 0 0 1 -4.958,-0.413 6.365,6.365 0 0 1 -2.809,-1.387 c -1.039,-1.007 -1.528,-2.6 -1.528,-4.857 0,-2.46 0.59,-4.266 1.8,-5.374 a 7.578,7.578 0 0 1 3.85,-1.7 66.958,66.958 0 0 1 8.671,-0.383 v 4.54 z m 0.175,-12.9 v 5.133 a 17.42,17.42 0 0 0 -4.3,0.312 1.97,1.97 0 0 0 -1.211,1.8 h -7.944 a 7.547,7.547 0 0 1 1.041,-3.779 7.319,7.319 0 0 1 4.434,-2.775 40.544,40.544 0 0 1 7.98,-0.692"
       transform="translate(23.855,2.086)"
       fill="#fff"
       style="fill:#000000" />
    <path
       id="Path_2"
       data-name="Path 2"
       d="m -133.664,52.4 h -0.1 v -6 h 0.033 a 58.43,58.43 0 0 1 8.151,0.417 9.921,9.921 0 0 1 4.23,1.524 5.759,5.759 0 0 1 2.151,3.018 21.773,21.773 0 0 1 0.555,5.859 c 0,1.98 -0.036,3.471 -0.139,4.473 a 12.237,12.237 0 0 1 -0.626,2.674 6.078,6.078 0 0 1 -4.645,3.809 47.666,47.666 0 0 1 -9.677,0.7 h -0.033 v -6.03 h 0.07 q 4.523,0 5.825,-0.942 c 0.835,-0.657 1.249,-2.078 1.249,-4.332 a 9.3,9.3 0 0 0 -0.383,-3.085 2.661,2.661 0 0 0 -1.457,-1.422 14.908,14.908 0 0 0 -5.2,-0.661 m -0.1,0 a 14.818,14.818 0 0 0 -5.271,0.623 2.749,2.749 0 0 0 -1.421,1.562 9.249,9.249 0 0 0 -0.416,3.191 8.672,8.672 0 0 0 0.347,2.982 2.52,2.52 0 0 0 1.351,1.385 14.657,14.657 0 0 0 5.41,0.7 v 6.031 a 53.922,53.922 0 0 1 -8.5,-0.451 8.2,8.2 0 0 1 -4.126,-1.7 5.6,5.6 0 0 1 -1.978,-3.194 28.833,28.833 0 0 1 -0.52,-6.588 23.244,23.244 0 0 1 0.245,-4.021 6.748,6.748 0 0 1 0.8,-2.53 6.219,6.219 0 0 1 4.092,-3.157 q 2.91,-0.833 9.986,-0.832 z"
       transform="translate(11.183,2.094)"
       fill="#fff"
       style="fill:#000000" />
    <path
       id="Path_3"
       data-name="Path 3"
       d="m -187.305,46.96 h 7.525 v 3.188 h 0.383 c 1.177,-2.495 4.059,-3.744 8.669,-3.744 a 14.992,14.992 0 0 1 6.138,1.038 7.615,7.615 0 0 1 3.572,3.434 6.364,6.364 0 0 1 3.121,-3.434 14.377,14.377 0 0 1 6.1,-1.038 19.434,19.434 0 0 1 5.41,0.625 7.989,7.989 0 0 1 3.467,2.115 7.154,7.154 0 0 1 1.8,3.227 26.84,26.84 0 0 1 0.452,5.964 v 9.985 h -7.976 v -9.986 a 21.878,21.878 0 0 0 -0.174,-3.26 3.2,3.2 0 0 0 -0.728,-1.492 c -0.8,-0.763 -2.29,-1.18 -4.51,-1.18 -2.324,0 -3.918,0.451 -4.75,1.351 a 4.265,4.265 0 0 0 -0.936,1.944 20.263,20.263 0 0 0 -0.245,3.779 v 8.844 h -7.973 v -9.986 a 29.807,29.807 0 0 0 -0.14,-3.328 2.73,2.73 0 0 0 -0.693,-1.389 c -0.761,-0.8 -2.218,-1.215 -4.437,-1.215 -2.393,0 -4.056,0.451 -4.891,1.319 a 3.31,3.31 0 0 0 -0.934,1.908 20.113,20.113 0 0 0 -0.278,3.847 v 8.844 h -7.977 z"
       transform="translate(0.116,2.094)"
       fill="#fff"
       style="fill:#000000" />
    <path
       id="Path_4"
       data-name="Path 4"
       d="m -113.089,42.123 a 4.041,4.041 0 0 1 4.059,4.059 4.041,4.041 0 0 1 -4.059,4.056 4.064,4.064 0 0 1 -4.059,-4.056 4.065,4.065 0 0 1 4.059,-4.059"
       transform="translate(20.326,0.861)"
       fill="#fff"
       style="fill:#000000" />
    <path
       id="Path_5"
       data-name="Path 5"
       d="m -107.118,71.56 c -5.169,8.46 -8.219,11.788 -13.735,14.979 5.029,-5.272 8.077,-10.405 8.36,-15.709 l 0.174,-1.6 A 31.179,31.179 0 0 0 -117.871,52 l -1.769,-2.357 a 43.463,43.463 0 0 0 -12.934,-10.508 c 9.988,2.671 21.051,9.744 24.968,19.765 3.744,-5.1 4.96,-11.2 4.89,-17.407 a 31.359,31.359 0 0 1 0.726,17.269 26,26 0 0 1 -0.69,2.772 40.325,40.325 0 0 1 -3.4,8.117 z"
       transform="translate(15.883)"
       fill="#fff"
       style="fill:#000000" />
  </g>
</svg>
