<svg
   width="904"
   height="417.23499"
   viewBox="0 0 904 417.23499"
   fill="none"
   version="1.1"
   id="svg3"
   xmlns="http://www.w3.org/2000/svg"
   xmlns:svg="http://www.w3.org/2000/svg">
  <defs
     id="defs3" />
  <path
     fill-rule="evenodd"
     clip-rule="evenodd"
     d="M 0,97.162097 340.155,9.0280875 c 0,0 25.758,-7.11418 42.329,-5.78618 14.736,1.33123 36.366,9.8060895 36.366,9.8060895 0,0 24.406,9.3384 40.978,10.2215 15.653,0.8996 39.576,-5.3381 39.576,-5.3381 L 552.805,4.1315975 c 0,0 23.938,-7.12074 49.245,-2.66579 27.622,5.33481 49.72,27.5897895 49.72,27.5897895 l -139.474,36.052 c 0,0 -27.149,7.1271 -44.638,5.3476 -15.661,-1.7793 -38.22,-11.5789 -38.22,-11.5789 0,0 -20.703,-7.5555 -34.975,-8.4551 -16.11,-1.3279 -41.427,5.3413 -41.427,5.3413 L 74.5631,128.324 c 0,0 10.5977,12.02 33.6019,21.362 29.922,11.566 63.527,3.555 63.527,3.555 l 194.221,-50.289 c 0,0 27.176,-7.121003 44.655,-5.338503 13.816,1.3215 34.07,9.341503 34.07,9.341503 0,0 23.02,9.787 38.664,11.128 16.573,1.331 41.87,-6.231 41.87,-6.231 L 719.434,61.551897 c 0,0 57.068,-20.0374 116.903,15.1312 C 892.958,109.631 904,164.817 904,164.817 l -340.146,88.121 c 0,0 -19.333,5.348 -38.206,4.899 -22.556,-0.431 -41.419,-9.795 -41.419,-9.795 0,0 -12.43,-7.108 -31.302,-9.8 -24.39,-3.117 -46.949,5.345 -46.949,5.345 l -49.255,12.906 c 0,0 -23.928,5.348 -48.795,-1.779 C 280.773,246.7 264.2,229.787 264.2,229.787 l 128.421,-32.915 c 0,0 24.387,-6.683 41.436,-5.8 19.316,0.903 37.742,10.696 37.742,10.696 0,0 22.552,8.891 37.737,9.783 16.112,1.332 41.424,-5.347 41.424,-5.347 l 278.95,-72.552 c 0,0 -17.965,-20.917 -51.102,-26.697 -24.866,-4.455 -46.485,1.783 -46.485,1.783 l -193.781,50.29 c 0,0 -26.246,6.669 -43.288,5.348 -15.181,-1.351 -37.269,-10.245 -37.269,-10.245 0,0 -19.787,-8.001 -33.601,-9.793 -17.496,-1.783 -45.109,5.348 -45.109,5.348 l -194.244,50.728 c 0,0 -63.053,20.041 -123.3617,-20.466 C 8.73981,144.78 0,97.162097 0,97.162097 Z"
     fill="#38913E"
     id="path1"
     style="fill:#000000" />
  <path
     d="m 505.576,393.029 c 17.123,0 34.17,-13.318 38.799,-30.331 2.453,-9.013 0.976,-17.967 -4.06,-24.546 -4.516,-5.915 -11.331,-9.357 -19.309,-9.891 l -81.268,-0.194 -4.426,16.262 h 81.323 c 0,0 1.481,-0.083 2.212,-0.083 3.842,0 6.847,1.27 8.684,3.679 1.99,2.596 2.461,6.351 1.315,10.551 -2.573,9.457 -12.221,17.506 -21.619,18.379 h -65.343 -15.418 l -10.988,40.38 h 16.262 l 6.565,-24.11 h 65.055 c 0,0 1.485,-0.096 2.216,-0.096 z M 356.249,327.981 c -9.656,0 -19.282,4.237 -26.673,10.971 -0.223,-0.324 -0.42,-0.668 -0.655,-0.974 -4.521,-5.92 -11.324,-9.352 -19.312,-9.891 l -48.739,-0.189 h -16.26 l -24.309,89.337 c 8.982,0 18.249,-7.281 20.692,-16.27 l 15.451,-56.796 h 48.796 c 0,0 1.477,-0.098 2.213,-0.098 3.842,0 6.847,1.266 8.684,3.68 1.99,2.608 2.454,6.356 1.31,10.558 -1.165,4.286 1.359,8.714 5.655,9.872 0.706,0.204 1.415,0.287 2.112,0.287 3.547,0 6.79,-2.348 7.762,-5.929 2.571,-9.46 12.222,-17.508 21.617,-18.37 h 48.146 l -15.367,56.796 c -2.443,8.989 2.856,16.27 11.839,16.27 l 24.306,-89.337 c 0,0 -66.534,0.083 -67.268,0.083 z m 309.464,9.938 c -0.65,0.893 -1.906,2.541 -2.328,4.092 -2.571,9.469 -12.246,17.535 -21.649,18.379 h -64.41 l 8.836,-32.492 h -16.264 l -22.123,81.307 h 16.267 l 8.853,-32.543 c 0,0 66.491,-0.089 67.222,-0.089 3.847,0 6.844,1.266 8.684,3.685 1.987,2.593 2.564,6.283 1.423,10.492 -0.181,0.67 -0.459,2.088 -0.459,2.088 -2.441,8.969 2.858,16.262 11.844,16.262 0,0 3.876,-13.512 4.031,-14.069 2.455,-9.028 0.981,-17.967 -4.053,-24.561 -0.135,-0.169 -0.304,-0.334 -0.449,-0.506 8.442,-5.522 15.134,-14.01 17.773,-23.717 0.194,-0.711 0.54,-2.097 0.54,-2.097 l 4.256,-16.282 c -6.861,0 -13.963,4.033 -17.994,10.051 z"
     fill="#38913E"
     id="path3"
     style="fill:#000000" />
</svg>
