<svg id="MYWORLD" width="500" height="106.07596" viewBox="0 0 500 106.07596" version="1.1" xml:space="preserve" xmlns:xlink="http://www.w3.org/1999/xlink" xmlns="http://www.w3.org/2000/svg" xmlns:svg="http://www.w3.org/2000/svg">
	<path id="MYWORLD" style="fill:#000000;stroke:#000000;stroke-width:0" d="M 276.86731,0 256.92753,62.951848 235.11215,0 h -10.7177 L 203.20751,62.951848 182.64902,0 h -18.46366 l 32.05078,87.24204 h 13.94762 l 10.60078,-27.169355 9.10517,-27.768575 9.21234,27.534735 10.8541,27.422685 h 13.94762 l 31.4126,-87.242043 z m 171.97518,56.794045 a 17.538048,17.538048 0 1 0 35.03712,0 A 17.416256,17.416256 0 0 0 466.1808,38.968568 16.831654,16.831654 0 0 0 448.84736,56.794045 M 500,0.818442 V 87.36871 h -14.12787 l -0.97434,-8.413393 A 22.209989,22.209989 0 0 1 465.21133,88.73278 29.95596,29.95596 0 0 1 433.76464,56.794045 c 0,-21.050529 13.25584,-31.938734 31.08619,-31.938734 6.44523,0 16.46141,3.458893 20.06645,9.777462 V 0.818442 Z m -88.48919,0 H 425.8579 V 87.36871 h -14.34709 z m -38.51063,25.512988 1.11074,7.063936 a 17.976499,17.976499 0 0 1 17.20677,-8.666719 23.072276,23.072276 0 0 1 15.71604,5.846016 l -6.82035,13.129178 a 15.063234,15.063234 0 0 0 -10.88333,-3.970419 14.079155,14.079155 0 0 0 -15.224,15.477327 V 87.40768 H 359.00384 V 26.33143 Z M 302.0539,56.92558 a 16.641659,16.641659 0 1 0 33.17614,0 A 17.250619,17.250619 0 0 0 318.64197,38.841904 16.773194,16.773194 0 0 0 302.0539,56.92558 m 48.41963,0 a 31.768225,31.768225 0 1 1 -63.53645,0 30.555177,30.555177 0 0 1 31.57823,-31.831557 30.866964,30.866964 0 0 1 31.95822,31.831557 M 148.78111,26.33143 137.6347,53.081825 131.30152,69.928094 125.4555,52.701834 116.20418,26.33143 H 98.632032 l 24.382758,60.05807 -8.44749,19.68646 h 16.58807 L 165.50071,26.336302 Z M 40.615196,87.36871 V 54.684607 c 0,-8.048015 -4.20426,-15.350663 -12.510474,-15.350663 -8.174679,0 -13.002514,7.30752 -13.002514,15.350663 V 87.36871 H 0 V 26.204766 h 13.971978 l 1.110743,7.429312 A 17.679327,17.679327 0 0 1 31.159265,25.220687 18.307773,18.307773 0 0 1 49.242941,36.600931 22.107684,22.107684 0 0 1 69.674767,25.454528 c 17.333437,0 25.878364,10.654364 25.878364,28.97188 V 87.36871 H 80.450923 V 54.43128 c 0,-8.048015 -3.351716,-14.858624 -11.506908,-14.858624 A 13.903775,13.903775 0 0 0 55.688174,54.674864 V 87.35896 Z" />
</svg>