<svg
   id="Calque_1"
   data-name="Calque 1"
   viewBox="0 0 1137.775 189.685"
   version="1.1"
   width="1137.775"
   height="189.685"
   xmlns="http://www.w3.org/2000/svg"
   xmlns:svg="http://www.w3.org/2000/svg"
   xmlns:rdf="http://www.w3.org/1999/02/22-rdf-syntax-ns#"
   xmlns:cc="http://creativecommons.org/ns#"
   xmlns:dc="http://purl.org/dc/elements/1.1/">
  <defs
     id="defs7" />
  <title
     id="title1">Plan de travail 1</title>
  <path
     d="m 310.828,22.653 c -46.426,0 -89.457,33.4 -96.249,83.8 -7.362,50.389 26.046,83.232 72.472,83.232 46.426,0 88.888,-32.843 96.245,-83.232 6.8,-50.392 -26.043,-83.8 -72.468,-83.8 m 28.873,83.8 c -3.959,27.744 -24.342,43.6 -46.99,43.6 -22.648,0 -38.5,-15.852 -34.537,-43.6 3.963,-27.748 24.345,-44.164 46.994,-44.164 22.649,0 38.5,16.42 34.533,44.164"
     style="fill:#000000"
     id="path1" />
  <path
     d="m 907.582,65.119 h 59.442 l 5.668,-38.5 H 913.245 L 916.64,0 h -26.043 l -15.851,26.62 -19.819,13.021 -3.4,25.478 h 13.025 l -9.627,66.808 c -6.232,44.725 10.756,62.85 96.25,54.352 l 5.66,-39.064 c -53.783,6.792 -60.58,-2.831 -57.75,-23.213 z"
     style="fill:#000000"
     id="path2" />
  <path
     d="M 150.871,119.2 79.83,15.86 C 73.597,6.802 65.675,4.536 50.953,4.536 H 26.607 L 0,186.279 H 46.425 L 62.708,70.537 135.313,176.652 c 4.528,6.8 11.325,9.627 21.516,9.627 h 30.574 L 213.446,3.971 H 167.02 Z"
     style="fill:#000000"
     id="path3" />
  <path
     d="m 503.33,26.62 c -32.232,-2.521 -41.867,4.8 -59.67,27.6 l -0.345,-27.595 h -33.4 l -22.652,159.654 h 43.031 l 11.845,-83.365 c 4.653,-28.152 19.916,-35.239 54.963,-32.7 z"
     style="fill:#000000"
     id="path4" />
  <path
     d="m 785.854,112.109 c -3.967,30.01 -18.117,40.766 -37.936,40.766 -22.079,0 -31.706,-10.756 -27.744,-40.766 L 732.067,26.62 h -43.031 l -12.457,87.755 c -7.926,57.181 21.515,75.306 65.111,75.306 42.463,0 78.7,-18.125 86.622,-75.306 L 840.769,26.62 h -43.027 z"
     style="fill:#000000"
     id="path5" />
  <path
     d="m 496.537,107.582 c -7.361,53.783 22.08,81.527 62.278,81.527 17.183,0 35.991,-5.559 49.263,-18.874 l 0.56,16.044 h 36.238 L 665.259,39.073 c -19.254,-9.623 -39.072,-14.719 -67.38,-14.719 -48.123,0 -93.416,27.74 -101.342,83.228 m 110.968,38.5 c -6.228,2.83 -13.586,5.66 -27.744,5.66 -28.873,0 -41.894,-16.42 -37.931,-45.293 3.963,-27.744 23.781,-43.031 50.953,-43.031 10.191,0 18.689,1.7 25.478,4.532 z"
     style="fill:#000000"
     id="path6" />
  <path
     d="m 1064.414,22.653 c -46.429,0 -89.456,33.4 -96.253,83.8 -7.361,50.389 26.043,83.232 72.468,83.232 46.425,0 88.892,-32.843 96.254,-83.232 6.8,-50.392 -26.043,-83.8 -72.469,-83.8 m 28.873,83.8 c -3.963,27.744 -24.346,43.6 -46.99,43.6 -22.644,0 -38.5,-15.852 -34.54,-43.6 3.96,-27.748 24.345,-44.164 46.993,-44.164 22.648,0 38.5,16.42 34.537,44.164"
     style="fill:#000000"
     id="path7" />
  <metadata
     id="metadata7">
    <rdf:RDF>
      <cc:Work
         rdf:about="">
        <dc:title>Plan de travail 1</dc:title>
      </cc:Work>
    </rdf:RDF>
  </metadata>
</svg>
