<svg id="NORAUTO" width="500" height="83.356112" viewBox="0 0 500 83.356112" version="1.1" xml:space="preserve" xmlns:xlink="http://www.w3.org/1999/xlink" xmlns="http://www.w3.org/2000/svg" xmlns:svg="http://www.w3.org/2000/svg">
	<path id="NORAUTO" style="fill:#000000;stroke:#000000;stroke-width:0" d="m 467.76121,9.9531983 c -20.40342,0 -39.31182,14.6777707 -42.29879,36.8262627 -3.23482,22.143657 11.44471,36.576652 31.84637,36.576652 20.40166,0 39.06396,-14.432995 42.29922,-36.576652 2.98829,-22.144977 -11.4447,-36.8262627 -31.8468,-36.8262627 m 12.68836,36.8262627 c -1.74156,12.192217 -10.69895,19.160203 -20.64996,19.160203 -9.951,0 -16.91898,-6.966228 -15.17874,-19.160203 1.74024,-12.193976 10.69851,-19.408056 20.65127,-19.408056 9.95276,0 16.91898,7.215838 15.17743,19.408056 m -262.2443,0.496143 c -3.23482,23.635166 9.70315,35.827383 27.36833,35.827383 7.55114,0 15.8164,-2.442926 21.64883,-8.294258 l 0.2461,7.050603 h 15.92494 l 8.95739,-64.690296 c -8.46125,-4.228868 -17.17035,-6.468326 -29.61042,-6.468326 -21.14785,0 -41.05205,12.190459 -44.53517,36.574894 m 48.76536,16.918987 c -2.73692,1.243656 -5.97043,2.487311 -12.19222,2.487311 -12.68836,0 -18.4105,-7.215838 -16.66894,-19.904199 1.74156,-12.192218 10.45066,-18.910154 22.39151,-18.910154 4.47848,0 8.21296,0.747072 11.19642,1.991606 z m 78.37621,-14.929578 c -1.74331,13.188021 -7.96159,17.914791 -16.67113,17.914791 -9.70271,0 -13.93334,-4.72677 -12.19222,-17.914791 l 5.22643,-37.5685 h -18.91015 l -5.47428,38.564304 c -3.48312,25.128431 9.45485,33.093538 28.6133,33.093538 18.66054,0 34.58504,-7.965107 38.0664,-33.093538 l 5.47428,-38.564304 H 350.57108 Z M 221.19048,11.696513 C 207.026,10.588649 202.79186,13.805893 194.96825,23.825449 L 194.81664,11.69871 h -14.67777 l -9.95452,70.160622 h 18.91016 l 5.20533,-36.6351 c 2.04478,-12.371515 8.75217,-15.485927 24.15372,-14.370152 z M 66.300895,52.381183 35.081629,6.9679859 C 32.342511,2.9874097 28.861155,1.9916065 22.39151,1.9916065 H 11.692558 L 0,81.859332 h 20.401661 l 7.155633,-50.863309 31.906573,46.632683 c 1.989848,2.988289 4.976819,4.230626 9.455296,4.230626 H 82.355036 L 93.799742,1.7433148 H 73.397641 Z M 398.84073,28.61506 h 26.12203 l 2.49083,-16.918986 H 401.32935 L 402.8213,0 h -11.4447 l -6.96579,11.696513 -8.70955,5.722133 -1.49414,11.196414 h 5.72389 l -4.23062,29.359057 c -2.73868,19.654589 4.72676,27.619697 42.29746,23.885215 l 2.48731,-17.166839 C 396.85,67.677266 393.86303,63.448398 395.10668,54.491442 Z M 136.59467,9.9531983 c -20.4021,0 -39.312253,14.6777707 -42.297026,36.8262627 -3.235262,22.143657 11.446026,36.576652 31.848126,36.576652 20.4021,0 39.0622,-14.432995 42.29527,-36.576652 C 171.42933,24.634484 156.99633,9.9531983 136.59467,9.9531983 m 12.68836,36.8262627 c -1.7398,12.192217 -10.69719,19.160203 -20.64995,19.160203 -9.95276,0 -16.91899,-6.966228 -15.17743,-19.160203 1.74156,-12.193976 10.69851,-19.408056 20.65171,-19.408056 9.9532,0 16.91899,7.215838 15.17567,19.408056" />
</svg>
