<?xml version="1.0" encoding="UTF-8" standalone="no"?>
<svg
   width="200"
   height="47.753384"
   viewBox="0 0 200 47.753384"
   fill="none"
   version="1.1"
   id="svg6"
   sodipodi:docname="OBI.svg"
   inkscape:version="1.4.2 (ebf0e94, 2025-05-08)"
   xmlns:inkscape="http://www.inkscape.org/namespaces/inkscape"
   xmlns:sodipodi="http://sodipodi.sourceforge.net/DTD/sodipodi-0.dtd"
   xmlns="http://www.w3.org/2000/svg"
   xmlns:svg="http://www.w3.org/2000/svg">
  <defs
     id="defs6" />
  <sodipodi:namedview
     id="namedview6"
     pagecolor="#ffffff"
     bordercolor="#000000"
     borderopacity="0.25"
     inkscape:showpageshadow="2"
     inkscape:pageopacity="0.0"
     inkscape:pagecheckerboard="0"
     inkscape:deskcolor="#d1d1d1"
     inkscape:zoom="2.8750102"
     inkscape:cx="12.521695"
     inkscape:cy="34.956398"
     inkscape:window-width="2560"
     inkscape:window-height="991"
     inkscape:window-x="2294"
     inkscape:window-y="-9"
     inkscape:window-maximized="1"
     inkscape:current-layer="svg6" />
  <path
     fill-rule="evenodd"
     clip-rule="evenodd"
     d="M 135.61772,23.70802 C 146.13726,19.603593 145.76527,0.6952882 129.15255,0.6952882 L 70.118109,0.70773332 69.651622,7.7017526 c 0,0 8.763961,4.2094584 10.064408,4.8244664 -0.08329,1.50497 -1.108983,19.755119 -1.176953,20.941919 -1.00696,0.608853 -10.540194,6.481034 -10.540194,6.481034 l -0.451033,7.454489 h 59.15807 c 18.52189,-0.003 20.45293,-19.33479 8.9118,-23.695641 z m -24.49144,10.97167 c -0.003,0 -5.11891,0 -6.79887,0 0.0834,-1.517483 0.29964,-5.411711 0.37691,-6.79011 1.56015,0 6.92523,0 6.92523,0 4.64299,0 4.31887,6.780811 -0.50327,6.79011 z m 0.90534,-16.859305 c -0.0123,0 -6.47146,-0.0031 -6.80214,-0.0031 0.0741,-1.455669 0.24452,-4.793559 0.31154,-6.128537 0.0807,0 6.80652,0 6.80652,0 4.3216,-0.0063 4.34211,6.131682 -0.31592,6.131682 z"
     fill="#000000"
     id="path1"
     style="stroke-width:1.3676" />
  <path
     fill-rule="evenodd"
     clip-rule="evenodd"
     d="M 47.103668,0 H 21.046737 C 7.7448484,0 1.0908133,10.68735 0.54705743,18.772232 0.54404872,18.806285 0.09601628,25.78485 0.09601628,25.78485 -0.90178127,33.900845 5.9129408,47.753081 18.871987,47.753081 h 25.843859 c 12.520335,0.05552 20.545932,-7.541331 21.710576,-20.843247 l 0.469496,-6.901296 C 67.411775,12.810542 63.575123,0 47.103668,0 Z m -9.471282,30.797771 c -0.09888,2.364299 -1.526099,4.864673 -4.142583,4.901735 h -2.619629 c -2.131534,-0.03091 -3.030454,-1.758591 -2.909969,-4.784259 0,0.0186 0.89892,-15.684814 0.89892,-15.684814 0.07112,-2.426045 1.881401,-4.691467 3.821335,-4.691467 h 2.594876 c 2.128388,-0.01244 3.428971,1.736846 3.428971,4.410153 z"
     fill="#000000"
     id="path2"
     style="stroke-width:1.3676" />
  <path
     d="m 148.81501,1.3134413 -0.46362,6.9632484 c 0,0 10.52775,5.4826213 11.80372,6.1346903 -0.0862,1.437206 -1.00382,17.063351 -1.07493,18.296511 -1.10502,0.596409 -12.19211,6.663335 -12.19211,6.663335 l -0.35011,7.398964 h 50.83626 l 0.45404,-7.161002 c 0,0 -9.79882,-6.465581 -10.87375,-7.161003 0.0643,-1.279522 0.84517,-16.939583 0.91355,-18.246867 1.1775,-0.574937 11.78594,-5.8566588 11.78594,-5.8566588 L 200,1.3104326 h -51.18499 z"
     fill="#000000"
     id="path3"
     style="stroke-width:1.3676" />
</svg>
