<svg id="OBI" width="500" height="119.38345" viewBox="0 0 500 119.38345" version="1.1" xml:space="preserve" xmlns:xlink="http://www.w3.org/1999/xlink" xmlns="http://www.w3.org/2000/svg" xmlns:svg="http://www.w3.org/2000/svg">
	<path id="O" style="fill:#000000;stroke:#000000;stroke-width:0" d="M 117.75917,0 H 52.616841 C 19.36212,0 2.7270327,26.718374 1.3676427,46.930578 1.3601427,47.015708 0.24004074,64.462124 0.24004074,64.462124 -2.2544533,84.75211 14.782351,119.3827 47.179966,119.3827 h 64.609644 c 31.30084,0.13881 51.36483,-18.85333 54.27644,-52.108116 l 1.17374,-17.253241 C 168.52943,32.026353 158.9378,0 117.75917,0 Z M 94.080963,76.994425 C 93.83377,82.905172 90.265714,89.156108 83.724505,89.248763 h -6.549072 c -5.328834,-0.07727 -7.576135,-4.396477 -7.274922,-11.960647 0,0.0465 2.2473,-39.212034 2.2473,-39.212034 0.177788,-6.065114 4.703502,-11.728668 9.553337,-11.728668 h 6.487188 c 5.320972,-0.03111 8.57243,4.342115 8.57243,11.025382 z" />
	<path id="B" style="fill:#000000;stroke:#000000;stroke-width:0" d="M 339.04429,59.270048 C 365.34314,49.008981 364.41318,1.73822 322.88136,1.73822 l -147.58609,0.03111 -1.16622,17.485048 c 0,0 21.9099,10.523646 25.16102,12.061165 -0.20822,3.762425 -2.77246,49.387798 -2.94239,52.354796 -2.5174,1.522133 -26.35048,16.202585 -26.35048,16.202585 l -1.12758,18.636226 h 147.89517 c 46.30473,-0.008 51.13234,-48.336974 22.2795,-59.239102 z m -61.22861,27.429176 c -0.007,0 -12.79728,0 -16.99716,0 0.20856,-3.79371 0.7491,-13.529279 0.94227,-16.975277 3.90038,0 17.31308,0 17.31308,0 11.60746,0 10.79716,16.952027 -1.25819,16.975277 z m 2.26337,-42.148262 c -0.0308,0 -16.17865,-0.0079 -17.00537,-0.0079 0.18531,-3.639171 0.61132,-11.983895 0.77885,-15.321341 0.20172,0 17.0163,0 17.0163,0 10.80401,-0.01573 10.85529,15.329205 -0.78978,15.329205 z" />
	<path id="I" style="fill:#000000;stroke:#000000;stroke-width:0" d="m 372.03752,3.283603 -1.15903,17.408121 c 0,0 26.31937,13.706553 29.50928,15.336726 -0.21539,3.593015 -2.50953,42.658374 -2.68732,45.741276 -2.76254,1.491021 -30.48028,16.658337 -30.48028,16.658337 l -0.87526,18.497407 h 127.09063 l 1.1351,-17.902503 c 0,0 -24.49705,-16.163951 -27.18437,-17.902507 0.16069,-3.198805 2.11293,-42.348956 2.28388,-45.617166 2.94375,-1.437343 29.46484,-14.641647 29.46484,-14.641647 L 500,3.276081 H 372.03752 Z" />
</svg>
