<svg id="OLIMP" width="500" height="59.641888" viewBox="0 0 500 59.641888" version="1.1" xml:space="preserve" xmlns:xlink="http://www.w3.org/1999/xlink" xmlns="http://www.w3.org/2000/svg" xmlns:svg="http://www.w3.org/2000/svg">
	<path id="OLIMP" style="fill:#000000;stroke:#000000;stroke-width:0" d="m 399.15083,0.22655885 c -1.79576,0 -3.37505,0.66397863 -4.72402,1.88793175 -1.23728,1.2239574 -1.90471,2.7821123 -1.90471,4.6736828 V 53.080274 c 0,1.780302 0.66743,3.330062 1.90471,4.665288 1.34897,1.223958 2.81226,1.896327 4.72402,1.896327 1.79577,0 3.2492,-0.672369 4.59817,-1.896327 1.34468,-1.223957 2.02218,-2.773717 2.02218,-4.665288 V 36.500033 h 75.69349 c 2.58195,0 4.94408,-0.450192 7.19093,-1.451611 2.24686,-1.00142 4.15596,-2.224303 5.84003,-3.893336 1.68836,-1.669033 3.03046,-3.558077 4.04434,-5.672186 C 499.54955,23.257953 500,20.918283 500,18.359099 500,15.79992 499.54955,13.469073 498.53997,11.243692 497.52609,9.0187488 496.29569,7.1208802 494.49563,5.5631162 492.81156,3.8940834 490.79076,2.6712 488.6556,1.6697803 486.40875,0.7796295 484.04662,0.22655885 481.46467,0.22655885 Z m 6.62035,13.13161915 h 76.2641 c 1.34468,0 2.58165,0.439611 3.59123,1.5523 1.12558,1.001419 1.56911,2.119598 1.56911,3.566093 0,1.446495 -0.55952,2.667553 -1.56911,3.557704 -1.00958,1.001419 -2.24655,1.443221 -3.59123,1.443221 h -76.2641 V 13.46726 Z M 269.43075,59.640621 c 1.79577,0 3.36814,-0.667613 4.60541,-1.89157 1.23298,-1.223958 1.90747,-2.781292 1.90747,-4.672862 V 20.80908 c 4.15432,3.226797 8.08525,6.008089 11.79278,8.122197 3.70753,2.225377 7.41076,3.89441 11.0066,5.229636 3.59583,1.335226 7.18736,2.225377 10.89489,2.781721 3.59154,0.556345 7.41077,0.778882 11.34169,0.778882 3.70753,0 7.29907,-0.333806 10.8949,-0.778882 3.59153,-0.556344 7.18736,-1.446495 10.7789,-2.781721 3.59583,-1.335226 7.30336,-3.004259 11.12259,-5.229636 3.81493,-2.114108 7.74586,-4.8954 11.90448,-8.122197 v 32.267109 c 0,1.780301 0.67019,3.337636 1.90746,4.672862 1.23728,1.223957 2.80965,1.89157 4.71712,1.89157 1.90746,0 3.36813,-0.667613 4.60541,-1.89157 1.34468,-1.223958 1.90747,-2.781292 1.90747,-4.672862 V 6.7896341 c 0,-1.7803017 -0.67449,-3.3380657 -1.90747,-4.6732919 -1.23728,-1.2239574 -2.80965,-1.89157052 -4.60541,-1.89157052 -1.57237,0 -3.14475,0.66761312 -4.71712,1.89157052 -5.95438,5.2296361 -11.11829,9.2348848 -15.27261,12.1278758 -4.27032,2.89299 -8.08955,5.118367 -11.56939,6.564862 -3.47983,1.446495 -6.73627,2.336646 -9.76932,2.670453 -3.03304,0.333806 -6.40118,0.445075 -9.99701,0.445075 -3.59153,0 -6.96397,-0.222538 -9.99701,-0.556344 -3.14474,-0.333807 -6.40118,-1.223958 -9.99272,-2.670453 -3.48413,-1.446495 -7.41506,-3.671872 -11.68108,-6.564862 -4.26602,-2.89299 -9.32252,-6.8982395 -15.16092,-12.0166068 -0.67448,-0.5563443 -1.46067,-1.0014197 -2.24685,-1.33522625 -0.78619,-0.33380656 -1.57238,-0.55634427 -2.47026,-0.55634427 -1.79577,0 -3.36814,0.66761312 -4.71711,1.89157052 -1.23728,1.2239574 -1.90747,2.7817214 -1.90747,4.6732919 V 53.076189 c 0,1.780301 0.67019,3.337636 1.90747,4.672862 1.23727,1.223957 2.80965,1.89157 4.71711,1.89157 z M 25.273118,8.5921895e-6 C 21.342195,8.5921895e-6 17.861792,0.89637587 14.71748,2.6766775 11.572738,4.4569792 8.9838172,6.7900121 6.7378189,9.6830023 4.4913909,12.575563 2.8095515,15.687925 1.6865523,19.248528 0.56355312,22.697862 0,26.262534 0,29.711869 c 0,3.449334 0.56703295,6.787451 1.5774744,10.236786 1.1234245,3.448905 2.6943216,6.56564 4.7156342,9.347361 l 0.1090779,0.218156 c 2.0213126,2.781721 4.4939475,5.123144 7.5265605,7.014715 2.920051,1.891141 6.28721,2.892642 9.993451,3.003911 H 86.59316 c 3.930927,0 7.411326,-0.894181 10.555638,-2.785751 3.032612,-1.779872 5.725272,-4.113335 7.971272,-7.006325 2.24643,-2.89299 3.93666,-6.013742 5.05966,-9.573916 1.12299,-3.449334 1.67816,-7.007802 1.67816,-10.345868 0,-3.338066 -0.55517,-6.787452 -1.67816,-10.236786 -1.123,-3.449335 -2.69433,-6.563454 -4.71564,-9.456444 C 103.44235,7.3464165 100.85759,5.0129497 97.937535,3.1213835 95.017909,1.229813 91.650321,0.22253771 87.94408,0 Z M 28.302204,13.46726 h 55.480034 c 3.144312,0 5.731368,0.557084 7.753111,1.669768 2.021312,1.112693 3.592635,2.553736 4.715634,4.1115 1.122999,1.669033 1.908445,3.453373 2.357817,5.344943 0.449371,2.00241 0.562183,3.784997 0.562183,5.45403 0,1.669033 -0.225374,3.444983 -0.562183,5.336553 -0.449372,2.002839 -1.234818,3.787184 -2.357817,5.344948 -1.122999,1.668603 -2.694322,2.998807 -4.715634,4.111496 -2.021743,1.112688 -4.608799,1.669771 -7.753111,1.669771 H 28.302204 c -3.144312,0 -5.722978,-0.557083 -7.74472,-1.669771 -2.021313,-1.112689 -3.592635,-2.442893 -4.715635,-4.111496 -1.122999,-1.669033 -1.916835,-3.453377 -2.366207,-5.344948 -0.449371,-2.002839 -0.553797,-3.778789 -0.553797,-5.336553 0,-1.557764 0.216983,-3.45162 0.553797,-5.45403 0.449372,-2.002839 1.243208,-3.787179 2.366207,-5.344943 1.123,-1.669033 2.694322,-2.998812 4.715635,-4.1115 1.909614,-1.112689 4.487851,-1.669768 7.74472,-1.669768 z m 99.170536,40.832886 c 1.6845,1.668603 3.70625,2.892561 5.95224,3.89398 2.246,1.00142 4.71712,1.446495 7.29993,1.446495 h 81.98581 c 1.79577,0 3.36814,-0.667613 4.71711,-1.89157 1.34898,-1.223958 1.90747,-2.781292 1.90747,-4.672862 0,-1.891571 -0.67449,-3.338066 -1.90747,-4.673292 -1.23727,-1.223958 -2.80964,-1.891571 -4.71711,-1.891571 h -82.43475 c -1.34812,0 -2.58325,-0.445075 -3.59412,-1.446495 -1.01087,-1.00142 -1.57237,-2.225377 -1.57237,-3.560603 V 6.7896341 c 0,-1.7803017 -0.67363,-3.3380657 -2.02131,-4.6732919 -1.34769,-1.2239574 -2.80793,-1.89157052 -4.60498,-1.89157052 -1.79663,0 -3.369,0.66761312 -4.71669,1.89157052 -1.23555,1.2239574 -1.90918,2.7817214 -1.90918,4.6732919 V 41.504228 c 0,2.559183 0.44894,4.895829 1.45981,7.121206 1.01087,2.114109 2.35856,4.116948 4.04306,5.674712 z m 115.00431,5.340475 c 1.79577,0 3.36814,-0.667613 4.71711,-1.89157 1.23298,-1.223958 1.90747,-2.781292 1.90747,-4.672862 V 6.7896341 c 0,-1.7803017 -0.67449,-3.3380657 -1.90747,-4.6732919 -1.23727,-1.2239574 -2.80964,-1.89157052 -4.71711,-1.89157052 -1.91176,0 -3.36814,0.66761312 -4.71711,1.89157052 -1.23727,1.2239574 -1.91176,2.7817214 -1.91176,4.6732919 V 53.076189 c 0,1.780301 0.67449,3.337636 1.91176,4.672862 1.34897,1.223957 2.80535,1.89157 4.71711,1.89157 z" />
</svg>
