<svg
   version="1.1"
   id="svg1"
   width="1471.1488"
   height="141.83099"
   viewBox="0 0 1471.1488 141.83099"
   xmlns="http://www.w3.org/2000/svg"
   xmlns:svg="http://www.w3.org/2000/svg">
  <defs
     id="defs1" />
  <g
     id="g1"
     transform="translate(-3654.4939,569.84156)">
    <path
       style="fill:#000000"
       d="m 3781.1687,-428.63788 c -39.46,-3.25363 -87.1944,-18.04966 -100,-30.9966 -4.572,-4.6225 -26.4292,-32.99176 -25.4186,-32.99176 0.3036,0 1.9845,1.07592 3.7353,2.39092 14.1363,10.61757 48.5361,20.8221 84.6833,25.12082 18.7114,2.22521 55.9272,3.00283 75.5,1.57756 45.3313,-3.30095 84.4998,-13.62037 102.8115,-27.08697 2.2262,-1.63714 4.2207,-2.80352 4.4322,-2.59195 0.2116,0.21156 -1.2342,3.59941 -3.2129,7.52855 -1.9787,3.92914 -3.331,7.57526 -3.0052,8.10248 0.3259,0.52723 2.3185,0.95859 4.4281,0.95859 5.868,0 16.6796,3.73909 20.493,7.08732 4.1476,3.64163 5.2419,7.68041 3.1678,11.69125 -6.6271,12.81554 -35.2424,23.0377 -77.6572,27.74129 -16.8712,1.87093 -73.8047,2.80034 -89.9573,1.4685 z m 267.8869,-5.43923 c -8.3987,-2.31592 -14.2911,-5.96277 -21.892,-13.54913 -13.9759,-13.94906 -19.9752,-28.135 -20.7532,-49.07294 -0.3974,-10.69652 -0.1414,-13.83061 1.7156,-21 6.5076,-25.12332 24.0162,-43.93335 44.576,-47.88918 4.2589,-0.81943 27.863,-1.0607 82.4667,-0.84295 l 76.5,0.30507 5.5505,2.31244 c 16.8289,7.01121 30.9097,24.42268 36.7083,45.39097 2.7373,9.8986 2.4323,30.07648 -0.6016,39.79659 -7.1914,23.04027 -23.7812,40.67727 -42.2719,44.94011 -6.9045,1.59178 -156.1138,1.23166 -161.9984,-0.39098 z m 159.1131,-30.65849 c 10.8907,-5.1669 16.9068,-13.90399 19.0322,-27.64064 2.2478,-14.52663 -1.9624,-28.40558 -11.1123,-36.63213 -9.383,-8.4361 -6.054,-8.11787 -84.9199,-8.11787 -52.3612,0 -70.501,0.30509 -73.5592,1.23716 -15.4158,4.69846 -24.6233,20.57223 -23.0642,39.76284 1.1178,13.75987 5.4854,22.55689 14.1633,28.52742 8.6074,5.92206 8.2764,5.89982 84.4601,5.6764 l 69.5,-0.20382 z m 99.5971,30.12394 c -11.1592,-3.5782 -19.2681,-10.65743 -25.2164,-22.01458 l -2.8807,-5.5 -0.2865,-47.62992 -0.2865,-47.62992 2.6556,-3.15599 c 5.4915,-6.52619 13.7298,-7.84617 20.2028,-3.23699 6.1739,4.39622 6.2131,4.716 6.2293,50.80395 0.016,45.6888 -0.06,45.05381 5.8978,49.06886 l 3.3833,2.28001 96.1021,0.007 c 92.4586,0.006 96.2105,0.078 98.9608,1.8913 4.6059,3.03664 6.6273,6.96406 6.6347,12.89084 0.01,4.77678 -0.3736,5.69636 -3.9215,9.5 l -3.928,4.21127 -98.822,0.20367 c -94.5209,0.1948 -99.0788,0.12129 -104.7248,-1.68909 z m 234.7992,0.55605 c -1.7071,-0.74309 -4.1821,-2.86298 -5.5,-4.71085 l -2.3963,-3.35978 -0.2863,-55.5 c -0.2534,-49.1169 -0.1007,-55.98734 1.3279,-59.73736 2.0238,-5.31276 6.3483,-8.46187 12.3362,-8.98324 6.2809,-0.54689 10.9544,2.06621 13.8722,7.75649 l 2.25,4.38789 -0.022,54.53811 c -0.021,51.0076 -0.1423,54.80323 -1.8819,58.63358 -3.3328,7.33863 -11.8981,10.37135 -19.6998,6.97516 z m 61.049,0.47047 c -1.13,-0.45767 -3.4925,-2.46981 -5.25,-4.47141 l -3.1953,-3.63928 v -57.88848 -57.88848 l 2.6191,-3.11264 c 5.009,-5.95289 11.5047,-7.57953 17.6262,-4.41395 1.7303,0.89477 8.1205,5.7629 14.2004,10.81806 29.0845,24.1825 47.765,34.93161 67.5543,38.872 17.787,3.5417 48.6696,2.86343 62.5076,-1.37284 17.4905,-5.35443 38.7944,-18.96324 64.9924,-41.51687 3.3,-2.84093 7.4402,-5.89926 9.2003,-6.79627 6.2052,-3.16222 12.6648,-1.55106 17.6806,4.40987 l 2.6191,3.11264 v 57.51899 c 0,62.79419 0.2217,60.30326 -5.7647,64.76024 -3.8387,2.85799 -11.9091,3.19778 -15.931,0.67073 -6.9073,-4.34009 -6.7506,-3.34642 -7.3043,-46.32271 l -0.5,-38.81121 -9,6.57118 c -21.0915,15.39959 -41.7669,24.80792 -64,29.12319 -12.4402,2.41455 -41.3137,2.4113 -54.5,-0.006 -21.7043,-3.97903 -46.2826,-15.48256 -65.7285,-30.7633 -3.4257,-2.69193 -6.4632,-4.89442 -6.75,-4.89442 -0.2868,0 -0.5232,17.2125 -0.5252,38.25 0,36.40369 -0.1,38.40732 -1.9909,41.50914 -3.7226,6.10561 -12.0424,8.92158 -18.5601,6.28196 z m 289.5547,-0.84266 c -1.925,-1.05854 -4.4,-3.44873 -5.5,-5.31153 -1.9364,-3.27927 -2,-5.18254 -2,-59.88691 v -56.5 l 2.2658,-3.64353 c 4.5747,-7.35655 -2.2869,-6.93527 107.9877,-6.63006 l 98.8517,0.27359 7.5076,3.7108 c 9.2178,4.55614 15.9079,11.10729 20.1866,19.7672 2.9661,6.00342 3.1986,7.21222 3.1729,16.5 -0.022,8.08372 -0.474,11.14076 -2.3348,15.80658 -4.5471,11.40104 -17.4296,21.98999 -29.9367,24.60672 -3.643,0.76219 -32.3185,1.1087 -91.75,1.1087 h -86.4508 v 20.09888 c 0,22.24932 -0.6039,25.05878 -6.251,29.07989 -4.2093,2.99721 -11.316,3.45735 -15.749,1.01967 z m 199.6955,-82.15435 c 7.4792,-4.56032 6.3061,-15.38647 -2.0687,-19.09101 -4.3161,-1.90923 -6.8352,-1.95717 -89.7838,-1.70871 l -85.343,0.25563 -0.2828,11.25 -0.2827,11.25 87.2827,-0.004 c 84.7493,-0.004 87.3756,-0.0603 90.4783,-1.95218 z m -1255.6955,41.38847 c 0,-0.3121 2.025,-3.05335 4.5,-6.09167 5.01,-6.15021 5.1254,-6.59992 3,-11.68664 -2.0148,-4.82226 -1.8934,-7.51872 0.6471,-14.36673 1.7116,-4.61392 3.8915,-7.53538 10.75,-14.40704 13.7408,-13.76726 29.6383,-22.86876 50.4472,-28.88152 13.627,-3.93754 25.3283,-8.40928 38.4057,-14.67704 5.6375,-2.70195 10.25,-4.73669 10.25,-4.52165 0,0.21505 -0.843,1.58546 -1.8733,3.04536 -2.5869,3.66539 -7.2514,13.12364 -11.1724,22.65437 -4.2626,10.36114 -9.457,17.9928 -16.6611,24.47876 -7.1165,6.40717 -30.4472,22.04862 -38.7102,25.95222 -5.1865,2.45022 -19.0046,6.76697 -35.2614,11.01557 -2.2982,0.60061 -6.0533,2.65834 -8.3446,4.57274 -3.881,3.24246 -5.977,4.26407 -5.977,2.91327 z m 22.4713,-15.49864 c 2.9621,-2.23635 10.2553,-6.56985 16.2071,-9.63001 25.7005,-13.21386 46.7271,-30.58466 53.9659,-44.58294 l 1.5961,-3.08652 -4.3702,3.72927 c -9.8464,8.40235 -21.6667,17.31527 -45.8702,34.58767 -14.025,10.0087 -26.6147,19.28911 -27.9772,20.62313 -4.238,4.14938 0.3135,2.99143 6.4485,-1.6406 z m -120.6588,14.38297 c 0.7219,-0.28887 1.5844,-0.25334 1.9167,0.0789 0.3323,0.33229 -0.2583,0.56864 -1.3125,0.52522 -1.1649,-0.048 -1.4019,-0.28494 -0.6042,-0.60417 z m -20.8125,-3.26136 c -42.6629,-8.91191 -65.9523,-23.55078 -63.4987,-39.91288 0.5683,-3.7897 1.6535,-5.47313 6.8371,-10.60652 7.4837,-7.4112 16.485,-12.26813 32.3881,-17.47612 18.9662,-6.21108 39.7884,-9.99827 66.7735,-12.14495 26.2091,-2.08494 76.2222,-0.14805 94.7145,3.66808 l 2.7144,0.56015 -2.3509,6.17836 c -4.1496,10.9052 -10.8142,20.54628 -19.6211,28.38413 l -3.6021,3.20578 -12.9274,-1.06753 c -31.2854,-2.5835 -72.8401,2.17224 -91.644,10.48826 -6.2044,2.74387 -12.57,7.97643 -13.8731,11.40367 -2.2078,5.80714 4.7187,12.90383 17.3324,17.75819 8.6677,3.33572 4.1018,3.18449 -13.2427,-0.43862 z"
       id="path1" />
  </g>
</svg>
