<svg id="ORLEN" width="500" height="105.81395" viewBox="0 0 500 105.81395" version="1.1" xml:space="preserve" xmlns:xlink="http://www.w3.org/1999/xlink" xmlns="http://www.w3.org/2000/svg" xmlns:svg="http://www.w3.org/2000/svg">
		<path id="ORLEN" style="fill:#000000;stroke:#000000;stroke-width:0" d="M 52.85425,6e-5 C 23.64514,6e-5 0.00186,23.71422 0,52.92333 c 0,29.21098 23.64514,52.8579 52.85425,52.8579 29.21098,0 52.92328,-23.64692 52.92328,-52.8579 C 105.77753,23.71422 82.06523,6e-5 52.85425,6e-5 Z m 65.83087,0 v 105.78117 h 33.53284 V 70.91188 l 9.34474,18.94371 7.97553,15.92564 h 42.27471 L 184.09468,62.39519 c 11.82274,-1.6438 20.3456,-11.84589 20.3456,-26.38536 0,-22.80126 -14.3149,-36.00977 -42.05315,-36.00977 h -0.82443 z m 106.06446,0 v 0.0327 105.74849 0.0327 h 70.87913 v -0.0327 -29.08382 H 262.41546 V 0.03273 h -0.0327 V 3e-5 Z m 83.78307,0 v 105.78117 h 0.0327 v 0.0327 h 78.28446 v -0.0327 -29.08382 H 341.7786 V 63.76078 h 21.99445 V 39.03153 H 341.7786 V 25.84066 h 40.65124 V 0.03275 5e-5 Z m 91.2211,0 v 0.029 105.74849 0.0327 h 33.24956 V 52.54194 l 20.65796,32.57766 13.12911,20.66158 v 0.029 H 500 v -0.029 V 0.0327 0 H 466.79038 V 0.0327 53.33368 L 433.00331,0.0327 432.96701,0 Z m -247.53579,25.8406 h 5.78191 c 1.38161,0 2.46768,0.25423 3.55921,0.25423 6.33533,1.12314 9.63166,5.24501 9.63166,11.57105 0,6.05083 -3.29819,10.16551 -9.63166,11.25146 -1.09153,0.27707 -2.1776,0.28692 -3.55921,0.28692 h -5.78191 V 47.83511 27.49314 Z m -99.36371,6.42109 c 11.39319,0 20.66158,9.27025 20.66158,20.66158 0,11.39134 -9.26839,20.6289 -20.66158,20.6289 -11.39133,0 -20.5962,-9.23756 -20.5962,-20.6289 0,-11.39133 9.20487,-20.66158 20.5962,-20.66158 z" />
</svg>
