<svg
   version="1.1"
   x="0px"
   y="0px"
   width="300.00101"
   height="217.185"
   viewBox="519.824 385.425 300.00101 217.185"
   enable-background="new 519.824 385.425 310 225"
   xml:space="preserve"
   id="svg1"
   xmlns="http://www.w3.org/2000/svg"
   xmlns:svg="http://www.w3.org/2000/svg"><defs
   id="defs1" />

<path
   fill="#000000"
   d="m 713.164,385.425 c -14.894,0 -27.651,10.952 -29.776,25.845 h 45.724 18.393 c 5.614,0 11.088,2.27 15.042,6.222 l 21.127,21.127 c 8.974,8.965 25.521,10.175 36.151,-0.461 l -36.596,-36.631 -2.137,-2.273 c -8.959,-8.814 -20.975,-13.828 -33.742,-13.828 h -18.238 -15.948 z m -34.358,30.1 c -14.119,0 -25.811,11.697 -25.811,25.982 0,5.471 1.668,9.873 4.547,14.58 -1.063,-7.592 4.873,-14.58 12.614,-14.58 h 12.153 c 4.558,0 8.976,1.818 12.171,5.008 l 34.63,34.494 24.016,23.998 c 10.032,-10.021 10.032,-26.581 0,-36.613 L 729.11,444.396 713.163,428.43 c -8.201,-8.212 -19.149,-12.905 -30.699,-12.905 z m 39.673,0 c -1.218,1.978 -1.812,4.245 -1.812,6.376 0,6.988 5.6,12.614 12.443,12.614 6.986,0 12.461,-5.626 12.461,-12.614 0,-2.131 -0.612,-4.398 -1.675,-6.376 H 729.11 Z M 519.824,521.093 v 81.517 h 293.521 v -81.517 z m 40.732,12.306 c 15.709,0 28.46,12.752 28.46,28.46 0,15.709 -12.751,28.426 -28.46,28.426 -15.708,0 -28.425,-12.717 -28.425,-28.426 10e-4,-15.708 12.717,-28.46 28.425,-28.46 z m 35.401,0 h 23.059 0.444 c 14.917,0 22.614,7.104 22.614,19.366 0,7.819 -4.582,13.304 -10.94,14.188 l 14.905,23.332 h -22.733 l -4.29,-8.563 -5.025,-10.188 v 18.751 h -18.033 v -56.886 z m 57.039,0 h 20.238 v 0.017 h 0.018 v 41.229 h 17.861 v 15.641 0.017 h -38.117 v -0.017 -56.869 z m 45.057,0 h 39.741 v 0.017 13.88 h -21.862 v 7.094 h 11.829 v 13.298 h -11.829 v 6.957 h 24.238 v 15.641 0.017 h -42.1 v -0.017 h -0.017 z m 49.057,0 h 17.862 l 0.018,0.017 18.17,28.665 v -28.665 -0.017 h 17.861 v 0.017 56.869 0.017 H 783.16 v -0.017 l -7.06,-11.11 -11.11,-17.521 v 28.647 h -17.88 v -0.017 -56.869 z m -133.12,13.897 v 0.889 10.939 0.735 h 3.11 c 0.743,0 1.328,-0.004 1.915,-0.153 3.406,-0.584 5.179,-2.798 5.179,-6.052 0,-3.402 -1.772,-5.618 -5.179,-6.222 -0.587,0 -1.172,-0.137 -1.915,-0.137 h -3.11 z m -53.434,3.453 c -6.126,0 -11.076,4.984 -11.076,11.11 0,6.126 4.95,11.094 11.076,11.094 6.127,0 11.111,-4.968 11.111,-11.094 0,-6.126 -4.984,-11.11 -11.111,-11.11 z"
   id="path1" />
</svg>
