<svg id="PAYBACK" width="500" height="75.850533" viewBox="0 0 500 75.850533" version="1.1" xml:space="preserve" xmlns:xlink="http://www.w3.org/1999/xlink" xmlns="http://www.w3.org/2000/svg" xmlns:svg="http://www.w3.org/2000/svg">
	<path id="P" style="fill:#000000;stroke:#000000;stroke-width:0" d="M 60.652538,25.585611 C 60.652538,7.8081428 49.079755,1.1851645 31.72058,1.1851645 H 0 V 74.386503 H 18.126046 V 50.683212 h 12.200223 c 17.847183,0 30.326269,-6.622978 30.326269,-25.306748 m -20.078082,0.836587 c 0,5.577245 -3.416062,9.899609 -10.108756,9.899609 H 17.359175 V 16.592303 h 13.385387 c 6.622978,0 9.829894,4.810374 9.829894,9.620748" />
	<path id="A" style="fill:#000000;stroke:#000000;stroke-width:0" d="M 133.78416,75.153374 106.73452,1.2548801 H 85.889571 L 58.839933,75.153374 h 20.56609 l 4.810374,-13.943112 h 24.051873 l 4.81037,13.943112 z M 104.57334,47.26715 H 87.911322 c 0,0 7.320134,-26.003904 8.296152,-30.883993 0.906302,4.880089 8.296156,30.883993 8.365866,30.883993" />
	<path id="Y" style="fill:#000000;stroke:#000000;stroke-width:0" d="m 201.96598,1.2548801 h -21.54211 c 0,0 -15.12828,29.5593979 -16.52259,33.8120469 C 162.50697,30.814278 147.37869,1.2548801 147.37869,1.2548801 h -21.75125 l 29.07139,51.1712219 v 22.030117 h 18.12604 V 52.077524 Z" />
	<path id="B" style="fill:#000000;stroke:#000000;stroke-width:0" d="m 272.03012,50.822644 c 0,-8.226437 -3.90407,-13.385388 -10.52705,-16.17401 4.9498,-2.858338 8.85387,-6.344116 8.85387,-14.29169 0,-12.269939 -7.45956,-19.0323484 -25.86447,-19.0323484 H 210.54099 V 74.525934 h 34.43949 c 18.54434,-0.06972 27.04964,-8.78416 27.04964,-23.70329 M 253.06748,23.563859 c 0,3.485778 -2.23089,6.971557 -8.087,6.971557 H 228.66704 V 15.895148 h 16.31344 c 6.34412,0 8.087,4.39208 8.087,7.668711 m 1.60346,28.792527 c 0,4.182934 -3.1372,8.853876 -8.22643,8.853876 h -17.77747 v -17.42889 h 17.9169 c 4.88009,0 8.087,4.252649 8.087,8.575014" />
	<path id="A" style="fill:#000000;stroke:#000000;stroke-width:0" d="M 353.80647,75.153374 326.75683,1.2548801 H 305.91188 L 278.86224,75.153374 h 20.56609 l 4.81038,-13.943112 h 24.05186 l 4.81038,13.943112 z M 324.87451,47.26715 h -16.94088 c 0,0 7.32013,-26.003904 8.29615,-30.883993 0.97602,4.949805 8.29615,30.883993 8.29615,30.883993" />
	<path id="C" style="fill:#000000;stroke:#000000;stroke-width:0" d="m 422.4763,56.887897 -17.35918,-9.132738 c -4.0435,6.90184 -6.76241,11.921361 -13.24595,11.921361 -8.9236,0 -14.7797,-10.457334 -14.7797,-21.68154 0,-11.642498 5.99554,-21.751254 14.57055,-21.751254 6.76241,0 9.34188,5.856107 11.99108,12.688232 l 18.61405,-7.250419 C 417.17791,7.8081428 409.99721,0 391.73173,0 c -19.93865,0 -33.95147,14.29169 -33.95147,37.925265 0,21.751255 11.78193,37.925265 33.81204,37.925265 17.63804,0 25.93419,-9.341885 30.884,-18.962633" />
	<path id="K" style="fill:#000000;stroke:#000000;stroke-width:0" d="M 498.60569,74.456219 473.5778,29.141104 496.02621,1.2548801 h -21.47239 c 0,0 -20.1478,26.5616289 -23.21528,31.3720019 0.20915,-5.368098 0.34858,-31.3720019 0.34858,-31.3720019 H 433.56107 V 74.456219 h 18.12605 V 52.983826 l 10.73619,-11.503067 16.03458,32.97546 H 500 Z" />
</svg>
