<svg
   width="95.344803"
   height="26.966669"
   viewBox="0 0 95.344803 26.966669"
   version="1.1"
   id="svg1"
   xmlns="http://www.w3.org/2000/svg"
   xmlns:svg="http://www.w3.org/2000/svg">
  <defs
     id="defs1" />
  <g
     id="Page-1"
     stroke="none"
     stroke-width="1"
     fill="none"
     fill-rule="evenodd"
     transform="translate(170.18551,52.837204)">
    <path
       style="fill:#000000;stroke-width:0.0753243"
       d="m -168.32846,-42.705754 c -1.17587,-0.377024 -1.98275,-1.613072 -1.84089,-2.820044 0.10468,-0.890723 0.70403,-1.710732 1.5351,-2.10029 0.36539,-0.171274 0.52972,-0.20113 1.10701,-0.20113 0.57728,0 0.74161,0.02986 1.107,0.20113 0.54647,0.256153 1.02942,0.739099 1.30946,1.309459 0.19059,0.388185 0.21989,0.533132 0.21989,1.088099 0,0.554968 -0.0293,0.699914 -0.21989,1.088099 -0.46082,0.938536 -1.28068,1.481049 -2.30199,1.523256 -0.35632,0.01472 -0.69597,-0.01813 -0.91569,-0.08858 z m 1.62978,-0.787676 c 0.33325,-0.143746 0.7368,-0.521355 0.92855,-0.868871 0.17347,-0.314375 0.17347,-1.418083 0,-1.732458 -0.19587,-0.354981 -0.59696,-0.725425 -0.9607,-0.887308 -0.41703,-0.185603 -1.13366,-0.195812 -1.54966,-0.02207 -0.38888,0.162412 -0.84656,0.602442 -1.0242,0.984707 -0.17456,0.375638 -0.18791,1.140658 -0.0267,1.527736 0.1345,0.322857 0.57726,0.80652 0.88714,0.969084 0.49764,0.26107 1.18144,0.272503 1.74553,0.02918 z"
       id="path1" />
    <path
       style="fill:#000000;stroke-width:0.0753243"
       d="m -162.97012,-43.533733 v -4.105174 l 2.16557,0.0013 c 1.57072,9.48e-4 2.30304,0.03044 2.66603,0.107381 0.92425,0.195901 1.50593,0.607325 1.85041,1.308793 0.193,0.393029 0.21016,0.498672 0.21016,1.294192 0,0.778028 -0.02,0.908413 -0.19681,1.280513 -0.51808,1.090579 -1.4455,1.506486 -3.35926,1.506486 h -1.07638 v 1.355837 1.355837 h -1.12986 -1.12986 z m 4.27253,-0.464926 c 0.68701,-0.326007 0.59426,-1.553242 -0.13675,-1.809383 -0.14112,-0.04945 -0.62097,-0.09182 -1.06632,-0.09416 l -0.80974,-0.0043 v 1.016878 1.016878 h 0.87368 c 0.66058,0 0.93843,-0.03073 1.13913,-0.125966 z"
       id="path2" />
    <path
       style="fill:#000000;stroke-width:0.0753243"
       d="m -155.54414,-40.916214 c 0.30454,-0.81821 0.98977,-2.657065 1.52274,-4.086343 l 0.96904,-2.598688 1.17119,-0.0207 1.17119,-0.0207 1.51534,4.058679 c 0.83344,2.232273 1.51535,4.080442 1.51535,4.107042 0,0.0266 -0.50435,0.04836 -1.12077,0.04836 h -1.12076 l -0.22186,-0.809736 -0.22187,-0.809736 -1.51637,-0.02038 -1.51638,-0.02038 -0.0839,0.321677 c -0.0461,0.176923 -0.15074,0.550475 -0.23248,0.830117 l -0.14862,0.508438 h -1.11779 -1.11779 z m 4.69155,-1.996094 c -0.28918,-0.723217 -0.96954,-2.611013 -0.96954,-2.690179 0,-0.17715 -0.13525,-0.06083 -0.17804,0.153115 -0.0254,0.127108 -0.26693,0.819905 -0.53668,1.53955 -0.26976,0.719646 -0.49047,1.327463 -0.49047,1.350706 0,0.02324 0.52489,0.04226 1.16643,0.04226 h 1.16643 z"
       id="path3" />
    <path
       style="fill:#000000;stroke-width:0.0753243"
       d="m -145.34424,-40.978644 v -1.550084 l -1.54334,-2.555089 -1.54334,-2.55509 h 1.31309 1.31309 l 0.55972,1.073371 c 0.30785,0.590354 0.67415,1.352159 0.81401,1.6929 0.13986,0.340741 0.27124,0.619529 0.29196,0.619529 0.0207,0 0.15237,-0.278788 0.29257,-0.619529 0.14019,-0.340741 0.50708,-1.102546 0.81529,-1.6929 l 0.56038,-1.073371 h 1.27496 c 0.70123,0 1.27496,0.01657 1.27496,0.03682 0,0.02025 -0.6943,1.181187 -1.54289,2.579857 l -1.5429,2.543037 -0.001,1.525317 -0.001,1.525316 h -1.16752 -1.16753 z"
       id="path4" />
    <path
       style="fill:#000000;stroke-width:0.0753243"
       d="m -138.79103,-43.533733 v -4.105174 l 2.39155,0.0013 c 2.64603,0.0014 3.18172,0.06283 3.78077,0.433187 0.68674,0.424579 1.0232,1.267696 0.83733,2.098238 -0.0716,0.319962 -0.1656,0.488881 -0.4066,0.730672 -0.17241,0.172974 -0.37532,0.348395 -0.45092,0.389823 -0.12067,0.06613 -0.0885,0.107504 0.26364,0.338959 0.56286,0.369975 0.81536,0.874799 0.81536,1.630154 0,1.319411 -0.75515,2.22246 -2.09395,2.504051 -0.24478,0.05148 -1.31543,0.08395 -2.76817,0.08395 h -2.36901 z m 4.74622,2.322604 c 0.27475,-0.162299 0.37583,-0.394437 0.37583,-0.863119 0,-0.31832 -0.0352,-0.41406 -0.22017,-0.59905 l -0.22018,-0.220179 h -1.28631 -1.28631 v 0.903892 0.903891 h 1.2124 c 0.99594,0 1.25031,-0.02239 1.42474,-0.125435 z m -0.0544,-3.415724 c 0.24143,-0.18991 0.318,-0.520665 0.20194,-0.872341 -0.13561,-0.410881 -0.3867,-0.482579 -1.69006,-0.482579 h -1.09462 v 0.753243 0.753243 h 1.19503 c 1.08338,0 1.21303,-0.01416 1.38771,-0.151566 z"
       id="path5" />
    <path
       style="fill:#000000;stroke-width:0.0753243"
       d="m -130.7792,-39.595976 c 0.0247,-0.09435 0.70318,-1.934131 1.50785,-4.088406 l 1.46304,-3.916863 1.16606,-0.0207 c 1.05785,-0.01878 1.171,-0.0083 1.21923,0.112986 0.2632,0.661876 2.97736,7.97184 2.97736,8.018823 0,0.03387 -0.50244,0.06157 -1.11654,0.06157 h -1.11655 l -0.22046,-0.809736 -0.22046,-0.809736 -1.51207,-0.02035 -1.51207,-0.02035 -0.22624,0.811254 -0.22623,0.811253 -1.11387,0.02089 -1.11387,0.02089 z m 5.23671,-3.128021 c -0.34697,-0.896928 -0.95901,-2.581515 -1,-2.752417 -0.0604,-0.25177 -0.16687,-0.209831 -0.23312,0.09182 -0.0264,0.120354 -0.26632,0.803666 -0.53307,1.518471 -0.26675,0.714805 -0.485,1.310812 -0.485,1.324459 0,0.01365 0.52455,0.02481 1.16566,0.02481 h 1.16566 z"
       id="path6" />
    <path
       style="fill:#000000;stroke-width:0.0753243"
       d="m -118.86775,-39.3656 c -0.61133,-0.114988 -1.41259,-0.553869 -1.84403,-1.010055 -1.51303,-1.59981 -1.48824,-4.763106 0.0497,-6.338676 1.34963,-1.382677 4.12262,-1.428113 5.32813,-0.0873 0.33955,0.37766 0.85925,1.310366 0.77634,1.393282 -0.0367,0.03675 -1.93308,0.782416 -1.98978,0.782416 -0.0109,0 -0.0922,-0.144057 -0.18055,-0.320128 -0.31512,-0.627816 -0.67412,-0.88506 -1.23515,-0.88506 -0.63786,0 -1.08322,0.365975 -1.32911,1.092202 -0.15592,0.460491 -0.13647,2.010935 0.0313,2.492253 0.14145,0.4059 0.49921,0.83211 0.79186,0.943378 0.26975,0.102557 0.90248,0.07963 1.13607,-0.04116 0.22461,-0.116151 0.69561,-0.605047 0.83648,-0.868273 0.0848,-0.158428 0.10108,-0.153368 0.9666,0.30014 0.4842,0.253707 0.91059,0.490725 0.94753,0.526708 0.0976,0.09505 -0.34732,0.75183 -0.78938,1.165331 -0.81885,0.765937 -2.18845,1.100879 -3.49595,0.854947 z"
       id="path7" />
    <path
       style="fill:#000000;stroke-width:0.0753243"
       d="m -113.18077,-43.533733 v -4.105174 h 1.16597 1.16596 l 0.0204,1.50669 0.0204,1.506689 0.40013,-0.508643 c 0.22008,-0.279753 0.79295,-0.957764 1.27305,-1.506689 l 0.87291,-0.998047 h 1.23149 c 0.67731,0 1.23148,0.01803 1.23148,0.04006 0,0.02203 -0.5285,0.640635 -1.17444,1.374668 -0.64594,0.734033 -1.19197,1.377154 -1.2134,1.429158 -0.0323,0.07832 1.18877,2.451302 2.48035,4.820357 l 0.29773,0.546101 -1.23083,-0.0022 -1.23083,-0.0022 -0.97869,-1.776878 -0.9787,-1.776878 -0.50896,0.543332 -0.50896,0.543332 v 1.235785 1.235785 h -1.16752 -1.16753 z"
       id="path8" />
    <path
       style="fill:#000000;stroke-width:0.0753243"
       d="m -89.319416,-35.62867 c -1.693694,-0.410608 -2.996524,-2.01887 -2.996524,-3.699021 0,-1.032243 0.386332,-1.932793 1.160576,-2.705328 0.571869,-0.570607 1.062765,-0.854154 1.811728,-1.046475 1.195662,-0.307025 2.547621,0.03594 3.472007,0.880775 0.529085,0.483553 0.81853,0.903892 1.054964,1.532038 1.056282,2.806283 -1.573118,5.74825 -4.502751,5.038011 z"
       id="path9" />
    <path
       style="fill:#000000;stroke-width:0.0753243"
       d="m -79.613698,-35.631195 c -1.905699,-0.46127 -3.232657,-2.420115 -2.914211,-4.301938 0.329149,-1.945073 2.096803,-3.365581 4.033976,-3.241752 2.058405,0.131579 3.653228,1.799326 3.653228,3.820274 0,2.434464 -2.391281,4.299903 -4.772993,3.723416 z"
       id="path10" />
    <path
       style="fill:#000000;stroke-width:0.0753243"
       d="m -79.397825,-45.230188 c -1.641189,-0.329419 -2.884033,-1.621617 -3.138296,-3.26292 -0.292658,-1.889139 1.101326,-3.861868 3.010187,-4.259936 2.725436,-0.568354 5.164234,1.830527 4.60199,4.526666 -0.298618,1.431965 -1.534538,2.65508 -2.995867,2.96483 -0.544123,0.115334 -1.010364,0.125226 -1.478014,0.03136 z"
       id="path11" />
    <path
       style="fill:#000000;stroke-width:0.0753243"
       d="m -89.189982,-45.241356 c -0.207142,-0.03921 -0.630841,-0.193301 -0.941554,-0.342411 -1.502043,-0.720827 -2.397872,-2.420273 -2.122448,-4.026424 0.246949,-1.440094 1.380722,-2.697577 2.782705,-3.086335 1.941385,-0.53833 4.03491,0.562021 4.689929,2.465011 0.945546,2.747049 -1.519405,5.537144 -4.408632,4.990159 z m 2.097993,-0.950144 c 1.043797,-0.488452 1.706429,-1.470541 1.766676,-2.618397 0.0879,-1.6748 -0.979613,-3.006002 -2.62054,-3.267832 -1.365531,-0.217886 -2.702485,0.469856 -3.325094,1.710462 -0.242484,0.483171 -0.254088,0.544133 -0.254088,1.33486 0,0.775544 0.01539,0.86106 0.24052,1.33631 0.273271,0.576879 0.815879,1.163559 1.312011,1.418576 0.605081,0.311017 0.896926,0.371791 1.657192,0.345095 0.620921,-0.0218 0.795123,-0.0587 1.223323,-0.259074 z"
       id="path12" />
    <path
       style="fill:#000000;stroke-width:0.0753243"
       d="m -98.999032,-45.267054 c -1.366058,-0.296825 -2.568508,-1.445913 -2.918278,-2.78877 -0.61969,-2.379168 1.25197,-4.780459 3.726075,-4.780459 1.027923,0 1.964792,0.389349 2.718728,1.129864 2.149459,2.111197 1.167489,5.649447 -1.776883,6.40249 -0.674825,0.172592 -1.085236,0.181241 -1.749642,0.03688 z m 1.810738,-0.791216 c 1.58614,-0.489908 2.506211,-2.223815 2.023438,-3.813241 -0.368666,-1.213752 -1.274532,-2.011051 -2.506284,-2.205909 -2.108647,-0.333578 -3.92898,1.465455 -3.60066,3.558531 0.29672,1.891617 2.204266,3.041058 4.083506,2.460619 z"
       id="path13" />
    <path
       style="fill:#000000;stroke-width:0.0753243"
       d="m -98.906816,-35.588517 c -1.436594,-0.287581 -2.645994,-1.426409 -3.013594,-2.837725 -0.44225,-1.697879 0.42677,-3.565377 2.019807,-4.340525 1.159453,-0.564173 2.256581,-0.571593 3.404165,-0.02302 2.097145,1.002482 2.822435,3.613469 1.538047,5.536855 -0.85087,1.274187 -2.475886,1.959196 -3.948425,1.664418 z m 2.096842,-0.966074 c 2.358142,-1.16091 2.353815,-4.490289 -0.0073,-5.608758 -0.479412,-0.2271 -0.556075,-0.24052 -1.373971,-0.24052 -0.783392,0 -0.907668,0.01942 -1.299544,0.203066 -2.197031,1.029604 -2.449361,4.047152 -0.453273,5.4205 0.57915,0.398465 1.02018,0.514913 1.870164,0.493792 0.685089,-0.01702 0.806066,-0.04268 1.263914,-0.26808 z"
       id="path14" />
    <path
       style="fill:#000000;stroke-width:0.0753243"
       d="m -99.057464,-25.976037 c -2.441446,-0.603114 -3.679076,-3.26179 -2.552906,-5.484181 0.23684,-0.467378 0.89455,-1.17549 1.38288,-1.488848 0.813837,-0.522238 1.956419,-0.718661 2.894724,-0.497634 2.628852,0.61925 3.841643,3.574209 2.389236,5.821364 -0.856383,1.324991 -2.598876,2.023566 -4.113934,1.649299 z m 2.240201,-0.927554 c 2.365309,-1.111244 2.357182,-4.501188 -0.01348,-5.624558 -0.463921,-0.219835 -0.547428,-0.234211 -1.360488,-0.234211 -0.797789,0 -0.900435,0.01679 -1.299168,0.212529 -1.937141,0.950937 -2.427711,3.41116 -0.987251,4.951121 0.694181,0.742137 1.299056,0.982511 2.399405,0.953512 0.665467,-0.01754 0.812411,-0.04765 1.260986,-0.258393 z"
       id="path15" />
    <path
       style="fill:#000000;stroke-width:0.0753243"
       d="m -89.36279,-25.987438 c -1.423781,-0.383231 -2.582229,-1.576396 -2.869911,-2.955922 -0.259537,-1.244561 0.119691,-2.486809 1.042032,-3.413414 1.561783,-1.569004 3.927682,-1.580835 5.481108,-0.02741 1.165393,1.165393 1.452646,2.811967 0.749032,4.293576 -0.778831,1.639998 -2.704718,2.560085 -4.402261,2.103169 z m 1.996596,-0.797737 c 0.853881,-0.316812 1.389543,-0.809966 1.784047,-1.64247 0.215238,-0.454208 0.233704,-0.555669 0.233704,-1.284081 0,-0.733191 -0.01755,-0.827956 -0.240521,-1.298647 -0.312518,-0.659731 -0.85488,-1.201294 -1.510163,-1.507937 -1.010845,-0.473032 -2.360931,-0.343641 -3.224481,0.30903 -0.496404,0.375183 -0.876153,0.895383 -1.084537,1.485657 -0.240724,0.681881 -0.20008,1.684149 0.09308,2.295217 0.374958,0.78158 1.023524,1.375857 1.810898,1.659315 0.565273,0.2035 1.566446,0.195969 2.137977,-0.01608 z"
       id="path16" />
    <path
       style="fill:#000000;stroke-width:0.0753243"
       d="m -79.602583,-25.987161 c -1.907777,-0.462509 -3.221692,-2.366305 -2.930449,-4.246075 0.307453,-1.984389 2.112368,-3.43935 4.085551,-3.293404 2.393519,0.177036 4.075309,2.465557 3.487448,4.745595 -0.183244,0.710718 -0.52467,1.278801 -1.08792,1.810143 -1.001111,0.944397 -2.26926,1.295357 -3.55463,0.983741 z"
       id="path17" />
  </g>
</svg>
