<svg id="PEPLOYALTYCLUB" width="500" height="83.162712" viewBox="0 0 500 83.162712" version="1.1" xml:space="preserve" xmlns:xlink="http://www.w3.org/1999/xlink" xmlns="http://www.w3.org/2000/svg" xmlns:svg="http://www.w3.org/2000/svg">
	<path id="PEPLOYALTYCLUB" style="fill:#000000;stroke:#000000;stroke-width:0" d="m 378.86498,59.97515 h 18.39013 V 0.00732 H 378.86498 Z M 213.75354,45.98265 H 195.76319 V 0.4071 h -18.39013 v 59.96783 h 36.38048 z m 217.88313,-1.99892 c -2.7985,0 -3.19828,-0.79957 -3.19828,-3.59807 v -7.19614 -5.597 h 7.59592 V 11.6011 h -7.59592 V 0.00732 H 409.64846 V 11.6011 h -5.99678 v 15.99142 h 5.99678 v 3.19828 c 0,4.39764 0,8.79529 0.39979,13.19293 0.39979,5.99678 2.7985,11.19399 8.3955,13.99249 5.59699,2.7985 11.59378,1.99893 17.99035,1.99893 V 43.98373 h -1.99893 z M 65.56483,58.76848 c 6.39657,2.7985 12.79314,2.7985 19.18975,0.39978 7.19614,-2.7985 12.39335,-7.99571 14.39228,-16.39121 H 80.35694 c -0.79957,0 -1.19936,0.79958 -1.99893,1.19936 -0.79957,0.39979 -1.99893,1.19936 -3.19829,1.59914 -3.59811,0.39979 -5.59703,-1.59914 -5.59703,-5.99678 h 29.58417 c 0,-0.79957 0.39978,-1.19936 0.39978,-1.59914 V 34.38156 C 99.14686,23.98713 93.54986,15.99142 84.35479,13.19292 79.95715,11.59378 75.55951,11.59378 71.56165,11.99357 62.76641,13.19292 56.3698,17.99035 53.17156,26.38585 c -1.99893,4.79742 -1.99893,9.99464 -1.1994,14.79206 1.59914,8.3955 5.597,14.39228 13.59271,17.59057 z m 9.99464,-31.98285 c 3.19832,0 4.79743,1.19936 5.59704,4.79743 H 70.3623 c 0.39978,-3.59807 1.99893,-4.79743 5.19717,-4.79743 z m 165.37949,33.98909 c 1.19936,0 2.39871,0 3.59807,-0.39979 9.59485,-0.79957 17.59056,-7.19614 20.38906,-16.79099 1.19936,-4.39764 1.19936,-9.19507 0.39979,-13.59271 -1.99893,-8.79528 -7.19614,-14.39228 -15.59164,-17.19078 -5.99678,-1.99892 -12.39335,-1.99892 -18.39013,0 -7.19614,2.39872 -11.99357,7.59593 -14.39228,15.19185 -1.19936,3.99786 -1.19936,7.59593 -0.79957,11.59379 1.19935,9.19506 5.99678,15.99142 14.79206,19.1897 3.59807,1.59914 6.79636,1.99893 9.99464,1.99893 z m -5.19721,-28.78456 c 0.79957,-2.7985 3.19828,-3.99786 5.597,-3.99786 2.39871,0 4.39764,1.59915 5.19721,3.99786 0.39978,1.19936 0.39978,2.7985 0.79957,3.99786 -0.39979,1.19935 -0.39979,2.79849 -0.79957,3.99785 -0.79957,2.7985 -3.19829,3.99786 -5.597,3.99786 -2.39871,0 -4.39764,-1.59915 -5.19721,-3.99786 -1.19936,-2.39871 -1.19936,-5.19721 0,-7.99571 z M 18.78992,41.17791 h 2.7985 6.79635 C 40.37834,40.77813 48.37405,33.1822 48.77384,21.58842 49.17362,11.99357 43.97641,3.99786 35.18113,1.59914 32.38263,0.79957 29.58413,0.39979 26.78563,0.39979 H 3.19828 0 v 59.96783 h 18.39014 c 0.39978,-6.39657 0.39978,-12.79314 0.39978,-19.18971 z m 0,-17.59056 v -7.99571 c 2.7985,-0.39979 5.19721,-0.39979 7.59593,0 2.39871,0.39978 3.19828,2.39871 3.19828,5.19721 0,2.7985 -0.79953,4.79743 -3.19828,5.19721 -2.39872,0.39979 -4.79743,0.39979 -7.59593,0.79957 z M 300.90679,12.40067 c -2.7985,7.99571 -5.19721,15.99142 -8.39549,23.98713 -3.19829,-8.3955 -5.99679,-16.39121 -8.79529,-24.38692 h -20.78884 c 0.39978,1.19936 0.79957,1.99893 1.19935,2.7985 5.99679,13.19292 11.59378,26.78563 17.19078,39.97856 0.79957,1.59914 0.79957,3.19828 0,4.79742 -3.19828,6.79636 -6.39657,13.59271 -9.59485,20.38907 -0.39979,0.79957 -0.79957,1.59914 -1.19936,2.7985 h 20.38906 c 9.99464,-23.58735 19.98928,-47.1747 30.38371,-70.76205 -6.79636,0.39979 -13.59271,0.39979 -20.38907,0.39979 z M 125.53266,41.17791 h 6.79636 c 1.99893,0 4.39764,0 6.39657,-0.39978 7.59592,-1.59915 13.19292,-5.597 15.59163,-13.19293 1.19936,-3.59807 1.19936,-6.79635 0.79958,-9.99464 C 154.31722,9.99464 150.31937,4.39764 142.72344,1.59914 139.92494,0.79957 136.72666,0 133.52838,0 h -24.78671 -1.99893 v 59.96783 h 18.78992 z m 0,-23.98713 v -1.99893 c 2.39872,0 4.79743,-0.39978 7.59597,0 2.39867,0.39979 3.59807,2.39871 3.59807,4.79743 0,3.19828 -0.79957,4.79742 -3.19832,5.19721 -2.39868,0.39979 -4.79739,0.39979 -7.59593,0.79957 -0.39979,-2.7985 -0.39979,-5.597 -0.39979,-8.79528 z m 227.74604,0.80689 c -0.79957,-0.79958 -1.19936,-1.59915 -1.59914,-1.99893 -1.99893,-1.99893 -4.39764,-3.59807 -7.19614,-3.99786 -7.99571,-1.59914 -15.59164,1.59914 -19.58949,8.79528 -3.99786,6.79636 -4.39764,13.9925 -3.19829,21.18864 0.39979,3.99785 1.99893,7.19614 3.99786,10.39442 6.39657,9.59486 21.18863,10.79421 27.98499,1.99893 0,1.59914 0,3.19829 0.39978,5.19721 h 18.39014 V 12.00088 h -18.39014 c -0.79957,2.39872 -0.79957,3.99786 -0.79957,5.99679 z m -0.39978,20.78884 c -0.39979,3.19829 -3.19829,5.597 -6.79636,5.597 -3.59807,0 -5.99678,-2.39871 -6.39657,-5.597 0,-0.79957 0,-1.59914 -0.39978,-2.39871 v -2.39871 c 0.39978,-3.59807 3.19828,-5.597 6.79635,-5.99679 3.19829,0 5.99678,1.99893 6.79636,5.597 0.39978,1.59914 0.39978,3.59807 0,5.19721 z M 478.81137,11.6011 c -2.7985,7.99571 -5.597,15.99142 -7.99572,23.58734 -0.79957,-0.79957 -1.19935,-1.59914 -1.19935,-2.39871 -2.39872,-6.39657 -4.79743,-12.79314 -6.79636,-19.18971 -0.79957,-2.39871 -0.79957,-2.39871 -3.19828,-2.39871 h -15.99142 -2.39872 c 0.39979,1.19936 0.79957,1.99893 1.19936,2.7985 5.99678,13.59271 11.99357,27.5852 17.99035,41.17791 0.79957,1.59914 0.39979,2.39872 0,3.99786 -3.19828,6.79635 -6.79635,13.99249 -9.99464,21.18863 -0.39978,0.79957 -0.79957,1.59914 -1.19936,2.7985 h 19.18971 c 1.19936,0 1.59914,-0.79957 1.99893,-1.59914 9.59485,-22.78778 19.18971,-45.57555 29.18434,-68.36333 C 500,12.80045 500,12.00088 500,11.6011 Z" />
</svg>
