<svg
   version="1.1"
   id="Warstwa_1"
   x="0px"
   y="0px"
   viewBox="0 0 111.6 59.059246"
   xml:space="preserve"
   width="111.6"
   height="59.059246"
   xmlns="http://www.w3.org/2000/svg"
   xmlns:svg="http://www.w3.org/2000/svg"><defs
   id="defs16" />
<style
   type="text/css"
   id="style1">
	.st0{fill-rule:evenodd;clip-rule:evenodd;fill:#FFFFFF;}
	.st1{fill:#FFFFFF;}
</style>
<g
   id="Ellipse_1_copy_00000031905236524467169840000000199228600388569988_"
   transform="translate(-0.3,-0.5)"
   style="fill:#000000">
	<g
   id="g1"
   style="fill:#000000">
		<path
   class="st0"
   d="m 23.6,50.5 c 0.1,-0.1 0.2,-0.2 0.2,-0.3 v 0 C 24.3,49.5 24.7,48.8 25,48.1 25.7,46.5 26,44.8 26,43 26,35.9 20.2,30.1 13.1,30.1 6,30.1 0.3,35.8 0.3,43 c 0,5.2 3.1,9.8 7.7,11.8 0,1.2 0,2.6 0,4.2 0,1.9 7.8,-1.3 13,-5.7 0.9,-0.9 1.8,-1.8 2.6,-2.8 z"
   id="path1"
   style="fill:#000000" />
	</g>
</g>
<g
   id="g16"
   transform="translate(-0.3,-0.5)"
   style="fill:#000000">
	<path
   class="st1"
   d="m 106.6,26 c -0.7,2 -1.4,4 -2,5.9 -0.2,-0.2 -0.3,-0.4 -0.3,-0.6 -0.6,-1.6 -1.2,-3.2 -1.7,-4.8 -0.2,-0.6 -0.2,-0.6 -0.8,-0.6 -1.3,0 -2.7,0 -4,0 -0.2,0 -0.4,0 -0.6,0 0.1,0.3 0.2,0.5 0.3,0.7 1.5,3.4 3,6.9 4.5,10.3 0.2,0.4 0.1,0.6 0,1 -0.8,1.7 -1.7,3.5 -2.5,5.3 -0.1,0.2 -0.2,0.4 -0.3,0.7 1.7,0 3.2,0 4.8,0 0.3,0 0.4,-0.2 0.5,-0.4 2.4,-5.7 4.8,-11.4 7.3,-17.1 0.1,-0.1 0.1,-0.3 0.1,-0.4 -1.9,0 -3.6,0 -5.3,0 z"
   id="path2"
   style="fill:#000000" />
	<path
   class="st1"
   d="m 75.2,27.6 c -0.2,-0.2 -0.3,-0.4 -0.4,-0.5 -0.5,-0.5 -1.1,-0.9 -1.8,-1 -2,-0.4 -3.9,0.4 -4.9,2.2 -1,1.7 -1.1,3.5 -0.8,5.3 0.1,1 0.5,1.8 1,2.6 1.6,2.4 5.3,2.7 7,0.5 0,0.4 0,0.8 0.1,1.3 1.6,0 3.1,0 4.6,0 0,-4 0,-8 0,-11.9 -1.6,0 -3,0 -4.6,0 -0.2,0.6 -0.2,1 -0.2,1.5 z m -0.1,5.2 c -0.1,0.8 -0.8,1.4 -1.7,1.4 -0.9,0 -1.5,-0.6 -1.6,-1.4 0,-0.2 0,-0.4 -0.1,-0.6 0,-0.2 0,-0.4 0,-0.6 0.1,-0.9 0.8,-1.4 1.7,-1.5 0.8,0 1.5,0.5 1.7,1.4 0.1,0.4 0.1,0.9 0,1.3 z"
   id="path3"
   style="fill:#000000" />
	<path
   class="st1"
   d="m 62.5,15.1 c 0.6,0 1.1,0 1.7,0 0.5,0 1.1,0 1.6,-0.1 1.9,-0.4 3.3,-1.4 3.9,-3.3 C 70,10.8 70,10 69.9,9.2 69.7,7.3 68.7,5.9 66.8,5.2 66.1,5 65.3,4.8 64.5,4.8 c -2.1,0 -4.1,0 -6.2,0 -0.1,0 -0.3,0 -0.5,0 0,5 0,10 0,15 1.6,0 3.1,0 4.7,0 0,-1.5 0,-3.1 0,-4.7 z m 0,-6 c 0,-0.1 0,-0.3 0,-0.5 0.6,0 1.2,-0.1 1.9,0 0.6,0.1 0.9,0.6 0.9,1.2 0,0.8 -0.2,1.2 -0.8,1.3 -0.6,0.1 -1.2,0.1 -1.9,0.2 -0.1,-0.7 -0.1,-1.4 -0.1,-2.2 z"
   id="path4"
   style="fill:#000000" />
	<path
   class="st1"
   d="m 62.1,26.2 c -0.7,2 -1.3,4 -2.1,6 -0.8,-2.1 -1.5,-4.1 -2.2,-6.1 -1.7,0 -3.4,0 -5.2,0 0.1,0.3 0.2,0.5 0.3,0.7 1.5,3.3 2.9,6.7 4.3,10 0.2,0.4 0.2,0.8 0,1.2 -0.8,1.7 -1.6,3.4 -2.4,5.1 -0.1,0.2 -0.2,0.4 -0.3,0.7 1.7,0 3.4,0 5.1,0 2.5,-5.9 5,-11.8 7.6,-17.7 -1.7,0.1 -3.4,0.1 -5.1,0.1 z"
   id="path5"
   style="fill:#000000" />
	<path
   class="st1"
   d="m 35.8,15.1 c 0.3,0 0.5,0 0.7,0 0.6,0 1.2,0 1.7,0 3,-0.1 5,-2 5.1,-4.9 C 43.4,7.8 42.1,5.8 39.9,5.2 39.2,5 38.5,4.9 37.8,4.9 c -2,0 -3.9,0 -5.9,0 -0.2,0 -0.5,0 -0.8,0 0,5.1 0,10 0,15 1.5,0 3,0 4.6,0 0.1,-1.6 0.1,-3.2 0.1,-4.8 z m 0,-4.4 c 0,-0.7 0,-1.3 0,-2 0.7,-0.1 1.3,-0.1 1.9,0 0.6,0.1 0.8,0.6 0.8,1.3 0,0.7 -0.2,1.2 -0.8,1.3 -0.6,0.1 -1.2,0.1 -1.9,0.2 0,-0.4 0,-0.6 0,-0.8 z"
   id="path6"
   style="fill:#000000" />
	<path
   class="st1"
   d="m 47.1,38.3 c 0.3,0 0.6,0 0.9,-0.1 2.4,-0.2 4.4,-1.8 5.1,-4.2 0.3,-1.1 0.3,-2.3 0.1,-3.4 -0.5,-2.2 -1.8,-3.6 -3.9,-4.3 -1.5,-0.5 -3.1,-0.5 -4.6,0 -1.8,0.6 -3,1.9 -3.6,3.8 -0.3,1 -0.3,1.9 -0.2,2.9 0.3,2.3 1.5,4 3.7,4.8 0.9,0.4 1.7,0.5 2.5,0.5 z m -1.3,-7.2 c 0.2,-0.7 0.8,-1 1.4,-1 0.6,0 1.1,0.4 1.3,1 0.1,0.3 0.1,0.7 0.2,1 -0.1,0.3 -0.1,0.7 -0.2,1 -0.2,0.7 -0.8,1 -1.4,1 -0.6,0 -1.1,-0.4 -1.3,-1 -0.3,-0.6 -0.3,-1.3 0,-2 z"
   id="path7"
   style="fill:#000000" />
	<path
   class="st1"
   d="m 47.5,19.5 c 1.6,0.7 3.2,0.7 4.8,0.1 1.8,-0.7 3.1,-2 3.6,-4.1 -1.6,0 -3.2,0 -4.7,0 -0.2,0 -0.3,0.2 -0.5,0.3 -0.2,0.1 -0.5,0.3 -0.8,0.4 -0.9,0.1 -1.4,-0.4 -1.4,-1.5 2.5,0 4.9,0 7.4,0 0,-0.2 0.1,-0.3 0.1,-0.4 0,-0.3 0,-0.6 0,-0.9 C 55.9,10.8 54.5,8.8 52.2,8.1 51.1,7.7 50,7.7 49,7.8 c -2.2,0.3 -3.8,1.5 -4.6,3.6 -0.5,1.2 -0.5,2.5 -0.3,3.7 0.4,2.1 1.4,3.6 3.4,4.4 z m 2.5,-8 c 0.8,0 1.2,0.3 1.4,1.2 -0.9,0 -1.8,0 -2.7,0 0.1,-0.9 0.5,-1.2 1.3,-1.2 z"
   id="path8"
   style="fill:#000000" />
	<path
   class="st1"
   d="m 94.8,34.1 c -0.7,0 -0.8,-0.2 -0.8,-0.9 0,-0.6 0,-1.2 0,-1.8 0,-0.5 0,-0.9 0,-1.4 0.7,0 1.3,0 1.9,0 0,-1.4 0,-2.6 0,-4 -0.6,0 -1.2,0 -1.9,0 0,-1 0,-1.9 0,-2.9 -1.6,0 -3.1,0 -4.7,0 0,1 0,1.9 0,2.9 -0.5,0 -1,0 -1.5,0 0,1.3 0,2.6 0,4 0.5,0 0.9,0 1.5,0 0,0.3 0,0.6 0,0.8 0,1.1 0,2.2 0.1,3.3 0.1,1.5 0.7,2.8 2.1,3.5 1.4,0.7 2.9,0.5 4.5,0.5 0,-1.4 0,-2.7 0,-4 -0.2,0 -0.4,0 -0.5,0 -0.4,0 -0.6,0 -0.7,0 z"
   id="path9"
   style="fill:#000000" />
	<path
   class="st1"
   d="m 40.3,34.6 c -1.5,0 -2.9,0 -4.5,0 0,-3.9 0,-7.7 0,-11.4 -1.6,0 -3.1,0 -4.6,0 0,5 0,10 0,15 3,0 6,0 9.1,0 0,-1.3 0,-2.4 0,-3.6 z"
   id="path10"
   style="fill:#000000" />
	<path
   class="st1"
   d="m 81.6,38.1 c 1.6,0 3.1,0 4.6,0 0,-5 0,-10 0,-15 -1.6,0 -3.1,0 -4.6,0 0,5.1 0,10 0,15 z"
   id="path11"
   style="fill:#000000" />
	<path
   class="st1"
   d="m 68,48.8 c 0.1,-0.1 0.3,-0.2 0.4,-0.2 1.8,-1.1 1.8,-3.7 -0.1,-4.8 -0.7,-0.4 -1.4,-0.5 -2.1,-0.5 -1.3,0 -2.6,0 -4,0 -0.1,0 -0.3,0 -0.4,0 0,3.8 0,7.6 0,11.4 1.7,0 3.4,0.1 5.1,0 0.6,0 1.2,-0.3 1.7,-0.6 1.7,-1 1.9,-3.5 0.3,-4.8 C 68.6,49.1 68.3,49 68,48.8 Z m -4.4,-4 c 0.2,0 0.3,-0.1 0.5,-0.1 0.7,0 1.5,0 2.2,0 0.9,0.1 1.5,0.7 1.5,1.6 0,0.9 -0.5,1.5 -1.4,1.6 -0.9,0.1 -1.8,0 -2.8,0 0,-1 0,-2 0,-3.1 z m 3,8.3 c -1,0.1 -2,0 -3,0 0,-1.2 0,-2.3 0,-3.5 1,0 2,-0.1 3,0 0.9,0.1 1.5,0.9 1.4,1.8 0.1,1 -0.5,1.6 -1.4,1.7 z"
   id="path12"
   style="fill:#000000" />
	<path
   class="st1"
   d="m 39.9,51.4 c -0.3,0 -0.5,0.1 -0.7,0.4 -0.3,0.4 -0.6,0.8 -1,1 -1.6,1 -4,0.4 -5,-1.2 -1,-1.7 -1,-3.4 -0.1,-5.1 1.3,-2.3 5,-2.3 6.2,-0.1 0,0.1 0.1,0.1 0.2,0.2 0.7,0 1.3,0 1.9,0 0.1,0 0.1,0 0.2,-0.1 -0.3,-1 -1,-2 -2.1,-2.6 -3.4,-2 -8.2,-0.3 -8.9,4.3 -0.3,2.3 0.8,4.7 2.7,5.8 2,1.2 4.7,1.1 6.5,-0.3 0.8,-0.6 1.4,-1.3 1.7,-2.3 -0.4,0 -1,0 -1.6,0 z"
   id="path13"
   style="fill:#000000" />
	<path
   class="st1"
   d="m 57.4,46.5 c 0,0.2 0,0.5 0,0.7 0,1.2 0,2.3 0,3.5 0,1.6 -0.9,2.5 -2.5,2.5 -1.6,0 -2.6,-0.8 -2.7,-2.4 0,-0.3 0,-0.6 0,-0.9 0,-2 0,-4 0,-6 0,-0.2 0,-0.5 0,-0.7 -0.6,0 -1.2,0 -1.8,0 0,0.2 0,0.5 0,0.7 0,1.4 0,2.8 0,4.2 0,1 0,2 0,3 0.1,1.6 1.1,2.9 2.7,3.4 0.6,0.2 1.3,0.3 2,0.3 2.5,0 4.2,-1.7 4.2,-4.2 0,-1.2 0,-2.3 0,-3.5 0,-0.2 0,-0.3 0,-0.5 -0.7,-0.1 -1.3,-0.1 -1.9,-0.1 z"
   id="path14"
   style="fill:#000000" />
	<path
   class="st1"
   d="m 45.5,43.3 c -0.7,0 -1.2,0 -1.8,0 0,3.8 0,7.6 0,11.4 1.9,0 3.7,0 5.6,0 0,-0.5 0,-0.9 0,-1.5 -1.3,0 -2.5,0 -3.8,0 0,-3.3 0,-6.6 0,-9.9 z"
   id="path15"
   style="fill:#000000" />
	<path
   class="st1"
   d="m 13.2,0.5 c -7,0 -12.7,5.7 -12.7,12.7 0,7 5.7,12.7 12.7,12.7 7,0 12.7,-5.7 12.7,-12.7 0,-7 -5.6,-12.7 -12.7,-12.7 z"
   id="path16"
   style="fill:#000000" />
</g>
</svg>
