<svg
   version="1.1"
   id="Layer_1"
   x="0px"
   y="0px"
   viewBox="0 0 175.45 101.51"
   xml:space="preserve"
   width="175.45"
   height="101.51"
   xmlns="http://www.w3.org/2000/svg"
   xmlns:svg="http://www.w3.org/2000/svg"><defs
   id="defs21" />
<path
   d="M 33.01,59.29 C 27.64,62.06 20.76,62.71 18.48,62.71 6.61,62.71 1.08,53.54 1.08,45.63 1.08,37.5 6.77,27.31 20,27.31 c 5.8,0 9.65,1.84 10.79,1.84 0.49,0 0.92,-0.11 1.25,-0.38 h 0.76 v 8.78 h -1.09 c -1.47,-6.77 -6.08,-8.89 -11.12,-8.89 -9.54,0 -14.42,7.92 -14.42,16.64 0,11.11 7.81,16.04 14.04,16.04 2.49,0 5.26,-0.54 8.29,-2.06 v -6.83 c 0,-3.09 -0.27,-5.09 8.29,-5.09 v 0.98 C 34.08,48.5 33,49.42 33,51.75 v 7.54"
   id="path1"
   style="fill:#000000" />
<path
   d="m 49.59,37.5 7.43,20.16 c 0.97,2.6 1.08,3.03 3.9,3.19 v 0.98 H 54.25 C 52.89,57.66 52.3,55.93 50.84,51.7 h -7.8 c -1.25,3.52 -2.28,6.45 -3.47,10.13 h -4.39 v -0.98 c 2.76,-0.54 3.14,-1.46 4.33,-4.55 L 46.23,39.06 45.69,37.5 h 3.9 M 43.64,50.13 H 50.3 L 47.05,41.3 Z"
   id="path2"
   style="fill:#000000" />
<path
   d="m 71.18,38.26 v 20.33 c 0,1.25 0,1.41 0.38,1.57 0.81,0.38 2.49,0.38 3.36,0.38 4.06,0 5.2,-0.38 7.32,-4.23 h 0.97 l -2.33,5.53 H 63.43 v -0.98 c 3.47,0 3.85,-0.65 3.85,-3.14 V 42.86 c 0,-3.03 -0.17,-3.69 -4.23,-3.63 v -0.98 h 8.13"
   id="path3"
   style="fill:#000000" />
<path
   d="m 90.88,49.2 h 5.86 c 1.95,0 2.6,0 2.82,-2.92 h 1.08 v 7.32 h -1.08 c -0.11,-2.98 -0.54,-3.2 -3.2,-3.2 h -5.48 v 7.75 c 0,2.33 0.11,2.33 2.44,2.33 h 4.12 c 2.44,0 3.69,-0.32 4.72,-4.39 h 1.03 l -0.49,5.74 H 86.97 V 42.38 c 0,-2.77 -0.81,-3.2 -3.85,-3.15 v -0.98 h 18.54 l 0.22,5.15 h -0.98 c -0.6,-3.58 -1.46,-3.96 -4.12,-3.96 h -5.91 v 9.76"
   id="path4"
   style="fill:#000000" />
<path
   d="m 115.16,61.83 h -7.75 v -0.98 h 0.86 c 2.66,0 2.99,-1.08 2.99,-3.14 V 42.38 c 0,-0.6 0,-1.46 -0.43,-2.01 -0.43,-0.6 -0.75,-0.6 -3.47,-0.76 v -0.98 c 2.28,-0.22 5.69,-0.65 9.54,-0.65 4.77,0 10.52,1.09 10.52,6.78 0,4.44 -3.42,5.64 -5.15,6.24 1.03,0.92 1.35,1.24 3.31,5.42 1.74,3.74 2.76,4.5 4.77,4.83 v 0.97 c -3.74,-0.16 -6.02,-1.02 -8.29,-4.6 -0.6,-0.92 -2.93,-5.2 -3.41,-6.01 h -3.48 v 10.22 m -0.01,-11.21 h 2.44 c 2.87,0 5.74,-1.3 5.74,-5.75 0,-4.55 -3.42,-5.79 -5.8,-5.79 -0.92,0 -1.85,0.05 -2.39,0.11 v 11.43 z"
   id="path5"
   style="fill:#000000" />
<path
   d="m 140.11,56.74 c 0,3.46 0.76,3.9 4.12,4.12 v 0.98 h -7.97 V 43.35 c 0,-3.47 -0.75,-3.9 -4.12,-4.12 v -0.97 h 7.97 v 18.48"
   id="path6"
   style="fill:#000000" />
<path
   d="m 162.29,37.5 7.43,20.16 c 0.97,2.6 1.08,3.03 3.9,3.19 v 0.98 h -6.67 C 165.59,57.66 165,55.93 163.53,51.7 h -7.8 c -1.24,3.52 -2.28,6.45 -3.47,10.13 h -4.39 v -0.98 c 2.77,-0.54 3.14,-1.46 4.34,-4.55 l 6.72,-17.24 -0.54,-1.56 h 3.9 m -5.95,12.63 H 163 l -3.25,-8.83 z"
   id="path7"
   style="fill:#000000" />
<path
   d="M 9.94,100.71 H 1.05 v -1.03 h 0.77 c 2.81,0 3.63,-0.6 3.63,-3.14 V 70.89 c 0,-2 -0.65,-2.87 -2.55,-2.87 H 0.18 v -1.03 c 1.52,-0.05 4.18,-0.21 6.83,-0.33 2.65,-0.1 5.25,-0.16 6.72,-0.16 11.33,0 13.93,5.42 13.93,9.6 0,6.34 -5.09,10.35 -13.12,10.35 -1.62,0 -2.98,-0.1 -4.61,-0.43 v 14.69 M 9.94,84.99 c 0.71,0.16 1.9,0.43 2.93,0.43 5.91,0 9.7,-4.01 9.7,-9.49 0,-4.23 -1.68,-8.4 -8.89,-8.4 -1.25,0 -2.44,0 -3.74,0.22 z"
   id="path8"
   style="fill:#000000" />
<path
   d="m 38.23,95.61 c 0,3.47 0.75,3.9 4.12,4.12 v 0.98 H 34.38 V 82.22 c 0,-3.47 -0.76,-3.9 -4.12,-4.12 v -0.97 h 7.97 v 18.48"
   id="path9"
   style="fill:#000000" />
<path
   d="m 59.2,76.37 7.43,20.16 c 0.97,2.6 1.08,3.03 3.9,3.2 v 0.98 h -6.67 c -1.35,-4.17 -1.95,-5.9 -3.41,-10.13 h -7.81 c -1.25,3.53 -2.28,6.45 -3.47,10.13 h -4.39 v -0.98 c 2.77,-0.54 3.14,-1.46 4.34,-4.55 L 55.84,77.94 55.3,76.37 h 3.9 M 53.24,89 h 6.67 l -3.25,-8.83 z"
   id="path10"
   style="fill:#000000" />
<path
   d="m 85.71,80.59 c -1.68,-2.17 -3.85,-3.09 -6.07,-3.09 -2.22,0 -3.75,1.68 -3.75,3.47 0,2.22 1.47,3.19 6.94,6.77 1.41,0.92 4.72,3.09 4.72,7.05 0,3.63 -2.82,6.72 -7.27,6.72 -1.35,0 -1.89,-0.17 -4.65,-0.93 -0.22,-0.05 -0.49,-0.1 -0.65,-0.1 -0.48,0 -0.65,0.16 -0.76,0.48 H 73.35 L 72.7,95.11 h 1.08 c 1.62,4.66 4.99,5.31 6.07,5.31 1.52,0 4.56,-0.98 4.56,-4.17 0,-2.77 -2.06,-4.23 -6.01,-6.67 -4.77,-2.98 -5.64,-5.09 -5.64,-7.15 0,-3.53 3.08,-6.07 6.34,-6.07 2.76,0 5.31,0.76 7.26,3.41 l -0.65,0.82"
   id="path11"
   style="fill:#000000" />
<path
   d="m 89.49,76.31 h 0.76 c 0.27,0.38 0.49,0.6 0.81,0.71 0.33,0.11 0.65,0.11 1.09,0.11 h 15.83 c 1.46,0 1.74,-0.16 2,-0.81 h 0.76 l 0.43,6.07 h -0.87 c -0.76,-3.42 -1.25,-3.91 -3.74,-3.91 h -4.5 v 17.83 c 0,3.09 0.38,3.2 4.45,3.41 v 0.98 H 98.16 V 78.48 h -4.88 c -2.11,0 -2.28,0.11 -3.36,3.91 h -0.91 l 0.48,-6.08"
   id="path12"
   style="fill:#000000" />
<path
   d="m 125.31,76.2 c -6.01,0 -13.01,4.07 -13.01,12.41 0,9.11 7.05,12.74 12.95,12.74 5.96,0 12.95,-3.63 12.95,-12.74 0.01,-8.34 -6.66,-12.41 -12.89,-12.41 m -0.11,24.24 c -2.12,0 -4.07,-0.76 -5.69,-2.39 -1.52,-1.51 -2.98,-3.9 -2.98,-9.86 0,-5.69 3.04,-11.06 8.62,-11.06 4.66,0 8.83,3.2 8.83,11.54 0,8.67 -4.66,11.77 -8.78,11.77"
   id="path13"
   style="fill:#000000" />
<path
   d="m 122.8,73.81 2.99,-4.05 c 1.69,-2.46 2.85,-4.2 4.49,-4.2 0.96,0 1.49,0.67 1.49,1.35 0,0.73 -0.24,1.5 -3.22,3.48 l -5.12,3.42 h -0.63"
   id="path14"
   style="fill:#000000" />
<path
   d="m 143.79,77.13 c 2.49,6.61 5.2,13.66 7.75,20.22 l 5.15,-9.59 -3.41,-7.37 c -0.87,-1.9 -1.2,-2.28 -3.37,-2.28 v -0.97 h 5.86 l 3.09,6.67 3.31,-6.67 h 1.78 c -1.41,2.93 -2.65,5.52 -4.28,8.51 l 5.42,11.5 6.34,-14.91 c 0.76,-1.79 0.93,-2.33 0.93,-2.98 0,-1.14 -1.74,-1.14 -3.04,-1.14 v -0.97 h 6.13 c -3.2,7.81 -7.16,16.85 -10.3,24.28 h -2.06 l -5.53,-11.76 -6.24,11.76 h -2.06 l -7.65,-19.62 c -1.19,-3.09 -1.35,-3.47 -4.34,-3.69 v -0.97 h 6.52"
   id="path15"
   style="fill:#000000" />
<path
   d="m 33.29,11.16 c -3.88,-3.15 -5.17,0.34 -5.17,0.34 0,0 3.12,-0.75 2.96,2.31 -0.07,1.29 -0.32,2.05 -0.58,2.51 -0.46,0.88 -1.92,1.55 -3.71,1.63 -0.15,0.01 -0.3,0.02 -0.45,0.02 0,0 -0.08,0 -0.23,-0.01 -0.5,0.01 -1.04,-0.07 -1.6,-0.24 -0.61,-0.16 -1.14,-0.41 -1.54,-0.7 -0.64,-0.4 -1.15,-0.88 -1.51,-1.38 -0.09,-0.12 -0.18,-0.26 -0.26,-0.43 -0.14,-0.27 -0.22,-0.54 -0.24,-0.81 -0.05,-0.28 -0.08,-0.57 -0.09,-0.89 0,-0.3 0.02,-0.58 0.06,-0.84 0.04,-0.52 0.15,-0.98 0.32,-1.33 C 22.16,8.8 25.2,9.9 25.2,9.9 c 0,0 0.05,-3.89 -3.77,-3.66 0,0 0.16,-3.89 -1.78,-6.24 C 17.71,2.35 17.87,6.24 17.87,6.24 14.04,6.01 14.1,9.9 14.1,9.9 c 0,0 3.04,-1.1 3.95,1.44 0.16,0.35 0.28,0.81 0.32,1.33 0.04,0.26 0.06,0.54 0.06,0.84 0,0.31 -0.04,0.61 -0.09,0.89 -0.02,0.26 -0.11,0.53 -0.24,0.81 -0.08,0.17 -0.16,0.31 -0.26,0.43 -0.35,0.5 -0.87,0.98 -1.51,1.38 -0.39,0.29 -0.92,0.53 -1.54,0.7 -0.56,0.17 -1.1,0.25 -1.6,0.24 -0.14,0.01 -0.23,0.01 -0.23,0.01 -0.16,0 -0.31,-0.01 -0.45,-0.02 C 10.73,17.87 9.27,17.21 8.81,16.32 8.54,15.86 8.3,15.1 8.23,13.81 8.07,10.74 11.19,11.5 11.19,11.5 c 0,0 -1.29,-3.49 -5.17,-0.34 0,0 -2.73,-2.98 -6.02,-2.91 2.37,1.81 4.57,5.48 5.75,10.05 0.73,2.84 0.95,5.59 0.74,7.95 1.74,-1.95 6.96,-3.36 13.14,-3.36 h 0.02 0.03 c 6.17,0 11.39,1.41 13.13,3.36 -0.22,-2.36 0.01,-5.11 0.74,-7.95 1.17,-4.57 3.38,-8.24 5.74,-10.05 -3.27,-0.06 -6,2.91 -6,2.91"
   id="path16"
   style="fill:#000000" />
</svg>
