<svg
   width="468.31104"
   height="180.97501"
   viewBox="0 0 468.31104 180.97501"
   version="1.1"
   id="svg14"
   xmlns:xlink="http://www.w3.org/1999/xlink"
   xmlns="http://www.w3.org/2000/svg"
   xmlns:svg="http://www.w3.org/2000/svg">
  <defs
     id="defs6">
    <path
       id="a"
       d="M 36.72,24.575 A 2.286,2.286 0 0 1 36.169,23.12 c -0.004,-1.148 0.842,-2.451 2.345,-3.176 a 5.135,5.135 0 0 1 2.193,-0.511 h 45.634 a 5.15,5.15 0 0 1 2.195,0.511 c 1.498,0.725 2.346,2.028 2.338,3.176 0,0.385 -0.125,0.969 -0.551,1.455 -0.601,0.699 -1.596,1.115 -2.508,1.115 H 39.233 c -0.914,0 -1.907,-0.416 -2.513,-1.115 z m 26.357,25.69 c 25.834,-0.014 47.999,-6.395 57.353,-15.313 3.124,-2.976 4.805,-6.207 4.805,-9.554 0,-3.368 -1.681,-6.594 -4.805,-9.573 -3.121,-2.965 -7.667,-5.67 -13.303,-7.941 C 95.852,3.333 80.23,0.524 62.979,0.524 62.956,0.515 62.902,0.515 62.85,0.515 39.671,0.524 19.604,5.827 8.845,13.214 2.493,17.567 0.792,22.601 0.792,28.72 l 0.031,49.498 v 19.687 c 0,7.83 2.336,11.305 3.348,12.996 a 38.43,38.43 0 0 0 13.498,13.495 l 0.418,0.248 V 42.587 l 0.509,0.201 c 11.286,4.611 27.001,7.477 44.383,7.477 z" />
    <path
       id="d"
       d="M 47.062,74.128 V 54.351 C 47.055,48.368 42.15,43.476 36.133,43.462 c -0.047,0 -0.084,0 -0.129,0.004 v -1.852 c 6.197,-0.728 11.091,-5.613 11.091,-11.976 l -0.008,-13.91 c 0,-3.129 0.309,-6.325 1.14,-9.227 l 0.116,-0.387 -0.406,0.032 c -1.848,0.13 -4.608,0.193 -7.524,0.193 -4.327,0 -9.004,-0.143 -11.537,-0.385 l -0.221,-0.023 -0.074,0.23 c -1.063,3.332 -1.476,6.205 -1.476,9.885 v 15.787 c 0,3.295 -2.538,6.957 -7.008,7.111 V 5.048 L 19.852,5.017 C 12.242,4.011 6.554,2.8 0.499,0.792 L 0.13,0.663 0.11,78.011 0.282,78.095 c 6.137,2.711 11.92,4.494 19.512,5.789 l 0.328,0.047 V 44.403 c 4.34,0.137 6.984,3.596 6.998,7.127 v 21.45 c -0.002,4.41 0.784,8.16 2.119,11.886 l 0.051,0.166 0.176,0.02 c 1.481,0.156 4.089,0.256 7.035,0.256 4.066,0 8.761,-0.184 11.9,-0.608 l 0.337,-0.037 -0.104,-0.328 C 47.492,80.95 47.062,77.901 47.062,74.128" />
    <path
       id="g"
       d="m 27.056,19.899 -0.022,46.227 c 0.009,1.1 -0.733,2.361 -1.997,3.209 -1.75,1.16 -3.841,1.107 -4.67,-0.135 -0.234,-0.355 -0.332,-0.775 -0.318,-1.219 l 0.009,-47.894 c 0.03,-1.246 1.084,-2.496 2.684,-2.926 a 4.4,4.4 0 0 1 1.132,-0.154 c 1.484,0 2.741,0.769 3.09,1.965 0.058,0.209 0.092,0.433 0.092,0.65 z M 44.393,3.314 A 3.441,3.441 0 0 0 40.964,0.015 c -0.553,0 -1.071,0.14 -1.535,0.371 -8.466,4.929 -20.571,9.015 -34.096,10.779 -2.992,0.391 -5.178,3.02 -5.168,6.1 L 0.136,83.769 c 0,2.765 2.234,5 4.999,5.005 a 4.87,4.87 0 0 0 1.042,-0.113 c 10.631,-2.746 19.602,-6.814 26.719,-12.488 6.361,-5.33 11.497,-12.725 11.497,-21.4 z" />
  </defs>
  <path
     fill="#000105"
     d="m 461.774,128.762 h 5.381 V 95.635 h -5.381 z m 2.702,-39.129 c -2.257,0 -3.905,-1.668 -3.905,-3.846 0,-2.103 1.648,-3.836 3.905,-3.836 a 3.817,3.817 0 0 1 3.835,3.836 c 0,2.178 -1.672,3.846 -3.835,3.846 z m -28.249,39.129 h -5.243 V 80.615 h 5.243 v 30.307 l 10.682,-12.397 c 2.294,-2.566 4.859,-3.009 6.524,-3.009 1.077,0 1.85,0.175 1.85,0.175 l -10.041,11.34 c -1.859,2.035 -3.972,3.832 -5.369,3.832 v 1.139 c 1.397,0 3.51,1.1 5.889,3.91 l 11.002,12.85 c 0,0 -0.915,0.256 -2.191,0.256 -1.842,0.06 -4.534,-0.383 -6.388,-2.551 -2.489,-2.873 -11.958,-14.781 -11.958,-14.781 z m -12.164,-9.143 c 0,5.947 -5.048,9.594 -11.7,9.725 -5.627,-0.067 -12.409,-3.069 -12.409,-10.168 v -0.182 c 0.463,-0.07 0.905,-0.146 1.339,-0.146 2.633,0 4.42,1.474 5.117,3.281 0.579,1.465 2.764,4.146 6.143,4.146 3.01,0 6.399,-2.121 6.399,-5.697 0,-8.191 -17.848,-6.703 -17.848,-16.638 0,-5.672 4.93,-9.075 11.197,-9.075 5.438,0 10.939,2.571 10.939,8.903 -2.297,0.566 -4.734,0.131 -5.88,-3.077 -0.52,-1.464 -2.558,-3.064 -4.807,-3.064 h -0.442 c -3.456,0 -6.077,1.912 -6.077,5.23 0,7.944 18.029,6.149 18.029,16.762 z m -36.091,9.143 h 5.382 V 80.789 h -5.382 z M 366.875,97.941 c -6.267,0 -8.705,6.659 -8.705,13.43 0,6.903 2.568,14.705 8.968,14.705 6.772,0 8.883,-6.777 8.883,-13.609 0,-6.846 -2.546,-14.526 -9.146,-14.526 z m 0.188,31.586 c -9.649,0 -14.384,-8.252 -14.384,-17.455 0,-9.215 4.985,-17.207 14.384,-17.207 9.4,0 14.454,7.992 14.454,17.207 0,9.203 -4.792,17.455 -14.454,17.455 z M 333.946,86.434 c -6.125,0 -5.633,3.697 -5.633,5.24 v 16.508 c 0.904,0.111 2.689,0.318 3.792,0.318 8.496,0 11.885,-4.601 11.885,-11.396 0,-5.823 -2.941,-10.67 -10.044,-10.67 z m -1.46,25.388 c -1.219,0 -3.075,-0.257 -4.173,-0.386 v 17.326 h -5.81 V 91.619 c 0,-2.115 -1.14,-8.519 11.259,-8.519 11.127,0 16.181,6.213 16.181,13.951 0,8.756 -5.437,14.771 -17.457,14.771 z m -55.277,16.94 h -5.244 V 80.615 h 5.244 v 30.307 l 10.685,-12.397 c 2.302,-2.566 4.856,-3.009 6.515,-3.009 1.093,0 1.859,0.175 1.859,0.175 l -10.039,11.34 c -1.854,2.035 -3.971,3.832 -5.382,3.832 v 1.139 c 1.411,0 3.528,1.1 5.879,3.91 l 11.008,12.85 c 0,0 -0.892,0.256 -2.174,0.256 -1.849,0.06 -4.544,-0.383 -6.388,-2.551 -2.491,-2.873 -11.963,-14.781 -11.963,-14.781 z m -18.901,0 v -23.86 c 0,-3.509 -1.858,-7.089 -7.934,-7.089 -6.136,0 -6.587,2.421 -6.587,4.533 v 26.416 h -5.308 v -28.196 c 0,-2 0.644,-3.005 2.437,-3.912 1.914,-0.963 5.18,-1.789 9.719,-1.789 5.627,0 12.99,1.619 12.99,9.803 v 24.094 z m -33.995,-26.664 c 0,-2.75 -1.602,-4.086 -5.945,-4.086 -4.605,0 -9.463,4.334 -9.463,14.513 0,9.315 3.834,12.709 8.247,12.709 3.203,0 5.495,-1.912 7.161,-3.886 z m 5.309,26.601 c -0.517,0.129 -1.538,0.194 -1.989,0.194 -1.466,0 -2.422,-0.641 -2.676,-2.743 l -0.191,-1.535 -0.453,-0.131 c -2.296,3.133 -4.98,5.043 -8.512,5.043 -7.288,0 -12.278,-5.435 -12.278,-15.789 0,-11.074 7.294,-18.791 14.845,-18.791 3.707,0 11.254,0.948 11.254,6.698 z m -51.675,-22.246 c -2.292,0 -3.521,0.067 -4.338,0.121 v 14.774 c 0,3.459 1.65,4.484 6.069,4.484 8.059,0 11.579,-4.293 11.579,-9.467 0,-6.533 -4.156,-9.912 -13.31,-9.912 z m 1.287,-20.019 c -2.883,0 -5.625,0.371 -5.625,5.24 V 103.5 c 0.699,0.072 2.171,0.129 4.093,0.129 6.717,0 11.259,-3.193 11.259,-8.887 0,-4.92 -2.885,-8.308 -9.727,-8.308 z m 0.444,42.91 c -7.924,0 -11.698,-1.987 -11.698,-7.215 V 90.977 c 0,-8.381 7.675,-7.877 11.124,-7.877 11.388,0 15.481,5.111 15.481,11.002 0,5.5 -3.97,8.88 -8.247,10.423 v 0.143 c 5.487,0.953 10.934,4.594 10.934,12.02 0,6.4 -4.292,12.656 -17.594,12.656 z"
     id="path9"
     style="fill:#000000;fill-rule:evenodd" />
  <path
     fill="#d8303b"
     d="m 62.214,38.998 c 10.773,0 19.503,-8.728 19.503,-19.5 C 81.717,8.725 72.987,0 62.214,0 51.442,0 42.711,8.725 42.711,19.498 c 0,10.772 8.731,19.5 19.503,19.5"
     id="path10"
     style="fill:#000000;fill-rule:evenodd" />
  <g
     transform="translate(-0.792,44.667)"
     id="g11"
     style="fill:#000000;fill-rule:evenodd">
    <mask
       id="c"
       fill="#ffffff">
      <use
         xlink:href="#a"
         id="use10" />
    </mask>
    <path
       fill="url(#b)"
       d="M 36.72,24.575 A 2.286,2.286 0 0 1 36.169,23.12 c -0.004,-1.148 0.842,-2.451 2.345,-3.176 a 5.135,5.135 0 0 1 2.193,-0.511 h 45.634 a 5.15,5.15 0 0 1 2.195,0.511 c 1.498,0.725 2.346,2.028 2.338,3.176 0,0.385 -0.125,0.969 -0.551,1.455 -0.601,0.699 -1.596,1.115 -2.508,1.115 H 39.233 c -0.914,0 -1.907,-0.416 -2.513,-1.115 z m 26.357,25.69 c 25.834,-0.014 47.999,-6.395 57.353,-15.313 3.124,-2.976 4.805,-6.207 4.805,-9.554 0,-3.368 -1.681,-6.594 -4.805,-9.573 -3.121,-2.965 -7.667,-5.67 -13.303,-7.941 C 95.852,3.333 80.23,0.524 62.979,0.524 62.956,0.515 62.902,0.515 62.85,0.515 39.671,0.524 19.604,5.827 8.845,13.214 2.493,17.567 0.792,22.601 0.792,28.72 l 0.031,49.498 v 19.687 c 0,7.83 2.336,11.305 3.348,12.996 a 38.43,38.43 0 0 0 13.498,13.495 l 0.418,0.248 V 42.587 l 0.509,0.201 c 11.286,4.611 27.001,7.477 44.383,7.477 z"
       mask="url(#c)"
       id="path11"
       style="fill:#000000" />
  </g>
  <g
     transform="translate(24.208,95.667)"
     id="g12"
     style="fill:#000000;fill-rule:evenodd">
    <mask
       id="f"
       fill="#ffffff">
      <use
         xlink:href="#d"
         id="use11" />
    </mask>
    <path
       fill="url(#e)"
       d="M 47.062,74.128 V 54.351 C 47.055,48.368 42.15,43.476 36.133,43.462 c -0.047,0 -0.084,0 -0.129,0.004 v -1.852 c 6.197,-0.728 11.091,-5.613 11.091,-11.976 l -0.008,-13.91 c 0,-3.129 0.309,-6.325 1.14,-9.227 l 0.116,-0.387 -0.406,0.032 c -1.848,0.13 -4.608,0.193 -7.524,0.193 -4.327,0 -9.004,-0.143 -11.537,-0.385 l -0.221,-0.023 -0.074,0.23 c -1.063,3.332 -1.476,6.205 -1.476,9.885 v 15.787 c 0,3.295 -2.538,6.957 -7.008,7.111 V 5.048 L 19.852,5.017 C 12.242,4.011 6.554,2.8 0.499,0.792 L 0.13,0.663 0.11,78.011 0.282,78.095 c 6.137,2.711 11.92,4.494 19.512,5.789 l 0.328,0.047 V 44.403 c 4.34,0.137 6.984,3.596 6.998,7.127 v 21.45 c -0.002,4.41 0.784,8.16 2.119,11.886 l 0.051,0.166 0.176,0.02 c 1.481,0.156 4.089,0.256 7.035,0.256 4.066,0 8.761,-0.184 11.9,-0.608 l 0.337,-0.037 -0.104,-0.328 C 47.492,80.95 47.062,77.901 47.062,74.128"
       mask="url(#f)"
       id="path12"
       style="fill:#000000" />
  </g>
  <g
     transform="translate(78.208,89.667)"
     id="g13"
     style="fill:#000000;fill-rule:evenodd">
    <mask
       id="i"
       fill="#ffffff">
      <use
         xlink:href="#g"
         id="use12" />
    </mask>
    <path
       fill="url(#h)"
       d="m 27.056,19.899 -0.022,46.227 c 0.009,1.1 -0.733,2.361 -1.997,3.209 -1.75,1.16 -3.841,1.107 -4.67,-0.135 -0.234,-0.355 -0.332,-0.775 -0.318,-1.219 l 0.009,-47.894 c 0.03,-1.246 1.084,-2.496 2.684,-2.926 a 4.4,4.4 0 0 1 1.132,-0.154 c 1.484,0 2.741,0.769 3.09,1.965 0.058,0.209 0.092,0.433 0.092,0.65 z M 44.393,3.314 A 3.441,3.441 0 0 0 40.964,0.015 c -0.553,0 -1.071,0.14 -1.535,0.371 -8.466,4.929 -20.571,9.015 -34.096,10.779 -2.992,0.391 -5.178,3.02 -5.168,6.1 L 0.136,83.769 c 0,2.765 2.234,5 4.999,5.005 a 4.87,4.87 0 0 0 1.042,-0.113 c 10.631,-2.746 19.602,-6.814 26.719,-12.488 6.361,-5.33 11.497,-12.725 11.497,-21.4 z"
       mask="url(#i)"
       id="path13"
       style="fill:#000000" />
  </g>
</svg>
