<svg id="SERENDA" width="500" height="156.99445" viewBox="0 0 500 156.99445" version="1.1" xml:space="preserve" xmlns:xlink="http://www.w3.org/1999/xlink" xmlns="http://www.w3.org/2000/svg" xmlns:svg="http://www.w3.org/2000/svg">
	<path id="SERENDA" style="fill:#000000;stroke:#000000;stroke-width:0" d="m 8.2697377,156.6768 c -3.3045153,-0.75787 -5.9068883,-2.7063 -7.40439379,-5.5437 -0.78777323,-1.49268 -0.86665759,-1.9676 -0.865327715689,-5.21036 0,-3.13108 0.09870276569,-3.76449 0.795817355689,-5.17306 1.03834135,-2.09818 2.98602615,-3.96793 5.20338385,-4.99524 1.5135288,-0.70123 2.2511236,-0.82712 4.8654006,-0.83046 3.383562,-0.004 5.312434,0.64006 6.85149,2.28882 l 0.770971,0.82588 -1.118426,0.93789 c -1.098705,0.92134 -1.130168,0.92715 -1.78398,0.33091 -2.831469,-2.58216 -7.6340732,-2.34674 -10.2782238,0.5038 -1.3539112,1.45958 -1.9883919,3.02358 -2.1493394,5.298 -0.1833283,2.59098 0.2632182,4.34493 1.5630262,6.13929 2.453881,3.38745 8.097032,3.95119 11.067878,1.10564 l 0.868863,-0.83224 0.996207,0.70934 c 1.205063,0.8581 1.215929,0.98207 0.183296,2.09628 -1.902144,2.05245 -6.228394,3.1148 -9.5666423,2.34921 z m 153.4820423,0.10503 c -2.51998,-0.52355 -4.35589,-2.0351 -5.50701,-4.53407 -0.4229,-0.918 -0.54622,-2.64039 -0.6446,-9.00099 l -0.12164,-7.86573 h 1.64713 1.64714 v 7.54137 c 0,6.53874 0.0759,7.68925 0.56763,8.65357 0.84891,1.66487 2.05524,2.39365 4.21181,2.54454 1.5593,0.10911 2.05486,0.005 2.98713,-0.62881 0.61476,-0.41777 1.41755,-1.26996 1.78398,-1.89377 0.62047,-1.05622 0.66627,-1.65233 0.66627,-8.67485 v -7.54066 h 1.54071 1.54071 v 7.23923 c 0,8.09392 -0.28683,9.79642 -1.97435,11.71838 -1.83062,2.08496 -5.25054,3.08619 -8.34542,2.44318 z m 254.60559,-0.003 c -4.80263,-0.99899 -8.22878,-4.86601 -8.69032,-9.80864 -0.20191,-2.16235 0.24039,-4.82807 1.07474,-6.47718 1.21735,-2.40611 3.71318,-4.38795 6.6089,-5.24789 5.39904,-1.60334 11.15507,0.77428 13.51657,5.58324 0.8122,1.65392 0.90795,2.19303 0.90461,5.0933 -0.005,3.87983 -0.67506,5.58726 -3.14325,8.00323 -2.44927,2.39747 -6.73747,3.58898 -10.27125,2.85394 z m 5.63359,-3.1954 c 5.10974,-2.34399 6.31996,-9.79223 2.25206,-13.86013 -3.77425,-3.77425 -9.8645,-2.79809 -12.30317,1.97198 -0.82741,1.61843 -0.97308,2.26264 -0.9507,4.2041 0.0298,2.59192 0.55508,4.07227 2.04811,5.77273 2.13529,2.43195 6.01386,3.25991 8.9537,1.91132 z M 33.569821,145.92141 v -10.5417 h 6.811561 6.811561 v 1.29744 1.29744 h -5.351941 -5.351941 v 3.08142 3.08142 h 5.027581 5.027581 v 1.29744 1.29744 h -5.038544 -5.038577 l 0.09209,3.48687 0.09205,3.48687 h 5.433258 5.433258 l -2.27e-4,1.37853 -2.27e-4,1.37853 h -6.973741 -6.973741 z m 29.516764,-0.0156 v -10.55717 l 1.976358,0.0966 1.976358,0.0966 5.402833,8.26346 5.402833,8.26346 0.08657,-8.34455 0.08657,-8.34455 h 1.454139 1.454138 v 10.5417 10.5417 h -1.901366 -1.901399 l -5.477792,-8.47076 -5.477825,-8.47076 -0.08647,8.47076 -0.08647,8.47076 h -1.454235 -1.454236 z m 38.598845,1.31291 v -9.24426 h -3.357289 -3.357288 l 0.03114,-1.29744 0.03114,-1.29744 h 8.353667 8.35366 v 1.29744 1.29744 h -3.40578 -3.40578 v 9.24426 9.24426 h -1.6218 -1.6218 z m 24.00264,-1.30814 v -10.58799 l 5.10867,0.1096 c 4.74513,0.10179 5.21026,0.16727 6.53602,0.92047 1.83458,1.04227 2.62715,2.51853 2.62715,4.89346 0,2.38038 -0.88456,3.74584 -3.13928,4.84603 l -1.67967,0.8196 2.73355,4.53235 c 1.50347,2.4928 2.7337,4.64181 2.73383,4.77561 1.7e-4,0.1338 -0.76601,0.24155 -1.7026,0.23945 l -1.70289,-0.004 -2.6314,-4.61827 -2.6314,-4.6183 -1.58528,-0.0955 -1.58528,-0.0955 v 4.63654 4.63656 l -1.54071,0.0989 -1.54071,0.0989 z m 9.21228,-1.90117 c 1.9784,-0.82664 2.62511,-2.53478 1.66365,-4.39408 -0.62385,-1.20639 -1.96478,-1.64087 -5.0643,-1.64087 h -2.52495 l -0.10263,3.24431 -0.10263,3.24432 h 2.52421 c 1.42335,0 2.9963,-0.19796 3.60665,-0.45297 z m 54.03793,1.91187 v -10.5417 h 2.4327 c 1.36822,0 2.4327,0.13876 2.4327,0.31706 0,0.17438 1.34084,3.76044 2.97967,7.96898 2.66527,6.84464 3.01837,7.5726 3.34668,6.89998 0.20185,-0.41359 1.5978,-3.99761 3.10208,-7.96447 l 2.73507,-7.21247 2.35161,-0.005 2.35161,-0.005 v 10.5417 10.5417 h -1.45433 -1.4543 l -0.0864,-8.66709 -0.0864,-8.66706 -3.32469,8.35201 c -1.82858,4.59358 -3.32469,8.49379 -3.32469,8.66709 0,0.17328 -0.48855,0.31505 -1.08566,0.31505 h -1.0857 l -3.37425,-8.49807 -3.37429,-8.49807 -0.0865,8.49807 -0.0865,8.49807 h -1.45423 -1.45424 z m 58.06045,0 v -10.5417 h 1.45962 1.45962 v 4.37886 4.37886 h 5.35194 5.35194 v -4.37886 -4.37886 h 1.45962 1.45962 v 10.5417 10.5417 h -1.45962 -1.45962 v -4.87341 -4.87344 l -5.27085,0.0891 -5.27085,0.0891 -0.0898,4.78431 -0.0898,4.78431 h -1.45093 -1.45096 z m 31.46292,10.20985 c 0,-0.18255 1.99453,-4.93332 4.43232,-10.5573 l 4.43228,-10.22542 1.4471,0.0967 1.4471,0.0967 3.68742,8.59554 c 2.0281,4.72755 4.04896,9.43482 4.49087,10.46061 l 0.8034,1.86507 h -1.73824 -1.73825 l -1.04924,-2.60289 -1.04924,-2.60292 -5.02962,0.0891 -5.02963,0.0891 -0.98128,2.51379 -0.98132,2.51379 h -1.57185 c -0.86448,0 -1.57182,-0.14933 -1.57182,-0.33185 z m 13.80795,-8.03015 c -0.10078,-0.31758 -0.96151,-2.51638 -1.91266,-4.88629 l -1.72942,-4.30889 -1.8436,4.64302 c -1.01398,2.55365 -1.84168,4.75245 -1.83935,4.88625 0.003,0.1338 1.69268,0.24327 3.75629,0.24327 3.44986,0 3.73724,-0.0465 3.56874,-0.57736 z m 21.5473,-2.1797 v -10.5417 h 1.92579 1.92576 l 2.39429,3.64905 c 1.31684,2.00698 3.77088,5.7618 5.45339,8.34403 l 3.05913,4.69499 0.0866,-8.34404 0.0866,-8.34403 h 1.45414 1.45413 v 10.5417 10.5417 h -1.90483 -1.90487 l -5.47431,-8.48584 -5.47435,-8.48587 -0.0865,8.48587 -0.0865,8.48584 h -1.45424 -1.45423 z m 34.70651,0.0107 v -10.60713 l 5.43303,0.1084 c 5.05327,0.10088 5.55875,0.1674 7.2318,0.95213 2.48262,1.16445 4.0159,2.60503 5.08087,4.7737 1.22076,2.48593 1.27493,6.45522 0.12352,9.05247 -0.91963,2.07438 -3.02949,4.07889 -5.48675,5.21269 -1.69319,0.78129 -2.26332,0.86004 -7.11162,0.98213 l -5.27085,0.1327 z m 10.98477,6.95074 c 0.91849,-0.3951 2.10293,-1.21149 2.63206,-1.81415 1.24048,-1.41281 2.09108,-4.29274 1.83016,-6.19641 -0.62361,-4.54973 -3.84334,-6.89777 -9.4585,-6.89777 h -2.74489 v 7.9945 7.99447 l 3.03558,-0.18113 c 2.08869,-0.12458 3.55655,-0.40519 4.70559,-0.89951 z m 23.39739,-6.96151 v -10.5417 h 1.61674 1.61677 l 0.0861,9.16317 c 0.0662,7.04189 0.18002,9.17257 0.4916,9.20371 0.223,0.0224 2.30296,0.0588 4.62213,0.0811 l 4.21668,0.0405 v 1.29744 1.29744 h -6.32502 -6.32502 z m 64.72712,6.25836 c -0.69501,-2.37172 -2.09491,-7.12197 -3.11087,-10.55613 l -1.84727,-6.24393 h 1.67033 1.67032 l 1.40399,5.10867 c 0.77218,2.80977 1.7845,6.54545 2.2496,8.30151 0.4651,1.75605 0.91771,2.99673 1.00578,2.75706 0.0881,-0.23967 1.19591,-3.93887 2.46179,-8.22042 l 2.30163,-7.78464 h 1.74532 1.74531 l 2.30105,7.84954 c 1.26555,4.31723 2.38249,7.93096 2.48203,8.03051 0.0995,0.0996 1.18155,-3.46923 2.40442,-7.93061 l 2.22342,-8.11162 h 1.55816 c 0.85699,0 1.55816,0.10068 1.55816,0.22371 0,0.12306 -1.31366,4.69316 -2.91924,10.15581 -1.60558,5.46264 -2.91924,10.10576 -2.91924,10.31799 0,0.24969 -0.60101,0.38475 -1.70289,0.38264 l -1.70289,-0.003 -2.42796,-8.13381 c -1.33539,-4.47361 -2.52181,-8.19178 -2.6365,-8.26265 -0.11466,-0.0709 -0.29896,0.27016 -0.40954,0.75786 -0.11057,0.48768 -1.20503,4.17085 -2.43211,8.18481 l -2.23105,7.2981 -1.58904,0.0955 -1.58907,0.0955 z m 38.41937,-6.25836 v -10.5417 h 6.81156 6.81157 v 1.29744 1.29744 h -5.35194 -5.35195 v 3.08142 3.08142 h 5.02759 5.02758 v 1.29744 1.29744 h -5.03855 -5.03857 l 0.0921,3.48687 0.0921,3.48687 H 494.56674 500 l -2.3e-4,1.37853 -2.2e-4,1.37853 h -6.97375 -6.97374 z m 7.9056,-53.419312 C 490.94757,89.613414 485.49254,84.373118 481.83538,80.856796 439.0052,39.676045 437.28395,37.980615 433.27953,33.028934 l -1.03708,-1.282422 -0.0172,31.381834 -0.0172,31.381834 h -6.81156 -6.81156 V 47.255074 0 l 3.16251,3.0651051 c 4.81733,4.6689682 18.26676,17.6034409 32.67927,31.4279909 16.21989,15.558221 28.16393,27.485556 30.03046,29.988513 l 1.43247,1.920892 0.0827,-31.356566 0.0827,-31.3565666 h 6.80997 6.80994 V 50.721575 c 0,25.867713 -0.055,47.032206 -0.12232,47.032206 -0.0672,0 -2.58508,-2.36332 -5.59521,-5.251843 z M 0.1607366,49.076712 V 3.6432769 L 17.108549,3.7819732 c 18.060205,0.1478109 18.751481,0.2039252 23.272833,1.8889756 6.085675,2.2680552 10.944265,7.8411442 12.984554,14.8940292 0.882097,3.049212 1.224232,9.895641 0.657932,13.16545 -1.554723,8.976826 -6.522426,15.42705 -13.857991,17.993614 -4.039483,1.413334 -6.07468,1.641294 -16.245767,1.81966 l -9.811892,0.17204 V 74.112961 94.51018 H 7.1344775 0.1607366 Z M 29.859434,40.695865 c 4.681845,-0.959619 6.800598,-2.413336 8.31591,-5.705752 0.652678,-1.418135 0.746418,-2.130949 0.746418,-5.676301 0,-3.687033 -0.07616,-4.216194 -0.840158,-5.838481 -1.200651,-2.549535 -2.325045,-3.733514 -4.612886,-4.857454 -2.810126,-1.380476 -5.96829,-1.922417 -12.630029,-2.167244 l -5.75739,-0.211612 V 28.98929 41.739558 l 5.91957,-0.220629 c 3.644834,-0.135875 7.04896,-0.452158 8.858565,-0.823064 z M 79.520838,94.293962 C 79.401895,94.175019 79.304587,73.740336 79.304587,48.883556 V 3.6893684 h 7.460281 7.460281 V 42.450394 81.211419 h 16.542361 16.54236 v 6.64938 6.649381 h -23.78639 c -13.082542,0 -23.883732,-0.09731 -24.002642,-0.216218 z m 65.304482,-0.05488 c 0,-0.155563 0.63963,-1.654333 1.42144,-3.330561 11.88387,-25.480201 19.77535,-42.422596 21.28681,-45.701065 1.02806,-2.229975 2.66202,-5.733064 3.63101,-7.784641 0.969,-2.051577 5.239,-11.210694 9.48896,-20.353593 4.24993,-9.1428985 7.83099,-16.62345199 7.95788,-16.62345199 0.12686,0 1.84603,3.46659799 3.82038,7.70355099 35.51889,76.224351 39.97073,85.814315 39.97073,86.102995 0,0.14181 -3.48272,0.257866 -7.7394,0.257866 h -7.73939 l -3.75411,-8.514451 c -2.06475,-4.682948 -4.37266,-9.937581 -5.12872,-11.676961 l -1.3746,-3.162511 -18.02719,0.0097 -18.02718,0.0097 -1.87659,4.28791 c -1.03214,2.358357 -3.36912,7.572055 -5.19336,11.586011 l -3.31674,7.298101 -7.69995,0.08696 c -4.23501,0.04784 -7.69998,-0.04032 -7.69998,-0.195881 z M 200.81995,57.44449 c -0.24554,-0.575642 -2.38797,-5.352492 -4.76099,-10.615234 -2.37302,-5.262742 -5.00034,-11.612089 -5.83848,-14.109662 l -1.52391,-4.54104 -0.39368,1.45962 c -1.13257,4.19923 -2.4833,7.62431 -6.99605,17.740094 -2.72126,6.099915 -4.90293,11.135605 -4.84825,11.190421 0.0547,0.05485 5.65882,0.05981 12.45361,0.01103 l 12.35413,-0.08868 z m 62.72114,-2.013595 V 16.33941 H 251.53977 239.53845 V 10.014389 3.6893684 h 31.46993 31.46993 l -0.0881,6.2439308 -0.0881,6.2439308 -11.91894,0.08508 -11.9189,0.08511 -0.0824,39.000273 -0.0824,39.000305 -7.37919,0.08719 -7.37919,0.08719 z m 45.08605,38.814869 c 0,-0.151865 2.20532,-5.007762 4.90075,-10.790842 2.6954,-5.78308 5.37475,-11.536417 5.95409,-12.785203 0.57934,-1.248786 3.46747,-7.452172 6.41806,-13.785302 2.95057,-6.333129 9.84864,-21.148274 15.329,-32.922544 5.48038,-11.774269 10.25594,-21.9817827 10.61231,-22.683341 l 0.64801,-1.27561076 0.40827,0.9512507 c 0.22452,0.52316026 3.9473,8.54124326 8.2728,17.81794006 4.3255,9.276698 10.85143,23.289051 14.50207,31.138564 3.65064,7.849514 7.5621,16.24233 8.69211,18.650703 6.34068,13.51391 11.83972,25.443126 11.83972,25.684288 0,0.151833 -3.50678,0.236977 -7.79288,0.189199 l -7.79288,-0.08686 -5.07883,-11.598563 -5.07886,-11.598564 -18.0048,0.08378 -18.00481,0.08378 -5.21807,11.514782 -5.21807,11.514781 -7.69398,0.08696 c -4.2317,0.04784 -7.69401,-0.0373 -7.69401,-0.189198 z m 56.23081,-36.226086 c -0.10989,-0.356796 -0.45508,-1.159588 -0.76714,-1.783981 -2.20491,-4.41201 -9.50615,-21.564234 -10.3877,-24.403033 -0.59468,-1.914989 -1.12073,-3.442336 -1.16899,-3.394071 -0.0483,0.04827 -0.59592,1.764194 -1.21697,3.813144 -1.15378,3.806398 -2.25174,6.435044 -7.91795,18.95638 -1.77607,3.924756 -3.1882,7.208902 -3.13812,7.298101 0.0501,0.0892 5.64983,0.16218 12.44385,0.16218 12.20313,0 12.35036,-0.0078 12.15302,-0.64872 z" />
</svg>
