<svg id="PLATAN" width="500" height="97.848846" viewBox="0 0 500 97.848846" version="1.1" xml:space="preserve" xmlns:xlink="http://www.w3.org/1999/xlink" xmlns="http://www.w3.org/2000/svg" xmlns:svg="http://www.w3.org/2000/svg">
	<path id="PLATAN" style="fill:#000000;stroke:#000000;stroke-width:0" d="M 494.27715,92.591858 C 491.26413,89.700565 485.8038,84.455173 482.14308,80.935431 439.27125,39.714631 437.54832,38.017552 433.54001,33.061055 l -1.03809,-1.283669 -0.0172,31.412354 -0.0172,31.412354 h -6.81819 -6.81818 V 47.301031 0 l 3.16558,3.068086 c 4.82202,4.6735089 18.28453,17.620561 32.71105,31.458555 16.23567,15.573352 28.19133,27.512287 30.05967,30.017678 l 1.43386,1.92276 0.0828,-31.387061 0.0828,-31.3870616 h 6.8166 H 500 V 50.770903 c 0,25.89287 -0.055,47.077946 -0.12244,47.077946 -0.0673,0 -2.58759,-2.365618 -5.60065,-5.256951 z M 0,49.12444 V 3.6468201 l 16.964294,0.1388312 c 18.077769,0.1479546 18.769717,0.2041235 23.295467,1.8908126 6.091593,2.270261 10.954908,7.8487701 12.997181,14.9085141 0.882955,3.052177 1.225423,9.905265 0.658572,13.178254 -1.556235,8.985556 -6.528769,15.442053 -13.871468,18.011113 -4.043412,1.414708 -6.080588,1.64289 -16.261566,1.82143 l -9.821435,0.172207 V 74.185038 94.602094 H 6.980523 0 Z m 29.72758,-8.388997 c 4.686398,-0.960553 6.807211,-2.415683 8.323997,-5.711301 0.653313,-1.419514 0.747144,-2.133022 0.747144,-5.681822 0,-3.690618 -0.07623,-4.220294 -0.840975,-5.844159 C 36.755927,20.946147 35.63044,19.761016 33.340374,18.635983 30.527515,17.254165 27.36628,16.711697 20.698062,16.466632 L 14.935073,16.254814 V 29.017483 41.780151 L 20.8604,41.559307 c 3.648378,-0.136007 7.055815,-0.452598 8.86718,-0.823864 z M 79.437281,94.385665 C 79.318222,94.266607 79.220819,73.81205 79.220819,48.931096 V 3.6929564 h 7.467537 7.467536 V 42.491678 81.290399 h 16.558448 16.55845 v 6.655847 6.655848 h -23.80953 c -13.095259,0 -23.906954,-0.0974 -24.025979,-0.216429 z m 65.367989,-0.05493 c 0,-0.155714 0.64025,-1.655942 1.42282,-3.3338 11.89543,-25.504981 19.79458,-42.463853 21.30751,-45.745511 1.02906,-2.232143 2.66461,-5.738639 3.63455,-7.792211 0.96994,-2.053573 5.24409,-11.221597 9.49818,-20.373388 4.25407,-9.15179 7.83861,-16.63961847 7.96562,-16.63961847 0.12699,0 1.84783,3.46996937 3.8241,7.71104287 35.55343,76.2984806 40.0096,85.8977716 40.0096,86.1867326 0,0.141948 -3.48611,0.258117 -7.74693,0.258117 h -7.74691 l -3.75776,-8.522732 c -2.06676,-4.687502 -4.37692,-9.947246 -5.13371,-11.688317 l -1.37594,-3.165587 -18.04472,0.0097 -18.04471,0.0097 -1.87842,4.29208 c -1.03314,2.360651 -3.37239,7.579419 -5.19841,11.597279 l -3.31996,7.305198 -7.70744,0.08705 c -4.23913,0.04789 -7.70747,-0.04036 -7.70747,-0.196071 z m 56.04909,-36.830376 c -0.24578,-0.576202 -2.3903,-5.357697 -4.76562,-10.625557 -2.37533,-5.267861 -5.00521,-11.623382 -5.84416,-14.123384 l -1.52539,-4.545457 -0.39407,1.46104 c -1.13367,4.203314 -2.48571,7.631725 -7.00285,17.757347 -2.72391,6.105847 -4.9077,11.146434 -4.85297,11.201304 0.0548,0.0549 5.66433,0.05987 12.46573,0.01104 l 12.36614,-0.08877 z m 62.78213,-2.015553 V 16.3553 H 251.6235 239.61051 V 10.024128 3.6929564 h 31.50054 31.50053 l -0.0882,6.2500032 -0.0882,6.2500034 -11.93053,0.08516 -11.93049,0.08519 -0.0825,39.038202 -0.0825,39.038234 -7.38637,0.08728 -7.38637,0.08727 z m 45.1299,38.852617 c 0,-0.152012 2.20747,-5.012632 4.90552,-10.801336 2.69802,-5.788704 5.37997,-11.547636 5.95988,-12.797637 0.5799,-1.25 3.47084,-7.459419 6.4243,-13.798708 C 329.00953,50.600453 335.91431,35.7709 341.4,23.98518 346.88571,12.19946 351.66591,1.982019 352.02263,1.2797784 l 0.64864,-1.27685132 0.40867,0.95217582 c 0.22473,0.523669 3.95113,8.5495498 8.28084,17.8352681 4.32971,9.28572 10.86198,23.311701 14.51617,31.168847 3.65419,7.857148 7.56946,16.258126 8.70057,18.668842 6.34684,13.527052 11.85123,25.46787 11.85123,25.709266 0,0.151981 -3.51019,0.237208 -7.80046,0.189383 l -7.80046,-0.08694 -5.08376,-11.609843 -5.0838,-11.609844 -18.02231,0.08386 -18.02232,0.08386 -5.22315,11.52598 -5.22314,11.52598 -7.70147,0.08704 c -4.23581,0.04789 -7.70149,-0.03734 -7.70149,-0.189382 z m 56.2855,-36.261316 c -0.11,-0.357143 -0.45553,-1.160716 -0.76789,-1.785716 -2.20705,-4.416301 -9.51539,-21.585206 -10.3978,-24.426766 -0.59526,-1.916851 -1.12182,-3.445684 -1.17013,-3.397372 -0.0484,0.04832 -0.5965,1.76591 -1.21815,3.816853 -1.1549,3.810099 -2.25393,6.441302 -7.92565,18.974815 -1.7778,3.928573 -3.1913,7.215913 -3.14117,7.305199 0.0501,0.08929 5.65532,0.162337 12.45595,0.162337 12.215,0 12.36237,-0.0078 12.16484,-0.64935 z" />
</svg>
