<svg
   version="1.0"
   width="191.71867"
   height="195.52257"
   id="svg2"
   xmlns="http://www.w3.org/2000/svg"
   xmlns:svg="http://www.w3.org/2000/svg">
  <defs
     id="defs4" />
  <g
     transform="translate(-185.43616,-571.46834)"
     id="layer1"
     style="fill:#000000">
    <path
       d="m 308.11421,571.53872 c -20.80934,-1.05299 -71.70133,9.46956 -119.35061,47.82343 -6.54521,24.28534 -1.70975,51.41591 0,77.76499 12.27278,40.60296 78.12503,45.90776 110.20181,69.86377 40.86621,-13.617 59.41425,-57.92442 70.27961,-78.18087 6.38037,-12.75507 15.84221,-85.42425 -4.15853,-91.90411 -64.4192,-5.44621 -104.90986,7.24566 -105.62741,18.71347 1.61711,11.27634 63.51022,-9.86108 102.30054,-9.9805 8.12418,1.05997 1.66858,50.6285 -6.23785,79.84428 -10.51511,24.89991 -43.17698,66.66224 -53.64537,70.27969 -20.19175,-16.72687 -43.69816,-36.32893 -94.74384,-48.02524 -11.05161,-15.87743 -12.74977,-70.09134 -7.97258,-84.21696 51.14788,-23.512 58.06979,-27.18623 108.95423,-51.98195 z"
       style="fill:#000000;fill-rule:evenodd;stroke:none;stroke-width:1px;stroke-linecap:butt;stroke-linejoin:miter;stroke-opacity:1"
       id="path1884" />
    <path
       d="m 212.05152,659.70014 c 38.246,103.61026 122.32584,35.59461 134.73728,-13.30737 -38.17706,42.79887 -88.53422,63.0786 -134.73728,13.30737 z"
       style="fill:#000000;fill-rule:evenodd;stroke:none;stroke-width:1px;stroke-linecap:butt;stroke-linejoin:miter;stroke-opacity:1"
       id="path1886" />
  </g>
</svg>
