<svg
   version="1.1"
   id="svg1"
   width="370.90775"
   height="117.62171"
   viewBox="0 0 370.90775 117.62171"
   xmlns="http://www.w3.org/2000/svg"
   xmlns:svg="http://www.w3.org/2000/svg">
  <defs
     id="defs1" />
  <g
     id="g1"
     transform="translate(118.84505,302.84379)">
    <path
       style="fill:#000000"
       d="m 26.079779,-187.08705 c -2.4581,-2.45809 -2.51761,-3.63763 -0.32422,-6.42606 1.80425,-2.29374 5.45872,-2.65282 6.13253,-0.60257 0.28532,0.86816 0.0537,0.87691 -1.27334,0.0481 -1.3152,-0.82136 -1.86141,-0.81439 -2.88705,0.0368 -1.62507,1.34869 -1.62947,5.17512 -0.008,6.79677 1.51864,1.51864 2.10016,1.56158 3.48286,0.25714 0.85546,-0.80703 0.99002,-0.76844 0.69734,0.2 -0.61204,2.02516 -3.64667,1.86341 -5.8203,-0.31023 z m 70.50695,0.44724 c -1.46054,-1.61388 -1.93916,-9.41163 -0.52399,-8.53701 0.44,0.27194 0.8,1.75685 0.8,3.29981 0,4.13877 1.26918,6.13354 3.233591,5.08222 1.2428,-0.66513 1.56641,-1.68643 1.56641,-4.94351 0,-2.25785 0.24691,-3.85827 0.54869,-3.55649 0.82437,0.82436 0.28433,7.91425 -0.69248,9.09122 -1.21334,1.46199 -3.388451,1.2696 -4.932221,-0.43624 z m 88.038061,0.83844 c -1.21452,-0.25962 -1.40098,-1.01193 -1.2,-4.84142 l 0.23795,-4.53403 3.09054,0.0993 c 3.482,0.11186 4.47946,1.17708 4.49721,4.80277 0.0166,3.39558 -2.79321,5.29267 -6.6257,4.4734 z m 4.29054,-1.80359 c 2.20859,-1.182 1.95643,-4.31984 -0.47519,-5.9131 -2.64449,-1.73273 -3.5774,-1.04033 -3.5774,2.65512 0,4.16908 0.93927,4.92418 4.05259,3.25798 z m 23.80993,1.59905 c -3.84031,-2.24087 -1.92657,-9.57091 2.49878,-9.57091 3.07526,0 4.8387,1.89941 4.8387,5.21178 0,4.04503 -3.90251,6.36348 -7.33748,4.35913 z m 6.40348,-3.94163 c 0.27181,-1.8264 -2.18082,-4.82928 -3.94435,-4.82928 -1.36154,0 -3.06653,2.50812 -3.09621,4.55464 -0.014,0.96505 0.76786,2.31029 1.73746,2.98942 1.49977,1.05048 2.00725,1.07342 3.4,0.15368 0.9004,-0.5946 1.7568,-1.88541 1.9031,-2.86846 z m -252.092881,0.52269 c -4.15257,-4.87161 -6.76644,-10.26926 -8.59658,-17.75197 -1.8021,-7.36802 -1.82774,-7.6 -0.84011,-7.6 0.40504,0 0.97274,1.07588 1.26155,2.39083 0.28881,1.31495 0.86256,2.59938 1.275,2.85428 0.41243,0.2549 1.42859,1.78903 2.25812,3.40917 1.60225,3.12931 8.62993,10.86607 10.40882,11.45903 1.34716,0.44905 0.56108,4.35111 -1.39243,6.91187 l -1.39235,1.82517 z m 73.18695,-1.15197 0.23993,-4.6 2.8,-0.12374 c 1.90948,-0.0844 2.16392,0.005 0.8,0.28066 -1.89356,0.38287 -3.16059,1.51291 -3.18775,2.84308 -0.007,0.33 1.13975,0.6 2.54775,0.6 2.70074,0 2.30787,1.216 -0.56,1.73331 -2.45536,0.44289 -1.91407,2.58382 0.8,3.16419 2.30637,0.49318 2.2814,0.51689 -0.63993,0.60785 l -3.03992,0.0947 z m 12.80001,0.0632 c 0.25826,-4.88354 1.69874,-6.48224 2.99886,-3.32823 0.42283,1.02576 1.49704,2.76502 2.38713,3.86502 l 1.61835,2 0.0178,-3.4 c 0.01,-1.87 0.37779,-3.4 0.81779,-3.4 0.44,0 0.8,1.98 0.8,4.4 0,5.43106 -1.47524,5.86325 -4.09613,1.2 -0.98917,-1.76 -2.09221,-3.2 -2.45118,-3.2 -0.35898,0 -0.65269,1.44 -0.65269,3.2 0,1.76 -0.37797,3.2 -0.83992,3.2 -0.51603,0 -0.74741,-1.74949 -0.6,-4.53679 z m 17.43992,0.19545 c 0,-3.4619 -0.2836,-4.41545 -1.4,-4.7072 -0.77,-0.20122 0.4,-0.36585 2.6,-0.36585 2.2,0 3.37,0.16463 2.6,0.36585 -1.1164,0.29175 -1.4,1.2453 -1.4,4.7072 0,3.32564 -0.28075,4.34134 -1.2,4.34134 -0.91925,0 -1.2,-1.0157 -1.2,-4.34134 z m 12.06272,4.14134 c -0.16377,-0.55511 -0.25042,-6.77224 -0.11986,-8.6 0.0636,-0.89075 2.44542,-1.06126 4.39171,-0.31441 1.39695,0.53607 1.73061,3.93249 0.46327,4.71575 -0.53622,0.3314 -0.53622,0.99269 0,1.99462 1.00945,1.88619 1.00992,2.40404 0.002,2.40404 -0.44,0 -0.8,-0.38571 -0.8,-0.85714 0,-0.86796 -1.9469,-3.14286 -2.68972,-3.14286 -0.2222,0 -0.55398,0.99 -0.73728,2.2 -0.1833,1.21 -0.41292,1.93 -0.51028,1.6 z m 4.73728,-6.10204 c 0,-1.15628 -2.26705,-2.67455 -3.16496,-2.11961 -1.61798,0.99996 -0.86587,2.82165 1.16496,2.82165 1.1,0 2,-0.31592 2,-0.70204 z m 23.372641,1.76731 c 0.12505,-2.49411 0.58736,-4.65038 1.02736,-4.79171 0.44,-0.14134 1.50838,1.35411 2.37417,3.32323 l 1.57417,3.5802 1.44208,-2.96473 c 2.46373,-5.06517 3.01918,-4.9445 2.88942,0.62774 -0.11698,5.02367 -0.13494,5.06489 -0.67984,1.56 -0.30783,-1.98 -0.61376,-2.97 -0.67985,-2.2 -0.0661,0.77 -0.44112,1.4 -0.83342,1.4 -0.3923,0 -0.9651,0.99 -1.27289,2.2 l -0.55961,2.2 -1.89096,-3.6 -1.89097,-3.6 -0.0362,3.4 c -0.0199,1.87 -0.40846,3.4 -0.86351,3.4 -0.49926,0 -0.7372,-1.79836 -0.6,-4.53473 z m 26.39827,0.13473 c 0.0217,-2.42 0.35219,-4.4 0.73432,-4.4 0.38212,0 0.69477,0.72 0.69477,1.6 0,1.24445 0.53333,1.6 2.4,1.6 1.84234,0 2.4,-0.3608 2.4,-1.55278 0,-0.85404 0.36,-1.77528 0.8,-2.04722 0.49971,-0.30883 0.8,1.32503 0.8,4.35279 0,2.69814 -0.35469,4.84721 -0.8,4.84721 -0.44,0 -0.8,-0.9 -0.8,-2 0,-1.68889 -0.37333,-2 -2.4,-2 -2.02667,0 -2.4,0.31111 -2.4,2 0,1.1 -0.33044,2 -0.73431,2 -0.40387,0 -0.71652,-1.98 -0.69478,-4.4 z m 15.02909,3.87426 c 0,-0.42555 0.72,-2.26396 1.6,-4.08535 0.88,-1.82139 1.6,-3.67771 1.6,-4.12515 0,-0.44745 0.47357,-0.63182 1.05237,-0.40971 1.19207,0.45744 4.19103,8.16922 3.46082,8.89943 -0.26154,0.26154 -0.70252,-0.116 -0.97995,-0.83897 -0.64948,-1.69252 -3.39501,-1.68758 -5.27025,0.009 -0.80464,0.7282 -1.46299,0.97582 -1.46299,0.55027 z m 5.6,-4.27426 c 0,-0.88889 -0.53333,-1.6 -1.2,-1.6 -0.66,0 -1.2,0.15056 -1.2,0.33457 0,0.18402 -0.21852,0.90402 -0.48559,1.6 -0.34811,0.90716 -0.008,1.26543 1.2,1.26543 1.15226,0 1.68559,-0.50625 1.68559,-1.6 z m 10.44907,4.4 c -0.31605,-1.32205 0.06,-8.77123 0.46327,-9.17683 0.20606,-0.20726 0.70125,0.15274 1.10042,0.8 0.8729,1.41543 2.42411,3.64981 3.78624,5.45378 0.83015,1.09942 0.91428,0.74835 0.49776,-2.07695 -0.41469,-2.81282 -0.27636,-3.4 0.80099,-3.4 1.04515,0 1.30225,0.86868 1.30225,4.4 0,4.81115 -1.51071,6.01062 -3.27465,2.6 -0.51202,-0.99 -1.51469,-2.47222 -2.22815,-3.29382 -1.23177,-1.41848 -1.3214,-1.3176 -1.77704,2 -0.26392,1.9216 -0.56591,3.13382 -0.67109,2.69382 z m 31.15093,-3.95278 c 0,-2.39404 0.36,-4.57528 0.8,-4.84722 0.49624,-0.30669 0.8,1.17398 0.8,3.89965 0,4.17941 0.10748,4.41036 2.2,4.72735 1.76964,0.26808 1.61315,0.35672 -0.8,0.45314 l -3,0.11986 z m 28.42097,-0.092 c -0.76893,-2.44464 -1.18669,-4.65616 -0.92835,-4.91451 0.25835,-0.25834 0.64751,0.0318 0.86481,0.64479 0.21731,0.61298 0.79291,2.1945 1.27912,3.5145 l 0.88402,2.4 1.68608,-3.6 1.68607,-3.6 0.91265,3.15301 c 1.23365,4.26196 2.52213,4.4275 3.20068,0.4112 0.30828,-1.82471 0.85507,-3.01312 1.21508,-2.64093 0.8804,0.91018 -1.7023,9.07672 -2.87054,9.07672 -0.50779,0 -1.28497,-1.53 -1.72706,-3.4 l -0.8038,-3.4 -1.43122,3.4 c -0.78717,1.87 -1.68732,3.4 -2.00035,3.4 -0.31302,0 -1.19826,-2.00015 -1.96719,-4.44478 z m 18.77903,-0.35522 v -4.8 l 3,0.0947 c 2.8951,0.0913 2.91642,0.11253 0.60977,0.60616 -3.4303,0.73409 -3.75779,3.29918 -0.42121,3.29918 1.46686,0 2.30086,0.33171 2.01144,0.8 -0.27193,0.44 -1.39958,0.8 -2.50587,0.8 -2.90522,0 -2.17303,2.63821 0.91564,3.29919 2.30665,0.49362 2.28533,0.51482 -0.60977,0.60616 l -3,0.0947 z m -327.800001,-7.78576 c -1.87,-0.16843 -3.4,-0.60749 -3.4,-0.97569 0,-0.3682 3.87,-2.16889 8.6,-4.00152 4.73,-1.83264 9.7344,-3.85068 11.1209,-4.48455 1.3865,-0.63386 2.75625,-1.15248 3.04389,-1.15248 0.28764,0 2.04573,-0.69368 3.90685,-1.54152 7.48391,-3.40932 7.93755,-2.98008 2.62895,2.48755 -6.31154,6.50062 -9.76767,8.4962 -16.36802,9.45093 -2.93292,0.42424 -5.51257,0.71559 -5.73257,0.64743 -0.22,-0.0682 -1.93,-0.26172 -3.8,-0.43015 z m -14.6,-7.51723 c -1.61537,-2.38789 -6.512829,-8.06378 -7.999999,-9.27156 -0.94829,-0.77014 4.757229,-0.96563 27.199999,-0.93197 31.04059,0.0466 30.2987,-0.15278 14,3.7616 -3.08,0.73971 -5.96,1.57495 -6.4,1.85608 -0.44,0.28114 -2.96,0.92988 -5.6,1.44165 -2.64,0.51177 -5.52,1.25033 -6.4,1.64124 -0.88,0.39092 -3.57375,1.10634 -5.9861,1.58982 -2.41236,0.48349 -5.11236,1.06086 -6,1.28304 -1.07613,0.26937 -2.01376,-0.1871 -2.8139,-1.3699 z m 342.800001,-12.01197 c -10.66745,-10.66223 -25.0479,-24.68508 -25.31535,-24.68583 -0.15656,-4.4e-4 -0.16491,6.29956 -0.0186,14 l 0.26609,14.00079 h -3.26609 -3.26608 v -21.29795 c 0,-20.15943 0.0748,-21.24056 1.4,-20.22435 1.81706,1.39343 16.44639,15.58539 23.21638,22.5223 2.89854,2.97 5.56562,5.4 5.92685,5.4 0.36122,0 0.65677,-6.29999 0.65677,-13.99999 v -14 h 2.8 2.8 v 21.6 c 0,11.87999 -0.09,21.5736 -0.2,21.54133 -0.11,-0.0323 -2.36,-2.2176 -5,-4.8563 z M 24.862739,-235.66317 v -20.88634 l 9,0.29055 c 7.43759,0.2401 9.37613,0.56757 11.16662,1.88634 3.66651,2.70053 4.96716,9.54679 2.89983,15.26389 -1.31682,3.64158 -6.16398,5.9319 -12.55408,5.9319 h -4.91237 v 9.2 9.2 h -2.8 -2.8 z m 16.0572,-4.45085 c 0.44049,-0.44049 1.00167,-2.03814 1.24706,-3.55033 0.65241,-4.02031 -1.42329,-6.12211 -6.70426,-6.78856 l -4.2,-0.53004 v 6.20212 6.20213 l 4.42815,-0.36721 c 2.43548,-0.20197 4.78856,-0.72762 5.22905,-1.16811 z m 19.9428,4.5372 v -20.8 h 3.18469 3.1847 l 0.2153,17.8 0.21531,17.79999 7.4,0.23003 7.4,0.23002 v 2.76998 2.76997 h -10.8 -10.8 z m 30.4,20.3561 c 0,-0.43571 1.01842,-2.76096 5.76213,-13.15611 1.30513,-2.86 3.026611,-6.63999 3.825501,-8.39999 0.79889,-1.76 2.88819,-6.26 4.64289,-10 1.75469,-3.74 3.43492,-7.61 3.73383,-8.6 1.0264,-3.3995 1.03917,-3.38018 8.0643,12.2 1.19038,2.64 3.23131,7.14 4.53539,9.99999 1.30408,2.86 3.09211,6.82 3.97339,8.8 0.88129,1.98 2.31393,4.95 3.18364,6.6 l 1.58131,3 h -3.47999 -3.47998 l -2.3712,-5.17918 -2.37121,-5.17919 -8.6,-0.0208 c -5.5474,-0.0134 -8.6,0.28073 -8.6,0.82873 0,0.46724 -0.92614,2.80724 -2.058101,5.19999 -1.97719,4.17944 -2.18161,4.35046 -5.2,4.35046 -1.72804,0 -3.1419,-0.19975 -3.1419,-0.44389 z m 24.800001,-16.33838 c 0,-0.43025 -0.87687,-2.68025 -1.9486,-5 -1.07174,-2.31975 -2.14044,-4.84772 -2.3749,-5.61772 -0.63983,-2.10131 -1.97717,-1.68594 -2.57571,0.8 -0.29132,1.21 -1.37818,3.89803 -2.41524,5.9734 -1.03705,2.07537 -1.88555,3.96537 -1.88555,4.2 0,0.23463 2.52,0.42659 5.6,0.42659 3.11542,0 5.6,-0.34707 5.6,-0.78227 z m 28.8,-1.21773 v -17.99999 h -5.6 -5.6 v -2.8 -2.8 h 14.4 14.4 v 2.8 2.8 h -5.6 -5.6 v 17.99999 18 h -3.2 -3.2 z m 20.8,17.52187 c 0,-0.26298 1.3963,-3.41298 3.1029,-7 3.72169,-7.82249 7.27118,-15.48107 9.69655,-20.92186 0.98071,-2.2 2.64203,-5.83474 3.69183,-8.0772 1.04979,-2.24245 1.90872,-4.49245 1.90872,-5 0,-2.00548 1.74877,-0.75963 2.9157,2.0772 0.67874,1.65 2.2415,5.16 3.47281,7.8 2.50829,5.37791 5.05086,10.92167 8.8058,19.19999 1.39705,3.08 3.22985,6.96109 4.07289,8.62464 0.84304,1.66355 1.5328,3.19355 1.5328,3.4 0,0.20645 -1.5538,0.37536 -3.45289,0.37536 h -3.45289 l -2.264,-5.2 -2.26401,-5.2 h -8.11598 -8.11598 l -2.16712,4.27993 c -1.19192,2.35397 -2.16713,4.69397 -2.16713,5.2 0,0.55712 -1.42013,0.92007 -3.6,0.92007 -1.98,0 -3.6,-0.21516 -3.6,-0.47813 z m 24.79269,-16.52187 c -0.004,-0.55 -0.89277,-2.79999 -1.97499,-4.99999 -1.08221,-2.2 -1.97892,-4.60876 -1.99268,-5.35279 -0.0362,-1.95645 -1.55392,-2.60412 -2.10419,-0.89792 -0.25732,0.79789 -1.33478,3.47572 -2.39435,5.95074 -1.05956,2.47502 -1.92648,4.90502 -1.92648,5.4 0,0.57432 1.88161,0.89996 5.2,0.89996 3.63057,0 5.19779,-0.30181 5.19269,-1 z m -221.992691,13.04773 c -3.08,-0.31085 -4.88,-0.63098 -4,-0.71138 0.88,-0.0804 2.56575,-0.65005 3.74611,-1.26587 1.18036,-0.61582 3.34036,-1.37437 4.8,-1.68566 1.45964,-0.3113 4.16414,-1.24523 6.01,-2.0754 1.84586,-0.83018 3.77145,-1.50942 4.27909,-1.50942 0.50765,0 2.0574,-0.50714 3.44389,-1.12699 4.8352904,-2.16167 12.52091044,-4.25463 12.52091044,-3.40972 0,1.47927 -7.52906004,8.08495 -11.35320044,9.96083 -4.22294,2.0715 -10.84126,2.69213 -19.4468,1.82361 z m -31.2,-1.26851 c -3.52,-0.5788 -11.26,-1.63597 -17.2,-2.34925 -5.94,-0.71328 -11.34,-1.49626 -12,-1.73995 -0.96967,-0.35803 -17.492749,-2.65617 -19.288569,-2.68278 -0.26871,-0.004 -0.69951,-1.78833 -0.95733,-3.96521 -0.25782,-2.17689 -1.38797,-5.96756 -2.51144,-8.42371 -1.12346,-2.45615 -2.04266,-4.66078 -2.04266,-4.89917 0,-0.23838 -0.55715,-0.99057 -1.2381,-1.67153 -0.68095,-0.68095 -1.03744,-1.43875 -0.79219,-1.684 0.46544,-0.46544 10.67293,3.59643 15.78878,6.28284 1.62717,0.85445 3.403509,1.55355 3.947419,1.55355 0.54391,0 2.45259,0.69268 4.24151,1.53929 1.78892,0.84661 5.59258,2.48953 8.45258,3.65092 2.86,1.1614 6.72607,2.80872 8.59128,3.66071 1.8652,0.85199 3.59495,1.54907 3.84389,1.54907 0.24893,0 2.05286,0.72 4.00872,1.6 8.05502,3.6242 10.44924,4.63784 12.26964,5.19463 1.05245,0.32189 3.39245,1.25688 5.2,2.07775 l 3.28647,1.49249 -3.6,-0.0666 c -1.98,-0.0366 -6.48,-0.5402 -10,-1.11901 z m 14,-0.15902 c 0,-0.46556 -1.35,-1.43772 -3,-2.16036 -2.56409,-1.12297 -9.54106,-5.13845 -19,-10.93513 -1.32,-0.80893 -6.30491,-3.73292 -11.07758,-6.49774 -4.77267,-2.76483 -9.99267,-5.8145 -11.6,-6.77704 -2.9563,-1.77037 -3.60532,-2.14717 -13.439859,-7.80285 -3.01541,-1.73411 -5.72425,-3.50955 -6.01964,-3.94541 -1.09898,-1.62158 8.20864,-3.96405 15.956339,-4.01577 l 7.41926,-0.0495 20.89928,20.99661 c 11.4946,11.54813 20.66594,21.22995 20.38074,21.51515 -0.2852,0.2852 -0.51854,0.13763 -0.51854,-0.32793 z m 10.4,0.28966 c 0,-0.63064 3.83536,-4.35021 9.31309,-9.03193 2.1378,-1.82714 4.9948,-4.34714 6.34888,-5.6 1.35409,-1.25286 4.59409,-4.11908 7.2,-6.36937 2.60592,-2.2503 8.1010904,-7.04724 12.2115004,-10.65986 4.11041004,-3.61263 7.61066,-6.43123 7.77832,-6.26357 0.16766,0.16766 -0.0873,1.7246 -0.56664,3.45986 -0.47931,1.73526 -0.68921,5.42736 -0.46645,8.20466 l 0.40502,5.04965 -6.71857,3.23761 c -3.69522,1.78068 -6.89969,3.53064 -7.12104,3.8888 -0.2213504,0.35816 -1.4534604,0.88203 -2.7380104,1.16417 -1.28455,0.28213 -2.71527,0.97051 -3.17937,1.52972 -0.46411,0.55921 -2.28898,1.49369 -4.05528,2.07663 -1.7663,0.58293 -3.21145,1.30463 -3.21145,1.60377 0,0.29915 -1.44,1.01915 -3.2,1.6 -1.76,0.58086 -3.2,1.33056 -3.2,1.66601 0,0.33545 -1.35,1.04334 -3,1.57309 -1.65,0.52976 -3.63,1.51347 -4.4,2.18604 -0.77,0.67256 -1.4,0.98069 -1.4,0.68472 z m -1.89641,-2.49134 c 0.25717,-0.67019 0.78907,-1.21852 1.182,-1.21852 0.39292,0 0.71441,-0.45919 0.71441,-1.02043 0,-0.91522 1.75414,-4.51233 10.27902,-21.07853 1.38654,-2.69443 2.52098,-5.30443 2.52098,-5.8 0,-0.49557 0.28768,-0.90103 0.63929,-0.90103 0.35161,0 1.11588,-1.35 1.69838,-3 0.5825,-1.65 1.49553,-3.54 2.02895,-4.2 0.53343,-0.66 1.45872,-2.46 2.0562,-4 0.59749,-1.54 1.28678,-2.98 1.53176,-3.2 0.24498,-0.22 2.91147,-5.35104 5.92554,-11.40231 3.0140704,-6.05127 5.8040704,-11.20251 6.2000004,-11.44721 0.39593,-0.2447 0.71988,0.41328 0.71988,1.46218 0,2.84976 3.68502,13.13455 5.56027004,15.51853 2.07212996,2.63429 2.07281996,2.62742 -0.56027,5.57495 -5.72984004,6.41409 -8.06764004,9.07647 -12.20000044,13.89386 -5.94737,6.93325 -9.64552,11.13535 -11.66841,13.25847 -0.91762,0.96309 -3.04638,3.4327 -4.73057,5.48803 -1.68419,2.05533 -4.44341,5.24803 -6.13159,7.09488 -1.68819,1.84685 -3.06943,3.6154 -3.06943,3.93011 0,0.31472 -0.7119,0.95321 -1.582,1.41887 -1.29067,0.69075 -1.49589,0.62227 -1.11441,-0.37185 z m -18.58622,-15.40832 c -6.55456,-8.6844 -12.35222,-16.3344 -12.88371,-17 -0.53148,-0.66561 -2.05719,-2.65019 -3.39045,-4.41019 -1.33326,-1.76 -2.71097,-3.56 -3.06158,-4 -3.16315,-3.96964 -3.38159,-4.82238 -3.37559,-13.17801 0.008,-10.62227 1.59548,-21.62199 3.12124,-21.62199 0.3407,0 1.07009,1.5041 1.62088,3.34244 0.55078,1.83834 1.68776,4.62301 2.52663,6.18815 0.83886,1.56514 1.52521,3.17161 1.52521,3.56993 0,0.39833 0.70234,2.20366 1.56076,4.01185 0.85842,1.8082 2.68176,5.98763 4.05186,9.28763 1.37011,3.3 2.99652,7.08 3.61425,8.4 0.61773,1.32 2.23773,5.1 3.6,8.4 1.36227,3.3 2.98178,7.08 3.5989,8.4 4.13618,8.84716 10.28626,24.39999 9.64851,24.39999 -0.13175,0 -5.60236,-7.10541 -12.15691,-15.7898 z m 12.6229,8.78413 c -1.02284,-3.40688 -2.77279,-9.25432 -3.88877,-12.99432 -1.11598,-3.74 -2.7091,-8.70351 -3.54028,-11.03001 -0.83117,-2.32651 -1.51122,-4.7921 -1.51122,-5.4791 0,-0.687 -0.5145,-2.38349 -1.14334,-3.76999 -1.05318,-2.32213 -2.65363,-7.61477 -5.72152,-18.9209 -0.65666,-2.42 -1.5212,-5.12 -1.92119,-6 -0.39999,-0.88 -1.41661,-4.12 -2.25914,-7.2 -0.84254,-3.08 -1.80056,-6.23 -2.12894,-7 -1.26612,-2.96884 0.37555,-1.83573 10.37413,7.16042 3.86614,3.47853 10.77509,12.22817 11.14021,14.1082 0.72147,3.71485 3.30518,57.33589 2.76222,57.3257 -0.16634,-0.003 -1.13931,-2.79312 -2.16216,-6.2 z m 4.79297,3.80567 c -0.0288,-1.54 0.4762,-8.92 1.12223,-16.39999 0.64603,-7.48 1.64022,-19.40768 2.20932,-26.50596 1.17431,-14.64719 1.49084,-15.34534 9.64224,-21.26783 3.70151,-2.68937 11.35089,-6.03496 12.09562,-5.29023 0.16445,0.16445 -0.18476,1.37113 -0.77601,2.68151 -0.59125,1.31038 -2.37842,6.34251 -3.97148,11.18251 -1.59305,4.84 -3.19672,9.34433 -3.5637,10.00963 -0.36699,0.66529 -1.29172,3.36529 -2.05497,6 -0.76325,2.6347 -1.66174,5.15037 -1.99665,5.59037 -0.3349,0.44 -1.04751,2.59521 -1.58358,4.78936 -0.53606,2.19415 -1.27489,4.35415 -1.64183,4.8 -0.36695,0.44585 -1.22669,2.79064 -1.91054,5.21064 -1.15841,4.09934 -3.9889,12.17375 -5.88926,16.79999 -0.45185,1.1 -1.00323,2.72 -1.22529,3.6 -0.24464,0.96949 -0.42438,0.4966 -0.4561,-1.2 z"
       id="path1" />
  </g>
</svg>
