<svg id="POGORIA" width="500" height="129.5593" viewBox="0 0 500 129.5593" version="1.1" xml:space="preserve" xmlns:xlink="http://www.w3.org/1999/xlink" xmlns="http://www.w3.org/2000/svg" xmlns:svg="http://www.w3.org/2000/svg">
	<path id="POGORIA" style="fill:#000000;stroke:#000000;stroke-width:0" d="m 192.4683,128.5929 c 8.2616,-1.3725 16.2463,-5.367 22.6844,-11.348 6.4269,-5.9708 10.7984,-12.9493 13.0557,-20.842 1.2503,-4.3719 1.5915,-6.9091 1.8837,-14.0113 0.2032,-4.9373 0.1573,-5.9767 -0.2706,-6.1278 -0.2834,-0.1001 -8.5977,-0.2499 -18.4761,-0.333 -15.1564,-0.1274 -18.3327,-0.2457 -20.3432,-0.7575 -6.2856,-1.6003 -10.2742,-3.842 -14.686,-8.2542 -6.3417,-6.3423 -9.089,-13.4979 -8.6642,-22.567 0.2423,-5.1735 1.3572,-9.0096 3.9605,-13.6271 1.8627,-3.3039 6.4155,-8.1356 9.4929,-10.0747 13.9142,-8.7669 32.5067,-4.8986 41.3228,8.5976 3.466,5.3061 4.7112,9.6838 5.233,18.3969 0.4863,8.1223 1.597,12.4747 4.7809,18.7359 2.4106,4.7404 4.7265,7.8837 8.7505,11.8769 6.3056,6.2571 13.4294,10.1446 22.5688,12.3157 4.5537,1.0818 14.8834,0.9807 19.6102,-0.192 8.6933,-2.1566 15.0454,-5.6649 21.5441,-11.8989 16.5801,-15.9047 18.5786,-41.5417 4.6787,-60.0187 -8.0028,-10.6379 -20.605,-17.414 -33.7683,-18.1567 -5.9659,-0.3366 -14.0844,0.8443 -18.396,2.6759 -9.4042,3.995 -15.5597,8.5607 -20.5639,15.2529 -0.7161,0.9576 -1.4119,1.7411 -1.5462,1.7411 -0.1344,0 -0.9161,-0.8898 -1.7371,-1.9773 -3.6073,-4.7778 -10.2416,-10.2337 -15.9451,-13.1128 -3.438,-1.7355 -9.3295,-3.5128 -13.8663,-4.183 -4.4114,-0.6517 -10.1262,-0.5616 -14.4188,0.2273 -6.0107,1.1046 -12.81,3.9565 -17.9934,7.5469 -2.8121,1.9479 -8.527,7.4386 -10.5286,10.1155 l -1.2952,1.7324 -1.249,-1.7324 C 149.8541,6.8975 134.7216,-0.3451 120.0756,0.3055 114.8898,0.5359 111.2713,1.2295 106.4043,2.9263 98.3821,5.7229 90.5169,11.4048 85.6989,17.884 83.886,20.322 83.7954,20.3887 83.2521,19.6855 78.9881,14.1662 76.4338,11.6143 72.1369,8.5805 51.3073,-6.1262 22.5197,-0.8359 8.0128,20.3646 4.7827,25.0851 2.8021,29.6648 1.2055,36.1049 L 0.2514,39.9536 0.1257,81.6327 0,123.3118 l 6.8887,0.1071 c 3.7888,0.059 7.3389,0.055 7.8891,-0.01 l 1.0004,-0.1153 0.1024,-41.3043 c 0.1135,-45.7547 -0.068,-42.2832 2.5188,-48.177 3.0409,-6.9285 8.5483,-12.411 15.5998,-15.5296 6.3377,-2.8028 14.6499,-3.1153 21.5644,-0.8107 9.073,3.0239 16.5697,10.9142 19.269,20.2805 0.9371,3.2515 1.2968,9.4334 0.7516,12.9152 -0.993,6.3405 -3.9563,12.0102 -8.7213,16.6864 -2.9252,2.8707 -4.3722,3.9092 -7.824,5.6151 -7.3818,3.6481 -16.5739,3.9843 -24.3609,0.891 -1.5266,-0.6064 -2.9071,-1.1026 -3.0677,-1.1026 -0.1606,0 -1.0931,1.5258 -2.0721,3.3906 -1.8658,3.5539 -2.238,4.237 -4.2216,7.7476 -1.1158,1.9748 -1.1671,2.1961 -0.6039,2.6079 1.3717,1.003 8.3635,3.4861 11.9738,4.2523 5.386,1.1431 12.9353,1.1438 18.3273,0 10.5492,-2.2347 20.0119,-8.0396 26.4694,-16.2377 1.2398,-1.5741 2.3561,-2.8619 2.4805,-2.8619 0.1245,0 0.6306,0.6569 1.1248,1.4598 1.2708,2.0648 8.2002,8.7307 11.0042,10.5857 13.2411,8.7596 29.6954,10.1928 44.1344,3.8444 6.2756,-2.7592 13.1501,-8.1264 17.2361,-13.4568 1.008,-1.3151 1.9426,-2.4004 2.0769,-2.412 0.1343,-0.012 0.7845,0.6799 1.4449,1.5367 6.5088,8.4441 15.1044,14.1899 25.2521,16.8804 4.1752,1.107 4.3214,1.1189 15.3949,1.2645 6.1488,0.081 11.294,0.2581 11.4339,0.3938 0.1398,0.1357 -0.2108,1.4014 -0.7792,2.8126 -4.2585,10.5731 -13.2544,17.5379 -24.4918,18.9622 l -3.3906,0.4297 v 7.801 7.8009 l 2.2909,-0.1956 c 1.26,-0.1076 3.8579,-0.4559 5.7731,-0.7741 z M 118.1745,75.6282 C 116.33,75.4456 113.7969,74.8391 111.6007,74.0541 94.7731,68.0397 86.9752,48.9977 94.7093,32.8059 c 0.9992,-2.092 2.4056,-4.3218 3.4652,-5.4944 0.4536,-0.5019 0.8247,-1.0294 0.8247,-1.172 0,-0.1427 1.2982,-1.3815 2.8849,-2.7529 12.2226,-10.5642 30.1552,-9.8507 41.3113,1.6435 9.4557,9.7423 11.1846,24.7596 4.1878,36.3761 -1.7862,2.9658 -5.7919,7.2625 -8.4305,9.043 -6.1888,4.1763 -13.216,5.9278 -20.7782,5.179 z m 151.7351,0.027 c -9.9718,-0.9544 -19.271,-7.4682 -23.7088,-16.6071 -2.0222,-4.1644 -2.9154,-8.1381 -2.9327,-13.0466 -0.033,-9.4976 3.798,-17.4917 11.3196,-23.6182 5.2562,-4.2812 11.3858,-6.423 18.411,-6.4332 7.4595,-0.011 13.722,2.2372 19.4546,6.9833 13.2519,10.9715 14.315,31.3022 2.2812,43.6249 -6.8267,6.9906 -15.1117,10.0266 -24.8249,9.0969 z m 72.1093,-8.7426 c 0,-25.4318 0.04,-26.2724 1.4796,-31.0606 3.2299,-10.743 13.5563,-19.0211 25.074,-20.1004 l 2.7844,-0.2609 -0.099,-7.7453 L 371.1589,0 368.7763,0.1118 c -5.6929,0.2673 -12.2837,1.975 -17.2276,4.4639 -12.1759,6.1296 -20.5693,16.6186 -24.0585,30.0651 l -0.9981,3.8465 -0.143,26.6662 -0.143,26.6661 h 7.9062 7.9062 z M 398.3767,45.8834 398.2837,0 h -7.6974 -7.6975 l -0.093,45.9218 -0.093,45.9218 7.8836,-0.038 7.8836,-0.038 z m 61.3129,45.5554 c 4.3861,-0.5378 9.4608,-1.9499 13.0469,-3.6304 1.6893,-0.7917 3.0715,-1.5515 3.0715,-1.6884 0,-0.2508 -1.8697,-3.7818 -5.2308,-9.8785 -1.0003,-1.8144 -1.8734,-3.3591 -1.9404,-3.4327 -0.067,-0.074 -1.3815,0.3907 -2.9212,1.0316 -10.5779,4.4036 -23.6549,2.054 -31.8771,-5.7275 -3.939,-3.728 -7.4116,-9.5381 -8.834,-14.7805 -0.8817,-3.2495 -0.9023,-10.9976 -0.038,-14.2226 1.5135,-5.6468 3.8777,-9.9598 7.5414,-13.7583 8.726,-9.047 21.1995,-11.7602 33.0309,-7.1847 7.9183,3.0623 14.2517,9.8412 17.3794,18.6021 l 1.1369,3.1846 0.1832,25.8414 0.1833,25.8415 7.7891,0.099 7.7891,0.099 V 67.177 c 0,-19.6178 -0.1102,-25.3692 -0.5308,-28.1397 -2.2031,-14.5098 -11.5993,-27.281 -24.9419,-33.9006 -16.7655,-8.3177 -36.2367,-5.7442 -50.6435,6.6937 -5.2869,4.5644 -10.6275,12.6086 -12.952,19.5092 -2.3185,6.8822 -3.0129,16.0772 -1.7162,22.7261 2.1298,10.9204 7.9284,20.8017 16.0113,27.2844 10.0475,8.0584 22.1446,11.5996 34.4649,10.0889 z" />
</svg>
