<svg
   version="1.1"
   id="svg1"
   width="1091.6003"
   height="283.84076"
   viewBox="0 0 1091.6004 283.84076"
   xmlns="http://www.w3.org/2000/svg"
   xmlns:svg="http://www.w3.org/2000/svg">
  <defs
     id="defs1" />
  <g
     id="g1"
     transform="translate(1255.4406,-331.76344)">
    <path
       style="fill:#000000"
       d="m -853.84027,597.88397 v -17.72053 h 3.63373 c 4.53977,0 14.51592,-2.02836 19.89241,-4.04455 10.13365,-3.80011 21.67394,-12.53524 29.478,-22.31259 2.16095,-2.70735 8.79796,-15.59786 9.75595,-18.94817 l 0.48762,-1.70531 -23.42385,-0.40283 c -24.89919,-0.4282 -30.1982,-1.05851 -41.88729,-4.9824 -18.13325,-6.08714 -34.29875,-17.10519 -45.35429,-30.91251 -3.12306,-3.9004 -5.88169,-7.08388 -6.13028,-7.07439 -0.2486,0.009 -1.892,2.03557 -3.652,4.50241 -4.04678,5.67201 -14.75479,15.74317 -22.24159,20.91879 -29.84199,20.62975 -69.22234,23.23797 -101.75844,6.73963 -12.776,-6.47847 -25.2034,-16.60797 -33.8004,-27.55054 -2.0199,-2.57102 -3.9005,-4.39399 -4.1792,-4.05106 -0.2787,0.34294 -2.5583,3.18489 -5.0659,6.31547 -11.3253,14.13903 -28.4104,25.78128 -46.4191,31.63121 -23.3928,7.59886 -52.5046,5.75409 -73.7354,-4.67249 -5.0007,-2.45591 -5.6769,-3.10139 -4.6266,-4.41677 0.454,-0.56865 2.3642,-3.9139 4.2449,-7.4339 4.4416,-8.31317 11.2865,-20.71171 11.658,-21.11671 0.1598,-0.17419 2.3878,0.62448 4.9511,1.77483 15.9212,7.145 38.0733,7.04901 53.3105,-0.231 18.2418,-8.71558 30.3891,-22.86468 36.1065,-42.05691 4.3967,-14.75841 2.2064,-35.36189 -4.9915,-46.95431 -1.0191,-1.64126 -1.8529,-3.21723 -1.8529,-3.50215 0,-0.28493 -1.8191,-2.97198 -4.0426,-5.97122 -10.6464,-14.36124 -27.137,-23.66659 -45.2854,-25.5537 -26.2346,-2.72794 -50.9531,10.32717 -63.785,33.68825 -4.2518,7.74054 -6.7345,15.82085 -7.6811,24.99873 -0.5309,5.14838 -0.8165,38.74605 -0.7797,91.72419 l 0.058,83.6 -17.2421,0.2156 -17.2422,0.2156 v -89.91081 c 0,-98.74527 -0.1037,-96.38054 4.8805,-111.31689 3.4693,-10.39663 10.2567,-23.25288 16.2531,-30.78565 4.1455,-5.20756 16.6686,-16.80761 21.9002,-20.28591 18.3027,-12.16886 35.1484,-17.33194 56.5495,-17.33194 21.8342,0 38.9851,5.0446 56.2838,16.55478 7.066,4.70152 20.5428,17.34245 24.6515,23.1224 l 2.3296,3.27718 2.7111,-3.67718 c 4.4771,-6.07239 16.8308,-17.79865 23.477,-22.28472 17.3151,-11.68735 35.0707,-17.15631 55.76368,-17.17599 21.73735,-0.0207 38.69323,5.03264 56.38638,16.80463 8.03805,5.34805 20.60465,17.07039 24.41362,22.77343 1.1,1.647 2.22727,2.997 2.50505,3 0.27778,0.003 1.51592,-1.34453 2.75144,-2.99453 4.38423,-5.85504 15.23438,-16.41953 21.54351,-20.97632 17.31806,-12.50801 37.02808,-18.70369 59.2,-18.60902 21.46048,0.0916 40.38418,6.15915 57.51166,18.44 7.21152,5.17084 17.62664,15.22324 21.29163,20.55012 1.36047,1.97737 2.72628,3.58409 3.03514,3.57048 0.30886,-0.0136 1.82157,-1.70623 3.36157,-3.76139 14.7083,-19.62852 37.42135,-33.24054 63.2,-37.87602 8.77826,-1.57849 26.38308,-1.2009 35.76983,0.7672 35.45733,7.43426 63.30097,31.80026 74.98726,65.62144 6.59795,19.09508 7.06274,42.10164 1.246,61.67635 -1.94129,6.53292 -8.23932,20.2163 -11.5054,24.99716 -1.12721,1.65 -1.88032,3 -1.67359,3 0.20674,0 -0.2541,0.66534 -1.0241,1.47854 -0.77,0.8132 -3.02,3.42081 -5,5.79469 -16.15509,19.36881 -38.19902,31.47385 -63.37841,34.80315 -30.75162,4.06608 -60.59122,-5.74073 -82.89795,-27.24448 -19.19628,-18.50526 -28.93041,-40.83103 -30.498,-69.94884 -0.74197,-13.78213 -2.06668,-20.09257 -5.97924,-28.48306 -8.71421,-18.68765 -23.78727,-31.30816 -43.6464,-36.54465 -8.62475,-2.27419 -22.16447,-2.26011 -31.2,0.0324 -22.72296,5.76544 -41.20186,24.10485 -47.26901,46.9122 -2.62778,9.87823 -2.45685,24.05248 0.40481,33.57021 4.00119,13.30772 10.61207,23.29964 21.45327,32.42523 7.81452,6.57788 16.63851,10.91532 27.01093,13.27727 8.22924,1.87391 9.18467,1.91294 47,1.92004 l 38.6,0.007 -0.002,11.8 c -0.003,14.82178 -1.11047,23.95171 -4.1451,34.16666 -2.02724,6.82394 -8.7589,22.36064 -10.23973,23.63334 -0.25598,0.22 -1.61063,2.2 -3.01034,4.4 -1.39971,2.2 -3.38093,4.9 -4.40271,6 -1.02177,1.1 -2.38474,2.73781 -3.02882,3.63958 -2.27618,3.1869 -13.80585,13.27011 -19.7947,17.31134 -13.55888,9.14943 -32.1412,15.52905 -47.81839,16.41684 l -8.35795,0.47331 z m -124.21617,-101.3839 c 24.68746,-5.09934 43.9073,-22.68626 50.8056,-46.48918 1.52885,-5.27535 1.80123,-8.05241 1.75054,-17.84745 -0.0558,-10.7775 -0.23844,-12.13888 -2.57613,-19.2 -5.52949,-16.70212 -17.40907,-30.54798 -32.93372,-38.3848 -26.62114,-13.43831 -59.74845,-6.40279 -79.03265,16.7848 -5.5661,6.69283 -11.7315,19.32801 -13.3533,27.36627 -1.4423,7.14812 -1.6201,19.05903 -0.3865,25.8868 4.1385,22.90685 21.546,42.64272 44.0114,49.89831 10.14825,3.27756 21.89762,4.01303 31.71476,1.98525 z m 334.88886,-1.06391 c 28.84531,-7.56209 48.60863,-33.12491 48.60863,-62.87272 0,-17.60732 -6.24543,-32.7211 -18.76032,-45.3995 -25.37513,-25.70663 -66.29576,-25.74526 -92.01925,-0.0869 -7.56528,7.54614 -12.57648,15.99191 -16.54604,27.88636 -1.61568,4.84127 -1.86862,7.17165 -1.86686,17.2 0.002,12.4605 0.87846,17.25688 4.75362,26.0193 8.75411,19.7946 27.0386,34.46155 47.95753,38.46926 7.39747,1.41723 19.91112,0.87137 27.87269,-1.21584 z m 222.92652,-62.87272 -7e-4,-100.8 17.5303,0.22938 17.5303,0.22938 -0.1296,100.40262 -0.1295,100.40262 -17.4001,0.168 -17.4,0.168 z m 146.7907,100.32255 c -22.4728,-1.67386 -43.8968,-11.64508 -60.6566,-28.23095 -10.28,-10.17327 -13.3595,-14.45161 -20.002,-27.78877 -7.9755,-16.01365 -10.6582,-29.24334 -9.8759,-48.70283 0.5995,-14.91177 2.8983,-24.25811 9.3463,-38 13.4597,-28.68548 39.4133,-49.02386 70.7983,-55.48065 7.748,-1.59399 10.1572,-1.80306 20.4427,-1.77401 20.2074,0.0571 38.6416,5.71702 55.9573,17.18076 6.3252,4.1876 18.2199,15.29506 22.5086,21.01893 1.3987,1.86664 2.902,3.17201 3.3408,2.90083 0.4473,-0.27646 0.5488,-0.0903 0.2311,0.42381 -0.3116,0.50429 0.4853,2.44991 1.771,4.32361 5.9271,8.63785 12.4658,25.32297 14.6593,37.40672 0.8509,4.68731 1.0892,18.16421 1.0892,61.6 v 55.6 l -17.4,0.2156 -17.4,0.2156 -0.016,-51.0156 c -0.02,-65.32503 -0.3051,-67.59774 -10.6167,-84.61244 -3.5237,-5.8143 -11.4343,-14.18545 -17.0859,-18.08054 -11.5597,-7.967 -21.0054,-11.11601 -35.0818,-11.69561 -9.4836,-0.39049 -11.0948,-0.24281 -18.2847,1.67595 -4.3366,1.15729 -10.6366,3.53748 -14,5.2893 -10.6832,5.56428 -21.706,15.54225 -21.082,19.08355 0.1859,1.05451 0.082,1.09977 -0.5102,0.22226 -0.565,-0.83735 -1.3986,-0.069 -3.4718,3.2 -8.9207,14.06657 -12.3655,32.1467 -9.0909,47.71391 6.1354,29.16672 29.2758,49.45451 60.0561,52.6527 8.0381,0.8352 20.9479,-1.77516 31.8888,-6.44789 1.7079,-0.72943 3.3923,-1.03161 3.7432,-0.67152 0.3509,0.3601 2.952,4.97473 5.7802,10.25473 2.8283,5.28 6.2738,11.63573 7.6568,14.12384 1.383,2.48812 2.5145,4.88419 2.5145,5.3246 0,1.09006 -9.1381,5.28587 -16.6475,7.64385 -13.5067,4.2411 -25.5064,5.55171 -40.5626,4.43026 z m -270.57665,-56.92255 c 0.37642,-62.68397 0.29802,-61.61573 5.69728,-77.63467 8.23954,-24.44573 28.06724,-46.31202 52.03523,-57.38526 10.81888,-4.99834 23.16055,-8.05337 33.25422,-8.23168 l 8.4,-0.14839 v 17.2 17.2 l -6.38615,0.57862 c -15.13089,1.37095 -28.46676,7.87094 -39.25439,19.13285 -3.10231,3.23869 -6.44049,7.03559 -7.41818,8.43756 -3.39726,4.87147 -7.16025,13.49051 -8.84139,20.25097 -1.63818,6.58767 -1.69178,8.52989 -1.71646,62.2 l -0.0255,55.4 h -18.04348 -18.04348 z"
       id="path1" />
  </g>
</svg>
