<svg
   version="1.1"
   id="svg1"
   width="527.38226"
   height="288.03275"
   viewBox="0 0 527.38226 288.03275"
   xmlns="http://www.w3.org/2000/svg"
   xmlns:svg="http://www.w3.org/2000/svg">
  <defs
     id="defs1" />
  <g
     id="g1"
     transform="translate(-4.3440678,2390.2331)">
    <path
       style="fill:#000000"
       d="m 18.086868,-2102.6696 c -3.7858,-1.1897 -9.1244002,-6.0679 -11.4952002,-10.5039 -2.2476,-4.2054 -2.2476,-4.2054 -2.2476,-57.7054 0,-49.9557 0.1268,-53.896 1.9145,-59.4771 6.1475002,-19.1927 21.9891002,-32.7372 43.1852002,-36.9233 20.0561,-3.9609 41.3014,0.3077 56.164602,11.2844 5.8563,4.325 12.4877,13.6506 15.8913,22.3478 2.6764,6.8389 2.8444,8.1541 2.8444,22.2682 0,13.2901 -0.2641,15.6839 -2.3167,21 -3.0897,8.0021 -6.651,13.9671 -11.4421,19.1649 -4.007,4.347 -15.628702,12.3299 -17.966702,12.3412 -0.701,0 -2.4341,0.6113 -3.8512,1.3508 -4.7617,2.4849 -18.5366,3.97 -30.4901,3.2873 l -11.2831,-0.6445 -0.3251,19.7502 c -0.321,19.5025 -0.3588,19.802 -3.0197,23.8926 -4.3124,6.6293 -7.9118,8.6257 -16.182,8.9751 -3.9179,0.1655 -8.1391,-0.018 -9.3805,-0.4083 z m 55.2747,-87.8128 c 8.7611,-5.7405 10.7909,-27.6805 3.5573,-38.451 -6.7542,-10.0568 -18.2879,-9.245 -24.746,1.7418 -2.62,4.4573 -2.8288,5.588 -2.8288,15.3127 0,11.8167 1.3545,16.0169 6.5846,20.4177 2.5481,2.1441 4.0799,2.5823 9.0273,2.5823 3.7831,0 6.8518,-0.5854 8.4056,-1.6035 z m 16.2325,86.4972 c -1.5513,-0.8803 -1.75,-2.7925 -1.75,-16.8364 0,-13.1605 0.254,-15.9408 1.5,-16.4189 2.6735,-1.026 4.1265,0.3323 8.4627,7.911 2.344602,4.0978 4.549702,7.4458 4.900102,7.44 0.3504,-0.01 2.5707,-3.4031 4.9339,-7.5494 4.5313,-7.9502 6.2862,-9.446 8.716,-7.4294 1.1937,0.9906 1.4842,4.1216 1.4719,15.8618 -0.01,8.0452 -0.3968,15.2295 -0.863,15.9651 -0.4663,0.7356 -1.9219,1.1856 -3.2347,1 -2.2199,-0.3139 -2.4219,-0.8618 -2.8869,-7.8295 l -0.5,-7.4919 -1.9045,4.2477 c -1.0475,2.3362 -2.5041,4.7454 -3.237,5.3536 -2.2905,1.9009 -5.846302,0.167 -7.867002,-3.8362 l -1.9086,-3.7812 -0.5513,5.7241 c -0.6225,6.4632 -2.5289,9.2317 -5.2816,7.6696 z m 143.628102,0.2865 c -0.5578,-0.3741 -2.8451,-3.0187 -5.0829,-5.8768 -2.2378,-2.8581 -4.3447,-4.9206 -4.682,-4.5833 -0.3373,0.3373 -0.6132,2.2482 -0.6132,4.2466 0,1.9983 -0.54,4.1733 -1.2,4.8333 -1.7145,1.7144 -5.4777,1.4824 -6.1931,-0.3818 -1.1785,-3.0713 -0.6706,-28.9546 0.5931,-30.2182 0.7164,-0.7165 4.1726,-1.2 8.5769,-1.2 6.8201,0 7.5975,0.2206 10.3,2.9231 3.9979,3.9979 4.1224,10.4982 0.2883,15.0547 l -2.6349,3.1313 2.6349,2.7502 c 3.0723,3.2068 3.478,7.619 0.8309,9.0357 -0.9922,0.531 -2.2603,0.6593 -2.818,0.2852 z m -3.6876,-20.8161 c 0.9092,-2.3695 -1.0324,-4.8641 -3.7858,-4.8641 -2.4484,0 -3.5859,2.2826 -2.5207,5.0584 0.7602,1.981 5.5281,1.8341 6.3065,-0.1943 z m 44.8662,19.4134 c -2.2822,-3.2583 -2.2701,-28.9213 0.015,-31.2061 2.9605,-2.9605 5.2318,-1.335 6.2196,4.4511 l 0.7472,4.3775 3.7787,-4.6114 c 4.3208,-5.2729 6.0377,-6.2043 8.7555,-4.7498 3.0807,1.6487 2.3059,5.1858 -2.0724,9.4612 -2.2,2.1482 -4,4.2845 -4,4.7472 0,0.4628 2.25,3.8135 5,7.4462 2.75,3.6327 5,6.9877 5,7.4557 0,0.468 -0.9104,1.7612 -2.023,2.8738 -2.7337,2.7337 -4.993,1.4284 -9.639,-5.569 -1.9917,-2.9997 -4.0075,-5.4539 -4.4796,-5.4539 -0.4722,0 -0.8584,1.9249 -0.8584,4.2775 0,4.0909 -2.124,8.7225 -4,8.7225 -0.4877,0 -1.5871,-1.0001 -2.4433,-2.2225 z m 122.0691,0.3616 c -1.2949,-1.4309 -1.6258,-4.0486 -1.6258,-12.8609 0,-11.8713 -0.1834,-12.2782 -5.5321,-12.2782 -2.9165,0 -4.6752,-2.7442 -3.348,-5.2242 0.8247,-1.5408 2.4512,-1.7758 12.2928,-1.7758 12.123,0 14.4041,0.851 13.1207,4.8946 -0.453,1.4273 -1.679,2.0775 -4.3326,2.298 l -3.7008,0.3074 -0.2481,10 c -0.2994,12.0666 -0.722,14.146 -3.1379,15.4389 -1.4111,0.7552 -2.2562,0.5614 -3.4882,-0.7998 z m -243.4258,-0.3391 c -0.66,-0.66 -1.2,-1.6748 -1.2,-2.2552 0,-2.4992 12.023,-28.9782 13.5444,-29.8296 1.213,-0.6788 2.1772,-0.4235 3.4858,0.9232 2.0663,2.1263 11.9776,25.42 11.9544,28.0953 -0.049,5.65 -5.5589,5.6608 -8.317,0.016 -1.7476,-3.5766 -2.0598,-3.75 -6.75,-3.75 -4.0458,0 -4.9176,0.3151 -4.9176,1.7775 0,4.5558 -5.0287,7.7938 -7.8,5.0225 z m 14.4241,-13.5653 c 0.761,-0.4974 0.8252,-1.5343 0.1986,-3.2106 -0.7542,-2.0179 -1.0981,-2.2029 -1.8588,-1 -1.1233,1.7763 -1.2615,4.982 -0.2139,4.9606 0.4125,-0.01 1.2558,-0.3459 1.8741,-0.75 z m 164.6103,13.5997 c -1.8714,-1.8713 -1.7233,-29.1838 0.1667,-30.7523 0.8969,-0.7444 4.5856,-1.0584 10.25,-0.8725 l 8.8489,0.2904 v 3 c 0,2.9444 -0.1112,3.0092 -6,3.5 -5.2264,0.4355 -6.0402,0.7823 -6.3117,2.6895 -0.2727,1.9166 0.2131,2.2282 3.8982,2.5 4.8649,0.3588 7.0992,2.7 5.3065,5.5605 -0.6957,1.1101 -2.636,1.8635 -5.3065,2.0605 -3.6851,0.2718 -4.1709,0.5834 -3.8982,2.5 0.2706,1.9011 1.0884,2.2553 6.2097,2.6895 6.5694,0.5569 9,2.5561 6.9909,5.75 -0.8892,1.4136 -2.8134,1.8047 -10.0104,2.0344 -6.0734,0.1939 -9.3027,-0.1085 -10.1441,-0.95 z m -143.2344,-50.5094 c -11.8893,-1.2058 -25.1291,-7.5666 -34.2131,-16.437 -7.2031,-7.0338 -10.526,-12.8937 -13.2398,-23.3481 -2.0691,-7.9707 -2.0547,-26.7924 0.027,-34.8242 4.7761,-18.4314 17.563,-31.013 37.9264,-37.3173 7.5003,-2.322 32.3765,-2.6768 39.5,-0.5633 18.6946,5.5467 31.6465,16.5474 36.9055,31.3459 3.9029,10.9825 4.2351,13.2201 3.8327,25.819 -0.4534,14.1952 -1.3809,18.3761 -6.1704,27.8131 -4.2502,8.3744 -9.5892,13.9221 -18.4834,19.206 -12.3592,7.3425 -27.9234,10.1476 -46.0844,8.3059 z m 18.4666,-35.0105 c 5.9251,-2.8255 8.0334,-8.5503 8.0334,-21.8145 0,-9.4608 -0.3117,-11.5829 -2.2274,-15.1658 -3.1266,-5.8477 -6.9865,-8.3351 -12.927,-8.3305 -8.9342,0.01 -13.9842,5.1958 -16.3554,16.8056 -1.4912,7.301 -0.043,17.9305 3.1608,23.1987 3.9694,6.5271 12.8769,8.8538 20.3156,5.3065 z m 179.5334,35.0801 c -10.7095,-1.2992 -24.562,-7.4282 -32.1353,-14.2183 -5.9778,-5.3595 -9.5799,-10.6435 -13.4032,-19.6616 -2.868,-6.7645 -2.9615,-7.4912 -2.9615,-23 0,-12.5763 0.3643,-17.0085 1.6969,-20.6435 6.1544,-16.7871 16.9775,-27.357 34.3031,-33.5009 7.4162,-2.6299 9.0946,-2.8382 23,-2.8536 11.9747,-0.013 16.2101,0.3652 21,1.877 19.5307,6.1644 32.8186,19.105 38.1022,37.1063 2.4247,8.261 2.4238,27.8309 0,35.5 -6.0461,19.1179 -18.6831,31.4423 -38.4105,37.46 -5.2474,1.6007 -24.2346,2.7784 -31.1901,1.9346 z m 18.9365,-35.2098 c 1.6417,-0.9984 3.8835,-2.9575 4.9816,-4.3536 4.1731,-5.3053 4.9757,-23.821 1.3687,-31.5751 -0.8299,-1.7842 -3.0496,-4.5967 -4.9327,-6.25 -4.6754,-4.1051 -12.0052,-4.2724 -17.095,-0.3902 -5.3506,4.0811 -7.2591,9.7552 -7.2591,21.5817 0,8.893 0.2929,10.57 2.581,14.774 1.5449,2.8385 3.8533,5.3763 5.75,6.3214 4.3262,2.1557 10.9636,2.1065 14.6055,-0.1082 z m -116.9365,31.7424 c -3.5447,-1.4772 -7.8542,-5.834 -9.8195,-9.9272 -1.5155,-3.1563 -1.6805,-9.2939 -1.6805,-62.5 0,-58.4067 0.021,-59.0402 2.1436,-63 4.0802,-7.6139 9.3534,-10.5 19.1846,-10.5 3.8101,0 8.4922,0.6538 10.4046,1.4528 4.5778,1.9127 9.4195,7.5423 10.7562,12.5065 0.7219,2.6811 0.9812,22.8959 0.7921,61.7631 -0.2711,55.7098 -0.3527,57.8991 -2.2811,61.1716 -1.1,1.8667 -3.7286,4.7917 -5.8413,6.5 -3.561,2.8795 -4.4727,3.1231 -12.5,3.3405 -4.7623,0.129 -9.7837,-0.2343 -11.1587,-0.8073 z m 187.2225,-22.4839 c -2.6563,-1.8605 -2.7563,-4.0956 -0.5874,-13.1313 2.4673,-10.279 2.1817,-32.4161 -0.5517,-42.754 -3.2674,-12.3581 -8.3283,-21.5869 -16.1939,-29.531 -14.9258,-15.0745 -33.6712,-22.027 -59.3895,-22.027 -18.312,0 -33.1215,3.5767 -45.6653,11.0288 -7.1557,4.2512 -10.7988,4.9243 -12.9065,2.3847 -0.8073,-0.9727 -1.5848,-5.9688 -2.0099,-12.9143 -0.5446,-8.8985 -1.2217,-12.482 -3.1569,-16.7092 -3.0872,-6.7434 -7.7598,-12.1187 -13.4153,-15.433 -4.3737,-2.5632 -7.3461,-5.7804 -7.3461,-7.9512 0,-1.9581 9.3767,-15.6303 15.9868,-23.3105 15.4381,-17.9372 40.0232,-31.8961 64.7012,-36.7357 11.6518,-2.2851 30.9722,-2.2851 42.624,0 36.0714,7.0741 67.947,32.0721 83.2513,65.2887 19.6029,42.5464 10.7167,94.3632 -21.9004,127.7046 -7.7998,7.973 -17.5015,15.6471 -19.7813,15.6471 -0.7901,0 -2.4368,-0.7005 -3.6591,-1.5567 z"
       id="path4" />
  </g>
</svg>
