<svg id="POLOMARKET" width="500" height="222.91347" viewBox="0 0 500 222.91347" version="1.1" xml:space="preserve" xmlns:xlink="http://www.w3.org/1999/xlink" xmlns="http://www.w3.org/2000/svg" xmlns:svg="http://www.w3.org/2000/svg">
	<path id="POLOMARKET" style="fill:#000000;stroke:#000000;stroke-width:0" d="M 0,102.95239 C 0,83.676787 5.8937375,68.459272 17.636737,57.38476 29.383779,46.269815 45.485421,40.713017 65.943011,40.713017 c 20.379421,0 36.444669,5.556798 48.191719,16.671743 11.74569,11.074512 17.63943,26.292027 17.63943,45.56763 0,19.41982 -5.85331,34.69799 -17.60035,45.85202 -11.71469,11.15403 -27.775904,16.71217 -48.230799,16.71217 -7.319663,0 -14.077312,-0.70488 -20.274295,-2.13484 v 36.26542 c 0,7.13232 -2.044546,12.81177 -6.117465,17.00464 -4.050007,4.18478 -9.581198,6.26167 -16.501926,6.26167 -6.915336,0 -12.443832,-2.16045 -16.5019258,-6.43958 C 2.48661,212.19881 0.43802074,206.38594 0.43802074,199.02584 0.43802074,167.01798 0,134.92387 0,102.95239 Z m 434.86295,25.39308 c 6.3641,0 11.12572,-2.18876 14.24039,-6.53932 3.10388,-4.3519 4.64302,-11.08933 4.64302,-20.22173 0,-8.457168 -1.64426,-15.000524 -4.97592,-19.67589 -3.33839,-4.683452 -7.94906,-7.024504 -13.90749,-7.024504 -5.99347,0 -10.68367,2.341052 -14.01532,7.024504 -3.36804,4.675366 -5.04869,11.218722 -5.04869,19.67589 0,9.1324 1.53644,15.86983 4.64436,20.22173 3.11063,4.35056 7.94503,6.53932 14.41965,6.53932 z m -368.212367,0.53775 c 6.365453,0 11.124379,-2.20627 14.236348,-6.55414 3.106578,-4.3546 4.645716,-11.07451 4.645716,-20.21769 0,-8.446383 -1.646958,-15.000521 -4.974568,-19.67993 -3.331653,-4.680757 -7.942327,-7.020462 -13.907496,-7.020462 -6.002905,0 -10.68501,2.339705 -14.01262,7.020462 -3.372086,4.679409 -5.05139,11.233547 -5.05139,19.67993 0,9.14318 1.539138,15.86309 4.649759,20.21769 3.107925,4.35056 7.938283,6.55414 14.414251,6.55414 z m 148.900097,-0.53775 c 6.3668,0 11.12168,-2.18876 14.23904,-6.53932 3.10793,-4.3519 4.64302,-11.08933 4.64302,-20.22173 0,-8.457168 -1.64696,-15.000524 -4.97861,-19.67589 -3.32356,-4.683452 -7.93828,-7.024504 -13.90345,-7.024504 -5.99886,0 -10.68501,2.341052 -14.01666,7.024504 -3.35996,4.675366 -5.04735,11.218722 -5.04735,19.67589 0,9.1324 1.53509,15.86983 4.64706,20.22173 3.11062,4.35056 7.93829,6.53932 14.41695,6.53932 z m 152.67247,-26.788 c 0,-19.272916 5.90047,-34.485039 17.64347,-45.560899 11.743,-11.121683 27.84869,-16.678482 48.29954,-16.678482 20.38616,0 36.45141,5.556799 48.20115,16.678482 C 494.11031,67.072431 500,82.284554 500,101.55747 c 0,19.41577 -5.85735,34.70876 -17.5963,45.85875 -11.71066,11.15537 -27.77861,16.70813 -48.23754,16.70813 -20.45085,0 -36.55654,-5.55276 -48.29954,-16.70813 -11.743,-11.14999 -17.64347,-26.44298 -17.64347,-45.85875 z M 301.3394,24.10327 c 0,-7.347966 2.12137,-13.201271 6.33445,-17.5531753 C 311.87211,2.199538 317.5839,0 324.79305,0 c 7.17276,0 12.80908,2.1200204 17.01542,6.3304105 4.16996,4.2036515 6.26168,9.9087025 6.26168,17.1528925 V 138.41725 c 0,7.17545 -2.12541,12.84411 -6.33041,17.1192 -4.20635,4.24004 -9.84267,6.35871 -16.94669,6.35871 -7.28058,0 -12.98967,-2.15506 -17.19602,-6.42745 -4.16996,-4.28991 -6.25763,-10.17151 -6.25763,-17.67582 z m -151.79238,77.4542 c 0,-19.272916 5.88969,-34.485039 17.63674,-45.560899 11.74704,-11.121683 27.84464,-16.678482 48.29953,-16.678482 20.38616,0 36.45141,5.556799 48.19711,16.678482 11.74704,11.07586 17.63,26.287983 17.63,45.560899 0,19.41577 -5.84253,34.70876 -17.59361,45.85875 -11.70661,11.15537 -27.77456,16.70813 -48.2335,16.70813 -20.45489,0 -36.55249,-5.55276 -48.29953,-16.70813 -11.74705,-11.14999 -17.63674,-26.44298 -17.63674,-45.85875 z m 296.54813,90.66086 c -0.26686,0.066 -0.54585,0.11186 -0.83831,0.11995 h -0.007 -6.83582 v 24.92675 0.007 c -0.008,0.3329 -0.0512,0.64693 -0.13477,0.94209 -0.0795,0.2965 -0.19812,0.57414 -0.3612,0.84234 -0.15499,0.2709 -0.33559,0.50946 -0.54854,0.71431 -0.21294,0.21295 -0.44476,0.39759 -0.70892,0.56067 h -0.003 c -0.26821,0.15499 -0.55393,0.26955 -0.85718,0.35311 -0.2965,0.0863 -0.60649,0.13074 -0.93534,0.13747 h -0.0148 c -0.32481,-0.007 -0.64288,-0.0539 -0.92861,-0.13747 -0.30324,-0.0836 -0.58492,-0.19812 -0.85582,-0.3612 -0.2709,-0.15903 -0.50945,-0.34233 -0.71566,-0.54449 -0.20216,-0.20621 -0.38681,-0.4515 -0.54989,-0.7224 -0.15499,-0.26416 -0.28168,-0.54584 -0.36119,-0.84234 -0.0822,-0.29516 -0.12669,-0.60649 -0.13343,-0.93804 v -0.0108 -24.92675 h -6.82908 -0.0148 c -0.29246,-0.008 -0.5701,-0.0539 -0.83426,-0.11995 -0.26685,-0.0795 -0.52697,-0.1806 -0.76957,-0.31673 -0.24933,-0.14825 -0.45958,-0.31402 -0.65096,-0.50945 -0.18734,-0.19542 -0.35716,-0.40433 -0.50137,-0.64962 -0.14151,-0.24259 -0.24664,-0.49193 -0.32211,-0.76552 -0.0728,-0.2709 -0.11187,-0.54584 -0.11591,-0.83831 v -0.0256 c 0.004,-0.28842 0.0431,-0.56606 0.11591,-0.83022 0.0755,-0.2709 0.1806,-0.52697 0.32211,-0.76553 0.14825,-0.24933 0.31403,-0.46902 0.50137,-0.6577 0.19138,-0.18734 0.41241,-0.35311 0.65096,-0.49463 0.2426,-0.14421 0.50272,-0.25203 0.76957,-0.32077 0.26416,-0.0795 0.5418,-0.11995 0.83426,-0.12668 h 0.0148 20.77296 0.007 c 0.29246,0.007 0.57145,0.0472 0.83831,0.12668 0.2709,0.0687 0.52427,0.17656 0.76687,0.32077 0.23855,0.14152 0.45824,0.30729 0.65366,0.49463 0.18464,0.18868 0.35446,0.40837 0.50271,0.6577 0.14017,0.23856 0.2453,0.49867 0.31807,0.76148 v 0.004 c 0.0755,0.26416 0.11187,0.5418 0.11861,0.83022 v 0.0256 c -0.007,0.29247 -0.0431,0.56741 -0.11861,0.83831 v 0.003 c -0.0728,0.26821 -0.1779,0.51619 -0.31807,0.76283 -0.14825,0.24529 -0.31133,0.4542 -0.50271,0.64962 -0.18734,0.19543 -0.40837,0.3639 -0.65366,0.50945 -0.2426,0.13613 -0.49597,0.23721 -0.76687,0.31673 z m -66.31365,0.21025 h -11.80769 v 7.4167 h 8.60273 0.0108 c 0.29651,0.007 0.57414,0.0512 0.84639,0.1159 0.26012,0.0795 0.51619,0.1806 0.76148,0.32077 0.23856,0.14421 0.45959,0.31133 0.64693,0.50541 0.19138,0.1806 0.36119,0.40163 0.49462,0.64288 0.14826,0.24933 0.25742,0.49867 0.3329,0.76552 0.0687,0.27495 0.11186,0.55663 0.11186,0.84909 v 0.0216 c 0,0.29247 -0.0431,0.57011 -0.11186,0.83022 -0.0755,0.26686 -0.18464,0.52698 -0.3329,0.76957 -0.13343,0.23451 -0.30324,0.45824 -0.49867,0.64962 h 0.004 c -0.18734,0.18464 -0.40837,0.35446 -0.64693,0.49867 -0.24529,0.13747 -0.50136,0.25203 -0.76148,0.32481 -0.27225,0.0755 -0.54988,0.10782 -0.84639,0.10782 l -0.0108,0.008 h -8.60273 v 7.65525 h 12.34275 0.0108 c 0.30325,0.007 0.58897,0.0431 0.85313,0.12265 0.2736,0.0647 0.53102,0.17251 0.78035,0.32076 l 0.007,0.008 c 0.24934,0.14421 0.47037,0.30594 0.65771,0.49732 0.19138,0.19543 0.3612,0.40837 0.50945,0.66175 l 0.007,0.0108 c 0.14151,0.24125 0.24259,0.49058 0.31537,0.77631 0.0714,0.26281 0.11456,0.54854 0.12265,0.85178 v 0.0189 c -0.008,0.30324 -0.0512,0.58762 -0.12265,0.84774 v 0.004 c -0.0728,0.2736 -0.17386,0.53776 -0.31537,0.78305 l -0.007,0.008 c -0.15499,0.2453 -0.31807,0.46498 -0.50945,0.64962 -0.18734,0.18734 -0.40837,0.35716 -0.65771,0.50541 l -0.007,0.007 c -0.24933,0.14421 -0.50675,0.25338 -0.78035,0.32211 -0.26416,0.0687 -0.54988,0.10782 -0.85313,0.11591 l -0.0108,0.003 h -15.89139 l -0.0148,-0.003 c -0.32885,-0.008 -0.64288,-0.0472 -0.9313,-0.13073 -0.30055,-0.0755 -0.58627,-0.20217 -0.85313,-0.35716 l -0.008,-0.004 c -0.26686,-0.15904 -0.50541,-0.33964 -0.71162,-0.54449 -0.20486,-0.20621 -0.3895,-0.44881 -0.54449,-0.70892 l -0.008,-0.007 c -0.15499,-0.26686 -0.27494,-0.55663 -0.35715,-0.85583 -0.0795,-0.2992 -0.12265,-0.60244 -0.12669,-0.9286 v -0.0108 -27.39989 -0.0108 c 0.004,-0.32885 0.0472,-0.63883 0.12669,-0.93534 0.0822,-0.29516 0.20216,-0.58088 0.35715,-0.84774 l 0.008,-0.008 c 0.31403,-0.52697 0.72913,-0.95286 1.25611,-1.26419 l 0.008,-0.007 c 0.27495,-0.15903 0.55932,-0.27359 0.85313,-0.34637 0.28842,-0.0863 0.60245,-0.13074 0.9313,-0.13747 h 0.0148 15.35633 c 0.31133,0.007 0.59706,0.0472 0.85717,0.12264 0.2709,0.0687 0.53372,0.17656 0.78036,0.31807 l 0.0108,0.007 c 0.23855,0.14556 0.46228,0.31133 0.65366,0.50541 0.19812,0.20216 0.36524,0.41646 0.51349,0.66175 v 0.007 c 0.14421,0.24529 0.24934,0.50271 0.32077,0.78035 0.0687,0.26281 0.10917,0.54449 0.11591,0.84774 v 0.0256 c -0.007,0.30325 -0.0472,0.58223 -0.11591,0.841 -0.0714,0.28168 -0.17656,0.54989 -0.32077,0.78844 v 0.007 c -0.14825,0.24125 -0.32211,0.46902 -0.51349,0.6577 -0.19138,0.1833 -0.40837,0.35716 -0.65366,0.50137 l -0.0108,0.004 c -0.24664,0.13613 -0.50676,0.25203 -0.77766,0.32077 v 0.0108 c -0.26281,0.0647 -0.54854,0.097 -0.85987,0.10513 z m -75.87462,-4.28856 c 0.0755,0.2965 0.12264,0.61053 0.12938,0.93534 v 0.004 9.44642 l 10.60549,-11.82925 0.007,-0.008 c 0.17656,-0.19138 0.37198,-0.36389 0.56336,-0.50541 0.20217,-0.14825 0.4232,-0.27359 0.64423,-0.36793 0.21564,-0.0863 0.43667,-0.16308 0.6604,-0.20621 v -0.004 c 0.23451,-0.0458 0.47306,-0.0755 0.70488,-0.0755 h 0.0108 c 0.32211,0.008 0.62132,0.0512 0.903,0.12265 h 0.004 c 0.28168,0.0795 0.55932,0.19542 0.83426,0.35446 v 0.004 c 0.25742,0.15095 0.48789,0.33155 0.68736,0.52967 l 0.003,0.004 c 0.20621,0.20217 0.38276,0.42994 0.5391,0.68601 v 0.008 c 0.155,0.26281 0.26686,0.54045 0.34638,0.82617 0.0755,0.28168 0.11995,0.58493 0.11995,0.90704 l 0.007,0.0108 c 0,0.23721 -0.0216,0.46498 -0.0728,0.69679 -0.0391,0.20891 -0.10378,0.42589 -0.1833,0.61323 -0.0836,0.19138 -0.19138,0.38276 -0.29381,0.55663 -0.10782,0.16981 -0.23451,0.33154 -0.36793,0.47306 v 0.007 l -8.87094,9.6095 10.53676,14.34282 c 0.11187,0.14017 0.20621,0.29246 0.28168,0.44071 v 0.003 c 0.0903,0.16308 0.16308,0.32481 0.21295,0.48789 l 0.008,0.0256 c 0.0606,0.16981 0.10378,0.35311 0.13343,0.52697 0.0256,0.19812 0.0391,0.38276 0.0391,0.55258 v 0.0148 c -0.007,0.31673 -0.0472,0.61997 -0.12669,0.9057 -0.0795,0.29246 -0.19812,0.5701 -0.35042,0.83021 -0.16173,0.26821 -0.33963,0.50945 -0.55258,0.71566 v 0.003 c -0.2062,0.20216 -0.44476,0.39085 -0.71161,0.54584 v 0.007 c -0.26686,0.15903 -0.54854,0.2709 -0.84235,0.35041 -0.28438,0.0795 -0.59167,0.12669 -0.90974,0.13343 h -0.0189 c -0.24125,-0.007 -0.46498,-0.0283 -0.67119,-0.0755 -0.22507,-0.0431 -0.42993,-0.097 -0.60784,-0.17656 l -0.0216,-0.008 c -0.17251,-0.0647 -0.33963,-0.16577 -0.50136,-0.26281 v 0.007 c -0.15634,-0.097 -0.31134,-0.21699 -0.45285,-0.33963 l -0.0108,-0.0108 c -0.11187,-0.10108 -0.21969,-0.2089 -0.31807,-0.31672 -0.10109,-0.10512 -0.19812,-0.21699 -0.28168,-0.33963 l -9.65398,-13.34279 -2.03107,2.14159 v 9.16743 0.008 c -0.007,0.33155 -0.0539,0.64557 -0.12938,0.94208 -0.0836,0.29651 -0.21025,0.57415 -0.36255,0.841 h -0.007 c -0.1523,0.2709 -0.32885,0.50945 -0.54584,0.71566 -0.20621,0.2089 -0.44072,0.39624 -0.70757,0.55258 l -0.008,0.007 c -0.26281,0.15499 -0.55258,0.2709 -0.85178,0.35446 -0.29246,0.0822 -0.60784,0.12938 -0.93265,0.13612 h -0.0148 c -0.32481,-0.007 -0.63614,-0.0499 -0.93939,-0.13612 -0.29651,-0.0836 -0.58493,-0.19947 -0.84504,-0.35446 l -0.007,-0.007 c -0.26821,-0.15634 -0.50271,-0.34368 -0.71566,-0.55258 -0.20216,-0.20621 -0.38681,-0.44476 -0.5418,-0.71566 -0.16308,-0.26281 -0.28303,-0.54449 -0.36524,-0.841 -0.0795,-0.29651 -0.12669,-0.60649 -0.13073,-0.93938 v -0.0108 -28.18697 -0.004 c 0.004,-0.32481 0.0512,-0.63884 0.13073,-0.93534 0.0822,-0.29921 0.19812,-0.58089 0.36524,-0.85583 v -0.0108 c 0.15499,-0.25203 0.33964,-0.48654 0.5418,-0.69949 v -0.004 c 0.21295,-0.21025 0.44745,-0.39085 0.71566,-0.54854 l 0.0135,-0.0108 c 0.2682,-0.1523 0.54988,-0.2709 0.84639,-0.35446 0.28437,-0.0728 0.59975,-0.1186 0.9313,-0.12669 h 0.0216 c 0.32211,0.008 0.64018,0.0539 0.92591,0.12669 0.29246,0.0836 0.57819,0.20216 0.84504,0.35446 l 0.0148,0.0108 c 0.26685,0.15769 0.50136,0.33829 0.70757,0.54854 l 0.0108,0.004 c 0.20621,0.21295 0.38276,0.44746 0.5418,0.69949 v 0.0108 c 0.16308,0.27494 0.27898,0.55662 0.36255,0.85583 z m -57.22977,4.39503 c -0.29651,-0.0647 -0.62536,-0.10513 -0.96904,-0.10513 h -5.80209 v 8.88711 h 5.94765 v 0.004 c 0.32481,-0.004 0.6321,-0.0364 0.92052,-0.097 0.27089,-0.062 0.51753,-0.14151 0.73048,-0.25742 h 0.0108 c 0.21969,-0.1186 0.43398,-0.25203 0.61458,-0.41511 h 0.003 c 0.18465,-0.14825 0.35042,-0.32885 0.50272,-0.53101 v 0.004 c 0.15229,-0.2089 0.28168,-0.42185 0.3895,-0.66444 0.11591,-0.22778 0.21429,-0.47981 0.28572,-0.74397 0.0768,-0.28168 0.13478,-0.55662 0.16982,-0.8383 0.0404,-0.27359 0.058,-0.56606 0.058,-0.87335 0,-0.31807 -0.0175,-0.61727 -0.058,-0.90299 -0.035,-0.28168 -0.0903,-0.55932 -0.16982,-0.83696 v -0.004 c -0.0714,-0.26012 -0.16981,-0.51215 -0.28842,-0.7507 -0.11186,-0.23451 -0.24933,-0.46228 -0.41241,-0.66849 v -0.004 c -0.14421,-0.19138 -0.31403,-0.37468 -0.50541,-0.53371 -0.19138,-0.1523 -0.40837,-0.28842 -0.64288,-0.39759 l -0.008,-0.004 c -0.23046,-0.1186 -0.49058,-0.21294 -0.7763,-0.26685 z m 4.12413,26.96456 -8.74424,-11.76726 h -2.15776 v 9.53268 0.007 c -0.007,0.3329 -0.0472,0.64693 -0.12938,0.94209 -0.0836,0.2965 -0.20621,0.57818 -0.3612,0.84234 -0.15904,0.2709 -0.34368,0.50946 -0.55393,0.71431 -0.20486,0.21025 -0.44072,0.39759 -0.70083,0.55258 l -0.007,0.008 c -0.27494,0.15499 -0.55662,0.26955 -0.85313,0.35311 -0.29651,0.0863 -0.61053,0.13074 -0.93939,0.13747 h -0.0148 c -0.32481,-0.007 -0.6348,-0.0539 -0.9313,-0.13747 -0.30325,-0.0836 -0.58628,-0.19812 -0.85313,-0.35311 l -0.007,-0.008 c -0.26416,-0.15499 -0.50271,-0.34233 -0.70892,-0.55258 -0.2089,-0.20485 -0.39354,-0.44341 -0.54854,-0.71431 -0.15634,-0.2682 -0.28168,-0.54584 -0.36524,-0.84234 -0.0795,-0.29516 -0.12264,-0.60649 -0.12669,-0.93804 l -0.007,-0.0108 v -27.79074 l 0.007,-0.0108 c 0.004,-0.32885 0.0472,-0.63883 0.12669,-0.93534 0.0836,-0.29516 0.20621,-0.58088 0.3612,-0.84774 l 0.004,-0.008 c 0.30999,-0.52697 0.72914,-0.95286 1.25746,-1.26419 l 0.0135,-0.007 c 0.27494,-0.15903 0.55662,-0.27359 0.84639,-0.34637 0.2965,-0.0863 0.59975,-0.13074 0.9313,-0.13747 h 0.008 9.40465 0.004 c 0.87065,0.007 1.69817,0.0862 2.47583,0.22777 0.78304,0.14825 1.52431,0.37198 2.21436,0.6604 0.69005,0.28976 1.32619,0.62536 1.90842,1.02564 0.58089,0.39759 1.1119,0.85582 1.59305,1.36932 0.47306,0.50541 0.88817,1.05799 1.25072,1.64561 0.35715,0.57145 0.65636,1.1995 0.89895,1.85586 0.24934,0.65771 0.43398,1.33967 0.55258,2.0405 0.12265,0.69679 0.19138,1.41649 0.19138,2.15911 0,0.62131 -0.0499,1.23185 -0.14421,1.84238 -0.0903,0.59975 -0.22777,1.19816 -0.41106,1.78039 -0.18195,0.59166 -0.40568,1.15502 -0.67253,1.6793 -0.26821,0.53371 -0.57819,1.03643 -0.93265,1.53375 -0.35042,0.49193 -0.73992,0.93534 -1.16985,1.33293 -0.43128,0.40837 -0.89626,0.76552 -1.40571,1.08629 v -0.003 c -0.5135,0.32886 -1.05934,0.58763 -1.63079,0.79383 -0.2089,0.0728 -0.42184,0.14152 -0.64288,0.19138 l 6.55145,7.96255 0.0175,0.0175 c 0.12264,0.1779 0.23586,0.3585 0.32885,0.53506 h 0.004 c 0.10109,0.18733 0.17386,0.36793 0.23451,0.55932 v 0.008 c 0.0539,0.19138 0.0984,0.36794 0.11995,0.53371 v 0.004 c 0.0283,0.16577 0.0431,0.33963 0.0431,0.50541 v 0.007 c -0.008,0.3329 -0.0512,0.64693 -0.13747,0.94209 -0.0755,0.29246 -0.19542,0.57144 -0.35042,0.83426 -0.31133,0.54584 -0.74126,0.96499 -1.2615,1.27497 l -0.007,0.008 c -0.2709,0.15499 -0.55258,0.26955 -0.85583,0.35311 -0.29651,0.0863 -0.6011,0.13074 -0.93265,0.13747 h -0.008 c -0.26012,0 -0.52024,-0.0297 -0.78305,-0.0943 h -0.004 c -0.24934,-0.058 -0.49463,-0.14825 -0.74127,-0.24933 l -0.003,-0.003 c -0.23856,-0.10512 -0.47307,-0.25338 -0.67658,-0.40163 -0.20486,-0.16173 -0.39354,-0.35042 -0.55662,-0.55258 z m -63.86881,-0.97578 -2.81412,-6.70913 h -10.98825 l -2.82894,6.70913 h 0.004 c -0.13478,0.32077 -0.30729,0.61727 -0.5135,0.88413 -0.21294,0.26416 -0.45149,0.50945 -0.71161,0.70757 -0.29246,0.23451 -0.60784,0.40433 -0.95421,0.51619 -0.34638,0.11186 -0.71162,0.18464 -1.10516,0.19138 h -0.0256 c -0.31538,-0.007 -0.62132,-0.0539 -0.90704,-0.13343 -0.29651,-0.0795 -0.57819,-0.19138 -0.83561,-0.35041 l -0.0108,-0.007 c -0.26281,-0.15499 -0.50541,-0.34368 -0.70757,-0.54584 v -0.003 c -0.21025,-0.20621 -0.39355,-0.44745 -0.55258,-0.71566 -0.1523,-0.26011 -0.27495,-0.53775 -0.35042,-0.83021 -0.0836,-0.28573 -0.12669,-0.58897 -0.12669,-0.9057 l -0.007,-0.0148 c 0,-0.0984 0.007,-0.19138 0.0108,-0.29651 l 0.007,-0.0216 0.0283,-0.25608 0.008,-0.0431 c 0.0175,-0.11187 0.0499,-0.22778 0.0795,-0.34368 v -0.004 c 0.0364,-0.1186 0.0755,-0.2345 0.1186,-0.34637 h 0.008 l 11.60957,-28.27323 c 0.0606,-0.14825 0.14691,-0.31133 0.23855,-0.46228 v -0.004 c 0.093,-0.14825 0.19812,-0.2992 0.32751,-0.45824 0.13747,-0.18464 0.30055,-0.35041 0.4771,-0.49462 0.17791,-0.14152 0.36929,-0.2709 0.58628,-0.39355 0.23855,-0.13073 0.49462,-0.22777 0.76148,-0.29246 0.25742,-0.0553 0.54315,-0.0903 0.84909,-0.0984 h 0.0256 c 0.30729,0.008 0.59302,0.0431 0.84909,0.0984 0.27494,0.0647 0.52832,0.16173 0.76283,0.29246 h 0.004 c 0.21295,0.12265 0.40433,0.25203 0.58089,0.39355 0.1779,0.14421 0.33694,0.30998 0.47306,0.49462 0.13477,0.15904 0.24664,0.30999 0.33289,0.45824 v 0.004 c 0.0943,0.15095 0.17387,0.31403 0.23856,0.46228 l 11.61361,28.27323 c 0.0472,0.11187 0.0863,0.22777 0.12265,0.34637 v 0.004 c 0.0323,0.1159 0.058,0.23181 0.0795,0.34368 l 0.003,0.0431 0.0364,0.25608 v 0.0216 c 0.008,0.10513 0.0148,0.19812 0.0148,0.29651 v 0.0148 c -0.007,0.31673 -0.0539,0.61997 -0.13343,0.9057 -0.0795,0.29246 -0.19947,0.5701 -0.34772,0.83021 -0.155,0.26821 -0.34638,0.50945 -0.55528,0.71566 v 0.003 c -0.20621,0.20216 -0.44206,0.39085 -0.70892,0.54584 l -0.007,0.007 c -0.26011,0.15903 -0.5418,0.2709 -0.8383,0.35041 -0.28977,0.0795 -0.58628,0.12669 -0.91108,0.13343 h -0.0216 c -0.3868,-0.007 -0.75879,-0.0795 -1.09842,-0.19138 -0.34637,-0.11186 -0.66444,-0.28168 -0.95421,-0.51619 -0.2709,-0.19812 -0.50945,-0.44341 -0.7224,-0.70757 -0.20216,-0.26686 -0.37602,-0.56336 -0.51349,-0.88413 z m -12.33062,-12.02198 h 8.03127 l -4.01361,-10.28338 z m -65.73007,8.59868 c -0.28438,0.0714 -0.58088,0.11456 -0.88817,0.11456 -0.31133,0 -0.61054,-0.0431 -0.9003,-0.1186 -0.28438,-0.0755 -0.55663,-0.18465 -0.81674,-0.32481 h -0.003 c -0.27494,-0.14826 -0.51754,-0.32886 -0.73722,-0.55663 -0.21295,-0.20216 -0.40163,-0.45419 -0.56067,-0.73587 l -0.007,-0.004 -6.418011,-11.40337 v 15.24582 l -0.0027,0.0108 c -0.004,0.31807 -0.04717,0.61727 -0.126689,0.90569 -0.08356,0.29651 -0.202163,0.57819 -0.357155,0.83426 -0.152297,0.26821 -0.339635,0.50945 -0.549885,0.71566 l -0.004,0.003 c -0.204859,0.21025 -0.447455,0.39354 -0.707572,0.55258 h -0.004 c -0.260117,0.15903 -0.541798,0.2709 -0.834261,0.35041 -0.289768,0.0795 -0.595708,0.12669 -0.913779,0.13343 h -0.01483 c -0.318071,-0.007 -0.621316,-0.0539 -0.911083,-0.13343 -0.292463,-0.0795 -0.570101,-0.19138 -0.834261,-0.35041 l -0.0067,-0.007 c -0.268204,-0.15499 -0.502713,-0.34368 -0.70892,-0.54584 v -0.003 c -0.208902,-0.20621 -0.397588,-0.44745 -0.55258,-0.71566 -0.152296,-0.26011 -0.270899,-0.53775 -0.35446,-0.83021 -0.07547,-0.28573 -0.122646,-0.58897 -0.126689,-0.9057 v -0.0148 -28.28536 -0.0108 c 0.004,-0.31807 0.05121,-0.62401 0.126689,-0.90974 0.08356,-0.28842 0.202164,-0.5701 0.35446,-0.8383 l 0.004,-0.003 c 0.159036,-0.26416 0.339635,-0.49867 0.548537,-0.70892 0.206207,-0.20216 0.440716,-0.38276 0.70892,-0.54045 0.270899,-0.16308 0.548537,-0.28572 0.838304,-0.36928 0.28842,-0.0714 0.58897,-0.11456 0.913779,-0.12265 h 0.01483 c 0.371981,0.008 0.714311,0.062 1.021599,0.1523 h 0.004 c 0.328852,0.0903 0.632097,0.23451 0.900301,0.42993 l 0.01078,0.003 c 0.249335,0.1779 0.473062,0.3868 0.668487,0.61053 0.194077,0.22777 0.363894,0.47306 0.509452,0.73992 l 9.827837,17.5963 9.82379,-17.5963 c 0.14556,-0.26686 0.31538,-0.51215 0.5135,-0.73992 0.19138,-0.21968 0.41511,-0.42993 0.66175,-0.60649 l 0.0108,-0.007 c 0.2709,-0.19138 0.5701,-0.33963 0.90299,-0.42993 0.31134,-0.0903 0.65367,-0.14421 1.02295,-0.1523 h 0.0175 c 0.31807,0.008 0.62536,0.0539 0.91109,0.12669 0.2992,0.0836 0.58492,0.20621 0.84504,0.36524 0.26416,0.15769 0.50271,0.33829 0.70487,0.54045 0.20217,0.20621 0.38681,0.43802 0.5418,0.70892 0.16308,0.26282 0.28168,0.5418 0.36524,0.841 0.0795,0.28573 0.11861,0.59167 0.12265,0.90974 v 0.0108 28.28536 0.0148 c -0.004,0.32077 -0.0431,0.61997 -0.12265,0.90974 -0.0836,0.29516 -0.20216,0.57684 -0.36119,0.83696 -0.15634,0.25742 -0.33964,0.49866 -0.54585,0.70487 v 0.003 c -0.2062,0.20216 -0.44071,0.39085 -0.70891,0.54584 l -0.007,0.007 c -0.26012,0.15903 -0.5418,0.2709 -0.83426,0.35041 -0.28977,0.0795 -0.59302,0.12669 -0.91109,0.13343 h -0.0175 c -0.31403,-0.007 -0.62131,-0.0539 -0.91108,-0.13343 -0.29651,-0.0795 -0.57415,-0.19138 -0.83426,-0.35041 l -0.008,-0.007 c -0.26686,-0.15499 -0.50541,-0.34368 -0.71161,-0.54584 v -0.003 c -0.20891,-0.20621 -0.38951,-0.44745 -0.54854,-0.71566 -0.1523,-0.25607 -0.27494,-0.53775 -0.35446,-0.83426 -0.0795,-0.28842 -0.12265,-0.58762 -0.12669,-0.90569 l -0.003,-0.0108 v -15.24582 l -6.41801,11.40337 -0.007,0.004 c -0.16308,0.28438 -0.35042,0.5418 -0.56067,0.74396 -0.21294,0.21564 -0.45554,0.39624 -0.73318,0.54854 -0.26011,0.14421 -0.53775,0.25203 -0.82752,0.32885 z" />
</svg>
