<svg id="POLSKIZWIAZEKGOLFA" width="500" height="58.977001" viewBox="0 0 500 58.977001" version="1.1" xml:space="preserve" xmlns:xlink="http://www.w3.org/1999/xlink" xmlns="http://www.w3.org/2000/svg" xmlns:svg="http://www.w3.org/2000/svg">
	<path id="POLSKIZWIAZEKGOLFA" style="fill:#000000;stroke:#000000;stroke-width:0" d="M 462.04639,1.5234461 H 500 V 12.437051 h -25.1146 v 13.239771 h 21.10259 V 35.785955 H 474.8854 v 21.905587 h -12.83901 z m -47.02608,0 h 12.83902 V 46.779416 h 27.04148 v 10.912126 h -39.8805 z m -20.5424,28.0053979 c 0,-10.592704 -7.46207,-17.973436 -16.85103,-17.973436 -9.22776,0 -16.85102,7.380732 -16.85102,17.973436 0,10.591225 7.62326,17.89358 16.85102,17.89358 9.38896,0 16.85103,-7.302355 16.85103,-17.89358 m -46.70077,0 C 347.77714,12.436778 361.1781,0 377.70822,0 c 16.52864,0 29.84827,12.436778 29.84827,29.528844 0,17.170443 -13.31963,29.447509 -29.84827,29.447509 -16.53012,0 -29.93108,-12.277066 -29.93108,-29.447509 m -61.2267,-0.08104 c 0,-17.010732 13.07858,-29.44750923834 30.2505,-29.44750923834 7.5434,0 14.76442,2.48735553834 20.22123,7.70311233834 l -6.49937,9.1464289 c -4.09334,-3.288869 -8.98671,-5.295612 -13.9629,-5.295612 -9.94943,0 -17.01074,7.782968 -17.01074,17.974914 0,10.591225 7.38222,18.372715 17.01074,18.372715 4.41424,0 8.5061,-1.523173 12.27706,-4.412764 v -8.263581 h -14.36218 v -8.988197 h 25.99745 v 20.942883 c -6.09861,7.703112 -14.60471,11.796454 -24.15338,11.796454 -16.52864,0 -29.76841,-12.277067 -29.76841,-29.528844 M 249.47848,1.5217736 h 7.06131 V 57.689868 h -7.06131 z m -50.87426,0.00163 h 7.06131 V 27.761896 L 230.94132,1.5234003 h 9.30762 l -26.5594,27.2026787 27.76315,28.965417 h -9.62852 L 205.66553,29.768638 v 27.922904 h -7.06131 z m -49.43096,46.2982774 4.89486,-3.772439 c 3.60977,5.458281 8.66581,8.74715 15.96817,8.74715 8.10387,0 13.07858,-3.772439 13.07858,-9.387474 0,-6.339652 -6.41951,-9.068053 -13.23977,-11.87631 -7.86282,-3.370204 -16.52864,-6.901598 -16.52864,-16.849541 0,-8.5874396 6.57922,-14.28380913 16.93087,-14.28380913 7.22103,0 13.47934,2.72692243 16.9294,8.02401373 l -5.05456,3.5299154 C 179.42376,7.9411768 175.011,6.3366698 170.35719,6.3366698 c -6.66055,0 -10.03076,3.2903484 -10.03076,7.7031122 0,5.777704 5.9389,8.346394 12.75768,11.153172 8.10535,3.45006 17.09207,7.141165 17.09207,17.492823 0,9.950901 -8.34492,16.048028 -19.98018,16.048028 -9.54866,0 -16.60997,-4.012007 -21.02274,-10.912127 M 109.05205,1.5234461 h 7.06131 V 51.433225 h 29.44751 v 6.258317 H 109.05205 Z M 92.679532,29.607221 c 0,-13.479338 -9.468809,-22.9496261 -21.183928,-22.9496261 -11.635264,0 -21.18245,9.4702881 -21.18245,22.9496261 0,13.480816 9.547186,22.949625 21.18245,22.949625 11.715119,0 21.183928,-9.468809 21.183928,-22.949625 m -49.427688,0 c 0,-17.010732 12.676345,-29.28779841 28.24376,-29.28779841 15.64727,0 28.325093,12.27706641 28.325093,29.28779841 0,17.010731 -12.677823,29.287797 -28.325093,29.287797 -15.567415,0 -28.24376,-12.277066 -28.24376,-29.287797 m -27.444862,1.926598 c 8.747151,0 13.881573,-4.735144 13.881573,-11.956165 0,-7.300876 -5.215757,-12.1158758 -13.881573,-12.1158758 H 7.0613095 V 31.533819 Z M 0,1.5228842 h 15.968172 c 13.158436,0 20.781693,8.1053481 20.781693,17.9734358 0,9.950901 -7.623257,17.974915 -20.781693,17.974915 H 7.0613095 V 57.69098 H 0 Z" />
</svg>
