<svg
   width="100.53275"
   height="100.00039"
   viewBox="0 0 100.53274 100.00039"
   version="1.1"
   xml:space="preserve"
   style="clip-rule:evenodd;fill-rule:evenodd;stroke-linejoin:round;stroke-miterlimit:2"
   id="svg15"
   xmlns="http://www.w3.org/2000/svg"
   xmlns:svg="http://www.w3.org/2000/svg"><defs
   id="defs15" /> <g
   transform="translate(-1938,-22.000012)"
   id="g15"
   style="fill:#000000"> <g
   transform="matrix(1,0,0,1.80367,1858,0)"
   id="g14"
   style="fill:#000000"> <g
   id="Logo"
   transform="matrix(0.0713609,0,0,0.0395644,66.7701,4.97321)"
   style="fill:#000000"> <g
   transform="matrix(4.16667,0,0,4.16667,229.932,1495.74)"
   id="g1"
   style="fill:#000000"> <path
   d="m 0,2.606 c 5.915,0 9.387,-3.202 9.387,-8.085 0,-4.937 -3.527,-8.193 -9.387,-8.193 H -5.914 V 2.606 Z M -10.689,-17.688 H 0.109 c 8.898,0 14.053,5.481 14.053,12.154 0,6.729 -5.155,12.155 -14.053,12.155 h -6.023 v 13.673 h -4.775 z"
   style="fill:#000000;fill-rule:nonzero"
   id="path1" /> </g> <g
   transform="matrix(4.16667,0,0,4.16667,446.527,1501.17)"
   id="g2"
   style="fill:#000000"> <path
   d="m 0,0 c 0,-9.115 -6.403,-15.519 -14.325,-15.519 -7.868,0 -14.324,6.404 -14.324,15.519 0,9.116 6.456,15.519 14.324,15.519 C -6.403,15.519 0,9.116 0,0 m -33.424,0 c 0,-11.503 8.572,-19.805 19.099,-19.805 10.581,0 19.154,8.302 19.154,19.805 0,11.503 -8.573,19.805 -19.154,19.805 -10.527,0 -19.099,-8.302 -19.099,-19.805"
   style="fill:#000000;fill-rule:nonzero"
   id="path2" /> </g> <g
   transform="matrix(4.16667,0,0,4.16667,492.658,1580.3)"
   id="g3"
   style="fill:#000000"> <path
   d="m 0,-37.982 h 4.775 v 33.75 H 24.688 V 0 H 0 Z"
   style="fill:#000000;fill-rule:nonzero"
   id="path3" /> </g> <g
   transform="matrix(4.16667,0,0,4.16667,605.703,1449.62)"
   id="g4"
   style="fill:#000000"> <path
   d="m 0,24.689 3.31,-2.551 c 2.441,3.691 5.86,5.915 10.798,5.915 5.48,0 8.844,-2.551 8.844,-6.348 0,-4.287 -4.341,-6.132 -8.953,-8.031 C 8.682,11.395 2.822,9.007 2.822,2.28 c 0,-5.807 4.449,-9.659 11.449,-9.659 4.883,0 9.115,1.844 11.448,5.426 l -3.418,2.387 c -1.845,-2.713 -4.829,-3.798 -7.976,-3.798 -4.504,0 -6.783,2.225 -6.783,5.209 0,3.907 4.016,5.644 8.627,7.542 5.481,2.333 11.558,4.829 11.558,11.829 0,6.729 -5.643,10.852 -13.511,10.852 C 7.759,32.068 2.984,29.355 0,24.689"
   style="fill:#000000;fill-rule:nonzero"
   id="path4" /> </g> <g
   transform="matrix(4.16667,0,0,4.16667,744.979,1580.3)"
   id="g5"
   style="fill:#000000"> <path
   d="m 0,-37.982 h 4.775 v 17.743 l 17.092,-17.743 h 6.294 L 10.201,-19.587 28.975,0 H 22.464 L 4.775,-18.882 V 0 H 0 Z"
   style="fill:#000000;fill-rule:nonzero"
   id="path5" /> </g> <g
   transform="matrix(4.16667,0,0,4.16667,0,1230.67)"
   id="g6"
   style="fill:#000000"> <rect
   x="213.19701"
   y="45.928001"
   width="4.7750001"
   height="37.981998"
   style="fill:#000000"
   id="rect5" /> </g> <g
   transform="matrix(4.16667,0,0,4.16667,992.775,1500.95)"
   id="g7"
   style="fill:#000000"> <path
   d="m 0,-0.055 c 0,-11.503 8.844,-19.913 20.456,-19.913 5.101,0 9.984,1.682 13.674,5.209 l -4.395,6.185 c -2.768,-2.224 -6.077,-3.581 -9.442,-3.581 -6.728,0 -11.503,5.263 -11.503,12.155 0,7.162 4.992,12.424 11.503,12.424 2.985,0 5.752,-1.03 8.302,-2.984 V 3.852 h -9.712 v -6.078 h 17.58 V 11.936 C 32.339,17.145 26.587,19.913 20.13,19.913 8.953,19.913 0,11.611 0,-0.055"
   style="fill:#000000;fill-rule:nonzero"
   id="path6" /> </g> <g
   transform="matrix(4.16667,0,0,4.16667,1296.87,1500.72)"
   id="g8"
   style="fill:#000000"> <path
   d="m 0,0.055 c 0,-7.163 -5.046,-12.154 -11.395,-12.154 -6.24,0 -11.395,4.991 -11.395,12.154 0,7.162 5.155,12.1 11.395,12.1 C -5.046,12.155 0,7.217 0,0.055 m -31.58,0 c 0,-11.558 9.062,-19.968 20.24,-19.968 11.177,0 20.184,8.41 20.184,19.968 0,11.611 -9.007,19.913 -20.184,19.913 -11.178,0 -20.24,-8.302 -20.24,-19.913"
   style="fill:#000000;fill-rule:nonzero"
   id="path7" /> </g> <g
   transform="matrix(4.16667,0,0,4.16667,1354.75,1580.3)"
   id="g9"
   style="fill:#000000"> <path
   d="M 0,-37.982 H 8.682 V -7.379 H 26.968 V 0 H 0 Z"
   style="fill:#000000;fill-rule:nonzero"
   id="path8" /> </g> <g
   transform="matrix(4.16667,0,0,4.16667,1487.25,1580.3)"
   id="g10"
   style="fill:#000000"> <path
   d="m 0,-37.982 h 25.665 v 7.38 H 8.682 v 8.953 h 14.27 v 6.836 H 8.682 V 0 H 0 Z"
   style="fill:#000000;fill-rule:nonzero"
   id="path9" /> </g> <g
   transform="matrix(4.16667,0,0,4.16667,760.15,514.371)"
   id="g11"
   style="fill:#000000"> <path
   d="m 0,12.453 c -2.026,0.6 -3.455,0.221 -4.408,-0.387 -0.048,-0.041 -0.109,-0.047 -0.146,-0.07 C -4.957,11.709 -5.286,11.359 -5.579,10.947 -5.787,10.678 -5.921,10.426 -5.97,10.291 -6.177,9.871 -6.36,9.432 -6.482,9 -6.69,8.211 -6.812,7.363 -6.788,6.564 c 0,-3.244 1.66,-5.861 3.7,-5.838 0,0 2.734,-0.287 3.747,3.733 h 0.037 c 0,0 0.22,1.187 0.793,1.254 l 4.322,0.545 v 0.023 c 0.013,0 0.073,0 0.085,-0.023 C 6.604,5.99 4.065,11.258 0,12.453 M 12.538,3.865 c -1.038,-8.57 -7.63,-15.224 -15.663,-15.254 -8.754,-0.025 -15.908,7.862 -15.92,17.574 -0.061,9.719 7.056,17.653 15.797,17.682 0.415,0 0.793,-0.016 1.197,-0.049 0,0 0.121,0 0.293,-0.029 0.073,-0.02 0.122,-0.02 0.171,-0.031 h 0.024 c 1.758,-0.26 7.582,-1.696 9.706,-9.045 0.22,-0.729 0.366,-1.516 0.403,-2.278 0.024,-0.25 0.024,-0.494 0.024,-0.726 v -0.012 c 0,0 0.159,-3.066 -0.598,-5.244 1.245,-0.143 2.539,-0.549 3.834,-1.338 0.61,-0.316 0.732,-0.867 0.732,-1.25"
   style="fill:#000000;fill-rule:nonzero"
   id="path10" /> </g> <g
   transform="matrix(4.16667,0,0,4.16667,999.282,1290.06)"
   id="g12"
   style="fill:#000000"> <path
   d="m 0,-130.878 c -0.036,-0.031 -0.34,-0.85 -0.964,-1.502 -1.649,-1.434 -3.821,-1.373 -5.202,-1.123 -0.402,0.062 -0.792,0.158 -1.184,0.305 -0.072,0.019 -0.134,0.045 -0.134,0.045 -0.122,0.037 -0.244,0.08 -0.353,0.127 -3.322,1.269 -4.37,2.867 -4.64,4.054 -0.184,0.713 0,1.463 0.11,1.842 0.012,0.08 0.036,0.123 0.061,0.215 v 0.017 c 1.295,4.016 7.655,24.735 8.009,46.159 0.11,3.306 0.11,6.605 0,9.814 v 0.111 c -0.062,6.36 -0.526,12.782 -1.379,19.081 -0.769,5.859 -1.77,11.695 -3.042,17.507 -1.096,4.981 -2.355,9.95 -3.759,14.844 -1.098,3.713 -2.185,7.449 -3.491,11.098 -0.842,2.357 -1.722,4.654 -2.368,7.07 -0.208,0.732 -0.99,4.15 0.622,3.762 3.187,-0.563 7.532,-7.78 7.532,-7.78 v -0.011 c 0.11,-0.196 0.244,-0.391 0.368,-0.588 C -9.718,-5.974 1.454,-25.485 6.35,-48.948 7.838,-57.983 9.12,-69.776 8.56,-81.79 8.119,-104.794 1.27,-126.866 0,-130.878"
   style="fill:#000000;fill-rule:nonzero"
   id="path11" /> </g> <g
   transform="matrix(4.16667,0,0,4.16667,1075.64,855.215)"
   id="g13"
   style="fill:#000000"> <path
   d="m 0,-52.16 c -0.622,2.814 -1.722,6.568 -2.43,8.18 -0.939,-0.684 -2.124,-1.684 -3.32,-2.746 -2.197,-1.924 -4.627,-4.243 -7.422,-6.612 6.433,-6.267 11.756,-13.269 14.551,-17.189 0.855,0.681 0.696,0.371 0.88,2.375 0.024,2.092 0.11,4.679 -2.259,15.992 m -85.582,-99.693 c -2.014,-0.422 -2.393,-1.623 -0.183,-2.92 1.966,-1.182 5.006,-2.321 5.75,-2.479 l 2.735,3.035 c 0,0 -6.287,2.784 -8.302,2.364 m 96.313,83.322 c -1.256,-1.361 -2.636,-2.766 -4.053,-4.236 -0.696,-0.758 -1.404,-1.5 -2.099,-2.241 -6.716,-7.082 -13.454,-14.193 -20.182,-21.259 -3.918,-4.164 -7.861,-8.293 -11.78,-12.442 -1.001,-0.971 -1.856,-1.808 -2.576,-2.594 -2.991,-3.199 -5.984,-6.386 -8.999,-9.535 -0.646,-0.709 -1.318,-1.404 -1.929,-2.101 -0.023,-0.043 -0.061,-0.067 -0.097,-0.09 -0.366,-0.373 -0.696,-0.738 -1.05,-1.111 -0.805,-0.866 -1.647,-1.733 -2.478,-2.618 -1.112,-1.173 -2.246,-2.363 -3.382,-3.554 -1.392,-1.479 -2.795,-2.948 -4.188,-4.432 -1.525,-1.574 -3.015,-3.168 -4.528,-4.762 -1.6,-1.691 -3.211,-3.367 -4.811,-5.06 -1.489,-1.586 -2.991,-3.162 -4.493,-4.737 -1.416,-1.527 -2.857,-3.035 -4.296,-4.541 -1.063,-1.117 -2.137,-2.24 -3.212,-3.375 -0.561,-0.587 -1.11,-1.191 -1.684,-1.779 -0.318,-0.353 -0.66,-0.699 -0.99,-1.053 -0.305,-0.343 -1.208,-1.271 -1.647,-1.326 -0.879,-0.158 -1.306,0.072 -2.076,0.287 -1.038,0.27 -2.136,0.641 -3.113,1.039 -2.161,0.895 -4.334,2.215 -6.409,4.053 -0.892,0.592 -3.016,3.455 -1.222,6.043 1.368,1.99 4.103,2.25 5.58,1.99 3.504,-0.545 5.737,-2.105 8.424,-3.033 l 1.392,-0.57 c 0.024,0 3.137,3.197 3.137,3.197 16.287,17.375 34.099,36.506 40.006,42.824 l 18.168,18.319 c 0.45,0.535 3.516,3.601 6.493,6.66 -0.902,1.367 -7.458,11.096 -15.869,19.076 -0.208,0.187 -0.404,0.379 -0.575,0.561 -4.078,-2.307 -8.692,-4.168 -13.954,-5.129 -14.259,-1.733 -26.651,1.746 -38.444,10.99 l -0.013,0.01 c 0,0 -1.733,1.056 -3.528,2.943 -0.073,0.062 -0.147,0.129 -0.22,0.195 -0.488,0.459 -0.903,0.996 -1.257,1.6 -3.053,4.176 -4.969,10.889 3.26,19.176 0.012,0.004 0.037,0.015 0.048,0.039 1.417,1.693 2.857,3.121 4.262,4.537 4.871,4.803 9.473,8.869 13.343,13.234 7.912,8.539 12.111,17.842 12.636,26.315 0.123,4.736 -0.367,9.091 -1.111,12.92 v 0.007 c -0.354,2.623 -0.842,5.079 -1.428,7.459 -0.343,1.086 -0.574,1.989 -0.782,2.772 -0.708,2.416 -1.563,4.748 -2.503,7.019 -1.44,3.028 -3.906,7.643 -8.545,15.895 -1.673,2.639 -3.418,5.336 -5.25,8.119 -9.73,13.295 -22.707,23.453 -27.555,27.031 -0.805,0.535 -1.269,0.828 -1.269,0.828 -0.257,0.182 -0.464,0.368 -0.684,0.549 l -0.024,0.026 0.024,-0.026 c -16.933,13.797 -4.639,9.184 14.015,-2.123 0,0 0.037,0 0.061,-0.049 0.831,-0.525 6.031,-4.052 9.389,-6.812 4.346,-3.65 9.84,-8.742 14.796,-14.578 3.333,-3.699 6.337,-7.738 8.827,-11.572 4.359,-6.936 7.362,-13.416 8.803,-16.799 0.72,-2.321 7.301,-13.918 5.751,-34.471 -1.234,-11.309 -7.986,-23.348 -16.984,-32.645 -5.31,-5.425 -13.636,-12.939 -16.958,-17.353 -1.268,-2.098 -0.121,-3.633 0.783,-4.408 7.654,-5.713 20.326,-10.475 29.02,-8.026 1,0.184 1.928,0.446 2.867,0.744 h 0.014 c 0,0 0.072,0.004 0.158,0.032 0.44,0.101 1.502,0.383 1.808,0.752 0.402,0.461 -14.005,10.564 -18.594,13.97 -0.086,0.073 -0.184,0.159 -0.282,0.227 -3.43,2.459 -4.676,4.168 -4.444,5.248 0,0 0.013,0.049 0.062,0.111 0.378,0.477 2.661,2.723 12.367,-0.269 0.195,-0.053 0.354,-0.129 0.561,-0.196 11.343,-3.96 21.561,-12.373 21.561,-12.373 l 0.976,0.862 c 2.832,2.338 5.567,4.859 8.302,7.338 1.502,1.269 2.905,2.599 4.908,3.863 2.49,1.459 11.379,5.324 16.555,-2.594 0.011,-0.025 0.036,-0.025 0.036,-0.049 0.208,-0.343 5.738,-9.64 6.176,-25.259 -0.243,-2.674 -1.011,-5.684 -3.002,-7.68"
   style="fill:#000000;fill-rule:nonzero"
   id="path12" /> </g> </g> </g> </g> </svg>
