<svg
   version="1.1"
   id="Layer_1"
   x="0px"
   y="0px"
   width="860.74908"
   viewBox="0 0 860.74908 282.26559"
   enable-background="new 0 0 992 400"
   xml:space="preserve"
   height="282.26559"
   xmlns="http://www.w3.org/2000/svg"
   xmlns:svg="http://www.w3.org/2000/svg"><defs
   id="defs24" />
<path
   fill="#fbb613"
   opacity="1"
   stroke="none"
   d="m 162.6193,270.7558 c -17.4107,1.211 -34.4126,1.85294 -51.2818,3.70447 -13.1953,1.44834 -26.1976,4.58182 -39.3427,6.59397 -5.8654,0.89782 -11.8973,1.42083 -17.8054,1.13131 -6.2371,-0.30563 -7.7386,-2.80691 -6.7471,-8.93832 4.6926,-29.01749 6.8918,-58.20044 5.7637,-87.59512 -1.1678,-30.42873 -7.0726,-60.11327 -14.1736,-89.611352 -0.7064,-2.93426 -2.5981,-3.17854 -5.0691,-3.63824 -9.6216,-1.79001 -19.2325,-3.69742 -28.7338,-6.02451 -1.9904,-0.4875 -3.4989,-2.94226 -5.2295,-4.49048 1.721,-1.79029 3.3173,-4.94658 5.1862,-5.11714 5.8235,-0.53161 11.7798,-0.23469 17.6261,0.33798 3.6638,0.35892 7.2224,1.79174 11.8269,3.00608 -1.0335,-4.08322 -1.6266,-6.96625 -2.5065,-9.75885 -0.9803,-3.11091 -0.1445,-5.24903 2.9206,-6.3468 6.6544,-2.38325 13.3447,-2.5283 20.024,-0.0719 4.3067,1.58389 4.8148,5.61823 5.8563,9.26288 2.197,7.68857 2.1758,7.72711 9.9707,6.86076 8.7621,-0.97381 17.514,-2.03993 26.2768,-3.00758 3.1712,-0.35019 4.4672,-1.65047 5.2919,-5.13641 3.4778,-14.69915 6.8467,-29.503613 11.7152,-43.771466 4.7553,-13.936325 14.4036,-23.7391701 29.5392,-27.1041031 17.1051,-3.802799 33.2501,2.923759 41.5736,18.3703611 3.6034,6.687233 5.9064,14.079003 8.74,21.174729 0.7271,1.820831 1.2262,3.732712 2.0084,6.154819 9.017,-3.082256 17.648,-5.95409 26.2229,-8.98489 9.2581,-3.272339 18.3069,-7.269081 27.7487,-9.842888 6.086,-1.659011 12.7159,-1.740173 19.1007,-1.728752 3.8436,0.0069 5.8972,2.779869 6.3227,6.998413 2.3889,23.681737 4.1954,47.461877 7.7264,70.979349 5.1622,34.38211 11.5297,68.58553 17.5733,102.83162 1.763,9.99039 3.994,19.90949 6.3644,29.77625 1.093,4.54925 -0.3902,7.12805 -4.61,8.28817 -28.5367,7.8454 -56.512,18.09162 -86.1642,21.25986 -17.7039,1.89166 -35.4964,2.95459 -53.715,4.43777 m 55.5412,-17.72473 c 20.0987,-5.17822 40.1974,-10.35647 60.9463,-15.70221 -13.9804,-64.06532 -25.2557,-127.60774 -30.7051,-191.890642 -1.4263,0 -1.7844,-0.08509 -2.0832,0.0121 -39.7114,12.91316 -79.4265,25.81495 -119.0882,38.87914 -1.2507,0.41202 -2.6112,2.42614 -2.7769,3.82853 -0.4674,3.95439 -0.488,7.98254 -0.402,11.975542 0.088,4.08522 -2.0789,6.56094 -5.6976,6.98417 -4.3835,0.51268 -8.928,0.47095 -13.3092,-0.0781 -3.4781,-0.43589 -5.346,-2.89949 -5.0351,-6.81079 0.271,-3.410272 0.056,-6.859122 0.056,-10.312202 -11.438,1.05724 -22.3314,2.06413 -34.1384,3.15549 16.3189,56.722652 19.4156,114.097752 10.5549,172.556182 2.8184,-0.19949 4.4518,-0.27917 6.0778,-0.43567 19.874,-1.91232 39.7353,-3.96689 59.623,-5.72363 25.0315,-2.21112 50.0843,-4.18115 75.9772,-6.43787 M 163.3732,23.770649 c -2.4316,-3.356614 -4.8291,-6.738678 -7.3047,-10.062546 -2.3838,-3.200524 -4.9671,-2.981659 -7.3794,-0.0868 -2.5449,3.053902 -5.6828,5.909645 -7.2371,9.435806 -4.138,9.388146 -7.8491,18.992997 -11.1604,28.705839 -1.839,5.39422 -2.5382,11.17701 -4.008,17.97243 16.7819,-5.49882 32.2743,-10.5751 48.5811,-15.91822 -3.8578,-10.217843 -7.4815,-19.815995 -11.4915,-30.046509 z"
   id="path2"
   style="fill:#000000" />
<path
   fill="#fdfbfb"
   opacity="1"
   stroke="none"
   d="m 735.57986,61.058158 c 10.93676,22.22285 4.67547,42.314542 -17.76368,57.173232 9.16443,13.42574 18.32813,26.85031 28.18775,41.2944 -5.01721,0 -9.1922,0.0484 -13.36572,-0.0108 -7.12446,-0.10102 -15.39777,1.92335 -21.04297,-1.03673 -5.46241,-2.86421 -8.24067,-10.87352 -12.15815,-16.6499 -3.36084,-4.95582 -6.80828,-9.86223 -9.93469,-14.9638 -1.56274,-2.54995 -3.28308,-3.76437 -6.37189,-3.5325 -3.78497,0.28415 -7.60748,0.0677 -11.84478,0.0677 0,11.99169 0,23.72785 0,35.79189 -9.99414,0 -19.56275,0 -29.47766,0 0,-38.83771 0,-77.728872 0,-116.763357 0.30395,-0.162666 0.72906,-0.590515 1.15069,-0.587097 20.63898,0.167671 41.30963,-0.253486 61.90442,0.803169 12.76447,0.654908 23.61188,6.556233 30.71668,18.413753 m -64.46662,18.87793 c 0,5.44407 0,10.88814 0,16.45668 9.38648,0 18.33356,0.39926 27.22638,-0.1236 7.40289,-0.43524 11.95551,-5.62984 12.38367,-12.61528 0.43072,-7.02757 -3.24237,-13.11909 -10.19214,-13.76063 -9.64099,-0.88996 -19.42572,-0.22368 -29.41791,-0.22368 0,2.98471 0,6.13202 0,10.26651 z"
   id="path3"
   style="fill:#000000" />
<path
   fill="#fefcfc"
   opacity="1"
   stroke="none"
   d="m 524.7181,156.92953 c -28.5332,-12.48458 -43.1195,-40.8239 -36.20697,-69.864092 7.0235,-29.5064 33.74023,-48.985226 64.46198,-46.998433 29.78851,1.926461 51.4732,19.927853 57.63208,47.842823 7.46472,33.833102 -15.91846,67.540282 -50.18012,72.654102 -12.15002,1.81349 -23.87189,0.7151 -35.70697,-3.6344 m 55.45892,-64.773212 c -1.74719,-7.17862 -5.34839,-13.21373 -11.15063,-17.84287 -13.77741,-10.99186 -33.66016,-8.66175 -44.47583,5.18271 -11.23657,14.38323 -8.53772,37.013062 5.71759,47.941412 10.3034,7.89871 25.18329,8.65075 36.10608,1.82467 11.54712,-7.21621 17.08917,-21.63044 13.80279,-37.105922 z"
   id="path4"
   style="fill:#000000" />
<path
   fill="#fefcfc"
   opacity="1"
   stroke="none"
   d="m 401.2673,154.32142 c 0,1.93617 0,3.38069 0,5.00952 -9.939,0 -19.3643,0 -29.0809,0 0,-39.07045 0,-77.975012 0,-116.856319 0.2947,-0.22673 0.5558,-0.602905 0.8102,-0.598343 19.7933,0.355049 39.7972,-0.919327 59.3229,1.563606 21.944,2.790434 34.2118,19.545354 33.7272,40.861174 -0.4764,20.949272 -14.0901,36.484182 -35.4465,40.044892 -5.2226,0.87076 -10.5919,0.94823 -15.9029,1.1734 -4.287,0.18175 -8.5877,0.0368 -13.43,0.0368 0,9.71976 0,18.99667 0,28.76523 m 23.8101,-84.711022 c -7.8677,0 -15.7353,0 -23.5599,0 0,9.64667 0,19.2182 0,28.93444 7.0378,0 13.8386,0.33638 20.5915,-0.0884 7.7795,-0.48932 13.0801,-5.59448 13.952,-12.53192 0.9778,-7.77994 -2.3303,-12.98828 -10.9836,-16.31414 z"
   id="path5"
   style="fill:#000000" />
<path
   fill="#fdfbfc"
   opacity="1"
   stroke="none"
   d="m 825.89101,159.10093 c -9.66827,0.32432 -18.96789,0.32432 -28.71527,0.32432 0,-29.92765 0,-59.653412 0,-89.869992 -11.66998,0 -22.90765,0 -34.44549,0 0,-9.38774 0,-18.28549 0,-27.513186 32.67932,0 65.21972,0 98.01886,0 0,8.992596 0,17.763226 0,27.047146 -11.12995,0 -22.36054,0 -34.48951,0 0,30.2322 0,59.959802 -0.36859,90.011712 z"
   id="path6"
   style="fill:#000000" />
<path
   fill="#fdf9f9"
   opacity="1"
   stroke="none"
   d="m 556.74721,208.14142 c 3.01276,-3.49115 5.75006,-6.72842 8.67096,-9.79043 2.20752,-2.31415 5.27399,-4.03301 6.84729,-6.67766 2.61908,-4.40234 5.85773,-6.31012 10.88965,-5.5101 1.71253,0.27226 3.50482,0.0432 5.76386,1.09193 -2.85431,2.41483 -5.70856,4.82967 -9.4701,8.01204 9.96485,2.78876 15.39435,8.17754 17.35517,16.86019 4.08832,18.10293 -9.53131,32.56176 -26.74567,28.34668 -11.58551,-2.83686 -17.92609,-15.30725 -14.56647,-28.68668 0.28211,-1.12341 0.70258,-2.21204 1.25531,-3.64597 m 18.9726,23.20081 c 5.73535,-1.02447 8.11304,-3.6261 9.1579,-10.02048 1.04352,-6.38638 -1.09613,-13.37201 -5.44312,-14.85571 -2.41406,-0.82397 -6.22015,-0.58749 -8.18902,0.83991 -7.40192,5.36605 -4.83478,20.65454 4.47424,24.03628 z"
   id="path7"
   style="fill:#000000" />
<path
   fill="#fdf8f9"
   opacity="1"
   stroke="none"
   d="m 636.25246,233.28333 c 0,-12.26944 0,-24.05392 0,-36.37875 9.71961,-1.14127 19.26905,-2.58345 28.41846,1.58609 8.18427,3.7297 11.50629,10.82504 11.20459,19.45367 -0.32257,9.22321 -3.79132,16.82892 -13.04651,20.48538 -8.46808,3.34552 -17.2298,2.79206 -26.57654,1.7425 0,-2.172 0,-4.28794 0,-6.88889 m 26.19519,-21.18042 c -3.25946,-5.86004 -6.79767,-7.40069 -13.92328,-6.05328 0,8.3631 0,16.72616 0,25.0729 8.875,0.19172 13.66156,-2.99984 14.52906,-9.88024 0.34619,-2.74585 -0.13855,-5.59644 -0.60578,-9.13938 z"
   id="path8"
   style="fill:#000000" />
<path
   fill="#edebeb"
   opacity="1"
   stroke="none"
   d="m 730.18008,227.36091 c -0.5868,0.97619 -0.9936,1.64639 -1.76081,2.91021 6.46759,0 12.34473,0 18.47901,0 0,3.4997 0,6.56885 0,9.93079 -11.4231,0 -22.80909,0 -35.74085,0 1.29852,-3.66159 1.88715,-7.1911 3.65979,-9.96371 4.99878,-7.8191 10.48377,-15.32737 16.29419,-23.70359 -5.96075,0 -11.27985,0 -16.81604,0 0,-3.69958 0,-6.77148 0,-10.51345 7.43005,2.29547 10.94104,-2.12142 14.17462,-7.54516 0.75348,-1.26379 3.17725,-1.90127 4.92114,-2.12013 2.7497,-0.34511 5.57447,-0.0918 9.24091,1.01221 -3.11597,2.29462 -6.23187,4.58922 -9.34784,6.88382 0.43042,0.58681 0.8609,1.17363 1.29132,1.76044 3.88361,0 7.76727,0 13.18622,0 -1.14398,3.92419 -1.42841,7.4103 -3.07104,10.05172 -4.46985,7.18793 -9.5141,14.01862 -14.51062,21.29685 z"
   id="path9"
   style="fill:#000000" />
<path
   fill="#fdf9fa"
   opacity="1"
   stroke="none"
   d="m 487.2474,222.8407 c 7.49493,-6.95898 4.22967,-15.74227 4.84985,-23.71316 0.0618,-0.79372 0.008,-1.59641 0.008,-2.65871 3.95191,0 7.54321,0 11.60364,0 0,3.90428 0,7.81771 0,12.88628 2.95648,-1.77564 5.08661,-3.05499 7.26984,-4.36624 1.90954,7.10107 1.67639,8.31933 -4.01038,11.89569 -5.67426,3.56848 -1.69544,8.6449 -3.24707,13.29513 5.85541,0 10.97302,0 16.48004,0 0,3.52402 0,6.7168 0,10.11484 -9.18841,0 -18.30023,0 -27.81299,0 0,-4.06195 0,-8.1459 0,-12.79126 -1.91845,0.73169 -3.30987,1.26239 -5.14355,1.96176 0,-2.30145 0,-4.25345 0.002,-6.62433 z"
   id="path10"
   style="fill:#000000" />









<path
   fill="#fbb413"
   opacity="1"
   stroke="none"
   d="m 155.4335,222.44501 c 20.9638,2.01639 39.0798,-5.56439 56.8471,-14.23126 7.924,-3.86532 15.5717,-8.30649 23.2774,-12.60687 6.2942,-3.51265 12.6034,-2.49768 18.7795,-0.05 3.732,1.47905 3.9844,4.13777 0.5559,6.18452 -31.5075,18.80951 -63.9426,34.75684 -102.2416,31.61981 -20.7144,-1.69671 -39.5622,-8.69473 -56.7356,-20.29242 -3.7436,-2.52817 -3.7428,-5.09564 0.3421,-6.96109 6.949,-3.1734 13.9036,-2.83545 20.4334,1.4939 11.6733,7.73959 24.1875,13.30542 38.7418,14.84344 z"
   id="path20"
   style="fill:#000000" />
<path
   fill="#fbb513"
   opacity="1"
   stroke="none"
   d="m 180.8257,177.13828 c -0.2948,-4.4145 -0.3156,-8.4492 -1.0184,-12.36136 -0.6495,-3.61543 0.8339,-5.93528 3.9577,-6.23962 5.0281,-0.48987 10.21,-0.54259 15.1862,0.18375 1.7811,0.25999 4.2865,3.18611 4.5053,5.11701 0.7057,6.22684 0.8179,12.57576 0.4446,18.83506 -0.1057,1.77246 -2.502,4.66829 -4.1093,4.86038 -5.31,0.6346 -10.9059,1.09973 -16.0789,0.0648 -5.777,-1.15575 -3.0573,-6.30243 -2.8872,-10.46004 z"
   id="path21"
   style="fill:#000000" />
<path
   fill="#fbb513"
   opacity="1"
   stroke="none"
   d="m 136.0436,175.23733 c 0.6801,-4.2248 -0.3678,-8.9372 4.363,-10.75212 6.1119,-2.34481 12.4004,-2.34446 18.292,0.77215 1.093,0.57823 2.013,2.74004 1.9146,4.09094 -0.3732,5.12143 -1.2492,10.20404 -1.836,15.31281 -0.4194,3.65121 -2.5227,5.61873 -5.9475,6.42265 -0.323,0.0759 -0.65,0.13582 -0.9761,0.19785 -14.4099,2.74074 -18.3843,-1.17256 -15.81,-16.04428 z"
   id="path22"
   style="fill:#000000" />
</svg>
