<svg id="PORTLODZ" width="500" height="205.995" viewBox="0 0 500 205.995" version="1.1" xml:space="preserve" xmlns:xlink="http://www.w3.org/1999/xlink" xmlns="http://www.w3.org/2000/svg" xmlns:svg="http://www.w3.org/2000/svg">
	<path id="PORTLODZ" style="fill:#000000;stroke:#000000;stroke-width:0" d="m 117.75457,187.19477 c 7.67039,-7.12189 4.32869,-16.11081 4.96339,-24.26829 0.0632,-0.8123 0.008,-1.63378 0.008,-2.72095 4.04441,0 7.71979,0 11.87528,0 0,3.99568 0,8.00072 0,13.18795 3.02569,-1.8172 5.20569,-3.1265 7.44002,-4.46845 1.95425,7.26731 1.71564,8.51409 -4.10426,12.17417 -5.80709,3.65202 -1.73513,8.84727 -3.32308,13.60637 5.99248,0 11.2299,0 16.86584,0 0,3.60652 0,6.87404 0,10.35163 -9.40352,0 -18.72864,0 -28.4641,0 0,-4.15704 0,-8.3366 0,-13.09071 -1.96337,0.74882 -3.38736,1.29195 -5.26396,2.00769 0,-2.35533 0,-4.35302 0.002,-6.77941 z m 248.61976,4.62603 c -0.60053,0.99904 -1.01685,1.68493 -1.80202,2.97834 6.619,0 12.63372,0 18.9116,0 0,3.58163 0,6.72263 0,10.16327 -11.69051,0 -23.34305,0 -36.57754,0 1.32892,-3.74731 1.93133,-7.35944 3.74546,-10.19696 5.11581,-8.00215 10.72919,-15.68619 16.67564,-24.25849 -6.1003,0 -11.54391,0 -17.2097,0 0,-3.78619 0,-6.93001 0,-10.75959 7.60399,2.34922 11.19717,-2.17107 14.50645,-7.72178 0.77112,-1.29337 3.25163,-1.94578 5.03634,-2.16976 2.81407,-0.35319 5.70497,-0.094 9.45724,1.0359 -3.18891,2.34833 -6.37776,4.69666 -9.56667,7.04498 0.4405,0.60053 0.88105,1.2011 1.32155,1.80164 3.97452,0 7.9491,0 13.49491,0 -1.17076,4.01606 -1.46185,7.58378 -3.14294,10.28704 -4.57449,7.3562 -9.73683,14.3468 -14.85032,21.79541 z m -96.12647,6.06107 c 0,-12.55667 0,-24.61703 0,-37.23039 9.94715,-1.16798 19.72013,-2.64392 29.08374,1.62323 8.37586,3.81701 11.77565,11.07845 11.46689,19.90908 -0.33012,9.43913 -3.88007,17.22289 -13.35193,20.96494 -8.66632,3.42384 -17.63315,2.85743 -27.1987,1.7833 0,-2.22285 0,-4.38832 0,-7.05016 m 26.80843,-21.67626 c -3.33577,-5.99723 -6.95681,-7.57395 -14.24923,-6.19499 0,8.55888 0,17.11772 0,25.65986 9.08276,0.1962 13.98138,-3.07006 14.86919,-10.11155 0.35429,-2.81013 -0.1418,-5.72744 -0.61996,-9.35332 z m -108.17491,-4.05423 c 3.08329,-3.57288 5.88467,-6.88593 8.87395,-10.01962 2.2592,-2.36833 5.39746,-4.12743 7.00759,-6.83399 2.68039,-4.5054 5.99486,-6.45784 11.14458,-5.63909 1.75261,0.27863 3.58686,0.0442 5.89878,1.11749 -2.92112,2.47136 -5.84219,4.94273 -9.69179,8.1996 10.19813,2.85405 15.75474,8.36898 17.76146,17.25489 4.18402,18.52673 -9.75445,33.32404 -27.37179,29.01028 -11.85673,-2.90327 -18.34574,-15.6656 -14.90747,-29.35824 0.28871,-1.14971 0.71902,-2.26382 1.28469,-3.73132 m 19.41675,23.74395 c 5.86962,-1.04847 8.30296,-3.71099 9.37229,-10.25507 1.06794,-6.53588 -1.1218,-13.68505 -5.57054,-15.20348 -2.47058,-0.84327 -6.36577,-0.60124 -8.38074,0.85956 -7.57519,5.49168 -4.94795,21.13808 4.57899,24.59899 z m 256.02775,-73.93248 c -9.89461,0.33191 -19.41193,0.33191 -29.3875,0.33191 0,-30.628267 0,-61.049901 0,-91.973855 -11.94318,0 -23.44392,0 -35.25188,0 0,-9.607509 0,-18.713556 0,-28.157278 33.44436,0 66.74654,0 100.3135,0 0,9.203118 0,18.17907 0,27.680328 -11.39049,0 -22.88399,0 -35.2969,0 0,30.93994 0,61.363467 -0.37722,92.118895 z m -434.564254,-4.8914 c 0,1.98149 0,3.45983 0,5.12679 -10.171663,0 -19.8175488,0 -29.761626,0 C 0,82.213151 0,42.39783 0,2.606303 0.3016092,2.3742653 0.56883182,1.9892891 0.82911572,1.9939558 21.085821,2.3573176 41.557953,1.0531042 61.540845,3.5941701 83.998526,6.4499245 96.553537,23.59708 96.057511,45.411906 95.569979,66.851601 81.63757,82.750186 59.781234,86.394252 c -5.344831,0.891145 -10.839817,0.970429 -16.27522,1.20087 -4.387277,0.186005 -8.788708,0.03766 -13.744388,0.03766 0,9.947301 0,19.441378 0,29.438628 M 54.129145,30.377295 c -8.051823,0 -16.103656,0 -24.111379,0 0,9.8725 0,19.6681 0,29.611799 7.202535,0 14.162522,0.344255 21.073539,-0.09047 7.96163,-0.500775 13.386287,-5.725457 14.278608,-12.825294 1.00065,-7.962069 -2.384842,-13.292347 -11.240768,-16.696056 z M 156.10247,119.74061 C 126.9013,106.96377 111.97352,77.961025 119.04789,48.241001 126.23581,18.043841 153.57798,-1.8909807 185.01892,0.14233059 215.50479,2.1138893 237.69713,20.536694 244.00018,49.105158 c 7.63947,34.625137 -16.29111,69.121402 -51.35484,74.354922 -12.43446,1.85596 -24.43073,0.73186 -36.54287,-3.71947 m 56.75722,-66.289551 c -1.78809,-7.346673 -5.4736,-13.523066 -11.41167,-18.260574 -14.09994,-11.249181 -34.44815,-8.864523 -45.51701,5.304038 -11.49963,14.719933 -8.73759,37.87954 5.85144,49.063725 10.5446,8.08362 25.77283,8.853265 36.95132,1.867385 11.81744,-7.385142 17.48923,-22.136811 14.12592,-37.974574 z M 371.90052,21.624886 c 11.1928,22.74309 4.78493,43.30513 -18.17952,58.511664 9.37897,13.740038 18.75719,27.47887 28.84763,42.2611 -5.13467,0 -9.40739,0.0495 -13.67862,-0.011 -7.29124,-0.10338 -15.75823,1.96839 -21.53559,-1.06099 -5.59028,-2.93127 -8.43358,-11.12807 -12.44277,-17.03969 -3.43951,-5.071818 -6.96767,-10.093088 -10.16726,-15.314086 -1.59932,-2.609645 -3.35994,-3.852495 -6.52106,-3.615197 -3.87357,0.290802 -7.78557,0.06928 -12.12206,0.06928 0,12.272407 0,24.283313 0,36.629783 -10.22812,0 -20.02072,0 -30.16775,0 0,-39.746906 0,-79.548513 0,-119.4968063 0.31108,-0.1664679 0.74614,-0.6043339 1.17764,-0.6008339 21.12214,0.1715952 42.27669,-0.2594242 63.35361,0.8219723 13.06328,0.6702313 24.16464,6.7097123 31.43575,18.8448189 m -65.97578,19.319865 c 0,5.571516 0,11.143022 0,16.841933 9.60621,0 18.76275,0.408607 27.86375,-0.126494 7.57619,-0.445429 12.23538,-5.761635 12.67358,-12.910605 0.4408,-7.192086 -3.31828,-13.42621 -10.43074,-14.082768 -9.86669,-0.910794 -19.88048,-0.228917 -30.10659,-0.228917 0,3.054583 0,6.275572 0,10.506851 z" />
</svg>
