<svg
   width="169.46838"
   height="53.481651"
   viewBox="0 0 169.46838 53.481651"
   version="1.1"
   id="svg16"
   xmlns:xlink="http://www.w3.org/1999/xlink"
   xmlns="http://www.w3.org/2000/svg"
   xmlns:svg="http://www.w3.org/2000/svg">
  <defs
     id="defs1">
    <path
       id="wnrxa"
       d="m 648.99,19.907 c -2.43,-3.201 -6.735,-5.676 -11.67,-5.674 -2.421,0.002 -4.746,0.422 -7.773,1.886 -4.765,2.303 -9.205,6.858 -12.412,12.51 -2.597,4.579 -4.122,10.365 -4.872,15.202 -1.705,11.013 -0.112,18.785 3.836,21.939 3.919,1.476 7.94,2.017 8.777,1.937 -2.42,-1.088 -3.617,-1.606 -4.584,-3.406 -3.066,-5.708 -3.112,-18.801 -0.227,-27.545 2.879,-8.707 6.827,-13.662 11.24,-16.436 6.734,-4.236 12.44,-2.104 14.53,0.79 2.52,3.489 2.287,7.605 0.496,10.156 -2.245,3.197 -3.796,3.279 -7.013,3.506 -0.505,3.832 -0.99,5.056 -2.231,8.028 14.628,-1.057 18.133,-14.687 11.903,-22.893" />
    <path
       id="wnrxb"
       d="m 610.758,50.114 a 17.255,17.255 0 0 1 -0.755,-0.711 c -2.577,-2.586 -5.157,-6.184 -6.61,-10.272 -1.856,-5.222 -2.704,-9.302 -2.088,-13.024 0.163,-0.985 0.443,-1.877 0.792,-2.656 1.036,-2.675 2.66,-4.794 4.654,-6.123 -2.013,0.742 -4.455,2.48 -6.082,4.705 a 2.306,2.306 0 0 0 -0.093,0.144 c -0.454,0.64 -0.854,1.475 -1.172,2.468 -2.05,6.395 -0.745,19.453 10.73,29.234 0.223,0.19 0.446,0.373 0.664,0.553 -0.086,-1.358 -0.1,-2.801 -0.04,-4.318" />
    <path
       id="wnrxc"
       d="m 646.693,56.85 c -8.326,3.216 -20.43,2.513 -27.692,-1.275 a 34.38,34.38 0 0 0 0.562,3.876 c 10.348,3.626 22.986,1.668 29.246,-2.73 z" />
    <path
       id="wnrxd"
       d="m 618.407,22.372 c 0.374,0.3 0.767,0.668 1.158,1.063 0.65,-0.83 1.327,-1.617 2.024,-2.357 a 22.536,22.536 0 0 0 -2.029,-1.612 16.622,16.622 0 0 0 -6.188,-2.68 l -0.003,0.003 -0.062,-0.016 a 14.447,14.447 0 0 0 -2.478,-0.284 c -2.194,0.093 -4.076,1.12 -5.492,2.898 1.485,-0.59 3.265,-0.658 3.265,-0.658 l -10e-4,0.003 c 2.035,-0.191 3.808,0.401 4.762,0.76 a 18.163,18.163 0 0 1 5.044,2.88" />
    <path
       id="wnrxe"
       d="m 625.96,61.843 c -0.982,1.92 -2.193,3.129 -3.296,3.808 0.608,0.391 1.383,0.74 2.46,1.224 l 0.115,0.051 0.514,0.231 c 1.126,-0.661 2.911,-2.139 4.273,-4.974 a 38.9,38.9 0 0 1 -4.066,-0.34" />
    <path
       id="wnrxf"
       d="m 627.656,57.316 -0.038,0.129 c 1.24,0.218 2.523,0.377 3.834,0.475 0.943,-3.748 1.254,-9.044 0.452,-14.432 -0.71,-4.76 -1.931,-8.652 -3.164,-11.57 -0.643,-1.524 -1.52,-3.422 -2.729,-5.377 a 29.158,29.158 0 0 0 -1.91,3.008 c 0.833,1.62 1.497,3.304 2.075,5.009 2.896,8.582 3.292,16.84 1.48,22.758" />
    <path
       id="wnrxg"
       d="m 683.613,39.2 c -0.616,0 -1.191,0.113 -1.722,0.345 a 4.385,4.385 0 0 0 -2.313,2.315 4.183,4.183 0 0 0 -0.343,1.686 c 0,0.59 0.113,1.155 0.343,1.683 0.228,0.53 0.537,0.991 0.93,1.38 a 4.342,4.342 0 0 0 3.105,1.283 c 0.605,0 1.175,-0.116 1.704,-0.346 0.531,-0.23 0.993,-0.545 1.392,-0.943 a 4.43,4.43 0 0 0 0.931,-1.379 c 0.23,-0.525 0.345,-1.087 0.345,-1.678 0,-0.596 -0.115,-1.155 -0.345,-1.678 a 4.5,4.5 0 0 0 -0.931,-1.383 4.478,4.478 0 0 0 -1.392,-0.94 4.196,4.196 0 0 0 -1.704,-0.345 m 6.973,4.346 c 0,1.932 -0.676,3.567 -2.039,4.904 -1.38,1.356 -3.025,2.032 -4.934,2.032 -1.93,0 -3.576,-0.676 -4.936,-2.032 -1.365,-1.353 -2.048,-2.99 -2.048,-4.904 0,-1.919 0.683,-3.552 2.048,-4.906 1.36,-1.353 3.006,-2.03 4.936,-2.03 1.91,0 3.554,0.677 4.934,2.03 a 6.794,6.794 0 0 1 1.525,2.245 c 0.339,0.813 0.508,1.702 0.514,2.66" />
    <path
       id="wnrxh"
       d="m 674.127,40.873 a 6.752,6.752 0 0 0 -1.535,-2.234 c -1.378,-1.354 -3.023,-2.03 -4.935,-2.03 -1.927,0 -3.572,0.676 -4.936,2.03 -1.364,1.354 -2.043,2.988 -2.043,4.905 v 11.083 l 2.587,0.716 c 0.01,-0.068 0.017,-0.134 0.017,-0.205 V 43.544 c 0,-0.594 0.117,-1.158 0.345,-1.686 0.228,-0.525 0.538,-0.985 0.927,-1.379 0.39,-0.39 0.85,-0.704 1.382,-0.934 a 4.254,4.254 0 0 1 1.721,-0.347 c 0.609,0 1.175,0.115 1.706,0.347 0.533,0.23 0.996,0.544 1.39,0.939 0.397,0.4 0.708,0.858 0.936,1.384 0.23,0.521 0.345,1.082 0.345,1.676 0,0.593 -0.115,1.155 -0.345,1.679 a 4.423,4.423 0 0 1 -2.326,2.322 4.223,4.223 0 0 1 -1.706,0.347 c -0.32,0 -0.624,-0.056 -0.928,-0.095 -0.438,0.871 -0.943,1.677 -1.412,2.279 0.713,0.297 1.825,0.404 2.34,0.404 0.956,0 1.844,-0.165 2.66,-0.502 0.82,-0.336 1.577,-0.842 2.275,-1.528 1.364,-1.339 2.044,-2.973 2.044,-4.906 0,-0.957 -0.172,-1.846 -0.509,-2.671" />
    <path
       id="wnrxi"
       d="m 707.385,50.48 v -7.41 c 0,-0.526 0.103,-1.027 0.307,-1.494 0.212,-0.471 0.492,-0.883 0.844,-1.234 0.357,-0.35 0.766,-0.629 1.242,-0.835 0.47,-0.207 0.973,-0.309 1.505,-0.309 0.533,0 1.036,0.102 1.51,0.309 0.472,0.206 0.887,0.485 1.24,0.835 0.353,0.351 0.634,0.763 0.842,1.234 0.208,0.467 0.311,0.968 0.311,1.495 v 6.9 l 2.603,0.51 v -7.41 c 0,-0.888 -0.172,-1.73 -0.518,-2.517 a 6.552,6.552 0 0 0 -1.425,-2.055 6.823,6.823 0 0 0 -2.076,-1.384 6.28,6.28 0 0 0 -2.487,-0.507 6.26,6.26 0 0 0 -2.482,0.507 6.847,6.847 0 0 0 -2.077,1.384 6.45,6.45 0 0 0 -1.422,2.055 6.203,6.203 0 0 0 -0.524,2.517 v 7.41 z" />
    <path
       id="wnrxj"
       d="m 737.805,50.48 v -7.41 c 0,-0.526 0.105,-1.027 0.313,-1.494 0.21,-0.471 0.488,-0.883 0.84,-1.234 0.356,-0.35 0.768,-0.629 1.24,-0.835 a 3.718,3.718 0 0 1 1.505,-0.309 c 0.536,0 1.035,0.102 1.513,0.309 0.475,0.206 0.885,0.485 1.24,0.835 0.35,0.351 0.632,0.763 0.84,1.234 0.207,0.467 0.309,0.968 0.309,1.495 v 6.9 l 2.604,0.51 v -7.41 c 0,-0.888 -0.17,-1.73 -0.518,-2.517 a 6.588,6.588 0 0 0 -1.42,-2.055 6.914,6.914 0 0 0 -2.081,-1.384 6.275,6.275 0 0 0 -2.487,-0.507 c -0.872,0 -1.697,0.172 -2.482,0.507 a 6.876,6.876 0 0 0 -2.076,1.384 6.462,6.462 0 0 0 -1.418,2.055 6.133,6.133 0 0 0 -0.525,2.517 v 7.41 z" />
    <path
       id="wnrxk"
       d="m 731.292,38.64 c -1.38,-1.353 -3.026,-2.03 -4.936,-2.03 -1.924,0 -3.572,0.677 -4.933,2.03 -1.366,1.354 -2.044,2.989 -2.044,4.906 0,1.914 0.678,3.55 2.044,4.904 1.36,1.356 3.01,2.032 4.933,2.032 0.831,0 1.615,-0.132 2.345,-0.396 0.118,-0.04 0.228,-0.088 0.34,-0.138 l -1.333,-2.276 c -0.485,0.185 -0.808,0.22 -1.352,0.22 a 4.295,4.295 0 0 1 -1.72,-0.346 4.313,4.313 0 0 1 -1.38,-0.937 c -0.392,-0.389 -0.7,-0.85 -0.93,-1.38 a 4.197,4.197 0 0 1 -0.342,-1.683 c 0,-0.596 0.114,-1.158 0.342,-1.686 a 4.38,4.38 0 0 1 2.31,-2.314 4.247,4.247 0 0 1 1.72,-0.346 c 0.606,0 1.176,0.113 1.71,0.345 0.53,0.231 0.995,0.544 1.388,0.94 0.393,0.4 0.708,0.858 0.936,1.383 0.228,0.523 0.341,1.082 0.341,1.678 l -10e-4,0.033 0.007,-0.006 v 6.398 l 2.603,0.51 v -6.935 c 0,-1.917 -0.683,-3.552 -2.048,-4.906" />
    <path
       id="wnrxl"
       d="m 766.022,38.64 c -1.38,-1.353 -3.023,-2.03 -4.937,-2.03 -1.924,0 -3.57,0.677 -4.933,2.03 -1.364,1.354 -2.043,2.989 -2.043,4.906 0,1.914 0.679,3.55 2.043,4.904 1.363,1.356 3.009,2.032 4.933,2.032 a 6.86,6.86 0 0 0 2.346,-0.396 c 0.113,-0.04 0.228,-0.088 0.34,-0.138 l -1.336,-2.276 c -0.485,0.185 -0.808,0.22 -1.35,0.22 a 4.335,4.335 0 0 1 -3.102,-1.283 4.35,4.35 0 0 1 -0.927,-1.38 4.225,4.225 0 0 1 -0.344,-1.683 c 0,-0.596 0.117,-1.158 0.344,-1.686 0.228,-0.527 0.537,-0.987 0.927,-1.38 0.389,-0.39 0.85,-0.704 1.382,-0.935 a 4.256,4.256 0 0 1 1.72,-0.345 c 0.606,0 1.177,0.113 1.71,0.345 a 4.423,4.423 0 0 1 2.325,2.323 c 0.228,0.523 0.341,1.082 0.341,1.678 v 0.033 l 0.005,-0.006 v 6.398 l 2.604,0.51 v -6.935 c 0,-1.917 -0.68,-3.552 -2.048,-4.906" />
    <path
       id="wnrxm"
       d="m 750.068,38.578 v 11.393 l 2.606,0.51 V 38.577 Z" />
    <path
       id="wnrxn"
       d="m 701.961,44.127 c -0.28,-0.297 -0.828,-0.601 -1.644,-0.916 l -5.828,-1.908 c -0.218,-0.083 -0.329,-0.241 -0.329,-0.47 0,-0.233 0.068,-0.414 0.2,-0.546 0.714,-0.727 1.67,-1.087 2.865,-1.087 1.215,0 2.245,0.419 3.092,1.262 0.075,0.075 1.956,-1.743 1.956,-1.743 -1.366,-1.274 -3.224,-2.11 -5.048,-2.11 -0.679,0 -1.357,0.098 -2.035,0.292 a 6.543,6.543 0 0 0 -1.826,0.824 c -0.541,0.355 -0.979,0.786 -1.316,1.294 a 3.009,3.009 0 0 0 -0.502,1.701 c 0,0.86 0.313,1.609 0.944,2.242 h -0.013 c 0.316,0.317 0.864,0.62 1.647,0.92 l 5.817,1.906 c 0.225,0.09 0.339,0.251 0.339,0.482 0,0.2 -0.06,0.366 -0.188,0.508 -0.722,0.74 -1.678,1.114 -2.867,1.114 -1.22,0 -2.256,-0.42 -3.1,-1.263 a 14.6,14.6 0 0 0 -0.526,-0.463 l -0.014,-0.009 -1.876,1.545 c 1.016,1.787 3.493,2.78 5.516,2.78 0.681,0 1.359,-0.096 2.033,-0.286 a 6.336,6.336 0 0 0 1.82,-0.825 c 0.537,-0.356 0.98,-0.79 1.315,-1.294 a 3,3 0 0 0 0.507,-1.706 c 0,-0.861 -0.32,-1.606 -0.949,-2.244 z" />
  </defs>
  <g
     id="g16"
     transform="translate(-0.60162355,-0.23299588)"
     style="fill:#000000">
    <g
       transform="translate(-598,-14)"
       id="g15"
       style="fill:#000000">
      <g
         id="g1"
         style="fill:#000000">
        <use
           fill="#851279"
           xlink:href="#wnrxa"
           id="use1"
           style="fill:#000000" />
      </g>
      <g
         id="g2"
         style="fill:#000000">
        <use
           fill="#c64491"
           xlink:href="#wnrxb"
           id="use2"
           style="fill:#000000" />
      </g>
      <g
         id="g3"
         style="fill:#000000">
        <use
           fill="#c64491"
           xlink:href="#wnrxc"
           id="use3"
           style="fill:#000000" />
      </g>
      <g
         id="g4"
         style="fill:#000000">
        <use
           fill="#785ca3"
           xlink:href="#wnrxd"
           id="use4"
           style="fill:#000000" />
      </g>
      <g
         id="g5"
         style="fill:#000000">
        <use
           fill="#785ca3"
           xlink:href="#wnrxe"
           id="use5"
           style="fill:#000000" />
      </g>
      <g
         id="g6"
         style="fill:#000000">
        <use
           fill="#785ca3"
           xlink:href="#wnrxf"
           id="use6"
           style="fill:#000000" />
      </g>
      <g
         id="g7"
         style="fill:#000000">
        <use
           fill="#851279"
           xlink:href="#wnrxg"
           id="use7"
           style="fill:#000000" />
      </g>
      <g
         id="g8"
         style="fill:#000000">
        <use
           fill="#851279"
           xlink:href="#wnrxh"
           id="use8"
           style="fill:#000000" />
      </g>
      <g
         id="g9"
         style="fill:#000000">
        <use
           fill="#851279"
           xlink:href="#wnrxi"
           id="use9"
           style="fill:#000000" />
      </g>
      <g
         id="g10"
         style="fill:#000000">
        <use
           fill="#851279"
           xlink:href="#wnrxj"
           id="use10"
           style="fill:#000000" />
      </g>
      <g
         id="g11"
         style="fill:#000000">
        <use
           fill="#851279"
           xlink:href="#wnrxk"
           id="use11"
           style="fill:#000000" />
      </g>
      <g
         id="g12"
         style="fill:#000000">
        <use
           fill="#851279"
           xlink:href="#wnrxl"
           id="use12"
           style="fill:#000000" />
      </g>
      <g
         id="g13"
         style="fill:#000000">
        <use
           fill="#851279"
           xlink:href="#wnrxm"
           id="use13"
           style="fill:#000000" />
      </g>
      <g
         id="g14"
         style="fill:#000000">
        <use
           fill="#851279"
           xlink:href="#wnrxn"
           id="use14"
           style="fill:#000000" />
      </g>
    </g>
  </g>
</svg>
