<svg
   version="1.1"
   width="245.50386"
   height="362.11133"
   id="svg2"
   xmlns="http://www.w3.org/2000/svg"
   xmlns:svg="http://www.w3.org/2000/svg"
   xmlns:rdf="http://www.w3.org/1999/02/22-rdf-syntax-ns#"
   xmlns:cc="http://creativecommons.org/ns#"
   xmlns:dc="http://purl.org/dc/elements/1.1/">
  <title
     id="title2900">Poznań</title>
  <defs
     id="defs4" />
  <g
     transform="translate(-165.16283,-272.32586)"
     id="layer1">
    <path
       id="path2898"
       style="fill:#000000;fill-opacity:1;stroke:none"
       d="m 409.18039,272.32586 -243.94726,0.21289 -0.0703,147.89649 c 0,62.59714 48.03777,125.49511 122.35352,125.87304 74.36984,-0.43609 121.66406,-66.04696 121.66406,-125.87304 z M 258.32688,286.82 l 75.875,81.375 v 52.25 h 56.96875 v 31.9375 H 183.20188 v -85 z m 97.73242,8.60938 h 8.20703 v 19.84961 l 16.99609,-9.8125 5.52344,6.58398 -18.1875,10.5 18.75977,10.83203 -5.95703,7.09766 -17.13477,-9.89258 v 19.8457 h -8.20703 v -20.64257 l -17.83594,10.29687 -5.52344,-6.58398 18.3086,-10.57032 -18.4336,-10.64257 5.95508,-7.09961 17.5293,10.11914 z m -97.66992,39.79687 -42.25,45.28125 v 39.9375 h 85 V 381.07 Z m 134.90625,244.15625 -3.0625,10 h 6.96875 l 6.03125,-10 z m -216.06446,2.64649 v 51.40429 h 9.80664 V 614.89031 H 198.28 c 4.48814,3e-5 8.10414,-1.53862 10.84961,-4.61718 2.74539,-3.07851 4.11909,-7.12451 4.11914,-12.13672 -5e-5,-4.91601 -1.31874,-8.82917 -3.95508,-11.74024 -2.63642,-2.91098 -6.17746,-4.36713 -10.62304,-4.36718 z m 9.80664,8.8789 h 7.77735 c 3.09316,4e-5 5.30362,0.5601 6.63281,1.68164 1.32913,1.12163 1.99411,2.99437 1.99414,5.61914 -3e-5,5.20302 -2.43987,7.80472 -7.32031,7.80469 h -9.08399 z m 46.6875,3.43555 c -5.91821,4e-5 -10.64353,1.82561 -14.17578,5.47656 -3.53228,3.65101 -5.29882,8.50794 -5.29882,14.57031 0,6.06096 1.76654,10.91665 5.29882,14.56836 3.53225,3.65171 8.25757,5.47852 14.17578,5.47852 5.91816,0 10.64349,-1.82681 14.17579,-5.47852 3.53223,-3.65171 5.29878,-8.5316 5.29882,-14.64062 -4e-5,-6.06237 -1.76659,-10.90622 -5.29882,-14.5332 -3.5323,-3.62692 -8.25763,-5.44137 -14.17579,-5.44141 z m 80.70118,0 c -3.00645,4e-5 -5.5617,0.76453 -7.66211,2.29102 -1.28911,0.9075 -2.57566,2.33873 -3.86328,4.29492 h -0.0723 v -5.58399 h -9.5957 v 38.08789 h 10.02343 v -21.83593 c -10e-6,-2.72092 0.71585,-4.86801 2.14844,-6.44336 1.43255,-1.57529 3.38852,-2.36325 5.86914,-2.36328 4.24889,3e-5 6.37497,2.50542 6.375,7.51757 v 23.125 h 10.02149 v -26.34765 c -4e-5,-3.8658 -1.19224,-6.95495 -3.57813,-9.26953 -2.38595,-2.31451 -5.60793,-3.47262 -9.66601,-3.47266 z m 33.5957,0 c -5.02488,4e-5 -9.09214,1.80264 -12.20117,5.40625 -3.10905,3.60367 -4.66407,8.34084 -4.66406,14.21094 -2e-5,6.20515 1.56708,11.1695 4.70117,14.89258 3.13408,3.72308 7.26316,5.58398 12.38672,5.58398 5.17361,0 9.02965,-2.00559 11.5664,-6.01563 v 5.01172 h 9.99805 v -38.08789 h -9.99805 v 5.01172 c -2.93449,-4.00854 -6.86441,-6.01363 -11.78906,-6.01367 z m 49.39844,0 c -3.00646,4e-5 -5.55976,0.76453 -7.66016,2.29102 -1.28911,0.9075 -2.5776,2.33873 -3.86523,4.29492 h -0.0723 v -5.58399 h -9.59375 v 38.08789 h 10.02344 v -21.83593 c -2e-5,-2.72092 0.71586,-4.86801 2.14844,-6.44336 1.43256,-1.57529 3.38852,-2.36325 5.86914,-2.36328 4.2489,3e-5 6.37301,2.50542 6.37304,7.51757 v 23.125 h 10.02344 v -26.34765 c -4e-5,-3.8658 -1.1942,-6.95495 -3.58008,-9.26953 -2.38596,-2.31451 -5.60794,-3.47262 -9.66601,-3.47266 z m -139.82617,1.00195 v 8.01758 H 275.78 l -19.54687,22.26563 v 7.80468 h 32.93554 v -8.23242 h -19.97656 l 19.25977,-21.62109 v -8.23438 z m -23.86915,7.44532 c 6.10898,3e-5 9.16404,3.86652 9.16407,11.5996 -3e-5,7.73168 -3.05509,11.59767 -9.16407,11.59766 -6.10902,10e-6 -9.16408,-3.86598 -9.16406,-11.59766 -2e-5,-7.73309 3.05504,-11.59957 9.16406,-11.5996 z m 116.90821,0 c 2.73557,3e-5 4.9125,1.03887 6.52929,3.11523 1.61673,2.07642 2.42576,4.85566 2.42579,8.33984 -3e-5,3.62842 -0.79699,6.49212 -2.38868,8.5918 -1.59174,2.09971 -3.78074,3.1504 -6.5664,3.15039 -2.73713,10e-6 -4.87637,-0.9897 -6.41797,-2.9707 -1.54163,-1.98097 -2.31251,-4.71501 -2.3125,-8.19922 -1e-5,-8.01859 2.91011,-12.02731 8.73047,-12.02734 z" />
  </g>
  <metadata
     id="metadata1">
    <rdf:RDF>
      <cc:Work
         rdf:about="">
        <dc:title>Poznań</dc:title>
      </cc:Work>
    </rdf:RDF>
  </metadata>
</svg>
