<svg
   version="1.0"
   width="424.68753"
   height="559.65631"
   id="svg3"
   xmlns="http://www.w3.org/2000/svg"
   xmlns:svg="http://www.w3.org/2000/svg">
  <defs
     id="defs3" />
  <path
     d="m 185.62472,254.06258 c 0,0 -0.22406,191.59336 -0.125,193.5625 -3.04695,33.12876 -31.26636,59.12499 -65.59375,59.125 -36.35917,0 -65.87497,-29.1779 -65.87497,-65.09375 l -0.031,-45.5 -54,-42.8125 0.4375,88.3125 c 0,65.13289 53.5318,118.00002 119.46877,118 37.25005,0 70.52569,-16.85808 92.4375,-43.28125 21.9119,26.41797 55.1917,43.28125 92.4375,43.28125 65.93697,2e-5 119.4375,-52.86711 119.4375,-118 l 0.46875,-88.3125 -54,42.8125 -0.0312,45.5 c 2e-5,35.91585 -29.51578,65.09375 -65.875,65.09375 -34.33828,-1e-5 -62.56178,-26.01248 -65.59375,-59.15625 -1.3e-4,-0.004 -4e-5,-0.0273 0,-0.0312 5.4e-4,-0.0117 3.6e-4,-0.0507 0,-0.0625 l -0.0937,-193.4375 z"
     style="fill:#000001;fill-opacity:1;stroke:none;stroke-width:1.78671;stroke-linecap:round;stroke-linejoin:round;stroke-miterlimit:4;stroke-opacity:1"
     id="path2" />
  <path
     d="m 134.68722,8e-5 v 50.9375 l 141.8125,4.2e-4 v 0 c 37.57591,0 68.09375,31.15711 68.09375,69.18708 -1e-5,37.18088 -29.17728,67.164 -65.59375,68.49992 v 0 l -39.71875,8e-5 V 65.65633 h -53.65625 v 122.96875 h -50.9375 v 50.9375 l 141.8125,4.2e-4 v 0 c 65.34458,1e-5 118.375,-53.30371 118.375,-119.43792 C 394.87472,54.83045 343.19964,1.33896 278.99972,0 v 0 z"
     style="fill:#000001;fill-opacity:1;stroke:none;stroke-width:2.12598;stroke-linecap:round;stroke-linejoin:round;stroke-miterlimit:4;stroke-opacity:1"
     id="path3" />
</svg>
