<svg
   width="485.23969pt"
   height="95.922264pt"
   viewBox="0 0 485.23968 95.922259"
   version="1.1"
   id="svg2"
   xmlns="http://www.w3.org/2000/svg"
   xmlns:svg="http://www.w3.org/2000/svg"
   xmlns:rdf="http://www.w3.org/1999/02/22-rdf-syntax-ns#"
   xmlns:cc="http://creativecommons.org/ns#"
   xmlns:dc="http://purl.org/dc/elements/1.1/">
  <metadata
     id="metadata327">
    <rdf:RDF>
      <cc:Work
         rdf:about="">
        <dc:format>image/svg+xml</dc:format>
        <dc:type
           rdf:resource="http://purl.org/dc/dcmitype/StillImage" />
      </cc:Work>
    </rdf:RDF>
  </metadata>
  <defs
     id="defs4" />
  <g
     id="g4474"
     transform="translate(33.306926,-477.86137)">
    <g
       id="g4483"
       transform="translate(-2.5224837,322.87793)">
      <g
         id="g4501"
         transform="matrix(0.72053092,0,0,0.72053092,-567.71777,363.88768)">
        <g
           transform="matrix(1.7434298,0,0,1.7434298,563.62936,-543.96778)"
           id="g4461"
           style="fill:#000000">
          <g
             id="g4235"
             style="fill:#000000">
            <path
               id="path143"
               d="m 104.14063,220.93359 v -73.79687 h 13.09375 c 1.08984,0 2.0039,0.0937 2.74218,0.28515 0.73438,0.1875 1.35157,0.48438 1.84766,0.88672 0.5,0.40625 0.87891,0.9375 1.14062,1.60157 0.25782,0.66406 0.48438,1.47265 0.67579,2.41796 l 1.21093,6.90625 c 2.70313,-4.17578 5.73828,-7.47265 9.10938,-9.89453 3.36718,-2.41797 7.04297,-3.6289 11.02734,-3.6289 3.36719,0 6.07422,0.80859 8.11328,2.42187 l -2.84765,16.22266 c -0.1875,0.99609 -0.56641,1.69922 -1.13672,2.10156 -0.57032,0.40234 -1.32813,0.60547 -2.27735,0.60547 -0.80859,0 -1.7539,-0.10938 -2.84765,-0.32031 -1.08985,-0.21485 -2.46875,-0.32032 -4.125,-0.32032 -5.78907,0 -10.34375,3.08204 -13.66406,9.25 v 45.26172"
               style="fill:#000000;fill-opacity:1;fill-rule:nonzero;stroke:none" />
            <path
               id="path145"
               d="m 187.11719,207.48437 c 2.84765,0 5.33984,-0.5 7.47265,-1.49609 2.13672,-0.99609 4.29297,-2.60937 6.47657,-4.83984 v -10.10547 c -4.41016,0 -8.03907,0.28906 -10.88672,0.86328 -2.84766,0.57422 -5.10157,1.29297 -6.76172,2.15234 -1.66016,0.86328 -2.8086,1.84375 -3.44922,2.94532 -0.64063,1.09765 -0.96094,2.29687 -0.96094,3.58984 0,2.53516 0.6875,4.31641 2.0625,5.34375 1.375,1.03125 3.39063,1.54687 6.04688,1.54687 m 25.33593,13.44922 c -2.08984,0 -3.66406,-0.28515 -4.73046,-0.85547 -1.07032,-0.57031 -1.95704,-1.7539 -2.66797,-3.55859 l -1.56641,-4.05469 c -1.85156,1.56641 -3.63281,2.94141 -5.33984,4.12891 -1.70703,1.18359 -3.47266,2.19141 -5.30078,3.02344 -1.82813,0.82812 -3.77344,1.44531 -5.83594,1.84765 -2.0625,0.40235 -4.35156,0.60547 -6.86719,0.60547 -3.36719,0 -6.42969,-0.4375 -9.17969,-1.32031 -2.7539,-0.87891 -5.08984,-2.17578 -7.01172,-3.89063 -1.92187,-1.71484 -3.40234,-3.84375 -4.44531,-6.39062 -1.04297,-2.54688 -1.5664,-5.48438 -1.5664,-8.81641 0,-2.61718 0.66406,-5.30859 1.99218,-8.0664 1.32813,-2.76172 3.62891,-5.27344 6.90235,-7.53516 3.27343,-2.25781 7.6875,-4.15234 13.23828,-5.67578 5.55078,-1.51953 12.54687,-2.28125 20.99219,-2.28125 v -3.16406 c 0,-4.35547 -0.88672,-7.50391 -2.66797,-9.44141 -1.78125,-1.94141 -4.30469,-2.91016 -7.57813,-2.91016 -2.60937,0 -4.74609,0.28516 -6.40625,0.85547 -1.66015,0.56641 -3.14453,1.20703 -4.44531,1.91797 -1.30859,0.71485 -2.57422,1.35547 -3.80859,1.92188 -1.23438,0.57031 -2.70704,0.85547 -4.41407,0.85547 -1.51562,0 -2.80859,-0.36719 -3.8789,-1.10157 -1.06641,-0.73828 -1.90625,-1.64843 -2.52344,-2.74218 l -3.98828,-6.90235 c 4.46094,-3.9375 9.40625,-6.86719 14.83984,-8.78906 5.4336,-1.92188 11.25391,-2.88281 17.46875,-2.88281 4.46094,0 8.48047,0.72656 12.0625,2.17187 3.58203,1.44531 6.6211,3.46485 9.10938,6.04688 2.49218,2.58984 4.40234,5.66015 5.73047,9.21875 1.32812,3.55859 1.99218,7.44922 1.99218,11.66797 v 46.11718"
               style="fill:#000000;fill-opacity:1;fill-rule:nonzero;stroke:none" />
            <path
               id="path147"
               d="m 293.29297,155.96094 c 0,1.51562 -0.28125,2.96484 -0.85156,4.33984 -0.57032,1.375 -1.23438,2.5625 -1.9961,3.55859 l -30.8125,40.70704 h 32.94922 v 16.36718 h -58.35547 v -8.96875 c 0,-0.89843 0.25,-2.02734 0.7461,-3.3789 0.5,-1.35157 1.19921,-2.64453 2.10156,-3.87891 l 31.09765,-41.20312 h -31.95312 v -16.36719 h 57.07422"
               style="fill:#000000;fill-opacity:1;fill-rule:nonzero;stroke:none" />
            <path
               id="path149"
               d="m 338.12891,161.22656 c -4.22657,0 -7.52344,1.19922 -9.89454,3.59375 -2.375,2.39453 -3.9375,5.84766 -4.69531,10.35547 h 27.53906 c 0,-1.75391 -0.22265,-3.46484 -0.67578,-5.125 -0.45312,-1.66016 -1.1875,-3.14453 -2.20703,-4.44922 -1.01953,-1.30469 -2.35937,-2.35937 -4.01953,-3.16406 -1.66016,-0.80859 -3.67578,-1.21094 -6.04687,-1.21094 m -0.42969,-15.23047 c 4.88672,0 9.35937,0.76172 13.41406,2.27735 4.05859,1.51953 7.54297,3.72656 10.46094,6.61718 2.91797,2.89454 5.19531,6.44141 6.83203,10.64063 1.63672,4.19922 2.45703,8.95703 2.45703,14.26953 0,1.66016 -0.0742,3.01172 -0.21484,4.05469 -0.14063,1.04687 -0.40235,1.875 -0.78125,2.49219 -0.38282,0.61718 -0.89063,1.04296 -1.53125,1.28125 -0.64063,0.23828 -1.45703,0.35546 -2.45313,0.35546 h -42.55859 c 0.71094,6.16797 2.58594,10.63672 5.62109,13.41407 3.03516,2.77343 6.95313,4.16406 11.74219,4.16406 2.5625,0 4.76953,-0.30859 6.62109,-0.92578 1.84766,-0.61719 3.4961,-1.30469 4.94532,-2.0625 1.44531,-0.76172 2.77343,-1.44922 3.98437,-2.06641 1.21094,-0.61328 2.48047,-0.92187 3.80859,-0.92187 1.75391,0 3.08204,0.63672 3.98438,1.91797 l 6.40234,7.89843 c -2.27734,2.61328 -4.73047,4.73438 -7.36328,6.3711 -2.63281,1.63672 -5.33594,2.91797 -8.11328,3.84375 -2.77344,0.92187 -5.55078,1.5664 -8.32422,1.92187 -2.77734,0.35547 -5.42187,0.53125 -7.9375,0.53125 -5.17187,0 -10.02344,-0.84375 -14.55078,-2.52344 -4.53516,-1.68359 -8.49609,-4.1875 -11.88672,-7.51171 -3.39062,-3.31641 -6.07422,-7.44532 -8.03906,-12.38282 -1.97266,-4.92968 -2.95313,-10.67187 -2.95313,-17.21875 0,-4.93359 0.83985,-9.60937 2.52344,-14.01953 1.6836,-4.41406 4.10547,-8.27734 7.25781,-11.60156 3.15625,-3.32031 6.97657,-5.95313 11.46094,-7.89844 4.48047,-1.94531 9.54688,-2.91797 15.19141,-2.91797"
               style="fill:#000000;fill-opacity:1;fill-rule:nonzero;stroke:none" />
            <path
               id="path151"
               d="m 383.52734,220.93359 v -73.79687 h 13.66407 c 1.375,0 2.52734,0.30859 3.45312,0.92187 0.92578,0.61719 1.57422,1.54297 1.95703,2.77735 l 1.20703,3.98437 c 1.23438,-1.28125 2.51563,-2.45312 3.84375,-3.52344 1.32813,-1.0664 2.76172,-1.99218 4.3086,-2.77343 1.53906,-0.78516 3.19922,-1.39844 4.98047,-1.85157 1.77734,-0.44921 3.73437,-0.67578 5.87109,-0.67578 4.45703,0 8.14844,1.15235 11.06641,3.45313 2.91796,2.30078 5.13281,5.37109 6.65234,9.21484 1.23437,-2.27734 2.73828,-4.22265 4.51953,-5.83594 1.77734,-1.61328 3.69922,-2.91796 5.76563,-3.91406 2.0625,-0.99609 4.24218,-1.73047 6.54687,-2.20703 2.29688,-0.47266 4.58594,-0.71094 6.86719,-0.71094 4.21875,0 7.96875,0.62891 11.24219,1.88672 3.27343,1.25781 6.01562,3.08594 8.21875,5.48047 2.20703,2.39453 3.8789,5.33594 5.01953,8.82422 1.13672,3.48828 1.70703,7.43359 1.70703,11.84766 v 46.89843 h -22.0625 v -46.89843 c 0,-7.63672 -3.27344,-11.45704 -9.82031,-11.45704 -2.98829,0 -5.46875,0.98438 -7.4375,2.95313 -1.96875,1.96875 -2.95313,4.80469 -2.95313,8.50391 v 46.89843 h -22.05859 v -46.89843 c 0,-4.22266 -0.83203,-7.1875 -2.49219,-8.89454 -1.66016,-1.70703 -4.10547,-2.5625 -7.32813,-2.5625 -1.99218,0 -3.8789,0.44922 -5.66015,1.35157 -1.77735,0.90234 -3.44922,2.11328 -5.01563,3.6289 v 53.375"
               style="fill:#000000;fill-opacity:1;fill-rule:nonzero;stroke:none" />
          </g>
        </g>
      </g>
    </g>
  </g>
</svg>
