<svg id="RENOMA" width="500" height="79.229126" viewBox="0 0 500 79.229126" version="1.1" xml:space="preserve" xmlns:xlink="http://www.w3.org/1999/xlink" xmlns="http://www.w3.org/2000/svg" xmlns:svg="http://www.w3.org/2000/svg">
	<path id="RENOMA" style="fill:#000000;stroke:#000000;stroke-width:0" d="m 356.81921,21.327038 h 10.67094 v 56.898819 h -10.67094 z m 43.86513,0 h 10.67094 V 78.225857 H 400.68434 Z M 494.88247,6.4619293 A 16.919153,16.919153 0 0 0 482.53445,1.0121809 H 428.04884 V 12.398474 h 55.16535 a 7.2129022,7.2129022 0 0 1 6.11464,7.070425 v 14.301137 h -41.30945 v 0.09202 a 21.629802,21.629802 0 0 0 -19.97054,22.172996 21.63277,21.63277 0 0 0 19.97054,22.172995 l 3.2651,0.02375 h 29.73615 V 66.85737 h -29.72725 l -3.26509,0.01781 a 10.946989,10.946989 0 0 1 0.79252,-21.754469 h 40.51099 v 33.105143 h 10.66797 V 19.620281 a 19.231438,19.231438 0 0 0 -5.1173,-13.1583517 z m -178.02512,0 a 19.240342,19.240342 0 0 0 -5.11136,13.1524157 v 58.611509 h 10.66797 V 19.454058 a 7.2188388,7.2188388 0 0 1 6.11761,-7.070425 h 82.8148 V 1.0151492 H 329.19349 A 16.933995,16.933995 0 0 0 316.85735,6.4619293 Z M 260.72435,0 c -19.99428,0 -36.21292,17.735428 -36.21292,39.614565 0,21.879137 16.20677,39.614565 36.21292,39.614565 20.00616,0 36.18621,-17.735428 36.18621,-39.614565 C 296.91056,17.735428 280.70379,0 260.72435,0 Z m 0,67.629121 c -14.1171,0 -25.59838,-12.564698 -25.59838,-28.011588 0,-15.44689 11.48128,-28.014556 25.59838,-28.014556 14.11711,0 25.58651,12.567666 25.58651,28.014556 0,15.44689 -11.48424,28.011588 -25.58651,28.011588 z M 191.97619,1.0151492 H 140.58055 V 12.398474 h 52.06944 a 7.2158705,7.2158705 0 0 1 6.11761,7.070425 c 0,0.06233 0,0.10389 0,0.166224 v 58.590731 h 10.67094 V 19.620281 A 19.240342,19.240342 0 0 0 204.3242,6.4678658 16.919153,16.919153 0 0 0 191.97619,1.0151492 Z M 65.219078,59.786945 c 0,-0.0564 0,-0.100921 0,-0.163255 V 45.123679 H 120.80592 V 33.755195 H 65.219078 V 12.398474 H 120.80592 V 1.0299906 H 54.488773 v 50.7633964 0 7.892637 a 19.139421,19.139421 0 0 0 5.173699,13.090082 16.933995,16.933995 0 0 0 12.348014,5.449748 H 120.82373 V 66.85737 H 71.336688 a 7.2129022,7.2129022 0 0 1 -6.11761,-7.070425 z M 140.58055,21.327038 h 10.67094 V 78.225857 H 140.58055 Z M 5.1145253,6.4619293 A 19.246279,19.246279 0 0 0 1.9530572e-4,19.614345 V 78.225854 H 10.668165 V 19.620281 c 0,-0.06233 0,-0.103889 0,-0.166223 a 7.2188388,7.2188388 0 0 1 6.11761,-7.055584 H 41.309643 V 1.0299906 H 17.459575 A 16.919153,16.919153 0 0 0 5.1145253,6.4619293 Z" />
</svg>
