<svg
   id="Group_3697"
   data-name="Group 3697"
   width="168.44815"
   height="26.691999"
   viewBox="0 0 168.44815 26.691999"
   version="1.1"
   xmlns="http://www.w3.org/2000/svg"
   xmlns:svg="http://www.w3.org/2000/svg">
  <defs
     id="defs1" />
  <g
     id="Group_3674"
     data-name="Group 3674"
     transform="translate(6.5791709e-5,0.342)"
     style="fill:#000000">
    <path
       id="Path_13425"
       data-name="Path 13425"
       d="m 21.547,19.8 a 6.484,6.484 0 0 0 -1.723,4.431 v 19.746 h 3.594 V 24.233 c 0,-0.021 0,-0.035 0,-0.056 A 2.432,2.432 0 0 1 25.479,21.8 h 8.262 v -3.83 h -8.035 a 5.7,5.7 0 0 0 -4.159,1.83 z"
       transform="translate(-19.824,-17.965)"
       fill="#272626"
       style="fill:#000000" />
  </g>
  <g
     id="Group_3675"
     data-name="Group 3675"
     transform="translate(47.361066,7.185)"
     style="fill:#000000">
    <rect
       id="Rectangle_2350"
       data-name="Rectangle 2350"
       width="3.595"
       height="19.169001"
       fill="#272626"
       x="0"
       y="0"
       style="fill:#000000" />
  </g>
  <g
     id="Group_3676"
     data-name="Group 3676"
     transform="translate(18.357066,0.342)"
     style="fill:#000000">
    <path
       id="Path_13426"
       data-name="Path 13426"
       d="m 71.383,37.765 c 0,-0.019 0,-0.034 0,-0.055 V 32.825 H 90.11 v -3.83 H 71.383 V 21.8 H 90.11 V 17.97 H 67.768 v 17.102 0 2.659 a 6.448,6.448 0 0 0 1.743,4.41 5.705,5.705 0 0 0 4.16,1.836 h 16.445 v -3.83 H 73.444 a 2.43,2.43 0 0 1 -2.061,-2.382 z"
       transform="translate(-67.768,-17.965)"
       fill="#272626"
       style="fill:#000000" />
  </g>
  <g
     id="Group_3677"
     data-name="Group 3677"
     transform="translate(47.361066,0.342)"
     style="fill:#000000">
    <path
       id="Path_13427"
       data-name="Path 13427"
       d="M 160.833,17.965 H 143.518 V 21.8 h 17.542 a 2.431,2.431 0 0 1 2.061,2.382 c 0,0.021 0,0.035 0,0.056 v 19.739 h 3.595 V 24.233 a 6.482,6.482 0 0 0 -1.723,-4.431 5.7,5.7 0 0 0 -4.16,-1.837 z"
       transform="translate(-143.518,-17.965)"
       fill="#272626"
       style="fill:#000000" />
  </g>
  <g
     id="Group_3678"
     data-name="Group 3678"
     transform="translate(75.641066)"
     style="fill:#000000">
    <path
       id="Path_13428"
       data-name="Path 13428"
       d="m 229.574,17.072 c -6.736,0 -12.2,5.975 -12.2,13.346 0,7.371 5.46,13.346 12.2,13.346 6.74,0 12.191,-5.975 12.191,-13.346 0,-7.371 -5.46,-13.346 -12.191,-13.346 z m 0,22.784 c -4.756,0 -8.624,-4.233 -8.624,-9.437 0,-5.204 3.868,-9.438 8.624,-9.438 4.756,0 8.62,4.234 8.62,9.438 0,5.204 -3.869,9.437 -8.62,9.437 z"
       transform="translate(-217.378,-17.072)"
       fill="#272626"
       style="fill:#000000" />
  </g>
  <g
     id="Group_3679"
     data-name="Group 3679"
     transform="translate(105.02607,0.342)"
     style="fill:#000000">
    <path
       id="Path_13429"
       data-name="Path 13429"
       d="m 295.844,19.8 a 6.482,6.482 0 0 0 -1.722,4.431 v 19.746 h 3.594 v -19.8 a 2.432,2.432 0 0 1 2.061,-2.382 h 27.9 v -3.83 H 300 a 5.705,5.705 0 0 0 -4.156,1.835 z"
       transform="translate(-294.122,-17.965)"
       fill="#272626"
       style="fill:#000000" />
  </g>
  <g
     id="Group_3680"
     data-name="Group 3680"
     transform="translate(144.20807,0.342)"
     style="fill:#000000">
    <path
       id="Path_13430"
       data-name="Path 13430"
       d="m 418.97,19.8 a 5.7,5.7 0 0 0 -4.16,-1.836 H 396.454 V 21.8 h 18.585 a 2.43,2.43 0 0 1 2.06,2.382 V 29 h -13.917 v 0.031 a 7.287,7.287 0 0 0 -6.728,7.47 7.288,7.288 0 0 0 6.728,7.47 l 1.1,0.008 H 414.3 v -3.832 h -10.015 l -1.1,0.006 a 3.688,3.688 0 0 1 0.267,-7.329 H 417.1 v 11.153 h 3.594 V 24.233 A 6.479,6.479 0 0 0 418.97,19.8 Z"
       transform="translate(-396.454,-17.965)"
       fill="#272626"
       style="fill:#000000" />
  </g>
  <g
     id="Group_3681"
     data-name="Group 3681"
     transform="translate(134.98907,7.185)"
     style="fill:#000000">
    <rect
       id="Rectangle_2351"
       data-name="Rectangle 2351"
       width="3.595"
       height="19.169001"
       fill="#272626"
       x="0"
       y="0"
       style="fill:#000000" />
  </g>
  <g
     id="Group_3682"
     data-name="Group 3682"
     transform="translate(120.21107,7.185)"
     style="fill:#000000">
    <rect
       id="Rectangle_2352"
       data-name="Rectangle 2352"
       width="3.595"
       height="19.169001"
       fill="#272626"
       x="0"
       y="0"
       style="fill:#000000" />
  </g>
</svg>
