<svg id="RESERVED" width="500" height="55.035522" viewBox="0 0 500 55.035522" version="1.1" xml:space="preserve" xmlns:xlink="http://www.w3.org/1999/xlink" xmlns="http://www.w3.org/2000/svg" xmlns:svg="http://www.w3.org/2000/svg">
	<path id="RESERVED" style="fill:#000000;stroke:#000000;stroke-width:0" d="m 308.16613,53.784153 -0.90671,-7.808509 c -0.9504,0.17921 -1.91627,0.263827 -2.88352,0.253164 -4.3454,0 -6.53409,-1.331172 -9.13177,-5.439574 -0.97172,-1.52758 -2.02565,-3.389844 -2.9241,-4.843814 -0.64839,-1.196678 -1.57918,-2.217381 -2.71153,-2.972984 7.63686,-1.829622 13.01142,-7.440975 13.01142,-15.902962 0,-9.4584739 -6.77934,-16.33586079 -19.75018,-16.33586079 H 261.15135 V 53.972306 h 10.34048 V 34.42644 h 4.65566 c 0.99477,-0.0872 1.99367,0.118326 2.87286,0.591632 0.87953,0.472961 1.60153,1.192895 2.0769,2.071055 1.0701,1.633523 4.72927,7.702222 4.72927,7.702222 4.62333,7.35137 9.80183,9.801482 16.64653,9.801482 1.92693,0.01 3.84492,-0.26245 5.69308,-0.808678 z M 282.96777,26.331918 h -11.435 V 9.2364399 h 11.3779 c 6.53444,0 9.5239,3.1936431 9.5239,8.1679251 0,6.264797 -4.08398,8.894876 -9.42587,8.894876 M 47.022915,53.784153 46.116205,45.975644 c -0.950395,0.178522 -1.916268,0.263483 -2.883517,0.253164 -4.345055,0 -6.534093,-1.331172 -9.131426,-5.439574 -0.972133,-1.52758 -2.025823,-3.389844 -2.924278,-4.843814 -0.64849,-1.196678 -1.579347,-2.217381 -2.711772,-2.972984 7.636936,-1.829622 13.011498,-7.440975 13.011498,-15.902962 0,-9.4584739 -6.779344,-16.33586079 -19.7582,-16.33586079 H 0 V 53.972306 H 10.348756 V 34.42644 h 4.65573 c 0.994664,-0.08613 1.992802,0.120046 2.872029,0.593007 0.879227,0.472962 1.601327,1.192208 2.077728,2.06968 1.069994,1.633523 4.721085,7.702222 4.721085,7.702222 4.631205,7.35137 9.760619,9.801482 16.654506,9.801482 1.926932,0.01 3.84492,-0.26245 5.693081,-0.808678 z M 21.824729,26.331918 H 10.348756 V 9.2364399 H 21.71851 c 6.534368,0 9.531981,3.1936431 9.531981,8.1679251 0,6.264797 -4.083945,8.894876 -9.425762,8.894876 M 170.77958,6.3954718 165.87901,13.183037 c -4.27798,-2.929162 -9.34607,-4.4874587 -14.53076,-4.4678523 -7.73524,0 -10.03022,2.9567833 -10.03022,5.7665533 0,9.515642 31.03797,3.985948 31.03797,22.813084 0,10.275133 -8.87861,17.413928 -21.4243,17.413928 -8.70696,0 -16.21346,-2.687109 -22.32309,-9.556575 l 5.57888,-6.468738 c 5.12931,4.810793 10.26688,7.252994 16.9076,7.252994 7.71873,0 11.51653,-3.708362 11.51653,-7.767576 0,-11.394382 -31.81398,-3.708362 -31.81398,-23.156196 C 130.79764,6.4771651 139.34948,0 151.51164,0 c 7.82468,0 15.04534,2.7525811 19.26794,6.3954718 z M 472.63703,45.234385 c 11.7604,0 17.07133,-5.929734 17.07133,-17.887715 0,-11.957843 -5.31093,-17.9285785 -17.07133,-17.9285785 h -7.73594 V 45.234385 Z M 454.5441,53.966114 V 0.71924206 h 18.09293 C 490.72995,0.71924206 500,11.745922 500,27.34667 c 0,15.600645 -9.27005,26.619444 -27.36297,26.619444 z M 429.65772,0.71917326 V 9.5895616 H 403.50209 V 23.458685 h 24.43921 v 8.535494 h -24.43921 v 13.117752 h 28.54968 v 8.862095 H 393.14509 V 0.71917326 Z m -196.34678,0 V 9.5895616 H 207.15703 V 23.344349 h 24.43852 v 8.543646 h -24.43852 v 13.223936 h 28.53867 v 8.862095 H 196.80003 V 0.71917326 Z m -128.35763,0 V 9.5895616 H 78.799395 V 22.960442 h 24.438525 v 8.54368 H 78.799395 v 13.607809 h 28.539015 v 8.862095 H 68.442741 V 0.71917326 Z M 348.0882,55.036899 h -1.91937 L 319.12405,0.72822661 h 11.90074 L 347.29362,35.131582 h 0.13071 L 363.67357,0.72822661 h 11.51618 z" />
</svg>
