<svg
   id="_4"
   data-name="4"
   version="1.1"
   viewBox="0 0 612.15 67.370002"
   width="612.15002"
   height="67.370003"
   xmlns="http://www.w3.org/2000/svg"
   xmlns:svg="http://www.w3.org/2000/svg">
  <defs
     id="defs1">
    <style
       id="style1">
      .cls-1 {
        fill: #231f20;
        stroke-width: 0px;
      }
    </style>
  </defs>
  <polygon
     class="cls-1"
     points="748.54,388.15 715.36,454.63 713.01,454.63 679.91,388.15 694.47,388.15 714.39,430.26 714.55,430.26 734.44,388.15 "
     id="polygon1"
     transform="translate(-289.18998,-387.26)"
     style="fill:#000000" />
  <polygon
     class="cls-1"
     points="385.67,442.48 420.62,442.48 420.62,453.33 372.99,453.33 372.99,388.14 417.69,388.14 417.69,398.99 385.67,398.99 385.67,415.37 415.59,415.37 415.59,425.83 385.67,425.83 "
     id="polygon2"
     transform="translate(-289.18998,-387.26)"
     style="fill:#000000" />
  <polygon
     class="cls-1"
     points="542.82,442.48 577.76,442.48 577.76,453.33 530.14,453.33 530.14,388.14 574.84,388.14 574.84,398.99 542.82,398.99 542.82,415.84 572.74,415.84 572.74,426.29 542.82,426.29 "
     id="polygon3"
     transform="translate(-289.18998,-387.26)"
     style="fill:#000000" />
  <polygon
     class="cls-1"
     points="783.21,442.48 818.16,442.48 818.16,453.33 770.53,453.33 770.53,388.14 815.23,388.14 815.23,398.99 783.21,398.99 783.21,415.97 813.14,415.97 813.14,426.43 783.21,426.43 "
     id="polygon4"
     transform="translate(-289.18998,-387.26)"
     style="fill:#000000" />
  <path
     class="cls-1"
     d="m 578.66,55.38 c 14.41,0 20.9,-7.26 20.9,-21.9 0,-14.64 -6.49,-21.94 -20.9,-21.94 h -9.47 v 43.85 h 9.47 z M 556.51,66.07 V 0.87 h 22.14 c 22.16,0 33.5,13.5 33.5,32.6 0,19.1 -11.35,32.6 -33.5,32.6 z"
     id="path4"
     style="fill:#000000" />
  <path
     class="cls-1"
     d="m 209.1,7.83 -5.98,8.31 c -5.31,-3.47 -10.92,-5.47 -17.79,-5.47 -9.47,0 -12.28,3.62 -12.28,7.06 0,11.65 37.97,4.88 37.97,27.93 0,12.58 -10.87,21.32 -26.23,21.32 -10.66,0 -19.85,-3.29 -27.33,-11.7 l 6.83,-7.92 c 6.28,5.89 12.57,8.87 20.7,8.87 9.45,0 14.1,-4.54 14.1,-9.5 0,-13.95 -38.95,-4.54 -38.95,-28.35 C 160.14,7.93 170.62,0 185.5,0 c 9.59,0 18.43,3.38 23.6,7.83 z"
     id="path5"
     style="fill:#000000" />
  <path
     class="cls-1"
     d="M 57.58,65.85 56.47,56.29 C 55.48,56.5 54.29,56.6 52.94,56.6 47.62,56.6 44.95,54.97 41.75,49.94 40.56,48.07 39.27,45.8 38.17,44.02 36.91,42.03 36.09,41.17 34.85,40.38 44.2,38.14 50.78,31.27 50.78,20.91 50.78,9.32 42.48,0.89 26.59,0.89 H 0 V 66.08 H 12.67 V 42.15 h 5.7 c 3.23,0 4.69,1.16 6.06,3.27 1.31,2.02 5.79,9.43 5.79,9.43 5.67,8.96 11.95,11.96 20.38,11.96 3.04,0 5.56,-0.51 6.97,-0.96 z M 26.73,32.24 H 12.68 V 11.31 H 26.6 c 7.99,0 11.67,3.91 11.67,10.04 0,7.67 -4.99,10.89 -11.54,10.89"
     id="path6"
     style="fill:#000000" />
  <path
     class="cls-1"
     d="m 377.3,65.85 -1.11,-9.56 c -0.99,0.21 -2.18,0.31 -3.53,0.31 -5.32,0 -7.99,-1.63 -11.19,-6.66 -1.18,-1.87 -2.48,-4.14 -3.58,-5.92 -1.26,-1.99 -2.08,-2.85 -3.32,-3.64 9.35,-2.24 15.93,-9.11 15.93,-19.47 0,-11.59 -8.3,-20.02 -24.19,-20.02 h -26.59 v 65.19 h 12.67 V 42.15 h 5.7 c 3.23,0 4.69,1.16 6.06,3.27 1.31,2.02 5.79,9.43 5.79,9.43 5.67,8.96 11.95,11.96 20.38,11.96 3.04,0 5.56,-0.51 6.97,-0.96 z M 346.45,32.24 H 332.4 V 11.31 h 13.92 c 7.99,0 11.67,3.91 11.67,10.04 0,7.67 -4.99,10.89 -11.54,10.89"
     id="path7"
     style="fill:#000000" />
</svg>
