<svg
   width="216"
   height="44"
   viewBox="0 0 216 44"
   fill="none"
   version="1.1"
   id="svg7"
   xmlns="http://www.w3.org/2000/svg"
   xmlns:svg="http://www.w3.org/2000/svg">
  <defs
     id="defs7" />
  <path
     d="M 4.76712,4.19538 C 2.12695,6.92055 0.0019531,7.64214 0.0019531,7.64214 V 0 H 7.992 C 7.62748,0.676875 6.6972,2.19594 4.76712,4.19538 Z"
     fill="#968A62"
     id="path1"
     style="fill:#000000" />
  <path
     d="m 18.6719,43.999 c 3.837,-5.6656 10.6555,-16.4665 18.8921,-15.1876 5.255,0.8443 7.0134,1.3985 7.0134,1.3985 v 1.3745 c 0,0 -3.9824,0.0697 -8.5537,3.3511 C 32.0645,37.7803 29.084,42.6983 28.3265,44 h -9.6546 z"
     fill="#968A62"
     id="path2"
     style="fill:#000000" />
  <path
     d="m 36.416,43.999 c 0.0969,-0.3858 0.7817,-2.2417 3.1048,-4.7007 2.6381,-2.7231 5.057,-3.2555 5.057,-3.2555 v 7.9562 z"
     fill="#968A62"
     id="path3"
     style="fill:#000000" />
  <path
     d="M 0.0019531,43.999 C 0.929069,42.3344 6.08509,33.6566 10.9272,28.3779 c 5.4236,-5.8829 10.824,-5.5471 12.8784,-5.1114 2.0028,0.4096 6.4751,2.6035 11.6575,-0.9888 5.1581,-3.5913 9.1152,-9.4264 9.1152,-9.4264 v 11.692 c 0,0 -2.6865,2.0514 -4.5924,2.4371 C 38.0548,27.413 34.8046,26.5947 31.92,25.9667 22.021,23.7967 14.2985,36.5742 10.2403,44 H 0.0019531 Z"
     fill="#968A62"
     id="path4"
     style="fill:#000000" />
  <path
     d="M 26.6145,0.001342 C 22.7291,5.64197 15.2753,17.4306 7.23361,15.9843 2.3199,15.1401 0.340294,14.4413 0,14.3207 V 12.9951 C 0.512021,12.9711 4.42276,12.6811 8.82024,9.40273 12.9512,6.3178 15.9095,1.27919 16.6185,0.001342 Z"
     fill="#968A62"
     id="path5"
     style="fill:#000000" />
  <path
     d="M 44.5783,0.00104 C 41.6231,6.87169 33.4835,19.5275 25.7863,20.9748 21.8735,21.7224 20.4322,21.6257 17.6224,20.6379 14.7884,19.6252 11.2422,19.4807 7.38095,22.9992 3.73886,26.2775 0.341193,30.3783 0.0019531,30.8119 V 20.0588 C 0.245321,19.8176 2.15118,18.0573 5.15693,17.4542 c 3.20276,-0.6269 6.11157,0.5542 6.11157,0.5542 7.478,1.6168 10.9979,-1.8559 15.0551,-6.1719 C 29.9162,8.07571 34.6097,0 34.6097,0 h 9.9686 z"
     fill="#968A62"
     id="path6"
     style="fill:#000000" />
  <path
     d="m 165.814,16.5195 c -2.39,-2.3238 -5.611,-3.5019 -9.579,-3.5019 -3.72,0 -6.955,1.3351 -9.615,3.9677 -2.66,2.6337 -4.01,6.1293 -4.01,10.3891 0,4.3296 1.225,7.743 3.642,10.1417 2.415,2.4018 5.756,3.6173 9.933,3.6173 4.314,0 7.631,-0.8359 9.867,-2.4881 l -2.15,-4.1767 c -1.622,1.3652 -3.885,2.0567 -6.738,2.0567 -2.509,0 -4.541,-0.6592 -6.037,-1.9548 -1.513,-1.3059 -2.342,-3.1483 -2.47,-5.4805 l -0.024,-0.4419 h 20.311 c 0.313,-1.414 0.471,-2.4922 0.471,-3.2034 -0.003,-3.5996 -1.213,-6.6035 -3.601,-8.9252 z m -17.027,8.0715 0.116,-0.5126 c 0.959,-4.2827 3.463,-6.4547 7.441,-6.4547 4.352,0 6.806,2.1866 7.288,6.4984 l 0.052,0.4648 H 148.788 V 24.591 Z M 138.334,3.70773 c 0.672,0.66336 0.997,1.43901 0.997,2.37478 0,0.93473 -0.326,1.71142 -0.997,2.37374 -0.672,0.66336 -1.459,0.98464 -2.406,0.98464 -0.948,0 -1.737,-0.32232 -2.406,-0.98464 -0.672,-0.66128 -0.998,-1.43901 -0.998,-2.37374 0,-0.93577 0.327,-1.71142 0.998,-2.37478 0.671,-0.66336 1.459,-0.98568 2.406,-0.98568 0.948,-10e-4 1.735,0.32232 2.406,0.98568 z M 132.948,40.6135 V 18.0427 h -3.619 v -4.5042 h 9.447 v 27.075 z m 48.094,-20.7824 c -1.252,1.4452 -1.885,3.2294 -1.885,5.3037 v 15.4798 h -5.753 v -27.075 h 5.753 v 3.2367 l 0.743,-0.8235 c 1.755,-1.9474 4.128,-2.9341 7.05,-2.9341 1.95,0 3.497,0.262 4.611,0.7787 l -2.411,4.7974 c -1.138,-0.6425 -2.381,-0.969 -3.707,-0.969 -1.654,-0.0011 -3.133,0.7413 -4.401,2.2053 z M 216,39.606 c -1.431,-1.151 -2.13,-3.4883 -2.13,-7.1222 v -5.9682 c 0,-5.2621 -0.969,-8.8649 -2.882,-10.7125 -1.915,-1.8487 -5.004,-2.7865 -9.184,-2.7865 -2.908,0 -5.462,0.4803 -7.601,1.4265 l 1.194,4.237 c 1.645,-0.7008 3.644,-1.0564 5.957,-1.0564 4.471,0 6.739,1.7977 6.739,5.3464 v 0.5386 l -0.529,-0.13 c -1.017,-0.2516 -1.907,-0.3795 -2.642,-0.3795 -4.412,0 -7.848,0.8921 -10.217,2.6534 -2.364,1.7551 -3.514,4.1289 -3.514,7.2491 0,2.6233 0.831,4.6695 2.471,6.0826 1.652,1.4296 3.975,2.1512 6.902,2.1512 1.556,0 3.068,-0.3005 4.499,-0.8921 1.395,-0.5791 2.384,-1.3226 2.93,-2.2157 l 0.485,-0.7861 0.284,0.8755 c 0.241,0.7455 0.717,1.4484 1.416,2.0878 0.683,0.628 1.425,0.9316 2.272,0.9316 0.813,0 1.543,-0.1029 2.164,-0.3046 0.487,-0.1612 0.952,-0.5719 1.386,-1.2259 z m -7.856,-9.103 c 0,4.1694 -2.14,6.2832 -6.367,6.2832 -3.996,0 -4.836,-2.2697 -4.836,-4.1725 0,-3.6328 2.775,-5.4774 8.241,-5.4774 0.596,0 1.455,0.1134 2.621,0.3473 l 0.34,0.0666 V 30.503 Z M 96.2669,3.70773 c 0.6721,0.66336 0.9977,1.43901 0.9977,2.37478 0,0.93473 -0.3256,1.71142 -0.9977,2.37374 -0.6701,0.66336 -1.4581,0.98464 -2.4042,0.98464 -0.9482,0 -1.7373,-0.32232 -2.4084,-0.98464 -0.6722,-0.66128 -0.9977,-1.43901 -0.9977,-2.37374 0,-0.93577 0.3255,-1.71142 0.9977,-2.37478 0.6721,-0.66336 1.4591,-0.98568 2.4084,-0.98568 0.9461,-10e-4 1.7341,0.32232 2.4042,0.98568 z M 75.9767,23.4369 c 1.9712,-0.7299 3.6305,-2.0056 4.9285,-3.7867 1.2979,-1.778 1.9532,-3.7743 1.9532,-5.9328 0,-7.29385 -4.6798,-10.83939 -14.3112,-10.83939 -1.5667,0 -3.6664,0.0655 -6.236,0.19547 -2.0364,0.1019 -3.3766,0.16428 -4.0592,0.18612 v 37.3539 h 6.2791 V 24.6399 l 0.4488,0.0239 c 1.8552,0.104 3.3144,0.1633 4.3416,0.1809 l 0.2255,0.0042 10.3247,15.7646 h 6.9028 L 75.4795,23.623 Z m -1.594,-4.7735 c -1.4107,0.8474 -3.5441,1.2602 -6.5203,1.2602 -0.6764,0 -1.6667,-0.053 -2.9415,-0.157 L 64.5311,19.7354 V 8.37203 L 64.9009,8.3242 c 0.8249,-0.10605 1.6245,-0.15908 2.3788,-0.15908 3.1628,0 5.4321,0.38263 6.9344,1.16972 1.5688,0.82246 2.3652,2.27076 2.3652,4.30556 0,2.457 -0.7406,4.1476 -2.1966,5.023 z m 51.9263,-5.1249 -12.711,27.596 h -1.824 L 99.3695,13.5385 h 6.2925 l 7.037,17.7412 7.56,-17.7412 z M 90.8791,40.6135 V 18.0427 h -3.6179 v -4.5042 h 9.4503 v 27.075 z"
     fill="#968A62"
     id="path7"
     style="fill:#000000" />
</svg>
