<svg id="RIVIERA" width="500" height="121.75892" viewBox="0 0 500 121.75892" version="1.1" xml:space="preserve" xmlns:xlink="http://www.w3.org/1999/xlink" xmlns="http://www.w3.org/2000/svg" xmlns:svg="http://www.w3.org/2000/svg">
	<path id="RIVIERA" style="fill:#000000;stroke:#000000;stroke-width:0" d="m 340.92987,43.732573 c -7.57537,-7.365545 -17.7847,-11.099665 -30.36173,-11.099665 -11.79096,0 -22.04466,4.23175 -30.47583,12.576071 -8.43116,8.347808 -12.71014,19.427505 -12.71014,32.929419 0,13.723153 3.88277,24.542312 11.54373,32.145252 7.65461,7.61278 18.24429,11.46544 31.48376,11.46544 13.67372,0 24.18732,-2.64948 31.27458,-7.88631 l -6.81467,-13.23852 c -5.14111,4.32716 -12.31394,6.51894 -21.35686,6.51894 -7.95256,0 -14.39321,-2.08941 -19.13495,-6.19596 -4.79563,-4.139192 -7.42323,-9.978885 -7.82894,-17.371055 l -0.0761,-1.400652 h 64.37798 c 0.99209,-4.481832 1.49289,-7.899308 1.49289,-10.153536 -0.01,-11.409336 -3.84474,-20.930535 -11.41374,-28.289424 z m -53.96901,25.583526 0.36768,-1.624743 c 3.03966,-13.574499 10.97637,-20.458897 23.58508,-20.458897 13.79417,0 21.5724,6.930675 23.10016,20.597409 l 0.16481,1.473236 h -47.21456 v 0.01299 z M 253.82891,3.1242308 c 2.12998,2.1025939 3.1601,4.5611037 3.1601,7.5271322 0,2.962731 -1.03329,5.424537 -3.1601,7.523835 -2.12998,2.102594 -4.62447,3.120927 -7.62609,3.120927 -3.00479,0 -5.50562,-1.021629 -7.62609,-3.120927 -2.12998,-2.096001 -3.16327,-4.561104 -3.16327,-7.523835 0,-2.9660285 1.03646,-5.4245383 3.16327,-7.5271322 C 240.70354,1.0216368 243.2012,7.3296311e-6 246.20282,7.3296311e-6 249.20761,-0.00316228 251.7021,1.0216368 253.82891,3.1242308 Z M 236.75738,120.10121 V 48.560527 H 225.28655 V 34.283959 h 29.94333 V 120.10121 Z M 389.19673,54.229062 c -3.96836,4.580723 -5.97472,10.235945 -5.97472,16.810672 V 120.1047 H 364.98723 V 34.287446 h 18.23478 V 44.54653 l 2.35502,-2.610176 c 5.56267,-6.172503 13.08416,-9.299959 22.34576,-9.299959 6.18072,0 11.08411,0.830438 14.61509,2.468177 l -7.64197,15.205898 c -3.60702,-2.036476 -7.54685,-3.071354 -11.74972,-3.071354 -5.24254,-0.0035 -9.9304,2.349633 -13.94946,6.989946 z M 500,116.90783 c -4.53568,-3.64823 -6.75127,-11.05656 -6.75127,-22.574615 v -18.91688 c 0,-16.678817 -3.07133,-28.098296 -9.13483,-33.954472 -6.06977,-5.859662 -15.86071,-8.832124 -29.10972,-8.832124 -9.2172,0 -17.31239,1.522364 -24.09222,4.521452 l 3.78455,13.429647 c 5.21398,-2.221265 11.55007,-3.348379 18.88138,-3.348379 14.17134,0 21.35999,5.698012 21.35999,16.946016 v 1.707153 l -1.67673,-0.41205 c -3.2235,-0.797474 -6.04442,-1.202868 -8.37411,-1.202868 -13.98433,0 -24.87512,2.827611 -32.3839,8.41025 -7.49297,5.562986 -11.13805,13.087012 -11.13805,22.976836 0,8.314844 2.63395,14.800504 7.83211,19.279484 5.2362,4.53128 12.59921,6.81847 21.87666,6.81847 4.93192,0 9.72438,-0.95247 14.26012,-2.82761 4.42158,-1.83552 7.55633,-4.19213 9.28693,-7.02291 l 1.5373,-2.49163 0.90014,2.77499 c 0.7639,2.36295 2.27264,4.59087 4.48817,6.61752 2.16484,1.99051 4.51669,2.95281 7.20136,2.95281 2.57689,0 4.89071,-0.32615 6.85904,-0.96546 1.5436,-0.51095 3.01747,-1.81271 4.39308,-3.88563 z M 475.09953,88.054847 c 0,13.215383 -6.78297,19.915303 -20.18089,19.915303 -12.66581,0 -15.32828,-7.19406 -15.32828,-13.225202 0,-11.514568 8.79571,-17.361235 26.12081,-17.361235 1.88905,0 4.61175,0.359434 8.30755,1.100807 l 1.07764,0.211096 v 9.359231 z M 120.49251,3.1242308 c 2.1303,2.1025939 3.16232,4.5611037 3.16232,7.5271322 0,2.962731 -1.03202,5.424537 -3.16232,7.523835 -2.12396,2.102594 -4.62161,3.120927 -7.62038,3.120927 -3.00543,0 -5.50657,-1.021629 -7.6337,-3.120927 -2.13061,-2.096001 -3.16232,-4.561104 -3.16232,-7.523835 0,-2.9660285 1.03171,-5.4245383 3.16232,-7.5271322 C 107.36873,1.0216368 109.86322,7.3296311e-6 112.87213,7.3296311e-6 115.8709,-0.00316228 118.36855,1.0216368 120.49251,3.1242308 Z M 56.180443,65.65805 c 6.24794,-2.3135 11.507277,-6.356975 15.621434,-12.002371 4.11384,-5.635571 6.190887,-11.963068 6.190887,-18.804676 0,-23.118676 -14.833152,-34.35666294 -45.360972,-34.35666294 -4.965831,0 -11.621066,0.2076096 -19.765702,0.61956414 C 6.4114917,1.4368877 2.1635774,1.6346081 0,1.7038324 V 120.10121 H 19.902313 V 69.471093 l 1.422522,0.07575 c 5.880264,0.32964 10.505363,0.517598 13.761204,0.573383 l 0.714748,0.01331 32.725296,49.967664 H 90.405282 L 54.604512,66.247914 Z M 51.128081,50.527905 c -4.471372,2.68593 -11.233423,3.994346 -20.666839,3.994346 -2.143926,0 -5.282793,-0.16799 -9.323415,-0.497629 L 19.902313,53.92573 V 17.908253 l 1.172122,-0.151602 c 2.614613,-0.336138 5.149035,-0.504222 7.539874,-0.504222 10.024866,0 17.217667,1.212789 21.979375,3.707559 4.972488,2.606879 7.496767,7.197429 7.496767,13.646955 0,7.787737 -2.347415,13.146284 -6.96237,15.920962 z M 215.71432,34.283959 175.42538,121.75258 H 169.644 L 130.32655,34.283959 h 19.94478 L 172.5759,90.516685 196.53817,34.283959 Z M 103.41527,120.10121 V 48.560527 H 91.947933 V 34.283959 h 29.953787 v 85.817251 z" />
</svg>
