<svg id="ROSSMANN" width="500" height="69.806129" viewBox="0 0 500 69.806129" version="1.1" xml:space="preserve" xmlns:xlink="http://www.w3.org/1999/xlink" xmlns="http://www.w3.org/2000/svg" xmlns:svg="http://www.w3.org/2000/svg">
	<path id="ROSSMANN" style="fill:#000000;stroke:#000000;stroke-width:0" d="M 117.0376,17.800573 C 111.03832,7.180063 99.639501,0 86.540794,0 67.192722,0 51.544298,15.606657 51.544298,34.903123 c 0,1.196677 0.05002,2.393354 0.200069,3.590031 1.799924,17.600974 16.698321,31.312977 34.796427,31.312977 8.449196,0 16.198386,-2.991693 22.247676,-7.97777 7.79921,-6.382356 12.74882,-16.105358 12.74882,-26.925238 0,-6.232772 -1.64987,-12.016789 -4.49969,-17.10255 z M 88.040614,63.623377 C 85.94082,61.529192 75.741952,51.40722 74.991925,50.609513 c -0.299871,-0.299169 -0.05002,-0.498771 0.05002,-0.797941 0.100035,-0.249151 4.349641,-8.276941 4.549711,-8.625894 0.199835,-0.39897 0.599741,-0.448754 0.649758,-0.448754 h 4.099554 c 0,0 0.449923,0 0.250087,0.448754 -0.20007,0.39897 -3.99952,7.927989 -4.099554,8.077573 -0.100035,0.199368 0,0.448754 0.100034,0.598339 0.149819,0.149584 10.948662,10.770094 13.048456,12.864279 -1.849708,0.448754 -3.749433,0.747924 -5.699409,0.847491 z M 57.643846,34.903123 c 0,-5.534632 1.649871,-10.670527 4.349407,-15.058219 3.599614,0.149585 26.697353,1.196631 26.947206,1.196631 0.250087,0 0.649992,0.0998 0.850062,0.598338 0.199835,0.498771 2.649751,6.232772 2.79957,6.531941 0.150052,0.299169 0.100035,0.897508 -0.899845,0.897508 H 65.043143 c -1.799924,0 -3.249726,1.396045 -3.249726,3.191061 v 9.723002 c 0,0.797707 0.249853,1.446063 0.649992,1.994384 0.699776,0.847724 1.949742,1.296478 2.149578,1.346262 0.350122,0.149584 0.400139,-0.09957 0.400139,-0.298936 V 32.659353 c 0,-0.299169 0.199836,-0.448754 0.399905,-0.448754 h 3.49958 c 0,0 0.399905,0 0.150052,0.348953 -0.899845,1.296478 -1.350001,2.592723 -1.350001,4.836493 0,3.490464 2.599734,5.933602 3.449795,6.53194 0.100035,0.04978 0.249854,0.29917 0.100035,0.648356 -0.150052,0.348953 -2.549951,5.035863 -2.649752,5.235231 -0.150052,0.249386 -0.250086,0.548555 0.0998,0.897508 L 81.391343,63.324208 C 67.892731,60.88107 57.593828,49.16345 57.593828,35.002924 Z M 86.540794,6.0831167 c 8.749066,0 16.448236,3.9390543 21.747736,10.0221713 H 98.239716 l 0.899845,-1.894747 c 1.049899,-2.243769 -2.899839,-4.18837 -4.049537,-1.745162 l -1.849941,3.590032 H 64.693022 C 69.992525,9.9723175 77.741711,6.0332396 86.44076,6.0332396 Z m 0.599975,43.9778413 c 0,0 -0.150052,-0.548555 -0.100035,-0.648122 l 4.149572,-8.227158 c 0.200069,-0.348953 0.449922,-0.39897 0.750027,-0.39897 h 5.949261 c 0,0 0.350122,0.199368 0.20007,0.448754 l -1.949743,4.38774 c 0,0 -0.100034,0.398971 0.149819,0.598339 l 2.649752,1.745232 c 0.350121,0.199602 0.599974,0 0.649992,-0.199368 0.100034,-0.149585 2.849586,-6.531943 2.849586,-6.531943 0.20007,-0.29917 0.40014,-0.398737 0.75003,-0.398737 h 2.94962 c 0,0 0.35012,0.09957 0.25009,0.398737 -0.15006,0.349186 -2.04978,4.587342 -2.04978,4.587342 0,0.0998 -0.10003,0.398737 0.15005,0.598339 l 2.69954,1.744998 c 0.35012,0.249386 0.54995,2.34e-4 0.64999,-0.199368 0.10003,-0.199368 2.94962,-6.681528 3.19971,-7.229849 0.75003,-1.745232 0.44992,-4.736925 -3.09968,-4.736925 h -4.39965 c -0.44993,0 -0.54996,-0.348953 -0.54996,-0.498538 V 21.939042 c 0,-0.548555 0.3001,-0.84749 0.70001,-0.897507 0.15005,0 5.74942,-0.847608 7.44931,-1.096923 2.69977,4.387785 4.34941,9.52368 4.34941,15.008295 0,11.767405 -7.04918,21.83936 -17.148243,26.326899 L 87.190786,50.110742 Z M 428.35597,3.6902065 c 0,-0.5983386 -0.50018,-1.0470926 -1.04943,-1.0470926 h -4.40106 c -0.59834,0 -1.04943,0.4986077 -1.04943,1.0470926 V 46.72078 c 0,1.146659 -0.35059,1.445829 -1.09852,0.697906 -2.35128,-2.443141 -40.2967,-42.2824868 -42.14547,-44.1772335 -0.50017,-0.5484848 -1.05177,-0.5983386 -1.30185,-0.5983386 h -3.4498 c -0.59834,0 -1.04943,0.4986077 -1.04943,1.0470926 V 65.468644 c 0,0.598339 0.50017,1.047093 1.04943,1.047093 h 4.40106 c 0.59834,0 1.04943,-0.498538 1.04943,-1.047093 v -43.77852 c 0,-1.745045 0.94893,-0.797707 1.40002,-0.299169 2.80004,2.941909 38.095,39.939103 42.34648,44.426642 0.64976,0.648356 1.14993,0.69814 1.40002,0.69814 h 2.7977 c 0.60067,0 1.05176,-0.498538 1.05176,-1.047093 V 3.6902065 Z M 141.78544,15.756569 c 0,-4.637124 3.34976,-8.2271558 7.79921,-9.2243711 4.34964,-0.947385 9.84898,0 12.6988,3.6897391 0.3999,0.498631 0.74979,1.09697 1.09968,1.695308 0.25008,0.398877 0.64999,0.797777 1.49982,0.847631 0.20007,0 1.05013,0 1.50005,0 0.44992,0 1.09992,-0.299169 1.0499,-0.947362 -0.05,-1.246531 -0.30011,-5.6842163 -0.30011,-6.3822858 0,-0.8975079 -0.3999,-0.9972154 -0.94986,-1.2465309 -2.24984,-0.9972388 -4.64951,-1.745162 -7.09919,-2.1440388 -5.69941,-1.04709252 -11.79896,-0.6980695 -17.19826,1.5457002 -4.99964,2.094185 -8.69928,6.1828242 -10.1991,11.3684333 -1.1497,4.038785 -0.79982,8.576132 1.40001,12.21618 2.04978,3.39043 5.14946,5.484615 8.64903,7.030479 3.59962,1.54563 7.29927,2.891892 10.89888,4.387738 4.44968,1.894817 7.94926,4.088569 9.04917,7.828188 1.34977,4.58734 0.54996,9.47385 -3.19971,12.864279 -5.04941,4.537557 -18.59804,3.839417 -23.14775,-2.891892 -0.84983,-1.196677 -0.99988,-1.9446 -2.29963,-1.9446 -0.80005,0 -1.94975,0 -1.94975,1.146893 v 6.930678 c 0,0.747923 0.0498,1.396045 0.84983,1.745232 1.39979,0.598338 3.04966,1.14666 4.54948,1.645431 2.44968,0.797707 4.8996,1.196677 7.44931,1.445829 16.44824,1.695449 28.39701,-6.581724 28.39701,-20.891833 0,-5.08588 -1.89972,-10.121975 -6.14933,-13.213468 -3.64963,-2.642507 -8.24912,-4.238154 -12.44871,-5.6342 -2.44969,-0.79794 -5.34952,-1.795015 -7.54912,-3.191295 -3.09991,-1.994384 -4.44968,-4.9861 -4.49969,-8.675862 M 49.894893,64.870305 C 48.844996,63.524044 30.296968,39.839884 29.297088,38.543405 28.847165,37.945067 28.996984,37.496313 30.196933,37.047559 32.846685,36.05025 42.245742,31.812096 42.7957,20.643125 43.245622,11.219292 36.696152,2.6431139 26.397249,2.6431139 H 1.0498972 C 0.39997532,2.6431139 0,3.1417216 0,3.6902065 V 65.468644 c 0,0.598339 0.49996331,1.047093 1.0498972,1.047093 h 7.8491972 c 0.5999513,0 1.0998912,-0.348953 1.0998912,-1.047093 v -25.92793 c 0,-0.548555 0.4499464,-1.047092 1.0498974,-1.047092 h 4.599541 c 0.349888,0 0.99988,0 1.649872,0.84749 0.599974,0.847725 20.747857,26.526502 20.747857,26.526502 0.49994,0.498538 0.899846,0.648123 1.349768,0.648123 h 9.599127 c 0.849828,0 1.399785,-1.047093 0.849828,-1.695215 z M 15.248519,32.510236 h -4.24963 c -0.599951,0 -0.9999034,-0.548555 -0.9999034,-1.09711 V 9.2746921 c 0,-0.5484615 0.4499464,-1.0470925 1.0498974,-1.0470925 h 6.79937 c 7.099194,0 13.798482,2.0443314 13.798482,11.2188484 0,4.637031 -2.399665,13.063788 -16.398216,13.063788 z M 499.94858,3.6902065 c 0,-0.5983386 -0.50017,-1.0470926 -1.04943,-1.0470926 h -4.39872 c -0.60068,0 -1.05177,0.4986077 -1.05177,1.0470926 V 46.72078 c 0,1.146659 -0.34825,1.445829 -1.09851,0.697906 C 489.99886,44.975545 452.10487,5.1361992 450.20467,3.2414525 449.7045,2.6929677 449.25341,2.6431139 448.75324,2.6431139 h -3.2488 c -0.60067,0 -1.04943,0.4986077 -1.04943,1.0470926 V 65.468644 c 0,0.598339 0.50018,1.047093 1.04943,1.047093 h 4.39873 c 0.60067,0 1.05176,-0.498538 1.05176,-1.047093 v -43.77852 c 0,-1.745045 0.94893,-0.797707 1.44911,-0.299169 2.80003,2.941909 38.04592,39.939103 42.34647,44.426642 0.64976,0.648356 1.14994,0.69814 1.39769,0.69814 h 2.80003 c 0.60068,0 1.05177,-0.498538 1.05177,-1.047093 V 3.6902065 Z M 190.88006,15.756569 c 0,-4.637124 3.34953,-8.2271558 7.7992,-9.2243711 4.34941,-0.947385 9.84898,0 12.69857,3.6897391 0.3999,0.498631 0.75003,1.09697 1.09991,1.695308 0.24986,0.398877 0.65,0.797777 1.49982,0.847631 0.20007,0 1.0499,0 1.49982,0 0.44993,0 1.09992,-0.299169 1.0499,-0.947362 -0.10003,-1.246531 -0.29987,-5.6842163 -0.34989,-6.3822858 0,-0.8975079 -0.3999,-0.9972154 -0.94986,-1.2465309 -2.24985,-0.9972388 -4.64951,-1.745162 -7.09943,-2.1440388 -5.69941,-1.04709252 -11.79872,-0.6980695 -17.19826,1.5457002 -4.9994,2.094185 -8.74906,6.1828242 -10.19887,11.3684333 -1.14993,4.038785 -0.79981,8.576132 1.39979,12.21618 2.04978,3.39043 5.14945,5.484615 8.64926,7.030479 3.59962,1.54563 7.29927,2.891892 10.89888,4.387738 4.44944,1.894817 7.94902,4.088569 9.09895,7.828188 1.35001,4.58734 0.54996,9.47385 -3.1997,12.864279 -5.04942,4.537557 -18.59805,3.839417 -23.14753,-2.891892 -0.80004,-1.196677 -0.94986,-1.9446 -2.29986,-1.9446 -0.79981,0 -1.94974,0 -1.94974,1.146893 v 6.930678 c 0,0.747923 0.05,1.396045 0.84982,1.745232 1.40002,0.598338 3.04989,1.14666 4.54971,1.645431 2.44969,0.797707 4.89937,1.196677 7.44909,1.445829 16.49848,1.695449 28.39724,-6.581724 28.39724,-20.891833 0,-5.08588 -1.84994,-10.121975 -6.14933,-13.213468 -3.64963,-2.642507 -8.24936,-4.238154 -12.44895,-5.6342 -2.44968,-0.79794 -5.34929,-1.795015 -7.54912,-3.191295 -3.09967,-1.994384 -4.44944,-4.9861 -4.44944,-8.675862 M 342.5645,39.839884 c 0.201,0.448754 0.14958,0.897508 -0.75026,0.897508 h -18.04833 c -0.69884,0 -0.94892,-0.349187 -0.64975,-0.997309 0.25008,-0.548555 8.79978,-20.343489 9.09895,-21.041558 0.30151,-0.648193 0.80168,-0.548462 1.00035,0 0.35059,0.7978 9.15037,20.692605 9.34904,21.091341 z M 338.01619,4.5378606 c -0.75026,-1.6454311 -1.60102,-1.8947467 -2.25078,-1.8947467 h -2.59903 c -0.25009,0 -0.60068,0.1495847 -0.85077,0.6481924 -0.25008,0.5484848 -26.4461,61.1302457 -26.8481,62.0277527 -0.29917,0.69814 -0.29917,1.196678 0.60067,1.196678 h 4.74931 c 0.4511,0 0.79935,-0.149585 1.10085,-0.847725 0.39968,-0.84749 7.49793,-17.301801 7.74802,-17.950157 0.35059,-0.847491 1.05177,-0.747923 1.5496,-0.747923 h 23.49882 c 0.44875,0 1.00034,-0.09957 1.3486,0.747923 0,0 7.70127,17.401836 7.89994,17.950157 0.25008,0.548555 0.75026,0.897508 1.20135,0.897508 h 8.89795 c 0.75026,0 1.10085,-0.648122 0.85076,-1.196677 C 364.71237,64.970106 338.66595,5.9838299 338.01619,4.5378606 Z M 291.26865,3.2913063 c -0.0982,-0.5484615 -0.44875,-0.6481924 -0.84842,-0.6481924 h -3.30022 c -0.25008,0 -0.54925,0.099801 -0.75026,0.4986077 -0.19866,0.3989002 -19.647,45.7728104 -19.99759,46.5707514 -0.35059,0.747923 -0.69884,0.648122 -1.04943,-0.149585 -0.20101,-0.448754 -21.19895,-45.9225353 -21.39762,-46.3214355 -0.201,-0.4487539 -0.50017,-0.5484848 -0.89984,-0.5484848 h -3.50122 c 0,0 -0.64976,0.049784 -0.69884,0.5484848 -0.1005,0.448754 -9.69963,62.2271915 -9.74871,62.4765775 -0.0514,0.249152 -0.10051,0.947291 0.69884,0.947291 h 4.34964 c 0.64976,0 1.10085,-0.299169 1.20135,-0.847724 0.0982,-0.747923 6.549,-41.883703 6.59809,-42.232656 0.1005,-0.747923 0.29917,-0.747923 0.64975,-0.0998 0.20101,0.349187 19.54885,42.432258 19.69843,42.731427 0.14959,0.29917 0.39967,0.448754 0.60068,0.448754 h 2.14794 c 0,0 0.40201,-0.149584 0.55159,-0.498537 0.14959,-0.349187 17.89874,-41.734119 18.19791,-42.432258 0.29917,-0.69814 0.50017,-0.69814 0.64976,0.0998 0.1005,0.398736 7.39976,41.684101 7.50027,42.182872 0.0982,0.548321 0.39967,0.648122 0.94892,0.648122 h 8.4492 c 0.60067,0 1.04943,-0.498537 0.94893,-1.047092 C 302.01771,64.172166 291.36915,3.8397911 291.26865,3.3910372 Z" />
</svg>
