<svg
   id="katman_1"
   data-name="katman 1"
   version="1.1"
   viewBox="0 0 258064 5806.4397"
   width="258064"
   height="5806.4395"
   xmlns="http://www.w3.org/2000/svg"
   xmlns:svg="http://www.w3.org/2000/svg">
  <defs
     id="defs1">
    <style
       id="style1">
      .cls-1, .cls-2 {
        fill: #1d1d1b;
        stroke-width: 0px;
      }

      .cls-2 {
        fill-rule: evenodd;
      }
    </style>
  </defs>
  <path
     class="cls-2"
     d="m 152.3,10.92 h -16.8 l -16,43.6 -15.9,-43.3 v -0.3 H 46.1 v 14.3 h 14.1 v 56.3 H 77 v -56.3 h 14.9 l 20.7,56.3 h 13.7 l 11.5,-31.4 v 31.3 h 194.6 v 0 c 0,0 16.8,0 16.8,0 l 3.3,-12.3 h 24.8 l 3.3,12.3 h 16.8 l -22.7,-70.5 h -19.5 l -8.5,26.5 v -26.5 z m 221.3,44.7 -8.7,-32.4 -8.7,32.4 z m -234.3,-9.2 v -34.1 h 206 v 67.8 h -206 v -33.8 0 z"
     id="path1"
     style="fill:#000000" />
  <path
     class="cls-2"
     d="m 0,10.92 h 26.6 c 11.7,0 21.3,9.6 21.3,21.3 v 0 c 0,9.2 -5.9,17.1 -14.1,20 l 19.4,29.2 H 33.6 L 17,53.42 v 0 28.1 H 0 Z m 16.8,12.9 h 4.9 c 5.2,0 9.5,4.3 9.5,9.5 v 0 c 0,5.2 -4.3,9.5 -9.5,9.5 h -4.9 z"
     id="path2"
     style="fill:#000000" />
  <path
     class="cls-2"
     d="m 474.1,10.92 h -22.5 v 16.1 C 445.7,15.42 434.6,7.5199996 421.7,7.5199996 402.8,7.5199996 387.5,24.62 387.5,45.62 c 0,21 15.3,38.1 34.2,38.1 18.9,0 24,-7.9 29.9,-19.5 v 17.3 h 22.5 c 18.6,0 33.9,-15.3 33.9,-33.9 v -2.8 c 0,-18.6 -15.3,-33.9 -33.9,-33.9 z m -22.5,16.4 v 14 h -29.7 v 15 h 15.6 c -2.9,7.9 -8.8,13.4 -15.7,13.4 -6.9,0 -17.5,-10.7 -17.5,-24 0,-13.3 9.4,-22.6 17.5,-22.6 8.1,0 11,4 14.1,11.2 l 15.8,-7 v 0 z m 17.9,-3.2 h -1.3 v 43.5 h 1.3 c 12,0 21.7,-9.8 21.7,-21.7 v 0 c 0,-12 -9.8,-21.7 -21.7,-21.7 v 0 z"
     id="path3"
     style="fill:#000000" />
  <polygon
     class="cls-1"
     points="184.3,39.7 160.7,39.9 160.8,49.1 186.7,49 186.7,54.8 150.5,54.8 150.5,19.3 185.6,19.3 185.6,26.3 160.8,26.3 160.7,33.5 184.3,33.6 "
     id="polygon3"
     style="fill:#000000"
     transform="translate(0,7.6199996)" />
  <path
     class="cls-1"
     d="m 206,26.92 h -10 v 27.3 c 0.2,3.8 5.8,8.9 11,9.4 5.9,0.6 12.8,1.1 18.2,-0.5 4.1,-1.2 8.8,-5.6 9.1,-9.1 v -27.1 h -10.1 v 26.3 c 0,0 -1.3,2 -1.3,2 -3,2.7 -7.8,2.9 -11.8,2 -2,-0.9 -4.7,-1.7 -5.3,-4.1 v -26.1 0 z"
     id="path4"
     style="fill:#000000" />
  <path
     class="cls-1"
     d="m 335.8,38.32 c 2.3,5.6 1.5,12.8 -2.1,17.4 -8,8.4 -20.8,10.4 -31.7,6.8 -6,-2 -12.2,-7.7 -12.7,-14.5 -1.1,-7.4 2.6,-13.6 8.6,-17.7 8.4,-4.7 21.6,-4.5 30,0 2.9,2 6.6,4.5 7.8,8 v 0 z M 318,33.92 v 0 c -5.6,-1.2 -11.6,-0.2 -15.7,3.6 -3.2,3.8 -3.2,9.7 -1.2,13.9 2,3.3 5.3,5.1 8.9,5.4 5.9,0.6 12.2,-0.2 15.5,-5.7 1.8,-3.3 1.7,-7.8 0,-11.2 -1.7,-3 -4.4,-5.1 -7.5,-6 z"
     id="path5"
     style="fill:#000000" />
  <path
     class="cls-1"
     d="m 281.7,49.92 c -0.3,-2.6 -3.8,-3.8 -4.8,-4.8 2.7,-0.5 5.3,-2.4 6.3,-5.1 0.6,-2.3 1.1,-5.6 -0.6,-7.7 -1.5,-3 -4.7,-4.2 -7.7,-5 h -31.6 c 0,-0.1 0,35.2 0,35.2 h 11.2 v -13.4 c 0,0 10,-0.5 14.6,0.5 5.3,2.3 0.8,9.4 3.8,13 h 11.5 v -0.9 c -4.2,-2.1 -1.1,-8 -2.7,-11.6 v 0 z m -8.8,-9.6 v 0 c -3.4,2.8 -11.7,1.9 -18.5,1.9 0,0 0.5,-8.3 0.3,-8.3 4.9,0 12,-0.8 18.1,1.5 0.6,1.2 1.1,3.8 0,4.9 v 0 z"
     id="path6"
     style="fill:#000000" />
  <path
     class="cls-1"
     d="m 336.8,21.82 c 0,0.7 -0.1,1.4 -0.4,2 -0.3,0.6 -0.6,1.1 -1.1,1.5 -0.4,0.4 -0.9,0.7 -1.5,0.9 -0.6,0.2 -1.2,0.3 -1.8,0.3 -0.6,0 -1.2,-0.1 -1.8,-0.3 -0.6,-0.2 -1.1,-0.5 -1.5,-0.9 -0.4,-0.4 -0.8,-0.9 -1,-1.5 -0.3,-0.6 -0.4,-1.2 -0.4,-2 0,-0.7 0.1,-1.4 0.4,-2 0.3,-0.6 0.6,-1.1 1,-1.5 0.4,-0.4 1,-0.7 1.5,-0.9 0.6,-0.2 1.2,-0.3 1.8,-0.3 0.6,0 1.2,0.1 1.8,0.3 0.6,0.2 1.1,0.5 1.5,0.9 0.4,0.4 0.8,0.9 1.1,1.5 0.3,0.6 0.4,1.3 0.4,2 z m -1.4,0 v 0 c 0,-0.7 -0.2,-1.3 -0.5,-1.9 -0.3,-0.6 -0.7,-1 -1.2,-1.3 -0.5,-0.3 -1.1,-0.5 -1.7,-0.5 -0.6,0 -0.9,0 -1.3,0.3 -0.4,0.2 -0.8,0.4 -1.1,0.7 -0.3,0.3 -0.6,0.7 -0.7,1.2 -0.2,0.5 -0.3,0.9 -0.3,1.5 0,0.7 0.1,1.4 0.4,1.9 0.3,0.6 0.7,1 1.2,1.3 0.5,0.3 1.1,0.4 1.7,0.4 v 0 c 0.6,0 1.2,-0.1 1.7,-0.4 0.5,-0.3 0.9,-0.7 1.2,-1.3 0.3,-0.6 0.5,-1.2 0.5,-1.9 v 0 z m -4.1,0.4 v 0 2.2 h -1.1 v -5.1 h 1.9 c 0.7,0 1.2,0.1 1.6,0.3 0.4,0.2 0.5,0.6 0.5,1.2 0,0.4 -0.1,0.8 -0.3,1 -0.2,0.2 -0.5,0.3 -0.9,0.4 l 1.3,2.2 H 333 l -1.2,-2.2 z m 0,-0.9 h 1 c 0.3,0 0.5,0 0.6,-0.1 0.1,0 0.2,-0.3 0.2,-0.5 0,-0.2 0,-0.4 -0.3,-0.5 -0.2,0 -0.4,-0.1 -0.7,-0.1 h -0.8 z"
     id="path7"
     style="fill:#000000" />
</svg>
