<svg
   id="katman_1"
   data-name="katman 1"
   version="1.1"
   viewBox="0 0 508 76.2"
   sodipodi:docname="RTV EURO AGD Black.svg"
   inkscape:version="1.4 (86a8ad7, 2024-10-11)"
   xmlns:inkscape="http://www.inkscape.org/namespaces/inkscape"
   xmlns:sodipodi="http://sodipodi.sourceforge.net/DTD/sodipodi-0.dtd"
   xmlns="http://www.w3.org/2000/svg"
   xmlns:svg="http://www.w3.org/2000/svg">
  <sodipodi:namedview
     id="namedview7"
     pagecolor="#ffffff"
     bordercolor="#000000"
     borderopacity="0.25"
     inkscape:showpageshadow="2"
     inkscape:pageopacity="0.0"
     inkscape:pagecheckerboard="0"
     inkscape:deskcolor="#d1d1d1"
     inkscape:zoom="1.6752028"
     inkscape:cx="11.938853"
     inkscape:cy="64.768278"
     inkscape:window-width="2560"
     inkscape:window-height="991"
     inkscape:window-x="2319"
     inkscape:window-y="-9"
     inkscape:window-maximized="1"
     inkscape:current-layer="katman_1" />
  <defs
     id="defs1">
    <style
       id="style1">
      .cls-1, .cls-2 {
        fill: #1d1d1b;
        stroke-width: 0px;
      }

      .cls-2 {
        fill-rule: evenodd;
      }
    </style>
  </defs>
  <path
     class="cls-2"
     d="M152.3,3.3h-16.8l-16,43.6L103.6,3.6v-.3h-57.5v14.3h14.1v56.3h16.8V17.6h14.9l20.7,56.3h13.7l11.5-31.4v31.3h194.6,0s16.8,0,16.8,0l3.3-12.3h24.8l3.3,12.3h16.8L374.7,3.3h-19.5l-8.5,26.5V3.3h-194.4,0ZM373.6,48l-8.7-32.4-8.7,32.4h17.4ZM139.3,38.8V4.7h206v67.8h-206v-33.8h0Z"
     id="path1"
     style="fill:#000000" />
  <path
     class="cls-2"
     d="M0,3.3h26.6c11.7,0,21.3,9.6,21.3,21.3h0c0,9.2-5.9,17.1-14.1,20l19.4,29.2h-19.6l-16.6-28h0v28.1H0V3.3h0ZM16.8,16.2h4.9c5.2,0,9.5,4.3,9.5,9.5h0c0,5.2-4.3,9.5-9.5,9.5h-4.9v-19h0Z"
     id="path2"
     style="fill:#000000" />
  <path
     class="cls-2"
     d="M474.1,3.3h-22.5v16.1c-5.9-11.6-17-19.5-29.9-19.5-18.9,0-34.2,17.1-34.2,38.1s15.3,38.1,34.2,38.1,24-7.9,29.9-19.5v17.3h22.5c18.6,0,33.9-15.3,33.9-33.9v-2.8c0-18.6-15.3-33.9-33.9-33.9h0ZM451.6,19.7v14h-29.7v15h15.6c-2.9,7.9-8.8,13.4-15.7,13.4s-17.5-10.7-17.5-24,9.4-22.6,17.5-22.6,11,4,14.1,11.2l15.8-7h0ZM469.5,16.5h-1.3v43.5h1.3c12,0,21.7-9.8,21.7-21.7h0c0-12-9.8-21.7-21.7-21.7h0Z"
     id="path3"
     style="fill:#000000" />
  <polygon
     class="cls-1"
     points="185.6 26.3 160.8 26.3 160.7 33.5 184.3 33.6 184.3 39.7 160.7 39.9 160.8 49.1 186.7 49 186.7 54.8 150.5 54.8 150.5 19.3 185.6 19.3 185.6 26.3 185.6 26.3"
     id="polygon3"
     style="fill:#000000" />
  <path
     class="cls-1"
     d="M206,19.3h-10v27.3c.2,3.8,5.8,8.9,11,9.4,5.9.6,12.8,1.1,18.2-.5,4.1-1.2,8.8-5.6,9.1-9.1v-27.1h-10.1v26.3c0,0-1.3,2-1.3,2-3,2.7-7.8,2.9-11.8,2-2-.9-4.7-1.7-5.3-4.1v-26.1h0Z"
     id="path4"
     style="fill:#000000" />
  <path
     class="cls-1"
     d="M335.8,30.7c2.3,5.6,1.5,12.8-2.1,17.4-8,8.4-20.8,10.4-31.7,6.8-6-2-12.2-7.7-12.7-14.5-1.1-7.4,2.6-13.6,8.6-17.7,8.4-4.7,21.6-4.5,30,0,2.9,2,6.6,4.5,7.8,8h0ZM318,26.3h0c-5.6-1.2-11.6-.2-15.7,3.6-3.2,3.8-3.2,9.7-1.2,13.9,2,3.3,5.3,5.1,8.9,5.4,5.9.6,12.2-.2,15.5-5.7,1.8-3.3,1.7-7.8,0-11.2-1.7-3-4.4-5.1-7.5-6h0Z"
     id="path5"
     style="fill:#000000" />
  <path
     class="cls-1"
     d="M281.7,42.3c-.3-2.6-3.8-3.8-4.8-4.8,2.7-.5,5.3-2.4,6.3-5.1.6-2.3,1.1-5.6-.6-7.7-1.5-3-4.7-4.2-7.7-5h-31.6c0-.1,0,35.2,0,35.2h11.2v-13.4c0,0,10-.5,14.6.5,5.3,2.3.8,9.4,3.8,13h11.5v-.9c-4.2-2.1-1.1-8-2.7-11.6h0ZM272.9,32.7h0c-3.4,2.8-11.7,1.9-18.5,1.9,0,0,.5-8.3.3-8.3,4.9,0,12-.8,18.1,1.5.6,1.2,1.1,3.8,0,4.9h0Z"
     id="path6"
     style="fill:#000000" />
  <path
     class="cls-1"
     d="M336.8,14.2c0,.7-.1,1.4-.4,2-.3.6-.6,1.1-1.1,1.5-.4.4-.9.7-1.5.9-.6.2-1.2.3-1.8.3-.6,0-1.2-.1-1.8-.3-.6-.2-1.1-.5-1.5-.9-.4-.4-.8-.9-1-1.5-.3-.6-.4-1.2-.4-2,0-.7.1-1.4.4-2,.3-.6.6-1.1,1-1.5.4-.4,1-.7,1.5-.9.6-.2,1.2-.3,1.8-.3.6,0,1.2.1,1.8.3.6.2,1.1.5,1.5.9.4.4.8.9,1.1,1.5.3.6.4,1.3.4,2h0ZM335.4,14.2h0c0-.7-.2-1.3-.5-1.9-.3-.6-.7-1-1.2-1.3-.5-.3-1.1-.5-1.7-.5s-.9,0-1.3.3c-.4.2-.8.4-1.1.7-.3.3-.6.7-.7,1.2-.2.5-.3.9-.3,1.5,0,.7.1,1.4.4,1.9.3.6.7,1,1.2,1.3.5.3,1.1.4,1.7.4h0c.6,0,1.2-.1,1.7-.4.5-.3.9-.7,1.2-1.3.3-.6.5-1.2.5-1.9h0ZM331.3,14.6h0v2.2h-1.1v-5.1h1.9c.7,0,1.2.1,1.6.3.4.2.5.6.5,1.2,0,.4-.1.8-.3,1-.2.2-.5.3-.9.4l1.3,2.2h-1.3l-1.2-2.2h-.5ZM331.3,13.7h1c.3,0,.5,0,.6-.1.1,0,.2-.3.2-.5s0-.4-.3-.5c-.2,0-.4-.1-.7-.1h-.8v1.2h0Z"
     id="path7"
     style="fill:#000000"
     inkscape:export-filename="path7.svg"
     inkscape:export-xdpi="96"
     inkscape:export-ydpi="96" />
</svg>
