<svg
   version="1.1"
   id="svg1"
   width="733.56689"
   height="240.74796"
   viewBox="0 0 733.56689 240.74795"
   xmlns="http://www.w3.org/2000/svg"
   xmlns:svg="http://www.w3.org/2000/svg">
  <defs
     id="defs1" />
  <g
     id="g1"
     transform="translate(-928.71503,-236.91754)">
    <path
       style="fill:#000000"
       d="m 981.08179,476.41225 c -3.49936,-1.81998 -5.53231,-3.94661 -7.82242,-8.18286 -2.02347,-3.74303 -4.02737,-10.07588 -14.98584,-47.35907 -6.88364,-23.41971 -12.16429,-41.26525 -14.79542,-50 -15.21453,-50.50865 -16.35299,-55.67776 -13.55924,-61.56516 1.84522,-3.88851 5.86468,-7.65602 10.39187,-9.74047 3.96071,-1.82363 4.50265,-1.85607 32,-1.91602 l 27.97106,-0.061 0.2226,10.84132 0.2225,10.84132 h -24.42254 c -21.13038,0 -24.42257,0.16109 -24.42257,1.19502 0,0.65726 3.8106,14.06726 8.46799,29.8 4.6574,15.73274 9.31826,31.51438 10.35747,35.0703 2.26468,7.74919 8.89872,30.19296 13.34113,45.13468 4.042,13.59498 5.29526,17.88556 6.54294,22.4 l 0.99494,3.6 68.77124,0.20441 68.7713,0.20441 4.5519,-15.40441 c 2.5035,-8.47242 9.4661,-31.96441 15.4724,-52.20441 6.0062,-20.24 11.3784,-38.42 11.9381,-40.4 0.5597,-1.98 2.6765,-9.26693 4.7041,-16.19318 2.0276,-6.92625 3.6865,-12.77625 3.6865,-13 0,-0.22375 -10.9594,-0.40682 -24.3543,-0.40682 h -24.3543 l -0.2457,-10.01454 c -0.1351,-5.50799 -0.1257,-10.36799 0.021,-10.8 0.1676,-0.49356 10.4956,-0.78546 27.7914,-0.78546 24.7804,0 27.9107,0.14663 31.395,1.47058 5.0563,1.92122 8.4572,5.0339 10.9368,10.00966 2.654,5.32585 2.5419,8.16079 -0.7685,19.44673 -1.5283,5.21017 -4.5495,15.50303 -6.7137,22.87303 l -3.9351,13.4 h 231.3885 c 228.1029,0 231.4535,0.0224 235.9676,1.57545 5.6222,1.93433 9.9613,5.2782 13.2064,10.17751 l 2.465,3.72135 v 41.47875 41.47874 l -1.9363,3.06717 c -2.6932,4.26642 -7.9722,8.58315 -12.2995,10.05761 -3.2773,1.1167 -37.3281,1.24292 -334.1068,1.2385 -297.8484,-0.004 -330.69428,-0.1281 -332.85745,-1.25315 z m 376.92551,-18.28243 c 13.458,-4.16654 18.9439,-14.47248 18.9815,-35.6595 0.047,-26.62761 -7.2589,-36.23299 -29.3391,-38.57156 -9.1513,-0.96922 -19.7186,0.0776 -26.5377,2.62897 -4.864,1.81984 -10.0011,6.38116 -12.3317,10.94942 -3.8616,7.56936 -5.3551,27.33241 -2.9303,38.77453 2.8944,13.65772 8.6615,19.74426 21.4788,22.66821 6.4981,1.4824 24.8663,1.00935 30.6785,-0.79007 z m -24.2338,-11.57526 c -8.6822,-2.23137 -12.1134,-10.69973 -11.2169,-27.68424 0.2554,-4.84 1.0343,-10.45814 1.7308,-12.48475 2.4892,-7.24318 8.5354,-10.38624 18.7657,-9.75516 13.0331,0.80399 16.552,7.06973 15.8755,28.26818 -0.4188,13.12252 -1.7902,16.92121 -7.2078,19.96607 -3.6478,2.05019 -13.0871,2.93899 -17.9473,1.6899 z m 160.3051,11.46904 c 2.3082,-0.76682 5.5939,-2.59017 7.3016,-4.05188 10.4659,-8.95847 9.1372,-29.66737 -2.2771,-35.49053 -1.7601,-0.89793 -7.9506,-2.73033 -13.7568,-4.07201 -16.2334,-3.75122 -18.6645,-5.26312 -18.6645,-11.60744 0,-3.62237 1.582,-5.56355 5.5837,-6.85167 4.45,-1.43239 18.3335,0.0236 28.1321,2.95035 1.5004,0.44813 1.9274,-0.0529 3.4,-3.98881 2.408,-6.43576 2.2519,-7.42916 -1.3158,-8.37471 -6.8833,-1.82428 -10.6749,-2.42061 -18.6204,-2.92855 -19.0331,-1.21675 -31.226,3.85162 -34.35,14.27874 -1.5163,5.06083 -1.1466,12.22317 0.8429,16.33308 3.176,6.56068 8.095,9.20581 23.5765,12.67803 14.3191,3.2115 16.351,4.64957 16.351,11.57212 0,4.78305 -1.3858,6.98587 -5.3464,8.49845 -4.458,1.7025 -16.1316,1.12024 -25.3816,-1.266 -3.4804,-0.89785 -6.4248,-1.63245 -6.5432,-1.63245 -0.1184,0 -0.787,1.96665 -1.4858,4.37034 -0.6987,2.40368 -1.4835,4.92564 -1.744,5.60436 -1.842,4.80027 32.5315,7.88752 44.2978,3.97858 z m -251.9754,-11.26881 0.2215,-11.31554 15.3785,-0.35851 c 16.6113,-0.38725 19.4624,-0.97033 25.381,-5.19073 1.8704,-1.33369 4.0079,-3.97596 5.3552,-6.61969 2.094,-4.10881 2.2406,-5.03531 2.2152,-14 -0.025,-8.89277 -0.1898,-9.91225 -2.2331,-13.83855 -2.8263,-5.43101 -7.482,-8.49898 -14.7983,-9.75155 -3.3951,-0.58127 -13.212,-0.82255 -26.9414,-0.66219 l -21.6,0.25229 -0.2086,35.6 c -0.1148,19.58 -0.031,36.06267 0.1856,36.62815 0.294,0.76642 2.4854,0.97007 8.6087,0.8 l 8.2143,-0.22815 z m 0.1786,-36.68447 v -12.4 h 11.3474 c 9.8252,0 11.8044,0.22124 14.7542,1.64919 4.1499,2.00895 5.4357,5.14645 4.9366,12.04634 -0.4037,5.58032 -2.3412,8.66757 -6.3131,10.05932 -1.5718,0.55072 -7.3807,0.97396 -13.7251,1 l -11,0.0451 z m 198.7144,47.13457 c 0.2671,-0.69598 0.4856,-3.57598 0.4856,-6.4 v -5.13457 h -15.1904 -15.1904 l -0.2096,-30.2 -0.2096,-30.2 h -8.4 -8.4 l -0.2086,35.6 c -0.1148,19.58 -0.036,36.05 0.1749,36.6 0.2945,0.76812 5.7493,1.00001 23.523,1.00001 20.3622,0 23.1978,-0.15189 23.6251,-1.26544 z m 101.2856,-15.53457 v -16.8 h 3.227 c 3.9538,0 5.011,1.0296 14.373,13.99754 3.74,5.18051 8.4274,11.62037 10.4165,14.31079 l 3.6166,4.89167 9.7834,0.22463 c 8.3124,0.19085 9.7835,0.0421 9.7835,-0.98951 0,-1.05849 -12.4204,-17.67587 -23.0472,-30.83512 -6.1819,-7.65511 -6.4605,-6.3385 4.3226,-20.42907 11.9443,-15.60782 14.7616,-19.66385 14.2423,-20.50414 -0.2267,-0.36673 -4.6209,-0.65894 -9.7649,-0.64935 l -9.3528,0.0174 -9.8263,14.70707 c -5.4045,8.08888 -10.2645,14.86673 -10.8,15.06189 -0.5355,0.19515 -2.3237,0.18974 -3.9737,-0.012 l -3,-0.36686 v -14.73954 -14.73954 l -8.6,0.22707 -8.6,0.22706 -0.2081,36.6 -0.208,36.60001 h 8.808 8.8081 z m 80.4,-20 v -36.4 h -8.4 -8.4 l -0.2081,36.62715 -0.2081,36.62715 8.6081,-0.22715 8.6081,-0.22715 z m -568.8,9.87942 c -16.865,-2.69111 -30.6526,-11.78482 -39.1635,-25.83053 -5.2629,-8.68544 -8.7458,-23.59177 -6.9291,-29.65546 1.8683,-6.23574 8.63,-9.0251 14.5086,-5.98515 3.1381,1.62278 4.0751,3.63018 4.8279,10.34273 0.8722,7.77726 3.2518,13.66513 7.7514,19.17934 16.5833,20.3226 48.4913,14.41431 57.0874,-10.57067 0.8345,-2.42559 1.5376,-5.8838 1.5624,-7.68492 0.069,-5.01295 1.6498,-8.61424 4.6732,-10.64706 4.7824,-3.2155 11.5018,-1.7371 14.1994,3.12411 2.5883,4.66423 0.2702,19.15902 -4.6892,29.32176 -3.7827,7.75154 -14.957,18.79746 -23.0285,22.76403 -3.3,1.62171 -8.16,3.49598 -10.8,4.16503 -5.1322,1.30066 -16.0511,2.10691 -20,1.47679 z m 188.8,-85.19799 c -11.3011,-0.73255 -20.6752,-2.95992 -21.4997,-5.10848 -0.3584,-0.9339 1.122,-6.77287 3.087,-12.17604 0.2865,-0.78771 1.0142,-0.75187 3.3888,0.1669 1.6631,0.6435 6.0337,1.72489 9.7123,2.40309 12.2719,2.26251 21.1616,1.25047 23.2472,-2.64658 0.9419,-1.76004 1.118,-5.89295 0.3699,-8.68306 -0.7554,-2.81728 -3.4261,-3.99537 -15.1188,-6.66922 -13.3129,-3.04431 -16.9474,-4.52875 -20.9925,-8.57388 -3.8983,-3.8983 -5.2733,-8.53027 -4.8748,-16.42205 0.2469,-4.88863 0.7239,-6.61556 2.7209,-9.85002 4.7844,-7.74895 16.2762,-11.36715 33.1655,-10.44215 7.5859,0.41547 17.4198,1.97966 20.9323,3.32952 2.2235,0.85447 2.3891,2.80244 0.6729,7.91661 -2.4327,7.24956 -1.8756,6.98346 -10.0135,4.78266 -9.7866,-2.64668 -21.8591,-2.92176 -25.0092,-0.56985 -4.4518,3.32372 -3.6399,8.83398 1.6759,11.37526 1.8347,0.87709 8.1958,2.70527 14.1358,4.06264 18.2045,4.15996 23.1828,9.07014 23.1955,22.87802 0.01,11.19711 -5.382,19.55573 -14.3955,22.31438 -6.0107,1.83961 -14.8426,2.53177 -24.4,1.91225 z m 54.543,-1.68143 c -1.2548,-0.92081 -1.3461,-3.91428 -1.1529,-37.8 l 0.2099,-36.8 9.4,-0.22539 9.4,-0.22539 v 14.87139 14.87139 l 3.3878,-0.246 3.3878,-0.246 9.707,-14.4 9.7069,-14.4 h 10.3053 c 9.7376,0 10.318,0.0892 10.5372,1.61988 0.1412,0.98537 -1.5541,3.96229 -4.3278,7.6 -2.508,3.28906 -7.9584,10.41434 -12.1119,15.83394 l -7.552,9.85381 3.1219,3.74619 c 1.717,2.0604 6.6946,8.42618 11.0613,14.14618 4.3667,5.72 9.4778,12.30401 11.358,14.63113 1.8802,2.32712 3.4185,4.74446 3.4185,5.37186 0,2.18726 -3.0889,2.8521 -12.1879,2.62325 l -8.995,-0.22624 -10.2029,-14 c -13.4104,-18.4013 -13.9879,-19.04599 -17.6142,-19.66553 l -3,-0.51254 v 17.28904 17.28903 h -8.2471 c -5.3375,0 -8.7279,-0.3528 -9.6099,-1 z m 80.4489,0.33554 c -0.7921,-0.50283 -0.9635,-8.60006 -0.8,-37.78775 l 0.2081,-37.14779 h 9.2 9.2 l 0.2096,30.2 0.2096,30.2 h 15.2725 15.2725 l -0.2821,6.82927 c -0.2052,4.96659 -0.6094,7.03615 -1.4821,7.58775 -1.4576,0.92128 -45.5684,1.03249 -47.0081,0.11852 z m 57.8652,-0.59268 c -1.1053,-1.10538 -1.2571,-5.5768 -1.2571,-37.04 0,-26.76445 0.242,-36.02481 0.96,-36.74286 1.3745,-1.37447 53.5055,-1.37447 54.88,0 0.5925,0.59245 0.96,3.50222 0.96,7.6 v 6.64 h -18.4 -18.4 v 7.6 7.6 h 16.8 16.8 v 7.2 7.2 h -16.8 -16.8 v 8 8 h 18.4 18.4 v 6.77185 c 0,5.87637 -0.2046,6.88137 -1.5474,7.6 -0.9742,0.52137 -11.0291,0.82815 -27.1429,0.82815 -22.2019,0 -25.7621,-0.16667 -26.8526,-1.25714 z m 71.2859,0.25714 c -1.2548,-0.92081 -1.3461,-3.91428 -1.1529,-37.8 l 0.2099,-36.8 23.5326,-0.2123 c 25.7102,-0.23193 30.4475,0.32615 36.1263,4.25593 5.6338,3.89866 8.4091,12.33853 7.7795,23.6587 -0.6845,12.31062 -5.5086,19.17249 -15.6892,22.31697 -4.2657,1.31755 -7.4344,1.5807 -19.0335,1.5807 h -13.9157 v 11.17185 c 0,10.22652 -0.1309,11.24193 -1.5474,12 -2.2151,1.1855 -14.6382,1.0546 -16.3096,-0.17185 z m 40.572,-38.46326 c 4.8269,-1.45706 6.4942,-4.33209 6.4389,-11.10293 -0.043,-5.32085 -0.1947,-5.78018 -2.6127,-7.94067 l -2.5664,-2.29314 h -11.9874 -11.9874 v 10.66667 c 0,5.86666 0.24,10.90666 0.5333,11.2 0.8992,0.89917 18.8697,0.46985 22.1817,-0.52993 z m -535.8231,20.99262 c -4.2367,-3.33257 -4.4924,-4.72831 -4.4863,-24.48963 0,-15.39836 0.252,-19.26753 1.5874,-24.83752 2.6513,-11.05924 9.1883,-21.82583 17.5139,-28.84612 5.4026,-4.55552 15.0257,-9.38506 21.7456,-10.91348 6.9452,-1.57965 19.0154,-1.59627 25.1794,-0.0347 14.6996,3.72401 28.3508,14.63963 34.6916,27.73967 4.95,10.22665 5.6465,14.76423 5.6626,36.89211 0.011,15.47403 -0.2134,19.47921 -1.1997,21.38646 -2.8285,5.46984 -11.5295,6.37515 -15.7605,1.63984 -2.2224,-2.48732 -2.226,-2.5106 -2.2771,-14.67865 -0.086,-20.33565 -0.9978,-30.04152 -3.2939,-35.0449 -2.5692,-5.59868 -9.0132,-12.61235 -14.1629,-15.41519 -14.3628,-7.81722 -32.8229,-4.06227 -42.3783,8.62014 -6.4364,8.54273 -6.8314,10.34239 -7.2981,33.25257 -0.3612,17.73124 -0.6002,20.67168 -1.8268,22.4767 -2.8134,4.1401 -9.8303,5.29414 -13.6969,2.25266 z m 22.6994,-8.12936 c -0.01,-0.11 -0.2101,-4.97 -0.4564,-10.8 l -0.4476,-10.6 h 26.8563 26.8564 v 10.8 10.8 h -26.4 c -14.52,0 -26.4039,-0.09 -26.4087,-0.2 z"
       id="path1" />
  </g>
</svg>
