<svg
   version="1.1"
   id="svg1"
   width="1664.2804"
   height="396.14682"
   viewBox="0 0 1664.2804 396.14682"
   xmlns="http://www.w3.org/2000/svg"
   xmlns:svg="http://www.w3.org/2000/svg">
  <defs
     id="defs1" />
  <g
     id="g1"
     transform="translate(-2173.7176,164.26705)">
    <path
       style="fill:#000000"
       d="m 2330.52,230.67553 c -19.0109,-2.72377 -35.7487,-10.84951 -53.2029,-25.82862 -24.9667,-21.42638 -50.1192,-58.87947 -68.6642,-102.24403 -4.8768,-11.403826 -12.4809,-31.155696 -12.4809,-32.419746 0,-0.40346 6.4125,1.48931 14.25,4.20616 53.4769,18.53762 117.7437,32.154056 158.0993,33.497066 21.0341,0.70001 31.6809,-0.53395 40.4698,-4.69043 6.8866,-3.256866 10.5578,-7.546736 12.7364,-14.883016 0.8417,-2.83426 2.9309,-6.74837 4.6427,-8.69802 4.9597,-5.64878 9.2849,-7.28587 22.2526,-8.42267 31.083,-2.72489 59.0533,-8.82182 103.7831,-22.62256 52.2918,-16.13388 87.2799,-34.60671 113.8512,-60.11048 11.2332,-10.78182 11.0216,-10.87935 8.4455,3.8927997 -3.7874,21.7185603 -17.3282,50.1579103 -35.7365,75.0562703 -41.2474,55.789616 -106.7615,106.785836 -172.5549,136.753056 -20.6321,9.39743 -41.2918,16.7269 -61.2392,21.48771 -23.7236,5.66207 -55.352,7.79169 -74.652,5.02651 z m 1149.5571,-110.42 c -4.9268,-0.9626 -9.6546,-3.8964 -13.0008,-8.06763 -2.1437,-2.67223 -4.1087,-8.2749 -8.3085,-23.689306 -5.8867,-21.60661 -8.5946,-28.15568 -13.7897,-33.35075 -5.6724,-5.67237 -10.8143,-7.33482 -24.0561,-7.77765 l -11.75,-0.39294 v 34.10532 34.105326 h -20.5 -20.5 v -83.920536 -83.92055 l 2.75,-0.57806 c 13.41,-2.81882 65.5249,-3.50159 81.75,-1.07102 21.8162,3.26813 35.8313,10.24402 43.4237,21.6137 8.0643,12.0764 9.3669,28.3910097 3.2954,41.2720697 -3.9466,8.3727803 -13.9565,18.6677903 -22.4667,23.1065603 -3.1612,1.64881 -5.7487,3.267 -5.75,3.59597 0,0.32896 1.8017,1.41164 4.0066,2.40594 5.2587,2.37133 12.0986,9.78513 15.809,17.13545 2.7022,5.35306 18.182,56.207456 18.182,59.731776 0,1.69809 -8.1144,4.34789 -17.5,5.71471 -6.6522,0.96875 -6.5416,0.96893 -11.5949,-0.0184 z M 3444.5182,19.173614 c 12.3945,-3.84805 18.3695,-12.4140903 17.4572,-25.0273403 -0.7664,-10.5948197 -7.402,-18.3322697 -18.4847,-21.5540997 -5.8892,-1.71204 -22.8359,-2.06396 -29.3187,-0.60885 l -3.5,0.7856 -0.2678,24.8639097 -0.2678,24.8639003 13.7678,-0.59881 c 9.8444,-0.42817 15.7188,-1.20452 20.614,-2.72431 z M 2811.172,117.10362 c -17.5146,-1.48305 -32.0079,-5.75616 -37.718,-11.12055 -3.5031,-3.29093 -4.6266,-7.961026 -3.3488,-13.919286 0.8937,-4.16725 5.5969,-17.47865 6.6047,-18.69311 0.1448,-0.17448 2.6545,0.89453 5.5772,2.37558 13.8855,7.0363 27.4659,10.44165 41.6409,10.44165 22.6175,0 32.2383,-5.45748 32.2424,-18.28984 0,-8.25174 -4.8448,-15.04032 -14.1178,-19.77105 -2.1187,-1.08091 -11.1702,-4.45054 -20.1145,-7.48808 -8.9442,-3.03753 -19.5947,-7.16945 -23.6679,-9.18203 -8.2848,-4.09363 -17.9518,-12.45673 -21.6056,-18.69147 -3.657,-6.2401803 -5.7893,-16.7391103 -5.1947,-25.57753 2.0819,-30.9479 31.8333,-47.50867 78.943,-43.94278 13.2524,1.00312 29.8689,4.65473 35.11,7.7157 1.7282,1.00937 4.1999,3.38588 5.4925,5.28115 1.9778,2.89993 2.2714,4.3174 1.8531,8.94593 -0.4568,5.05374 -3.4131,14.48104 -5.6237,17.93373 -0.7671,1.19817 -2.0493,0.91227 -7.8039,-1.74019 -9.7247,-4.4824 -15.4339,-6.06405 -25.929,-7.1832 -16.0548,-1.71201 -30.6367,1.23434 -36.2336,7.32119 -3.1561,3.4324 -3.9876,11.0635197 -1.6897,15.5071297 2.4906,4.81636 7.5356,7.55565 26.7605,14.5303103 28.6367,10.38916 40.9161,17.34747 48.2844,27.36123 13.2882,18.05888 10.422,45.97816 -6.3103,61.469336 -15.3449,14.20665 -38.9864,19.6091 -73.1512,16.71618 z m 451.2119,0.011 c -25.487,-2.46242 -43.8186,-10.56906 -59.7587,-26.426716 -7.2876,-7.24987 -9.9523,-10.76339 -13.7032,-18.06821 -7.7239,-15.0421 -9.2512,-21.97136 -9.2428,-41.93179 0.01,-20.23003 1.1924,-25.8738703 8.6971,-41.46013 4.453,-9.24844 6.094,-11.50728 14.1661,-19.5 18.2945,-18.1147 39.68,-26.14454 72.6296,-27.27103 24.2927,-0.83053 40.493,2.02411 46.6973,8.22851 2.7403,2.74025 3.3027,4.05506 3.3027,7.72115 0,4.48979 -1.6761,11.14719 -5.1419,20.42368 l -1.9211,5.14219 -8.3925,-3.29473 c -12.3578,-4.85148 -21.5447,-6.69531 -33.557,-6.73495 -17.0141,-0.0561 -28.073,4.13991 -38.5439,14.62458 -11.0086,11.02312973 -16.2726,26.97257 -15.1241,45.82493 1.9498,32.00297 23.3895,52.27045 55.1805,52.16347 4.95,-0.0167 10.9125,-0.57354 13.25,-1.23752 l 4.25,-1.20724 v -17.46145 -17.46146 h -12.5 -12.5 v -14.5 -14.5 h 32 32 v 44.45765 44.457656 l -6.75,1.98615 c -9.4736,2.78756 -21.8148,4.91738 -35.25,6.08338 -12.8469,1.11495 -17.7453,1.10539 -29.7881,-0.0581 z m 334.7881,0.45854 c -13.8871,-1.68713 -26.704,-6.13684 -36.985,-12.84034 -35.1786,-22.937406 -48.3645,-77.448276 -28.5545,-118.044916 14.8523,-30.43682 44.1817,-45.97546 83.4429,-44.20782 23.8638,1.07441 40.4131,7.86042 55.1785,22.62587 8.0446,8.04453 12.9578,15.52498 17.2598,26.2783997 5.0973,12.74112 6.0783,18.8929903 6.0286,37.8035503 -0.041,15.68669 -0.3211,18.53074 -2.7007,27.44755 -8.7682,32.85688 -31.1449,53.669756 -63.9395,59.471196 -6.7531,1.19463 -24.6865,2.07924 -29.7301,1.46651 z m 28.2968,-34.323156 c 10.9992,-4.25186 19.0348,-14.60748 23.3272,-30.0621 2.556,-9.20286 2.6393,-37.74007 0.1365,-46.7896703 -5.8774,-21.2520397 -17.7364,-31.8898797 -36.7596,-32.9745297 -23.0749,-1.31567 -37.3333,9.08734 -43.6342,31.8355997 -2.6729,9.6499503 -2.4375,35.5964803 0.4181,46.0827103 4.9139,18.04473 13.9784,28.61971 28.7152,33.50006 6.0575,2.00604 20.6511,1.17019 27.7968,-1.59207 z m 124.5553,33.859716 c -5.3063,-0.43907 -13.5214,-1.71828 -18.2557,-2.84268 -18.8628,-4.4799 -25.1444,-10.63399 -22.6632,-22.203256 0.8937,-4.16725 5.5969,-17.47865 6.6047,-18.69311 0.1448,-0.17448 2.6545,0.89453 5.5772,2.37558 13.8855,7.0363 27.4659,10.44165 41.641,10.44165 22.6174,0 32.2382,-5.45748 32.2423,-18.28984 0,-8.25174 -4.8448,-15.04032 -14.1177,-19.77105 -2.1188,-1.08091 -11.1703,-4.45054 -20.1145,-7.48808 -20.5732,-6.98682 -29.5485,-11.42917 -36.9658,-18.29631 -7.2949,-6.75376 -10.2534,-11.7009 -12.3653,-20.6770303 -5.8661,-24.9315597 6.7476,-45.6791997 33.0649,-54.3868597 17.2776,-5.7167 45.8505,-5.98091 66.9861,-0.61942 11.3485,2.87878 15.1322,4.85388 18.3573,9.58266 1.9778,2.89993 2.2714,4.3174 1.8531,8.94593 -0.4568,5.05374 -3.413,14.48104 -5.6237,17.93373 -0.7671,1.19817 -2.0493,0.91227 -7.8038,-1.74019 -9.7247,-4.4824 -15.434,-6.06405 -25.929,-7.1832 -16.0549,-1.71201 -30.6368,1.23434 -36.2337,7.32119 -3.1561,3.4324 -3.9876,11.0635197 -1.6897,15.5071297 2.4906,4.81636 7.5356,7.55565 26.7606,14.5303103 28.6367,10.38916 40.916,17.34747 48.2844,27.36123 13.2881,18.05888 10.4219,45.97816 -6.3104,61.469336 -15.364,14.22439 -38.819,19.57534 -73.2991,16.72228 z m -683.1854,-2.58849 c -0.3667,-0.36666 -0.6667,-38.157516 -0.6667,-83.979666 v -83.31301 l 4.25,-2.2616 c 3.5936,-1.9123 5.7945,-2.26295 14.25,-2.27032 11.9754,-0.0105 16.6887,1.87169 20.2335,8.07968 l 2.2336,3.91159 0.017,64.25 0.016,64.25 31.75,0.0564 c 34.0181,0.0605 37.0766,0.43816 40.4537,4.99549 2.3679,3.1954 4.0799,14.742626 3.2171,21.698066 l -0.6512,5.25 h -57.2182 c -31.4699,0 -57.5181,-0.3 -57.8847,-0.66667 z M 2922.172,29.187904 v -85 h 57.3601 57.3601 l 0.5564,5.39133 c 0.6432,6.23154 -0.5169,16.95085 -2.236,20.66257 -2.4695,5.33151 -2.9699,5.40773 -39.0406,5.9461 l -33.5,0.5 V -5.8120963 11.687904 l 26.25,0.2666 26.25,0.26661 v 15.46679 15.46679 l -26.25,0.26661 -26.25,0.2666 -0.271,19.7139 -0.2711,19.7139 35.9417,0.2861 35.9416,0.2861 2.4814,2.33224 c 3.2425,3.0476 4.6774,9.0636 4.6774,19.610576 v 8.55718 h -59.5 -59.5 z m -660.5,18.37213 c -27.104,-1.60597 -73.3556,-5.90724 -74.3744,-6.91659 -1.7186,-1.70285 -9.0675,-37.5213303 -11.7881,-57.45554 -2.1428,-15.70105 -2.4329,-54.64787 -0.4952,-66.5 4.3808,-26.796364 12.2462,-44.603104 25.1297,-56.891874 12.3977,-11.82545 33.4746,-18.14403 76.028,-22.79219 17.6025,-1.92275 79.6893,-1.60158 105,0.54316 76.8997,6.51622 145.607,21.0446 199,42.07917 15.9227,6.27286 38.8729,18.11241 50.9792,26.299094 6.3136,4.26945 11.4886,8.18725 11.5,8.70621 0.049,2.23503 -98.5417,28.45273 -129.4792,34.43165 -28.2358,5.4568 -46.0462,7.29362 -76.2283,7.86155 -24.5171,0.46133 -28.0163,0.33299 -30.2159,-1.10824 -1.3682,-0.8965 -4.9902,-5.43004 -8.0489,-10.07454 -6.346,-9.63642 -11.4501,-14.43396 -19.9588,-18.7603 -9.0317,-4.59229 -18.3046,-5.7246 -55.5293,-6.78071 -18.4353,-0.52304 -44.1872,-1.25838 -57.2262,-1.6341 -21.0541,-0.60666 -24.2106,-0.49095 -28.2032,1.03383 -5.2229,1.99464 -6.2348,4.10699 -4.2466,8.86523 4.5866,10.97751 25.2944,15.46408 81.6572,17.69201 32.9374,1.30197 48.0441,4.13855 56.9048,10.68506 4.8946,3.61625 6.2673,5.36422 12.8353,16.34499 11.4204,19.0934097 13.4543,20.5334297 28.7599,20.3625097 11.3911,-0.12721 23.8206,-1.91454 72.5,-10.4253197 87.5749,-15.31101 112.2641,-20.24097 137.1772,-27.39163 15.6275,-4.48546 33.5418,-10.79752 39.7372,-14.00132 1.7993,-0.93044 3.444,-1.51911 3.655,-1.30816 0.2109,0.21095 1.7781,3.4591 3.4825,7.21811 2.4665,5.43981 2.8284,7.01244 1.7735,7.70623 -7.5276,4.9506 -26.6416,15.34519 -40.8254,22.2017 -69.7961,33.73963 -168.1332,59.84761 -257,68.2321 -16.458,1.55279 -95.2769,2.79842 -112.5,1.77791 z m 79.5,-23.8678 c 31.7074,-4.39425 41,-8.68836 41,-18.9462003 0,-2.82428 -0.7076,-5.18799997 -2.0726,-6.92327 -2.7264,-3.46602 -8.266,-3.50911 -20.4344,-0.15895 -18.8952,5.20214 -27.4361,6.02702 -61.993,5.98736 -28.2808,-0.0325 -33.5322,-0.29397 -45.1832,-2.25 -7.2508,-1.21729997 -13.9229,-2.21326997 -14.827,-2.21326997 -2.581,0 -7.4898,5.52045997 -7.4898,8.42307997 0,1.4173 0.8689,3.4458303 1.9309,4.5078403 3.8536,3.85357 29.224,10.45209 50.0691,13.02233 10.5597,1.30202 45.3075,0.44869 59,-1.44892 z m 13.9363,-41.48606 c 1.8827,-0.53995 3.7853,-1.55245 4.2281,-2.25 1.13,-1.78034 1.0288,-6.53867 -0.1873,-8.81109 -2.2019,-4.11415 -4.2251,-4.36807 -40.4771,-5.07999 -26.1628,-0.51379 -39.1661,-1.21473 -51.5,-2.77611 -20.9148,-2.64765 -24.0313,-2.6509 -27.3652,-0.0285 -2.009,1.58034 -2.6273,2.94597 -2.603,5.75 0.075,8.61819 5.8568,10.88067 33.4682,13.09544 14.7478,1.18295 80.3894,1.26089 84.4363,0.10025 z"
       id="path1" />
  </g>
</svg>
