<svg id="SELGROS" width="500" height="83.791214" viewBox="0 0 500 83.791214" version="1.1" xml:space="preserve" xmlns:xlink="http://www.w3.org/1999/xlink" xmlns="http://www.w3.org/2000/svg" xmlns:svg="http://www.w3.org/2000/svg">
	<path id="SELGROS" style="fill:#000000;stroke:#000000;stroke-width:0" d="m 335.16484,83.791216 c 5.21978,0 11.26374,-2.472528 11.26374,-2.472528 l -6.59341,-22.802196 c -2.47253,-8.516484 -6.31868,-12.912088 -11.81319,-14.56044 V 43.4066 c 6.86814,-2.472528 15.38462,-10.164836 15.38462,-19.5055 0,-16.208792 -12.36264,-23.07692416 -37.08791,-23.07692416 -10.43956,0 -20.05495,0.54945056 -26.37363,1.64835166 V 81.043964 h 19.23077 V 49.175832 h 5.76923 c 9.06594,0 13.46154,3.846152 15.93407,13.46154 l 3.84615,14.285712 c 1.92308,5.21978 6.04396,6.868132 10.43956,6.868132 M 307.41759,37.362643 h -7.69231 V 14.56044 c 1.64835,-0.549451 4.67033,-1.098901 8.51648,-1.098901 10.43956,0 15.93407,4.395604 15.93407,12.087918 0,7.692307 -6.04395,11.813186 -16.75824,11.813186 m 84.34065,45.054949 c 26.64838,0 40.93406,-17.307696 40.93406,-42.032968 C 432.6923,18.131869 419.23076,0 393.13186,0 c -26.64834,0 -40.93405,18.131869 -40.93405,40.384624 0.27473,21.153844 12.91209,42.032968 39.56043,42.032968 m 1.09892,-14.835168 c -14.28572,0 -20.05496,-12.63736 -20.05496,-27.747252 0,-14.835166 5.49451,-25.274732 20.05496,-25.274732 14.28572,0 19.7802,11.813193 19.7802,26.098908 0,15.934068 -5.76922,26.923076 -19.7802,26.923076 M 90.384608,47.52748 H 115.10988 V 32.692314 H 90.384608 V 16.208792 h 27.747252 c 5.21978,0 7.41758,-1.923077 7.41758,-9.6153852 0,-1.6483516 0,-3.8461539 -0.27472,-5.4945056 H 71.428572 V 80.76924 h 55.494498 c 0.27473,-1.373628 0.27473,-3.571428 0.27473,-5.494508 0,-7.41758 -2.1978,-9.34066 -7.41759,-9.34066 H 90.109884 Z m 48.626372,33.516484 h 54.12088 c 0.27473,-1.648352 0.27473,-3.571428 0.27473,-5.494504 0,-7.417584 -2.1978,-9.34066 -7.41758,-9.34066 H 158.24175 V 9.0659344 C 158.24175,2.1978022 153.57142,0 148.07692,0 c -4.12088,0 -6.31868,0.82417584 -9.06594,2.1978022 z m 328.57146,1.373628 C 490.10992,82.417592 500,70.879128 500,58.241764 500,45.604404 492.58242,39.28572 476.0989,33.516489 464.56046,29.395611 460.16486,28.571435 460.16486,22.527473 c 0,-4.120879 3.57142,-7.692308 14.83516,-7.692308 8.7912,0 15.1099,3.021978 18.95602,5.219781 0,0 3.29672,-5.494506 3.29672,-9.89011 0,-2.7472532 -1.37362,-5.494506 -5.49452,-6.8681325 -4.12086,-1.3736265 -10.43956,-3.02197822 -20.60438,-3.02197822 -20.60438,0 -31.04398,9.34065952 -31.04398,22.25274772 0,13.186818 8.5165,19.230775 23.6264,23.626379 12.9121,3.846156 16.20878,7.417584 16.20878,12.912088 0,5.219784 -3.02198,8.516484 -15.3846,8.516484 -9.61538,0 -16.48352,-3.2967 -21.7033,-6.31868 0,0 -3.57142,7.142856 -3.57142,10.989012 0,3.571428 1.92306,5.21978 5.49448,6.868132 4.67034,1.923076 11.81318,3.296704 22.80222,3.296704 m -439.285736,0 c 22.527472,0 32.417584,-11.538464 32.417584,-24.175828 0,-12.63736 -7.417584,-18.956044 -23.9011,-24.725275 -11.538462,-4.120878 -15.934067,-4.945054 -15.934067,-10.989016 0,-4.120879 3.571429,-7.692308 14.835165,-7.692308 8.79121,0 15.10989,3.021978 18.956046,5.219781 0,0 3.296704,-5.494506 3.296704,-9.89011 0,-2.7472532 -1.373628,-5.494506 -5.494508,-6.8681325 -4.12088,-1.3736265 -10.43956,-3.02197822 -20.604396,-3.02197822 -20.604396,0 -31.04395616,9.34065952 -31.04395616,22.25274772 0,13.186818 8.51648376,19.230775 23.62637416,23.626379 12.912088,3.846156 16.20879,7.417584 16.20879,12.912088 0,5.219784 -3.021976,8.516484 -15.384614,8.516484 -9.615385,0 -16.4835172,-3.2967 -21.7032974,-6.31868 0,0 -3.5714286,7.142856 -3.5714286,10.989012 0,3.571428 1.923077,5.21978 5.4945056,6.868132 4.3956044,1.923076 11.8131874,3.296704 22.8021984,3.296704 m 209.340656,0 c 10.43956,0 20.32967,-1.92308 26.64835,-4.12088 V 36.813193 h -30.21978 v 13.461539 h 12.08791 v 16.208792 c -1.92307,0.824176 -5.21978,1.373628 -8.24176,1.373628 -16.20879,0 -26.0989,-10.989012 -26.0989,-26.648352 0,-15.109893 9.06594,-26.373635 25,-26.373635 6.59341,0 12.91209,1.648352 19.78022,4.945055 1.64836,-3.571428 3.57143,-9.065934 3.57143,-12.087912 0,-2.4725276 -1.64835,-4.6703298 -5.21978,-5.769231 C 250.82417,0.54945056 245.05494,0 239.28571,0 c -29.94505,0 -47.8022,15.934066 -47.8022,42.032976 0,11.53846 4.67033,22.252748 12.36264,29.12088 8.51648,7.41758 18.95605,11.263736 33.79121,11.263736" />
</svg>
