<svg
   version="1.1"
   id="svg1"
   width="563.2666"
   height="117.96322"
   viewBox="0 0 563.2666 117.96322"
   xmlns="http://www.w3.org/2000/svg"
   xmlns:svg="http://www.w3.org/2000/svg">
  <defs
     id="defs1" />
  <g
     id="g1"
     transform="translate(-35.344772,-121.437)">
    <path
       style="fill:#000000"
       d="m 39.15085,237.62855 c -4.438838,-3.02338 -4.795803,-4.21617 -2.102942,-7.02691 2.731903,-2.85149 3.858818,-2.99285 6.609583,-0.8291 1.808601,1.42264 3.24142,1.5995 12.926183,1.59554 12.660421,-0.005 16.024783,-0.73381 18.840693,-4.08033 2.443428,-2.90385 2.628235,-6.16613 0.502408,-8.86868 -2.068046,-2.6291 -9.322865,-6.35263 -17.650987,-9.05936 -16.729749,-5.43736 -22.598682,-10.47294 -22.714728,-19.48938 -0.109911,-8.53979 5.121948,-14.49112 14.200055,-16.15281 2.57693,-0.47169 9.984927,-0.74227 16.462215,-0.6013 11.031566,0.2401 11.962017,0.3829 14.702145,2.25632 4.069398,2.78225 4.247259,3.87639 1.135916,6.98773 l -2.68164,2.68164 -2.146697,-1.68859 c -2.020727,-1.5895 -2.920661,-1.67369 -15.335939,-1.43468 -12.843906,0.24726 -13.24152,0.30627 -15.185907,2.2539 -1.098166,1.1 -2.217279,3.10448 -2.48692,4.45439 -0.968213,4.84721 5.955648,9.90641 19.6515,14.35917 13.218688,4.29762 19.981821,8.9139 21.601573,14.74449 2.28931,8.24076 -0.805906,15.43204 -8.401573,19.5198 -2.914734,1.56863 -4.626329,1.74497 -19.200001,1.97816 -15.626916,0.25004 -16.063539,0.21273 -18.724937,-1.6 z m 60.185643,-0.1718 -2.260705,-1.94348 -0.244234,-22.27036 c -0.134329,-12.2487 -0.01593,-23.50478 0.263106,-25.01352 0.683728,-3.69687 9.93955,-13.34745 13.92217,-14.51595 1.57243,-0.46135 6.27896,-0.72678 10.45896,-0.58985 l 7.6,0.24895 v 4 4 l -8,0.22993 -8,0.22993 -3.8,3.74 -3.8,3.74 v 6.23007 6.23007 h 15.2 15.2 v 4 4 h -15.22322 -15.22322 l 0.22322,10.6 0.22322,10.6 17.6,0.4 17.6,0.4 v 3.6 3.6 l -19.7393,0.21384 -19.73929,0.21384 z m 95.414147,0.11579 c -0.63913,-0.99 -2.48574,-4.86 -4.10358,-8.6 -1.61785,-3.74 -3.35323,-7.16 -3.8564,-7.6 -0.55441,-0.4848 -6.02475,-0.70626 -13.88427,-0.56209 l -12.96941,0.23791 -0.23059,6.96209 -0.2306,6.96209 -3.8,0.24383 -3.8,0.24383 v -24.92161 -24.92162 l 5.30472,-5.49473 c 3.16538,-3.27876 6.43859,-5.86895 8.11628,-6.42263 4.18427,-1.38094 22.87461,-0.55523 26.979,1.19188 3.97731,1.69302 8.00355,5.48833 10.27011,9.68105 1.4874,2.75144 1.72989,4.48963 1.72989,12.4 0,10.43226 -0.68168,12.42311 -6.22021,18.16603 l -3.24623,3.36602 4.20224,9.27716 c 2.31123,5.10244 4.00248,9.79773 3.75833,10.43398 -0.28506,0.74285 -1.59141,1.15681 -3.65058,1.15681 -2.44779,0 -3.48167,-0.42598 -4.3687,-1.8 z m -5.59848,-26.9231 c 5.06828,-2.30176 7.12363,-6.26477 7.12363,-13.73532 0,-5.22068 -0.29434,-6.5032 -2.12861,-9.27497 -3.23906,-4.89456 -6.07349,-5.86661 -17.10658,-5.86661 h -9.39338 l -3.88571,3.88572 -3.88572,3.88571 v 11.31429 11.31428 l 13,-0.0176 c 10.94072,-0.0148 13.519,-0.25327 16.27637,-1.50553 z m 30.18058,27.78115 c -3.27797,-1.60176 -3.53905,-3.89415 -3.29175,-28.90247 l 0.2348,-23.74498 6.20483,-6.2053 6.20482,-6.2053 14.83597,-0.2641 c 16.31911,-0.2905 17.15438,-0.0859 17.15438,4.20206 0,4.25859 -0.69261,4.46204 -15.19007,4.46204 h -13.27007 l -3.91781,3.97762 -3.9178,3.97761 -0.0521,5.82239 -0.0521,5.82238 15.4,0.21728 15.4,0.21727 v 3.96545 3.96545 l -15.4,0.21728 -15.4,0.21727 -0.22623,9.00358 c -0.13343,5.31009 0.12425,9.65846 0.62815,10.59999 0.80081,1.49633 1.683,1.59643 14.07006,1.59643 h 13.21569 l -0.24383,3.8 -0.24384,3.8 -15.2,0.15489 c -9.44669,0.0963 -15.85976,-0.16749 -16.94305,-0.69684 z m 51.51403,0.44626 c -0.91742,-0.91742 -0.68863,-61.78964 0.23875,-63.52247 0.98403,-1.83868 5.27695,-2.76636 7.9986,-1.72847 1.31022,0.49965 8.56096,9.8431 21.19168,27.30802 l 19.2,26.5485 0.21062,-26.84237 0.21063,-26.84237 1.98937,-0.4993 c 1.09416,-0.27461 2.88938,-0.27341 3.98938,0.003 l 2,0.50197 v 31.18476 c 0,30.11809 -0.0547,31.23949 -1.6,32.78476 -1.89442,1.89441 -6.11149,2.11306 -8.49916,0.44067 -0.91034,-0.63762 -3.81651,-4.14762 -6.45814,-7.8 -2.64164,-3.65237 -11.06691,-15.28067 -18.72284,-25.84067 l -13.91986,-19.2 -0.4,26.8 -0.4,26.8 -3.22903,0.23764 c -1.77596,0.13071 -3.48596,-0.0193 -3.8,-0.33333 z m 70.31462,-0.76974 c -0.26708,-0.69599 -0.48559,-12.04755 -0.48559,-25.22569 0,-18.46571 0.25064,-24.5506 1.09297,-26.53457 1.73213,-4.07974 10.89076,-12.34867 14.4082,-13.00855 4.3572,-0.81741 21.98697,0.0987 25.69883,1.33544 1.76,0.5864 4.88879,2.74517 6.95288,4.79728 5.91123,5.87692 6.31453,8.16296 6.06025,34.35142 l -0.21313,21.9501 h -3.6 -3.6 l -0.4,-6.8 -0.4,-6.8 h -18.4 -18.4 l -0.20063,6.8 c -0.30093,10.1998 -0.38811,10.4 -4.52902,10.4 -2.45279,0 -3.64438,-0.37841 -3.98476,-1.26543 z m 45.78305,-35.33457 c -0.27653,-9.72038 -0.53072,-11.38454 -2.1851,-14.30569 -3.13617,-5.53757 -6.20586,-6.69431 -17.76499,-6.69431 h -9.86359 l -3.82748,3.76993 -3.82748,3.76993 v 12.23007 12.23007 h 18.89078 18.89079 z m 23.10699,34.99522 -2.17563,-1.71135 v -25.12694 -25.12694 l 5.29285,-5.6107 c 3.59989,-3.81607 6.25366,-5.89856 8.2967,-6.51067 3.82551,-1.14615 23.26215,-0.4782 27.43042,0.94266 4.26772,1.45476 8.92092,5.70636 11.1097,10.15086 1.73264,3.51827 1.89032,4.95729 2.14192,19.54687 0.31756,18.41424 -0.48081,22.6642 -5.24898,27.942 -5.70307,6.31261 -7.11404,6.67581 -27.04698,6.96227 -16.99307,0.24422 -17.7023,0.19199 -19.8,-1.45806 z m 36.7613,-8.20445 c 6.09534,-3.28352 7.83281,-9.65283 7.27449,-26.66709 -0.32245,-9.82648 -0.60339,-11.69155 -2.18503,-14.5057 -3.08831,-5.49489 -6.15137,-6.61798 -18.0496,-6.61798 h -10.20536 l -3.88572,3.88572 -3.88571,3.88571 v 20.38095 c 0,11.20953 0.27,20.65358 0.6,20.9868 0.33,0.33321 6.72,0.47362 14.2,0.31203 10.89766,-0.23543 14.10409,-0.56536 16.13693,-1.66044 z m 73.46908,8.85558 c -0.20864,-0.57549 -0.47534,-4.46635 -0.59268,-8.64635 l -0.21333,-7.6 h -18.4 -18.4 l -0.20462,5.2 c -0.33441,8.49802 -0.48969,8.8 -4.52503,8.8 -2.45279,0 -3.64438,-0.37841 -3.98476,-1.26543 -0.26707,-0.69599 -0.48559,-11.32755 -0.48559,-23.62569 0,-17.11312 0.25648,-22.96436 1.09297,-24.93457 0.60113,-1.41587 3.4213,-4.79677 6.26703,-7.51311 6.19368,-5.91206 7.32761,-6.21445 21.31666,-5.68456 11.82279,0.44783 15.9684,1.91876 20.57476,7.30027 4.80371,5.61205 5.20036,8.40813 4.96091,34.97022 l -0.21233,23.55287 -3.40732,0.24635 c -2.26496,0.16377 -3.5345,-0.10445 -3.78667,-0.8 z m -0.53737,-35.64635 c -0.27653,-9.72038 -0.53072,-11.38454 -2.1851,-14.30569 -3.13617,-5.53757 -6.20586,-6.69431 -17.76498,-6.69431 h -9.8636 l -3.82748,3.76993 -3.82748,3.76993 v 12.23007 12.23007 h 18.89079 18.89078 z m 45.07081,16.34844 c -2.24761,-2.39247 -2.19447,-3.01315 0.47709,-5.57267 l 2.21654,-2.12358 2.64193,2.4691 2.64193,2.4691 -2.20814,2.30481 c -2.67109,2.78801 -3.51375,2.85421 -5.76935,0.45324 z m 24.8,-21.6 c -2.33177,-2.48206 -2.19399,-3.81361 0.67945,-6.56654 l 2.41889,-2.31744 2.94888,2.94888 2.94888,2.94888 -2.31745,2.41889 c -2.77958,2.90126 -4.35992,3.03551 -6.67865,0.56733 z m -33.98388,-7.58606 c -2.63065,-2.7458 -2.66622,-3.40374 -0.30401,-5.62293 2.39617,-2.25108 3.01203,-2.19564 5.59842,0.50396 l 2.14932,2.24341 -2.64408,2.56274 -2.64408,2.56275 z m -23.4059,-9.02194 -2.34967,-2.45957 2.68693,-2.40683 2.68692,-2.40682 2.31308,2.21606 c 2.79652,2.67924 2.86372,3.52051 0.46151,5.77727 -2.42403,2.27726 -3.00413,2.20522 -5.79877,-0.72011 z m 32.83323,-0.75828 -2.31644,-2.41785 2.56677,-2.56677 2.56677,-2.56677 2.56677,2.56677 2.56677,2.56677 -2.31644,2.41785 c -1.27405,1.32981 -2.54174,2.41784 -2.8171,2.41784 -0.27536,0 -1.54305,-1.08803 -2.8171,-2.41784 z m -17.4365,-15.02935 -2.15294,-2.24719 2.24704,-2.15281 c 2.7428,-2.62776 3.40124,-2.66306 5.62005,-0.30125 2.19553,2.33704 2.18006,3.05561 -0.11211,5.20899 -2.39668,2.25157 -3.01187,2.19581 -5.60204,-0.50774 z m -8.9635,-8.97065 -2.31644,-2.41785 2.56677,-2.56677 2.56677,-2.56677 2.56677,2.56677 2.56677,2.56677 -2.31644,2.41785 c -1.27405,1.32981 -2.54174,2.41784 -2.8171,2.41784 -0.27536,0 -1.54305,-1.08803 -2.8171,-2.41784 z m 18.95655,0.56628 c -2.22361,-2.36693 -2.19612,-3.84051 0.11211,-6.00898 2.33704,-2.19553 3.05561,-2.18007 5.20899,0.11211 2.22361,2.36692 2.19612,3.84051 -0.11211,6.00898 -2.33703,2.19553 -3.0556,2.18007 -5.20899,-0.11211 z m -38.65252,-5.22248 -2.68693,-2.40682 2.34967,-2.45957 c 2.81568,-2.94737 3.63408,-3.03155 5.91088,-0.608 2.25983,2.40547 2.19871,3.00909 -0.57362,5.66515 l -2.31308,2.21607 z m -16.30403,-0.9438 -2.31644,-2.41785 2.56677,-2.56677 2.56677,-2.56677 2.56677,2.56677 2.56677,2.56677 -2.31644,2.41785 c -1.27405,1.32981 -2.54174,2.41784 -2.8171,2.41784 -0.27536,0 -1.54305,-1.08803 -2.8171,-2.41784 z m 40.16677,-20.62593 c -2.71264,-2.83139 -2.69052,-3.33871 0.26922,-6.17433 l 2.4189,-2.31744 2.83835,2.83835 2.83836,2.83836 -2.12836,2.52942 c -2.61267,3.10497 -3.49659,3.14546 -6.23647,0.28564 z"
       id="path1" />
  </g>
</svg>
