<svg id="SERENDA" width="500" height="67.173019" viewBox="0 0 500 67.173019" version="1.1" xml:space="preserve" xmlns:xlink="http://www.w3.org/1999/xlink" xmlns="http://www.w3.org/2000/svg" xmlns:svg="http://www.w3.org/2000/svg">
	<path id="SERENDA" style="fill:#000000;stroke:#000000;stroke-width:0" d="M 4.8429822,66.061229 C 2.7770697,64.969569 0,62.063578 0,60.993389 c 0,-0.975197 4.4932751,-5.301592 5.5061356,-5.301592 0.5012412,0 1.2306215,0.384718 1.6208476,0.854874 1.807032,2.177391 3.3556478,2.420713 15.4047998,2.420713 13.271853,0 15.62753,-0.459401 18.36972,-3.582618 1.718514,-1.957272 2.559778,-4.844156 2.028494,-6.960949 C 42.024166,44.814721 34.744497,40.372534 24.020969,36.885181 20.567955,35.762255 15.53174,33.781508 12.829381,32.483502 3.6457552,28.072542 0.54184754,24.041824 0.55126486,16.539366 0.55797981,11.196447 2.0335879,7.7440333 5.6838526,4.5309559 10.059119,0.67968495 11.472977,0.39285275 27.338516,0.1380667 36.747999,-0.01304703 42.054793,0.1167754 43.610904,0.53561373 46.180809,1.227636 50.225662,4.5457507 50.225662,5.9619504 c 0,1.0722633 -4.349974,5.5094276 -5.401164,5.5094276 -0.395685,0 -1.449327,-0.614173 -2.341433,-1.364828 C 40.896857,8.7718578 40.648131,8.7398117 31.212672,8.6551378 18.416074,8.5402739 15.896498,8.6900773 13.751426,9.6914788 11.148072,10.907158 9.2808289,13.908742 9.2808289,16.878061 c 0,2.148949 0.2668729,2.675772 2.3557041,4.650132 3.105616,2.935472 8.763892,5.748655 18.116712,9.007372 4.20367,1.464624 8.871381,3.196372 10.372692,3.848269 4.396312,1.909012 8.283216,5.172042 9.957838,8.359515 1.308007,2.48961 1.497298,3.468082 1.501692,7.762103 0.0044,4.455726 -0.144202,5.16762 -1.597067,7.643035 -1.802653,3.071354 -1.972138,3.261993 -4.795879,5.394673 -4.195999,3.169037 -7.12605,3.615773 -23.540396,3.589077 C 8.1168546,67.1104 6.6514226,67.016827 4.8429822,66.061229 Z m 61.0850668,0.240537 c -3.133257,-1.7001 -3.145971,-1.812944 -3.145971,-27.924228 0,-23.193828 0.0345,-23.984064 1.137087,-26.041241 1.676106,-3.1272575 10.17882,-11.1445287 12.504595,-11.79069273 2.844951,-0.79039906 18.192221,-0.69644431 19.004998,0.11633792 0.818029,0.81802321 0.867544,6.79220171 0.06043,7.29101901 -0.327078,0.2021583 -4.154677,0.4281191 -8.505781,0.5021474 l -7.911093,0.1346266 -3.273157,3.2150978 c -4.528373,4.448083 -4.828117,5.170786 -4.828117,11.641544 v 5.478036 l 15.69552,0.144891 15.695516,0.144835 v 3.821518 3.821518 L 86.803046,37.13014 71.24401,37.403106 71.09496,47.431751 c -0.103061,6.934362 0.04389,10.261157 0.476297,10.782139 0.507782,0.611825 3.893483,0.753494 18.009088,0.753494 16.628055,0 17.408305,0.04586 17.948875,1.055994 0.77241,1.443224 0.71364,5.674261 -0.09,6.477872 -0.48613,0.486151 -5.73147,0.649494 -20.335932,0.63328 C 70.760533,67.116514 67.169022,66.975118 65.928049,66.301766 Z M 160.78954,63.19835 c -1.01423,-2.1769 -2.95774,-6.414691 -4.31897,-9.417311 l -2.47487,-5.459311 -13.66984,-0.145873 -13.66984,-0.145818 v 6.997253 c 0,4.714443 -0.21373,7.21104 -0.65512,7.652425 -0.36031,0.360315 -2.07135,0.655118 -3.80231,0.655118 -2.5528,0 -3.25393,-0.199429 -3.71233,-1.055995 -0.78882,-1.473905 -0.7605,-45.441503 0.0311,-48.292574 0.87682,-3.157938 10.22777,-12.673026 13.25569,-13.48837411 1.39,-0.37423577 6.41902,-0.52671433 13.45705,-0.40786513 l 11.23767,0.18976566 4.17222,2.06247308 c 6.91826,3.4199853 10.30123,8.4437525 11.44566,16.9969645 0.82665,6.178248 -0.0136,12.81404 -2.21074,17.462371 -1.64407,3.478018 -2.95426,5.109096 -6.00814,7.479584 l -1.82325,1.415326 4.39884,9.912198 c 2.41941,5.451777 4.25767,10.280226 4.0851,10.729964 -0.23699,0.617667 -1.24101,0.817696 -4.10382,0.817696 h -3.79002 z m -5.53863,-24.453619 c 3.15117,-1.114573 6.70119,-4.940622 7.69762,-8.296078 1.94658,-6.554776 0.55587,-13.960277 -3.38488,-18.024407 C 156.2962,9.054541 154.9864,8.7285655 144.25356,8.6140837 l -9.50281,-0.1013794 -4.04737,4.1401227 -4.04736,4.140178 V 28.369038 39.94507 l 13.23883,-0.225742 c 9.31304,-0.158757 13.86665,-0.447773 15.35606,-0.974597 z m 30.64939,26.620802 c -1.61536,-1.615356 -1.84749,-2.239956 -2.18449,-5.877058 -0.2074,-2.238317 -0.29448,-13.405065 -0.19353,-24.815025 0.16083,-18.180216 0.29682,-20.947868 1.09956,-22.383175 1.43929,-2.5734104 9.78619,-10.5108664 12.03232,-11.44200653 1.6504,-0.68421545 4.67693,-0.84144361 16.19679,-0.84144361 7.79191,0 14.55567,0.14909379 15.03063,0.33138018 0.66216,0.25407634 0.86355,1.14088686 0.86355,3.80230096 0,2.8728531 -0.18195,3.5683148 -1.05599,4.0360685 -0.64513,0.3453015 -6.23781,0.5651479 -14.37491,0.5651479 h -13.31892 l -3.91378,4.0362866 -3.91378,4.036288 v 6.054921 6.054977 l 15.42255,0.144945 15.42256,0.144999 v 3.821518 3.821518 l -15.42256,0.144999 -15.42255,0.144945 v 10.637194 c 0,5.850416 0.0614,10.687748 0.13648,10.749602 0.0751,0.0618 6.27821,0.246051 13.78476,0.409448 l 13.64828,0.296986 v 3.821518 3.821534 l -16.01478,0.144781 -16.01472,0.144836 z m 53.0579,1.449245 c -0.69186,-0.691859 -0.46012,-62.7730855 0.24004,-64.3097724 0.79783,-1.75101943 3.64906,-2.71207655 6.94414,-2.34067961 3.00376,0.33858647 3.75218,1.10545591 11.03425,11.30705201 2.6791,3.753276 7.70025,10.754843 11.15806,15.559037 3.45782,4.804193 8.21949,11.437256 10.58151,14.74014 2.36197,3.302883 5.55158,7.719684 7.08794,9.815077 l 2.79342,3.809834 V 28.356263 c 0,-20.3025775 0.16323,-27.2024369 0.65511,-27.69432081 0.36032,-0.36031453 2.07138,-0.65511733 3.80231,-0.65511733 2.55282,0 3.25391,0.19942864 3.71233,1.05599454 0.77298,1.4443153 0.76829,59.6079246 -0.005,62.3923916 -0.77479,2.789779 -2.28778,3.701156 -6.14446,3.701156 -3.9901,0 -4.01543,-0.02402 -12.63666,-12.010501 -3.56346,-4.954324 -7.11594,-9.85815 -7.8945,-10.897439 -0.77855,-1.039235 -1.78404,-2.43125 -2.23444,-3.093355 -2.51095,-3.69115 -10.74496,-15.095378 -15.51956,-21.494727 l -5.49879,-7.37007 -0.27296,27.296555 -0.27297,27.296571 -3.5717,0.158866 c -1.96442,0.08735 -3.74552,-0.01529 -3.958,-0.227489 z m 72.04057,-0.02238 c -0.20019,-0.200139 -0.36397,-12.12733 -0.36397,-26.504753 0,-23.092613 0.10384,-26.344561 0.89052,-27.888017 1.48788,-2.9192578 9.49249,-10.6545009 12.04002,-11.63482939 1.92021,-0.73897235 4.18582,-0.84466461 14.19421,-0.66199606 l 11.90933,0.21738977 3.73657,1.80654058 c 6.14669,2.9718306 10.01254,7.9636061 11.25338,14.5309941 0.41507,2.196826 0.56575,10.467464 0.45755,25.112831 l -0.16143,21.837243 h -3.82152 -3.82152 l -0.27296,-6.824139 -0.27297,-6.824138 -18.97111,-0.14358 -18.9711,-0.143525 v 7.87844 c 0,4.33311 -0.1491,8.266997 -0.33138,8.741957 -0.2531,0.659485 -1.13456,0.863554 -3.73051,0.863554 -1.86954,0 -3.56297,-0.163779 -3.76311,-0.363972 z M 356.7525,30.033036 c -0.0131,-11.061602 -0.0306,-11.224071 -1.47446,-13.986592 -1.59865,-3.058306 -4.05435,-5.409686 -6.89134,-6.5983959 -2.42557,-1.0163054 -18.74886,-1.3291785 -21.101,-0.4044258 -0.90079,0.3541455 -3.17322,2.2523477 -5.04986,4.2182457 l -3.41207,3.57432 v 12.33777 12.337771 l 18.9711,-0.143526 18.97111,-0.14358 z m 24.07643,35.96694 c -2.98935,-2.351451 -3.04488,-2.850487 -3.04155,-27.351001 0,-14.466519 0.21439,-23.29832 0.59321,-24.662711 0.87573,-3.154008 10.22764,-12.6729714 13.25019,-13.48690009 3.60407,-0.97044714 25.12238,-0.36222529 28.19024,0.79678639 5.77694,2.182578 9.98814,6.3935083 12.16935,12.1685317 1.14788,3.039198 1.20597,3.995451 1.20597,19.84394 0,19.08062 -0.2395,20.538802 -4.2741,26.019349 -1.95525,2.656064 -3.11852,3.600034 -6.63923,5.387849 l -4.26869,2.167581 -17.82312,0.163616 c -17.69947,0.162524 -17.83383,0.155208 -19.36227,-1.047041 z m 34.57742,-7.888012 c 3.7345,-1.109059 7.29817,-4.354673 8.53733,-7.775423 0.72576,-2.003458 0.9866,-5.149932 1.19864,-14.457948 0.35513,-15.59343 -0.50657,-20.09425 -4.58888,-23.968778 -2.97576,-2.8243198 -4.84639,-3.2142783 -15.8451,-3.3030467 l -10.10655,-0.081617 -4.04131,4.1338997 -4.04125,4.133954 v 20.723218 c 0,11.397786 0.16377,20.88705 0.36397,21.087189 0.20014,0.200193 6.05164,0.363972 13.00326,0.363972 9.88539,0 13.26694,-0.186381 15.51989,-0.85542 z m 76.86388,8.702814 c -0.21248,-0.212477 -0.39007,-3.846156 -0.39465,-8.074884 -0.005,-4.228672 -0.20544,-7.998927 -0.44625,-8.378295 -0.3417,-0.538342 -4.50568,-0.658229 -18.96275,-0.545931 l -18.52486,0.143853 -0.27297,6.824138 -0.27296,6.824139 -3.65288,0.160668 c -3.2341,0.142324 -3.72271,0.03003 -4.26231,-0.977981 -0.42948,-0.802573 -0.55985,-8.182197 -0.4416,-25.000587 0.19539,-27.780578 -0.46224,-24.842431 7.20826,-32.2064416 3.10634,-2.9822031 5.29127,-4.61895919 6.74874,-5.05564948 1.47647,-0.44236798 5.8342,-0.57759511 13.83657,-0.42942941 11.22757,0.20789057 11.7979,0.27154613 14.68391,1.63833929 6.08664,2.8825708 9.61292,6.8759475 11.48863,13.0102482 1.02378,3.348195 1.07685,4.920095 0.93993,27.842486 l -0.14511,24.29395 -3.5717,0.158866 c -1.96442,0.08735 -3.74552,-0.01529 -3.958,-0.227489 z m -0.69306,-36.781742 c -0.0333,-10.949686 -0.0644,-11.250603 -1.45043,-13.921244 -1.72105,-3.316313 -3.81382,-5.37895 -6.66675,-6.5706626 -1.73802,-0.7260338 -4.02001,-0.8874111 -12.01048,-0.8491959 l -9.86476,0.04695 -3.958,4.0269515 -3.958,4.026952 v 11.988319 c 0,6.593593 0.16695,12.15532 0.37102,12.359389 0.20407,0.204015 8.74106,0.306377 18.9711,0.227435 l 18.60009,-0.143525 z" />
</svg>
