<svg
   width="706.74219"
   height="654.23242"
   viewBox="0 0 170.286 157.63403"
   version="1.1"
   id="svg4"
   xmlns="http://www.w3.org/2000/svg"
   xmlns:svg="http://www.w3.org/2000/svg">
  <defs
     id="defs4" />
  <path
     id="path3"
     d="M 85.143,0 C 73.607,0 62.59583,2.228695 51.97683,6.750695 c -10.16,4.326 -19.27108,10.422407 -27.07008,18.222407 -7.865,7.865 -13.89593,16.91096 -18.22193,27.135959 C 2.22782,62.662061 0,73.738821 0,85.209821 c 0,5.637 0.52403,11.2731 1.70403,17.107099 l 26.28277,18.941 4.12901,32.31393 h 42.93197 l 2.55581,1.57226 c 2.229,1.705 4.654,2.48992 7.538,2.48992 2.819,0 5.31012,-0.78492 7.47212,-2.48992 l 2.35909,-1.57226 h 43.39222 l 4.0636,-32.31393 26.15241,-18.941 c 1.115,-5.833999 1.70497,-11.471099 1.70497,-17.107099 0,-11.471 -2.22817,-22.54776 -6.75117,-33.10076 -4.326,-10.224999 -10.42199,-19.270959 -18.22099,-27.135959 -7.801,-7.8 -16.84608,-13.896407 -27.00608,-18.222407 C 107.69076,2.228695 96.613,0 85.143,0 Z m -7.60341,15.796015 3.93324,0.262122 3.73605,92.548763 3.53888,-92.548763 3.99819,-0.262122 c 6.293,0 12.19204,1.572721 17.76404,4.653721 L 92.61465,109.39515 117.06398,23.924144 c 7.537,2.426 13.50199,6.685676 18.22099,12.912676 l -35.32809,75.37719 39.91593,-68.75685 c 5.703,4.981001 9.37282,11.142761 11.07782,18.352761 l -44.43788,54.925109 45.7499,-46.208259 c 2.031,4.72 3.14594,9.63605 3.14594,14.68305 0,2.818 -0.39384,5.83232 -1.11484,9.04532 l -25.75806,18.877009 -3.21276,25.36463 H 93.79584 l -4.71913,3.40806 c -1.114,0.852 -2.49077,1.24708 -3.93277,1.31108 -1.507,-0.065 -2.81806,-0.45908 -4.06406,-1.31108 l -4.45701,-3.40806 H 45.2266 L 41.81761,113.13215 15.99273,94.255141 c -0.786,-3.213 -1.1139,-6.22732 -1.1139,-9.04532 0,-5.047 1.04793,-9.96305 3.14593,-14.68305 L 64.03773,116.73691 19.33584,61.810861 c 1.704,-7.21 5.37488,-13.37176 11.07688,-18.35276 L 70.52677,112.21495 35.00197,36.837761 c 4.588,-6.227 10.683,-10.486676 18.221,-12.912676 L 77.4737,109.39515 59.77695,20.449736 c 5.506,-3.081 11.47064,-4.653721 17.76264,-4.653721 z" />
</svg>
