<svg id="SHELL" width="500" height="180.80669" viewBox="0 0 500 180.80669" version="1.1" xml:space="preserve" xmlns:xlink="http://www.w3.org/1999/xlink" xmlns="http://www.w3.org/2000/svg" xmlns:svg="http://www.w3.org/2000/svg">
	<path id="SHELL" style="fill:#000000;stroke:#000000;stroke-width:0" d="M 95.27121,57.023644 C 87.6217,50.764951 77.88595,46.59249 67.4548,46.59249 c -7.64951,0 -18.08067,4.867872 -18.08067,13.212795 0,9.040334 11.12657,12.517385 18.77608,15.299027 l 10.43115,3.477051 c 22.25313,6.954103 39.63839,18.080668 39.63839,43.810847 0,15.99444 -3.47705,31.98887 -16.68985,43.11544 -12.51738,10.43115 -29.20723,15.29903 -45.20167,15.29903 -20.16689,0 -39.63838,-6.95411 -56.32823,-18.08067 l 18.08067,-33.3797 c 10.43115,9.04034 22.25313,16.68985 36.85674,16.68985 9.73575,0 20.1669,-4.86787 20.1669,-15.99444 0,-11.82197 -16.68985,-15.99443 -25.03477,-18.08066 C 24.33936,105.00695 6.9541,98.052851 6.9541,66.759388 c 0,-32.684284 22.94854,-53.546592 54.93742,-53.546592 15.99443,0 35.46592,4.867872 50.06954,13.212795 z M 173.15716,0 v 80.667594 h 0.69541 c 9.04034,-11.821975 19.47149,-17.385257 34.77052,-17.385257 27.81641,0 41.0292,18.080667 41.0292,45.897083 v 66.06397 h -38.24756 v -55.63282 c 0,-12.51739 -2.08623,-25.730181 -17.38526,-25.730181 -15.29902,0 -20.1669,13.212791 -20.1669,25.730181 v 55.63282 H 135.60501 V 0 Z m 211.40473,127.26008 h -81.363 c 0,15.29903 8.34492,24.33936 24.33936,24.33936 8.34492,0 13.9082,-2.78164 18.08067,-9.73574 h 36.85674 c -6.25869,25.73018 -30.59805,37.55216 -54.93741,37.55216 -36.16134,0 -62.58693,-20.1669 -62.58693,-57.71906 0,-36.161334 24.33936,-57.719053 59.80529,-57.719053 37.55215,0 59.80528,22.94854 59.80528,60.500693 z M 348.40056,105.00695 C 346.31433,94.5758 337.27399,87.621697 326.84284,87.621697 c -11.12657,0 -20.1669,6.258692 -22.94854,17.385253 z M 399.86092,0 h 38.24756 v 175.9388 h -38.24756 z m 61.1961,0 H 500 v 175.9388 h -38.94298 z" />
</svg>
