<svg id="SKLEPPOLSKI" width="500" height="202.50569" viewBox="0 0 500 202.50569" version="1.1" xml:space="preserve" xmlns:xlink="http://www.w3.org/1999/xlink" xmlns="http://www.w3.org/2000/svg" xmlns:svg="http://www.w3.org/2000/svg">
	<path id="SKLEPPOLSKI" style="fill:#000000;stroke:#000000;stroke-width:0" d="m 167.37741,200.40602 c 16.91298,-5.23619 23.80724,-18.1879 23.85449,-44.81412 0.0591,-33.46354 -9.12243,-45.53485 -36.87113,-48.47378 -11.50065,-1.21804 -24.78082,0.0975 -33.35053,3.30389 -6.1127,2.28703 -12.56862,8.01935 -15.49754,13.76039 -4.85296,9.51259 -6.729875,34.34928 -3.68257,48.72885 3.63746,17.16398 10.88511,24.81307 26.9929,28.48767 8.16631,1.86297 31.25005,1.26847 38.55438,-0.9929 z m -30.45518,-14.5469 c -10.91112,-2.80421 -15.22318,-13.4466 -14.09653,-34.79143 0.32097,-6.08254 1.29983,-13.14298 2.17514,-15.68987 3.12822,-9.10267 10.72662,-13.05263 23.58328,-12.25954 16.379,1.01039 20.80128,8.8847 19.95111,35.52528 -0.52632,16.49138 -2.24979,21.26528 -9.05821,25.09183 -4.58427,2.57652 -16.44686,3.69349 -22.55479,2.12373 z m 201.45914,14.41341 c 2.90077,-0.96368 7.02999,-3.25513 9.17609,-5.09209 13.15274,-11.25832 11.48293,-37.28367 -2.86168,-44.60177 -2.21196,-1.12845 -9.99171,-3.43127 -17.28849,-5.11739 -20.40089,-4.71425 -23.45611,-6.61429 -23.45611,-14.58734 0,-4.55232 1.98813,-6.99185 7.01716,-8.61066 5.59242,-1.80012 23.04014,0.0297 35.35427,3.70778 1.88558,0.56317 2.42221,-0.0665 4.27286,-5.01284 3.02619,-8.08797 2.83001,-9.3364 -1.6536,-10.52469 -8.6504,-2.29262 -13.4154,-3.04204 -23.40069,-3.68038 -23.91934,-1.52911 -39.24244,4.84042 -43.16844,17.94443 -1.90557,6.36006 -1.44096,15.36114 1.05929,20.52616 3.99135,8.24496 10.17317,11.56916 29.62913,15.93278 17.99515,4.03596 20.54869,5.84322 20.54869,14.54295 0,6.01097 -1.74157,8.7793 -6.71895,10.6802 -5.60247,2.13957 -20.27296,1.40783 -31.89765,-1.59101 -4.37389,-1.12835 -8.07419,-2.05154 -8.22299,-2.05154 -0.14879,0 -0.98904,2.47153 -1.86724,5.49231 -0.87807,3.02076 -1.86434,6.19016 -2.19172,7.04313 -2.31489,6.03261 40.88309,9.91243 55.67007,4.99997 z m -316.663327,-14.16177 0.278365,-14.22051 19.326518,-0.45054 c 20.875806,-0.48667 24.45885,-1.21944 31.896892,-6.52332 2.350575,-1.67607 5.036821,-4.99668 6.730004,-8.31911 2.631578,-5.16364 2.815814,-6.32799 2.783893,-17.59413 -0.03142,-11.17575 -0.238526,-12.45695 -2.806389,-17.39123 -3.551876,-6.82528 -9.402803,-10.68087 -18.597367,-12.255 -4.266701,-0.7305 -16.603827,-1.03372 -33.857883,-0.83219 l -27.14522134,0.31706 -0.26215247,44.73935 c -0.14427182,24.60664 -0.03895842,45.3208 0.23324783,46.03145 0.36947663,0.96318 3.12345988,1.21911 10.81875298,1.00538 l 10.323102,-0.28673 z m 0.224451,-46.10223 v -15.58337 h 14.260541 c 12.347557,0 14.834864,0.27803 18.541946,2.07258 5.215276,2.52469 6.83117,6.46766 6.20394,15.13891 -0.507339,7.01292 -2.942241,10.89274 -7.93382,12.64178 -1.975317,0.69211 -9.275497,1.224 -17.248651,1.25673 l -13.823956,0.0567 z m 249.728996,59.23511 c 0.33567,-0.87466 0.61026,-4.49402 0.61026,-8.04303 v -6.45273 H 253.19162 234.1015 l -0.26341,-37.95304 -0.26341,-37.95305 H 223.0182 212.46173 l -0.26215,44.73935 c -0.14428,24.60664 -0.0453,45.30487 0.2198,45.99607 0.3701,0.96531 7.22527,1.25674 29.5619,1.25674 25.58965,0 29.15321,-0.19089 29.69021,-1.59031 z m 127.28796,-19.52266 v -21.11295 h 4.05545 c 4.96883,0 6.29744,1.29393 18.06288,17.59104 4.70015,6.51046 10.59091,14.60359 13.09066,17.9847 l 4.54506,6.14747 12.29503,0.2823 c 10.44639,0.23985 12.29515,0.0529 12.29515,-1.24354 0,-1.33023 -15.609,-22.21367 -28.96395,-38.75121 -7.76894,-9.62035 -8.11906,-7.96574 5.43231,-25.67369 15.01068,-19.61471 18.55125,-24.71202 17.89863,-25.76803 -0.2849,-0.46088 -5.80719,-0.8281 -12.27177,-0.81605 l -11.75389,0.0219 -12.34894,18.48273 c -6.79196,10.16548 -12.89963,18.68336 -13.57261,18.92862 -0.67297,0.24525 -2.92024,0.23845 -4.99384,-0.0151 l -3.77017,-0.46104 v -18.52352 -18.52353 l -10.80782,0.28537 -10.80782,0.28535 -0.26152,45.99607 -0.2614,45.99608 h 11.06922 11.06934 z M 500,154.58652 v -45.74473 h -10.55648 -10.55647 l -0.26152,46.03019 -0.26153,46.03019 10.818,-0.28546 L 500,200.33124 Z M 56.665204,98.204344 C 42.462849,97.283731 30.6822,94.484543 29.646032,91.784398 c -0.45041,-1.173654 1.410043,-8.511623 3.879504,-15.301912 0.360051,-0.989933 1.274569,-0.944892 4.258784,0.209747 2.090056,0.808701 7.582691,2.167709 12.205673,3.020019 15.422381,2.843349 26.594274,1.571495 29.215296,-3.326018 C 80.388996,74.17435 80.610305,68.980426 79.670151,65.47403 78.720822,61.933489 75.364491,60.452956 60.670004,57.092667 43.939373,53.266812 39.371813,51.401282 34.288241,46.317673 29.389157,41.418589 27.661163,35.597484 28.161967,25.679701 28.472252,19.536046 29.071709,17.365773 31.581385,13.300952 37.594052,3.5626676 52.036064,-0.98440844 73.261239,0.17806054 82.794616,0.70019133 95.153106,2.6659453 99.567347,4.3623457 c 2.794323,1.0738323 3.002433,3.5218914 0.845653,9.9489873 -3.057235,9.11069 -2.357114,8.776276 -12.584202,6.01048 -12.299048,-3.326145 -27.470839,-3.671844 -31.429643,-0.716144 -5.59468,4.176996 -4.574346,11.101868 2.106143,14.295553 2.30571,1.10226 10.299852,3.399776 17.764788,5.105614 22.878018,5.227919 29.134364,11.398656 29.150324,28.751339 0.0126,14.071668 -6.763685,24.57614 -18.09116,28.043 -7.553786,2.31188 -18.65304,3.181734 -30.664046,2.403169 z m 68.545456,-2.113093 c -1.57694,-1.157203 -1.69168,-4.919166 -1.44888,-47.504137 l 0.26379,-46.2474141 11.81319,-0.2832528 11.8132,-0.2832529 V 20.462415 39.151636 l 4.25753,-0.309154 4.25752,-0.309154 12.19901,-18.096814 12.19889,-18.0968141 h 12.95091 c 12.23747,0 12.96687,0.1120997 13.24234,2.0357408 0.17745,1.2383374 -1.95307,4.9795019 -5.43884,9.5510963 -3.15186,4.133438 -10.00151,13.087943 -15.22131,19.89888 l -9.49077,12.383512 3.92336,4.707923 c 2.1578,2.589353 8.41326,10.589377 13.901,17.777833 5.48773,7.188457 11.91097,15.462735 14.27386,18.387281 2.36289,2.924546 4.29611,5.962473 4.29611,6.750941 0,2.748781 -3.8819,3.584301 -15.31682,3.296699 L 186.38052,96.845285 173.5583,79.25116 C 156.70514,56.125819 155.97938,55.315623 151.42213,54.537032 l -3.77017,-0.644121 v 21.727538 21.727526 h -10.36432 c -6.70776,0 -10.96856,-0.443372 -12.07698,-1.256724 z m 101.10199,0.421681 C 225.3172,95.881014 225.1018,85.705037 225.30727,49.02419 L 225.5688,2.3396999 h 11.56185 11.56186 l 0.2634,37.9530411 0.26341,37.953041 h 19.19331 19.1933 l -0.35452,8.582502 c -0.25788,6.241629 -0.76584,8.842493 -1.86259,9.535702 -1.8318,1.157794 -57.26686,1.297554 -59.07617,0.148946 z m 72.72054,-0.744834 c -1.38905,-1.389157 -1.57982,-7.008494 -1.57982,-46.549028 0,-33.635506 0.30412,-45.273215 1.20645,-46.1756051 1.72737,-1.7273283 67.2416,-1.7273283 68.96897,0 0.74461,0.7445457 1.20645,4.4013212 1.20645,9.5510961 v 8.344642 h -23.1237 -23.12371 v 9.551097 9.551096 h 21.11295 21.11295 v 9.048407 9.048407 h -21.11295 -21.11295 v 10.053786 10.053786 h 23.12371 23.1237 v 8.510341 c 0,7.384971 -0.25712,8.647977 -1.94465,9.551096 -1.2243,0.655218 -13.86052,1.040756 -34.11111,1.040756 -27.90164,0 -32.37583,-0.209458 -33.74629,-1.579877 z m 89.58665,0.323153 c -1.57694,-1.157203 -1.69168,-4.919166 -1.44888,-47.504137 l 0.26379,-46.2474141 29.57396,-0.2668023 c 32.31061,-0.2914718 38.26408,0.4098803 45.40076,5.348526 7.08013,4.8995364 10.56791,15.5061164 9.77668,29.7324374 -0.86023,15.471042 -6.92278,24.094513 -19.71698,28.046254 -5.3608,1.655796 -9.34298,1.986502 -23.91984,1.986502 h -17.48819 v 14.039924 c 0,12.851905 -0.1645,14.127994 -1.94465,15.080678 -2.78377,1.489846 -18.39616,1.325341 -20.49665,-0.215968 z M 439.60761,47.75358 c 6.06608,-1.831122 8.16141,-5.444238 8.09192,-13.95331 -0.054,-6.686836 -0.24469,-7.264087 -3.28344,-9.979225 l -3.22526,-2.881842 h -15.06484 -15.06485 v 13.405052 c 0,7.372768 0.30162,13.706653 0.67022,14.0753 1.13004,1.130008 23.71399,0.590471 27.87625,-0.665975 z" />
</svg>
