<svg id="SMYK" width="500" height="174.82237" viewBox="0 0 500 174.82237" version="1.1" xml:space="preserve" xmlns:xlink="http://www.w3.org/1999/xlink" xmlns="http://www.w3.org/2000/svg" xmlns:svg="http://www.w3.org/2000/svg">
	<path id="SMYK" style="fill:#000000;stroke:#000000;stroke-width:0" d="m 446.10474,173.22573 c -3.63187,-0.98119 -10.15447,-4.13801 -10.88739,-5.26926 -0.29477,-0.45449 -0.98057,-0.92769 -1.5248,-1.05161 -0.54452,-0.12393 -1.0128,-0.50415 -1.04134,-0.84504 -0.029,-0.34086 -0.64325,-1.15958 -1.36587,-1.81943 -0.72239,-0.65981 -1.69432,-1.75638 -2.15919,-2.43678 -0.46466,-0.68043 -1.68481,-2.14909 -2.7112,-3.26377 -1.02638,-1.11467 -2.70662,-2.9386 -3.73401,-4.05319 -2.99609,-3.25024 -5.491,-6.64765 -6.28273,-8.5553 -0.40439,-0.97434 -1.1514,-2.17326 -1.66005,-2.66427 -0.50895,-0.49101 -1.39361,-1.72666 -1.96651,-2.74587 -0.57284,-1.01923 -1.89761,-2.83193 -2.94382,-4.02825 l -1.90196,-2.17515 -0.0893,3.06932 c -0.0508,1.6881 -0.12052,5.17055 -0.15828,7.73871 -0.0653,4.42301 -0.69698,7.01122 -2.29554,9.39873 -1.38264,2.06546 -11.76349,6.80577 -18.11504,8.27209 -8.78083,2.02716 -12.67043,2.60603 -15.53888,2.31257 -1.59668,-0.16335 -3.58824,-0.23973 -4.42578,-0.16967 -3.10245,0.25948 -3.91893,-2.24686 -3.53784,-10.86045 0.0886,-2.00826 0.20909,-5.5108 0.26717,-7.78331 0.0581,-2.27254 0.43635,-6.86345 0.8411,-10.20206 0.4044,-3.33858 0.67303,-6.81766 0.59607,-7.73123 -0.0762,-0.91356 0.0726,-3.0241 0.32816,-4.69009 0.25702,-1.66598 0.66867,-6.21089 0.91407,-10.0998 0.24612,-3.88893 0.65342,-8.04782 0.90564,-9.24203 0.25193,-1.19419 0.49805,-3.39753 0.54597,-4.896251 0.0508,-1.498747 0.34123,-4.383337 0.65197,-6.410202 0.31074,-2.026842 0.61059,-4.88955 0.66649,-6.361521 0.0581,-1.471935 0.37245,-4.117786 0.70425,-5.879659 0.33179,-1.761865 0.69771,-5.175756 0.81329,-7.586455 0.11544,-2.410692 0.35357,-5.049937 0.52854,-5.86495 0.17498,-0.815006 0.48644,-3.460383 0.69191,-5.878604 0.20474,-2.418197 0.7674,-6.265847 1.24912,-8.550284 0.48208,-2.284466 0.92409,-5.049891 0.98289,-6.145455 0.14739,-2.73582 2.3871,-17.760208 3.4121,-22.883465 0.46103,-2.306246 0.76022,-5.10139 0.66359,-6.211423 -0.0958,-1.110041 0.007,-2.153084 0.23015,-2.317928 0.22289,-0.16488 0.48426,-1.072701 0.58082,-2.017455 0.12705,-1.246751 0.42617,-1.738742 1.08889,-1.794152 0.50241,-0.04211 1.01266,-0.272332 1.13441,-0.511847 0.30493,-0.600132 6.84177,-1.7015697 8.78134,-1.4796167 0.87036,0.099538 2.60469,0.9395627 3.8541,1.8665727 1.7707,1.313821 2.38565,2.13139 2.78874,3.707684 0.74831,2.926997 1.41879,11.69158 1.13296,14.824775 -0.37463,4.122926 -0.77039,8.126124 -1.27926,12.961106 -0.25483,2.422366 -0.51402,5.718179 -0.57501,7.32401 -0.0581,1.605855 -0.27226,3.478823 -0.46829,4.162178 -0.19675,0.683422 -0.48353,2.890203 -0.6389,4.904069 -0.15537,2.013841 -0.41674,4.764168 -0.58009,6.111766 -0.16336,1.347581 -0.41456,4.751867 -0.55686,7.56504 -0.14303,2.813171 -0.32381,5.938728 -0.40149,6.945688 -0.13432,1.734618 -0.0741,1.82516 1.15118,1.722682 0.92249,-0.07718 2.27239,-1.152695 4.71103,-3.75322 4.26699,-4.550425 10.83308,-10.151016 15.67509,-13.37011 2.03541,-1.353162 4.7185,-3.323204 5.9624,-4.37787 1.24397,-1.054671 8.70017,-5.857462 16.56941,-10.67286 7.86923,-4.815393 14.81206,-9.17819 15.42845,-9.695091 1.77883,-1.491799 4.42425,-1.464921 6.49306,0.06607 0.97164,0.719055 1.96651,1.290683 2.21067,1.27026 0.24467,-0.02033 1.1848,0.610296 2.09022,1.401605 1.72301,1.506036 2.2819,3.007622 3.98319,10.701926 1.1085,5.013072 1.31512,11.568211 0.41674,13.225703 -0.39278,0.72421 -0.68827,1.615942 -0.65778,1.981597 0.029,0.365626 -0.36591,1.115363 -0.88037,1.666009 -0.51476,0.550689 -1.19468,1.623587 -1.51072,2.384308 -0.31582,0.760717 -0.81917,1.40359 -1.11793,1.428579 -0.2984,0.02468 -1.59849,1.225094 -2.88827,2.666899 -1.28986,1.441805 -2.63525,2.645735 -2.98984,2.675393 -0.3543,0.02977 -2.92312,2.75045 -5.70786,6.046195 -2.78467,3.295737 -5.40845,6.025394 -5.83056,6.065906 -0.42182,0.04066 -1.12359,0.540017 -1.55877,1.109953 -1.1509,1.507256 -6.80351,1.980087 -8.18869,0.684932 -0.52419,-0.489776 -1.21043,-0.868877 -1.52574,-0.842501 -0.64616,0.05373 -2.12776,-1.226938 -3.20097,-2.767206 -0.97338,-1.396908 -1.05317,-1.557555 -2.37185,-4.770127 -0.96663,-2.355136 -1.43259,-2.918371 -2.85872,-3.455586 -1.56945,-0.591129 -1.79894,-0.571962 -2.90737,0.243218 -1.9901,1.463506 -5.37541,5.192934 -5.31958,5.860354 0.029,0.343119 -0.27807,1.056889 -0.68246,1.586204 -0.9389,1.229595 -0.77147,8.028634 0.27153,11.036747 0.4044,1.1667 1.11191,3.29029 1.57177,4.71913 0.78549,2.44 2.18178,4.61638 4.78494,7.45765 0.61349,0.66896 1.41371,1.91169 1.77927,2.76153 0.36519,0.84985 1.06217,1.94846 1.54796,2.4414 0.48571,0.49297 1.58418,1.81985 2.44103,2.9487 3.14362,4.14144 14.9572,15.13702 17.29914,16.10121 0.90854,0.37405 1.9623,0.99634 2.34179,1.38286 0.37898,0.38653 1.05353,0.67237 1.49793,0.6352 0.44433,-0.037 1.07205,0.15565 1.39462,0.42842 0.34559,0.29223 3.23589,0.37594 7.03453,0.20365 5.57151,-0.25265 6.52768,-0.40672 7.03496,-1.13357 0.32235,-0.46262 1.00467,-0.87611 1.51528,-0.91881 2.47851,-0.20735 6.61953,-4.70596 7.90118,-8.58336 1.0592,-3.20455 0.74875,-7.19328 -0.63962,-8.25588 -1.26634,-0.9669 -2.91659,-0.47555 -5.13619,1.52921 -1.39092,1.25623 -2.03425,1.47652 -5.00485,1.71366 -2.87804,0.22978 -3.74331,0.0942 -5.55823,-0.87035 -2.65122,-1.40905 -5.24182,-5.21353 -4.58499,-6.73337 0.22943,-0.53051 0.35938,-1.6546 0.28896,-2.49798 -0.0966,-1.1518 0.29404,-2.00719 1.56981,-3.43735 1.93623,-2.17105 5.39218,-4.79312 7.27585,-5.52035 0.7028,-0.27131 2.33112,-0.94636 3.61873,-1.50019 4.67618,-2.01139 5.6823,-2.32945 8.88988,-2.81032 2.35137,-0.352485 3.73068,-0.313497 4.93559,0.13947 0.91972,0.3458 1.81876,0.61646 1.99772,0.60144 0.62366,-0.0523 3.19357,2.42184 5.54226,5.33538 4.56379,5.66112 10.02219,15.4017 10.26766,18.32274 0.15319,1.81818 -1.79648,8.11426 -3.54598,11.45299 -1.1395,2.17464 -4.38744,6.89098 -7.98228,11.591 -3.70091,4.83888 -9.09934,10.3302 -13.73399,13.97059 -2.10307,1.65191 -3.94456,3.24115 -4.09216,3.53164 -0.33833,0.66598 -9.84606,6.26142 -12.83706,7.55483 -3.12481,1.35133 -8.04254,1.61634 -11.69299,0.63011 z m 18.20732,-8.48755 c 6.71347,-4.15789 9.53248,-6.83131 18.91112,-17.93462 11.22507,-13.28939 11.76319,-14.30327 11.2088,-21.11657 -0.51039,-6.27561 -2.10583,-10.50858 -5.49346,-14.57734 -6.1275,-7.35964 -6.60828,-7.69325 -10.60555,-7.35888 -1.80272,0.15079 -3.38023,0.47583 -3.50547,0.72232 -0.12487,0.24648 -1.18087,0.6736 -2.34578,0.94924 -2.32088,0.54909 -8.03194,4.7319 -9.80743,7.18307 -1.35825,1.87514 -1.17507,4.6292 0.40294,6.06269 1.91039,1.73504 4.16905,1.20043 9.56058,-2.26291 2.34528,-1.50654 2.89619,-1.74895 4.22743,-1.86031 2.01791,-0.1688 4.10777,0.78244 4.92622,2.2422 0.37463,0.66816 0.84371,3.16172 1.04272,5.54118 0.31945,3.81536 0.22434,4.66649 -0.80219,7.20692 -0.64035,1.58435 -2.44205,4.51573 -4.00424,6.51419 -2.42144,3.09782 -3.37994,3.91044 -6.50119,5.51159 -3.15733,1.61963 -4.22459,1.92361 -7.75641,2.20916 -6.89309,0.55766 -14.10586,-1.34159 -18.84731,-4.96201 -0.99741,-0.76161 -2.83345,-2.0399 -4.07996,-2.84063 -2.88334,-1.85221 -13.78895,-13.36701 -17.45465,-18.42969 -1.53874,-2.12511 -4.34889,-6.46255 -6.24461,-9.63876 -2.80913,-4.70637 -3.55215,-6.3698 -4.01535,-8.98988 -0.41311,-2.334249 -0.41093,-3.440776 0.007,-4.039281 0.46248,-0.662788 0.44868,-0.888407 -0.0653,-1.151577 -0.48063,-0.244234 -0.56122,-0.76576 -0.318,-2.058214 0.36882,-1.963286 4.01012,-8.679464 5.60389,-10.337442 1.56364,-1.626702 4.41634,-3.482907 5.49063,-3.572774 0.51766,-0.04356 1.34533,-0.379929 1.83779,-0.747944 0.70642,-0.527965 1.0303,-0.554973 1.53489,-0.128361 0.35212,0.29738 1.20491,0.493407 1.89601,0.435615 0.69118,-0.05808 1.62775,0.13671 2.08122,0.432202 0.89701,0.584523 4.80883,6.603361 4.88521,7.516329 0.029,0.309141 0.39423,0.804798 0.81997,1.101329 0.42472,0.296581 0.80029,0.866554 0.83376,1.266666 0.0363,0.400112 0.58373,1.110178 1.22343,1.577927 2.20748,1.614882 6.50844,-0.447667 10.34853,-4.962799 0.95719,-1.125345 2.27006,-2.391445 2.91753,-2.813556 2.46181,-1.604768 11.52818,-13.296841 11.4097,-14.713882 -0.0145,-0.212652 0.35938,-0.922697 0.83812,-1.577963 0.47845,-0.655223 0.81554,-1.847284 0.74853,-2.648955 -0.0653,-0.801679 0.0762,-2.191287 0.318,-3.088018 0.32598,-1.208817 0.27807,-1.903529 -0.18804,-2.686515 -0.34414,-0.580921 -0.866,-2.331486 -1.15895,-3.890116 -0.29259,-1.558636 -0.73663,-3.049448 -0.98674,-3.31288 -0.24976,-0.263438 -0.65633,-1.144128 -0.90173,-1.957109 -0.91108,-3.009793 -4.82378,-4.428634 -7.85732,-2.849102 -2.11615,1.101873 -9.18748,5.353418 -10.55575,6.346567 -0.62873,0.456336 -1.97587,1.313139 -2.99369,1.903902 -3.08575,1.791221 -13.99666,8.918225 -15.31011,10.000556 -0.67666,0.55779 -2.88602,2.099883 -4.90924,3.426882 -2.02335,1.327006 -4.28826,2.954361 -5.03323,3.616357 -0.7449,0.661989 -2.58872,2.09437 -4.09718,3.18308 -1.50853,1.088696 -5.07716,4.571138 -7.93029,7.738761 -5.42406,6.022054 -6.52544,6.744543 -9.77411,6.412046 -1.45132,-0.148545 -1.89441,-0.503135 -2.87774,-2.303451 -1.22277,-2.238711 -1.82856,-6.047944 -1.05295,-6.621779 0.2512,-0.185863 0.39568,-1.069761 0.3209,-1.964136 -0.0748,-0.894368 0.0436,-2.255759 0.26645,-3.025279 0.62148,-2.160511 3.03369,-21.573167 3.15545,-25.397375 0.0581,-1.872475 0.31292,-4.07646 0.56339,-4.897739 0.90064,-2.954187 1.12737,-18.112309 0.33978,-22.693335 -0.30493,-1.768915 -0.97664,-3.941333 -1.49379,-4.827562 -1.57039,-2.689819 -5.45644,-3.066525 -8.67592,-0.84102 -1.7548,1.21302 -1.8224,1.384667 -3.09991,7.877955 -0.71804,3.65085 -2.18323,13.368747 -3.25564,21.595331 -1.07226,8.226577 -2.27841,17.294489 -2.68026,20.150915 -0.40222,2.856459 -0.65633,6.083028 -0.56558,7.170214 0.0908,1.087193 -0.0218,3.479973 -0.24975,5.31728 -0.22797,1.837307 -0.66359,7.177043 -0.96677,11.86608 -0.30348,4.689037 -0.77024,9.639311 -1.03735,11.000629 -0.64253,3.274291 -0.9704,7.719381 -1.01796,13.799171 -0.0436,5.19434 -0.16698,7.07668 -1.07495,15.97376 -0.30202,2.95985 -0.46393,6.38147 -0.35938,7.60355 0.10455,1.22208 0.0581,3.40874 -0.1031,4.8592 -0.40439,3.64909 -0.67375,9.81936 -0.59243,13.57621 0.0581,2.67704 0.23378,3.31452 1.19148,4.26587 1.09673,1.09214 1.27925,1.10565 7.69295,0.56913 3.85984,-0.32286 7.54129,-0.89236 8.92546,-1.38073 4.57882,-1.61554 9.88686,-3.98246 12.4972,-5.57267 2.82395,-1.72036 3.67761,-3.07815 3.98965,-6.34546 0.10165,-1.06641 0.33688,-2.16996 0.52274,-2.45226 0.18514,-0.28227 0.14738,-4.64467 -0.0849,-9.69406 -0.23233,-5.04945 -0.22943,-9.46977 0.007,-9.82303 0.70497,-1.05463 2.0577,-0.86432 3.24374,0.45631 3.56187,3.9663 4.9019,5.58828 4.93399,5.97262 0.0218,0.23763 0.85053,1.25613 1.84606,2.26346 0.99538,1.00733 2.99667,3.64362 4.44726,5.8584 1.4506,2.21479 3.29688,4.84485 4.10262,5.84458 0.8056,0.99974 2.14874,2.92964 2.98404,4.28871 1.6162,2.62933 3.96256,5.51574 5.7329,7.05257 1.46352,1.27038 4.77732,5.14832 4.81834,5.6385 0.0218,0.21781 0.59897,0.64086 1.2913,0.93987 0.69191,0.29905 1.27338,0.72658 1.29204,0.95003 0.0508,0.61269 5.05698,3.11678 7.59371,3.79874 1.67733,0.45093 3.60877,0.45275 7.76156,0.007 l 5.52861,-0.59302 z m -183.31016,8.3384 c -6.53698,-1.37811 -7.43108,-1.72253 -13.62189,-5.24754 -4.99033,-2.84142 -6.19263,-3.89163 -9.90472,-8.65194 -1.38163,-1.77185 -3.1275,-3.94302 -3.87959,-4.82481 -1.26219,-1.47974 -2.08768,-3.69744 -4.7262,-12.69622 -0.54089,-1.84309 -0.63963,-3.04376 -0.35865,-4.33604 0.21417,-0.98298 0.71949,-3.98964 1.12178,-6.68143 1.92752,-12.89966 3.41594,-18.82262 5.14257,-20.46436 0.36882,-0.35045 0.65052,-0.92297 0.62729,-1.27224 -0.0218,-0.34929 0.75739,-1.69668 1.73556,-2.99426 0.97817,-1.29759 1.75981,-2.63598 1.73694,-2.9742 -0.0806,-1.18758 5.97816,-7.290879 8.2904,-8.351884 3.3432,-1.533995 9.49168,-1.452746 14.80945,0.195664 2.21677,0.687182 4.17559,1.45218 4.35288,1.699986 0.17788,0.247792 1.2643,0.949415 2.41563,1.559116 1.15118,0.609716 2.75766,1.636888 3.56986,2.282628 1.67414,1.33093 8.75245,10.39751 8.81256,11.2879 0.0218,0.32047 0.68464,1.684 1.4726,3.03002 1.31033,2.23745 1.44021,2.82885 1.51565,6.89646 0.0653,3.64429 -0.12125,4.89229 -1.04388,6.89868 -0.6193,1.34721 -1.0788,3.15307 -1.02065,4.01297 0.15682,2.31774 -2.35689,6.29793 -4.41234,6.98705 -3.65089,1.22401 -7.52423,1.43983 -9.74746,0.54314 -2.95652,-1.19242 -5.99377,-4.14656 -8.10897,-7.88713 -1.71988,-3.04147 -1.76859,-3.24133 -1.16127,-4.76626 0.9415,-2.36376 2.24399,-3.39613 4.47521,-3.54691 2.80674,-0.18964 2.27159,-1.49172 -1.20876,-2.94079 -3.55265,-1.47917 -6.67274,-1.37865 -7.00744,0.22579 -0.12706,0.60812 -0.44433,1.62406 -0.70497,2.25765 -0.35866,0.87181 -0.318,1.36825 0.16698,2.04115 0.35285,0.48898 0.69626,1.68886 0.76233,2.66635 0.10382,1.53649 3.62214,9.02841 6.54359,13.93363 0.43198,0.72515 0.80124,1.5517 0.82048,1.83672 0.0218,0.28504 0.62583,1.1929 1.3475,2.0175 0.72167,0.82461 1.32645,1.7055 1.34351,1.95758 0.0508,0.77787 4.02515,3.64964 5.38884,3.8956 4.09246,0.73807 15.52858,-3.01048 16.08152,-5.27116 0.11035,-0.45166 1.02943,-1.13171 2.04201,-1.51122 1.64038,-0.61479 5.16088,-3.77454 9.46809,-8.49806 0.78462,-0.86043 1.73832,-2.39077 2.11927,-3.40074 0.62147,-1.64749 1.03436,-2.63468 2.96189,-7.0828 0.9683,-2.23433 3.49094,-16.25491 3.51838,-19.55451 0.0145,-1.7638 0.16409,-4.5655 0.33107,-6.22599 0.26936,-2.673124 0.15392,-3.386966 -1.00896,-6.229984 -1.05142,-2.570018 -1.93028,-3.772387 -4.40326,-6.024138 -1.69926,-1.547289 -3.82078,-3.148035 -4.71444,-3.557222 -7.63974,-3.498045 -7.83591,-3.552271 -16.76427,-4.636262 -9.34292,-1.134298 -12.08983,-1.501651 -19.55576,-2.615177 -1.0767,-0.160597 -4.28965,-1.298263 -7.1398,-2.52817 -4.24318,-1.830961 -5.48127,-2.612386 -6.83189,-4.31219 -0.90717,-1.141799 -2.25954,-2.704718 -3.00516,-3.473135 -3.16489,-3.261555 -6.26138,-14.073917 -4.88491,-17.057034 0.27734,-0.600742 0.58299,-2.078658 0.67956,-3.284265 0.6084,-7.594224 2.3081,-12.194802 6.24446,-16.901365 5.89779,-7.051731 6.78659,-7.765435 17.5544,-14.095382 0.51258,-0.3013 1.63044,-0.958955 2.48402,-1.461407 0.85366,-0.502482 2.09132,-0.950003 2.7504,-0.994538 0.65923,-0.04429 1.65512,-0.367586 2.21343,-0.71782 0.98398,-0.617266 4.45264,-1.768618 8.85351,-2.9388094 2.95942,-0.7869235 9.45284,-1.2014762 11.81866,-0.7542379 1.0796,0.2039403 2.907,0.530361 4.06087,0.7253712 2.57049,0.434453 6.89041,4.0392081 7.49011,6.2502361 0.60623,2.23527 -1.19083,5.319524 -6.97898,11.977525 -2.79229,3.211874 -5.06417,6.026381 -5.04878,6.254447 0.0145,0.228117 -0.45522,1.241996 -1.0462,2.253174 -0.59098,1.011178 -1.16295,2.588016 -1.27149,3.504106 -0.10817,0.916083 -0.38189,1.797572 -0.60695,1.958785 -0.2258,0.16125 -0.28315,2.158057 -0.12924,4.437375 0.26428,3.915746 0.37391,4.256193 1.99178,6.174894 3.01968,3.58228 4.66943,5.142303 5.38681,5.093825 0.38479,-0.02599 1.73273,0.341428 2.995,0.816551 1.81201,0.68202 2.9849,0.777906 5.57303,0.455551 3.1927,-0.397658 3.33732,-0.475031 5.55032,-2.968512 1.24963,-1.408117 2.36451,-3.111493 2.47756,-3.785286 0.3405,-2.032905 2.54406,-7.04396 3.61204,-8.21548 0.55105,-0.604053 1.3666,-1.986215 1.81296,-3.071411 0.4465,-1.085196 1.0409,-2.315612 1.32114,-2.734237 0.78396,-1.171194 1.32485,-5.60748 1.39157,-11.41405 0.0508,-4.249146 0.33833,-6.159186 1.49649,-9.874456 0.78984,-2.533463 1.87256,-5.361096 2.40619,-6.283648 0.84945,-1.4687118 3.16387,-3.3800586 5.35399,-4.4216497 0.38697,-0.1841198 1.06733,-0.5615074 1.51122,-0.8385075 1.03277,-0.6443468 2.8715,-0.7678872 4.32442,-0.2904099 0.62584,0.2056828 1.74914,0.4623325 2.49593,0.5703649 2.62654,0.3797835 5.13967,2.9707691 7.18314,7.4059292 l 1.89543,4.113692 0.47773,8.623363 c 0.26209,4.742894 0.33469,8.880268 0.159,9.194252 -0.17497,0.314005 -0.42182,2.867005 -0.54815,5.673373 -0.32889,7.320179 -0.91828,14.796796 -1.47739,18.752084 -0.26645,1.883229 -0.6193,5.177275 -0.78476,7.320146 -0.16553,2.14285 -0.61785,5.334624 -1.00525,7.092801 -0.3877,1.758185 -0.77438,5.456402 -0.85976,8.218293 -0.0857,2.761885 -0.25847,5.217343 -0.38552,5.45659 -0.12633,0.239225 -0.31655,1.81231 -0.42255,3.495728 -0.10527,1.683361 -0.9044,7.578114 -1.77491,13.099377 -0.8705,5.52127 -1.75008,11.24905 -1.95446,12.7284 -0.20401,1.47933 -0.62147,3.29532 -0.92677,4.03549 -0.30493,0.74014 -0.51039,2.00435 -0.45594,2.80932 0.0508,0.80495 -0.51112,3.85167 -1.25668,6.77048 -2.64258,10.34541 -2.94003,10.95264 -9.41733,19.2224 -3.31539,4.23283 -8.29069,8.37526 -15.29828,12.73725 -9.73534,6.05991 -16.16915,8.61895 -26.67015,10.60789 -9.95213,1.88501 -16.16189,2.04832 -23.00779,0.60507 z m 28.45871,-6.26236 c 1.56349,-0.52317 3.79217,-1.41777 4.95272,-1.98796 1.16055,-0.57015 3.21817,-1.57555 4.57257,-2.23415 l 4.92521,-2.3949 c 5.71272,-2.77787 7.28478,-3.69314 10.35862,-6.03114 3.56471,-2.71131 7.05849,-6.38822 9.03567,-9.50928 0.7057,-1.11351 1.93616,-2.83177 2.73508,-3.81838 1.41459,-1.74693 4.43521,-8.72994 4.34664,-10.04843 -0.0218,-0.36221 0.32453,-1.87049 0.77626,-3.35185 0.45159,-1.48136 0.94383,-3.91277 1.09427,-5.40316 0.15028,-1.49037 0.42762,-3.48324 0.61494,-4.42851 1.17151,-5.89778 2.16624,-12.28962 2.70509,-17.38163 0.34051,-3.220532 1.09565,-8.372402 1.67741,-11.448539 0.58155,-3.076144 1.01193,-6.270376 0.95596,-7.098313 -0.0581,-0.827936 0.28605,-3.92573 0.76065,-6.883983 0.47482,-2.958283 0.9018,-7.561444 0.94986,-10.229304 0.0508,-2.667863 0.47482,-7.274986 0.94892,-10.238076 0.81779,-5.113643 1.05338,-8.062783 1.49807,-18.753487 0.106,-2.538516 0.34051,-5.555206 0.52274,-6.703791 0.42037,-2.654593 0.13359,-7.012932 -0.55395,-8.411125 -0.29114,-0.592363 -0.74353,-2.280559 -1.00519,-3.75147 -0.66286,-3.721036 -3.72138,-7.9426798 -5.66016,-7.8116687 -0.74141,0.050096 -1.48784,-0.1044023 -1.65874,-0.3431918 -0.86325,-1.2064785 -6.80402,3.5351365 -6.68248,5.3335945 0.029,0.46284 -0.13359,0.977352 -0.36519,1.143372 -0.2316,0.165969 -0.51185,1.233371 -0.62148,2.371813 -0.10963,1.138458 -0.38769,2.338809 -0.61784,2.6674 -0.23015,0.328599 -0.40367,2.629472 -0.38552,5.113042 0.0145,2.483585 -0.18732,5.620505 -0.45595,6.970976 -0.7144,3.588311 -2.06633,8.30559 -2.54203,8.868099 -0.22724,0.268484 -0.38697,0.878802 -0.3543,1.35625 0.0291,0.477434 -0.14375,0.881742 -0.39132,0.898485 -0.24758,0.0167 -0.56848,0.516203 -0.71368,1.110004 -0.14521,0.593815 -1.01753,2.177711 -1.93856,3.519818 -0.92096,1.342099 -2.16573,3.619081 -2.76616,5.059942 -1.56567,3.757635 -3.22667,6.250985 -5.07556,7.619123 -1.40754,1.041632 -2.25177,1.235102 -6.67551,1.529944 l -5.06416,0.337529 -4.83358,-2.047077 c -3.24896,-1.376003 -5.69516,-2.809152 -7.46179,-4.371748 -2.49985,-2.211082 -2.66401,-2.498059 -3.36019,-5.872875 -0.40294,-1.951512 -0.76835,-4.090773 -0.81315,-4.753902 -0.15246,-2.25517 0.40948,-8.343917 0.82448,-8.938589 0.22797,-0.32584 0.51838,-1.319448 0.64688,-2.208174 0.26936,-1.867473 4.68722,-7.320078 7.68933,-9.490266 1.05956,-0.765949 2.03693,-1.844335 2.17197,-2.396382 0.13505,-0.552069 0.43126,-1.016261 0.65851,-1.031594 0.22652,-0.01525 1.04257,-0.634836 1.81223,-1.37671 1.11009,-1.069964 1.37385,-1.727306 1.2757,-3.179566 -0.12996,-1.926593 -1.04011,-2.780326 -3.62076,-3.397011 -0.67666,-0.161831 -1.40253,-0.525714 -1.61192,-0.80874 -0.51112,-0.690595 -13.09167,0.178529 -13.9478,0.963601 -0.34196,0.31328 -1.69578,0.799114 -3.00916,1.07962 -1.31338,0.280464 -2.59357,0.693136 -2.84492,0.916868 -0.25121,0.223761 -1.24862,0.605359 -2.21612,0.84788 -1.79452,0.449845 -10.15048,5.200013 -11.50553,6.540552 -0.41093,0.406937 -1.7911,1.432018 -3.06622,2.278047 -1.27512,0.846029 -2.3778,1.708401 -2.45033,1.916364 -0.11036,0.315312 -1.30474,1.697162 -3.75319,4.341162 -3.59839,3.885596 -5.31892,7.850322 -5.92937,13.663143 -0.40512,3.858973 0.14811,12.103766 0.98958,14.742791 0.67375,2.113236 4.07401,7.68533 4.66543,7.645368 0.20329,-0.01372 1.26168,0.677788 2.35196,1.536731 1.09034,0.858933 2.13966,1.551074 2.33184,1.538089 0.19167,-0.013 0.97621,0.361908 1.74253,0.833059 0.76625,0.471139 2.46326,1.021671 3.77119,1.223339 1.30786,0.20169 2.61616,0.533265 2.90737,0.736842 0.29113,0.203578 2.16667,0.404832 4.16796,0.447159 2.00136,0.04211 4.08563,0.236974 4.63175,0.43242 0.54597,0.195446 2.52758,0.481427 4.40319,0.635417 5.22585,0.429008 8.20872,0.903022 8.77052,1.393764 0.28097,0.245178 0.96837,0.414777 1.52814,0.376952 1.29348,-0.08741 6.60421,1.581237 9.04416,2.841638 7.29596,3.768822 13.51277,9.651559 15.7344,14.888716 2.53695,5.980599 2.55561,6.826469 0.37826,17.147519 -0.2846,1.35155 -0.71078,3.44722 -0.94572,4.657 -0.63092,3.24879 -6.37174,16.63708 -8.08189,18.84883 -0.81322,1.05175 -2.07998,2.93398 -2.81494,4.18272 -1.59551,2.7107 -3.95182,5.36811 -6.12496,6.90767 -2.89343,2.04975 -5.29395,3.99242 -5.56324,4.50217 -0.14665,0.27683 -2.58973,1.43182 -5.42986,2.56667 -6.94065,2.77337 -9.41523,2.93079 -14.56318,0.92659 -2.13277,-0.83071 -3.88721,-1.64743 -3.89854,-1.81516 -0.0145,-0.16771 -0.94804,-1.20016 -2.08144,-2.29432 -2.8304,-2.73227 -3.83007,-4.70993 -7.28478,-14.41179 -1.6459,-4.62191 -3.25934,-9.03948 -3.58547,-9.81683 -0.32599,-0.77734 -0.83951,-3.07642 -1.1403,-5.10907 -0.44287,-2.99543 -0.41093,-3.93862 0.17352,-4.97761 1.10959,-1.97175 3.15872,-1.86317 10.02662,0.5313 1.77375,0.61843 3.75558,1.24299 4.40399,1.38792 0.64834,0.14492 2.04565,0.77965 3.10492,1.41048 1.68096,1.00111 1.94487,1.39273 2.0749,3.07973 0.16699,2.15241 -1.42685,4.69397 -3.00879,4.80087 -0.48716,0.0327 -1.13419,0.40367 -1.43745,0.82387 -0.30348,0.42022 -0.95894,0.79153 -1.45706,0.82519 -0.68464,0.0465 -0.88161,0.4142 -0.8077,1.508 0.0508,0.79575 0.31509,1.43213 0.58009,1.41421 0.265,-0.0182 0.50096,0.23872 0.52419,0.57015 0.0842,1.21961 4.06791,3.96131 5.70873,3.92874 2.61507,-0.0515 3.9373,-0.37761 4.68997,-1.15529 0.39351,-0.40628 0.9691,-0.75591 1.27984,-0.7769 0.31074,-0.0211 0.53653,-0.45943 0.50168,-0.97426 -0.0363,-0.5149 0.14956,-1.08858 0.41021,-1.27495 0.26064,-0.18637 1.14109,-1.92177 1.95685,-3.8564 1.34692,-3.19423 1.44544,-3.80983 1.07241,-6.69794 -0.48208,-3.73296 -1.00286,-5.00936 -4.41045,-10.81901 -2.88697,-4.92158 -5.31733,-7.02193 -13.45745,-11.629987 -2.72971,-1.545314 -2.84318,-1.563515 -7.69985,-1.234561 l -4.92935,0.333826 -2.39159,2.454432 c -1.31541,1.34994 -2.54385,2.61323 -2.72985,2.80731 -1.79125,1.86878 -5.57776,8.88756 -5.49057,10.17747 0.0218,0.30239 -0.70787,2.43558 -1.61758,4.74048 -0.91007,2.30491 -1.61961,4.70979 -1.57678,5.34417 0.0436,0.6344 -0.2512,2.33967 -0.65415,3.78952 -0.40294,1.44984 -0.90564,3.68649 -1.11757,4.97032 -0.48062,2.911 0.17425,13.25783 0.86223,13.62118 0.27589,0.146 0.53145,0.69146 0.5663,1.21225 0.0363,0.52077 1.03248,2.58711 2.21619,4.59195 1.62659,2.755 3.42901,4.81358 7.38091,8.42971 2.87578,2.63151 5.7141,4.89996 6.30748,5.04101 0.59317,0.14107 1.73622,0.65633 2.53978,1.14505 0.80364,0.48869 3.81243,1.45997 6.68633,2.15833 l 5.22505,1.26975 10.59451,-0.94752 c 7.41177,-0.66279 11.44825,-1.23327 13.4369,-1.89875 z m -110.48199,2.77345 c -4.2357,-6.99736 -4.98162,-10.04482 -3.8154,-15.58779 0.70497,-3.35287 1.16468,-4.53117 2.46587,-6.34468 3.15406,-4.391 3.64137,-5.23316 4.96491,-8.58015 0.73794,-1.8663 1.96906,-4.91406 2.73574,-6.77269 1.74246,-4.22459 7.40944,-25.16664 7.95737,-29.39446 0.22289,-1.72952 0.64689,-4.954245 0.94289,-7.166057 0.29549,-2.21187 0.51257,-5.644732 0.48135,-7.62855 -0.029,-1.983855 -0.0218,-4.385297 0.029,-5.336701 0.0973,-2.101776 -0.47554,-4.131951 -1.22843,-4.334142 -0.30493,-0.08168 -0.79434,-0.565065 -1.08744,-1.073464 -0.34341,-0.59534 -1.17173,-1.040705 -2.32742,-1.250903 l -1.79444,-0.326421 -1.52095,4.346237 c -0.83645,2.390508 -2.57804,7.440728 -3.86927,11.22304 -1.29131,3.782297 -2.75526,7.893614 -3.25245,9.136441 -0.4966,1.24289 -2.19266,6.4683 -3.76705,11.61229 -3.63535,11.87455 -3.27822,11.54986 -10.47552,9.52395 -2.70015,-0.76005 -5.30535,-1.72395 -5.78946,-2.1421 -0.48426,-0.41804 -1.37712,-1.01462 -1.98444,-1.32554 -0.71151,-0.36396 -1.47826,-1.65552 -2.1539,-3.62664 -1.0319,-3.01007 -1.02914,-3.13749 0.16045,-7.61023 0.66577,-2.50189 1.21994,-5.44722 1.23148,-6.54523 0.0145,-1.097803 0.27226,-3.671523 0.58155,-5.71884 0.30783,-2.047454 0.54016,-4.462728 0.51403,-5.367616 -0.029,-0.904909 -0.0726,-3.002779 -0.0987,-4.662144 -0.029,-1.65938 -0.14521,-4.168274 -0.25919,-5.575361 -0.25847,-3.1764 -0.37826,-7.813838 -0.21781,-8.410274 0.0653,-0.245687 -0.11036,-0.846247 -0.39206,-1.334971 -0.28097,-0.488542 -0.4102,-1.267813 -0.28532,-1.731532 0.12487,-0.463712 -0.0145,-1.189214 -0.318,-1.612479 -0.29912,-0.423054 -0.47918,-1.012042 -0.40004,-1.308666 0.36446,-1.357259 -1.45539,-2.926779 -4.26685,-3.679522 -1.54077,-0.412527 -3.27081,-0.679631 -3.84459,-0.59367 -0.57356,0.08618 -2.76949,0.294839 -4.87954,0.464075 -3.40396,0.272913 -3.98507,0.481282 -5.15499,1.848488 -1.44137,1.684565 -2.62458,6.150879 -4.90052,18.492192 -0.60405,3.278705 -2.22033,10.206156 -3.5923,15.394095 -1.37131,5.188125 -2.43436,10.014895 -2.36226,10.726165 0.18368,1.81711 -3.89324,17.55812 -4.70435,18.16196 -0.3543,0.26398 -0.92844,1.00445 -1.27606,1.64533 -0.37826,0.69807 -1.45111,1.41335 -2.6754,1.78378 -1.94204,0.58758 -2.45955,0.5067 -10.37888,-1.62096 l -8.33506,-2.23932 -0.93976,-2.00428 c -0.51693,-1.10237 -0.90332,-2.61855 -0.85874,-3.36933 0.0436,-0.75077 -0.0726,-1.52728 -0.25847,-1.72556 -0.18659,-0.19835 -0.21708,-0.82114 -0.0653,-1.38406 0.14956,-0.56296 0.13576,-1.6481 -0.0363,-2.41166 -0.16917,-0.76342 -0.13287,-2.65329 0.0828,-4.19955 0.21491,-1.54637 0.33107,-3.40531 0.25629,-4.13133 -0.074,-0.72606 0.11399,-2.97558 0.41746,-4.99904 0.30276,-2.023622 0.60987,-6.875804 0.67811,-10.782927 0.0726,-3.906999 0.265,-7.609252 0.42981,-8.227303 0.16626,-0.617992 0.19965,-1.562818 0.0755,-2.099517 -0.12487,-0.53675 -0.0958,-3.498328 0.0654,-6.581173 0.43053,-8.23571 -0.2091,-40.230811 -0.88641,-44.325553 -0.32017,-1.938261 -0.51184,-3.788316 -0.42545,-4.111201 0.085,-0.323009 -0.074,-1.778695 -0.35648,-3.235028 -0.54814,-2.819378 -1.096,-8.015703 -1.19634,-11.339893 -0.0653,-2.0602472 0.64399,-3.3439312 3.11929,-5.6646687 2.59155,-2.4305631 6.62505,-4.4761881 8.07318,-4.09446618 0.33542,0.0882846 1.21834,0.0254109 1.9631,-0.14012273 0.74504,-0.16531579 2.0333,-0.25643187 2.86351,-0.20234304 1.29428,0.08429145 1.65468,0.39045599 2.52954,2.14619385 0.56122,1.1263255 0.98013,2.197081 0.93113,2.3794729 -0.0508,0.1824499 0.77343,1.7649584 1.82755,3.5167976 l 1.91677,3.1851783 3.22036,0.582127 c 1.77128,0.320177 3.79689,0.502263 4.50135,0.404758 0.70424,-0.09765 2.23441,-0.162847 3.39961,-0.145059 1.16505,0.01742 2.187,-0.222164 2.27079,-0.53312 0.0842,-0.310956 1.48276,-0.69771 3.10891,-0.859395 4.92157,-0.489704 8.55271,-1.0744877 11.11572,-1.7905366 2.26636,-0.633166 8.09213,-1.3250747 13.44228,-1.5965425 1.25595,-0.06389 2.978,-0.1860801 3.82694,-0.2719688 0.84894,-0.085816 3.19386,0.1982773 5.2109,0.6313509 3.94231,0.8464938 3.50764,0.5244802 7.00418,5.188433 0.96888,1.292309 3.15849,6.819483 2.97387,7.506752 -0.0363,0.13976 0.40076,1.862957 0.97316,3.829337 0.57283,1.966379 0.96278,3.86844 0.86651,4.226769 -0.0966,0.358294 0.0726,0.99758 0.36882,1.420809 0.29912,0.423054 0.48644,0.986362 0.41456,1.25163 -0.0741,0.265071 0.19457,1.273585 0.59171,2.240911 0.39641,0.967181 0.71513,2.087567 0.70787,2.489647 -0.007,0.402 0.7261,3.007934 1.63007,5.790793 1.57969,4.862651 1.71073,5.078237 3.36382,5.533498 0.94601,0.260498 1.88229,0.321121 2.08057,0.134678 0.1982,-0.186516 1.08214,-0.282714 1.96404,-0.214032 0.8819,0.06897 3.53676,0.05445 5.89968,-0.03122 11.2594,-0.408897 12.91249,-0.270008 21.95302,1.844189 l 6.75827,1.580476 1.38554,2.286919 c 0.76204,1.257813 1.62826,2.746295 1.92491,3.307729 0.29622,0.561384 0.7624,1.080738 1.03502,1.153995 0.67375,0.180867 1.42947,3.050461 1.11373,4.225865 -0.14085,0.522956 -0.11036,1.107965 0.0733,1.300622 0.18078,0.192324 -0.44577,3.810003 -1.39142,8.039306 -0.94645,4.22925 -1.69345,8.597682 -1.66035,9.707722 0.0436,1.450605 -1.63181,8.320735 -5.95441,24.426911 l -6.0149,22.40865 -3.44078,5.77094 c -1.89245,3.174 -4.11336,6.63148 -4.93544,7.68325 -0.82237,1.0517 -2.54471,3.65695 -3.82804,5.78929 -1.28339,2.13234 -3.14673,5.01017 -4.14066,6.39526 -0.99378,1.38509 -2.2021,3.08787 -2.68484,3.78404 -0.4828,0.69625 -2.13821,2.84152 -3.67913,4.76744 -1.54084,1.92594 -3.3649,4.45453 -4.05346,5.6191 -1.2402,2.0978 -1.88273,2.68063 -5.06265,4.59404 -0.90302,0.54335 -1.69396,1.18184 -1.75763,1.41884 -0.0653,0.2369 -0.60115,0.71092 -1.19518,1.05316 -1.04439,0.60202 -1.18197,0.45275 -4.24238,-4.60297 z m 5.22621,-1.93366 c 0.98783,-0.31894 4.68511,-4.44388 5.50828,-6.14527 0.41311,-0.85264 1.21413,-2.1013 1.78188,-2.77462 0.56703,-0.67339 1.64176,-2.07398 2.38732,-3.11245 0.74548,-1.03841 1.60378,-2.16666 1.90726,-2.50708 0.30348,-0.34043 0.89476,-1.27924 1.31331,-2.08641 0.41891,-0.80705 1.32071,-2.02139 2.00419,-2.69845 2.96915,-2.94094 8.15238,-11.54605 12.67101,-21.03572 4.53214,-9.51826 4.6642,-9.87768 6.70992,-18.26211 3.3212,-13.612549 7.27165,-32.094709 7.10248,-33.231889 -0.0849,-0.573414 0.21418,-2.95741 0.66722,-5.297495 0.45231,-2.34021 0.7253,-4.673355 0.60551,-5.184926 -0.11907,-0.511412 0.0784,-2.027642 0.43851,-3.369124 0.62075,-2.311808 0.56848,-2.576657 -1.01324,-5.077531 -0.91769,-1.4512 -2.08877,-2.874746 -2.60221,-3.163435 -2.00252,-1.125823 -11.97331,-2.596518 -14.85367,-2.190925 -0.5721,0.08065 -1.93674,0.129791 -3.03238,0.10939 -1.09572,-0.02047 -3.34894,-0.01706 -5.00718,0.0075 -1.65824,0.02447 -3.84096,-0.0095 -4.85057,-0.07563 -1.00946,-0.06614 -2.16776,0.03231 -2.57375,0.218686 -0.40585,0.186276 -1.87997,0.188882 -3.27525,0.0057 -1.39527,-0.183241 -2.6987,-0.18107 -2.89625,0.0048 -0.19821,0.185783 -1.39245,0.06041 -2.65522,-0.278822 -2.62226,-0.704513 -2.81167,-1.050984 -3.36672,-6.159907 -0.18514,-1.701373 -0.57574,-3.608138 -0.86782,-4.237268 -0.29259,-0.629173 -0.57283,-2.003261 -0.6222,-3.053615 -0.10673,-2.256644 -1.46933,-7.466284 -3.75645,-14.366719 -0.25484,-0.769201 -0.40222,-1.687608 -0.32744,-2.04079 0.0726,-0.353864 -0.23596,-1.563799 -0.69045,-2.690015 -0.45449,-1.126275 -0.94318,-2.518783 -1.08613,-3.094469 -0.14303,-0.575738 -0.95421,-1.747665 -1.80279,-2.604381 -2.37505,-2.397674 -5.16284,-2.577728 -16.68731,-1.077747 -1.42635,0.185644 -3.38567,0.352557 -4.35405,0.370926 -0.96844,0.01815 -2.17146,0.238499 -2.67344,0.489195 -0.50168,0.250769 -1.22349,0.372306 -1.60357,0.270227 -0.38043,-0.102079 -1.1816,0.01307 -1.78122,0.256286 -0.60043,0.243001 -1.52872,0.331285 -2.0646,0.196099 -0.53581,-0.134968 -2.05886,0.08458 -3.38451,0.488325 -1.32572,0.403814 -2.90054,0.882461 -3.4998,1.063691 -3.39329,1.026185 -9.27794,1.802167 -12.97246,1.710652 -1.09383,-0.02686 -2.2416,0.09511 -2.55045,0.271605 -0.84807,0.484477 -2.15317,-0.01016 -3.33224,-1.262193 -1.60488,-1.704495 -4.37647,-6.4664032 -4.18292,-7.186772 0.0937,-0.3503794 -0.27806,-1.4160528 -0.82672,-2.3681178 -1.45938,-2.5314225 -3.1047,-2.7948896 -6.11937,-0.9799154 -1.34358,0.8089511 -2.80086,1.8666382 -3.23814,2.3504247 -0.96271,1.0647948 -1.68728,3.5405605 -1.19017,4.0688445 0.19747,0.210112 0.32816,1.04687 0.29113,1.859509 -0.0363,0.812726 0.0958,1.521529 0.29695,1.575582 0.48498,0.130176 1.36064,6.977982 1.28753,10.065488 -0.029,1.345781 0.20183,3.435396 0.51838,4.643878 0.31727,1.208599 0.6585,4.021196 0.75855,6.250382 0.49515,11.012775 0.62728,19.434806 0.32163,20.571222 -0.18659,0.694211 -0.22071,1.769996 -0.0784,2.390418 0.2846,1.223497 0.20183,5.688323 -0.18006,9.611237 -0.13213,1.353136 -0.19457,3.589349 -0.13286,4.969501 0.0581,1.37994 -0.0508,8.248684 -0.23886,15.263693 -0.19022,7.015023 -0.20401,13.399795 -0.029,14.188325 0.17279,0.78849 0.20111,1.88426 0.0581,2.43464 -0.14012,0.55026 -0.0508,1.49163 0.18877,2.09131 0.24321,0.59969 0.31146,1.57827 0.15101,2.17455 -0.16045,0.59628 -0.20038,1.49978 -0.085,2.00815 0.11181,0.50793 0.42618,2.10977 0.69844,3.55931 l 0.49515,2.63556 3.60761,1.11643 3.60755,1.11643 2.23318,-1.36274 c 1.52262,-0.92904 2.58893,-2.04334 3.35067,-3.50136 0.61422,-1.1763 1.61584,-3.01826 2.22512,-4.09335 1.70122,-3.00207 5.53129,-19.35397 6.28665,-26.840234 2.22657,-22.066776 3.53683,-29.080563 5.34202,-28.595566 0.34341,0.09233 0.73902,0.01953 0.87957,-0.161534 0.41965,-0.540772 4.73078,-1.334252 5.75498,-1.059089 0.52274,0.140347 1.41677,0.14649 1.98728,0.0135 1.0711,-0.249542 5.64099,0.162462 10.18881,0.918577 2.439,0.405543 5.35312,1.792969 6.69002,3.185136 0.32236,0.335917 1.0078,0.944724 1.52248,1.352684 0.51475,0.408099 0.99545,1.330716 1.06834,2.050526 0.0733,0.719708 0.43925,1.887671 0.8146,2.595312 0.37463,0.707584 0.63963,1.842789 0.58808,2.522587 -0.0581,0.679487 -0.0218,2.269132 0.0653,3.531797 0.0893,1.262739 0.19603,3.431176 0.23814,4.818805 0.0436,1.387738 0.11253,3.208463 0.15682,4.04628 0.4269,8.050073 -0.59461,20.472979 -2.36335,28.747279 -0.77968,3.64697 -1.12433,6.29203 -0.87537,6.72176 0.23813,0.41079 2.36038,1.33451 5.05139,2.19825 6.98254,2.24118 6.1124,3.38139 10.8378,-14.20056 2.14555,-7.983442 5.09684,-18.417177 6.55854,-23.186019 l 2.65725,-8.670706 2.96683,0.797059 c 1.63181,0.438446 3.45413,0.648558 4.04976,0.467124 0.86187,-0.262676 1.24034,-0.16096 1.85456,0.498271 0.424,0.455508 1.37647,0.990689 2.11556,1.189257 0.73917,0.198568 1.76504,0.924687 2.27994,1.613568 0.51475,0.688852 1.15017,1.310038 1.41183,1.380339 0.92851,0.249462 1.21079,3.634508 0.6193,7.423725 -1.00519,6.437166 -1.65157,11.515569 -1.60118,12.583174 0.0726,1.49728 -2.8336,17.125468 -3.98667,21.451988 -1.70333,6.39581 -6.35402,20.06774 -6.98429,20.53805 -0.32961,0.24634 -1.14682,1.94047 -1.81462,3.76486 -0.66867,1.82424 -1.48901,3.63084 -1.82508,4.01429 -0.33615,0.38349 -1.46788,1.99899 -2.5156,3.58996 -1.50164,2.28021 -1.98241,3.4492 -2.27057,5.52127 -0.20111,1.44568 -0.19022,2.67625 0.029,2.73506 0.21853,0.0581 0.36519,0.77376 0.32743,1.58952 -0.0363,0.81585 0.12488,1.53514 0.36156,1.59856 0.23596,0.0639 0.34995,0.41448 0.25121,0.77982 -0.0987,0.36541 0.29477,1.48438 0.87195,2.48656 1.01426,1.75928 2.41026,2.57035 3.70484,2.15234 z M 29.938399,160.36805 c -4.422868,-4.47172 -4.986772,-5.30671 -7.008024,-10.37736 -1.136737,-2.85182 -1.493432,-4.79472 -1.483413,-8.07992 0.0073,-2.37887 0.221437,-4.86209 0.476272,-5.51824 0.254834,-0.65611 0.696257,-2.30557 0.980278,-3.6653 0.494423,-2.36429 1.588977,-3.98515 3.018084,-4.47355 0.326711,-0.1113 1.347937,-1.07286 2.268827,-2.13702 0.920889,-1.06418 1.896376,-1.92858 2.167328,-1.9212 0.271533,0.007 0.683189,-0.27589 0.916098,-0.62982 0.943977,-1.43651 12.377484,-4.7579 13.603957,-3.95191 0.383341,0.252 1.102396,0.33404 1.598053,0.18252 0.495875,-0.15145 1.205999,-0.0751 1.57874,0.16982 0.372451,0.24481 1.018758,0.3747 1.435641,0.28852 1.316936,-0.27241 6.327522,1.24332 6.567691,1.98682 0.121246,0.37491 0.686093,1.161 1.255659,1.74669 1.55529,1.59962 1.891294,3.36459 1.014111,5.32612 -0.696257,1.5579 -1.174417,1.92726 -4.132604,3.19332 -1.839746,0.78753 -3.733581,1.32263 -4.208474,1.1891 -1.597254,-0.44904 -5.041369,2.17146 -4.469044,3.40042 0.132137,0.28322 -0.09511,1.0253 -0.504587,1.64874 -0.936354,1.42482 -0.757969,3.55791 0.487163,5.8246 0.847924,1.54377 1.2211,1.84162 3.079578,2.45758 1.163019,0.38552 2.438716,0.91389 2.834763,1.17417 1.241502,0.81588 5.52207,-0.48788 8.071432,-2.45842 2.659864,-2.05602 6.300877,-7.15263 6.822889,-9.55073 0.170615,-0.78333 0.757969,-2.43316 1.305537,-3.66598 1.535832,-3.45811 2.839046,-10.5957 2.227371,-12.19944 -0.291862,-0.76559 -1.238889,-2.17719 -2.10402,-3.13647 -1.340967,-1.48673 -2.109319,-1.94087 -5.207701,-3.0774 -1.999109,-0.73333 -4.297339,-1.31508 -5.107292,-1.29278 -0.809663,0.0225 -3.02244,-0.13954 -4.916566,-0.35953 -4.598421,-0.5342 -17.101726,-0.24757 -20.883515,0.47874 -3.335574,0.64058 -4.727436,0.57843 -9.102315,-0.40635 -2.376641,-0.53501 -3.837257,-1.24428 -7.641263,-3.71066 -2.87542,-1.86444 -4.809041,-3.36826 -4.9758815,-3.87021 C 9.7536104,104.50155 9.0710022,103.59668 8.38745,102.94253 7.0026306,101.61711 5.2949482,98.877151 5.1499611,97.747864 5.0991394,97.34296 4.7346751,96.710309 4.342041,96.342091 3.9499878,95.973924 3.6341671,94.377955 3.6407013,92.795549 3.6471629,91.213185 2.9055289,86.537399 1.9926256,82.404925 1.0796498,78.27243 0.42267015,74.066577 0.53266287,73.058593 0.64229258,72.05056 0.51814238,70.224429 0.24878728,69.000476 -0.01693771,67.77649 -0.08010184,66.539297 0.10939056,66.251165 c 0.18949241,-0.288137 0.19675265,-1.091726 0.0145205,-1.785966 -0.18005408,-0.694014 -0.14012273,-1.55418 0.088575,-1.911222 0.22869773,-0.35703 0.40003952,-1.802401 0.37971083,-3.212276 -0.0217807,-1.409716 0.34703973,-3.771526 0.81510771,-5.248381 0.4682859,-1.476814 1.0212261,-3.354492 1.228724,-4.172492 0.5662991,-2.231693 8.5031274,-14.855002 12.6097394,-20.055211 2.199274,-2.784798 4.438188,-5.153743 5.73269,-6.065543 1.168101,-0.822985 3.075658,-2.283928 4.238459,-3.246912 6.425462,-5.321347 14.807924,-8.233758 26.252974,-9.121417 8.620162,-0.668596 17.804228,-0.359455 20.928239,0.704462 2.616083,0.89089 5.83847,1.520077 7.472243,1.458975 0.891196,-0.0334 1.747251,0.02251 1.902402,0.124731 0.15537,0.102079 2.932486,0.62576 6.171862,1.163955 3.239449,0.538202 6.140789,1.14346 6.447389,1.344975 0.306382,0.201327 1.145594,0.348928 1.864431,0.327655 4.393033,-0.130104 10.813913,3.8938 13.114543,8.218866 1.17798,2.21455 1.51187,3.20566 2.4931,7.399911 0.39858,1.703094 1.1241,10.745897 2.04572,25.49197 0.36809,5.893664 -0.0145,10.888374 -1.01092,13.15756 -0.44796,1.021531 -1.07648,2.513242 -1.39593,3.315304 -0.89787,2.251975 -3.75144,3.028023 -7.99941,2.174879 -3.08117,-0.618791 -3.743236,-0.931802 -6.659386,-3.148311 -2.442565,-1.856579 -3.321272,-2.789872 -3.576688,-3.799019 -0.186588,-0.735834 -0.960022,-2.711463 -1.719516,-4.390373 l -1.380971,-3.052575 -5.01712,-0.794446 c -5.22912,-0.827996 -8.954714,-0.423919 -11.398803,1.236416 -1.101888,0.748662 -1.320638,1.19128 -1.58208,3.204598 -0.186588,1.43226 0.05808,3.129997 0.628737,4.388521 0.512574,1.128862 0.924883,2.313641 0.915953,2.632843 -0.02178,0.904267 3.784403,7.148484 4.747329,7.781302 0.474094,0.311392 1.516012,1.4079 2.316309,2.436959 1.201788,1.545351 2.732176,2.652444 8.792375,6.360926 4.035462,2.469435 8.827587,5.316003 10.649111,6.325707 2.8434,1.57617 3.49791,2.136443 4.62724,3.960805 0.72312,1.168709 1.46541,2.688679 1.64888,3.377699 0.18296,0.68885 0.69843,1.68698 1.14537,2.21779 2.02685,2.40945 5.13554,12.52876 4.79612,15.61199 -0.12052,1.09602 -0.007,2.28481 0.24685,2.64156 0.25629,0.35684 0.29622,0.9066 0.0893,1.22187 -0.20692,0.31531 -0.6055,2.20903 -0.88553,4.20805 l -0.50894,3.63479 -7.59611,11.49269 c -8.588432,12.98961 -14.051985,19.78199 -19.329022,24.02639 -4.666885,3.75357 -6.931574,4.88146 -11.584447,5.76946 -4.720828,0.90096 -13.885291,1.49651 -14.708094,0.95579 -0.29767,-0.19581 -2.15201,-0.51896 -4.120189,-0.71825 -6.867902,-0.69539 -17.078639,-6.42689 -24.104451,-13.53038 z m 22.231816,8.54289 c 5.471538,1.98525 6.470548,2.17894 11.245394,2.17998 2.882172,6.1e-4 6.192481,-0.21708 7.356298,-0.48368 2.599313,-0.5957 6.589543,-2.74836 7.410822,-3.99809 0.334698,-0.50923 0.849086,-0.91929 1.143416,-0.9111 0.29404,0.008 1.225893,-0.76151 2.070405,-1.71018 0.844221,-0.94887 1.999907,-2.06492 2.567295,-2.48067 3.052062,-2.2343 11.867887,-12.71781 16.140035,-19.19339 3.04872,-4.62597 7.34715,-12.92234 7.89101,-15.24072 0.27952,-1.18915 0.44651,-2.8711 0.37318,-3.73718 -0.074,-0.866 0.0218,-1.81644 0.21853,-2.11192 0.19385,-0.29549 0.0958,-1.0096 -0.2178,-1.58681 -0.31365,-0.57733 -1.0425,-3.0174 -1.61926,-5.42254 -0.57646,-2.4051 -1.30619,-4.54222 -1.62099,-4.74913 -0.3151,-0.20691 -0.6222,-0.82048 -0.68319,-1.36353 -0.0581,-0.54314 -0.80763,-2.19975 -1.65991,-3.68159 l -1.54948,-2.69424 -13.499774,-8.784104 C 74.731209,84.479867 74.1546,84.056616 72.009489,81.385637 68.198441,76.641321 66.871195,72.780504 67.160952,67.281634 c 0.129232,-2.458089 0.437066,-3.383342 1.812883,-5.460327 2.024011,-3.053434 5.448087,-5.082658 8.502182,-5.036746 1.102468,0.01655 2.688977,-0.02113 3.52543,-0.08374 1.593333,-0.119322 7.208915,0.945801 9.385973,1.780239 0.699161,0.267852 1.799161,0.673772 2.445105,0.902023 0.836163,0.295478 1.365217,0.948443 1.836044,2.267071 2.775083,7.77016 6.442891,11.346197 10.992951,10.717863 1.01825,-0.140616 1.9048,-0.645175 2.35828,-1.34224 1.29936,-1.990423 1.75291,-9.863229 0.89722,-15.464962 -0.21636,-1.4145 -0.32381,-3.707408 -0.23886,-5.095384 0.0849,-1.387777 -0.26936,-5.4766 -0.78672,-9.085813 -0.51766,-3.609249 -0.82934,-6.73183 -0.69336,-6.93903 0.49007,-0.745976 -0.56484,-5.523994 -1.70274,-7.711092 -0.94253,-1.811533 -1.70623,-2.59055 -4.04149,-4.122317 -1.595005,-1.046194 -3.48579,-1.947495 -4.238823,-2.020548 -0.74737,-0.0726 -1.848458,-0.179618 -2.446412,-0.238063 -0.597518,-0.05808 -2.295254,-0.346895 -3.772133,-0.641152 -1.476734,-0.294258 -3.893888,-0.774756 -5.371493,-1.067881 -5.934452,-1.177249 -22.609202,-2.973637 -24.712422,-2.662288 -1.233444,0.182522 -3.091703,0.2377 -4.129483,0.122625 -2.415992,-0.268048 -8.34587,0.159653 -12.080032,0.871317 -1.598343,0.304567 -3.032386,0.470827 -3.186667,0.369401 -0.43997,-0.289103 -7.191781,2.12866 -7.575775,2.712907 -0.188767,0.287723 -1.623173,1.101793 -3.18703,1.809064 -6.598765,2.98436 -16.848634,15.29023 -21.7798651,26.148573 -2.2513298,4.957189 -2.2516202,4.95813 -3.1367893,9.86827 -0.3143687,1.742 -0.6904494,3.34976 -0.8371789,3.572493 -0.146657,0.22273 -0.1357666,0.831622 0.021781,1.352893 0.1597254,0.521453 0.1582733,2.114148 -0.00269,3.539493 -0.1611774,1.425344 -0.1139859,2.709023 0.1045475,2.852565 0.2185334,0.143542 0.2439443,0.495127 0.058082,0.781078 -0.1880404,0.285952 0.5583129,5.13613 1.6584579,10.77819 1.1001452,5.642096 1.9881458,11.238911 1.9734075,12.437381 -0.01452,1.19863 0.206191,2.500487 0.4915187,2.89336 0.2846016,0.392852 0.6026003,1.109526 0.7049697,1.592637 0.103096,0.483097 0.488615,1.084601 0.856709,1.336742 0.368095,0.252511 0.847053,0.957241 1.063989,1.566834 0.217082,0.60964 0.803347,1.37714 1.303214,1.70566 0.500231,0.32852 0.901723,0.85287 0.893011,1.16529 -0.0073,0.31226 1.521892,1.57853 3.401279,2.81363 3.290707,2.16253 3.610811,2.26769 8.653777,2.84243 4.140446,0.47192 6.227476,0.37906 9.969406,-0.44367 8.048999,-1.76973 17.934694,-1.5365 25.588154,0.60369 6.157995,1.72198 9.153935,3.76403 11.60935,7.91295 4.298936,7.26388 3.450359,12.18755 -4.078733,23.66617 -3.929172,5.9903 -6.101437,8.50184 -9.108631,10.5311 -2.410402,1.62658 -4.288845,1.97661 -7.936682,1.47914 -2.690575,-0.36693 -3.686172,-0.76463 -6.413846,-2.56219 -4.757857,-3.13536 -5.859817,-4.30781 -6.334347,-6.73923 -0.534354,-2.73802 0.133589,-5.29156 2.327417,-8.90131 1.544908,-2.54128 2.017695,-3.0042 3.898534,-3.80045 3.639924,-1.54323 5.299181,-2.01241 5.846095,-1.653 1.029575,0.67659 2.176549,-0.0552 2.406045,-1.53534 0.197479,-1.27387 0.02904,-1.49344 -2.420493,-3.10143 -2.42543,-1.59391 -3.741567,-2.12739 -7.501286,-3.04042 -2.15484,-0.52332 -6.871459,1.12738 -8.837025,3.09262 -3.739317,3.73886 -5.507913,5.93791 -6.585115,8.18796 -1.192423,2.49005 -2.041581,8.20131 -1.622738,10.91168 0.136493,0.88515 0.23741,2.31316 0.223616,3.17325 -0.0363,2.24811 1.223714,4.63378 4.598639,8.70607 2.63075,3.17429 3.600937,3.99837 8.658859,7.35464 5.0079,3.32319 6.421615,4.04304 11.70112,5.95863 z" />
</svg>
