<svg id="SMYK" width="500" height="169.85558" viewBox="0 0 500 169.85558" version="1.1" xml:space="preserve" xmlns:xlink="http://www.w3.org/1999/xlink" xmlns="http://www.w3.org/2000/svg" xmlns:svg="http://www.w3.org/2000/svg">
	<path id="S" style="fill:#000000;stroke:#000000;stroke-width:0" d="m 53.178328,169.51743 c -4.737621,-1.19218 -11.948033,-4.49831 -16.585864,-7.60496 -5.780011,-3.87175 -6.50953,-4.50179 -9.814527,-8.4762 -4.077943,-4.90391 -4.160946,-5.15296 -4.160946,-12.48482 0,-6.29621 0.03411,-6.50811 1.533174,-9.52446 1.833109,-3.68849 6.21403,-8.7191 8.695536,-9.98506 3.65517,-1.86474 5.716335,-2.08342 9.050434,-0.96025 2.82606,0.95203 6.729518,3.22108 7.395769,4.29909 0.16123,0.26087 0.15772,0.901 -0.0078,1.4225 -0.232644,0.733 -0.721968,0.94819 -2.156112,0.94819 -2.400853,0 -6.526202,1.62683 -8.226917,3.24431 -0.734882,0.6989 -1.997722,2.61458 -2.806312,4.25705 -1.699714,3.45262 -1.960064,7.0508 -0.688134,9.51044 0.765446,1.48021 5.153584,4.92303 8.338692,6.54232 2.122325,1.07899 7.956095,1.50757 10.243768,0.75257 4.11313,-1.35746 11.978829,-11.11002 16.339261,-20.2588 1.634778,-3.42998 1.815794,-4.18958 1.815794,-7.61956 0,-4.63789 -1.375911,-7.99795 -4.753892,-11.60927 -5.668269,-6.05985 -20.282095,-8.51274 -35.207469,-5.90948 -6.400754,1.11642 -13.714189,0.66521 -17.248939,-1.06419 C 11.528157,103.33059 8.312861,100.17902 5.8640313,96.106765 4.3150323,93.530909 3.8895144,92.30025 3.641094,89.677759 3.4721165,87.893919 2.5829362,82.276139 1.6651376,77.193804 -0.30703355,66.272853 -0.48797541,60.599183 0.91369596,53.631365 2.4880258,45.805249 8.2273363,35.321496 15.543139,26.908383 c 4.356025,-5.009391 7.612596,-7.556375 13.595246,-10.632921 4.630837,-2.381384 5.33437,-2.593534 11.586196,-3.493813 12.998755,-1.871855 31.411395,-0.51481 52.769958,3.889241 1.265819,0.261006 3.454155,1.239652 4.862962,2.174768 3.623179,2.404928 4.995349,5.334744 5.520699,11.787651 0.21696,2.664904 0.50546,5.27388 0.6411,5.797726 0.4847,1.871815 1.43573,17.720092 1.386,23.096799 -0.0762,8.237995 -1.24008,10.147696 -5.67733,9.315264 -3.057711,-0.57363 -6.714291,-4.937287 -8.298431,-9.903095 -0.769114,-2.410958 -2.20724,-3.413992 -6.567011,-4.580229 -10.281682,-2.750345 -16.915501,-1.435418 -20.566515,4.076603 -3.535629,5.337826 -1.948479,14.41332 3.599868,20.584418 2.478462,2.756649 5.485133,4.915394 19.614588,14.083009 l 10.151653,6.586694 2.277338,4.801302 c 3.2235,6.79607 5.0217,13.68781 4.63946,17.78114 -0.61576,6.59399 -8.405823,19.75029 -18.820499,31.7851 -4.520067,5.22322 -12.773568,12.43965 -16.165387,14.13418 -2.825592,1.41164 -3.361728,1.50894 -9.048232,1.64211 -3.324567,0.0778 -6.864483,-0.0648 -7.866474,-0.3169 z" />
	<path id="M" style="fill:#000000;stroke:#000000;stroke-width:0" d="m 200.69004,165.40545 c -0.64862,-0.69989 -1.29871,-1.82496 -1.44464,-2.50018 -0.14594,-0.67522 -0.5053,-1.85825 -0.79859,-2.62896 -1.35386,-3.55763 -0.25011,-7.84956 3.25767,-12.66745 0.86623,-1.18975 1.99385,-3.2256 2.50584,-4.52411 0.512,-1.29852 1.57834,-3.64675 2.36966,-5.21829 4.11149,-8.16527 9.63078,-29.70487 11.28749,-44.050593 0.40835,-3.535953 0.94899,-7.714808 1.20143,-9.286342 0.25243,-1.571535 0.46059,-4.383721 0.46256,-6.249299 l 0.004,-3.391963 -2.13236,-1.965542 c -1.17279,-1.081049 -2.43236,-1.965542 -2.79902,-1.965542 -0.36667,0 -0.93345,-0.321451 -1.25951,-0.714335 -0.32606,-0.392883 -1.37024,-0.719572 -2.32036,-0.725977 -1.55419,-0.01047 -4.65712,-0.565795 -6.8229,-1.221077 -0.66867,-0.20231 -1.09844,0.690765 -2.47215,5.13709 -2.15013,6.959361 -4.81606,16.294034 -8.13338,28.47877 -3.10504,11.40505 -3.91233,13.69666 -5.03708,14.29861 -0.90793,0.48591 -4.26758,-0.34738 -8.24906,-2.04599 l -2.31856,-0.98917 0.28117,-2.17911 c 0.15464,-1.19851 0.7016,-4.53641 1.21546,-7.41756 1.63352,-9.158932 2.09691,-16.753274 1.76601,-28.943479 -0.2648,-9.755297 -0.44877,-11.753976 -1.32852,-14.43389 -1.78491,-5.437221 -5.59694,-7.699768 -14.79533,-8.781455 -5.58809,-0.657131 -10.97009,-0.40287 -13.90735,0.657019 -1.51287,0.545909 -2.00437,1.037318 -2.51753,2.517052 -0.88451,2.550582 -1.81067,8.608158 -3.20878,20.987009 -2.31219,20.472246 -6.50047,35.541804 -11.0401,39.722614 -3.13586,2.888 -3.49162,2.97172 -7.4535,1.75389 l -3.56867,-1.09697 -0.63709,-3.57167 c -0.69465,-3.89439 -0.77929,-15.111035 -0.42582,-56.432386 0.17783,-20.788783 0.10106,-24.441362 -0.60499,-28.776295 -0.44477,-2.73084 -0.80991,-6.052493 -0.81143,-7.381452 -0.001,-1.328959 -0.22483,-3.70209 -0.49625,-5.273626 C 119.01132,6.145892 119.00129,6.0357201 119.56259,4.680636 120.14817,3.2669097 124.82349,0 126.26112,0 c 1.9926,0 3.57042,1.8965153 4.37587,5.2597509 0.40457,1.6893238 3.87571,6.9519371 4.97258,7.5389661 1.48565,0.7951 12.45853,-0.24871 19.1597,-1.822592 8.42017,-1.9776179 22.5656,-3.8327847 29.22453,-3.8327847 5.74475,0 7.64305,1.4420629 9.31197,7.0739157 4.10005,13.835784 4.54398,15.67749 6.66656,27.656314 0.90921,5.131156 1.48632,6.14542 3.58173,6.294834 0.53927,0.03845 8.05238,0.09285 16.69583,0.12088 20.96655,0.06799 23.14878,0.553157 26.25738,5.837642 1.0826,1.840386 1.13114,2.194253 0.68584,5.000339 -0.26357,1.660888 -0.72386,5.269946 -1.02287,8.020132 -1.16719,10.735545 -8.09448,42.127663 -10.90389,49.412693 -2.37755,6.16521 -8.99842,18.93938 -12.52409,24.16372 -1.76759,2.61921 -5.05105,7.22667 -7.29658,10.23878 -2.24552,3.0121 -4.85645,6.65521 -5.80205,8.09579 -2.0657,3.14698 -6.25651,7.61955 -7.13951,7.61955 -0.34886,0 -1.16498,-0.57262 -1.81359,-1.27248 z" />
	<path id="Y" style="fill:#000000;stroke:#000000;stroke-width:0" d="m 280.90024,167.15116 c -6.61054,-1.77392 -9.78899,-3.45311 -14.57775,-7.70147 -5.83739,-5.17864 -7.66879,-7.58266 -10.81905,-14.20178 -0.84237,-1.76992 -1.77429,-11.0696 -1.36008,-13.57234 1.84852,-11.16925 5.04867,-21.61567 8.22461,-26.84801 1.05294,-1.73471 3.23533,-4.53224 4.84977,-6.216708 l 2.93534,-3.062696 5.05018,-0.183765 5.0502,-0.183766 3.84604,2.204202 c 7.90762,4.531933 11.28718,8.186113 15.09349,16.320003 1.25085,2.67302 1.50054,3.7877 1.51761,6.77529 0.0186,3.26239 -0.15514,3.93077 -1.98221,7.62378 -1.10146,2.22634 -2.49284,4.35007 -3.09198,4.7194 -1.95845,1.20725 -4.20125,1.45997 -6.12511,0.69019 -2.072,-0.82904 -5.21918,-4.02474 -5.1898,-5.26978 0.02,-0.84994 2.35983,-2.63031 4.24174,-3.22761 1.80656,-0.57337 2.99853,-4.33639 2.10838,-6.6561 -0.44164,-1.15089 -3.53275,-2.56162 -10.10696,-4.61264 -6.44674,-2.01126 -8.19677,-2.21533 -9.32471,-1.0874 -1.17999,1.17999 -1.36137,2.75956 -0.74575,6.49428 0.59306,3.59787 6.59252,20.77156 8.7297,24.98906 4.31625,8.51771 12.98828,12.06047 22.04319,9.00523 5.29842,-1.78775 8.07678,-3.35369 12.96201,-7.30565 3.42211,-2.76836 4.94907,-4.45297 7.70175,-8.49692 3.70799,-5.44742 7.12743,-12.27673 9.44401,-18.86162 1.72532,-4.90426 3.88231,-15.52748 3.88231,-19.120467 0,-5.023724 -2.81496,-10.710603 -7.70212,-15.560097 -3.03156,-3.008194 -9.14636,-7.060173 -12.77546,-8.465687 -5.41702,-2.097956 -14.06838,-3.674368 -26.66846,-4.8594 -12.21168,-1.148506 -19.22531,-5.688118 -22.23881,-14.394192 -0.40205,-1.161531 -0.81686,-4.700301 -0.96754,-8.254201 -0.44045,-10.388218 0.98076,-14.608478 7.32085,-21.739226 5.88934,-6.623799 14.86181,-12.25255 24.81951,-15.570171 4.92722,-1.6416051 6.67409,-1.9907423 11.19124,-2.2367184 4.39806,-0.2394911 5.60745,-0.1554087 6.78133,0.471466 0.78576,0.4196165 1.69654,0.7642592 2.02394,0.7658733 1.07793,0.00532 2.50018,1.8821991 2.50018,3.2993841 0,1.034251 -0.48912,1.810223 -1.9049,3.022075 -1.04769,0.896783 -1.90489,1.845695 -1.90489,2.108692 0,0.262997 -1.31714,1.623801 -2.927,3.024007 -6.8392,5.948558 -8.81355,10.69749 -8.36849,20.128976 0.13826,2.929882 0.50809,6.184258 0.82185,7.231948 0.84956,2.836802 4.17917,5.659953 9.99742,8.476725 5.40122,2.614877 5.8097,2.673976 13.52408,1.956661 2.96191,-0.275414 3.48372,-0.488395 5.30129,-2.163766 1.22566,-1.129786 2.71869,-3.301694 3.80847,-5.540175 0.98585,-2.025039 2.90249,-5.610592 4.25919,-7.967895 1.3567,-2.357302 2.5969,-4.714604 2.756,-5.238449 2.22694,-7.33254 2.76349,-10.009569 3.00662,-15.001015 0.14671,-3.012108 0.48035,-6.548061 0.74142,-7.857673 1.10217,-5.5287557 1.54476,-6.4973661 3.96304,-8.6731462 2.25783,-2.0314164 2.44955,-2.1078154 4.52412,-1.8028487 3.81139,0.5602851 5.39586,2.8454069 7.42718,10.7114819 1.23834,4.795321 1.25465,5.050274 0.75867,11.857058 -0.27877,3.825999 -0.63826,9.313663 -0.79886,12.194811 -0.16059,2.881147 -0.59389,7.448025 -0.96289,10.148618 -0.36899,2.700594 -0.79482,6.986598 -0.94626,9.524454 -0.3731,6.252047 -1.92546,20.059995 -3.3296,29.615974 -0.63502,4.321721 -1.38218,9.679224 -1.66035,11.905563 -1.69692,13.58104 -4.81779,29.04422 -6.77604,33.57371 -2.87558,6.65126 -10.62702,16.06177 -16.54717,20.08885 -2.46757,1.67849 -17.06599,9.01793 -20.9538,10.53461 -1.44058,0.56198 -3.63286,1.24133 -4.87173,1.50967 -1.84844,0.40035 -21.46983,2.4766 -22.27296,2.35681 -0.13096,-0.0195 -2.51866,-0.64749 -5.306,-1.39547 z" />
	<path id="K" style="fill:#000000;stroke:#000000;stroke-width:0" d="m 448.83628,166.09055 c -4.36578,-2.01483 -5.45778,-2.75198 -7.78893,-5.25786 -1.27333,-1.36875 -3.71324,-3.98875 -5.42203,-5.82221 -2.93339,-3.14739 -4.41553,-5.13813 -12.40938,-16.66779 -1.816,-2.61922 -4.03304,-5.61943 -4.92677,-6.66712 -0.89372,-1.04769 -2.97409,-3.51214 -4.62303,-5.47656 -2.47449,-2.94793 -3.24141,-3.57167 -4.39153,-3.57167 h -1.39348 l -0.23811,11.90557 c -0.21331,10.6654 -0.33733,12.10399 -1.19056,13.81045 -1.16375,2.32751 -3.8293,4.17423 -9.81228,6.79808 -5.82284,2.55361 -8.73158,3.27901 -15.72984,3.92284 -5.59122,0.51438 -5.79559,0.50001 -6.83987,-0.48105 -0.59205,-0.5562 -1.20924,-1.80191 -1.37152,-2.76824 -0.34621,-2.06152 0.40088,-18.94921 1.39443,-31.52087 0.38296,-4.84556 0.69493,-11.10287 0.69328,-13.90512 -0.002,-2.80226 0.31212,-7.51685 0.69728,-10.476906 0.79233,-6.089298 1.9783,-19.993481 2.61192,-30.621695 0.61569,-10.327579 5.98544,-49.269284 7.65624,-55.52337 1.10111,-4.1216674 7.17269,-6.0682332 9.86825,-3.163784 2.0931,2.255311 2.56579,5.634541 2.36005,16.871757 -0.10457,5.711586 -0.54357,13.599204 -0.97555,17.528041 -1.08918,9.906012 -2.62404,21.918215 -3.16417,24.763579 -0.24861,1.309613 -0.59008,3.893687 -0.75882,5.742383 -0.26147,2.864561 -0.14842,3.729453 0.76499,5.852734 1.20233,2.794908 2.00999,3.405897 4.50216,3.405897 2.66261,0 4.02357,-0.976271 9.35049,-6.707482 5.73243,-6.167494 11.47423,-10.78532 23.75465,-19.104616 16.02719,-10.857518 28.63469,-18.47661 30.57369,-18.47661 2.17852,0 4.09587,1.464144 5.32962,4.069882 3.13493,6.621066 3.69208,13.782291 1.42934,18.37201 -3.00593,6.097233 -14.89739,19.515415 -20.09747,22.677768 -2.96846,1.805217 -4.95236,1.400137 -6.50158,-1.327519 -4.15834,-7.321471 -6.17508,-9.980332 -7.57008,-9.980332 -0.61407,0 -1.75384,-0.222177 -2.53281,-0.493728 -1.19319,-0.415947 -1.8984,-0.275714 -4.47613,0.890055 -3.86414,1.747547 -6.04199,3.883743 -8.43567,8.274317 -2.24121,4.11092 -3.16319,6.77701 -2.73118,7.897733 0.17253,0.447564 0.35998,2.206702 0.41657,3.909198 0.12635,3.80184 1.54298,7.008248 6.6759,15.110358 8.8031,13.89533 23.43044,27.78427 32.72178,31.06993 4.156,1.46968 13.39069,1.89974 17.15154,0.79876 5.78756,-1.69431 10.63745,-6.228 13.83081,-12.92913 1.13299,-2.37753 1.35822,-3.45708 1.34128,-6.429 -0.0438,-7.68449 -1.3647,-10.00068 -5.70322,-10.00068 -1.94015,0 -2.95575,0.37526 -5.97242,2.20671 -2.27509,1.38124 -4.39048,2.29188 -5.65506,2.43442 -1.7731,0.19986 -2.14623,0.0676 -3.04926,-1.08037 -2.11068,-2.68329 -0.88256,-5.59181 3.84074,-9.09595 1.6434,-1.2192 3.95233,-2.62532 5.13099,-3.1247 1.17865,-0.49938 2.48353,-1.09277 2.89971,-1.31864 0.4162,-0.22587 1.93999,-0.55851 3.3862,-0.7392 3.53051,-0.44112 4.7532,0.25544 8.98891,5.12085 5.61141,6.44564 7.93338,12.74286 7.50355,20.34975 -0.23345,4.13166 -1.3383,5.94336 -9.92035,16.26732 -10.55852,12.70157 -15.1826,16.9644 -23.88527,22.01925 -2.02822,1.17807 -2.75864,1.30798 -8.57201,1.52463 -5.90739,0.22014 -6.52255,0.15944 -8.73599,-0.86207 z" />
</svg>
