<svg
   id="Layer_1"
   x="0px"
   y="0px"
   viewBox="0 0 71.690567 30.134109"
   xml:space="preserve"
   version="1.1"
   width="71.690567"
   height="30.134109"
   xmlns="http://www.w3.org/2000/svg"
   xmlns:svg="http://www.w3.org/2000/svg"><defs
     id="defs59" /><style
     type="text/css"
     id="style1">	.st0{fill:#E3141C;}	.st1{fill-rule:evenodd;clip-rule:evenodd;fill:#0F71B8;}	.st2{fill-rule:evenodd;clip-rule:evenodd;fill:#0D5296;}	.st3{fill-rule:evenodd;clip-rule:evenodd;fill:#FEEB1A;}	.st4{fill-rule:evenodd;clip-rule:evenodd;fill:#F4990E;}	.st5{fill-rule:evenodd;clip-rule:evenodd;fill:#1659A2;}	.st6{fill-rule:evenodd;clip-rule:evenodd;fill:#203668;}	.st7{fill-rule:evenodd;clip-rule:evenodd;fill:#269B38;}	.st8{fill-rule:evenodd;clip-rule:evenodd;fill:#506C2A;}	.st9{fill-rule:evenodd;clip-rule:evenodd;fill:#B38CBF;}	.st10{fill-rule:evenodd;clip-rule:evenodd;fill:#823D8F;}	.st11{fill-rule:evenodd;clip-rule:evenodd;fill:#E31021;}	.st12{fill-rule:evenodd;clip-rule:evenodd;fill:#B3301C;}</style><g
     id="g59"
     transform="translate(-131.91959,-23.111312)">		<path
   style="fill:#000000;stroke-width:0.0665779"
   d="m 143.5237,49.482268 c -0.84735,-0.180161 -0.97542,-0.233619 -1.59164,-0.664384 -0.34657,-0.242273 -0.5346,-0.438927 -0.78195,-0.817831 -0.17911,-0.274372 -0.34227,-0.576424 -0.36257,-0.671227 -0.0203,-0.0948 -0.0943,-0.318026 -0.16442,-0.496051 -0.12194,-0.309538 -0.11855,-0.57891 0.009,-0.743228 0.0292,-0.03753 0.074,-0.225456 0.0995,-0.417605 0.0255,-0.192151 0.0724,-0.36544 0.10415,-0.385088 0.0318,-0.01965 0.0578,-0.08345 0.0578,-0.141791 0,-0.23676 1.06482,-1.483944 1.26696,-1.483944 0.0632,0 0.15216,-0.04494 0.19775,-0.09987 0.0456,-0.05493 0.13314,-0.09987 0.19457,-0.09987 0.0614,0 0.14561,-0.03393 0.18708,-0.07539 0.13098,-0.130977 0.82238,-0.335522 0.90627,-0.268111 0.0423,0.034 0.16681,0.08173 0.27666,0.106073 0.30002,0.06648 0.47221,0.244218 0.51962,0.536354 0.0377,0.231993 0.0106,0.310678 -0.23414,0.68018 -0.15219,0.229812 -0.3297,0.434659 -0.39447,0.455216 -0.21782,0.06913 -0.41603,0.631294 -0.25719,0.729461 0.0366,0.02263 0.0666,0.125219 0.0666,0.227973 0,0.234833 0.18189,0.46687 0.49666,0.6336 0.21438,0.113556 0.27987,0.119608 0.54038,0.04993 0.16304,-0.0436 0.34984,-0.07928 0.41512,-0.07928 0.20462,0 0.59871,-0.473869 0.7431,-0.893529 0.15064,-0.437863 0.18422,-1.299934 0.0629,-1.615452 -0.0396,-0.103083 -0.0968,-0.337413 -0.12703,-0.520735 -0.0848,-0.514225 -0.47471,-1.43438 -0.66643,-1.572712 -0.0915,-0.06605 -0.30729,-0.156894 -0.47944,-0.201867 -0.26681,-0.0697 -0.38961,-0.06385 -0.83222,0.0397 -0.28558,0.06681 -0.59413,0.173696 -0.68567,0.23753 -0.0915,0.06383 -0.35845,0.212568 -0.59312,0.33052 -0.56972,0.28635 -1.98724,1.265142 -2.3676,1.634813 -0.33549,0.326052 -0.5004,0.424186 -1.07847,0.641759 -0.31403,0.118195 -0.53581,0.147038 -1.16024,0.150894 -0.47201,0.0029 -0.80834,-0.02393 -0.86551,-0.06909 -0.0514,-0.04062 -0.19838,-0.09316 -0.32654,-0.116754 -0.25966,-0.04781 -0.66349,-0.234016 -0.7656,-0.353037 -0.0366,-0.04268 -0.12631,-0.088 -0.19933,-0.100702 -0.073,-0.0127 -0.23008,-0.17252 -0.34904,-0.35515 -0.11895,-0.18263 -0.55801,-0.66474 -0.97569,-1.071354 -0.41768,-0.406616 -0.81145,-0.841036 -0.87504,-0.96538 -0.0636,-0.124344 -0.21642,-0.324892 -0.33961,-0.445663 -0.1232,-0.12077 -0.224,-0.258437 -0.224,-0.305926 0,-0.04749 -0.0599,-0.14057 -0.13316,-0.206848 -0.0732,-0.06628 -0.1337,-0.168291 -0.13437,-0.226697 -6.6e-4,-0.05841 -0.0903,-0.237723 -0.19927,-0.398482 -0.10893,-0.160759 -0.24537,-0.46036 -0.30318,-0.665779 -0.0578,-0.205419 -0.1362,-0.463369 -0.17419,-0.573223 -0.10365,-0.299704 -0.14493,-2.353104 -0.0656,-3.262317 0.0425,-0.486909 0.12101,-0.928945 0.20105,-1.131824 0.0722,-0.183089 0.18126,-0.495546 0.24226,-0.694349 0.33708,-1.098563 1.08164,-2.067876 2.33189,-3.0358 0.94166,-0.72902 2.02218,-1.38815 2.46225,-1.502006 0.36851,-0.09534 0.78702,-0.26667 0.97046,-0.397292 0.10006,-0.07125 0.20284,-0.129541 0.22841,-0.129541 0.0256,0 0.38488,-0.1498 0.79847,-0.332889 0.41359,-0.18309 0.79333,-0.33289 0.84387,-0.33289 0.0505,0 0.15826,-0.04649 0.23939,-0.103318 0.49582,-0.347283 1.53928,-0.369802 2.13126,-0.04599 0.30311,0.165799 0.41652,0.254622 0.84673,0.663183 0.17469,0.165897 0.94225,1.151884 2.16378,2.779528 0.48822,0.65053 0.82187,1.254476 0.87893,1.590977 0.0257,0.151476 0.0662,0.370719 0.0901,0.487206 0.067,0.327132 -0.20276,0.632315 -0.75626,0.855445 -0.40147,0.161847 -0.50136,0.175901 -1.00469,0.141356 -0.42159,-0.02894 -0.59333,-0.0699 -0.69907,-0.166735 -0.0771,-0.07061 -0.31561,-0.239485 -0.53003,-0.375287 l -0.38986,-0.246911 -0.6376,0.288072 c -0.66453,0.30024 -1.0628,0.628569 -1.21854,1.004566 -0.0702,0.169525 -0.0619,0.237021 0.0603,0.488543 0.0869,0.178952 0.24335,0.355953 0.40434,0.457581 0.1444,0.09116 0.28147,0.196353 0.30459,0.233769 0.0655,0.105994 0.97634,0.536568 1.13505,0.536568 0.0781,0 0.281,0.04738 0.45096,0.105294 0.25523,0.08697 0.51513,0.09864 1.49322,0.06709 0.6513,-0.02101 1.41823,-0.05585 1.70427,-0.07741 0.44652,-0.03366 0.56424,-0.01868 0.83223,0.105891 0.17168,0.0798 0.37206,0.198632 0.4453,0.264063 0.0732,0.06543 0.20805,0.141319 0.2996,0.16864 0.41556,0.124025 1.53885,1.053663 1.73301,1.434234 0.069,0.135299 0.17171,0.263732 0.2282,0.285408 0.0565,0.02168 0.1027,0.08193 0.1027,0.133892 0,0.05197 0.0974,0.300076 0.21638,0.551358 l 0.21638,0.456875 -0.005,1.89747 c -0.006,2.144843 -0.12108,3.339965 -0.40744,4.227697 -0.25325,0.785077 -0.42861,1.086213 -0.89701,1.540386 -0.47524,0.460807 -1.48508,1.222596 -1.62069,1.222596 -0.0491,0 -0.28696,0.103046 -0.52859,0.228991 -0.84313,0.43947 -2.452,0.552118 -3.79805,0.265927 z m 3.20523,-0.698364 c 0.77998,-0.185375 0.90962,-0.238647 1.45931,-0.599714 0.3318,-0.217947 0.69637,-0.493407 0.81016,-0.612133 0.25414,-0.265191 0.5506,-0.81481 0.5506,-1.020787 0,-0.08393 0.0282,-0.170045 0.0627,-0.191369 0.0345,-0.02132 0.0835,-0.180382 0.10895,-0.353463 0.0254,-0.173082 0.074,-0.388963 0.10786,-0.479737 0.1823,-0.488051 0.40404,-2.361626 0.40595,-3.430163 10e-4,-0.763092 -0.13179,-2.043204 -0.24456,-2.351202 -0.0578,-0.158008 -0.16575,-0.364279 -0.23977,-0.45838 -0.074,-0.0941 -0.13458,-0.210937 -0.13458,-0.259637 0,-0.0487 -0.0653,-0.123486 -0.14508,-0.16619 -0.0798,-0.04271 -0.34825,-0.26846 -0.59657,-0.501677 -0.24831,-0.233218 -0.49394,-0.424032 -0.54583,-0.424032 -0.0519,0 -0.13368,-0.04738 -0.18174,-0.1053 -0.0481,-0.05791 -0.25936,-0.192111 -0.46955,-0.298212 l -0.38216,-0.192913 -2.21836,0.01007 c -2.13706,0.0097 -2.23545,0.0046 -2.68441,-0.140579 -0.79755,-0.257817 -1.24237,-0.601821 -1.62497,-1.256693 -0.17103,-0.292738 -0.20566,-0.422477 -0.20437,-0.765646 0.002,-0.50457 0.24264,-0.99716 0.59765,-1.222894 0.12816,-0.08149 0.30792,-0.205836 0.39947,-0.27632 0.17437,-0.134256 0.90133,-0.436441 1.21504,-0.505072 0.1007,-0.02203 0.25806,-0.05854 0.34968,-0.08113 0.1186,-0.02924 0.22889,0.0059 0.38283,0.122067 0.90719,0.684474 1.59988,0.81865 2.07609,0.402141 0.10657,-0.09321 0.17045,-0.21835 0.16992,-0.332889 -10e-4,-0.327397 -0.54432,-1.267912 -1.06655,-1.847977 -0.13187,-0.146472 -0.31769,-0.402266 -0.41294,-0.568432 -0.0952,-0.166166 -0.44528,-0.61001 -0.77784,-0.986319 -0.33257,-0.37631 -0.60468,-0.71214 -0.60468,-0.74629 0,-0.122949 -0.48287,-0.593119 -0.77929,-0.758791 -0.24552,-0.137222 -0.39236,-0.169119 -0.77703,-0.168786 -0.26273,2.27e-4 -0.54855,0.03951 -0.64075,0.08806 -0.0915,0.04821 -0.22636,0.119152 -0.2996,0.157657 -0.0732,0.03851 -0.29044,0.133698 -0.48269,0.211542 -0.19224,0.07784 -0.50682,0.205374 -0.69907,0.283402 -0.77214,0.313395 -2.82739,1.367964 -3.04593,1.562897 -0.12817,0.114316 -0.33789,0.261233 -0.46605,0.326483 -0.29837,0.151905 -0.94858,0.649694 -1.32457,1.01407 -0.16094,0.155967 -0.31343,0.283576 -0.33886,0.283576 -0.0725,0 -0.6668,0.789038 -0.6668,0.885331 0,0.04742 -0.1035,0.24961 -0.23,0.449312 -0.53381,0.842673 -0.78277,3.03449 -0.52902,4.657367 0.11584,0.740899 0.11588,0.741028 0.38541,1.373173 0.0956,0.224285 0.17388,0.437827 0.17388,0.474537 0,0.03671 0.0473,0.105981 0.10506,0.153937 0.0578,0.04796 0.17813,0.231385 0.26743,0.40762 0.0893,0.176235 0.19183,0.320427 0.22783,0.320427 0.036,0 0.0655,0.03856 0.0655,0.08569 0,0.04713 0.45279,0.548959 1.0062,1.11518 0.55342,0.56622 1.079,1.143273 1.16796,1.282339 0.089,0.139066 0.2129,0.27221 0.27542,0.295876 0.0625,0.02367 0.15326,0.08215 0.20165,0.129975 0.0484,0.04782 0.13826,0.0879 0.19973,0.08906 0.0615,0.0012 0.16991,0.04611 0.24099,0.09987 0.0711,0.05376 0.19664,0.09775 0.27903,0.09775 0.0824,0 0.16831,0.02996 0.19094,0.06658 0.0226,0.03662 0.29458,0.06658 0.60434,0.06658 0.54236,0 0.58716,-0.01211 1.21111,-0.327422 0.51229,-0.258878 0.74549,-0.427441 1.11397,-0.805195 0.79262,-0.812564 1.94816,-1.533507 2.99101,-1.866096 0.83908,-0.267604 1.3384,-0.259179 1.93487,0.03265 1.0443,0.510928 1.31907,1.14186 1.32071,3.032645 8.6e-4,0.986735 -0.0592,1.440147 -0.25184,1.901199 -0.15441,0.36956 -0.34415,0.551942 -0.80167,0.770618 -0.33746,0.161291 -0.48214,0.190822 -0.93209,0.190247 -0.78482,-10e-4 -1.00035,-0.0526 -1.2389,-0.296571 -0.26863,-0.274735 -0.38493,-0.619171 -0.40543,-1.200646 -0.0144,-0.40938 0.005,-0.498426 0.16127,-0.732357 0.30224,-0.452972 0.45774,-0.63249 0.54788,-0.63249 0.16969,0 0.24635,-0.170999 0.16081,-0.358727 -0.0736,-0.161588 -0.10994,-0.173896 -0.51322,-0.173896 -0.39975,0 -0.5916,0.03815 -1.09343,0.217455 -0.28762,0.102762 -0.70566,0.649547 -0.78325,1.02444 -0.1476,0.713224 -0.18483,1.10013 -0.13862,1.440607 0.0511,0.376819 0.38538,1.09845 0.63861,1.378749 0.0827,0.09154 0.20229,0.248308 0.26575,0.348362 0.16586,0.261528 0.49137,0.44081 1.18789,0.654261 0.54293,0.166379 0.71694,0.187846 1.55301,0.191577 0.82782,0.0037 1.045,-0.02038 1.7976,-0.199244 z"
   id="path10" /><path
   style="fill:#000000;stroke-width:0.0665779"
   d="m 153.28262,40.160231 c 0.003,-0.07756 0.019,-0.09334 0.0402,-0.04022 0.0192,0.04806 0.0169,0.105484 -0.005,0.127607 -0.0221,0.02212 -0.0379,-0.0172 -0.035,-0.08738 z"
   id="path11" /><path
   style="fill:#000000;stroke-width:0.0665779"
   d="m 165.14358,45.05282 c -0.8135,-0.779411 -1.02163,-1.158125 -1.0646,-1.937122 -0.026,-0.471203 -0.007,-0.644358 0.10127,-0.932091 0.26262,-0.696805 0.29735,-0.826245 0.3538,-1.31876 0.0315,-0.274634 0.0863,-0.724035 0.12186,-0.998668 0.0808,-0.624221 0.0862,-3.612444 0.008,-4.194408 -0.0322,-0.238016 -0.091,-0.682129 -0.13069,-0.986918 -0.0397,-0.304789 -0.13357,-0.76917 -0.20854,-1.031957 -0.075,-0.262788 -0.15923,-0.582656 -0.18724,-0.710819 -0.0619,-0.283111 -0.21098,-0.532623 -0.3183,-0.532623 -0.0435,0 -0.12586,-0.04677 -0.18302,-0.103927 -0.0669,-0.06693 -0.19305,-0.09656 -0.35429,-0.08322 l -0.25036,0.02071 -0.047,0.63249 c -0.0258,0.34787 -0.077,1.081891 -0.1136,1.631159 -0.0366,0.549268 -0.0844,1.148469 -0.10612,1.331558 -0.0217,0.183089 -0.0605,0.938768 -0.0861,1.679285 -0.0592,1.709463 -0.0233,1.653511 -1.05308,1.641239 -0.38633,-0.0046 -0.76732,-0.03972 -0.84666,-0.07804 -0.0793,-0.03832 -0.21944,-0.08575 -0.31135,-0.105401 -0.1076,-0.023 -0.25579,-0.16739 -0.41611,-0.405439 -0.24483,-0.363521 -0.24902,-0.380568 -0.25059,-1.018053 -8.7e-4,-0.356588 -0.0324,-0.768182 -0.0701,-0.914653 -0.0377,-0.146472 -0.0948,-0.498151 -0.12697,-0.781509 -0.0322,-0.283359 -0.0877,-0.612919 -0.12349,-0.732357 -0.0358,-0.119438 -0.11665,-0.39692 -0.17974,-0.616627 -0.0631,-0.219707 -0.16829,-0.549268 -0.23378,-0.732357 -0.14784,-0.4133 -0.32957,-1.025871 -0.32957,-1.110936 0,-0.03503 -0.0449,-0.108628 -0.0999,-0.163555 -0.0549,-0.05493 -0.0999,-0.153978 -0.0999,-0.220115 0,-0.06614 -0.0449,-0.157545 -0.0999,-0.20313 -0.0549,-0.04559 -0.0999,-0.117496 -0.0999,-0.159801 0,-0.193573 -0.29819,-0.337306 -0.69907,-0.33696 -0.2197,1.9e-4 -0.45938,0.02649 -0.53262,0.05843 -0.0732,0.03195 -0.35786,0.138199 -0.63249,0.236112 -0.44304,0.157956 -0.5129,0.206442 -0.61965,0.430112 -0.13154,0.275593 -0.1293,0.911981 0.009,2.634952 0.0368,0.457723 0.0694,1.436965 0.0723,2.176092 0.003,0.739128 0.0341,1.419172 0.0691,1.511209 0.0894,0.235141 0.10961,2.474704 0.0233,2.584014 -0.0377,0.04778 -0.0876,0.16679 -0.11094,0.264464 -0.0254,0.106383 -0.14251,0.23986 -0.29213,0.33289 -0.23733,0.147556 -0.30906,0.155299 -1.43853,0.155299 h -1.18874 l -0.19664,-0.233022 c -0.10816,-0.128163 -0.21374,-0.316036 -0.23464,-0.417498 -0.0209,-0.10146 -0.0641,-0.200599 -0.096,-0.220307 -0.0319,-0.01971 -0.0582,-0.101475 -0.0584,-0.181704 -2.2e-4,-0.08023 -0.0412,-0.224007 -0.091,-0.319507 -0.0498,-0.0955 -0.11241,-0.348211 -0.13907,-0.56158 -0.0267,-0.21337 -0.0777,-0.464794 -0.11347,-0.558721 -0.0358,-0.09393 -0.0912,-0.399876 -0.12313,-0.679887 -0.032,-0.280011 -0.16465,-0.936398 -0.29485,-1.458637 -0.1302,-0.522238 -0.23672,-1.021639 -0.23672,-1.109779 0,-0.08814 -0.0293,-0.215018 -0.0651,-0.281951 -0.0358,-0.06693 -0.13772,-0.461934 -0.22643,-0.87778 -0.237,-1.110906 -1.46554,-5.34401 -1.702,-5.864476 -0.11193,-0.246367 -0.20351,-0.485617 -0.20351,-0.531668 0,-0.04605 -0.0734,-0.233959 -0.16307,-0.417574 -0.17362,-0.355453 -0.43225,-1.027074 -0.5644,-1.465669 -0.0819,-0.271831 -0.0338,-0.467833 0.21248,-0.864986 0.25787,-0.415929 0.7213,-0.832185 0.92757,-0.833161 0.0477,-2.25e-4 0.16297,-0.04019 0.25612,-0.0888 0.0932,-0.04862 0.2613,-0.106777 0.37367,-0.12925 0.17518,-0.03504 0.23406,-0.0072 0.41318,0.195085 0.11489,0.129769 0.20889,0.257228 0.20889,0.283241 0,0.02601 0.16596,0.207132 0.36879,0.402487 l 0.36879,0.355191 0.44918,-0.03766 c 0.24705,-0.02071 0.523,-0.06888 0.61323,-0.107031 0.0902,-0.03816 0.29139,-0.101511 0.44702,-0.140791 0.15562,-0.03928 0.28298,-0.107712 0.28301,-0.152073 4e-5,-0.04436 0.17231,-0.1458 0.38283,-0.22542 0.63717,-0.241026 1.09928,-0.448582 1.41462,-0.635427 0.27884,-0.165215 1.02905,-0.465453 1.73103,-0.692767 0.16478,-0.05336 0.38948,-0.131184 0.49933,-0.172944 0.10986,-0.04176 0.43193,-0.08777 0.71571,-0.102243 0.55466,-0.02829 0.48533,-0.05559 1.11712,0.439847 0.17506,0.137278 0.66385,0.794247 0.66385,0.892266 0,0.01993 0.11984,0.233498 0.26631,0.474595 0.14647,0.241097 0.26631,0.480171 0.26631,0.531276 0,0.0511 0.0449,0.130214 0.0999,0.1758 0.0549,0.04559 0.0999,0.113835 0.0999,0.151668 0,0.03783 0.0714,0.162457 0.15877,0.276943 0.0873,0.114487 0.16971,0.252135 0.18309,0.305885 0.0134,0.05375 0.20408,0.374165 0.42378,0.712033 0.38391,0.590371 0.40905,0.614365 0.64521,0.615846 0.13515,8.46e-4 0.26186,-0.02455 0.28157,-0.05644 0.0197,-0.03189 0.13383,-0.07628 0.2536,-0.09866 0.11977,-0.02237 0.47242,-0.119112 0.78367,-0.214973 1.4831,-0.456778 1.70795,-0.497381 2.98608,-0.539236 l 0.95546,-0.03129 0.26603,0.254689 c 0.14632,0.140079 0.31474,0.307119 0.37426,0.3712 0.0595,0.06408 0.14004,0.116512 0.17893,0.116512 0.096,0 0.29916,0.354685 0.29916,0.522322 0,0.07458 0.0253,0.151246 0.0563,0.170371 0.0309,0.01913 0.0769,0.522724 0.10222,1.119109 0.0253,0.596385 0.082,1.204176 0.12608,1.350648 0.0576,0.191409 0.0803,1.165136 0.0809,3.46205 l 7.4e-4,3.195739 -0.25145,0.890612 c -0.1383,0.489835 -0.31016,1.029116 -0.38193,1.198402 -0.0718,0.169285 -0.2078,0.577387 -0.30231,0.906893 -0.0945,0.329506 -0.23952,0.778906 -0.32223,0.998668 -0.0827,0.219762 -0.18257,0.489447 -0.2219,0.5993 -0.0393,0.109854 -0.18288,0.454394 -0.31902,0.765646 -0.13613,0.311252 -0.2884,0.712792 -0.33838,0.892311 -0.09,0.32337 -0.15464,0.42386 -0.50925,0.792023 -0.1007,0.10455 -0.18309,0.217745 -0.18309,0.251546 0,0.0338 -0.0546,0.116063 -0.12134,0.182803 -0.11741,0.11741 -0.14105,0.102466 -0.72882,-0.46067 z m 0.62608,-0.443986 c 0.12,-0.07773 0.4644,-0.758558 0.51309,-1.014293 0.0244,-0.128163 0.0864,-0.322903 0.13786,-0.432757 0.0514,-0.109853 0.14427,-0.334553 0.20633,-0.499334 0.0621,-0.16478 0.13591,-0.345524 0.16411,-0.401652 0.0282,-0.05613 0.0733,-0.202139 0.10013,-0.324466 0.0269,-0.122327 0.10344,-0.316084 0.17016,-0.430571 0.28985,-0.497312 0.6718,-1.827196 0.93372,-3.250988 0.2627,-1.42808 0.26743,-1.480612 0.23991,-2.669012 -0.0447,-1.929423 -0.17973,-4.529084 -0.24286,-4.674309 -0.0318,-0.07324 -0.0771,-0.40107 -0.10054,-0.728521 -0.0235,-0.327451 -0.0706,-0.647552 -0.10474,-0.711336 -0.0341,-0.06378 -0.0621,-0.272505 -0.0621,-0.463825 0,-0.329709 -0.0165,-0.363053 -0.31624,-0.639199 -0.17394,-0.16024 -0.38058,-0.30775 -0.4592,-0.327801 -0.30661,-0.07819 -1.68547,0.08251 -2.05412,0.239399 -0.0732,0.03117 -0.25299,0.08648 -0.39946,0.122922 -0.14648,0.03644 -0.44608,0.11741 -0.66578,0.179934 -0.21971,0.06252 -0.51127,0.136003 -0.64792,0.163288 -0.13665,0.02728 -0.2872,0.08177 -0.33455,0.12107 -0.0474,0.0393 -0.24332,0.09231 -0.43547,0.117805 -0.19215,0.02549 -0.36544,0.07236 -0.38509,0.104147 -0.0197,0.03179 -0.18306,0.0578 -0.36315,0.0578 -0.37399,0 -0.41156,-0.03932 -0.66798,-0.699068 -0.0854,-0.219707 -0.20549,-0.459387 -0.26687,-0.532623 -0.0614,-0.07324 -0.14775,-0.246012 -0.19192,-0.383947 -0.0949,-0.296349 -0.46227,-0.940652 -1.01311,-1.776805 -0.0614,-0.09321 -0.11384,-0.210103 -0.11651,-0.25976 -0.003,-0.04966 -0.0873,-0.199576 -0.18796,-0.333153 -0.1007,-0.133576 -0.21547,-0.301341 -0.25506,-0.37281 -0.0396,-0.07147 -0.18939,-0.19837 -0.33289,-0.282003 -0.40161,-0.234059 -0.77888,-0.15838 -2.25825,0.453004 -0.18309,0.07567 -0.43775,0.167887 -0.56591,0.204938 -0.12817,0.03705 -0.28033,0.109328 -0.33814,0.160615 -0.0578,0.05129 -0.14945,0.09325 -0.20365,0.09325 -0.0542,0 -0.1567,0.04399 -0.22778,0.09775 -0.0711,0.05376 -0.19151,0.0987 -0.26762,0.09987 -0.0761,0.0012 -0.27085,0.08483 -0.43276,0.185916 -0.1619,0.101089 -0.35429,0.221043 -0.42752,0.266565 -0.4147,0.257771 -1.16974,0.571295 -1.66445,0.691154 -0.14647,0.03549 -0.29478,0.09276 -0.32956,0.127281 -0.0955,0.09475 -0.28676,0.07564 -0.48836,-0.04881 -0.27439,-0.169377 -0.81324,-0.703754 -0.81324,-0.806493 0,-0.04997 -0.0876,-0.178422 -0.19461,-0.285458 -0.28458,-0.284577 -0.51286,-0.260822 -0.849,0.08834 -0.14982,0.155625 -0.30586,0.348396 -0.34675,0.428379 -0.09,0.176042 -0.0979,0.53126 -0.0129,0.583768 0.0338,0.02089 0.0811,0.127518 0.10516,0.236951 0.024,0.109434 0.0671,0.198971 0.0958,0.198971 0.0691,0 0.43036,0.879582 0.53099,1.292889 0.0439,0.18013 0.14957,0.449771 0.23491,0.599201 0.0854,0.14943 0.23127,0.511372 0.32427,0.804314 0.45945,1.447212 0.77795,2.562799 0.77795,2.724876 0,0.09901 0.0339,0.24333 0.0753,0.320712 0.0816,0.152571 0.23006,0.749462 0.31947,1.284929 0.0308,0.184714 0.10283,0.484314 0.15996,0.665779 0.0571,0.181465 0.28831,1.098975 0.5137,2.038909 0.22539,0.939934 0.4517,1.78973 0.50291,1.888435 0.0512,0.0987 0.0941,0.243449 0.0952,0.321654 0.001,0.0782 0.0461,0.200346 0.0999,0.271426 0.0538,0.07108 0.0978,0.198817 0.0978,0.283859 0,0.08504 0.027,0.206647 0.0601,0.270231 0.033,0.06358 0.13208,0.265408 0.2201,0.448498 l 0.16003,0.33289 0.51978,0.01958 0.51977,0.01958 0.24836,-0.261079 c 0.16932,-0.177991 0.27134,-0.364323 0.32057,-0.585493 0.0397,-0.178427 0.10707,-0.459233 0.14969,-0.624014 0.11901,-0.460131 0.0441,-2.772126 -0.12296,-3.79494 -0.49244,-3.014879 -0.5688,-3.994674 -0.31134,-3.994674 0.049,0 0.099,-0.02381 0.11122,-0.05292 0.0365,-0.08693 0.58161,-0.34655 0.72768,-0.34655 0.0745,0 0.19369,-0.03115 0.26483,-0.06922 0.13355,-0.07147 0.75617,-0.179986 1.38813,-0.241934 0.33893,-0.03322 0.77615,0.04719 1.00373,0.184599 0.0549,0.03316 0.16782,0.08965 0.25086,0.125524 0.0831,0.03587 0.17997,0.141435 0.21539,0.234579 0.0354,0.09314 0.12591,0.235396 0.20111,0.316114 0.0752,0.08072 0.15098,0.222257 0.1684,0.31453 0.0174,0.09227 0.0783,0.30259 0.13525,0.46737 0.057,0.16478 0.14871,0.449401 0.20387,0.63249 0.0552,0.183089 0.12962,0.42277 0.16548,0.532623 0.34448,1.055558 0.65259,2.744545 0.71297,3.908407 0.0266,0.512986 0.0753,0.877144 0.12375,0.925415 0.0463,0.04615 0.36167,0.09316 0.75049,0.111885 1.00891,0.04858 0.93391,0.231348 0.93414,-2.276265 1e-4,-1.138632 0.0198,-2.631992 0.0438,-3.318576 l 0.0436,-1.248336 h 0.42313 c 0.23273,0 0.48265,-0.03717 0.55539,-0.08259 0.10526,-0.06574 0.15924,-0.06574 0.2645,0 0.0727,0.04543 0.2185,0.08259 0.32391,0.08259 0.10542,0 0.26784,0.05992 0.36094,0.133156 0.0931,0.07324 0.19981,0.133156 0.23713,0.133156 0.13243,0 0.29095,0.440189 0.34764,0.965379 0.0963,0.892199 0.19185,1.590816 0.23671,1.731026 0.0629,0.196645 0.23509,2.379287 0.23633,2.996005 0.002,0.911638 -0.12803,2.896473 -0.19506,2.981558 -0.0351,0.04456 -0.0832,0.299106 -0.10684,0.565651 -0.0237,0.266544 -0.0683,0.536184 -0.0993,0.599201 -0.031,0.06302 -0.12382,0.318362 -0.20633,0.567435 -0.11826,0.356978 -0.14043,0.529657 -0.10471,0.81558 0.0249,0.199495 0.0707,0.362719 0.10182,0.362719 0.0311,0 0.0762,0.08988 0.10036,0.199733 0.0241,0.109854 0.0715,0.199734 0.10516,0.199734 0.0337,0 0.0613,0.04264 0.0613,0.09475 0,0.05211 0.0922,0.18693 0.20485,0.2996 0.19778,0.197772 0.41247,0.255768 0.56973,0.153902 z"
   id="path13" /><path
   style="fill:#000000;stroke-width:0.0665779"
   d="m 171.71179,53.013396 c -0.88553,-0.250086 -1.0052,-0.30572 -1.82323,-0.847626 -0.6594,-0.436816 -0.81487,-0.592304 -1.28079,-1.28095 -0.17342,-0.256324 -0.39318,-0.570905 -0.48835,-0.699067 -0.15971,-0.215071 -0.25256,-0.5275 -0.53159,-1.788641 -0.0572,-0.258305 -0.0596,-0.424219 -0.009,-0.599201 0.0386,-0.133092 0.13593,-0.541586 0.2162,-0.907764 0.38468,-1.754811 0.64422,-2.554941 0.89675,-2.76452 0.0539,-0.04474 0.098,-0.120795 0.098,-0.169011 0,-0.04822 0.11984,-0.22613 0.26631,-0.395364 0.14648,-0.169235 0.26632,-0.345902 0.26632,-0.392594 0,-0.163946 0.88924,-0.946421 1.21685,-1.070755 0.47367,-0.179762 1.31786,-0.111501 2.03334,0.164415 0.29825,0.11502 0.56033,0.238337 0.5824,0.274038 0.0221,0.0357 0.16493,0.142212 0.31748,0.23669 0.15254,0.09448 0.36377,0.250554 0.46939,0.346836 0.2177,0.198447 1.10623,1.510133 1.10623,1.633052 0,0.04424 0.0784,0.237774 0.17423,0.430068 0.15929,0.319645 0.17165,0.402123 0.14424,0.961807 -0.0246,0.501433 -0.0621,0.671187 -0.20751,0.938343 -0.0976,0.179389 -0.17753,0.423288 -0.17753,0.541998 0,0.319965 -0.38237,0.843594 -0.67124,0.919207 -0.51308,0.134305 -1.04737,0.127995 -1.34457,-0.01588 -0.39522,-0.19132 -0.78517,-0.625491 -1.04111,-1.159172 -0.20811,-0.433939 -0.21295,-0.461857 -0.11533,-0.665779 0.15133,-0.316092 0.33991,-0.445869 0.64793,-0.445869 0.38748,0 0.32602,-0.183904 -0.1388,-0.415357 -0.47448,-0.236263 -0.90419,-0.251422 -0.96508,-0.03404 -0.0231,0.08239 -0.0761,0.219059 -0.1178,0.303709 -0.0574,0.116475 -0.0564,0.185076 0.004,0.282052 0.044,0.07048 0.08,0.238553 0.08,0.373496 0,0.212114 0.41393,1.274347 0.76985,1.975566 0.0526,0.103666 0.0957,0.220679 0.0957,0.260027 0,0.03935 0.0749,0.169742 0.16644,0.289763 0.0915,0.120021 0.16645,0.246693 0.16645,0.281493 0,0.107385 0.51926,0.538922 0.70438,0.585386 0.55554,0.13943 2.16194,-0.269509 2.25892,-0.575045 0.0194,-0.06104 0.15197,-0.145963 0.29465,-0.188713 0.23114,-0.06925 0.74427,-0.470785 1.38005,-1.079907 0.11581,-0.110958 0.26108,-0.312406 0.32281,-0.447661 0.10071,-0.220632 0.16661,-0.352462 0.47281,-0.945836 0.15381,-0.298056 0.63068,-2.201381 0.66509,-2.654567 0.0184,-0.242251 0.0649,-0.625884 0.1033,-0.85252 0.0618,-0.364851 0.0526,-0.464019 -0.0808,-0.865513 -0.12063,-0.362943 -0.23024,-0.536338 -0.54917,-0.868744 -0.21915,-0.228413 -0.49583,-0.468093 -0.61484,-0.532623 -1.0174,-0.551655 -1.04385,-0.560929 -2.26075,-0.792804 -1.2734,-0.242638 -1.64747,-0.318628 -2.66312,-0.540981 -0.14647,-0.03207 -0.57744,-0.218245 -0.9577,-0.41373 -0.56611,-0.291019 -0.72899,-0.409901 -0.89881,-0.656035 -0.11407,-0.165334 -0.2854,-0.392673 -0.38073,-0.505195 -0.40464,-0.477602 -0.72977,-1.992224 -0.51291,-2.389391 0.0437,-0.07998 0.0994,-0.280243 0.12389,-0.445023 0.15413,-1.037971 0.43043,-1.654413 1.01508,-2.26465 0.87597,-0.914303 1.00474,-1.004129 2.54327,-1.774018 0.0732,-0.03665 0.23296,-0.116642 0.35493,-0.177764 0.12198,-0.06112 0.29622,-0.111132 0.3872,-0.111132 0.091,0 0.23087,-0.03514 0.31085,-0.07809 0.14095,-0.07569 0.62831,-0.201702 1.24396,-0.321647 0.414,-0.08066 1.3102,-0.07733 1.63116,0.0061 0.14647,0.03805 0.39456,0.09988 0.55132,0.137397 0.34921,0.08357 0.90939,0.619065 0.97127,0.92848 0.0626,0.31281 -0.21304,0.719967 -1.07029,1.58118 -0.41355,0.415456 -0.7519,0.781137 -0.7519,0.812622 0,0.03149 -0.0741,0.166451 -0.16469,0.299923 -0.0906,0.133471 -0.18385,0.344853 -0.20728,0.469737 -0.0234,0.124884 -0.0692,0.243479 -0.10162,0.263544 -0.0325,0.02007 -0.059,0.293934 -0.059,0.608595 0,0.540571 0.0119,0.588374 0.21638,0.867069 0.3817,0.520328 0.59393,0.750031 0.69297,0.750031 0.0531,0 0.23494,0.06301 0.40399,0.140024 0.24268,0.110552 0.40298,0.134621 0.76164,0.114355 0.44244,-0.025 0.46303,-0.03429 0.7903,-0.356402 0.18481,-0.181903 0.35384,-0.405633 0.37563,-0.497178 0.0657,-0.276204 0.41502,-0.944378 0.57267,-1.095454 0.0813,-0.0779 0.20624,-0.260262 0.27766,-0.405248 0.0714,-0.144987 0.16455,-0.308552 0.20694,-0.363479 0.11862,-0.153668 0.23414,-0.758294 0.29723,-1.55563 0.0462,-0.583475 0.10369,-0.843272 0.29735,-1.343081 0.13206,-0.340822 0.30711,-0.71935 0.38901,-0.841174 0.13038,-0.193947 0.46618,-0.435118 0.77682,-0.557919 0.0549,-0.02171 0.15189,-0.06725 0.21547,-0.101197 0.14791,-0.07896 0.40174,-0.07886 0.59697,2.52e-4 0.0841,0.03408 0.23608,0.07978 0.3377,0.101557 0.35742,0.07658 0.67872,0.455979 0.91836,1.084448 l 0.22227,0.582917 -0.0144,1.189486 c -0.008,0.654218 -0.0365,1.223459 -0.0635,1.26498 -0.027,0.04152 -0.0846,0.390075 -0.12801,0.774562 -0.11322,1.002904 -0.2636,2.024893 -0.37716,2.563249 -0.0541,0.256325 -0.13318,0.705726 -0.17582,0.998669 -0.0426,0.292943 -0.13444,0.727363 -0.20401,0.965379 -0.0696,0.238016 -0.15709,0.742645 -0.19447,1.121399 -0.0374,0.378753 -0.084,0.714581 -0.1036,0.746285 -0.0196,0.0317 -0.0603,0.246115 -0.0905,0.476471 -0.0301,0.230355 -0.19465,1.033009 -0.36555,1.783675 -0.1709,0.750666 -0.34496,1.529627 -0.38679,1.731025 -0.0418,0.201398 -0.11601,0.447081 -0.16483,0.545962 -0.0488,0.09888 -0.0888,0.270703 -0.0888,0.381828 0,0.111124 -0.106,0.524563 -0.23556,0.918752 -0.45922,1.397157 -0.50574,1.477842 -1.47266,2.554149 -0.49492,0.550902 -1.21711,1.073965 -2.22062,1.608329 -1.39413,0.74237 -2.30205,1.034295 -3.76359,1.210109 -1.38516,0.166627 -2.24004,0.131405 -3.16742,-0.1305 z m 3.96904,-0.596321 c 0.21971,-0.05738 0.53429,-0.159621 0.69907,-0.227201 0.16478,-0.06758 0.45689,-0.186633 0.64913,-0.264563 l 0.69907,-0.283378 c 0.81086,-0.328694 1.03539,-0.439875 1.47952,-0.732627 0.51505,-0.339494 1.02932,-0.812342 1.33001,-1.222888 0.10728,-0.146471 0.29237,-0.371171 0.41132,-0.499334 0.21062,-0.226934 0.69057,-1.158509 0.69064,-1.340523 2e-5,-0.05 0.062,-0.254032 0.13781,-0.453412 0.0758,-0.199381 0.16603,-0.528941 0.20055,-0.732357 0.0345,-0.203416 0.0911,-0.474707 0.12564,-0.602869 0.21576,-0.799611 0.41181,-1.66876 0.53315,-2.363515 0.0767,-0.439414 0.22831,-1.140387 0.33682,-1.557717 0.10851,-0.417331 0.19729,-0.852297 0.19729,-0.966594 0,-0.114297 0.0758,-0.536827 0.16846,-0.938954 0.0927,-0.402129 0.19414,-1.030743 0.22552,-1.396922 0.0314,-0.366178 0.13284,-0.995339 0.22547,-1.398136 0.15987,-0.695138 0.21963,-1.09823 0.38002,-2.563249 0.0381,-0.347869 0.0984,-0.76025 0.13409,-0.916401 0.0824,-0.3609 0.0835,-0.962496 0.002,-1.161025 -0.0345,-0.08411 -0.081,-0.320305 -0.1033,-0.524872 -0.0565,-0.517509 -0.43765,-1.126064 -0.7053,-1.126064 -0.10235,0 -0.20349,-0.02816 -0.22476,-0.06257 -0.10743,-0.173814 -0.96786,0.422627 -0.96786,0.670905 0,0.06389 -0.0274,0.133072 -0.0608,0.153734 -0.0334,0.02066 -0.0818,0.16474 -0.10739,0.320174 -0.0256,0.155434 -0.075,0.317805 -0.10966,0.360825 -0.0347,0.04302 -0.0799,0.357601 -0.10049,0.699068 -0.0206,0.341468 -0.0779,0.77065 -0.12739,0.953739 -0.13146,0.486485 -0.36109,1.12219 -0.43169,1.195074 -0.0337,0.03479 -0.0613,0.117177 -0.0613,0.183089 0,0.06591 -0.0279,0.11984 -0.0621,0.11984 -0.0342,0 -0.0829,0.06566 -0.1084,0.145912 -0.0255,0.08025 -0.16006,0.289818 -0.29909,0.465702 -0.13903,0.175883 -0.33123,0.477234 -0.42712,0.669666 -0.25006,0.501846 -0.50147,0.829066 -0.76825,0.999911 -0.20311,0.130073 -0.32092,0.148821 -0.93158,0.14826 l -0.69907,-6.42e-4 -0.64523,-0.3262 c -0.43371,-0.219265 -0.75656,-0.438928 -0.98483,-0.67007 -0.323,-0.327067 -0.3429,-0.368029 -0.40723,-0.838271 -0.0372,-0.271921 -0.0676,-0.569301 -0.0676,-0.660846 0,-0.311328 0.13372,-1.142846 0.19631,-1.220712 0.0343,-0.04266 0.0835,-0.176508 0.10938,-0.297448 0.0544,-0.25413 0.71211,-0.962421 1.14482,-1.232777 0.15272,-0.09542 0.29705,-0.234539 0.32073,-0.309149 0.0237,-0.07461 0.0687,-0.135653 0.10003,-0.135653 0.0313,0 0.14917,-0.07756 0.26183,-0.172363 0.16249,-0.136729 0.20484,-0.224614 0.20484,-0.425099 0,-0.265967 -0.11712,-0.391739 -0.46604,-0.500451 -0.0915,-0.02852 -0.18785,-0.08527 -0.214,-0.126107 -0.0638,-0.09965 -1.80075,-0.09704 -1.9257,0.0029 -0.0499,0.03988 -0.24046,0.09407 -0.42355,0.120422 -0.18309,0.02635 -0.36285,0.07117 -0.39947,0.09958 -0.0366,0.02842 -0.17721,0.07159 -0.31242,0.09594 -0.25079,0.04516 -1.4432,0.620343 -1.64186,0.791981 -0.0603,0.0521 -0.25944,0.180159 -0.44252,0.284583 -0.18309,0.104423 -0.34263,0.212693 -0.35453,0.240598 -0.0181,0.04231 -0.19506,0.221114 -0.55609,0.561723 -0.53058,0.500556 -0.80384,1.029423 -0.94171,1.82257 -0.0915,0.52655 -0.092,1.664714 -9.1e-4,2.035188 0.073,0.296666 0.4885,1.093973 0.57014,1.093973 0.0281,0 0.16709,0.10486 0.30895,0.233023 0.14186,0.128162 0.27963,0.233022 0.30616,0.233022 0.0265,0 0.1308,0.0588 0.23173,0.130663 0.10092,0.07186 0.32902,0.163275 0.50689,0.203135 0.17786,0.03986 0.35457,0.09758 0.39269,0.128256 0.0381,0.03068 0.294,0.07575 0.56863,0.100157 0.27464,0.0244 0.55926,0.0705 0.63249,0.102438 0.0732,0.03193 0.34288,0.08963 0.5992,0.128205 0.71417,0.107483 1.11968,0.200323 1.19233,0.272979 0.0363,0.0363 0.12922,0.06599 0.2065,0.06599 0.17856,0 0.89289,0.278626 1.21649,0.474492 0.96763,0.585673 1.76734,1.451826 2.02401,2.192162 0.2931,0.84543 0.28781,0.961846 -0.10723,2.359978 -0.0517,0.183089 -0.12968,0.467127 -0.17321,0.631197 -0.11691,0.440597 -1.03012,2.227149 -1.28567,2.515213 -0.12152,0.136984 -0.31308,0.383883 -0.42568,0.548663 -0.24443,0.357696 -0.59292,0.701004 -0.90586,0.892395 -0.41665,0.254815 -0.76458,0.499492 -0.80632,0.567041 -0.0227,0.03668 -0.36918,0.172717 -0.77002,0.302298 -0.97956,0.316673 -1.32109,0.315328 -2.00992,-0.0079 -0.28538,-0.133963 -0.5189,-0.262492 -0.5189,-0.285647 0,-0.02315 -0.11913,-0.173733 -0.26473,-0.334621 -0.36359,-0.401759 -0.4826,-0.682818 -0.86727,-2.048158 -0.18326,-0.650441 -0.36396,-1.272499 -0.40156,-1.382353 -0.0376,-0.109853 -0.0868,-0.430566 -0.10926,-0.712693 -0.0331,-0.415757 -0.0199,-0.545072 0.0701,-0.682424 0.17079,-0.26066 0.45138,-0.22671 1.37295,0.166122 0.23801,0.101457 0.50456,0.20569 0.59232,0.231628 0.0878,0.02594 0.27388,0.126137 0.41359,0.222664 0.22171,0.153185 0.25434,0.209454 0.25654,0.442494 0.003,0.297343 -0.23967,0.63181 -0.45806,0.63181 -0.0673,0 -0.15961,0.04494 -0.20519,0.09987 -0.0456,0.05493 -0.13913,0.09987 -0.20789,0.09987 -0.0945,0 -0.125,0.04873 -0.125,0.199733 0,0.109854 0.03,0.199734 0.0666,0.199734 0.0366,0 0.0666,0.03745 0.0667,0.08322 2.2e-4,0.168383 0.52224,0.582149 0.74803,0.592911 0.35985,0.01715 0.54458,-0.01533 0.65524,-0.115212 0.0578,-0.05218 0.1402,-0.09488 0.18309,-0.09488 0.0429,0 0.078,-0.05815 0.078,-0.129226 0,-0.07108 0.0307,-0.148205 0.0682,-0.171399 0.0375,-0.02319 0.17466,-0.253499 0.30473,-0.511786 0.21476,-0.426454 0.23402,-0.510135 0.20957,-0.910493 -0.0316,-0.517473 -0.0913,-0.697714 -0.50563,-1.527737 -0.35103,-0.703146 -0.66552,-1.014352 -1.74136,-1.723194 -0.36078,-0.23771 -0.3762,-0.241265 -1.04668,-0.241159 l -0.6805,1.07e-4 -0.35146,0.315087 c -0.1933,0.173298 -0.37384,0.335495 -0.40121,0.360439 -0.26351,0.24018 -0.84904,1.16956 -0.84904,1.347632 0,0.04174 -0.11984,0.328135 -0.26631,0.636431 -0.14647,0.308296 -0.26631,0.632193 -0.26631,0.71977 0,0.08758 -0.0563,0.319188 -0.12511,0.514691 -0.0688,0.195502 -0.15869,0.498198 -0.19973,0.672658 -0.0931,0.395575 -0.0992,1.823547 -0.008,1.87987 0.0366,0.02263 0.0666,0.09996 0.0666,0.171852 0,0.07189 0.11786,0.365116 0.26191,0.65162 0.19795,0.393705 0.42653,0.693338 0.93603,1.226976 0.37076,0.388334 0.73975,0.726429 0.81998,0.751322 0.0802,0.02489 0.2325,0.106316 0.33839,0.180941 0.1059,0.07462 0.51036,0.236036 0.89881,0.358693 l 0.70626,0.223014 1.46472,-0.03183 c 1.02471,-0.02226 1.58471,-0.06317 1.86418,-0.136156 z"
   id="path14" /><path
   style="fill:#000000;stroke-width:0.0665779"
   d="m 195.65421,46.235814 c -0.48724,-0.176374 -1.34627,-0.684557 -1.43388,-0.848245 -0.0352,-0.06576 -0.12394,-0.138591 -0.19721,-0.161847 -0.0733,-0.02326 -0.13323,-0.08083 -0.13323,-0.127943 0,-0.04711 -0.075,-0.166548 -0.16659,-0.265412 -0.0916,-0.09886 -0.21239,-0.260529 -0.26838,-0.359255 -0.056,-0.09873 -0.20658,-0.314323 -0.33466,-0.479104 -0.12808,-0.16478 -0.33777,-0.43442 -0.46599,-0.599201 -0.37391,-0.480516 -0.67735,-0.975479 -0.76412,-1.246408 -0.0443,-0.138377 -0.13309,-0.311515 -0.19726,-0.38475 -0.0642,-0.07324 -0.17146,-0.252996 -0.2384,-0.399468 -0.0669,-0.146471 -0.22794,-0.410488 -0.3578,-0.586703 l -0.23609,-0.320392 -0.0475,0.420259 c -0.0261,0.231142 -0.0759,0.708312 -0.11056,1.060378 -0.0597,0.606343 -0.17621,0.954332 -0.42299,1.263686 -0.21349,0.267623 -1.69276,0.799079 -2.58139,0.927419 -1.22851,0.177425 -1.76903,0.212222 -2.15937,0.13901 -0.21728,-0.04075 -0.48976,-0.0741 -0.60552,-0.0741 -0.42882,0 -0.51211,-0.353393 -0.36091,-1.531292 0.0352,-0.274633 0.092,-0.753994 0.12606,-1.065246 0.0341,-0.311252 0.13873,-0.937043 0.23258,-1.390647 0.0938,-0.453604 0.17062,-0.928047 0.17062,-1.054318 0,-0.126271 0.0445,-0.414262 0.0989,-0.63998 0.0544,-0.225717 0.16304,-0.844815 0.24142,-1.375774 0.0784,-0.530959 0.18206,-1.09712 0.23041,-1.258136 0.0483,-0.161017 0.10735,-0.460618 0.13112,-0.665779 0.0238,-0.205163 0.0972,-0.597723 0.16312,-0.872357 0.0659,-0.274633 0.13996,-0.664114 0.16451,-0.865512 0.0245,-0.201398 0.0984,-0.560919 0.16422,-0.798935 0.0658,-0.238016 0.15521,-0.702397 0.19873,-1.031957 0.0435,-0.329561 0.10648,-0.689082 0.13991,-0.798935 0.0334,-0.109854 0.10653,-0.469374 0.16247,-0.798935 0.0559,-0.329561 0.17727,-0.851221 0.26962,-1.159245 0.0924,-0.308024 0.18481,-0.682524 0.20546,-0.832223 0.0516,-0.373821 0.53156,-2.410306 0.73107,-3.101741 0.0898,-0.311252 0.16291,-0.691474 0.16244,-0.844939 -4.6e-4,-0.153465 0.0257,-0.295444 0.0582,-0.31551 0.0325,-0.02007 0.0788,-0.141674 0.10289,-0.27024 0.0318,-0.169663 0.0785,-0.233758 0.17006,-0.233758 0.0694,0 0.14212,-0.02575 0.16158,-0.05723 0.0487,-0.07887 0.95862,-0.155 1.22229,-0.102267 0.11832,0.02366 0.34672,0.158866 0.50757,0.30045 0.22796,0.200661 0.30298,0.319939 0.34021,0.540924 0.0691,0.410342 0.0605,1.621041 -0.0147,2.047813 -0.0988,0.561596 -0.19904,1.106523 -0.3244,1.764315 -0.0628,0.32956 -0.13618,0.778961 -0.16304,0.998668 -0.0269,0.219707 -0.0773,0.474368 -0.11206,0.565912 -0.0348,0.09155 -0.0996,0.391145 -0.14404,0.665779 -0.0444,0.274634 -0.11185,0.649135 -0.14978,0.832224 -0.0379,0.183089 -0.11142,0.64747 -0.16333,1.031957 -0.0519,0.384488 -0.11259,0.811418 -0.13486,0.948735 -0.0383,0.23655 -0.0311,0.249667 0.13823,0.249667 0.1275,0 0.32514,-0.132125 0.68971,-0.461068 0.63792,-0.575587 1.60347,-1.26892 2.30503,-1.65517 0.29491,-0.162362 0.6858,-0.401959 0.86864,-0.532438 0.18285,-0.130479 1.26141,-0.704089 2.39681,-1.274687 1.13539,-0.570598 2.13843,-1.08971 2.22897,-1.153582 0.26129,-0.184336 0.62408,-0.150274 0.89046,0.0836 0.12511,0.109854 0.2551,0.199734 0.28885,0.199734 0.0338,0 0.15561,0.09737 0.2708,0.216378 0.21921,0.226497 0.27868,0.439017 0.42385,1.514647 0.0946,0.700807 0.0477,1.602918 -0.0946,1.820109 -0.0622,0.0949 -0.11306,0.213894 -0.11306,0.264434 0,0.05054 -0.063,0.148893 -0.13997,0.218563 -0.077,0.06967 -0.18261,0.209134 -0.23473,0.309919 -0.0521,0.100786 -0.12855,0.183247 -0.16984,0.183247 -0.0413,0 -0.23347,0.1498 -0.42706,0.332889 -0.19359,0.183089 -0.39208,0.33289 -0.44109,0.33289 -0.049,0 -0.4328,0.343957 -0.85286,0.764349 -0.42006,0.420392 -0.81153,0.764932 -0.86993,0.765646 -0.0584,7.13e-4 -0.16042,0.06122 -0.2267,0.134452 -0.17527,0.193668 -0.95656,0.193668 -1.13182,0 -0.0663,-0.07324 -0.15616,-0.133156 -0.19974,-0.133156 -0.0893,0 -0.27797,-0.192836 -0.40759,-0.41657 -0.11756,-0.202911 -0.12667,-0.225877 -0.27078,-0.681965 -0.10564,-0.334357 -0.16313,-0.417015 -0.35271,-0.507125 -0.20863,-0.09916 -0.24035,-0.09916 -0.40185,0 -0.28996,0.178027 -0.79743,0.65105 -0.79743,0.743299 0,0.04743 -0.0503,0.141873 -0.1119,0.209881 -0.14298,0.157992 -0.19807,1.093129 -0.0894,1.517993 0.0421,0.16478 0.11484,0.464381 0.16155,0.665779 0.0798,0.343926 0.24646,0.658681 0.57115,1.078553 0.0765,0.09886 0.17209,0.278624 0.21251,0.399468 0.0404,0.120843 0.12342,0.279635 0.18443,0.352871 0.061,0.07324 0.19655,0.267976 0.3012,0.432756 0.38393,0.604534 1.87919,2.24939 2.18956,2.40862 0.12041,0.06177 0.2579,0.159285 0.30555,0.216694 0.0476,0.05741 0.13689,0.10438 0.19831,0.10438 0.0614,0 0.14536,0.03367 0.18651,0.07482 0.0441,0.04408 0.43983,0.08875 0.9632,0.108717 0.76763,0.02929 0.90064,0.01912 0.97861,-0.07482 0.0496,-0.05979 0.14796,-0.108717 0.21853,-0.108717 0.34257,0 0.96261,-0.569925 1.18304,-1.087411 0.18218,-0.427685 0.18536,-0.978731 0.007,-1.14052 -0.16271,-0.147253 -0.39487,-0.09876 -0.72254,0.150924 -0.20533,0.156457 -0.29617,0.179307 -0.70662,0.17775 -0.39767,-0.0015 -0.51488,-0.03004 -0.75292,-0.183277 -0.34772,-0.223842 -0.65962,-0.775776 -0.55201,-0.976844 0.0376,-0.07018 0.0683,-0.222981 0.0683,-0.339551 0,-0.159199 0.0634,-0.272125 0.25493,-0.453777 0.29069,-0.275761 0.79515,-0.595981 1.06205,-0.67417 0.0996,-0.02917 0.33082,-0.103132 0.51391,-0.164366 0.66494,-0.222388 0.80669,-0.254493 1.25247,-0.283668 0.32679,-0.02139 0.51566,-2.02e-4 0.67584,0.07581 0.12227,0.05802 0.24256,0.105492 0.2673,0.105492 0.0862,0 0.41053,0.369081 0.69946,0.795952 0.56141,0.829426 1.19878,2.229058 1.19894,2.632809 1e-4,0.251313 -0.33975,1.093114 -0.61821,1.531292 -0.18137,0.285401 -0.68132,0.895462 -1.2287,1.4993 -0.56354,0.621679 -1.36755,1.31342 -2.04549,1.759877 -0.30763,0.202591 -0.57863,0.399583 -0.60223,0.437759 -0.0541,0.08752 -1.42333,0.746379 -1.84871,0.889568 -0.44442,0.149603 -1.12245,0.129517 -1.61218,-0.04776 z m 2.59653,-0.955934 c 0.96921,-0.493619 1.38683,-0.8282 2.80159,-2.244528 1.6933,-1.695185 1.77881,-1.828168 1.78094,-2.769706 0.002,-0.867232 -0.16839,-1.466554 -0.58665,-2.063915 -0.75655,-1.080514 -0.81871,-1.131824 -1.3712,-1.131824 -0.24917,0 -0.46942,0.0265 -0.48944,0.0589 -0.02,0.03239 -0.16982,0.0789 -0.33288,0.103356 -0.32486,0.04872 -1.15677,0.55727 -1.42861,0.873326 -0.20796,0.241782 -0.21443,0.6219 -0.0143,0.836774 0.2423,0.260079 0.55845,0.212633 1.33824,-0.200834 0.3392,-0.179856 0.4176,-0.206804 0.6016,-0.206804 0.27891,0 0.55484,0.154558 0.65042,0.364318 0.0437,0.09601 0.0795,0.443655 0.0795,0.772537 0,0.527349 -0.0228,0.643083 -0.19285,0.97999 -0.10606,0.210114 -0.38704,0.591778 -0.6244,0.848145 -0.36793,0.397396 -0.50882,0.497929 -0.95562,0.681863 -0.45196,0.186055 -0.60194,0.215525 -1.08998,0.214169 -0.95253,-0.0026 -1.92073,-0.346097 -2.52996,-0.897462 -0.12816,-0.115988 -0.36549,-0.312522 -0.52739,-0.436741 -0.37449,-0.287332 -1.73916,-1.99303 -2.18418,-2.730006 -0.1868,-0.309352 -0.52271,-0.93696 -0.74645,-1.394683 -0.33154,-0.678235 -0.41442,-0.915082 -0.44792,-1.280026 -0.0299,-0.325134 -0.0169,-0.476988 0.0473,-0.554342 0.0711,-0.08566 0.0718,-0.116787 0.004,-0.158833 -0.0632,-0.03904 -0.0682,-0.111546 -0.02,-0.286154 0.0732,-0.265238 0.65007,-1.145276 0.88786,-1.354547 0.2333,-0.205324 0.64616,-0.427349 0.79465,-0.427349 0.0716,0 0.18902,-0.0367 0.26084,-0.08156 0.10305,-0.06435 0.14779,-0.06435 0.21215,0 0.0449,0.04486 0.15971,0.08156 0.25524,0.08156 0.0955,0 0.22185,0.03745 0.2807,0.08322 0.1164,0.09053 0.58423,0.961569 0.58423,1.087757 0,0.04273 0.0449,0.114993 0.0999,0.160579 0.0549,0.04558 0.0999,0.128129 0.0999,0.183432 0,0.0553 0.0674,0.159084 0.1498,0.230627 0.28445,0.246999 0.89847,0.01328 1.47739,-0.562364 0.1443,-0.143472 0.33904,-0.302179 0.43276,-0.352683 0.35632,-0.192002 1.73499,-1.692727 1.73499,-1.888586 0,-0.02939 0.0599,-0.122523 0.13316,-0.206964 0.0732,-0.08444 0.13315,-0.244189 0.13315,-0.354994 0,-0.110806 0.0356,-0.299896 0.0791,-0.420201 0.0586,-0.162178 0.06,-0.258082 0.005,-0.370905 -0.0406,-0.08369 -0.0921,-0.329956 -0.11441,-0.547252 -0.0223,-0.217296 -0.0661,-0.427016 -0.0974,-0.466045 -0.0313,-0.03903 -0.0769,-0.164571 -0.1013,-0.27898 -0.0905,-0.423576 -0.61125,-0.663244 -1.04576,-0.481271 -0.30311,0.126943 -1.32251,0.62931 -1.52172,0.749917 -0.0915,0.05542 -0.28628,0.157552 -0.43276,0.226953 -0.44411,0.210429 -2.02354,1.063389 -2.21624,1.196867 -0.0993,0.06879 -0.42024,0.255088 -0.71318,0.413999 -0.29295,0.15891 -0.62251,0.356272 -0.73236,0.438583 -0.10985,0.08231 -0.37937,0.257745 -0.59892,0.389858 -0.21955,0.132112 -0.74935,0.56913 -1.17733,0.971151 -0.81364,0.764293 -0.9731,0.850815 -1.41519,0.767878 -0.1975,-0.03705 -0.25424,-0.09081 -0.36854,-0.349204 -0.14213,-0.321318 -0.18155,-0.851118 -0.0685,-0.920975 0.0366,-0.02263 0.0666,-0.142289 0.0666,-0.265907 0,-0.123617 0.0321,-0.3091 0.0713,-0.412182 0.11016,-0.289406 0.66409,-2.926238 0.7247,-3.44974 0.0297,-0.256325 0.0898,-0.555926 0.13359,-0.665779 0.15753,-0.395143 0.36269,-2.473098 0.30714,-3.110922 -0.0215,-0.246293 -0.0888,-0.552189 -0.14961,-0.679768 -0.18466,-0.387226 -0.71372,-0.483548 -1.18117,-0.215046 -0.25479,0.146348 -0.26603,0.169132 -0.51593,1.045714 -0.1405,0.492859 -0.45316,1.809888 -0.6948,2.926733 -0.24163,1.116844 -0.5113,2.34763 -0.59925,2.735081 -0.088,0.387451 -0.15992,0.827403 -0.15992,0.977671 0,0.150269 -0.0429,0.477405 -0.0953,0.726969 -0.0524,0.249565 -0.17343,0.977486 -0.26893,1.617604 -0.0955,0.640118 -0.2164,1.314219 -0.26869,1.498003 -0.12578,0.442043 -0.22182,1.048399 -0.29815,1.882346 -0.0652,0.712495 -0.10421,0.969404 -0.33095,2.180169 -0.0754,0.402796 -0.13691,0.870577 -0.13663,1.039514 2.8e-4,0.168937 -0.0312,0.468537 -0.0699,0.665779 -0.0974,0.496221 -0.20526,1.340037 -0.23724,1.856624 -0.0228,0.368107 -0.006,0.457622 0.11456,0.599201 0.138,0.162496 0.16289,0.166445 1.04938,0.166445 0.5335,0 1.04534,-0.0359 1.24093,-0.08704 0.64703,-0.169173 1.40277,-0.433106 1.77931,-0.621404 0.40736,-0.20371 0.54012,-0.380275 0.62046,-0.825153 0.0262,-0.145205 0.0712,-0.29397 0.0999,-0.330588 0.0287,-0.03662 0.0736,-0.635819 0.0996,-1.331558 0.0261,-0.695739 0.0772,-1.30243 0.11369,-1.348203 0.10883,-0.136665 0.29236,-0.09501 0.43998,0.09987 0.44336,0.585298 0.60866,0.823311 0.60866,0.876434 0,0.03284 0.10232,0.182178 0.22739,0.33187 0.12506,0.149692 0.36948,0.534517 0.54316,0.855167 0.17368,0.32065 0.39689,0.702841 0.49601,0.849312 0.0991,0.146472 0.26129,0.426784 0.36034,0.622917 0.19165,0.379451 0.48056,0.802569 0.70591,1.033836 0.18629,0.191171 0.59661,0.761492 0.59661,0.829244 0,0.03011 0.0749,0.09484 0.16645,0.14383 0.0915,0.04899 0.16644,0.114348 0.16644,0.145233 0,0.08468 0.65832,0.48586 0.99867,0.608589 0.22505,0.08115 0.49013,0.103576 1.06525,0.09012 l 0.76564,-0.01792 z"
   id="path15" /></g></svg>
