<svg
   version="1.1"
   id="svg2"
   x="0px"
   y="0px"
   width="143.14122"
   height="151.22226"
   viewBox="0 0 143.14122 151.22225"
   enable-background="new 0 0 155.724 163.723"
   xml:space="preserve"
   xmlns="http://www.w3.org/2000/svg"
   xmlns:svg="http://www.w3.org/2000/svg"
   xmlns:rdf="http://www.w3.org/1999/02/22-rdf-syntax-ns#"
   xmlns:cc="http://creativecommons.org/ns#"
   xmlns:dc="http://purl.org/dc/elements/1.1/"><metadata
   id="metadata3005"><rdf:RDF><cc:Work
       rdf:about=""><dc:format>image/svg+xml</dc:format><dc:type
         rdf:resource="http://purl.org/dc/dcmitype/StillImage" /></cc:Work></rdf:RDF></metadata><defs
   id="defs3003" />
<path
   id="path3822"
   style="fill:#000000"
   d="m 94.73107,0 c 0,0 -75.98005,13.358609 -83.99805,15.849609 -8.579,2.666 -10.37048,8.726735 -10.52148,11.177735 -0.049,0.825 -0.0977,3.701172 -0.0977,3.701172 v 48.720703 h 59.05668 v -7.515625 c 0,0 0.005,-0.07252 0,-0.228516 -0.083,-2.588 0.84962,-3.690969 2.26562,-4.042969 1.02501,-0.259 2.93946,-0.199218 2.93946,-0.199219 h 78.76562 V 10.96875 H 94.72716 v -0.002 z m -4.40625,4.9042969 v 9.8007811 l 48.50586,0.01563 v 48.037109 l -75.50782,0.0332 c 0,0 -2.04237,-0.02375 -2.98437,0.15625 -3.491,0.679 -5.28811,3.120453 -5.53711,5.439453 -0.059,0.596 -0.0488,1.205078 -0.0488,1.205078 l -0.01,4.951172 -50.3125,-0.0039 V 47.634766 c 0,0 -0.015,-14.917172 0,-18.701172 0.02,-3.921 2.0399,-8.063235 8.7539,-9.615235 7.007,-1.616 77.14063,-14.4140621 77.14063,-14.4140621 z" /><path
   id="path51"
   d="m 0,86.228258 h 80.137 v -12.047 h 62.91 l 0.015,38.404002 c 0,0 0.742,20.854 -18.574,27.666 -10.933,3.852 -30.508,10.971 -30.508,10.971 l -93.956,-18.051 z"
   style="fill:#000000" />
</svg>
