<svg id="SOLARISCENTER" width="500" height="143.73705" viewBox="0 0 500 143.73705" version="1.1" xml:space="preserve" xmlns:xlink="http://www.w3.org/1999/xlink" xmlns="http://www.w3.org/2000/svg" xmlns:svg="http://www.w3.org/2000/svg">
	<path id="SOLARISCENTER" style="fill:#000000;stroke:#000000;stroke-width:0" d="m 145.02306,141.95615 c -10.7285,-5.42177 -13.30317,-20.16241 -5.14464,-29.45446 3.62683,-4.13073 7.36731,-5.75461 13.3857,-5.81122 4.46353,-0.042 5.54839,0.22499 8.60302,2.11715 4.21676,2.61203 4.5745,3.40857 2.22287,4.94942 -1.71609,1.12442 -1.9329,1.09162 -4.53747,-0.68632 -2.35887,-1.61022 -3.3354,-1.82999 -7.09635,-1.597 -5.41624,0.33552 -8.24176,2.18825 -10.52575,6.90186 -2.21595,4.57317 -2.14652,9.83653 0.18962,14.37609 3.76119,7.30871 13.79591,8.96881 20.22148,3.34537 1.00002,-0.87518 1.44221,-0.89035 2.72303,-0.0934 2.14276,1.33326 1.6208,2.7067 -1.99427,5.24747 -2.70608,1.90191 -3.85914,2.22473 -8.65698,2.42373 -4.84467,0.20093 -6.01596,-0.0134 -9.39026,-1.71869 z m 37.41563,-16.9284 V 106.9657 l 11.00639,0.19922 11.00639,0.19924 0.22612,2.34562 0.22619,2.34562 h -9.06735 -9.06736 v 5.05211 5.05212 h 8.2999 8.2999 v 2.16519 2.16519 h -8.2999 -8.2999 v 6.1347 6.13471 h 9.3825 9.3825 v 2.16519 2.16519 h -11.54769 -11.54769 z m 39.14124,0.19923 0.19307,-17.86282 2.62046,-0.21888 2.62038,-0.21887 10.00989,14.44292 10.00983,14.44292 0.36086,-14.22405 0.36087,-14.22404 h 2.16519 2.16519 l 0.19306,17.86282 0.19299,17.86282 -3.07991,-0.006 -3.07998,-0.006 -9.74336,-14.0187 -9.74336,-14.01869 -0.19566,14.0246 -0.19574,14.02461 h -2.52338 -2.52339 z m 56.41924,16.86118 c -0.21139,-0.5509 -0.28241,-7.52218 -0.15784,-15.49173 l 0.22663,-14.49009 -5.77385,-0.2059 -5.77384,-0.2059 v -2.16519 -2.16519 l 13.89331,-0.19602 13.89331,-0.19602 v 2.54164 2.54164 h -5.77385 -5.77384 v 15.5172 15.5172 h -2.18785 c -1.20334,0 -2.36078,-0.45073 -2.57218,-1.00164 z m 30.91012,-16.86118 0.19306,-17.86282 h 11.18682 11.18682 v 2.16519 2.16519 l -8.84119,0.20264 -8.8412,0.20265 v 5.0299 5.0299 h 8.2999 8.2999 v 2.16519 2.16519 h -8.2999 -8.2999 v 6.1347 6.13471 h 9.38249 9.3825 v 2.16519 2.16519 H 320.63741 308.7163 Z m 39.52736,-0.29071 v -18.15353 l 7.97967,0.45657 c 11.81847,0.6762 15.23147,2.87719 15.33727,9.89069 0.0635,4.21406 -1.51859,6.82549 -5.12861,8.46496 -1.46909,0.66721 -2.7962,1.29365 -2.94899,1.3921 -0.15287,0.0984 1.877,3.62402 4.51081,7.83461 2.63374,4.21061 4.78868,7.79345 4.78868,7.96189 0,0.16843 -1.25754,0.30624 -2.79461,0.30624 -2.78429,0 -2.8115,-0.0284 -7.42718,-7.7586 -4.4494,-7.45167 -4.7386,-7.76746 -7.30969,-7.9826 l -2.67697,-0.224 v 7.9826 7.9826 h -2.16519 -2.16519 z m 16.5705,-3.83269 c 1.18248,-1.07016 1.49167,-2.07285 1.32682,-4.30271 -0.27519,-3.72249 -2.10788,-4.72044 -8.69526,-4.73483 l -4.87168,-0.0106 v 5.49186 5.49186 l 5.34911,-0.27012 c 4.00733,-0.20236 5.73595,-0.62014 6.89101,-1.66543 z M 11.60552,74.515687 C 7.1343946,73.053057 1.760911,69.53698 0.27010498,67.098484 -0.39732948,66.006766 0.04004626,65.317247 3.0887286,62.654943 L 6.6973797,59.503638 8.86257,61.852624 c 3.048769,3.307567 6.459984,4.868778 11.515069,5.270103 6.220961,0.493887 10.226585,-0.797014 13.913515,-4.483951 2.94043,-2.940423 3.07976,-3.275558 3.07976,-7.407767 0,-7.111215 -1.515294,-8.342097 -17.122191,-13.90842 C 10.028323,37.677397 5.5200284,34.631407 2.9170073,29.612545 -0.79963631,22.446509 1.2763341,11.314023 7.2755502,6.239692 17.277439,-2.2202291 35.956128,-2.0486515 44.146395,6.5783776 l 2.084234,2.1953807 -2.384633,2.0218677 c -4.758281,4.034423 -4.757891,4.03431 -6.799492,1.992708 C 32.585063,8.3268954 23.683863,7.2357071 17.40987,10.381101 c -4.338379,2.174995 -6.13784,4.664709 -6.547205,9.058633 -0.26149,2.806687 0.0036,3.964317 1.366257,5.969014 2.195727,3.230003 4.706987,4.639758 14.187224,7.964329 10.454782,3.666325 13.139705,5.129438 16.575264,9.032447 5.102366,5.796583 5.85827,14.721008 1.867888,22.052662 -3.955161,7.266928 -10.859312,10.809515 -21.922989,11.24889 -5.471162,0.217284 -7.760433,-0.02346 -11.330789,-1.191389 z m 89.73529,0.308208 C 84.115738,70.654608 72.431344,54.067399 73.680941,35.557841 74.784647,19.209278 83.857229,7.062328 98.861654,1.8443058 105.4828,-0.45830303 116.33041,-0.56765238 123.34051,1.5975455 c 15.51633,4.7925074 25.85043,19.2688135 25.88793,36.2645495 0.0393,17.806037 -11.11975,32.655485 -27.80594,37.00169 -5.19779,1.35385 -14.39907,1.335576 -20.08169,-0.03991 z m 22.11345,-9.930261 C 144.09724,54.793973 144.99562,22.588189 124.9319,11.922476 110.37132,4.1821892 93.164178,9.8112447 86.236218,24.581182 c -1.938885,4.133567 -2.309717,5.848578 -2.552731,11.805675 -0.340282,8.341591 1.363868,14.54041 5.479773,19.932536 3.250434,4.258295 4.714378,5.512308 9.193861,7.875462 5.074049,2.676811 7.049589,3.068718 14.475019,2.871519 5.45846,-0.144966 7.20963,-0.503161 10.62212,-2.17274 z M 467.883,75.536683 c -6.2836,-1.540433 -12.48333,-4.990905 -14.50129,-8.070766 -1.19085,-1.817476 -1.16985,-1.904531 0.86658,-3.586112 5.20195,-4.295579 5.12884,-4.282898 8.08021,-1.402357 7.59527,7.4131 22.35191,6.094549 26.71015,-2.386625 1.21287,-2.360339 1.57243,-4.019554 1.31586,-6.07222 -0.69438,-5.55533 -4.20899,-8.269621 -15.61507,-12.059462 -9.38646,-3.118791 -12.90064,-5.003698 -16.39352,-8.793049 -8.30539,-9.010258 -4.88301,-24.3063793 6.78751,-30.3363379 5.50276,-2.84321149 16.22168,-3.62361332 22.75644,-1.6568053 3.54622,1.0673487 10.66667,5.8049577 10.66667,7.0971378 0,0.9012317 -5.83974,6.2805474 -6.86329,6.3221314 -0.40071,0.01628 -1.12944,-0.61233 -1.61942,-1.396912 -2.87848,-4.6092402 -13.54457,-6.1072519 -20.13584,-2.828008 -4.35557,2.166923 -6.3163,5.353278 -6.24398,10.146927 0.0964,6.384918 2.44854,8.280679 16.23792,13.087063 C 495.20959,38.926438 500,43.957583 500,54.677846 c 0,8.773786 -4.24948,15.02096 -12.91673,18.988956 -3.18291,1.457181 -5.31591,1.853685 -10.85887,2.018564 -3.79385,0.11285 -7.54749,0.04597 -8.3414,-0.148683 z M 179.54767,73.995204 c -0.002,-0.303805 -0.0155,-16.628913 -0.0294,-36.278018 l -0.0254,-35.7256465 4.35986,-0.2148714 4.35986,-0.214872 V 33.713229 65.864665 h 16.63581 16.63581 l -0.21645,4.149948 -0.21644,4.149952 -20.74975,0.191504 c -11.41236,0.105322 -20.75158,-0.05709 -20.75384,-0.360865 z m 59.18599,-0.0847 c 0,-0.33821 7.08118,-16.658338 15.73595,-36.266947 L 270.20557,1.9915395 h 4.27878 4.2787 l 15.35012,36.0311255 c 8.44251,19.817117 15.35005,36.15147 15.35005,36.298566 0,0.147089 -2.34988,0.17201 -5.22201,0.05536 l -5.222,-0.212052 -2.17573,-5.099395 c -1.19663,-2.804665 -2.88093,-6.788933 -3.74289,-8.853926 l -1.56724,-3.754535 -17.81057,0.193164 -17.81057,0.193164 -3.36254,7.939032 c -1.84944,4.366468 -3.62273,8.345009 -3.94065,8.841199 -0.65591,1.023651 -9.87536,1.291803 -9.87536,0.287234 z m 48.77186,-27.352121 c -3.26619,-8.963687 -13.16097,-32.436353 -13.51722,-32.06574 -0.40734,0.423847 -5.10487,11.367015 -12.21564,28.457089 l -2.02698,4.871679 h 14.11004 c 13.13232,0 14.07814,-0.08752 13.6498,-1.263028 z m 47.93999,-8.568807 V 1.4537271 l 15.33677,0.3415162 c 13.69057,0.3048589 15.78857,0.5159693 19.54589,1.9667871 8.46871,3.2700615 12.2744,8.7733756 12.25116,17.7162256 -0.0152,5.863877 -1.39691,9.705633 -4.76876,13.259959 -2.5283,2.665162 -8.5852,5.847704 -11.15023,5.85884 -0.89314,0.0036 -1.62389,0.155786 -1.62389,0.337582 0,0.18179 4.53939,7.664754 10.08762,16.628816 6.99501,11.301675 9.7928,16.411413 9.12606,16.667288 -0.52888,0.202943 -2.9889,0.271074 -5.46667,0.151404 l -4.50511,-0.21758 -9.61172,-15.878068 -9.61178,-15.878065 -5.47433,-0.210788 -5.47425,-0.210796 V 58.256141 74.52543 h -4.33038 -4.33038 z m 31.19556,-6.577279 c 4.7588,-2.144124 6.4929,-5.095726 6.14842,-10.465452 -0.20245,-3.156513 -0.68341,-4.587356 -2.02453,-6.022849 -3.40764,-3.647423 -5.36231,-4.184525 -16.37403,-4.499188 L 344.10627,10.13092 V 21.842459 33.554 l 9.56293,-0.302881 c 7.76011,-0.245785 10.20555,-0.592439 12.97187,-1.838824 z m 47.47303,6.665756 V 1.5617961 l 4.34691,0.214872 4.34691,0.2148714 V 38.078051 74.164565 l -4.34691,0.214874 -4.34691,0.214866 z" />
</svg>
