<svg
   version="1.1"
   id="svg1"
   width="752.09802"
   height="513.50604"
   viewBox="0 0 752.09802 513.50604"
   xmlns="http://www.w3.org/2000/svg"
   xmlns:svg="http://www.w3.org/2000/svg">
  <defs
     id="defs1" />
  <g
     id="g1"
     transform="translate(146.40645,430.08592)">
    <path
       style="fill:#000000"
       d="m 8.3400111,82.505872 c -24.9334001,-3.25144 -37.8703001,-15.0456 -40.6488001,-37.05822 -2.8682,-22.72257 5.2507,-40.9511103 21.5641,-48.4159703 10.33040011,-4.72707 17.0583001,-5.87849 34.2181,-5.85606 28.3157,0.037 43.3584,6.21999 51.2318,21.0576703 4.1902,7.89669 5.638,16.12347 5.0295,28.58006 -1.0133,20.74619 -9.424,32.65114 -27.2613,38.58705 -11.4656,3.81555 -29.1473,5.05973 -44.1333999,3.10547 z M 35.825811,65.497542 c 6.8371,-1.4663 13.4779,-5.93733 16.5025,-11.11064 5.1999,-8.89407 5.3538,-25.174 0.3245,-34.31775 -2.7501,-4.99972 -10.061,-9.99703 -16.7123,-11.4234903 -14.2505,-3.05617 -30.6460999,-0.12731 -37.1224999,6.6314303 -5.6405,5.88635 -7.1563,9.73069 -7.642,19.3805 -0.8303,16.49875 4.5448,25.8447 17.1648,29.84533 6.9639999,2.20762 19.6827999,2.66789 27.4849999,0.99462 z m 497.647599,17.37825 c -14.13441,-1.22728 -31.05007,-3.46655 -31.79212,-4.20861 -1.04758,-1.04757 2.01998,-12.63712 3.71778,-14.04617 0.76445,-0.63444 5.67306,-0.46367 14.12301,0.49134 31.03918,3.50804 58.45133,2.82442 58.45133,-1.45769 0,-1.21826 -9.01992,-6.81513 -30.75,-19.0804 -16.9125,-9.54606 -32.20551,-18.45271 -33.98447,-19.79256 -5.53282,-4.16712 -7.57309,-8.50003 -7.03842,-14.9474503 0.4033,-4.86325 0.93688,-6.03713 4.03456,-8.87594001 5.07375,-4.64972999 11.95524,-6.36454999 29.9974,-7.47511999 17.44371,-1.07374 57.3875,0.32269 59.13205,2.06724 1.13936,1.13936 -0.68426,11.70202 -2.29914,13.31689 -0.53238,0.53239 -13.65865,0.99074 -30.46306,1.06373 -31.57619,0.1371603 -34.23174,0.5386803 -30.09003,4.5497103 1.07861,1.04457 15.01111,8.94534 30.96111,17.55725 17.2604,9.31944 30.52988,17.1409 32.77921,19.32113 4.92344,4.77218 6.47003,9.75607 4.77899,15.40026 -3.67375,12.26189 -18.46665,16.98719 -52.0582,16.62899 -8.525,-0.0909 -17.3,-0.32158 -19.5,-0.5126 z m -648,-1.03128 c -13.6848,-0.96969 -29.9567,-3.31339 -31.1262,-4.48321 -1.0689,-1.06916 -1.0204,-2.28555 0.2711,-6.80199 2.4167,-8.45134 1.8299,-8.24428 18.4011,-6.49291 21.802,2.30421 39.355601,2.88101 48.406101,1.5906 7.9713,-1.13652 10.5293,-2.60464 8.2617,-4.74163 -0.6676,-0.62917 -15.1638,-9.09754 -32.213801,-18.81861 -17.05,-9.72107 -32.2777,-18.8813 -33.8393,-20.35606 -3.9788,-3.75756 -5.6607,-7.40134 -5.6607,-12.2637003 0,-8.69165001 6.5047,-14.10401 19.7999,-16.47482 13.4028,-2.39002 71.591601,-1.54919 74.053901,1.07007 0.5742,0.61083 0.3025,3.46463 -0.7129,7.48706 l -1.6409,6.5 -29.5,0.0246 c -16.225,0.0135 -30.309601,0.40765 -31.299101,0.87583 -0.9895,0.46818 -1.6622,1.5821103 -1.4949,2.4754003 0.1816,0.96948 12.4725,8.27524 30.491501,18.12418 16.603,9.075 31.6097,17.56032 33.3481,18.85626 4.5873,3.41958 7.3248,10.18781 6.4582,15.96692 -1.3807,9.20707 -11.2729,15.21218 -28.2664,17.15928 -8.168,0.93589 -32.432001,1.10384 -43.737401,0.30274 z m 222.2707,-2.48301 c -4.5648,-1.21311 -9.310699,-6.38024 -10.741899,-11.69508 -0.6699,-2.48802 -0.9591,-16.46033 -0.792,-38.26313 l 0.2632,-34.3439803 h 10.499999 10.5 l 0.5,33.2013203 c 0.3145,20.88141 0.8841,33.58498 1.5352,34.23524 0.6563,0.65542 12.3659,1.13084 31.9867,1.29868 29.08149,0.24876 30.97264,0.37531 31.30347,2.09475 0.44821,2.32955 -3.49704,11.77237 -5.60693,13.42001 -1.98391,1.54925 -63.64024,1.59559 -69.44774,0.0522 z m 89.2293,0.21802 c -1.25949,-0.79698 -0.31898,-3.31989 5.86567,-15.73469 14.62549,-29.35857 37.14301,-66.5252103 42.83194,-70.6969303 2.79436,-2.04911 10.61811,-3.2281397 14.67109,-2.2109 1.36244,0.34195 3.84249,1.77057 5.51122,3.17472 8.01114,6.74092999 49.51664,80.3658503 47.81115,84.8102603 -0.53104,1.38387 -2.37465,1.63496 -11.90968,1.62201 -6.20476,-0.008 -11.79591,-0.34592 -12.42477,-0.75 -0.62886,-0.40407 -4.53252,-8.44926 -8.67481,-17.8782 -10.26967,-23.37645 -22.75127,-48.44591 -24.44362,-49.09532 -0.7663,-0.29406 -2.00107,0.0894 -2.74394,0.85209 -1.933,1.98464 -13.91024,26.42245 -22.97971,46.88675 -4.26566,9.625 -8.46248,18.0625 -9.32627,18.75 -1.88205,1.49794 -21.89472,1.72151 -24.18827,0.27021 z m 135.11124,-0.38618 c -0.81407,-0.9809 -1.06001,-13.01943 -0.87244,-42.70543 l 0.2612,-41.3394703 4,-0.96518 c 2.2,-0.53085 19.3,-0.98254 38,-1.00376 37.36305,-0.0424 46.17637,0.91456 53.58683,5.81857 6.76512,4.47694 7.59736,13.4345203 1.85576,19.9738403 -1.62732,1.85342 -8.36129,7.29988 -14.96439,12.10326 l -12.00563,8.73341 10.77275,11.12536 c 13.84053,14.29356 22.5145,25.0356 22.07331,27.33607 -0.3047,1.58875 -1.74279,1.81742 -12.83089,2.04023 -6.86826,0.13802 -12.93774,-0.087 -13.48774,-0.5 -0.55,-0.41301 -5.57625,-6.82593 -11.16945,-14.25093 -5.59321,-7.425 -12.67405,-16.425 -15.73522,-20 -3.06116,-3.575 -5.44095,-6.95 -5.28842,-7.5 0.15253,-0.55 6.78337,-5.88282 14.73521,-11.85072 8.01823,-6.01772 14.59815,-11.68092 14.7728,-12.71465 0.2235,-1.32287 -0.50221,-2.08784 -2.5,-2.63525 -3.56027,-0.9755503 -45.21367,-1.0462803 -47.56492,-0.0808 -1.61729,0.66412 -1.75,3.24625 -1.75,34.05 0,24.59108 -0.31467,33.64606 -1.2,34.53139 -1.76321,1.76321 -19.20379,1.62331 -20.68876,-0.16597 z m 130.12764,0.55402 c -0.9887,-0.64273 -1.20471,-9.87823 -1,-42.75394 l 0.26112,-41.9341103 h 10.5 10.5 v 42.5000003 42.5 l -9.5,0.25394 c -5.225,0.13967 -10.0675,-0.11498 -10.76112,-0.56589 z m -213.87216,-2.10611 c -4.7419,-2.89147 -6.36672,-5.86961 -6.36672,-11.66959 0,-5.74808 2.1597,-9.40934 7.03864,-11.93233 8.80589,-4.55371 19.96136,2.16369 19.96136,12.01998 0,10.22118 -11.90539,16.90395 -20.63328,11.58194 z M 176.97341,-90.536685 C 71.689411,-96.796224 -26.343089,-126.21297 -89.285189,-170.43331 c -11.499201,-8.07878 -33.850601,-30.17331 -39.966801,-39.50743 -17.1635,-26.19384 -20.7664,-48.44055 -12.0943,-74.67958 3.1925,-9.65933 16.2896,-32.46386 18.3804,-32.00348 2.0329,0.44764 88.284701,38.21543 89.156801,39.03984 0.3946,0.37302 -0.1679,3.52294 -1.25,6.99981 -4.0868,13.13101 -1.2007,23.73153 9.3966,34.51276 29.2366001,29.7441 100.4673,51.31302 193.635899,58.63366 24.31483,1.91052 78.19257,2.4346 102.06855,0.99285 12.0623,-0.72838 21.93145,-1.62675 21.93145,-1.99637 0,-0.36963 -2.5875,-1.79628 -5.75,-3.17034 -43.70594,-18.98961 -377.955499,-166.24525 -378.513199,-166.75627 -0.4198,-0.3846 4.0802,-3.8586 10,-7.72 30.2142,-19.70841 66.3845,-35.5459 109.1278,-47.78259 85.666899,-24.52495 181.512909,-31.80446 289.635399,-21.9978 66.95935,6.07318 138.89075,24.62693 188,48.4921 44.24091,21.49936 76.31888,48.44007 90.47433,75.98495 6.28226,12.22455 9.01249,21.91533 9.72508,34.51857 0.9969,17.63167 -2.43083,29.80717 -14.19652,50.42682 -3.58286,6.27907 -6.86207,11.76425 -7.28711,12.18929 -0.42505,0.42505 -20.10998,-7.80849 -43.7443,-18.29674 -23.63431,-10.48826 -43.99245,-19.47068 -45.2403,-19.96093 l -2.26883,-0.89136 2.76883,-5.2676 c 7.9976,-15.21516 -1.14852,-34.25467 -23.63681,-49.20486 -14.73343,-9.79476 -39.32736,-20.5067 -62.20528,-27.09365 -11.27351,-3.24583 -46.13684,-10.75493 -64.38909,-13.86855 -25.45697,-4.34266 -54.09718,-6.51272 -96.04884,-7.27761 -39.26151,-0.71584 -83.50901,1.2522 -80.82179,3.59478 0.47885,0.41744 87.38313,38.94728 193.12063,85.62186 105.7375,46.67458 192.25,85.20589 192.25,85.62513 0,1.87767 -23.20037,15.80616 -40.5,24.31444 -66.65661,32.78295 -144.39581,50.868277 -242.86093,56.499417 -20.34312,1.163407 -72.52364,1.121448 -92.63907,-0.07449 z"
       id="path1" />
  </g>
</svg>
