<svg
   version="1.1"
   id="svg1"
   width="693.44757"
   height="561.43262"
   viewBox="0 0 693.44757 561.43262"
   xmlns="http://www.w3.org/2000/svg"
   xmlns:svg="http://www.w3.org/2000/svg">
  <defs
     id="defs1" />
  <g
     id="g1"
     transform="translate(-141.04057,743.90033)">
    <path
       style="fill:#000000"
       d="m 345.04527,-183.99191 c -5.2397,-1.9175 -12.0826,-8.7249 -14.1119,-14.03872 -1.1325,-2.96526 -1.5054,-6.45716 -1.2434,-11.64419 0.4896,-9.69658 3.9989,-15.76075 11.8423,-20.46403 4.6823,-2.80773 6.3356,-3.25 12.149,-3.25 7.7701,0 11.2784,1.09612 15.0629,4.70622 l 2.7036,2.57899 -2.4636,1.93785 c -2.4588,1.93413 -2.4694,1.93301 -5.4583,-0.58204 -11.434,-9.62104 -29.566,2.64258 -27.7484,18.76773 1.1422,10.134 7.2324,16.63391 16.2891,17.38496 6.7979,0.56373 9.5336,-0.13149 13.4348,-3.41416 3.0098,-2.53258 3.1817,-2.56063 5.0926,-0.83126 1.9662,1.77938 1.9645,1.80407 -0.2878,4.25266 -5.3179,5.7811 -16.4754,7.81112 -25.2609,4.59599 z m 49.4953,-23.89694 v -24.5 h 15.5665 15.5664 l -0.3164,2.62342 -0.3165,2.62343 -12.25,-0.17503 -12.25,-0.17503 v 7.5516 7.55161 h 11.5 11.5 v 3 3 h -11.5 -11.5 v 8.5 8.5 h 13 13 v 3 3 h -16 -16 z m 54.7288,23.80731 c -0.2531,-0.44402 -0.4729,-11.49481 -0.4886,-24.55731 l -0.028,-23.75 4.1441,0.054 4.1441,0.054 13.5,19.56078 13.5,19.56078 0.2712,-19.61481 0.2711,-19.6148 h 2.9789 2.9788 v 24.56036 24.56037 l -3.7333,-0.31037 c -3.6257,-0.30142 -4.1153,-0.85801 -16.988,-19.31036 -7.2901,-10.45 -13.2601,-19.3375 -13.2667,-19.75 -0.01,-0.4125 -0.3495,-0.75026 -0.762,-0.75057 -0.4125,-3.1e-4 -0.75,8.88719 -0.75,19.75 v 19.75057 l -2.6555,0.30731 c -1.4606,0.16902 -2.8626,-0.056 -3.1157,-0.5 z m 78.0408,-21.05731 -0.2696,-21.75 h -7.7516 -7.7517 v -2.75 -2.75 h 19 19 v 2.5 c 0,2.45833 -0.1333,2.5 -8,2.5 h -8 v 22 22 h -2.9804 -2.9805 z m 42.9215,21.10775 c -0.3801,-0.3801 -0.6911,-11.41609 -0.6911,-24.52442 v -23.83333 h 15.5 15.5 v 2.46922 2.46922 l -12.25,0.28078 -12.25,0.28078 v 7.40573 7.40573 l 11.5,0.0943 11.5,0.0943 0.3134,2.71771 0.3133,2.71772 -11.8133,0.28228 -11.8134,0.28229 -0.2899,8.22069 -0.29,8.2207 13.29,0.2793 13.2899,0.27931 v 2.5 2.5 l -15.5589,0.27442 c -8.5574,0.15093 -15.8699,-0.0366 -16.25,-0.41667 z m 54.3089,-23.85775 v -24.5 h 10.5322 c 11.7398,0 15.8971,1.18767 19.2999,5.51368 2.4403,3.10221 2.9231,9.7348 1.0138,13.92524 -1.2442,2.73088 -4.803,5.44696 -8.4398,6.44131 -2.1917,0.59927 -2.0608,0.95049 3.9594,10.61977 3.4243,5.5 6.5695,10.5625 6.9893,11.25 0.5596,0.91649 -0.253,1.24179 -3.0457,1.21924 -3.7766,-0.0305 -3.8645,-0.1242 -10.3091,-10.98523 -6.423,-10.82481 -6.5443,-10.95464 -10.25,-10.96924 l -3.75,-0.0148 v 11 11 h -3 -3 z m 22.0352,-5.01819 c 4.9013,-2.53456 5.163,-8.99541 0.4885,-12.0583 -1.2786,-0.83776 -5.5195,-1.79104 -9.4242,-2.11839 l -7.0995,-0.5952 v 8.14504 8.14504 h 6.5497 c 3.9009,0 7.7369,-0.61397 9.4855,-1.51819 z m -486.0312,-65.02567 c -7.0628,-1.98039 -14.882,-6.40844 -17.4717,-9.8943 l -2.0323,-2.73558 3,-2.48214 c 7.0531,-5.83553 7.1872,-5.86937 10.0026,-2.52344 4.0647,4.83058 10.8807,7.60328 18.4888,7.52108 14.5267,-0.15694 24.1463,-9.68954 21.1198,-20.9289 -1.7535,-6.51215 -5.4665,-9.10978 -20.6936,-14.47752 -23.005,-8.10954 -29.4176,-14.49922 -29.4176,-29.31272 0,-8.16847 1.8961,-12.59301 8.0547,-18.79638 4.8014,-4.83628 6.7061,-5.99974 12.9036,-7.88218 13.9963,-4.25123 30.5542,-1.28128 38.3765,6.88349 l 2.7739,2.89526 -4.9279,4.12589 -4.9279,4.12588 -3.6201,-3.41416 c -9.1054,-8.58752 -29.2021,-6.3098 -34.0263,3.85647 -2.0077,4.23101 -2.0667,10.79234 -0.1307,14.53622 2.064,3.99139 6.1549,6.24492 20.5569,11.32408 13.9328,4.91371 19.5932,8.05458 23.319,12.93948 3.7994,4.98117 4.8874,8.58985 4.9367,16.37332 0.055,8.66999 -2.4186,14.43186 -8.6693,20.1935 -8.3472,7.69423 -25.2454,11.14107 -37.6151,7.67265 z m 123.407,0.12325 c -18.408,-4.19647 -32.622,-17.69794 -37.9837,-36.07939 -2.0618,-7.06883 -2.352,-21.82655 -0.5603,-28.5 6.5189,-24.28117 25.6282,-39 50.633,-39 25.9524,0 45.7851,15.91114 51.1052,41 4.6511,21.93353 -4.3726,44.36348 -22.4909,55.90508 -10.6976,6.81452 -27.7924,9.61763 -40.7033,6.67431 z m 19.1554,-10.66635 c 3.2635,-0.59782 8.5221,-2.46102 11.6857,-4.14044 23.8942,-12.68419 27.7564,-48.85508 7.2205,-67.6237 -7.7494,-7.08251 -14.5689,-9.58681 -25.9726,-9.53778 -11.4888,0.0494 -18.3459,2.56746 -25.9725,9.53778 -21.2752,19.44437 -15.7942,57.55625 9.9127,68.92767 8.2964,3.66986 14.4539,4.4251 23.1262,2.83647 z m 486.47895,11.05797 c -6.39291,-1.34412 -14.03718,-5.33568 -17.95031,-9.373 l -3.38002,-3.4873 3.30873,-2.80536 c 6.85256,-5.81004 6.72972,-5.78083 9.92516,-2.3601 8.95526,9.58664 27.75223,9.8539 35.95522,0.51122 5.31143,-6.0494 5.34462,-15.05392 0.0749,-20.32364 -2.84378,-2.84378 -6.63869,-4.52806 -25.10857,-11.1438 -13.82459,-4.95184 -20.1222,-11.77156 -21.47145,-23.25158 -1.41361,-12.02763 5.02782,-22.89252 16.79282,-28.32476 5.757,-2.65818 7.26942,-2.91266 17.30822,-2.91237 12.55701,3.7e-4 18.66903,1.98364 24.42966,7.92711 l 3.19315,3.29449 -4.69612,4.13369 -4.69612,4.1337 -3.66101,-3.3075 c -5.20549,-4.70285 -11.69609,-6.3233 -19.78066,-4.93848 -10.88889,1.86519 -17.15223,8.7834 -15.96507,17.63433 1.01256,7.54922 5.98675,11.54923 20.17617,16.22475 18.46848,6.08549 27.0142,12.43987 29.38337,21.8487 4.01557,15.94727 -3.52506,29.57016 -19.38337,35.01796 -5.96833,2.0503 -18.25691,2.80503 -24.4547,1.50194 z m -399.04535,-51.97101 v -50 h 6 6 v 44.48122 44.48123 l 22.75,0.26877 22.75,0.26878 0.3023,5.25 0.3023,5.25 h -29.0523 -29.0523 z m 83.4703,46.75 c 0.7525,-1.7875 10.0081,-22.825 20.5679,-46.75 10.5599,-23.925 19.8365,-44.9845 20.6146,-46.7989 1.3872,-3.23423 1.525,-3.29303 7.0297,-3 l 5.6147,0.2989 2.3296,5.5 c 1.2813,3.025 10.3938,24.46427 20.25,47.64282 9.8563,23.17855 18.2214,43.09105 18.5892,44.25 0.6359,2.00359 0.3304,2.10718 -6.2142,2.10718 h -6.883 l -4.8688,-12 -4.8687,-12 -25.0656,0.012 -25.0657,0.012 -4.8731,11.98805 -4.8732,11.98804 h -6.8258 -6.8258 z m 66.7776,-32.5 c 0.2012,-0.4125 -4.0113,-11.55 -9.3611,-24.75 -8.599,-21.21718 -9.8402,-23.71013 -10.7048,-21.5 -0.5378,1.375 -5.0738,12.16035 -10.0799,23.96745 -5.0061,11.80709 -9.1021,21.81959 -9.1021,22.25 0,1.00192 38.7593,1.03406 39.2479,0.0326 z m 65.7521,-14.3932 v -50.14319 l 20.25,0.54757 c 22.3218,0.60359 29.5293,2.04484 36.3883,7.27646 8.40587,6.41148 11.05721,21.78209 5.61175,32.53304 -3.10485,6.1299 -9.69195,11.25282 -16.97295,13.20019 -2.3797,0.63647 -4.1424,1.63757 -3.9171,2.22466 0.2252,0.58708 6.3114,10.63007 13.5248,22.31775 7.21339,11.68768 13.11525,21.46101 13.11525,21.71852 0,0.25751 -3.2625,0.45603 -7.25,0.44116 l -7.25005,-0.027 -13,-21.94593 -13,-21.94593 -7.75,-0.027 -7.75,-0.027 v 22 22 h -6 -6 z m 40.7244,-7.36759 c 3.4011,-1.01002 6.113,-2.67888 8.1815,-5.0348 2.6884,-3.06185 3.0937,-4.27352 3.0904,-9.23921 0,-7.03663 -2.2716,-11.13642 -7.6282,-13.79524 -3.1462,-1.56166 -6.5274,-1.98039 -18.1181,-2.24374 l -14.25,-0.32377 v 16.07377 16.07378 h 11.8185 c 7.6313,0 13.621,-0.53527 16.9059,-1.51079 z m 68.27565,7.51079 v -50 h 6 6 v 50 50 h -6 -6 z m -220.47755,-102.75 c 0.3933,-5.9125 0.7741,-10.80576 0.8463,-10.87392 0.072,-0.0682 3.5869,-0.33602 7.8104,-0.59526 l 7.6792,-0.47136 0.6194,7.59527 c 0.3406,4.1774 0.862,9.28277 1.1587,11.34527 l 0.5393,3.75 h -9.6841 -9.6841 z m -20.2627,8.93073 c -0.9717,-0.61636 -0.8134,-3.02706 0.7308,-11.13126 1.0841,-5.68948 2.1854,-10.55871 2.4472,-10.82053 0.2618,-0.26181 1.1009,-0.23624 1.8646,0.0568 1.1773,0.45177 1.1458,2.17028 -0.2069,11.2942 -1.5609,10.52801 -2.3216,12.1956 -4.8357,10.60077 z m 54.7238,-0.86334 c -0.01,-0.44957 -0.8586,-5.46338 -1.8878,-11.14182 -1.6019,-8.83767 -1.6654,-10.4035 -0.4405,-10.87354 0.7871,-0.30201 1.6727,-0.30744 1.968,-0.0121 0.5155,0.51542 5.3715,21.07753 5.0388,21.33582 -0.9902,0.7687 -4.666,1.31209 -4.6785,0.69162 z m 13.5899,-4.14289 c -0.2824,-0.92098 -1.6252,-5.85831 -2.984,-10.97186 l -2.4705,-9.29735 2.4846,-0.94467 c 6.9692,-2.64966 6.6032,-2.93085 10.6591,8.19043 2.0557,5.63675 3.4001,10.5489 2.9875,10.91588 -0.4126,0.36698 -2.8681,1.36808 -5.4567,2.22466 -4.3463,1.43821 -4.7459,1.42925 -5.22,-0.11709 z m -104.8213,-5.08666 c -2.0614,-0.96265 -3.9969,-1.99923 -4.3011,-2.30351 -0.3043,-0.30428 1.54,-5.06334 4.0985,-10.57569 l 4.6518,-10.02245 3.6493,1.49967 c 2.0072,0.82481 4.0027,1.83379 4.4346,2.24217 1.0264,0.9705 -6.4083,21.09668 -7.7542,20.99102 -0.5671,-0.0445 -2.7176,-0.86857 -4.7789,-1.83121 z m 126.7689,-13.70511 c -4.3383,-9.28373 -4.7493,-11.39658 -2.212,-11.37048 1.583,0.0163 11.1024,18.51298 10.2432,19.90319 -1.6973,2.74627 -3.8088,0.50288 -8.0312,-8.53271 z m -143.2014,5.53695 c -0.7737,-0.77376 0.4765,-3.75333 4.4058,-10.5 3.0173,-5.18083 5.8619,-9.41968 6.3213,-9.41968 2.42,0 1.7055,3.07871 -2.6855,11.5723 -4.8031,9.29075 -5.9292,10.4597 -8.0416,8.34738 z m 59.6803,-5.80926 c -2.2837,-0.40866 -3.4395,-1.14481 -3.3261,-2.11836 0.096,-0.82064 0.9429,-5.91642 1.8829,-11.32396 1.5941,-9.17113 1.8512,-9.7937 3.8261,-9.26365 1.1644,0.31253 2.9442,0.57438 3.955,0.58189 1.5545,0.0116 1.7523,0.59198 1.2823,3.76366 -0.3055,2.0625 -0.848,7.2375 -1.2053,11.5 -0.4069,4.85294 -1.0732,7.70079 -1.7823,7.61836 -0.6229,-0.0724 -2.7076,-0.41348 -4.6326,-0.75794 z m 20,-10.03083 v -10.9204 l 6.75,-0.6797 c 3.7125,-0.37383 7.6454,-0.74715 8.7397,-0.8296 1.7218,-0.12971 2.2203,0.99462 3.7021,8.35011 2.6932,13.36827 2.6448,13.61349 -2.8313,14.36407 -2.5518,0.34976 -7.2768,0.63593 -10.5,0.63593 h -5.8605 z m -102.2314,0.67041 c -3.6906,-2.8875 -6.7023,-5.7 -6.6926,-6.25 0.01,-0.55 3.3617,-4.54885 7.4488,-8.88632 l 7.4311,-7.88632 3.7721,3.40602 c 2.0746,1.87331 4.8283,4.14518 6.1193,5.04861 l 2.3473,1.64259 -6.2976,9.08771 c -3.4637,4.99824 -6.5497,9.08771 -6.8579,9.08771 -0.3081,0 -3.5798,-2.3625 -7.2705,-5.25 z m 58.7314,4.03415 c -1.65,-0.58188 -3.0972,-1.1311 -3.216,-1.22049 -0.1189,-0.0894 1.3615,-4.41528 3.2898,-9.61309 1.9283,-5.19782 3.6927,-9.99677 3.9208,-10.66434 0.3169,-0.92698 1.1935,-0.95097 3.7102,-0.10154 1.8124,0.61172 3.4335,1.2212 3.6026,1.3544 0.169,0.1332 -0.93,5.0164 -2.4422,10.85155 -2.9365,11.33087 -3.0451,11.44595 -8.8652,9.39351 z m 76.0523,-9.35224 c -1.5122,-5.81245 -2.5124,-10.80508 -2.2228,-11.09473 0.2897,-0.28965 1.986,-0.59651 3.7697,-0.68191 3.2055,-0.15348 3.2809,-0.0512 6.5185,8.84473 1.8014,4.95 3.2994,9.54135 3.3289,10.20299 0.043,0.97213 -5.5698,3.26838 -8.0457,3.29143 -0.3295,0.003 -1.8364,-4.75006 -3.3486,-10.56251 z m 53.4099,1.43341 -6.2565,-9.13469 2.3972,-1.89376 c 5.2297,-4.13152 5.0534,-4.19676 12.6933,4.6964 3.9621,4.61202 7.2038,8.55249 7.2038,8.75659 0,0.46678 -8.6569,6.71014 -9.3041,6.71014 -0.2625,0 -3.2927,-4.11061 -6.7337,-9.13468 z m -139.6712,4.06603 -4.209,-1.81454 4.5679,-9.80841 c 2.5124,-5.39462 4.7496,-10.00155 4.9716,-10.23763 0.222,-0.23607 1.9228,0.29523 3.7796,1.18066 l 3.376,1.60989 -3.3554,8.81934 c -1.8454,4.85063 -3.3702,9.35528 -3.3885,10.01032 -0.057,2.05615 -1.3999,2.11236 -5.7422,0.24037 z m 100.1809,0.78597 c -0.2422,-0.66953 -2.0089,-5.4684 -3.9259,-10.66416 -1.9171,-5.19576 -3.3867,-9.47374 -3.2658,-9.50663 0.1209,-0.0329 3.6887,-1.73139 7.9284,-3.77446 l 7.7086,-3.71468 5.5414,9.41572 c 3.0478,5.17864 5.5414,9.65925 5.5414,9.95691 0,0.59863 -9.3641,5.44935 -15.2939,7.92236 -2.87,1.19694 -3.9011,1.28581 -4.2342,0.36494 z m -121.2776,-11.86767 c -1.9098,-1.22283 -3.0889,-2.68188 -2.7921,-3.45514 0.7328,-1.90981 11.6617,-17.39451 12.2767,-17.39451 0.2818,0 1.783,0.90471 3.3359,2.01047 l 2.8234,2.01047 -5.5747,9.48953 c -3.0662,5.21924 -5.8422,9.48195 -6.1691,9.47268 -0.3269,-0.009 -2.0819,-0.96934 -3.9001,-2.1335 z m -44.2873,-4.57889 c -5.5169,-6.09734 -5.7161,-5.37406 3.653,-13.26372 l 8.599,-7.24111 2.8799,3.36703 c 1.5839,1.85187 2.8982,3.60259 2.9205,3.8905 0.022,0.2879 -3.4662,4.00975 -7.7524,8.27076 l -7.793,7.74731 z m 225.0146,-5.27318 -7.5785,-7.66427 3.1889,-3.79837 3.189,-3.79838 8.5887,7.27539 8.5888,7.27538 -3.5697,4.35634 c -1.9633,2.39598 -3.853,4.28024 -4.1992,4.18725 -0.3463,-0.093 -4.0399,-3.618 -8.208,-7.83334 z m -114.9216,5.86014 c -16.4877,-1.00855 -27.6523,-4.11807 -43,-11.97622 -10.9513,-5.60721 -20.0538,-12.24245 -28.2737,-20.61004 l -5.7738,-5.87752 8.5573,-7.2865 8.5572,-7.2865 6.8638,6.47495 c 18.8459,17.77827 45.8133,26.89955 70.544,23.86033 7.9782,-0.98046 19.1838,-3.85637 25.6047,-6.57144 2.1655,-0.91569 11.7046,19.30102 9.7053,20.56909 -1.9142,1.21412 -15.5619,5.62467 -21.2848,6.87866 -8.2343,1.8043 -20.3576,2.50676 -31.5,1.82519 z m 81.0592,-9.00882 -6.2492,-9.01774 2.2694,-2.41558 c 1.2481,-1.32857 2.5622,-2.41558 2.9202,-2.41558 0.8961,0 14.0004,15.81045 14.0004,16.89157 0,0.47908 -1.5056,2.01946 -3.3458,3.42306 l -3.3459,2.55202 z m -20.1231,-13.07554 c -2.2987,-4.00035 -4.7997,-8.27003 -5.5578,-9.48818 -0.758,-1.21815 -1.3783,-2.43403 -1.3783,-2.70196 0,-0.26793 2.1375,-1.94546 4.75,-3.72785 2.6125,-1.78239 7.5114,-5.87624 10.8864,-9.09745 l 6.1364,-5.85674 7.8636,6.66471 c 4.325,3.66559 7.9969,7.22403 8.1597,7.90764 0.3732,1.56709 -12.5069,13.64674 -20.5788,19.29983 l -6.1017,4.27335 z m -155.0092,1.88244 c -4.9847,-5.79741 -9.2795,-11.65194 -8.8163,-12.01791 0.2142,-0.16922 4.3755,-3.11283 9.2473,-6.54136 l 8.8578,-6.23369 1.6142,2.31858 c 0.8878,1.27522 3.393,4.25437 5.5672,6.62034 l 3.9531,4.30177 -7.9016,7.94823 c -4.3459,4.37153 -8.1372,7.90585 -8.4251,7.85404 -0.2879,-0.0518 -2.1314,-1.9643 -4.0966,-4.25 z m 191.3231,-3.37006 c -3.9875,-4.094 -7.25,-7.66863 -7.25,-7.94364 0,-0.27501 2.3556,-3.27698 5.2346,-6.67106 2.879,-3.39407 5.3058,-6.31031 5.3928,-6.48053 0.1204,-0.23532 9.2225,5.98261 18.2621,12.47533 0.9238,0.66351 -12.5111,16.47175 -13.7668,16.19884 -0.3425,-0.0744 -3.8852,-3.48495 -7.8727,-7.57894 z m -105.511,-2.187 c -2.0686,-0.43312 -4.043,-1.06942 -4.3875,-1.414 -0.3446,-0.34457 0.6279,-5.35913 2.161,-11.14345 l 2.7876,-10.51695 4.1,0.73783 c 2.255,0.40581 8.3749,0.67789 13.5999,0.60464 14.0947,-0.19761 26.6412,-4.76363 38.1704,-13.89126 l 4.3296,-3.42772 7.75,7.70262 c 4.2625,4.23645 7.75,8.00302 7.75,8.37017 0,1.39105 -14.7922,11.82353 -21.5,15.16319 -13.0571,6.50097 -19.3297,7.94564 -36,8.29136 -8.25,0.17109 -16.6924,-0.0433 -18.761,-0.47643 z m -122.1647,-1.76596 c -0.82,-2.13669 -0.699,-2.23953 9.6185,-8.17489 7.3928,-4.25282 8.8722,-4.78451 9.8925,-3.55513 0.6599,0.79506 1.0231,1.59783 0.8073,1.78392 -1.3838,1.19289 -18.4152,11.61332 -18.9811,11.61332 -0.3836,0 -0.9854,-0.75025 -1.3372,-1.66722 z m 100.3749,-5.64381 c -6.9627,-3.50448 -13.3973,-7.76192 -18.9492,-12.53771 l -3.5,-3.01076 7.857,-7.94993 7.8569,-7.94994 7.4131,5.31865 c 4.0772,2.92526 8.4166,5.62619 9.6431,6.00208 4.5851,1.4052 4.6233,2.01378 0.7806,12.42934 -2.0232,5.48381 -3.8977,10.18965 -4.1654,10.45742 -0.2678,0.26777 -3.389,-0.97385 -6.9361,-2.75915 z m 169.1593,-3.65352 c -9.8934,-5.79879 -10.2829,-6.13518 -9.1764,-7.92555 0.6732,-1.08914 2.9277,-0.27254 10.8933,3.94565 8.7487,4.63281 9.9194,5.55289 9.0744,7.13174 -0.5336,0.99699 -1.2918,1.80234 -1.6849,1.78966 -0.3932,-0.0127 -4.491,-2.23635 -9.1064,-4.9415 z m -252.0999,-11.01876 c -1.1047,-2.16536 -2.0086,-4.15132 -2.0086,-4.41324 0,-0.42109 18.7485,-9.60345 19.6083,-9.60345 0.9659,0 3.4411,6.3389 2.7268,6.98347 -0.4593,0.41451 -4.7687,3.05239 -9.5765,5.86195 l -8.7415,5.10828 z m 230.9914,-1.15994 c -4.675,-2.78052 -8.9024,-5.43574 -9.3943,-5.90049 -0.8467,-0.79994 1.0366,-6.95626 2.128,-6.95626 0.8526,0 20.2663,9.28304 20.2663,9.69071 0,0.57279 -4.0009,8.31687 -4.2703,8.26541 -0.1263,-0.0241 -4.0547,-2.31885 -8.7297,-5.09937 z m -205.9022,-4.85235 c -1.6906,-2.74758 -4.4095,-7.94123 -6.0419,-11.54145 l -2.968,-6.54585 2.2061,-0.83024 c 1.2133,-0.45663 5.356,-1.97325 9.206,-3.37026 3.85,-1.39701 7.7425,-2.8356 8.6499,-3.19686 1.2455,-0.49586 1.9273,0.18389 2.782,2.77367 0.6227,1.88678 2.6927,6.02215 4.6001,9.1897 1.9074,3.16756 3.468,5.90708 3.468,6.08783 0,0.54834 -17.2877,12.42906 -18.0855,12.42906 -0.4086,0 -2.1261,-2.24802 -3.8167,-4.9956 z m 179.0607,-0.46004 c -10.1043,-7.33228 -9.7221,-6.59534 -6.3099,-12.16482 1.6442,-2.68375 3.7364,-6.75879 4.6494,-9.05566 l 1.6601,-4.17611 10.4189,3.67611 c 6.9892,2.46603 10.4143,4.16988 10.4051,5.17612 -0.023,2.53731 -10.5725,21.48832 -12.0716,21.6859 -0.7757,0.10224 -4.7141,-2.21145 -8.752,-5.14154 z m -96.5012,3.74844 c -1.3297,-0.34288 -1.6826,-1.07627 -1.2675,-2.634 0.3164,-1.18734 1.5937,-6.11553 2.8383,-10.95153 2.0691,-8.03893 2.459,-8.76763 4.5486,-8.5 2.7221,0.34864 2.5829,-0.65873 1.6997,12.29926 l -0.7153,10.49347 -2.6305,-0.116 c -1.4468,-0.0638 -3.4598,-0.32984 -4.4733,-0.5912 z m 18.7079,-9.42302 c -0.4466,-5.70338 -0.824,-10.81978 -0.8386,-11.36978 -0.015,-0.55 1.0603,-1 2.3887,-1 2.2141,0 2.6546,0.86464 5.2877,10.379 1.5798,5.70845 2.6676,10.58379 2.4173,10.83408 -0.2503,0.25029 -2.2524,0.69614 -4.449,0.99078 l -3.994,0.5357 z m 133.707,5.08978 c -5.1853,-2.19002 -9.614,-4.16809 -9.8416,-4.39571 -0.2276,-0.22762 -0.035,-1.06036 0.4278,-1.85055 0.7015,-1.19747 2.5068,-0.81974 10.8416,2.26847 5.5,2.03785 9.955,4.22561 9.9,4.8617 -0.2233,2.5829 -0.4337,3.15521 -1.15,3.12724 -0.4125,-0.0161 -4.9925,-1.82113 -10.1778,-4.01115 z m -168.7743,-1.96187 -5.2022,-2.98353 6.6109,-9.40421 6.6109,-9.4042 3.3167,1.64712 c 1.8241,0.90592 3.3277,2.15605 3.3412,2.77807 0.022,0.99991 -3.036,9.78684 -6.1312,17.61906 -1.363,3.44894 -2.1323,3.42623 -8.5463,-0.25231 z m 50.5913,0.25231 c -6.4458,-16.70133 -6.8291,-18.21176 -4.8857,-19.25184 2.6593,-1.42325 2.4946,-1.55311 6.0283,4.75184 1.7725,3.1625 4.318,7.63666 5.6568,9.94258 l 2.4342,4.19258 -3.0117,1.55742 c -4.1432,2.14253 -4.998,1.9787 -6.2219,-1.19258 z m -93.4195,-7.19084 c -3.6276,-5.60763 -8.4697,-15.05839 -8.4697,-16.531 0,-0.43053 19.4499,-7.52816 20.6297,-7.52816 0.5327,0 1.4995,1.4625 2.1485,3.25 0.6489,1.7875 2.7381,5.612 4.6427,8.4989 l 3.4627,5.2489 -8.3139,7.0011 c -4.5726,3.8506 -8.6055,7.0011 -8.962,7.0011 -0.3564,0 -2.6685,-3.12338 -5.138,-6.94084 z m 133.5303,2.29599 c -3.025,-2.53101 -6.7433,-5.64716 -8.2629,-6.92479 l -2.7629,-2.32296 3.9975,-6.18488 c 2.1986,-3.40169 4.9929,-9.38835 6.2094,-13.3037 1.2166,-3.91535 2.5103,-7.48309 2.8749,-7.9283 0.7304,-0.89172 19.9202,2.15524 21.3154,3.38444 1.221,1.07576 -2.8604,13.95671 -7.0919,22.38197 -3.5668,7.10182 -9.1254,15.56134 -10.199,15.52156 -0.3192,-0.0118 -3.0555,-2.09233 -6.0805,-4.62334 z m -215.2166,-1.35332 c -0.879,-2.74899 -1.3024,-5.17358 -0.9408,-5.38797 0.7226,-0.42844 19.6105,-5.61386 20.4485,-5.61386 0.2865,0 1.198,1.98707 2.0255,4.41571 l 1.5046,4.41572 -2.6606,1.04975 c -7.7979,3.07671 -16.5426,6.11882 -17.5887,6.11882 -0.6546,0 -1.9094,-2.24918 -2.7885,-4.99817 z m 108.3009,-6.75183 c -2.2392,-2.6125 -4.0545,-4.975 -4.034,-5.25 0.021,-0.275 4.1171,-3.36683 9.1036,-6.87074 l 9.0662,-6.37074 3.0031,3.00312 3.0031,3.00312 -7.2998,8.61762 c -4.0149,4.73969 -7.6308,8.61762 -8.0353,8.61762 -0.4046,0 -2.5676,-2.1375 -4.8069,-4.75 z m 79.0047,-3.71276 -7.1888,-8.53684 3.7221,-4.45282 c 2.0471,-2.44905 3.9821,-4.3193 4.2999,-4.15611 5.3283,2.73593 19.0728,11.01721 19.0581,11.48282 -0.033,1.06229 -10.4125,13.45205 -11.5914,13.83699 -0.6111,0.19954 -4.3461,-3.47877 -8.2999,-8.17404 z m -163.1844,3.53845 c -0.6738,-2.24872 -0.9469,-4.36667 -0.607,-4.70656 0.3399,-0.33988 5.0245,-1.85174 10.4102,-3.35969 l 9.7922,-2.74171 1.2049,2.61613 c 0.6627,1.43888 1.2252,3.08403 1.25,3.65589 0.025,0.57187 -4.1174,2.54392 -9.2049,4.38234 -5.0875,1.83843 -9.7833,3.545 -10.4352,3.79239 -0.6947,0.26364 -1.6922,-1.24236 -2.4102,-3.63879 z m 248.1179,0.29755 c -5.2126,-1.92221 -9.6567,-3.67418 -9.8758,-3.89326 -0.464,-0.46402 3.5086,-15.46859 4.3068,-16.2668 0.2959,-0.29582 5.2931,0.27721 11.105,1.2734 l 10.567,1.81126 -0.683,4.10108 c -0.9668,5.80534 -4.3872,16.61367 -5.2326,16.53516 -0.3904,-0.0362 -4.9747,-1.63863 -10.1874,-3.56084 z m 26.1384,-4.16529 -9.3391,-2.53332 0.6826,-4.58731 c 0.3755,-2.52303 0.831,-4.74016 1.0122,-4.92697 0.4715,-0.48616 20.8491,3.04314 21.6542,3.75041 0.3689,0.32408 0.1968,2.95174 -0.3825,5.83924 -1.2245,6.10333 -0.6023,5.99111 -13.6274,2.45795 z m -251.4828,-6.95795 c -1.8445,-6.68893 -4.0753,-19.18606 -3.5234,-19.73797 0.2084,-0.20841 5.3077,-0.52138 11.3318,-0.69548 l 10.9529,-0.31655 0.7442,5 c 0.4094,2.75 1.3823,7.10706 2.1621,9.68235 l 1.4179,4.68236 -9.7123,3.56764 c -5.3418,1.96221 -10.1793,3.56765 -10.75,3.56765 -0.5708,0 -1.7512,-2.5875 -2.6232,-5.75 z m 200.6493,2.0673 -9.1727,-3.47491 1.4753,-5.1712 c 0.8114,-2.84416 1.6419,-5.68023 1.8457,-6.30239 0.2656,-0.811 3.2674,-0.60139 10.6045,0.7405 5.6288,1.02943 10.4693,2.10686 10.7568,2.39429 0.2874,0.28742 -0.2717,3.8917 -1.2425,8.0095 -1.3473,5.71515 -2.159,7.46232 -3.4297,7.38301 -0.9156,-0.0571 -5.7925,-1.6676 -10.8374,-3.5788 z m -251.7188,-0.89496 c -0.3708,-0.96623 -0.3219,-2.05692 0.1087,-2.42377 1.1946,-1.01794 20.2968,-4.10793 21.3544,-3.45431 0.5106,0.31557 0.9283,1.12986 0.9283,1.80953 0,1.08294 -3.2581,1.97784 -19.6086,5.38581 -1.3709,0.28573 -2.3445,-0.17517 -2.7828,-1.31726 z m 212.8177,-7.25639 c -0.5095,-0.43255 -4.7513,-2.5208 -9.4263,-4.64056 -9.5081,-4.31124 -9.5331,-4.32553 -8.8207,-5.03798 0.5758,-0.57581 19.8788,6.20745 21.1131,7.41936 1.0774,1.05783 -1.7014,3.24817 -2.8661,2.25918 z m -111.762,-0.91595 c -0.2495,-0.4125 -1.1581,-3.13354 -2.019,-6.04674 -1.8477,-6.25271 -2.7,-5.63166 11.1408,-8.11766 l 10.0668,-1.80811 0.5693,2.26835 c 0.3131,1.2476 0.8456,2.98835 1.1833,3.86834 0.4786,1.24714 -1.5208,2.59078 -9.0663,6.0929 -10.0375,4.6587 -11.1153,4.99842 -11.8749,3.74292 z m -27.1618,-3.5578 c -0.5206,-1.5895 -2.5025,-15.15888 -2.5025,-17.13376 0,-1.31944 1.7354,-1.55844 11.3154,-1.55844 h 11.3154 l 0.9677,7.00145 c 0.8269,5.98271 0.7447,7.06963 -0.5654,7.46999 -11.111,3.39564 -20.1896,5.26206 -20.5306,4.22076 z m 133.2475,-8.05768 c -9.9655,-2.72384 -10.75,-3.11815 -10.75,-5.40387 0,-2.46464 0,-2.46537 7.75,-1.81585 14.5266,1.21795 15.2588,1.43128 15.1798,4.4231 -0.1566,5.93011 -0.4603,5.99983 -12.1798,2.79662 z m 96.5,-0.37492 -6.25,-0.35504 v -4.95228 -4.95228 h 11 11 v 5.5 5.5 l -4.75,-0.19268 c -2.6125,-0.10598 -7.5625,-0.35245 -11,-0.54772 z m -281.5948,-3.41464 c -0.3453,-1.28973 -0.634,-3.35746 -0.6415,-4.59496 -0.013,-2.20369 0.223,-2.25 11.4863,-2.25 h 11.5 v 3.43261 c 0,4.09075 -0.2344,4.18543 -12.6085,5.09084 -8.9618,0.65575 -9.1186,0.62872 -9.7363,-1.67849 z m 259.8448,1.48041 c -9.7769,-0.82718 -10.1356,-1.00609 -9.6889,-4.83285 l 0.4078,-3.49252 h 11.4975 c 10.0735,0 11.4224,0.19592 10.8906,1.58178 -0.3338,0.86999 -0.607,2.89499 -0.607,4.5 0,3.16719 -0.5072,3.25824 -12.5,2.24359 z m -25.3593,-2.40436 c -4.5977,-0.44355 -8.4729,-0.94474 -8.6115,-1.11374 -0.1386,-0.169 -0.518,-4.87731 -0.843,-10.4629 l -0.591,-10.15564 6.2024,-1.07966 c 14.7781,-2.57245 15.3468,-2.57156 16.0419,0.0251 0.3483,1.30118 0.6394,7.20329 0.6469,13.11579 0.013,10.52561 -0.033,10.74715 -2.2364,10.61373 -1.2375,-0.0749 -6.0117,-0.49917 -10.6093,-0.94272 z m -18.6407,-1.5037 c -1.1,-0.17068 -5.0375,-0.59522 -8.75,-0.94341 -4.868,-0.45658 -6.75,-1.0291 -6.75,-2.0535 0,-1.14486 2.2309,-1.4204 11.5,-1.4204 6.325,0 11.5,0.41319 11.5,0.91821 0,3.63892 -1.6469,4.40728 -7.5,3.4991 z m -240.5,-2.41731 c 0,-1.87879 0.6667,-2 11,-2 8.699,0 11,0.28938 11,1.38337 0,1.95691 -3.2088,2.5873 -13.25,2.60297 -8.0878,0.0126 -8.75,-0.13768 -8.75,-1.98634 z m 99,-0.34777 c 0,-1.25076 1.9248,-1.57984 10.75,-1.83789 12.7376,-0.37246 15.8093,0.72088 4.6049,1.63904 -4.3202,0.35403 -9.5424,0.8864 -11.6049,1.18305 -2.9284,0.4212 -3.75,0.20558 -3.75,-0.9842 z m -75,-6.02723 c 0,-0.75625 0.2871,-2.81018 0.6379,-4.56429 l 0.6379,-3.18929 9.1121,0.64761 c 12.4065,0.88173 12.6121,0.96405 12.6121,5.04836 v 3.43261 h -11.5 c -9.0909,0 -11.5,-0.28805 -11.5,-1.375 z m 25.0154,-0.875 c 0.03,-4.40197 1.2001,-4.98615 8.6017,-4.29424 13.6774,1.27858 14.3829,1.48128 14.3829,4.13214 0,2.40963 -0.012,2.4121 -11.5,2.4121 -11.2637,0 -11.4996,-0.0462 -11.4846,-2.25 z m 62.9846,-1.39121 c -11.7306,-1.22691 -12.0009,-1.32094 -11.9846,-4.17007 0.031,-5.35725 0.7606,-5.51069 12.375,-2.60039 9.6524,2.41865 10.6831,2.89366 10.4113,4.79804 -0.3195,2.23902 -3.2086,2.76658 -10.8017,1.97242 z m 87.2125,0.1337 c 0.635,-0.66916 18.3899,-4.33594 21.5375,-4.44799 0.6875,-0.0245 1.25,0.59094 1.25,1.3676 0,1.55344 -2.8954,2.14695 -15.5,3.17721 -4.4,0.35965 -7.6793,0.31608 -7.2875,-0.0968 z m -105.7125,-1.98696 c -0.55,-0.19777 -4.9375,-0.65782 -9.75,-1.02233 -8.3964,-0.63596 -8.75,-0.76013 -8.75,-3.07297 0,-2.88665 0.2883,-2.89918 13,-0.56472 6.7987,1.24853 9.5,2.15445 9.5,3.18586 0,1.4208 -2.0486,2.17583 -4,1.47416 z m 130.9824,-0.53412 c -1.1665,-1.88738 0.572,-2.63 10.161,-4.34045 11.9875,-2.13831 12.3566,-2.11545 12.3566,0.76496 0,2.28124 -0.3948,2.42733 -8.25,3.05231 -4.5375,0.36102 -9.4446,0.8842 -10.9048,1.16263 -1.4601,0.27842 -2.9734,-0.009 -3.3628,-0.63945 z m -221.7324,-0.68767 c -1.965,-0.29767 -2.75,-0.99881 -2.75,-2.45633 0,-1.95482 0.3852,-2.01152 9.25,-1.36207 11.053,0.80976 12.75,1.22266 12.75,3.10205 0,1.13982 -1.686,1.40199 -8.25,1.28278 -4.5375,-0.0824 -9.4875,-0.3373 -11,-0.56643 z m 296.6962,-0.37087 c -1.2572,-2.0342 1.0429,-2.69701 11.8038,-3.40153 10.2835,-0.67326 10.75,-0.61788 10.75,1.2758 0,1.20759 -0.8774,2.21474 -2.25,2.58257 -3.9346,1.05444 -19.5874,0.70225 -20.3038,-0.45684 z m -102.5009,-5.55695 c -0.5529,-1.45424 -1.2161,-2.98519 -1.4738,-3.4021 -0.2577,-0.41691 1.2184,-1.77189 3.28,-3.01106 6.752,-4.05824 15.4314,-8.94276 15.8906,-8.94276 0.6136,0 5.336,10.23049 5.3482,11.58606 0.01,0.93516 -17.8865,6.41394 -20.9493,6.41394 -0.5998,0 -1.5428,-1.18984 -2.0957,-2.64408 z m -82.8865,-3.93274 c -5.1927,-1.9098 -9.6609,-3.69195 -9.9292,-3.96033 -0.5224,-0.52242 2.1019,-6.52309 4.4565,-10.18993 l 1.43,-2.22707 8.742,6.17013 c 4.8081,3.39358 8.9351,6.31391 9.1712,6.48963 0.6563,0.48851 -2.7898,7.30169 -3.6631,7.24216 -0.4214,-0.0287 -5.0147,-1.61478 -10.2074,-3.52459 z m -52.7155,-0.62615 -10.1568,-1.96033 0.8759,-3.05416 c 0.4818,-1.67979 1.0074,-3.18566 1.1681,-3.34637 0.1608,-0.16071 4.9171,0.91291 10.5697,2.38581 9.6765,2.52141 10.2606,2.81971 9.9887,5.1009 -0.1589,1.33258 -0.7389,2.51549 -1.2889,2.62868 -0.55,0.11318 -5.5705,-0.67636 -11.1567,-1.75453 z m 33.6567,-0.007 c -1.925,-0.50393 -6.5784,-1.81911 -10.3409,-2.92263 -7.5594,-2.21709 -7.5298,-2.14583 -4.1972,-10.12207 l 1.52,-3.63786 9.759,4.52944 c 5.3674,2.4912 9.9163,4.68684 10.1087,4.87921 0.4959,0.49591 -1.8559,7.38025 -2.6725,7.82303 -0.3724,0.20192 -2.2521,-0.0452 -4.1771,-0.54912 z m 127,-0.51998 c 0,-1.55718 1.9308,-2.62273 9.7071,-5.35699 5.3388,-1.87725 10.0065,-3.54407 10.3726,-3.70406 1.2048,-0.52648 1.8734,4.20185 0.697,4.9289 -0.6314,0.39026 -4.814,1.62901 -9.2945,2.75276 -4.4806,1.12376 -8.897,2.3312 -9.8143,2.6832 -1.2046,0.46225 -1.6679,0.10011 -1.6679,-1.30381 z m 49.9542,-5.69985 c -0.5644,-2.23867 -1.6264,-5.99242 -2.3601,-8.34167 -0.7337,-2.34925 -1.0192,-4.46588 -0.6345,-4.70364 3.0889,-1.90902 20.5613,-7.30034 21.0574,-6.49752 0.9345,1.51193 5.3173,18.97219 4.8728,19.41212 -0.2144,0.21217 -5.2317,1.2442 -11.1496,2.29339 l -10.7598,1.90762 z m -229.4542,2.9428 c -0.55,-0.20651 -4.2942,-0.90246 -8.3206,-1.54656 l -7.3206,-1.17108 0.686,-4.14774 c 0.3773,-2.28125 0.8472,-4.42314 1.0443,-4.75974 0.1971,-0.33661 5.2523,0.73033 11.2336,2.37096 l 10.8753,2.98297 -0.6343,3.12904 c -0.5259,2.59449 -1.1407,3.16223 -3.599,3.32333 -1.6305,0.10686 -3.4147,0.0253 -3.9647,-0.18118 z m 148.5834,-1.90663 c 0.2291,-0.21643 4.2279,-3.55694 8.8861,-7.42336 7.7101,-6.39951 10.0305,-7.6074 10.0305,-5.22128 0,1.08465 -16.6774,13.03816 -18.1906,13.03816 -0.6285,0 -0.9552,-0.17708 -0.726,-0.39352 z m 54.9166,-1.5247 c 0,-0.50501 -0.2492,-1.56787 -0.5539,-2.3619 -0.4135,-1.07755 2.0381,-2.37471 9.6669,-5.11483 5.6215,-2.01913 10.564,-3.31877 10.9832,-2.8881 0.4193,0.43068 1.0519,1.95679 1.4059,3.39137 0.6356,2.57559 0.5113,2.64148 -9.8988,5.25 -12.0021,3.00745 -11.6033,2.94821 -11.6033,1.72346 z m -234.5,-1.97114 c -4.95,-0.921 -8.9848,-2.11016 -8.9662,-2.64259 0.089,-2.5599 1.7178,-9.5055 2.3155,-9.87487 0.3713,-0.22951 5.1697,0.78917 10.663,2.26374 7.8737,2.11354 9.9701,3.04743 9.9044,4.41205 -0.3714,7.71491 -0.3777,7.73289 -2.6667,7.62362 -1.2375,-0.0591 -6.3,-0.86095 -11.25,-1.78195 z m 116.4829,-1.42554 c -1.9344,-1.75181 -5.7594,-5.06426 -8.5,-7.36102 -3.5438,-2.96989 -4.6763,-4.48937 -3.9216,-5.26129 0.7569,-0.77407 3.2718,1.12506 8.7682,6.62148 7.6762,7.67618 10.3462,12.06173 3.6534,6.00083 z m 57.0643,-1.12829 c -0.9686,-1.1671 -0.3816,-2.55403 3.0684,-7.25 2.3464,-3.19375 5.3353,-7.2786 6.642,-9.07746 l 2.3757,-3.27064 2.9334,2.08874 c 1.6133,1.1488 2.9333,2.54245 2.9333,3.097 0,1.19893 -14.7186,15.85555 -15.9226,15.85555 -0.4578,0 -1.3714,-0.64944 -2.0302,-1.44319 z m 31.0289,-2.15249 c -1.1865,-2.01101 -2.0265,-3.73779 -1.8667,-3.83729 0.1599,-0.0995 4.2988,-3.0106 9.1977,-6.4691 6.7748,-4.78289 9.1004,-5.96618 9.7151,-4.94306 0.4445,0.73982 1.9426,3.20449 3.3293,5.47705 l 2.5211,4.13192 -8.3551,4.00906 c -12.3097,5.90662 -12.037,5.87602 -14.5414,1.63142 z m -85.5761,-5.61615 c -7.4124,-8.85026 -7.9558,-9.73228 -6.7436,-10.9445 0.6181,-0.6181 3.0914,2.01584 6.8984,7.34638 7.2869,10.20298 7.6651,10.81593 6.6543,10.78596 -0.445,-0.0132 -3.5091,-3.24772 -6.8091,-7.18784 z m -63.5,2.50689 c -5.225,-1.95672 -9.6344,-3.67048 -9.7986,-3.80837 -0.7004,-0.58793 1.158,-5.68736 2.2214,-6.09542 0.641,-0.24597 5.5238,1.58949 10.8508,4.07879 9.4926,4.43594 9.6627,4.5758 8.5454,7.02797 -0.627,1.37608 -1.4052,2.46883 -1.7295,2.42833 -0.3242,-0.0405 -4.8645,-1.67459 -10.0895,-3.6313 z m 28.7623,-3.62658 c -4.8057,-2.84267 -8.7432,-5.41997 -8.75,-5.72735 -0.01,-0.30738 0.5502,-1.32356 1.2377,-2.25818 1.1316,-1.53826 2.129,-1.07718 10.5241,4.86537 8.2462,5.83702 10.5447,8.61847 6.9169,8.37016 -0.655,-0.0448 -5.1229,-2.40734 -9.9287,-5.25 z m 42.1602,-2.91848 c -2.2912,-3.9875 -4.8221,-8.30155 -5.6241,-9.58677 -0.802,-1.28522 -1.3097,-2.46549 -1.1283,-2.62282 1.4419,-1.25027 7.137,-3.56666 7.6089,-3.09478 0.3262,0.32621 2.287,5.1842 4.3572,10.79553 3.7423,10.14332 3.7632,11.69774 0.158,11.74352 -0.6633,0.008 -3.0805,-3.24718 -5.3717,-7.23468 z m 44.8701,-2.75 c 2.5447,-5.5 5.2074,-10 5.9171,-10 0.7097,0 1.2903,0.48306 1.2903,1.07348 0,1.48904 -10.2485,18.92652 -11.1237,18.92652 -0.3907,0 1.3716,-4.5 3.9163,-10 z m -12.0426,7.25399 c -0.9625,-0.22035 -1.75,-0.90425 -1.75,-1.51978 0,-2.44391 3.3469,-20.28026 3.9338,-20.96432 0.3446,-0.40156 2.3366,-0.25791 4.4268,0.31921 2.9714,0.82046 3.6547,1.41591 3.1328,2.73011 -0.3672,0.92443 -2.0397,5.50579 -3.7167,10.18079 -3.4273,9.5541 -3.5945,9.8108 -6.0267,9.25399 z m -19.1777,-1.36086 c -2.6988,-7.91779 -5.3873,-20.4781 -4.5603,-21.30505 0.6224,-0.6224 1.2986,-0.63649 1.8273,-0.0381 1.0825,1.22538 4.5207,21.42335 3.7739,22.17015 -0.3113,0.31136 -0.7798,-0.0608 -1.0409,-0.82702 z m 141.7089,-3.13435 c -0.6226,-2.33266 -0.986,-4.38731 -0.8074,-4.56588 1.032,-1.03203 19.136,-7.17288 20.0794,-6.81089 1.1738,0.45045 4.0615,9.33665 3.286,10.11213 -0.5342,0.53423 -18.9251,5.49981 -20.3826,5.50334 -0.5738,10e-4 -1.5528,-1.90603 -2.1754,-4.2387 z m -135.6269,-5.00878 c -1.1797,-15.15452 -1.2748,-14.75 3.4647,-14.75 h 4.1189 l -0.6832,9.75 c -0.8598,12.27021 -1.1536,13.25 -3.9738,13.25 -2.1427,0 -2.3243,-0.51173 -2.9266,-8.25 z m 80.3889,2.82548 c -1.6737,-2.92542 -3.0432,-5.57962 -3.0432,-5.89823 0,-0.73436 16.7671,-12.68388 17.7614,-12.6581 1.6156,0.0419 9.4573,14.98085 7.8636,14.98085 -0.2063,0 -4.6868,2.00124 -9.9568,4.4472 l -9.5818,4.44721 z m -195.2453,-0.2317 -9.7021,-3.54274 1.6148,-4.15052 c 0.8881,-2.28279 1.6975,-4.26897 1.7986,-4.41374 0.1647,-0.2356 19.6562,8.59527 20.2234,9.16239 0.6193,0.61935 -2.3036,6.59353 -3.2018,6.54409 -0.5669,-0.0312 -5.3967,-1.65097 -10.7329,-3.59948 z m 61.213,-4.86839 c -4.119,-3.52559 -7.622,-6.80877 -7.7844,-7.29595 -0.4114,-1.23417 12.7204,-13.36384 14.0045,-12.9358 0.5751,0.19169 3.7197,4.20618 6.9881,8.92107 l 5.9426,8.57254 -4.8308,4.60819 c -2.657,2.53451 -5.2809,4.59288 -5.8309,4.57416 -0.55,-0.0187 -4.3701,-2.91861 -8.4891,-6.44421 z m 101.6059,3.6465 -2.8067,-2.92958 7.2932,-8.60981 7.2932,-8.6098 4.3018,4.22186 c 2.366,2.32202 4.3017,4.47569 4.3017,4.78593 0,0.74533 -14.6316,12.94091 -16.2887,13.57682 -0.7083,0.27178 -2.5508,-0.82415 -4.0945,-2.43542 z m -131.3645,-5.81904 -9.2478,-5.50183 1.7134,-2.90051 c 0.9423,-1.59528 1.9892,-2.90051 2.3264,-2.90051 0.8795,0 17.9557,11.99802 17.9557,12.61595 0,1.12531 -2.1136,4.37814 -2.7851,4.28639 -0.3932,-0.0537 -4.8763,-2.57348 -9.9626,-5.59949 z m -48.91,0.70667 c -2.2868,-1.01705 -6.6743,-2.64245 -9.75,-3.61198 -3.0758,-0.96953 -5.5824,-2.24311 -5.5703,-2.83016 0.037,-1.78935 3.8278,-9.56738 4.6631,-9.56738 0.6485,0 17.942,7.81957 19.2093,8.68584 0.6141,0.41972 -2.9759,9.32304 -3.7271,9.24352 -0.367,-0.0389 -2.5383,-0.90278 -4.825,-1.91984 z m 234.0206,-6.29207 c -2.2755,-3.9696 -3.9903,-7.46773 -3.8108,-7.77362 0.1795,-0.30589 4.2111,-3.22211 8.959,-6.48049 l 8.6326,-5.92431 1.8991,2.48047 c 2.1796,2.84674 8.4572,14.12595 8.4572,15.19517 0,0.71356 -18.027,9.81444 -19.3183,9.75278 -0.3749,-0.0179 -2.5434,-3.28041 -4.8188,-7.25 z m -66.8629,1.61056 c -1.65,-0.87555 -3.1262,-1.69624 -3.2804,-1.82376 -0.2853,-0.23582 8.5258,-19.58291 9.2468,-20.30392 0.5586,-0.5586 10.5314,5.14676 10.5326,6.02564 0,1.08744 -12.0904,17.78033 -12.8461,17.73399 -0.3591,-0.022 -2.0029,-0.7564 -3.6529,-1.63195 z m 95.5311,-1.07801 c 0.036,-2.01641 18.1916,-10.84845 20.0015,-9.72989 2.5631,1.58411 -0.1461,3.87322 -8.9337,7.54825 -10.7281,4.48655 -11.11,4.56183 -11.0678,2.18164 z m -160.596,-4.00825 c -1.1357,-2.05796 -3.5283,-6.30643 -5.3168,-9.44104 l -3.2519,-5.69928 5.0336,-2.5507 c 2.7684,-1.4029 5.386,-2.5499 5.8168,-2.5489 0.4308,0 2.3582,4.37625 4.2832,9.72266 1.925,5.3464 3.6413,10.04416 3.8138,10.43946 0.3684,0.84378 -5.1216,3.83981 -7.0141,3.8278 -0.7148,-0.005 -2.2289,-1.69204 -3.3646,-3.75 z m -74.3783,-3.34302 c -4.6437,-2.72351 -8.6144,-5.12307 -8.8237,-5.33235 -0.5281,-0.52806 2.5327,-6.30357 3.7341,-7.04608 0.5397,-0.33358 5.023,2.11111 9.9629,5.43264 l 8.9815,6.03915 -1.7058,2.99763 c -0.9382,1.6487 -2.1558,2.96686 -2.7058,2.92924 -0.55,-0.0376 -4.7994,-2.29672 -9.4432,-5.02023 z m 32.4432,-1.01015 c -3.85,-3.29863 -7.3894,-6.38494 -7.8654,-6.85846 -1.081,-1.07547 3.3895,-7.04829 7.7846,-10.40059 l 3.2844,-2.5052 7.0782,8.59506 7.0783,8.59505 -4.4684,4.34278 c -2.4576,2.38853 -4.7886,4.31715 -5.18,4.28583 -0.3914,-0.0313 -3.8617,-2.75584 -7.7117,-6.05447 z m 137.6045,1.71789 -4.3119,-4.39352 7.3061,-8.62495 7.306,-8.62497 5.7977,5.7372 c 3.1887,3.15543 5.7965,5.97625 5.795,6.26846 0,0.7886 -15.8367,14.03131 -16.7756,14.03131 -0.4429,0 -2.7457,-1.97709 -5.1173,-4.39353 z m -48.9304,0.87362 c -2.9293,-0.71431 -5.5498,-1.52247 -5.8232,-1.7959 -0.2734,-0.27344 -0.1778,-5.26424 0.2125,-11.09067 0.6926,-10.33919 0.7676,-10.59349 3.1257,-10.59349 3.5165,0 16.1999,3.0112 16.8046,3.9897 0.813,1.3154 -6.6009,21.02299 -7.8624,20.89969 -0.6222,-0.0608 -3.5279,-0.69502 -6.4572,-1.40933 z m -28.5674,-0.3342 c -1.3386,-2.25952 -5.5908,-20.55376 -4.9241,-21.18496 0.8311,-0.7868 13.5038,-2.9609 17.259,-2.9609 1.9586,0 2.0584,0.5578 2.0584,11.49997 v 11.5 l -3.25,0.0238 c -1.7875,0.0131 -4.9398,0.41628 -7.0053,0.89589 -2.0654,0.47962 -3.9275,0.58139 -4.138,0.22615 z m -40.7113,-19.87336 c -3.3158,-4.6655 -5.8024,-9.0724 -5.5259,-9.793 0.573,-1.4931 10.9854,-7.482 17.4799,-10.0538 3.606,-1.428 4.4925,-1.4906 5.1875,-0.3661 1.2403,2.0068 7.2312,19.0159 6.8179,19.3571 -0.1951,0.161 -4.3094,2.328 -9.1428,4.8156 l -8.788,4.52288 z m 103.8546,7.64737 c -0.9625,-0.56061 -1.75,-1.4764 -1.75,-2.03509 0,-0.83458 9.3824,-17.48058 10.5798,-18.77028 0.5844,-0.6295 5.4202,2.8475 5.4202,3.8972 0,0.8447 -11.7747,18.03716 -12.2989,17.95786 -0.1106,-0.0167 -0.9886,-0.48909 -1.9511,-1.04969 z m -142.7391,-6.44447 c -4.119,-3.5256 -7.6321,-6.8391 -7.8068,-7.3634 -0.1748,-0.5243 0.9453,-2.3577 2.4891,-4.0743 l 2.8068,-3.1212 7.9497,8.0147 7.9497,8.0147 -2.374,2.5271 c -1.3057,1.38981 -2.633,2.50122 -2.9497,2.46975 -0.3166,-0.0315 -3.9458,-2.94175 -8.0648,-6.46735 z m 178.7067,4.0166 c -0.9803,-1.3498 -5.0303,-5.2367 -9,-8.6376 -3.9696,-3.4008 -7.3587,-6.5328 -7.5313,-6.96 -0.2329,-0.5767 7.0914,-11.9293 11.4793,-17.793 0.9791,-1.3084 24.3344,19.4158 24.3344,21.5931 0,0.9589 -14.319,13.12763 -16.2504,13.81016 -0.6873,0.24284 -2.0516,-0.66286 -3.032,-2.01266 z m -204.7176,-9.0949 c -4.125,-3.0363 -8.1538,-5.8992 -8.9529,-6.3622 -1.2022,-0.6963 -0.9577,-1.5563 1.4163,-4.9821 1.5781,-2.2772 3.1684,-4.3252 3.5339,-4.5512 0.3656,-0.2259 4.5566,2.7566 9.3134,6.6277 l 8.6488,7.0384 -3.1471,3.9161 c -1.7309,2.1539 -3.1843,3.8976 -3.2297,3.875 -0.046,-0.023 -3.4577,-2.5255 -7.5827,-5.5617 z m 232.5835,3.9597 c -0.3468,-0.9037 -0.5074,-1.7248 -0.357,-1.8246 0.1505,-0.1 4.1858,-3.203 8.9674,-6.896 8.3905,-6.4803 8.7335,-6.6404 9.831,-4.5897 0.6255,1.1686 0.9882,2.2516 0.8062,2.4065 -1.5387,1.3099 -17.7986,12.547 -18.1551,12.547 -0.2541,0 -0.7457,-0.7394 -1.0925,-1.6432 z m -78.3335,-0.019 c -1.8041,-0.728 -1.6353,-1.6276 2.3309,-12.4249 l 3.5809,-9.7483 3.1691,1.3678 c 3.6912,1.5932 3.7207,1.352 -1.5574,12.7177 -3.8859,8.3676 -4.6894,9.2313 -7.5235,8.0877 z m -56.7578,-9.9671 c -0.8987,-3.2289 -2.2287,-8.0114 -2.9557,-10.628 -0.7269,-2.6165 -1.0262,-4.94 -0.665,-5.1632 1.0253,-0.6336 11.926,-2.4008 19.3785,-3.1415 l 6.75,-0.6709 v 11.4714 11.4715 l -6.75,0.6161 c -3.7125,0.3389 -8.4091,0.9084 -10.437,1.2657 l -3.687,0.6495 z m 33.0204,3.6496 c -0.6582,-1.0649 0.083,-13.7501 1.1267,-19.2702 0.4274,-2.2616 1.044,-2.75 3.4716,-2.75 1.6236,0 3.1547,0.5625 3.4025,1.25 0.2478,0.6875 -0.3534,5.75 -1.3359,11.25 -1.5557,8.7088 -2.0577,10.0396 -3.8876,10.3072 -1.1556,0.1689 -2.4054,-0.1852 -2.7773,-0.787 z m 94.2096,-3.3019 c -0.4964,-1.2936 14.2678,-15.7183 16.0882,-15.7183 0.7808,0 2.1896,2.2019 2.1896,3.4222 0,0.6643 -16.0244,13.5778 -16.8487,13.5778 -0.5155,0 -1.1586,-0.5768 -1.4291,-1.2817 z m -209.5218,-15.4692 c -6.7102,-6.9666 -7.1683,-7.7065 -5.6742,-9.1638 1.4907,-1.454 2.2377,-0.9227 9.0188,6.4147 4.0664,4.4 7.2576,8.45 7.0914,9 -0.7589,2.5121 -3.6819,0.7613 -10.436,-6.2509 z m 44.0496,-1.7089 c -2.8875,-5.1619 -5.25,-9.5768 -5.25,-9.8109 0,-0.6415 7.9678,-4.1043 8.3657,-3.6358 0.1899,0.2236 2.408,4.7965 4.9291,10.1622 l 4.5838,9.7557 -2.8896,1.4943 c -1.5893,0.8218 -3.2495,1.4775 -3.6893,1.4571 -0.4398,-0.02 -3.1622,-4.2607 -6.0497,-9.4226 z m 113.5684,7.9212 -2.6817,-1.4537 4.605,-10.0039 c 2.5327,-5.5021 4.9512,-10.0038 5.3745,-10.0038 0.4232,0 2.3364,0.9245 4.2515,2.0544 l 3.4821,2.0544 -5.2892,9.1504 c -2.909,5.0326 -5.6877,9.2641 -6.1748,9.4031 -0.4872,0.1391 -2.0925,-0.4013 -3.5674,-1.2009 z m -18.5684,-7.4926 c -1.2375,-0.4974 -2.25,-1.3288 -2.25,-1.8475 0,-1.0292 5.068,-20.4619 5.4443,-20.8758 0.3584,-0.3942 6.9501,1.9325 7.905,2.7902 1.1247,1.0102 -6.2431,20.9825 -7.7103,20.9009 -0.6264,-0.035 -2.1515,-0.4704 -3.389,-0.9678 z m 53.2549,0.039 c -0.7389,-1.1956 -0.4788,-1.6294 6.4693,-10.7903 3.0107,-3.9697 6.0623,-7.2176 6.7813,-7.2176 3.3953,0 2.0366,3.3796 -4.4063,10.9597 -6.9395,8.1646 -7.7534,8.8132 -8.8443,7.0482 z m -106.8555,-12.7797 c -0.9072,-4.9582 -1.6494,-9.9141 -1.6494,-11.0132 0,-2.3766 1.5247,-2.8282 12.75,-3.7764 l 8.25,-0.6969 v 11.6291 11.6292 l -3.75,0.01 c -2.0625,0 -6.0453,0.2845 -8.8506,0.6216 l -5.1007,0.6129 z m -64.195,-1.5503 c -6.0871,-8.6457 -6.9459,-10.895 -4.3647,-11.4321 1.0622,-0.221 3.3219,2.3631 6.811,7.7889 6.2952,9.7895 6.6177,10.5524 4.7629,11.2642 -0.9835,0.3773 -3.308,-2.0799 -7.2092,-7.621 z m 156.7956,4.5724 c -1.9451,-0.6489 -1.6012,-1.6483 3.8925,-11.3105 3.5979,-6.3281 5.5747,-8.8786 6.5818,-8.4922 0.7916,0.3038 1.6275,0.5524 1.8575,0.5524 1.221,0 -0.1371,2.745 -5.3318,10.7768 -3.2764,5.0658 -6.2877,8.7111 -7,8.4735 z m -146.2703,-12.2858 c -4.798,-8.3844 -5.0986,-9.2742 -3.6293,-10.7435 0.8811,-0.8811 1.7858,-1.4038 2.0104,-1.1615 0.7225,0.7793 9.6537,18.9053 9.7001,19.6864 0.025,0.4148 -0.6065,0.8904 -1.4025,1.0571 -0.9193,0.1924 -3.3562,-3.0326 -6.6787,-8.8385 z m 135.1142,6.1147 c -1.1485,-0.7272 -0.6091,-2.6016 2.9455,-10.2347 5.2583,-11.2915 5.5536,-11.6802 7.4405,-9.7932 1.2874,1.2874 0.855,2.6496 -3.5574,11.2071 -2.7626,5.3579 -5.1128,9.7347 -5.2227,9.7263 -0.1099,-0.01 -0.8325,-0.4159 -1.6059,-0.9055 z m -108.2198,-8.8483 c -3.5646,-9.1672 -6.8877,-18.549 -6.6506,-18.776 0.1521,-0.1456 1.1498,-0.4201 2.217,-0.6099 1.6396,-0.2915 2.3532,0.9732 4.6018,8.155 1.4636,4.675 2.9663,9.4592 3.3393,10.6315 1.0891,3.4239 -2.1912,3.9844 -3.5075,0.5994 z m 88.7011,1.1352 c -2.1587,-0.7604 -4.0447,-1.5023 -4.1911,-1.6487 -0.1464,-0.1464 0.9954,-4.9802 2.5373,-10.7418 3.0968,-11.5717 3.1539,-11.6167 10.7432,-8.4638 l 3.1645,1.3147 -3.6769,10.0158 c -2.0223,5.5086 -3.8963,10.2161 -4.1645,10.461 -0.2682,0.2449 -2.2538,-0.1768 -4.4125,-0.9372 z m -71.4368,-8.1161 c -0.5651,-2.6125 -1.6804,-7.5324 -2.4786,-10.9331 -1.4718,-6.2711 -1.1474,-7.3169 2.2693,-7.3169 1.0412,0 4.4256,19.6333 3.7071,21.5057 -1.0745,2.8002 -2.4686,1.5026 -3.4978,-3.2557 z m 18.4336,-3.75 c -1.8223,-17.5232 -1.8566,-16.1923 0.4337,-16.7912 2.6557,-0.6945 2.7298,-0.4257 3.3202,12.0412 0.4475,9.4498 0.3422,10.25 -1.3483,10.25 -1.4866,0 -1.9419,-1.041 -2.4056,-5.5 z m 18.9625,-4.75 c 0.7647,-12.5203 0.8248,-12.7304 3.4465,-12.0448 1.8224,0.4766 2.0355,1.1006 1.5954,4.6724 -0.2794,2.2673 -0.7842,7.1599 -1.1217,10.8724 -0.5308,5.8365 -0.8799,6.75 -2.58,6.75 -1.8678,0 -1.9349,-0.5132 -1.3402,-10.25 z"
       id="path1" />
  </g>
</svg>
