<svg
   version="1.1"
   id="svg1"
   width="315.99997"
   height="143.62991"
   viewBox="0 0 315.99997 143.62991"
   xmlns="http://www.w3.org/2000/svg"
   xmlns:svg="http://www.w3.org/2000/svg">
  <defs
     id="defs1" />
  <g
     id="g1"
     transform="translate(-777.03063,-316.54901)">
    <path
       style="fill:#000000"
       d="m 802.53063,458.87862 c -9.2158,-1.82232 -18.33425,-5.59561 -22.09624,-9.14362 -3.14414,-2.96531 -3.40376,-3.67243 -3.40376,-9.27066 0,-4.24723 0.48351,-6.54401 1.61607,-7.67656 0.88884,-0.88884 1.90134,-1.48065 2.25,-1.31512 0.34866,0.16552 4.90893,2.40667 10.13393,4.98032 5.225,2.57365 12.33499,5.22128 15.79998,5.88362 7.67278,1.46668 17.74168,0.66308 23.47629,-1.87364 11.63001,-5.14457 16.13612,-19.93601 9.24546,-30.34849 -3.29681,-4.98182 -8.88188,-8.65903 -24.01526,-15.81167 -21.91284,-10.35688 -30.60911,-18.42047 -33.97357,-31.50191 -1.93373,-7.51856 -1.93011,-11.59472 0.0169,-19.06991 3.92081,-15.05298 15.12105,-24.0397 33.255,-26.68275 12.8925,-1.8791 29.89124,1.72036 37.21077,7.87934 2.68403,2.25846 2.9844,3.09791 2.9844,8.34053 0,3.20612 -0.27314,6.54112 -0.60699,7.4111 -0.87072,2.26907 -3.90126,1.95428 -8.79485,-0.91355 -13.69715,-8.02707 -31.96237,-8.81181 -39.95279,-1.71652 -2.86371,2.5429 -5.59847,9.17925 -5.62341,13.64614 -0.0297,5.32522 3.32594,11.88119 7.95998,15.55141 2.10349,1.666 11.60605,6.9085 21.11681,11.64999 19.5389,9.74094 26.04904,14.89333 30.64645,24.25484 2.47794,5.04572 2.75391,6.66475 2.74598,16.10948 -0.008,9.27506 -0.32045,11.16708 -2.68006,16.21807 -8.7837,18.80244 -32.20314,28.36437 -57.31112,23.39956 z m 90.5,-0.27793 c -1.375,-0.26465 -3.0625,-1.21036 -3.75,-2.10157 -1.6391,-2.12478 -1.82909,-128.27851 -0.20022,-132.95107 1.656,-4.75042 4.18432,-5.28706 24.9093,-5.28706 28.38722,0 39.03435,2.74225 49.17839,12.66626 8.73988,8.55031 12.78956,21.73607 10.85884,35.35639 -1.70419,12.02227 -5.37731,19.40551 -13.26561,26.66479 -9.66861,8.89764 -20.76272,12.26725 -40.4807,12.2952 l -12.25,0.0174 v 25.37756 c 0,19.34745 -0.30296,25.62898 -1.275,26.4357 -1.5069,1.25062 -10.15877,2.21285 -13.725,1.52644 z m 45.07273,-71.53693 c 9.86875,-4.28861 15.05396,-12.3233 15.71472,-24.35056 0.54155,-9.85745 -1.94376,-16.71823 -7.90434,-21.82027 -5.392,-4.61535 -9.51722,-5.67655 -24.63311,-6.33681 l -13.25,-0.57876 v 27.75764 27.75765 l 13.25,-0.43815 c 8.92297,-0.29507 14.41674,-0.94518 16.82273,-1.99074 z m 68.92724,71.50163 c -5.2269,-1.03709 -5,2.18041 -5,-70.90779 v -68.35851 l 2.75,-0.75419 c 4.1048,-1.12575 13.0474,-0.69694 14.7388,0.70674 1.2399,1.02905 1.5259,6.22911 1.7469,31.76143 l 0.2643,30.53091 24.7767,-31.08259 c 13.6272,-17.09542 25.5522,-31.3101 26.5,-31.58817 4.9079,-1.43992 9.3266,-1.6615 13.0641,-0.65511 7.7275,2.0808 6.975,3.42719 -19.8408,35.50144 -13.2,15.78847 -24,29.11767 -24,29.62045 0,0.50278 11.475,16.22598 25.5,34.94044 17.1889,22.93625 25.5,34.82745 25.5,36.48437 0,1.82843 -0.7044,2.65507 -2.75,3.22713 -4.0819,1.14153 -15.1029,0.63603 -16.7976,-0.77046 -0.8114,-0.67342 -12.8326,-16.66706 -26.7138,-35.54142 l -25.2386,-34.31702 -0.2628,34.33718 c -0.1975,25.79694 -0.5705,34.59042 -1.5,35.35539 -1.5243,1.25453 -9.3491,2.18203 -12.7372,1.50978 z"
       id="path1" />
  </g>
</svg>
