<svg
   width="285.73309"
   height="76.577347"
   viewBox="0 0 75.600212 20.261089"
   version="1.1"
   id="svg5786"
   xmlns="http://www.w3.org/2000/svg"
   xmlns:svg="http://www.w3.org/2000/svg"
   xmlns:rdf="http://www.w3.org/1999/02/22-rdf-syntax-ns#"
   xmlns:cc="http://creativecommons.org/ns#"
   xmlns:dc="http://purl.org/dc/elements/1.1/">
  <defs
     id="defs5780" />
  <metadata
     id="metadata5783">
    <rdf:RDF>
      <cc:Work
         rdf:about="">
        <dc:format>image/svg+xml</dc:format>
        <dc:type
           rdf:resource="http://purl.org/dc/dcmitype/StillImage" />
      </cc:Work>
    </rdf:RDF>
  </metadata>
  <g
     id="layer1"
     transform="translate(-85.144964,-205.45516)">
    <path
       d="m 93.7058,210.78205 c -0.07063,-0.0117 -0.152929,0 -0.235197,0 -3.586515,0 -6.514711,3.02221 -6.514711,6.60869 0,3.58662 2.928196,6.51471 6.514711,6.51471 0.658566,0 1.293495,-0.1059 1.893288,-0.294 1.99898,-0.64679 3.598299,-2.2696 4.456713,-4.26858 l 3.951076,-8.56082 z m 67.03938,1.11721 v 0.28219 c -0.0235,0.5292 -0.19981,1.1171 -0.56441,1.71679 l -2.50468,5.44463 c -0.42341,0.89359 0.34089,0.89359 0.67031,0.89359 h 1.83437 v 1.76399 h -2.6459 c -1.09347,0 -2.48109,-1.55229 -1.5875,-3.5161 l 2.52822,-5.4562 c 0.72919,-1.611 -0.83492,-1.68159 -1.55212,-0.1294 l -4.19809,9.1017 h -1.97549 l 4.2097,-9.1252 c 0.63511,-1.38751 -0.81132,-1.69329 -1.411,-0.41158 l -4.39801,9.53678 h -2.0344 l 3.63371,-7.89051 h 0.0117 c 0.92901,-1.91668 0.92901,-2.58699 -0.0588,-2.19897 l -12.17089,6.89099 c 0.75258,0.7995 1.77577,1.34041 2.92819,1.4581 0.16461,0.0235 0.34089,0.0352 0.51739,0.0352 1.50519,0 2.85739,-0.71731 3.72769,-1.81092 h 2.02251 c -1.07008,2.08139 -3.24548,3.5161 -5.7502,3.5161 -0.1765,0 -0.35278,0 -0.51739,-0.0236 -1.78742,-0.141 -3.36321,-1.0113 -4.445,-2.3048 l -4.1276,2.3284 c -1.30521,0.52899 -3.10431,-0.56448 -3.03382,-2.65758 l 0.0941,-0.22352 c -1.15242,1.7404 -3.13969,2.8811 -5.36229,2.8811 -3.05742,0 -5.62081,-2.12848 -6.29113,-4.98598 -0.68199,2.8575 -3.24559,4.98598 -6.30297,4.98598 -2.8339,0 -5.25642,-1.83458 -6.12652,-4.38629 l -2.7753,6.29129 h 57.09119 v 1.81081 h -59.94856 l 0.83488,-1.81081 4.77422,-10.37159 c 0.35281,-1.05841 0.96431,-2.01091 1.7757,-2.75181 h -1.8463 l -3.93922,8.53722 c 0,0 0.0117,0 0.0117,0 -0.49389,0.96429 -0.98781,1.905 -1.4817,2.6458 -0.564408,0.8467 -2.163693,2.81048 -4.997592,3.50428 -0.576298,0.14111 -1.211191,0.22342 -1.893288,0.24691 -4.586111,0 -8.325626,-3.73941 -8.325626,-8.32552 0,-4.58597 3.739515,-8.32548 8.325626,-8.32548 0.08227,0 0.164572,0 0.235198,0.0118 v -0.0118 h 10.853702 c 0.91719,-1.89318 2.76349,-3.25731 4.93889,-3.50421 h 2.42238 v 1.70501 h -2.42238 c -1.1993,0.17649 -2.18712,0.8703 -2.88099,1.7992 h 4.88018 v 0.0235 c 0.16461,-0.0117 0.32921,-0.0235 0.49382,-0.0235 3.05738,0 5.62098,2.14019 6.30297,4.99759 0.67032,-2.8574 3.23371,-4.99759 6.29112,-4.99759 3.55128,0 6.4558,2.90459 6.4558,6.46761 0,0.61147 -0.0823,1.18759 -0.23512,1.7404 l 4.65663,-10.10119 h -12.93502 v -1.71691 h 37.653 v 1.7169 h -22.49548 l -5.60913,12.1708 c -0.37627,0.7172 0.28211,0.87009 1.6698,0 l 2.26963,-1.29353 c -0.3176,-0.77608 -0.5057,-1.62288 -0.5057,-2.51647 0,-3.3867 2.6223,-6.17361 5.95019,-6.44412 0.16461,-0.0117 0.34089,-0.0235 0.51739,-0.0235 2.14019,0 4.03341,1.04658 5.221,2.65761 l 1.65809,-0.94082 c 1.91671,-1.34048 3.42202,-1.5639 4.16282,-0.0587 1.09361,-1.3523 2.7517,-1.2229 3.58658,-0.0941 2.05782,-1.66991 4.04513,-0.59979 4.13921,1.27 z m -15.05179,0.67031 c -0.8702,-1.09372 -2.21072,-1.78752 -3.71591,-1.78752 -0.1765,0 -0.35278,0.0119 -0.51739,0.0236 -2.37539,0.25869 -4.2334,2.28131 -4.2334,4.72722 0,0.58787 0.1059,1.15238 0.294,1.6698 z m -21.10789,7.72569 c 2.61059,0 4.739,-2.14019 4.739,-4.76239 0,-2.61063 -2.12841,-4.75082 -4.739,-4.75082 -2.6222,0 -4.75072,2.14019 -4.75072,4.75082 0,2.6222 2.12852,4.76239 4.75072,4.76239 z m -12.5941,0 c 2.62238,0 4.76257,-2.14019 4.76257,-4.76239 0,-2.61063 -2.14019,-4.75082 -4.76257,-4.75082 -2.6223,0 -4.75071,2.14019 -4.75071,4.75082 0,2.6222 2.12841,4.76239 4.75071,4.76239"
       style="fill:#000000;fill-opacity:1;fill-rule:evenodd;stroke:none;stroke-width:0.352778"
       id="path2092" />
  </g>
</svg>
