<svg id="SPOLEM" width="500" height="134.00154" viewBox="0 0 500 134.00154" version="1.1" xml:space="preserve" xmlns:xlink="http://www.w3.org/1999/xlink" xmlns="http://www.w3.org/2000/svg" xmlns:svg="http://www.w3.org/2000/svg">
	<path id="SPOLEM" style="fill:#000000;stroke:#000000;stroke-width:0" d="m 56.619106,35.230653 c -0.46713,-0.07738 -1.01143,0 -1.55553,0 -23.72027,0 -43.086593,19.988105 -43.086593,43.708143 0,23.720964 19.366323,43.086584 43.086593,43.086584 4.35558,0 8.55483,-0.7004 12.52171,-1.94444 13.22073,-4.2777 23.7982,-15.01054 29.47553,-28.231269 L 123.1922,35.230653 Z m 443.380874,7.388934 v 1.866331 c -0.15542,3.49999 -1.32149,7.388206 -3.73286,11.354399 l -16.56529,36.009354 c -2.80032,5.90997 2.25455,5.90997 4.43325,5.90997 h 12.13204 v 11.666569 h -17.49928 c -7.23193,0 -16.40928,-10.26644 -10.49931,-23.254565 L 484.98951,50.08577 c 4.82267,-10.654732 -5.52194,-11.121596 -10.26531,-0.855818 l -27.76507,60.196258 h -13.06537 l 27.84185,-60.351681 c 4.20045,-9.176627 -5.36586,-11.198976 -9.33198,-2.722082 l -29.08729,63.073763 h -13.45499 l 24.03241,-52.185765 h 0.0774 c 6.14423,-12.676419 6.14423,-17.109673 -0.38889,-14.543411 L 353.0872,88.272235 c 4.97736,5.287683 11.74447,8.86512 19.36628,9.643491 1.08868,0.155422 2.25455,0.232803 3.42188,0.232803 9.95493,0 18.89803,-4.7441 24.65396,-11.97695 h 13.37635 c -7.07723,13.765768 -21.46475,23.254561 -38.03031,23.254561 -1.16733,0 -2.3332,0 -3.42188,-0.15608 -11.82153,-0.93254 -22.24339,-6.68847 -29.39807,-15.243345 l -27.29886,15.399425 c -8.63232,3.4986 -20.53109,-3.73332 -20.06489,-17.576535 l 0.62235,-1.478302 c -7.6218,11.510547 -20.76508,19.054837 -35.46478,19.054837 -20.22097,0 -37.17456,-14.077206 -41.60788,-32.975962 -4.5105,18.898756 -21.46548,32.975962 -41.68619,32.975962 -18.74267,0 -34.76459,-12.133429 -40.5192,-29.009769 l -18.3551,41.608939 h 377.58615 v 11.97623 H 99.782936 l 5.521684,-11.97623 31.57544,-68.594973 c 2.33339,-7.000046 6.37769,-13.299632 11.74401,-18.19975 h -12.21094 l -26.05297,56.462934 c 0,0 0.0774,0 0.0774,0 -3.26646,6.377561 -6.53312,12.599169 -9.79958,17.498629 -3.732844,5.59985 -14.310094,18.58778 -33.052764,23.17639 -3.81148,0.93326 -8.0105,1.47764 -12.52171,1.633 C 24.732176,134.00154 0,109.27006 0,78.938729 0,48.608327 24.732176,23.876188 55.063506,23.876188 c 0.54411,0 1.08844,0 1.55554,0.07804 v -0.07804 h 71.783544 c 6.06603,-12.520996 18.27697,-21.5429936 32.6645,-23.17592545 h 16.02099 V 11.976751 h -16.02099 c -7.93186,1.167259 -14.46504,5.755936 -19.05411,11.899437 h 32.27623 v 0.155423 c 1.08869,-0.07738 2.17731,-0.155423 3.26599,-0.155423 20.22071,0 37.17569,14.154656 41.68619,33.05275 4.43333,-18.898094 21.38691,-33.05275 41.60782,-33.05275 23.48724,0 42.69697,19.210197 42.69697,42.775077 0,4.044102 -0.54431,7.854408 -1.55502,11.510549 L 332.78889,11.355192 H 247.24006 V 0 h 249.02706 v 11.355126 h -148.7792 l -37.09731,80.494479 c -2.48856,4.743373 1.8658,5.754547 11.04361,0 l 15.01074,-8.555068 c -2.10052,-5.132789 -3.34457,-10.733303 -3.34457,-16.643272 0,-22.398746 17.34321,-40.830638 39.353,-42.61972 1.08869,-0.07738 2.25456,-0.155423 3.42188,-0.155423 14.15466,0 26.67592,6.921806 34.53033,17.576736 l 10.96617,-6.222337 c 12.67662,-8.865583 22.63234,-10.343224 27.5318,-0.388226 7.23285,-8.943758 18.19902,-8.08794 23.7207,-0.622353 13.60988,-11.044347 26.75343,-3.966854 27.37565,8.399447 z m -99.54859,4.433255 c -5.75527,-7.233577 -14.62112,-11.822189 -24.57605,-11.822189 -1.16733,0 -2.3332,0.0787 -3.42188,0.156085 -15.71021,1.710907 -27.9986,15.087986 -27.9986,31.264593 0,3.888018 0.70039,7.621539 1.94444,11.043619 z M 260.84934,98.148529 c 17.26576,0 31.34251,-14.154655 31.34251,-31.497198 0,-17.266022 -14.07675,-31.420678 -31.34251,-31.420678 -17.34254,0 -31.42001,14.154656 -31.42001,31.420678 0,17.342543 14.07747,31.497198 31.42001,31.497198 z m -83.29407,0 c 17.34373,0 31.49839,-14.154655 31.49839,-31.497198 0,-17.266022 -14.15466,-31.420678 -31.49839,-31.420678 -17.3432,0 -31.41995,14.154656 -31.41995,31.420678 0,17.342543 14.07675,31.497198 31.41995,31.497198" />
</svg>
