<svg id="STOKROTKA" width="500" height="95.640671" viewBox="0 0 500 95.640671" version="1.1" xml:space="preserve" xmlns:xlink="http://www.w3.org/1999/xlink" xmlns="http://www.w3.org/2000/svg" xmlns:svg="http://www.w3.org/2000/svg">
	<path id="STOKROTKA" style="fill:#000000;stroke:#000000;stroke-width:0" d="m 19.423525,95.440737 c -5.633542,-0.6033 -11.8595258,-2.40204 -16.6484138,-4.80984 -2.86974005,-1.44287 -2.90532005,-1.47763 -2.70305205,-2.64067 0.651595,-3.74672 2.65100105,-8.51094 4.50792605,-10.74153 l 0.718655,-0.86326 2.808321,1.28371 c 9.5667088,4.37306 18.4506478,5.12046 21.5223168,1.81066 1.157243,-1.24695 1.428192,-2.30056 0.995052,-3.86929 -0.694221,-2.51426 -2.466902,-3.6493 -10.004979,-6.40617 -8.70572,-3.18391 -13.2941748,-6.1787 -16.0524948,-10.47716 -3.275942,-5.10512 -3.462838,-13.137477 -0.446982,-19.210899 1.939199,-3.905209 6.6371928,-7.761812 11.4884398,-9.430889 6.419405,-2.208595 15.443707,-2.011345 25.133209,0.549362 3.417606,0.903185 7.949184,2.547613 8.556352,3.10495 0.532439,0.488736 -0.693836,5.859463 -1.970055,8.628272 -0.635623,1.378996 -1.668828,2.996373 -2.296012,3.59415 l -1.140342,1.086875 -3.08115,-1.258219 c -6.481334,-2.64673 -13.907119,-3.994541 -16.781492,-3.04592 -1.839888,0.607224 -3.155346,2.270977 -3.155346,3.990791 0,2.676207 1.932039,4.096777 8.88096,6.529897 11.694333,4.0947 17.172685,8.29438 19.769347,15.15509 0.989162,2.61349 1.307132,7.14573 0.73303,10.44821 -1.271155,7.31218 -7.04788,13.11875 -15.262644,15.34151 -4.631795,1.25327 -10.803236,1.74094 -15.570646,1.23037 z m 108.356615,-0.0783 c -9.46421,-1.33818 -16.45283,-6.44357 -20.63655,-15.07559 -2.13664,-4.40839 -3.16876,-8.4548 -3.58743,-14.06448 -0.9518,-12.75261 2.12463,-23.398608 8.66432,-29.982968 5.2726,-5.308617 11.50081,-7.654085 20.29094,-7.64133 6.93648,0.01019 11.0562,1.096731 15.95788,4.209258 6.13305,3.894449 10.28261,10.460299 12.25223,19.38668 0.8526,3.86408 0.85754,15.77609 0.008,19.57437 -2.76684,12.37208 -9.61858,20.15414 -20.1278,22.86072 -3.15197,0.81177 -9.64182,1.18296 -12.8217,0.73334 z m 7.37763,-14.55365 c 4.72506,-1.31216 6.60119,-6.66718 6.59624,-18.82759 -0.003,-7.55355 -0.46953,-10.89773 -2.02408,-14.511382 -1.43413,-3.333724 -4.36,-4.979432 -8.16069,-4.590131 -6.003,0.614882 -8.02374,4.670491 -8.37735,16.813303 -0.27468,9.43318 0.54881,15.17004 2.62873,18.31303 1.73579,2.62294 5.69987,3.81285 9.33715,2.80277 z m 162.11293,14.5491 c -14.27371,-2.32522 -22.66441,-12.40742 -24.11715,-28.97894 -0.45413,-5.18034 0.0482,-11.71971 1.27056,-16.53816 2.79685,-11.025524 10.23177,-18.506793 20.54893,-20.677078 3.0568,-0.64302 10.3743,-0.738841 13.35355,-0.174855 9.93238,1.880237 17.36503,8.496961 20.65385,18.386556 1.72058,5.173847 2.29043,9.774657 2.05597,16.599467 -0.38449,11.19252 -3.28422,18.58514 -9.63241,24.55706 -4.88264,4.59323 -10.37302,6.70301 -18.15224,6.97529 -2.29274,0.0802 -4.98422,0.013 -5.98106,-0.14934 z m 7.53153,-14.5491 c 2.95711,-0.8212 4.72701,-3.42563 5.94309,-8.74538 0.46048,-2.01442 0.60604,-4.43604 0.60604,-10.08221 0,-7.90469 -0.40218,-10.85067 -1.98297,-14.525326 -1.43112,-3.326747 -4.35949,-4.964933 -8.17621,-4.573955 -6.32146,0.647551 -8.45449,5.485692 -8.45113,19.168721 0.003,12.03556 1.87071,17.39442 6.52334,18.71653 1.71056,0.48607 3.87869,0.50237 5.53784,0.0416 z m 154.50068,14.65554 c -4.36804,-0.6781 -8.02083,-2.4476 -10.68946,-5.17823 -3.80069,-3.889 -5.51717,-8.35977 -5.48168,-14.27764 0.0547,-9.11419 3.61863,-14.91528 11.54185,-18.78678 4.69331,-2.29328 8.6272,-2.954 16.53669,-2.77741 l 6.47006,0.14444 -0.23804,-2.73792 c -0.31748,-3.651498 -1.35571,-5.713093 -3.47818,-6.90654 -1.42244,-0.799819 -2.03726,-0.905756 -5.23655,-0.902301 -3.8926,0.0045 -6.7374,0.51257 -13.95579,2.493964 -5.15476,1.41495 -5.01753,1.446396 -6.63201,-1.519924 -0.98625,-1.812079 -2.21523,-5.983128 -2.59697,-8.813889 l -0.22568,-1.673642 1.91804,-0.762936 c 3.02645,-1.203834 8.02583,-2.544055 13.33643,-3.575187 4.21892,-0.819166 5.8931,-0.95459 12.14335,-0.982241 8.03044,-0.03557 8.9426,0.136239 13.63037,2.566734 3.46059,1.794214 6.13251,4.324337 7.66508,7.258259 2.21672,4.243649 2.18209,3.922111 2.45131,22.766863 0.17207,12.04418 0.38451,17.82571 0.69025,18.78442 0.24292,0.76175 1.02586,2.03161 1.73986,2.82192 1.23742,1.36968 1.27918,1.50034 0.89228,2.7917 -0.45054,1.50375 -2.59643,5.19008 -4.15722,7.14149 -1.18167,1.47741 -2.36553,1.62079 -5.86231,0.70999 -2.91198,-0.75847 -5.21628,-2.07929 -7.27627,-4.17073 l -1.73235,-1.75879 -1.52603,1.33953 c -4.11897,3.61557 -9.75328,5.82798 -15.38797,6.04235 -1.89837,0.0723 -3.94096,0.0554 -4.53906,-0.0375 z M 472.18,80.351977 c 1.10135,-0.45313 2.77773,-1.35729 3.72531,-2.00923 l 1.72286,-1.18536 -0.10036,-5.14131 -0.10048,-5.14129 h -5.25608 c -4.94024,0 -5.35383,0.0547 -6.88271,0.91078 -4.4137,2.47129 -4.92028,10.22652 -0.82314,12.60125 1.86963,1.08364 5.03082,1.06937 7.71461,-0.0349 z m -300.46972,13.88588 c -1.67167,-0.1747 -3.26209,-0.4031 -3.53426,-0.50755 -0.41455,-0.15907 -0.49484,-7.68191 -0.49484,-46.362328 0,-45.7012534 0.008,-46.1791254 0.72446,-46.82805944 0.65288,-0.590844 1.2171,-0.633232 5.70919,-0.428959 7.5494,0.343299 9.30599,1.09628904 11.14702,4.77835304 l 1.08747,2.174929 0.10365,22.7936204 0.10365,22.793624 1.70881,-0.23082 c 0.93985,-0.12695 2.09642,-0.51786 2.57016,-0.86869 0.47372,-0.35083 2.85552,-4.283195 5.29288,-8.738583 2.43736,-4.455399 5.04512,-8.75222 5.79501,-9.548505 2.79259,-2.965346 5.0104,-3.462985 14.57861,-3.271184 4.06068,0.08145 4.43462,0.147034 4.64678,0.815497 0.16508,0.520136 -1.34918,3.69065 -5.32227,11.143566 -4.87636,9.147319 -5.85121,10.731329 -8.00025,12.999539 l -2.44724,2.58295 2.40739,1.40737 c 2.72406,1.59251 5.03738,4.04266 6.61243,7.00356 0.58983,1.10883 2.06917,4.92581 3.28739,8.48216 2.83452,8.27482 4.0567,10.94413 5.84855,12.77373 l 1.44743,1.47791 -1.83607,1.71744 c -2.77912,2.59952 -5.99279,3.95897 -9.78521,4.13932 -5.16959,0.24584 -7.53026,-0.88301 -9.52997,-4.55715 -0.53151,-0.97654 -2.01121,-4.86779 -3.28824,-8.64722 -2.56874,-7.60234 -3.65269,-9.99335 -5.18805,-11.444 -1.47069,-1.38954 -2.68193,-1.74488 -5.94783,-1.74488 h -2.87631 v 12.81906 12.81906 l -1.59068,0.21802 c -3.08899,0.4234 -10.22794,0.55195 -13.22961,0.23822 z m 66.2936,0.15389 c -0.69779,-0.0805 -2.2882,-0.24162 -3.53426,-0.35789 l -2.26555,-0.21141 -0.003,-20.72359 c -10e-4,-11.45825 -0.16521,-22.13963 -0.36586,-23.89081 -0.44684,-3.899885 -1.50835,-6.832051 -3.11859,-8.614394 -0.6737,-0.745707 -1.22491,-1.585354 -1.22491,-1.865863 0,-0.966824 2.43593,-5.568974 3.97144,-7.503132 1.53574,-1.934463 1.54266,-1.938201 3.14754,-1.697532 2.20016,0.329932 5.20425,1.398785 7.17123,2.551509 2.00663,1.175969 4.80924,4.185572 6.016,6.460333 0.87074,1.641357 1.44308,2.143109 1.44308,1.265095 0,-0.235312 0.66899,-1.454643 1.48664,-2.709634 4.30164,-6.602405 10.9628,-8.86475 20.53452,-6.974193 2.23743,0.44193 2.24172,0.45993 1.34237,5.62371 -0.74565,4.281189 -1.45081,6.665863 -2.92016,9.875175 -1.08302,2.365518 -1.31494,2.645495 -2.04224,2.465486 -7.32005,-1.811818 -11.8828,-0.458265 -15.56343,4.6169 l -1.02526,1.41373 v 19.83319 19.83319 l -1.59068,0.21802 c -2.22441,0.30489 -9.93055,0.56859 -11.45889,0.39211 z m 153.15125,0.002 c -0.59811,-0.0835 -2.10696,-0.2462 -3.35302,-0.36164 l -2.26555,-0.20992 V 47.284365 0.74625156 l 0.80013,-0.428212 c 1.12865,-0.604042 10.06968,-0.166937 12.32361,0.602466 1.03774,0.35424204 2.20047,1.13017104 2.97007,1.98202904 2.38935,2.644725 2.39309,2.687306 2.39309,27.2241314 0,15.265431 0.11915,22.098231 0.38823,22.264531 0.74941,0.46316 3.52674,-0.22357 4.38273,-1.08368 0.46618,-0.46845 2.71849,-4.311602 5.00511,-8.540355 2.28662,-4.228742 4.78001,-8.395838 5.54083,-9.260191 0.76084,-0.864353 2.31548,-2.029289 3.45475,-2.588744 l 2.07142,-1.017198 6.7043,0.101836 c 5.10901,0.0776 6.82331,0.220846 7.20445,0.60198 0.4252,0.425199 -0.36212,2.119094 -5.25434,11.30442 -5.14553,9.660912 -6.0087,11.064762 -8.15659,13.265752 l -2.40209,2.4615 2.14545,1.14352 c 2.59743,1.38441 5.74685,4.68495 7.1504,7.49348 0.5638,1.1282 1.559,3.68246 2.21156,5.67614 1.54358,4.71593 3.83204,10.77483 4.74731,12.5689 0.39832,0.78076 1.30757,2.06527 2.02055,2.85445 1.52398,1.68687 1.48747,1.77152 -1.81547,4.21007 -2.66625,1.96849 -5.96599,3.02209 -9.46478,3.02209 -6.49267,0 -8.04077,-1.85322 -12.35202,-14.78655 -3.41487,-10.24424 -4.71118,-11.67508 -10.57745,-11.67508 h -3.00435 v 12.81905 12.81907 l -1.59067,0.21802 c -2.23355,0.30615 -9.97087,0.57671 -11.27766,0.39438 z m -314.458479,-0.6424 c -5.076176,-1.49122 -7.973385,-4.40446 -9.545077,-9.59789 -0.684129,-2.26063 -0.74087,-3.64165 -0.877448,-21.35692 L 66.128099,43.856824 h -4.84897 -4.84897 l -0.288292,-1.359331 c -0.374065,-1.763788 -0.371097,-9.296485 0.0045,-11.074705 l 0.290988,-1.378146 4.816244,0.2498 4.816256,0.249811 0.21926,-5.940173 c 0.30944,-8.383015 1.154434,-10.689902 4.519763,-12.339041 1.530629,-0.750068 2.346579,-0.857104 7.435993,-0.975479 4.15447,-0.09663 5.86325,-0.01133 6.25292,0.312068 0.44764,0.371506 0.53621,1.971868 0.53621,9.688267 v 9.243245 l 7.49502,-0.134811 7.495029,-0.134812 0.29147,1.087465 c 0.61184,2.282791 0.7458,6.322688 0.31118,9.384467 l -0.44698,3.148913 -7.573209,-0.104442 -7.5732,-0.104442 3.5e-4,16.075949 c 4e-4,18.258 -0.0257,18.07055 2.69151,19.30468 1.17214,0.53236 2.38063,0.67267 5.84805,0.67898 l 4.3706,0.008 0.6001,2.4468 c 0.81884,3.33873 1.01137,5.6405 0.70492,8.42785 l -0.25905,2.35617 -2.8999,0.45048 c -4.4769,0.69546 -17.39751,0.91345 -19.39312,0.32721 z m 277.674719,-0.0901 c -5.32723,-1.43156 -8.64692,-5.3221 -9.82022,-11.50891 -0.18603,-0.98092 -0.33823,-9.99417 -0.33823,-20.02944 V 43.877293 l -4.95861,-0.100817 -4.95861,-0.100817 -0.30073,-1.087465 c -0.37834,-1.368075 -0.37623,-9.359999 0.003,-11.055889 l 0.28363,-1.268709 4.92904,0.133339 4.92903,0.133339 0.1607,-6.295638 c 0.18318,-7.176654 0.63869,-9.028572 2.65655,-10.800279 1.91143,-1.678263 4.27267,-2.201379 9.93647,-2.201379 3.35621,0 5.07579,0.139252 5.37153,0.434986 0.31551,0.315512 0.43499,2.967068 0.43499,9.654408 v 9.219411 l 7.6206,-0.168897 7.62061,-0.168896 0.2635,0.936023 c 0.35232,1.251457 0.33776,10.457354 -0.0186,11.733131 l -0.28205,1.009915 -7.51145,-0.04112 -7.51143,-0.04112 v 16.068208 c 0,17.53855 -0.0202,17.35753 2.11029,18.9355 0.89324,0.6616 1.63956,0.77357 5.89064,0.88377 l 4.86782,0.1262 0.6263,2.04873 c 0.4441,1.45276 0.62857,3.33155 0.63414,6.45853 0.005,2.42538 -0.0806,4.49838 -0.18853,4.60665 -0.10796,0.10829 -2.59094,0.44831 -5.51764,0.75566 -6.70892,0.70454 -14.265,0.69459 -16.93272,-0.0223 z" />
</svg>
