<svg
   version="1.1"
   id="svg1"
   width="441.39371"
   height="239.92642"
   viewBox="0 0 441.3937 239.92642"
   xmlns="http://www.w3.org/2000/svg"
   xmlns:svg="http://www.w3.org/2000/svg">
  <defs
     id="defs1" />
  <g
     id="g1"
     transform="translate(-23.792469,-51.417633)">
    <path
       style="fill:#000000"
       d="m 40.939312,291.16756 c -4.97322,-0.53259 -10.46944,-2.12049 -14.69701,-4.24607 -2.53337,-1.27375 -2.56478,-1.30443 -2.38622,-2.33115 0.57522,-3.30756 2.34027,-7.51335 3.97954,-9.48249 l 0.63442,-0.76207 2.47915,1.13324 c 8.44537,3.86048 16.288,4.52028 18.99963,1.59843 1.0216,-1.10079 1.26079,-2.03091 0.87842,-3.41576 -0.61285,-2.21956 -2.17775,-3.22156 -8.83227,-5.65529 -7.6853,-2.81071 -11.73593,-5.45448 -14.17094,-9.2491 -2.89196,-4.50674 -3.05695,-11.5976 -0.39459,-16.95914 1.7119,-3.44747 5.85923,-6.85203 10.14185,-8.32547 5.66697,-1.94972 13.63351,-1.77559 22.18728,0.48497 3.01702,0.79732 7.01744,2.249 7.55344,2.74101 0.47003,0.43145 -0.61251,5.17266 -1.73914,7.61693 -0.56112,1.21736 -1.47322,2.64516 -2.02689,3.17287 l -1.00668,0.95948 -2.72,-1.11074 c -5.72164,-2.3365 -12.27703,-3.52633 -14.81449,-2.6889 -1.62423,0.53605 -2.7855,2.00479 -2.7855,3.52302 0,2.36252 1.70558,3.61658 7.84,5.76451 10.32361,3.61475 15.15983,7.32217 17.45213,13.37872 0.87322,2.30716 1.15392,6.30816 0.64711,9.22355 -1.12216,6.4551 -6.22178,11.58107 -13.47367,13.54329 -4.08889,1.10637 -9.53696,1.53688 -13.74557,1.08616 z m 95.655858,-0.0691 c -8.35489,-1.18133 -14.52435,-5.6883 -18.21769,-13.30854 -1.8862,-3.89167 -2.79734,-7.46379 -3.16694,-12.41595 -0.84023,-11.25784 1.8756,-20.65599 7.64876,-26.46858 4.65458,-4.68638 10.15277,-6.75693 17.91258,-6.74567 6.12344,0.009 9.76028,0.96818 14.08742,3.71588 5.41418,3.43797 9.07736,9.23422 10.81611,17.11432 0.75267,3.41116 0.75703,13.92693 0.007,17.28 -2.44253,10.92192 -8.49116,17.79182 -17.76857,20.18116 -2.78252,0.71662 -8.51167,1.0443 -11.31883,0.64738 z m 6.51288,-12.84778 c 4.17122,-1.15836 5.82744,-5.8857 5.82307,-16.62076 -0.003,-6.66817 -0.41449,-9.62037 -1.78683,-12.81046 -1.26603,-2.94297 -3.84895,-4.39578 -7.20415,-4.05211 -5.29938,0.54281 -7.08326,4.12305 -7.39542,14.84257 -0.24249,8.32749 0.48448,13.39192 2.32061,16.16651 1.53233,2.3155 5.03177,3.36594 8.24272,2.47425 z m 143.11125,12.84376 c -12.60065,-2.05267 -20.00786,-10.95311 -21.29032,-25.58224 -0.4009,-4.57314 0.0426,-10.34601 1.12164,-14.59968 2.46902,-9.73319 9.03247,-16.33756 18.14033,-18.25346 2.69851,-0.56765 9.1583,-0.65224 11.78835,-0.15436 8.76818,1.65985 15.32963,7.50101 18.23296,16.23142 1.5189,4.56741 2.02196,8.62894 1.81498,14.6538 -0.33942,9.88061 -2.89927,16.40673 -8.50337,21.67866 -4.31033,4.05485 -9.15717,5.91733 -16.02457,6.1577 -2.024,0.0708 -4.4,0.0115 -5.28,-0.13184 z m 6.64874,-12.84376 c 2.6105,-0.72494 4.17294,-3.0241 5.24648,-7.72031 0.40651,-1.7783 0.53501,-3.91608 0.53501,-8.90045 0,-6.97816 -0.35504,-9.57883 -1.75054,-12.82277 -1.26338,-2.93681 -3.84851,-4.38298 -7.21786,-4.03783 -5.5805,0.57165 -7.46352,4.8427 -7.46055,16.9219 0.003,10.62484 1.65144,15.35558 5.75872,16.52272 1.51006,0.4291 3.42406,0.44349 4.88874,0.0367 z m 136.39125,12.93773 c -3.85605,-0.59862 -7.08069,-2.16071 -9.43652,-4.57128 -3.3552,-3.43316 -4.87049,-7.3799 -4.83916,-12.60412 0.0483,-8.04589 3.19448,-13.16702 10.189,-16.58473 4.1432,-2.02448 7.61599,-2.60775 14.59838,-2.45186 l 5.71169,0.12751 -0.21014,-2.417 c -0.28026,-3.2235 -1.1968,-5.04345 -3.07049,-6.09701 -1.25571,-0.70607 -1.79847,-0.79959 -4.62276,-0.79654 -3.43634,0.004 -5.94769,0.45249 -12.32,2.20164 -4.55055,1.2491 -4.42941,1.27686 -5.85465,-1.34177 -0.87065,-1.59968 -1.95558,-5.28183 -2.29257,-7.78079 l -0.19923,-1.47747 1.69322,-0.67351 c 2.67171,-1.06273 7.0851,-2.24586 11.77323,-3.15613 3.72441,-0.72315 5.20236,-0.8427 10.72,-0.86711 7.08917,-0.0314 7.89441,0.12027 12.03272,2.26588 3.05496,1.58391 5.4137,3.81747 6.76663,6.4075 1.9569,3.74624 1.92633,3.46239 2.16399,20.0983 0.1519,10.63245 0.33944,15.73631 0.60934,16.58265 0.21445,0.67246 0.90562,1.79348 1.53593,2.49115 1.09238,1.20914 1.12924,1.32448 0.78769,2.46448 -0.39773,1.32749 -2.29209,4.58174 -3.66994,6.30442 -1.04316,1.30424 -2.08826,1.43081 -5.17517,0.62677 -2.57066,-0.66957 -4.60487,-1.83557 -6.4234,-3.68187 l -1.5293,-1.55264 -1.34716,1.18252 c -3.63617,3.19178 -8.61007,5.14487 -13.5843,5.33411 -1.67586,0.0638 -3.47903,0.0489 -4.00703,-0.0331 z m 11.36773,-13.34099 c 0.97226,-0.40002 2.45215,-1.1982 3.28866,-1.77373 l 1.52092,-1.04642 -0.0886,-4.53868 -0.0887,-4.53867 h -4.64 c -4.36118,0 -4.72629,0.0483 -6.07597,0.80403 -3.89636,2.18162 -4.34356,9.02784 -0.72666,11.12422 1.65049,0.95663 4.44115,0.94403 6.81036,-0.0308 z M 175.37614,290.1057 c -1.47573,-0.15423 -2.87973,-0.35586 -3.12,-0.44806 -0.36596,-0.14043 -0.43684,-6.7815 -0.43684,-40.92808 0,-40.34449 0.007,-40.76635 0.63955,-41.33922 0.57635,-0.52159 1.07444,-0.55901 5.04,-0.37868 6.66451,0.30306 8.21521,0.96779 9.84045,4.21827 l 0.96,1.92 0.0915,20.12192 0.0915,20.12192 1.50852,-0.20376 c 0.82969,-0.11207 1.85069,-0.45716 2.2689,-0.76687 0.4182,-0.30971 2.52082,-3.78115 4.67249,-7.71431 2.15167,-3.93317 4.45377,-7.72635 5.11576,-8.4293 2.46527,-2.61777 4.42312,-3.05708 12.86982,-2.88776 3.58471,0.0719 3.91482,0.1298 4.10212,0.71991 0.14573,0.45917 -1.19104,3.25806 -4.69844,9.8374 -4.30479,8.07514 -5.16537,9.47348 -7.06252,11.47583 l -2.16039,2.28019 2.12521,1.24241 c 2.40477,1.40585 4.44694,3.56881 5.83737,6.18266 0.5207,0.97886 1.82664,4.34844 2.90207,7.48794 2.50228,7.30491 3.5812,9.66134 5.16303,11.27649 l 1.27777,1.30468 -1.62086,1.51613 c -2.45337,2.29483 -5.29036,3.49493 -8.63826,3.65414 -4.56365,0.21703 -6.64762,-0.77951 -8.41294,-4.02299 -0.46921,-0.86208 -1.77547,-4.29723 -2.90281,-7.63366 -2.26766,-6.71125 -3.22455,-8.822 -4.57995,-10.10262 -1.29831,-1.22667 -2.36757,-1.54036 -5.25067,-1.54036 h -2.53917 v 11.31651 11.3165 l -1.40423,0.19247 c -2.72692,0.37377 -9.0291,0.48725 -11.67893,0.2103 z m 58.52316,0.13585 c -0.616,-0.0711 -2.02,-0.2133 -3.12,-0.31594 l -2,-0.18663 -0.003,-18.29453 c -0.001,-10.1152 -0.14585,-19.54458 -0.32298,-21.0905 -0.39447,-3.44277 -1.33155,-6.03125 -2.75305,-7.60468 -0.59474,-0.6583 -1.08134,-1.39953 -1.08134,-1.64716 0,-0.8535 2.15041,-4.91622 3.50594,-6.62367 1.35573,-1.70772 1.36184,-1.71102 2.77861,-1.49856 1.94227,0.29126 4.59424,1.23483 6.33067,2.25244 1.77143,1.03813 4.24554,3.69497 5.31085,5.7031 0.76868,1.44897 1.27393,1.89191 1.27393,1.11681 0,-0.20773 0.59058,-1.28414 1.31239,-2.39203 3.79743,-5.82852 9.67782,-7.82569 18.12761,-6.15673 1.97518,0.39013 1.97897,0.40602 1.18503,4.96454 -0.65825,3.77938 -1.28076,5.88454 -2.57788,8.71768 -0.95608,2.08825 -1.16081,2.33541 -1.80286,2.1765 -6.46205,-1.59945 -10.48999,-0.40455 -13.7392,4.07574 l -0.90509,1.24802 v 17.50849 17.50849 l -1.40423,0.19247 c -1.96368,0.26915 -8.76657,0.50194 -10.11577,0.34615 z m 135.19999,0.002 c -0.528,-0.0737 -1.86,-0.21734 -2.96,-0.31925 l -2,-0.18531 v -41.08327 -41.08326 l 0.70634,-0.37802 c 0.99636,-0.53324 8.88939,-0.14737 10.87913,0.53185 0.9161,0.31272 1.94255,0.9977 2.62194,1.74971 2.10929,2.33473 2.11259,2.37232 2.11259,24.03312 0,13.47613 0.10518,19.50804 0.34272,19.65485 0.66157,0.40887 3.11337,-0.19737 3.86902,-0.95666 0.41154,-0.41354 2.39985,-3.80623 4.41845,-7.53932 2.0186,-3.73308 4.21973,-7.41174 4.89138,-8.17478 0.67166,-0.76304 2.04407,-1.79143 3.04981,-2.28531 l 1.82862,-0.89797 5.91847,0.0899 c 4.51017,0.0685 6.02353,0.19496 6.36,0.53142 0.37536,0.37536 -0.31968,1.87071 -4.63847,9.9794 -4.54241,8.52853 -5.3044,9.76783 -7.20053,11.71084 l -2.12054,2.17298 1.89398,1.00948 c 2.29298,1.22214 5.07325,4.13582 6.31228,6.61515 0.49772,0.99596 1.37627,3.25083 1.95234,5.01083 1.36265,4.16316 3.38288,9.51188 4.19087,11.09566 0.35163,0.68925 1.1543,1.8232 1.78371,2.51988 1.34535,1.48914 1.31312,1.56387 -1.60267,3.71659 -2.35373,1.73776 -5.2667,2.66787 -8.35539,2.66787 -5.73165,0 -7.09829,-1.636 -10.90421,-13.05338 -3.0146,-9.04349 -4.15897,-10.30662 -9.33764,-10.30662 h -2.6522 v 11.3165 11.31651 l -1.40422,0.19247 c -1.97175,0.27026 -8.80216,0.50911 -9.95578,0.34815 z m -277.599988,-0.5671 c -4.48118,-1.31643 -7.0388,-3.8882 -8.42627,-8.4729 -0.60394,-1.99565 -0.65403,-3.2148 -0.7746,-18.85362 l -0.12891,-16.72 h -4.28061 -4.28061 l -0.2545,-1.2 c -0.33022,-1.55705 -0.3276,-8.20682 0.004,-9.77661 l 0.25688,-1.21661 4.25172,0.22052 4.25173,0.22053 0.19356,-5.24391 c 0.27317,-7.40042 1.01912,-9.43691 3.98999,-10.89275 1.35122,-0.66215 2.07153,-0.75664 6.5644,-0.86114 3.66751,-0.0853 5.176,-0.01 5.52,0.27549 0.39517,0.32796 0.47336,1.74074 0.47336,8.55268 v 8.15982 l 6.616508,-0.11901 6.61652,-0.11901 0.2573,0.96 c 0.54013,2.01522 0.65839,5.58159 0.27471,8.28449 l -0.39459,2.77982 -6.68553,-0.0922 -6.685528,-0.0922 3.1e-4,14.19164 c 3.5e-4,16.11794 -0.0227,15.95246 2.376028,17.04193 1.03475,0.46996 2.10159,0.59383 5.16259,0.5994 l 3.85831,0.007 0.52976,2.16 c 0.72286,2.94739 0.89282,4.97936 0.62229,7.44 l -0.22868,2.08 -2.56,0.39768 c -3.95215,0.61394 -15.358298,0.80638 -17.119998,0.28885 z m 245.127748,-0.0795 c -4.70281,-1.26376 -7.63339,-4.69828 -8.66917,-10.15992 -0.16422,-0.86594 -0.29858,-8.82272 -0.29858,-17.68173 V 245.648 l -4.3774,-0.089 -4.3774,-0.089 -0.26548,-0.96 c -0.33399,-1.20772 -0.33213,-8.26289 0.003,-9.76 l 0.25039,-1.12 4.35129,0.11771 4.35129,0.11771 0.14186,-5.55771 c 0.16171,-6.33546 0.56383,-7.97031 2.34517,-9.53435 1.68739,-1.48155 3.77186,-1.94335 8.77179,-1.94335 2.96282,0 4.48084,0.12293 4.74192,0.384 0.27853,0.27853 0.384,2.61929 0.384,8.52279 v 8.13878 l 6.72737,-0.1491 6.72738,-0.1491 0.23262,0.82631 c 0.31102,1.10477 0.29817,9.23162 -0.0164,10.35786 l -0.24899,0.89154 -6.63101,-0.0363 -6.631,-0.0363 v 14.18481 c 0,15.48281 -0.0178,15.32301 1.86294,16.71602 0.78854,0.58405 1.44738,0.6829 5.20018,0.78018 l 4.29725,0.11141 0.55289,1.80859 c 0.39205,1.28248 0.5549,2.94105 0.55981,5.70151 0.004,2.1411 -0.0711,3.97111 -0.16643,4.06669 -0.0953,0.0956 -2.28725,0.39577 -4.8709,0.66709 -5.92255,0.62196 -12.59296,0.61318 -14.94799,-0.0197 z M 240.1393,202.44246 c -2.71847,-0.43095 -4.38582,-0.9837 -6.90266,-2.28834 -4.72796,-2.45081 -8.42815,-6.80831 -10.10112,-11.89553 -1.11228,-3.38222 -1.25954,-8.84401 -0.32108,-11.90864 1.89914,-6.20187 5.63962,-10.61985 11.24486,-13.2816 3.12458,-1.48377 5.54725,-2.01181 9.12874,-1.9897 9.0211,0.0557 16.6497,5.78048 19.71024,14.7913 0.84409,2.48517 0.85254,9.33331 0.0146,11.82095 -1.26285,3.74901 -2.55529,5.88006 -5.17356,8.53045 -2.8024,2.83677 -5.4339,4.48219 -8.8,5.50243 -2.44806,0.742 -6.54323,1.07644 -8.8,0.71868 z m -93.12,-4.69648 c -0.528,-0.0594 -2.472,-0.26779 -4.32,-0.463 -4.614,-0.48737 -10.47246,-1.69612 -14.6836,-3.02959 -10.17495,-3.22194 -15.44211,-7.48223 -15.44211,-12.4902 0,-6.90754 11.30997,-12.87109 29.19342,-15.39319 6.15938,-0.86866 20.49559,-0.79454 27.36863,0.1415 12.95138,1.76384 24.64977,4.72649 30.28361,7.66939 4.29818,2.24522 6.32005,4.74316 6.32005,7.8082 0,4.99582 -5.69127,8.63737 -18.4,11.77322 -6.617,1.63273 -15.93556,3.193 -23.04,3.85775 -3.20805,0.30017 -14.9709,0.38588 -17.28,0.12592 z m 172.48,-0.29627 c -12.59804,-1.41559 -26.62974,-4.76986 -32.73367,-7.82497 -7.29301,-3.65027 -8.84866,-8.77044 -3.99153,-13.13742 2.93572,-2.63946 7.91586,-4.73421 15.80034,-6.64593 11.14149,-2.70144 22.72193,-4.21158 32.28486,-4.21008 20.48677,0.003 38.15868,5.61781 41.79441,13.27864 1.51709,3.19666 0.63154,6.13969 -2.77499,9.22242 -4.55181,4.11915 -13.75273,7.40957 -25.25942,9.03325 -5.2364,0.73889 -19.62436,0.90161 -25.12,0.28409 z M 209.50161,157.29917 c -6.44374,-1.08481 -18.78186,-8.27596 -31.20953,-18.19016 -16.46036,-13.13128 -29.43909,-32.00175 -29.62891,-43.079065 -0.0545,-3.18067 0.63046,-5.12289 2.35669,-6.68244 1.64205,-1.48349 3.33547,-1.90635 6.87944,-1.71787 11.03849,0.58708 29.47952,13.418625 42.19561,29.360315 3.904,4.89431 10.05053,13.8701 12.94158,18.89863 6.11187,10.63064 7.04719,17.49443 2.78218,20.41686 -1.77866,1.21876 -3.43381,1.47913 -6.31706,0.99373 z m 61.34445,-0.56903 c -5.27395,-2.48404 -4.77151,-9.31006 1.4897,-20.23877 5.74194,-10.02236 14.25603,-21.28487 21.59335,-28.56386 12.51816,-12.418655 26.25578,-20.377565 35.17307,-20.377565 5.4265,0 8.15438,2.7302 8.15309,8.16 -0.002,6.811755 -5.07601,17.062285 -13.70262,27.680005 -3.70344,4.55822 -10.90995,11.6844 -15.57335,15.39973 -9.74047,7.76025 -21.10276,14.84404 -27.72739,17.28658 -3.50816,1.29348 -7.46402,1.56849 -9.40585,0.65388 z m -30.0171,-12.36696 c -4.36727,-1.55714 -7.85174,-8.60747 -10.59542,-21.43827 -4.05473,-18.962 -4.546,-34.382425 -1.56492,-49.121515 2.09564,-10.36132 6.14765,-18.59782 10.46137,-21.26479 1.91226,-1.18226 4.54887,-1.46314 6.39091,-0.68083 7.69081,3.26627 13.67262,21.76841 13.6551,42.23614 -0.0106,12.346885 -3.49473,32.090555 -7.30527,41.396765 -2.44906,5.98118 -5.80036,9.38802 -9.17143,9.32344 -0.352,-0.007 -1.19365,-0.20967 -1.87034,-0.45094 z"
       id="path1" />
  </g>
</svg>
