<svg
   version="1.1"
   id="Layer_1"
   x="0px"
   y="0px"
   viewBox="0 0 844.31024 215"
   xml:space="preserve"
   width="844.31024"
   height="215"
   xmlns="http://www.w3.org/2000/svg"
   xmlns:svg="http://www.w3.org/2000/svg"><defs
   id="defs8" />
<style
   type="text/css"
   id="style1">
	.st0{fill:#C0B07D;}
	.st1{fill-rule:evenodd;clip-rule:evenodd;fill:#C0B07D;}
	.st2{fill:#FFFFFF;}
	.st3{display:none;fill:#C0B07D;}
	.st4{fill:none;}
	.st5{clip-path:url(#SVGID_00000074417069996226088940000010490310331725612717_);fill:#C0B07D;}
	.st6{clip-path:url(#SVGID_00000009592578971145371860000010423924550612917149_);fill:#C0B07D;}
	.st7{clip-path:url(#SVGID_00000173853246117966188170000001980371076977031350_);fill:#C0B07D;}
	.st8{clip-path:url(#SVGID_00000183243048903100956030000012582704231777188015_);fill:#C0B07D;}
	.st9{clip-path:url(#SVGID_00000022550617421272465160000017337598020852495035_);fill:#C0B07D;}
	.st10{clip-path:url(#SVGID_00000010997439785300363810000010932275508338749365_);fill:#C0B07D;}
</style>
<g
   id="g8"
   style="fill:#000000"
   transform="translate(-117.9,-432.5)">
	<path
   class="st0"
   d="m 962.2,479.3 c 0.6,-25.8 -25.3,-46.8 -56.6,-46.8 h -86.3 c -31.2,0 -57.2,21 -56.6,46.8 0.6,24.1 10,33.9 10.6,56.3 0.7,25.7 -10.6,39.5 -10.6,65.1 0,30.1 25.3,46.8 56.6,46.8 h 86.3 c 31.3,0 56.6,-16.8 56.6,-46.8 0,-25.6 -11.2,-39.4 -10.6,-65.1 0.6,-22.3 10,-32.2 10.6,-56.3 z m -106,-11.4 9,-5 c 10.8,-6.1 22.5,-6.1 26.1,0 3.6,6.1 -2.2,15.9 -12.9,21.9 l -9,5 c -10.8,6.1 -22.4,6.1 -26.1,0 -3.6,-6 2.1,-15.9 12.9,-21.9 z m 24.8,56.8 c 0,0 -24.4,-0.3 -32.6,-0.1 -1.6,0 -3.1,0.2 -2,1.3 2.2,2.1 3.1,2.7 5.2,4.3 l 50.6,37.5 c 3.1,2.9 13.1,10.1 16.2,15.5 7.5,12.6 -1.9,17.5 -15.8,20.9 0,0 -24.9,4.3 -44,4.1 -25.4,-0.2 -67.8,-3.6 -58.4,-26.9 6.4,-15.9 37.1,-19 39.8,-18.6 3,0.5 2.3,2.6 -2.3,4.6 -28.7,16.2 3.2,16.8 3.2,16.8 l 34.9,0.2 c 3.9,-0.5 -0.6,-3.4 -1.1,-3.9 l -47,-38.8 c -5.2,-4.9 -17.8,-17.4 -20,-22.6 -4.4,-14.8 19.3,-18.6 50.9,-19.1 25.8,-0.4 60.3,0.1 65.7,13.5 6.4,15.8 -19,29.8 -38.8,32.3 -2.5,0.3 -3.1,0.5 -4.6,-0.5 -2.9,-2.1 5,-4.7 7,-6 25.3,-14.3 -6.9,-14.5 -6.9,-14.5 z"
   id="path1"
   style="fill:#000000" />
	<path
   class="st0"
   d="m 145.8,510.7 c 10.7,0 21.2,2.7 25.9,13.8 l -14.2,3.9 c -2.2,-5.3 -5.7,-6.6 -11.1,-6.6 -4.3,0 -8.7,1 -8.7,4.6 0,3.8 6.5,4.6 9.2,5 5.4,1 12.7,2.1 17.5,4.7 5.5,3 9,7.8 9,13.5 0,5.6 -3.2,10.9 -8.5,14.3 -5.5,3.5 -12.8,4.6 -19.5,4.6 -11.1,0 -23.9,-3.5 -27.5,-16.2 l 15.3,-2.9 c 2.2,6.5 7.4,7.9 13.5,7.9 4.6,0 9.8,-1.4 9.8,-5.4 0,-4.3 -8.1,-5.1 -11.2,-5.7 -11.7,-2 -23.9,-4.9 -23.9,-17.5 0,-5.3 2.5,-10 7.4,-13.4 5,-3.5 10.8,-4.6 17,-4.6"
   id="path2"
   style="fill:#000000" />
	<path
   class="st0"
   d="m 216.2,513.7 h 14.9 v 32.7 c 0,6.3 0,12.2 -5.5,16.6 -5.4,4.4 -13.2,5.7 -20.3,5.7 -6.8,0 -14.8,-0.8 -20.2,-4.7 -6.7,-4.7 -6.9,-11.1 -6.9,-17.6 v -32.7 h 16 v 32.7 c 0,2.4 -0.1,5.9 1.3,7.9 1.8,2.6 7.2,3.3 10.9,3.3 3,0 6.4,-0.8 8.2,-2.7 2,-2.2 1.7,-5.8 1.7,-8.6 v -32.6"
   id="path3"
   style="fill:#000000" />
	<path
   class="st0"
   d="m 252.1,523.4 v 15.1 h 9 c 3.5,0 6.8,0 9.6,-2.5 1.5,-1.4 2.3,-3.3 2.3,-5.1 0,-2.3 -1.1,-4.6 -3.4,-6 -2.5,-1.6 -5.7,-1.6 -8.6,-1.6 h -8.9 m 10.3,24.9 h -9.3 v 19.7 h -16.2 v -54.2 h 25 c 6.2,0 12.2,0 17.8,3.1 5.6,3.2 8.7,8 8.7,13.7 0,5.2 -2.3,10.5 -7.2,13.9 -5.8,3.9 -12.1,3.8 -18.8,3.8"
   id="path4"
   style="fill:#000000" />
	<polygon
   class="st0"
   points="308.9,556.5 340.2,556.5 340.2,567.9 292.8,567.9 292.8,513.7 340.2,513.7 340.2,525 308.9,525 308.9,534.8 338.4,534.8 338.4,545.8 308.9,545.8 "
   id="polygon4"
   style="fill:#000000" />
	<path
   class="st0"
   d="m 371.8,523.1 h -8.5 v 14.6 h 8.8 c 3.1,0 6.6,0.2 9.5,-1.1 2.6,-1.3 4.1,-4 4.1,-6.5 0,-2.3 -1.7,-4.7 -4,-5.9 -2.6,-1.4 -6.9,-1.1 -9.9,-1.1 m 2.9,23.8 h -10.3 v 21 h -16.2 v -54.2 h 27.9 c 5.8,0 11.8,0.1 16.9,2.8 5.5,2.9 8.5,8.3 8.5,13.7 0,6.1 -4.2,11.7 -11.1,14 l 12.2,23.7 h -18 z"
   id="path5"
   style="fill:#000000" />
	<path
   class="st0"
   d="m 459.4,548.2 h -9.3 v 19.7 h -16.2 v -54.2 h 25 c 6.2,0 12.2,0 17.8,3.1 5.6,3.2 8.7,8 8.7,13.7 0,5.2 -2.2,10.5 -7.2,13.9 -5.8,3.9 -12.2,3.8 -18.8,3.8 m -9.3,-23.8 v 13.1 h 8 c 3.2,0 6.4,0.1 9,-2.2 1.3,-1.2 1.9,-2.8 1.9,-4.4 0,-1.9 -1,-3.9 -2.9,-5.1 -2.3,-1.4 -5.5,-1.4 -8.1,-1.4 z"
   id="path6"
   style="fill:#000000" />
	<polygon
   class="st0"
   points="490,567.9 490,513.7 506.2,513.7 506.2,534.5 525.3,534.5 525.3,513.7 541.5,513.7 541.5,567.9 525.3,567.9 525.3,545.9 506.2,545.9 506.2,567.9 "
   id="polygon6"
   style="fill:#000000" />
	<path
   class="st0"
   d="m 566,513.7 h 18.3 l 20.8,54.2 h -15.9 l -4,-10.9 h -20.3 l -4.1,10.9 h -16.1 z m 9.2,15.8 -6.2,16.7 h 12.4 z"
   id="path7"
   style="fill:#000000" />
	<path
   class="st0"
   d="m 632.4,524.2 h -7.5 v 12.5 h 7.8 c 2.9,0 6.4,0.3 9.1,-1 2.3,-1.1 3.5,-3.4 3.5,-5.6 0,-1.9 -1.4,-4 -3.4,-5 -2.4,-1.2 -6.7,-0.9 -9.5,-0.9 m 2.8,22.7 h -10.3 v 21 h -16.2 v -54.2 h 27.9 c 5.8,0 11.8,0.1 16.9,2.8 5.5,2.9 8.5,8.3 8.5,13.7 0,6.1 -4.2,11.7 -11.1,14 l 12.1,23.7 h -18 z"
   id="path8"
   style="fill:#000000" />
	<polygon
   class="st0"
   points="743.4,513.7 743.4,567.9 729.7,567.9 729.7,531.7 712.9,567.9 700.4,567.9 686.2,530.7 686.2,567.9 671.4,567.9 671.4,513.7 696.1,513.7 707.6,544.2 721.5,513.7 "
   id="polygon8"
   style="fill:#000000" />
	<rect
   x="405.79999"
   y="536.40002"
   class="st0"
   width="20"
   height="10.6"
   id="rect8"
   style="fill:#000000" />
</g>
</svg>
