<svg id="SUPERSAM" width="500" height="71.492783" viewBox="0 0 500 71.492783" version="1.1" xml:space="preserve" xmlns:xlink="http://www.w3.org/1999/xlink" xmlns="http://www.w3.org/2000/svg" xmlns:svg="http://www.w3.org/2000/svg">
	<path id="SUPERSAM" style="fill:#000000;stroke:#000000;stroke-width:0" d="m 134.91593,10.769303 h 9.88508 l 1.59218,0.07932 1.58925,0.249697 1.54225,0.402454 1.51875,0.587523 1.41593,0.731467 1.33956,0.857784 1.26611,1.016415 1.11042,1.139795 1.01054,1.260238 0.88128,1.342491 0.73147,1.415931 0.56108,1.489372 0.4289,1.568687 0.25263,1.56575 0.0764,1.612752 -0.0764,1.595125 -0.25263,1.592189 -0.4289,1.545186 -0.56108,1.489372 -0.73147,1.44237 -0.88128,1.336615 -1.01054,1.242612 -1.11042,1.13392 -1.26611,1.013478 -1.33956,0.881285 -1.41593,0.707966 -1.51875,0.587523 -1.54225,0.434767 -1.58925,0.255573 -1.59218,0.07344 h -9.88508 z M 121.84941,0.04993949 V 71.492779 h 13.06652 V 53.279555 h 14.45895 l 2.10039,-0.223259 2.07102,-0.384827 2.05633,-0.558147 1.99758,-0.702091 1.95058,-0.860722 1.84189,-1.013477 1.76257,-1.139796 1.66856,-1.310177 1.56869,-1.412993 1.46881,-1.548124 1.31605,-1.636253 1.17505,-1.76257 1.04285,-1.818385 0.88129,-1.924139 0.76084,-1.997579 0.58752,-2.024018 0.40833,-2.073958 0.24676,-2.09452 0.0764,-2.123897 -0.0764,-2.126835 -0.24676,-2.094521 -0.40833,-2.076895 -0.58752,-2.018142 -0.76084,-1.99758 -0.88129,-1.918264 -1.04285,-1.82426 -1.17505,-1.76257 L 167.8613,9.206491 166.39249,7.6642422 164.8238,6.2512485 163.15524,4.9616347 161.39267,3.8012761 159.53315,2.7554845 157.58258,1.8977004 155.585,1.1926724 153.52867,0.63452522 151.45765,0.25263504 149.35725,0.04993949 Z M 195.81272,10.413851 h 19.56747 l 0.9606,0.05288 0.9606,0.176257 0.9136,0.326075 0.83134,0.458268 0.76084,0.605149 0.65803,0.684465 0.55227,0.810782 0.40539,0.857784 0.27614,0.934162 0.12632,0.963539 -0.0264,0.954725 -0.17626,0.940038 -0.29376,0.934162 -0.45533,0.834283 -0.60515,0.784344 -0.68446,0.655088 -0.77847,0.55521 -0.88129,0.402453 -0.91066,0.293762 -0.95766,0.126317 H 195.83035 Z M 182.74326,0.04993949 V 37.442863 l 0.0999,1.642128 0.25558,1.636253 0.42889,1.603938 0.58752,1.536374 0.76084,1.486434 0.90773,1.39243 1.03991,1.295489 1.16036,1.157421 1.29255,1.034042 1.3895,0.913598 1.4688,0.731467 1.53638,0.608087 1.59512,0.431829 1.64213,0.252635 1.63919,0.102817 h 34.05579 V 42.104861 H 204.6197 l -1.28668,-0.07638 -1.24261,-0.276136 -1.17505,-0.478831 -1.11336,-0.637463 -1.01054,-0.784344 -0.85778,-0.931224 -0.7344,-1.063418 -0.55815,-1.139795 -0.40539,-1.213236 -0.2027,-1.260237 v -1.289614 l 0.1792,-1.260238 h 24.21477 l 1.64213,-0.105754 1.64507,-0.24676 1.59512,-0.428892 1.56575,-0.587523 1.46881,-0.757905 1.38655,-0.913599 1.28668,-1.034041 1.17505,-1.175047 1.03404,-1.292551 0.91066,-1.392431 0.76084,-1.489371 0.58753,-1.545187 0.43183,-1.592188 0.25263,-1.645065 0.0969,-1.642128 -0.0969,-1.668566 -0.25263,-1.621565 -0.43183,-1.618627 -0.58753,-1.5422486 -0.76084,-1.4688084 -0.91066,-1.3924303 -1.03404,-1.2896138 -1.17505,-1.1750467 -1.28668,-1.0340411 -1.40418,-0.8842226 -1.4688,-0.7461547 -1.56575,-0.58752334 -1.59513,-0.42889205 -1.64507,-0.25557266 -1.64212,-0.07344041 z m 194.27341,42.82457751 -0.91066,-0.232072 -0.86072,-0.352514 -0.80491,-0.50527 -0.70796,-0.602211 -0.63159,-0.707966 -0.48471,-0.810782 -0.34957,-0.860722 -0.22914,-0.9371 -0.0793,-0.931224 0.0793,-0.9371 0.22914,-0.913599 0.34957,-0.881285 0.48471,-0.810782 0.63159,-0.705028 0.70796,-0.605149 0.80491,-0.508208 0.86072,-0.349576 0.91066,-0.229134 0.95767,-0.07638 h 21.73836 v 12.04423 H 377.97434 Z M 393.27051,0.04993949 H 362.35209 V 11.392078 h 28.59183 l 1.17504,0.149818 1.17505,0.293762 1.11336,0.475894 1.01054,0.611024 0.93416,0.75203 0.83134,0.881285 0.68447,1.01054 0.53171,1.06048 0.40539,1.175047 0.19976,1.175046 0.0764,1.175047 -0.12631,1.213236 h -24.08846 l -1.64213,0.07932 -1.66857,0.276136 -1.59218,0.428892 -1.57163,0.587524 -1.49231,0.757905 -1.38949,0.913599 -1.29255,1.057542 -1.17505,1.175046 -1.03698,1.313115 -0.91066,1.386555 -0.75497,1.495247 -0.60808,1.542249 -0.4289,1.621564 -0.25557,1.642128 -0.0969,1.668567 0.0969,1.665628 0.25557,1.645066 0.4289,1.618627 0.60808,1.568687 0.75497,1.468808 0.91066,1.412994 1.03698,1.292551 1.17505,1.175047 1.29255,1.039916 1.38949,0.904786 1.49231,0.757905 1.57163,0.611025 1.59218,0.428892 1.66857,0.252635 1.64213,0.09988 h 37.89525 V 15.319671 l -0.45533,-1.742006 -0.60514,-1.695005 -0.75791,-1.618627 -0.91066,-1.5422488 -1.03992,-1.4688084 -1.17504,-1.3601166 -1.29256,-1.2426119 -1.41593,-1.0869182 -1.49818,-0.9841016 -1.59513,-0.8107822 -1.66856,-0.6815271 -1.71557,-0.50233246 -1.76257,-0.35545163 -1.79489,-0.18213224 z m 32.41072,-0.0029376 V 53.264867 h 13.06652 V 11.392078 h 17.2115 v 41.872789 h 13.07239 l 0.0264,-41.872789 h 11.60359 l 0.98704,0.09694 0.95766,0.279074 0.9136,0.402453 0.83135,0.534647 0.7344,0.655088 0.65803,0.787281 0.50527,0.834284 0.35545,0.937099 0.22619,0.957663 0.0764,1.013478 V 53.264867 H 500 V 15.316734 l -0.2262,-1.618627 -0.40245,-1.618627 -0.52877,-1.56575 -0.7109,-1.5187474 L 497.29445,7.573176 496.30742,6.2365604 495.22344,4.9939485 493.98376,3.8835294 492.66477,2.8964901 491.25471,2.0416437 489.75947,1.333678 488.19372,0.74615466 486.57509,0.3495764 484.95646,0.1233799 483.29084,0.04700187 Z m -410.338058,0 L 13.727483,0.14981846 12.132357,0.4024535 10.590108,0.83134555 9.106612,1.4394322 7.6906807,2.1738364 6.3511275,3.0551214 5.0879522,4.062724 3.9775331,5.1995817 2.9640553,6.4627569 2.0827703,7.8081854 1.3483661,9.2476176 0.76084274,10.736989 0.36132686,12.302739 0.1057542,13.871426 0,15.504741 l 0.07637804,1.592189 0.21738364,1.58925 0.40539111,1.56575 0.58752331,1.489372 0.7109033,1.44237 0.8577841,1.365991 0.9841016,1.260238 1.1397953,1.175047 1.2102981,1.016415 1.3395533,0.904786 1.4188689,0.760843 1.4893713,0.605149 1.542249,0.428892 1.598064,0.293762 1.58925,0.09988 h 17.734393 l 0.984101,0.102816 0.940038,0.252635 0.881285,0.402454 0.781406,0.558147 0.681527,0.681527 0.561085,0.81372 0.428892,0.881285 0.252635,0.934162 0.07638,0.957663 -0.07638,0.987039 -0.252635,0.9371 -0.428892,0.881285 -0.561085,0.778468 -0.681527,0.684465 -0.781406,0.587524 -0.881285,0.405391 -0.940038,0.255572 -0.984101,0.07638 H 0.52877102 v 10.9955 H 37.413487 l 1.571625,-0.279074 1.539311,-0.405391 1.489372,-0.555209 1.415931,-0.705028 1.365992,-0.837221 1.266113,-0.963538 1.175047,-1.06048 1.060479,-1.175047 0.9371,-1.286676 0.810782,-1.39243 0.681527,-1.44237 0.525834,-1.492309 0.378952,-1.56575 0.232072,-1.568688 0.07638,-1.595125 L 51.863624,35.35128 51.631552,33.782593 51.2526,32.216843 50.726766,30.721596 50.045239,29.282164 49.234457,27.91911 48.297357,26.632434 47.236878,25.442699 46.061831,24.358718 44.795718,23.39518 43.426789,22.555022 42.00792,21.844118 40.518548,21.283034 38.982175,20.88058 37.41055,20.627945 H 18.42767 l -0.910661,-0.105754 -0.860722,-0.249698 -0.793156,-0.425954 -0.684465,-0.587523 -0.587524,-0.710904 -0.434767,-0.784343 -0.24676,-0.881285 -0.105754,-0.881285 0.105754,-0.907724 0.24676,-0.857784 0.434767,-0.810782 0.587524,-0.705028 0.684465,-0.564023 0.804907,-0.428892 0.860721,-0.276136 0.910661,-0.07344 H 48.561743 V 0.04700187 Z m 80.114685,0 V 41.649531 H 82.309084 l -1.113356,-0.07638 -1.113357,-0.223259 -1.063417,-0.381891 -0.98704,-0.508207 -0.907723,-0.655089 -0.807845,-0.799032 -0.705028,-0.866596 -0.558147,-0.954726 -0.455331,-1.036979 -0.279073,-1.08398 V 0.04700187 H 60.511968 V 35.139772 l 0.105754,1.794884 0.293762,1.791946 0.458268,1.76257 0.631588,1.662691 0.784343,1.618627 0.960601,1.545186 1.089856,1.433557 1.239674,1.31899 1.339553,1.175047 1.468809,1.063417 1.568687,0.910661 1.642128,0.734405 1.695005,0.587523 1.76257,0.425954 1.794884,0.232072 1.794883,0.07638 H 108.55081 V 0.04700187 Z M 282.82493,0 281.51182,0.04993949 H 244.5566 V 53.267805 h 13.06652 V 10.413851 h 17.01173 l 0.98411,0.105755 0.93416,0.246759 0.88128,0.405392 0.80785,0.558147 0.6874,0.684464 0.55227,0.804907 0.40246,0.881285 0.25851,0.934163 v 7.344042 h 12.761 V 10.413851 l -0.0969,-1.307239 -0.2497,-1.3189899 -0.40245,-1.2602376 -0.58752,-1.2161734 -0.73147,-1.1133567 -0.86072,-1.0076026 -0.9841,-0.9106612 -1.08692,-0.7579051 -1.17505,-0.63452524 -1.26317,-0.45533059 -1.28962,-0.29376168 z m 32.30497,0.04993949 -1.59219,0.10281658 -1.59512,0.25263504 -1.53931,0.42889205 -1.49819,0.60808664 -1.43649,0.7344042 -1.33956,0.8812851 -1.24261,1.0076025 -1.12511,1.157421 -1.0076,1.2602376 -0.86072,1.3454285 -0.73147,1.4394322 -0.58752,1.4893721 -0.40539,1.565749 -0.29376,1.568688 -0.0734,1.618627 0.0734,1.592188 0.22913,1.598063 0.40246,1.56575 0.55814,1.489372 0.73147,1.44237 0.86072,1.365991 0.9841,1.260238 1.11042,1.175047 1.24261,1.016415 1.33956,0.907724 1.41593,0.760842 1.48937,0.60515 1.54225,0.428892 1.59512,0.293761 1.58925,0.09988 h 17.71971 l 0.95766,0.102817 0.9371,0.252635 0.88129,0.402453 0.81078,0.558148 0.68153,0.681527 0.55814,0.810782 0.40539,0.881285 0.25558,0.934162 0.0969,0.957663 -0.0969,0.987039 -0.25558,0.934162 -0.40539,0.881285 -0.55814,0.778469 -0.68153,0.684465 -0.81078,0.587523 -0.88129,0.405391 -0.9371,0.255573 -0.95766,0.07638 h -32.33729 v 10.992562 h 36.85241 l 1.59218,-0.279074 1.54225,-0.405391 1.49525,-0.55521 1.41593,-0.705028 1.36599,-0.83722 1.26318,-0.960601 1.17505,-1.063417 1.04285,-1.175047 0.95766,-1.286676 0.80785,-1.39243 0.65802,-1.44237 0.53171,-1.49231 0.40539,-1.565749 0.2262,-1.568688 0.0793,-1.595126 -0.0793,-1.592188 -0.2262,-1.568687 -0.40539,-1.56575 -0.53171,-1.492309 -0.65802,-1.44237 -0.80785,-1.363054 -0.95766,-1.286677 -1.04285,-1.175046 -1.17505,-1.086918 -1.26318,-0.963539 -1.36893,-0.860721 -1.41593,-0.702091 -1.49524,-0.561085 -1.54225,-0.402453 -1.59219,-0.252635 H 318.2379 l -0.90479,-0.105754 -0.86366,-0.249698 -0.7814,-0.428892 -0.7109,-0.587523 -0.58753,-0.684465 -0.42889,-0.778468 -0.25264,-0.881285 -0.10281,-0.881285 0.0734,-0.910662 0.25557,-0.857784 0.42889,-0.807844 0.55521,-0.684465 0.70797,-0.587523 0.78434,-0.43183 0.86072,-0.279074 0.88129,-0.09694 h 30.20457 V 0.04993949 Z" />
</svg>
