<svg id="SUPERPHARM" width="500" height="46.286972" viewBox="0 0 500 46.286972" version="1.1" xml:space="preserve" xmlns:xlink="http://www.w3.org/1999/xlink" xmlns="http://www.w3.org/2000/svg" xmlns:svg="http://www.w3.org/2000/svg">
	<path id="SUPERPHARM" style="fill:#000000;stroke:#000000;stroke-width:0" d="M 230.22429,28.956594 H 246.194 V 20.506886 H 230.22429 Z M 454.31831,15.964865 V 45.676848 H 442.51293 V 2.401751 h 19.70791 L 471.3872,26.792113 482.52436,2.401751 H 500 v 43.27994 H 489.06138 V 16.812257 l -13.39364,28.869434 h -10.0089 z m -43.01846,-5.205408 c 2.19838,0 5.66542,-0.261481 7.63621,0.750547 1.62215,0.813496 2.7504,2.488911 2.7504,3.994848 0,1.704468 -0.98298,3.529993 -2.8085,4.454861 -2.16933,1.01687 -4.94393,0.808654 -7.26336,0.808654 h -6.2707 v -10.00891 z m 10.21228,34.917391 h 14.40567 l -9.68932,-18.918631 c 5.46689,-1.820682 8.82256,-6.304596 8.82256,-11.195258 0,-4.309594 -2.43081,-8.5949759 -6.79851,-10.9676734 -4.10622,-2.14027 -8.93877,-2.1983769 -13.5389,-2.1983769 H 392.41027 V 45.676848 h 12.92878 V 28.898487 h 8.21728 z M 358.24343,2.401751 h 14.63809 l 16.60888,43.275097 h -12.70603 l -3.18136,-8.7354 h -16.26024 l -3.26851,8.7354 h -12.84162 z m 7.31662,12.580139 -4.94392,13.340371 h 9.89269 z M 325.69389,2.401751 h 12.92878 V 45.676848 H 325.69389 V 28.14794 H 310.45052 V 45.676848 H 297.48785 V 2.401751 h 12.96267 V 18.98158 h 15.24337 z m -52.67872,27.537818 h -7.40863 V 45.676848 H 252.67776 V 2.401751 h 19.95971 c 4.91972,0 9.78133,-0.029053 14.23619,2.4598578 4.47907,2.605125 6.93893,6.3675452 6.93893,10.9386202 0,4.135272 -1.82069,8.357705 -5.78648,11.108098 -4.62918,3.152298 -9.66027,3.036084 -15.01094,3.036084 z m -7.40863,-19.005791 v 10.473764 h 6.42565 c 2.54218,0 5.0892,0.05811 7.1423,-1.767417 a 4.5807589,4.5807589 0 0 0 1.53499,-3.471886 4.8422398,4.8422398 0 0 0 -2.31459,-4.10622 c -1.82068,-1.162137 -4.33864,-1.128241 -6.44986,-1.128241 z M 211.04418,10.78851 c 1.85458,0.924868 3.18135,2.837553 3.18135,4.716342 0,1.995003 -1.15729,4.106219 -3.26851,5.181197 -2.31459,1.094346 -5.08919,0.920025 -7.60716,0.920025 h -7.05998 V 9.9556451 h 6.76945 c 2.37269,0 5.81553,-0.261481 7.98969,0.8377079 z m 2.19838,34.888338 h 14.43956 L 217.9589,26.758217 c 5.49594,-1.820682 8.85161,-6.304596 8.85161,-11.195258 0,-4.309594 -2.45985,-8.5949759 -6.82755,-10.9676734 -4.10622,-2.14027 -8.90973,-2.1983769 -13.50985,-2.1983769 H 184.16975 V 45.676848 h 12.92878 V 28.898487 h 8.18823 z M 177.77799,2.401751 v 9.054988 h -24.99564 v 7.78148 h 23.54781 v 8.793507 h -23.54781 v 8.590134 h 24.99564 v 9.054988 h -37.9341 V 2.401751 Z m -70.42069,7.723372 h 7.14715 c 2.28553,0 4.8616,0 6.88566,1.239614 1.79163,1.133084 2.69229,3.011873 2.69229,4.803502 0,1.476883 -0.58107,2.953766 -1.82553,4.082008 -2.25648,1.995003 -4.89066,1.965949 -7.66526,1.965949 h -7.23431 z m 8.21728,19.814446 c 5.32646,0 10.36239,0.116214 14.98673,-3.036085 a 13.272579,13.272579 0 0 0 5.78648,-11.108098 c 0,-4.571074 -2.45986,-8.3334944 -6.94377,-10.9386195 C 124.94916,2.3678553 120.1166,2.3969087 115.16783,2.3969087 H 95.208119 V 45.676848 H 108.1708 V 29.939569 Z M 78.633133,2.401751 h 11.916752 v 26.089988 c 0,5.006876 0,9.752271 -4.367701,13.253211 -4.28054,3.500939 -10.531871,4.542021 -16.260241,4.542021 -5.466889,0 -11.863487,-0.66823 -16.139185,-3.704314 -5.355517,-3.791474 -5.554049,-8.880668 -5.554049,-14.090918 V 2.401751 h 12.754459 v 26.099673 c 0,1.907842 -0.05811,4.682446 1.070135,6.333649 1.476884,2.05311 5.762266,2.663232 8.71119,2.663232 2.430804,0 5.147301,-0.610122 6.537024,-2.145112 1.564043,-1.791629 1.331616,-4.658235 1.331616,-6.856612 V 2.401751 M 22.361464,0 c 8.565922,0 16.899417,2.14027 20.686048,11.079045 L 31.706986,14.202289 C 29.973465,9.9798563 27.135912,8.8758256 22.826319,8.8758256 c -3.471886,0 -6.943772,0.7844429 -6.943772,3.7043134 0,3.06998 5.205407,3.733367 7.321466,4.019059 4.309594,0.784443 10.154177,1.651204 13.998916,3.796316 4.425807,2.425962 7.176199,6.217436 7.176199,10.78851 0,4.483915 -2.576072,8.735401 -6.769451,11.427686 -4.367701,2.837553 -10.270391,3.675261 -15.621066,3.675261 C 13.103101,46.286971 2.8375525,43.507525 0,33.295241 L 12.265393,30.98065 c 1.738365,5.181197 5.931744,6.309439 10.793353,6.309439 3.670418,0 7.86864,-1.162138 7.86864,-4.338647 0,-3.413779 -6.483759,-4.111062 -8.938775,-4.571074 C 12.643088,26.816324 2.8908172,24.443627 2.8908172,14.405663 c 0,-4.28054 2.0288985,-8.0139064 5.9075326,-10.7352452 C 12.788355,0.92486781 17.44659,0 22.361464,0" />
</svg>
