<svg
   width="170.20599"
   height="24.337"
   viewBox="0 0 170.206 24.337"
   version="1.1"
   id="svg1"
   xmlns="http://www.w3.org/2000/svg"
   xmlns:svg="http://www.w3.org/2000/svg">
  <defs
     id="defs1" />
  <g
     id="Group_4732"
     data-name="Group 4732"
     style="fill:#000000">
    <path
       id="Path_14138"
       data-name="Path 14138"
       d="m 243.57,0.039 -0.542,0.035 -0.543,0.086 -0.524,0.146 -0.51,0.207 -0.489,0.25 -0.456,0.3 -0.423,0.343 -0.383,0.394 -0.343,0.429 -0.293,0.458 -0.249,0.49 -0.2,0.507 -0.138,0.533 -0.1,0.534 -0.025,0.551 0.025,0.542 0.078,0.544 0.137,0.533 0.19,0.507 0.249,0.491 0.293,0.465 0.335,0.429 0.378,0.4 0.423,0.346 0.456,0.309 0.482,0.259 0.507,0.206 0.525,0.146 0.543,0.1 0.541,0.034 h 6.032 l 0.326,0.035 0.319,0.086 0.3,0.137 0.276,0.19 0.232,0.232 0.19,0.276 0.138,0.3 0.087,0.318 0.033,0.326 -0.033,0.336 -0.087,0.318 -0.138,0.3 -0.19,0.265 -0.232,0.233 -0.276,0.2 -0.3,0.138 -0.319,0.087 -0.326,0.026 h -11.008 v 3.742 h 12.545 l 0.542,-0.095 0.525,-0.138 0.509,-0.189 0.482,-0.24 0.465,-0.285 0.43,-0.327 0.4,-0.362 0.355,-0.4 0.326,-0.438 0.275,-0.474 0.224,-0.491 0.181,-0.508 0.138,-0.533 0.077,-0.534 0.027,-0.543 -0.027,-0.542 -0.077,-0.534 -0.138,-0.533 -0.181,-0.508 -0.224,-0.491 -0.275,-0.464 -0.326,-0.438 -0.355,-0.4 -0.4,-0.37 -0.43,-0.328 L 253.14,7.7 252.658,7.461 252.149,7.27 251.624,7.133 251.082,7.047 h -6.454 L 244.32,7.011 244.026,6.926 243.76,6.78 l -0.242,-0.2 -0.2,-0.233 -0.146,-0.265 -0.086,-0.3 -0.035,-0.3 0.025,-0.31 0.087,-0.292 0.146,-0.275 0.189,-0.233 0.241,-0.2 0.267,-0.147 0.293,-0.095 0.3,-0.033 h 10.282 V 0.039 Z"
       transform="translate(-136.296,-0.022)"
       fill="#fff"
       style="fill:#000000" />
    <path
       id="Path_14139"
       data-name="Path 14139"
       d="m 207.452,0 -0.447,0.017 h -12.58 v 18.116 h 4.448 V 3.545 h 5.791 l 0.335,0.036 0.318,0.084 0.3,0.138 0.275,0.19 0.234,0.233 0.188,0.274 0.137,0.3 0.088,0.318 v 2.5 h 4.344 V 3.545 L 210.85,3.1 l -0.085,-0.449 -0.137,-0.429 -0.2,-0.414 -0.249,-0.379 -0.293,-0.343 -0.335,-0.31 -0.37,-0.258 -0.4,-0.216 -0.43,-0.155 -0.439,-0.1 z"
       transform="translate(-111.175)"
       fill="#fff"
       style="fill:#000000" />
    <path
       id="Path_14140"
       data-name="Path 14140"
       d="M 60.006,0.038 V 14.2 H 55.53 L 55.151,14.174 54.772,14.098 54.41,13.968 54.074,13.795 53.765,13.572 53.49,13.3 53.25,13.005 53.06,12.68 52.905,12.327 52.81,11.958 V 0.038 h -4.7 v 11.946 l 0.036,0.611 0.1,0.61 0.156,0.6 0.215,0.566 0.267,0.551 0.327,0.526 0.371,0.488 0.422,0.449 0.456,0.4 0.5,0.362 0.534,0.31 0.559,0.25 0.577,0.2 0.6,0.145 0.611,0.079 0.611,0.026 H 64.463 V 0.038 Z"
       transform="translate(-27.511,-0.022)"
       fill="#fff"
       style="fill:#000000" />
    <path
       id="Path_14141"
       data-name="Path 14141"
       d="M 5.223,0.038 4.673,0.073 4.13,0.159 3.605,0.305 3.1,0.512 2.618,0.762 2.162,1.062 1.732,1.405 1.354,1.792 1.009,2.222 0.709,2.68 0.459,3.17 0.259,3.677 0.123,4.21 0.036,4.744 0,5.3 0.026,5.842 0.1,6.383 l 0.138,0.533 0.2,0.507 0.242,0.491 0.292,0.465 0.335,0.429 0.388,0.4 0.412,0.346 0.456,0.308 0.483,0.259 0.507,0.206 0.525,0.146 0.544,0.1 0.541,0.034 H 11.2 l 0.335,0.035 0.32,0.086 0.3,0.137 0.266,0.19 0.232,0.232 0.191,0.277 0.146,0.3 0.086,0.318 0.026,0.326 -0.026,0.336 -0.086,0.319 -0.146,0.3 -0.191,0.265 -0.232,0.233 -0.266,0.2 -0.3,0.138 -0.32,0.087 -0.335,0.026 H 0.18 v 3.743 h 12.556 l 0.535,-0.095 0.524,-0.138 0.507,-0.189 0.482,-0.24 0.465,-0.285 0.431,-0.328 0.4,-0.361 0.361,-0.4 0.319,-0.438 0.276,-0.474 0.232,-0.491 0.179,-0.508 0.129,-0.533 0.079,-0.534 0.026,-0.543 L 17.655,12.056 17.576,11.522 17.447,10.989 17.268,10.48 17.036,9.99 16.76,9.526 16.441,9.088 16.08,8.683 15.68,8.314 15.249,7.986 14.783,7.7 14.3,7.458 13.793,7.267 13.27,7.13 12.735,7.044 H 6.273 L 5.963,7.008 5.67,6.923 5.4,6.778 5.167,6.578 4.967,6.336 4.819,6.069 4.735,5.769 4.699,5.469 4.735,5.16 4.819,4.868 4.967,4.592 5.167,4.352 5.4,4.16 5.674,4.014 5.967,3.92 6.277,3.895 H 16.531 V 0.038 Z"
       transform="translate(0,-0.022)"
       fill="#fff"
       style="fill:#000000" />
    <path
       id="Path_14142"
       data-name="Path 14142"
       d="m 338.422,0.038 v 18.116 h 4.448 V 3.9 h 5.859 v 14.254 h 4.45 L 353.188,3.9 h 3.95 l 0.336,0.033 0.326,0.095 0.311,0.137 0.283,0.182 0.25,0.223 0.224,0.268 0.172,0.284 0.121,0.319 0.077,0.326 0.026,0.345 v 12.042 h 4.457 V 5.236 L 363.644,4.685 363.507,4.134 363.327,3.601 363.085,3.084 362.8,2.6 362.464,2.145 362.095,1.722 361.673,1.344 361.224,1.008 360.744,0.717 360.235,0.476 359.702,0.276 359.151,0.141 358.6,0.064 358.033,0.038 Z"
       transform="translate(-193.515,-0.022)"
       fill="#fff"
       style="fill:#000000" />
    <path
       id="Path_14143"
       data-name="Path 14143"
       d="m 291.528,14.617 -0.31,-0.079 -0.293,-0.12 -0.274,-0.172 -0.241,-0.205 -0.215,-0.241 -0.165,-0.276 -0.119,-0.293 -0.078,-0.319 -0.027,-0.317 0.027,-0.319 0.078,-0.311 0.119,-0.3 0.165,-0.276 0.215,-0.24 0.241,-0.206 0.274,-0.173 0.293,-0.119 0.31,-0.078 0.326,-0.026 h 7.4 v 4.1 h -7.4 z M 297.061,0.039 H 286.536 V 3.9 h 9.733 l 0.4,0.051 0.4,0.1 0.379,0.162 0.344,0.208 0.318,0.256 0.283,0.3 0.233,0.344 0.181,0.361 0.138,0.4 0.068,0.4 0.026,0.4 -0.043,0.413 h -8.2 l -0.559,0.027 -0.568,0.094 -0.542,0.146 -0.535,0.2 -0.508,0.258 -0.473,0.311 -0.44,0.36 -0.4,0.4 -0.353,0.447 -0.31,0.472 -0.257,0.509 -0.207,0.525 -0.146,0.552 -0.087,0.559 -0.033,0.568 0.033,0.567 0.087,0.56 0.146,0.551 0.207,0.534 0.257,0.5 0.31,0.481 0.353,0.44 0.4,0.4 0.44,0.354 0.473,0.308 0.508,0.258 0.535,0.208 0.542,0.146 0.568,0.086 0.559,0.034 h 12.9 V 5.237 l -0.155,-0.593 -0.206,-0.577 -0.258,-0.551 -0.31,-0.525 -0.354,-0.5 -0.4,-0.463 -0.44,-0.423 -0.482,-0.37 -0.51,-0.335 -0.543,-0.276 -0.568,-0.232 -0.584,-0.171 -0.6,-0.121 -0.611,-0.062 z"
       transform="translate(-163.187,-0.022)"
       fill="#fff"
       style="fill:#000000" />
    <path
       id="Path_14144"
       data-name="Path 14144"
       d="m 149.732,3.567 h 6.661 l 0.327,0.018 0.327,0.06 0.311,0.111 0.283,0.156 0.259,0.206 0.224,0.233 0.188,0.276 0.138,0.292 0.094,0.318 0.043,0.328 -0.009,0.325 -0.06,0.32 -0.1,0.318 -0.155,0.284 -0.206,0.267 -0.233,0.223 -0.265,0.189 -0.3,0.137 -0.31,0.1 -0.326,0.043 h -6.885 z m -4.449,-3.528 v 12.729 l 0.034,0.559 0.087,0.557 0.146,0.546 0.2,0.523 0.259,0.506 0.309,0.474 0.354,0.441 0.395,0.394 0.44,0.352 0.473,0.311 0.5,0.249 0.523,0.207 0.543,0.147 0.559,0.086 0.558,0.035 h 11.593 v -3.8 h -9.526 l -0.438,-0.026 -0.423,-0.094 -0.4,-0.163 -0.379,-0.217 -0.344,-0.267 -0.292,-0.317 -0.25,-0.362 -0.19,-0.388 -0.138,-0.413 -0.069,-0.429 V 11.24 l 0.061,-0.429 h 8.243 l 0.559,-0.036 0.56,-0.084 0.543,-0.146 0.533,-0.2 0.5,-0.258 0.472,-0.311 0.438,-0.352 0.4,-0.4 0.352,-0.44 0.31,-0.474 0.259,-0.507 0.2,-0.526 0.147,-0.542 0.086,-0.56 0.033,-0.559 -0.033,-0.568 -0.086,-0.552 -0.147,-0.551 -0.2,-0.525 -0.259,-0.5 -0.31,-0.474 -0.352,-0.439 -0.4,-0.4 L 161.278,1.055 160.8,0.754 160.3,0.5 159.767,0.3 159.224,0.154 158.664,0.067 158.105,0.042 Z"
       transform="translate(-83.075,-0.022)"
       fill="#fff"
       style="fill:#000000" />
    <path
       id="Path_14145"
       data-name="Path 14145"
       d="m 101.32,3.687 h 3.365 l 0.542,0.027 0.541,0.085 0.525,0.137 0.517,0.2 0.482,0.249 0.456,0.292 0.431,0.346 0.378,0.388 0.344,0.429 0.3,0.457 0.249,0.482 0.191,0.507 0.146,0.534 0.086,0.533 0.026,0.549 -0.026,0.543 -0.086,0.542 -0.146,0.526 -0.191,0.507 -0.249,0.491 -0.3,0.455 -0.344,0.423 -0.378,0.386 -0.431,0.345 -0.456,0.3 -0.482,0.241 -0.517,0.2 -0.525,0.148 -0.541,0.087 -0.542,0.025 H 101.32 Z M 96.872,0.038 v 24.32 h 4.448 v -6.2 h 4.922 l 0.715,-0.076 0.705,-0.131 0.7,-0.19 0.68,-0.239 0.664,-0.293 0.627,-0.345 0.6,-0.388 0.568,-0.446 0.534,-0.481 0.5,-0.527 0.448,-0.557 0.4,-0.6 0.355,-0.619 0.3,-0.655 0.259,-0.68 0.2,-0.689 0.139,-0.706 0.084,-0.713 0.026,-0.723 -0.026,-0.724 -0.084,-0.713 -0.139,-0.707 -0.2,-0.687 -0.259,-0.68 -0.3,-0.653 -0.355,-0.621 -0.4,-0.6 -0.448,-0.56 -0.5,-0.525 -0.534,-0.481 -0.568,-0.439 -0.6,-0.395 -0.633,-0.356 -0.664,-0.292 -0.68,-0.24 -0.7,-0.19 -0.705,-0.13 -0.715,-0.069 z"
       transform="translate(-55.393,-0.021)"
       fill="#fff"
       style="fill:#000000" />
  </g>
</svg>
