<svg
   version="1.1"
   id="svg1"
   width="280.50281"
   height="118.30729"
   viewBox="0 0 280.50281 118.30729"
   xmlns="http://www.w3.org/2000/svg"
   xmlns:svg="http://www.w3.org/2000/svg">
  <defs
     id="defs1" />
  <g
     id="g1"
     transform="translate(331.02063,-62.196323)">
    <path
       style="fill:#000000"
       d="m -135.85129,179.78472 c -1.37309,-1.37309 -0.59135,-2.44846 1.56016,-2.14619 1.96882,0.27661 2.3103,-0.26193 2.94729,-4.64819 0.45231,-3.11451 0.32231,-5.4408 -0.34927,-6.25 -0.78503,-0.9459 -0.7029,-1.28895 0.3086,-1.28895 0.75808,0 1.95795,-1.30944 2.66637,-2.90986 1.49655,-3.38095 3.87464,-4.60521 5.81592,-2.99409 1.7077,1.41726 0.70735,3.24191 -1.34548,2.45416 -1.2337,-0.47341 -1.41136,-0.006 -0.92385,2.43183 0.33471,1.67353 0.17774,3.01796 -0.35235,3.01796 -0.52577,0 -1.25268,1.2375 -1.61534,2.75 -1.78077,7.42671 -6.10832,12.18706 -8.71205,9.58333 z m -189.86293,-5.11733 c 1.62619,-1.12316 4.524,-11.91957 3.74449,-13.95092 -0.48461,-1.26289 0.45299,-1.43432 5.93534,-1.08523 3.58098,0.22802 7.05212,0.95584 7.71365,1.61737 2.22057,2.22056 1.43183,8.02828 -1.48666,10.94677 -2.33517,2.33517 -3.64583,2.73443 -9.95,3.03095 -4.50413,0.21186 -6.7656,-3.4e-4 -5.95682,-0.55894 z m 10.85168,-2.68719 c 2.4368,-1.70681 3.5785,-6.22322 2.21649,-8.76817 -1.79743,-3.35852 -3.59744,-1.87308 -5.13717,4.23936 -1.62311,6.44344 -1.05983,7.31686 2.92068,4.52881 z m 16.35536,1.98418 c -3.3065,-3.9841 3.61982,-10.91359 8.62784,-8.63179 2.77012,1.26215 3.11067,4.60403 0.80468,7.89629 -1.8366,2.62213 -7.50024,3.06375 -9.43252,0.7355 z m 5.78923,-1.71299 c 0.66,-0.66 1.2,-2.33143 1.2,-3.71429 0,-2.18308 -0.18346,-2.32139 -1.39268,-1.05 -3.10763,3.26742 -2.92116,7.87813 0.19268,4.76429 z m 14.72297,-1.55 c 0.43715,-2.6125 0.83581,-6.2125 0.88592,-8 0.0795,-2.83561 0.43285,-3.25 2.7713,-3.25 2.50285,0 2.62323,0.19861 1.81933,3.00165 -0.80569,2.80929 -0.71035,2.96388 1.48764,2.41222 3.45509,-0.86717 5.09243,2.56464 3.08017,6.45592 -1.67804,3.24498 -3.34662,4.13021 -7.78504,4.13021 h -3.05414 z m 5.87004,1.16821 c 0.33384,-0.86998 0.59268,-2.33248 0.57518,-3.25 -0.0274,-1.43904 -0.23349,-1.40155 -1.5,0.27292 -1.63908,2.16706 -1.94085,4.55887 -0.57518,4.55887 0.49115,0 1.16615,-0.7118 1.5,-1.58179 z m 13.92281,-1.28094 c 0.15893,-4.30076 0.49263,-5.04407 2.43418,-5.42198 1.2375,-0.24087 2.25,-0.0345 2.25,0.45857 0,0.49308 0.84083,0.44651 1.86851,-0.10349 2.02094,-1.08157 3.13149,-0.51546 3.13149,1.5963 0,0.73333 -0.8449,1.33333 -1.87756,1.33333 -2.17345,0 -3.75043,1.65523 -4.27632,4.48852 -0.203,1.09368 -1.1218,2.13347 -2.04179,2.31065 -1.40168,0.26994 -1.64285,-0.48539 -1.48851,-4.6619 z m 16.68418,4.16745 c 0,-0.38241 1.2375,-2.0216 2.75,-3.64265 2.6292,-2.81789 2.65116,-2.92324 0.5,-2.39833 -2.54519,0.62105 -2.66793,0.38568 -1.21482,-2.32948 0.71768,-1.34099 2.09789,-1.93426 4.5,-1.93426 4.31489,0 4.36474,1.18083 0.21482,5.08837 l -3.25,3.06018 2.75,-0.4356 c 2.17106,-0.3439 2.75,-0.0438 2.75,1.42572 0,1.53935 -0.77842,1.86133 -4.5,1.86133 -2.475,0 -4.5,-0.31288 -4.5,-0.69528 z m 18.46186,-1.42489 c -1.50518,-4.7424 6.85931,-10.98722 10.21795,-7.62859 2.11443,2.11443 0.50126,4.33044 -3.84775,5.28565 -2.24232,0.49249 -2.73767,0.95751 -1.90594,1.78923 0.83173,0.83173 1.6371,0.80324 3.09884,-0.10963 1.08627,-0.67839 1.97504,-0.86962 1.97504,-0.42496 0,1.75156 -2.55768,3.20847 -5.63262,3.20847 -2.41542,0 -3.40272,-0.53597 -3.90552,-2.12017 z m 6.66569,-5.62983 c 1.24387,-1.58606 1.2085,-1.62143 -0.37755,-0.37755 -0.9625,0.75484 -1.75,1.54234 -1.75,1.75 0,0.82303 0.82118,0.2933 2.12755,-1.37245 z m 29.36996,4 c 0.39605,-2.0625 0.79521,-4.21157 0.88701,-4.77572 0.16642,-1.02268 4.25012,-5.47428 5.02186,-5.47428 0.22351,0 0.17102,0.9 -0.11663,2 -0.32612,1.24707 -0.0307,2 0.78475,2 0.9264,0 0.84405,0.36451 -0.2824,1.25 -1.87493,1.47386 -3.62971,6.3857 -1.89924,5.31621 0.60893,-0.37633 1.10714,-0.29769 1.10714,0.17477 0,1.4978 -2.32989,3.25902 -4.31129,3.25902 -1.66996,0 -1.82037,-0.47351 -1.1912,-3.75 z m 15.81831,-1.11273 c 0.15893,-4.30076 0.49263,-5.04407 2.43418,-5.42198 1.2375,-0.24087 2.25,-0.0345 2.25,0.45857 0,0.49308 0.84083,0.44651 1.86851,-0.10349 2.02094,-1.08157 3.13149,-0.51546 3.13149,1.5963 0,0.73333 -0.8449,1.33333 -1.87756,1.33333 -2.17345,0 -3.75043,1.65523 -4.27632,4.48852 -0.203,1.09368 -1.1218,2.13347 -2.04179,2.31065 -1.40168,0.26994 -1.64285,-0.48539 -1.48851,-4.6619 z m 17.31178,4.157 c -1.2841,-1.2841 -0.55807,-4.26358 1.67017,-6.85406 1.67886,-1.95179 3.45754,-2.76965 6.60354,-3.03637 4.10662,-0.34817 4.27805,-0.25462 3.70649,2.02265 -0.3296,1.31324 -0.90267,3.17833 -1.27348,4.14465 -0.46048,1.19999 -0.30333,1.52774 0.49574,1.03389 1.5699,-0.97026 1.50115,0.88298 -0.0801,2.1581 -1.37797,1.11121 -10.12464,1.5289 -11.1224,0.53114 z m 6.1724,-3.49427 c 0.66,-0.66 1.2,-2.0651 1.2,-3.12244 0,-1.52913 -0.28479,-1.6861 -1.39194,-0.76725 -1.54266,1.2803 -2.82584,5.08969 -1.71444,5.08969 0.38851,0 1.24638,-0.54 1.90638,-1.2 z m 31.45866,-0.79283 c 0.19302,-3.9932 0.59171,-4.99426 1.99134,-5 2.72051,-0.0112 3.26344,0.14085 3.07712,0.86147 -1.4931,5.77478 -1.54338,6.38305 -0.47297,5.7215 0.63022,-0.3895 1.14585,-0.32162 1.14585,0.15084 0,1.46228 -2.31075,3.25902 -4.19134,3.25902 -1.51482,0 -1.75408,-0.77071 -1.55,-4.99283 z m 15.4994,4.41756 c -0.3164,-0.3164 -0.16563,-2.00364 0.33506,-3.74943 0.583159,-2.03336 0.553519,-3.29308 -0.0825,-3.50508 -0.54604,-0.18201 -0.28293,-1.0408 0.584679,-1.90841 0.86767,-0.86767 1.38349,-2.59227 1.14635,-3.83275 -0.33648,-1.7602 0.10463,-2.35769 2.00943,-2.72181 2.19864,-0.4203 2.39866,-0.1811 2.01792,2.4131 -0.23246,1.58381 0.0192,2.87965 0.55915,2.87965 0.53998,0 0.30051,0.7875 -0.53217,1.75 -2.24111,2.59053 -2.9582,6.24947 -1.08381,5.5302 1.2776,-0.49026 1.2981,-0.26956 0.14627,1.57481 -1.26906,2.03209 -3.8452,2.82493 -5.100409,1.56972 z m 15.284969,-0.87288 c -2.80487,-3.37966 4.29023,-10.53301 8.97306,-9.04674 1.09115,0.34632 1.98391,1.24882 1.98391,2.00557 0,1.77865 -3.87794,4.48932 -6.42251,4.48932 -1.56043,0 -1.71915,0.25835 -0.75253,1.22496 0.96661,0.96661 1.6415,0.96483 3.2,-0.009 2.16962,-1.35495 2.67695,-0.3184 0.77504,1.58351 -1.65537,1.65537 -6.30052,1.50677 -7.75697,-0.24815 z m 6.33852,-6.10379 c 0.3415,-0.88992 0.17385,-1.29132 -0.39301,-0.94098 -0.5437,0.33602 -0.98854,1.0344 -0.98854,1.55194 0,1.43843 0.71676,1.12146 1.38155,-0.61096 z m 12.61845,5.45732 c 0,-2.15427 0.0553,-2.16529 2.00613,-0.39983 2.81091,2.54384 3.80501,0.98678 1.16448,-1.82394 -1.19384,-1.27078 -2.17061,-2.77498 -2.17061,-3.34266 0,-1.27851 6.76424,-8.33895 7.98912,-8.33895 2.46338,0 1.76023,2.20194 -1.08521,3.39835 -3.01537,1.26787 -3.08871,1.40822 -1.07052,2.04877 2.30826,0.73261 2.8074,2.03881 1.16661,3.05288 -0.55,0.33992 -1,0.14148 -1,-0.44098 0,-0.58246 -0.75344,-1.05902 -1.67432,-1.05902 -1.40245,0 -1.30657,0.39144 0.59051,2.41079 3.28512,3.49686 2.42855,6.01776 -2.17451,6.39958 -3.28966,0.27287 -3.74168,0.0427 -3.74168,-1.90499 z m -46.925859,-10.85956 c -1.57851,-0.97557 -0.56923,-3.04582 1.48487,-3.04582 1.52001,0 2.00308,2.53458 0.64324,3.375 -0.43876,0.27117 -1.39641,0.12304 -2.12811,-0.32918 z m -217.57414,-8.04582 c 0.85498,-1.3834 279.145009,-1.3834 279.999999,0 0.4109,0.66486 -46.50929,1 -139.999999,1 -93.49072,0 -140.41091,-0.33514 -140,-1 z m 194.07143,-5.57143 c -2.20939,-2.20938 -1.95311,-6.39339 0.55514,-9.0633 l 2.12657,-2.26363 -2.87657,-0.67928 c -11.33275,-2.67613 -16.71907,-15.45717 -11.12657,-26.40192 3.00971,-5.89014 6.50339,-8.2556 12.95853,-8.7738 4.34699,-0.34896 5.89977,-0.007 8.69952,1.91429 5.36571,3.68269 7.19538,6.8882 7.81178,13.68597 l 0.55794,6.1531 h -10.13888 c -8.23745,0 -10.13889,0.27471 -10.13889,1.46482 0,0.80565 0.94579,1.97099 2.10177,2.58965 2.18631,1.17008 10.10834,0.87841 13.14823,-0.48408 1.52635,-0.68412 1.75,-0.19803 1.75,3.80357 0,4.18071 -0.24409,4.64566 -2.75,5.23823 -3.78684,0.89547 -7.25,4.26889 -7.25,7.06212 0,2.4336 2.6863,3.23939 4.55836,1.36733 0.61114,-0.61114 1.49878,-0.60462 2.45,0.018 1.2521,0.81957 1.04108,1.37493 -1.31413,3.45836 -3.25402,2.87853 -8.70832,3.32505 -11.1228,0.91057 z m 7.53847,-35.67857 c -1.44745,-3.94449 -9.1099,-3.21067 -9.1099,0.87245 0,0.98521 1.41489,1.37755 4.96777,1.37755 4.72974,0 4.92822,-0.10781 4.14213,-2.25 z m -194.6099,23.81901 c -0.55,-0.21674 -2.21593,-0.66159 -3.70206,-0.98856 -2.6167,-0.57571 -2.68335,-0.7601 -2.10988,-5.83747 0.32569,-2.88364 0.70448,-5.38085 0.84177,-5.54936 0.13728,-0.16851 2.54589,0.44469 5.35248,1.36268 6.27803,2.05344 11.70432,1.32147 12.66602,-1.70857 0.86265,-2.71797 -1.61858,-5.00903 -7.93245,-7.32446 -2.68626,-0.98512 -6.28626,-3.04394 -8,-4.57516 -2.88424,-2.57708 -3.11588,-3.26848 -3.11588,-9.30042 0,-5.835632 0.30451,-6.834202 2.91494,-9.558912 4.63728,-4.84027 13.41673,-6.66998 22.83506,-4.75902 3.55685,0.72168 3.75,0.96035 3.75,4.63377 0,5.92462 -0.71474,7.095432 -3.65018,5.97938 -1.36401,-0.5186 -4.68489,-0.94291 -7.37974,-0.94291 -3.75508,0 -5.1325,0.43496 -5.89615,1.861862 -1.45846,2.72515 0.49892,4.61413 6.92607,6.68405 3.15272,1.01537 6.88702,3.15468 8.75,5.01271 2.92823,2.92047 3.24963,3.82057 3.24626,9.09138 -0.007,10.73131 -5.14468,15.42764 -17.49626,15.99278 -3.85,0.17616 -7.45,0.14296 -8,-0.0738 z m 88.80447,-1.46638 c -4.40712,-2.76793 -6.07147,-8.33119 -3.98579,-13.32292 2.06175,-4.93445 5.34601,-6.812 13.30586,-7.60673 6.57169,-0.65612 6.69385,-0.71953 4.87767,-2.53185 -1.48291,-1.47977 -2.89677,-1.76133 -6.93252,-1.38055 -2.78833,0.26309 -5.85719,0.81023 -6.81969,1.21587 -1.51692,0.6393 -1.75,0.1372 -1.75,-3.76972 v -4.50725 l 5.08596,-1.2201 c 9.44296,-2.26533 17.74514,0.20169 20.56362,6.11056 0.63227,1.32553 1.32771,8.14756 1.54542,15.16006 l 0.39585,12.75 h -5.29543 c -4.26078,0 -5.29542,-0.32336 -5.29542,-1.65499 0,-1.49974 -0.1838,-1.48865 -1.95942,0.11827 -3.01736,2.73067 -9.89649,3.05086 -13.73611,0.63935 z m 12.86679,-8.75761 c 3.54328,-3.20663 1.79494,-5.93578 -3.11212,-4.85801 -3.27852,0.72009 -4.64651,3.10033 -2.95395,5.13974 1.52688,1.83978 3.84056,1.73232 6.06607,-0.28173 z m 116.24718,9.68613 c -5.57708,-2.25616 -10.04419,-11.78722 -9.16798,-19.56088 1.35193,-11.99429 10.32341,-18.548632 19.113839,-13.96411 1.57537,0.82162 3.01967,1.49384 3.20956,1.49384 0.18989,0 0.47595,-3.7125 0.63569,-8.250002 l 0.29045,-8.25 5.75,-0.2999 5.75,-0.2999 v 24.549902 24.5499 h -5.5 c -4.03295,0 -5.5,-0.37135 -5.5,-1.3922 0,-1.09979 -0.77954,-0.99477 -3.71145,0.5 -3.93409,2.00571 -7.455229,2.30481 -10.870109,0.92335 z m 11.581559,-11.03115 c 2.58557,-2.58557 2.67469,-8.94522 0.16871,-12.03997 -1.42659,-1.76177 -2.42884,-2.11156 -4.53536,-1.58285 -6.494629,1.63004 -5.547209,15.62282 1.05778,15.62282 0.71988,0 2.20887,-0.9 3.30887,-2 z m -192.863759,7.75 c -1.49587,-4.77159 -8.13624,-29.33595 -8.13624,-30.09794 0,-0.35863 2.62466,-0.65206 5.83259,-0.65206 h 5.83259 l 1.83482,10 c 1.00914,5.5 2.10991,10 2.44615,10 0.33624,0 1.50613,-4.3875 2.59976,-9.75 l 1.98842,-9.75 6.70249,-0.295 c 6.2819,-0.27648 6.7357,-0.15098 7.23173,2 0.29109,1.26225 1.36052,6.12 2.37652,10.795 l 1.84727,8.5 1.24735,-6 c 0.68605,-3.3 1.69256,-8.1375 2.2367,-10.75 l 0.98934,-4.75 h 5.48452 c 4.74944,0 5.41671,0.23455 4.97856,1.75 -0.27828,0.9625 -2.39596,8.6125 -4.70595,17 l -4.19998,15.25 h -6.34239 c -5.75028,0 -6.39291,-0.21005 -6.88355,-2.25 -0.29764,-1.2375 -1.37675,-6.075 -2.39803,-10.75 -1.02129,-4.675 -2.09812,-7.825 -2.39298,-7 -0.29485,0.825 -1.52467,5.6625 -2.73292,10.75 l -2.19683,9.25 h -6.31054 c -6.24392,0 -6.32129,-0.0343 -7.3294,-3.25 z m 83.86376,-13.75 v -17 h 5 c 4.40426,0 5,0.24889 5,2.0889 0,2.00111 0.13193,1.97787 3.13964,-0.55295 4.37547,-3.68171 9.21999,-3.26424 9.68844,0.83488 0.63055,5.51757 -0.52975,7.62917 -4.19215,7.62917 -5.63063,0 -7.00884,2.59585 -7.46967,14.069 l -0.39888,9.931 h -5.38369 -5.38369 z m 24,12.04445 c 0,-4.66831 0.372,-5.37833 6.41828,-12.24999 l 6.41828,-7.29446 -6.41828,-0.29569 -6.41828,-0.29569 v -4.45431 -4.45431 h 13 13 v 5.13695 c 0,4.91804 -0.28083,5.45073 -6.5899,12.5 l -6.5899,7.36305 h 7.0899 7.0899 v 4.5 4.5 h -13.5 -13.5 z m 101.999999,0.32486 c 0,-4.28465 0.49902,-5.20005 6.67794,-12.25 l 6.67794,-7.61931 -6.17794,-0.29771 -6.17794,-0.29772 v -4.45228 -4.45229 h 13 13 l -0.004,4.75 c -0.004,4.40604 -0.47412,5.29311 -6.49452,12.25 l -6.4904,7.5 6.49453,0.29569 6.49453,0.29569 v 4.45431 4.45431 h -13.5 -13.5 z M -286.85408,93.660748 c 12.232,-10.47478 36.733,-21.14618 61.33613,-26.7149 6.3428,-1.43565 6.0093,-1.46396 -13.79012,-1.17064 -11.15957,0.16533 -19.70957,-0.012 -19,-0.39407 6.00141,-3.23143 46.5728,-4.3461 62.97074,-1.73008 4.77435,0.76167 8.4681,1.04098 8.20835,0.62068 -0.53389,-0.86384 13.51429,-0.0439 21.11103,1.23212 3.58695,0.60252 1.75,0.71621 -6.5,0.40232 l -11.5,-0.43755 8.60724,2.42798 c 11.88441,3.35242 24.89974,8.72721 34.39276,14.20276 9.02584,5.20608 19.42694,12.47212 19.47085,13.60202 0.016,0.4125 -4.24296,0.75 -9.46442,0.75 h -9.49357 l -6.75643,-6.79614 c -10.01367,-10.07251 -24.27692,-16.64884 -45.01025,-20.75279 -11.29557,-2.23584 -17.16716,-2.17414 -28.02343,0.29446 -21.5775,4.90649 -35.32419,11.30112 -45.06535,20.9633 l -6.34259,6.29117 -9.15741,-0.0406 -9.1574,-0.0406 z m 127.08613,-26.87164 c 0.6875,-0.27741 1.8125,-0.27741 2.5,0 0.6875,0.27741 0.125,0.50439 -1.25,0.50439 -1.375,0 -1.9375,-0.22698 -1.25,-0.50439 z"
       id="path1" />
  </g>
</svg>
