<svg
   version="1.1"
   id="svg1"
   width="606.89343"
   height="96.83876"
   viewBox="0 0 606.89343 96.83876"
   xmlns="http://www.w3.org/2000/svg"
   xmlns:svg="http://www.w3.org/2000/svg">
  <defs
     id="defs1" />
  <g
     id="g1"
     transform="translate(-78.548602,220.7935)">
    <path
       style="fill:#000000"
       d="m 78.548602,-124.81243 c 0,-0.60002 1.43639,-1.83374 3.19199,-2.74159 1.75559,-0.90785 5.50034,-3.83379 8.32167,-6.50208 4.59044,-4.34145 6.06824,-5.08165 14.058008,-7.04139 11.76256,-2.88515 29.23405,-3.10967 37.88562,-0.48687 7.74952,2.34934 15.00342,6.06102 20.26732,10.37039 l 4.22461,3.45854 4.27539,-3.66444 c 9.29252,-7.96463 21.96533,-12.02738 37.27539,-11.95005 17.22638,0.087 28.96331,3.35337 35.32198,9.83001 2.37709,2.42119 5.60725,4.93454 7.17814,5.58522 2.63745,1.09247 4.93801,3.99995 3.16498,3.99995 -0.42467,0 -5.44512,-1.5737 -11.15655,-3.49712 -5.71143,-1.92342 -13.94956,-4.17342 -18.30695,-5 -16.15511,-3.06457 -34.02935,-1.21761 -42.94692,4.43774 -4.17374,2.64691 -4.79476,2.76368 -9.6221,1.8092 -3.6476,-0.72122 -6.81862,-0.68732 -10.81693,0.11566 -4.60952,0.92572 -5.94892,0.87977 -7.2361,-0.24823 -5.41854,-4.74848 -16.3755,-7.62231 -29.01321,-7.6097 -12.16445,0.0121 -20.09843,1.74049 -44.316338,9.65389 -0.9625,0.3145 -1.75,0.0809 -1.75,-0.51913 z m 506.944118,-12.98648 c -2.14316,-1.73542 -2.84776,-5.24014 -1.82131,-9.05925 0.29723,-1.10591 -0.86425,-1.35449 -5.47882,-1.17259 -9.92853,0.39136 -13.68224,-2.56507 -13.61219,-10.72104 0.0575,-6.69937 3.71947,-9.17789 14.9042,-10.08768 l 7.564,-0.61527 -0.11245,-3.7318 c -0.1889,-6.2689 -1.60282,-7.09907 -11.08355,-6.50759 -7.55294,0.47121 -8.29271,0.35031 -8.86367,-1.44861 -0.78692,-2.47937 -0.4481,-2.78977 4.23045,-3.87559 8.85534,-2.05518 18.00041,-0.28784 20.24873,3.91319 0.64019,1.19621 1.08049,8.31206 1.08049,17.46221 0,12.72136 -0.27289,15.66978 -1.54826,16.72824 -0.85154,0.70672 -1.41404,2.22432 -1.25,3.37244 0.22976,1.60808 0.91247,2.02412 2.97262,1.81152 1.9956,-0.20595 2.84762,0.2699 3.35701,1.87484 0.43182,1.36053 0.18403,2.46678 -0.67436,3.01068 -2.32689,1.47439 -7.53286,0.97353 -9.91289,-0.9537 z m -0.69644,-15.7758 c 1.94068,-0.57002 3.09452,-3.9301 2.5852,-7.52832 -0.30019,-2.12078 -0.90684,-2.38144 -6.17792,-2.65445 -7.60875,-0.39409 -10.90892,1.52712 -10.46373,6.0915 0.50075,5.13389 5.52655,6.5967 14.05645,4.09127 z m -314.24768,4.69986 c -1.9775,-0.57011 -2.45717,-1.30619 -2.29509,-3.5219 0.1127,-1.54063 0.35409,-2.95033 0.53643,-3.13266 0.18233,-0.18233 2.71138,0.36612 5.62012,1.21879 6.58175,1.92939 11.37525,1.1417 14.09521,-2.31616 2.35916,-2.99919 2.49474,-4.24311 0.85477,-7.84246 -0.83164,-1.82524 -3.6519,-3.78431 -9.39144,-6.52368 -10.57545,-5.04746 -13.42,-8.31247 -13.42,-15.40369 0,-6.16284 2.40063,-9.99193 7.63578,-12.17931 3.95232,-1.65138 14.82482,-1.81142 19.20994,-0.28276 2.74122,0.9556 3.06271,1.43618 2.50855,3.75 -0.34959,1.45967 -0.68542,2.72955 -0.74629,2.82195 -0.0609,0.0924 -2.58507,-0.48664 -5.60933,-1.28678 -9.57026,-2.53203 -15.99865,0.25831 -15.99865,6.94446 0,4.2874 2.41365,6.4841 12.17443,11.08009 5.55059,2.61357 8.24884,4.54301 9.75,6.97195 4.18335,6.76879 1.49435,16.29587 -5.41421,19.18245 -3.57842,1.49516 -15.06541,1.80115 -19.51022,0.51971 z m 43.68042,0.17011 c -0.24069,-0.4125 -2.75745,-8.06532 -5.59281,-17.00626 -2.83535,-8.94095 -5.41313,-16.92845 -5.72839,-17.75 -0.44031,-1.14745 0.22816,-1.49374 2.88349,-1.49374 h 3.45668 l 3.91346,13.07091 c 2.1524,7.189 4.3422,13.0659 4.86622,13.05977 0.52401,-0.006 2.54582,-5.77555 4.49291,-12.82092 l 3.54015,-12.80976 3.67706,-0.30638 3.67706,-0.30638 4.31688,13.5314 c 2.37428,7.44227 4.62405,13.54264 4.99948,13.55638 0.82879,0.0303 0.97138,-0.46499 4.38288,-15.22502 2.68742,-11.62727 2.74565,-11.75 5.57515,-11.75 1.63547,0 2.84761,0.53504 2.8319,1.25 -0.0151,0.6875 -1.95573,8.9 -4.31251,18.25 l -4.28505,17 h -3.84566 -3.84565 l -4.41247,-13.87937 c -2.42685,-7.63366 -4.76218,-13.48366 -5.18961,-13 -0.42743,0.48365 -2.00148,5.37937 -3.49787,10.87937 -4.71958,17.34681 -4.30376,16.5 -8.10226,16.5 -1.84988,0 -3.56035,-0.3375 -3.80104,-0.75 z m 52.31958,-17.75 v -18.5 h 2.5 2.5 v 18.5 18.5 h -2.5 -2.5 z m 20.29903,16.9969 c -3.23265,-2.26424 -4.71747,-7.69898 -3.28734,-12.03232 1.65666,-5.01973 4.64497,-6.56163 13.95345,-7.19964 l 8.03486,-0.55073 v -3.78567 c 0,-6.05293 -1.91984,-7.1924 -11.4224,-6.77951 -7.60135,0.33028 -8.09546,0.22582 -8.38047,-1.77175 -0.37677,-2.64062 1.34795,-3.35684 9.80287,-4.07082 7.923,-0.66906 13.50835,1.2702 15.00636,5.21027 0.5465,1.43741 0.99364,9.33417 0.99364,17.54837 v 14.9349 h -2.41667 c -1.32916,0 -2.6024,-0.55721 -2.82941,-1.23824 -0.32811,-0.98432 -0.97004,-0.98432 -3.13039,0 -3.8194,1.74024 -13.69047,1.58008 -16.3245,-0.26486 z m 16.93256,-4.62084 c 1.28585,-0.68817 1.76841,-2.16479 1.76841,-5.41124 v -4.46482 h -6.5 c -5.16667,0 -6.91026,0.41026 -8.5,2 -2.27859,2.27859 -2.43685,3.31523 -0.93463,6.12215 1.99429,3.72637 8.88626,4.57965 14.16622,1.75391 z m 24.1734,4.0203 c -1.63041,-1.80042 -1.95517,-4.03458 -2.2531,-15.5 -0.32164,-12.37731 -0.49279,-13.39636 -2.25,-13.39636 -2.63911,0 -2.55545,-4.01633 0.0981,-4.71025 1.61628,-0.42267 2,-1.36402 2,-4.90638 0,-3.11731 0.40963,-4.38337 1.41821,-4.38337 0.78002,0 2.10381,-0.26309 2.94175,-0.58464 1.21278,-0.46538 1.58642,0.40152 1.83179,4.25 l 0.30826,4.83464 5.31242,0.30442 c 4.82434,0.27646 5.28371,0.50615 5,2.5 -0.26971,1.89546 -1.03006,2.2369 -5.56242,2.49784 l -5.25,0.30226 v 11.37631 c 0,13.38613 0.86433,15.11629 7.05685,14.12607 3.23962,-0.51804 3.78696,-0.31216 4.29063,1.61388 0.7747,2.96245 -0.77395,3.74566 -7.44249,3.76391 -4.42889,0.0121 -5.99206,-0.42314 -7.5,-2.08833 z m 46.04532,0.83475 c -0.2678,-0.69789 -0.36618,-12.28539 -0.21861,-25.75 l 0.2683,-24.48111 3.21967,-0.3111 3.21966,-0.31109 0.28034,12.81109 0.28033,12.8111 9.41579,-12.34501 c 5.17869,-6.78975 9.97817,-12.56081 10.66553,-12.82457 0.68735,-0.26376 2.41274,-0.33351 3.83419,-0.15499 2.48755,0.3124 2.26574,0.72778 -5.91553,11.07782 -4.67499,5.91428 -8.49998,11.18964 -8.49998,11.72302 0,0.53337 3.825,7.00461 8.5,14.38052 4.675,7.37592 8.5,13.68806 8.5,14.02698 0,0.33893 -1.6875,0.60398 -3.75,0.58901 -3.70318,-0.0269 -3.837,-0.17045 -10.7188,-11.5 -3.83284,-6.31003 -7.28768,-11.47278 -7.67742,-11.47278 -0.38974,0 -1.64128,1.18569 -2.7812,2.63486 -1.74277,2.21557 -2.07258,4.04557 -2.07258,11.5 v 8.86514 h -3.03138 c -1.66727,0 -3.2505,-0.571 -3.51831,-1.26889 z m 40.29969,0.57956 c -1.80275,-0.4711 -2.18643,-2.00979 -1.16492,-4.67178 0.45181,-1.1774 1.14997,-1.30992 3.0651,-0.58179 3.89177,1.47965 10.02353,1.12633 11.83161,-0.68175 3.02614,-3.02614 1.47132,-5.6523 -5.32817,-8.99951 -8.51927,-4.19381 -10.60817,-6.42377 -10.60817,-11.32452 0,-7.27282 7.15088,-11.74001 16.69814,-10.43141 6.05781,0.83031 7.00519,1.54068 6.22111,4.66473 -0.57311,2.28343 -0.948,2.48211 -3.12309,1.65514 -3.78174,-1.43782 -10.92702,-1.14425 -12.29593,0.50518 -2.57904,3.10755 -0.81079,5.92709 5.68257,9.06107 9.1657,4.42377 10.72805,6.42743 10.3869,13.32089 -0.0633,1.27981 -1.43053,3.64231 -3.03823,5.25 -2.69169,2.6917 -3.46348,2.9139 -9.75,2.80708 -3.7548,-0.0638 -7.61442,-0.3218 -8.57692,-0.57333 z m 33.25,-17.81067 v -18.5 h 3 3 v 18.5 18.5 h -3 -3 z m 54.60374,16.90976 c -0.7337,-1.91201 -1.28883,-0.95147 9.58258,-16.58072 4.84752,-6.96903 8.81368,-12.93153 8.81368,-13.25 0,-0.31847 -4.09814,-0.57904 -9.10699,-0.57904 -7.89354,0 -9.02611,-0.21076 -8.5,-1.58179 0.33385,-0.86998 0.60699,-1.99498 0.60699,-2.5 0,-0.50864 5.5756,-0.91821 12.5,-0.91821 12.02722,0 12.5,0.0793 12.5,2.09761 0,1.15368 -3.82994,7.65475 -8.51098,14.44682 -4.68104,6.79207 -8.77918,13.04814 -9.10699,13.90239 -0.5104,1.3301 0.64019,1.55318 8.01098,1.55318 8.51412,0 8.60699,0.027 8.60699,2.5 v 2.5 h -12.39301 c -10.40609,0 -12.49085,-0.25496 -13.00325,-1.59024 z m 37.39626,-24.29626 v -25.8865 l 2.97714,-0.43695 2.97715,-0.43696 0.27285,17.07346 0.27286,17.07345 7.43668,-8.75 c 7.01876,-8.25828 7.65787,-8.75 11.37257,-8.75 h 3.93589 l -6.62257,7.39956 c -3.64241,4.06975 -6.62257,7.89496 -6.62257,8.50047 0,0.6055 2.95976,5.3757 6.57725,10.60044 l 6.57726,9.49953 h -3.55475 c -3.31279,0 -3.94044,-0.55042 -9.22093,-8.08624 l -5.66617,-8.08624 -2.32037,2.83624 c -1.75658,2.14712 -2.3291,4.11184 -2.35633,8.08624 -0.0353,5.15867 -0.0882,5.25 -3.03596,5.25 h -3 z m 40,7.3865 v -18.5 h 2.5 2.5 v 18.5 18.5 h -2.5 -2.5 z m -555.36461,5.75 c -4.18829,-11.07701 -2.86421,-27.06472 3.08174,-37.21072 12.50486,-21.33792 37.71511,-28.86314 59.69364,-17.81846 19.81919,9.95958 29.55486,35.86383 21.09153,56.11944 -2.08814,4.99761 -3.5156,4.63155 -2.3018,-0.59026 0.54335,-2.3375 0.76309,-7.73716 0.48832,-11.99924 -1.94163,-30.11695 -35.67682,-47.64036 -60.86227,-31.61433 -13.68632,8.70889 -21.61332,25.74636 -18.87386,40.56547 1.25479,6.7878 1.27318,7.2981 0.26301,7.2981 -0.43137,0 -1.5925,-2.1375 -2.58031,-4.75 z m 241.36461,-34.75 c 0,-2.19048 0.43333,-2.5 3.5,-2.5 3.06667,0 3.5,0.30952 3.5,2.5 0,2.19048 -0.43333,2.5 -3.5,2.5 -3.06667,0 -3.5,-0.30952 -3.5,-2.5 z m 182,0 c 0,-2.11111 0.46667,-2.5 3,-2.5 2.53333,0 3,0.38889 3,2.5 0,2.11111 -0.46667,2.5 -3,2.5 -2.53333,0 -3,-0.38889 -3,-2.5 z m 66,0 c 0,-2.11111 0.46667,-2.5 3,-2.5 2.53333,0 3,0.38889 3,2.5 0,2.11111 -0.46667,2.5 -3,2.5 -2.53333,0 -3,-0.38889 -3,-2.5 z m 65,-0.0634 c 0,-2.2896 0.34708,-2.52989 3.25,-2.25 2.49095,0.24017 3.32463,0.83886 3.56955,2.56336 0.28018,1.97279 -0.12023,2.25 -3.25,2.25 -3.16438,4e-5 -3.56955,-0.29092 -3.56955,-2.56332 z m -403.23951,-11.10467 c -1.55744,-1.55744 -1.2566,-2.04869 4.53572,-7.4064 l 6.20379,-5.73831 2.1795,2.01448 2.17951,2.01448 -6.35569,5.39191 c -3.49563,2.96556 -6.51747,5.39192 -6.71522,5.39192 -0.19774,0 -1.11016,-0.75064 -2.02761,-1.66808 z"
       id="path1" />
  </g>
</svg>
