<svg id="SWIATKSIAZKI" width="500" height="101.68151" viewBox="0 0 500 101.68151" version="1.1" xml:space="preserve" xmlns:xlink="http://www.w3.org/1999/xlink" xmlns="http://www.w3.org/2000/svg" xmlns:svg="http://www.w3.org/2000/svg">
	<path id="SWIATKSIAZKI" style="fill:#000000;stroke:#000000;stroke-width:0" d="M 24.60503,4.4411084e-5 C 24.963919,-0.0179738 30.809938,5.5911556 30.796437,5.9460985 c -0.007,0.1850832 -1.156059,1.2643043 -2.553888,2.398373 -2.65034,2.1502385 -4.877251,3.9739895 -10.576751,8.6628865 -1.86798,1.536763 -3.565673,2.859005 -3.773206,2.938643 -0.207533,0.07964 -1.518419,-1.005188 -2.912619,-2.410764 L 8.4452929,14.979494 10.348625,13.192021 C 17.681447,6.3060726 24.412975,0.07455352 24.596976,0.00190333 24.599197,9.5166608e-4 24.60221,3.1722203e-4 24.605034,0 Z M 452.31201,22.936685 c 0.0471,0 0.0855,9.129837 0.0855,20.288579 v 20.288578 l 1.37237,-1.493173 c 0.75473,-0.821269 2.85668,-3.277548 4.67097,-5.458449 1.81429,-2.180902 3.38108,-4.03665 3.48198,-4.123887 0.10094,-0.08724 0.89264,-1.01511 1.759,-2.061943 0.86637,-1.046832 1.88116,-2.260207 2.25523,-2.696387 0.3741,-0.43618 1.41887,-1.685242 2.32156,-2.775693 l 1.64124,-1.982637 h 5.5235 c 3.03816,0 5.52414,0.0754 5.52414,0.167283 0,0.16343 -0.41832,0.652203 -3.64806,4.265152 -0.87236,0.975867 -2.37123,2.693517 -3.33083,3.817196 -0.95959,1.123677 -2.25469,2.617805 -2.87793,3.3203 -4.60435,5.189857 -6.94507,7.949282 -6.95037,8.19263 -0.007,0.325803 7.36057,11.071093 12.22418,17.828249 2.45372,3.409007 4.20535,6.140318 4.04211,6.303547 -0.10954,0.109525 -2.43588,0.199505 -5.1691,0.199505 h -4.969 l -4.0836,-6.069349 c -2.24593,-3.338258 -5.07552,-7.503107 -6.28743,-9.254582 l -2.2032,-3.183992 -0.61589,0.768274 c -0.33854,0.422603 -1.26607,1.525365 -2.06131,2.451035 -2.88916,3.362991 -2.64903,2.518758 -2.60468,9.168458 l 0.0396,5.961545 -4.15116,0.0886 -4.15114,0.0886 v -31.07599 c 0,-29.322196 0.0314,-31.084444 0.55514,-31.238316 0.30533,-0.08969 1.12614,-0.258609 1.82403,-0.374842 0.69788,-0.116236 2.26544,-0.480534 3.48325,-0.809782 1.21779,-0.329248 2.25272,-0.598509 2.29986,-0.598509 z m -429.782554,0.72738 c 2.836774,0.05994 5.631484,0.294233 7.169713,0.677815 8.144816,2.031033 8.574706,2.235067 7.937369,3.768249 -0.231401,0.556661 -0.744203,2.22576 -1.140017,3.708773 -0.395814,1.483013 -0.846142,2.863354 -1.000613,3.067511 -0.208161,0.275114 -0.707596,0.183012 -1.928736,-0.355634 -1.339035,-0.590649 -3.05201,-1.131474 -4.026614,-1.271366 -0.08724,-0.01253 -0.311433,-0.120078 -0.498137,-0.239157 -0.186704,-0.119082 -1.751576,-0.45732 -3.47767,-0.751543 -5.637645,-0.960973 -10.621076,-0.130229 -13.105235,2.185238 -1.449892,1.351435 -2.269502,3.490121 -2.269502,5.92251 0,5.126162 2.429064,7.348927 13.046375,11.938578 3.023757,1.30711 5.725718,2.58312 6.004914,2.83579 0.279197,0.252671 0.626492,0.459725 0.77137,0.459725 0.396727,0 3.471482,2.382496 4.597862,3.562552 1.378596,1.444296 3.055803,4.357854 3.638762,6.320897 0.781597,2.631924 0.655304,8.46027 -0.240398,11.087902 -2.205076,6.468782 -8.343257,10.417892 -16.971998,10.919376 -1.69138,0.0983 -3.431822,0.221871 -3.868002,0.27447 C 16.234058,87.888482 10.650852,87.222303 8.6039039,86.754074 5.3588051,86.011771 3.3031492,85.440483 2.1826353,84.9697 0.93122293,84.443917 0.87130921,84.197125 1.5766936,82.474676 c 0.201141,-0.491155 0.3655477,-0.987033 0.3655477,-1.101605 0,-0.438299 1.3810515,-4.680385 1.6084141,-4.940485 0.1314695,-0.150395 1.7862455,0.236936 3.6771743,0.86121 1.8909288,0.624274 3.8662673,1.211001 4.3896833,1.303583 0.523417,0.09258 1.847987,0.326589 2.943599,0.520444 1.856557,0.328496 5.204883,0.265499 7.603415,-0.143743 2.394868,-0.408617 4.416705,-1.918362 5.63255,-4.205051 1.104694,-2.077639 1.109452,-5.298778 0.01053,-7.659177 -0.426451,-0.915978 -0.888993,-1.669425 -1.027873,-1.674088 -0.138883,-0.0047 -0.85386,-0.559393 -1.58859,-1.232953 C 23.699641,62.835476 19.040617,60.464876 13.978711,58.497769 6.8403557,55.723739 1.8000592,51.113538 0.50421036,46.173198 -0.20678254,43.462584 -0.1566678,37.529393 0.59652514,35.277364 2.1819469,30.537001 5.4935769,27.19777 10.665847,25.123782 c 1.275401,-0.511413 1.189262,-0.489683 4.441109,-1.089833 1.706886,-0.315017 4.585726,-0.42982 7.4225,-0.369884 z m 224.699764,0.779424 c 0.12804,-0.0436 2.19791,-0.0367 4.59972,0.01548 l 4.36676,0.09479 -0.088,9.263255 c -0.0483,5.094731 -0.0483,11.670338 0,14.612658 l 0.088,5.350026 2.22055,-2.799237 c 1.22131,-1.539368 2.63653,-3.371147 3.14496,-4.070603 0.50843,-0.699455 1.04142,-1.419045 1.18463,-1.599123 1.30614,-1.642369 5.88861,-7.64854 9.32521,-12.222961 1.3763,-1.831957 3.07816,-4.051712 3.78189,-4.932431 0.70372,-0.880716 1.62221,-2.058403 2.04088,-2.617082 l 0.76082,-1.015482 h 5.35002 5.35063 l -2.62203,3.36119 c -1.44209,1.848808 -4.54914,5.812205 -6.90451,8.807251 -2.35538,2.995045 -4.67275,5.966505 -5.14991,6.60342 -0.47717,0.636919 -1.04817,1.349203 -1.26889,1.582393 -0.22072,0.233193 -0.82221,0.994789 -1.33643,1.692677 -0.51418,0.697889 -1.01381,1.340263 -1.11027,1.4275 -0.0964,0.08724 -0.84353,1.025591 -1.65984,2.085487 l -1.48388,1.927495 1.29428,2.03778 c 0.71181,1.121006 1.55112,2.416268 1.86555,2.877921 0.31443,0.461656 2.16653,3.38803 4.11583,6.503052 1.94933,3.115028 4.00506,6.377279 4.56812,7.24964 0.56307,0.87236 1.94708,3.013609 3.07557,4.75833 1.12851,1.744721 2.32697,3.671845 2.66354,4.282497 0.33658,0.610653 0.68885,1.181652 0.78253,1.268888 0.39357,0.366582 3.47767,5.439711 3.47767,5.720529 0,0.185736 -2.17938,0.30669 -5.52473,0.30669 h -5.52414 l -4.67655,-7.534023 c -2.57222,-4.143713 -5.01794,-8.105023 -5.43428,-8.802911 -2.56732,-4.303555 -6.72032,-10.770069 -6.95472,-10.82892 -0.15243,-0.03827 -1.45829,1.445879 -2.90209,3.298614 l -2.62513,3.368625 0.0254,10.170313 0.0254,10.169691 -4.45846,0.08798 c -2.4522,0.04841 -4.45936,0.04841 -4.46032,0 -0.14828,-8.349261 -0.0823,-62.447424 0.0762,-62.501412 z m 95.47389,2.134435 c 0.32556,-0.0083 0.57611,0.07697 0.58179,0.208796 0.006,0.150649 0.0168,1.879788 0.0235,3.842599 l 0.0124,3.568748 -4.40393,0.08736 c -2.42208,0.04821 -4.50236,-0.01107 -4.62329,-0.131968 -0.12089,-0.1209 -0.21993,-1.837369 -0.21993,-3.814722 v -3.595388 l 3.88597,-0.04027 c 2.13729,-0.02227 4.20716,-0.07472 4.59972,-0.115862 0.0491,-0.0051 0.0972,-0.0081 0.14373,-0.0093 z m 79.08247,0.0068 v 3.806664 3.806664 l -4.52042,0.08798 -4.52041,0.08798 v -3.81534 -3.815337 l 3.72736,-0.03779 c 2.05005,-0.02075 4.08423,-0.05643 4.52041,-0.07931 z m 68.99579,0 4.52041,0.05142 4.52042,0.05143 0.0892,3.834545 0.0886,3.834545 h -4.60901 -4.60962 v -3.88597 z m -372.41864,0.158611 h 4.44111 c 2.44261,0 4.52598,9.2e-5 4.62945,0 6.4e-4,0 0.002,2.5e-5 0.002,0 h 6.3e-4 c 0.10204,0.03859 0.19484,1.701249 0.20632,3.727358 l 0.0211,3.727359 -4.43057,0.08736 c -2.4368,0.04821 -4.52901,-0.01107 -4.64991,-0.131968 -0.1209,-0.120899 -0.21995,-1.837369 -0.21995,-3.814721 z m 79.44367,4.283737 c 0.15063,-0.0041 0.27118,0.04989 0.33953,0.16047 0.10955,0.177264 0.22523,2.782735 0.25712,5.789921 0.0435,4.107004 0.15691,5.477419 0.45477,5.507396 0.21809,0.02195 2.96602,0.05813 6.10652,0.07992 l 5.71,0.03965 v 3.648053 3.648054 h -6.20194 -6.20256 l 0.096,13.085408 c 0.10541,14.433739 0.14069,14.698464 2.13195,15.874733 1.17903,0.696483 4.04284,0.707957 7.73477,0.03036 1.53588,-0.28189 2.85172,-0.453701 2.92377,-0.381656 0.21487,0.21488 1.14276,6.328129 1.04026,6.853731 -0.0567,0.290953 -0.91949,0.733572 -2.15674,1.106559 -1.61469,0.486777 -3.23166,0.643621 -7.45471,0.723041 -5.70789,0.107348 -5.93343,0.08354 -7.9448,-0.824032 -1.65006,-0.744539 -2.75911,-1.866353 -3.68585,-3.730458 l -0.74101,-1.491315 -0.0985,-15.623185 -0.0979,-15.623184 h -2.83641 c -2.08457,0 -2.83579,-0.107155 -2.83579,-0.403964 0,-0.22209 0.35687,-1.810858 0.79305,-3.530332 0.43618,-1.719476 0.79306,-3.179228 0.79306,-3.244093 v -6.35e-4 -6.34e-4 c 8e-5,-2.54e-4 6.3e-4,-0.0016 6.3e-4,-0.0019 l 6.4e-4,-6.35e-4 c 0.0421,-0.06278 0.95321,-0.114003 2.0607,-0.114003 h 2.06194 v -4.910746 -4.911365 l 0.87236,-0.192687 c 0.4798,-0.106228 1.30061,-0.315877 1.82403,-0.465301 0.52342,-0.149421 1.66542,-0.368691 2.53778,-0.487605 0.87236,-0.118917 1.8273,-0.341157 2.12204,-0.493801 0.14301,-0.07406 0.27813,-0.112648 0.39529,-0.115859 z m -38.16516,9.716784 c 2.73669,0.05827 4.88893,0.432294 7.09785,1.135677 2.72548,0.867872 5.46506,3.256389 6.56686,5.724868 1.02387,2.293854 1.21965,6.288863 1.13135,23.074184 l -0.0849,16.178324 h -3.64806 c -2.68581,0 -3.65852,-0.104591 -3.6877,-0.396528 -0.0218,-0.21809 -0.0575,-0.740114 -0.0793,-1.159843 l -0.0397,-0.763315 -2.7757,1.222421 c -1.52663,0.672022 -3.70356,1.370704 -4.83763,1.553272 -2.76529,0.44517 -9.33077,0.375965 -11.10277,-0.1171 -3.77526,-1.050474 -6.53566,-3.167011 -7.99437,-6.130068 -1.03335,-2.099001 -1.04646,-2.18297 -1.04646,-6.573684 0,-3.911281 0.0827,-4.620929 0.68773,-5.880999 1.13219,-2.357987 3.07092,-4.291858 5.40888,-5.396492 3.18506,-1.504869 5.76261,-1.90271 13.68268,-2.112128 l 7.09041,-0.187732 -0.13011,-3.683366 c -0.10982,-3.110695 -0.2505,-3.922482 -0.90458,-5.22425 -1.07302,-2.135552 -2.81455,-2.999436 -6.55944,-3.253385 -3.15655,-0.214055 -9.58978,0.689219 -12.7087,1.784374 -0.99478,0.349299 -1.94642,0.670001 -2.11461,0.712509 -0.16818,0.04251 -0.77761,-1.556513 -1.35439,-3.553258 -0.84344,-2.919898 -0.96957,-3.704969 -0.64559,-4.011123 0.46559,-0.439981 5.66246,-1.964099 7.44418,-2.183382 4.54629,-0.559539 7.86732,-0.817253 10.60401,-0.758976 z m 214.56103,0.131967 c 4.35413,0.01386 5.41035,0.119143 7.43055,0.739772 3.48973,1.072086 5.92685,3.051929 7.37481,5.991902 l 0.73852,1.499991 0.0911,18.940385 0.0911,18.941007 -1.35996,0.620191 c -2.15273,0.981447 -3.48541,3.178387 -2.75526,4.542721 0.95483,1.784079 2.23708,1.987707 4.60159,0.730477 0.80952,-0.430423 1.50236,-0.74841 1.55762,-0.715609 v 0 6.34e-4 6.35e-4 6.34e-4 c 0.41823,0.527366 3.00619,6.231824 3.00619,6.626347 0,0.560661 -1.32805,1.46714 -3.17222,2.16541 -1.17201,0.44377 -7.173,0.93718 -7.55074,0.62082 -0.12185,-0.10202 -0.91246,-0.44049 -1.75713,-0.75155 -1.76283,-0.64917 -3.93057,-2.667018 -4.81597,-4.482616 -0.45778,-0.938755 -0.60761,-1.940155 -0.61151,-4.097246 -0.005,-2.713188 0.14304,-3.333334 1.3389,-5.620159 0.0655,-0.125211 -0.64072,0.01669 -1.56936,0.315984 -1.33078,0.428919 -2.86429,0.544591 -7.23974,0.545226 l -5.55138,6.34e-4 -2.42875,-1.159843 c -2.89459,-1.382292 -4.7864,-3.172902 -5.93056,-5.613342 -0.78401,-1.672252 -0.84007,-2.087784 -0.83642,-6.232918 0.004,-4.235206 0.0447,-4.519234 0.88353,-6.118296 1.3132,-2.503573 2.88285,-4.05294 5.22423,-5.159194 3.12093,-1.474569 6.0277,-1.927127 13.87352,-2.157979 l 6.97888,-0.205078 0.0948,-2.190815 c 0.11017,-2.542211 -0.28192,-4.656375 -1.24288,-6.700697 -0.95436,-2.030376 -2.74692,-2.906759 -6.50552,-3.180274 -3.19075,-0.232194 -9.57132,0.651346 -12.74338,1.765169 -0.99481,0.3493 -1.93886,0.670002 -2.09789,0.712509 -0.29346,0.07845 -0.67578,-1.003868 -1.76702,-4.998105 -0.46873,-1.715658 -0.52034,-2.299435 -0.22678,-2.566276 0.59289,-0.53889 5.78844,-1.934318 8.9448,-2.402709 1.57025,-0.233016 5.139,-0.416564 7.93055,-0.407681 z m -65.07944,0.298018 c 2.02857,0.07057 4.35304,0.289661 7.0619,0.643117 0.90814,0.118495 5.29435,1.494103 5.62078,1.762688 0.14427,0.118727 0.11566,0.768493 -0.0638,1.444226 -0.17948,0.675731 -0.57097,2.370617 -0.86989,3.766393 -0.29891,1.395777 -0.58124,2.587403 -0.62762,2.648062 v 6.35e-4 c -0.0587,0.05516 -0.92264,-0.207343 -1.92998,-0.587978 -3.28599,-1.241673 -4.95585,-1.599332 -8.37661,-1.794905 -2.69823,-0.154269 -3.67924,-0.08615 -4.98695,0.348201 -1.86311,0.618828 -3.10992,1.898374 -3.41014,3.498734 -0.6203,3.306478 1.99568,5.485191 10.64553,8.86549 5.1615,2.017088 7.90033,4.166175 9.35185,7.339477 0.68799,1.504134 0.79924,2.199021 0.79924,4.983235 0,2.724287 -0.13098,3.578696 -0.8296,5.407027 -1.49012,3.899566 -5.40066,6.970649 -9.98195,7.839473 -1.9598,0.371664 -8.86604,0.346822 -11.55878,-0.04151 -2.73432,-0.394326 -7.30213,-1.995574 -7.23913,-2.537776 0.0279,-0.241637 0.35313,-1.581279 0.72244,-2.977056 0.36928,-1.395777 0.70046,-2.87602 0.73542,-3.289319 0.0842,-0.995227 0.65281,-1.16817 1.90396,-0.578683 2.48886,1.172656 8.71368,2.275919 11.10401,1.967769 3.03626,-0.391417 4.06622,-0.836501 5.03654,-2.175946 0.687,-0.948402 0.90738,-1.60811 0.90579,-2.712496 -0.004,-2.992628 -1.86891,-4.530073 -8.68579,-7.162899 -8.35658,-3.227493 -11.58717,-6.292286 -12.13251,-11.50983 -0.44477,-4.255426 1.18359,-8.737779 4.14124,-11.39707 3.15516,-2.836892 6.57896,-3.960752 12.66471,-3.749041 z m 25.59272,0.63754 4.19948,0.09541 4.19949,0.09541 -0.0768,22.42735 -0.0762,22.42735 -4.10222,0.08798 c -2.25628,0.04859 -4.1493,-0.02278 -4.20627,-0.158611 -0.057,-0.135828 -0.0661,-10.310458 -0.0203,-22.610742 z m 156.38304,0 h 4.12389 4.12388 V 64.41345 87.01552 h -4.12388 -4.12389 V 64.41345 Z m -387.0028,0.09604 c 2.81024,-0.06081 4.4325,0.02014 4.42996,0.221186 -0.005,0.416363 -8.04803,32.315383 -10.717399,42.507752 l -0.58116,2.220554 H 92.214835 87.20248 L 85.470149,81.464155 C 84.517291,78.498129 82.450373,72.074383 80.877244,67.189164 79.304114,62.303945 77.695361,57.307698 77.302301,56.086393 l -0.714368,-2.220554 -0.563193,1.903332 c -0.557258,1.88408 -1.72781,6.104291 -3.651771,13.164714 -0.546752,2.00643 -1.32687,4.790053 -1.733571,6.18583 -0.406695,1.395777 -1.268936,4.4649 -1.916342,6.820273 -0.647402,2.355374 -1.230678,4.460935 -1.295531,4.679025 -0.08774,0.295058 -1.37381,0.396528 -5.025984,0.396528 -4.866836,0 -5.279278,-0.0839 -5.45907,-1.110277 -0.08153,-0.465406 -2.179791,-7.232317 -3.098492,-9.992494 -0.435536,-1.308541 -1.877834,-5.805163 -3.205056,-9.992494 -1.327222,-4.187331 -3.036566,-9.540452 -3.79861,-11.895826 -3.088112,-9.544963 -3.683972,-11.532785 -3.556976,-11.865468 0.09177,-0.240388 1.534568,-0.298553 4.66849,-0.188969 l 4.535904,0.158611 0.871124,2.696387 c 1.096763,3.395659 3.309618,10.565847 5.041473,16.336935 0.733008,2.442609 1.890653,6.183593 2.573093,8.313447 0.682442,2.129854 1.241007,4.116251 1.241007,4.414468 0,0.298201 0.09992,0.442826 0.221808,0.32094 0.21415,-0.214154 0.518195,-1.266278 2.621418,-9.067472 0.538494,-1.997366 1.463888,-5.351989 2.056988,-7.454717 1.810364,-6.418325 3.6199,-12.949384 3.983243,-14.37846 l 0.344484,-1.355629 5.114584,0.08674 5.114586,0.08736 0.237917,0.793055 c 0.675775,2.250944 3.641909,11.608486 4.424378,13.957769 0.493946,1.483013 1.64433,5.051761 2.556365,7.930551 0.912036,2.87879 1.738491,5.376913 1.836418,5.551385 0.09792,0.174473 0.216586,0.531347 0.263938,0.793055 0.167227,0.924221 1.000969,3.326514 1.045843,3.01361 0.02503,-0.174472 0.102812,-0.531347 0.172861,-0.793055 0.07005,-0.261708 0.557616,-2.331582 1.083633,-4.59972 0.526018,-2.268137 1.452579,-6.19376 2.058847,-8.723606 0.606269,-2.529845 1.685604,-7.097842 2.398992,-10.151104 0.713385,-3.053262 1.435217,-6.079113 1.604077,-6.724238 l 0.307309,-1.172856 z m 19.26318,0.06258 h 4.04458 l -0.0762,22.443458 -0.0762,22.443459 -4.12761,0.158611 c -2.64495,0.101635 -4.12909,0.04466 -4.13131,-0.158611 -0.0851,-7.629276 0.0484,-44.752139 0.16108,-44.807612 0.0886,-0.04362 1.98115,-0.0793 4.20567,-0.0793 z m 278.1244,0 h 15.78179 15.7818 v 2.43059 c 0,2.191328 -0.1004,2.589629 -1.02044,4.044581 -0.56132,0.887635 -1.09664,1.685366 -1.18958,1.772602 -0.093,0.08724 -0.75255,1.01511 -1.46592,2.061943 -1.84125,2.701983 -4.60625,6.728511 -6.58917,9.595966 -0.93505,1.352159 -2.47875,3.60047 -3.43057,4.996247 -3.46587,5.082265 -6.10659,8.885833 -6.2763,9.040828 -0.0955,0.08724 -0.70998,0.979423 -1.36555,1.982638 l -1.19205,1.824026 h 10.63065 10.63004 v 3.648054 3.648053 h -15.87103 c -12.41823,0 -15.89828,-0.08626 -15.99678,-0.396528 -0.0693,-0.21809 -0.28083,-1.344361 -0.46964,-2.503078 -0.33004,-2.025688 -0.22599,-3.127613 0.29492,-3.127613 0.13545,0 0.32883,-0.249812 0.42999,-0.555138 0.10116,-0.305326 1.39673,-2.268138 2.87854,-4.361803 1.48181,-2.093665 3.63067,-5.162789 4.77568,-6.820274 1.14501,-1.657485 3.02982,-4.369733 4.18832,-6.027218 1.15852,-1.657485 3.02388,-4.356712 4.14558,-5.998098 1.12167,-1.641383 2.81224,-4.086752 3.75648,-5.434286 0.94424,-1.347531 1.71684,-2.531346 1.71684,-2.630713 0,-0.09936 -4.80912,-0.191215 -10.68705,-0.20384 -5.87791,-0.01263 -10.75434,-0.08962 -10.83634,-0.171621 -0.082,-0.08199 0.19481,-1.648923 0.61522,-3.482009 z m -235.53734,26.012206 -5.7893,0.0019 c -3.18412,9.51e-4 -6.3603,0.150366 -7.05819,0.332093 -2.82421,0.735403 -4.66414,2.063536 -5.22859,3.773825 -0.50085,1.517587 -0.25898,4.088951 0.50682,5.385339 0.60803,1.029316 2.50389,2.220951 4.40455,2.768257 v -6.34e-4 c 2.79004,0.803409 7.56997,0.205845 10.86485,-1.358726 l 2.29986,-1.092309 v -4.90517 z m 210.31819,0.06196 c -6.36985,-0.110466 -8.55919,0.22033 -10.65482,1.608417 -1.639,1.085613 -2.35129,2.48336 -2.35129,4.612729 0,2.952686 1.77746,4.982888 5.23417,5.978271 2.85937,0.823375 7.78964,0.180058 11.02781,-1.43865 l 2.29551,-1.147452 v -4.75833 -4.758331 z" />
</svg>
