<svg id="VANGRAAF" width="500" height="46.881306" viewBox="0 0 500 46.881306" version="1.1" xml:space="preserve" xmlns:xlink="http://www.w3.org/1999/xlink" xmlns="http://www.w3.org/2000/svg" xmlns:svg="http://www.w3.org/2000/svg">
	<path id="VANGRAAF" style="fill:#000000;stroke:#000000;stroke-width:0" d="m 50.90685,1.0932222 c 0,0 -18.737405,32.5847478 -19.728887,34.2712288 C 30.228887,33.635564 12.186444,1.0932222 12.186444,1.0932222 H 0 L 26.449076,45.788155 h 9.067959 L 62.550924,1.0932222 Z m 114.61852,0 V 35.449083 C 163.6187,33.593157 130.20333,1.0932222 130.20333,1.0932222 H 117.52537 V 45.788155 h 10.38148 V 11.423722 c 1.90667,1.847463 35.70333,34.372951 35.70333,34.372951 h 12.29667 V 1.0932222 Z M 70.889815,31.610192 c 1.550924,-2.567778 11.483146,-19.347488 12.262777,-20.669507 0.771112,1.313556 10.728706,18.110246 12.245741,20.669507 z M 87.694998,1.0932222 H 79.389815 L 50.677963,45.796673 h 11.762776 c 0,0 3.923705,-6.483146 4.305002,-7.169627 h 32.779631 c 0.398332,0.677963 4.296668,7.169627 4.296668,7.169627 h 11.77111 z M 202.32149,23.449076 c 0,13.80519 14.74629,23.432229 35.8572,23.432229 7.25263,0 18.18593,-1.237224 25.03262,-3.957594 l 0.53461,-0.211852 v -22.77112 h -24.92388 v 7.381305 h 14.5415 v 10.152592 c -3.82204,1.27963 -9.3639,2.025371 -15.36426,2.025371 -13.87278,0 -24.72817,-7.050924 -24.72817,-16.050931 0,-9.305002 10.07612,-16.0507614 23.98333,-16.0507614 7.27075,0 13.09351,1.4406669 17.84705,4.4237224 l 0.35701,0.220333 7.84705,-5.5254255 -1.23777,-0.8474447 C 256.35556,1.8050924 248.46684,0 237.25444,0 217.00797,0.00906125 202.32149,9.8644074 202.32149,23.449076 Z m 82.66945,-3.508337 V 8.1186481 h 10.93331 c 8.97426,0 13.34723,1.9322039 13.34723,5.9067779 0,3.966093 -4.38203,5.906796 -13.34723,5.906796 h -10.93331 z m 20.12686,6.016862 c 8.78035,-1.203342 15.09423,-5.940566 15.09423,-11.923694 0,-3.889833 -2.13664,-12.9322035 -21.78869,-12.9322035 H 274.61037 V 45.796673 h 10.38057 v -18.84759 h 8.89815 c 0.3987,0.474628 16.67814,18.84759 16.67814,18.84759 h 13.51758 c 0,0 -16.67814,-17.466111 -18.96701,-19.839072 z M 457.27981,1.0932222 V 45.796673 h 10.38057 V 27.313527 h 30.11961 V 19.940739 H 467.66038 V 8.4661109 H 500 V 1.0932222 Z M 345.40594,31.610192 c 1.56035,-2.567778 11.48424,-19.347488 12.27982,-20.669507 0.76295,1.313556 10.72127,18.110246 12.25444,20.669507 z M 362.22907,1.0932222 h -8.31461 L 325.21203,45.788155 h 11.76332 c 0,0 3.91447,-6.483146 4.3041,-7.169445 h 32.77999 c 0.3987,0.677963 4.3041,7.169445 4.3041,7.169445 h 11.75426 z m 49.22798,30.5169698 c 1.55129,-2.567778 11.47517,-19.347488 12.2635,-20.669507 0.77021,1.313556 10.72853,18.110246 12.24538,20.669507 z m 16.805,-30.5169698 h -8.30373 L 391.25408,45.788155 h 11.76332 c 0,0 3.92352,-6.483146 4.31315,-7.169445 h 32.77094 c 0.38963,0.677963 4.28778,7.169445 4.28778,7.169445 h 11.76332 z" />
</svg>
