<svg
   viewBox="0 0 164.9 15.5"
   version="1.1"
   id="svg6"
   width="164.89999"
   height="15.5"
   xmlns:xlink="http://www.w3.org/1999/xlink"
   xmlns="http://www.w3.org/2000/svg"
   xmlns:svg="http://www.w3.org/2000/svg">
  <defs
     id="defs6" />
  <style
     id="style1">.st0{fill:#002043}.st1{fill:#fff}.st1,.st2{display:none}.st3{fill:#002043}.st3,.st4,.st5{display:inline}.st5{clip-path:url(#SVGID_2_);fill:#002042}.st6{fill:#fff}</style>
  <g
     id="Ebene_2"
     transform="translate(0,-6.4)"
     style="fill:#000000">
    <g
       class="st2"
       id="g4"
       style="fill:#000000">
      <defs
         id="defs3">
        <path
           id="SVGID_1_"
           d="M 0,0 H 165 V 28.3 H 0 Z" />
      </defs>
      <clipPath
         id="SVGID_2_"
         class="st4">
        <use
           xlink:href="#SVGID_1_"
           overflow="visible"
           id="use3" />
      </clipPath>
      <path
         class="st5"
         d="M 0,0 H 165 V 28.3 H 0 Z"
         clip-path="url(#SVGID_2_)"
         id="path4"
         style="fill:#000000" />
    </g>
    <path
       class="st6"
       d="m 16.7,6.9 c 0,0 -6.1,10.7 -6.5,11.2 C 9.9,17.5 4,6.9 4,6.9 H 0 l 8.7,14.7 h 3 L 20.6,6.9 h -3.9 m 37.6,0 V 18.2 C 53.7,17.5 42.7,6.9 42.7,6.9 H 38.5 V 21.6 H 42 V 10.3 c 0.6,0.6 11.7,11.3 11.7,11.3 h 4 V 6.9 h -3.4 m -31,10 c 0.5,-0.8 3.8,-6.3 4,-6.8 0.3,0.4 3.5,5.9 4,6.8 h -8 m 5.5,-10 h -2.7 l -9.4,14.7 h 3.9 c 0,0 1.3,-2.1 1.4,-2.4 h 10.7 c 0.1,0.2 1.4,2.4 1.4,2.4 H 38 Z m 38.5,7.3 c 0,4.5 4.8,7.7 11.8,7.7 2.4,0 6,-0.4 8.2,-1.3 l 0.2,-0.1 V 13 h -8.2 v 2.4 H 84 v 3.3 c -1.3,0.4 -3.1,0.7 -5,0.7 -4.5,0 -8.1,-2.3 -8.1,-5.3 0,-3.1 3.3,-5.3 7.9,-5.3 2.4,0 4.3,0.5 5.9,1.5 L 84.8,10.4 87.4,8.6 87,8.3 C 85.1,7 82.5,6.4 78.9,6.4 72.1,6.5 67.3,9.8 67.3,14.2 M 94.4,13.1 V 9.2 H 98 c 2.9,0 4.4,0.6 4.4,1.9 0,1.3 -1.4,1.9 -4.4,1.9 h -3.6 m 6.6,2 c 2.9,-0.4 4.9,-1.9 4.9,-3.9 0,-1.3 -0.7,-4.2 -7.1,-4.2 H 91 v 14.7 h 3.4 v -6.2 h 2.9 c 0.1,0.2 5.5,6.2 5.5,6.2 h 4.4 c 0,-0.1 -5.5,-5.8 -6.2,-6.6 m 49.9,-8.1 v 14.6 h 3.4 v -6 h 9.8 v -2.4 h -9.8 V 9.3 h 10.6 V 6.9 h -14 m -36.5,10 c 0.5,-0.8 3.8,-6.3 4,-6.8 0.2,0.4 3.5,5.9 4,6.8 h -8 m 5.5,-10 h -2.7 l -9.4,14.7 h 3.9 c 0,0 1.3,-2.1 1.4,-2.4 h 10.7 c 0.1,0.2 1.4,2.4 1.4,2.4 h 3.9 z"
       id="path5"
       style="fill:#000000" />
    <path
       class="st6"
       d="m 135.6,16.9 c 0.5,-0.8 3.8,-6.3 4,-6.8 0.2,0.4 3.5,5.9 4,6.8 h -8 m 5.5,-10 h -2.7 L 129,21.5 h 3.9 c 0,0 1.3,-2.1 1.4,-2.4 H 145 c 0.1,0.2 1.4,2.4 1.4,2.4 h 3.9 z"
       id="path6"
       style="fill:#000000" />
  </g>
</svg>
