<svg
   width="131.57443"
   height="59.676998"
   viewBox="0 0 131.57443 59.677001"
   version="1.1"
   id="svg8"
   xmlns="http://www.w3.org/2000/svg"
   xmlns:svg="http://www.w3.org/2000/svg">
  <defs
     id="defs8" />
  <g
     data-name="Logo"
     transform="translate(-30.263,-41.239)"
     id="g7">
    <g
       data-name="Gruppe 43"
       transform="translate(30.263,41.575)"
       id="g5"
       style="fill:#000000">
      <path
         data-name="Pfad 161"
         d="m 493.008,506.23 6.971,-47.323 h 8.375 l -8.954,58.017 h -13.612 l -8.954,-58.017 h 9.21 z"
         transform="translate(-476.834,-458.247)"
         fill="#ffffff"
         data-darkreader-inline-fill=""
         id="path2"
         style="fill:#000000" />
      <path
         data-name="Pfad 162"
         d="m 722.188,458.907 h 9.127 v 58.017 h -9.127 z"
         transform="translate(-686.436,-458.247)"
         fill="#ffffff"
         data-darkreader-inline-fill=""
         id="path3"
         style="fill:#000000" />
      <path
         data-name="Pfad 163"
         d="m 830.015,506.23 6.972,-47.323 h 8.373 l -8.951,58.017 H 822.8 l -8.958,-58.017 h 9.213 z"
         transform="translate(-764.732,-458.247)"
         fill="#ffffff"
         data-darkreader-inline-fill=""
         id="path4"
         style="fill:#000000" />
      <path
         data-name="Pfad 164"
         d="m 1053.584,468.961 c 0,-9.284 4.887,-14.585 13.844,-14.585 8.957,0 13.852,5.3 13.852,14.585 v 30.167 c 0,9.287 -4.89,14.589 -13.852,14.589 -8.962,0 -13.844,-5.3 -13.844,-14.589 z m 9.123,30.746 c 0,4.148 1.822,5.725 4.722,5.725 2.9,0 4.733,-1.577 4.733,-5.725 v -31.325 c 0,-4.146 -1.826,-5.719 -4.733,-5.719 -2.907,0 -4.722,1.573 -4.722,5.719 z"
         transform="translate(-969.541,-454.376)"
         fill="#ffffff"
         data-darkreader-inline-fill=""
         id="path5"
         style="fill:#000000" />
    </g>
    <path
       data-name="Pfad 165"
       d="m 1334.646,790.478 -7.313,-1.831 0.494,8.941 5.9,1.14 0.317,-0.737 a 12.16,12.16 0 0 0 0.718,-6.928 z"
       transform="translate(-1173.137,-698.362)"
       fill="#ffd000"
       data-darkreader-inline-fill=""
       id="path6"
       style="fill:#000000" />
    <path
       data-name="Pfad 166"
       d="m 1307.068,452.067 4.076,42.667 4.332,1.047 c 0,0 3.454,-24.286 1.491,-40.54 l -0.111,-0.881 z"
       transform="translate(-1155.825,-410.828)"
       fill="#ffd000"
       data-darkreader-inline-fill=""
       id="path7"
       style="fill:#000000" />
  </g>
</svg>
