<svg id="VIVO" width="500" height="265.53398" viewBox="0 0 500 265.53398" version="1.1" xml:space="preserve" xmlns:xlink="http://www.w3.org/1999/xlink" xmlns="http://www.w3.org/2000/svg" xmlns:svg="http://www.w3.org/2000/svg">
	<path id="VIVO" style="fill:#000000;stroke:#000000;stroke-width:0" d="M 376.06834,65.263695 C 376.06834,23.720456 397.93626,0 438.01627,0 478.09628,0 500,23.715981 500,65.263695 V 200.25237 c 0,41.55667 -21.88135,65.2816 -61.98373,65.2816 -40.10238,0 -61.94793,-23.71598 -61.94793,-65.2816 z m 40.82281,137.579535 c 0,18.56111 8.15293,25.61774 21.12959,25.61774 12.97667,0 21.17882,-7.05663 21.17882,-25.61774 V 62.672836 c 0,-18.552162 -8.17082,-25.590886 -21.17882,-25.590886 -13.00799,0 -21.12959,7.038724 -21.12959,25.590886 z M 292.12271,214.71017 323.32042,2.9533108 h 37.46677 L 320.73403,262.56276 H 259.83766 L 219.75317,2.9533108 h 41.22554 z M 159.97995,2.9533108 h 40.84071 V 262.56276 H 159.97995 Z M 72.374014,214.71017 103.56724,2.9533108 h 37.47573 L 100.97638,262.56276 H 40.066584 L 0,2.9533108 h 41.21211 z" />
</svg>
