<svg id="WESTFIELD" width="500" height="159.35892" viewBox="0 0 500 159.35892" version="1.1" xml:space="preserve" xmlns:xlink="http://www.w3.org/1999/xlink" xmlns="http://www.w3.org/2000/svg" xmlns:svg="http://www.w3.org/2000/svg">
	<path id="WESTFIELD" style="fill:#000000;stroke:#000000;stroke-width:0" d="m 182.21697,93.641993 c -4.92946,-4.852269 -15.65846,-2.094545 -22.47307,-0.394095 -7.22871,2.280811 -15.22374,4.790077 -18.6412,13.063562 -2.7546,9.58015 -7.35279,27.28878 -9.87987,38.9216 -0.12438,3.15182 10.08707,13.39546 17.62643,13.99676 2.27831,0.85038 25.64209,-14.32866 25.64209,-14.32866 l -2.48552,-4.20941 c 0,0 -9.50702,6.07581 -15.28593,6.80149 -0.26908,0.0416 -0.58004,0 -0.58004,0 -3.33465,-0.49754 -7.4978,-3.04806 -8.67852,-5.99267 -0.45566,-0.9332 2.85835,-12.83573 2.85835,-12.83573 0,0 22.51465,1.05758 29.20457,-7.46467 4.86758,-7.9419 8.26442,-21.316733 2.67209,-27.579116 m -12.46883,18.994356 c -3.27276,9.45546 -14.95465,8.21129 -16.81855,7.92096 -0.31097,-0.14502 -0.20721,-0.68412 -0.20721,-0.68412 l 2.96181,-11.3428 c 1.84358,-6.46959 9.71422,-10.264271 13.00762,-9.372636 5.44731,2.156736 1.05633,13.478596 1.05633,13.478596 z M 379.33079,93.641993 c -4.92853,-4.852269 -15.65752,-2.094545 -22.4737,-0.394095 -7.22871,2.280811 -15.24499,4.790077 -18.66089,13.063562 -2.7346,9.58015 -7.35373,27.28878 -9.90081,38.9216 -0.10313,3.15182 10.10707,13.39546 17.64831,13.99676 2.25644,0.85007 25.63958,-14.32866 25.63958,-14.32866 l -2.50645,-4.20941 c 0,0 -9.50702,6.07581 -15.26374,6.80149 -0.26877,0.0416 -0.55942,0 -0.55942,0 -3.35652,-0.49754 -7.51936,-3.04806 -8.70071,-5.99267 -0.43441,-0.9332 2.88149,-12.83573 2.88149,-12.83573 0,0 22.49245,1.05758 29.20237,-7.46467 4.86915,-7.9419 8.24442,-21.316733 2.67209,-27.579116 m -12.46664,18.994356 c -3.27526,9.45546 -14.95434,8.21129 -16.82011,7.92096 -0.33128,-0.14502 -0.20627,-0.68412 -0.20627,-0.68412 l 2.96274,-11.3428 c 1.82203,-6.46959 9.71329,-10.264271 13.00731,-9.372636 5.42544,2.156736 1.05633,13.478596 1.05633,13.478596 z M 499.79373,45.222746 c -10.70712,-0.24877 -22.5362,0.746623 -30.44622,9.144806 -4.49724,8.543194 -13.40109,40.497353 -13.40109,40.497353 -2.71585,-3.877815 -24.39886,-8.812904 -36.86865,7.858765 -0.0406,0.0416 -0.0625,0.12438 -0.10313,0.18689 -1.61576,3.25526 -10.77275,39.68854 -10.89464,39.75073 -3.00337,2.15674 -11.24779,5.24636 -12.46976,5.1426 -1.82203,-0.82944 -2.79711,-2.23955 -2.52833,-4.29222 8.14128,-27.78632 13.73236,-56.194879 22.86748,-83.607731 3.41903,-6.946502 10.97905,-9.994875 18.16401,-10.844944 l -0.26878,-3.774056 c -10.68839,-0.24877 -22.51436,0.746623 -30.44625,9.144805 -5.92548,9.766419 -25.66459,91.300546 -25.66459,91.300546 -0.97195,6.78055 6.19426,14.12114 11.06028,13.60267 7.06307,-3.04806 13.42296,-7.29904 20.011,-11.2181 2.19393,2.94461 5.69421,6.82211 8.61632,8.89572 8.51007,6.11706 25.26771,-4.79008 25.37085,-4.64475 2.36269,3.69092 6.02861,7.65156 12.38538,6.49021 4.82852,-1.57575 23.69567,-13.93457 23.69567,-13.93457 l -2.5252,-4.12627 c 0,0 -9.98519,6.36583 -15.72315,6.96713 0,0 -3.41591,-0.22815 -2.4002,-4.18847 -0.10313,0.10345 23.61129,-83.566162 23.61129,-83.669921 C 485.25505,52.957437 492.79316,49.909064 500,49.058995 m -47.22259,58.765715 -8.3288,30.15026 c -0.43441,1.80421 -1.36573,2.52989 -2.02829,3.21401 -9.98518,8.08722 -21.72679,11.3428 -17.54521,-5.90954 0,0 7.16937,-28.01447 8.39134,-29.94306 6.37865,-8.31505 20.40166,-9.372636 19.51096,2.50927 m -219.03719,-2.3852 c -0.33159,-0.74662 -0.68349,-1.4723 -1.07696,-2.15673 -3.41778,-7.050265 -7.74657,-10.284903 -12.15849,-11.550006 -0.22783,-0.08282 -0.45566,-0.103446 -0.66255,-0.186577 -1.01508,-0.248771 -2.17487,-0.373156 -3.45903,-0.373156 -8.55445,0.06219 -21.72739,5.764531 -25.06204,14.369919 -1.74014,4.47911 -4.18409,12.42101 -3.58342,16.92075 0.0828,0.51817 0.20721,1.03665 0.37285,1.47231 0.55911,1.38917 1.512,2.46738 2.73397,3.37996 3.16901,2.46739 8.32661,3.50435 12.96605,4.99728 0.0622,0.0206 0.12439,0.0416 0.20721,0.0828 0.41409,0.12438 0.8285,0.26971 1.22197,0.41472 1.88484,0.76725 3.37621,1.78327 3.70749,3.54591 0.51786,2.82023 -1.01477,8.00409 -2.9618,11.23904 -4.72257,7.79657 -10.81182,3.069 -16.48728,-9.33138 -0.0206,0 -0.0619,0 -0.14501,0.0416 -0.4141,0.22815 -10.83244,6.42803 -11.20529,6.63554 v 0.0206 c 0.33128,0.76725 0.70412,1.45168 1.07697,2.1358 3.41746,7.0712 7.74656,10.30584 12.19974,11.59156 0.2072,0.0416 0.43503,0.12439 0.66286,0.14502 1.01477,0.24908 2.15393,0.39409 3.4381,0.37346 8.55444,-0.0416 21.72739,-5.76484 25.08297,-14.39085 1.7192,-4.47912 4.18378,-12.40007 3.56248,-16.89981 -0.0622,-0.56005 -0.20721,-1.05759 -0.37285,-1.49294 -0.53848,-1.36886 -1.51199,-2.4677 -2.71334,-3.37996 -3.18963,-2.4677 -8.34724,-3.50466 -12.98668,-4.99759 -0.0622,0 -0.14501,-0.0622 -0.20721,-0.0622 -0.41409,-0.12438 -0.80787,-0.26939 -1.22197,-0.41472 -1.88484,-0.78787 -3.39684,-1.80389 -3.70749,-3.56654 -0.49723,-2.82023 1.01477,-8.00408 2.98243,-11.23903 4.72257,-7.796575 10.79119,-3.068691 16.50791,9.33138 0,0 0.0416,0 0.10375,-0.0416 0.4141,-0.2072 10.83245,-6.40739 11.20529,-6.65616 m 81.91477,-36.325454 c -0.22815,1.036959 -0.49692,2.135798 -0.76569,3.193384 -0.87195,3.608106 -1.71889,6.925875 -1.71889,6.925875 h 14.53868 c 0,0 0.93133,-3.628732 1.92516,-7.485608 1.14072,-4.437548 2.38144,-9.186059 2.38144,-9.206998 1.88766,-7.630932 -3.044,-20.404158 -15.11998,-18.268359 -4.3691,0.76725 -8.34566,2.923675 -12.19816,5.183859 -5.61327,3.297142 -10.83276,7.527174 -15.80379,11.881902 0.0828,0 -8.86478,30.150263 -8.86478,30.150263 l -20.13257,0.04125 c 4.28753,-16.256946 7.22871,-18.019589 -0.24846,-27.01907 l -11.2056,5.350122 c 1.512,3.56654 0.95289,5.806097 0.39347,8.667579 -1.34636,4.437548 -3.81093,13.084501 -3.81093,13.084501 h -7.87096 l -2.38175,7.402789 h 8.14003 c 0,0 -12.34475,50.512855 -12.46913,50.512855 0.24877,2.343 5.53045,9.66297 11.93065,9.74579 -0.10376,0 18.47525,-11.38405 18.37181,-11.46687 l -2.21612,-3.87781 c -10.85338,7.0712 -12.07536,2.1358 -11.99254,-0.18658 3.8525,-14.84683 11.10184,-44.727385 11.10184,-44.727385 h 17.68832 c 0,0 3.12775,-0.352529 2.36144,2.301435 l -13.81519,56.44365 h 15.11998 l 14.45743,-58.745085 c 0,0 10.12832,-0.04157 10.08675,0 2.77554,0.373155 4.7432,1.347615 3.8525,4.769145 0,0 -11.18466,45.41181 -11.2881,45.72277 0.24846,2.34332 5.53014,9.66298 11.93034,9.74611 l 18.37055,-11.46718 -2.23456,-3.83594 c -4.78476,3.08962 -7.70688,3.85687 -9.44452,3.56654 -0.0437,0 -0.10626,0 -0.14689,-0.0416 -0.0813,0 -0.14376,-0.0206 -0.20626,-0.0622 -0.0625,0 -0.14689,-0.0416 -0.20627,-0.0622 -0.0437,0 -0.0625,0 -0.0844,0 -1.6345,-0.66349 -1.92514,-2.44676 -1.88452,-3.60811 3.85343,-14.84683 12.94479,-52.254559 12.94479,-52.254559 h -29.94961 l 7.43561,-28.3048 c 1.69857,-4.292224 7.06307,-8.086907 11.18496,-7.444042 4.49411,0.704744 3.45965,6.53178 2.07204,12.482889 -0.0844,0.290336 -0.14689,0.601299 -0.20939,0.871008 M 131.95914,102.99588 c -0.10345,-0.66381 -0.2072,-1.38949 -0.29002,-2.11517 l 26.42933,-26.396836 20.42229,-20.404471 c 0,0 7.66374,-8.107533 7.00088,-18.952477 C 182.33198,15.531271 179.78428,0 179.78428,0 l -51.28417,20.922616 -0.22783,0.103696 0.95289,3.794683 c 0,0 13.04887,-5.018095 17.41923,-0.207361 0.53848,0.622082 1.05633,1.016083 1.82264,3.214074 1.18073,3.898317 2.98243,11.923344 6.2552,29.548838 0.6213,3.856876 -0.84913,6.407396 -1.63638,7.464982 -0.10345,0.145012 -0.18627,0.228143 -0.18627,0.228143 L 129.8671,88.376877 c -0.91133,-5.888915 -0.64193,-4.126585 -0.0413,0.02063 C 124.62698,54.784461 115.61719,0.12441636 115.61719,0.12441636 l -51.512,21.02631164 0.931951,3.815435 c 0,0 13.048872,-5.038847 17.398601,-0.207361 0.538481,0.622082 1.056335,0.995331 1.822648,3.214074 1.180721,3.898473 3.003369,11.902561 6.255195,29.569621 0.807879,5.163232 -2.112671,8.004088 -2.112671,8.004088 l -22.7631,23.037497 C 60.48052,54.908846 51.532606,0.53913443 51.532606,0.53913443 L 0,21.565449 0.95277741,25.360132 c 0,0 13.04884159,-5.018095 17.41919659,-0.186609 2.029821,2.280936 3.417559,1.285636 20.443348,103.182227 0,0 2.568334,13.85175 -11.847681,26.14838 l 3.956103,4.74851 c 0,0 41.134905,-26.93625 36.99238,-55.84204 -0.103445,-0.74662 -0.227831,-1.5345 -0.351903,-2.36394 l 26.28401,-26.189631 c 2.402696,13.519848 5.364499,30.834381 9.071989,53.084001 0,0 2.56833,13.85175 -11.868153,26.12743 l 3.955946,4.74852 c 0,0 41.135217,-26.93594 36.992697,-55.86267" />
</svg>
