<?xml version="1.0" encoding="UTF-8" standalone="no"?>
<svg id="WIELKOPOLSKA24INFO" width="500.02768" height="500" viewBox="0 0 500.02767 500" version="1.1" xml:space="preserve" xmlns:xlink="http://www.w3.org/1999/xlink" xmlns="http://www.w3.org/2000/svg" xmlns:svg="http://www.w3.org/2000/svg">
	<path id="RAMKA" style="fill:#000000;fill-opacity:1;fill-rule:nonzero;stroke:none;stroke-width:1.61048" d="m 249.51913,499.90255 c -0.62997,-0.11801 -3.5294,-0.20803 -6.44322,-0.20009 -2.91375,0.008 -5.12269,-0.10174 -4.9087,-0.24358 0.21393,-0.14222 -1.00993,-0.23905 -2.71978,-0.21522 -1.70993,0.0227 -4.28696,-0.0537 -5.72692,-0.17248 -1.43989,-0.11838 -3.09653,-0.20916 -3.68149,-0.20122 -0.58499,0.008 -1.06367,-0.11914 -1.06367,-0.28141 0,-0.16302 -0.58201,-0.21786 -1.29336,-0.12255 -0.71134,0.0953 -1.55814,0.0617 -1.88167,-0.0749 -0.32354,-0.13654 -1.14807,-0.21711 -1.83216,-0.17852 -0.68413,0.0386 -1.45531,-0.10553 -1.71375,-0.31999 -0.27139,-0.22506 -0.82946,-0.29957 -1.31977,-0.17702 -0.49663,0.12482 -0.77133,0.0862 -0.66097,-0.0923 0.10394,-0.16831 -0.14134,-0.31923 -0.54523,-0.33587 -2.81314,-0.11726 -5.71253,-0.46478 -7.60637,-0.91231 -0.53998,-0.12747 -1.17679,-0.19517 -1.41513,-0.15016 -0.2381,0.045 -0.63307,-0.084 -0.87723,-0.28671 -0.24415,-0.20273 -0.93267,-0.37407 -1.53014,-0.38168 -0.59743,-0.008 -1.70819,-0.21559 -2.46826,-0.46277 -0.76006,-0.24737 -1.59193,-0.36878 -1.84856,-0.27044 -0.25663,0.0983 -0.56413,0.0227 -0.68341,-0.17172 -0.12323,-0.19971 -0.58167,-0.25909 -1.06368,-0.13843 -0.64648,0.16226 -0.78451,0.11158 -0.58325,-0.21409 0.19539,-0.3162 0.0816,-0.37888 -0.44206,-0.24169 -0.38811,0.10137 -0.70571,0.034 -0.70571,-0.14713 0,-0.18231 -0.24604,-0.23754 -0.54637,-0.1218 -0.76524,0.29352 -4.06235,-0.48531 -3.80647,-0.89937 0.12474,-0.20198 -0.0114,-0.25039 -0.34204,-0.12331 -0.75077,0.28784 -2.54075,-0.10288 -2.29459,-0.5012 0.12323,-0.19933 -0.082,-0.23337 -0.537,-0.0889 -0.44613,0.14146 -0.82919,0.0836 -0.9719,-0.14752 -0.12962,-0.20992 -0.95788,-0.43947 -1.84082,-0.51081 -0.88289,-0.0715 -2.70973,-0.51981 -4.05962,-0.99658 -1.34997,-0.47673 -2.78476,-0.86726 -3.18856,-0.86782 -0.40634,-6.5e-4 -0.64373,-0.14752 -0.53167,-0.32869 0.12698,-0.20538 -0.0722,-0.24018 -0.53404,-0.0938 -0.50121,0.15923 -0.66501,0.11838 -0.51285,-0.12823 0.13568,-0.21975 -0.0113,-0.33512 -0.36814,-0.29427 -0.89003,0.10137 -3.04603,-0.4288 -3.04603,-0.74894 0,-0.15432 -0.24491,-0.18685 -0.54459,-0.0715 -0.36625,0.14033 -0.467,0.0836 -0.30804,-0.17399 0.15535,-0.25153 -0.051,-0.39696 -0.60083,-0.42374 -0.99866,-0.0488 -1.05445,-0.0632 -2.31008,-0.58823 -0.53998,-0.22619 -1.20257,-0.45744 -1.47258,-0.51463 -1.58268,-0.33474 -2.29081,-0.59603 -2.29081,-0.84491 0,-0.15508 -0.22074,-0.19706 -0.49084,-0.093 -0.26988,0.10364 -0.49089,0.0151 -0.49089,-0.19328 0,-0.20992 -0.13643,-0.29729 -0.30274,-0.19441 -0.33372,0.20652 -2.03006,-0.45483 -2.3605,-0.92006 -0.11491,-0.16189 -0.37268,-0.1929 -0.57268,-0.0692 -0.19993,0.12368 -0.36398,0.0624 -0.36398,-0.13617 0,-0.19857 -0.18405,-0.32528 -0.40902,-0.28216 -0.69494,0.13352 -2.30018,-0.49179 -7.11775,-2.77191 -0.80991,-0.38335 -1.58634,-0.66294 -1.72531,-0.6213 -0.33334,0.0999 -5.57975,-2.27714 -5.83801,-2.64497 -0.11037,-0.15697 -0.33107,-0.29049 -0.49089,-0.29616 -0.15988,-0.008 -0.63155,-0.14109 -1.04828,-0.29919 -0.41666,-0.15848 -0.90399,-0.28784 -1.08291,-0.28784 -0.1788,0 -0.21885,-0.17247 -0.0884,-0.38285 0.15912,-0.2572 0.0582,-0.31431 -0.30804,-0.17399 -0.29972,0.11499 -0.54456,0.0961 -0.54456,-0.0424 0,-0.13844 -0.55226,-0.44625 -1.22717,-0.6845 -0.67495,-0.23867 -1.44812,-0.62556 -1.7181,-0.86056 -0.26987,-0.23527 -0.63813,-0.43955 -0.81811,-0.45457 -0.73576,-0.0613 -1.47262,-0.40948 -1.47262,-0.69592 0,-0.16794 -0.11037,-0.27119 -0.24529,-0.22959 -0.34771,0.10704 -3.46884,-1.43174 -3.75839,-1.85298 -0.14627,-0.21295 -0.24453,-0.22203 -0.25059,-0.0227 -0.008,0.20312 -0.10167,0.19593 -0.25058,-0.0189 -0.22713,-0.32604 -0.8971,-0.69788 -4.82029,-2.67361 -0.89911,-0.45275 -2.24254,-1.24137 -2.98545,-1.7526 -0.74298,-0.51111 -1.42216,-0.85795 -1.50939,-0.7707 -0.0873,0.0874 -0.34469,-0.0658 -0.57256,-0.34003 -0.22754,-0.27422 -0.61682,-0.49874 -0.86483,-0.49874 -0.24793,0 -0.45075,-0.14714 -0.45075,-0.32718 0,-0.18004 -0.13983,-0.32718 -0.31068,-0.32718 -0.17085,0 -0.96548,-0.44181 -1.76553,-0.98171 -0.80009,-0.54001 -1.60513,-0.98175 -1.78904,-0.98175 -0.18367,0 -0.38339,-0.11612 -0.44345,-0.25796 -0.0601,-0.14184 -0.79812,-0.65715 -1.64035,-1.14561 -0.84216,-0.48842 -1.74833,-1.10506 -2.01362,-1.37035 -0.26533,-0.26515 -1.3734,-1.00456 -2.46247,-1.64284 -1.089,-0.63824 -2.06669,-1.30076 -2.17262,-1.47217 -0.10583,-0.17135 -0.68194,-0.54383 -1.2799,-0.82766 -0.59804,-0.28368 -1.3649,-0.76767 -1.70419,-1.07552 -0.33939,-0.30751 -1.76549,-1.36812 -3.16944,-2.35619 -5.013763,-3.52918 -7.084942,-5.14006 -6.876499,-5.34843 0.116422,-0.1165 0.05745,-0.21181 -0.130757,-0.21181 -0.591306,0 -7.414788,-5.48448 -12.40992,-9.97454 -0.204097,-0.18382 -1.517103,-1.36472 -2.917376,-2.62459 C 75.810708,429.46365 66.637803,420.12402 61.841394,414.61 35.617522,384.4643 17.562354,350.3309 7.8374095,312.51645 4.0665398,297.85405 1.7157885,283.65067 0.41706813,267.68323 -0.21203378,259.94904 -0.10987321,237.94658 0.59168219,230.04945 3.4444676,197.93955 11.11611,169.39042 24.159023,142.34659 30.067593,130.09541 33.922292,123.28962 41.211028,112.23958 59.503777,84.506972 83.015446,60.785049 110.43794,42.393353 146.94543,17.908607 187.03285,4.0680243 232.0112,0.41904407 c 6.9115,-0.56069252 29.44976,-0.55800904 36.16113,0.00378 45.01974,3.77211713 84.61113,17.40229293 120.9188,41.62878393 27.17276,18.131287 51.02438,42.014899 69.11279,69.205592 23.7914,35.76364 37.35397,74.85062 41.2188,118.7916 0.71857,8.17039 0.8207,29.70303 0.17853,37.63379 -2.18728,27.00645 -7.91069,51.75803 -17.48025,75.5947 -2.21473,5.51655 -2.39431,5.92913 -5.55634,12.76277 -8.44551,18.25197 -21.98229,39.41317 -34.66671,54.19242 -5.05949,5.89502 -6.19409,7.19415 -7.8137,8.94668 -2.81844,3.04969 -11.7153,11.88566 -14.58003,14.48017 -4.6204,4.18463 -6.17484,5.56482 -7.3419,6.51885 -0.62991,0.51493 -1.21894,1.01224 -1.30896,1.10517 -0.09,0.0931 -0.85951,0.72796 -1.70998,1.41128 -0.8505,0.68333 -1.73406,1.41968 -1.96346,1.63622 -0.22959,0.21673 -1.6689,1.34478 -3.19883,2.50711 -1.5299,1.16232 -2.85528,2.21053 -2.94522,2.32956 -0.09,0.11877 -0.77085,0.64047 -1.51299,1.15922 -0.74218,0.51861 -2.36202,1.67284 -3.59972,2.56483 -1.23775,0.89204 -4.53299,3.13616 -7.32283,4.98695 -2.78981,1.85083 -5.2196,3.47714 -5.39961,3.61413 -0.95202,0.72452 -6.06181,3.68521 -6.36017,3.68521 -0.19161,0 -0.34847,0.14713 -0.34847,0.32717 0,0.18004 -0.13832,0.32718 -0.30766,0.32718 -0.16933,0 -1.53127,0.73605 -3.02702,1.63565 -1.49574,0.8996 -2.90358,1.63584 -3.12854,1.63618 -0.22486,3.4e-4 -0.40905,0.14789 -0.40905,0.32793 0,0.18004 -0.13303,0.32718 -0.29594,0.32718 -0.16253,0 -1.19354,0.50736 -2.29073,1.1276 -1.09723,0.62016 -1.99491,1.05127 -1.99491,0.95803 0,-0.0934 -0.37495,0.12558 -0.8335,0.48596 -0.45846,0.36046 -1.26841,0.75115 -1.79992,0.86787 -0.53148,0.11688 -0.96639,0.3563 -0.96639,0.53282 0,0.17626 -0.14702,0.22959 -0.32729,0.11839 -0.17989,-0.1112 -0.32729,-0.0465 -0.32729,0.14449 0,0.19063 -0.28572,0.34646 -0.63522,0.34646 -0.34923,0 -0.72484,0.14525 -0.83437,0.32226 -0.29139,0.47155 -3.51545,1.95991 -3.82756,1.76701 -0.14627,-0.0904 -0.26609,2.3e-4 -0.26609,0.2016 0,0.20123 -0.13719,0.28141 -0.30464,0.17778 -0.16744,-0.10364 -0.39851,-0.0378 -0.51326,0.1494 -0.27135,0.43906 -2.49845,1.42875 -3.02724,1.34528 -0.22487,-0.034 -0.40906,0.098 -0.40906,0.29616 0,0.19857 -0.14702,0.26968 -0.32729,0.15886 -0.17993,-0.11158 -0.32733,-0.0465 -0.32733,0.14448 0,0.19063 -0.21658,0.34647 -0.48113,0.34647 -0.26458,0 -1.28606,0.36802 -2.2698,0.81813 -0.98373,0.44998 -1.93307,0.8182 -2.10957,0.8182 -0.17653,0 -0.37605,0.16567 -0.44368,0.36802 -0.0677,0.20274 -0.52154,0.36803 -1.00899,0.36803 -0.48748,0 -0.88626,0.12406 -0.88626,0.27573 0,0.15206 -0.24491,0.18231 -0.54463,0.0673 -0.3496,-0.13427 -0.46511,-0.0806 -0.32237,0.15016 0.12735,0.20614 -0.0941,0.45184 -0.51904,0.57617 -0.40759,0.11914 -1.66538,0.57787 -2.79511,1.0192 -1.1297,0.44129 -2.18071,0.7241 -2.33548,0.62848 -0.15497,-0.0957 -0.46614,0.0488 -0.69196,0.32074 -0.24983,0.3007 -0.66482,0.41395 -1.05982,0.2886 -0.47422,-0.15054 -0.57963,-0.0934 -0.39099,0.21143 0.18367,0.29692 0.10092,0.35744 -0.2861,0.20917 -0.29971,-0.11499 -0.54452,-0.0806 -0.54452,0.076 0,0.42503 -1.90113,1.00687 -2.51731,0.77044 -0.37875,-0.14525 -0.45978,-0.0832 -0.27706,0.21256 0.19351,0.31319 0.0737,0.35933 -0.47815,0.18421 -0.46896,-0.14903 -0.66164,-0.11272 -0.53049,0.0995 0.12096,0.19593 -0.36927,0.42889 -1.1862,0.56467 -0.76574,0.12747 -1.76036,0.41455 -2.21038,0.63851 -0.44992,0.22429 -1.00214,0.34154 -1.2271,0.26136 -0.22486,-0.0806 -0.40906,0.0227 -0.40906,0.22808 0,0.20576 -0.13605,0.28935 -0.30274,0.18684 -0.16669,-0.10288 -0.64513,-0.0499 -1.0636,0.11801 -1.67924,0.67266 -2.09488,0.78269 -2.67832,0.70894 -0.36549,-0.0462 -0.52105,0.0643 -0.38967,0.27724 0.12357,0.20047 -0.0382,0.37219 -0.37343,0.39613 -0.3254,0.0227 -0.98238,0.0669 -1.45947,0.0968 -0.47705,0.0303 -1.06609,0.21181 -1.30896,0.40354 -0.53971,0.42677 -1.9802,0.80455 -3.67366,0.96345 -0.69778,0.0654 -1.45701,0.27535 -1.68725,0.46644 -0.23016,0.19139 -1.05022,0.42363 -1.82215,0.51663 -0.77193,0.0931 -1.52156,0.24245 -1.66583,0.33134 -0.14437,0.0893 -0.52059,0.22127 -0.83629,0.29351 -0.3156,0.0722 -1.38384,0.35555 -2.37381,0.63 -0.98993,0.27422 -2.07598,0.41174 -2.41349,0.30561 -0.40033,-0.12557 -0.53579,-0.067 -0.38978,0.16983 0.13794,0.22316 -0.0665,0.37181 -0.53163,0.38747 -0.41567,0.0151 -1.27113,0.0881 -1.90106,0.16529 -0.62997,0.0772 -1.58718,0.14335 -2.12712,0.14751 -0.59395,0.004 -0.82227,0.10742 -0.57793,0.25985 0.23583,0.14751 -0.55857,0.41765 -1.90745,0.64898 -1.2712,0.21786 -2.44698,0.31242 -2.61275,0.2103 -0.16593,-0.10251 -0.3016,-0.0189 -0.3016,0.18912 0,0.25304 -0.45185,0.31318 -1.39083,0.1842 -0.93494,-0.1286 -1.1763,-0.0968 -0.73629,0.0965 0.48405,0.21295 0.18594,0.2954 -1.14538,0.31885 -2.84413,0.0496 -3.27806,0.0995 -3.11845,0.35744 0.15647,0.25304 -7.63472,1.28718 -11.49959,1.52626 -4.60625,0.28481 -6.57796,0.44273 -9.76209,0.78125 -1.79989,0.19139 -5.48145,0.31356 -8.18128,0.27157 -2.69978,-0.042 -5.12968,0.0113 -5.39957,0.11423 -0.26988,0.10477 -1.00634,0.0938 -1.63627,-0.0227 z m 12.59916,-3.30761 c 34.66951,-1.99709 64.60055,-9.56952 94.73878,-23.96857 37.06332,-17.70763 70.50635,-45.90293 94.40313,-79.59 20.39403,-28.74923 34.42584,-61.37519 41.03395,-95.4097 12.90834,-66.48297 -1.66035,-134.89132 -40.39772,-189.69042 -3.44589,-4.87476 -3.34373,-4.74002 -9.13841,-12.044782 -9.32324,-11.752434 -21.22808,-24.017936 -33.39617,-34.40766 -2.908,-2.483072 -11.34137,-9.019687 -15.8528,-12.287462 C 379.18755,38.822909 360.0584,28.244625 344.09437,21.87038 341.66451,20.900176 339.38195,19.979522 339.02195,19.824524 331.88847,16.752488 313.17037,11.044082 304.988,9.4453057 304.62819,9.3750065 301.90369,8.8053564 298.93389,8.1795425 283.36372,4.8982346 267.5949,3.3589475 249.68278,3.3717979 232.0383,3.3831365 217.89119,4.7822413 200.85771,8.1957568 163.23273,15.73572 127.50049,32.335053 96.900515,56.4889 45.37066,97.163504 11.928481,157.1864 4.7581552,221.86836 c -1.2272498,11.07042 -1.4655867,15.62868 -1.4633945,27.97979 0.00295,15.62021 0.8423048,26.51446 3.1020453,40.25175 7.50213,45.60594 27.282954,87.49105 57.878319,122.555 4.775319,5.47283 15.308248,16.117 20.964648,21.18618 31.401837,28.14162 69.828157,47.98834 110.391907,57.01585 14.84843,3.30458 25.39112,4.6982 44.2336,5.84706 4.04424,0.24623 17.19808,0.18231 22.25301,-0.10894 z" />
	<path id="DWA" style="fill:#000000;fill-opacity:1;fill-rule:nonzero;stroke:none;stroke-width:1.61048" d="m 234.57855,307.2673 0.0899,30.76144 c 0.0491,16.91881 0.0113,31.09286 -0.0881,31.4978 z m 117.15212,62.26064 c -0.099,-0.40577 -0.1387,-9.68394 -0.0884,-20.61829 l 0.0915,-19.88045 -56.04147,7e-5 -56.04155,4e-5 v -25.87905 -25.87913 l 6.7576,-10.85472 c 11.21846,-18.02028 31.18947,-50.14934 41.83617,-67.30525 3.63001,-5.84961 10.7255,-17.26241 15.76746,-25.36186 5.04207,-8.09948 10.5378,-16.93521 12.21293,-19.635 1.6752,-2.69976 5.0575,-8.14847 7.51627,-12.10821 2.4588,-3.95973 5.17628,-8.34077 6.03892,-9.73571 l 1.56831,-2.53618 h 37.43627 c 20.58986,0 37.43625,0.0809 37.43625,0.17952 0,0.17236 -20.58451,34.76996 -22.08929,37.12687 -0.60878,0.95354 -21.36396,35.62883 -39.27343,65.61362 -2.4726,4.13971 -7.88428,13.19632 -12.02584,20.12585 -4.14164,6.9295 -7.59277,12.70953 -7.66911,12.84453 -0.0763,0.13492 6.34926,0.24529 14.27938,0.24529 h 14.41821 v -18.32749 -18.32748 l 34.44312,0.0831 34.44306,0.0831 0.0847,18.24415 0.0843,18.24418 h 14.23262 14.23266 v 31.57967 31.57956 l -14.3172,-4e-5 -14.31719,-4e-5 v 20.53495 20.53495 l -35.41823,0.0831 -35.41814,0.0831 z" />
	<path id="CZTERY" style="fill:#000000;fill-opacity:1;fill-rule:nonzero;stroke:none;stroke-width:1.61048" d="M 61.190655,372.80301 C 61.07083,372.68319 60.972942,361.45427 60.97332,347.85017 l 7.94e-4,-24.73461 15.593413,-16.0352 c 8.576348,-8.81944 20.402444,-20.96854 26.280213,-26.99809 40.41517,-41.45897 40.70314,-41.76273 44.8317,-47.2876 3.86082,-5.16657 6.17491,-9.8643 7.57659,-15.38078 0.99375,-3.91094 1.08144,-10.76839 0.17576,-13.73052 -0.95459,-3.12151 -2.11955,-5.09333 -4.26224,-7.21375 -2.28351,-2.25982 -4.9909,-3.69687 -8.71173,-4.62406 -3.54073,-0.88241 -11.27406,-0.80822 -14.78361,0.14172 -10.01242,2.71034 -18.14988,9.43302 -22.85483,18.88153 -0.62736,1.25987 -1.17021,2.34493 -1.20635,2.41096 -0.0711,0.12928 -2.83139,-1.34623 -9.097275,-4.86123 -4.470649,-2.50798 -19.120276,-10.64163 -29.779744,-16.53417 -11.607641,-6.41661 -15.68692,-8.7177 -16.032633,-9.04384 -0.715917,-0.67547 5.49815,-11.23301 10.565359,-17.95028 3.404862,-4.51363 11.710971,-12.96423 16.334277,-16.6185 14.73153,-11.6437 31.498526,-18.25503 51.964986,-20.49013 26.65427,-2.91095 51.75655,2.15603 70.05826,14.14151 16.95767,11.10508 27.87638,27.82649 31.05057,47.55213 1.79116,11.13131 0.99625,25.82364 -1.99842,36.93798 -4.94729,18.36082 -14.10662,32.18761 -35.98595,54.32338 -4.8923,4.9497 -13.31258,13.49093 -18.71186,18.98051 l -9.81691,9.98111 36.20748,0.16367 36.20758,0.16366 0.0899,30.76148 c 0.0491,16.91885 0.0113,31.09283 -0.0881,31.4978 l -0.178,0.73633 h -86.49676 c -47.57329,0 -86.59496,-0.0983 -86.714998,-0.21809 z" />
</svg>
