<svg
   viewBox="0 0 346.93799 149.59599"
   version="1.1"
   id="svg1"
   width="346.93799"
   height="149.59599"
   xmlns="http://www.w3.org/2000/svg"
   xmlns:svg="http://www.w3.org/2000/svg">
  <defs
     id="defs1" />
  <path
     d="M 0.792,110.474 H 0 v -2.5 h 17.25 v 2.5 h -0.782 c -2.98,0 -3.388,0.847 -3.388,1.766 0,0.68 0.924,3.166 0.924,3.166 l 7.982,21.097 6.288,-16.372 c -0.35,-0.917 -1.75,-4.41 -1.75,-4.41 -1.274,-3.17 -2.12,-5.247 -5.703,-5.247 h -0.774 v -2.5 h 18.154 v 2.5 h -0.784 c -3.122,0 -3.77,0.318 -3.77,1.934 0,1.495 0.86,3.638 1.487,5.203 l 7.27,18.892 c 1.885,-4.99 7.158,-18.835 7.158,-18.835 l 0.11,-0.314 c 0.485,-1.285 1.368,-3.657 1.368,-4.822 0,-1.338 -0.616,-2.058 -3.903,-2.058 h -0.75 v -2.5 h 14.22 v 2.5 h -0.766 c -3.4,0 -4.305,2.446 -5.332,5.328 l -12.575,33.794 h -2.31 l -9.123,-23.663 -8.935,23.662 h -2.378 c 0,0 -13.246,-34.406 -13.253,-34.406 -1.4,-3.75 -1.924,-4.716 -5.142,-4.716 z m 310.817,-2.515 25.014,28.476 v -20.174 c 0,-5.032 0,-5.788 -5.306,-5.788 h -0.752 v -2.515 h 16.373 v 2.515 h -0.727 c -5.316,0 -5.316,0.756 -5.316,5.788 v 33.333 h -2.28 l -27.006,-30.68 V 140.8 c 0,5.04 0,5.8 5.328,5.8 h 0.734 v 2.495 h -16.363 v -2.493 h 0.73 c 5.32,0 5.32,-0.762 5.32,-5.8 v -26.686 c -2.074,-2.36 -3.023,-3.465 -6.05,-3.626 v -2.53 h 10.3 z m -111.19,-0.437 h 2.37 l 1.016,14.632 h -2.29 l -0.16,-0.528 c -0.974,-3.378 -2.483,-5.978 -4.488,-7.738 -2.2,-1.933 -5.06,-2.908 -8.51,-2.908 -8.622,0 -13.562,6.65 -13.562,18.26 0,5.753 1.605,10.096 4.768,12.945 2.48,2.215 5.94,3.447 9.768,3.447 1.41,0 4.86,-0.354 7.818,-1.882 3.27,-1.728 5.98,-4.64 5.98,-4.64 l 1.935,1.828 c 0,0 -2.5,4.048 -7.112,6.264 -4.01,1.926 -7.708,2.377 -10.973,2.36 -2.983,-0.02 -5.81,-0.534 -8.38,-1.57 -2.498,-1 -4.714,-2.466 -6.544,-4.334 -3.677,-3.693 -5.686,-8.792 -5.686,-14.363 0,-5.837 2.122,-11.278 5.96,-15.27 1.94,-2.037 4.27,-3.61 6.88,-4.717 2.738,-1.14 5.733,-1.714 8.873,-1.714 3.155,0 5.86,0.627 9.082,2.12 l 0.126,0.06 c 0.39,0.187 0.955,0.456 1.323,0.456 0.918,0 1.52,-1.27 1.7,-2.13 l 0.108,-0.58 z m -136.216,3.002 h -0.746 v -2.494 h 19.74 v 2.494 h -0.74 c -5.328,0 -5.328,0.797 -5.328,5.828 v 24.458 c 0,5.05 0,5.83 5.327,5.83 h 0.742 v 2.49 H 63.455 v -2.49 h 0.746 c 5.338,0 5.338,-0.78 5.338,-5.83 v -24.458 c 0,-5.03 0,-5.828 -5.338,-5.828 z m 22.336,-2.53 h 35.917 l 0.496,10.892 h -2.58 l -0.063,-0.833 c -0.354,-4.202 -2.28,-6.064 -6.234,-6.064 h -5.91 v 28.777 c 0,5.044 0,5.815 5.056,5.815 h 0.76 v 2.516 H 95.016 v -2.515 h 0.75 c 5.073,0 5.073,-0.77 5.073,-5.815 V 111.99 h -5.9 c -3.98,0 -5.905,1.862 -6.267,6.064 l -0.047,0.833 h -2.586 l 0.496,-10.893 z m 41.288,0 h 35.924 l 0.493,10.892 h -2.6 l -0.048,-0.833 c -0.346,-4.2 -2.278,-6.064 -6.25,-6.064 h -5.913 v 28.777 c 0,5.044 0,5.815 5.068,5.815 h 0.756 v 2.516 h -18.95 v -2.515 h 0.744 c 5.065,0 5.065,-0.77 5.065,-5.815 V 111.99 h -5.908 c -3.98,0 -5.91,1.863 -6.246,6.064 l -0.058,0.833 h -2.566 l 0.488,-10.893 z m 131.722,2.496 h -0.762 v -2.53 h 34 l 0.65,10.127 h -2.666 l -0.136,-0.574 c -1.11,-5.734 -2.454,-5.946 -7.982,-5.946 h -10.626 v 14.28 h 8.377 c 4.56,0 6.146,-0.277 6.488,-5.15 l 0.037,-0.67 h 2.597 v 15.266 h -2.582 l -0.052,-0.652 c -0.47,-4.745 -1.643,-5.227 -6.488,-5.227 h -8.377 v 13.788 c 0,1.998 0.354,2.292 2.63,2.292 h 9.3 c 5.06,0 6.865,-2.148 10.077,-7.418 l 0.227,-0.378 h 2.673 l -3.996,11.37 h -34.15 v -2.487 h 0.762 c 5.1,0 5.1,-0.786 5.1,-5.815 v -24.47 c 0,-5.044 0,-5.806 -5.1,-5.806 z m -49.032,0 h -0.738 v -2.53 h 19.112 v 2.53 h -0.748 c -5.1,0 -5.1,0.762 -5.1,5.805 v 10.08 h 17.712 v -10.08 c 0,-5.044 0,-5.806 -5.124,-5.806 h -0.762 v -2.53 h 19.123 v 2.53 h -0.767 c -5.108,0 -5.108,0.762 -5.108,5.805 v 24.47 c 0,5.03 0,5.815 5.108,5.815 h 0.767 v 2.487 h -19.124 v -2.487 h 0.762 c 5.124,0 5.124,-0.786 5.124,-5.815 v -10.8 h -17.713 v 10.8 c 0,5.03 0,5.815 5.1,5.815 h 0.75 v 2.487 h -19.113 v -2.487 h 0.738 c 5.13,0 5.13,-0.786 5.13,-5.815 v -24.47 c 0,-5.044 0,-5.806 -5.13,-5.806 z M 195.912,36.752 c 0.28,-0.35 0.708,-0.682 1.364,-0.9 l 0.304,-0.118 c 0.607,-0.226 1.88,-0.71 3.266,-0.843 1.718,-0.177 3.12,0.225 4.15,1.18 2.21,2.04 2.458,2.346 2.7,3.222 l 0.1,0.35 c 0.72,2.82 1.495,4.92 2.29,6.233 0.65,1.064 1.13,1.293 1.305,1.342 1.004,0.292 1.844,0 2.078,-0.184 0.175,-0.128 0.402,-0.36 0.683,-0.66 l 0.01,-0.01 c 0.678,-0.726 1.598,-1.722 3.19,-2.375 0.73,-0.31 1.628,-0.565 2.417,-0.782 0.252,-0.07 0.548,-0.125 0.877,-0.19 0.35,-0.057 0.705,-0.13 1.015,-0.216 0.382,-0.11 0.732,-0.29 0.638,-0.796 -0.048,-0.336 -0.194,-0.624 -0.365,-0.745 -0.296,-0.206 -0.91,-0.164 -1.67,0.11 -0.51,0.184 -0.686,0.303 -0.864,0.43 l -0.017,0.01 c -0.222,0.157 -0.46,0.313 -0.897,0.463 l -0.016,0.01 c -0.32,0.114 -0.85,0.293 -1.375,-0.017 -0.438,-0.268 -0.533,-0.726 -0.556,-0.985 v -0.015 c -0.022,-0.14 -0.037,-0.21 -0.154,-0.34 -0.135,-0.164 -0.365,-0.35 -0.595,-0.534 l -0.02,-0.015 c -0.502,-0.4 -1.17,-0.933 -1.17,-1.706 0,-0.09 0.008,-0.2 0.034,-0.308 0.09,-0.405 0.35,-0.72 0.784,-0.957 0.387,-0.204 0.88,-0.326 1.348,-0.44 0.423,-0.1 0.778,-0.18 1.088,-0.245 0.887,-0.2 1.377,-0.307 2.037,-0.565 0.23,-0.086 0.275,-0.32 0.293,-0.56 0.004,-0.032 0.004,-0.068 0.004,-0.097 0,-0.393 -0.135,-0.707 -0.208,-0.81 -0.84,0.282 -4.485,1.677 -5.014,1.927 -0.764,0.367 -3.415,1.472 -5.463,0.404 -1.493,-0.77 -2.297,-1.713 -2.538,-2.973 l -0.008,-0.017 c -0.08,-0.386 -0.27,-1.292 0.618,-1.58 0.413,-0.14 0.726,-0.067 1.003,0.22 0.23,0.245 0.417,0.65 0.633,1.118 l 0.008,0.017 0.226,0.476 c 0.366,0.775 1.48,1.125 2.385,1.067 0.606,-0.04 1.555,-0.3 2.54,-0.685 v -0.007 c 0.044,-0.015 4.006,-1.328 4.736,-1.642 -0.022,-0.132 -0.132,-0.436 -0.182,-0.532 l -0.007,-0.007 c -0.114,-0.23 -0.237,-0.353 -0.406,-0.38 -0.608,-0.046 -0.875,0.085 -1.846,0.548 l -0.83,0.408 c -0.667,0.328 -1.245,0.617 -1.906,0.383 -0.605,-0.217 -0.898,-0.757 -1.117,-1.247 l -0.185,-0.415 v -0.006 c 0,0 -0.018,-0.043 -0.044,-0.09 -0.123,-0.053 -0.507,-0.224 -0.714,-0.31 -1.16,-0.545 -1.457,-1.284 -1.51,-1.805 v 0.01 c -0.013,-0.077 -0.013,-0.14 -0.013,-0.21 0,-0.792 0.507,-1.582 1.497,-2.34 1.497,-1.14 1.848,-1.24 3.09,-1.48 l 0.182,-0.034 c 0.468,-0.098 0.49,-0.124 0.8,-0.498 l 0.462,-0.507 0.32,-0.348 c 0.08,-0.087 0.127,-0.137 0.155,-0.16 0.664,-0.62 1.61,-1.074 2.96,-1.404 -0.1,-0.332 -0.148,-0.648 -0.148,-0.944 0,-0.096 0.017,-0.195 0.04,-0.275 l 0.03,-0.128 v -0.025 c 0.013,-0.03 0.013,-0.064 0.013,-0.103 0.02,-0.063 0.022,-0.13 0.047,-0.198 l 0.308,-0.79 0.8,0.26 c 0.19,0.058 1.357,0.397 2.282,0.63 0.043,-0.36 0.1,-0.785 0.182,-1.25 l 0.24,-1.437 1.173,0.862 c 0.428,0.297 1.005,0.38 1.734,0.49 0,0 0.407,0.056 0.448,0.067 0.722,-0.243 1.335,-0.38 1.854,-0.488 l 1.04,-0.253 1.258,-0.27 0.064,1.858 c 0.02,0.36 0.03,0.73 0.03,1.1 0,0.977 -0.132,1.795 -0.41,2.51 1.2,0.093 2.966,0.03 3.67,-0.206 l 1.676,-0.51 -0.46,2.27 c -0.117,0.718 -0.325,1.9 -1.05,2.998 0.013,0.004 0.02,0.01 0.02,0.01 1.76,0.55 4.405,1.376 5.16,3.907 l 0.446,1.477 -1.55,-0.19 c -0.47,-0.056 -1.24,0.123 -1.58,0.475 -0.116,0.12 -0.113,0.19 -0.097,0.273 0.09,0.51 0.67,1.045 1.346,1.66 l 0.04,0.035 c 1.216,1.11 2.89,2.628 3.235,5.438 l 0.173,1.478 -1.446,-0.38 c -0.475,-0.124 -1.337,-0.202 -2.17,-0.077 -0.905,0.13 -1.534,0.467 -1.774,0.918 -0.62,1.195 -0.347,1.96 0.343,3.586 l 0.142,0.356 1.132,2.7 -2.577,-1.443 c 0,0 -0.11,-0.056 -0.303,-0.097 0.667,1.688 1.916,4.288 3.023,6.28 1.347,2.463 3.644,5.334 5.324,7.43 l 0.036,0.04 0.38,0.494 c 0.61,0.745 1.03,1.583 1.4,2.32 0,0 0.065,0.127 0.065,0.13 0.42,0.855 0.715,1.412 1.033,1.747 0.32,0.343 0.643,0.467 1.122,0.432 0.898,-0.067 1.24,-0.832 1.354,-1.157 0.085,-0.252 0.128,-0.522 0.128,-0.812 0,-0.262 -0.04,-0.545 -0.112,-0.82 -0.188,-0.696 -0.614,-1.348 -1.223,-1.888 -0.01,-0.002 -1.803,-1.423 -1.803,-1.423 -1.408,-1.06 -3,-2.258 -4.268,-3.84 -1.465,-1.83 -2.214,-3.828 -2.305,-6.113 -0.008,-0.13 -0.015,-0.26 -0.015,-0.38 0,-1.918 0.585,-3.505 1.732,-4.72 1.99,-2.084 4.812,-2.17 5.13,-2.177 2.173,-0.03 3.725,0.812 4.644,1.537 0.614,-0.24 1.59,-0.61 2.837,-0.393 1.49,0.265 2.984,1.33 4.433,3.176 l 1.1,1.41 -1.768,0.225 c -0.508,0.06 -0.854,0.112 -1.16,0.172 1.693,1.86 2.052,3.843 2.052,5.192 v 0.103 c -0.007,1.588 -0.194,2.547 -0.457,3.733 l -0.687,3.294 -1.34,-1.953 c -0.73,-1.055 -1.672,-1.948 -3.227,-3.423 -0.922,-0.87 -1.634,-1.587 -2.17,-2.18 0.032,0.18 0.594,2.983 0.594,2.983 l -2.296,-2.14 c -0.428,-0.387 -1.092,-1.22 -1.644,-2.22 -0.485,-0.855 -1.05,-2.156 -1.05,-3.457 0,-0.097 0.02,-0.186 0.038,-0.278 0.005,-0.037 0.012,-0.078 0.012,-0.106 -0.42,-0.16 -0.9,0.15 -1.044,0.256 -0.11,0.074 -0.26,0.33 -0.33,0.778 -0.006,0.097 -0.013,0.225 -0.013,0.38 0,1.04 0.44,2.195 1.186,3.1 1.344,1.632 2.66,2.576 3.816,3.41 l 0.046,0.033 0.698,0.523 0.47,0.356 0.158,0.117 c 0.032,0.022 0.048,0.04 0.058,0.05 1.06,0.906 2.02,2.097 2.71,3.337 0.843,1.513 1.277,3.053 1.277,4.58 0,0.37 -0.03,0.756 -0.095,1.176 -0.196,1.225 -1.006,2.64 -2.162,3.785 -1.273,1.277 -2.828,2.06 -4.38,2.225 v 0.004 c 0,0.797 0.225,1.302 0.495,1.903 l 0.005,0.02 0.01,0.025 c 0.304,0.677 0.633,1.446 0.633,2.56 v 0.106 l -0.023,1.548 -1.413,-0.65 h -0.007 c -0.544,-0.293 -1.096,0.11 -1.27,0.247 v 0.006 l -0.055,0.05 c -0.362,0.29 -0.545,1.13 -0.545,2.415 0,0.31 0.008,0.642 0.03,1 0.09,1.517 0.39,3.432 0.78,5.137 l 0.49,2.07 -0.182,-0.07 c -0.008,-0.003 -1.063,-0.382 -1.844,-0.58 -0.26,-0.065 -0.475,0.01 -0.643,0.21 -0.342,0.41 -0.397,1.3 -0.116,1.93 v 0.004 l 0.832,2.265 -3.12,-1.143 h -0.016 c -0.603,-0.252 -0.83,-0.35 -1.322,-0.045 -0.427,0.25 -0.51,0.365 -0.602,0.5 l -0.015,0.007 c -0.273,0.35 -0.55,0.648 -1.376,1.11 -0.49,0.27 -1.34,0.28 -4.513,0.185 l -2.39,-0.053 c -1.3,0 -1.76,-0.933 -2.08,-1.55 -0.05,-0.11 -0.1,-0.22 -0.155,-0.312 -0.187,-0.307 -0.516,-0.617 -1.326,-0.27 l -0.008,0.003 -1.695,0.417 0.35,-1.667 v -0.004 c 0.757,-2.26 2.112,-5.073 4.263,-5.71 1.88,-0.558 3.946,-0.255 6.13,0.894 0.252,-0.203 0.43,-0.513 0.54,-0.743 0.212,-0.493 0.323,-1.068 0.323,-1.627 0,-0.417 -0.06,-0.77 -0.17,-1.002 -0.138,-0.29 -0.68,-0.663 -1.328,-0.758 -0.383,-0.057 -0.924,-0.04 -1.293,0.37 l -0.628,0.702 -0.733,-0.57 c -0.277,-0.2 -1.095,-0.373 -1.953,-0.396 -0.975,-0.026 -1.738,0.12 -2.05,0.402 h -0.006 c -0.38,0.332 -0.707,0.88 -0.707,0.896 l -0.07,0.113 -0.89,-0.774 c -0.52,-0.448 -1.246,-0.713 -1.52,-0.636 -2.578,0.75 -2.743,4.267 -2.826,6.37 l -0.128,2.364 -0.143,-0.056 c -0.004,0 -0.497,-0.19 -1.038,-0.435 -0.28,-0.13 -0.505,-0.137 -0.67,-0.03 -0.44,0.28 -0.44,1.383 -0.44,1.792 v 1.566 l -1.676,-0.767 -0.14,-0.06 c -0.69,-0.317 -1.978,-0.923 -3.577,1.034 -0.4,0.484 -0.816,0.472 -1.25,0.465 l -0.183,-0.004 h -1.375 c -1.777,-0.007 -4.735,-0.015 -4.898,0 -0.325,0.04 -0.603,-0.042 -0.826,-0.227 -0.452,-0.388 -0.54,-1.133 -0.566,-1.543 -0.01,-0.185 -0.135,-0.46 -0.372,-0.614 -0.165,-0.097 -0.416,-0.182 -0.767,-0.04 h -0.003 l -2.125,0.725 0.85,-2.113 c 2.483,-4.974 5.672,-7.1 8.743,-5.834 l 0.168,0.07 c 0.7,0.283 1.738,0.704 1.982,0.704 0.052,-0.038 0.216,-0.198 0.384,-0.385 0.798,-0.85 1.77,-2.88 1.853,-3.882 v -0.015 c 0,-0.05 -0.014,-0.095 -0.057,-0.126 -0.063,-0.064 -0.147,-0.095 -0.208,-0.088 l -1.834,0.076 1.044,-1.673 0.267,-0.434 c 0.584,-0.886 1.644,-2.55 1.74,-3.154 0,-0.062 -0.017,-0.168 -0.09,-0.217 -0.047,-0.04 -0.124,-0.043 -0.233,-0.018 h -0.007 l -2.155,0.387 1.205,-1.987 c 3.988,-6.535 7.873,-7.624 10.425,-7.39 1.874,0.172 3.648,1.04 5.08,1.74 0.435,0.207 0.913,0.435 1.322,0.603 -0.333,-1.163 -1.424,-3.11 -3.72,-3.875 -0.013,0 -1.12,-0.332 -1.12,-0.332 -1.343,-0.392 -2.888,-0.86 -4.344,-1.488 -1.705,-0.74 -2.92,-1.548 -3.718,-2.465 -0.445,0.65 -1.14,1.366 -2.632,1.877 -0.8,0.276 -1.358,1.504 -1.84,2.576 l -0.008,0.026 c -0.376,0.835 -0.733,1.616 -1.274,2.12 l -0.602,0.564 -0.676,-0.493 c -0.204,-0.143 -0.6,-0.205 -1.216,-0.16 v 0.156 c 0,0.246 0.01,0.454 0.106,0.74 l 0.007,-0.007 c 0.507,1.172 0.135,2.658 -0.047,3.235 v 0.02 l -0.373,1.1 -1.03,-0.51 c -0.587,-0.292 -1.31,-0.555 -1.964,-0.71 -0.817,-0.188 -1.46,-0.2 -1.847,-0.027 -0.226,0.098 -0.354,0.254 -0.43,0.532 l -0.378,1.294 -1.127,-0.72 c -0.54,-0.333 -0.917,-0.402 -1.305,-0.47 -0.675,-0.122 -1.522,-0.263 -2.182,-1.517 -0.237,-0.472 -0.354,-0.918 -0.354,-1.355 0,-0.336 0.07,-0.595 0.117,-0.79 l 0.037,-0.153 c -0.02,-0.036 -0.073,-0.12 -0.208,-0.25 -0.72,-0.727 -1.568,-2.036 -1.568,-3.36 0,-0.156 0.016,-0.292 0.037,-0.426 0.11,-0.755 0.53,-1.358 1.19,-1.706 0.772,-0.41 1.37,-0.533 1.853,-0.628 l 0.015,-0.004 c 0.376,-0.075 0.55,-0.117 0.74,-0.243 0.01,0 0.395,-0.283 0.395,-0.283 1.07,-0.79 3.046,-2.25 5.237,-2.072 1.73,0.14 1.925,-0.12 2.508,-0.893 0.394,-0.52 0.48,-1.562 0.172,-2.145 0,-0.004 -0.1,-0.17 -0.27,-0.232 -0.135,-0.034 -0.286,-0.016 -0.457,0.08 -0.38,0.207 -0.803,0.455 -1.204,0.696 l -0.6,0.356 -0.037,0.022 c -0.676,0.395 -1.216,0.714 -1.65,0.84 l -1.02,0.294 -0.243,-1.028 c -0.115,-0.43 -0.115,-0.805 -0.115,-1.156 v -0.08 c 0.01,-0.636 0.02,-0.893 -0.507,-1.29 -0.598,-0.463 -1.226,-0.28 -1.66,-0.045 l -1.6,0.918 0.098,-1.837 c 0.004,-0.123 0.004,-0.25 0.004,-0.383 0,-1.975 -0.625,-5.483 -1.162,-7.15 -1.278,0.19 -2.307,-0.79 -2.874,-1.328 -0.127,-0.11 -0.342,-0.325 -0.47,-0.417 -0.084,0.012 -0.505,0.1 -0.505,0.1 l -0.954,-1.34 c -0.3,-0.408 -0.605,-0.828 -0.894,-1.253 -0.655,3.124 -1.238,8.915 0.76,16.36 3.925,14.806 -4.988,23.792 -14.665,27.22 -6.083,2.167 -7.412,3.082 -8.79,4.03 l -0.945,0.653 -0.906,-0.652 c -1.38,-0.948 -2.673,-1.863 -8.768,-4.03 -9.67,-3.428 -18.604,-12.414 -14.646,-27.22 1.984,-7.456 1.39,-13.253 0.738,-16.374 -0.292,0.43 -0.6,0.854 -0.906,1.266 l -0.953,1.34 -0.076,-0.012 c 0,0 -0.22,-0.04 -0.423,-0.087 -0.127,0.087 -0.313,0.266 -0.456,0.405 l -0.018,0.01 c -0.558,0.54 -1.596,1.52 -2.88,1.328 -0.538,1.69 -1.162,5.202 -1.162,7.15 0,0.135 0,0.253 0.01,0.377 l 0.103,1.845 -1.618,-0.92 c -0.34,-0.19 -1.02,-0.45 -1.65,0.045 -0.523,0.398 -0.516,0.655 -0.505,1.294 v 0.026 c 0,0.354 0,0.758 -0.11,1.207 l -0.244,1.028 -1.018,-0.294 c -0.46,-0.137 -1.06,-0.495 -1.69,-0.862 l -0.596,-0.356 c -0.41,-0.24 -0.83,-0.49 -1.208,-0.696 -0.168,-0.087 -0.326,-0.114 -0.45,-0.08 -0.186,0.053 -0.266,0.218 -0.273,0.232 -0.31,0.583 -0.234,1.628 0.16,2.145 0.584,0.774 0.78,1.032 2.524,0.893 2.18,-0.18 4.154,1.282 5.216,2.072 0,0 0.402,0.283 0.405,0.283 0.195,0.126 0.367,0.168 0.75,0.243 h 0.008 c 0.474,0.1 1.07,0.22 1.855,0.632 0.65,0.345 1.062,0.942 1.194,1.706 0.02,0.147 0.02,0.292 0.02,0.426 0,1.33 -0.842,2.64 -1.557,3.36 -0.132,0.13 -0.19,0.214 -0.213,0.25 0.015,0.042 0.037,0.152 0.037,0.152 0.06,0.215 0.113,0.47 0.113,0.79 0,0.456 -0.12,0.895 -0.36,1.355 -0.655,1.253 -1.487,1.394 -2.16,1.516 h -0.014 c -0.387,0.068 -0.763,0.137 -1.29,0.47 l -1.14,0.72 -0.37,-1.294 c -0.08,-0.278 -0.205,-0.434 -0.443,-0.53 -0.38,-0.173 -1.02,-0.162 -1.84,0.027 -0.646,0.153 -1.384,0.416 -1.96,0.707 l -1.045,0.51 -0.358,-1.096 c -0.062,-0.192 -0.62,-1.907 -0.062,-3.257 l 0.008,0.007 c 0.11,-0.286 0.12,-0.487 0.12,-0.74 V 67.9 c -0.618,-0.044 -1.02,0.018 -1.22,0.16 l -0.672,0.494 -0.608,-0.563 c -0.538,-0.498 -0.888,-1.283 -1.267,-2.12 -0.465,-1.04 -1.045,-2.32 -1.86,-2.603 -1.49,-0.51 -2.17,-1.227 -2.62,-1.877 -0.793,0.917 -2.02,1.724 -3.73,2.465 -1.453,0.635 -3.005,1.096 -4.337,1.488 l -1.118,0.333 c -2.308,0.778 -3.4,2.713 -3.724,3.876 0.423,-0.168 0.916,-0.407 1.32,-0.603 1.43,-0.7 3.208,-1.568 5.077,-1.74 2.556,-0.234 6.44,0.855 10.43,7.39 l 1.208,1.986 -2.16,-0.388 c -0.11,-0.026 -0.194,-0.022 -0.25,0.017 -0.06,0.052 -0.083,0.154 -0.083,0.216 0.102,0.6 1.158,2.242 1.723,3.12 l 0.296,0.467 1.037,1.673 -1.833,-0.077 c -0.058,-0.008 -0.15,0.023 -0.204,0.076 -0.044,0.042 -0.055,0.087 -0.055,0.137 v 0.018 c 0.085,1 1.056,3.03 1.855,3.88 0.183,0.204 0.322,0.353 0.38,0.384 0.234,0 1.228,-0.396 1.89,-0.666 l 0.258,-0.107 c 3.07,-1.264 6.26,0.86 8.745,5.835 l 0.847,2.113 -2.12,-0.725 h -0.008 c -0.344,-0.142 -0.607,-0.057 -0.757,0.04 -0.244,0.155 -0.365,0.43 -0.376,0.614 -0.014,0.323 -0.102,1.14 -0.573,1.542 -0.218,0.183 -0.496,0.266 -0.817,0.226 h 0.007 c -0.18,-0.015 -3.138,-0.007 -4.903,0 h -1.374 l -0.186,0.003 c -0.442,0.006 -0.85,0.018 -1.245,-0.466 -1.61,-1.957 -2.896,-1.35 -3.586,-1.034 l -0.135,0.06 -1.675,0.766 v -1.554 c 0,-0.41 0,-1.512 -0.45,-1.794 -0.16,-0.106 -0.38,-0.1 -0.663,0.03 -0.534,0.246 -1.038,0.436 -1.04,0.436 l -0.144,0.056 -0.12,-2.367 c -0.092,-2.1 -0.245,-5.616 -2.83,-6.366 -0.274,-0.077 -0.997,0.188 -1.52,0.637 l -0.894,0.775 -0.062,-0.113 c -0.007,-0.015 -0.325,-0.564 -0.716,-0.896 -0.31,-0.282 -1.077,-0.428 -2.052,-0.402 -0.865,0.023 -1.683,0.195 -1.95,0.396 l -0.74,0.57 -0.626,-0.703 c -0.39,-0.43 -0.974,-0.415 -1.292,-0.37 -0.646,0.096 -1.194,0.47 -1.336,0.762 -0.103,0.23 -0.172,0.59 -0.172,0.998 0,0.562 0.117,1.14 0.325,1.62 0.16,0.343 0.343,0.596 0.544,0.75 2.19,-1.15 4.26,-1.452 6.134,-0.895 0.976,0.285 1.875,1.04 2.66,2.26 0.602,0.912 1.14,2.073 1.603,3.45 v 0.005 l 0.35,1.667 -1.694,-0.417 -0.012,-0.003 c -0.807,-0.347 -1.124,-0.037 -1.322,0.27 -0.05,0.093 -0.102,0.19 -0.16,0.31 -0.307,0.62 -0.774,1.552 -2.074,1.552 l -2.396,0.052 c -3.165,0.095 -4.028,0.084 -4.513,-0.186 -0.818,-0.454 -1.09,-0.743 -1.373,-1.11 h -0.004 c -0.1,-0.132 -0.183,-0.244 -0.624,-0.507 -0.486,-0.305 -0.71,-0.207 -1.315,0.045 h -0.01 l -3.13,1.143 0.84,-2.264 v -0.002 c 0.277,-0.634 0.226,-1.523 -0.132,-1.94 -0.167,-0.193 -0.38,-0.266 -0.635,-0.2 -0.778,0.197 -1.825,0.576 -1.833,0.58 l -0.19,0.068 0.478,-2.07 c 0.402,-1.7 0.698,-3.616 0.792,-5.137 0.023,-0.362 0.037,-0.696 0.037,-1.006 0,-1.277 -0.193,-2.118 -0.548,-2.407 l -0.062,-0.05 c -0.168,-0.145 -0.73,-0.547 -1.27,-0.256 l -1.42,0.648 -0.027,-1.544 v -0.106 c 0,-1.095 0.333,-1.864 0.63,-2.538 l 0.02,-0.047 0.012,-0.02 c 0.26,-0.6 0.495,-1.114 0.495,-1.904 v -0.005 c -1.565,-0.165 -3.125,-0.948 -4.405,-2.225 -1.148,-1.143 -1.95,-2.555 -2.152,-3.78 -0.058,-0.37 -0.088,-0.758 -0.088,-1.18 0,-1.527 0.424,-3.067 1.26,-4.58 0.694,-1.24 1.658,-2.43 2.713,-3.336 0.015,-0.01 0.037,-0.03 0.07,-0.05 l 0.153,-0.118 0.48,-0.356 0.69,-0.523 0.028,-0.02 c 1.16,-0.84 2.475,-1.787 3.83,-3.423 0.74,-0.905 1.186,-2.06 1.186,-3.1 0,-0.082 -0.007,-0.174 -0.007,-0.254 l -0.007,-0.137 c -0.07,-0.467 -0.24,-0.7 -0.32,-0.767 -0.15,-0.1 -0.63,-0.41 -1.063,-0.257 0.007,0.023 0.014,0.054 0.017,0.083 0.02,0.095 0.044,0.195 0.044,0.3 0,1.3 -0.566,2.602 -1.048,3.457 -0.555,1 -1.226,1.833 -1.643,2.22 l -2.3,2.14 c 0,0 0.562,-2.802 0.6,-2.983 -0.55,0.6 -1.258,1.315 -2.174,2.18 -1.615,1.528 -2.507,2.378 -3.236,3.422 l -1.34,1.952 -0.68,-3.294 c -0.22,-0.998 -0.445,-2.033 -0.46,-3.733 v -0.103 c 0,-1.353 0.365,-3.332 2.052,-5.192 -0.292,-0.06 -0.642,-0.113 -1.16,-0.172 l -1.772,-0.226 1.11,-1.41 c 1.447,-1.845 2.943,-2.91 4.433,-3.175 1.238,-0.217 2.228,0.154 2.83,0.393 0.924,-0.725 2.48,-1.568 4.645,-1.537 0.153,0.007 0.942,0.026 1.946,0.318 1.29,0.364 2.356,0.992 3.192,1.865 1.146,1.21 1.723,2.805 1.723,4.735 0,0.12 0,0.234 -0.004,0.36 -0.09,2.29 -0.847,4.29 -2.308,6.11 -1.278,1.593 -2.87,2.787 -4.28,3.842 0,0 -1.782,1.42 -1.79,1.423 -0.992,0.878 -1.34,1.873 -1.34,2.696 0,0.307 0.048,0.583 0.13,0.825 0.112,0.325 0.462,1.09 1.357,1.157 0.477,0.035 0.798,-0.09 1.113,-0.43 0.31,-0.336 0.62,-0.9 1.033,-1.75 l 0.03,-0.062 c 0.387,-0.758 0.806,-1.62 1.424,-2.386 l 0.397,-0.495 c 1.684,-2.106 3.995,-4.99 5.365,-7.47 1.08,-1.96 2.333,-4.56 3.016,-6.277 -0.16,0.03 -0.26,0.075 -0.292,0.094 l -2.586,1.442 1.125,-2.7 0.146,-0.356 c 0.69,-1.625 0.973,-2.39 0.34,-3.586 -0.558,-1.066 -2.9,-1.12 -3.946,-0.843 l -1.436,0.38 0.172,-1.477 c 0.34,-2.818 2.012,-4.328 3.236,-5.438 l 0.032,-0.026 c 0.676,-0.618 1.263,-1.15 1.35,-1.672 0.02,-0.084 0.02,-0.153 -0.097,-0.27 -0.335,-0.345 -1.106,-0.53 -1.592,-0.476 l -1.533,0.19 0.434,-1.477 c 0.76,-2.525 3.406,-3.357 5.163,-3.91 0,0 0.014,-0.004 0.02,-0.008 -0.744,-1.137 -0.948,-2.384 -1.047,-2.998 -0.003,0 -0.456,-2.27 -0.456,-2.27 l 1.67,0.51 c 0.704,0.236 2.475,0.3 3.676,0.205 -0.277,-0.715 -0.412,-1.533 -0.412,-2.51 0,-0.37 0.014,-0.74 0.036,-1.1 l 0.07,-1.856 1.248,0.27 c 0,0 1.026,0.252 1.034,0.252 0.634,0.126 1.197,0.263 1.847,0.488 0.05,-0.01 0.455,-0.066 0.455,-0.066 0.73,-0.11 1.312,-0.194 1.735,-0.49 l 1.176,-0.863 0.24,1.437 c 0.074,0.432 0.133,0.86 0.184,1.25 0.93,-0.233 2.103,-0.572 2.274,-0.63 l 0.807,-0.26 0.308,0.79 c 0.03,0.068 0.037,0.135 0.044,0.197 0.004,0.038 0.007,0.07 0.018,0.102 l 0.004,0.01 v 0.015 c 0,0.013 0.02,0.12 0.02,0.12 0.023,0.088 0.05,0.18 0.05,0.282 0,0.295 -0.056,0.614 -0.154,0.943 1.347,0.33 2.293,0.783 2.962,1.404 h -0.005 c 0.03,0.022 0.077,0.065 0.16,0.16 l 0.32,0.348 0.46,0.507 c 0.31,0.374 0.324,0.4 0.795,0.5 l 0.19,0.033 c 1.238,0.24 1.592,0.34 3.082,1.48 0.993,0.75 1.5,1.544 1.5,2.34 0,0.07 0,0.133 -0.014,0.21 v -0.01 c -0.047,0.52 -0.35,1.26 -1.504,1.804 -0.216,0.086 -0.6,0.257 -0.716,0.31 -0.026,0.05 -0.044,0.106 -0.044,0.106 l -0.19,0.403 c -0.233,0.52 -0.533,1.04 -1.117,1.246 -0.647,0.234 -1.235,-0.055 -1.907,-0.383 l -0.825,-0.408 c -0.972,-0.463 -1.24,-0.594 -1.852,-0.547 -0.204,0.03 -0.318,0.21 -0.416,0.386 -0.044,0.096 -0.15,0.397 -0.186,0.532 0.752,0.314 4.703,1.627 4.746,1.642 h 0.005 v 0.007 c 0.985,0.385 1.93,0.646 2.534,0.685 0.465,0.032 0.977,-0.053 1.4,-0.223 0.337,-0.137 0.775,-0.39 0.987,-0.844 l 0.222,-0.47 0.014,-0.022 c 0.208,-0.467 0.39,-0.872 0.628,-1.118 0.274,-0.286 0.59,-0.36 1.005,-0.22 0.865,0.285 0.697,1.143 0.624,1.555 l -0.01,0.044 c -0.26,1.265 -1.056,2.21 -2.54,2.974 -2.043,1.068 -4.694,-0.037 -5.46,-0.404 -0.534,-0.25 -4.182,-1.645 -5.015,-1.926 -0.076,0.102 -0.215,0.416 -0.215,0.81 0,0.028 0,0.064 0.004,0.096 0.014,0.24 0.062,0.474 0.296,0.56 0.664,0.258 1.16,0.368 2.063,0.568 0.303,0.07 0.646,0.15 1.062,0.24 0.467,0.116 0.957,0.238 1.344,0.44 0.437,0.238 0.696,0.553 0.79,0.958 0.023,0.106 0.038,0.21 0.038,0.305 0,0.767 -0.672,1.306 -1.18,1.71 l -0.015,0.016 c -0.226,0.18 -0.46,0.37 -0.598,0.533 -0.117,0.127 -0.132,0.2 -0.154,0.337 l -0.006,0.022 c -0.018,0.172 -0.066,0.69 -0.554,0.98 -0.516,0.314 -1.067,0.123 -1.39,0.01 l -0.002,-0.004 c -0.457,-0.164 -0.712,-0.338 -0.895,-0.463 l -0.02,-0.018 c -0.184,-0.127 -0.363,-0.238 -0.856,-0.422 -0.76,-0.274 -1.377,-0.316 -1.673,-0.11 -0.168,0.12 -0.303,0.402 -0.364,0.745 -0.088,0.506 0.265,0.685 0.657,0.796 0.292,0.086 0.65,0.16 1,0.217 0.318,0.065 0.62,0.12 0.87,0.19 0.788,0.215 1.683,0.467 2.427,0.783 1.567,0.653 2.495,1.638 3.17,2.357 l 0.025,0.03 c 0.24,0.256 0.485,0.52 0.675,0.666 0.252,0.18 1.085,0.468 2.085,0.176 0.176,-0.05 0.65,-0.278 1.297,-1.342 0.806,-1.312 1.577,-3.408 2.297,-6.232 l 0.098,-0.35 c 0.237,-0.885 0.493,-1.188 2.698,-3.224 1.034,-0.954 2.432,-1.356 4.156,-1.18 1.39,0.134 2.66,0.618 3.264,0.844 l 0.03,0.012 0.27,0.107 c 0.66,0.218 1.093,0.556 1.374,0.91 1.1,-1.417 2.27,-3.16 2.537,-4.34 l 0.14,-0.543 0.53,-0.215 c 3.16,-1.23 16.06,-1.794 19.064,-1.83 h 0.34 c 2.996,0.036 15.866,0.6 19.027,1.83 l 0.554,0.214 0.105,0.542 c 0.274,1.178 1.45,2.915 2.553,4.33 z m -46.23,1.683 V 38.39 c 0,-0.108 0,-0.197 -0.037,-0.28 -0.022,-0.078 -0.084,-0.288 -0.562,-0.45 l -0.362,-0.13 c -1.063,-0.41 -3.896,-1.494 -5.455,-0.062 -2.034,1.88 -2.063,1.988 -2.162,2.344 l -0.077,0.312 c -1.402,5.468 -3.023,8.387 -4.933,8.934 -1,0.282 -1.964,0.23 -2.728,0 0.09,1.01 -0.047,1.8 -0.058,1.87 l -0.304,1.67 -1.216,-1.198 c -0.89,-0.9 -2.074,-1.476 -2.932,-1.812 -0.132,2.078 -1.107,3.836 -2.855,4.91 l -1.122,0.694 -0.232,-1.31 c -0.23,-1.31 -1.278,-2.133 -2.01,-2.52 -1.06,2.243 -2.274,2.695 -3.76,3.24 -0.555,0.195 -1.113,0.405 -1.774,0.734 l -2.144,1.07 0.91,-2.21 c 0.883,-2.205 0.324,-3.976 -0.498,-4.895 -0.405,-0.44 -0.868,-0.72 -1.372,-0.843 -0.526,1.673 -2.202,5.192 -3.542,7.634 -1.443,2.61 -3.823,5.576 -5.544,7.735 l -0.4,0.5 c -0.494,0.614 -0.867,1.368 -1.228,2.095 -0.79,1.595 -1.68,3.405 -4.013,3.235 -1.4,-0.104 -2.556,-1.043 -3.02,-2.448 -0.635,-1.885 0.065,-4.07 1.753,-5.567 l 1.917,-1.5 c 2.644,-2.01 5.652,-4.275 5.81,-8.518 0.06,-1.556 -0.34,-2.806 -1.19,-3.703 -1.162,-1.227 -2.985,-1.573 -3.776,-1.58 -1.71,-0.028 -3.08,0.717 -3.78,1.418 l -0.4,0.403 -0.484,-0.176 -0.57,-0.205 c -0.94,-0.378 -2.187,-0.877 -4.093,0.966 0.482,0.107 0.935,0.248 1.57,0.487 l 1.545,0.58 -1.32,0.983 c -1.77,1.33 -2.667,2.998 -2.667,4.95 v 0.095 c 0,1.035 0.11,1.774 0.24,2.484 0.607,-0.648 1.32,-1.334 2.265,-2.212 2.293,-2.192 2.863,-2.99 3.107,-3.484 l 0.804,-1.592 0.806,1.592 c 0.077,0.148 0.18,0.363 0.288,0.615 0.5,-0.864 0.943,-1.892 0.943,-2.743 0,-0.212 -0.03,-0.4 -0.072,-0.582 l -0.157,-0.477 0.33,-0.376 c 0.974,-1.132 2.545,-1.236 3.918,-0.264 0.588,0.417 0.982,1.158 1.11,2.088 0.215,1.604 -0.395,3.5 -1.593,4.944 -1.518,1.844 -3.012,2.916 -4.217,3.783 l -1.263,0.942 c -1.42,1.236 -3.743,4.16 -3.247,7.342 0.27,1.634 2.626,4.65 5.53,4.463 l 0.816,-0.052 0.13,0.81 c 0.064,0.404 0.086,0.76 0.086,1.09 0,1.207 -0.358,2.023 -0.66,2.71 -0.106,0.26 -0.216,0.496 -0.304,0.743 0.617,0.037 1.008,0.106 1.746,0.67 0.726,0.564 1.303,2.787 1.303,4.635 0,1.634 -0.32,3.708 -0.554,4.935 0.48,-0.14 1.373,-0.022 1.786,0.533 0.704,0.98 0.77,1.788 0.77,2.75 0,0.022 -0.01,0.036 -0.01,0.05 0.628,-0.175 1.376,-0.206 2.29,0.35 0.69,0.42 0.93,0.69 1.153,0.99 0.11,0.14 0.214,0.265 0.707,0.547 0.438,0.082 2.337,0.027 3.6,-0.015 l 2.45,-0.056 c 0.19,0 1.166,-3.15 2.51,-2.397 -0.73,-1.64 -1.59,-2.71 -2.396,-2.95 -1.51,-0.446 -3.242,-0.12 -5.133,0.97 l -0.336,0.2 -0.375,-0.113 c -0.872,-0.267 -1.574,-0.943 -2.034,-1.958 -0.59,-1.35 -0.664,-3.114 -0.13,-4.217 0.416,-0.915 1.544,-1.654 2.775,-1.835 0.902,-0.137 1.73,0.047 2.413,0.495 1.224,-0.604 2.816,-0.615 3.922,-0.404 0.416,0.072 1.015,0.25 1.54,0.56 2.645,-3.494 1.118,-6.222 -0.068,-7.575 -1.738,-1.974 -4.338,-2.763 -5.343,-2.118 -0.35,0.238 -1.812,0.08 -1.823,-1.19 -0.01,-1.406 1.1,-5.3 5.134,-6.65 0.016,0 1.188,-0.356 1.188,-0.356 2.337,-0.686 7.212,-2.102 7.723,-4.33 l 0.53,-2.333 1.403,2.585 c 0.537,1.006 0.825,1.567 2.202,2.034 1.57,0.554 2.348,2.257 2.958,3.615 0.168,0.37 0.346,0.748 0.514,1.05 0.913,-0.27 1.98,-0.13 2.882,-0.01 l 1.39,0.196 -0.603,0.89 c -0.07,0.13 -0.248,0.482 -0.248,0.775 v 0.085 c 0,0.357 0,0.845 -0.27,1.47 v 0.01 c -0.074,0.18 -0.107,0.39 -0.107,0.624 0,0.1 0.025,0.202 0.033,0.297 1.15,-0.43 2.99,-0.91 4.356,-0.317 0.413,0.188 0.75,0.456 1.01,0.807 0.443,-0.173 0.816,-0.24 1.137,-0.3 0.506,-0.088 0.572,-0.098 0.806,-0.53 0.098,-0.204 0.14,-0.328 0.14,-0.454 0,-0.093 -0.023,-0.186 -0.063,-0.312 -0.044,-0.21 -0.092,-0.425 -0.092,-0.67 0,-0.443 0.166,-0.97 0.765,-1.564 0.653,-0.66 1.004,-1.502 1.004,-2.014 0,-0.05 0,-0.102 -0.012,-0.142 -0.022,-0.172 -0.09,-0.24 -0.194,-0.3 -0.544,-0.288 -0.927,-0.363 -1.34,-0.45 -0.43,-0.09 -0.917,-0.185 -1.428,-0.523 l -0.474,-0.34 c -0.87,-0.635 -2.48,-1.812 -3.937,-1.705 -2.395,0.193 -3.195,-0.32 -4.196,-1.636 -0.928,-1.212 -0.873,-3.15 -0.3,-4.26 0.43,-0.798 1.118,-1.23 1.907,-1.193 0.95,0.05 2.106,0.734 3.246,1.39 0.054,0.038 0.12,0.082 0.193,0.12 0.026,-0.72 0.197,-1.58 1.245,-2.39 0.717,-0.544 1.58,-0.73 2.44,-0.598 0.146,-2.648 0.94,-6.87 1.717,-8.145 l 0.518,-0.875 0.797,0.626 c 0.35,0.272 0.565,0.29 1.547,-0.67 0.394,-0.375 0.854,-0.797 1.39,-0.93 0.16,-0.245 0.326,-0.49 0.326,-0.49 0.417,-0.555 1.227,-1.65 1.755,-2.674 l -0.005,-0.015 -0.252,-0.627 0.442,-0.505 c 0.093,-0.1 0.2,-0.217 0.317,-0.35 z m 48.12,1.537 c 0.53,1.01 1.326,2.085 1.728,2.632 0,0 0.176,0.245 0.34,0.49 0.54,0.133 0.997,0.555 1.388,0.93 0.98,0.96 1.193,0.942 1.548,0.67 l 0.796,-0.625 0.53,0.875 c 0.77,1.275 1.55,5.497 1.708,8.145 0.866,-0.13 1.732,0.054 2.443,0.598 1.048,0.81 1.213,1.67 1.234,2.39 0.08,-0.038 0.138,-0.082 0.2,-0.12 1.133,-0.656 2.3,-1.34 3.25,-1.39 0.786,-0.038 1.476,0.395 1.9,1.194 0.574,1.11 0.635,3.047 -0.292,4.26 -1.005,1.314 -1.804,1.828 -4.196,1.635 -1.454,-0.107 -3.08,1.07 -3.94,1.706 l -0.472,0.34 c -0.52,0.337 -0.996,0.432 -1.424,0.522 -0.413,0.087 -0.8,0.162 -1.35,0.45 -0.096,0.06 -0.166,0.128 -0.195,0.3 -0.008,0.04 -0.008,0.093 -0.008,0.142 0,0.512 0.35,1.353 1.004,2.014 0.595,0.593 0.763,1.12 0.763,1.563 0,0.245 -0.04,0.46 -0.09,0.67 -0.038,0.127 -0.08,0.22 -0.08,0.313 0,0.126 0.056,0.25 0.155,0.455 0.234,0.43 0.296,0.44 0.818,0.53 0.302,0.058 0.687,0.126 1.12,0.3 0.267,-0.352 0.6,-0.62 1.02,-0.808 1.355,-0.594 3.19,-0.112 4.345,0.317 0.007,-0.095 0.036,-0.197 0.036,-0.298 0,-0.234 -0.036,-0.446 -0.102,-0.624 v -0.012 c -0.27,-0.624 -0.284,-1.112 -0.284,-1.47 v -0.083 c 0,-0.292 -0.16,-0.644 -0.24,-0.775 l -0.6,-0.89 1.39,-0.195 c 0.9,-0.12 1.977,-0.26 2.893,0.01 0.165,-0.302 0.34,-0.68 0.505,-1.05 0.617,-1.357 1.39,-3.06 2.97,-3.614 1.357,-0.467 1.66,-1.028 2.193,-2.034 l 1.398,-2.585 0.527,2.334 c 0.507,2.228 5.396,3.644 7.73,4.33 0,0 1.168,0.357 1.18,0.357 4.038,1.35 5.148,5.244 5.133,6.65 -0.004,1.27 -1.467,1.428 -1.822,1.19 -1,-0.645 -3.596,0.144 -5.34,2.118 -1.182,1.353 -2.712,4.08 -0.065,7.575 0.53,-0.31 1.12,-0.488 1.537,-0.56 1.114,-0.21 2.702,-0.2 3.922,0.405 0.685,-0.448 1.522,-0.632 2.405,-0.495 1.23,0.18 2.363,0.92 2.794,1.835 0.51,1.103 0.45,2.867 -0.147,4.217 -0.446,1.015 -1.155,1.69 -2.03,1.958 l -0.377,0.112 -0.332,-0.198 c -1.89,-1.092 -3.626,-1.417 -5.138,-0.97 -0.81,0.238 -1.662,1.31 -2.39,2.95 1.35,-0.753 2.324,2.395 2.503,2.395 l 2.442,0.055 c 1.268,0.042 3.163,0.097 3.608,0.015 0.49,-0.282 0.6,-0.406 0.705,-0.546 0.226,-0.3 0.468,-0.57 1.164,-0.99 0.902,-0.557 1.657,-0.526 2.285,-0.35 0,-0.015 -0.015,-0.03 -0.015,-0.05 0,-0.963 0.074,-1.77 0.778,-2.75 0.406,-0.556 1.287,-0.675 1.782,-0.534 -0.233,-1.227 -0.57,-3.3 -0.57,-4.935 0,-1.848 0.59,-4.07 1.315,-4.634 0.727,-0.564 1.13,-0.633 1.743,-0.67 -0.09,-0.246 -0.195,-0.48 -0.31,-0.742 -0.297,-0.687 -0.66,-1.503 -0.66,-2.71 0,-0.33 0.03,-0.686 0.1,-1.09 l 0.125,-0.81 0.817,0.052 c 2.903,0.187 5.255,-2.83 5.53,-4.463 0.49,-3.183 -1.816,-6.106 -3.243,-7.342 l -1.26,-0.953 c -1.21,-0.856 -2.714,-1.928 -4.226,-3.772 -1.196,-1.444 -1.798,-3.34 -1.587,-4.944 0.117,-0.93 0.52,-1.67 1.11,-2.088 1.373,-0.972 2.943,-0.868 3.918,0.264 l 0.323,0.376 -0.143,0.477 c -0.058,0.18 -0.087,0.37 -0.087,0.582 0,0.85 0.448,1.88 0.938,2.744 0.11,-0.25 0.217,-0.466 0.29,-0.614 l 0.814,-1.592 0.803,1.592 c 0.24,0.495 0.804,1.292 3.11,3.48 0.943,0.882 1.652,1.568 2.265,2.216 0.125,-0.71 0.234,-1.45 0.234,-2.484 v -0.096 c 0,-1.95 -0.894,-3.618 -2.663,-4.95 l -1.32,-0.98 1.54,-0.582 c 0.628,-0.24 1.09,-0.38 1.585,-0.487 -1.917,-1.843 -3.16,-1.344 -4.1,-0.966 l -0.58,0.205 -0.48,0.176 -0.402,-0.403 c -0.704,-0.7 -2.063,-1.446 -3.776,-1.42 -0.8,0.01 -2.606,0.355 -3.77,1.582 -0.852,0.897 -1.258,2.147 -1.192,3.703 0.154,4.243 3.16,6.51 5.818,8.52 l 1.895,1.498 c 1.705,1.497 2.388,3.682 1.764,5.567 -0.464,1.405 -1.62,2.344 -3.024,2.448 -2.32,0.17 -3.216,-1.64 -4.012,-3.235 -0.358,-0.727 -0.727,-1.48 -1.224,-2.096 l -0.402,-0.5 c -1.72,-2.158 -4.097,-5.124 -5.535,-7.734 -1.347,-2.442 -3.017,-5.96 -3.542,-7.634 -0.504,0.123 -0.975,0.404 -1.377,0.843 -0.83,0.92 -1.39,2.69 -0.488,4.895 l 0.89,2.21 -2.132,-1.07 c -0.662,-0.33 -1.223,-0.54 -1.772,-0.733 -1.497,-0.547 -2.705,-1 -3.764,-3.24 -0.738,0.385 -1.786,1.21 -2.01,2.518 l -0.233,1.31 -1.125,-0.693 c -1.745,-1.075 -2.716,-2.833 -2.86,-4.91 -0.842,0.335 -2.04,0.912 -2.924,1.81 l -1.215,1.2 -0.306,-1.67 c -0.024,-0.072 -0.147,-0.86 -0.057,-1.87 -0.762,0.228 -1.73,0.28 -2.732,0 -1.904,-0.548 -3.53,-3.467 -4.932,-8.936 0,0 -0.073,-0.288 -0.076,-0.313 -0.1,-0.356 -0.124,-0.464 -2.16,-2.344 -1.55,-1.432 -4.39,-0.35 -5.457,0.062 l -0.358,0.13 c -0.48,0.162 -0.54,0.372 -0.573,0.45 -0.023,0.083 -0.037,0.172 -0.037,0.28 v 0.005 c 0.132,0.148 0.25,0.278 0.354,0.388 l 0.425,0.505 -0.227,0.628 -0.025,0.057 z m 28.916,40.874 c -0.11,0.01 -0.226,0.036 -0.34,0.07 -3.63,1.05 -3.673,5.07 -3.805,7.583 -0.296,0.02 -0.552,0.106 -0.72,0.192 -0.956,0.508 -1.372,1.77 -1.573,2.757 -1.183,-0.493 -2.53,-0.486 -3.414,0.318 -0.826,0.746 -1.18,0.95 -1.52,1.356 -0.67,0.057 -5.95,-0.01 -5.95,-0.01 -0.115,-0.67 -0.403,-2.674 -1.994,-2.135 1.23,-1.97 3.512,-4.78 5.754,-3.86 2.683,1.094 3.315,1.36 4.652,-0.075 0.894,-0.96 2.33,-4.33 2.37,-5.213 0.04,-0.898 -0.106,-1.42 -0.698,-1.64 0.745,-1.108 1.694,-2.775 1.694,-3.963 0,-0.197 -0.028,-0.38 -0.08,-0.538 -0.215,-0.634 -0.456,-1 -0.767,-1.222 3.17,-4.647 6,-5.51 7.868,-5.346 1.166,0.11 1.928,0.432 3.024,0.95 -1.193,0.495 -2.323,1.5 -3.298,2.6 -2.15,2.445 -2.574,5.355 -1.204,8.177 z M 118.77,69.121 c 1.873,-0.164 4.703,0.7 7.866,5.346 -0.304,0.22 -0.552,0.588 -0.76,1.222 -0.062,0.16 -0.084,0.34 -0.084,0.537 0,1.187 0.95,2.854 1.69,3.96 -0.587,0.22 -0.733,0.744 -0.7,1.642 0.043,0.882 1.475,4.254 2.38,5.213 1.333,1.436 1.97,1.17 4.652,0.074 2.242,-0.92 4.518,1.89 5.737,3.86 -1.574,-0.538 -1.866,1.465 -1.975,2.135 0,0 -5.288,0.068 -5.956,0.01 -0.343,-0.404 -0.694,-0.61 -1.526,-1.355 -0.888,-0.804 -2.224,-0.81 -3.414,-0.318 -0.202,-0.988 -0.61,-2.25 -1.567,-2.757 -0.16,-0.086 -0.42,-0.17 -0.73,-0.192 -0.125,-2.512 -0.165,-6.533 -3.79,-7.584 -0.118,-0.034 -0.234,-0.06 -0.347,-0.07 1.372,-2.814 0.95,-5.73 -1.202,-8.175 -0.978,-1.102 -2.11,-2.106 -3.308,-2.6 1.11,-0.52 1.862,-0.84 3.034,-0.95 z m 77.826,-1.41 -17.65,17.68 c -2.52,1.006 -3.8,1.687 -4.774,2.29 l 22.497,-22.527 c 0.005,0.23 0.008,0.462 0.008,0.69 0,0.643 -0.03,1.266 -0.08,1.868 z m -24.362,19.652 c -0.44,-0.264 -0.962,-0.546 -1.63,-0.858 l 15.972,-15.994 c 0.994,0.07 1.72,0.245 2.125,0.37 z m -4.953,-2.266 12.63,-12.65 0.69,-0.432 c 0.528,-0.338 1.868,-1.05 3.583,-1.358 l -15.15,15.146 c -0.52,-0.218 -1.096,-0.452 -1.753,-0.706 z m -2.78,-1.03 c -0.21,-0.075 -0.437,-0.16 -0.682,-0.258 l 16.98,-17.024 c 0.038,0.186 0.056,0.372 0.056,0.543 0,0.354 -0.062,0.675 -0.183,0.936 l -0.003,0.008 c -0.226,0.5 -1.49,1.727 -1.964,2.16 l -0.14,0.135 c 0,0 0.354,0.502 0.403,0.567 l -13.34,13.342 c -0.36,-0.136 -0.733,-0.266 -1.128,-0.41 z m 29.92,-9.4 -7.034,7.036 c -1.907,1.172 -3.675,1.92 -4.822,2.33 l 13.553,-13.577 c -0.395,1.558 -0.982,2.955 -1.698,4.21 z m -32.198,8.462 c -0.518,-0.245 -1.073,-0.526 -1.643,-0.847 l 7.23,-7.223 c 1.015,-0.006 1.994,-0.168 2.92,-0.464 z m -4.516,-2.71 6.09,-6.1 c 0.624,0.243 1.274,0.415 1.935,0.544 l -6.573,6.57 c -0.482,-0.31 -0.968,-0.65 -1.453,-1.013 z m -2.517,-2.238 5.653,-5.67 c 0.448,0.392 0.927,0.735 1.435,1.04 l -5.824,5.852 c -0.43,-0.386 -0.858,-0.793 -1.263,-1.222 z m -2.103,-2.633 5.7,-5.707 c 0.102,0.21 0.182,0.422 0.306,0.627 0.2,0.314 0.417,0.614 0.65,0.9 l -5.612,5.61 c -0.365,-0.452 -0.72,-0.93 -1.044,-1.43 z m 19.57,-8.45 -0.045,0.217 c -0.277,1.433 -0.902,2.506 -1.026,2.753 -0.81,1.54 -2.668,2.354 -4.08,2.354 -0.402,0 -1.494,-0.027 -2.677,-0.73 -1.026,-0.602 -1.523,-1.443 -1.58,-1.538 -1.01,-1.62 -0.808,-3.595 -0.644,-4.455 -0.443,0.027 -1.155,0.008 -1.798,-0.403 -0.78,-0.49 -1.146,-1.476 -1.285,-1.93 h -0.91 c -0.105,0.88 -0.386,4.024 1.242,6.625 1.595,2.572 4.608,4.175 7.843,4.175 1.588,0 3.078,-0.363 4.404,-1.093 1.147,-0.632 2.173,-1.54 2.976,-2.618 0.643,-0.866 1.136,-1.786 1.47,-2.74 0.31,-0.923 0.466,-1.832 0.466,-2.736 v -5.392 h -4.244 c 0.014,3.417 0.05,5.08 0.033,5.657 -0.033,0.62 -0.048,1.248 -0.15,1.856 z m -21.192,5.293 6.234,-6.224 c 0.06,0.656 0.22,1.36 0.43,2.073 l -5.882,5.866 c -0.285,-0.543 -0.548,-1.117 -0.782,-1.717 z m 16.023,-1.76 c 0.502,-0.21 0.932,-0.4 0.95,-0.4 0.04,-0.015 1.55,-0.28 2.2,-0.39 -0.348,0.474 -0.834,0.894 -1.414,1.207 -0.606,0.333 -1.27,0.52 -1.694,0.474 -0.256,-0.024 -0.505,-0.11 -0.76,-0.16 l 0.72,-0.73 z m 9.63,-12.065 c 0.007,0.008 0.497,0.717 0.487,0.717 0.478,0.685 1.313,1.93 2.058,3.09 l 0.25,0.377 c 0.62,1 1.172,1.95 1.52,2.894 0.4,1.087 0.425,2.027 0.09,2.957 -0.355,0.92 -1.333,1.72 -1.798,2.064 l 0.4,0.585 c 0.627,-0.413 2.398,-1.394 4.65,-1.61 2.167,-0.21 3.828,0.237 4.47,0.463 l 0.293,-0.95 c -0.366,-0.142 -0.994,-0.423 -1.607,-0.92 -0.106,-0.086 -0.18,-0.157 -0.255,-0.204 -0.366,-0.286 -0.658,-0.516 -2.078,-2.026 -1.9,-2.02 -5.956,-7.277 -6.003,-7.314 l -0.344,-0.44 0.57,-0.04 c 1.855,-0.082 3.85,-0.863 5.354,-2.04 1.314,-1.03 2.887,-2.915 2.887,-5.944 0,-1.954 -0.738,-3.872 -2.03,-5.262 -0.98,-1.088 -2.79,-2.4 -5.685,-2.4 -0.848,0 -1.644,0.056 -2.363,0.17 0,0 -0.027,3.322 0,3.322 2.296,0.022 3.7,1.048 4.51,1.9 0.93,1.02 1.52,2.374 1.52,3.553 0,3.713 -3.3,5.406 -6.41,5.453 l -7.732,-0.033 0.02,-0.3 0.013,-0.914 c 0.03,-2.286 0.073,-4.24 1.293,-5.925 0.17,-0.23 0.356,-0.455 0.56,-0.68 v -3.07 c -0.898,0.426 -1.796,0.775 -3.338,1.108 -1.35,0.303 -2.687,0.226 -3.37,0.142 0.354,0.982 1.172,3.27 1.377,5.1 0.626,5.77 0.265,9.302 -0.458,12.823 -0.387,1.92 -1.007,3.782 -1.45,4.994 l 0.508,0.473 c 0.712,-0.418 1.804,-0.964 3.166,-1.317 0.895,-0.242 1.924,-0.418 3.042,-0.553 l 0.468,-1.41 c -0.183,-0.132 -0.355,-0.267 -0.52,-0.397 -1.292,-1.065 -1.292,-2.943 -1.292,-3.75 0,-0.975 0.01,-4.357 0.01,-4.39 v -0.295 h 7.217 z m -17.964,3.9 6.635,-6.62 c -0.037,-0.718 -0.092,-1.5 -0.168,-2.318 l -15.137,15.118 c 0.106,0.703 0.248,1.395 0.427,2.043 l 6.752,-6.74 c 0.014,-0.275 0.044,-0.516 0.066,-0.704 l 0.11,-0.78 h 1.315 z m 37.352,0.588 -5.744,5.752 c -0.23,-0.137 -0.99,-0.553 -1.574,-0.885 l 6.97,-6.982 c 0.15,0.723 0.27,1.43 0.347,2.115 z m -18.59,1.922 v -0.03 l 1.348,-1.35 c 0.277,0.482 0.613,1.092 0.89,1.58 l -2.73,2.752 c 0.097,-0.336 0.492,-1.763 0.492,-2.952 z m -12.825,0.055 c -0.007,0.005 -0.186,0.622 -0.412,1.384 l -1.264,1.278 c -0.01,-0.184 -0.044,-0.377 -0.044,-0.547 0,-0.534 0.066,-0.992 0.113,-1.277 0,-0.015 0.172,-0.71 0.234,-0.96 l 1.705,-1.713 c -0.103,0.62 -0.208,1.228 -0.333,1.835 z m 7.567,2.066 c 0.036,-0.184 0.008,-0.04 -0.015,0.082 l 0.014,-0.08 z m 15.222,-0.14 c -0.402,-0.38 -0.876,-0.84 -1.256,-1.21 l 8.614,-8.632 c 0.14,0.66 0.292,1.327 0.475,2.007 l -7.833,7.836 z m -37.593,-1.113 c 0,-0.576 0.02,-1.18 0.075,-1.802 l 14.402,-14.396 c 0.183,0.687 0.373,1.408 0.526,1.964 L 150.3,66.572 c -0.007,-0.236 -0.014,-0.48 -0.014,-0.73 z m 21.51,0.467 v 0.026 l -0.01,-0.01 z m 0.08,-4.82 c 0.008,0.82 0.016,1.733 0.02,2.447 l -0.936,0.952 c -0.153,-0.64 -0.168,-1.267 -0.168,-1.64 v -0.673 l 1.085,-1.086 z m -6.152,-0.868 -4.06,4.066 c -0.13,-0.037 -0.26,-0.09 -0.363,-0.15 -0.328,-0.207 -0.61,-0.7 -0.822,-1.153 l 5.354,-5.33 c -0.007,0.915 -0.044,1.757 -0.11,2.566 z m 19.824,3.916 c -0.35,-0.43 -0.727,-0.886 -1.113,-1.35 l 10.125,-10.15 c 0.087,0.7 0.185,1.416 0.306,2.156 z m -7.635,-1.86 v -1.246 c 0.182,0.28 0.34,0.528 0.485,0.754 l -0.485,0.493 z m 16.41,-14.144 v 0.207 c 0,0.7 0.018,1.43 0.066,2.196 L 183.414,61.94 c -0.395,-0.484 -0.767,-0.937 -1.114,-1.365 z m -43.133,10.866 c 0.117,-0.422 0.22,-0.847 0.325,-1.27 l 8.807,-8.814 h 0.427 c 0,0 0.325,-0.622 0.325,-0.626 0,-0.007 0.058,-0.107 0.145,-0.252 l 2.487,-2.49 c 0.274,-0.05 0.566,-0.072 0.912,-0.072 h 1.633 l -0.635,0.632 c -0.767,0 -1.403,-0.004 -1.42,-0.004 l -0.286,-0.007 0.285,1.078 c 0,0 0.034,0.107 0.078,0.273 L 150.73,61.404 c 0.128,-0.65 0.28,-1.313 0.46,-2 z m 19.605,0.922 c 0.003,-0.418 0.003,-0.745 0.003,-0.855 h 0.852 l -0.856,0.856 z m 10.067,-1.497 c 0.39,-0.06 0.778,-0.154 1.157,-0.258 l -0.748,0.752 c -0.168,-0.2 -0.3,-0.363 -0.41,-0.495 z m -0.62,-3.297 c -0.705,0.284 -1.486,0.466 -2.33,0.508 v -0.594 l 5.02,-5 c 0.107,0.368 0.187,0.72 0.187,1.063 0,0.53 -0.106,1.002 -0.263,1.46 l -2.613,2.563 z m -3.228,0.413 V 42.348 h -17.73 v 6.08 h 0.938 c 0.114,-0.493 0.45,-1.493 1.336,-2.354 0.8,-0.78 1.687,-1.106 3.06,-1.106 h 8.152 v 10.974 h 4.243 z m -6.064,-3.02 0.925,-0.918 v 2.462 l -1.062,1.063 c 0.014,-0.924 0.03,-1.796 0.138,-2.606 z m -12.565,-6.403 v 2.485 l -6.3,6.296 c 0.163,-0.995 0.28,-1.95 0.37,-2.858 z m 19.527,4.187 2.924,-2.93 c 0.403,0.26 0.758,0.532 0.995,0.8 0.12,0.118 0.208,0.262 0.317,0.392 l -4.235,4.206 v -2.468 z m 40.164,-4.954 c 0.6,-0.28 1.42,-0.48 2.202,-0.7 2.13,-0.597 4.2,-1.063 4.04,-2.58 -0.063,-0.51 -0.125,-0.977 -0.553,-1.673 1.755,-0.443 3.26,-1.04 3.87,-2.25 0.492,-0.95 0.647,-2.424 0,-3.866 -0.204,-0.46 -1.11,-0.71 -1.552,-0.516 -0.457,0.206 -0.665,0.736 -0.457,1.194 0.39,0.902 0.495,1.58 0.26,2.016 -0.467,0.907 -2.417,1.358 -4.593,1.802 0,0 -1.216,0.287 -1.57,0.41 -0.507,0.187 -0.88,0.365 -1.125,0.523 -0.29,0.168 -0.46,0.014 -0.51,-0.086 -0.06,-0.105 -0.154,-0.222 -0.245,-0.34 -0.198,-0.243 -0.227,-0.26 -0.464,-0.433 -0.37,-0.256 -0.194,-0.634 0.058,-0.692 1.76,-0.378 2.2,-0.44 3.2,-0.823 0.737,-0.27 1.314,-0.9 1.435,-1.814 0.014,-0.126 0.03,-0.268 0.03,-0.416 0,-0.87 -0.34,-1.894 -1.067,-2.425 -0.047,-0.023 -0.106,-0.045 -0.15,-0.078 0,-0.063 0.01,-0.126 0.01,-0.198 0,-0.178 -0.01,-0.364 -0.053,-0.54 -0.205,-1.07 -1.027,-1.828 -2.104,-1.973 -1.288,-0.167 -1.832,0.1 -2.91,0.632 l -0.828,0.402 c -0.135,0.053 -0.497,0.086 -0.625,-0.32 -0.116,-0.41 -0.47,-0.848 -1.14,-1.133 l -0.557,-0.247 c -0.352,-0.163 -0.28,-0.79 0.313,-1.214 1.21,-0.865 1.278,-0.795 2.297,-1.003 l 0.2,-0.034 c 1.072,-0.222 1.44,-0.584 1.91,-1.166 l 0.743,-0.82 c 0.854,-0.782 2.588,-1.08 4.114,-1.35 l 0.668,-0.11 c 1.334,-0.236 1.95,-0.73 2.534,-1.204 0.35,-0.285 0.687,-0.558 1.23,-0.816 0.99,-0.462 1.765,-0.624 2.523,-0.787 0,0 0.052,-0.015 0.066,-0.015 0.01,0.195 0.02,0.37 0.02,0.58 0,0.883 -0.196,1.732 -0.575,2.506 -0.14,0.28 -0.42,1.026 -0.51,1.522 0.21,0.024 0.645,0 0.89,0.064 1.116,0.296 3.067,0.467 4.57,0.296 -0.167,0.783 -0.485,1.7 -1.325,2.377 l -0.91,0.773 0.925,0.635 c 0.377,0.31 0.974,0.49 1.72,0.728 1.085,0.34 2.483,0.777 3.297,1.624 -0.61,0.172 -1.197,0.452 -1.632,0.898 -0.41,0.434 -0.635,0.975 -0.635,1.54 0,0.12 0.018,0.248 0.025,0.37 0.2,1.173 1.07,1.96 1.983,2.788 0.927,0.84 1.873,1.713 2.348,3.098 -1.643,-0.076 -3.838,0.295 -4.728,1.99 -0.41,0.778 -0.464,1.486 -0.566,2.15 -0.066,0.392 0.007,0.954 0.077,1.307 -3.512,-0.843 -6.193,3.76 -5.7,6.267 -1.055,-0.214 -1.756,-0.915 -2.676,-2.678 l -0.545,-1.06 c 0,0 -2.968,0.57 -4.29,2.957 -0.65,-0.703 -0.968,-1.533 -0.968,-2.783 0,-0.23 0.106,-2.21 0.106,-2.21 0,0 -2.414,0.202 -4.433,1.62 0.102,-0.74 1.06,-2.113 2.334,-2.718 z M 107.482,40.91 c 0.486,-1.385 1.424,-2.258 2.36,-3.098 0.92,-0.83 1.785,-1.615 1.986,-2.788 0.016,-0.122 0.023,-0.25 0.023,-0.37 0,-0.565 -0.223,-1.106 -0.633,-1.54 -0.43,-0.446 -1.022,-0.726 -1.628,-0.898 0.818,-0.847 2.206,-1.285 3.29,-1.624 0.745,-0.238 1.34,-0.42 1.727,-0.728 l 0.923,-0.635 -0.92,-0.774 c -0.82,-0.677 -1.15,-1.595 -1.318,-2.378 1.494,0.17 3.443,0 4.575,-0.296 0.245,-0.064 0.68,-0.04 0.888,-0.064 -0.092,-0.496 -0.373,-1.243 -0.515,-1.52 -0.373,-0.775 -0.577,-1.624 -0.577,-2.506 0,-0.21 0.014,-0.386 0.03,-0.58 0.006,0 0.054,0.014 0.054,0.014 0.763,0.163 1.537,0.325 2.52,0.787 0.554,0.258 0.88,0.53 1.24,0.816 0.596,0.473 1.202,0.968 2.528,1.204 l 0.664,0.11 c 1.54,0.27 3.276,0.568 4.115,1.35 l 0.753,0.82 c 0.47,0.582 0.836,0.944 1.91,1.166 l 0.197,0.034 c 1.01,0.208 1.088,0.138 2.307,1.002 0.58,0.423 0.662,1.05 0.315,1.213 l -0.564,0.248 c -0.67,0.286 -1.03,0.723 -1.146,1.133 -0.128,0.407 -0.49,0.374 -0.614,0.32 l -0.836,-0.4 c -1.074,-0.533 -1.618,-0.8 -2.907,-0.634 -1.088,0.144 -1.906,0.903 -2.118,1.973 -0.036,0.175 -0.05,0.36 -0.05,0.54 0,0.07 0.014,0.134 0.014,0.196 -0.045,0.032 -0.1,0.054 -0.14,0.077 -0.744,0.53 -1.074,1.556 -1.074,2.425 0,0.148 0.015,0.29 0.03,0.416 0.117,0.913 0.694,1.545 1.43,1.814 1.01,0.383 1.44,0.445 3.196,0.823 0.263,0.058 0.442,0.436 0.073,0.692 -0.248,0.173 -0.266,0.19 -0.467,0.432 -0.098,0.118 -0.19,0.235 -0.248,0.34 -0.063,0.1 -0.234,0.253 -0.515,0.085 -0.245,-0.158 -0.614,-0.336 -1.125,-0.523 -0.354,-0.123 -1.57,-0.41 -1.57,-0.41 -2.173,-0.444 -4.126,-0.895 -4.587,-1.802 -0.237,-0.435 -0.138,-1.114 0.257,-2.016 0.204,-0.458 0,-0.988 -0.453,-1.193 -0.453,-0.193 -1.352,0.057 -1.567,0.517 -0.636,1.442 -0.49,2.915 0,3.867 0.62,1.21 2.13,1.806 3.87,2.25 -0.423,0.695 -0.478,1.16 -0.536,1.672 -0.164,1.517 1.906,1.983 4.035,2.58 0.773,0.22 1.598,0.42 2.2,0.7 1.268,0.605 2.228,1.98 2.326,2.72 -2.01,-1.42 -4.432,-1.62 -4.432,-1.62 0,0 0.113,1.98 0.113,2.208 0,1.25 -0.325,2.08 -0.968,2.783 -1.33,-2.388 -4.3,-2.957 -4.3,-2.957 l -0.54,1.06 c -0.923,1.762 -1.624,2.463 -2.676,2.677 0.504,-2.507 -2.184,-7.11 -5.703,-6.266 0.074,-0.352 0.143,-0.914 0.085,-1.305 -0.106,-0.665 -0.158,-1.373 -0.577,-2.15 -0.88,-1.696 -3.075,-2.067 -4.733,-1.99 z m 86.93,5.264 -5.616,5.627 c 0.086,-0.508 0.148,-1.03 0.148,-1.58 0,-0.324 -0.05,-0.642 -0.09,-0.968 l 5.878,-5.862 c -0.135,0.82 -0.245,1.748 -0.32,2.783 z m -41.796,1.36 5.77,-5.765 v 2.477 l -5.77,5.78 c 0.006,-0.436 0.017,-0.863 0.017,-1.285 0,-0.412 -0.004,-0.818 -0.018,-1.208 z m 25.297,0.9 v -1.473 c 0.49,0 0.923,0.06 1.325,0.147 z m 17.673,-8.685 c -0.065,0.203 -0.138,0.438 -0.22,0.725 l -6.918,6.918 c -0.197,-0.592 -0.438,-1.164 -0.76,-1.695 l 7.008,-7.013 c 0.343,0.433 0.657,0.798 0.89,1.066 z m -25.904,6.127 c -0.037,0.016 -0.077,0.036 -0.124,0.053 -0.46,0.21 -0.87,0.393 -1.264,0.468 -0.087,0.015 -0.208,0.03 -0.343,0.04 l 0.562,-0.56 h 1.17 z m -4.13,-13.538 -13.074,13.042 c -0.08,-0.8 -0.168,-1.526 -0.286,-2.187 l 10.682,-10.66 c 0.887,-0.07 1.785,-0.14 2.68,-0.195 z m 28.157,5.06 -6.993,6.983 c -0.007,-0.007 -0.014,-0.018 -0.02,-0.027 l 0.003,0.006 c -0.282,-0.318 -0.712,-0.738 -1.285,-1.146 l 7.283,-7.293 c 0.33,0.505 0.666,1.004 1.013,1.476 z m -2.22,-3.862 c 0.11,0.3 0.238,0.607 0.39,0.92 l -7.96,7.973 c -0.6,-0.263 -1.24,-0.46 -1.913,-0.582 l 8.555,-8.534 c 0.36,0.08 0.67,0.145 0.93,0.224 z m -2.873,-0.535 -8.69,8.7 c -0.618,0.05 -1.732,0.154 -2.013,0.18 v -0.428 h -0.248 l 8.714,-8.713 c 0.793,0.086 1.55,0.17 2.236,0.26 z m -17.926,8.452 9.187,-9.217 c -0.816,-0.046 -1.61,-0.087 -2.358,-0.124 l -9.32,9.34 h 2.492 z m 4.715,0 8.904,-8.897 c -0.755,-0.068 -1.526,-0.13 -2.3,-0.174 l -9.063,9.07 h 2.46 z m -9.493,0 9.436,-9.425 c -0.675,-0.026 -1.255,-0.042 -1.72,-0.042 h -0.28 c -0.142,0 -0.293,0 -0.46,0.01 l -9.44,9.457 z m -4.743,0 9.4,-9.383 c -0.79,0.024 -1.673,0.07 -2.597,0.12 l -9.27,9.263 z m -7.91,-4.056 4.277,-4.274 c 0.83,-0.125 1.8,-0.245 2.838,-0.353 l -8.563,8.554 c -0.15,-0.675 -0.306,-1.198 -0.427,-1.574 0.438,-0.507 1.154,-1.362 1.877,-2.352 z M 193.23,7.066 c -0.992,0 -1.814,0.804 -1.814,1.806 0,0.06 0.026,0.144 0.026,0.216 -0.672,0.62 -1.603,1.457 -2.45,2.25 0.267,-1.215 0.56,-2.552 0.766,-3.52 0.705,-0.23 1.228,-0.9 1.228,-1.685 0,-1.002 -0.814,-1.814 -1.797,-1.814 -0.984,0 -1.805,0.813 -1.805,1.815 0,0.194 0.052,0.402 0.106,0.583 -0.678,0.885 -1.674,2.105 -2.547,3.195 0.09,-1.42 0.208,-3.006 0.307,-4.13 0.576,-0.307 0.985,-0.9 0.985,-1.596 0,-0.992 -0.803,-1.806 -1.8,-1.806 -1,0 -1.79,0.815 -1.79,1.807 0,0.294 0.07,0.56 0.19,0.804 -0.634,1.076 -1.588,2.634 -2.384,3.96 -0.116,-1.5 -0.233,-3.224 -0.317,-4.434 0.516,-0.314 0.86,-0.876 0.86,-1.534 0,-0.982 -0.812,-1.79 -1.798,-1.79 -0.997,0 -1.792,0.808 -1.792,1.79 0,0.373 0.09,0.686 0.266,0.957 -0.487,1.153 -1.235,2.864 -1.85,4.287 -0.474,-1.823 -1.057,-4.04 -1.303,-5.066 0.388,-0.317 0.632,-0.808 0.632,-1.366 0,-0.992 -0.825,-1.795 -1.816,-1.795 -0.982,0 -1.804,0.802 -1.804,1.794 0,0.587 0.314,1.104 0.73,1.42 -0.277,1.054 -0.836,3.25 -1.296,5.013 -0.625,-1.442 -1.374,-3.207 -1.863,-4.363 0.126,-0.265 0.21,-0.55 0.21,-0.882 0,-0.982 -0.804,-1.79 -1.793,-1.79 -0.997,0 -1.797,0.808 -1.797,1.79 0,0.686 0.387,1.264 0.917,1.57 -0.088,1.217 -0.194,2.916 -0.293,4.397 -0.832,-1.352 -1.785,-2.942 -2.457,-4.016 0.113,-0.225 0.18,-0.486 0.18,-0.747 0,-0.992 -0.8,-1.806 -1.8,-1.806 -0.98,0 -1.787,0.815 -1.787,1.807 0,0.736 0.453,1.348 1.06,1.627 0.098,1.125 0.207,2.686 0.317,4.1 -0.902,-1.13 -1.91,-2.375 -2.626,-3.26 0.06,-0.173 0.09,-0.343 0.09,-0.52 0,-1 -0.808,-1.813 -1.794,-1.813 -0.993,0 -1.796,0.813 -1.796,1.815 0,0.804 0.558,1.496 1.3,1.718 0.207,0.97 0.496,2.276 0.77,3.486 -0.895,-0.814 -1.84,-1.686 -2.52,-2.322 0,-0.053 0.015,-0.098 0.015,-0.144 0,-1.002 -0.807,-1.806 -1.81,-1.806 -0.987,0 -1.798,0.804 -1.798,1.806 0,0.916 0.72,1.676 1.625,1.777 0.946,2.624 2.787,7.758 2.823,7.866 1.077,5.97 1.592,6.542 1.742,6.733 0.963,1.093 9.81,2.515 15.516,2.515 5.71,0 14.54,-1.422 15.512,-2.516 0.164,-0.192 0.657,-0.764 1.756,-6.734 0.015,-0.108 1.875,-5.245 2.82,-7.88 0.865,-0.125 1.55,-0.858 1.55,-1.762 0,-1.002 -0.824,-1.806 -1.8,-1.806 z m -64.413,20.535 c 0,0 -1.05,-1.75 -2.49,-1.775 -1.446,-0.024 -2.607,-0.34 -2.983,-0.86 0,0 0.996,1.687 0.31,2.478 1.27,-0.376 1.9,-0.358 3.046,-0.336 1.135,0.022 1.49,0.033 2.117,0.493 z m 89.33,0 c 0,0 1.06,-1.75 2.493,-1.775 1.45,-0.024 2.6,-0.34 2.987,-0.86 0,0 -0.998,1.687 -0.307,2.478 -1.274,-0.376 -1.89,-0.358 -3.045,-0.336 -1.146,0.022 -1.498,0.033 -2.13,0.493 z m -44.794,-1.76 c -8.495,0 -14.304,-1.313 -14.304,-2.37 0,-1.07 6.324,-2.74 14.303,-2.74 7.992,0 14.295,1.67 14.295,2.74 0,1.057 -5.788,2.37 -14.295,2.37 z m 14.817,-4.46 c -3.556,-1.525 -9.815,-2.693 -14.777,-2.693 -4.93,0 -11.405,1.124 -14.775,2.678 -0.106,-0.396 -0.186,-0.827 -0.282,-1.266 4.39,-1.953 10.776,-2.762 15.017,-2.762 4.17,0 11.192,1.04 15.117,2.65 -0.113,0.474 -0.212,0.967 -0.3,1.393 z m 0.665,-3.366 -0.014,0.074 c -0.02,0.14 -0.044,0.267 -0.05,0.41 -3.897,-1.583 -10.225,-2.938 -15.363,-2.938 -5.21,0 -11.733,1.355 -15.363,3.01 -0.025,-0.164 -0.058,-0.317 -0.094,-0.48 v -0.075 c 0,0 -1.154,-3.215 -2.155,-5.975 1.46,1.323 5.11,4.656 5.11,4.656 0,0 -1.09,-4.866 -1.52,-6.873 1.438,1.78 4.783,5.958 4.783,5.958 0,0 -0.41,-5.414 -0.587,-7.784 l 4.214,6.968 c 0,0 0.387,-5.56 0.555,-8.073 0.982,2.26 3.056,7.096 3.056,7.096 0,0 1.384,-5.275 1.987,-7.66 0.6,2.303 1.976,7.66 1.976,7.66 0,0 2.08,-4.835 3.065,-7.095 0.165,2.512 0.56,8.073 0.56,8.073 0,0 2.887,-4.785 4.212,-6.97 l -0.587,7.785 c 0,0 3.355,-4.178 4.788,-5.958 -0.432,2.007 -1.502,6.873 -1.502,6.873 0,0 3.634,-3.333 5.09,-4.656 -0.992,2.76 -2.16,5.975 -2.16,5.975 z"
     fill="#b5985a"
     fill-rule="evenodd"
     id="path1"
     style="fill:#000000" />
</svg>
