<svg id="WOLAPARK" width="500" height="206.74028" viewBox="0 0 500 206.74028" version="1.1" xml:space="preserve" xmlns:xlink="http://www.w3.org/1999/xlink" xmlns="http://www.w3.org/2000/svg" xmlns:svg="http://www.w3.org/2000/svg">
	<path id="WOLAPARK" style="fill:#000000;stroke:#000000;stroke-width:0" d="m 30.888955,196.78509 c 0,3.3745 0,6.25044 0,9.50172 -5.378019,0 -10.533156,0 -16.032131,0 0,-21.96151 0,-43.9171 0,-66.29374 10.143736,-1.52046 20.385132,-2.31677 30.602694,-0.39043 11.201283,2.1118 17.715075,9.42955 17.99369,19.52627 0.309975,11.23258 -5.712368,19.60625 -16.720173,22.42917 -4.879382,1.25131 -9.99863,1.56733 -15.84408,2.43136 0,3.67801 0,7.98758 0,12.79565 m 15.674589,-39.27924 c -3.053378,-5.75732 -7.679253,-7.30475 -15.37109,-5.181 0,5.86107 0,11.69896 0,17.48671 10.971977,1.42468 16.139139,-2.48285 15.37109,-12.30571 z m 153.330646,26.02334 c 2.37485,7.77581 4.66251,15.1542 7.06519,22.9038 -6.10607,0 -11.6451,0 -17.70458,0 -1.65299,-5.29586 -3.34544,-10.71812 -5.12993,-16.43527 -5.63312,0 -11.34596,0 -17.67823,0 -1.20607,4.1702 -2.66779,8.61036 -3.73229,13.14376 -0.60378,2.57115 -1.61049,3.73151 -4.41213,3.58678 -4.33439,-0.22393 -8.68891,-0.0591 -13.63895,-0.0591 4.38975,-14.5573 8.56151,-28.43805 12.76416,-42.30944 2.25535,-7.44377 4.41835,-14.92217 6.97851,-22.26098 0.47682,-1.36675 2.62994,-2.16522 4.04922,-3.16986 0.22594,-0.15994 0.66262,-0.0298 1.00155,-0.0217 5.39324,0.1305 12.20066,-1.67328 15.78063,0.94142 3.55662,2.5976 3.94227,9.61555 5.58495,14.73783 3.04618,9.49862 5.9951,19.02845 9.0719,28.94267 m -27.46943,-18.8514 c -1.05064,3.85248 -2.10129,7.70492 -3.24987,11.91642 4.20284,0 7.85446,0 11.7582,0 -0.16243,-1.2425 -0.16784,-2.24614 -0.43537,-3.17418 -1.72322,-5.97741 -3.50372,-11.93831 -5.49061,-18.66719 -0.95526,3.58292 -1.69227,6.34735 -2.58235,9.92495 z m 301.36327,4.31386 c 7.47913,12.50842 14.81736,24.65433 22.6671,37.64701 -6.4588,0 -12.13099,0.19064 -17.77062,-0.15341 -1.19483,-0.0729 -2.56992,-1.92335 -3.35168,-3.2545 -4.62062,-7.86789 -9.09059,-15.82427 -13.87484,-24.21298 -8.98963,8.00262 -2.63523,18.51862 -5.477,27.41783 -4.94017,0 -9.96819,0 -15.37473,0 0,-22.3393 0,-44.61239 0,-67.20552 5.08545,0 10.23701,0 15.78809,0 0,8.44914 0,16.84776 0,25.2464 0.3467,0.15844 0.69345,0.31687 1.04015,0.47531 3.24006,-4.75539 7.17375,-9.18751 9.57252,-14.3349 4.6617,-10.00334 11.95327,-13.70863 22.5742,-11.74572 1.5929,0.29438 3.28704,0.0409 6.04549,0.0409 -6.35303,8.18673 -12.16406,15.57674 -17.84787,23.06336 -1.57172,2.07021 -2.76492,4.42788 -3.99081,7.01614 z m -175.85647,15.62618 c -7e-5,-15.06643 -7e-5,-29.62381 -7e-5,-44.5442 11.03636,-1.63744 21.76685,-2.34063 32.52002,-0.45329 7.92934,1.39172 14.0307,5.42608 15.89976,13.67291 1.94991,8.6039 -0.68978,15.7153 -8.42443,20.54658 -0.42388,0.26479 -0.80196,0.60281 -1.1638,0.87811 9.53783,8.42577 8.07301,20.9872 13.35756,31.91686 -5.76001,0 -10.73546,0.16887 -15.68109,-0.14026 -1.00801,-0.063 -2.38317,-1.77187 -2.76559,-2.98219 -1.42425,-4.5078 -2.49305,-9.12724 -3.71806,-13.69865 -2.0783,-7.7555 -4.47378,-9.44053 -13.57035,-8.94118 0,4.07684 0,8.22067 0,12.36447 0,4.21585 0,8.43168 0,13.03831 -5.46284,0 -10.59271,0 -16.45389,0 0,-7.05863 0,-14.10356 -6e-5,-21.65747 m 16.40418,-22.99031 c 0,2.13969 0,4.27937 0,6.79629 3.35949,-0.18508 6.1011,-0.024 8.7065,-0.54446 5.46873,-1.09246 7.98999,-4.67924 7.30741,-9.77296 -0.66013,-4.92684 -5.08346,-7.3112 -12.28548,-6.9364 -6.47689,0.33707 -2.7362,5.21391 -3.70619,7.98587 -0.15822,0.45218 -0.0222,1.00733 -0.0222,2.47166 z M 302.0807,84.818867 c 0,-27.94908 0,-55.392538 0,-83.0924779 8.93693,0 17.32196,0 26.1896,0 0,23.8632609 0,47.5267609 0,71.5288159 15.01199,0 29.55022,0 44.43749,0 0,8.208861 0,16.082682 0,24.262536 -23.32718,0 -46.64523,0 -70.62709,0 0,-4.158413 0,-8.175853 0,-12.698874 z m 97.43507,3.002125 C 411.2956,60.075124 423.021,32.725478 434.54617,5.2917422 c 1.38647,-3.3004621 3.01585,-4.68330772 6.66101,-4.41036319 5.88013,0.44027679 13.0622,-1.60038266 17.33185,1.11784259 4.02106,2.5599647 5.03951,9.8941984 7.29125,15.1655064 10.69271,25.031959 21.35814,50.075607 32.02244,75.119713 0.65157,1.530233 1.21023,3.100071 2.14728,5.515571 -8.93021,0 -17.29096,0.09825 -25.64287,-0.127726 -1.01286,-0.02739 -2.36714,-1.626814 -2.89703,-2.798843 -2.08799,-4.618268 -3.72023,-9.449584 -5.94326,-13.995605 -0.69015,-1.411099 -2.68954,-3.041761 -4.13374,-3.084666 -9.31761,-0.276752 -18.65044,-0.255249 -27.97011,-0.01466 -1.35079,0.03482 -3.26503,1.479569 -3.87558,2.766628 -2.16991,4.574447 -3.68917,9.459592 -5.89579,14.013443 -0.6932,1.430535 -2.74013,3.05069 -4.22608,3.109804 -7.772,0.309282 -15.56283,0.144414 -24.06084,0.144414 1.46893,-3.492821 2.75752,-6.55689 4.16107,-9.991767 m 43.70688,-41.186737 c -0.8227,2.120818 -1.64535,4.241636 -2.64448,6.817392 4.86472,0 9.11459,0 13.94388,0 -2.31748,-5.59522 -4.4647,-10.779333 -7.03393,-16.982387 -1.67387,3.91361 -2.84724,6.657035 -4.26547,10.164995 z m -276.86537,8.369026 c -2.06445,-26.97447 13.93078,-44.084084 29.66754,-50.7357224 19.75808,-8.3513308 43.62702,-4.27774978 57.87641,10.7483724 14.42977,15.216382 17.83414,33.24749 10.39106,52.648248 -7.45277,19.426008 -22.65604,29.794733 -43.08371,31.269131 -29.15766,2.104538 -50.52649,-15.288488 -54.8513,-43.930029 m 53.05761,-30.229665 c -1.18462,-0.01955 -2.37056,-0.08532 -3.5537,-0.05131 -10.02217,0.2884 -18.29785,6.675769 -21.38621,16.484728 -3.39268,10.775363 0.0273,22.391734 8.47061,28.771619 7.8365,5.921322 18.7357,6.241285 27.14094,0.796618 8.01044,-5.188909 12.37261,-15.623559 10.32309,-25.80795 C 238.18801,33.92805 231.52501,27.027109 219.41489,24.773616 Z M 11.651874,36.021195 C 7.7724334,24.451139 3.990429,13.272713 0,1.4781041 c 9.058321,0 17.484709,-0.1373581 25.895133,0.1668639 1.101105,0.03981 2.638393,2.1804916 3.097383,3.6262993 4.709352,14.8343847 9.232037,29.7279947 13.827275,44.5987367 0.375645,1.215605 0.902159,2.384589 1.695712,4.454805 5.983938,-18.106216 11.647934,-35.244389 17.412818,-52.6878742 6.98052,0 14.046116,0 21.736609,0 5.600209,16.8971892 11.310592,34.1268532 17.44892,52.6477492 0.97686,-2.567529 1.59558,-3.954834 2.039,-5.396081 4.4278,-14.392061 8.9543,-28.756082 13.14023,-43.2185585 0.99204,-3.4273638 2.4834,-4.423986 5.94786,-4.2877683 7.42592,0.2919533 14.87131,0.089495 22.88616,0.089495 -4.12013,12.1100808 -8.0947,23.7659258 -12.05121,35.4279308 -6.46793,19.064434 -13.0087,38.105013 -19.29897,57.22796 -1.00873,3.066635 -2.18667,4.457076 -5.56838,4.221253 -5.88931,-0.41072 -13.215557,1.645863 -17.30439,-1.164963 C 87.08198,94.556393 86.659062,86.959284 84.779708,81.535672 81.345645,71.62555 77.952837,61.701113 74.510109,51.794015 74.033474,50.42246 73.370661,49.115599 72.373947,46.804917 66.824177,62.874618 61.435529,77.904435 56.520328,93.087534 55.184846,97.212817 53.347847,98.753485 49.070005,98.35876 43.716411,97.864756 37.040297,99.788848 33.297634,97.222988 29.806239,94.829439 29.355088,87.941489 27.659051,82.999817 22.332183,67.478938 17.04931,51.942969 11.651874,36.021205 Z" />
</svg>
