<svg
   version="1.1"
   id="Layer_1"
   x="0px"
   y="0px"
   width="857.49579"
   viewBox="0 0 857.49579 282.78473"
   enable-background="new 0 0 992 400"
   xml:space="preserve"
   height="282.78473"
   xmlns="http://www.w3.org/2000/svg"
   xmlns:svg="http://www.w3.org/2000/svg"><defs
   id="defs24" />

<path
   fill="#FBB613"
   opacity="1"
   stroke="none"
   d="m 158.49267,271.16855 c -30.9478,1.25665 -61.321099,3.14895 -91.040999,10.92514 -4.5105,1.18014 -9.6399,0.6033 -14.3972,0.0713 -5.4648,-0.61115 -6.7231,-2.80225 -6.1078,-8.13629 1.7349,-15.04239 3.7917,-30.05912 5.0583,-45.14164 2.3934,-28.50058 1.3983,-56.94413 -3.604,-85.1276 -2.7607,-15.55434 -6.4178,-30.948 -9.4966,-46.448703 -0.6657,-3.351395 -2.2206,-4.360001 -5.5793,-4.918595 -9.6484,-1.604614 -19.2369,-3.667739 -28.7293998,-6.030883 -1.9194,-0.477829 -4.69919998,-3.163224 -4.59269998,-4.652832 0.1274,-1.782333 2.81449998,-4.654708 4.59199998,-4.812408 5.8311998,-0.517273 11.7834998,-0.345398 17.6278998,0.208817 3.6833,0.349289 7.2569,1.855133 11.9887,3.144317 -0.9854,-3.989227 -1.5103,-6.857574 -2.4166,-9.599899 -1.212,-3.667702 0.145,-6.40609 3.5961,-6.754692 6.0102,-0.607132 12.1655,-0.800728 18.1618,-0.195252 4.6344,0.467957 5.751,4.859902 6.8237,8.862755 2.2632,8.445359 2.3487,8.433731 10.9181,7.471558 8.4302,-0.946533 16.855,-1.942047 25.2875,-2.867676 3.3448,-0.367142 4.929399,-1.657822 5.525199,-5.469375 2.6526,-16.969529 6.2377,-33.770836 14.2259,-49.188462 10.5068,-20.2786185 34.07,-28.1867225 53.5498,-18.1987955 8.5779,4.39822 14.0773,11.6425595 17.7667,20.2367445 3.0095,7.010528 5.4004,14.286621 8.2697,21.993004 1.6251,-0.477341 3.337,-0.89444 4.9897,-1.478867 16.1614,-5.715057 32.2213,-11.739952 48.5189,-17.033821 5.4026,-1.754898 11.4165,-2.285614 17.1382,-2.222488 6.1762,0.06813 7.8735,2.304557 8.5704,8.710708 2.52,23.166329 4.1672,46.460831 7.6282,69.483775 5.1686,34.38173 11.5053,68.59021 17.5416,102.83771 1.7898,10.15421 4.0569,20.23618 6.4733,30.26254 1.0654,4.42072 -0.5064,6.81064 -4.4444,7.92539 -31.3574,8.87643 -62.2714,19.68384 -95.0562,22.47131 -16.0917,1.36823 -32.2087,2.4404 -48.7865,3.67319 M 79.469071,165.36209 c 3.0236,33.40162 1.2759,66.70051 -3.1337,100.2685 2.4652,-0.13729 3.9397,-0.17678 5.406,-0.30743 25.024999,-2.23001 50.008499,-5.36664 75.082599,-6.49844 36.7896,-1.66062 72.9538,-6.04462 107.9536,-18.00467 4.3584,-1.48935 8.8505,-2.5874 13.8304,-4.02555 -13.8603,-63.52667 -25.1551,-126.99224 -30.6064,-191.937439 -2.7228,0.893112 -4.5967,1.50328 -6.4677,2.122192 -34.5941,11.442993 -69.1855,22.893791 -103.7842,34.322395 -4.3804,1.446914 -10.4207,1.519576 -12.7464,4.515517 -2.3545,3.03299 -1.3529,8.910538 -1.2693,13.53212 0.09,4.983185 -2.3003,7.424975 -6.8687,8.167095 -5.9989,0.97452 -12.0653,1.67434 -16.6718,-3.50264 -0.793699,-0.89199 -0.443299,-2.87785 -0.469799,-4.361141 -0.058,-3.22612 -0.018,-6.453994 -0.018,-9.686492 -11.5726,1.079544 -22.4422,2.093505 -32.579,3.039123 4.1016,23.99239 8.1581,47.72142 12.3422,72.35686 M 158.81677,59.065824 c 4.96,-1.67955 9.9201,-3.359093 15.338,-5.193703 -3.0109,-8.713402 -5.317,-17.079437 -8.809,-24.917068 -2.4574,-5.515465 -6.441,-10.372002 -9.9115,-15.406701 -1.9229,-2.789581 -4.493,-2.928077 -6.6206,-0.302078 -3.2233,3.978485 -7.0808,7.794197 -9.0372,12.375801 -4.2193,9.880921 -7.5768,20.147499 -10.9199,30.376244 -1.3464,4.119629 -1.7303,8.553848 -2.7146,13.69294 11.4262,-3.709748 21.6763,-7.037667 32.6748,-10.625435 z"
   id="path2"
   style="fill:#000000" />
<path
   fill="#FDFBFC"
   opacity="1"
   stroke="none"
   d="m 377.85117,73.524614 c -3.8103,-11.363853 -7.5249,-22.343055 -11.4442,-33.927452 8.8969,0 17.1731,-0.13491 25.4336,0.163895 1.0815,0.03911 2.5914,2.141624 3.0422,3.561668 4.6255,14.57 9.0675,29.198166 13.5809,43.803878 0.3689,1.193939 0.886,2.342087 1.6655,4.375412 5.8773,-17.783522 11.4403,-34.616248 17.1024,-51.748854 6.8561,0 13.7958,0 21.3493,0 5.5003,16.596046 11.109,33.518631 17.1379,51.709441 0.9594,-2.521775 1.5671,-3.884354 2.0026,-5.299912 4.3489,-14.135558 8.7948,-28.243582 12.9061,-42.448294 0.9743,-3.366288 2.4391,-4.345139 5.8418,-4.211357 7.2936,0.28675 14.6063,0.0879 22.4783,0.0879 -4.0467,11.894241 -7.9504,23.342354 -11.8364,34.796516 -6.3527,18.724654 -12.7769,37.425885 -18.955,56.208025 -0.9908,3.01198 -2.1477,4.37764 -5.4692,4.14601 -5.7843,-0.4034 -12.98,1.61653 -16.9959,-1.1442 -3.7541,-2.58073 -4.1695,-10.04243 -6.0153,-15.36938 -3.3729,-9.73351 -6.7052,-19.481066 -10.0866,-29.211595 -0.4682,-1.347107 -1.1192,-2.630677 -2.0981,-4.900177 -5.4509,15.783294 -10.7435,30.545242 -15.5711,45.457752 -1.3117,4.05175 -3.1159,5.56497 -7.3175,5.17727 -5.2582,-0.4852 -11.8153,1.40461 -15.4913,-1.11552 -3.4292,-2.35089 -3.8723,-9.11609 -5.5381,-13.96968 -5.2319,-15.24426 -10.4206,-30.503344 -15.7219,-46.141344 z"
   id="path3"
   style="fill:#000000" />
<path
   fill="#FDFCFC"
   opacity="1"
   stroke="none"
   d="m 529.79937,92.168428 c -2.0276,-26.493713 13.6825,-43.2984 29.1388,-49.831481 19.406,-8.202492 42.8495,-4.201516 56.8449,10.556808 14.1726,14.945191 17.5163,32.654937 10.2059,51.709925 -7.32,19.07979 -22.2523,29.26372 -42.3159,30.71184 -28.638,2.06703 -49.6259,-15.016 -53.8737,-43.147092 m 52.112,-29.690895 c -1.1635,-0.01917 -2.3283,-0.08381 -3.4903,-0.05036 -9.8436,0.283256 -17.9718,6.556793 -21.0051,16.190933 -3.3322,10.583312 0.027,21.992664 8.3196,28.258834 7.6969,5.8158 18.4018,6.13005 26.6573,0.78243 7.8676,-5.09644 12.1521,-15.345113 10.1391,-25.347997 -2.182,-10.842559 -8.7263,-17.620505 -20.6206,-19.833839 z"
   id="path4"
   style="fill:#000000" />
<path
   fill="#FDFBFB"
   opacity="1"
   stroke="none"
   d="m 758.80247,124.40122 c 11.5699,-27.251378 23.0863,-54.11359 34.406,-81.058391 1.3618,-3.241638 2.9621,-4.599838 6.5423,-4.331757 5.7754,0.432434 12.8294,-1.571861 17.023,1.097916 3.9494,2.514343 4.9497,9.717865 7.1613,14.895225 10.5021,24.585831 20.9775,49.183137 31.4517,73.780897 0.64,1.50296 1.1887,3.04482 2.109,5.41727 -8.771,0 -16.9828,0.0965 -25.1858,-0.12544 -0.9948,-0.0269 -2.325,-1.59783 -2.8454,-2.74897 -2.0508,-4.53596 -3.654,-9.28117 -5.8374,-13.74617 -0.6778,-1.38595 -2.6416,-2.98754 -4.06,-3.02969 -9.1516,-0.27182 -18.3181,-0.2507 -27.4716,-0.0144 -1.3268,0.0342 -3.2069,1.4532 -3.8066,2.71732 -2.1312,4.49292 -3.6234,9.291 -5.7907,13.76368 -0.6808,1.40505 -2.6913,2.99633 -4.1507,3.05439 -7.6335,0.30377 -15.2855,0.14184 -23.632,0.14184 1.4427,-3.43057 2.7083,-6.44003 4.0869,-9.81369 m 42.9279,-40.452697 c -0.8081,2.083023 -1.616,4.166046 -2.5974,6.695892 4.7781,0 8.9522,0 13.6954,0 -2.2762,-5.495498 -4.3851,-10.587218 -6.9086,-16.679717 -1.644,3.843857 -2.7965,6.538391 -4.1894,9.983825 z"
   id="path5"
   style="fill:#000000" />
<path
   fill="#FDF9FA"
   opacity="1"
   stroke="none"
   d="m 663.10387,121.45259 c 0,-27.450956 0,-54.405309 0,-81.611569 8.7777,0 17.0133,0 25.7229,0 0,23.437957 0,46.679717 0,70.253999 14.7444,0 29.0235,0 43.6455,0 0,8.06256 0,15.79605 0,23.83012 -22.9115,0 -45.8139,0 -69.3684,0 0,-4.0843 0,-8.03013 0,-12.47255 z"
   id="path6"
   style="fill:#000000" />
<path
   fill="#FDF9F9"
   opacity="1"
   stroke="none"
   d="m 659.02867,219.47281 c 0,-14.79791 0,-29.09584 0,-43.75032 10.8396,-1.60825 21.3789,-2.2989 31.9404,-0.44521 7.788,1.36692 13.7806,5.32938 15.6164,13.42923 1.9152,8.45056 -0.6775,15.43521 -8.2743,20.18039 -0.4163,0.26007 -0.7877,0.59207 -1.1431,0.86246 9.3679,8.2756 7.9292,20.61316 13.1195,31.34802 -5.6573,0 -10.5441,0.16586 -15.4016,-0.13776 -0.99,-0.0619 -2.3407,-1.74029 -2.7163,-2.92904 -1.3988,-4.42746 -2.4486,-8.96457 -3.6518,-13.4545 -2.0412,-7.61728 -4.394,-9.27228 -13.3285,-8.78183 0,4.00418 0,8.07416 0,12.1441 0,4.14072 0,8.28141 0,12.80594 -5.3654,0 -10.4039,0 -16.1606,0 0,-6.93283 0,-13.8522 -10e-5,-21.27148 m 16.1118,-22.58057 c 0,2.10156 0,4.2031 0,6.67517 3.2997,-0.18179 5.9924,-0.0236 8.5514,-0.53476 5.3713,-1.07299 7.8476,-4.59585 7.1772,-9.59878 -0.6484,-4.83904 -4.9929,-7.18089 -12.0666,-6.81277 -6.3614,0.33105 -2.6874,5.12098 -3.6401,7.84353 -0.1554,0.44412 -0.022,0.98938 -0.022,2.42761 z"
   id="path7"
   style="fill:#000000" />
<path
   fill="#FDFAFA"
   opacity="1"
   stroke="none"
   d="m 831.75097,204.12512 c 7.3458,12.28549 14.5533,24.21494 22.2631,36.97605 -6.3436,0 -11.9148,0.18725 -17.4539,-0.15067 -1.1735,-0.0716 -2.5241,-1.88907 -3.2919,-3.1965 -4.5383,-7.72766 -8.9286,-15.54224 -13.6276,-23.78144 -8.8294,7.85999 -2.5882,18.18857 -5.3794,26.92917 -4.8521,0 -9.7905,0 -15.1007,0 0,-21.94116 0,-43.81729 0,-66.00775 4.9948,0 10.0546,0 15.5067,0 0,8.29856 0,16.54749 0,24.79645 0.3406,0.15561 0.6811,0.31122 1.0216,0.46683 3.1824,-4.67063 7.0459,-9.02376 9.402,-14.07941 4.5786,-9.82506 11.7402,-13.46431 22.1718,-11.53639 1.5646,0.28914 3.2285,0.0402 5.9378,0.0402 -6.2398,8.04083 -11.9473,15.29913 -17.5298,22.65232 -1.5437,2.03331 -2.7156,4.34896 -3.9197,6.8911 z"
   id="path8"
   style="fill:#000000" />
<path
   fill="#FDF8F9"
   opacity="1"
   stroke="none"
   d="m 562.73857,218.40366 c 2.3325,7.63723 4.5794,14.88412 6.9393,22.4956 -5.9973,0 -11.4376,0 -17.389,0 -1.6236,-5.20148 -3.2859,-10.5271 -5.0386,-16.14236 -5.5327,0 -11.1437,0 -17.3631,0 -1.1846,4.09588 -2.6203,8.45691 -3.6658,12.90951 -0.593,2.52533 -1.5818,3.66501 -4.3335,3.52286 -4.2571,-0.21994 -8.534,-0.058 -13.3959,-0.058 4.3116,-14.29786 8.409,-27.93122 12.5367,-41.55539 2.2152,-7.3111 4.3396,-14.65622 6.8542,-21.86423 0.4683,-1.34239 2.583,-2.12663 3.977,-3.11337 0.2219,-0.15709 0.6508,-0.0293 0.9837,-0.0213 5.2971,0.12817 11.9832,-1.64346 15.4994,0.92464 3.4932,2.55131 3.872,9.44418 5.4854,14.47517 2.9919,9.32933 5.8883,18.68932 8.9102,28.42684 m -26.9798,-18.51548 c -1.032,3.78382 -2.0639,7.5676 -3.192,11.70404 4.1279,0 7.7145,0 11.5487,0 -0.1596,-1.22036 -0.1649,-2.20611 -0.4277,-3.11761 -1.6925,-5.87088 -3.4412,-11.72554 -5.3927,-18.33451 -0.9382,3.51908 -1.6621,6.23424 -2.5363,9.74808 z"
   id="path9"
   style="fill:#000000" />
<path
   fill="#FDFAFB"
   opacity="1"
   stroke="none"
   d="m 396.74547,231.42331 c 0,3.31436 0,6.13904 0,9.33237 -5.2822,0 -10.3455,0 -15.7464,0 0,-21.5701 0,-43.13439 0,-65.11222 9.9629,-1.49336 20.0218,-2.27548 30.0572,-0.38346 11.0017,2.07415 17.3994,9.26149 17.6731,19.17825 0.3044,11.03239 -5.6106,19.25682 -16.4222,22.02943 -4.7924,1.22901 -9.8205,1.5394 -15.5617,2.38803 0,3.61246 0,7.84522 0,12.5676 m 15.3952,-38.57919 c -2.999,-5.65471 -7.5424,-7.17456 -15.0971,-5.08866 0,5.75661 0,11.49045 0,17.17505 10.7764,1.39929 15.8515,-2.4386 15.0971,-12.08639 z"
   id="path10"
   style="fill:#000000" />









<path
   fill="#FBB413"
   opacity="1"
   stroke="none"
   d="m 166.74307,233.61667 c -25.9724,1.02099 -49.2095,-5.87323 -70.338299,-19.99314 -1.4791,-0.98849 -3.4652,-3.06027 -3.2478,-4.27633 0.2678,-1.49692 2.3961,-3.23862 4.0795,-3.80289 6.600099,-2.21234 13.059699,-1.93152 19.096999,2.11118 10.0519,6.73101 20.8202,11.81701 32.8345,13.99057 13.795,2.49569 27.4252,1.50253 40.2083,-4.00479 15.0994,-6.50535 29.8818,-13.80607 44.4918,-21.36126 6.5609,-3.3928 12.727,-3.26587 19.2118,-1.00373 1.405,0.49012 3.2217,1.8571 3.4422,3.07489 0.1986,1.09637 -1.2373,3.04324 -2.4553,3.75967 -24.4952,14.40781 -49.5232,27.53513 -78.3561,30.9657 -2.8062,0.33389 -5.6495,0.35571 -8.9676,0.54013 z"
   id="path20"
   style="fill:#000000" />
<path
   fill="#FBB513"
   opacity="1"
   stroke="none"
   d="m 202.94827,162.65134 c 0.3678,6.64052 1.1066,12.93255 0.6162,19.12727 -0.1791,2.26261 -2.8801,5.14075 -5.1504,6.21057 -2.6714,1.25885 -6.1661,1.34471 -9.2313,1.0848 -8.7346,-0.7407 -9.496,-2.18143 -8.9354,-10.82854 0.2971,-4.58275 -0.6334,-9.23407 -0.748,-13.86092 -0.037,-1.48904 0.2993,-3.46219 1.258,-4.42009 4.5119,-4.50828 18.0183,-2.97009 22.1909,2.68691 z"
   id="path21"
   style="fill:#000000" />
<path
   fill="#FBB513"
   opacity="1"
   stroke="none"
   d="m 159.84197,172.82382 c -0.5007,4.20969 -1.0216,7.99215 -1.4174,11.78763 -0.4061,3.89375 -2.6956,5.93642 -6.3485,6.5939 -1.7892,0.32204 -3.6285,0.47814 -5.4478,0.50208 -11.1939,0.14723 -13.144,-2.0571 -11.5455,-12.92142 0.2174,-1.47764 0.4416,-2.9543 0.6702,-4.43025 0.5915,-3.81793 -0.2026,-8.43619 4.7494,-10.01843 6.1972,-1.98003 12.5847,-2.37671 18.1746,1.37642 1.3075,0.87779 0.8468,4.38896 1.165,7.11007 z"
   id="path22"
   style="fill:#000000" />
</svg>
