<svg id="WROCLAVIA" width="500" height="50.31879" viewBox="0 0 500 50.31879" version="1.1" xml:space="preserve" xmlns:xlink="http://www.w3.org/1999/xlink" xmlns="http://www.w3.org/2000/svg" xmlns:svg="http://www.w3.org/2000/svg">
	<path id="WROCLAVIA" style="fill:#000000;stroke:#000000;stroke-width:0" d="m 391.79436,40.724237 c 0.31176,0 0.52221,-0.124706 0.65471,-0.639118 L 404.17141,0.06236068 h 12.91484 L 403.89082,44.480998 c -1.14573,3.826908 -3.81132,5.822201 -7.31867,5.822201 h -9.94529 c -3.50735,0 -6.18073,-2.06544 -7.30308,-5.822201 L 366.11277,0.06236068 h 12.91484 L 390.75774,40.085119 c 0.1325,0.514412 0.33515,0.639118 0.65471,0.639118 z M 287.51695,36.297182 c 0,1.761469 1.40294,3.187791 3.09426,3.187791 h 12.22117 v 10.82602 h -12.22117 c -9.23602,0 -15.52586,-6.094995 -15.52586,-14.972487 V 7.7941107e-6 h 12.4316 z M 60.942152,40.724237 c 0.350735,0 0.607941,-0.179265 0.724852,-0.678088 L 70.747143,0.06236068 H 83.934779 L 72.968465,44.519969 c -0.888529,3.600879 -3.77235,5.78323 -7.240729,5.78323 h -8.690433 c -3.460586,0 -6.110583,-2.088822 -7.217347,-5.806613 l -7.84867,-26.577918 -7.856463,26.577918 c -1.091176,3.717791 -3.756762,5.806613 -7.217347,5.806613 h -8.682639 c -3.476174,0 -6.359995,-2.182351 -7.248523,-5.78323 L 0,0.06236068 H 13.187635 L 22.283363,40.046149 c 0.101323,0.498823 0.358529,0.678088 0.724852,0.678088 0.358529,0 0.607941,-0.202647 0.662499,-0.405294 L 35.969821,0.0779489 H 47.980546 L 60.271859,40.318943 c 0.04676,0.210441 0.288382,0.405294 0.670293,0.405294 m 284.492838,-20.623218 0.24162,0.22603 v -6.398965 c 0,-1.93294 -1.52765,-3.50735 -3.42162,-3.50735 h -26.7338 V 0.06236068 h 26.7338 c 8.50338,0 15.38558,7.10043492 15.38558,15.85322132 v 34.395411 h -37.1935 c -6.75749,0 -12.26014,-5.65073 -12.26014,-12.62646 v -6.624994 c 0.0779,-6.913376 5.54941,-12.470577 12.26014,-12.470577 l 20.15557,-0.02338 c 2.36941,-0.0078 3.85809,0.592352 4.83235,1.535439 m -21.87807,8.214993 c -1.88617,0 -3.41382,1.574411 -3.41382,3.515144 v 4.614114 c 0,1.932939 1.51985,3.50735 3.41382,3.50735 h 22.11969 v -8.129258 c 0,-1.940734 -1.52765,-3.515144 -3.42162,-3.515144 h -18.69807 z m 164.22971,-8.214993 0.24162,0.22603 v -6.398965 c 0,-1.93294 -1.51986,-3.50735 -3.41382,-3.50735 h -26.7338 V 0.06236068 h 26.7338 C 493.1178,0.06236068 500,7.1627956 500,15.915582 v 34.395411 h -37.1935 c -6.75749,0 -12.26013,-5.65073 -12.26013,-12.62646 v -6.624994 c 0.0779,-6.913376 5.5494,-12.470577 12.26013,-12.470577 l 20.15557,-0.02338 c 2.37721,-0.0078 3.85809,0.592352 4.82456,1.535439 m -21.87028,8.214993 c -1.88617,0 -3.40602,1.574411 -3.40602,3.515144 v 4.614114 c 0,1.932939 1.51985,3.50735 3.40602,3.50735 h 22.1119 v -8.129258 c 0,-1.940734 -1.51986,-3.515144 -3.41382,-3.515144 h -18.69808 z m -344.91278,4.146467 -14.86337,0.01559 v 17.84072 H 94.17624 V 0.07015479 h 35.74379 c 6.7575,0 12.24455,5.64293621 12.24455,12.61087121 v 7.326464 c -0.0702,5.432495 -3.18,10.023227 -8.2072,11.745725 l 9.10352,18.565572 h -13.32013 z m 9.19705,-13.242194 v -5.315584 c 0,-1.932939 -1.51985,-3.507349 -3.40603,-3.507349 H 106.1402 v 12.330283 h 20.65439 c 1.88618,0 3.40603,-1.574411 3.40603,-3.50735 m 39.01732,31.090708 c -8.58911,0 -15.54146,-7.162788 -15.54146,-16.00131 v -18.31616 c 0,-8.8307274 6.95235,-15.9935152058892 15.54146,-15.9935152058892 h 17.77837 c 8.58131,0 15.53366,7.1627878058892 15.53366,15.9935152058892 v 18.31616 c 0,8.838522 -6.94455,16.00131 -15.53366,16.00131 z m -3.09426,-14.013811 c 0,1.761469 1.38735,3.187791 3.09426,3.187791 h 17.77837 c 1.69911,0 3.10205,-1.434116 3.10205,-3.187791 V 14.021613 c 0,-1.761469 -1.40294,-3.195585 -3.10205,-3.195585 h -17.77837 c -1.70691,0 -3.09426,1.426322 -3.09426,3.195585 z M 426.30667,0 h 12.43941 V 50.279816 H 426.30667 Z M 228.2895,36.297182 c 0,1.761469 1.37956,3.187791 3.09427,3.187791 h 16.13381 c 1.70691,0 3.09426,-1.434116 3.09426,-3.187791 v -5.713084 h 12.4316 v 3.73338 c 0,8.838521 -6.95234,16.001309 -15.52586,16.001309 h -16.13381 c -8.58132,0 -15.52587,-7.162788 -15.52587,-16.001309 V 16.001317 C 215.8579,7.1627956 222.81024,7.7941107e-6 231.38377,7.7941107e-6 h 16.13381 c 8.58131,0 15.52586,7.1627878058893 15.52586,16.0013092058893 v 3.008527 h -12.4316 v -4.988231 c 0,-1.761469 -1.38735,-3.195585 -3.09426,-3.195585 h -16.13381 c -1.71471,0 -3.09427,1.426322 -3.09427,3.195585 z" />
</svg>
