<svg
   viewBox="0 0 641.70002 240.2"
   version="1.1"
   id="svg4"
   width="641.70001"
   height="240.2"
   xmlns="http://www.w3.org/2000/svg"
   xmlns:svg="http://www.w3.org/2000/svg">
  <defs
     id="defs1">
    <clipPath
       id="clippath">
      <path
         fill="none"
         d="M 132,89.3 H 773.5 V 329.5 H 132 Z"
         id="path1" />
    </clipPath>
    <style
       id="style1">.cls-3{fill:#fff}</style>
  </defs>
  <g
     id="g4"
     style="fill:#000000"
     transform="translate(-131.8,-89.3)">
    <g
       id="Layer_1"
       style="fill:#000000">
      <path
         d="m 356.8,311.2 h -11.9 l 9.6,6.9 -3.7,11.4 9.6,-7 9.7,7 -3.7,-11.4 9.6,-6.9 h -11.9 l -3.7,-11.3 z M 132,317.3 h 195.5 v 1.6 H 132 Z m 286.3,-6.1 h -11.9 l 9.6,6.9 -3.6,11.4 9.6,-7 9.6,7 -3.7,-11.4 9.7,-6.9 H 425.7 L 422,299.9 Z m 61.6,0 H 468 l 9.6,6.9 -3.7,11.4 9.6,-7 9.7,7 -3.7,-11.4 9.6,-6.9 h -11.9 l -3.7,-11.3 z m 61.5,0 h -11.9 l 9.6,6.9 -3.6,11.4 9.6,-7 9.6,7 -3.7,-11.4 9.7,-6.9 h -11.9 l -3.7,-11.3 z m 34.3,6.1 h 197.8 v 1.6 H 575.7 Z m -150.8,-65 c 0,2.3 1.8,4.1 4,4.1 h 20.7 c 2.2,0 4,-1.8 4,-4.1 V 245 h 16 v 4.8 c 0,11.3 -8.9,20.5 -19.9,20.5 H 429 c -11,0 -19.9,-9.2 -19.9,-20.5 v -23.5 c 0,-11.3 8.9,-20.5 19.9,-20.5 h 20.7 c 11,0 19.9,9.2 19.9,20.5 v 3.9 h -16 v -6.4 c 0,-2.3 -1.8,-4.1 -4,-4.1 h -20.7 c -2.2,0 -4,1.8 -4,4.1 v 28.6 z M 679,205.7 h 16 v 64.5 h -16 z m -44.3,52.2 c 0.4,0 0.7,-0.2 0.8,-0.8 l 15,-51.4 h 16.6 l -16.9,57 c -1.5,4.9 -4.9,7.5 -9.4,7.5 H 628 c -4.5,0 -7.9,-2.6 -9.4,-7.5 l -17,-57 h 16.6 l 15,51.3 c 0.2,0.7 0.4,0.8 0.8,0.8 h 0.5 z m -133.8,-5.6 c 0,2.3 1.8,4.1 4,4.1 h 15.7 v 13.9 H 504.9 C 493,270.3 485,262.5 485,251.1 v -45.3 h 16 v 46.6 z m -290.7,5.6 c 0.4,0 0.8,-0.2 0.9,-0.9 l 11.6,-51.3 h 16.9 l -14.1,57 c -1.1,4.6 -4.8,7.4 -9.3,7.4 h -11.1 c -4.4,0 -7.8,-2.7 -9.3,-7.5 l -10.1,-34.1 -10.1,34.1 c -1.4,4.8 -4.8,7.5 -9.3,7.5 h -11.1 c -4.5,0 -8.2,-2.8 -9.3,-7.4 l -14.1,-57 h 16.9 l 11.7,51.3 c 0.1,0.6 0.5,0.9 0.9,0.9 0.4,0 0.8,-0.3 0.9,-0.5 L 178,205.8 h 15.4 l 15.8,51.6 c 0,0.3 0.4,0.5 0.9,0.5 m 365.1,-26.4 0.3,0.3 v -8.2 c 0,-2.5 -2,-4.5 -4.4,-4.5 h -34.3 v -13.3 h 34.3 c 10.9,0 19.7,9.1 19.7,20.3 v 44.1 h -47.7 c -8.7,0 -15.7,-7.2 -15.7,-16.2 v -8.5 c 0,-8.9 7.1,-16 15.7,-16 H 569 c 3,0 5,0.7 6.2,1.9 m -28,10.6 c -2.4,0 -4.4,2 -4.4,4.5 v 5.9 c 0,2.5 2,4.5 4.4,4.5 h 28.4 v -10.4 c 0,-2.5 -2,-4.5 -4.4,-4.5 z m 210.7,-10.5 0.3,0.3 v -8.2 c 0,-2.5 -2,-4.5 -4.4,-4.5 h -34.3 v -13.3 h 34.3 c 10.9,0 19.7,9.1 19.7,20.3 v 44.1 h -47.7 c -8.7,0 -15.7,-7.2 -15.7,-16.2 v -8.5 c 0,-8.9 7.1,-16 15.7,-16 h 25.9 c 3.1,0 5,0.7 6.2,1.9 M 729.8,242 c -2.4,0 -4.4,2 -4.4,4.5 v 5.9 c 0,2.5 2,4.5 4.4,4.5 h 28.4 v -10.4 c 0,-2.5 -2,-4.5 -4.4,-4.5 z m -442.5,5.3 h -19.1 v 22.9 h -15.4 v -64.5 h 45.9 c 8.7,0 15.7,7.2 15.7,16.2 v 9.4 c 0,7 -4.1,12.9 -10.5,15.1 l 11.7,23.8 h -17.1 z m 11.8,-16.9 v -6.8 c 0,-2.5 -2,-4.5 -4.4,-4.5 h -26.5 v 15.8 h 26.5 c 2.4,0 4.4,-2 4.4,-4.5 m 50,39.8 c -11,0 -19.9,-9.2 -19.9,-20.5 v -23.5 c 0,-11.3 8.9,-20.5 19.9,-20.5 h 22.8 c 11,0 19.9,9.2 19.9,20.5 v 23.5 c 0,11.3 -8.9,20.5 -19.9,20.5 z m -3.9,-17.9 c 0,2.3 1.8,4.1 4,4.1 H 372 c 2.2,0 4,-1.8 4,-4.1 v -28.6 c 0,-2.3 -1.8,-4.1 -4,-4.1 h -22.8 c -2.2,0 -4,1.8 -4,4.1 z"
         class="cls-3"
         id="path2"
         style="fill:#000000" />
      <g
         clip-path="url(#clippath)"
         id="g3"
         style="fill:#000000">
        <path
           fill="#85c441"
           d="m 303.8,98.8 c -2.6,0 -4.8,-2.1 -4.8,-4.8 0,-2.7 2.1,-4.7 4.8,-4.7 2.7,0 4.7,2.1 4.7,4.7 0,2.6 -2.1,4.8 -4.7,4.8 m 6.5,13.8 c -2.6,0 -4.8,-2.1 -4.8,-4.7 0,-2.6 2.1,-4.8 4.8,-4.8 2.7,0 4.7,2.1 4.7,4.8 0,2.6 -2.1,4.7 -4.7,4.7 m 6.5,13.9 c -2.6,0 -4.8,-2.1 -4.8,-4.8 0,-2.7 2.1,-4.7 4.8,-4.7 2.7,0 4.7,2.1 4.7,4.7 0,2.6 -2.1,4.8 -4.7,4.8 m 28.7,50.8 c 0,1.6 -1.3,2.9 -2.9,2.9 -1.6,0 -2.9,-1.3 -2.9,-2.9 0,-1.6 1.3,-2.9 2.9,-2.9 1.6,0 2.9,1.3 2.9,2.9 M 328,135.7 c 0,2.6 -2.1,4.7 -4.7,4.7 -2.6,0 -4.8,-2.1 -4.8,-4.7 0,-2.6 2.1,-4.8 4.8,-4.8 2.6,0 4.7,2.1 4.7,4.8 m 6.5,13.8 c 0,2.6 -2.1,4.8 -4.8,4.8 -2.7,0 -4.8,-2.1 -4.8,-4.8 0,-2.7 2.1,-4.7 4.8,-4.7 2.7,0 4.8,2.1 4.8,4.7 m 6.4,13.9 c 0,2.6 -2.1,4.7 -4.7,4.7 -2.6,0 -4.8,-2.1 -4.8,-4.7 0,-2.6 2.1,-4.8 4.8,-4.8 2.7,0 4.7,2.1 4.7,4.8 m 1.8,-66.5 c -1.6,0 -2.9,-1.3 -2.9,-2.8 0,-1.5 1.3,-2.8 2.9,-2.8 1.6,0 2.9,1.3 2.9,2.8 0,1.5 -1.3,2.8 -2.9,2.8 m 6.5,15.7 c -2.6,0 -4.8,-2.1 -4.8,-4.7 0,-2.6 2.1,-4.8 4.8,-4.8 2.7,0 4.7,2.1 4.7,4.8 0,2.6 -2.1,4.7 -4.7,4.7 m 6.4,13.9 c -2.6,0 -4.7,-2.1 -4.7,-4.8 0,-2.7 2.1,-4.7 4.7,-4.7 2.6,0 4.8,2.1 4.8,4.7 0,2.6 -2.1,4.8 -4.8,4.8 m 30.7,50.8 c 0,2.6 -2.1,4.8 -4.7,4.8 -2.6,0 -4.8,-2.1 -4.8,-4.8 0,-2.7 2.1,-4.7 4.8,-4.7 2.6,0 4.7,2.1 4.7,4.7 m -19.4,-41.6 c 0,2.6 -2.1,4.7 -4.8,4.7 -2.7,0 -4.8,-2.1 -4.8,-4.7 0,-2.6 2.1,-4.8 4.8,-4.8 2.6,0 4.8,2.1 4.8,4.8 m 6.4,13.8 c 0,2.6 -2.1,4.8 -4.8,4.8 -2.7,0 -4.7,-2.1 -4.7,-4.8 0,-2.7 2.1,-4.7 4.7,-4.7 2.6,0 4.8,2.1 4.8,4.7 m 6.5,13.9 c 0,2.6 -2.1,4.7 -4.8,4.7 -2.7,0 -4.8,-2.1 -4.8,-4.7 0,-2.6 2.1,-4.8 4.8,-4.8 2.7,0 4.8,2.1 4.8,4.8 M 329.7,98.8 c -2.6,0 -4.7,-2.1 -4.7,-4.8 0,-2.7 2.1,-4.7 4.7,-4.7 2.6,0 4.8,2.1 4.8,4.7 0,2.6 -2.1,4.8 -4.8,4.8 m 6.5,13.8 c -2.6,0 -4.8,-2.1 -4.8,-4.7 0,-2.6 2.1,-4.8 4.8,-4.8 2.7,0 4.7,2.1 4.7,4.8 0,2.6 -2.1,4.7 -4.7,4.7 m 6.5,13.9 c -2.6,0 -4.7,-2.1 -4.7,-4.8 0,-2.7 2.1,-4.7 4.7,-4.7 2.6,0 4.8,2.1 4.8,4.7 0,2.6 -2.1,4.8 -4.8,4.8 m 30.6,50.8 c 0,2.6 -2.1,4.8 -4.8,4.8 -2.7,0 -4.7,-2.1 -4.7,-4.8 0,-2.7 2.1,-4.7 4.7,-4.7 2.6,0 4.8,2.1 4.8,4.7 m -19.4,-41.6 c 0,2.6 -2.1,4.7 -4.7,4.7 -2.6,0 -4.8,-2.1 -4.8,-4.7 0,-2.6 2.1,-4.8 4.8,-4.8 2.6,0 4.7,2.1 4.7,4.8 m 6.5,13.8 c 0,2.6 -2.1,4.8 -4.8,4.8 -2.7,0 -4.7,-2.1 -4.7,-4.8 0,-2.7 2.1,-4.7 4.7,-4.7 2.6,0 4.8,2.1 4.8,4.7 m 6.5,13.9 c 0,2.6 -2.1,4.7 -4.8,4.7 -2.7,0 -4.8,-2.1 -4.8,-4.7 0,-2.6 2.1,-4.8 4.8,-4.8 2.7,0 4.8,2.1 4.8,4.8 M 316.8,98.8 c -2.6,0 -4.8,-2.1 -4.8,-4.8 0,-2.7 2.1,-4.7 4.8,-4.7 2.7,0 4.7,2.1 4.7,4.7 0,2.6 -2.1,4.8 -4.7,4.8 m 6.5,13.8 c -2.6,0 -4.8,-2.1 -4.8,-4.7 0,-2.6 2.1,-4.8 4.8,-4.8 2.7,0 4.7,2.1 4.7,4.8 0,2.6 -2.1,4.7 -4.7,4.7 m 6.4,13.9 c -2.6,0 -4.8,-2.1 -4.8,-4.8 0,-2.7 2.1,-4.7 4.8,-4.7 2.7,0 4.8,2.1 4.8,4.7 0,2.6 -2.1,4.8 -4.8,4.8 m 30.7,50.8 c 0,2.6 -2.1,4.8 -4.8,4.8 -2.7,0 -4.7,-2.1 -4.7,-4.8 0,-2.7 2.1,-4.7 4.7,-4.7 2.6,0 4.8,2.1 4.8,4.7 m -19.5,-41.6 c 0,2.6 -2.1,4.7 -4.7,4.7 -2.6,0 -4.8,-2.1 -4.8,-4.7 0,-2.6 2.1,-4.8 4.8,-4.8 2.6,0 4.7,2.1 4.7,4.8 m 6.5,13.8 c 0,2.6 -2.1,4.8 -4.8,4.8 -2.7,0 -4.8,-2.1 -4.8,-4.8 0,-2.7 2.1,-4.7 4.8,-4.7 2.7,0 4.8,2.1 4.8,4.7 m 6.5,13.9 c 0,2.6 -2.1,4.7 -4.7,4.7 -2.6,0 -4.8,-2.1 -4.8,-4.7 0,-2.6 2.1,-4.8 4.8,-4.8 2.7,0 4.7,2.1 4.7,4.8 M 459.2,98.8 c 2.6,0 4.8,-2.1 4.8,-4.8 0,-2.7 -2.1,-4.7 -4.8,-4.7 -2.7,0 -4.7,2.1 -4.7,4.7 0,2.6 2.1,4.8 4.7,4.8 m -6.4,13.8 c 2.6,0 4.7,-2.1 4.7,-4.7 0,-2.6 -2.1,-4.8 -4.7,-4.8 -2.6,0 -4.8,2.1 -4.8,4.8 0,2.7 2.1,4.7 4.8,4.7 m -6.5,13.9 c 2.6,0 4.8,-2.1 4.8,-4.8 0,-2.7 -2.1,-4.7 -4.8,-4.7 -2.7,0 -4.7,2.1 -4.7,4.7 0,2.6 2.1,4.8 4.7,4.8 m -28.7,50.8 c 0,1.6 1.3,2.9 2.9,2.9 1.6,0 2.9,-1.3 2.9,-2.9 0,-1.6 -1.3,-2.9 -2.9,-2.9 -1.6,0 -2.9,1.3 -2.9,2.9 m 17.5,-41.6 c 0,2.6 2.1,4.7 4.8,4.7 2.7,0 4.7,-2.1 4.7,-4.7 0,-2.6 -2.1,-4.8 -4.7,-4.8 -2.6,0 -4.8,2.1 -4.8,4.8 m -6.5,13.8 c 0,2.6 2.1,4.8 4.8,4.8 2.7,0 4.8,-2.1 4.8,-4.8 0,-2.7 -2.1,-4.7 -4.8,-4.7 -2.7,0 -4.8,2.1 -4.8,4.7 m -6.5,13.9 c 0,2.6 2.1,4.7 4.7,4.7 2.6,0 4.8,-2.1 4.8,-4.7 0,-2.6 -2.1,-4.8 -4.8,-4.8 -2.7,0 -4.7,2.1 -4.7,4.8 m -1.7,-66.5 c 1.6,0 2.9,-1.3 2.9,-2.8 0,-1.5 -1.3,-2.8 -2.9,-2.8 -1.6,0 -2.9,1.3 -2.9,2.8 0,1.5 1.3,2.8 2.9,2.8 m -6.5,15.7 c 2.6,0 4.8,-2.1 4.8,-4.7 0,-2.6 -2.1,-4.8 -4.8,-4.8 -2.7,0 -4.7,2.1 -4.7,4.8 0,2.7 2.1,4.7 4.7,4.7 m -6.5,13.9 c 2.6,0 4.7,-2.1 4.7,-4.8 0,-2.7 -2.1,-4.7 -4.7,-4.7 -2.6,0 -4.8,2.1 -4.8,4.7 0,2.6 2.1,4.8 4.8,4.8 m -11.2,9.2 c 0,2.6 2.1,4.7 4.8,4.7 2.7,0 4.8,-2.1 4.8,-4.7 0,-2.6 -2.1,-4.8 -4.8,-4.8 -2.6,0 -4.8,2.1 -4.8,4.8 m -6.5,13.8 c 0,2.6 2.1,4.8 4.8,4.8 2.7,0 4.7,-2.1 4.7,-4.8 0,-2.7 -2.1,-4.7 -4.7,-4.7 -2.6,0 -4.8,2.1 -4.8,4.7 m -6.5,13.9 c 0,2.6 2.1,4.7 4.8,4.7 2.7,0 4.8,-2.1 4.8,-4.7 0,-2.6 -2.1,-4.8 -4.8,-4.8 -2.7,0 -4.8,2.1 -4.8,4.8 m 50.1,-64.6 c 2.6,0 4.8,-2.1 4.8,-4.8 0,-2.7 -2.1,-4.7 -4.8,-4.7 -2.7,0 -4.7,2.1 -4.7,4.7 0,2.6 2.1,4.8 4.7,4.8 m -6.4,13.8 c 2.6,0 4.8,-2.1 4.8,-4.7 0,-2.6 -2.1,-4.8 -4.8,-4.8 -2.7,0 -4.7,2.1 -4.7,4.8 0,2.6 2.1,4.7 4.7,4.7 m -6.5,13.9 c 2.6,0 4.8,-2.1 4.8,-4.8 0,-2.7 -2.1,-4.7 -4.8,-4.7 -2.7,0 -4.8,2.1 -4.8,4.7 0,2.6 2.1,4.8 4.8,4.8 m -30.6,50.8 c 0,2.6 2.1,4.8 4.8,4.8 2.7,0 4.7,-2.1 4.7,-4.8 0,-2.7 -2.1,-4.7 -4.7,-4.7 -2.6,0 -4.8,2.1 -4.8,4.7 m 19.4,-41.6 c 0,2.6 2.1,4.7 4.7,4.7 2.6,0 4.8,-2.1 4.8,-4.7 0,-2.6 -2.1,-4.8 -4.8,-4.8 -2.6,0 -4.7,2.1 -4.7,4.8 m -6.5,13.8 c 0,2.6 2.1,4.8 4.8,4.8 2.7,0 4.7,-2.1 4.7,-4.8 0,-2.7 -2.1,-4.7 -4.7,-4.7 -2.6,0 -4.8,2.1 -4.8,4.7 m -6.5,13.9 c 0,2.6 2.1,4.7 4.8,4.7 2.7,0 4.8,-2.1 4.8,-4.7 0,-2.6 -2.1,-4.8 -4.8,-4.8 -2.7,0 -4.8,2.1 -4.8,4.8 m 50.1,-64.6 c 2.6,0 4.8,-2.1 4.8,-4.8 0,-2.7 -2.1,-4.7 -4.8,-4.7 -2.7,0 -4.7,2.1 -4.7,4.7 0,2.6 2.1,4.8 4.7,4.8 m -6.5,13.8 c 2.6,0 4.8,-2.1 4.8,-4.7 0,-2.6 -2.1,-4.8 -4.8,-4.8 -2.7,0 -4.7,2.1 -4.7,4.8 0,2.7 2.1,4.7 4.7,4.7 m -6.4,13.9 c 2.6,0 4.8,-2.1 4.8,-4.8 0,-2.7 -2.1,-4.7 -4.8,-4.7 -2.7,0 -4.7,2.1 -4.7,4.7 0,2.6 2.1,4.8 4.7,4.8 m -30.7,50.8 c 0,2.6 2.1,4.8 4.8,4.8 2.7,0 4.8,-2.1 4.8,-4.8 0,-2.7 -2.1,-4.7 -4.8,-4.7 -2.6,0 -4.8,2.1 -4.8,4.7 m 19.4,-41.6 c 0,2.6 2.1,4.7 4.7,4.7 2.6,0 4.8,-2.1 4.8,-4.7 0,-2.6 -2.1,-4.8 -4.8,-4.8 -2.6,0 -4.7,2.1 -4.7,4.8 m -6.5,13.8 c 0,2.6 2.1,4.8 4.8,4.8 2.7,0 4.8,-2.1 4.8,-4.8 0,-2.7 -2.1,-4.7 -4.8,-4.7 -2.7,0 -4.8,2.1 -4.8,4.7 m -6.4,13.9 c 0,2.6 2.1,4.7 4.7,4.7 2.6,0 4.8,-2.1 4.8,-4.7 0,-2.6 -2.1,-4.8 -4.8,-4.8 -2.7,0 -4.7,2.1 -4.7,4.8 m 50,-36.9 c -2.6,0 -4.7,-2.1 -4.7,-4.8 0,-2.7 2.1,-4.7 4.7,-4.7 2.6,0 4.8,2.1 4.8,4.7 0,2.6 -2.1,4.8 -4.8,4.8 m 28.8,50.8 c 0,1.6 -1.3,2.9 -2.8,2.9 -1.5,0 -2.9,-1.3 -2.9,-2.9 0,-1.6 1.3,-2.9 2.9,-2.9 1.6,0 2.8,1.3 2.8,2.9 m -17.5,-41.6 c 0,2.6 -2.1,4.7 -4.8,4.7 -2.7,0 -4.8,-2.1 -4.8,-4.7 0,-2.6 2.1,-4.8 4.8,-4.8 2.6,0 4.8,2.1 4.8,4.8 m 6.4,13.8 c 0,2.6 -2.1,4.8 -4.8,4.8 -2.7,0 -4.7,-2.1 -4.7,-4.8 0,-2.7 2.1,-4.7 4.7,-4.7 2.6,0 4.8,2.1 4.8,4.7 m 6.5,13.9 c 0,2.6 -2.1,4.7 -4.8,4.7 -2.7,0 -4.8,-2.1 -4.8,-4.7 0,-2.6 2.1,-4.8 4.8,-4.8 2.7,0 4.8,2.1 4.8,4.8 m 1.8,-66.5 c -1.6,0 -2.9,-1.3 -2.9,-2.8 0,-1.5 1.3,-2.8 2.9,-2.8 1.6,0 2.8,1.3 2.8,2.8 0,1.6 -1.2,2.8 -2.8,2.8 m 6.4,15.7 c -2.6,0 -4.7,-2.1 -4.7,-4.7 0,-2.6 2.1,-4.8 4.7,-4.8 2.6,0 4.8,2.1 4.8,4.8 0,2.7 -2.1,4.7 -4.8,4.7 m 6.5,13.9 c -2.6,0 -4.8,-2.1 -4.8,-4.8 0,-2.7 2.1,-4.7 4.8,-4.7 2.7,0 4.7,2.1 4.7,4.7 0,2.6 -2.1,4.8 -4.7,4.8 m 30.7,50.8 c 0,2.6 -2.1,4.8 -4.8,4.8 -2.7,0 -4.8,-2.1 -4.8,-4.8 0,-2.7 2.1,-4.7 4.8,-4.7 2.6,0 4.8,2.1 4.8,4.7 m -19.5,-41.6 c 0,2.6 -2.1,4.7 -4.8,4.7 -2.7,0 -4.7,-2.1 -4.7,-4.7 0,-2.6 2.1,-4.8 4.7,-4.8 2.6,0 4.8,2.1 4.8,4.8 m 6.5,13.8 c 0,2.6 -2.1,4.8 -4.7,4.8 -2.6,0 -4.8,-2.1 -4.8,-4.8 0,-2.7 2.1,-4.7 4.8,-4.7 2.7,0 4.7,2.1 4.7,4.7 m 6.5,13.9 c 0,2.6 -2.1,4.7 -4.8,4.7 -2.7,0 -4.7,-2.1 -4.7,-4.7 0,-2.6 2.1,-4.8 4.7,-4.8 2.6,0 4.8,2.1 4.8,4.8 M 472.2,98.8 c -2.6,0 -4.8,-2.1 -4.8,-4.8 0,-2.7 2.1,-4.7 4.8,-4.7 2.7,0 4.7,2.1 4.7,4.7 0,2.6 -2.1,4.8 -4.7,4.8 m 6.5,13.8 c -2.6,0 -4.8,-2.1 -4.8,-4.7 0,-2.6 2.1,-4.8 4.8,-4.8 2.7,0 4.7,2.1 4.7,4.8 0,2.7 -2.1,4.7 -4.7,4.7 m 6.5,13.9 c -2.6,0 -4.8,-2.1 -4.8,-4.8 0,-2.7 2.1,-4.7 4.8,-4.7 2.7,0 4.7,2.1 4.7,4.7 0,2.6 -2.1,4.8 -4.7,4.8 m 30.6,50.8 c 0,2.6 -2.1,4.8 -4.7,4.8 -2.6,0 -4.8,-2.1 -4.8,-4.8 0,-2.7 2.1,-4.7 4.8,-4.7 2.6,0 4.7,2.1 4.7,4.7 m -19.4,-41.6 c 0,2.6 -2.1,4.7 -4.8,4.7 -2.7,0 -4.7,-2.1 -4.7,-4.7 0,-2.6 2.1,-4.8 4.7,-4.8 2.6,0 4.8,2.1 4.8,4.8 m 6.4,13.8 c 0,2.6 -2.1,4.8 -4.7,4.8 -2.6,0 -4.8,-2.1 -4.8,-4.8 0,-2.7 2.1,-4.7 4.8,-4.7 2.7,0 4.7,2.1 4.7,4.7 m 6.5,13.9 c 0,2.6 -2.1,4.7 -4.8,4.7 -2.7,0 -4.7,-2.1 -4.7,-4.7 0,-2.6 2.1,-4.8 4.7,-4.8 2.6,0 4.8,2.1 4.8,4.8 m -43.6,-50.8 c -2.6,0 -4.8,-2.1 -4.8,-4.7 0,-2.6 2.1,-4.8 4.8,-4.8 2.7,0 4.7,2.1 4.7,4.8 0,2.7 -2.1,4.7 -4.7,4.7 m 6.5,13.9 c -2.6,0 -4.8,-2.1 -4.8,-4.8 0,-2.7 2.1,-4.7 4.8,-4.7 2.7,0 4.7,2.1 4.7,4.7 0,2.6 -2.1,4.8 -4.7,4.8 m 30.6,50.8 c 0,2.6 -2.1,4.8 -4.7,4.8 -2.6,0 -4.8,-2.1 -4.8,-4.8 0,-2.7 2.1,-4.7 4.8,-4.7 2.6,0 4.7,2.1 4.7,4.7 m -19.4,-41.6 c 0,2.6 -2.1,4.7 -4.8,4.7 -2.7,0 -4.8,-2.1 -4.8,-4.7 0,-2.6 2.1,-4.8 4.8,-4.8 2.6,0 4.8,2.1 4.8,4.8 m 6.5,13.8 c 0,2.6 -2.1,4.8 -4.7,4.8 -2.6,0 -4.8,-2.1 -4.8,-4.8 0,-2.7 2.1,-4.7 4.8,-4.7 2.7,0 4.7,2.1 4.7,4.7 m 6.5,13.9 c 0,2.6 -2.1,4.7 -4.8,4.7 -2.7,0 -4.8,-2.1 -4.8,-4.7 0,-2.6 2.1,-4.8 4.8,-4.8 2.7,0 4.8,2.1 4.8,4.8 M 601.7,98.8 c 2.6,0 4.8,-2.1 4.8,-4.8 0,-2.7 -2.1,-4.7 -4.8,-4.7 -2.7,0 -4.7,2.1 -4.7,4.7 0,2.6 2.1,4.8 4.7,4.8 m -6.5,13.8 c 2.6,0 4.8,-2.1 4.8,-4.7 0,-2.6 -2.1,-4.8 -4.8,-4.8 -2.7,0 -4.7,2.1 -4.7,4.8 0,2.7 2.1,4.7 4.7,4.7 m -6.4,13.9 c 2.6,0 4.8,-2.1 4.8,-4.8 0,-2.7 -2.1,-4.7 -4.8,-4.7 -2.7,0 -4.7,2.1 -4.7,4.7 0,2.6 2.1,4.8 4.7,4.8 M 560,177.3 c 0,1.6 1.3,2.9 2.8,2.9 1.5,0 2.8,-1.3 2.8,-2.9 0,-1.6 -1.3,-2.9 -2.8,-2.9 -1.6,0 -2.8,1.3 -2.8,2.9 m 17.6,-41.6 c 0,2.6 2.1,4.7 4.8,4.7 2.7,0 4.8,-2.1 4.8,-4.7 0,-2.6 -2.1,-4.8 -4.8,-4.8 -2.7,0 -4.8,2.1 -4.8,4.8 m -6.5,13.8 c 0,2.6 2.1,4.8 4.7,4.8 2.6,0 4.8,-2.1 4.8,-4.8 0,-2.7 -2.1,-4.7 -4.8,-4.7 -2.7,0 -4.7,2.1 -4.7,4.7 m -6.5,13.9 c 0,2.6 2.1,4.7 4.8,4.7 2.7,0 4.8,-2.1 4.8,-4.7 0,-2.6 -2.1,-4.8 -4.8,-4.8 -2.7,0 -4.8,2.1 -4.8,4.8 m -1.8,-66.5 c 1.6,0 2.8,-1.3 2.8,-2.8 0,-1.5 -1.3,-2.8 -2.8,-2.8 -1.5,0 -2.8,1.3 -2.8,2.8 0,1.5 1.3,2.8 2.8,2.8 m -6.4,15.7 c 2.6,0 4.7,-2.1 4.7,-4.7 0,-2.6 -2.1,-4.8 -4.7,-4.8 -2.6,0 -4.8,2.1 -4.8,4.8 0,2.7 2.1,4.7 4.8,4.7 m -6.5,13.9 c 2.6,0 4.8,-2.1 4.8,-4.8 0,-2.7 -2.1,-4.7 -4.8,-4.7 -2.7,0 -4.7,2.1 -4.7,4.7 0,2.6 2.1,4.8 4.7,4.8 m -11.2,9.2 c 0,2.6 2.1,4.7 4.8,4.7 2.7,0 4.7,-2.1 4.7,-4.7 0,-2.6 -2.1,-4.8 -4.7,-4.8 -2.6,0 -4.8,2.1 -4.8,4.8 m -6.5,13.8 c 0,2.6 2.1,4.8 4.8,4.8 2.7,0 4.8,-2.1 4.8,-4.8 0,-2.7 -2.1,-4.7 -4.8,-4.7 -2.7,0 -4.8,2.1 -4.8,4.7 m -6.5,13.9 c 0,2.6 2.1,4.7 4.8,4.7 2.7,0 4.7,-2.1 4.7,-4.7 0,-2.6 -2.1,-4.8 -4.7,-4.8 -2.6,0 -4.8,2.1 -4.8,4.8 m 50.1,-64.6 c 2.6,0 4.8,-2.1 4.8,-4.8 0,-2.7 -2.1,-4.7 -4.8,-4.7 -2.7,0 -4.7,2.1 -4.7,4.7 0,2.6 2.1,4.8 4.7,4.8 m -6.5,13.8 c 2.6,0 4.7,-2.1 4.7,-4.7 0,-2.6 -2.1,-4.8 -4.7,-4.8 -2.6,0 -4.8,2.1 -4.8,4.8 0,2.7 2.1,4.7 4.8,4.7 m -6.5,13.9 c 2.6,0 4.8,-2.1 4.8,-4.8 0,-2.7 -2.1,-4.7 -4.8,-4.7 -2.7,0 -4.7,2.1 -4.7,4.7 0,2.6 2.1,4.8 4.7,4.8 m -30.6,50.8 c 0,2.6 2.1,4.8 4.8,4.8 2.7,0 4.8,-2.1 4.8,-4.8 0,-2.7 -2.1,-4.7 -4.8,-4.7 -2.6,0 -4.8,2.1 -4.8,4.7 m 19.4,-41.6 c 0,2.6 2.1,4.7 4.8,4.7 2.7,0 4.7,-2.1 4.7,-4.7 0,-2.6 -2.1,-4.8 -4.7,-4.8 -2.6,0 -4.8,2.1 -4.8,4.8 m -6.4,13.8 c 0,2.6 2.1,4.8 4.8,4.8 2.7,0 4.8,-2.1 4.8,-4.8 0,-2.7 -2.1,-4.7 -4.8,-4.7 -2.7,0 -4.8,2.1 -4.8,4.7 m -6.5,13.9 c 0,2.6 2.1,4.7 4.8,4.7 2.7,0 4.7,-2.1 4.7,-4.7 0,-2.6 -2.1,-4.8 -4.7,-4.8 -2.6,0 -4.8,2.1 -4.8,4.8 m 50.1,-64.6 c 2.6,0 4.8,-2.1 4.8,-4.8 0,-2.7 -2.1,-4.7 -4.8,-4.7 -2.7,0 -4.7,2.1 -4.7,4.7 0,2.6 2.1,4.8 4.7,4.8 m -6.5,13.8 c 2.6,0 4.7,-2.1 4.7,-4.7 0,-2.6 -2.1,-4.8 -4.7,-4.8 -2.6,0 -4.8,2.1 -4.8,4.8 0,2.7 2.1,4.7 4.8,4.7 m -6.5,13.9 c 2.6,0 4.8,-2.1 4.8,-4.8 0,-2.7 -2.1,-4.7 -4.8,-4.7 -2.7,0 -4.7,2.1 -4.7,4.7 0,2.6 2.1,4.8 4.7,4.8 m -30.6,50.8 c 0,2.6 2.1,4.8 4.8,4.8 2.7,0 4.8,-2.1 4.8,-4.8 0,-2.7 -2.1,-4.7 -4.8,-4.7 -2.6,0 -4.8,2.1 -4.8,4.7 m 19.4,-41.6 c 0,2.6 2.1,4.7 4.8,4.7 2.7,0 4.8,-2.1 4.8,-4.7 0,-2.6 -2.1,-4.8 -4.8,-4.8 -2.6,0 -4.8,2.1 -4.8,4.8 m -6.5,13.8 c 0,2.6 2.1,4.8 4.7,4.8 2.6,0 4.8,-2.1 4.8,-4.8 0,-2.7 -2.1,-4.7 -4.8,-4.7 -2.7,0 -4.7,2.1 -4.7,4.7 m -6.4,13.9 c 0,2.6 2.1,4.7 4.8,4.7 2.7,0 4.8,-2.1 4.8,-4.7 0,-2.6 -2.2,-4.8 -4.8,-4.8 -2.6,0 -4.8,2.1 -4.8,4.8"
           id="path3"
           style="fill:#000000" />
      </g>
    </g>
  </g>
</svg>
