<svg
   version="1.1"
   id="svg1"
   width="997.88336"
   height="209.77354"
   viewBox="0 0 997.88336 209.77354"
   xmlns="http://www.w3.org/2000/svg"
   xmlns:svg="http://www.w3.org/2000/svg">
  <defs
     id="defs1" />
  <g
     id="g1"
     transform="translate(-151.52948,12.395641)">
    <path
       style="fill:#000000"
       d="m 218.39469,196.42744 c -32.23242,-3.65061 -48.34804,-12.63662 -58.09058,-32.39109 -7.49672,-15.20075 -9.34473,-32.93124 -8.63393,-82.837294 0.42429,-29.79055 0.75422,-35.37852 2.57794,-43.66271 2.84299,-12.91419 7.87806,-22.77316 15.52282,-30.3946104 10.99928,-10.96575 25.42627,-16.36934 49.77333,-18.6424696 18.86613,-1.76141 102.63227,-0.72722 113.85042,1.40561 26.61769,5.0606596 39.94969,13.5904596 48.54802,31.06101 6.52859,13.26513 8.74554,32.09489 8.83851,75.07046 0.068,31.415404 -0.83229,42.693814 -4.5073,56.467454 -7.34283,27.52036 -25.12587,39.87639 -63.37923,44.03721 -10.82783,1.17774 -93.89565,1.08746 -104.5,-0.11357 z m 101.86459,-27.9141 c 27.71749,-2.45333 35.26841,-7.98237 40.93911,-29.97699 1.42981,-5.54569 1.67585,-12.29923 1.67585,-46.000004 0,-43.48394 -0.37305,-46.9273 -6.36493,-58.75001 -3.57109,-7.04619 -6.03307,-9.41551 -13.11757,-12.62388 -10.01648,-4.53618 -18.35959,-5.12611 -72.49705,-5.12611 -62.04733,0 -69.16889,0.90135 -79.33444,10.04105 -5.60672,5.04093 -8.50054,10.93674 -10.94263,22.29429 -2.49185,11.589 -2.48428,77.249034 0.0102,88.440084 2.45607,11.01872 5.34037,17.07673 10.31264,21.66001 6.76929,6.23971 13.72469,8.54427 30.20693,10.00858 13.08751,1.16271 86.07389,1.187 99.11189,0.033 z M 215.37448,119.9122 C 204.1106,97.018916 194.77472,77.983996 194.62808,77.612386 c -0.28718,-0.72782 26.60603,-14.12407 28.26661,-14.08037 0.55,0.0145 8.60955,15.54637 17.91012,34.51533 9.30057,18.968954 17.07591,34.489004 17.27852,34.489004 0.76896,0 12.31136,-6.04862 12.31136,-6.45158 0,-0.23253 -7.62411,-15.99094 -16.94247,-35.018694 l -16.94247,-34.5959 14.39753,-7.17852 c 7.91864,-3.94818 14.54524,-6.9708 14.72578,-6.71691 0.18054,0.25388 7.96327,16.03451 17.29494,35.06805 l 16.96669,34.606454 6.25,-3.07108 c 3.4375,-1.68909 6.25,-3.35378 6.25,-3.6993 0,-0.34553 -7.59744,-16.111444 -16.88319,-35.035374 l -16.88319,-34.40715 14.13319,-7.15811 c 7.77325,-3.93696 14.44502,-6.86196 14.82616,-6.5 0.38113,0.36196 9.92009,19.44848 21.19769,42.41448 l 20.50472,41.756364 -3.69769,1.88267 c -12.88178,6.55872 -108.43961,53.1046 -109.02276,53.1046 -0.39344,0 -9.93125,-18.73087 -21.19514,-41.62415 z m 362.02021,58.73937 v -9.11522 h 3.3185 c 5.15682,0 12.93204,-2.67447 17.59478,-6.05215 5.57443,-4.03809 7.50396,-8.6818 6.7208,-16.17463 -0.79478,-7.60405 -1.78584,-10.40597 -21.60809,-61.090134 -9.3643,-23.94388 -17.02599,-44.0341 -17.02599,-44.64492 0,-0.75771 3.09567,-1.01965 9.74276,-0.82438 l 9.74276,0.28621 14.94546,39.26178 c 8.22001,21.593974 15.24731,38.918974 15.61622,38.500004 0.55141,-0.62624 14.36257,-40.346564 24.69151,-71.011784 l 2.44202,-7.25 h 9.97702 c 9.89136,0 9.97089,0.0193 9.26327,2.25 -0.39257,1.2375 -10.72265,29.84765 -22.95573,63.578104 -16.19582,44.65696 -23.04438,62.32625 -25.19379,65 -6.60006,8.2101 -18.31447,14.03382 -31.55717,15.68839 l -5.71433,0.71396 z m 289.24351,-64.36522 0.25649,-73.250004 9.75,-0.28621 9.75,-0.28621 v 4.21053 4.21052 l 2.25,-2.06146 c 13.47426,-12.3452 43.46216,-9.41133 56.93158,5.5699 9.72982,10.82191 13.26599,23.28281 12.52693,44.14293 -0.63985,18.060224 -3.9113,27.448054 -13.14324,37.716184 -8.82502,9.81555 -18.87361,13.79833 -34.56527,13.70003 -10.34543,-0.0648 -11.18864,-0.25032 -22.25,-4.89531 -1.63673,-0.68731 -1.75,0.72836 -1.75,21.87211 v 22.60699 H 876.3882 866.38171 Z m 53.07399,14.8084 c 5.65299,-2.43096 12.16881,-8.93681 14.59202,-14.56971 3.32069,-7.71915 4.64402,-19.572424 3.30359,-29.590704 -2.44141,-18.24691 -9.13087,-25.84692 -25.17128,-28.59755 -8.30715,-1.42451 -13.8597,-0.36053 -21.04183,4.03207 l -4.5,2.7522 -0.26406,31.07353 c -0.29542,34.763494 -0.86195,32.071184 7.45677,35.436114 5.84507,2.36434 19.5468,2.07776 25.62479,-0.53595 z m 92.68251,-15.0584 V 40.536346 h 9.5 9.5 v 3.9934 3.99339 l 4.5423,-3.46721 c 14.811,-11.30547 42.6021,-7.24315 55.2976,8.08304 7.7543,9.36118 11.3739,22.01903 11.409,39.89738 0.039,19.642204 -4.1674,31.403774 -15.2307,42.591464 -7.3755,7.45839 -13.1976,10.20372 -25.5291,12.0378 -8.404,1.24995 -19.7149,-0.48136 -26.6041,-4.07219 l -3.885,-2.02497 v 22.98395 22.98395 h -9.5 -9.5 z m 46.9671,16.41365 c 10.9916,-2.35728 19.3872,-11.44645 22.0162,-23.83498 1.8971,-8.939134 0.8936,-27.033774 -1.9019,-34.296254 -4.1414,-10.75916 -14.1199,-16.78242 -27.8027,-16.78242 -6.4144,0 -11.0647,1.6445 -17.5287,6.19868 l -2.75,1.93751 v 30.27692 c 0,34.326924 -0.5648,31.999594 8.639,35.594614 5.5578,2.17087 12.018,2.47367 19.3281,0.90593 z M 434.48885,95.824416 c -10.12321,-29.03344 -18.60886,-53.35057 -18.85699,-54.03807 -0.34266,-0.9494 2.07997,-1.25 10.07417,-1.25 h 10.52532 l 9.1368,28.25 c 13.71536,42.406444 12.67188,39.549734 13.60646,37.250004 0.44702,-1.1 6.54171,-16.175004 13.54375,-33.500004 12.3802,-30.63209 12.81097,-31.50828 15.63433,-31.80073 l 2.90335,-0.30073 14.10812,33.79201 c 10.41112,24.93689 14.30237,33.285804 14.8494,31.860284 0.4077,-1.06246 5.72844,-16.133534 11.82387,-33.491284 l 11.0826,-31.55955 9.81651,-0.28716 c 9.05176,-0.2648 9.7697,-0.14794 9.21555,1.5 -0.33053,0.98294 -8.82983,25.18716 -18.88733,53.78716 l -18.28637,52.000004 -2.94185,0.28599 -2.94185,0.28598 -14.97097,-34.98167 c -8.23404,-19.239934 -15.18255,-34.770114 -15.44115,-34.511524 -0.25859,0.2586 -7.0655,15.87166 -15.12646,34.695704 -14.19276,33.14304 -14.74811,34.23463 -17.55886,34.51359 l -2.90256,0.28806 z m 359.01417,51.630324 c -16.49208,-3.23885 -29.49353,-16.37469 -34.12299,-34.47569 -2.4831,-9.70882 -2.71621,-28.152724 -0.46743,-36.982604 3.66522,-14.39155 14.22293,-27.80206 25.98186,-33.00242 11.47153,-5.07325 27.03369,-5.2232 39.96473,-0.38507 12.17096,4.55374 22.80875,18.28454 26.06265,33.64054 1.85344,8.74685 1.84086,24.885804 -0.0263,33.699294 -3.06279,14.45739 -11.67455,27.09862 -22.45967,32.96861 -8.88502,4.83584 -23.64862,6.75344 -34.93288,4.53734 z m 22.78516,-18.1665 c 9.90315,-5.09634 15.45637,-17.7111 15.51844,-35.251894 0.0919,-25.98383 -8.62504,-38.51448 -26.77612,-38.49061 -6.05536,0.008 -7.91104,0.45402 -12.25579,2.94597 -10.35074,5.93671 -14.87414,16.76526 -14.84805,35.54464 0.0208,14.968374 2.44909,23.977674 8.2024,30.432064 7.15091,8.02231 19.95867,10.06916 30.15912,4.81983 z m 160.45811,18.18673 c -7.11787,-2.13226 -11.84214,-11.89222 -9.37494,-19.3679 1.46744,-4.44639 6.97413,-9.28326 11.54509,-10.14078 4.85165,-0.91017 11.83531,1.85835 14.64651,5.80631 3.328,4.67384 3.6369,12.35016 0.6708,16.6718 -4.4518,6.48627 -10.79346,9.03586 -17.48746,7.03057 z m 163.36431,-0.0289 c -11.8727,-1.73726 -19.7393,-7.0997 -23.8994,-16.2915 l -2.3165,-5.11826 -0.2848,-64.25 -0.2849,-64.2500004 h 9.4982 9.4982 l 0.2867,60.7500004 c 0.2655,56.27415 0.4191,60.99271 2.0852,64.04423 2.0467,3.74867 6.6842,6.91323 11.4514,7.81416 l 3.25,0.6142 v 8.8887 c 0,10.00652 0.8614,9.283 -9.2841,7.79847 z M 672.39469,72.536346 V -1.4636544 h 9.48981 9.48981 l 0.26019,44.9397604 0.26019,44.93976 19.52981,-23.68976 19.52981,-23.68976 11.22019,-0.28275 c 6.1711,-0.15551 11.22019,0.008 11.22019,0.36349 0,0.35542 -6.6375,8.50764 -14.75,18.11604 -8.1125,9.6084 -15.54586,18.51728 -16.51858,19.79752 -1.75762,2.31329 -1.64453,2.5246 18.25,34.100604 11.01022,17.47509 20.01858,32.14013 20.01858,32.58899 0,0.44886 -4.6125,0.80914 -10.25,0.80063 l -10.25,-0.0155 -15.85829,-25.48452 c -8.72206,-14.01649 -16.15761,-25.484526 -16.52346,-25.484526 -0.36584,0 -4.14212,3.49746 -8.39171,7.772126 l -7.72654,7.77212 v 17.72788 17.72788 h -9.5 -9.5 z"
       id="path1" />
  </g>
</svg>
