<?xml version="1.0" encoding="UTF-8" standalone="no"?>
<svg id="XVIDEOSSVG" width="1499.9984" height="320.98901" viewBox="0 0 1499.9985 320.98902" version="1.1" xml:space="preserve" xmlns:xlink="http://www.w3.org/1999/xlink" xmlns="http://www.w3.org/2000/svg" xmlns:svg="http://www.w3.org/2000/svg">
   <defs id="XVIDEOSDEFS" />
      <g id="XVIDEOSG" style="fill:#000000;stroke:none" transform="matrix(1.0529408,0,0,1.0529408,-51.58357,-54.258039)">
         <path id="XVIDEOS1" style="fill:#000000;stroke:none" d="M 474.45,258.31 520.48,82.6 H 582.1 L 503.19,324.86 H 445.7 L 367.36,82.6 h 61.25 z" />
         <path id="XVIDEOS2" style="fill:#000000;stroke:none" d="M 655.9,324.86 H 600.66 V 82.6 h 55.24 z" />
         <path id="XVIDEOS3" style="fill:#000000;stroke:none" d="M 692.68,324.86 V 82.6 h 72.33 c 31.94,0 57.4,8.98 76.37,26.96 18.97,17.97 28.65,42.6 29.03,73.88 v 39.27 c 0,31.84 -9.49,56.82 -28.46,74.96 -18.97,18.14 -45.12,27.21 -78.44,27.21 h -70.83 z m 55.24,-201.49 v 160.9 h 16.53 c 18.41,0 31.38,-4.3 38.89,-12.9 7.51,-8.59 11.46,-23.43 11.84,-44.51 v -42.1 c 0,-22.63 -3.57,-38.41 -10.71,-47.34 -7.14,-8.93 -19.29,-13.62 -36.45,-14.06 h -20.1 z" />
         <path id="XVIDEOS4" style="fill:#000000;stroke:none" d="m 1041.72,220.04 h -86.05 v 64.23 h 101.83 v 40.6 H 900.44 V 82.6 h 156.69 v 40.77 H 955.67 v 57.24 h 86.05 z" />
         <path id="XVIDEOS5" style="fill:#000000;stroke:none" d="m 1272.21,225.53 c 0,32.5 -8.67,57.74 -26.02,75.71 -17.35,17.97 -41.43,26.96 -72.24,26.96 -30.69,0 -54.8,-8.9 -72.33,-26.71 -17.54,-17.8 -26.43,-42.73 -26.68,-74.79 v -41.43 c 0,-33.28 8.7,-59.26 26.12,-77.95 17.41,-18.69 41.58,-28.04 72.52,-28.04 30.44,0 54.42,9.18 71.96,27.54 17.53,18.36 26.43,44.12 26.68,77.29 v 41.42 z m -55.43,-40.6 c 0,-21.85 -3.51,-38.1 -10.52,-48.75 -7.02,-10.65 -17.91,-15.97 -32.69,-15.97 -14.65,0 -25.49,5.13 -32.5,15.39 -7.02,10.26 -10.65,25.87 -10.9,46.84 v 43.09 c 0,21.19 3.57,36.8 10.71,46.84 7.14,10.04 18.16,15.06 33.07,15.06 14.4,0 25.11,-4.91 32.13,-14.73 7.01,-9.82 10.58,-25.04 10.71,-45.67 v -42.1 z" />
         <path id="XVIDEOS6" style="fill:#000000;stroke:none" d="m 1417.77,261.3 c 0,-9.87 -2.85,-17.33 -8.55,-22.38 -5.7,-5.05 -16.06,-10.29 -31.09,-15.72 -27.43,-9.21 -47.16,-19.99 -59.18,-32.36 -12.02,-12.37 -18.04,-26.98 -18.04,-43.84 0,-20.41 8.17,-36.8 24.52,-49.17 16.34,-12.37 37.11,-18.55 62.28,-18.55 16.78,0 31.75,3.14 44.9,9.4 13.15,6.27 23.26,15.12 30.34,26.54 7.08,11.43 10.62,24.4 10.62,38.94 h -55.05 c 0,-11.31 -2.72,-19.94 -8.17,-25.87 -5.45,-5.93 -13.31,-8.9 -23.58,-8.9 -9.65,0 -17.16,2.52 -22.54,7.57 -5.39,5.05 -8.08,11.84 -8.08,20.38 0,6.66 3.01,12.67 9.02,18.05 6.01,5.38 16.66,10.96 31.94,16.72 26.68,8.54 46.06,19.03 58.15,31.45 12.08,12.42 18.13,28.23 18.13,47.42 0,21.08 -7.58,37.55 -22.73,49.42 -15.16,11.87 -35.76,17.8 -61.81,17.8 -17.66,0 -33.76,-3.22 -48.28,-9.65 -14.53,-6.43 -25.9,-15.64 -34.1,-27.62 -8.21,-11.98 -12.31,-26.12 -12.31,-42.43 h 55.42 c 0,13.98 3.07,24.13 9.21,30.45 6.14,6.32 16.16,9.48 30.06,9.48 19.28,-0.01 28.92,-9.04 28.92,-27.13 z" />
         <polygon id="XVIDEOSP1" style="fill:#000000;stroke:none" points="236.59,118.25 261.69,174.39 363.41,51.53 284.48,51.53 " />
         <polygon id="XVIDEOSP2" style="fill:#000000;stroke:none" points="255.08,214.36 211.49,274.14 250.46,356.38 334.02,356.38 " />
         <polygon id="XVIDEOSP3" style="fill:#000000;stroke:none" points="177.78,193.46 98.53,51.53 181.43,51.53 247.49,191.24 128.59,356.38 48.99,356.38 " />
      </g>
</svg>
