<svg
   id="svg6"
   version="1.1"
   viewBox="0 0 76.900002 31.037647"
   preserveAspectRatio="xMidYMid"
   width="76.900002"
   height="31.037647"
   xmlns="http://www.w3.org/2000/svg"
   xmlns:svg="http://www.w3.org/2000/svg"
   xmlns:rdf="http://www.w3.org/1999/02/22-rdf-syntax-ns#"
   xmlns:cc="http://creativecommons.org/ns#"
   xmlns:dc="http://purl.org/dc/elements/1.1/">
  <metadata
     id="metadata12">
    <rdf:RDF>
      <cc:Work
         rdf:about="">
        <dc:format>image/svg+xml</dc:format>
        <dc:type
           rdf:resource="http://purl.org/dc/dcmitype/StillImage" />
        <dc:title>Żabka</dc:title>
      </cc:Work>
    </rdf:RDF>
  </metadata>
  <defs
     id="defs10" />
  <title
     id="title2">Żabka</title>
  <path
     style="fill:#000000;fill-opacity:1"
     id="path4"
     d="m 13.2,25.262647 0.6,-3.1 c 9.8,6.2 22.4,6.2 32.2,0 l 0.6,3.1 c -9.8,7.7 -23.6,7.7 -33.4,0 z m 38.8,-14.3 c 1.1,0.2 2.3,0.1 3.3,-0.5 0.8,-0.5000008 1.3,-1.3000008 1.5,-2.2000008 0.2,-0.9 0.3,-1.7 0.4,-2.6 H 61 c 0,0.4 0,0.9 0,1.4 -0.1,1.2 -0.4,2.3 -0.9,3.2999998 -0.4,0.800001 -1.1,1.500001 -1.8,2.000001 -0.2,0.1 -0.4,0.3 -0.6,0.4 0.2,0.3 0.4,0.7 0.5,1 1,1.8 2,3.5 3.1,5.3 0.1,0.2 0.2,0.4 0.3,0.6 0.1,0.2 0.1,0.4 0.1,0.6 h -4.2 l -3.3,-6 -2.2,0.2 v 5.9 H 47.9 V 0.56264622 H 52 Z M 12.2,5.5626462 c 0,0.2 -0.1,0.4 -0.2,0.7 -0.7,1.2 -1.4,2.4 -2.1,3.6 -1.3,2.2000008 -2.6,4.4000008 -3.8,6.6000008 0,0.1 -0.1,0.2 -0.1,0.3 1.1,0 2.1,0 3.1,0 1,0 2,0 3.1,0 v 3.6 H 0 c 0,-0.2 0.1,-0.4 0.2,-0.6 0.6,-1.1 1.2,-2.1 1.8,-3.1 0.6,-1 1.1,-1.9 1.7,-2.9 0.8,-1.4 1.6,-2.8 2.4,-4.1000008 0.1,-0.1 0.1,-0.2 0.2,-0.4 -0.5,0 -1,0 -1.5,0 -0.5,0 -1,0 -1.4,0 H 0.5 v -3.7 z m -5.7,-1.4 c -0.6,0.1 -1.1,-0.1 -1.5,-0.5 -0.6,-0.5 -0.9,-1.4 -0.6,-2.2 0.2,-0.69999998 0.9,-1.29999998 1.7,-1.39999998 0.7,-0.2 1.5,0.1 2,0.6 0.6,0.59999998 0.7,1.39999998 0.5,2.19999998 -0.3,0.8 -1,1.3 -1.8,1.3 -0.1,0.1 -0.2,0.1 -0.3,0 z M 45,10.162646 C 44.6,8.7626462 43.8,7.4626462 42.6,6.5626462 c -1.1,-0.8 -2.3,-1.2 -3.6,-1.2 -1.1,-0.1 -2.3,0.1 -3.4,0.5 -0.1,0 -0.3,0.1 -0.4,0.1 V 0.56264622 H 31.1 V 19.462647 c 0.6,0.2 1.2,0.3 1.8,0.4 1,0.3 2,0.5 3.1,0.7 1.6,0.2 3.2,0 4.8,-0.5 2.4,-0.7 4.2,-2.7 4.5,-5.2 0.2,-1.5 0.2,-3.2 -0.3,-4.700001 z m -3.9,4.900001 c -0.3,1 -1.1,1.8 -2.1,2 -1.2,0.3 -2.5,0.2 -3.6,-0.2 0,0 -0.1,0 -0.1,-0.1 V 9.4626462 c 1.4,-1 3.3,-1 4.7,-0.1 0.5,0.4 0.8,0.8999998 1,1.5000008 0.4,1.3 0.5,2.8 0.1,4.2 z M 27.3,6.5626462 c -1,-0.4 -2.1,-0.7 -3.2,-0.9 -1.5,-0.3 -3,-0.4 -4.5,-0.3 -1.3,0.1 -2.6,0.7 -3.6,1.7 -0.9,1 -1.6,2.2 -1.8,3.5000008 -0.2,1 -0.3,2 -0.3,3 0,1.3 0.3,2.5 0.9,3.6 0.5,0.9 1.2,1.7 2.1,2.2 2,1.1 4.3,1.5 6.5,1.1 1.6,-0.2 3.1,-0.7 4.7,-1 V 6.9626462 c -0.2,-0.1 -0.5,-0.3 -0.8,-0.4 z M 24.1,16.862647 c -1.4,0.5 -2.9,0.6 -4.3,0 -0.7,-0.3 -1.2,-0.8 -1.5,-1.6 -0.5,-1.6 -0.5,-3.2 0.1,-4.8 0.4,-1.0000008 1.4,-1.7000008 2.4,-1.8000008 1,-0.1 2.1,0 3,0.5 0.1,0 0.1,0.1 0.2,0.1 z M 75.6,6.3626462 c -1.2,-0.4 -2.4,-0.7 -3.7,-0.9 -1.2,-0.2 -2.5,-0.2 -3.8,0 -2.3,0.4 -4.1,2.1 -4.8,4.3 -0.5,1.7000008 -0.7,3.5000008 -0.4,5.3000008 0.2,1.6 1,3.1 2.3,4.1 0.3,0.2 0.7,0.5 1,0.6 0.8,0.4 1.8,0.7 2.7,0.8 1.1,0.2 2.2,0.2 3.3,0 1.6,-0.3 3.2,-0.7 4.7,-1 V 6.9626462 c -0.4,-0.2 -0.8,-0.4 -1.3,-0.6 z M 73,16.862647 c -0.2,0.1 -0.3,0.1 -0.5,0.1 -0.8,0.2 -1.6,0.3 -2.5,0.3 -1,0 -1.9,-0.5 -2.5,-1.3 -0.3,-0.4 -0.5,-0.9 -0.6,-1.4 -0.2,-1.2 -0.2,-2.4 0.2,-3.6 0.3,-1.2000008 1.4,-2.1000008 2.6,-2.2000008 1.1,-0.2 2.2,0 3.2,0.6 z" />
</svg>
