<svg id="ZABKA" width="500" height="126.56839" viewBox="0 0 500 126.56839" version="1.1" xml:space="preserve" xmlns:xlink="http://www.w3.org/1999/xlink" xmlns="http://www.w3.org/2000/svg" xmlns:svg="http://www.w3.org/2000/svg">
	<path id="ZABKA" style="fill:#000000;stroke:#000000;stroke-width:0" d="m 343.90708,67.259045 c 21.35269,0 26.73066,-14.68461 26.73066,-33.319053 h 25.42754 c 0.57226,19.206644 -3.8586,35.209843 -22.12807,44.620435 l 26.54581,43.196633 v 2.68043 H 373.36496 L 351.23632,86.727227 c -2.48245,0.779937 -5.07787,1.162203 -7.68526,1.131964 h -6.1659 V 124.43749 H 310.64137 V 3.1023898 h 26.73067 V 67.166046 Z M 473.82276,56.99035 c -5.47553,-2.539673 -11.4811,-3.794076 -17.53859,-3.663307 -12.51037,0.559763 -22.12864,6.966201 -22.12864,27.28621 0,18.447475 9.80883,24.468447 23.47627,24.667567 5.48409,0.0262 10.94194,-0.74057 16.19724,-2.27648 z M 500,119.55532 c -11.37213,1.64204 -21.40975,6.84142 -39.25986,6.99091 -28.26886,0.28584 -53.48017,-10.54256 -53.48017,-45.932977 0,-31.4597 18.66372,-48.551614 44.44728,-48.551614 16.62914,0.231699 33.03805,3.758817 48.2357,10.368368 z M 156.67145,56.903627 c -5.4761,-2.537847 -11.48053,-3.792136 -17.53859,-3.663649 -12.49725,0.559763 -22.11552,6.965973 -22.11552,27.285981 0,18.448046 9.80883,24.468451 23.38726,24.667571 5.50292,0.0599 10.98473,-0.67781 16.26685,-2.18919 z m 26.16526,62.558123 c -11.36015,1.64204 -21.3972,6.842 -39.24732,6.99091 -28.28198,0.28641 -53.480728,-10.57337 -53.480728,-45.932977 0,-31.459414 18.663708,-48.551328 44.447268,-48.551328 16.62972,0.228561 33.03977,3.75585 48.23627,10.368368 z m 45.54671,-16.46368 c 5.24618,1.52393 10.69318,2.28504 16.16586,2.25765 13.66687,-0.19912 23.4757,-6.219526 23.4757,-24.667571 0,-20.320009 -9.6177,-26.744876 -22.12807,-27.285982 -6.17673,-0.0388 -12.24506,1.587888 -17.53859,4.702045 z M 202.21874,3.2889813 h 26.74949 V 36.297318 c 6.82773,-2.78729 14.14556,-4.245036 21.54383,-4.291649 25.78299,-0.199064 44.43415,17.160322 44.43415,48.626412 0,35.396699 -25.19875,45.646559 -53.48016,45.932979 -15.892,0.15518 -26.06313,-5.15033 -39.24731,-7.15294 z M 27.773166,13.22819 c -0.02111,-1.79648 0.336908,-3.5778966 1.05146,-5.2328804 0.714552,-1.6549267 1.770405,-3.1478753 3.101433,-4.3854474 1.331084,-1.2375664 2.908816,-2.1931516 4.634491,-2.80700814 1.725674,-0.61385652 3.562206,-0.87278187 5.394858,-0.76058963 1.861521,-0.14583165 3.733712,0.08666599 5.498982,0.68290975 1.765214,0.59623232 3.385337,1.54330502 4.758528,2.78168732 1.373134,1.238388 2.46961,2.7412641 3.220506,4.4142771 0.750896,1.672956 1.139952,3.4798194 1.142804,5.3070514 -0.0074,1.81234 -0.402235,3.603171 -1.15935,5.257242 -0.757115,1.654071 -1.859696,3.134753 -3.236823,4.346821 -1.377128,1.212126 -2.998278,2.128766 -4.75927,2.691039 -1.760934,0.562217 -3.622627,0.757629 -5.465377,0.573571 -1.812911,0.134249 -3.634609,-0.09865 -5.351383,-0.684028 C 34.887194,24.827454 33.312144,23.902142 31.97718,22.694581 30.642215,21.487019 29.575921,20.023168 28.844994,18.39443 28.11401,16.765691 27.733969,15.007039 27.72872,13.22819 M 79.263717,36.8633 38.865956,101.81019 H 79.263717 V 124.5807 H 0 v -2.97312 L 40.925572,55.678093 H 2.9241636 V 33.852927 H 79.263717 Z" />
</svg>
