<svg id="ZOOZAKUPY" width="500" height="82.134689" viewBox="0 0 500 82.134689" version="1.1" xml:space="preserve" xmlns:xlink="http://www.w3.org/1999/xlink" xmlns="http://www.w3.org/2000/svg" xmlns:svg="http://www.w3.org/2000/svg">
	<path id="ZOOZAKUPY" style="fill:#000000;stroke:#000000;stroke-width:0" d="m 391.54494,50.110121 v -32.02458 h 5.91259 5.91258 v 2.519437 c 0,2.483102 0.0225,2.503178 1.56509,1.391874 5.54735,-3.996539 8.37495,-4.9419 14.78145,-4.9419 5.51536,0 6.70373,0.232712 9.98584,1.955491 8.73459,4.584771 12.84954,11.716926 12.91095,22.377621 0.0308,5.341513 -0.23138,6.834162 -1.78602,10.169648 -2.59171,5.560508 -6.25583,9.299221 -11.63217,11.868942 -3.8952,1.86179 -5.41777,2.205089 -9.8264,2.215593 -5.64621,0.01345 -11.23334,-1.851691 -13.68846,-4.569597 -1.23248,-1.364404 -1.27633,-1.102854 -1.61469,9.62879 l -0.3478,11.031293 -6.08648,0.200985 -6.08648,0.200975 z m 33.14392,2.335924 c 4.32395,-3.499668 5.36762,-5.398041 5.68199,-10.335219 0.3661,-5.749438 -1.53407,-10.04751 -5.6446,-12.767723 -2.39997,-1.588224 -3.56343,-1.866993 -7.79199,-1.866993 -4.25869,0 -5.38505,0.274144 -7.86253,1.913668 -3.78188,2.502725 -5.70162,6.306558 -5.70162,11.297324 0,4.572407 1.14082,7.601692 3.9023,10.361885 3.04076,3.039369 5.62609,3.952 10.50548,3.70848 3.58737,-0.179039 4.76154,-0.571746 6.91097,-2.311422 z m 32.24227,29.333171 c 0,-0.165717 2.19757,-4.917519 4.8835,-10.559556 l 4.88351,-10.258236 -8.79267,-20.568447 c -4.83597,-11.312644 -8.95004,-20.972462 -9.14238,-21.466267 -0.27295,-0.700746 0.99292,-0.853429 5.76706,-0.695598 l 6.11678,0.202228 6.31537,14.083637 c 3.47346,7.746002 6.49857,14.084636 6.72249,14.085853 0.22391,9e-4 3.49532,-6.414672 7.2698,-14.257536 l 6.86268,-14.259753 H 493.90863 500 l -1.98122,4.347485 c -2.09734,4.602293 -15.29666,32.184464 -23.63413,49.38744 l -4.97257,10.260067 h -6.24047 c -3.43226,0 -6.24048,-0.13559 -6.24048,-0.301317 z M 68.787615,65.132488 C 60.774634,63.313311 54.131832,58.045625 50.85908,50.915319 c -2.650549,-5.774722 -2.583276,-13.37144 0.172447,-19.474641 2.339582,-5.181542 7.173743,-9.900347 12.886904,-12.579389 5.30189,-2.486188 15.054526,-2.566269 21.065881,-0.172969 5.330001,2.122034 11.620595,7.952681 13.78833,12.780199 2.273388,5.062778 2.359678,14.658018 0.17443,19.395265 -1.759063,3.813342 -5.872297,8.538147 -9.337104,10.725387 -5.656174,3.570587 -14.256153,5.034034 -20.822353,3.543317 z M 80.264978,53.633463 c 3.23852,-1.499387 6.207679,-4.463669 7.259518,-7.247599 1.313741,-3.47711 0.90639,-9.582745 -0.828804,-12.42267 C 79.846463,22.753349 62.350119,26.40948 61.283333,39.2735 c -0.168656,2.03371 0.06913,4.836256 0.528411,6.227868 2.52608,7.654112 11.215096,11.483242 18.453234,8.132095 z m 49.071152,11.72755 c -7.38575,-1.540929 -14.51324,-7.000756 -18.22642,-13.961879 -1.39901,-2.622735 -1.6285,-4.039502 -1.62161,-10.01107 0.007,-5.910815 0.25638,-7.458581 1.66094,-10.300993 2.32048,-4.695981 7.28144,-9.385987 12.5888,-11.901226 4.06543,-1.926675 5.19239,-2.1437 11.13155,-2.1437 5.96463,0 7.05686,0.212591 11.21538,2.182933 8.46845,4.012408 12.96695,9.679616 14.55992,18.342555 2.01844,10.976688 -4.70481,22.257856 -15.72155,26.37975 -4.47801,1.675434 -11.34649,2.298356 -15.58701,1.41363 z M 142.5108,52.60692 c 11.30616,-7.482061 5.90941,-25.470853 -7.64141,-25.470853 -6.00701,0 -11.70374,4.359459 -13.13754,10.053596 -1.79236,7.118094 2.15571,15.101943 8.41541,17.017801 3.64646,1.116043 9.38014,0.37378 12.36354,-1.600544 z m 92.67945,12.764868 c -7.08997,-1.465889 -13.40739,-6.674405 -16.75511,-13.814076 -1.57824,-3.36591 -1.83302,-4.829848 -1.83302,-10.532558 0,-6.084168 0.1864,-7.001887 2.28991,-11.274275 2.49044,-5.058264 6.04958,-8.591597 11.22168,-11.140327 2.59284,-1.277709 4.34312,-1.567225 9.44314,-1.561999 5.42707,0.0052 6.72914,0.252945 9.78206,1.858628 1.93692,1.01872 3.93162,2.346173 4.43265,2.949882 1.43748,1.732065 2.13184,1.296629 2.13184,-1.33693 v -2.434592 h 5.91257 5.91258 V 41.388064 64.69059 h -6.26037 -6.26038 v -2.469992 -2.469992 l -2.29814,1.752872 c -4.69095,3.577964 -11.71118,5.110544 -17.71941,3.86831 z m 11.6947,-11.110442 c 2.78978,-0.77503 7.18057,-4.950597 8.28143,-7.875482 1.21877,-3.238172 0.88121,-8.782077 -0.73846,-12.127859 -3.53483,-7.302002 -14.43283,-9.49217 -21.1074,-4.241946 -4.13021,3.248824 -5.87724,11.395726 -3.59942,16.785234 2.73862,6.479851 9.7394,9.52265 17.16385,7.460053 z m 103.51809,10.898371 c -7.50103,-1.688775 -12.87257,-7.068032 -14.46295,-14.483763 -0.40621,-1.894077 -0.73856,-10.001773 -0.73856,-18.017101 V 18.085541 h 5.80196 5.80197 l 0.45867,14.728004 c 0.51758,16.619577 1.06162,18.759983 5.32734,20.959326 5.61434,2.894672 12.05279,-0.291439 13.26445,-6.563983 0.3228,-1.67114 0.60055,-8.907539 0.61721,-16.08089 l 0.0303,-13.042457 h 5.96692 5.96691 l -0.22824,16.868245 -0.22823,16.868245 -2.0868,3.801054 c -2.3227,4.23078 -6.68806,7.942706 -10.62542,9.034956 -4.37873,1.214691 -10.74434,1.429514 -14.86552,0.501676 z M 1.6248815,61.038701 C 2.5185768,59.030163 7.9791841,47.422236 13.759566,35.243311 19.539949,23.064377 24.269361,12.969515 24.269361,12.810284 c 0,-0.15924 -5.008304,-0.289525 -11.129564,-0.289525 H 2.010234 V 6.9559772 1.3911955 H 22.098949 42.187662 L 33.368449,20.694033 C 28.51788,31.310593 23.276761,42.81404 21.721517,46.257249 l -2.827726,6.26038 11.034962,0.191131 11.034954,0.191129 v 5.89535 5.895351 H 20.481849 0 Z M 167.56248,64.358166 c 0,-0.416848 6.68792,-14.813027 16.27839,-35.040305 4.05456,-8.551513 7.37193,-15.829204 7.37193,-16.172646 0,-0.343452 -4.85179,-0.624456 -10.78176,-0.624456 H 169.64928 V 6.9559772 1.3911955 h 19.82454 c 10.90348,0 19.82453,0.1240077 19.82453,0.2755783 0,0.1515621 -1.59035,3.6730256 -3.53412,7.8254745 -5.30881,11.3411557 -19.42061,42.5935357 -19.42061,43.0094267 0,0.200064 5.00831,0.363753 11.12957,0.363753 h 11.12956 v 5.91258 5.912582 h -20.52013 c -11.28608,0 -20.52014,-0.149592 -20.52014,-0.332424 z m 113.1777,-0.163028 c -0.17562,-0.30137 -0.15699,-14.868564 0.0414,-32.371542 L 281.14225,0 h 5.81391 5.81391 l 0.0287,18.607239 0.0287,18.607239 9.34377,-9.588189 9.34376,-9.588179 7.27931,0.197611 7.27929,0.197619 -10.04359,10.590988 c -5.52396,5.825048 -10.04357,10.830082 -10.04357,11.122312 0,0.29223 5.39622,5.934171 11.9916,12.537638 l 11.99161,12.006312 h -7.63621 -7.63621 L 303.70895,53.734925 292.72071,42.77926 l 0.0956,10.781765 0.0956,10.781765 -5.92625,0.200146 c -3.25943,0.11008 -6.06992,-0.04643 -6.24552,-0.347798 z" />
</svg>
