<svg
   version="1.1"
   id="svg1"
   width="575.04498"
   height="94.462288"
   viewBox="0 0 575.04499 94.462288"
   xmlns="http://www.w3.org/2000/svg"
   xmlns:svg="http://www.w3.org/2000/svg">
  <defs
     id="defs1" />
  <g
     id="g1"
     transform="translate(247.89876,160.02097)">
    <path
       style="fill:#000000"
       d="m 202.41317,-102.38982 v -36.83115 h 6.8 6.8 v 2.89758 c 0,2.85579 0.0259,2.87888 1.8,1.60078 6.37996,-4.59638 9.63195,-5.68363 17,-5.68363 6.34316,0 7.70989,0.26764 11.48461,2.24899 10.04557,5.2729 14.77813,13.47552 14.84876,25.73628 0.0354,6.14322 -0.26611,7.8599 -2.05408,11.69601 -2.9807,6.395085 -7.19477,10.694941 -13.37804,13.650352 -4.47984,2.141226 -6.23093,2.536051 -11.30125,2.548131 -6.49366,0.01547 -12.91936,-2.129611 -15.74296,-5.255447 -1.41746,-1.569188 -1.4679,-1.268382 -1.85704,11.073975 l -0.4,12.68698 -7,0.23115 -7,0.23114 z m 38.11848,2.686523 c 4.97294,-4.024933 6.17325,-6.208233 6.53481,-11.886433 0.42105,-6.61237 -1.76432,-11.55554 -6.49179,-14.68403 -2.76018,-1.8266 -4.09827,-2.14721 -8.9615,-2.14721 -4.89787,0 -6.19329,0.31529 -9.04262,2.20089 -4.3495,2.87836 -6.55738,7.25311 -6.55738,12.99294 0,5.25868 1.31206,8.74263 4.488,11.9171 3.49716,3.495548 6.47052,4.545157 12.08225,4.265086 4.1258,-0.205911 5.4762,-0.65756 7.94823,-2.658343 z m 37.08152,33.735788 c 0,-0.19059 2.52741,-5.65559 5.61647,-12.14444 l 5.61647,-11.797895 -10.11236,-23.655566 c -5.5618,-13.01056 -10.29335,-24.12022 -10.51456,-24.68814 -0.31392,-0.80592 1.14194,-0.98152 6.63264,-0.8 l 7.03485,0.23258 7.26324,16.19745 c 3.99479,8.9086 7.47395,16.1986 7.73147,16.2 0.25752,10e-4 4.01993,-7.37745 8.36092,-16.39745 l 7.8927,-16.4 h 7.00562 7.00562 l -2.27858,5 c -2.41214,5.29305 -17.59254,37.01503 -27.18138,56.800001 l -5.7189,11.8 h -7.17711 c -3.94741,0 -7.17711,-0.15594 -7.17711,-0.34654 z m -446.39998,-19.145237 c -9.21565,-2.092217 -16.85547,-8.15053 -20.61943,-16.351024 -3.04837,-6.64145 -2.971,-15.37836 0.19833,-22.39759 2.69073,-5.95924 8.25045,-11.38629 14.8211,-14.46743 6.09765,-2.85934 17.31406,-2.95144 24.22766,-0.19893 6.12998,2.44053 13.36473,9.1463 15.85782,14.69838 2.6146,5.82265 2.71384,16.85804 0.20061,22.3063 -2.02308,4.385687 -6.75367,9.819638 -10.73851,12.335162 -6.50511,4.106495 -16.39586,5.789591 -23.94758,4.075132 z m 13.2,-13.224914 c 3.72459,-1.72443 7.13939,-5.13362 8.3491,-8.33539 1.51092,-3.99899 1.04243,-11.02102 -0.9532,-14.28719 -7.87723,-12.89233 -27.9996,-8.68745 -29.2265,6.10733 -0.19397,2.33895 0.0795,5.56213 0.60772,7.16261 2.90522,8.802917 12.89837,13.206762 21.22288,9.35264 z m 56.436239,13.487739 c -8.494279,-1.772207 -16.691529,-8.0515 -20.962019,-16.057419 -1.60898,-3.01638 -1.87292,-4.64579 -1.865,-11.51363 0.008,-6.79797 0.29486,-8.57804 1.91023,-11.84707 2.66876,-5.4008 8.37431,-10.79473 14.47825,-13.68748 4.67561,-2.21585 5.971719,-2.46545 12.802289,-2.46545 6.85986,0 8.11603,0.2445 12.8987,2.51057 9.73947,4.61463 14.91316,11.13243 16.74522,21.09559 2.32138,12.62418 -5.41096,25.598537 -18.08121,30.339087 -5.1501,1.9269 -13.04947,2.643316 -17.92646,1.625802 z m 15.15206,-14.668355 c 13.0031,-8.605044 6.79635,-29.293774 -8.78831,-29.293774 -6.9086,0 -13.460359,5.01377 -15.109349,11.56254 -2.06138,8.18645 2.47925,17.368594 9.678479,19.572003 4.19376,1.28355 10.788,0.429881 14.21918,-1.840769 z m 106.5897,14.680747 c -8.1541,-1.685904 -15.4197,-7.676167 -19.26988,-15.887431 -1.81512,-3.8711 -2.10813,-5.55476 -2.10813,-12.11339 0,-6.99734 0.21437,-8.0528 2.6336,-12.96643 2.86423,-5.81746 6.95755,-9.88111 12.90594,-12.81238 2.982,-1.46948 4.99497,-1.80245 10.86046,-1.79644 6.24162,0.006 7.73912,0.29091 11.25025,2.13759 2.22764,1.17162 4.52172,2.69831 5.09795,3.39263 1.65324,1.99203 2.4518,1.49124 2.4518,-1.53759 v -2.8 h 6.8 6.8 v 26.8 26.800001 h -7.2 -7.2 v -2.840713 -2.840713 l -2.64306,2.015961 c -5.39502,4.114981 -13.46891,5.877585 -20.37893,4.448905 z m 13.44997,-12.778008 c 3.20849,-0.891354 8.2583,-5.693633 9.52439,-9.057513 1.40169,-3.72419 1.01347,-10.10018 -0.84929,-13.94813 -4.06538,-8.39796 -16.59906,-10.91685 -24.27542,-4.87862 -4.75012,3.73644 -6.75935,13.10611 -4.13966,19.30453 3.14967,7.452412 11.20119,10.951904 19.73998,8.579733 z M 155.09628,-85.08143 c -8.62686,-1.942242 -14.80461,-8.128873 -16.6337,-16.65763 -0.46717,-2.17836 -0.84941,-11.50294 -0.84941,-20.72129 v -16.76062 h 6.67278 6.67278 l 0.52752,16.93853 c 0.59527,19.11401 1.22096,21.57567 6.12692,24.105113 6.45699,3.329133 13.8618,-0.335182 15.25531,-7.549173 0.37125,-1.92196 0.69069,-10.24447 0.70985,-18.49447 l 0.0348,-15 h 6.86249 6.86249 l -0.26249,19.4 -0.26249,19.4 -2.4,4.371555 c -2.67133,4.865778 -7.69188,9.134826 -12.2202,10.391013 -5.03594,1.397004 -12.35696,1.64407 -17.09669,0.576972 z M -246.03,-89.820969 c 1.02783,-2.31 7.30802,-15.660161 13.95598,-29.667021 6.64796,-14.00687 12.08721,-25.61687 12.08721,-25.8 0,-0.18314 -5.76,-0.33298 -12.8,-0.33298 h -12.8 v -6.4 -6.4 h 23.10383 23.10383 l -10.14289,22.2 c -5.57859,12.21 -11.60635,25.44 -13.39502,29.4 l -3.25214,7.200001 12.6912,0.219817 12.69119,0.219817 v 6.780183 6.780183 h -23.55598 -23.55597 z m 190.843179,3.817683 c 0,-0.479412 7.6917,-17.036314 18.7216,-40.299504 4.66312,-9.83501 8.4784,-18.20501 8.4784,-18.6 0,-0.395 -5.58,-0.71818 -12.4,-0.71818 h -12.4 v -6.4 -6.4 h 22.8 c 12.54,0 22.8,0.14262 22.8,0.31694 0,0.17431 -1.82905,4.22431 -4.06455,9 -6.10562,13.04335 -22.33545,48.9864 -22.33545,49.464712 0,0.230092 5.76,0.418349 12.8,0.418349 h 12.8 v 6.8 6.8 h -23.6 c -12.98,0 -23.6,-0.172043 -23.6,-0.382317 z m 130.16453,-0.187497 c -0.20197,-0.346602 -0.18054,-17.100187 0.0476,-37.230187 l 0.41483,-36.6 h 6.68651 6.68652 l 0.033,21.4 0.033,21.4 10.74617,-11.02728 10.746171,-11.02727 8.37186,0.22727 8.37183,0.22728 -11.55102,12.18059 c -6.35306,6.69933 -11.55101,12.45557 -11.55101,12.79166 0,0.33609 6.20614,6.82483 13.79142,14.419413 l 13.79143,13.808338 h -8.78233 -8.78233 l -12.63748,-12.6 -12.637471,-12.600001 0.10996,12.400001 0.10997,12.4 -6.81572,0.230186 c -3.74864,0.126602 -6.98096,-0.0534 -7.18292,-0.4 z"
       id="path1" />
  </g>
</svg>
