<svg
   id="svg2"
   fill-rule="evenodd"
   height="156.72853"
   width="418.44916"
   clip-rule="evenodd"
   viewBox="0 0 110.718 41.467947"
   image-rendering="optimizeQuality"
   text-rendering="geometricPrecision"
   shape-rendering="geometricPrecision"
   version="1.1"
   xmlns="http://www.w3.org/2000/svg"
   xmlns:svg="http://www.w3.org/2000/svg">
  <defs
     id="defs4">
    <style
       id="style6">.fil1{fill:#0093dd;fill-rule:nonzero}.fil0,.fil2{fill:#0a3f89;fill-rule:nonzero}</style>
  </defs>
  <g
     id="Warstwa_x0020_1"
     style="fill:#000000"
     transform="translate(-124.44435,-4.80217)">
    <g
       id="_393672280"
       fill-rule="nonzero"
       style="fill:#000000"
       transform="translate(124.44435,4.8036419)">
      <path
         id="_393932432"
         fill="#0093dd"
         d="m 18.132,10.164 6.283,-3.656 -1.686,-2.866 -6.152,3.62 v -7.264 h -3.33 v 7.31 L 6.946,3.613 5.264,6.48 11.596,10.19 0,17.013 h 6.378 l 6.87,-4.002 v 6.428 h 3.33 v -6.33 l 6.3,3.696 1.684,-2.87 z"
         style="fill:#000000" />
      <path
         id="_393816768"
         d="M 32.485,41.466 H 50.957 V 38.882 H 32.485 l -0.33,-0.055 c -0.11,0 -0.165,-0.11 -0.165,-0.275 0,-0.384 0.275,-0.55 0.44,-0.77 L 49.968,17.057 c 0.495,-0.605 0.935,-1.54 0.935,-2.364 0,-1.1 -0.825,-2.364 -2.53,-2.364 H 29.738 v 2.583 h 17.318 c 0.165,0 0.55,0 0.55,0.44 0,0.384 -0.275,0.604 -0.44,0.824 L 30.342,35.97 c -0.605,0.66 -1.43,1.758 -1.43,3.023 0,2.2 2.254,2.474 3.574,2.474 z m 35.9,0 v -2.584 h -2.09 c -4.507,0 -5.717,-1.264 -5.717,-5.827 V 14.913 h 7.807 V 12.33 H 60.578 V 2.982 h -2.86 v 9.346 h -4.562 v 2.583 h 4.563 V 32.23 c 0,4.62 0,9.237 7.916,9.237 h 2.75 z m 2.97,0 h 2.857 V 17.002 c 0,-1.87 0.66,-2.09 1.76,-2.09 h 13.634 v 26.555 h 2.86 V 14.913 h 9.84 c 4.397,0 5.552,2.86 5.552,6.377 v 20.176 h 2.86 V 21.29 c 0,-5.717 -2.365,-8.96 -8.413,-8.96 H 75.312 c -3.078,0 -3.958,1.813 -3.958,4.617 v 24.52 z"
         class="fil1"
         fill="#0093dd"
         style="fill:#000000" />
    </g>
  </g>
</svg>
