<?xml version="1.0" encoding="UTF-8" standalone="no"?>
<svg id="BORGSVG" width="868.96942" height="499.854" viewBox="0 0 868.96941 499.85401" version="1.1" xml:space="preserve" xmlns:xlink="http://www.w3.org/1999/xlink" xmlns="http://www.w3.org/2000/svg" xmlns:svg="http://www.w3.org/2000/svg">
   <defs id="BORGDEFS" />
	 <path id="BORG1" style="fill:#000000;stroke:#000000;stroke-width:1.031" d="m 203.26549,493.97113 c -0.29104,-2.95276 -0.91774,-5.61592 -1.39285,-5.91823 -0.47515,-0.30238 -3.11523,-0.55463 -5.86691,-0.56091 l -5.00308,-0.0122 v -10.79606 c 0,-6.02455 -0.33887,-11.4297 -0.76727,-12.22973 -0.73915,-1.38101 -1.86471,-1.43366 -30.67857,-1.43366 h -29.91134 l -0.28252,-5.59606 c -0.19619,-3.88916 -0.61673,-5.80733 -1.37814,-6.28876 -0.60253,-0.38102 -3.34684,-0.69792 -6.09856,-0.70412 l -5.00304,-0.0122 v -11.34032 c 0,-7.83194 -0.27483,-11.61542 -0.88945,-12.22968 -0.6143,-0.61426 -4.39779,-0.88944 -12.22972,-0.88944 H 92.423763 v -5.13544 c 0,-6.74655 -0.71835,-7.46486 -7.464914,-7.46486 h -5.13543 V 394.82955 376.2997 h 31.130211 31.1302 v 5.0401 c 0,2.93188 0.3721,5.41219 0.8894,5.92959 0.51394,0.51387 2.97572,0.88941 5.8304,0.88941 h 4.94086 l 0.35022,11.51699 c 0.23104,7.60241 0.65531,11.82225 1.2481,12.41506 1.35859,1.3586 107.08316,1.29609 108.44541,-0.0641 0.72159,-0.72058 1.02243,-5.32485 1.19807,-18.33394 l 0.2347,-17.37179 72.98564,-0.19594 c 63.92593,-0.17154 73.07283,-0.33384 73.68835,-1.30775 0.41746,-0.6603 0.70728,-15.6356 0.71406,-36.87446 l 0.0122,-35.76268 h 18.43028 18.43027 l 0.37494,5.24146 c 0.20632,2.88276 0.72748,5.5939 1.15832,6.02469 0.43084,0.43083 3.14194,0.95206 6.02475,1.15832 l 5.24139,0.37502 v 10.96541 c 0,8.98029 0.21078,11.17622 1.16475,12.13012 0.95483,0.95483 3.15893,1.16471 12.22973,1.16471 h 11.06496 v 4.67613 c 0,6.32246 0.68824,7.05071 7.22669,7.64702 l 5.37365,0.49007 v 11.40045 11.40044 l 1.90122,0.72282 c 1.11717,0.42474 13.80275,0.72287 30.7596,0.72287 h 28.85841 v 5.09763 c 0,3.26158 0.34454,5.38377 0.95738,5.89212 0.52654,0.43705 3.27821,0.89479 6.11482,1.01726 l 5.15744,0.22283 0.37048,11.85909 0.37048,11.85917 3.33538,0.50093 c 1.83447,0.27523 15.59291,0.52568 30.57431,0.55592 l 27.23894,0.0552 v 5.0401 c 0,2.93182 0.3721,5.41216 0.88944,5.92958 0.51735,0.51738 2.99768,0.88945 5.92954,0.88945 h 5.04009 v 18.90047 18.90044 h -17.74516 c -13.3856,0 -17.89056,0.2274 -18.33781,0.92649 -0.3263,0.5096 -0.71451,8.68122 -0.86311,18.1593 l -0.27036,17.23277 H 406.70896 203.79543 Z" />
	 <path id="BORG2" style="fill:#000000;stroke:#000000;stroke-width:1.031" d="m 609.76653,383.89865 c -0.008,-2.75168 -0.32307,-5.49603 -0.70409,-6.09858 -0.48143,-0.76137 -2.39964,-1.18169 -6.2888,-1.37808 l -5.59606,-0.28252 v -11.25931 c 0,-7.76895 -0.27563,-11.53498 -0.88945,-12.1487 -0.66232,-0.66237 -8.51551,-0.88945 -30.75958,-0.88945 h -29.87016 v -5.51519 c 0,-3.31844 -0.33563,-5.72259 -0.84226,-6.03577 -0.46323,-0.28634 -3.11426,-0.68309 -5.89119,-0.8818 l -5.04888,-0.36116 -0.22375,-29.86063 c -0.12323,-16.42334 -0.50077,-30.1382 -0.83936,-30.47745 -0.33846,-0.33932 -5.9117,-0.72296 -12.38472,-0.8527 l -11.76913,-0.23587 -0.21565,-5.69368 -0.21564,-5.69369 -5.74426,-0.21653 -5.74425,-0.21654 v -37.39917 -37.39917 h 17.74492 c 13.38203,0 17.89239,-0.22789 18.34458,-0.92649 0.32955,-0.50958 0.7049,-8.64641 0.83355,-18.08183 l 0.23389,-17.15534 17.3326,-0.26279 c 12.94289,-0.19635 17.57658,-0.50671 18.29598,-1.22613 0.71953,-0.71955 1.03007,-5.36254 1.22687,-18.34457 l 0.26346,-17.3812 34.57272,-0.074 c 19.01498,-0.042 35.40653,-0.30567 36.4257,-0.58891 l 1.85294,-0.51509 0.19863,-17.940936 0.19861,-17.940933 h 92.63618 92.63627 v 5.09762 c 0,3.26159 0.3445,5.383773 0.9573,5.892173 0.5266,0.43701 3.2783,0.89475 6.1149,1.01722 l 5.1575,0.22282 0.1978,18.715176 0.1982,18.71519 h -73.4095 -73.40931 l -0.72285,1.90124 c -0.39764,1.04568 -0.72285,9.37819 -0.72285,18.51669 v 16.6155 l -17.92728,0.19845 -17.92721,0.19846 -0.61859,2.38875 c -0.34008,1.31384 -0.52808,31.26108 -0.41751,66.54946 0.17552,56.0774 0.34131,64.24921 1.31303,64.86335 0.61151,0.38638 6.19824,0.70773 12.41501,0.714 l 11.30324,0.0126 v 5.51521 c 0,3.31838 0.33561,5.72256 0.8423,6.03575 0.46318,0.28634 3.10867,0.68271 5.87874,0.88091 l 5.03653,0.36031 0.23632,11.421 c 0.1897,9.16209 0.45597,11.55971 1.34793,12.12239 0.67741,0.42742 27.09995,0.70588 67.634,0.71277 l 66.5223,0.0126 v 5.09762 c 0,3.32656 0.3409,5.38067 0.9816,5.91228 0.5399,0.44807 3.375,1.0371 6.3002,1.309 l 5.3185,0.49427 v 18.42349 18.42344 H 720.95722 609.77795 Z" />
	 <path id="BORG3" style="fill:#000000;stroke:#000000;stroke-width:1.031" d="m 720.51567,309.03795 -0.67028,-5.74427 -5.74429,-0.67035 -5.74425,-0.67031 -0.0122,-10.81821 c -0.008,-5.94999 -0.32712,-11.3185 -0.71277,-11.92995 -0.5627,-0.89192 -2.96031,-1.15849 -12.12242,-1.3479 l -11.42099,-0.23587 -0.36035,-5.03653 c -0.19821,-2.77009 -0.5946,-5.41555 -0.88086,-5.8788 -0.31332,-0.50676 -2.71738,-0.84223 -6.03577,-0.84223 h -5.51524 V 228.4332 191.00283 h 17.76263 c 16.80279,0 17.80407,-0.0773 18.52992,-1.43367 0.46379,-0.86678 0.76724,-8.04732 0.76724,-18.15927 v -16.72565 h 55.58966 55.5896 v 5.04015 c 0,2.93183 0.3722,5.41219 0.8895,5.92955 0.5288,0.52879 3.076,0.88945 6.2818,0.88945 h 5.3923 l 0.2035,12.04443 0.2035,12.04439 12.0445,0.20349 12.0444,0.20348 v 5.39235 c 0,3.20584 0.3607,5.75305 0.8894,6.28184 0.5174,0.51736 2.9977,0.88941 5.9295,0.88941 h 5.0402 v 37.05974 37.05979 h -16.258 c -8.942,0 -17.1137,0.32541 -18.1594,0.72283 l -1.9012,0.72286 v 17.80703 17.80703 h -55.4756 -55.47521 z" />
	 <path id="BORG4" style="fill:#000000;stroke:#000000;stroke-width:1.031" d="m 18.304199,124.64732 c 0,-5.30485 -0.0928,-5.61262 -1.90127,-6.30016 -1.04567,-0.39772 -5.04812,-0.72283 -8.89431,-0.72283 H 0.51550001 V 99.094444 80.564531 H 19.738309 c 10.69623,0 20.06616,-0.32078 21.124071,-0.72283 l 1.90127,-0.72286 v -17.80702 -17.80703 h 17.09616 c 10.367459,0 17.660529,-0.30186 18.529919,-0.76727 1.36495,-0.73047 1.43366,-1.76069 1.43366,-21.49464 V 0.51550001 H 431.08609 782.3488 l 0.2489,8.46398059 c 0.137,4.6551904 0.5217,8.7356704 0.8549,9.0677804 0.3328,0.33215 3.0849,0.72892 6.1149,0.88192 l 5.509,0.27833 v 18.4403 18.4403 l -91.8465,0.19383 c -50.51558,0.10684 -92.12442,0.4717 -92.4641,0.81129 -0.33968,0.33972 -0.73561,8.59461 -0.87993,18.34456 l -0.26225,17.727183 h -18.45278 -18.45276 v -5.515243 c 0,-3.31839 -0.33563,-5.72252 -0.84231,-6.03575 -0.46319,-0.28633 -3.08812,-0.6812 -5.83311,-0.87764 l -4.99092,-0.35694 -0.34657,-11.3988 c -0.19051,-6.26936 -0.59525,-11.64763 -0.89938,-11.95174 -0.84141,-0.84147 -427.5129,-1.0416 -428.84013,-0.20096 -0.92734,0.58722 -1.14875,3.66012 -1.33451,18.52072 l -0.22295,17.816663 -17.19535,0.0126 c -9.52218,0.004 -17.691487,0.3246 -18.307127,0.7132 -0.92686,0.58513 -1.15065,3.66521 -1.34559,18.518536 l -0.23387,17.8167 H 55.31505 18.303789 Z" />
	 <path id="BORG5" style="fill:#000000;stroke:#000000;stroke-width:1.031" d="m 55.36393,198.56282 c 0,-2.93183 -0.3721,-5.4122 -0.88944,-5.92955 -0.52934,-0.52934 -3.08009,-0.88945 -6.3001,-0.88945 h -5.41074 v -18.48516 -18.48512 l 36.346049,-0.22999 c 31.330611,-0.19846 36.443011,-0.38345 37.048431,-1.34184 0.38912,-0.61616 0.7074,-8.77213 0.71364,-18.29609 l 0.0122,-17.18426 17.81668,-0.23377 c 14.85331,-0.1951 17.9334,-0.41876 18.51855,-1.34559 0.38873,-0.61586 0.70693,-8.79886 0.71317,-18.344596 l 0.0122,-17.232793 h 184.9282 184.92821 v 4.49592 c 0,6.853943 0.48876,7.363233 7.06742,7.363233 h 5.53287 v 18.900466 18.90047 h -17.64042 c -12.73207,0 -17.88792,0.24763 -18.52991,0.88941 -0.6419,0.64197 -0.88941,5.79783 -0.88941,18.52989 v 17.64045 h -18.4342 -18.43414 l -0.51186,-5.86774 c -0.58799,-6.74072 -0.57887,-6.73256 -7.52275,-6.73256 h -4.75712 V 143.8881 c 0,-6.02457 -0.33927,-11.42971 -0.76727,-12.22973 -0.75378,-1.40848 -2.90101,-1.43367 -122.14897,-1.43367 -93.4197,0 -121.58659,0.20475 -122.27114,0.88941 -0.64193,0.64197 -0.8894,5.79783 -0.8894,18.52989 v 17.64045 h -17.76264 c -16.80273,0 -17.80406,0.0774 -18.52986,1.43367 -0.46388,0.86674 -0.76724,8.04732 -0.76724,18.15928 V 203.603 H 110.95537 55.36572 Z" />
	 <path id="BORG6" style="fill:#000000;stroke:#000000;stroke-width:1.031" d="m 92.413543,310.52034 c -0.0162,-7.39786 -0.0495,-7.43591 -6.735444,-8.01915 l -5.85471,-0.51071 v -36.96405 -36.96406 h 54.822331 c 53.4427,0 54.84167,-0.0377 55.58966,-1.43362 0.46529,-0.86944 0.76727,-8.16249 0.76727,-18.5299 v -17.09623 h 17.80702 17.80702 l 0.72288,-1.90124 c 0.39765,-1.04568 0.72285,-9.21733 0.72285,-18.15928 v -16.25802 h 92.183 92.183 l 0.52904,5.36863 c 0.29104,2.95273 0.91771,5.61595 1.39285,5.9182 0.47511,0.30231 3.11523,0.55469 5.86691,0.56091 l 5.00309,0.0126 v 10.7961 c 0,6.02453 0.33927,11.42966 0.76724,12.22968 0.7074,1.32175 1.65466,1.43367 12.13228,1.43367 h 11.365 l 0.36157,5.63473 c 0.23631,3.68183 0.71961,5.86145 1.39458,6.28882 0.5681,0.35991 3.28427,0.65918 6.03599,0.66544 l 5.00308,0.0126 v 18.52986 18.5299 H 425.22031 388.1605 v -4.02831 c 0,-2.21561 -0.32549,-4.8839 -0.72282,-5.92959 -0.68754,-1.80837 -0.99527,-1.90124 -6.30017,-1.90124 h -5.5773 l -0.0122,-11.30324 c -0.008,-6.21676 -0.32752,-11.80352 -0.71377,-12.41501 -0.60895,-0.96382 -6.54976,-1.14029 -44.64564,-1.32616 -24.16882,-0.11772 -45.77772,0.0534 -48.01985,0.38049 l -4.07655,0.59485 -0.19861,17.92618 -0.19862,17.92614 -24.01503,0.22326 c -13.20826,0.12278 -24.29253,0.50058 -24.63168,0.83954 -0.33927,0.33887 -0.71681,8.58701 -0.83922,18.32897 l -0.22295,17.71272 -48.44946,0.20097 c -26.64722,0.11058 -48.72729,0.47821 -49.06685,0.81717 -0.33968,0.33887 -0.71757,8.59403 -0.84012,18.34456 l -0.22293,17.72832 h -18.4925 -18.492417 z" />
	 <path id="BORG7" style="fill:#000000;stroke:#000000;stroke-width:0.0911287" d="m 296.11089,154.22537 c 21.39113,-0.008 56.41437,-0.008 77.82949,0 21.4151,0.008 3.91327,0.0166 -38.89292,0.0166 -42.80622,0 -60.32768,-0.008 -38.93657,-0.0166 z" />
</svg>