<?xml version="1.0" encoding="UTF-8" standalone="no"?>
<svg id="BORGSVG" width="214.12373" height="123.06158" viewBox="0 0 214.12373 123.06158" version="1.1" xml:space="preserve" xmlns:xlink="http://www.w3.org/1999/xlink" xmlns="http://www.w3.org/2000/svg" xmlns:svg="http://www.w3.org/2000/svg">
   <defs id="BORGDEFS" />
	 <path id="BORG1" style="fill:#000000;stroke:#000000;stroke-width:0.254352" d="m 50.019203,121.7374 c -0.0718,-0.72846 -0.22641,-1.38547 -0.34362,-1.46005 -0.11722,-0.0746 -0.76854,-0.13683 -1.44739,-0.13838 l -1.23428,-0.003 v -2.66343 c 0,-1.48628 -0.0836,-2.81975 -0.18929,-3.01712 -0.18235,-0.3407 -0.46003,-0.35369 -7.56852,-0.35369 h -7.37924 l -0.0697,-1.38057 c -0.0484,-0.95947 -0.15215,-1.43269 -0.33999,-1.55146 -0.14865,-0.094 -0.82568,-0.17218 -1.50454,-0.17371 l -1.23427,-0.003 v -2.7977 c 0,-1.93217 -0.0678,-2.86557 -0.21943,-3.01711 -0.15155,-0.15154 -1.08495,-0.21943 -3.01712,-0.21943 h -2.79769 v -1.26693 c 0,-1.6644 -0.17722,-1.84161 -1.84162,-1.84161 h -1.26693 v -4.5714 -4.571386 h 7.67994 7.67994 v 1.243413 c 0,0.723305 0.0918,1.33521 0.21942,1.462854 0.12679,0.126772 0.73412,0.219419 1.43838,0.219419 h 1.21893 l 0.0864,2.841285 c 0.057,1.875545 0.16167,2.916595 0.30791,3.062845 0.33517,0.33517 26.41783,0.31975 26.7539,-0.0158 0.17802,-0.17777 0.25224,-1.31366 0.29557,-4.523053 l 0.0579,-4.285686 18.00584,-0.04834 c 15.77077,-0.04232 18.027347,-0.08236 18.179197,-0.322626 0.10299,-0.1629 0.17449,-3.857364 0.17616,-9.09707 l 0.003,-8.822791 h 4.54682 4.54682 l 0.0925,1.293087 c 0.0509,0.71119 0.17947,1.380039 0.28576,1.486316 0.10629,0.106287 0.77513,0.234875 1.48633,0.285762 l 1.29307,0.09252 v 2.705208 c 0,2.215471 0.052,2.757216 0.28735,2.992547 0.23556,0.23556 0.77932,0.287339 3.01712,0.287339 h 2.72977 v 1.153618 c 0,1.559774 0.16979,1.739436 1.78285,1.886549 l 1.3257,0.120902 v 2.812533 2.812532 l 0.46904,0.178324 c 0.27561,0.104783 3.40519,0.178334 7.58851,0.178334 h 7.11948 v 1.257603 c 0,0.804646 0.085,1.328198 0.23619,1.453611 0.1299,0.107823 0.80875,0.220748 1.50855,0.250963 l 1.27236,0.05497 0.0914,2.925686 0.0914,2.925702 0.82285,0.12358 c 0.45257,0.0679 3.84683,0.12969 7.5428,0.13715 l 6.71995,0.0136 v 1.24341 c 0,0.72329 0.0918,1.3352 0.21943,1.46285 0.12763,0.12764 0.73954,0.21943 1.46284,0.21943 h 1.24341 v 4.66282 4.66281 h -4.37779 c -3.30228,0 -4.41367,0.0561 -4.52401,0.22857 -0.0805,0.12572 -0.17627,2.14169 -0.21293,4.47997 l -0.0667,4.25139 H 100.20949 50.149943 Z" />
	 <path id="BORG2" style="fill:#000000;stroke:#000000;stroke-width:0.254352" d="m 150.30457,94.582094 c -0.002,-0.678848 -0.0797,-1.355892 -0.1737,-1.50454 -0.11877,-0.187835 -0.592,-0.291529 -1.55147,-0.339979 l -1.38057,-0.0697 v -2.777712 c 0,-1.91663 -0.068,-2.845725 -0.21943,-2.997132 -0.1634,-0.163409 -2.10081,-0.21943 -7.58851,-0.21943 h -7.36908 v -1.360622 c 0,-0.81867 -0.0828,-1.41178 -0.20779,-1.489044 -0.11428,-0.07064 -0.7683,-0.168522 -1.45338,-0.217543 l -1.24558,-0.0891 -0.0552,-7.366732 c -0.0304,-4.051703 -0.12354,-7.43521 -0.20707,-7.518906 -0.0835,-0.08371 -1.45844,-0.178355 -3.05536,-0.210364 l -2.90349,-0.05819 -0.0532,-1.404653 -0.0532,-1.404654 -1.41713,-0.05342 -1.41713,-0.05342 v -9.226519 -9.22652 h 4.37774 c 3.3014,0 4.41412,-0.05622 4.52568,-0.228568 0.0813,-0.125714 0.1739,-2.133103 0.20564,-4.460856 l 0.0577,-4.232289 4.27602,-0.06483 c 3.19306,-0.04844 4.33621,-0.125009 4.51369,-0.302493 0.17751,-0.177515 0.25412,-1.322959 0.30267,-4.525674 l 0.065,-4.288009 8.52922,-0.01826 c 4.69107,-0.01037 8.73493,-0.07541 8.98636,-0.145287 l 0.45713,-0.127074 0.049,-4.426098 0.049,-4.426098 h 22.8537 22.85371 v 1.257602 c 0,0.804646 0.085,1.328198 0.23619,1.453622 0.1299,0.107812 0.80876,0.220737 1.50856,0.250952 l 1.27237,0.05497 0.0488,4.617108 0.0489,4.617108 H 187.05997 168.9496 l -0.17833,0.469044 c -0.0981,0.257974 -0.17833,2.313636 -0.17833,4.568139 v 4.099106 l -4.42273,0.04896 -4.42271,0.04896 -0.15261,0.589313 c -0.0839,0.32413 -0.13028,7.712229 -0.103,16.418007 0.0433,13.83451 0.0842,15.850528 0.32393,16.002039 0.15086,0.09532 1.52913,0.1746 3.06283,0.176146 l 2.78855,0.0031 v 1.360622 c 0,0.818659 0.0828,1.411779 0.2078,1.489044 0.11427,0.07064 0.76692,0.168428 1.45031,0.217324 l 1.24253,0.08889 0.0583,2.817605 c 0.0468,2.260322 0.11249,2.851824 0.33254,2.990639 0.16712,0.105447 6.68566,0.174144 16.68557,0.175845 l 16.4113,0.0031 v 1.257603 c 0,0.820672 0.0841,1.32743 0.24216,1.45858 0.1332,0.11054 0.83262,0.255858 1.55428,0.322937 l 1.31211,0.121939 v 4.545144 4.545133 h -27.42836 -27.42835 z" />
	 <path id="BORG3" style="fill:#000000;stroke:#000000;stroke-width:0.254352" d="m 177.62681,76.113674 -0.16536,-1.417132 -1.41714,-0.165379 -1.41713,-0.165368 -0.003,-2.668895 c -0.002,-1.467884 -0.0807,-2.792316 -0.17584,-2.943163 -0.13882,-0.220042 -0.73032,-0.285804 -2.99065,-0.332532 l -2.8176,-0.05819 -0.0889,-1.242531 c -0.0489,-0.683392 -0.14669,-1.336039 -0.21731,-1.450324 -0.0773,-0.125019 -0.67039,-0.207781 -1.48905,-0.207781 h -1.36063 v -9.234206 -9.234215 h 4.38211 c 4.14531,0 4.39233,-0.01908 4.5714,-0.353692 0.11442,-0.213839 0.18928,-1.985305 0.18928,-4.479962 v -4.126282 h 13.71417 13.71418 v 1.243424 c 0,0.723294 0.0918,1.335209 0.21943,1.462843 0.13045,0.130454 0.75886,0.21943 1.54974,0.21943 h 1.33032 l 0.0502,2.971408 0.0502,2.971397 2.97141,0.0502 2.9714,0.0502 v 1.330314 c 0,0.790892 0.089,1.419299 0.21943,1.549754 0.12764,0.127634 0.73955,0.21942 1.46284,0.21942 h 1.24342 v 9.142782 9.142792 h -4.01091 c -2.20602,0 -4.222,0.08028 -4.47998,0.178324 l -0.46903,0.178334 v 4.393062 4.393062 h -13.68605 -13.68594 z" />
	 <path id="BORG4" style="fill:#000000;stroke:#000000;stroke-width:0.254352" d="m 4.3885433,30.623799 c 0,-1.308728 -0.0229,-1.384655 -0.46905,-1.554276 -0.25797,-0.09812 -1.24539,-0.178324 -2.19426,-0.178324 H 3.3084055e-6 V 24.319803 19.748406 H 4.7423433 c 2.6388,0 4.9504,-0.07914 5.21139,-0.178324 l 0.4690497,-0.178334 v -4.393062 -4.393061 h 4.21769 c 2.55769,0 4.35692,-0.07447 4.5714,-0.189288 0.33674,-0.180212 0.35369,-0.4343685 0.35369,-5.3028121 V -7.4358751e-8 h 86.657857 86.65786 L 192.94268,2.0880969 c 0.0338,1.1484528 0.12871,2.155124 0.21091,2.2370563 0.0821,0.081943 0.76105,0.1798279 1.50856,0.2175734 l 1.35911,0.068666 v 4.5492924 4.549292 l -22.65889,0.04782 c -12.46239,0.02635 -22.72745,0.116369 -22.81125,0.200148 -0.0838,0.08381 -0.18148,2.120324 -0.21708,4.525674 l -0.0647,4.373364 h -4.55237 -4.55237 v -1.360632 c 0,-0.81866 -0.0828,-1.411769 -0.2078,-1.489044 -0.11427,-0.07064 -0.76185,-0.168055 -1.43905,-0.216516 l -1.23128,-0.08806 -0.0855,-2.812128 c -0.047,-1.546676 -0.14685,-2.873514 -0.22188,-2.948538 -0.20758,-0.207595 -105.469077,-0.256968 -105.796507,-0.04958 -0.22878,0.144872 -0.2834,0.902967 -0.32923,4.569135 l -0.055,4.395437 -4.24216,0.0031 c -2.34916,10e-4 -4.36456,0.08008 -4.51644,0.175948 -0.22866,0.144354 -0.28387,0.904222 -0.33196,4.568596 l -0.0577,4.395447 h -9.13083 -9.1308197 z" />
	 <path id="BORG5" style="fill:#000000;stroke:#000000;stroke-width:0.254352" d="m 13.531323,48.859036 c 0,-0.723295 -0.0918,-1.33521 -0.21943,-1.462843 -0.13059,-0.13059 -0.75987,-0.21943 -1.55426,-0.21943 h -1.33485 v -4.56036 -4.56035 l 8.96671,-0.05674 c 7.72938,-0.04896 8.99063,-0.0946 9.13999,-0.331038 0.096,-0.152009 0.17452,-2.164117 0.17606,-4.513715 l 0.003,-4.239425 4.39544,-0.05767 c 3.66437,-0.04813 4.42424,-0.10331 4.5686,-0.331961 0.0959,-0.151936 0.1744,-2.170714 0.17594,-4.525684 l 0.003,-4.251395 h 45.6225 45.622497 v 1.109162 c 0,1.690893 0.12058,1.816535 1.74356,1.816535 h 1.36498 v 4.662819 4.662819 h -4.35196 c -3.14105,0 -4.41302,0.06109 -4.5714,0.21942 -0.15836,0.158378 -0.21942,1.430346 -0.21942,4.571396 v 4.351966 h -4.54779 -4.54777 l -0.12628,-1.447595 c -0.14506,-1.66296 -0.14281,-1.660948 -1.85589,-1.660948 h -1.1736 v -2.663427 c 0,-1.486285 -0.0837,-2.819752 -0.18929,-3.01712 -0.18596,-0.347479 -0.71569,-0.353692 -30.134617,-0.353692 -23.047,0 -29.99588,0.05051 -30.16476,0.21942 -0.15837,0.158378 -0.21942,1.430346 -0.21942,4.571396 v 4.351966 h -4.38211 c -4.1453,0 -4.39233,0.01909 -4.57139,0.353692 -0.11444,0.213829 -0.18928,1.985305 -0.18928,4.479963 v 4.126271 h -13.71416 -13.71418 z" />
	 <path id="BORG6" style="fill:#000000;stroke:#000000;stroke-width:0.254352" d="m 22.671603,76.479387 c -0.004,-1.825081 -0.0122,-1.834469 -1.66166,-1.978356 l -1.44438,-0.125994 v -9.119175 -9.119174 h 13.52488 c 13.18452,0 13.52965,-0.0093 13.71418,-0.353681 0.11479,-0.214493 0.18929,-2.013716 0.18929,-4.571396 v -4.217705 h 4.39306 4.39306 l 0.17834,-0.469044 c 0.0981,-0.257974 0.17833,-2.273951 0.17833,-4.479963 v -4.010918 h 22.7419 22.741897 l 0.13052,1.324463 c 0.0718,0.72845 0.2264,1.385475 0.34362,1.460043 0.11721,0.07458 0.76854,0.136844 1.44739,0.138379 l 1.23428,0.0031 v 2.663438 c 0,1.486275 0.0837,2.819742 0.18928,3.01711 0.17452,0.32608 0.40821,0.353691 2.99308,0.353691 h 2.80379 l 0.0892,1.390111 c 0.0583,0.90832 0.17753,1.44604 0.34405,1.551476 0.14015,0.08879 0.81024,0.16262 1.4891,0.164166 l 1.23428,0.0031 v 4.571385 4.571397 h -9.14278 -9.142797 v -0.993799 c 0,-0.5466 -0.0803,-1.204879 -0.17832,-1.462854 -0.16962,-0.446131 -0.24554,-0.469044 -1.55428,-0.469044 h -1.37594 l -0.003,-2.788551 c -0.002,-1.533698 -0.0808,-2.911974 -0.17609,-3.062831 -0.15023,-0.237779 -1.61585,-0.281313 -11.01425,-0.32717 -5.96254,-0.02904 -11.29354,0.01317 -11.84668,0.09387 l -1.0057,0.14675 -0.049,4.422458 -0.049,4.422447 -5.9246,0.05508 c -3.25853,0.03029 -5.99306,0.123495 -6.07673,0.207118 -0.0837,0.0836 -0.17684,2.118447 -0.20704,4.521826 l -0.055,4.369797 -11.95267,0.04958 c -6.57397,0.02728 -12.02121,0.117977 -12.10498,0.2016 -0.0838,0.0836 -0.17703,2.120179 -0.20726,4.525674 l -0.055,4.373645 h -4.56217 -4.56215 z" />
	 <path id="BORG7" style="fill:#000000;stroke:#000000;stroke-width:0.0224818" d="m 72.924523,37.920817 c 5.27727,-0.0021 13.91764,-0.0021 19.20083,0 5.28319,0.0021 0.96542,0.0041 -9.59503,0.0041 -10.56046,0 -14.88307,-0.0021 -9.6058,-0.0041 z" />
</svg>