<?xml version="1.0" encoding="UTF-8" standalone="no"?>
<svg id="MIUIPOLSKASVG" width="465.03345" height="465.47552" viewBox="0 0 465.03345 465.47553" version="1.1" xml:space="preserve" xmlns:xlink="http://www.w3.org/1999/xlink" xmlns="http://www.w3.org/2000/svg" xmlns:svg="http://www.w3.org/2000/svg">
   <defs id="MIUIPOLSKADEFS" />
	 <path id="MIUIPOLSKA1" style="fill:#000000;stroke:#000000;stroke-width:0.932753" d="M 11.064243,465.2556 C 6.7681735,464.29838 3.1481735,461.53708 1.2130635,457.74136 0.04989346,455.45989 2.345365e-5,446.19713 2.345365e-5,232.58091 V 9.7997885 L 1.4879935,7.2468555 c 1.83686,-3.151573 2.21144,-3.528709 5.55283,-5.591231 L 9.7231635,1.5516242e-6 H 232.6843 455.64556 L 458.47846,1.8417475 c 1.5581,1.012962 3.3617,2.672598 4.0078,3.688075 0.6463,1.015486 1.4837,2.061654 1.8611,2.324804 0.4654,0.324552 0.6861,72.5831645 0.6861,224.6376435 v 224.15919 l -1.9852,2.59531 c -1.0918,1.42731 -3.2041,3.38872 -4.694,4.35864 l -2.7087,1.76333 -221.62018,0.0928 c -121.89103,0.0508 -222.223557,-0.0412 -222.961137,-0.20595 z M 160.23505,349.69901 c 3.8498,-1.94311 9.29028,-7.54892 11.42828,-11.77541 1.58568,-3.13486 1.68813,-4.01129 1.89514,-16.20543 0.20876,-12.30962 -0.52733,-20.30138 -1.86999,-20.30138 -0.30271,0 -0.72374,-0.69087 -0.93565,-1.53525 -0.4475,-1.78271 -6.99479,-8.52316 -8.279,-8.52316 -0.47781,0 -0.86895,-0.27405 -0.86895,-0.60901 0,-1.25602 -8.26567,-3.41435 -13.07584,-3.41435 -6.99575,0 -12.2046,1.95771 -16.67235,6.26621 -3.96452,3.82311 -7.13256,9.15376 -7.13256,12.00122 0,1.01715 -0.30184,1.84937 -0.67063,1.84937 -0.42208,0 -0.67054,4.4572 -0.67054,12.03051 0,7.29701 0.26388,12.19357 0.67054,12.44494 0.36879,0.22793 0.67343,1.07556 0.67676,1.88361 0.01,1.68636 2.52616,7.11787 4.01719,8.66134 0.55328,0.57269 1.57614,1.82905 2.27332,2.79194 0.69701,0.9629 1.64546,1.75071 2.1075,1.75071 0.46204,0 1.00296,0.42417 1.2019,0.9426 0.19895,0.51844 1.28736,1.14592 2.41872,1.39441 1.13135,0.24848 2.05701,0.70858 2.05701,1.02243 0,0.9741 2.72923,1.2364 10.72891,1.0311 6.40838,-0.16445 8.2165,-0.45279 10.70024,-1.7064 z m 106.98307,0.4579 c 1.10646,-0.61715 2.34509,-1.12396 2.75262,-1.12623 0.40753,-0.002 2.26578,-1.6165 4.12964,-3.58717 2.97821,-3.14907 3.44525,-4.03586 3.85576,-7.32154 0.93495,-7.48329 -0.32296,-11.30601 -5.28054,-16.04723 -2.56025,-2.44837 -11.29936,-6.5734 -13.94085,-6.58033 -0.86624,-0.002 -2.34948,-0.4083 -3.29608,-0.90229 -0.94661,-0.49398 -2.58795,-1.11569 -3.64726,-1.38157 -2.10435,-0.52819 -5.57466,-2.76426 -6.81758,-4.39299 -2.89636,-3.79527 -0.64592,-10.27542 4.20956,-12.12148 2.50916,-0.95399 10.7105,-0.78019 13.2498,0.28079 2.75219,1.14995 4.95408,3.87816 5.50648,6.82272 0.64933,3.4616 4.83514,5.3649 8.6115,3.91577 1.61364,-0.61923 1.36947,-5.86869 -0.4418,-9.4953 -3.43316,-6.87425 -11.11759,-10.88504 -20.85501,-10.88504 -7.19751,0 -12.24492,1.85628 -16.61118,6.10912 -4.00825,3.90432 -4.6178,5.4135 -4.6178,11.43539 0,5.30466 1.0729,8.20086 4.15348,11.2128 2.34667,2.29424 10.58955,6.49117 13.95172,7.10355 1.29077,0.23512 2.95034,0.67975 3.68801,0.98806 0.73758,0.30832 2.81485,1.08554 4.6163,1.72716 5.09036,1.81317 7.23598,4.10046 7.56832,8.06767 0.35529,4.24221 -0.68395,6.15619 -4.41105,8.12338 -5.77738,3.04948 -15.92855,1.65054 -19.62463,-2.70453 -0.67001,-0.78942 -1.55185,-2.69638 -1.95965,-4.23768 -0.67527,-2.55163 -0.97421,-2.84167 -3.34156,-3.24164 -1.43004,-0.2416 -3.54665,-0.23137 -4.70351,0.0227 -2.10189,0.46162 -2.10329,0.46504 -1.79243,4.21368 0.17116,2.06344 0.65853,3.86749 1.08306,4.00902 0.42462,0.14151 0.77194,0.68512 0.77194,1.208 0,1.38835 4.96924,5.98387 7.8833,7.29048 3.42526,1.5358 5.01121,2.21208 6.19848,2.64316 0.55319,0.20086 4.62691,0.27711 9.0526,0.16942 5.98998,-0.14574 8.56093,-0.48258 10.05836,-1.31787 z M 78.703413,349.52947 c 0.22235,-0.82982 0.40841,-5.78406 0.41349,-11.0094 0.01,-5.22535 0.19228,-9.97795 0.41621,-10.56132 0.33803,-0.88117 1.72827,-1.06473 8.2143,-1.08457 10.74906,-0.0329 17.764357,-1.85374 21.867787,-5.67587 2.04553,-1.90526 4.37994,-5.94716 4.37994,-7.58339 0,-0.76451 0.30174,-1.57652 0.67054,-1.80446 0.36879,-0.22793 0.67054,-2.18933 0.67054,-4.35864 0,-2.16931 -0.30175,-4.1307 -0.67054,-4.35864 -0.3688,-0.22794 -0.67054,-1.03995 -0.67054,-1.80446 0,-1.58697 -2.26789,-5.58616 -4.31579,-7.61023 -4.66258,-4.6085 -9.24786,-5.61858 -25.643867,-5.64903 -10.819,-0.0201 -13.02755,0.14338 -13.91403,1.02985 -0.92575,0.92569 -1.05275,4.57194 -1.0446,30.00757 0.01,15.92461 0.19106,29.63277 0.41349,30.46259 0.36477,1.36112 0.8155,1.50875 4.60649,1.50875 3.791,0 4.24173,-0.14763 4.60658,-1.50875 z m 146.604777,-2.10111 c 0,-3.17674 -0.18107,-3.65839 -1.50883,-4.0142 -0.82978,-0.22239 -6.95535,-0.40846 -13.61237,-0.41349 -8.50896,-0.006 -12.34263,-0.24814 -12.90827,-0.81384 -0.5985,-0.59848 -0.80463,-7.53903 -0.80463,-27.08594 0,-29.23216 0.37011,-27.09532 -4.69395,-27.09532 -5.0872,0 -4.69387,-2.63739 -4.69387,31.47631 0,16.86424 0.20114,30.86344 0.44697,31.10931 0.24583,0.24587 8.84585,0.44703 19.11096,0.44703 h 18.66399 z m 75.07909,2.31283 c 0.40692,-0.76048 0.69412,-6.4471 0.69412,-13.74649 v -12.44944 h 2.61274 c 2.7429,0 3.34262,0.49925 8.45147,7.03575 1.10655,1.41561 2.69066,3.29204 3.52045,4.16985 0.82978,0.8778 1.50882,1.73743 1.50882,1.91028 0,0.51067 6.18061,7.98638 6.80443,8.23029 0.31446,0.12293 0.57169,0.52612 0.57169,0.89596 0,0.36984 0.97167,1.70257 2.1592,2.96163 2.09506,2.22113 2.31328,2.2892 7.33668,2.2892 2.84754,0 5.3453,-0.27179 5.55064,-0.60399 0.37721,-0.6105 -4.00212,-6.55269 -11.16842,-15.15417 -2.15097,-2.58165 -4.13358,-4.99567 -4.40588,-5.36448 -0.27239,-0.36881 -2.42633,-3.01945 -4.78676,-5.89032 l -4.2916,-5.21975 1.55843,-2.15641 c 0.85713,-1.18601 1.96552,-2.60903 2.46288,-3.16224 3.29573,-3.66495 5.55599,-6.43499 5.56923,-6.82534 0.01,-0.25027 0.41427,-0.85377 0.90156,-1.34112 0.48719,-0.48736 2.9598,-3.45099 5.49473,-6.58586 2.53483,-3.13488 4.80666,-5.85065 5.04863,-6.03505 0.92847,-0.70752 2.0253,-3.41075 1.63801,-4.03721 -0.22322,-0.36119 -2.38488,-0.65671 -4.80377,-0.65671 -4.19983,0 -4.50833,0.11332 -6.84641,2.5146 -1.34669,1.38303 -3.19714,3.5335 -4.11211,4.77881 -0.91497,1.24532 -2.12696,2.76479 -2.69329,3.37662 -0.56634,0.61181 -1.92424,2.29874 -3.01756,3.7487 -1.09332,1.44997 -2.44054,3.12047 -2.99372,3.71223 -0.55319,0.59175 -1.91101,2.22073 -3.01757,3.61995 -3.68126,4.65554 -5.01936,5.74206 -7.0713,5.74206 h -1.9812 v -12.25615 c 0,-14.42772 -0.26617,-15.23682 -5.01236,-15.23682 -5.4985,0 -5.04609,-2.82281 -5.04609,31.47631 0,16.86424 0.20122,30.86344 0.44714,31.10931 0.24583,0.24587 2.19654,0.44703 4.33506,0.44703 3.15762,0 4.01842,-0.24363 4.58213,-1.29703 z m 51.14263,-0.21172 c 0.53969,-0.82982 1.35484,-2.71577 1.81136,-4.191 0.45652,-1.47524 1.25668,-3.6331 1.77806,-4.79526 0.52137,-1.16217 0.94814,-2.42306 0.94814,-2.80198 0,-0.37894 0.47405,-1.16316 1.0537,-1.74271 0.87203,-0.87204 2.94491,-1.05374 12.02214,-1.05374 11.66403,0 13.07592,0.36719 13.07592,3.40071 0,0.71127 0.25372,1.29322 0.56379,1.29322 0.31016,0 0.93907,1.5842 1.39744,3.52044 0.45844,1.93624 1.35948,4.42569 2.00241,5.53211 1.09069,1.8769 1.46878,2.02497 5.64355,2.20996 l 4.47459,0.19828 v -1.87468 c 0,-1.03108 -0.45495,-2.73899 -1.00586,-3.79536 -0.55091,-1.05638 -1.00357,-2.26339 -1.00576,-2.68224 0,-0.41886 -0.45004,-1.61648 -0.99508,-2.66137 -0.54504,-1.04492 -1.32881,-3.15719 -1.74168,-4.69393 -0.41297,-1.53676 -0.95801,-2.94496 -1.2112,-3.12938 -0.25319,-0.1844 -0.80419,-1.39141 -1.22417,-2.68223 -1.35203,-4.15448 -2.90529,-8.32743 -3.90632,-10.49503 -0.53672,-1.16216 -0.97588,-2.53781 -0.97588,-3.05699 0,-0.51919 -0.44303,-1.52972 -0.98447,-2.24562 -0.54154,-0.7159 -1.00446,-1.75427 -1.02864,-2.3075 -0.0245,-0.5532 -0.62716,-2.21284 -1.33968,-3.68806 -0.71261,-1.47524 -1.31619,-3.13488 -1.34117,-3.68809 -0.0254,-0.55321 -0.62847,-2.21285 -1.34108,-3.68808 -0.71261,-1.47523 -1.30594,-3.1925 -1.31847,-3.81614 -0.0123,-0.62366 -0.30122,-1.30605 -0.6417,-1.51645 -0.3404,-0.21041 -0.81988,-1.29766 -1.06554,-2.41611 -0.64293,-2.92721 -2.78987,-4.65667 -5.78061,-4.65667 -3.11467,0 -5.37791,1.9685 -6.55335,5.69977 -0.87465,2.77639 -2.4131,6.63013 -3.34612,8.38199 -0.29465,0.55322 -0.94065,2.59004 -1.43547,4.52629 -0.49474,1.93624 -1.1204,3.52044 -1.39016,3.52044 -0.26976,0 -0.69385,0.92558 -0.94227,2.05685 -0.24855,1.13127 -0.8744,2.86635 -1.39086,3.85572 -0.51638,0.98938 -1.12505,2.77957 -1.35256,3.9782 -0.22734,1.19862 -0.65766,2.17931 -0.95616,2.17931 -0.29842,0 -0.75608,0.9807 -1.01681,2.17933 -0.26082,1.19863 -0.88842,2.77453 -1.39446,3.502 -0.50604,0.72747 -0.93039,1.78361 -0.94292,2.34696 -0.0123,0.56335 -0.60578,2.23128 -1.31839,3.70652 -0.71252,1.47523 -1.30584,3.07599 -1.31838,3.55722 -0.0228,0.86753 -2.15508,6.09754 -3.39906,8.33612 -0.35582,0.64042 -0.64705,2.07373 -0.64705,3.18516 v 2.02077 h 4.28152 c 3.70238,0 4.41429,-0.2041 5.26283,-1.50875 z m 40.76302,-83.65238 c 0.69771,-1.10565 0.92128,-146.12654 0.22927,-148.70955 l -0.40771,-1.52161 -14.50307,0.18048 -14.50315,0.18049 -0.17046,75.22065 c -0.16152,71.22099 -0.10806,75.238 1.00577,75.54697 0.64696,0.17949 7.14746,0.27731 14.44539,0.21737 10.98236,-0.0902 13.37855,-0.2823 13.90396,-1.1148 z m -293.472797,-0.8382 c 0.22243,-0.82982 0.40858,-23.00859 0.41349,-49.28617 0.01,-31.39846 0.23908,-47.77741 0.67974,-47.77741 0.368877,0 0.670627,0.30175 0.670627,0.67057 0,0.36881 0.52803,1.20877 1.17351,1.8666 0.6453,0.65782 2.07866,2.53361 3.18504,4.16843 1.10646,1.63483 2.48655,3.45739 3.0669,4.05015 0.58036,0.59276 2.51705,3.16781 4.30369,5.72232 1.78674,2.55452 3.57505,4.94633 3.97408,5.31514 0.39903,0.36881 1.63073,2.01216 2.73711,3.65191 2.68303,3.97628 4.65811,6.07121 5.72391,6.07121 1.18753,0 3.3286,-2.00782 3.3286,-3.12145 0,-0.49605 0.31147,-0.90191 0.69218,-0.90191 0.38071,0 0.90884,-0.52807 1.17351,-1.17348 0.4546,-1.1082 5.4531,-8.83569 6.18105,-9.55548 0.1865,-0.18441 1.24353,-1.69317 2.34886,-3.35281 1.10541,-1.65964 2.23712,-3.31927 2.51512,-3.68808 1.38244,-1.83492 5.55266,-8.24787 6.32276,-9.72312 0.72733,-1.39315 0.87737,6.53779 0.88841,46.93921 0.01,26.73858 0.19658,49.29983 0.42076,50.1361 l 0.40736,1.52051 16.17981,-0.17939 16.17981,-0.17937 0.17055,-74.35993 c 0.1248,-54.39182 -0.0324,-74.60441 -0.58509,-75.27037 -0.59508,-0.71711 -3.93271,-0.91045 -15.7175,-0.91045 h -14.96205 l -1.88752,2.7557 c -1.0381,1.51564 -2.41564,3.24234 -3.06103,3.8371 -0.64547,0.59478 -1.17351,1.47645 -1.17351,1.95928 0,0.48282 -0.45258,1.05154 -1.00585,1.26383 -0.55319,0.21229 -1.00577,0.68733 -1.00577,1.05564 0,0.36831 -0.75897,1.61847 -1.68647,2.77813 -2.17665,2.72113 -2.30162,2.89369 -4.68388,6.46713 -1.10646,1.65963 -2.31345,3.37361 -2.68225,3.80883 -0.36879,0.43523 -1.7267,2.34079 -3.01756,4.23461 -1.29077,1.89381 -2.86147,4.10261 -3.49029,4.90844 l -1.14336,1.46516 -2.37709,-2.63641 c -1.30734,-1.45003 -2.38409,-2.80791 -2.39259,-3.01752 -0.01,-0.20961 -0.98929,-1.50945 -2.17937,-2.88853 -1.18998,-1.37908 -2.76717,-3.28926 -3.50484,-4.24484 -0.73759,-0.95558 -1.64292,-2.09038 -2.01171,-2.52179 -0.3687,-0.43139 -1.55264,-1.99136 -2.63062,-3.46659 -1.07799,-1.47524 -2.43589,-3.19583 -3.01748,-3.82353 -1.30164,-1.40478 -1.90286,-2.1599 -4.43051,-5.56431 -1.09533,-1.47525 -2.29321,-3.04897 -2.662,-3.49717 -2.465947,-2.99684 -1.760957,-2.87316 -16.376897,-2.87316 -13.92797,0 -13.97854,0.005 -14.38143,1.50877 -0.5304,1.979 -0.54565,146.92543 -0.0158,148.30657 0.35345,0.92121 2.28295,1.06069 14.67405,1.06069 14.22866,0 14.26818,-0.004 14.67142,-1.50876 z m 130.759227,0 c 0.53049,-1.97943 0.52725,-145.89097 0,-147.87112 l -0.40761,-1.52137 -14.83838,0.18025 -14.83856,0.18025 -0.17265,74.43217 c -0.0949,40.93771 -0.0289,74.80937 0.14662,75.27038 0.24206,0.63535 3.87565,0.8382 15.01436,0.8382 14.67266,0 14.69579,-0.002 15.09955,-1.50876 z m 93.29524,-0.48711 c 2.21284,-0.89457 4.17425,-1.79265 4.35873,-1.99571 0.18431,-0.20306 1.23048,-0.82135 2.32459,-1.37397 2.74123,-1.38451 10.41602,-8.98353 10.41602,-10.31323 0,-0.59688 0.23041,-1.08522 0.51217,-1.08522 0.86774,0 3.46033,-6.20119 3.92482,-9.38784 0.24198,-1.65964 0.70218,-3.35216 1.02268,-3.76116 0.32287,-0.41205 0.50622,-27.47063 0.4113,-60.68568 l -0.17125,-59.94207 -15.17378,-0.18001 -15.17387,-0.18003 -0.40753,1.52114 c -0.22419,0.83663 -0.41165,26.01404 -0.41673,55.94981 -0.0105,61.06856 0.33084,56.98245 -4.99194,59.80153 -2.48908,1.31829 -3.74103,1.44498 -14.26117,1.44329 -11.14143,-0.002 -11.5898,-0.0549 -13.21598,-1.5619 -3.49126,-3.23554 -3.3917,-1.61336 -3.75032,-61.13734 l -0.33523,-55.65649 -14.66871,-0.18095 c -13.37267,-0.16497 -14.7482,-0.0762 -15.56922,1.00584 -0.73714,0.97157 -0.90436,11.72837 -0.9218,59.3183 -0.0123,31.97234 0.23645,58.29085 0.55152,58.48557 0.31507,0.19474 0.77071,2.24729 1.0126,4.56126 0.61437,5.87797 4.31062,13.02276 9.33813,18.05019 2.16578,2.16585 4.66767,4.12107 5.55967,4.34496 0.89201,0.22387 1.62189,0.67608 1.62189,1.00491 0,0.32883 0.37711,0.59973 0.83819,0.602 0.46099,0.002 1.74344,0.48022 2.84982,1.06209 3.67233,1.93128 7.20443,2.18232 28.83409,2.04925 21.00821,-0.12926 21.54229,-0.16611 25.48131,-1.75854 z" />
	 <path id="MIUIPOLSKA2" style="fill:#000000;stroke:#000000;stroke-width:0.609542" d="m 79.516453,307.52787 v -10.736 h 9.18896 c 8.51974,0 9.30816,0.067 10.82583,0.91936 2.206537,1.23936 4.524637,3.843 4.524637,5.08203 0,0.55544 0.19719,1.00988 0.4382,1.00988 0.54513,0 0.58886,6.28879 0.0508,7.34586 -0.21288,0.4185 -0.62453,1.27326 -0.91488,1.89948 -0.76686,1.65445 -2.23335,3.16316 -3.737347,3.84515 -0.72304,0.32785 -1.65703,0.77027 -2.07551,0.98316 -0.41849,0.2129 -4.70746,0.38709 -9.53094,0.38709 h -8.77004 z" />
	 <path id="MIUIPOLSKA3" style="fill:#000000;stroke:#000000;stroke-width:0.609542" d="m 142.61784,342.24393 c -1.08455,-0.52463 -2.33677,-1.25428 -2.78268,-1.62142 -2.27481,-1.87283 -3.35218,-3.05932 -3.35218,-3.69167 0,-0.38532 -0.19719,-0.70059 -0.4382,-0.70059 -0.24101,0 -0.43821,-0.36152 -0.43821,-0.80338 0,-0.44186 -0.13514,-0.93852 -0.30034,-1.10369 -0.16512,-0.16518 -0.55652,-1.03611 -0.86975,-1.93541 -0.70752,-2.03137 -0.83776,-24.43146 -0.14452,-24.8599 0.24101,-0.14895 0.43821,-0.64827 0.43821,-1.10961 0,-0.46133 0.50165,-1.68214 1.11479,-2.71291 0.61313,-1.03077 1.22767,-2.21921 1.36571,-2.64099 0.13803,-0.42177 0.37589,-0.76732 0.52847,-0.76788 0.15267,-5.7e-4 0.96773,-0.59168 1.81127,-1.31359 0.84355,-0.7219 1.78025,-1.31301 2.08147,-1.31358 0.30131,-5.6e-4 0.54776,-0.19822 0.54776,-0.43923 0,-0.24101 0.48132,-0.43821 1.06965,-0.43821 0.58834,0 1.19157,-0.19719 1.34047,-0.4382 0.64618,-1.04551 7.84727,-0.37723 10.46738,0.9714 4.46372,2.29758 4.73979,2.57973 6.98042,7.13538 1.9827,4.03116 2.15596,5.22959 2.18585,15.11804 0.0228,7.50036 -0.2624,11.16484 -1.00524,12.92702 -0.20315,0.48203 -0.63128,1.51728 -0.95134,2.30057 -0.32007,0.78329 -0.73102,1.42417 -0.91313,1.42417 -0.18221,0 -0.33129,0.30236 -0.33129,0.6719 0,0.62538 -2.73325,3.71014 -3.28732,3.71014 -0.13707,0 -0.77562,0.34498 -1.41916,0.76662 -2.08165,1.36393 -4.2008,1.84972 -8.00144,1.83416 -2.90739,-0.0119 -4.15741,-0.22455 -5.69665,-0.96914 z" />
	 <path id="MIUIPOLSKA4" style="fill:#000000;stroke:#000000;stroke-width:0.609542" d="m 360.76037,325.05604 c 0.0985,-0.84354 0.35469,-1.53371 0.56932,-1.53371 0.21463,0 0.39026,-0.59158 0.39026,-1.31462 0,-0.72303 0.19719,-1.31461 0.43821,-1.31461 0.24101,0 0.4382,-0.49298 0.4382,-1.09551 0,-0.60253 0.19719,-1.09551 0.4382,-1.09551 0.24102,0 0.43821,-0.59158 0.43821,-1.31461 0,-0.72304 0.19719,-1.31461 0.4382,-1.31461 0.24102,0 0.43821,-0.3567 0.43821,-0.79266 0,-0.43596 0.28956,-1.17543 0.64337,-1.64327 0.35389,-0.46783 0.64968,-1.19836 0.6573,-1.62341 0.0132,-0.74834 0.18633,-1.19741 1.2601,-3.27464 0.2787,-0.53901 0.50666,-1.33764 0.50666,-1.77473 0,-0.43709 0.18054,-0.98204 0.40113,-1.211 0.22059,-0.22896 0.46704,-0.90928 0.54775,-1.51181 0.20929,-1.5636 1.33845,-1.35449 1.77455,0.32866 0.20298,0.78329 0.56064,1.42416 0.79473,1.42416 0.23409,0 0.42567,0.59158 0.42567,1.31461 0,0.72304 0.19719,1.31462 0.43821,1.31462 0.24101,0 0.4382,0.59157 0.4382,1.31461 0,0.72303 0.19719,1.31461 0.43821,1.31461 0.24101,0 0.4382,0.48134 0.4382,1.06965 0,0.5883 0.19719,1.19152 0.4382,1.34047 0.24102,0.14896 0.43821,0.75217 0.43821,1.34048 0,0.5883 0.19719,1.06965 0.4382,1.06965 0.24101,0 0.43821,0.55213 0.43821,1.22697 0,0.67483 0.16292,1.4143 0.36204,1.64326 0.19912,0.22896 0.63636,1.30366 0.97176,2.38822 0.33532,1.08455 0.86142,2.46489 1.16896,3.06742 1.1246,2.20299 1.16895,2.19102 -8.11143,2.19102 h -8.67609 z" />
	 <path id="MIUIPOLSKA5" style="fill:#000000;stroke:#000000;stroke-width:0.932753" d="M 11.064243,465.2556 C 6.7681735,464.29838 3.1481735,461.53708 1.2130635,457.74136 0.04989346,455.45989 2.345365e-5,446.19713 2.345365e-5,232.58091 V 9.7997885 L 1.4879935,7.2468555 c 1.83686,-3.151573 2.21144,-3.528709 5.55283,-5.591231 L 9.7231635,1.5516242e-6 H 232.6843 455.64556 L 458.47846,1.8417475 c 1.5581,1.012962 3.3617,2.672598 4.0078,3.688075 0.6463,1.015486 1.4837,2.061654 1.8611,2.324804 0.4654,0.324552 0.6861,72.5831645 0.6861,224.6376435 v 224.15919 l -1.9852,2.59531 c -1.0918,1.42731 -3.2041,3.38872 -4.694,4.35864 l -2.7087,1.76333 -221.62018,0.0928 c -121.89103,0.0508 -222.223557,-0.0412 -222.961137,-0.20595 z M 160.23505,349.69901 c 3.8498,-1.94311 9.29028,-7.54892 11.42828,-11.77541 1.58568,-3.13486 1.68813,-4.01129 1.89514,-16.20543 0.20876,-12.30962 -0.52733,-20.30138 -1.86999,-20.30138 -0.30271,0 -0.72374,-0.69087 -0.93565,-1.53525 -0.4475,-1.78271 -6.99479,-8.52316 -8.279,-8.52316 -0.47781,0 -0.86895,-0.27405 -0.86895,-0.60901 0,-1.25602 -8.26567,-3.41435 -13.07584,-3.41435 -6.99575,0 -12.2046,1.95771 -16.67235,6.26621 -3.96452,3.82311 -7.13256,9.15376 -7.13256,12.00122 0,1.01715 -0.30184,1.84937 -0.67063,1.84937 -0.42208,0 -0.67054,4.4572 -0.67054,12.03051 0,7.29701 0.26388,12.19357 0.67054,12.44494 0.36879,0.22793 0.67343,1.07556 0.67676,1.88361 0.01,1.68636 2.52616,7.11787 4.01719,8.66134 0.55328,0.57269 1.57614,1.82905 2.27332,2.79194 0.69701,0.9629 1.64546,1.75071 2.1075,1.75071 0.46204,0 1.00296,0.42417 1.2019,0.9426 0.19895,0.51844 1.28736,1.14592 2.41872,1.39441 1.13135,0.24848 2.05701,0.70858 2.05701,1.02243 0,0.9741 2.72923,1.2364 10.72891,1.0311 6.40838,-0.16445 8.2165,-0.45279 10.70024,-1.7064 z m 106.98307,0.4579 c 1.10646,-0.61715 2.34509,-1.12396 2.75262,-1.12623 0.40753,-0.002 2.26578,-1.6165 4.12964,-3.58717 2.97821,-3.14907 3.44525,-4.03586 3.85576,-7.32154 0.93495,-7.48329 -0.32296,-11.30601 -5.28054,-16.04723 -2.56025,-2.44837 -11.29936,-6.5734 -13.94085,-6.58033 -0.86624,-0.002 -2.34948,-0.4083 -3.29608,-0.90229 -0.94661,-0.49398 -2.58795,-1.11569 -3.64726,-1.38157 -2.10435,-0.52819 -5.57466,-2.76426 -6.81758,-4.39299 -2.89636,-3.79527 -0.64592,-10.27542 4.20956,-12.12148 2.50916,-0.95399 10.7105,-0.78019 13.2498,0.28079 2.75219,1.14995 4.95408,3.87816 5.50648,6.82272 0.64933,3.4616 4.83514,5.3649 8.6115,3.91577 1.61364,-0.61923 1.36947,-5.86869 -0.4418,-9.4953 -3.43316,-6.87425 -11.11759,-10.88504 -20.85501,-10.88504 -7.19751,0 -12.24492,1.85628 -16.61118,6.10912 -4.00825,3.90432 -4.6178,5.4135 -4.6178,11.43539 0,5.30466 1.0729,8.20086 4.15348,11.2128 2.34667,2.29424 10.58955,6.49117 13.95172,7.10355 1.29077,0.23512 2.95034,0.67975 3.68801,0.98806 0.73758,0.30832 2.81485,1.08554 4.6163,1.72716 5.09036,1.81317 7.23598,4.10046 7.56832,8.06767 0.35529,4.24221 -0.68395,6.15619 -4.41105,8.12338 -5.77738,3.04948 -15.92855,1.65054 -19.62463,-2.70453 -0.67001,-0.78942 -1.55185,-2.69638 -1.95965,-4.23768 -0.67527,-2.55163 -0.97421,-2.84167 -3.34156,-3.24164 -1.43004,-0.2416 -3.54665,-0.23137 -4.70351,0.0227 -2.10189,0.46162 -2.10329,0.46504 -1.79243,4.21368 0.17116,2.06344 0.65853,3.86749 1.08306,4.00902 0.42462,0.14151 0.77194,0.68512 0.77194,1.208 0,1.38835 4.96924,5.98387 7.8833,7.29048 3.42526,1.5358 5.01121,2.21208 6.19848,2.64316 0.55319,0.20086 4.62691,0.27711 9.0526,0.16942 5.98998,-0.14574 8.56093,-0.48258 10.05836,-1.31787 z M 78.703413,349.52947 c 0.22235,-0.82982 0.40841,-5.78406 0.41349,-11.0094 0.01,-5.22535 0.19228,-9.97795 0.41621,-10.56132 0.33803,-0.88117 1.72827,-1.06473 8.2143,-1.08457 10.74906,-0.0329 17.764357,-1.85374 21.867787,-5.67587 2.04553,-1.90526 4.37994,-5.94716 4.37994,-7.58339 0,-0.76451 0.30174,-1.57652 0.67054,-1.80446 0.36879,-0.22793 0.67054,-2.18933 0.67054,-4.35864 0,-2.16931 -0.30175,-4.1307 -0.67054,-4.35864 -0.3688,-0.22794 -0.67054,-1.03995 -0.67054,-1.80446 0,-1.58697 -2.26789,-5.58616 -4.31579,-7.61023 -4.66258,-4.6085 -9.24786,-5.61858 -25.643867,-5.64903 -10.819,-0.0201 -13.02755,0.14338 -13.91403,1.02985 -0.92575,0.92569 -1.05275,4.57194 -1.0446,30.00757 0.01,15.92461 0.19106,29.63277 0.41349,30.46259 0.36477,1.36112 0.8155,1.50875 4.60649,1.50875 3.791,0 4.24173,-0.14763 4.60658,-1.50875 z m 146.604777,-2.10111 c 0,-3.17674 -0.18107,-3.65839 -1.50883,-4.0142 -0.82978,-0.22239 -6.95535,-0.40846 -13.61237,-0.41349 -8.50896,-0.006 -12.34263,-0.24814 -12.90827,-0.81384 -0.5985,-0.59848 -0.80463,-7.53903 -0.80463,-27.08594 0,-29.23216 0.37011,-27.09532 -4.69395,-27.09532 -5.0872,0 -4.69387,-2.63739 -4.69387,31.47631 0,16.86424 0.20114,30.86344 0.44697,31.10931 0.24583,0.24587 8.84585,0.44703 19.11096,0.44703 h 18.66399 z m 75.07909,2.31283 c 0.40692,-0.76048 0.69412,-6.4471 0.69412,-13.74649 v -12.44944 h 2.61274 c 2.7429,0 3.34262,0.49925 8.45147,7.03575 1.10655,1.41561 2.69066,3.29204 3.52045,4.16985 0.82978,0.8778 1.50882,1.73743 1.50882,1.91028 0,0.51067 6.18061,7.98638 6.80443,8.23029 0.31446,0.12293 0.57169,0.52612 0.57169,0.89596 0,0.36984 0.97167,1.70257 2.1592,2.96163 2.09506,2.22113 2.31328,2.2892 7.33668,2.2892 2.84754,0 5.3453,-0.27179 5.55064,-0.60399 0.37721,-0.6105 -4.00212,-6.55269 -11.16842,-15.15417 -2.15097,-2.58165 -4.13358,-4.99567 -4.40588,-5.36448 -0.27239,-0.36881 -2.42633,-3.01945 -4.78676,-5.89032 l -4.2916,-5.21975 1.55843,-2.15641 c 0.85713,-1.18601 1.96552,-2.60903 2.46288,-3.16224 3.29573,-3.66495 5.55599,-6.43499 5.56923,-6.82534 0.01,-0.25027 0.41427,-0.85377 0.90156,-1.34112 0.48719,-0.48736 2.9598,-3.45099 5.49473,-6.58586 2.53483,-3.13488 4.80666,-5.85065 5.04863,-6.03505 0.92847,-0.70752 2.0253,-3.41075 1.63801,-4.03721 -0.22322,-0.36119 -2.38488,-0.65671 -4.80377,-0.65671 -4.19983,0 -4.50833,0.11332 -6.84641,2.5146 -1.34669,1.38303 -3.19714,3.5335 -4.11211,4.77881 -0.91497,1.24532 -2.12696,2.76479 -2.69329,3.37662 -0.56634,0.61181 -1.92424,2.29874 -3.01756,3.7487 -1.09332,1.44997 -2.44054,3.12047 -2.99372,3.71223 -0.55319,0.59175 -1.91101,2.22073 -3.01757,3.61995 -3.68126,4.65554 -5.01936,5.74206 -7.0713,5.74206 h -1.9812 v -12.25615 c 0,-14.42772 -0.26617,-15.23682 -5.01236,-15.23682 -5.4985,0 -5.04609,-2.82281 -5.04609,31.47631 0,16.86424 0.20122,30.86344 0.44714,31.10931 0.24583,0.24587 2.19654,0.44703 4.33506,0.44703 3.15762,0 4.01842,-0.24363 4.58213,-1.29703 z m 51.14263,-0.21172 c 0.53969,-0.82982 1.35484,-2.71577 1.81136,-4.191 0.45652,-1.47524 1.25668,-3.6331 1.77806,-4.79526 0.52137,-1.16217 0.94814,-2.42306 0.94814,-2.80198 0,-0.37894 0.47405,-1.16316 1.0537,-1.74271 0.87203,-0.87204 2.94491,-1.05374 12.02214,-1.05374 11.66403,0 13.07592,0.36719 13.07592,3.40071 0,0.71127 0.25372,1.29322 0.56379,1.29322 0.31016,0 0.93907,1.5842 1.39744,3.52044 0.45844,1.93624 1.35948,4.42569 2.00241,5.53211 1.09069,1.8769 1.46878,2.02497 5.64355,2.20996 l 4.47459,0.19828 v -1.87468 c 0,-1.03108 -0.45495,-2.73899 -1.00586,-3.79536 -0.55091,-1.05638 -1.00357,-2.26339 -1.00576,-2.68224 0,-0.41886 -0.45004,-1.61648 -0.99508,-2.66137 -0.54504,-1.04492 -1.32881,-3.15719 -1.74168,-4.69393 -0.41297,-1.53676 -0.95801,-2.94496 -1.2112,-3.12938 -0.25319,-0.1844 -0.80419,-1.39141 -1.22417,-2.68223 -1.35203,-4.15448 -2.90529,-8.32743 -3.90632,-10.49503 -0.53672,-1.16216 -0.97588,-2.53781 -0.97588,-3.05699 0,-0.51919 -0.44303,-1.52972 -0.98447,-2.24562 -0.54154,-0.7159 -1.00446,-1.75427 -1.02864,-2.3075 -0.0245,-0.5532 -0.62716,-2.21284 -1.33968,-3.68806 -0.71261,-1.47524 -1.31619,-3.13488 -1.34117,-3.68809 -0.0254,-0.55321 -0.62847,-2.21285 -1.34108,-3.68808 -0.71261,-1.47523 -1.30594,-3.1925 -1.31847,-3.81614 -0.0123,-0.62366 -0.30122,-1.30605 -0.6417,-1.51645 -0.3404,-0.21041 -0.81988,-1.29766 -1.06554,-2.41611 -0.64293,-2.92721 -2.78987,-4.65667 -5.78061,-4.65667 -3.11467,0 -5.37791,1.9685 -6.55335,5.69977 -0.87465,2.77639 -2.4131,6.63013 -3.34612,8.38199 -0.29465,0.55322 -0.94065,2.59004 -1.43547,4.52629 -0.49474,1.93624 -1.1204,3.52044 -1.39016,3.52044 -0.26976,0 -0.69385,0.92558 -0.94227,2.05685 -0.24855,1.13127 -0.8744,2.86635 -1.39086,3.85572 -0.51638,0.98938 -1.12505,2.77957 -1.35256,3.9782 -0.22734,1.19862 -0.65766,2.17931 -0.95616,2.17931 -0.29842,0 -0.75608,0.9807 -1.01681,2.17933 -0.26082,1.19863 -0.88842,2.77453 -1.39446,3.502 -0.50604,0.72747 -0.93039,1.78361 -0.94292,2.34696 -0.0123,0.56335 -0.60578,2.23128 -1.31839,3.70652 -0.71252,1.47523 -1.30584,3.07599 -1.31838,3.55722 -0.0228,0.86753 -2.15508,6.09754 -3.39906,8.33612 -0.35582,0.64042 -0.64705,2.07373 -0.64705,3.18516 v 2.02077 h 4.28152 c 3.70238,0 4.41429,-0.2041 5.26283,-1.50875 z m 40.76302,-83.65238 c 0.69771,-1.10565 0.92128,-146.12654 0.22927,-148.70955 l -0.40771,-1.52161 -14.50307,0.18048 -14.50315,0.18049 -0.17046,75.22065 c -0.16152,71.22099 -0.10806,75.238 1.00577,75.54697 0.64696,0.17949 7.14746,0.27731 14.44539,0.21737 10.98236,-0.0902 13.37855,-0.2823 13.90396,-1.1148 z m -293.472797,-0.8382 c 0.22243,-0.82982 0.40858,-23.00859 0.41349,-49.28617 0.01,-31.39846 0.23908,-47.77741 0.67974,-47.77741 0.368877,0 0.670627,0.30175 0.670627,0.67057 0,0.36881 0.52803,1.20877 1.17351,1.8666 0.6453,0.65782 2.07866,2.53361 3.18504,4.16843 1.10646,1.63483 2.48655,3.45739 3.0669,4.05015 0.58036,0.59276 2.51705,3.16781 4.30369,5.72232 1.78674,2.55452 3.57505,4.94633 3.97408,5.31514 0.39903,0.36881 1.63073,2.01216 2.73711,3.65191 2.68303,3.97628 4.65811,6.07121 5.72391,6.07121 1.18753,0 3.3286,-2.00782 3.3286,-3.12145 0,-0.49605 0.31147,-0.90191 0.69218,-0.90191 0.38071,0 0.90884,-0.52807 1.17351,-1.17348 0.4546,-1.1082 5.4531,-8.83569 6.18105,-9.55548 0.1865,-0.18441 1.24353,-1.69317 2.34886,-3.35281 1.10541,-1.65964 2.23712,-3.31927 2.51512,-3.68808 1.38244,-1.83492 5.55266,-8.24787 6.32276,-9.72312 0.72733,-1.39315 0.87737,6.53779 0.88841,46.93921 0.01,26.73858 0.19658,49.29983 0.42076,50.1361 l 0.40736,1.52051 16.17981,-0.17939 16.17981,-0.17937 0.17055,-74.35993 c 0.1248,-54.39182 -0.0324,-74.60441 -0.58509,-75.27037 -0.59508,-0.71711 -3.93271,-0.91045 -15.7175,-0.91045 h -14.96205 l -1.88752,2.7557 c -1.0381,1.51564 -2.41564,3.24234 -3.06103,3.8371 -0.64547,0.59478 -1.17351,1.47645 -1.17351,1.95928 0,0.48282 -0.45258,1.05154 -1.00585,1.26383 -0.55319,0.21229 -1.00577,0.68733 -1.00577,1.05564 0,0.36831 -0.75897,1.61847 -1.68647,2.77813 -2.17665,2.72113 -2.30162,2.89369 -4.68388,6.46713 -1.10646,1.65963 -2.31345,3.37361 -2.68225,3.80883 -0.36879,0.43523 -1.7267,2.34079 -3.01756,4.23461 -1.29077,1.89381 -2.86147,4.10261 -3.49029,4.90844 l -1.14336,1.46516 -2.37709,-2.63641 c -1.30734,-1.45003 -2.38409,-2.80791 -2.39259,-3.01752 -0.01,-0.20961 -0.98929,-1.50945 -2.17937,-2.88853 -1.18998,-1.37908 -2.76717,-3.28926 -3.50484,-4.24484 -0.73759,-0.95558 -1.64292,-2.09038 -2.01171,-2.52179 -0.3687,-0.43139 -1.55264,-1.99136 -2.63062,-3.46659 -1.07799,-1.47524 -2.43589,-3.19583 -3.01748,-3.82353 -1.30164,-1.40478 -1.90286,-2.1599 -4.43051,-5.56431 -1.09533,-1.47525 -2.29321,-3.04897 -2.662,-3.49717 -2.465947,-2.99684 -1.760957,-2.87316 -16.376897,-2.87316 -13.92797,0 -13.97854,0.005 -14.38143,1.50877 -0.5304,1.979 -0.54565,146.92543 -0.0158,148.30657 0.35345,0.92121 2.28295,1.06069 14.67405,1.06069 14.22866,0 14.26818,-0.004 14.67142,-1.50876 z m 130.759227,0 c 0.53049,-1.97943 0.52725,-145.89097 0,-147.87112 l -0.40761,-1.52137 -14.83838,0.18025 -14.83856,0.18025 -0.17265,74.43217 c -0.0949,40.93771 -0.0289,74.80937 0.14662,75.27038 0.24206,0.63535 3.87565,0.8382 15.01436,0.8382 14.67266,0 14.69579,-0.002 15.09955,-1.50876 z m 93.29524,-0.48711 c 2.21284,-0.89457 4.17425,-1.79265 4.35873,-1.99571 0.18431,-0.20306 1.23048,-0.82135 2.32459,-1.37397 2.74123,-1.38451 10.41602,-8.98353 10.41602,-10.31323 0,-0.59688 0.23041,-1.08522 0.51217,-1.08522 0.86774,0 3.46033,-6.20119 3.92482,-9.38784 0.24198,-1.65964 0.70218,-3.35216 1.02268,-3.76116 0.32287,-0.41205 0.50622,-27.47063 0.4113,-60.68568 l -0.17125,-59.94207 -15.17378,-0.18001 -15.17387,-0.18003 -0.40753,1.52114 c -0.22419,0.83663 -0.41165,26.01404 -0.41673,55.94981 -0.0105,61.06856 0.33084,56.98245 -4.99194,59.80153 -2.48908,1.31829 -3.74103,1.44498 -14.26117,1.44329 -11.14143,-0.002 -11.5898,-0.0549 -13.21598,-1.5619 -3.49126,-3.23554 -3.3917,-1.61336 -3.75032,-61.13734 l -0.33523,-55.65649 -14.66871,-0.18095 c -13.37267,-0.16497 -14.7482,-0.0762 -15.56922,1.00584 -0.73714,0.97157 -0.90436,11.72837 -0.9218,59.3183 -0.0123,31.97234 0.23645,58.29085 0.55152,58.48557 0.31507,0.19474 0.77071,2.24729 1.0126,4.56126 0.61437,5.87797 4.31062,13.02276 9.33813,18.05019 2.16578,2.16585 4.66767,4.12107 5.55967,4.34496 0.89201,0.22387 1.62189,0.67608 1.62189,1.00491 0,0.32883 0.37711,0.59973 0.83819,0.602 0.46099,0.002 1.74344,0.48022 2.84982,1.06209 3.67233,1.93128 7.20443,2.18232 28.83409,2.04925 21.00821,-0.12926 21.54229,-0.16611 25.48131,-1.75854 z" />
	 <path id="MIUIPOLSKA6" style="fill:#000000;stroke:#000000;stroke-width:0.609542" d="m 79.516453,307.52787 v -10.736 h 9.18896 c 8.51974,0 9.30816,0.067 10.82583,0.91936 2.206537,1.23936 4.524637,3.843 4.524637,5.08203 0,0.55544 0.19719,1.00988 0.4382,1.00988 0.54513,0 0.58886,6.28879 0.0508,7.34586 -0.21288,0.4185 -0.62453,1.27326 -0.91488,1.89948 -0.76686,1.65445 -2.23335,3.16316 -3.737347,3.84515 -0.72304,0.32785 -1.65703,0.77027 -2.07551,0.98316 -0.41849,0.2129 -4.70746,0.38709 -9.53094,0.38709 h -8.77004 z" />
	 <path id="MIUIPOLSKA7" style="fill:#000000;stroke:#000000;stroke-width:0.609542" d="m 142.61784,342.24393 c -1.08455,-0.52463 -2.33677,-1.25428 -2.78268,-1.62142 -2.27481,-1.87283 -3.35218,-3.05932 -3.35218,-3.69167 0,-0.38532 -0.19719,-0.70059 -0.4382,-0.70059 -0.24101,0 -0.43821,-0.36152 -0.43821,-0.80338 0,-0.44186 -0.13514,-0.93852 -0.30034,-1.10369 -0.16512,-0.16518 -0.55652,-1.03611 -0.86975,-1.93541 -0.70752,-2.03137 -0.83776,-24.43146 -0.14452,-24.8599 0.24101,-0.14895 0.43821,-0.64827 0.43821,-1.10961 0,-0.46133 0.50165,-1.68214 1.11479,-2.71291 0.61313,-1.03077 1.22767,-2.21921 1.36571,-2.64099 0.13803,-0.42177 0.37589,-0.76732 0.52847,-0.76788 0.15267,-5.7e-4 0.96773,-0.59168 1.81127,-1.31359 0.84355,-0.7219 1.78025,-1.31301 2.08147,-1.31358 0.30131,-5.6e-4 0.54776,-0.19822 0.54776,-0.43923 0,-0.24101 0.48132,-0.43821 1.06965,-0.43821 0.58834,0 1.19157,-0.19719 1.34047,-0.4382 0.64618,-1.04551 7.84727,-0.37723 10.46738,0.9714 4.46372,2.29758 4.73979,2.57973 6.98042,7.13538 1.9827,4.03116 2.15596,5.22959 2.18585,15.11804 0.0228,7.50036 -0.2624,11.16484 -1.00524,12.92702 -0.20315,0.48203 -0.63128,1.51728 -0.95134,2.30057 -0.32007,0.78329 -0.73102,1.42417 -0.91313,1.42417 -0.18221,0 -0.33129,0.30236 -0.33129,0.6719 0,0.62538 -2.73325,3.71014 -3.28732,3.71014 -0.13707,0 -0.77562,0.34498 -1.41916,0.76662 -2.08165,1.36393 -4.2008,1.84972 -8.00144,1.83416 -2.90739,-0.0119 -4.15741,-0.22455 -5.69665,-0.96914 z" />
	 <path id="MIUIPOLSKA8" style="fill:#000000;stroke:#000000;stroke-width:0.609542" d="m 360.76037,325.05604 c 0.0985,-0.84354 0.35469,-1.53371 0.56932,-1.53371 0.21463,0 0.39026,-0.59158 0.39026,-1.31462 0,-0.72303 0.19719,-1.31461 0.43821,-1.31461 0.24101,0 0.4382,-0.49298 0.4382,-1.09551 0,-0.60253 0.19719,-1.09551 0.4382,-1.09551 0.24102,0 0.43821,-0.59158 0.43821,-1.31461 0,-0.72304 0.19719,-1.31461 0.4382,-1.31461 0.24102,0 0.43821,-0.3567 0.43821,-0.79266 0,-0.43596 0.28956,-1.17543 0.64337,-1.64327 0.35389,-0.46783 0.64968,-1.19836 0.6573,-1.62341 0.0132,-0.74834 0.18633,-1.19741 1.2601,-3.27464 0.2787,-0.53901 0.50666,-1.33764 0.50666,-1.77473 0,-0.43709 0.18054,-0.98204 0.40113,-1.211 0.22059,-0.22896 0.46704,-0.90928 0.54775,-1.51181 0.20929,-1.5636 1.33845,-1.35449 1.77455,0.32866 0.20298,0.78329 0.56064,1.42416 0.79473,1.42416 0.23409,0 0.42567,0.59158 0.42567,1.31461 0,0.72304 0.19719,1.31462 0.43821,1.31462 0.24101,0 0.4382,0.59157 0.4382,1.31461 0,0.72303 0.19719,1.31461 0.43821,1.31461 0.24101,0 0.4382,0.48134 0.4382,1.06965 0,0.5883 0.19719,1.19152 0.4382,1.34047 0.24102,0.14896 0.43821,0.75217 0.43821,1.34048 0,0.5883 0.19719,1.06965 0.4382,1.06965 0.24101,0 0.43821,0.55213 0.43821,1.22697 0,0.67483 0.16292,1.4143 0.36204,1.64326 0.19912,0.22896 0.63636,1.30366 0.97176,2.38822 0.33532,1.08455 0.86142,2.46489 1.16896,3.06742 1.1246,2.20299 1.16895,2.19102 -8.11143,2.19102 h -8.67609 z" />
</svg>
