<?xml version="1.0" encoding="UTF-8" standalone="no"?>
<svg id="MIUIPOLSKASVG" width="499.52606" height="500" viewBox="0 0 499.52606 500.00001" version="1.1" xml:space="preserve" xmlns:xlink="http://www.w3.org/1999/xlink" xmlns="http://www.w3.org/2000/svg" xmlns:svg="http://www.w3.org/2000/svg">
   <defs id="MIUIPOLSKADEFS" />
	 <path id="MIUIPOLSKA1" style="fill:#000000;stroke:#000000;stroke-width:0.999931" d="M 12.361054,499.26425 C 7.755572,498.23809 3.8748519,495.27792 1.8003712,491.20882 0.55342725,488.76303 0.49996549,478.83315 0.49996549,249.83184 V 11.005554 L 2.0951023,8.2687532 C 4.0642568,4.8901972 4.4658148,4.4858991 8.0478589,2.2748299 L 10.923387,0.49996549 h 239.019263 239.0194 l 3.03693,1.97439241 c 1.67033,1.0859176 3.60382,2.8650842 4.29646,3.9536979 0.69285,1.0886234 1.59056,2.2101387 1.99513,2.4922413 0.49893,0.3479269 0.73553,77.8107589 0.73553,240.8165229 v 240.3036 l -2.12819,2.78223 c -1.17044,1.53011 -3.43487,3.63278 -5.03207,4.67256 l -2.90379,1.89033 -237.58173,0.0995 C 120.71044,499.5395 13.151756,499.44089 12.361054,499.26427 Z M 172.27546,375.38503 c 4.12706,-2.08305 9.95938,-8.09261 12.25137,-12.6235 1.69988,-3.36064 1.80971,-4.30019 2.03163,-17.37258 0.2238,-13.19618 -0.56532,-21.76353 -2.00467,-21.76353 -0.32451,0 -0.77587,-0.74063 -1.00304,-1.64582 -0.47973,-1.9111 -7.49857,-9.13702 -8.87527,-9.13702 -0.51222,0 -0.93153,-0.29378 -0.93153,-0.65287 0,-1.34648 -8.86099,-3.66026 -14.01759,-3.66026 -7.49961,0 -13.08361,2.09871 -17.87314,6.71752 -4.25004,4.09846 -7.64625,9.81303 -7.64625,12.86557 0,1.09041 -0.32359,1.98257 -0.71894,1.98257 -0.45247,0 -0.71883,4.77822 -0.71883,12.89698 0,7.82254 0.28288,13.07177 0.71883,13.34124 0.39535,0.24435 0.72193,1.15302 0.7255,2.01927 0.0107,1.80782 2.7081,7.63052 4.30653,9.28515 0.59312,0.61394 1.68965,1.96078 2.43704,2.99302 0.74721,1.03225 1.76397,1.8768 2.25929,1.8768 0.49532,0 1.07519,0.45472 1.28846,1.01049 0.21328,0.55578 1.38008,1.22846 2.59293,1.49485 1.21283,0.26636 2.20515,0.75961 2.20515,1.09606 0,1.04426 2.9258,1.32545 11.50163,1.10536 6.86992,-0.1763 8.80828,-0.4854 11.4709,-1.8293 z m 114.68822,0.49088 c 1.18614,-0.66159 2.51398,-1.20491 2.95087,-1.20735 0.43687,-0.002 2.42896,-1.73291 4.42706,-3.84552 3.19271,-3.37587 3.69338,-4.32653 4.13345,-7.84885 1.00229,-8.02225 -0.34621,-12.12029 -5.66085,-17.20299 -2.74464,-2.6247 -12.11316,-7.04682 -14.9449,-7.05426 -0.92863,-0.002 -2.5187,-0.4377 -3.53346,-0.96727 -1.01479,-0.52956 -2.77435,-1.19604 -3.90995,-1.48107 -2.25591,-0.56624 -5.97616,-2.96335 -7.3086,-4.70939 -3.10496,-4.06861 -0.69244,-11.01547 4.51274,-12.99449 2.68988,-1.0227 11.48189,-0.83638 14.20408,0.30101 2.95041,1.23278 5.31088,4.15747 5.90307,7.31411 0.6961,3.71091 5.18337,5.75129 9.23172,4.1978 1.72985,-0.66384 1.4681,-6.29138 -0.47362,-10.17918 -3.68043,-7.36935 -11.9183,-11.66901 -22.35704,-11.66901 -7.71589,0 -13.12682,1.98998 -17.80754,6.54912 -4.29693,4.18552 -4.95039,5.80338 -4.95039,12.25899 0,5.68671 1.15017,8.7915 4.45262,12.02036 2.51568,2.45948 11.35223,6.95868 14.95655,7.61517 1.38374,0.25205 3.16284,0.72871 3.95363,1.05922 0.79071,0.33053 3.01759,1.16373 4.94878,1.85156 5.45698,1.94375 7.75713,4.39578 8.11341,8.64871 0.38088,4.54775 -0.73322,6.59958 -4.72875,8.70845 -6.19348,3.26911 -17.07576,1.76941 -21.03804,-2.89932 -0.71826,-0.84628 -1.66361,-2.89058 -2.10078,-4.54288 -0.72391,-2.7354 -1.04437,-3.04634 -3.58222,-3.47511 -1.53304,-0.25901 -3.8021,-0.24804 -5.04228,0.0244 -2.25327,0.49487 -2.25477,0.49853 -1.92152,4.51716 0.18349,2.21205 0.70596,4.14604 1.16106,4.29776 0.45521,0.1517 0.82754,0.73446 0.82754,1.295 0,1.48834 5.32713,6.41485 8.45108,7.81556 3.67194,1.64641 5.37212,2.3714 6.6449,2.83352 0.59303,0.21532 4.96015,0.29707 9.70459,0.18163 6.42139,-0.15624 9.17751,-0.51734 10.78279,-1.41279 z M 84.871741,375.20329 c 0.238363,-0.88959 0.437823,-6.20065 0.44327,-11.80233 0.01072,-5.60169 0.206128,-10.69658 0.446186,-11.32196 0.362376,-0.94464 1.852744,-1.14142 8.805911,-1.16269 11.523222,-0.0353 19.043782,-1.98725 23.442742,-6.08466 2.19286,-2.04248 4.6954,-6.37549 4.6954,-8.12956 0,-0.81957 0.32347,-1.69006 0.71883,-1.93442 0.39535,-0.24435 0.71884,-2.34701 0.71884,-4.67256 0,-2.32555 -0.32349,-4.42821 -0.71884,-4.67255 -0.39536,-0.24436 -0.71883,-1.11486 -0.71883,-1.93443 0,-1.70126 -2.43123,-5.98849 -4.62662,-8.15834 -4.99839,-4.94041 -9.91391,-6.02323 -27.490793,-6.05588 -11.598208,-0.0216 -13.965821,0.15371 -14.916148,1.10402 -0.992424,0.99236 -1.128571,4.90122 -1.119834,32.16878 0.01072,17.07153 0.204821,31.76699 0.44327,32.65658 0.391042,1.45914 0.874235,1.6174 4.938259,1.6174 4.064036,0 4.547229,-0.15826 4.938357,-1.6174 z M 242.0353,372.95084 c 0,-3.40553 -0.19411,-3.92187 -1.6175,-4.3033 -0.88954,-0.23841 -7.45629,-0.43789 -14.59276,-0.44327 -9.12179,-0.006 -13.23157,-0.26602 -13.83795,-0.87246 -0.64161,-0.64159 -0.86258,-8.08201 -0.86258,-29.03673 0,-31.33752 0.39676,-29.04678 -5.03202,-29.04678 -5.45359,0 -5.03193,-2.82734 -5.03193,33.7433 0,18.07883 0.21562,33.0863 0.47916,33.34987 0.26353,0.26358 9.48295,0.47922 20.48737,0.47922 h 20.00821 z m 80.48645,2.47941 c 0.43622,-0.81525 0.7441,-6.91143 0.7441,-14.73654 v -13.34608 h 2.80093 c 2.94045,0 3.58336,0.53521 9.06016,7.54249 1.18624,1.51756 2.88444,3.52913 3.774,4.47017 0.88953,0.94101 1.61748,1.86256 1.61748,2.04785 0,0.54745 6.62576,8.56158 7.2945,8.82306 0.33711,0.13179 0.61287,0.56401 0.61287,0.96049 0,0.39648 1.04165,1.82519 2.31471,3.17493 2.24594,2.3811 2.47988,2.45407 7.86508,2.45407 3.05263,0 5.73028,-0.29136 5.95041,-0.64748 0.40437,-0.65447 -4.29036,-7.02463 -11.97279,-16.24561 -2.3059,-2.76759 -4.43129,-5.35547 -4.7232,-5.75084 -0.29201,-0.39537 -2.60108,-3.23692 -5.13151,-6.31455 l -4.6007,-5.59569 1.67068,-2.31172 c 0.91886,-1.27144 2.10708,-2.79694 2.64025,-3.39 3.5331,-3.9289 5.95615,-6.89845 5.97035,-7.31691 0.0107,-0.2683 0.4441,-0.91525 0.96649,-1.43771 0.52227,-0.52246 3.17297,-3.69954 5.89047,-7.06019 2.71739,-3.36066 5.15284,-6.27202 5.41225,-6.4697 0.99533,-0.75848 2.17116,-3.6564 1.75597,-4.32799 -0.23929,-0.3872 -2.55664,-0.704 -5.14974,-0.704 -4.50231,0 -4.83303,0.12148 -7.33951,2.6957 -1.44368,1.48265 -3.4274,3.788 -4.40827,5.12299 -0.98087,1.33502 -2.28014,2.96392 -2.88727,3.61982 -0.60712,0.65587 -2.06282,2.4643 -3.23489,4.01869 -1.17206,1.5544 -2.61631,3.34521 -3.20933,3.97959 -0.59303,0.63437 -2.04865,2.38067 -3.2349,3.88067 -3.94639,4.99083 -5.38087,6.15561 -7.58059,6.15561 h -2.1239 V 325.5825 c 0,-15.46683 -0.28534,-16.3342 -5.37335,-16.3342 -5.89452,0 -5.40953,-3.02612 -5.40953,33.7433 0,18.07883 0.21572,33.0863 0.47935,33.34987 0.26354,0.26358 2.35474,0.47922 4.64728,0.47922 3.38504,0 4.30783,-0.26117 4.91215,-1.39044 z m 54.82603,-0.22696 c 0.57855,-0.88959 1.45241,-2.91137 1.94182,-4.49285 0.48939,-1.58149 1.34718,-3.89477 1.90611,-5.14062 0.55892,-1.24588 1.01643,-2.59758 1.01643,-3.00379 0,-0.40624 0.50819,-1.24693 1.12959,-1.86822 0.93484,-0.93486 3.15701,-1.12964 12.888,-1.12964 12.5041,0 14.01768,0.39364 14.01768,3.64564 0,0.7625 0.27199,1.38636 0.60439,1.38636 0.3325,0 1.00671,1.69829 1.49809,3.77398 0.49146,2.0757 1.45739,4.74444 2.14663,5.93055 1.16924,2.01208 1.57456,2.17082 6.05,2.36913 l 4.79686,0.21256 v -2.0097 c 0,-1.10534 -0.48771,-2.93626 -1.0783,-4.06871 -0.59058,-1.13246 -1.07585,-2.4264 -1.0782,-2.87542 0,-0.44903 -0.48245,-1.7329 -1.06675,-2.85305 -0.58428,-1.12018 -1.42451,-3.38458 -1.86712,-5.03199 -0.44271,-1.64744 -1.027,-3.15707 -1.29842,-3.35477 -0.27143,-0.19768 -0.86212,-1.49162 -1.31234,-2.87541 -1.44941,-4.4537 -3.11453,-8.92718 -4.18767,-11.2509 -0.57537,-1.24587 -1.04616,-2.72059 -1.04616,-3.27716 0,-0.55659 -0.47493,-1.63989 -1.05537,-2.40736 -0.58054,-0.76746 -1.07681,-1.88061 -1.10273,-2.47369 -0.0263,-0.59305 -0.67233,-2.37221 -1.43616,-3.95368 -0.76394,-1.58149 -1.41098,-3.36066 -1.43777,-3.95372 -0.0273,-0.59304 -0.67373,-2.37222 -1.43767,-3.9537 -0.76393,-1.58147 -1.4,-3.42243 -1.41342,-4.09098 -0.0132,-0.66858 -0.32292,-1.40012 -0.68792,-1.62567 -0.36492,-0.22557 -0.87893,-1.39112 -1.14229,-2.59012 -0.68923,-3.13804 -2.9908,-4.99206 -6.19694,-4.99206 -3.33899,0 -5.76524,2.11028 -7.02533,6.11027 -0.93764,2.97636 -2.5869,7.10765 -3.58712,8.98569 -0.31587,0.59307 -1.00839,2.77658 -1.53885,4.85229 -0.53038,2.07569 -1.2011,3.77399 -1.49029,3.77399 -0.28918,0 -0.74382,0.99223 -1.01013,2.20498 -0.26645,1.21274 -0.93738,3.07279 -1.49103,4.13342 -0.55358,1.06063 -1.20608,2.97975 -1.44998,4.26472 -0.24371,1.28495 -0.70502,2.33627 -1.02502,2.33627 -0.31991,0 -0.81054,1.05132 -1.09004,2.33628 -0.2796,1.28496 -0.95241,2.97436 -1.49489,3.75423 -0.54249,0.77986 -0.99741,1.91207 -1.01083,2.51599 -0.0132,0.60392 -0.64942,2.39198 -1.41335,3.97347 -0.76384,1.58148 -1.39989,3.29752 -1.41333,3.81341 -0.0245,0.93002 -2.3103,6.5367 -3.64387,8.93652 -0.38144,0.68653 -0.69366,2.22308 -0.69366,3.41456 v 2.1663 h 4.58989 c 3.96903,0 4.73222,-0.21879 5.64188,-1.6174 z m 43.69885,-89.67721 c 0.74796,-1.18528 0.98763,-156.65088 0.24579,-159.41993 l -0.43708,-1.6312 -15.54761,0.19349 -15.5477,0.19348 -0.18273,80.63821 c -0.17316,76.35047 -0.11584,80.65679 1.0782,80.98802 0.69356,0.19241 7.66224,0.29727 15.48578,0.23303 11.77333,-0.0967 14.3421,-0.30264 14.90535,-1.1951 z M 106.4373,284.62751 c 0.23846,-0.88958 0.43801,-24.66572 0.44327,-52.83586 0.0107,-33.65984 0.2563,-51.21844 0.7287,-51.21844 0.39545,0 0.71893,0.32348 0.71893,0.71886 0,0.39538 0.56606,1.29583 1.25803,2.00104 0.69177,0.7052 2.22836,2.71609 3.41443,4.46865 1.18615,1.75257 2.66564,3.7064 3.28779,4.34185 0.62216,0.63545 2.69833,3.39596 4.61365,6.13446 1.91542,2.7385 3.83253,5.30257 4.2603,5.69794 0.42776,0.39537 1.74818,2.15708 2.93424,3.91493 2.87627,4.26266 4.9936,6.50847 6.13616,6.50847 1.27306,0 3.56833,-2.15243 3.56833,-3.34626 0,-0.53178 0.3339,-0.96687 0.74203,-0.96687 0.40814,0 0.9743,-0.5661 1.25803,-1.25799 0.48735,-1.18803 5.84584,-9.47207 6.62622,-10.24369 0.19993,-0.1977 1.3331,-1.81512 2.51803,-3.59429 1.18503,-1.77917 2.39825,-3.55833 2.69627,-3.9537 1.48201,-1.96708 5.95258,-8.8419 6.77813,-10.4234 0.77973,-1.49349 0.94057,7.00866 0.9524,50.31986 0.0107,28.66436 0.21074,52.85052 0.45106,53.74702 l 0.43671,1.63001 17.34511,-0.1923 17.34512,-0.19229 0.18283,-79.71549 c 0.13379,-58.30924 -0.0348,-79.97758 -0.62723,-80.6915 -0.63794,-0.76876 -4.21595,-0.97603 -16.84951,-0.97603 h -16.03965 l -2.02346,2.95417 c -1.11286,1.6248 -2.58962,3.47586 -3.2815,4.11346 -0.69195,0.63761 -1.25802,1.58279 -1.25802,2.1004 0,0.51759 -0.48518,1.12727 -1.0783,1.35485 -0.59303,0.22758 -1.07821,0.73683 -1.07821,1.13167 0,0.39483 -0.81362,1.73503 -1.80793,2.97821 -2.33342,2.91711 -2.46738,3.1021 -5.02122,6.93291 -1.18615,1.77916 -2.48007,3.61658 -2.87543,4.08315 -0.39535,0.46658 -1.85106,2.50938 -3.23489,4.53959 -1.38374,2.03021 -3.06756,4.39809 -3.74167,5.26196 l -1.22571,1.57069 -2.54829,-2.8263 c -1.4015,-1.55446 -2.55579,-3.01013 -2.5649,-3.23484 -0.0107,-0.22471 -1.06055,-1.61816 -2.33634,-3.09657 -1.27569,-1.47841 -2.96647,-3.52616 -3.75726,-4.55056 -0.79072,-1.0244 -1.76125,-2.24094 -2.15661,-2.70342 -0.39525,-0.46246 -1.66446,-2.13478 -2.82008,-3.71626 -1.15562,-1.58149 -2.61132,-3.426 -3.2348,-4.0989 -1.39539,-1.50597 -2.03991,-2.31547 -4.74961,-5.96507 -1.17421,-1.5815 -2.45837,-3.26856 -2.85372,-3.74905 -2.64355,-3.21267 -1.88779,-3.08009 -17.556393,-3.08009 -14.931093,0 -14.985304,0.005 -15.417212,1.61744 -0.5686,2.12153 -0.584949,157.50731 -0.01693,158.98793 0.378907,0.98755 2.447373,1.13708 15.730906,1.13708 15.253429,0 15.295789,-0.004 15.728069,-1.61743 z m 140.17679,0 c 0.5687,-2.12199 0.56522,-156.39834 0,-158.52111 l -0.43697,-1.63094 -15.90707,0.19323 -15.90726,0.19323 -0.18509,79.79294 c -0.10173,43.88612 -0.031,80.19729 0.15718,80.69151 0.2595,0.6811 4.15478,0.89857 16.09572,0.89857 15.72942,0 15.75422,-0.002 16.18705,-1.61743 z m 100.01456,-0.52219 c 2.37222,-0.959 4.47489,-1.92176 4.67265,-2.13944 0.19759,-0.2177 1.3191,-0.88051 2.49202,-1.47294 2.93866,-1.48422 11.1662,-9.63054 11.1662,-11.05601 0,-0.63986 0.247,-1.16337 0.54905,-1.16337 0.93024,0 3.70955,-6.64781 4.2075,-10.06397 0.25941,-1.77918 0.75276,-3.59359 1.09634,-4.03205 0.34612,-0.44173 0.54268,-29.44913 0.44092,-65.05639 l -0.18358,-64.25923 -16.26663,-0.19297 -16.26673,-0.193 -0.43688,1.63069 c -0.24033,0.89689 -0.44129,27.88763 -0.44674,59.97944 -0.0113,65.46685 0.35467,61.08645 -5.35147,64.10856 -2.66835,1.41324 -4.01046,1.54905 -15.28829,1.54724 -11.94386,-0.002 -12.42453,-0.0588 -14.16782,-1.67439 -3.74271,-3.46857 -3.63598,-1.72956 -4.02043,-65.54057 l -0.35938,-59.665 -15.72518,-0.19398 c -14.3358,-0.17685 -15.81039,-0.0817 -16.69054,1.07828 -0.79023,1.04155 -0.96949,12.57308 -0.98819,63.59053 -0.0132,34.27506 0.25348,62.48908 0.59123,62.69783 0.33777,0.20876 0.82623,2.40914 1.08553,4.88977 0.65863,6.30131 4.62109,13.96068 10.01069,19.3502 2.32176,2.32184 5.00385,4.41788 5.96009,4.6579 0.95625,0.23999 1.7387,0.72477 1.7387,1.07728 0,0.35251 0.40427,0.64293 0.89856,0.64535 0.49419,0.002 1.86901,0.51481 3.05507,1.13859 3.93682,2.07038 7.7233,2.33949 30.91078,2.19684 22.52127,-0.13857 23.09381,-0.17807 27.31653,-1.88519 z" />
	 <path id="MIUIPOLSKA2" style="fill:#000000;stroke:#000000;stroke-width:0.653443" d="m 85.743337,330.17664 v -11.50923 h 9.850768 c 9.133355,0 9.978555,0.0718 11.605525,0.98557 2.36546,1.32862 4.85051,4.11978 4.85051,5.44805 0,0.59545 0.2114,1.08261 0.46976,1.08261 0.58439,0 0.63127,6.74173 0.0545,7.87493 -0.22821,0.44864 -0.66951,1.36496 -0.98077,2.03628 -0.82209,1.77361 -2.3942,3.39098 -4.00652,4.12209 -0.77511,0.35147 -1.77637,0.82575 -2.225,1.05397 -0.44862,0.22823 -5.04649,0.41497 -10.217367,0.41497 h -9.401677 z" />
	 <path id="MIUIPOLSKA3" style="fill:#000000;stroke:#000000;stroke-width:0.653443" d="m 153.38942,367.39303 c -1.16267,-0.56242 -2.50508,-1.34463 -2.9831,-1.73821 -2.43865,-2.00771 -3.59361,-3.27965 -3.59361,-3.95755 0,-0.41307 -0.21139,-0.75105 -0.46976,-0.75105 -0.25837,0 -0.46977,-0.38755 -0.46977,-0.86124 0,-0.47368 -0.14487,-1.00612 -0.32198,-1.18318 -0.17701,-0.17707 -0.59659,-1.11073 -0.93238,-2.0748 -0.75848,-2.17767 -0.8981,-26.19107 -0.15493,-26.65036 0.25837,-0.15968 0.46977,-0.69496 0.46977,-1.18953 0,-0.49456 0.53778,-1.80329 1.19508,-2.9083 0.65729,-1.10501 1.31609,-2.37904 1.46407,-2.8312 0.14797,-0.45214 0.40296,-0.82258 0.56653,-0.82318 0.16366,-6.2e-4 1.03743,-0.6343 1.94173,-1.4082 0.9043,-0.77389 1.90846,-1.40758 2.23138,-1.40819 0.323,-6e-4 0.5872,-0.2125 0.5872,-0.47086 0,-0.25837 0.51599,-0.46977 1.1467,-0.46977 0.63071,0 1.27738,-0.21139 1.43701,-0.46976 0.69271,-1.12082 8.41244,-0.40441 11.22127,1.04136 4.7852,2.46306 5.08115,2.76553 7.48316,7.64929 2.1255,4.32149 2.31123,5.60623 2.34327,16.20687 0.0245,8.04055 -0.28129,11.96895 -1.07764,13.85805 -0.21778,0.51675 -0.67674,1.62656 -1.01985,2.46626 -0.34312,0.8397 -0.78367,1.52674 -0.9789,1.52674 -0.19533,0 -0.35515,0.32414 -0.35515,0.7203 0,0.67041 -2.9301,3.97735 -3.52408,3.97735 -0.14694,0 -0.83148,0.36982 -1.52136,0.82184 -2.23159,1.46216 -4.50336,1.98293 -8.57773,1.96625 -3.11679,-0.0128 -4.45684,-0.24072 -6.10693,-1.03893 z" />
	 <path id="MIUIPOLSKA4" style="fill:#000000;stroke:#000000;stroke-width:0.653443" d="m 387.24303,348.96723 c 0.1056,-0.9043 0.38024,-1.64418 0.61032,-1.64418 0.2301,0 0.41838,-0.63418 0.41838,-1.4093 0,-0.7751 0.21139,-1.40929 0.46976,-1.40929 0.25838,0 0.46977,-0.52849 0.46977,-1.17441 0,-0.64593 0.21138,-1.17441 0.46976,-1.17441 0.25837,0 0.46976,-0.63419 0.46976,-1.40929 0,-0.77512 0.21139,-1.4093 0.46977,-1.4093 0.25837,0 0.46976,-0.38238 0.46976,-0.84974 0,-0.46737 0.31042,-1.26009 0.68972,-1.76163 0.37937,-0.50152 0.69647,-1.28466 0.70463,-1.74033 0.0142,-0.80224 0.19975,-1.28365 1.35086,-3.51049 0.29877,-0.57783 0.54315,-1.43398 0.54315,-1.90254 0,-0.46858 0.19354,-1.05277 0.43002,-1.29822 0.23648,-0.24546 0.50068,-0.97477 0.5872,-1.62069 0.22436,-1.67622 1.43485,-1.45204 1.90235,0.35232 0.21761,0.83971 0.60102,1.52674 0.85197,1.52674 0.25096,0 0.45633,0.63418 0.45633,1.40929 0,0.77511 0.21139,1.4093 0.46978,1.4093 0.25836,0 0.46975,0.63418 0.46975,1.40929 0,0.77511 0.2114,1.40929 0.46977,1.40929 0.25837,0 0.46977,0.51601 0.46977,1.14669 0,0.63067 0.21139,1.27734 0.46975,1.43702 0.25839,0.15968 0.46978,0.80634 0.46978,1.43701 0,0.63067 0.21139,1.14669 0.46975,1.14669 0.25838,0 0.46978,0.5919 0.46978,1.31535 0,0.72343 0.17465,1.51616 0.38811,1.76161 0.21346,0.24544 0.68219,1.39755 1.04175,2.56022 0.35947,1.16266 0.92346,2.64242 1.25315,3.28835 1.2056,2.36165 1.25314,2.34882 -8.69563,2.34882 h -9.30097 z" />
	 <path id="MIUIPOLSKA5" style="fill:#000000;stroke:#000000;stroke-width:0.999931" d="M 12.361054,499.26425 C 7.755572,498.23809 3.8748519,495.27792 1.8003712,491.20882 0.55342725,488.76303 0.49996549,478.83315 0.49996549,249.83184 V 11.005554 L 2.0951023,8.2687532 C 4.0642568,4.8901972 4.4658148,4.4858991 8.0478589,2.2748299 L 10.923387,0.49996549 h 239.019263 239.0194 l 3.03693,1.97439241 c 1.67033,1.0859176 3.60382,2.8650842 4.29646,3.9536979 0.69285,1.0886234 1.59056,2.2101387 1.99513,2.4922413 0.49893,0.3479269 0.73553,77.8107589 0.73553,240.8165229 v 240.3036 l -2.12819,2.78223 c -1.17044,1.53011 -3.43487,3.63278 -5.03207,4.67256 l -2.90379,1.89033 -237.58173,0.0995 C 120.71044,499.5395 13.151756,499.44089 12.361054,499.26427 Z M 172.27546,375.38503 c 4.12706,-2.08305 9.95938,-8.09261 12.25137,-12.6235 1.69988,-3.36064 1.80971,-4.30019 2.03163,-17.37258 0.2238,-13.19618 -0.56532,-21.76353 -2.00467,-21.76353 -0.32451,0 -0.77587,-0.74063 -1.00304,-1.64582 -0.47973,-1.9111 -7.49857,-9.13702 -8.87527,-9.13702 -0.51222,0 -0.93153,-0.29378 -0.93153,-0.65287 0,-1.34648 -8.86099,-3.66026 -14.01759,-3.66026 -7.49961,0 -13.08361,2.09871 -17.87314,6.71752 -4.25004,4.09846 -7.64625,9.81303 -7.64625,12.86557 0,1.09041 -0.32359,1.98257 -0.71894,1.98257 -0.45247,0 -0.71883,4.77822 -0.71883,12.89698 0,7.82254 0.28288,13.07177 0.71883,13.34124 0.39535,0.24435 0.72193,1.15302 0.7255,2.01927 0.0107,1.80782 2.7081,7.63052 4.30653,9.28515 0.59312,0.61394 1.68965,1.96078 2.43704,2.99302 0.74721,1.03225 1.76397,1.8768 2.25929,1.8768 0.49532,0 1.07519,0.45472 1.28846,1.01049 0.21328,0.55578 1.38008,1.22846 2.59293,1.49485 1.21283,0.26636 2.20515,0.75961 2.20515,1.09606 0,1.04426 2.9258,1.32545 11.50163,1.10536 6.86992,-0.1763 8.80828,-0.4854 11.4709,-1.8293 z m 114.68822,0.49088 c 1.18614,-0.66159 2.51398,-1.20491 2.95087,-1.20735 0.43687,-0.002 2.42896,-1.73291 4.42706,-3.84552 3.19271,-3.37587 3.69338,-4.32653 4.13345,-7.84885 1.00229,-8.02225 -0.34621,-12.12029 -5.66085,-17.20299 -2.74464,-2.6247 -12.11316,-7.04682 -14.9449,-7.05426 -0.92863,-0.002 -2.5187,-0.4377 -3.53346,-0.96727 -1.01479,-0.52956 -2.77435,-1.19604 -3.90995,-1.48107 -2.25591,-0.56624 -5.97616,-2.96335 -7.3086,-4.70939 -3.10496,-4.06861 -0.69244,-11.01547 4.51274,-12.99449 2.68988,-1.0227 11.48189,-0.83638 14.20408,0.30101 2.95041,1.23278 5.31088,4.15747 5.90307,7.31411 0.6961,3.71091 5.18337,5.75129 9.23172,4.1978 1.72985,-0.66384 1.4681,-6.29138 -0.47362,-10.17918 -3.68043,-7.36935 -11.9183,-11.66901 -22.35704,-11.66901 -7.71589,0 -13.12682,1.98998 -17.80754,6.54912 -4.29693,4.18552 -4.95039,5.80338 -4.95039,12.25899 0,5.68671 1.15017,8.7915 4.45262,12.02036 2.51568,2.45948 11.35223,6.95868 14.95655,7.61517 1.38374,0.25205 3.16284,0.72871 3.95363,1.05922 0.79071,0.33053 3.01759,1.16373 4.94878,1.85156 5.45698,1.94375 7.75713,4.39578 8.11341,8.64871 0.38088,4.54775 -0.73322,6.59958 -4.72875,8.70845 -6.19348,3.26911 -17.07576,1.76941 -21.03804,-2.89932 -0.71826,-0.84628 -1.66361,-2.89058 -2.10078,-4.54288 -0.72391,-2.7354 -1.04437,-3.04634 -3.58222,-3.47511 -1.53304,-0.25901 -3.8021,-0.24804 -5.04228,0.0244 -2.25327,0.49487 -2.25477,0.49853 -1.92152,4.51716 0.18349,2.21205 0.70596,4.14604 1.16106,4.29776 0.45521,0.1517 0.82754,0.73446 0.82754,1.295 0,1.48834 5.32713,6.41485 8.45108,7.81556 3.67194,1.64641 5.37212,2.3714 6.6449,2.83352 0.59303,0.21532 4.96015,0.29707 9.70459,0.18163 6.42139,-0.15624 9.17751,-0.51734 10.78279,-1.41279 z M 84.871741,375.20329 c 0.238363,-0.88959 0.437823,-6.20065 0.44327,-11.80233 0.01072,-5.60169 0.206128,-10.69658 0.446186,-11.32196 0.362376,-0.94464 1.852744,-1.14142 8.805911,-1.16269 11.523222,-0.0353 19.043782,-1.98725 23.442742,-6.08466 2.19286,-2.04248 4.6954,-6.37549 4.6954,-8.12956 0,-0.81957 0.32347,-1.69006 0.71883,-1.93442 0.39535,-0.24435 0.71884,-2.34701 0.71884,-4.67256 0,-2.32555 -0.32349,-4.42821 -0.71884,-4.67255 -0.39536,-0.24436 -0.71883,-1.11486 -0.71883,-1.93443 0,-1.70126 -2.43123,-5.98849 -4.62662,-8.15834 -4.99839,-4.94041 -9.91391,-6.02323 -27.490793,-6.05588 -11.598208,-0.0216 -13.965821,0.15371 -14.916148,1.10402 -0.992424,0.99236 -1.128571,4.90122 -1.119834,32.16878 0.01072,17.07153 0.204821,31.76699 0.44327,32.65658 0.391042,1.45914 0.874235,1.6174 4.938259,1.6174 4.064036,0 4.547229,-0.15826 4.938357,-1.6174 z M 242.0353,372.95084 c 0,-3.40553 -0.19411,-3.92187 -1.6175,-4.3033 -0.88954,-0.23841 -7.45629,-0.43789 -14.59276,-0.44327 -9.12179,-0.006 -13.23157,-0.26602 -13.83795,-0.87246 -0.64161,-0.64159 -0.86258,-8.08201 -0.86258,-29.03673 0,-31.33752 0.39676,-29.04678 -5.03202,-29.04678 -5.45359,0 -5.03193,-2.82734 -5.03193,33.7433 0,18.07883 0.21562,33.0863 0.47916,33.34987 0.26353,0.26358 9.48295,0.47922 20.48737,0.47922 h 20.00821 z m 80.48645,2.47941 c 0.43622,-0.81525 0.7441,-6.91143 0.7441,-14.73654 v -13.34608 h 2.80093 c 2.94045,0 3.58336,0.53521 9.06016,7.54249 1.18624,1.51756 2.88444,3.52913 3.774,4.47017 0.88953,0.94101 1.61748,1.86256 1.61748,2.04785 0,0.54745 6.62576,8.56158 7.2945,8.82306 0.33711,0.13179 0.61287,0.56401 0.61287,0.96049 0,0.39648 1.04165,1.82519 2.31471,3.17493 2.24594,2.3811 2.47988,2.45407 7.86508,2.45407 3.05263,0 5.73028,-0.29136 5.95041,-0.64748 0.40437,-0.65447 -4.29036,-7.02463 -11.97279,-16.24561 -2.3059,-2.76759 -4.43129,-5.35547 -4.7232,-5.75084 -0.29201,-0.39537 -2.60108,-3.23692 -5.13151,-6.31455 l -4.6007,-5.59569 1.67068,-2.31172 c 0.91886,-1.27144 2.10708,-2.79694 2.64025,-3.39 3.5331,-3.9289 5.95615,-6.89845 5.97035,-7.31691 0.0107,-0.2683 0.4441,-0.91525 0.96649,-1.43771 0.52227,-0.52246 3.17297,-3.69954 5.89047,-7.06019 2.71739,-3.36066 5.15284,-6.27202 5.41225,-6.4697 0.99533,-0.75848 2.17116,-3.6564 1.75597,-4.32799 -0.23929,-0.3872 -2.55664,-0.704 -5.14974,-0.704 -4.50231,0 -4.83303,0.12148 -7.33951,2.6957 -1.44368,1.48265 -3.4274,3.788 -4.40827,5.12299 -0.98087,1.33502 -2.28014,2.96392 -2.88727,3.61982 -0.60712,0.65587 -2.06282,2.4643 -3.23489,4.01869 -1.17206,1.5544 -2.61631,3.34521 -3.20933,3.97959 -0.59303,0.63437 -2.04865,2.38067 -3.2349,3.88067 -3.94639,4.99083 -5.38087,6.15561 -7.58059,6.15561 h -2.1239 V 325.5825 c 0,-15.46683 -0.28534,-16.3342 -5.37335,-16.3342 -5.89452,0 -5.40953,-3.02612 -5.40953,33.7433 0,18.07883 0.21572,33.0863 0.47935,33.34987 0.26354,0.26358 2.35474,0.47922 4.64728,0.47922 3.38504,0 4.30783,-0.26117 4.91215,-1.39044 z m 54.82603,-0.22696 c 0.57855,-0.88959 1.45241,-2.91137 1.94182,-4.49285 0.48939,-1.58149 1.34718,-3.89477 1.90611,-5.14062 0.55892,-1.24588 1.01643,-2.59758 1.01643,-3.00379 0,-0.40624 0.50819,-1.24693 1.12959,-1.86822 0.93484,-0.93486 3.15701,-1.12964 12.888,-1.12964 12.5041,0 14.01768,0.39364 14.01768,3.64564 0,0.7625 0.27199,1.38636 0.60439,1.38636 0.3325,0 1.00671,1.69829 1.49809,3.77398 0.49146,2.0757 1.45739,4.74444 2.14663,5.93055 1.16924,2.01208 1.57456,2.17082 6.05,2.36913 l 4.79686,0.21256 v -2.0097 c 0,-1.10534 -0.48771,-2.93626 -1.0783,-4.06871 -0.59058,-1.13246 -1.07585,-2.4264 -1.0782,-2.87542 0,-0.44903 -0.48245,-1.7329 -1.06675,-2.85305 -0.58428,-1.12018 -1.42451,-3.38458 -1.86712,-5.03199 -0.44271,-1.64744 -1.027,-3.15707 -1.29842,-3.35477 -0.27143,-0.19768 -0.86212,-1.49162 -1.31234,-2.87541 -1.44941,-4.4537 -3.11453,-8.92718 -4.18767,-11.2509 -0.57537,-1.24587 -1.04616,-2.72059 -1.04616,-3.27716 0,-0.55659 -0.47493,-1.63989 -1.05537,-2.40736 -0.58054,-0.76746 -1.07681,-1.88061 -1.10273,-2.47369 -0.0263,-0.59305 -0.67233,-2.37221 -1.43616,-3.95368 -0.76394,-1.58149 -1.41098,-3.36066 -1.43777,-3.95372 -0.0273,-0.59304 -0.67373,-2.37222 -1.43767,-3.9537 -0.76393,-1.58147 -1.4,-3.42243 -1.41342,-4.09098 -0.0132,-0.66858 -0.32292,-1.40012 -0.68792,-1.62567 -0.36492,-0.22557 -0.87893,-1.39112 -1.14229,-2.59012 -0.68923,-3.13804 -2.9908,-4.99206 -6.19694,-4.99206 -3.33899,0 -5.76524,2.11028 -7.02533,6.11027 -0.93764,2.97636 -2.5869,7.10765 -3.58712,8.98569 -0.31587,0.59307 -1.00839,2.77658 -1.53885,4.85229 -0.53038,2.07569 -1.2011,3.77399 -1.49029,3.77399 -0.28918,0 -0.74382,0.99223 -1.01013,2.20498 -0.26645,1.21274 -0.93738,3.07279 -1.49103,4.13342 -0.55358,1.06063 -1.20608,2.97975 -1.44998,4.26472 -0.24371,1.28495 -0.70502,2.33627 -1.02502,2.33627 -0.31991,0 -0.81054,1.05132 -1.09004,2.33628 -0.2796,1.28496 -0.95241,2.97436 -1.49489,3.75423 -0.54249,0.77986 -0.99741,1.91207 -1.01083,2.51599 -0.0132,0.60392 -0.64942,2.39198 -1.41335,3.97347 -0.76384,1.58148 -1.39989,3.29752 -1.41333,3.81341 -0.0245,0.93002 -2.3103,6.5367 -3.64387,8.93652 -0.38144,0.68653 -0.69366,2.22308 -0.69366,3.41456 v 2.1663 h 4.58989 c 3.96903,0 4.73222,-0.21879 5.64188,-1.6174 z m 43.69885,-89.67721 c 0.74796,-1.18528 0.98763,-156.65088 0.24579,-159.41993 l -0.43708,-1.6312 -15.54761,0.19349 -15.5477,0.19348 -0.18273,80.63821 c -0.17316,76.35047 -0.11584,80.65679 1.0782,80.98802 0.69356,0.19241 7.66224,0.29727 15.48578,0.23303 11.77333,-0.0967 14.3421,-0.30264 14.90535,-1.1951 z M 106.4373,284.62751 c 0.23846,-0.88958 0.43801,-24.66572 0.44327,-52.83586 0.0107,-33.65984 0.2563,-51.21844 0.7287,-51.21844 0.39545,0 0.71893,0.32348 0.71893,0.71886 0,0.39538 0.56606,1.29583 1.25803,2.00104 0.69177,0.7052 2.22836,2.71609 3.41443,4.46865 1.18615,1.75257 2.66564,3.7064 3.28779,4.34185 0.62216,0.63545 2.69833,3.39596 4.61365,6.13446 1.91542,2.7385 3.83253,5.30257 4.2603,5.69794 0.42776,0.39537 1.74818,2.15708 2.93424,3.91493 2.87627,4.26266 4.9936,6.50847 6.13616,6.50847 1.27306,0 3.56833,-2.15243 3.56833,-3.34626 0,-0.53178 0.3339,-0.96687 0.74203,-0.96687 0.40814,0 0.9743,-0.5661 1.25803,-1.25799 0.48735,-1.18803 5.84584,-9.47207 6.62622,-10.24369 0.19993,-0.1977 1.3331,-1.81512 2.51803,-3.59429 1.18503,-1.77917 2.39825,-3.55833 2.69627,-3.9537 1.48201,-1.96708 5.95258,-8.8419 6.77813,-10.4234 0.77973,-1.49349 0.94057,7.00866 0.9524,50.31986 0.0107,28.66436 0.21074,52.85052 0.45106,53.74702 l 0.43671,1.63001 17.34511,-0.1923 17.34512,-0.19229 0.18283,-79.71549 c 0.13379,-58.30924 -0.0348,-79.97758 -0.62723,-80.6915 -0.63794,-0.76876 -4.21595,-0.97603 -16.84951,-0.97603 h -16.03965 l -2.02346,2.95417 c -1.11286,1.6248 -2.58962,3.47586 -3.2815,4.11346 -0.69195,0.63761 -1.25802,1.58279 -1.25802,2.1004 0,0.51759 -0.48518,1.12727 -1.0783,1.35485 -0.59303,0.22758 -1.07821,0.73683 -1.07821,1.13167 0,0.39483 -0.81362,1.73503 -1.80793,2.97821 -2.33342,2.91711 -2.46738,3.1021 -5.02122,6.93291 -1.18615,1.77916 -2.48007,3.61658 -2.87543,4.08315 -0.39535,0.46658 -1.85106,2.50938 -3.23489,4.53959 -1.38374,2.03021 -3.06756,4.39809 -3.74167,5.26196 l -1.22571,1.57069 -2.54829,-2.8263 c -1.4015,-1.55446 -2.55579,-3.01013 -2.5649,-3.23484 -0.0107,-0.22471 -1.06055,-1.61816 -2.33634,-3.09657 -1.27569,-1.47841 -2.96647,-3.52616 -3.75726,-4.55056 -0.79072,-1.0244 -1.76125,-2.24094 -2.15661,-2.70342 -0.39525,-0.46246 -1.66446,-2.13478 -2.82008,-3.71626 -1.15562,-1.58149 -2.61132,-3.426 -3.2348,-4.0989 -1.39539,-1.50597 -2.03991,-2.31547 -4.74961,-5.96507 -1.17421,-1.5815 -2.45837,-3.26856 -2.85372,-3.74905 -2.64355,-3.21267 -1.88779,-3.08009 -17.556393,-3.08009 -14.931093,0 -14.985304,0.005 -15.417212,1.61744 -0.5686,2.12153 -0.584949,157.50731 -0.01693,158.98793 0.378907,0.98755 2.447373,1.13708 15.730906,1.13708 15.253429,0 15.295789,-0.004 15.728069,-1.61743 z m 140.17679,0 c 0.5687,-2.12199 0.56522,-156.39834 0,-158.52111 l -0.43697,-1.63094 -15.90707,0.19323 -15.90726,0.19323 -0.18509,79.79294 c -0.10173,43.88612 -0.031,80.19729 0.15718,80.69151 0.2595,0.6811 4.15478,0.89857 16.09572,0.89857 15.72942,0 15.75422,-0.002 16.18705,-1.61743 z m 100.01456,-0.52219 c 2.37222,-0.959 4.47489,-1.92176 4.67265,-2.13944 0.19759,-0.2177 1.3191,-0.88051 2.49202,-1.47294 2.93866,-1.48422 11.1662,-9.63054 11.1662,-11.05601 0,-0.63986 0.247,-1.16337 0.54905,-1.16337 0.93024,0 3.70955,-6.64781 4.2075,-10.06397 0.25941,-1.77918 0.75276,-3.59359 1.09634,-4.03205 0.34612,-0.44173 0.54268,-29.44913 0.44092,-65.05639 l -0.18358,-64.25923 -16.26663,-0.19297 -16.26673,-0.193 -0.43688,1.63069 c -0.24033,0.89689 -0.44129,27.88763 -0.44674,59.97944 -0.0113,65.46685 0.35467,61.08645 -5.35147,64.10856 -2.66835,1.41324 -4.01046,1.54905 -15.28829,1.54724 -11.94386,-0.002 -12.42453,-0.0588 -14.16782,-1.67439 -3.74271,-3.46857 -3.63598,-1.72956 -4.02043,-65.54057 l -0.35938,-59.665 -15.72518,-0.19398 c -14.3358,-0.17685 -15.81039,-0.0817 -16.69054,1.07828 -0.79023,1.04155 -0.96949,12.57308 -0.98819,63.59053 -0.0132,34.27506 0.25348,62.48908 0.59123,62.69783 0.33777,0.20876 0.82623,2.40914 1.08553,4.88977 0.65863,6.30131 4.62109,13.96068 10.01069,19.3502 2.32176,2.32184 5.00385,4.41788 5.96009,4.6579 0.95625,0.23999 1.7387,0.72477 1.7387,1.07728 0,0.35251 0.40427,0.64293 0.89856,0.64535 0.49419,0.002 1.86901,0.51481 3.05507,1.13859 3.93682,2.07038 7.7233,2.33949 30.91078,2.19684 22.52127,-0.13857 23.09381,-0.17807 27.31653,-1.88519 z" />
	 <path id="MIUIPOLSKA6" style="fill:#000000;stroke:#000000;stroke-width:0.653443" d="m 85.743337,330.17664 v -11.50923 h 9.850768 c 9.133355,0 9.978555,0.0718 11.605525,0.98557 2.36546,1.32862 4.85051,4.11978 4.85051,5.44805 0,0.59545 0.2114,1.08261 0.46976,1.08261 0.58439,0 0.63127,6.74173 0.0545,7.87493 -0.22821,0.44864 -0.66951,1.36496 -0.98077,2.03628 -0.82209,1.77361 -2.3942,3.39098 -4.00652,4.12209 -0.77511,0.35147 -1.77637,0.82575 -2.225,1.05397 -0.44862,0.22823 -5.04649,0.41497 -10.217367,0.41497 h -9.401677 z" />
	 <path id="MIUIPOLSKA7" style="fill:#000000;stroke:#000000;stroke-width:0.653443" d="m 153.38942,367.39303 c -1.16267,-0.56242 -2.50508,-1.34463 -2.9831,-1.73821 -2.43865,-2.00771 -3.59361,-3.27965 -3.59361,-3.95755 0,-0.41307 -0.21139,-0.75105 -0.46976,-0.75105 -0.25837,0 -0.46977,-0.38755 -0.46977,-0.86124 0,-0.47368 -0.14487,-1.00612 -0.32198,-1.18318 -0.17701,-0.17707 -0.59659,-1.11073 -0.93238,-2.0748 -0.75848,-2.17767 -0.8981,-26.19107 -0.15493,-26.65036 0.25837,-0.15968 0.46977,-0.69496 0.46977,-1.18953 0,-0.49456 0.53778,-1.80329 1.19508,-2.9083 0.65729,-1.10501 1.31609,-2.37904 1.46407,-2.8312 0.14797,-0.45214 0.40296,-0.82258 0.56653,-0.82318 0.16366,-6.2e-4 1.03743,-0.6343 1.94173,-1.4082 0.9043,-0.77389 1.90846,-1.40758 2.23138,-1.40819 0.323,-6e-4 0.5872,-0.2125 0.5872,-0.47086 0,-0.25837 0.51599,-0.46977 1.1467,-0.46977 0.63071,0 1.27738,-0.21139 1.43701,-0.46976 0.69271,-1.12082 8.41244,-0.40441 11.22127,1.04136 4.7852,2.46306 5.08115,2.76553 7.48316,7.64929 2.1255,4.32149 2.31123,5.60623 2.34327,16.20687 0.0245,8.04055 -0.28129,11.96895 -1.07764,13.85805 -0.21778,0.51675 -0.67674,1.62656 -1.01985,2.46626 -0.34312,0.8397 -0.78367,1.52674 -0.9789,1.52674 -0.19533,0 -0.35515,0.32414 -0.35515,0.7203 0,0.67041 -2.9301,3.97735 -3.52408,3.97735 -0.14694,0 -0.83148,0.36982 -1.52136,0.82184 -2.23159,1.46216 -4.50336,1.98293 -8.57773,1.96625 -3.11679,-0.0128 -4.45684,-0.24072 -6.10693,-1.03893 z" />
	 <path id="MIUIPOLSKA8" style="fill:#000000;stroke:#000000;stroke-width:0.653443" d="m 387.24303,348.96723 c 0.1056,-0.9043 0.38024,-1.64418 0.61032,-1.64418 0.2301,0 0.41838,-0.63418 0.41838,-1.4093 0,-0.7751 0.21139,-1.40929 0.46976,-1.40929 0.25838,0 0.46977,-0.52849 0.46977,-1.17441 0,-0.64593 0.21138,-1.17441 0.46976,-1.17441 0.25837,0 0.46976,-0.63419 0.46976,-1.40929 0,-0.77512 0.21139,-1.4093 0.46977,-1.4093 0.25837,0 0.46976,-0.38238 0.46976,-0.84974 0,-0.46737 0.31042,-1.26009 0.68972,-1.76163 0.37937,-0.50152 0.69647,-1.28466 0.70463,-1.74033 0.0142,-0.80224 0.19975,-1.28365 1.35086,-3.51049 0.29877,-0.57783 0.54315,-1.43398 0.54315,-1.90254 0,-0.46858 0.19354,-1.05277 0.43002,-1.29822 0.23648,-0.24546 0.50068,-0.97477 0.5872,-1.62069 0.22436,-1.67622 1.43485,-1.45204 1.90235,0.35232 0.21761,0.83971 0.60102,1.52674 0.85197,1.52674 0.25096,0 0.45633,0.63418 0.45633,1.40929 0,0.77511 0.21139,1.4093 0.46978,1.4093 0.25836,0 0.46975,0.63418 0.46975,1.40929 0,0.77511 0.2114,1.40929 0.46977,1.40929 0.25837,0 0.46977,0.51601 0.46977,1.14669 0,0.63067 0.21139,1.27734 0.46975,1.43702 0.25839,0.15968 0.46978,0.80634 0.46978,1.43701 0,0.63067 0.21139,1.14669 0.46975,1.14669 0.25838,0 0.46978,0.5919 0.46978,1.31535 0,0.72343 0.17465,1.51616 0.38811,1.76161 0.21346,0.24544 0.68219,1.39755 1.04175,2.56022 0.35947,1.16266 0.92346,2.64242 1.25315,3.28835 1.2056,2.36165 1.25314,2.34882 -8.69563,2.34882 h -9.30097 z" />
</svg>