<?xml version="1.0" encoding="UTF-8" standalone="no"?>
<svg id="RUMBLESVG" width="1499.9994" height="338.284" viewBox="0 0 1499.9994 338" version="1.1" xml:space="preserve" xmlns:xlink="http://www.w3.org/1999/xlink" xmlns="http://www.w3.org/2000/svg" xmlns:svg="http://www.w3.org/2000/svg">
   <defs id="RUMBLEDEFS" />
	 <path id="RUMBLE1" style="fill:#000000;stroke:#000000;stroke-width:4.80766" d="m 196.74976,190.56694 c 13.48261,-10.30092 13.47973,-30.24505 0.13413,-40.72481 -19.78212,-15.53358 -41.00798,-28.58689 -62.7627,-38.48876 -15.48309,-7.04708 -32.82675,2.76681 -35.303184,19.67058 -3.783637,25.82969 -4.524978,51.73725 -2.074509,76.45397 1.683166,16.97685 18.792233,27.1768 34.499363,20.7153 23.45182,-9.64707 45.36132,-22.23404 65.5069,-37.62628 z m 100.80866,-75.12992 c 29.57869,30.55417 29.71091,78.7198 0.25528,109.39419 -52.23148,54.39348 -117.20715,91.4962 -190.59861,108.79658 C 68.678725,342.7119 29.255547,321.88123 17.579017,283.86024 -4.5977068,211.64905 -1.3409817,129.96434 20.089292,57.362763 31.347844,19.220972 68.877282,-4.7336763 107.46797,4.0873212 179.00032,20.438227 246.17308,62.358419 297.55842,115.43702 Z" />
	 <path id="RUMBLE2" style="fill:#000000;stroke:#000000;stroke-width:4.80766" d="m 1213.9863,203.8438 c 4.2356,-10.87542 6.3557,-22.45037 6.3557,-34.72531 0,-12.27495 -2.0625,-23.79604 -6.1922,-34.56378 -4.1298,-10.87495 -10.048,-20.3504 -17.7595,-28.42631 -7.7164,-8.075443 -17.1106,-14.482146 -28.1922,-19.219626 -11.0816,-4.737958 -23.5721,-7.106689 -37.4807,-7.106689 -10.2115,0 -19.3365,1.399504 -27.3749,4.199019 -7.9278,2.799984 -14.9374,6.406694 -21.0191,10.821583 V 25.210755 h -50.3507 V 163.62716 c 0,60.36366 37.2451,94.80773 97.9322,94.80773 13.798,0 26.2357,-2.31489 37.3172,-6.94516 11.1875,-4.73747 20.6922,-11.14418 28.5143,-19.21963 7.9326,-8.18361 14.0143,-17.65904 18.2499,-28.4263 z m -47.5815,-53.62234 c 2.3895,5.59902 3.5865,11.84417 3.5865,18.73548 0,6.99902 -1.197,13.35186 -3.5865,19.05857 -2.3894,5.7067 -5.649,10.60572 -9.7739,14.69753 -4.024,4.0918 -8.8028,7.26823 -14.3414,9.52927 -5.4327,2.15337 -11.2451,3.23029 -17.4375,3.23029 -6.298,0 -12.1681,-1.07692 -17.596,-3.23029 -5.4327,-2.26104 -10.2115,-5.38362 -14.3413,-9.36773 -4.0192,-4.09181 -7.226,-8.99083 -9.6153,-14.69753 -2.2788,-5.81441 -3.423,-12.22109 -3.423,-19.22011 0,-6.89131 1.1972,-13.13646 3.5864,-18.73548 2.3894,-5.70671 5.5962,-10.55235 9.6154,-14.53599 4.1298,-4.09181 8.9086,-7.21439 14.3413,-9.36774 5.5384,-2.26106 11.4038,-3.39182 17.596,-3.39182 6.3029,0 12.1682,1.13076 17.6008,3.39182 5.5387,2.15335 10.3175,5.27593 14.3368,9.36774 4.019,3.98364 7.1729,8.82928 9.4517,14.53599 z" />
	 <path id="RUMBLE3" style="fill:#000000;stroke:#000000;stroke-width:4.80766" d="m 514.42229,85.2934 v 43.44691 l -21.18742,0.16155 c -13.90377,0 -24.76669,3.82255 -32.58877,11.46725 -7.71295,7.64515 -11.56917,19.16624 -11.56917,34.56378 v 77.84913 h -50.18871 v -84.45824 c 0,-56.10648 41.89307,-83.03038 91.57745,-83.03038 z" />
	 <path id="RUMBLE4" style="fill:#000000;stroke:#000000;stroke-width:4.80766" d="m 622.07562,215.14952 c 5.53845,0 10.53841,-0.69999 14.99032,-2.09952 4.4567,-1.39999 8.20187,-3.71488 11.24513,-6.94516 3.14904,-3.33795 5.53845,-7.69899 7.16825,-13.08261 1.62979,-5.38364 2.4471,-12.11342 2.4471,-20.18886 V 85.2934 h 50.51419 v 89.15487 c 0,15.28983 -2.17307,28.26477 -6.51921,38.92481 -4.34614,10.55188 -10.37496,19.16577 -18.08645,25.8417 -7.71631,6.56826 -16.84128,11.36005 -27.37486,14.37493 -10.53843,3.0149 -21.99991,4.5221 -34.38447,4.5221 -12.38455,0 -23.84604,-1.5072 -34.38444,-4.5221 -10.53361,-3.01488 -19.65858,-7.80667 -27.37488,-14.37493 -7.7115,-6.67593 -13.74032,-15.28982 -18.08647,-25.8417 -4.34611,-10.66004 -6.51918,-23.63498 -6.51918,-38.92481 V 85.2934 h 50.51419 v 87.53997 c 0,7.96775 0.8173,14.69752 2.44709,20.18886 1.62979,5.38362 3.96632,9.74466 7.00477,13.08261 3.14903,3.23028 6.9519,5.54517 11.40861,6.94516 4.4519,1.39953 9.45188,2.09952 14.99031,2.09952 z" />
	 <path id="RUMBLE5" style="fill:#000000;stroke:#000000;stroke-width:4.80766" d="M 1239.4861,252.78202 V 25.210755 h 50.3557 V 252.78202 Z" />
	 <path id="RUMBLE6" style="fill:#000000;stroke:#000000;stroke-width:4.80766" d="m 1316.0675,134.55471 c -4.5624,10.76774 -6.8412,22.28883 -6.8412,34.56378 0,12.16724 2.2788,23.68835 6.8412,34.56378 4.6731,10.76726 11.1345,20.18884 19.3941,28.26476 8.2548,8.07544 18.1394,14.48215 29.6538,19.21963 11.5191,4.63026 24.1729,6.94515 37.9711,6.94515 11.8412,0 22.6488,-1.66874 32.4276,-5.00671 9.8845,-3.33795 18.5721,-7.75284 26.072,-13.24416 7.4952,-5.49132 13.7932,-11.73648 18.899,-18.73549 5.2163,-7.1067 9.0191,-14.32061 11.4086,-21.64268 h -54.4278 c -3.0384,5.16823 -7.495,9.42158 -13.3604,12.75954 -5.8654,3.33798 -12.7643,5.00673 -20.697,5.00673 -4.8847,0 -9.6683,-0.80721 -14.3365,-2.4226 -4.5625,-1.6149 -8.8557,-3.87642 -12.8749,-6.78362 -3.9087,-3.01489 -7.3317,-6.62208 -10.2644,-10.8211 -2.9327,-4.19949 -5.1587,-8.93698 -6.6827,-14.2134 h 137.0426 c 0.327,-1.93797 0.5962,-3.87594 0.8126,-5.81439 0.3269,-1.93796 0.4904,-4.62979 0.4904,-8.07544 0,-12.27495 -2.3366,-23.79604 -7.0049,-34.56378 -4.5624,-10.87495 -11.0287,-20.3504 -19.394,-28.42631 -8.2548,-8.075443 -18.1971,-14.428298 -29.8173,-19.05857 -11.5144,-4.73747 -24.2788,-7.10621 -38.2929,-7.10621 -13.7982,0 -26.452,2.36874 -37.9711,7.10621 -11.5144,4.630272 -21.4519,10.983127 -29.8172,19.05857 -8.2548,8.07591 -14.6681,17.55136 -19.2307,28.42631 z m 60.6199,-7.10669 c 7.2788,-5.27595 16.1875,-7.91391 26.7211,-7.91391 10.2115,0 18.7402,2.69181 25.5864,8.07544 6.8412,5.27641 11.8413,12.16724 14.9902,20.67394 h -83.1053 c 3.2596,-8.61438 8.5289,-15.55908 15.8076,-20.83547 z" />
	 <path id="RUMBLE7" style="fill:#000000;stroke:#000000;stroke-width:4.80766" d="m 845.55053,162.65793 v 90.12409 h 50.68726 v -90.12409 c 0.7596,-21.40662 11.20187,-39.73202 34.29791,-39.73202 21.68258,0 30.06716,22.46048 30.06716,40.70125 v 89.15486 h 50.51424 v -84.45295 c 0,-52.44014 -27.46145,-88.36545 -78.96122,-88.36545 -28.41333,0 -48.00457,9.789377 -61.26414,23.02105 -13.25474,-13.231673 -32.846,-23.02105 -61.25931,-23.02105 -51.50457,0 -78.96597,35.92531 -78.96597,88.36545 v 84.45295 h 50.519 v -89.15486 c 0,-18.24077 8.38455,-40.70125 30.06715,-40.70125 23.09605,0 33.5383,18.3254 34.29792,39.73202 z" />
</svg>