<?xml version="1.0" encoding="UTF-8" standalone="no"?>
<svg id="RUMBLESVG" width="1500px" height="338.284px" viewBox="0 0 1500 338,284" version="1.1" xml:space="preserve" xmlns:xlink="http://www.w3.org/1999/xlink" xmlns="http://www.w3.org/2000/svg" xmlns:svg="http://www.w3.org/2000/svg">
   <defs id="RUMBLEDEFS" />
	 <path id="RUMBLE1" style="fill:#000000;stroke:#000000;stroke-width:4.82301" d="m 194.95971,188.90923 c 13.52565,-10.33379 13.52276,-30.34158 0.13456,-40.85479 -19.84526,-15.58315 -41.13886,-28.67812 -62.963,-38.61159 -15.53251,-7.06958 -32.931531,2.77564 -35.415865,19.73335 -3.795711,25.91213 -4.53942,51.90238 -2.08113,76.69798 1.688537,17.03102 18.852195,27.26353 34.609465,20.7814 23.52666,-9.67786 45.50609,-22.30499 65.71597,-37.74635 z M 296.0901,113.53951 c 29.6731,30.6517 29.80574,78.97106 0.2561,109.74333 C 243.94802,277.84993 178.76499,315.07106 105.13928,332.42667 66.479934,341.53976 26.930935,320.6426 15.217138,282.50028 -7.030362,210.05862 -3.763243,128.11321 17.735426,55.279924 29.02991,17.016404 66.679125,-7.0146965 105.39297,1.8344535 177.15362,18.237544 244.54077,60.291524 296.0901,113.53951 Z" />
	 <path id="RUMBLE2" style="fill:#000000;stroke:#000000;stroke-width:4.82301" d="m 1215.4428,202.22846 c 4.2491,-10.91014 6.376,-22.52202 6.376,-34.83614 0,-12.31412 -2.0691,-23.87199 -6.212,-34.67409 -4.143,-10.90966 -10.0801,-20.41534 -17.8162,-28.51704 -7.741,-8.101206 -17.1652,-14.528356 -28.2822,-19.280956 -11.117,-4.75308 -23.6472,-7.12937 -37.6002,-7.12937 -10.2441,0 -19.3982,1.40397 -27.4623,4.21242 -7.9531,2.80892 -14.9851,6.42714 -21.0862,10.85612 v -69.8341 h -50.5114 V 161.88347 c 0,60.55631 37.3639,95.11031 98.2448,95.11031 13.842,0 26.3192,-2.32228 37.4362,-6.96733 11.2232,-4.75259 20.7583,-11.17974 28.6053,-19.28096 7.958,-8.20973 14.0591,-17.71541 18.3082,-28.51703 z m -47.7334,-53.79348 c 2.3971,5.61688 3.598,11.88198 3.598,18.79528 0,7.02135 -1.2009,13.39448 -3.598,19.11939 -2.397,5.72492 -5.667,10.63957 -9.8052,14.74444 -4.0368,4.10486 -8.8309,7.29143 -14.387,9.55969 -5.45,2.16023 -11.281,3.24059 -17.4931,3.24059 -6.3181,0 -12.207,-1.08036 -17.6522,-3.24059 -5.45,-2.26826 -10.2441,-5.40081 -14.3871,-9.39764 -4.032,-4.10487 -7.249,-9.01952 -9.646,-14.74443 -2.2861,-5.83296 -3.434,-12.2601 -3.434,-19.28145 0,-6.9133 1.201,-13.1784 3.598,-18.79528 2.397,-5.72492 5.614,-10.58603 9.646,-14.58238 4.143,-4.10487 8.9371,-7.23742 14.3871,-9.39764 5.5561,-2.26827 11.4402,-3.40264 17.6522,-3.40264 6.323,0 12.207,1.13437 17.657,3.40264 5.5562,2.16022 10.3502,5.29277 14.3823,9.39764 4.032,3.99635 7.1959,8.85746 9.482,14.58238 z" />
	 <path id="RUMBLE3" style="fill:#000000;stroke:#000000;stroke-width:4.82301" d="m 513.6461,83.299704 v 43.585566 l -21.25502,0.16206 c -13.94815,0 -24.84575,3.83477 -32.69279,11.50385 -7.73756,7.66955 -11.6061,19.22742 -11.6061,34.67409 v 78.09761 H 397.7433 v -84.72781 c 0,-56.28553 42.02678,-83.295366 91.86973,-83.295366 z" />
	 <path id="RUMBLE4" style="fill:#000000;stroke:#000000;stroke-width:4.82301" d="m 621.64302,213.57026 c 5.55611,0 10.57204,-0.70223 15.03815,-2.10621 4.47094,-1.40446 8.22806,-3.72674 11.28103,-6.96733 3.15908,-3.34861 5.55611,-7.72357 7.19111,-13.12438 1.63501,-5.40081 2.45492,-12.15206 2.45492,-20.25328 V 83.299704 h 50.6754 v 89.439406 c 0,15.33863 -2.18,28.35498 -6.54001,39.04905 -4.36,10.58555 -10.40806,19.22694 -18.14417,25.92417 -7.74094,6.58921 -16.89502,11.3963 -27.46224,14.42081 -10.57205,3.02452 -22.07011,4.53653 -34.49419,4.53653 -12.42408,0 -23.92215,-1.51201 -34.49419,-4.53653 -10.56723,-3.02451 -19.72131,-7.8316 -27.46224,-14.42081 -7.73612,-6.69723 -13.78417,-15.33862 -18.14418,-25.92417 -4.36,-10.69407 -6.54,-23.71042 -6.54,-39.04905 V 83.299704 h 50.6754 v 87.819356 c 0,7.99318 0.81991,14.74443 2.45491,20.25328 1.635,5.40081 3.97899,9.77577 7.02713,13.12438 3.15908,3.24059 6.97408,5.56287 11.44501,6.96733 4.46611,1.40398 9.48205,2.10621 15.03816,2.10621 z" />
	 <path id="RUMBLE5" style="fill:#000000;stroke:#000000;stroke-width:4.82301" d="M 1241.024,251.32288 V 23.025304 h 50.5163 V 251.32288 Z" />
	 <path id="RUMBLE6" style="fill:#000000;stroke:#000000;stroke-width:4.82301" d="m 1317.8498,132.71823 c -4.577,10.8021 -6.8631,22.35997 -6.8631,34.67409 0,12.20608 2.2861,23.76395 6.8631,34.67409 4.688,10.80162 11.1701,20.25328 19.4561,28.35498 8.2811,8.10121 18.1972,14.52836 29.7483,19.28096 11.5559,4.64504 24.2501,6.96732 38.0922,6.96732 11.879,0 22.7212,-1.67407 32.5312,-5.02268 9.9161,-3.34862 18.6313,-7.7776 26.1552,-13.28644 7.5191,-5.50885 13.8372,-11.77394 18.9593,-18.79529 5.2329,-7.12937 9.0479,-14.36631 11.445,-21.71175 h -54.6014 c -3.0481,5.18473 -7.519,9.45165 -13.4031,12.80027 -5.8841,3.34862 -12.8051,5.02269 -20.7631,5.02269 -4.9002,0 -9.6991,-0.80978 -14.3822,-2.43032 -4.5771,-1.62005 -8.884,-3.88879 -12.916,-6.80527 -3.9212,-3.02451 -7.3551,-6.64322 -10.2972,-10.85564 -2.942,-4.2129 -5.1751,-8.9655 -6.704,-14.25875 h 137.48 c 0.328,-1.94416 0.5981,-3.88832 0.8151,-5.83296 0.328,-1.94415 0.492,-4.64456 0.492,-8.10121 0,-12.31412 -2.344,-23.87199 -7.0272,-34.67409 -4.577,-10.90966 -11.064,-20.41534 -19.456,-28.51704 -8.2811,-8.101206 -18.2551,-14.474336 -29.9123,-19.119386 -11.5512,-4.75259 -24.3563,-7.12889 -38.4153,-7.12889 -13.8421,0 -26.5363,2.3763 -38.0922,7.12889 -11.5511,4.64505 -21.5203,11.01818 -29.9123,19.119386 -8.2811,8.1017 -14.715,17.60738 -19.2921,28.51704 z m 60.8134,-7.12938 c 7.302,-5.29278 16.2391,-7.93916 26.8063,-7.93916 10.2441,0 18.8001,2.7004 25.6681,8.10121 6.8631,5.29326 11.8791,12.20608 15.0381,20.73992 h -83.3706 c 3.27,-8.64187 8.5561,-15.60872 15.8581,-20.90197 z" />
	 <path id="RUMBLE7" style="fill:#000000;stroke:#000000;stroke-width:4.82301" d="m 845.83115,160.91115 v 90.41173 h 50.84903 v -90.41173 c 0.76203,-21.47495 11.23762,-39.85883 34.40738,-39.85883 21.75179,0 30.16312,22.53215 30.16312,40.83115 v 89.43941 h 50.67542 v -84.7225 c 0,-52.6075 -27.54907,-88.647466 -79.21319,-88.647466 -28.50401,0 -48.15779,9.82062 -61.45966,23.094516 -13.29705,-13.273896 -32.95083,-23.094516 -61.45483,-23.094516 -51.66895,0 -79.218,36.039966 -79.218,88.647466 v 84.7225 h 50.68023 v -89.43941 c 0,-18.299 8.41133,-40.83115 30.16312,-40.83115 23.16976,0 33.64534,18.38388 34.40738,39.85883 z" />
</svg>
