<?xml version="1.0" encoding="UTF-8" standalone="no"?>
<svg id="ZAMKNIJSVG" width="500.00534" height="500" viewBox="0 0 15.00016 15" version="1.1" xml:space="preserve" xmlns:xlink="http://www.w3.org/1999/xlink" xmlns="http://www.w3.org/2000/svg" xmlns:svg="http://www.w3.org/2000/svg">
<defs id="ZAMKNIJDEFS" />
	<g id="ZAMKNIJG" transform="matrix(0.83311631,0,0,0.83311631,-2.4973948,-2.4973948)">
	 <path id="ZAMKNIJ1" style="fill:none;stroke:#000000;stroke-width:2;stroke-linecap:round;stroke-linejoin:round" d="m 9,9 2.9999,2.9999 m 0,0 3,3 m -3,-3 -2.9999,3 m 2.9999,-3 3,-2.9999 M 4,16.8002 v -9.6 C 4,6.08009 4,5.51962 4.21799,5.0918 4.40973,4.71547 4.71547,4.40973 5.0918,4.21799 5.51962,4 6.08009,4 7.2002,4 h 9.6 c 1.1201,0 1.6799,0 2.1077,0.21799 0.3763,0.19174 0.6826,0.49748 0.8743,0.87381 0.218,0.42782 0.218,0.98787 0.218,2.10798 v 9.60002 c 0,1.1201 0,1.6802 -0.218,2.108 -0.1917,0.3763 -0.498,0.6827 -0.8743,0.8744 C 18.4805,20 17.9215,20 16.8036,20 H 7.19691 C 6.07899,20 5.5192,20 5.0918,19.7822 4.71547,19.5905 4.40973,19.2842 4.21799,18.9079 4,18.4801 4,17.9203 4,16.8002 Z" />
	</g>
</svg>