<?xml version="1.0" encoding="UTF-8" standalone="no"?>
<svg id="MESSENGER" width="464.62332" height="464.70023" viewBox="0 0 464.62332 464.70023" version="1.1" xml:space="preserve" xmlns:xlink="http://www.w3.org/1999/xlink" xmlns="http://www.w3.org/2000/svg" xmlns:svg="http://www.w3.org/2000/svg">
   <defs id="MESSENGERDEFS" />
	 <path id="MESSENGER1" style="fill:#000000;stroke:#000000;stroke-width:14.5185" d="M 0.03331006,225.34068 C 0.03331006,95.807173 101.43007,3.0704189e-6 232.32831,3.0704189e-6 c 130.89823,0 232.295,95.8071699295811 232.295,225.3406769295811 0,129.4609 -101.39677,225.34066 -232.295,225.34066 -23.44728,0 -46.05249,-3.10694 -67.14778,-8.92884 -4.15227,-1.13243 -8.55136,-0.75495 -12.39874,0.98726 l -46.28478,20.34033 C 94.403153,468.45191 80.712267,459.82796 80.334788,446.60166 L 78.970054,405.16604 C 78.82487,400.09911 76.545475,395.40965 72.843273,392.01234 25.730944,349.51687 -0.80875932,288.80077 0.01879161,225.3552 Z M 161.10085,182.9178 92.965828,291.35602 c -6.809148,10.20646 6.199373,22.08253 15.883162,14.51843 l 73.34715,-55.57657 c 5.06694,-3.86191 11.64379,-3.86191 16.8559,0 l 54.13926,40.68066 c 16.33324,12.18097 39.54822,7.70929 50.36446,-9.30632 l 68.13502,-108.43821 c 6.80915,-10.20647 -6.19937,-21.85025 -15.88317,-14.51844 l -73.34714,55.57658 c -4.83464,3.8619 -11.64379,3.8619 -16.63813,0 l -54.21185,-40.68066 c -16.33324,-12.32616 -39.62081,-8.01418 -50.50964,9.30631 z" />
</svg>
