<?xml version="1.0" encoding="UTF-8" standalone="no"?>
<svg id="MESSENGERSVG" width="499.97873" height="500.00003" viewBox="0 0 499.97873 500.00004" version="1.1" xml:space="preserve" xmlns:xlink="http://www.w3.org/1999/xlink" xmlns="http://www.w3.org/2000/svg" xmlns:svg="http://www.w3.org/2000/svg">
   <defs id="MESSENGERDEFS" />
	 <path id="MESSENGER1" style="fill:#000000;stroke:#000000;stroke-width:15.1499" d="M 7.6097052,242.71524 C 7.6097052,107.54858 113.41601,7.5749502 250.00674,7.5749502 c 136.59073,0 242.39704,99.9736298 242.39704,235.1402898 0,135.09089 -105.80631,235.14026 -242.39704,235.14026 -24.46695,0 -48.05521,-3.24205 -70.0679,-9.31714 -4.33284,-1.18167 -8.92324,-0.78778 -12.93793,1.0302 L 118.7033,490.79345 C 106.0835,496.39888 91.797226,487.39989 91.403331,473.5984 L 89.979247,430.36083 C 89.82775,425.07355 87.449228,420.18016 83.586025,416.63511 34.424877,372.2916 6.7310159,308.93508 7.5945554,242.73039 Z M 175.68175,198.44747 104.58367,311.60145 c -7.105265,10.65032 6.46897,23.04285 16.57389,15.14981 l 76.53687,-57.99349 c 5.28729,-4.02985 12.15015,-4.02985 17.58893,0 l 56.49366,42.44978 c 17.04354,12.7107 41.26809,8.04455 52.55471,-9.71103 L 395.4298,188.34255 c 7.10527,-10.65033 -6.46896,-22.80047 -16.57389,-15.14981 l -76.53686,57.99349 c -5.04489,4.02984 -12.15016,4.02984 -17.36169,0 l -56.56941,-42.44978 c -17.04354,-12.8622 -41.34384,-8.3627 -52.7062,9.71102 z" />
</svg>
