<?xml version="1.0" encoding="UTF-8" standalone="no"?>
<svg id="YOUTUBEMUSICSVG" width="1500" height="512.03174" viewBox="0 0 1499.9991 8.9999957" version="1.1" xml:space="preserve" xmlns:xlink="http://www.w3.org/1999/xlink" xmlns="http://www.w3.org/2000/svg" xmlns:svg="http://www.w3.org/2000/svg">
     <g id="YOUTUBEMUSICNAPIS" style="fill:#000000;fill-opacity:1" transform="matrix(19.739161,0,0,19.739161,-0.7564709,-252.16414)">
         <path id="M" style="fill:#000000;fill-opacity:1" d="m 30.112,21.8671 h 2.32 v -7.29 c 0,-2.04 -0.04,-4.21 -0.2,-7.10995 h 0.26 l 0.43,1.78 2.74,12.61995 h 2.36 l 2.69,-12.61995 0.47,-1.78 h 0.24 c -0.12,2.56995 -0.19,4.88995 -0.19,7.10995 v 7.29 h 2.33 V 5.06715 h -3.96 l -1.42,6.20995 c -0.6,2.58 -1.03,5.78 -1.28,7.41 h -0.19 c -0.18,-1.66 -0.63,-4.85 -1.22,-7.39 l -1.46,-6.22995 h -3.92 z" />
         <path id="U" style="fill:#000000;fill-opacity:1" d="m 48.202,22.0571 c 1.46,0 2.37,-0.61 3.12,-1.71 h 0.11 l 0.11,1.52 h 1.99 V 9.50715 h -2.64 v 9.92995 c -0.28,0.49 -0.93,0.85 -1.54,0.85 -0.77,0 -1.01,-0.61 -1.01,-1.63 V 9.50715 h -2.63 v 9.26995 c 0,2.01 0.58,3.28 2.49,3.28 z" />
         <path id="S" style="fill:#000000;fill-opacity:1" d="m 58.7536,22.1271 c 2.42,0 3.77,-1.07 3.77,-3.26 0,-1.99 -1,-2.8 -3.38,-4.42 -1.09,-0.72 -1.68,-1.17 -1.68,-2.23 0,-0.79 0.49,-1.21 1.38,-1.21 0.97,0 1.3,0.64 1.34,2.46 l 2.16,-0.12 c 0.18,-2.85 -0.84,-4.06995 -3.46,-4.06995 -2.48,0 -3.67,1.06995 -3.67,3.18995 0,1.96 0.93,2.85 2.68,4.07 1.55,1.07 2.4,1.74 2.4,2.63 0,0.73 -0.51,1.26 -1.4,1.26 -1.02,0 -1.6,-0.88 -1.5,-2.21 l -2.19,0.04 c -0.34,2.56 0.86,3.87 3.55,3.87 z" />
         <path id="I" style="fill:#000000;fill-opacity:1" d="m 65.387,7.93715 c 0.9,0 1.32,-0.3 1.32,-1.54 0,-1.16 -0.45,-1.52 -1.32,-1.52 -0.88,0 -1.31,0.32 -1.31,1.52 0,1.24 0.41,1.54 1.31,1.54 z m -1.22,13.92995 h 2.53 V 9.50715 h -2.53 z" />
         <path id="C" style="fill:#000000;fill-opacity:1" d="m 72.3428,22.0671 c 1.26,0 1.97,-0.1499 2.54,-0.69 0.85,-0.74 1.2,-1.89 1.14,-3.83 l -2.31,-0.12 c 0,2.12 -0.34,2.92 -1.33,2.92 -1.09,0 -1.27,-1.19 -1.27,-3.35 v -2.56 c 0,-2.36 0.23,-3.48 1.29,-3.48 0.88,0 1.23,0.74 1.23,3.1 l 2.29,-0.16 c 0.16,-1.69 -0.01,-3.07 -0.81,-3.84 -0.6,-0.55995 -1.49,-0.77995 -2.67,-0.77995 -3.03,0 -3.97,1.91995 -3.97,5.56995 v 1.69 c 0,3.65 0.71,5.53 3.87,5.53 z" />
     </g>
         <path id="YOUTUBEMUSICLOGOZEWNETRZNE" style="fill:#000000;stroke-width:1.02276" d="M 242.98538,260.22863 C 205.20417,258.56828 166.5737,247.69029 133.14289,229.29788 64.416713,191.48727 16.292833,124.20465 3.3451337,47.82582 0.66235143,31.999822 0,23.410591 0,4.4449449 0,-14.520742 0.66235143,-23.109973 3.3451337,-38.936009 21.403708,-145.46404 106.34595,-230.17052 213.08863,-248.09722 c 15.54237,-2.61021 25.65389,-3.4185 42.76398,-3.4185 29.48173,0 53.4987,3.84926 80.99856,12.98194 89.18119,29.61703 155.8457,107.19945 171.50892,199.597771 2.68286,15.826036 3.34514,24.415267 3.34514,43.3809539 0,18.9656461 -0.66228,27.5548771 -3.34514,43.3808751 -15.57886,91.90031 -81.78197,169.36213 -170.24792,199.20063 -31.01167,10.45987 -61.4383,14.68262 -95.12679,13.20218 z m 39.70458,-99.80009 c 50.16993,-8.99878 92.19363,-40.18903 114.56386,-85.030078 11.46723,-22.986077 16.58833,-44.890644 16.58833,-70.9535171 0,-15.1430019 -1.18859,-25.0789899 -4.67365,-39.0694629 -13.80017,-55.399685 -58.40361,-100.146642 -113.83029,-114.196602 -14.49451,-3.67411 -20.71841,-4.37643 -39.11797,-4.41377 -19.37961,-0.0397 -26.64113,0.83887 -42.188,5.10243 -49.16687,13.48361 -88.99837,49.962704 -106.6782,97.699595 -10.43966,28.187949 -12.464781,61.568585 -5.53729,91.273635 10.29294,44.136176 39.91251,82.34922 80.34286,103.65258 17.64714,9.29854 36.27776,14.88649 58.61998,17.58212 1.41542,0.17083 9.52171,0.21127 18.01412,0.0903 11.5866,-0.16517 17.55116,-0.5989 23.89625,-1.73699 z" />
         <path id="YOUTUBEMUSICLOGOSRODKOWE" style="fill:#000000;stroke-width:1.02276" d="M 236.00036,140.78477 C 203.79578,135.85457 173.80967,119.59064 152.71962,95.614641 107.431,44.128728 106.52776,-31.77506 150.57891,-84.273431 c 21.5952,-25.736219 52.27303,-42.753679 85.88343,-47.640749 10.29432,-1.49684 28.5953,-1.46937 39.10882,0.0586 44.89146,6.52463 83.83586,34.901264 103.81013,75.640707 30.49073,62.1887306 10.46584,136.646584 -47.06064,174.984433 -17.8715,11.91022 -36.25345,19.00639 -57.07777,22.03436 -9.64452,1.40231 -30.02188,1.39233 -39.24252,-0.0227 z m 40.4398,-94.357638 c 40.03543,-22.704579 72.79168,-41.5965624 72.79168,-41.9821871 0,-0.699174 -144.42637,-82.9354029 -146.87008,-83.6277359 -1.22011,-0.345449 -1.28671,3.986414 -1.28671,83.6277359 0,79.6412811 0.0665,83.9733331 1.28671,83.6277331 0.70768,-0.200315 34.04297,-18.941005 74.0784,-41.645546 z" />
</svg>