<?xml version="1.0" encoding="UTF-8" standalone="no"?>
<svg id="YOUTUBEMUSICSVG" width="1500.0009" height="512.03198" viewBox="0 0 1500,0009 512,03198" version="1.1" xml:space="preserve" xmlns:xlink="http://www.w3.org/1999/xlink" xmlns="http://www.w3.org/2000/svg" xmlns:svg="http://www.w3.org/2000/svg">
     <g id="YOUTUBEMUSICNAPIS" style="fill:#000000;fill-opacity:1" transform="matrix(5.2226589,0,0,5.2226589,-0.20014982,-0.17156656)">
         <path id="M" style="fill:#000000;fill-opacity:1" d="m 30.112,21.8671 h 2.32 v -7.29 c 0,-2.04 -0.04,-4.21 -0.2,-7.10995 h 0.26 l 0.43,1.78 2.74,12.61995 h 2.36 l 2.69,-12.61995 0.47,-1.78 h 0.24 c -0.12,2.56995 -0.19,4.88995 -0.19,7.10995 v 7.29 h 2.33 V 5.06715 h -3.96 l -1.42,6.20995 c -0.6,2.58 -1.03,5.78 -1.28,7.41 h -0.19 c -0.18,-1.66 -0.63,-4.85 -1.22,-7.39 l -1.46,-6.22995 h -3.92 z" />
         <path id="U" style="fill:#000000;fill-opacity:1" d="m 48.202,22.0571 c 1.46,0 2.37,-0.61 3.12,-1.71 h 0.11 l 0.11,1.52 h 1.99 V 9.50715 h -2.64 v 9.92995 c -0.28,0.49 -0.93,0.85 -1.54,0.85 -0.77,0 -1.01,-0.61 -1.01,-1.63 V 9.50715 h -2.63 v 9.26995 c 0,2.01 0.58,3.28 2.49,3.28 z" />
         <path id="S" style="fill:#000000;fill-opacity:1" d="m 58.7536,22.1271 c 2.42,0 3.77,-1.07 3.77,-3.26 0,-1.99 -1,-2.8 -3.38,-4.42 -1.09,-0.72 -1.68,-1.17 -1.68,-2.23 0,-0.79 0.49,-1.21 1.38,-1.21 0.97,0 1.3,0.64 1.34,2.46 l 2.16,-0.12 c 0.18,-2.85 -0.84,-4.06995 -3.46,-4.06995 -2.48,0 -3.67,1.06995 -3.67,3.18995 0,1.96 0.93,2.85 2.68,4.07 1.55,1.07 2.4,1.74 2.4,2.63 0,0.73 -0.51,1.26 -1.4,1.26 -1.02,0 -1.6,-0.88 -1.5,-2.21 l -2.19,0.04 c -0.34,2.56 0.86,3.87 3.55,3.87 z" />
         <path id="I" style="fill:#000000;fill-opacity:1" d="m 65.387,7.93715 c 0.9,0 1.32,-0.3 1.32,-1.54 0,-1.16 -0.45,-1.52 -1.32,-1.52 -0.88,0 -1.31,0.32 -1.31,1.52 0,1.24 0.41,1.54 1.31,1.54 z m -1.22,13.92995 h 2.53 V 9.50715 h -2.53 z" />
         <path id="C" style="fill:#000000;fill-opacity:1" d="m 72.3428,22.0671 c 1.26,0 1.97,-0.1499 2.54,-0.69 0.85,-0.74 1.2,-1.89 1.14,-3.83 l -2.31,-0.12 c 0,2.12 -0.34,2.92 -1.33,2.92 -1.09,0 -1.27,-1.19 -1.27,-3.35 v -2.56 c 0,-2.36 0.23,-3.48 1.29,-3.48 0.88,0 1.23,0.74 1.23,3.1 l 2.29,-0.16 c 0.16,-1.69 -0.01,-3.07 -0.81,-3.84 -0.6,-0.55995 -1.49,-0.77995 -2.67,-0.77995 -3.03,0 -3.97,1.91995 -3.97,5.56995 v 1.69 c 0,3.65 0.71,5.53 3.87,5.53 z" />
     </g>
         <path id="YOUTUBEMUSICLOGOZEWNETRZNE" style="fill:#000000;stroke-width:0.270606" d="m 64.289956,135.39918 c -9.99629,-0.4393 -20.217282,-3.31744 -29.062527,-8.18377 C 17.043608,117.21134 4.3108169,99.409454 0.88506764,79.200863 0.17524735,75.013569 0,72.740993 0,67.722996 0,62.70499 0.17524735,60.432414 0.88506764,56.245111 5.6630708,28.059539 28.137397,5.6475894 56.379764,0.90447997 60.49202,0.21386154 63.167365,3.9303578e-7 67.694413,3.9303578e-7 75.494796,3.9303578e-7 81.849295,1.0184513 89.125306,3.4348105 112.72119,11.270986 130.35953,31.798029 134.50376,56.245111 c 0.70984,4.187303 0.88507,6.459879 0.88507,11.477885 0,5.017997 -0.17523,7.290573 -0.88507,11.477867 -4.12191,24.315327 -21.63817,44.810457 -45.044812,52.705237 -8.205182,2.76751 -16.255569,3.88478 -25.168992,3.49308 z m 10.50518,-26.40547 c 13.274144,-2.38093 24.392926,-10.63336 30.311724,-22.497575 3.03404,-6.081742 4.389,-11.877326 4.389,-18.773139 0,-4.006586 -0.31448,-6.635487 -1.23657,-10.337143 -3.6513,-14.657841 -15.45264,-26.497155 -30.117632,-30.214542 -3.83501,-0.972116 -5.481753,-1.157934 -10.349975,-1.167815 -5.127528,-0.01046 -7.048808,0.221951 -11.162255,1.350023 -13.008748,3.567543 -23.547512,13.219308 -28.225305,25.84971 -2.762164,7.458068 -3.297978,16.290043 -1.465076,24.149511 2.723341,11.677706 10.560197,21.788258 21.257405,27.42478 4.669143,2.46024 9.598501,3.93872 15.509887,4.65194 0.374496,0.0452 2.519288,0.0559 4.766241,0.0239 3.065624,-0.0437 4.64375,-0.15846 6.322556,-0.45958 z" />
         <path id="YOUTUBEMUSICLOGOSRODKOWE" style="fill:#000000;stroke-width:0.270606" d="M 62.441834,103.79629 C 53.921029,102.49184 45.987193,98.188664 40.407111,91.845004 28.424484,78.222675 28.185502,58.139778 39.840715,44.249572 45.554451,37.440188 53.671304,32.937651 62.564066,31.644604 c 2.723709,-0.39604 7.565848,-0.388769 10.347553,0.01551 11.877547,1.726311 22.181597,9.234305 27.466461,20.013291 8.06735,16.45412 2.76909,36.154451 -12.451474,46.298025 -4.728507,3.15125 -9.592069,5.02878 -15.101845,5.82993 -2.551782,0.37103 -7.943297,0.36839 -10.382927,-0.006 z M 73.141543,78.830796 c 10.592719,-6.007255 19.259487,-11.005769 19.259487,-11.1078 0,-0.184988 -38.212854,-21.943352 -38.859419,-22.126531 -0.322821,-0.09141 -0.340443,1.054745 -0.340443,22.126531 0,21.071778 0.0176,22.21797 0.340443,22.126531 0.187239,-0.053 9.007213,-5.011476 19.599932,-11.018731 z" />
</svg>